<svg xmlns="http://www.w3.org/2000/svg" xmlns:xlink="http://www.w3.org/1999/xlink" contentStyleType="text/css" data-diagram-type="CLASS" height="354px" preserveAspectRatio="none" style="width:1160px;height:354px;background:#FFFFFF;" version="1.1" viewBox="0 0 1160 354" width="1160px" zoomAndPan="magnify"><defs/><g><!--class REFERENCE_MODEL_ACCESS--><g class="entity" data-entity="REFERENCE_MODEL_ACCESS" data-source-line="2" data-uid="ent0002" id="entity_REFERENCE_MODEL_ACCESS"><rect fill="#F1F1F1" height="148.7996" rx="2.5" ry="2.5" style="stroke:#181818;stroke-width:0.5;" width="686.4891" x="7" y="157"/><ellipse cx="251.075" cy="173" fill="#ADD1B2" rx="11" ry="11" style="stroke:#181818;stroke-width:1;"/><path d="M251.075,179.4219 C252.2468,179.4219 253.4812,179.1563 254.8562,178.5469 L254.3718,177.0313 C253.2781,177.4531 252.2625,177.6406 251.4031,177.6406 C248.6843,177.6406 246.9656,175.7969 246.9656,172.8906 C246.9656,170.1406 248.5281,168.5469 251.2625,168.5469 C252.1843,168.5469 253.2,168.7344 254.3406,169.1563 L254.9187,167.6406 C253.825,167.0625 252.5281,166.7656 251.3406,166.7656 C247.575,166.7656 244.9968,169.4063 244.9968,173.2188 C244.9968,176.8906 247.4812,179.4219 251.075,179.4219 Z " fill="#000000"/><text fill="#000000" font-family="sans-serif" font-size="14" lengthAdjust="spacing" textLength="189.8392" x="271.575" y="178.362">REFERENCE_MODEL_ACCESS</text><line style="stroke:#181818;stroke-width:0.5;" x1="8" x2="692.4891" y1="189" y2="189"/><ellipse cx="18" cy="202.9" fill="none" rx="3" ry="3" style="stroke:#038048;stroke-width:1;"/><text fill="#000000" font-family="sans-serif" font-size="14" lengthAdjust="spacing" textLength="226.1131" x="27" y="206.7619">schema_directories : List&lt;String&gt; [*]</text><ellipse cx="18" cy="219.6999" fill="none" rx="3" ry="3" style="stroke:#038048;stroke-width:1;"/><text fill="#000000" font-family="sans-serif" font-size="14" lengthAdjust="spacing" textLength="355.3046" x="27" y="223.5619">all_schemas : Hash&lt;String,SCHEMA_DESCRIPTOR&gt; [0..1]</text><ellipse cx="18" cy="236.4998" fill="none" rx="3" ry="3" style="stroke:#038048;stroke-width:1;"/><text fill="#000000" font-family="sans-serif" font-size="14" lengthAdjust="spacing" textLength="303.3228" x="27" y="240.3618">valid_models : Hash&lt;String,BMM_MODEL&gt; [0..1]</text><line style="stroke:#181818;stroke-width:0.5;" x1="8" x2="692.4891" y1="247.3998" y2="247.3998"/><ellipse cx="18" cy="261.2997" fill="#84BE84" rx="3" ry="3" style="stroke:#038048;stroke-width:1;"/><text fill="#000000" font-family="sans-serif" font-size="14" lengthAdjust="spacing" textLength="660.4891" x="27" y="265.1617">initialise_with_load_list( a_schema_dirs : List&lt;String&gt; [1], a_schema_load_list : List&lt;String&gt; [0..1] ) : void [1]</text><ellipse cx="18" cy="278.0997" fill="#84BE84" rx="3" ry="3" style="stroke:#038048;stroke-width:1;"/><text fill="#000000" font-family="sans-serif" font-size="14" lengthAdjust="spacing" textLength="136.7234" x="27" y="281.9616">initialise_all() : void [1]</text><ellipse cx="18" cy="294.8996" fill="#84BE84" rx="3" ry="3" style="stroke:#038048;stroke-width:1;"/><text fill="#000000" font-family="sans-serif" font-size="14" lengthAdjust="spacing" textLength="164.1353" x="27" y="298.7616">reload_schemas() : void [1]</text></g><!--class BMM_DEFINITIONS--><g class="entity" data-entity="BMM_DEFINITIONS" data-source-line="11" data-uid="ent0003" id="entity_BMM_DEFINITIONS"><rect fill="#F5F5F5" height="48" rx="2.5" ry="2.5" style="stroke:#808080;stroke-width:1;stroke-dasharray:1,3;" width="156.4035" x="567.04" y="7"/><ellipse cx="582.04" cy="23" fill="#ADD1B2" rx="11" ry="11" style="stroke:#181818;stroke-width:1;"/><path d="M582.04,29.4219 C583.2119,29.4219 584.4463,29.1563 585.8213,28.5469 L585.3369,27.0313 C584.2431,27.4531 583.2275,27.6406 582.3681,27.6406 C579.6494,27.6406 577.9306,25.7969 577.9306,22.8906 C577.9306,20.1406 579.4931,18.5469 582.2275,18.5469 C583.1494,18.5469 584.165,18.7344 585.3056,19.1563 L585.8838,17.6406 C584.79,17.0625 583.4931,16.7656 582.3056,16.7656 C578.54,16.7656 575.9619,19.4063 575.9619,23.2188 C575.9619,26.8906 578.4463,29.4219 582.04,29.4219 Z " fill="#000000"/><text fill="#808080" font-family="sans-serif" font-size="14" lengthAdjust="spacing" textLength="124.4035" x="596.04" y="28.362">BMM_DEFINITIONS</text><line style="stroke:#808080;stroke-width:1;stroke-dasharray:1,3;" x1="568.04" x2="722.4435" y1="39" y2="39"/><line style="stroke:#808080;stroke-width:1;stroke-dasharray:1,3;" x1="568.04" x2="722.4435" y1="47" y2="47"/></g><!--class SCHEMA_DESCRIPTOR--><g class="entity" data-entity="SCHEMA_DESCRIPTOR" data-source-line="14" data-uid="ent0004" id="entity_SCHEMA_DESCRIPTOR"><rect fill="#F1F1F1" height="232.7992" rx="2.5" ry="2.5" style="stroke:#181818;stroke-width:0.5;" width="424.8584" x="728.82" y="115"/><ellipse cx="864.1715" cy="131" fill="#ADD1B2" rx="11" ry="11" style="stroke:#181818;stroke-width:1;"/><path d="M864.1715,137.4219 C865.3434,137.4219 866.5777,137.1563 867.9527,136.5469 L867.4684,135.0313 C866.3746,135.4531 865.359,135.6406 864.4996,135.6406 C861.7809,135.6406 860.0621,133.7969 860.0621,130.8906 C860.0621,128.1406 861.6246,126.5469 864.359,126.5469 C865.2809,126.5469 866.2965,126.7344 867.4371,127.1563 L868.0152,125.6406 C866.9215,125.0625 865.6246,124.7656 864.4371,124.7656 C860.6715,124.7656 858.0934,127.4063 858.0934,131.2188 C858.0934,134.8906 860.5777,137.4219 864.1715,137.4219 Z " fill="#000000"/><text fill="#000000" font-family="sans-serif" font-size="14" lengthAdjust="spacing" textLength="145.6554" x="884.6715" y="136.362">SCHEMA_DESCRIPTOR</text><line style="stroke:#181818;stroke-width:0.5;" x1="729.82" x2="1152.6784" y1="147" y2="147"/><ellipse cx="739.82" cy="160.9" fill="none" rx="3" ry="3" style="stroke:#038048;stroke-width:1;"/><text fill="#000000" font-family="sans-serif" font-size="14" lengthAdjust="spacing" textLength="218.2031" x="748.82" y="164.7619">p_schema : P_BMM_SCHEMA [0..1]</text><ellipse cx="739.82" cy="177.6999" fill="none" rx="3" ry="3" style="stroke:#038048;stroke-width:1;"/><text fill="#000000" font-family="sans-serif" font-size="14" lengthAdjust="spacing" textLength="179.9973" x="748.82" y="181.5619">schema : BMM_MODEL [0..1]</text><ellipse cx="739.82" cy="194.4998" fill="none" rx="3" ry="3" style="stroke:#038048;stroke-width:1;"/><text fill="#000000" font-family="sans-serif" font-size="14" lengthAdjust="spacing" textLength="132.3415" x="748.82" y="198.3618">schema_id : String [1]</text><ellipse cx="739.82" cy="211.2997" fill="none" rx="3" ry="3" style="stroke:#038048;stroke-width:1;"/><text fill="#000000" font-family="sans-serif" font-size="14" lengthAdjust="spacing" textLength="221.3251" x="748.82" y="215.1617">meta_data : Hash&lt;String,String&gt; [1]</text><ellipse cx="739.82" cy="228.0997" fill="none" rx="3" ry="3" style="stroke:#038048;stroke-width:1;"/><text fill="#000000" font-family="sans-serif" font-size="14" lengthAdjust="spacing" textLength="156.4354" x="748.82" y="231.9616">includes : List&lt;String&gt; [*]</text><line style="stroke:#181818;stroke-width:0.5;" x1="729.82" x2="1152.6784" y1="238.9996" y2="238.9996"/><ellipse cx="739.82" cy="252.8996" fill="#84BE84" rx="3" ry="3" style="stroke:#038048;stroke-width:1;"/><text fill="#000000" font-family="sans-serif" font-size="14" lengthAdjust="spacing" textLength="162.2734" x="748.82" y="256.7616">is_top_level() : Boolean [1]</text><ellipse cx="739.82" cy="269.6995" fill="#84BE84" rx="3" ry="3" style="stroke:#038048;stroke-width:1;"/><text fill="#000000" font-family="sans-serif" font-size="14" lengthAdjust="spacing" textLength="214.5911" x="748.82" y="273.5615">is_bmm_compatible() : Boolean [1]</text><ellipse cx="739.82" cy="286.4995" fill="#84BE84" rx="3" ry="3" style="stroke:#038048;stroke-width:1;"/><text fill="#000000" font-family="sans-serif" font-size="14" lengthAdjust="spacing" textLength="90.0336" x="748.82" y="290.3614">load() : void [1]</text><ellipse cx="739.82" cy="303.2994" fill="#84BE84" rx="3" ry="3" style="stroke:#038048;stroke-width:1;"/><text fill="#000000" font-family="sans-serif" font-size="14" lengthAdjust="spacing" textLength="111.8736" x="748.82" y="307.1614">validate() : void [1]</text><ellipse cx="739.82" cy="320.0993" fill="#84BE84" rx="3" ry="3" style="stroke:#038048;stroke-width:1;"/><text fill="#000000" font-family="sans-serif" font-size="14" lengthAdjust="spacing" textLength="398.8584" x="748.82" y="323.9613">validate_includes( all_schemas_list : List&lt;String&gt; [0..1] ) : void [1]</text><ellipse cx="739.82" cy="336.8992" fill="#84BE84" rx="3" ry="3" style="stroke:#038048;stroke-width:1;"/><text fill="#000000" font-family="sans-serif" font-size="14" lengthAdjust="spacing" textLength="156.8134" x="748.82" y="340.7612">create_schema() : void [1]</text></g><!--reverse link BMM_DEFINITIONS to REFERENCE_MODEL_ACCESS--><g class="link" data-entity-1="BMM_DEFINITIONS" data-entity-2="REFERENCE_MODEL_ACCESS" data-source-line="28" data-uid="lnk5" id="link_BMM_DEFINITIONS_REFERENCE_MODEL_ACCESS"><path codeLine="28" d="M595.603,65.3842 C558.663,90.2242 513.26,120.76 459.98,156.6" fill="none" id="BMM_DEFINITIONS-backto-REFERENCE_MODEL_ACCESS" style="stroke:#181818;stroke-width:1;"/><polygon fill="none" points="610.54,55.34,592.2549,60.4053,598.9511,70.3632,610.54,55.34" style="stroke:#181818;stroke-width:1;"/></g><!--reverse link BMM_DEFINITIONS to SCHEMA_DESCRIPTOR--><g class="link" data-entity-1="BMM_DEFINITIONS" data-entity-2="SCHEMA_DESCRIPTOR" data-source-line="29" data-uid="lnk6" id="link_BMM_DEFINITIONS_SCHEMA_DESCRIPTOR"><path codeLine="29" d="M695.0198,65.3652 C717.9398,80.7352 734.9,92.1 768.56,114.66" fill="none" id="BMM_DEFINITIONS-backto-SCHEMA_DESCRIPTOR" style="stroke:#181818;stroke-width:1;"/><polygon fill="none" points="680.07,55.34,691.678,70.3485,698.3615,60.382,680.07,55.34" style="stroke:#181818;stroke-width:1;"/></g></g></svg>
