<svg xmlns="http://www.w3.org/2000/svg" xmlns:xlink="http://www.w3.org/1999/xlink" contentStyleType="text/css" data-diagram-type="CLASS" height="237px" preserveAspectRatio="none" style="width:2567px;height:237px;background:#FFFFFF;" version="1.1" viewBox="0 0 2567 237" width="2567px" zoomAndPan="magnify"><defs/><g><!--class EXPR_TYPE_DEF--><g class="entity" data-entity="EXPR_TYPE_DEF" data-source-line="2" data-uid="ent0002" id="entity_EXPR_TYPE_DEF"><rect fill="#F1F1F1" height="81.5999" rx="2.5" ry="2.5" style="stroke:#181818;stroke-width:0.5;" width="161.0435" x="1258.77" y="7"/><ellipse cx="1284.1614" cy="23" fill="#A9DCDF" rx="11" ry="11" style="stroke:#181818;stroke-width:1;"/><path d="M1278.677,28.5 L1280.7082,28.5 L1284.7551,17.1563 L1283.8489,17.1563 L1287.677,28.5 L1289.8176,28.5 L1285.4895,16.1719 L1283.2707,16.1719 L1278.677,28.5 Z M1281.0051,25 L1287.4426,25 L1287.4426,23.25 L1281.0051,23.25 L1281.0051,25 Z " fill="#000000"/><text fill="#000000" font-family="sans-serif" font-size="14" font-style="italic" lengthAdjust="spacing" textLength="105.9516" x="1300.4706" y="28.362">EXPR_TYPE_DEF</text><line style="stroke:#181818;stroke-width:0.5;" x1="1259.77" x2="1418.8135" y1="39" y2="39"/><ellipse cx="1269.77" cy="52.9" fill="none" rx="3" ry="3" style="stroke:#038048;stroke-width:1;"/><text fill="#000000" font-family="sans-serif" font-size="14" lengthAdjust="spacing" textLength="135.0435" x="1278.77" y="56.7619">type_name : String [1]</text><ellipse cx="1269.77" cy="69.6999" fill="none" rx="3" ry="3" style="stroke:#038048;stroke-width:1;"/><text fill="#000000" font-family="sans-serif" font-size="14" lengthAdjust="spacing" textLength="128.9255" x="1278.77" y="73.5619">type_anchor : Any [1]</text><line style="stroke:#181818;stroke-width:0.5;" x1="1259.77" x2="1418.8135" y1="80.5999" y2="80.5999"/></g><!--class TYPE_DEF_BOOLEAN--><g class="entity" data-entity="TYPE_DEF_BOOLEAN" data-source-line="7" data-uid="ent0003" id="entity_TYPE_DEF_BOOLEAN"><rect fill="#F1F1F1" height="81.5999" rx="2.5" ry="2.5" style="stroke:#181818;stroke-width:0.5;" width="182.5894" x="7" y="148.6"/><ellipse cx="28.0633" cy="164.6" fill="#ADD1B2" rx="11" ry="11" style="stroke:#181818;stroke-width:1;"/><path d="M28.0633,171.0219 C29.2352,171.0219 30.4695,170.7563 31.8445,170.1469 L31.3602,168.6313 C30.2664,169.0531 29.2508,169.2406 28.3914,169.2406 C25.6727,169.2406 23.9539,167.3969 23.9539,164.4906 C23.9539,161.7406 25.5164,160.1469 28.2508,160.1469 C29.1727,160.1469 30.1883,160.3344 31.3289,160.7563 L31.907,159.2406 C30.8133,158.6625 29.5164,158.3656 28.3289,158.3656 C24.5633,158.3656 21.9852,161.0063 21.9852,164.8188 C21.9852,168.4906 24.4695,171.0219 28.0633,171.0219 Z " fill="#000000"/><text fill="#000000" font-family="sans-serif" font-size="14" lengthAdjust="spacing" textLength="137.1154" x="43.4107" y="169.962">TYPE_DEF_BOOLEAN</text><line style="stroke:#181818;stroke-width:0.5;" x1="8" x2="188.5894" y1="180.6" y2="180.6"/><ellipse cx="18" cy="194.5" fill="none" rx="3" ry="3" style="stroke:#038048;stroke-width:1;"/><text fill="#000000" font-family="sans-serif" font-size="14" lengthAdjust="spacing" textLength="135.0435" x="27" y="198.3619">type_name : String [1]</text><ellipse cx="18" cy="211.2999" fill="none" rx="3" ry="3" style="stroke:#038048;stroke-width:1;"/><text fill="#000000" font-family="sans-serif" font-size="14" lengthAdjust="spacing" textLength="156.5894" x="27" y="215.1619">type_anchor : Boolean [1]</text><line style="stroke:#181818;stroke-width:0.5;" x1="8" x2="188.5894" y1="222.1999" y2="222.1999"/></g><!--class TYPE_DEF_DATE--><g class="entity" data-entity="TYPE_DEF_DATE" data-source-line="12" data-uid="ent0004" id="entity_TYPE_DEF_DATE"><rect fill="#F1F1F1" height="81.5999" rx="2.5" ry="2.5" style="stroke:#181818;stroke-width:0.5;" width="215.0693" x="224.76" y="148.6"/><ellipse cx="274.3899" cy="164.6" fill="#ADD1B2" rx="11" ry="11" style="stroke:#181818;stroke-width:1;"/><path d="M274.3899,171.0219 C275.5617,171.0219 276.7961,170.7563 278.1711,170.1469 L277.6867,168.6313 C276.593,169.0531 275.5774,169.2406 274.718,169.2406 C271.9992,169.2406 270.2805,167.3969 270.2805,164.4906 C270.2805,161.7406 271.843,160.1469 274.5774,160.1469 C275.4992,160.1469 276.5149,160.3344 277.6555,160.7563 L278.2336,159.2406 C277.1399,158.6625 275.843,158.3656 274.6555,158.3656 C270.8899,158.3656 268.3117,161.0063 268.3117,164.8188 C268.3117,168.4906 270.7961,171.0219 274.3899,171.0219 Z " fill="#000000"/><text fill="#000000" font-family="sans-serif" font-size="14" lengthAdjust="spacing" textLength="107.3096" x="294.8899" y="169.962">TYPE_DEF_DATE</text><line style="stroke:#181818;stroke-width:0.5;" x1="225.76" x2="438.8293" y1="180.6" y2="180.6"/><ellipse cx="235.76" cy="194.5" fill="none" rx="3" ry="3" style="stroke:#038048;stroke-width:1;"/><text fill="#000000" font-family="sans-serif" font-size="14" lengthAdjust="spacing" textLength="135.0435" x="244.76" y="198.3619">type_name : String [1]</text><ellipse cx="235.76" cy="211.2999" fill="none" rx="3" ry="3" style="stroke:#038048;stroke-width:1;"/><text fill="#000000" font-family="sans-serif" font-size="14" lengthAdjust="spacing" textLength="189.0693" x="244.76" y="215.1619">type_anchor : Iso8601_date [1]</text><line style="stroke:#181818;stroke-width:0.5;" x1="225.76" x2="438.8293" y1="222.1999" y2="222.1999"/></g><!--class TYPE_DEF_DATE_TIME--><g class="entity" data-entity="TYPE_DEF_DATE_TIME" data-source-line="17" data-uid="ent0005" id="entity_TYPE_DEF_DATE_TIME"><rect fill="#F1F1F1" height="81.5999" rx="2.5" ry="2.5" style="stroke:#181818;stroke-width:0.5;" width="250.3631" x="475.11" y="148.6"/><ellipse cx="522.9549" cy="164.6" fill="#ADD1B2" rx="11" ry="11" style="stroke:#181818;stroke-width:1;"/><path d="M522.9549,171.0219 C524.1267,171.0219 525.3611,170.7563 526.7361,170.1469 L526.2517,168.6313 C525.158,169.0531 524.1424,169.2406 523.283,169.2406 C520.5642,169.2406 518.8455,167.3969 518.8455,164.4906 C518.8455,161.7406 520.408,160.1469 523.1424,160.1469 C524.0642,160.1469 525.0799,160.3344 526.2205,160.7563 L526.7986,159.2406 C525.7049,158.6625 524.408,158.3656 523.2205,158.3656 C519.4549,158.3656 516.8767,161.0063 516.8767,164.8188 C516.8767,168.4906 519.3611,171.0219 522.9549,171.0219 Z " fill="#000000"/><text fill="#000000" font-family="sans-serif" font-size="14" lengthAdjust="spacing" textLength="146.1734" x="543.4549" y="169.962">TYPE_DEF_DATE_TIME</text><line style="stroke:#181818;stroke-width:0.5;" x1="476.11" x2="724.4731" y1="180.6" y2="180.6"/><ellipse cx="486.11" cy="194.5" fill="none" rx="3" ry="3" style="stroke:#038048;stroke-width:1;"/><text fill="#000000" font-family="sans-serif" font-size="14" lengthAdjust="spacing" textLength="135.0435" x="495.11" y="198.3619">type_name : String [1]</text><ellipse cx="486.11" cy="211.2999" fill="none" rx="3" ry="3" style="stroke:#038048;stroke-width:1;"/><text fill="#000000" font-family="sans-serif" font-size="14" lengthAdjust="spacing" textLength="224.3631" x="495.11" y="215.1619">type_anchor : Iso8601_date_time [1]</text><line style="stroke:#181818;stroke-width:0.5;" x1="476.11" x2="724.4731" y1="222.1999" y2="222.1999"/></g><!--class TYPE_DEF_DURATION--><g class="entity" data-entity="TYPE_DEF_DURATION" data-source-line="22" data-uid="ent0006" id="entity_TYPE_DEF_DURATION"><rect fill="#F1F1F1" height="81.5999" rx="2.5" ry="2.5" style="stroke:#181818;stroke-width:0.5;" width="240.0872" x="760.25" y="148.6"/><ellipse cx="805.0009" cy="164.6" fill="#ADD1B2" rx="11" ry="11" style="stroke:#181818;stroke-width:1;"/><path d="M805.0009,171.0219 C806.1728,171.0219 807.4071,170.7563 808.7821,170.1469 L808.2978,168.6313 C807.204,169.0531 806.1884,169.2406 805.329,169.2406 C802.6103,169.2406 800.8915,167.3969 800.8915,164.4906 C800.8915,161.7406 802.454,160.1469 805.1884,160.1469 C806.1103,160.1469 807.1259,160.3344 808.2665,160.7563 L808.8446,159.2406 C807.7509,158.6625 806.454,158.3656 805.2665,158.3656 C801.5009,158.3656 798.9228,161.0063 798.9228,164.8188 C798.9228,168.4906 801.4071,171.0219 805.0009,171.0219 Z " fill="#000000"/><text fill="#000000" font-family="sans-serif" font-size="14" lengthAdjust="spacing" textLength="142.0854" x="825.5009" y="169.962">TYPE_DEF_DURATION</text><line style="stroke:#181818;stroke-width:0.5;" x1="761.25" x2="999.3372" y1="180.6" y2="180.6"/><ellipse cx="771.25" cy="194.5" fill="none" rx="3" ry="3" style="stroke:#038048;stroke-width:1;"/><text fill="#000000" font-family="sans-serif" font-size="14" lengthAdjust="spacing" textLength="135.0435" x="780.25" y="198.3619">type_name : String [1]</text><ellipse cx="771.25" cy="211.2999" fill="none" rx="3" ry="3" style="stroke:#038048;stroke-width:1;"/><text fill="#000000" font-family="sans-serif" font-size="14" lengthAdjust="spacing" textLength="214.0872" x="780.25" y="215.1619">type_anchor : Iso8601_duration [1]</text><line style="stroke:#181818;stroke-width:0.5;" x1="761.25" x2="999.3372" y1="222.1999" y2="222.1999"/></g><!--class TYPE_DEF_INTEGER--><g class="entity" data-entity="TYPE_DEF_INTEGER" data-source-line="27" data-uid="ent0007" id="entity_TYPE_DEF_INTEGER"><rect fill="#F1F1F1" height="81.5999" rx="2.5" ry="2.5" style="stroke:#181818;stroke-width:0.5;" width="176.2754" x="1035.16" y="148.6"/><ellipse cx="1056.721" cy="164.6" fill="#ADD1B2" rx="11" ry="11" style="stroke:#181818;stroke-width:1;"/><path d="M1056.721,171.0219 C1057.8929,171.0219 1059.1272,170.7563 1060.5022,170.1469 L1060.0179,168.6313 C1058.9241,169.0531 1057.9085,169.2406 1057.0491,169.2406 C1054.3304,169.2406 1052.6116,167.3969 1052.6116,164.4906 C1052.6116,161.7406 1054.1741,160.1469 1056.9085,160.1469 C1057.8304,160.1469 1058.846,160.3344 1059.9866,160.7563 L1060.5647,159.2406 C1059.471,158.6625 1058.1741,158.3656 1056.9866,158.3656 C1053.221,158.3656 1050.6429,161.0063 1050.6429,164.8188 C1050.6429,168.4906 1053.1272,171.0219 1056.721,171.0219 Z " fill="#000000"/><text fill="#000000" font-family="sans-serif" font-size="14" lengthAdjust="spacing" textLength="129.6955" x="1072.179" y="169.962">TYPE_DEF_INTEGER</text><line style="stroke:#181818;stroke-width:0.5;" x1="1036.16" x2="1210.4354" y1="180.6" y2="180.6"/><ellipse cx="1046.16" cy="194.5" fill="none" rx="3" ry="3" style="stroke:#038048;stroke-width:1;"/><text fill="#000000" font-family="sans-serif" font-size="14" lengthAdjust="spacing" textLength="135.0435" x="1055.16" y="198.3619">type_name : String [1]</text><ellipse cx="1046.16" cy="211.2999" fill="none" rx="3" ry="3" style="stroke:#038048;stroke-width:1;"/><text fill="#000000" font-family="sans-serif" font-size="14" lengthAdjust="spacing" textLength="150.2754" x="1055.16" y="215.1619">type_anchor : Integer [1]</text><line style="stroke:#181818;stroke-width:0.5;" x1="1036.16" x2="1210.4354" y1="222.1999" y2="222.1999"/></g><!--class TYPE_DEF_OBJECT_REF--><g class="entity" data-entity="TYPE_DEF_OBJECT_REF" data-source-line="32" data-uid="ent0008" id="entity_TYPE_DEF_OBJECT_REF"><rect fill="#F1F1F1" height="64.7999" rx="2.5" ry="2.5" style="stroke:#181818;stroke-width:0.5;" width="186.3914" x="1246.1" y="157"/><ellipse cx="1261.1" cy="173" fill="#ADD1B2" rx="11" ry="11" style="stroke:#181818;stroke-width:1;"/><path d="M1261.1,179.4219 C1262.2719,179.4219 1263.5063,179.1563 1264.8813,178.5469 L1264.3969,177.0313 C1263.3031,177.4531 1262.2875,177.6406 1261.4281,177.6406 C1258.7094,177.6406 1256.9906,175.7969 1256.9906,172.8906 C1256.9906,170.1406 1258.5531,168.5469 1261.2875,168.5469 C1262.2094,168.5469 1263.225,168.7344 1264.3656,169.1563 L1264.9438,167.6406 C1263.85,167.0625 1262.5531,166.7656 1261.3656,166.7656 C1257.6,166.7656 1255.0219,169.4063 1255.0219,173.2188 C1255.0219,176.8906 1257.5063,179.4219 1261.1,179.4219 Z " fill="#000000"/><text fill="#000000" font-family="sans-serif" font-size="14" lengthAdjust="spacing" textLength="154.3914" x="1275.1" y="178.362">TYPE_DEF_OBJECT_REF</text><line style="stroke:#181818;stroke-width:0.5;" x1="1247.1" x2="1431.4914" y1="189" y2="189"/><ellipse cx="1257.1" cy="202.9" fill="none" rx="3" ry="3" style="stroke:#038048;stroke-width:1;"/><text fill="#000000" font-family="sans-serif" font-size="14" lengthAdjust="spacing" textLength="135.0435" x="1266.1" y="206.7619">type_name : String [1]</text><line style="stroke:#181818;stroke-width:0.5;" x1="1247.1" x2="1431.4914" y1="213.7999" y2="213.7999"/></g><!--class TYPE_DEF_REAL--><g class="entity" data-entity="TYPE_DEF_REAL" data-source-line="36" data-uid="ent0009" id="entity_TYPE_DEF_REAL"><rect fill="#F1F1F1" height="81.5999" rx="2.5" ry="2.5" style="stroke:#181818;stroke-width:0.5;" width="161.0435" x="1467.77" y="148.6"/><ellipse cx="1493.5016" cy="164.6" fill="#ADD1B2" rx="11" ry="11" style="stroke:#181818;stroke-width:1;"/><path d="M1493.5016,171.0219 C1494.6734,171.0219 1495.9078,170.7563 1497.2828,170.1469 L1496.7984,168.6313 C1495.7047,169.0531 1494.6891,169.2406 1493.8297,169.2406 C1491.1109,169.2406 1489.3922,167.3969 1489.3922,164.4906 C1489.3922,161.7406 1490.9547,160.1469 1493.6891,160.1469 C1494.6109,160.1469 1495.6266,160.3344 1496.7672,160.7563 L1497.3453,159.2406 C1496.2516,158.6625 1494.9547,158.3656 1493.7672,158.3656 C1490.0016,158.3656 1487.4234,161.0063 1487.4234,164.8188 C1487.4234,168.4906 1489.9078,171.0219 1493.5016,171.0219 Z " fill="#000000"/><text fill="#000000" font-family="sans-serif" font-size="14" lengthAdjust="spacing" textLength="105.1956" x="1509.8864" y="169.962">TYPE_DEF_REAL</text><line style="stroke:#181818;stroke-width:0.5;" x1="1468.77" x2="1627.8135" y1="180.6" y2="180.6"/><ellipse cx="1478.77" cy="194.5" fill="none" rx="3" ry="3" style="stroke:#038048;stroke-width:1;"/><text fill="#000000" font-family="sans-serif" font-size="14" lengthAdjust="spacing" textLength="135.0435" x="1487.77" y="198.3619">type_name : String [1]</text><ellipse cx="1478.77" cy="211.2999" fill="none" rx="3" ry="3" style="stroke:#038048;stroke-width:1;"/><text fill="#000000" font-family="sans-serif" font-size="14" lengthAdjust="spacing" textLength="132.6355" x="1487.77" y="215.1619">type_anchor : Real [1]</text><line style="stroke:#181818;stroke-width:0.5;" x1="1468.77" x2="1627.8135" y1="222.1999" y2="222.1999"/></g><!--class TYPE_DEF_STRING--><g class="entity" data-entity="TYPE_DEF_STRING" data-source-line="41" data-uid="ent0010" id="entity_TYPE_DEF_STRING"><rect fill="#F1F1F1" height="81.5999" rx="2.5" ry="2.5" style="stroke:#181818;stroke-width:0.5;" width="168.9395" x="1663.82" y="148.6"/><ellipse cx="1685.9543" cy="164.6" fill="#ADD1B2" rx="11" ry="11" style="stroke:#181818;stroke-width:1;"/><path d="M1685.9543,171.0219 C1687.1262,171.0219 1688.3605,170.7563 1689.7355,170.1469 L1689.2512,168.6313 C1688.1574,169.0531 1687.1418,169.2406 1686.2824,169.2406 C1683.5637,169.2406 1681.8449,167.3969 1681.8449,164.4906 C1681.8449,161.7406 1683.4074,160.1469 1686.1418,160.1469 C1687.0637,160.1469 1688.0793,160.3344 1689.2199,160.7563 L1689.798,159.2406 C1688.7043,158.6625 1687.4074,158.3656 1686.2199,158.3656 C1682.4543,158.3656 1679.8762,161.0063 1679.8762,164.8188 C1679.8762,168.4906 1682.3605,171.0219 1685.9543,171.0219 Z " fill="#000000"/><text fill="#000000" font-family="sans-serif" font-size="14" lengthAdjust="spacing" textLength="121.0855" x="1701.5397" y="169.962">TYPE_DEF_STRING</text><line style="stroke:#181818;stroke-width:0.5;" x1="1664.82" x2="1831.7595" y1="180.6" y2="180.6"/><ellipse cx="1674.82" cy="194.5" fill="none" rx="3" ry="3" style="stroke:#038048;stroke-width:1;"/><text fill="#000000" font-family="sans-serif" font-size="14" lengthAdjust="spacing" textLength="135.0435" x="1683.82" y="198.3619">type_name : String [1]</text><ellipse cx="1674.82" cy="211.2999" fill="none" rx="3" ry="3" style="stroke:#038048;stroke-width:1;"/><text fill="#000000" font-family="sans-serif" font-size="14" lengthAdjust="spacing" textLength="142.9395" x="1683.82" y="215.1619">type_anchor : String [1]</text><line style="stroke:#181818;stroke-width:0.5;" x1="1664.82" x2="1831.7595" y1="222.1999" y2="222.1999"/></g><!--class TYPE_DEF_TERMINOLOGY_CODE--><g class="entity" data-entity="TYPE_DEF_TERMINOLOGY_CODE" data-source-line="46" data-uid="ent0011" id="entity_TYPE_DEF_TERMINOLOGY_CODE"><rect fill="#F1F1F1" height="81.5999" rx="2.5" ry="2.5" style="stroke:#181818;stroke-width:0.5;" width="247.1991" x="1867.7" y="148.6"/><ellipse cx="1882.8665" cy="164.6" fill="#ADD1B2" rx="11" ry="11" style="stroke:#181818;stroke-width:1;"/><path d="M1882.8665,171.0219 C1884.0384,171.0219 1885.2728,170.7563 1886.6478,170.1469 L1886.1634,168.6313 C1885.0696,169.0531 1884.054,169.2406 1883.1946,169.2406 C1880.4759,169.2406 1878.7571,167.3969 1878.7571,164.4906 C1878.7571,161.7406 1880.3196,160.1469 1883.054,160.1469 C1883.9759,160.1469 1884.9915,160.3344 1886.1321,160.7563 L1886.7103,159.2406 C1885.6165,158.6625 1884.3196,158.3656 1883.1321,158.3656 C1879.3665,158.3656 1876.7884,161.0063 1876.7884,164.8188 C1876.7884,168.4906 1879.2728,171.0219 1882.8665,171.0219 Z " fill="#000000"/><text fill="#000000" font-family="sans-serif" font-size="14" lengthAdjust="spacing" textLength="214.8291" x="1896.9035" y="169.962">TYPE_DEF_TERMINOLOGY_CODE</text><line style="stroke:#181818;stroke-width:0.5;" x1="1868.7" x2="2113.8991" y1="180.6" y2="180.6"/><ellipse cx="1878.7" cy="194.5" fill="none" rx="3" ry="3" style="stroke:#038048;stroke-width:1;"/><text fill="#000000" font-family="sans-serif" font-size="14" lengthAdjust="spacing" textLength="135.0435" x="1887.7" y="198.3619">type_name : String [1]</text><ellipse cx="1878.7" cy="211.2999" fill="none" rx="3" ry="3" style="stroke:#038048;stroke-width:1;"/><text fill="#000000" font-family="sans-serif" font-size="14" lengthAdjust="spacing" textLength="221.1991" x="1887.7" y="215.1619">type_anchor : Terminology_code [1]</text><line style="stroke:#181818;stroke-width:0.5;" x1="1868.7" x2="2113.8991" y1="222.1999" y2="222.1999"/></g><!--class TYPE_DEF_TIME--><g class="entity" data-entity="TYPE_DEF_TIME" data-source-line="51" data-uid="ent0012" id="entity_TYPE_DEF_TIME"><rect fill="#F1F1F1" height="81.5999" rx="2.5" ry="2.5" style="stroke:#181818;stroke-width:0.5;" width="215.7693" x="2149.41" y="148.6"/><ellipse cx="2200.8668" cy="164.6" fill="#ADD1B2" rx="11" ry="11" style="stroke:#181818;stroke-width:1;"/><path d="M2200.8668,171.0219 C2202.0387,171.0219 2203.2731,170.7563 2204.6481,170.1469 L2204.1637,168.6313 C2203.07,169.0531 2202.0543,169.2406 2201.195,169.2406 C2198.4762,169.2406 2196.7575,167.3969 2196.7575,164.4906 C2196.7575,161.7406 2198.32,160.1469 2201.0543,160.1469 C2201.9762,160.1469 2202.9918,160.3344 2204.1325,160.7563 L2204.7106,159.2406 C2203.6168,158.6625 2202.32,158.3656 2201.1325,158.3656 C2197.3668,158.3656 2194.7887,161.0063 2194.7887,164.8188 C2194.7887,168.4906 2197.2731,171.0219 2200.8668,171.0219 Z " fill="#000000"/><text fill="#000000" font-family="sans-serif" font-size="14" lengthAdjust="spacing" textLength="104.3556" x="2221.3668" y="169.962">TYPE_DEF_TIME</text><line style="stroke:#181818;stroke-width:0.5;" x1="2150.41" x2="2364.1793" y1="180.6" y2="180.6"/><ellipse cx="2160.41" cy="194.5" fill="none" rx="3" ry="3" style="stroke:#038048;stroke-width:1;"/><text fill="#000000" font-family="sans-serif" font-size="14" lengthAdjust="spacing" textLength="135.0435" x="2169.41" y="198.3619">type_name : String [1]</text><ellipse cx="2160.41" cy="211.2999" fill="none" rx="3" ry="3" style="stroke:#038048;stroke-width:1;"/><text fill="#000000" font-family="sans-serif" font-size="14" lengthAdjust="spacing" textLength="189.7693" x="2169.41" y="215.1619">type_anchor : Iso8601_time [1]</text><line style="stroke:#181818;stroke-width:0.5;" x1="2150.41" x2="2364.1793" y1="222.1999" y2="222.1999"/></g><!--class TYPE_DEF_URI--><g class="entity" data-entity="TYPE_DEF_URI" data-source-line="56" data-uid="ent0013" id="entity_TYPE_DEF_URI"><rect fill="#F1F1F1" height="81.5999" rx="2.5" ry="2.5" style="stroke:#181818;stroke-width:0.5;" width="161.0435" x="2399.77" y="148.6"/><ellipse cx="2430.4029" cy="164.6" fill="#ADD1B2" rx="11" ry="11" style="stroke:#181818;stroke-width:1;"/><path d="M2430.4029,171.0219 C2431.5748,171.0219 2432.8092,170.7563 2434.1842,170.1469 L2433.6998,168.6313 C2432.6061,169.0531 2431.5904,169.2406 2430.7311,169.2406 C2428.0123,169.2406 2426.2936,167.3969 2426.2936,164.4906 C2426.2936,161.7406 2427.8561,160.1469 2430.5904,160.1469 C2431.5123,160.1469 2432.5279,160.3344 2433.6686,160.7563 L2434.2467,159.2406 C2433.1529,158.6625 2431.8561,158.3656 2430.6686,158.3656 C2426.9029,158.3656 2424.3248,161.0063 2424.3248,164.8188 C2424.3248,168.4906 2426.8092,171.0219 2430.4029,171.0219 Z " fill="#000000"/><text fill="#000000" font-family="sans-serif" font-size="14" lengthAdjust="spacing" textLength="94.3036" x="2447.8769" y="169.962">TYPE_DEF_URI</text><line style="stroke:#181818;stroke-width:0.5;" x1="2400.77" x2="2559.8135" y1="180.6" y2="180.6"/><ellipse cx="2410.77" cy="194.5" fill="none" rx="3" ry="3" style="stroke:#038048;stroke-width:1;"/><text fill="#000000" font-family="sans-serif" font-size="14" lengthAdjust="spacing" textLength="135.0435" x="2419.77" y="198.3619">type_name : String [1]</text><ellipse cx="2410.77" cy="211.2999" fill="none" rx="3" ry="3" style="stroke:#038048;stroke-width:1;"/><text fill="#000000" font-family="sans-serif" font-size="14" lengthAdjust="spacing" textLength="123.6195" x="2419.77" y="215.1619">type_anchor : Uri [1]</text><line style="stroke:#181818;stroke-width:0.5;" x1="2400.77" x2="2559.8135" y1="222.1999" y2="222.1999"/></g><!--reverse link EXPR_TYPE_DEF to TYPE_DEF_BOOLEAN--><g class="link" data-entity-1="EXPR_TYPE_DEF" data-entity-2="TYPE_DEF_BOOLEAN" data-source-line="61" data-uid="lnk14" id="link_EXPR_TYPE_DEF_TYPE_DEF_BOOLEAN"><path codeLine="61" d="M1240.5905,48.8399 C1053.4605,50.1899 594.37,62.44 207.29,148.6 C201.59,149.87 195.78,151.36 189.96,153.01" fill="none" id="EXPR_TYPE_DEF-backto-TYPE_DEF_BOOLEAN" style="stroke:#181818;stroke-width:1;"/><polygon fill="none" points="1258.59,48.71,1240.5472,42.84,1240.6338,54.8397,1258.59,48.71" style="stroke:#181818;stroke-width:1;"/></g><!--reverse link EXPR_TYPE_DEF to TYPE_DEF_DATE--><g class="link" data-entity-1="EXPR_TYPE_DEF" data-entity-2="TYPE_DEF_DATE" data-source-line="62" data-uid="lnk15" id="link_EXPR_TYPE_DEF_TYPE_DEF_DATE"><path codeLine="62" d="M1240.5173,53.6402 C1084.2373,62.2502 748.34,86.43 457.29,148.6 C451.62,149.81 445.83,151.18 440.01,152.66" fill="none" id="EXPR_TYPE_DEF-backto-TYPE_DEF_DATE" style="stroke:#181818;stroke-width:1;"/><polygon fill="none" points="1258.49,52.65,1240.1872,47.6493,1240.8473,59.6311,1258.49,52.65" style="stroke:#181818;stroke-width:1;"/></g><!--reverse link EXPR_TYPE_DEF to TYPE_DEF_DATE_TIME--><g class="link" data-entity-1="EXPR_TYPE_DEF" data-entity-2="TYPE_DEF_DATE_TIME" data-source-line="63" data-uid="lnk16" id="link_EXPR_TYPE_DEF_TYPE_DEF_DATE_TIME"><path codeLine="63" d="M1240.7887,61.9289 C1125.5587,77.8189 925.37,107.77 742.29,148.6 C736.92,149.8 731.45,151.08 725.93,152.41" fill="none" id="EXPR_TYPE_DEF-backto-TYPE_DEF_DATE_TIME" style="stroke:#181818;stroke-width:1;"/><polygon fill="none" points="1258.62,59.47,1239.9691,55.9851,1241.6084,67.8727,1258.62,59.47" style="stroke:#181818;stroke-width:1;"/></g><!--reverse link EXPR_TYPE_DEF to TYPE_DEF_DURATION--><g class="link" data-entity-1="EXPR_TYPE_DEF" data-entity-2="TYPE_DEF_DURATION" data-source-line="64" data-uid="lnk17" id="link_EXPR_TYPE_DEF_TYPE_DEF_DURATION"><path codeLine="64" d="M1241.0688,78.6773 C1169.6488,100.3973 1081.83,127.1 1000.6,151.81" fill="none" id="EXPR_TYPE_DEF-backto-TYPE_DEF_DURATION" style="stroke:#181818;stroke-width:1;"/><polygon fill="none" points="1258.29,73.44,1239.323,72.9368,1242.8145,84.4177,1258.29,73.44" style="stroke:#181818;stroke-width:1;"/></g><!--reverse link EXPR_TYPE_DEF to TYPE_DEF_INTEGER--><g class="link" data-entity-1="EXPR_TYPE_DEF" data-entity-2="TYPE_DEF_INTEGER" data-source-line="65" data-uid="lnk18" id="link_EXPR_TYPE_DEF_TYPE_DEF_INTEGER"><path codeLine="65" d="M1261.9932,98.7616 C1233.2032,117.3716 1214.2,129.65 1185.42,148.25" fill="none" id="EXPR_TYPE_DEF-backto-TYPE_DEF_INTEGER" style="stroke:#181818;stroke-width:1;"/><polygon fill="none" points="1277.11,88.99,1258.736,93.7226,1265.2504,103.8005,1277.11,88.99" style="stroke:#181818;stroke-width:1;"/></g><!--reverse link EXPR_TYPE_DEF to TYPE_DEF_OBJECT_REF--><g class="link" data-entity-1="EXPR_TYPE_DEF" data-entity-2="TYPE_DEF_OBJECT_REF" data-source-line="66" data-uid="lnk19" id="link_EXPR_TYPE_DEF_TYPE_DEF_OBJECT_REF"><path codeLine="66" d="M1339.29,106.8 C1339.29,128.4 1339.29,136.67 1339.29,156.81" fill="none" id="EXPR_TYPE_DEF-backto-TYPE_DEF_OBJECT_REF" style="stroke:#181818;stroke-width:1;"/><polygon fill="none" points="1339.29,88.8,1333.29,106.8,1345.29,106.8,1339.29,88.8" style="stroke:#181818;stroke-width:1;"/></g><!--reverse link EXPR_TYPE_DEF to TYPE_DEF_REAL--><g class="link" data-entity-1="EXPR_TYPE_DEF" data-entity-2="TYPE_DEF_REAL" data-source-line="67" data-uid="lnk20" id="link_EXPR_TYPE_DEF_TYPE_DEF_REAL"><path codeLine="67" d="M1414.4361,98.9907 C1442.2861,117.6007 1460.34,129.65 1488.19,148.25" fill="none" id="EXPR_TYPE_DEF-backto-TYPE_DEF_REAL" style="stroke:#181818;stroke-width:1;"/><polygon fill="none" points="1399.47,88.99,1411.1026,103.9794,1417.7697,94.002,1399.47,88.99" style="stroke:#181818;stroke-width:1;"/></g><!--reverse link EXPR_TYPE_DEF to TYPE_DEF_STRING--><g class="link" data-entity-1="EXPR_TYPE_DEF" data-entity-2="TYPE_DEF_STRING" data-source-line="68" data-uid="lnk21" id="link_EXPR_TYPE_DEF_TYPE_DEF_STRING"><path codeLine="68" d="M1437.3779,79.0778 C1499.5379,98.5378 1570.16,121.4 1646.29,148.6 C1651.93,150.61 1657.73,152.74 1663.56,154.91" fill="none" id="EXPR_TYPE_DEF-backto-TYPE_DEF_STRING" style="stroke:#181818;stroke-width:1;"/><polygon fill="none" points="1420.2,73.7,1435.5853,84.8037,1439.1705,73.3518,1420.2,73.7" style="stroke:#181818;stroke-width:1;"/></g><!--reverse link EXPR_TYPE_DEF to TYPE_DEF_TERMINOLOGY_CODE--><g class="link" data-entity-1="EXPR_TYPE_DEF" data-entity-2="TYPE_DEF_TERMINOLOGY_CODE" data-source-line="69" data-uid="lnk22" id="link_EXPR_TYPE_DEF_TYPE_DEF_TERMINOLOGY_CODE"><path codeLine="69" d="M1438.0137,65.5745 C1539.1437,83.1645 1699.5,112.66 1850.29,148.6 C1855.86,149.93 1861.54,151.33 1867.27,152.78" fill="none" id="EXPR_TYPE_DEF-backto-TYPE_DEF_TERMINOLOGY_CODE" style="stroke:#181818;stroke-width:1;"/><polygon fill="none" points="1420.28,62.49,1436.9856,71.4858,1439.0419,59.6633,1420.28,62.49" style="stroke:#181818;stroke-width:1;"/></g><!--reverse link EXPR_TYPE_DEF to TYPE_DEF_TIME--><g class="link" data-entity-1="EXPR_TYPE_DEF" data-entity-2="TYPE_DEF_TIME" data-source-line="70" data-uid="lnk23" id="link_EXPR_TYPE_DEF_TYPE_DEF_TIME"><path codeLine="70" d="M1437.9927,55.3637 C1582.3127,65.8437 1875.5,92.06 2132.29,148.6 C2137.86,149.82 2143.52,151.19 2149.22,152.66" fill="none" id="EXPR_TYPE_DEF-backto-TYPE_DEF_TIME" style="stroke:#181818;stroke-width:1;"/><polygon fill="none" points="1420.04,54.06,1437.5582,61.3479,1438.4273,49.3794,1420.04,54.06" style="stroke:#181818;stroke-width:1;"/></g><!--reverse link EXPR_TYPE_DEF to TYPE_DEF_URI--><g class="link" data-entity-1="EXPR_TYPE_DEF" data-entity-2="TYPE_DEF_URI" data-source-line="71" data-uid="lnk24" id="link_EXPR_TYPE_DEF_TYPE_DEF_URI"><path codeLine="71" d="M1438.0995,48.7532 C1615.1295,50.0632 2031.39,62.51 2382.29,148.6 C2387.91,149.98 2393.63,151.62 2399.34,153.44" fill="none" id="EXPR_TYPE_DEF-backto-TYPE_DEF_URI" style="stroke:#181818;stroke-width:1;"/><polygon fill="none" points="1420.1,48.62,1438.0551,54.753,1438.1439,42.7534,1420.1,48.62" style="stroke:#181818;stroke-width:1;"/></g></g></svg>
