<svg xmlns="http://www.w3.org/2000/svg" xmlns:xlink="http://www.w3.org/1999/xlink" contentStyleType="text/css" data-diagram-type="CLASS" height="856px" preserveAspectRatio="none" style="width:1711px;height:856px;background:#FFFFFF;" version="1.1" viewBox="0 0 1711 856" width="1711px" zoomAndPan="magnify"><defs/><g><!--class ASSERTION--><g class="entity" data-entity="ASSERTION" data-source-line="2" data-uid="ent0002" id="entity_ASSERTION"><rect fill="#F1F1F1" height="98.3998" rx="2.5" ry="2.5" style="stroke:#181818;stroke-width:0.5;" width="217.8693" x="7" y="451"/><ellipse cx="74.7318" cy="467" fill="#ADD1B2" rx="11" ry="11" style="stroke:#181818;stroke-width:1;"/><path d="M74.7318,473.4219 C75.9037,473.4219 77.138,473.1563 78.513,472.5469 L78.0287,471.0313 C76.9349,471.4531 75.9193,471.6406 75.0599,471.6406 C72.3412,471.6406 70.6224,469.7969 70.6224,466.8906 C70.6224,464.1406 72.1849,462.5469 74.9193,462.5469 C75.8412,462.5469 76.8568,462.7344 77.9974,463.1563 L78.5755,461.6406 C77.4818,461.0625 76.1849,460.7656 74.9974,460.7656 C71.2318,460.7656 68.6537,463.4063 68.6537,467.2188 C68.6537,470.8906 71.138,473.4219 74.7318,473.4219 Z " fill="#000000"/><text fill="#000000" font-family="sans-serif" font-size="14" lengthAdjust="spacing" textLength="73.9057" x="95.2318" y="472.362">ASSERTION</text><line style="stroke:#181818;stroke-width:0.5;" x1="8" x2="223.8693" y1="483" y2="483"/><ellipse cx="18" cy="496.9" fill="none" rx="3" ry="3" style="stroke:#038048;stroke-width:1;"/><text fill="#000000" font-family="sans-serif" font-size="14" lengthAdjust="spacing" textLength="101.9476" x="27" y="500.7619">tag : String [0..1]</text><ellipse cx="18" cy="513.6999" fill="none" rx="3" ry="3" style="stroke:#038048;stroke-width:1;"/><text fill="#000000" font-family="sans-serif" font-size="14" lengthAdjust="spacing" textLength="191.8693" x="27" y="517.5619">string_expression : String [0..1]</text><ellipse cx="18" cy="530.4998" fill="none" rx="3" ry="3" style="stroke:#038048;stroke-width:1;"/><text fill="#000000" font-family="sans-serif" font-size="14" lengthAdjust="spacing" textLength="177.4773" x="27" y="534.3618">expression : EXPRESSION [1]</text><line style="stroke:#181818;stroke-width:0.5;" x1="8" x2="223.8693" y1="541.3998" y2="541.3998"/></g><!--class STATEMENT--><g class="entity" data-entity="STATEMENT" data-source-line="8" data-uid="ent0003" id="entity_STATEMENT"><rect fill="#F1F1F1" height="48" rx="2.5" ry="2.5" style="stroke:#181818;stroke-width:0.5;" width="111.1557" x="332.36" y="175"/><ellipse cx="347.36" cy="191" fill="#A9DCDF" rx="11" ry="11" style="stroke:#181818;stroke-width:1;"/><path d="M341.8756,196.5 L343.9069,196.5 L347.9538,185.1563 L347.0475,185.1563 L350.8756,196.5 L353.0163,196.5 L348.6881,184.1719 L346.4694,184.1719 L341.8756,196.5 Z M344.2038,193 L350.6413,193 L350.6413,191.25 L344.2038,191.25 L344.2038,193 Z " fill="#000000"/><text fill="#000000" font-family="sans-serif" font-size="14" font-style="italic" lengthAdjust="spacing" textLength="79.1557" x="361.36" y="196.362">STATEMENT</text><line style="stroke:#181818;stroke-width:0.5;" x1="333.36" x2="442.5157" y1="207" y2="207"/><line style="stroke:#181818;stroke-width:0.5;" x1="333.36" x2="442.5157" y1="215" y2="215"/></g><!--class ASSIGNMENT--><g class="entity" data-entity="ASSIGNMENT" data-source-line="11" data-uid="ent0004" id="entity_ASSIGNMENT"><rect fill="#F1F1F1" height="81.5999" rx="2.5" ry="2.5" style="stroke:#181818;stroke-width:0.5;" width="255.1931" x="260.34" y="459.4"/><ellipse cx="340.1257" cy="475.4" fill="#ADD1B2" rx="11" ry="11" style="stroke:#181818;stroke-width:1;"/><path d="M340.1257,481.8219 C341.2976,481.8219 342.532,481.5563 343.907,480.9469 L343.4226,479.4313 C342.3288,479.8531 341.3132,480.0406 340.4538,480.0406 C337.7351,480.0406 336.0163,478.1969 336.0163,475.2906 C336.0163,472.5406 337.5788,470.9469 340.3132,470.9469 C341.2351,470.9469 342.2507,471.1344 343.3913,471.5563 L343.9695,470.0406 C342.8757,469.4625 341.5788,469.1656 340.3913,469.1656 C336.6257,469.1656 334.0476,471.8063 334.0476,475.6188 C334.0476,479.2906 336.532,481.8219 340.1257,481.8219 Z " fill="#000000"/><text fill="#000000" font-family="sans-serif" font-size="14" lengthAdjust="spacing" textLength="87.1217" x="360.6257" y="480.762">ASSIGNMENT</text><line style="stroke:#181818;stroke-width:0.5;" x1="261.34" x2="514.5331" y1="491.4" y2="491.4"/><ellipse cx="271.34" cy="505.3" fill="none" rx="3" ry="3" style="stroke:#038048;stroke-width:1;"/><text fill="#000000" font-family="sans-serif" font-size="14" lengthAdjust="spacing" textLength="229.1931" x="280.34" y="509.1619">target : VARIABLE_DECLARATION [1]</text><ellipse cx="271.34" cy="522.0999" fill="none" rx="3" ry="3" style="stroke:#038048;stroke-width:1;"/><text fill="#000000" font-family="sans-serif" font-size="14" lengthAdjust="spacing" textLength="152.3194" x="280.34" y="525.9619">source : EXPR_VALUE [1]</text><line style="stroke:#181818;stroke-width:0.5;" x1="261.34" x2="514.5331" y1="532.9999" y2="532.9999"/></g><!--class EXPR_BINARY_OPERATOR--><g class="entity" data-entity="EXPR_BINARY_OPERATOR" data-source-line="16" data-uid="ent0005" id="entity_EXPR_BINARY_OPERATOR"><rect fill="#F1F1F1" height="81.5999" rx="2.5" ry="2.5" style="stroke:#181818;stroke-width:0.5;" width="224.9252" x="94.47" y="767.8"/><ellipse cx="120.756" cy="783.8" fill="#ADD1B2" rx="11" ry="11" style="stroke:#181818;stroke-width:1;"/><path d="M120.756,790.2219 C121.9278,790.2219 123.1622,789.9563 124.5372,789.3469 L124.0528,787.8313 C122.9591,788.2531 121.9435,788.4406 121.0841,788.4406 C118.3653,788.4406 116.6466,786.5969 116.6466,783.6906 C116.6466,780.9406 118.2091,779.3469 120.9435,779.3469 C121.8653,779.3469 122.881,779.5344 124.0216,779.9563 L124.5997,778.4406 C123.506,777.8625 122.2091,777.5656 121.0216,777.5656 C117.256,777.5656 114.6778,780.2063 114.6778,784.0188 C114.6778,787.6906 117.1622,790.2219 120.756,790.2219 Z " fill="#000000"/><text fill="#000000" font-family="sans-serif" font-size="14" lengthAdjust="spacing" textLength="167.8453" x="137.264" y="789.162">EXPR_BINARY_OPERATOR</text><line style="stroke:#181818;stroke-width:0.5;" x1="95.47" x2="318.3952" y1="799.8" y2="799.8"/><ellipse cx="105.47" cy="813.7" fill="none" rx="3" ry="3" style="stroke:#038048;stroke-width:1;"/><text fill="#000000" font-family="sans-serif" font-size="14" lengthAdjust="spacing" textLength="190.3292" x="114.47" y="817.5619">left_operand : EXPRESSION [1]</text><ellipse cx="105.47" cy="830.4999" fill="none" rx="3" ry="3" style="stroke:#038048;stroke-width:1;"/><text fill="#000000" font-family="sans-serif" font-size="14" lengthAdjust="spacing" textLength="198.9252" x="114.47" y="834.3619">right_operand : EXPRESSION [1]</text><line style="stroke:#181818;stroke-width:0.5;" x1="95.47" x2="318.3952" y1="841.3999" y2="841.3999"/></g><!--class EXPR_OPERATOR--><g class="entity" data-entity="EXPR_OPERATOR" data-source-line="21" data-uid="ent0006" id="entity_EXPR_OPERATOR"><rect fill="#F1F1F1" height="98.3998" rx="2.5" ry="2.5" style="stroke:#181818;stroke-width:0.5;" width="267.569" x="441.15" y="609.4"/><ellipse cx="514.5728" cy="625.4" fill="#A9DCDF" rx="11" ry="11" style="stroke:#181818;stroke-width:1;"/><path d="M509.0884,630.9 L511.1196,630.9 L515.1665,619.5563 L514.2603,619.5563 L518.0884,630.9 L520.229,630.9 L515.9009,618.5719 L513.6821,618.5719 L509.0884,630.9 Z M511.4165,627.4 L517.854,627.4 L517.854,625.65 L511.4165,625.65 L511.4165,627.4 Z " fill="#000000"/><text fill="#000000" font-family="sans-serif" font-size="14" font-style="italic" lengthAdjust="spacing" textLength="112.2235" x="535.0728" y="630.762">EXPR_OPERATOR</text><line style="stroke:#181818;stroke-width:0.5;" x1="442.15" x2="707.719" y1="641.4" y2="641.4"/><ellipse cx="452.15" cy="655.3" fill="none" rx="3" ry="3" style="stroke:#038048;stroke-width:1;"/><text fill="#000000" font-family="sans-serif" font-size="14" lengthAdjust="spacing" textLength="241.569" x="461.15" y="659.1619">precedence_overridden : Boolean [0..1]</text><ellipse cx="452.15" cy="672.0999" fill="none" rx="3" ry="3" style="stroke:#038048;stroke-width:1;"/><text fill="#000000" font-family="sans-serif" font-size="14" lengthAdjust="spacing" textLength="194.0532" x="461.15" y="675.9619">operator : OPERATOR_KIND [1]</text><ellipse cx="452.15" cy="688.8998" fill="none" rx="3" ry="3" style="stroke:#038048;stroke-width:1;"/><text fill="#000000" font-family="sans-serif" font-size="14" lengthAdjust="spacing" textLength="127.1755" x="461.15" y="692.7618">symbol : String [0..1]</text><line style="stroke:#181818;stroke-width:0.5;" x1="442.15" x2="707.719" y1="699.7998" y2="699.7998"/></g><!--class EXPR_FUNCTION_CALL--><g class="entity" data-entity="EXPR_FUNCTION_CALL" data-source-line="27" data-uid="ent0007" id="entity_EXPR_FUNCTION_CALL"><rect fill="#F1F1F1" height="64.7999" rx="2.5" ry="2.5" style="stroke:#181818;stroke-width:0.5;" width="243.0271" x="841.42" y="776.2"/><ellipse cx="884.319" cy="792.2" fill="#ADD1B2" rx="11" ry="11" style="stroke:#181818;stroke-width:1;"/><path d="M884.319,798.6219 C885.4909,798.6219 886.7252,798.3562 888.1002,797.7469 L887.6159,796.2312 C886.5221,796.6531 885.5065,796.8406 884.6471,796.8406 C881.9284,796.8406 880.2096,794.9969 880.2096,792.0906 C880.2096,789.3406 881.7721,787.7469 884.5065,787.7469 C885.4284,787.7469 886.444,787.9344 887.5846,788.3562 L888.1627,786.8406 C887.069,786.2625 885.7721,785.9656 884.5846,785.9656 C880.819,785.9656 878.2409,788.6062 878.2409,792.4187 C878.2409,796.0906 880.7252,798.6219 884.319,798.6219 Z " fill="#000000"/><text fill="#000000" font-family="sans-serif" font-size="14" lengthAdjust="spacing" textLength="149.0294" x="904.5187" y="797.562">EXPR_FUNCTION_CALL</text><line style="stroke:#181818;stroke-width:0.5;" x1="842.42" x2="1083.4471" y1="808.2" y2="808.2"/><ellipse cx="852.42" cy="822.1" fill="none" rx="3" ry="3" style="stroke:#038048;stroke-width:1;"/><text fill="#000000" font-family="sans-serif" font-size="14" lengthAdjust="spacing" textLength="217.0271" x="861.42" y="825.9619">arguments : List&lt;EXPRESSION&gt; [*]</text><line style="stroke:#181818;stroke-width:0.5;" x1="842.42" x2="1083.4471" y1="832.9999" y2="832.9999"/></g><!--class EXPR_LEAF--><g class="entity" data-entity="EXPR_LEAF" data-source-line="31" data-uid="ent0008" id="entity_EXPR_LEAF"><rect fill="#F1F1F1" height="64.7999" rx="2.5" ry="2.5" style="stroke:#181818;stroke-width:0.5;" width="122.0256" x="1119.92" y="626.2"/><ellipse cx="1142.867" cy="642.2" fill="#A9DCDF" rx="11" ry="11" style="stroke:#181818;stroke-width:1;"/><path d="M1137.3826,647.7 L1139.4138,647.7 L1143.4607,636.3562 L1142.5545,636.3562 L1146.3826,647.7 L1148.5232,647.7 L1144.1951,635.3719 L1141.9763,635.3719 L1137.3826,647.7 Z M1139.7107,644.2 L1146.1482,644.2 L1146.1482,642.45 L1139.7107,642.45 L1139.7107,644.2 Z " fill="#000000"/><text fill="#000000" font-family="sans-serif" font-size="14" font-style="italic" lengthAdjust="spacing" textLength="72.3657" x="1158.633" y="647.562">EXPR_LEAF</text><line style="stroke:#181818;stroke-width:0.5;" x1="1120.92" x2="1240.9456" y1="658.2" y2="658.2"/><ellipse cx="1130.92" cy="672.1" fill="none" rx="3" ry="3" style="stroke:#038048;stroke-width:1;"/><text fill="#000000" font-family="sans-serif" font-size="14" lengthAdjust="spacing" textLength="96.0256" x="1139.92" y="675.9619">item : Any [0..1]</text><line style="stroke:#181818;stroke-width:0.5;" x1="1120.92" x2="1240.9456" y1="682.9999" y2="682.9999"/></g><!--class EXPRESSION--><g class="entity" data-entity="EXPRESSION" data-source-line="35" data-uid="ent0009" id="entity_EXPRESSION"><rect fill="#F1F1F1" height="64.7999" rx="2.5" ry="2.5" style="stroke:#181818;stroke-width:0.5;" width="196.0853" x="779.89" y="467.8"/><ellipse cx="832.6838" cy="483.8" fill="#A9DCDF" rx="11" ry="11" style="stroke:#181818;stroke-width:1;"/><path d="M827.1994,489.3 L829.2307,489.3 L833.2776,477.9562 L832.3713,477.9562 L836.1994,489.3 L838.3401,489.3 L834.0119,476.9719 L831.7932,476.9719 L827.1994,489.3 Z M829.5276,485.8 L835.9651,485.8 L835.9651,484.05 L829.5276,484.05 L829.5276,485.8 Z " fill="#000000"/><text fill="#000000" font-family="sans-serif" font-size="14" font-style="italic" lengthAdjust="spacing" textLength="81.9977" x="853.1838" y="489.162">EXPRESSION</text><line style="stroke:#181818;stroke-width:0.5;" x1="780.89" x2="974.9753" y1="499.8" y2="499.8"/><line style="stroke:#181818;stroke-width:0.5;" x1="780.89" x2="974.9753" y1="507.8" y2="507.8"/><ellipse cx="790.89" cy="521.7" fill="#84BE84" rx="3" ry="3" style="stroke:#038048;stroke-width:1;"/><text fill="#000000" font-family="sans-serif" font-size="14" font-style="italic" lengthAdjust="spacing" textLength="170.0853" x="799.89" y="525.5619">type() : EXPR_TYPE_DEF [1]</text></g><!--class EXPR_VALUE--><g class="entity" data-entity="EXPR_VALUE" data-source-line="39" data-uid="ent0010" id="entity_EXPR_VALUE"><rect fill="#F1F1F1" height="64.7999" rx="2.5" ry="2.5" style="stroke:#181818;stroke-width:0.5;" width="119.3796" x="934.24" y="166.6"/><ellipse cx="951.517" cy="182.6" fill="#A9DCDF" rx="11" ry="11" style="stroke:#181818;stroke-width:1;"/><path d="M946.0326,188.1 L948.0639,188.1 L952.1107,176.7563 L951.2045,176.7563 L955.0326,188.1 L957.1732,188.1 L952.8451,175.7719 L950.6264,175.7719 L946.0326,188.1 Z M948.3607,184.6 L954.7982,184.6 L954.7982,182.85 L948.3607,182.85 L948.3607,184.6 Z " fill="#000000"/><text fill="#000000" font-family="sans-serif" font-size="14" font-style="italic" lengthAdjust="spacing" textLength="82.3197" x="966.023" y="187.962">EXPR_VALUE</text><line style="stroke:#181818;stroke-width:0.5;" x1="935.24" x2="1052.6196" y1="198.6" y2="198.6"/><line style="stroke:#181818;stroke-width:0.5;" x1="935.24" x2="1052.6196" y1="206.6" y2="206.6"/><ellipse cx="945.24" cy="220.5" fill="#84BE84" rx="3" ry="3" style="stroke:#038048;stroke-width:1;"/><text fill="#000000" font-family="sans-serif" font-size="14" font-style="italic" lengthAdjust="spacing" textLength="93.3796" x="954.24" y="224.3619">value() : Any [1]</text></g><!--class EXPR_LITERAL--><g class="entity" data-entity="EXPR_LITERAL" data-source-line="43" data-uid="ent0011" id="entity_EXPR_LITERAL"><rect fill="#F1F1F1" height="64.7999" rx="2.5" ry="2.5" style="stroke:#181818;stroke-width:0.5;" width="123.9096" x="1118.98" y="776.2"/><ellipse cx="1133.98" cy="792.2" fill="#ADD1B2" rx="11" ry="11" style="stroke:#181818;stroke-width:1;"/><path d="M1133.98,798.6219 C1135.1519,798.6219 1136.3863,798.3562 1137.7613,797.7469 L1137.2769,796.2312 C1136.1831,796.6531 1135.1675,796.8406 1134.3081,796.8406 C1131.5894,796.8406 1129.8706,794.9969 1129.8706,792.0906 C1129.8706,789.3406 1131.4331,787.7469 1134.1675,787.7469 C1135.0894,787.7469 1136.105,787.9344 1137.2456,788.3562 L1137.8238,786.8406 C1136.73,786.2625 1135.4331,785.9656 1134.2456,785.9656 C1130.48,785.9656 1127.9019,788.6062 1127.9019,792.4187 C1127.9019,796.0906 1130.3863,798.6219 1133.98,798.6219 Z " fill="#000000"/><text fill="#000000" font-family="sans-serif" font-size="14" lengthAdjust="spacing" textLength="91.9096" x="1147.98" y="797.562">EXPR_LITERAL</text><line style="stroke:#181818;stroke-width:0.5;" x1="1119.98" x2="1241.8896" y1="808.2" y2="808.2"/><ellipse cx="1129.98" cy="822.1" fill="none" rx="3" ry="3" style="stroke:#038048;stroke-width:1;"/><text fill="#000000" font-family="sans-serif" font-size="14" lengthAdjust="spacing" textLength="80.2617" x="1138.98" y="825.9619">item : Any [1]</text><line style="stroke:#181818;stroke-width:0.5;" x1="1119.98" x2="1241.8896" y1="832.9999" y2="832.9999"/></g><!--class EXPR_UNARY_OPERATOR--><g class="entity" data-entity="EXPR_UNARY_OPERATOR" data-source-line="47" data-uid="ent0012" id="entity_EXPR_UNARY_OPERATOR"><rect fill="#F1F1F1" height="64.7999" rx="2.5" ry="2.5" style="stroke:#181818;stroke-width:0.5;" width="196.6813" x="354.59" y="776.2"/><ellipse cx="369.59" cy="792.2" fill="#ADD1B2" rx="11" ry="11" style="stroke:#181818;stroke-width:1;"/><path d="M369.59,798.6219 C370.7619,798.6219 371.9963,798.3562 373.3713,797.7469 L372.8869,796.2312 C371.7931,796.6531 370.7775,796.8406 369.9181,796.8406 C367.1994,796.8406 365.4806,794.9969 365.4806,792.0906 C365.4806,789.3406 367.0431,787.7469 369.7775,787.7469 C370.6994,787.7469 371.715,787.9344 372.8556,788.3562 L373.4338,786.8406 C372.34,786.2625 371.0431,785.9656 369.8556,785.9656 C366.09,785.9656 363.5119,788.6062 363.5119,792.4187 C363.5119,796.0906 365.9963,798.6219 369.59,798.6219 Z " fill="#000000"/><text fill="#000000" font-family="sans-serif" font-size="14" lengthAdjust="spacing" textLength="164.6813" x="383.59" y="797.562">EXPR_UNARY_OPERATOR</text><line style="stroke:#181818;stroke-width:0.5;" x1="355.59" x2="550.2713" y1="808.2" y2="808.2"/><ellipse cx="365.59" cy="822.1" fill="none" rx="3" ry="3" style="stroke:#038048;stroke-width:1;"/><text fill="#000000" font-family="sans-serif" font-size="14" lengthAdjust="spacing" textLength="162.2314" x="374.59" y="825.9619">operand : EXPRESSION [1]</text><line style="stroke:#181818;stroke-width:0.5;" x1="355.59" x2="550.2713" y1="832.9999" y2="832.9999"/></g><!--class EXPR_VARIABLE_REF--><g class="entity" data-entity="EXPR_VARIABLE_REF" data-source-line="51" data-uid="ent0013" id="entity_EXPR_VARIABLE_REF"><rect fill="#F1F1F1" height="64.7999" rx="2.5" ry="2.5" style="stroke:#181818;stroke-width:0.5;" width="245.5611" x="1278.15" y="776.2"/><ellipse cx="1329.3478" cy="792.2" fill="#ADD1B2" rx="11" ry="11" style="stroke:#181818;stroke-width:1;"/><path d="M1329.3478,798.6219 C1330.5197,798.6219 1331.7541,798.3562 1333.1291,797.7469 L1332.6447,796.2312 C1331.551,796.6531 1330.5353,796.8406 1329.676,796.8406 C1326.9572,796.8406 1325.2385,794.9969 1325.2385,792.0906 C1325.2385,789.3406 1326.801,787.7469 1329.5353,787.7469 C1330.4572,787.7469 1331.4728,787.9344 1332.6135,788.3562 L1333.1916,786.8406 C1332.0978,786.2625 1330.801,785.9656 1329.6135,785.9656 C1325.8478,785.9656 1323.2697,788.6062 1323.2697,792.4187 C1323.2697,796.0906 1325.7541,798.6219 1329.3478,798.6219 Z " fill="#000000"/><text fill="#000000" font-family="sans-serif" font-size="14" lengthAdjust="spacing" textLength="134.6654" x="1349.8478" y="797.562">EXPR_VARIABLE_REF</text><line style="stroke:#181818;stroke-width:0.5;" x1="1279.15" x2="1522.7111" y1="808.2" y2="808.2"/><ellipse cx="1289.15" cy="822.1" fill="none" rx="3" ry="3" style="stroke:#038048;stroke-width:1;"/><text fill="#000000" font-family="sans-serif" font-size="14" lengthAdjust="spacing" textLength="219.5611" x="1298.15" y="825.9619">item : VARIABLE_DECLARATION [1]</text><line style="stroke:#181818;stroke-width:0.5;" x1="1279.15" x2="1522.7111" y1="832.9999" y2="832.9999"/></g><!--class EXTERNAL_QUERY--><g class="entity" data-entity="EXTERNAL_QUERY" data-source-line="55" data-uid="ent0014" id="entity_EXTERNAL_QUERY"><rect fill="#F1F1F1" height="98.3998" rx="2.5" ry="2.5" style="stroke:#181818;stroke-width:0.5;" width="200.0473" x="1010.91" y="451"/><ellipse cx="1047.6539" cy="467" fill="#ADD1B2" rx="11" ry="11" style="stroke:#181818;stroke-width:1;"/><path d="M1047.6539,473.4219 C1048.8258,473.4219 1050.0602,473.1563 1051.4352,472.5469 L1050.9508,471.0313 C1049.857,471.4531 1048.8414,471.6406 1047.982,471.6406 C1045.2633,471.6406 1043.5445,469.7969 1043.5445,466.8906 C1043.5445,464.1406 1045.107,462.5469 1047.8414,462.5469 C1048.7633,462.5469 1049.7789,462.7344 1050.9195,463.1563 L1051.4977,461.6406 C1050.4039,461.0625 1049.107,460.7656 1047.9195,460.7656 C1044.1539,460.7656 1041.5758,463.4063 1041.5758,467.2188 C1041.5758,470.8906 1044.0602,473.4219 1047.6539,473.4219 Z " fill="#000000"/><text fill="#000000" font-family="sans-serif" font-size="14" lengthAdjust="spacing" textLength="119.7275" x="1066.4859" y="472.362">EXTERNAL_QUERY</text><line style="stroke:#181818;stroke-width:0.5;" x1="1011.91" x2="1209.9573" y1="483" y2="483"/><ellipse cx="1021.91" cy="496.9" fill="none" rx="3" ry="3" style="stroke:#038048;stroke-width:1;"/><text fill="#000000" font-family="sans-serif" font-size="14" lengthAdjust="spacing" textLength="112.4616" x="1030.91" y="500.7619">context : String [1]</text><ellipse cx="1021.91" cy="513.6999" fill="none" rx="3" ry="3" style="stroke:#038048;stroke-width:1;"/><text fill="#000000" font-family="sans-serif" font-size="14" lengthAdjust="spacing" textLength="119.5875" x="1030.91" y="517.5619">query_id : String [1]</text><ellipse cx="1021.91" cy="530.4998" fill="none" rx="3" ry="3" style="stroke:#038048;stroke-width:1;"/><text fill="#000000" font-family="sans-serif" font-size="14" lengthAdjust="spacing" textLength="174.0473" x="1030.91" y="534.3618">query_args : List&lt;String&gt; [*]</text><line style="stroke:#181818;stroke-width:0.5;" x1="1011.91" x2="1209.9573" y1="541.3998" y2="541.3998"/></g><!--class STATEMENT_SET--><g class="entity" data-entity="STATEMENT_SET" data-source-line="61" data-uid="ent0015" id="entity_STATEMENT_SET"><rect fill="#F1F1F1" height="98.3998" rx="2.5" ry="2.5" style="stroke:#181818;stroke-width:0.5;" width="236.6151" x="1088.63" y="149.8"/><ellipse cx="1147.6888" cy="165.8" fill="#ADD1B2" rx="11" ry="11" style="stroke:#181818;stroke-width:1;"/><path d="M1147.6888,172.2219 C1148.8607,172.2219 1150.095,171.9562 1151.47,171.3469 L1150.9857,169.8312 C1149.8919,170.2531 1148.8763,170.4406 1148.0169,170.4406 C1145.2982,170.4406 1143.5794,168.5969 1143.5794,165.6906 C1143.5794,162.9406 1145.1419,161.3469 1147.8763,161.3469 C1148.7982,161.3469 1149.8138,161.5344 1150.9544,161.9562 L1151.5325,160.4406 C1150.4388,159.8625 1149.1419,159.5656 1147.9544,159.5656 C1144.1888,159.5656 1141.6107,162.2062 1141.6107,166.0187 C1141.6107,169.6906 1144.095,172.2219 1147.6888,172.2219 Z " fill="#000000"/><text fill="#000000" font-family="sans-serif" font-size="14" lengthAdjust="spacing" textLength="109.9975" x="1168.1888" y="171.162">STATEMENT_SET</text><line style="stroke:#181818;stroke-width:0.5;" x1="1089.63" x2="1324.2451" y1="181.8" y2="181.8"/><ellipse cx="1099.63" cy="195.7" fill="none" rx="3" ry="3" style="stroke:#038048;stroke-width:1;"/><text fill="#000000" font-family="sans-serif" font-size="14" lengthAdjust="spacing" textLength="210.6151" x="1108.63" y="199.5619">statement : List&lt;STATEMENT&gt; [*]</text><ellipse cx="1099.63" cy="212.4999" fill="none" rx="3" ry="3" style="stroke:#038048;stroke-width:1;"/><text fill="#000000" font-family="sans-serif" font-size="14" lengthAdjust="spacing" textLength="116.6475" x="1108.63" y="216.3619">name : String [0..1]</text><line style="stroke:#181818;stroke-width:0.5;" x1="1089.63" x2="1324.2451" y1="223.3999" y2="223.3999"/><ellipse cx="1099.63" cy="237.2998" fill="#84BE84" rx="3" ry="3" style="stroke:#038048;stroke-width:1;"/><text fill="#000000" font-family="sans-serif" font-size="14" lengthAdjust="spacing" textLength="191.0573" x="1108.63" y="241.1618">execution_result() : Boolean [1]</text></g><!--class VARIABLE_DECLARATION--><g class="entity" data-entity="VARIABLE_DECLARATION" data-source-line="67" data-uid="ent0016" id="entity_VARIABLE_DECLARATION"><rect fill="#F1F1F1" height="81.5999" rx="2.5" ry="2.5" style="stroke:#181818;stroke-width:0.5;" width="194.7213" x="550.57" y="459.4"/><ellipse cx="565.57" cy="475.4" fill="#ADD1B2" rx="11" ry="11" style="stroke:#181818;stroke-width:1;"/><path d="M565.57,481.8219 C566.7419,481.8219 567.9763,481.5563 569.3513,480.9469 L568.8669,479.4313 C567.7731,479.8531 566.7575,480.0406 565.8981,480.0406 C563.1794,480.0406 561.4606,478.1969 561.4606,475.2906 C561.4606,472.5406 563.0231,470.9469 565.7575,470.9469 C566.6794,470.9469 567.695,471.1344 568.8356,471.5563 L569.4138,470.0406 C568.32,469.4625 567.0231,469.1656 565.8356,469.1656 C562.07,469.1656 559.4919,471.8063 559.4919,475.6188 C559.4919,479.2906 561.9763,481.8219 565.57,481.8219 Z " fill="#000000"/><text fill="#000000" font-family="sans-serif" font-size="14" lengthAdjust="spacing" textLength="162.7213" x="579.57" y="480.762">VARIABLE_DECLARATION</text><line style="stroke:#181818;stroke-width:0.5;" x1="551.57" x2="744.2913" y1="491.4" y2="491.4"/><ellipse cx="561.57" cy="505.3" fill="none" rx="3" ry="3" style="stroke:#038048;stroke-width:1;"/><text fill="#000000" font-family="sans-serif" font-size="14" lengthAdjust="spacing" textLength="100.8836" x="570.57" y="509.1619">name : String [1]</text><ellipse cx="561.57" cy="522.0999" fill="none" rx="3" ry="3" style="stroke:#038048;stroke-width:1;"/><text fill="#000000" font-family="sans-serif" font-size="14" lengthAdjust="spacing" textLength="161.6573" x="570.57" y="525.9619">type : EXPR_TYPE_DEF [1]</text><line style="stroke:#181818;stroke-width:0.5;" x1="551.57" x2="744.2913" y1="532.9999" y2="532.9999"/></g><!--class EXPR_VALUE_REF--><g class="entity" data-entity="EXPR_VALUE_REF" data-source-line="72" data-uid="ent0017" id="entity_EXPR_VALUE_REF"><rect fill="#F1F1F1" height="48" rx="2.5" ry="2.5" style="stroke:#181818;stroke-width:0.5;" width="146.0575" x="1558.91" y="784.6"/><ellipse cx="1573.91" cy="800.6" fill="#ADD1B2" rx="11" ry="11" style="stroke:#181818;stroke-width:1;"/><path d="M1573.91,807.0219 C1575.0819,807.0219 1576.3163,806.7563 1577.6913,806.1469 L1577.2069,804.6313 C1576.1131,805.0531 1575.0975,805.2406 1574.2381,805.2406 C1571.5194,805.2406 1569.8006,803.3969 1569.8006,800.4906 C1569.8006,797.7406 1571.3631,796.1469 1574.0975,796.1469 C1575.0194,796.1469 1576.035,796.3344 1577.1756,796.7563 L1577.7538,795.2406 C1576.66,794.6625 1575.3631,794.3656 1574.1756,794.3656 C1570.41,794.3656 1567.8319,797.0063 1567.8319,800.8188 C1567.8319,804.4906 1570.3163,807.0219 1573.91,807.0219 Z " fill="#000000"/><text fill="#000000" font-family="sans-serif" font-size="14" lengthAdjust="spacing" textLength="114.0575" x="1587.91" y="805.962">EXPR_VALUE_REF</text><line style="stroke:#181818;stroke-width:0.5;" x1="1559.91" x2="1703.9675" y1="816.6" y2="816.6"/><line style="stroke:#181818;stroke-width:0.5;" x1="1559.91" x2="1703.9675" y1="824.6" y2="824.6"/></g><!--class EXPR_FOR_ALL--><g class="entity" data-entity="EXPR_FOR_ALL" data-source-line="75" data-uid="ent0018" id="entity_EXPR_FOR_ALL"><rect fill="#F1F1F1" height="81.5999" rx="2.5" ry="2.5" style="stroke:#181818;stroke-width:0.5;" width="220.2912" x="585.79" y="767.8"/><ellipse cx="642.8888" cy="783.8" fill="#ADD1B2" rx="11" ry="11" style="stroke:#181818;stroke-width:1;"/><path d="M642.8888,790.2219 C644.0607,790.2219 645.2951,789.9563 646.6701,789.3469 L646.1857,787.8313 C645.0919,788.2531 644.0763,788.4406 643.2169,788.4406 C640.4982,788.4406 638.7794,786.5969 638.7794,783.6906 C638.7794,780.9406 640.3419,779.3469 643.0763,779.3469 C643.9982,779.3469 645.0138,779.5344 646.1544,779.9563 L646.7326,778.4406 C645.6388,777.8625 644.3419,777.5656 643.1544,777.5656 C639.3888,777.5656 636.8107,780.2063 636.8107,784.0188 C636.8107,787.6906 639.2951,790.2219 642.8888,790.2219 Z " fill="#000000"/><text fill="#000000" font-family="sans-serif" font-size="14" lengthAdjust="spacing" textLength="97.5936" x="663.3888" y="789.162">EXPR_FOR_ALL</text><line style="stroke:#181818;stroke-width:0.5;" x1="586.79" x2="805.0812" y1="799.8" y2="799.8"/><ellipse cx="596.79" cy="813.7" fill="none" rx="3" ry="3" style="stroke:#038048;stroke-width:1;"/><text fill="#000000" font-family="sans-serif" font-size="14" lengthAdjust="spacing" textLength="160.6634" x="605.79" y="817.5619">condition : ASSERTION [1]</text><ellipse cx="596.79" cy="830.4999" fill="none" rx="3" ry="3" style="stroke:#038048;stroke-width:1;"/><text fill="#000000" font-family="sans-serif" font-size="14" lengthAdjust="spacing" textLength="194.2912" x="605.79" y="834.3619">operand : EXPR_VALUE_REF [1]</text><line style="stroke:#181818;stroke-width:0.5;" x1="586.79" x2="805.0812" y1="841.3999" y2="841.3999"/></g><!--class OPERATOR_KIND--><g class="entity" data-entity="OPERATOR_KIND" data-source-line="80" data-uid="ent0019" id="entity_OPERATOR_KIND"><rect fill="#F1F1F1" height="383.9985" rx="2.5" ry="2.5" style="stroke:#181818;stroke-width:0.5;" width="143.4675" x="1360.2" y="7"/><ellipse cx="1375.2" cy="23" fill="#EB937F" rx="11" ry="11" style="stroke:#181818;stroke-width:1;"/><path d="M1370.7625,29.5 L1378.7,29.5 L1378.7,27.75 L1372.7,27.75 L1372.7,24.0156 L1378.2469,24.0156 L1378.2469,22.25 L1372.7,22.25 L1372.7,18.9219 L1378.7,18.9219 L1378.7,17.1719 L1370.7625,17.1719 L1370.7625,29.5 Z " fill="#000000"/><text fill="#000000" font-family="sans-serif" font-size="14" lengthAdjust="spacing" textLength="111.4675" x="1389.2" y="28.362">OPERATOR_KIND</text><line style="stroke:#181818;stroke-width:0.5;" x1="1361.2" x2="1502.6675" y1="39" y2="39"/><text fill="#000000" font-family="sans-serif" font-size="14" lengthAdjust="spacing" textLength="15.3719" x="1366.2" y="56.7619">eq</text><text fill="#000000" font-family="sans-serif" font-size="14" lengthAdjust="spacing" textLength="15.3299" x="1366.2" y="73.5619">ne</text><text fill="#000000" font-family="sans-serif" font-size="14" lengthAdjust="spacing" textLength="8.946" x="1366.2" y="90.3618">lt</text><text fill="#000000" font-family="sans-serif" font-size="14" lengthAdjust="spacing" textLength="11.284" x="1366.2" y="107.1617">le</text><text fill="#000000" font-family="sans-serif" font-size="14" lengthAdjust="spacing" textLength="13.034" x="1366.2" y="123.9616">gt</text><text fill="#000000" font-family="sans-serif" font-size="14" lengthAdjust="spacing" textLength="15.3719" x="1366.2" y="140.7616">ge</text><text fill="#000000" font-family="sans-serif" font-size="14" lengthAdjust="spacing" textLength="52.9898" x="1366.2" y="157.5615">matches</text><text fill="#000000" font-family="sans-serif" font-size="14" lengthAdjust="spacing" textLength="20.9299" x="1366.2" y="174.3614">not</text><text fill="#000000" font-family="sans-serif" font-size="14" lengthAdjust="spacing" textLength="23.0859" x="1366.2" y="191.1614">and</text><text fill="#000000" font-family="sans-serif" font-size="14" lengthAdjust="spacing" textLength="13.216" x="1366.2" y="207.9613">or</text><text fill="#000000" font-family="sans-serif" font-size="14" lengthAdjust="spacing" textLength="19.7819" x="1366.2" y="224.7612">xor</text><text fill="#000000" font-family="sans-serif" font-size="14" lengthAdjust="spacing" textLength="45.0658" x="1366.2" y="241.5611">implies</text><text fill="#000000" font-family="sans-serif" font-size="14" lengthAdjust="spacing" textLength="39.9278" x="1366.2" y="258.3611">for_all</text><text fill="#000000" font-family="sans-serif" font-size="14" lengthAdjust="spacing" textLength="35.4479" x="1366.2" y="275.161">exists</text><text fill="#000000" font-family="sans-serif" font-size="14" lengthAdjust="spacing" textLength="26.1939" x="1366.2" y="291.9609">plus</text><text fill="#000000" font-family="sans-serif" font-size="14" lengthAdjust="spacing" textLength="38.0938" x="1366.2" y="308.7608">minus</text><text fill="#000000" font-family="sans-serif" font-size="14" lengthAdjust="spacing" textLength="51.2118" x="1366.2" y="325.5608">multiply</text><text fill="#000000" font-family="sans-serif" font-size="14" lengthAdjust="spacing" textLength="36.9598" x="1366.2" y="342.3607">divide</text><text fill="#000000" font-family="sans-serif" font-size="14" lengthAdjust="spacing" textLength="47.9638" x="1366.2" y="359.1606">modulo</text><text fill="#000000" font-family="sans-serif" font-size="14" lengthAdjust="spacing" textLength="58.2118" x="1366.2" y="375.9605">exponent</text><line style="stroke:#181818;stroke-width:0.5;" x1="1361.2" x2="1502.6675" y1="382.9985" y2="382.9985"/></g><!--reverse link STATEMENT to ASSERTION--><g class="link" data-entity-1="STATEMENT" data-entity-2="ASSERTION" data-source-line="103" data-uid="lnk20" id="link_STATEMENT_ASSERTION"><path codeLine="103" d="M354.4828,236.7998 C310.1528,285.5698 219.4,385.38 160.15,450.57" fill="none" id="STATEMENT-backto-ASSERTION" style="stroke:#181818;stroke-width:1;"/><polygon fill="none" points="366.59,223.48,350.0429,232.7641,358.9228,240.8355,366.59,223.48" style="stroke:#181818;stroke-width:1;"/></g><!--reverse link STATEMENT to ASSIGNMENT--><g class="link" data-entity-1="STATEMENT" data-entity-2="ASSIGNMENT" data-source-line="104" data-uid="lnk21" id="link_STATEMENT_ASSIGNMENT"><path codeLine="104" d="M387.93,241.48 C387.93,292.45 387.93,395.74 387.93,459.1" fill="none" id="STATEMENT-backto-ASSIGNMENT" style="stroke:#181818;stroke-width:1;"/><polygon fill="none" points="387.93,223.48,381.93,241.48,393.93,241.48,387.93,223.48" style="stroke:#181818;stroke-width:1;"/></g><!--reverse link EXPR_OPERATOR to EXPR_BINARY_OPERATOR--><g class="link" data-entity-1="EXPR_OPERATOR" data-entity-2="EXPR_BINARY_OPERATOR" data-source-line="105" data-uid="lnk22" id="link_EXPR_OPERATOR_EXPR_BINARY_OPERATOR"><path codeLine="105" d="M437.2291,714.9841 C389.6691,734.1041 352.44,749.08 307.12,767.31" fill="none" id="EXPR_OPERATOR-backto-EXPR_BINARY_OPERATOR" style="stroke:#181818;stroke-width:1;"/><polygon fill="none" points="453.93,708.27,434.991,709.4171,439.4671,720.5511,453.93,708.27" style="stroke:#181818;stroke-width:1;"/></g><!--reverse link EXPRESSION to EXPR_OPERATOR--><g class="link" data-entity-1="EXPRESSION" data-entity-2="EXPR_OPERATOR" data-source-line="106" data-uid="lnk23" id="link_EXPRESSION_EXPR_OPERATOR"><path codeLine="106" d="M800.256,541.2979 C757.956,563.1379 717.01,584.26 669.07,609.01" fill="none" id="EXPRESSION-backto-EXPR_OPERATOR" style="stroke:#181818;stroke-width:1;"/><polygon fill="none" points="816.25,533.04,797.5034,535.9666,803.0086,546.6292,816.25,533.04" style="stroke:#181818;stroke-width:1;"/></g><!--reverse link EXPR_LEAF to EXPR_FUNCTION_CALL--><g class="link" data-entity-1="EXPR_LEAF" data-entity-2="EXPR_FUNCTION_CALL" data-source-line="107" data-uid="lnk24" id="link_EXPR_LEAF_EXPR_FUNCTION_CALL"><path codeLine="107" d="M1119.2777,701.4604 C1082.4977,726.4304 1046.39,750.95 1009.62,775.9" fill="none" id="EXPR_LEAF-backto-EXPR_FUNCTION_CALL" style="stroke:#181818;stroke-width:1;"/><polygon fill="none" points="1134.17,691.35,1115.9076,696.4963,1122.6479,706.4245,1134.17,691.35" style="stroke:#181818;stroke-width:1;"/></g><!--reverse link EXPRESSION to EXPR_LEAF--><g class="link" data-entity-1="EXPRESSION" data-entity-2="EXPR_LEAF" data-source-line="108" data-uid="lnk25" id="link_EXPRESSION_EXPR_LEAF"><path codeLine="108" d="M955.6142,541.2975 C1008.1242,568.4075 1067.18,598.88 1119.6,625.94" fill="none" id="EXPRESSION-backto-EXPR_LEAF" style="stroke:#181818;stroke-width:1;"/><polygon fill="none" points="939.62,533.04,952.8617,546.6289,958.3667,535.9661,939.62,533.04" style="stroke:#181818;stroke-width:1;"/></g><!--reverse link EXPR_VALUE to EXPRESSION--><g class="link" data-entity-1="EXPR_VALUE" data-entity-2="EXPRESSION" data-source-line="109" data-uid="lnk26" id="link_EXPR_VALUE_EXPRESSION"><path codeLine="109" d="M975.1242,248.5231 C952.8542,305.9731 912.6,409.8 890.29,467.34" fill="none" id="EXPR_VALUE-backto-EXPRESSION" style="stroke:#181818;stroke-width:1;"/><polygon fill="none" points="981.63,231.74,969.5298,246.3545,980.7185,250.6918,981.63,231.74" style="stroke:#181818;stroke-width:1;"/></g><!--reverse link EXPR_LEAF to EXPR_LITERAL--><g class="link" data-entity-1="EXPR_LEAF" data-entity-2="EXPR_LITERAL" data-source-line="110" data-uid="lnk27" id="link_EXPR_LEAF_EXPR_LITERAL"><path codeLine="110" d="M1180.93,709.35 C1180.93,734.32 1180.93,750.95 1180.93,775.9" fill="none" id="EXPR_LEAF-backto-EXPR_LITERAL" style="stroke:#181818;stroke-width:1;"/><polygon fill="none" points="1180.93,691.35,1174.93,709.35,1186.93,709.35,1180.93,691.35" style="stroke:#181818;stroke-width:1;"/></g><!--reverse link EXPR_OPERATOR to EXPR_UNARY_OPERATOR--><g class="link" data-entity-1="EXPR_OPERATOR" data-entity-2="EXPR_UNARY_OPERATOR" data-source-line="111" data-uid="lnk28" id="link_EXPR_OPERATOR_EXPR_UNARY_OPERATOR"><path codeLine="111" d="M523.5405,721.9492 C505.1905,744.2092 495.4,756.09 479.13,775.83" fill="none" id="EXPR_OPERATOR-backto-EXPR_UNARY_OPERATOR" style="stroke:#181818;stroke-width:1;"/><polygon fill="none" points="534.99,708.06,518.9108,718.1327,528.1702,725.7657,534.99,708.06" style="stroke:#181818;stroke-width:1;"/></g><!--reverse link EXPR_LEAF to EXPR_VARIABLE_REF--><g class="link" data-entity-1="EXPR_LEAF" data-entity-2="EXPR_VARIABLE_REF" data-source-line="112" data-uid="lnk29" id="link_EXPR_LEAF_EXPR_VARIABLE_REF"><path codeLine="112" d="M1243.0653,701.3967 C1280.1853,726.3667 1316.72,750.95 1353.82,775.9" fill="none" id="EXPR_LEAF-backto-EXPR_VARIABLE_REF" style="stroke:#181818;stroke-width:1;"/><polygon fill="none" points="1228.13,691.35,1239.7164,706.3752,1246.4142,696.4183,1228.13,691.35" style="stroke:#181818;stroke-width:1;"/></g><!--reverse link EXPR_VALUE to EXTERNAL_QUERY--><g class="link" data-entity-1="EXPR_VALUE" data-entity-2="EXTERNAL_QUERY" data-source-line="113" data-uid="lnk30" id="link_EXPR_VALUE_EXTERNAL_QUERY"><path codeLine="113" d="M1012.8962,248.5036 C1033.3662,300.8436 1067.77,388.83 1091.92,450.56" fill="none" id="EXPR_VALUE-backto-EXTERNAL_QUERY" style="stroke:#181818;stroke-width:1;"/><polygon fill="none" points="1006.34,231.74,1007.3083,250.6889,1018.484,246.3182,1006.34,231.74" style="stroke:#181818;stroke-width:1;"/></g><!--reverse link STATEMENT to VARIABLE_DECLARATION--><g class="link" data-entity-1="STATEMENT" data-entity-2="VARIABLE_DECLARATION" data-source-line="114" data-uid="lnk31" id="link_STATEMENT_VARIABLE_DECLARATION"><path codeLine="114" d="M420.1464,237.0671 C464.4364,288.0371 558.03,395.74 613.09,459.1" fill="none" id="STATEMENT-backto-VARIABLE_DECLARATION" style="stroke:#181818;stroke-width:1;"/><polygon fill="none" points="408.34,223.48,415.6174,241.0026,424.6754,233.1316,408.34,223.48" style="stroke:#181818;stroke-width:1;"/></g><!--reverse link EXPR_LEAF to EXPR_VALUE_REF--><g class="link" data-entity-1="EXPR_LEAF" data-entity-2="EXPR_VALUE_REF" data-source-line="115" data-uid="lnk32" id="link_EXPR_LEAF_EXPR_VALUE_REF"><path codeLine="115" d="M1259.5633,680.2613 C1331.7933,699.6713 1437.72,729.87 1540.93,767.8 C1554.21,772.68 1568.31,778.51 1581.36,784.19" fill="none" id="EXPR_LEAF-backto-EXPR_VALUE_REF" style="stroke:#181818;stroke-width:1;"/><polygon fill="none" points="1242.18,675.59,1258.0062,686.0558,1261.1204,674.4669,1242.18,675.59" style="stroke:#181818;stroke-width:1;"/></g><!--reverse link EXPR_OPERATOR to EXPR_FOR_ALL--><g class="link" data-entity-1="EXPR_OPERATOR" data-entity-2="EXPR_FOR_ALL" data-source-line="116" data-uid="lnk33" id="link_EXPR_OPERATOR_EXPR_FOR_ALL"><path codeLine="116" d="M625.9459,721.9932 C641.6659,741.2132 648.13,749.12 663.1,767.44" fill="none" id="EXPR_OPERATOR-backto-EXPR_FOR_ALL" style="stroke:#181818;stroke-width:1;"/><polygon fill="none" points="614.55,708.06,621.3015,725.7918,630.5903,718.1945,614.55,708.06" style="stroke:#181818;stroke-width:1;"/></g></g></svg>
