<svg xmlns="http://www.w3.org/2000/svg" xmlns:xlink="http://www.w3.org/1999/xlink" contentStyleType="text/css" data-diagram-type="CLASS" height="489px" preserveAspectRatio="none" style="width:1158px;height:489px;background:#FFFFFF;" version="1.1" viewBox="0 0 1158 489" width="1158px" zoomAndPan="magnify"><defs/><g><!--class BMM_INTEGER_VALUE--><g class="entity" data-entity="BMM_INTEGER_VALUE" data-source-line="2" data-uid="ent0002" id="entity_BMM_INTEGER_VALUE"><rect fill="#F1F1F1" height="64.7999" rx="2.5" ry="2.5" style="stroke:#181818;stroke-width:0.5;" width="177.9354" x="7" y="418"/><ellipse cx="22" cy="434" fill="#ADD1B2" rx="11" ry="11" style="stroke:#181818;stroke-width:1;"/><path d="M22,440.4219 C23.1719,440.4219 24.4063,440.1563 25.7813,439.5469 L25.2969,438.0313 C24.2031,438.4531 23.1875,438.6406 22.3281,438.6406 C19.6094,438.6406 17.8906,436.7969 17.8906,433.8906 C17.8906,431.1406 19.4531,429.5469 22.1875,429.5469 C23.1094,429.5469 24.125,429.7344 25.2656,430.1563 L25.8438,428.6406 C24.75,428.0625 23.4531,427.7656 22.2656,427.7656 C18.5,427.7656 15.9219,430.4063 15.9219,434.2188 C15.9219,437.8906 18.4063,440.4219 22,440.4219 Z " fill="#000000"/><text fill="#000000" font-family="sans-serif" font-size="14" lengthAdjust="spacing" textLength="145.9354" x="36" y="439.362">BMM_INTEGER_VALUE</text><line style="stroke:#181818;stroke-width:0.5;" x1="8" x2="183.9354" y1="450" y2="450"/><ellipse cx="18" cy="463.9" fill="none" rx="3" ry="3" style="stroke:#038048;stroke-width:1;"/><text fill="#000000" font-family="sans-serif" font-size="14" lengthAdjust="spacing" textLength="106.3016" x="27" y="467.7619">value : Integer [1]</text><line style="stroke:#181818;stroke-width:0.5;" x1="8" x2="183.9354" y1="474.7999" y2="474.7999"/></g><!--class BMM_PRIMITIVE_VALUE--><g class="entity" data-entity="BMM_PRIMITIVE_VALUE" data-source-line="6" data-uid="ent0003" id="entity_BMM_PRIMITIVE_VALUE"><rect fill="#F1F1F1" height="64.7999" rx="2.5" ry="2.5" style="stroke:#181818;stroke-width:0.5;" width="208.0833" x="200.93" y="293.2"/><ellipse cx="226.1134" cy="309.2" fill="#ADD1B2" rx="11" ry="11" style="stroke:#181818;stroke-width:1;"/><path d="M226.1134,315.6219 C227.2853,315.6219 228.5197,315.3563 229.8947,314.7469 L229.4103,313.2313 C228.3166,313.6531 227.3009,313.8406 226.4416,313.8406 C223.7228,313.8406 222.0041,311.9969 222.0041,309.0906 C222.0041,306.3406 223.5666,304.7469 226.3009,304.7469 C227.2228,304.7469 228.2384,304.9344 229.3791,305.3563 L229.9572,303.8406 C228.8634,303.2625 227.5666,302.9656 226.3791,302.9656 C222.6134,302.9656 220.0353,305.6063 220.0353,309.4188 C220.0353,313.0906 222.5197,315.6219 226.1134,315.6219 Z " fill="#000000"/><text fill="#000000" font-family="sans-serif" font-size="14" lengthAdjust="spacing" textLength="153.4534" x="242.3764" y="314.562">BMM_PRIMITIVE_VALUE</text><line style="stroke:#181818;stroke-width:0.5;" x1="201.93" x2="408.0133" y1="325.2" y2="325.2"/><ellipse cx="211.93" cy="339.1" fill="none" rx="3" ry="3" style="stroke:#038048;stroke-width:1;"/><text fill="#000000" font-family="sans-serif" font-size="14" lengthAdjust="spacing" textLength="182.0833" x="220.93" y="342.9619">type : BMM_SIMPLE_TYPE [1]</text><line style="stroke:#181818;stroke-width:0.5;" x1="201.93" x2="408.0133" y1="349.9999" y2="349.9999"/></g><!--class BMM_STRING_VALUE--><g class="entity" data-entity="BMM_STRING_VALUE" data-source-line="10" data-uid="ent0004" id="entity_BMM_STRING_VALUE"><rect fill="#F1F1F1" height="64.7999" rx="2.5" ry="2.5" style="stroke:#181818;stroke-width:0.5;" width="169.3255" x="220.3" y="418"/><ellipse cx="235.3" cy="434" fill="#ADD1B2" rx="11" ry="11" style="stroke:#181818;stroke-width:1;"/><path d="M235.3,440.4219 C236.4719,440.4219 237.7063,440.1563 239.0813,439.5469 L238.5969,438.0313 C237.5031,438.4531 236.4875,438.6406 235.6281,438.6406 C232.9094,438.6406 231.1906,436.7969 231.1906,433.8906 C231.1906,431.1406 232.7531,429.5469 235.4875,429.5469 C236.4094,429.5469 237.425,429.7344 238.5656,430.1563 L239.1438,428.6406 C238.05,428.0625 236.7531,427.7656 235.5656,427.7656 C231.8,427.7656 229.2219,430.4063 229.2219,434.2188 C229.2219,437.8906 231.7063,440.4219 235.3,440.4219 Z " fill="#000000"/><text fill="#000000" font-family="sans-serif" font-size="14" lengthAdjust="spacing" textLength="137.3255" x="249.3" y="439.362">BMM_STRING_VALUE</text><line style="stroke:#181818;stroke-width:0.5;" x1="221.3" x2="388.6255" y1="450" y2="450"/><ellipse cx="231.3" cy="463.9" fill="none" rx="3" ry="3" style="stroke:#038048;stroke-width:1;"/><text fill="#000000" font-family="sans-serif" font-size="14" lengthAdjust="spacing" textLength="98.9656" x="240.3" y="467.7619">value : String [1]</text><line style="stroke:#181818;stroke-width:0.5;" x1="221.3" x2="388.6255" y1="474.7999" y2="474.7999"/></g><!--class BMM_LITERAL_VALUE--><g class="entity" data-entity="BMM_LITERAL_VALUE" data-source-line="14" data-uid="ent0005" id="entity_BMM_LITERAL_VALUE"><rect fill="#F1F1F1" height="115.1997" rx="2.5" ry="2.5" style="stroke:#181818;stroke-width:0.5;" width="182.9735" x="575.48" y="10"/><ellipse cx="590.48" cy="26" fill="#A9DCDF" rx="11" ry="11" style="stroke:#181818;stroke-width:1;"/><path d="M584.9956,31.5 L587.0269,31.5 L591.0738,20.1563 L590.1675,20.1563 L593.9956,31.5 L596.1363,31.5 L591.8081,19.1719 L589.5894,19.1719 L584.9956,31.5 Z M587.3238,28 L593.7613,28 L593.7613,26.25 L587.3238,26.25 L587.3238,28 Z " fill="#000000"/><text fill="#000000" font-family="sans-serif" font-size="14" font-style="italic" lengthAdjust="spacing" textLength="140.1814" x="604.48" y="31.362">BMM_LITERAL_VALUE</text><rect fill="#FFFFFF" height="16.4001" style="stroke:#181818;stroke-width:1;stroke-dasharray:2,2;" width="8.7921" x="752.6614" y="7"/><text fill="#000000" font-family="sans-serif" font-size="12" font-style="italic" lengthAdjust="spacing" textLength="6.7921" x="753.6614" y="19.7961">T</text><line style="stroke:#181818;stroke-width:0.5;" x1="576.48" x2="757.4535" y1="42" y2="42"/><ellipse cx="586.48" cy="55.9" fill="none" rx="3" ry="3" style="stroke:#038048;stroke-width:1;"/><text fill="#000000" font-family="sans-serif" font-size="14" lengthAdjust="spacing" textLength="142.0854" x="595.48" y="59.7619">value_literal : String [1]</text><ellipse cx="586.48" cy="72.6999" fill="none" rx="3" ry="3" style="stroke:#038048;stroke-width:1;"/><text fill="#000000" font-family="sans-serif" font-size="14" lengthAdjust="spacing" textLength="100.7156" x="595.48" y="76.5619">value : Any [0..1]</text><ellipse cx="586.48" cy="89.4998" fill="none" rx="3" ry="3" style="stroke:#038048;stroke-width:1;"/><text fill="#000000" font-family="sans-serif" font-size="14" lengthAdjust="spacing" textLength="121.6875" x="595.48" y="93.3618">syntax : String [0..1]</text><ellipse cx="586.48" cy="106.2997" fill="none" rx="3" ry="3" style="stroke:#038048;stroke-width:1;"/><text fill="#000000" font-family="sans-serif" font-size="14" lengthAdjust="spacing" textLength="63.6297" x="595.48" y="110.1617">type : T [1]</text><line style="stroke:#181818;stroke-width:0.5;" x1="576.48" x2="757.4535" y1="117.1997" y2="117.1997"/></g><!--class BMM_BOOLEAN_VALUE--><g class="entity" data-entity="BMM_BOOLEAN_VALUE" data-source-line="21" data-uid="ent0006" id="entity_BMM_BOOLEAN_VALUE"><rect fill="#F1F1F1" height="64.7999" rx="2.5" ry="2.5" style="stroke:#181818;stroke-width:0.5;" width="185.3554" x="424.29" y="418"/><ellipse cx="439.29" cy="434" fill="#ADD1B2" rx="11" ry="11" style="stroke:#181818;stroke-width:1;"/><path d="M439.29,440.4219 C440.4619,440.4219 441.6963,440.1563 443.0713,439.5469 L442.5869,438.0313 C441.4931,438.4531 440.4775,438.6406 439.6181,438.6406 C436.8994,438.6406 435.1806,436.7969 435.1806,433.8906 C435.1806,431.1406 436.7431,429.5469 439.4775,429.5469 C440.3994,429.5469 441.415,429.7344 442.5556,430.1563 L443.1338,428.6406 C442.04,428.0625 440.7431,427.7656 439.5556,427.7656 C435.79,427.7656 433.2119,430.4063 433.2119,434.2188 C433.2119,437.8906 435.6963,440.4219 439.29,440.4219 Z " fill="#000000"/><text fill="#000000" font-family="sans-serif" font-size="14" lengthAdjust="spacing" textLength="153.3554" x="453.29" y="439.362">BMM_BOOLEAN_VALUE</text><line style="stroke:#181818;stroke-width:0.5;" x1="425.29" x2="608.6454" y1="450" y2="450"/><ellipse cx="435.29" cy="463.9" fill="none" rx="3" ry="3" style="stroke:#038048;stroke-width:1;"/><text fill="#000000" font-family="sans-serif" font-size="14" lengthAdjust="spacing" textLength="112.6155" x="444.29" y="467.7619">value : Boolean [1]</text><line style="stroke:#181818;stroke-width:0.5;" x1="425.29" x2="608.6454" y1="474.7999" y2="474.7999"/></g><!--class BMM_UNITARY_VALUE--><g class="entity" data-entity="BMM_UNITARY_VALUE" data-source-line="25" data-uid="ent0007" id="entity_BMM_UNITARY_VALUE"><rect fill="#F1F1F1" height="48" rx="2.5" ry="2.5" style="stroke:#181818;stroke-width:0.5;" width="188.6435" x="210.65" y="185.2"/><ellipse cx="225.65" cy="201.2" fill="#A9DCDF" rx="11" ry="11" style="stroke:#181818;stroke-width:1;"/><path d="M220.1656,206.7 L222.1969,206.7 L226.2438,195.3563 L225.3375,195.3563 L229.1656,206.7 L231.3063,206.7 L226.9781,194.3719 L224.7594,194.3719 L220.1656,206.7 Z M222.4938,203.2 L228.9313,203.2 L228.9313,201.45 L222.4938,201.45 L222.4938,203.2 Z " fill="#000000"/><text fill="#000000" font-family="sans-serif" font-size="14" font-style="italic" lengthAdjust="spacing" textLength="145.8514" x="239.65" y="206.562">BMM_UNITARY_VALUE</text><rect fill="#FFFFFF" height="16.4001" style="stroke:#181818;stroke-width:1;stroke-dasharray:2,2;" width="8.7921" x="393.5014" y="182.2"/><text fill="#000000" font-family="sans-serif" font-size="12" font-style="italic" lengthAdjust="spacing" textLength="6.7921" x="394.5014" y="194.9961">T</text><line style="stroke:#181818;stroke-width:0.5;" x1="211.65" x2="398.2935" y1="217.2" y2="217.2"/><line style="stroke:#181818;stroke-width:0.5;" x1="211.65" x2="398.2935" y1="225.2" y2="225.2"/></g><!--class BMM_CONTAINER_VALUE--><g class="entity" data-entity="BMM_CONTAINER_VALUE" data-source-line="28" data-uid="ent0008" id="entity_BMM_CONTAINER_VALUE"><rect fill="#F1F1F1" height="48" rx="2.5" ry="2.5" style="stroke:#181818;stroke-width:0.5;" width="198.6833" x="434.63" y="185.2"/><ellipse cx="449.63" cy="201.2" fill="#ADD1B2" rx="11" ry="11" style="stroke:#181818;stroke-width:1;"/><path d="M449.63,207.6219 C450.8019,207.6219 452.0363,207.3563 453.4113,206.7469 L452.9269,205.2313 C451.8331,205.6531 450.8175,205.8406 449.9581,205.8406 C447.2394,205.8406 445.5206,203.9969 445.5206,201.0906 C445.5206,198.3406 447.0831,196.7469 449.8175,196.7469 C450.7394,196.7469 451.755,196.9344 452.8956,197.3563 L453.4738,195.8406 C452.38,195.2625 451.0831,194.9656 449.8956,194.9656 C446.13,194.9656 443.5519,197.6063 443.5519,201.4188 C443.5519,205.0906 446.0363,207.6219 449.63,207.6219 Z " fill="#000000"/><text fill="#000000" font-family="sans-serif" font-size="14" lengthAdjust="spacing" textLength="166.6833" x="463.63" y="206.562">BMM_CONTAINER_VALUE</text><line style="stroke:#181818;stroke-width:0.5;" x1="435.63" x2="632.3133" y1="217.2" y2="217.2"/><line style="stroke:#181818;stroke-width:0.5;" x1="435.63" x2="632.3133" y1="225.2" y2="225.2"/></g><!--class BMM_INDEXED_CONTAINER_VALUE--><g class="entity" data-entity="BMM_INDEXED_CONTAINER_VALUE" data-source-line="31" data-uid="ent0009" id="entity_BMM_INDEXED_CONTAINER_VALUE"><rect fill="#F1F1F1" height="48" rx="2.5" ry="2.5" style="stroke:#181818;stroke-width:0.5;" width="264.5251" x="668.71" y="185.2"/><ellipse cx="683.71" cy="201.2" fill="#ADD1B2" rx="11" ry="11" style="stroke:#181818;stroke-width:1;"/><path d="M683.71,207.6219 C684.8819,207.6219 686.1163,207.3563 687.4913,206.7469 L687.0069,205.2313 C685.9131,205.6531 684.8975,205.8406 684.0381,205.8406 C681.3194,205.8406 679.6006,203.9969 679.6006,201.0906 C679.6006,198.3406 681.1631,196.7469 683.8975,196.7469 C684.8194,196.7469 685.835,196.9344 686.9756,197.3563 L687.5538,195.8406 C686.46,195.2625 685.1631,194.9656 683.9756,194.9656 C680.21,194.9656 677.6319,197.6063 677.6319,201.4188 C677.6319,205.0906 680.1163,207.6219 683.71,207.6219 Z " fill="#000000"/><text fill="#000000" font-family="sans-serif" font-size="14" lengthAdjust="spacing" textLength="232.5251" x="697.71" y="206.562">BMM_INDEXED_CONTAINER_VALUE</text><line style="stroke:#181818;stroke-width:0.5;" x1="669.71" x2="932.2351" y1="217.2" y2="217.2"/><line style="stroke:#181818;stroke-width:0.5;" x1="669.71" x2="932.2351" y1="225.2" y2="225.2"/></g><!--class BMM_INTERVAL_VALUE--><g class="entity" data-entity="BMM_INTERVAL_VALUE" data-source-line="34" data-uid="ent0010" id="entity_BMM_INTERVAL_VALUE"><rect fill="#F1F1F1" height="48" rx="2.5" ry="2.5" style="stroke:#181818;stroke-width:0.5;" width="184.0394" x="967.95" y="185.2"/><ellipse cx="982.95" cy="201.2" fill="#ADD1B2" rx="11" ry="11" style="stroke:#181818;stroke-width:1;"/><path d="M982.95,207.6219 C984.1219,207.6219 985.3563,207.3563 986.7313,206.7469 L986.2469,205.2313 C985.1531,205.6531 984.1375,205.8406 983.2781,205.8406 C980.5594,205.8406 978.8406,203.9969 978.8406,201.0906 C978.8406,198.3406 980.4031,196.7469 983.1375,196.7469 C984.0594,196.7469 985.075,196.9344 986.2156,197.3563 L986.7938,195.8406 C985.7,195.2625 984.4031,194.9656 983.2156,194.9656 C979.45,194.9656 976.8719,197.6063 976.8719,201.4188 C976.8719,205.0906 979.3563,207.6219 982.95,207.6219 Z " fill="#000000"/><text fill="#000000" font-family="sans-serif" font-size="14" lengthAdjust="spacing" textLength="152.0394" x="996.95" y="206.562">BMM_INTERVAL_VALUE</text><line style="stroke:#181818;stroke-width:0.5;" x1="968.95" x2="1150.9894" y1="217.2" y2="217.2"/><line style="stroke:#181818;stroke-width:0.5;" x1="968.95" x2="1150.9894" y1="225.2" y2="225.2"/></g><!--reverse link BMM_PRIMITIVE_VALUE to BMM_INTEGER_VALUE--><g class="link" data-entity-1="BMM_PRIMITIVE_VALUE" data-entity-2="BMM_INTEGER_VALUE" data-source-line="37" data-uid="lnk11" id="link_BMM_PRIMITIVE_VALUE_BMM_INTEGER_VALUE"><path codeLine="37" d="M235.3526,367.502 C204.3926,385.702 181.18,399.33 150.2,417.54" fill="none" id="BMM_PRIMITIVE_VALUE-backto-BMM_INTEGER_VALUE" style="stroke:#181818;stroke-width:1;"/><polygon fill="none" points="250.87,358.38,232.3119,362.3295,238.3933,372.6744,250.87,358.38" style="stroke:#181818;stroke-width:1;"/></g><!--reverse link BMM_UNITARY_VALUE to BMM_PRIMITIVE_VALUE--><g class="link" data-entity-1="BMM_UNITARY_VALUE" data-entity-2="BMM_PRIMITIVE_VALUE" data-source-line="38" data-uid="lnk12" id="link_BMM_UNITARY_VALUE_BMM_PRIMITIVE_VALUE"><path codeLine="38" d="M304.97,251.63 C304.97,268.75 304.97,274.17 304.97,292.96" fill="none" id="BMM_UNITARY_VALUE-backto-BMM_PRIMITIVE_VALUE" style="stroke:#181818;stroke-width:1;"/><polygon fill="none" points="304.97,233.63,298.97,251.63,310.97,251.63,304.97,233.63" style="stroke:#181818;stroke-width:1;"/></g><!--reverse link BMM_PRIMITIVE_VALUE to BMM_STRING_VALUE--><g class="link" data-entity-1="BMM_PRIMITIVE_VALUE" data-entity-2="BMM_STRING_VALUE" data-source-line="39" data-uid="lnk13" id="link_BMM_PRIMITIVE_VALUE_BMM_STRING_VALUE"><path codeLine="39" d="M304.97,376.22 C304.97,394.56 304.97,399.57 304.97,417.88" fill="none" id="BMM_PRIMITIVE_VALUE-backto-BMM_STRING_VALUE" style="stroke:#181818;stroke-width:1;"/><polygon fill="none" points="304.97,358.22,298.97,376.22,310.97,376.22,304.97,358.22" style="stroke:#181818;stroke-width:1;"/></g><!--reverse link BMM_PRIMITIVE_VALUE to BMM_BOOLEAN_VALUE--><g class="link" data-entity-1="BMM_PRIMITIVE_VALUE" data-entity-2="BMM_BOOLEAN_VALUE" data-source-line="40" data-uid="lnk14" id="link_BMM_PRIMITIVE_VALUE_BMM_BOOLEAN_VALUE"><path codeLine="40" d="M375.4144,367.4043 C406.8244,385.6043 430.53,399.33 461.96,417.54" fill="none" id="BMM_PRIMITIVE_VALUE-backto-BMM_BOOLEAN_VALUE" style="stroke:#181818;stroke-width:1;"/><polygon fill="none" points="359.84,358.38,372.4063,372.5958,378.4225,362.2129,359.84,358.38" style="stroke:#181818;stroke-width:1;"/></g><!--reverse link BMM_LITERAL_VALUE to BMM_UNITARY_VALUE--><g class="link" data-entity-1="BMM_LITERAL_VALUE" data-entity-2="BMM_UNITARY_VALUE" data-source-line="41" data-uid="lnk15" id="link_BMM_LITERAL_VALUE_BMM_UNITARY_VALUE"><path codeLine="41" d="M558.3551,110.4855 C492.6851,135.8055 422.94,162.71 365.7,184.78" fill="none" id="BMM_LITERAL_VALUE-backto-BMM_UNITARY_VALUE" style="stroke:#181818;stroke-width:1;"/><polygon fill="none" points="575.15,104.01,556.1966,104.8872,560.5136,116.0838,575.15,104.01" style="stroke:#181818;stroke-width:1;"/></g><!--reverse link BMM_LITERAL_VALUE to BMM_CONTAINER_VALUE--><g class="link" data-entity-1="BMM_LITERAL_VALUE" data-entity-2="BMM_CONTAINER_VALUE" data-source-line="42" data-uid="lnk16" id="link_BMM_LITERAL_VALUE_BMM_CONTAINER_VALUE"><path codeLine="42" d="M600.4554,138.4137 C580.6054,159.2537 571.64,168.65 556.15,184.91" fill="none" id="BMM_LITERAL_VALUE-backto-BMM_CONTAINER_VALUE" style="stroke:#181818;stroke-width:1;"/><polygon fill="none" points="612.87,125.38,596.1108,134.2755,604.8,142.5519,612.87,125.38" style="stroke:#181818;stroke-width:1;"/></g><!--reverse link BMM_LITERAL_VALUE to BMM_INDEXED_CONTAINER_VALUE--><g class="link" data-entity-1="BMM_LITERAL_VALUE" data-entity-2="BMM_INDEXED_CONTAINER_VALUE" data-source-line="43" data-uid="lnk17" id="link_BMM_LITERAL_VALUE_BMM_INDEXED_CONTAINER_VALUE"><path codeLine="43" d="M733.9335,138.367 C753.9335,159.207 763.01,168.65 778.61,184.91" fill="none" id="BMM_LITERAL_VALUE-backto-BMM_INDEXED_CONTAINER_VALUE" style="stroke:#181818;stroke-width:1;"/><polygon fill="none" points="721.47,125.38,729.6045,142.5215,738.2625,134.2125,721.47,125.38" style="stroke:#181818;stroke-width:1;"/></g><!--reverse link BMM_LITERAL_VALUE to BMM_INTERVAL_VALUE--><g class="link" data-entity-1="BMM_LITERAL_VALUE" data-entity-2="BMM_INTERVAL_VALUE" data-source-line="44" data-uid="lnk18" id="link_BMM_LITERAL_VALUE_BMM_INTERVAL_VALUE"><path codeLine="44" d="M775.5718,107.1747 C847.7018,132.7947 929.52,161.86 994.02,184.78" fill="none" id="BMM_LITERAL_VALUE-backto-BMM_INTERVAL_VALUE" style="stroke:#181818;stroke-width:1;"/><polygon fill="none" points="758.61,101.15,773.5636,112.8286,777.58,101.5208,758.61,101.15" style="stroke:#181818;stroke-width:1;"/></g></g></svg>
