<svg xmlns="http://www.w3.org/2000/svg" xmlns:xlink="http://www.w3.org/1999/xlink" contentStyleType="text/css" data-diagram-type="CLASS" height="119px" preserveAspectRatio="none" style="width:478px;height:119px;background:#FFFFFF;" version="1.1" viewBox="0 0 478 119" width="478px" zoomAndPan="magnify"><defs/><g><!--class AOM_TYPE_MAPPING--><g class="entity" data-entity="AOM_TYPE_MAPPING" data-source-line="2" data-uid="ent0002" id="entity_AOM_TYPE_MAPPING"><rect fill="#F1F1F1" height="98.3998" rx="2.5" ry="2.5" style="stroke:#181818;stroke-width:0.5;" width="457.0582" x="7" y="7"/><ellipse cx="161.5454" cy="23" fill="#ADD1B2" rx="11" ry="11" style="stroke:#181818;stroke-width:1;"/><path d="M161.5454,29.4219 C162.7172,29.4219 163.9516,29.1563 165.3266,28.5469 L164.8422,27.0313 C163.7485,27.4531 162.7329,27.6406 161.8735,27.6406 C159.1547,27.6406 157.436,25.7969 157.436,22.8906 C157.436,20.1406 158.9985,18.5469 161.7329,18.5469 C162.6547,18.5469 163.6704,18.7344 164.811,19.1563 L165.3891,17.6406 C164.2954,17.0625 162.9985,16.7656 161.811,16.7656 C158.0454,16.7656 155.4672,19.4063 155.4672,23.2188 C155.4672,26.8906 157.9516,29.4219 161.5454,29.4219 Z " fill="#000000"/><text fill="#000000" font-family="sans-serif" font-size="14" lengthAdjust="spacing" textLength="139.4674" x="182.0454" y="28.362">AOM_TYPE_MAPPING</text><line style="stroke:#181818;stroke-width:0.5;" x1="8" x2="463.0582" y1="39" y2="39"/><ellipse cx="18" cy="52.9" fill="none" rx="3" ry="3" style="stroke:#038048;stroke-width:1;"/><text fill="#000000" font-family="sans-serif" font-size="14" lengthAdjust="spacing" textLength="186.9273" x="27" y="56.7619">source_class_name : String [1]</text><ellipse cx="18" cy="69.6999" fill="none" rx="3" ry="3" style="stroke:#038048;stroke-width:1;"/><text fill="#000000" font-family="sans-serif" font-size="14" lengthAdjust="spacing" textLength="183.3993" x="27" y="73.5619">target_class_name : String [1]</text><ellipse cx="18" cy="86.4998" fill="none" rx="3" ry="3" style="stroke:#038048;stroke-width:1;"/><text fill="#000000" font-family="sans-serif" font-size="14" lengthAdjust="spacing" textLength="431.0582" x="27" y="90.3618">property_mappings : Hash&lt;String,AOM_PROPERTY_MAPPING&gt; [0..1]</text><line style="stroke:#181818;stroke-width:0.5;" x1="8" x2="463.0582" y1="97.3998" y2="97.3998"/></g></g></svg>
