<svg xmlns="http://www.w3.org/2000/svg" xmlns:xlink="http://www.w3.org/1999/xlink" contentStyleType="text/css" data-diagram-type="CLASS" height="304px" preserveAspectRatio="none" style="width:280px;height:304px;background:#FFFFFF;" version="1.1" viewBox="0 0 280 304" width="280px" zoomAndPan="magnify"><defs/><g><!--class ARCHETYPE_HRID--><g class="entity" data-entity="ARCHETYPE_HRID" data-source-line="2" data-uid="ent0002" id="entity_ARCHETYPE_HRID"><rect fill="#F1F1F1" height="283.199" rx="2.5" ry="2.5" style="stroke:#181818;stroke-width:0.5;" width="259.2391" x="7" y="7"/><ellipse cx="74.0248" cy="23" fill="#ADD1B2" rx="11" ry="11" style="stroke:#181818;stroke-width:1;"/><path d="M74.0248,29.4219 C75.1966,29.4219 76.431,29.1563 77.806,28.5469 L77.3216,27.0313 C76.2279,27.4531 75.2123,27.6406 74.3529,27.6406 C71.6341,27.6406 69.9154,25.7969 69.9154,22.8906 C69.9154,20.1406 71.4779,18.5469 74.2123,18.5469 C75.1341,18.5469 76.1498,18.7344 77.2904,19.1563 L77.8685,17.6406 C76.7748,17.0625 75.4779,16.7656 74.2904,16.7656 C70.5248,16.7656 67.9466,19.4063 67.9466,23.2188 C67.9466,26.8906 70.431,29.4219 74.0248,29.4219 Z " fill="#000000"/><text fill="#000000" font-family="sans-serif" font-size="14" lengthAdjust="spacing" textLength="116.6895" x="94.5248" y="28.362">ARCHETYPE_HRID</text><line style="stroke:#181818;stroke-width:0.5;" x1="8" x2="265.2391" y1="39" y2="39"/><ellipse cx="18" cy="52.9" fill="none" rx="3" ry="3" style="stroke:#038048;stroke-width:1;"/><text fill="#000000" font-family="sans-serif" font-size="14" lengthAdjust="spacing" textLength="152.2354" x="27" y="56.7619">namespace : String [0..1]</text><ellipse cx="18" cy="69.6999" fill="none" rx="3" ry="3" style="stroke:#038048;stroke-width:1;"/><text fill="#000000" font-family="sans-serif" font-size="14" lengthAdjust="spacing" textLength="148.8894" x="27" y="73.5619">rm_publisher : String [1]</text><ellipse cx="18" cy="86.4998" fill="none" rx="3" ry="3" style="stroke:#038048;stroke-width:1;"/><text fill="#000000" font-family="sans-serif" font-size="14" lengthAdjust="spacing" textLength="141.8754" x="27" y="90.3618">rm_package : String [1]</text><ellipse cx="18" cy="103.2997" fill="none" rx="3" ry="3" style="stroke:#038048;stroke-width:1;"/><text fill="#000000" font-family="sans-serif" font-size="14" lengthAdjust="spacing" textLength="121.2535" x="27" y="107.1617">rm_class : String [1]</text><ellipse cx="18" cy="120.0997" fill="none" rx="3" ry="3" style="stroke:#038048;stroke-width:1;"/><text fill="#000000" font-family="sans-serif" font-size="14" lengthAdjust="spacing" textLength="133.7975" x="27" y="123.9616">concept_id : String [1]</text><ellipse cx="18" cy="136.8996" fill="none" rx="3" ry="3" style="stroke:#038048;stroke-width:1;"/><text fill="#000000" font-family="sans-serif" font-size="14" lengthAdjust="spacing" textLength="163.1974" x="27" y="140.7616">release_version : String [1]</text><ellipse cx="18" cy="153.6995" fill="none" rx="3" ry="3" style="stroke:#038048;stroke-width:1;"/><text fill="#000000" font-family="sans-serif" font-size="14" lengthAdjust="spacing" textLength="233.2391" x="27" y="157.5615">version_status : VERSION_STATUS [1]</text><ellipse cx="18" cy="170.4995" fill="none" rx="3" ry="3" style="stroke:#038048;stroke-width:1;"/><text fill="#000000" font-family="sans-serif" font-size="14" lengthAdjust="spacing" textLength="139.3695" x="27" y="174.3614">build_count : String [1]</text><line style="stroke:#181818;stroke-width:0.5;" x1="8" x2="265.2391" y1="181.3994" y2="181.3994"/><ellipse cx="18" cy="195.2994" fill="#84BE84" rx="3" ry="3" style="stroke:#038048;stroke-width:1;"/><text fill="#000000" font-family="sans-serif" font-size="14" lengthAdjust="spacing" textLength="149.2674" x="27" y="199.1614">semantic_id() : String [1]</text><ellipse cx="18" cy="212.0993" fill="#84BE84" rx="3" ry="3" style="stroke:#038048;stroke-width:1;"/><text fill="#000000" font-family="sans-serif" font-size="14" lengthAdjust="spacing" textLength="143.0235" x="27" y="215.9613">physical_id() : String [1]</text><ellipse cx="18" cy="228.8992" fill="#84BE84" rx="3" ry="3" style="stroke:#038048;stroke-width:1;"/><text fill="#000000" font-family="sans-serif" font-size="14" lengthAdjust="spacing" textLength="138.0395" x="27" y="232.7612">version_id() : String [1]</text><ellipse cx="18" cy="245.6992" fill="#84BE84" rx="3" ry="3" style="stroke:#038048;stroke-width:1;"/><text fill="#000000" font-family="sans-serif" font-size="14" lengthAdjust="spacing" textLength="162.8474" x="27" y="249.5611">major_version() : String [1]</text><ellipse cx="18" cy="262.4991" fill="#84BE84" rx="3" ry="3" style="stroke:#038048;stroke-width:1;"/><text fill="#000000" font-family="sans-serif" font-size="14" lengthAdjust="spacing" textLength="163.6174" x="27" y="266.3611">minor_version() : String [1]</text><ellipse cx="18" cy="279.299" fill="#84BE84" rx="3" ry="3" style="stroke:#038048;stroke-width:1;"/><text fill="#000000" font-family="sans-serif" font-size="14" lengthAdjust="spacing" textLength="161.3074" x="27" y="283.161">patch_version() : String [1]</text></g></g></svg>
