<svg xmlns="http://www.w3.org/2000/svg" xmlns:xlink="http://www.w3.org/1999/xlink" contentStyleType="text/css" data-diagram-type="CLASS" height="577px" preserveAspectRatio="none" style="width:276px;height:577px;background:#FFFFFF;" version="1.1" viewBox="0 0 276 577" width="276px" zoomAndPan="magnify"><defs/><g><!--class EXPR_ARCHETYPE_ID_CONSTRAINT--><g class="entity" data-entity="EXPR_ARCHETYPE_ID_CONSTRAINT" data-source-line="2" data-uid="ent0002" id="entity_EXPR_ARCHETYPE_ID_CONSTRAINT"><rect fill="#F1F1F1" height="64.7999" rx="2.5" ry="2.5" style="stroke:#181818;stroke-width:0.5;" width="262.817" x="7" y="506.2"/><ellipse cx="22" cy="522.2" fill="#ADD1B2" rx="11" ry="11" style="stroke:#181818;stroke-width:1;"/><path d="M22,528.6219 C23.1719,528.6219 24.4063,528.3563 25.7813,527.7469 L25.2969,526.2313 C24.2031,526.6531 23.1875,526.8406 22.3281,526.8406 C19.6094,526.8406 17.8906,524.9969 17.8906,522.0906 C17.8906,519.3406 19.4531,517.7469 22.1875,517.7469 C23.1094,517.7469 24.125,517.9344 25.2656,518.3563 L25.8438,516.8406 C24.75,516.2625 23.4531,515.9656 22.2656,515.9656 C18.5,515.9656 15.9219,518.6063 15.9219,522.4188 C15.9219,526.0906 18.4063,528.6219 22,528.6219 Z " fill="#000000"/><text fill="#000000" font-family="sans-serif" font-size="14" lengthAdjust="spacing" textLength="230.817" x="36" y="527.562">EXPR_ARCHETYPE_ID_CONSTRAINT</text><line style="stroke:#181818;stroke-width:0.5;" x1="8" x2="268.817" y1="538.2" y2="538.2"/><ellipse cx="18" cy="552.1" fill="none" rx="3" ry="3" style="stroke:#038048;stroke-width:1;"/><text fill="#000000" font-family="sans-serif" font-size="14" lengthAdjust="spacing" textLength="121.4635" x="27" y="555.9619">item : C_STRING [1]</text><line style="stroke:#181818;stroke-width:0.5;" x1="8" x2="268.817" y1="562.9999" y2="562.9999"/></g><!--class EXPR_CONSTRAINT--><g class="entity" data-entity="EXPR_CONSTRAINT" data-source-line="6" data-uid="ent0003" id="entity_EXPR_CONSTRAINT"><rect fill="#F5F5F5" height="64.7999" rx="2.5" ry="2.5" style="stroke:#808080;stroke-width:1;stroke-dasharray:1,3;" width="220.7532" x="28.03" y="381.4"/><ellipse cx="71.3133" cy="397.4" fill="#ADD1B2" rx="11" ry="11" style="stroke:#181818;stroke-width:1;"/><path d="M71.3133,403.8219 C72.4852,403.8219 73.7195,403.5563 75.0945,402.9469 L74.6102,401.4313 C73.5164,401.8531 72.5008,402.0406 71.6414,402.0406 C68.9227,402.0406 67.2039,400.1969 67.2039,397.2906 C67.2039,394.5406 68.7664,392.9469 71.5008,392.9469 C72.4227,392.9469 73.4383,393.1344 74.5789,393.5563 L75.157,392.0406 C74.0633,391.4625 72.7664,391.1656 71.5789,391.1656 C67.8133,391.1656 65.2352,393.8063 65.2352,397.6188 C65.2352,401.2906 67.7195,403.8219 71.3133,403.8219 Z " fill="#000000"/><text fill="#808080" font-family="sans-serif" font-size="14" lengthAdjust="spacing" textLength="125.9015" x="91.5985" y="402.762">EXPR_CONSTRAINT</text><line style="stroke:#808080;stroke-width:1;stroke-dasharray:1,3;" x1="29.03" x2="247.7832" y1="413.4" y2="413.4"/><ellipse cx="39.03" cy="427.3" fill="none" rx="3" ry="3" style="stroke:#038048;stroke-width:1;"/><text fill="#808080" font-family="sans-serif" font-size="14" lengthAdjust="spacing" textLength="194.7532" x="48.03" y="431.1619">item : C_PRIMITIVE_OBJECT [1]</text><line style="stroke:#808080;stroke-width:1;stroke-dasharray:1,3;" x1="29.03" x2="247.7832" y1="438.1999" y2="438.1999"/></g><!--class EXPR_LEAF--><g class="entity" data-entity="EXPR_LEAF" data-source-line="10" data-uid="ent0004" id="entity_EXPR_LEAF"><rect fill="#F5F5F5" height="64.7999" rx="2.5" ry="2.5" style="stroke:#808080;stroke-width:1;stroke-dasharray:1,3;" width="122.0256" x="77.4" y="256.6"/><ellipse cx="100.347" cy="272.6" fill="#A9DCDF" rx="11" ry="11" style="stroke:#181818;stroke-width:1;"/><path d="M94.8626,278.1 L96.8938,278.1 L100.9407,266.7563 L100.0345,266.7563 L103.8626,278.1 L106.0032,278.1 L101.6751,265.7719 L99.4563,265.7719 L94.8626,278.1 Z M97.1907,274.6 L103.6282,274.6 L103.6282,272.85 L97.1907,272.85 L97.1907,274.6 Z " fill="#000000"/><text fill="#808080" font-family="sans-serif" font-size="14" font-style="italic" lengthAdjust="spacing" textLength="72.3657" x="116.113" y="277.962">EXPR_LEAF</text><line style="stroke:#808080;stroke-width:1;stroke-dasharray:1,3;" x1="78.4" x2="198.4256" y1="288.6" y2="288.6"/><ellipse cx="88.4" cy="302.5" fill="none" rx="3" ry="3" style="stroke:#038048;stroke-width:1;"/><text fill="#808080" font-family="sans-serif" font-size="14" lengthAdjust="spacing" textLength="96.0256" x="97.4" y="306.3619">item : Any [0..1]</text><line style="stroke:#808080;stroke-width:1;stroke-dasharray:1,3;" x1="78.4" x2="198.4256" y1="313.3999" y2="313.3999"/></g><!--class EXPRESSION--><g class="entity" data-entity="EXPRESSION" data-source-line="14" data-uid="ent0005" id="entity_EXPRESSION"><rect fill="#F5F5F5" height="64.7999" rx="2.5" ry="2.5" style="stroke:#808080;stroke-width:1;stroke-dasharray:1,3;" width="196.0853" x="40.37" y="131.8"/><ellipse cx="93.1638" cy="147.8" fill="#A9DCDF" rx="11" ry="11" style="stroke:#181818;stroke-width:1;"/><path d="M87.6794,153.3 L89.7107,153.3 L93.7576,141.9563 L92.8513,141.9563 L96.6794,153.3 L98.8201,153.3 L94.4919,140.9719 L92.2732,140.9719 L87.6794,153.3 Z M90.0076,149.8 L96.4451,149.8 L96.4451,148.05 L90.0076,148.05 L90.0076,149.8 Z " fill="#000000"/><text fill="#808080" font-family="sans-serif" font-size="14" font-style="italic" lengthAdjust="spacing" textLength="81.9977" x="113.6638" y="153.162">EXPRESSION</text><line style="stroke:#808080;stroke-width:1;stroke-dasharray:1,3;" x1="41.37" x2="235.4553" y1="163.8" y2="163.8"/><line style="stroke:#808080;stroke-width:1;stroke-dasharray:1,3;" x1="41.37" x2="235.4553" y1="171.8" y2="171.8"/><ellipse cx="51.37" cy="185.7" fill="#84BE84" rx="3" ry="3" style="stroke:#038048;stroke-width:1;"/><text fill="#808080" font-family="sans-serif" font-size="14" font-style="italic" lengthAdjust="spacing" textLength="170.0853" x="60.37" y="189.5619">type() : EXPR_TYPE_DEF [1]</text></g><!--class EXPR_VALUE--><g class="entity" data-entity="EXPR_VALUE" data-source-line="18" data-uid="ent0006" id="entity_EXPR_VALUE"><rect fill="#F5F5F5" height="64.7999" rx="2.5" ry="2.5" style="stroke:#808080;stroke-width:1;stroke-dasharray:1,3;" width="119.3796" x="78.72" y="7"/><ellipse cx="95.997" cy="23" fill="#A9DCDF" rx="11" ry="11" style="stroke:#181818;stroke-width:1;"/><path d="M90.5126,28.5 L92.5439,28.5 L96.5907,17.1563 L95.6845,17.1563 L99.5126,28.5 L101.6532,28.5 L97.3251,16.1719 L95.1064,16.1719 L90.5126,28.5 Z M92.8407,25 L99.2782,25 L99.2782,23.25 L92.8407,23.25 L92.8407,25 Z " fill="#000000"/><text fill="#808080" font-family="sans-serif" font-size="14" font-style="italic" lengthAdjust="spacing" textLength="82.3197" x="110.503" y="28.362">EXPR_VALUE</text><line style="stroke:#808080;stroke-width:1;stroke-dasharray:1,3;" x1="79.72" x2="197.0996" y1="39" y2="39"/><line style="stroke:#808080;stroke-width:1;stroke-dasharray:1,3;" x1="79.72" x2="197.0996" y1="47" y2="47"/><ellipse cx="89.72" cy="60.9" fill="#84BE84" rx="3" ry="3" style="stroke:#038048;stroke-width:1;"/><text fill="#808080" font-family="sans-serif" font-size="14" font-style="italic" lengthAdjust="spacing" textLength="93.3796" x="98.72" y="64.7619">value() : Any [1]</text></g><!--reverse link EXPR_VALUE to EXPRESSION--><g class="link" data-entity-1="EXPR_VALUE" data-entity-2="EXPRESSION" data-source-line="22" data-uid="lnk7" id="link_EXPR_VALUE_EXPRESSION"><path codeLine="22" d="M138.41,90.02 C138.41,108.36 138.41,113.37 138.41,131.68" fill="none" id="EXPR_VALUE-backto-EXPRESSION" style="stroke:#181818;stroke-width:1;"/><polygon fill="none" points="138.41,72.02,132.41,90.02,144.41,90.02,138.41,72.02" style="stroke:#181818;stroke-width:1;"/></g><!--reverse link EXPRESSION to EXPR_LEAF--><g class="link" data-entity-1="EXPRESSION" data-entity-2="EXPR_LEAF" data-source-line="24" data-uid="lnk8" id="link_EXPRESSION_EXPR_LEAF"><path codeLine="24" d="M138.41,214.82 C138.41,233.16 138.41,238.17 138.41,256.48" fill="none" id="EXPRESSION-backto-EXPR_LEAF" style="stroke:#181818;stroke-width:1;"/><polygon fill="none" points="138.41,196.82,132.41,214.82,144.41,214.82,138.41,196.82" style="stroke:#181818;stroke-width:1;"/></g><!--reverse link EXPR_LEAF to EXPR_CONSTRAINT--><g class="link" data-entity-1="EXPR_LEAF" data-entity-2="EXPR_CONSTRAINT" data-source-line="26" data-uid="lnk9" id="link_EXPR_LEAF_EXPR_CONSTRAINT"><path codeLine="26" d="M138.41,339.62 C138.41,357.96 138.41,362.97 138.41,381.28" fill="none" id="EXPR_LEAF-backto-EXPR_CONSTRAINT" style="stroke:#181818;stroke-width:1;"/><polygon fill="none" points="138.41,321.62,132.41,339.62,144.41,339.62,138.41,321.62" style="stroke:#181818;stroke-width:1;"/></g><!--reverse link EXPR_CONSTRAINT to EXPR_ARCHETYPE_ID_CONSTRAINT--><g class="link" data-entity-1="EXPR_CONSTRAINT" data-entity-2="EXPR_ARCHETYPE_ID_CONSTRAINT" data-source-line="28" data-uid="lnk10" id="link_EXPR_CONSTRAINT_EXPR_ARCHETYPE_ID_CONSTRAINT"><path codeLine="28" d="M138.41,464.42 C138.41,482.76 138.41,487.77 138.41,506.08" fill="none" id="EXPR_CONSTRAINT-backto-EXPR_ARCHETYPE_ID_CONSTRAINT" style="stroke:#181818;stroke-width:1;"/><polygon fill="none" points="138.41,446.42,132.41,464.42,144.41,464.42,138.41,446.42" style="stroke:#181818;stroke-width:1;"/></g></g></svg>
