<svg xmlns="http://www.w3.org/2000/svg" xmlns:xlink="http://www.w3.org/1999/xlink" contentStyleType="text/css" data-diagram-type="CLASS" height="203px" preserveAspectRatio="none" style="width:217px;height:203px;background:#FFFFFF;" version="1.1" viewBox="0 0 217 203" width="217px" zoomAndPan="magnify"><defs/><g><!--class VALUE_SET--><g class="entity" data-entity="VALUE_SET" data-source-line="2" data-uid="ent0002" id="entity_VALUE_SET"><rect fill="#F1F1F1" height="48" rx="2.5" ry="2.5" style="stroke:#181818;stroke-width:0.5;" width="104.7017" x="56.34" y="148.6"/><ellipse cx="71.34" cy="164.6" fill="#ADD1B2" rx="11" ry="11" style="stroke:#181818;stroke-width:1;"/><path d="M71.34,171.0219 C72.5119,171.0219 73.7463,170.7563 75.1213,170.1469 L74.6369,168.6313 C73.5431,169.0531 72.5275,169.2406 71.6681,169.2406 C68.9494,169.2406 67.2306,167.3969 67.2306,164.4906 C67.2306,161.7406 68.7931,160.1469 71.5275,160.1469 C72.4494,160.1469 73.465,160.3344 74.6056,160.7563 L75.1838,159.2406 C74.09,158.6625 72.7931,158.3656 71.6056,158.3656 C67.84,158.3656 65.2619,161.0063 65.2619,164.8188 C65.2619,168.4906 67.7463,171.0219 71.34,171.0219 Z " fill="#000000"/><text fill="#000000" font-family="sans-serif" font-size="14" lengthAdjust="spacing" textLength="72.7017" x="85.34" y="169.962">VALUE_SET</text><line style="stroke:#181818;stroke-width:0.5;" x1="57.34" x2="160.0417" y1="180.6" y2="180.6"/><line style="stroke:#181818;stroke-width:0.5;" x1="57.34" x2="160.0417" y1="188.6" y2="188.6"/></g><!--class TERMINOLOGY_RELATION--><g class="entity" data-entity="TERMINOLOGY_RELATION" data-source-line="5" data-uid="ent0003" id="entity_TERMINOLOGY_RELATION"><rect fill="#F5F5F5" height="81.5999" rx="2.5" ry="2.5" style="stroke:#808080;stroke-width:1;stroke-dasharray:1,3;" width="203.3793" x="7" y="7"/><ellipse cx="22.6012" cy="23" fill="#A9DCDF" rx="11" ry="11" style="stroke:#181818;stroke-width:1;"/><path d="M17.1168,28.5 L19.1481,28.5 L23.1949,17.1563 L22.2887,17.1563 L26.1168,28.5 L28.2574,28.5 L23.9293,16.1719 L21.7106,16.1719 L17.1168,28.5 Z M19.4449,25 L25.8824,25 L25.8824,23.25 L19.4449,23.25 L19.4449,25 Z " fill="#000000"/><text fill="#808080" font-family="sans-serif" font-size="14" font-style="italic" lengthAdjust="spacing" textLength="170.0433" x="36.7348" y="28.362">TERMINOLOGY_RELATION</text><line style="stroke:#808080;stroke-width:1;stroke-dasharray:1,3;" x1="8" x2="209.3793" y1="39" y2="39"/><ellipse cx="18" cy="52.9" fill="none" rx="3" ry="3" style="stroke:#038048;stroke-width:1;"/><text fill="#808080" font-family="sans-serif" font-size="14" lengthAdjust="spacing" textLength="77.4057" x="27" y="56.7619">id : String [1]</text><ellipse cx="18" cy="69.6999" fill="none" rx="3" ry="3" style="stroke:#038048;stroke-width:1;"/><text fill="#808080" font-family="sans-serif" font-size="14" lengthAdjust="spacing" textLength="177.3793" x="27" y="73.5619">members : List&lt;String&gt; [1..*]</text><line style="stroke:#808080;stroke-width:1;stroke-dasharray:1,3;" x1="8" x2="209.3793" y1="80.5999" y2="80.5999"/></g><!--reverse link TERMINOLOGY_RELATION to VALUE_SET--><g class="link" data-entity-1="TERMINOLOGY_RELATION" data-entity-2="VALUE_SET" data-source-line="10" data-uid="lnk4" id="link_TERMINOLOGY_RELATION_VALUE_SET"><path codeLine="10" d="M108.69,107.01 C108.69,126.59 108.69,131.46 108.69,148.16" fill="none" id="TERMINOLOGY_RELATION-backto-VALUE_SET" style="stroke:#181818;stroke-width:1;"/><polygon fill="none" points="108.69,89.01,102.69,107.01,114.69,107.01,108.69,89.01" style="stroke:#181818;stroke-width:1;"/></g></g></svg>
