<svg xmlns="http://www.w3.org/2000/svg" xmlns:xlink="http://www.w3.org/1999/xlink" contentStyleType="text/css" data-diagram-type="CLASS" height="513px" preserveAspectRatio="none" style="width:1157px;height:513px;background:#FFFFFF;" version="1.1" viewBox="0 0 1157 513" width="1157px" zoomAndPan="magnify"><defs/><g><!--class P_OPERATIONAL_TEMPLATE--><g class="entity" data-entity="P_OPERATIONAL_TEMPLATE" data-source-line="2" data-uid="ent0002" id="entity_P_OPERATIONAL_TEMPLATE"><rect fill="#F1F1F1" height="81.5999" rx="2.5" ry="2.5" style="stroke:#181818;stroke-width:0.5;" width="521.01" x="302.27" y="424.6"/><ellipse cx="466.6434" cy="440.6" fill="#ADD1B2" rx="11" ry="11" style="stroke:#181818;stroke-width:1;"/><path d="M466.6434,447.0219 C467.8153,447.0219 469.0496,446.7562 470.4246,446.1469 L469.9403,444.6312 C468.8465,445.0531 467.8309,445.2406 466.9715,445.2406 C464.2528,445.2406 462.534,443.3969 462.534,440.4906 C462.534,437.7406 464.0965,436.1469 466.8309,436.1469 C467.7528,436.1469 468.7684,436.3344 469.909,436.7562 L470.4871,435.2406 C469.3934,434.6625 468.0965,434.3656 466.909,434.3656 C463.1434,434.3656 460.5653,437.0062 460.5653,440.8187 C460.5653,444.4906 463.0496,447.0219 466.6434,447.0219 Z " fill="#000000"/><text fill="#000000" font-family="sans-serif" font-size="14" lengthAdjust="spacing" textLength="183.7632" x="487.1434" y="445.962">P_OPERATIONAL_TEMPLATE</text><line style="stroke:#181818;stroke-width:0.5;" x1="303.27" x2="822.28" y1="456.6" y2="456.6"/><ellipse cx="313.27" cy="470.5" fill="none" rx="3" ry="3" style="stroke:#038048;stroke-width:1;"/><text fill="#000000" font-family="sans-serif" font-size="14" lengthAdjust="spacing" textLength="495.01" x="322.27" y="474.3619">component_terminologies : Hash&lt;String,P_ARCHETYPE_TERMINOLOGY&gt; [0..1]</text><ellipse cx="313.27" cy="487.2999" fill="none" rx="3" ry="3" style="stroke:#038048;stroke-width:1;"/><text fill="#000000" font-family="sans-serif" font-size="14" lengthAdjust="spacing" textLength="475.7742" x="322.27" y="491.1619">terminology_extracts : Hash&lt;String,Hash&lt;String,ARCHETYPE_TERM&gt;&gt; [0..1]</text><line style="stroke:#181818;stroke-width:0.5;" x1="303.27" x2="822.28" y1="498.1999" y2="498.1999"/></g><!--class P_AUTHORED_ARCHETYPE--><g class="entity" data-entity="P_AUTHORED_ARCHETYPE" data-source-line="7" data-uid="ent0003" id="entity_P_AUTHORED_ARCHETYPE"><rect fill="#F5F5F5" height="131.9996" rx="2.5" ry="2.5" style="stroke:#808080;stroke-width:1;stroke-dasharray:1,3;" width="287.925" x="418.81" y="232.6"/><ellipse cx="471.9679" cy="248.6" fill="#ADD1B2" rx="11" ry="11" style="stroke:#181818;stroke-width:1;"/><path d="M471.9679,255.0219 C473.1397,255.0219 474.3741,254.7562 475.7491,254.1469 L475.2647,252.6312 C474.171,253.0531 473.1554,253.2406 472.296,253.2406 C469.5772,253.2406 467.8585,251.3969 467.8585,248.4906 C467.8585,245.7406 469.421,244.1469 472.1554,244.1469 C473.0772,244.1469 474.0929,244.3344 475.2335,244.7562 L475.8116,243.2406 C474.7179,242.6625 473.421,242.3656 472.2335,242.3656 C468.4679,242.3656 465.8897,245.0062 465.8897,248.8187 C465.8897,252.4906 468.3741,255.0219 471.9679,255.0219 Z " fill="#000000"/><text fill="#808080" font-family="sans-serif" font-size="14" lengthAdjust="spacing" textLength="173.1093" x="492.4679" y="253.962">P_AUTHORED_ARCHETYPE</text><line style="stroke:#808080;stroke-width:1;stroke-dasharray:1,3;" x1="419.81" x2="705.735" y1="264.6" y2="264.6"/><ellipse cx="429.81" cy="278.5" fill="none" rx="3" ry="3" style="stroke:#038048;stroke-width:1;"/><text fill="#808080" font-family="sans-serif" font-size="14" lengthAdjust="spacing" textLength="152.9914" x="438.81" y="282.3619">adl_version : String [0..1]</text><ellipse cx="429.81" cy="295.2999" fill="none" rx="3" ry="3" style="stroke:#038048;stroke-width:1;"/><text fill="#808080" font-family="sans-serif" font-size="14" lengthAdjust="spacing" textLength="108.9756" x="438.81" y="299.1619">build_uid : UID [1]</text><ellipse cx="429.81" cy="312.0998" fill="none" rx="3" ry="3" style="stroke:#038048;stroke-width:1;"/><text fill="#808080" font-family="sans-serif" font-size="14" lengthAdjust="spacing" textLength="135.6735" x="438.81" y="315.9618">rm_release : String [1]</text><ellipse cx="429.81" cy="328.8997" fill="none" rx="3" ry="3" style="stroke:#038048;stroke-width:1;"/><text fill="#808080" font-family="sans-serif" font-size="14" lengthAdjust="spacing" textLength="160.1454" x="438.81" y="332.7617">is_generated : Boolean [1]</text><ellipse cx="429.81" cy="345.6997" fill="none" rx="3" ry="3" style="stroke:#038048;stroke-width:1;"/><text fill="#808080" font-family="sans-serif" font-size="14" lengthAdjust="spacing" textLength="261.925" x="438.81" y="349.5616">other_meta_data : Hash&lt;String,String&gt; [1]</text><line style="stroke:#808080;stroke-width:1;stroke-dasharray:1,3;" x1="419.81" x2="705.735" y1="356.5996" y2="356.5996"/></g><!--class P_ARCHETYPE--><g class="entity" data-entity="P_ARCHETYPE" data-source-line="15" data-uid="ent0004" id="entity_P_ARCHETYPE"><rect fill="#F5F5F5" height="148.7996" rx="2.5" ry="2.5" style="stroke:#808080;stroke-width:1;stroke-dasharray:1,3;" width="327.5447" x="7" y="15.4"/><ellipse cx="120.2806" cy="31.4" fill="#A9DCDF" rx="11" ry="11" style="stroke:#181818;stroke-width:1;"/><path d="M114.7962,36.9 L116.8274,36.9 L120.8743,25.5562 L119.9681,25.5562 L123.7962,36.9 L125.9368,36.9 L121.6087,24.5719 L119.3899,24.5719 L114.7962,36.9 Z M117.1243,33.4 L123.5618,33.4 L123.5618,31.65 L117.1243,31.65 L117.1243,33.4 Z " fill="#000000"/><text fill="#808080" font-family="sans-serif" font-size="14" font-style="italic" lengthAdjust="spacing" textLength="92.4836" x="140.7806" y="36.762">P_ARCHETYPE</text><line style="stroke:#808080;stroke-width:1;stroke-dasharray:1,3;" x1="8" x2="333.5447" y1="47.4" y2="47.4"/><ellipse cx="18" cy="61.3" fill="none" rx="3" ry="3" style="stroke:#038048;stroke-width:1;"/><text fill="#808080" font-family="sans-serif" font-size="14" lengthAdjust="spacing" textLength="209.4672" x="27" y="65.1619">parent_archetype_id : String [0..1]</text><ellipse cx="18" cy="78.0999" fill="none" rx="3" ry="3" style="stroke:#038048;stroke-width:1;"/><text fill="#808080" font-family="sans-serif" font-size="14" lengthAdjust="spacing" textLength="240.393" x="27" y="81.9619">archetype_id : P_ARCHETYPE_HRID [1]</text><ellipse cx="18" cy="94.8998" fill="none" rx="3" ry="3" style="stroke:#038048;stroke-width:1;"/><text fill="#808080" font-family="sans-serif" font-size="14" lengthAdjust="spacing" textLength="165.0733" x="27" y="98.7618">is_differential : Boolean [1]</text><ellipse cx="18" cy="111.6997" fill="none" rx="3" ry="3" style="stroke:#038048;stroke-width:1;"/><text fill="#808080" font-family="sans-serif" font-size="14" lengthAdjust="spacing" textLength="239.889" x="27" y="115.5617">definition : P_C_COMPLEX_OBJECT [1]</text><ellipse cx="18" cy="128.4997" fill="none" rx="3" ry="3" style="stroke:#038048;stroke-width:1;"/><text fill="#808080" font-family="sans-serif" font-size="14" lengthAdjust="spacing" textLength="301.5447" x="27" y="132.3616">terminology : P_ARCHETYPE_TERMINOLOGY [1]</text><ellipse cx="18" cy="145.2996" fill="none" rx="3" ry="3" style="stroke:#038048;stroke-width:1;"/><text fill="#808080" font-family="sans-serif" font-size="14" lengthAdjust="spacing" textLength="274.2589" x="27" y="149.1616">rules : List&lt;EL_BOOLEAN_EXPRESSION&gt; [*]</text><line style="stroke:#808080;stroke-width:1;stroke-dasharray:1,3;" x1="8" x2="333.5447" y1="156.1996" y2="156.1996"/></g><!--class AUTHORED_RESOURCE--><g class="entity" data-entity="AUTHORED_RESOURCE" data-source-line="26" data-uid="ent0006" id="entity_AUTHORED_RESOURCE"><rect fill="#F5F5F5" height="165.5995" rx="2.5" ry="2.5" style="stroke:#808080;stroke-width:1;stroke-dasharray:1,3;" width="385.7706" x="369.89" y="7"/><ellipse cx="482.9536" cy="23" fill="#A9DCDF" rx="11" ry="11" style="stroke:#181818;stroke-width:1;"/><path d="M477.4692,28.5 L479.5005,28.5 L483.5473,17.1563 L482.6411,17.1563 L486.4692,28.5 L488.6098,28.5 L484.2817,16.1719 L482.063,16.1719 L477.4692,28.5 Z M479.7973,25 L486.2348,25 L486.2348,23.25 L479.7973,23.25 L479.7973,25 Z " fill="#000000"/><text fill="#808080" font-family="sans-serif" font-size="14" font-style="italic" lengthAdjust="spacing" textLength="151.1434" x="503.4536" y="28.362">AUTHORED_RESOURCE</text><line style="stroke:#808080;stroke-width:1;stroke-dasharray:1,3;" x1="370.89" x2="754.6606" y1="39" y2="39"/><ellipse cx="380.89" cy="52.9" fill="none" rx="3" ry="3" style="stroke:#038048;stroke-width:1;"/><text fill="#808080" font-family="sans-serif" font-size="14" lengthAdjust="spacing" textLength="96.0256" x="389.89" y="56.7619">uid : UUID [0..1]</text><ellipse cx="380.89" cy="69.6999" fill="none" rx="3" ry="3" style="stroke:#038048;stroke-width:1;"/><text fill="#808080" font-family="sans-serif" font-size="14" lengthAdjust="spacing" textLength="255.653" x="389.89" y="73.5619">original_language : Terminology_code [1]</text><ellipse cx="380.89" cy="86.4998" fill="none" rx="3" ry="3" style="stroke:#038048;stroke-width:1;"/><text fill="#808080" font-family="sans-serif" font-size="14" lengthAdjust="spacing" textLength="279.7049" x="389.89" y="90.3618">description : RESOURCE_DESCRIPTION [0..1]</text><ellipse cx="380.89" cy="103.2997" fill="none" rx="3" ry="3" style="stroke:#038048;stroke-width:1;"/><text fill="#808080" font-family="sans-serif" font-size="14" lengthAdjust="spacing" textLength="176.1753" x="389.89" y="107.1617">is_controlled : Boolean [0..1]</text><ellipse cx="380.89" cy="120.0997" fill="none" rx="3" ry="3" style="stroke:#038048;stroke-width:1;"/><text fill="#808080" font-family="sans-serif" font-size="14" lengthAdjust="spacing" textLength="293.5368" x="389.89" y="123.9616">annotations : RESOURCE_ANNOTATIONS [0..1]</text><ellipse cx="380.89" cy="136.8996" fill="none" rx="3" ry="3" style="stroke:#038048;stroke-width:1;"/><text fill="#808080" font-family="sans-serif" font-size="14" lengthAdjust="spacing" textLength="359.7706" x="389.89" y="140.7616">translations : Hash&lt;String,TRANSLATION_DETAILS&gt; [0..1]</text><line style="stroke:#808080;stroke-width:1;stroke-dasharray:1,3;" x1="370.89" x2="754.6606" y1="147.7996" y2="147.7996"/><ellipse cx="380.89" cy="161.6995" fill="#84BE84" rx="3" ry="3" style="stroke:#038048;stroke-width:1;"/><text fill="#808080" font-family="sans-serif" font-size="14" lengthAdjust="spacing" textLength="252.111" x="389.89" y="165.5615">languages_available() : List&lt;String&gt; [1..*]</text></g><!--class P_AUTHORED_RESOURCE--><g class="entity" data-entity="P_AUTHORED_RESOURCE" data-source-line="38" data-uid="ent0008" id="entity_P_AUTHORED_RESOURCE"><rect fill="#F5F5F5" height="148.7996" rx="2.5" ry="2.5" style="stroke:#808080;stroke-width:1;stroke-dasharray:1,3;" width="359.7308" x="790.91" y="15.4"/><ellipse cx="883.3237" cy="31.4" fill="#A9DCDF" rx="11" ry="11" style="stroke:#181818;stroke-width:1;"/><path d="M877.8394,36.9 L879.8706,36.9 L883.9175,25.5562 L883.0112,25.5562 L886.8394,36.9 L888.98,36.9 L884.6519,24.5719 L882.4331,24.5719 L877.8394,36.9 Z M880.1675,33.4 L886.605,33.4 L886.605,31.65 L880.1675,31.65 L880.1675,33.4 Z " fill="#000000"/><text fill="#808080" font-family="sans-serif" font-size="14" font-style="italic" lengthAdjust="spacing" textLength="166.4033" x="903.8237" y="36.762">P_AUTHORED_RESOURCE</text><line style="stroke:#808080;stroke-width:1;stroke-dasharray:1,3;" x1="791.91" x2="1149.6408" y1="47.4" y2="47.4"/><ellipse cx="801.91" cy="61.3" fill="none" rx="3" ry="3" style="stroke:#038048;stroke-width:1;"/><text fill="#808080" font-family="sans-serif" font-size="14" lengthAdjust="spacing" textLength="177.3933" x="810.91" y="65.1619">original_language : String [1]</text><ellipse cx="801.91" cy="78.0999" fill="none" rx="3" ry="3" style="stroke:#038048;stroke-width:1;"/><text fill="#808080" font-family="sans-serif" font-size="14" lengthAdjust="spacing" textLength="176.1753" x="810.91" y="81.9619">is_controlled : Boolean [0..1]</text><ellipse cx="801.91" cy="94.8998" fill="none" rx="3" ry="3" style="stroke:#038048;stroke-width:1;"/><text fill="#808080" font-family="sans-serif" font-size="14" lengthAdjust="spacing" textLength="294.0128" x="810.91" y="98.7618">translations : List&lt;TRANSLATION_DETAILS&gt; [*]</text><ellipse cx="801.91" cy="111.6997" fill="none" rx="3" ry="3" style="stroke:#038048;stroke-width:1;"/><text fill="#808080" font-family="sans-serif" font-size="14" lengthAdjust="spacing" textLength="279.7049" x="810.91" y="115.5617">description : RESOURCE_DESCRIPTION [0..1]</text><ellipse cx="801.91" cy="128.4997" fill="none" rx="3" ry="3" style="stroke:#038048;stroke-width:1;"/><text fill="#808080" font-family="sans-serif" font-size="14" lengthAdjust="spacing" textLength="100.9816" x="810.91" y="132.3616">uid : String [0..1]</text><ellipse cx="801.91" cy="145.2996" fill="none" rx="3" ry="3" style="stroke:#038048;stroke-width:1;"/><text fill="#808080" font-family="sans-serif" font-size="14" lengthAdjust="spacing" textLength="333.7308" x="810.91" y="149.1616">annotations : Hash&lt;String,Hash&lt;String,String&gt;&gt; [0..1]</text><line style="stroke:#808080;stroke-width:1;stroke-dasharray:1,3;" x1="791.91" x2="1149.6408" y1="156.1996" y2="156.1996"/></g><!--reverse link P_ARCHETYPE to P_AUTHORED_ARCHETYPE--><g class="link" data-entity-1="P_ARCHETYPE" data-entity-2="P_AUTHORED_ARCHETYPE" data-source-line="24" data-uid="lnk5" id="link_P_ARCHETYPE_P_AUTHORED_ARCHETYPE"><path codeLine="24" d="M326.5503,172.9791 C368.4403,195.0791 398.14,210.75 438.92,232.26" fill="none" id="P_ARCHETYPE-backto-P_AUTHORED_ARCHETYPE" style="stroke:#181818;stroke-width:1;"/><polygon fill="none" points="310.63,164.58,323.7506,178.2859,329.35,167.6723,310.63,164.58" style="stroke:#181818;stroke-width:1;"/></g><!--reverse link AUTHORED_RESOURCE to P_AUTHORED_ARCHETYPE--><g class="link" data-entity-1="AUTHORED_RESOURCE" data-entity-2="P_AUTHORED_ARCHETYPE" data-source-line="36" data-uid="lnk7" id="link_AUTHORED_RESOURCE_P_AUTHORED_ARCHETYPE"><path codeLine="36" d="M562.77,190.83 C562.77,210.56 562.77,213.39 562.77,232.24" fill="none" id="AUTHORED_RESOURCE-backto-P_AUTHORED_ARCHETYPE" style="stroke:#181818;stroke-width:1;"/><polygon fill="none" points="562.77,172.83,556.77,190.83,568.77,190.83,562.77,172.83" style="stroke:#181818;stroke-width:1;"/></g><!--reverse link P_AUTHORED_RESOURCE to P_AUTHORED_ARCHETYPE--><g class="link" data-entity-1="P_AUTHORED_RESOURCE" data-entity-2="P_AUTHORED_ARCHETYPE" data-source-line="47" data-uid="lnk9" id="link_P_AUTHORED_RESOURCE_P_AUTHORED_ARCHETYPE"><path codeLine="47" d="M809.1455,172.7196 C765.5555,194.8196 734.12,210.75 691.68,232.26" fill="none" id="P_AUTHORED_RESOURCE-backto-P_AUTHORED_ARCHETYPE" style="stroke:#181818;stroke-width:1;"/><polygon fill="none" points="825.2,164.58,806.4323,167.3681,811.8587,178.0711,825.2,164.58" style="stroke:#181818;stroke-width:1;"/></g><!--reverse link P_AUTHORED_ARCHETYPE to P_OPERATIONAL_TEMPLATE--><g class="link" data-entity-1="P_AUTHORED_ARCHETYPE" data-entity-2="P_OPERATIONAL_TEMPLATE" data-source-line="49" data-uid="lnk10" id="link_P_AUTHORED_ARCHETYPE_P_OPERATIONAL_TEMPLATE"><path codeLine="49" d="M562.77,382.73 C562.77,402.89 562.77,406.48 562.77,424.4" fill="none" id="P_AUTHORED_ARCHETYPE-backto-P_OPERATIONAL_TEMPLATE" style="stroke:#181818;stroke-width:1;"/><polygon fill="none" points="562.77,364.73,556.77,382.73,568.77,382.73,562.77,364.73" style="stroke:#181818;stroke-width:1;"/></g></g></svg>
