<svg xmlns="http://www.w3.org/2000/svg" xmlns:xlink="http://www.w3.org/1999/xlink" contentStyleType="text/css" data-diagram-type="CLASS" height="453px" preserveAspectRatio="none" style="width:234px;height:453px;background:#FFFFFF;" version="1.1" viewBox="0 0 234 453" width="234px" zoomAndPan="magnify"><defs/><g><!--class EXPR_CONSTRAINT--><g class="entity" data-entity="EXPR_CONSTRAINT" data-source-line="2" data-uid="ent0002" id="entity_EXPR_CONSTRAINT"><rect fill="#F1F1F1" height="64.7999" rx="2.5" ry="2.5" style="stroke:#181818;stroke-width:0.5;" width="220.7532" x="7" y="381.4"/><ellipse cx="50.2833" cy="397.4" fill="#ADD1B2" rx="11" ry="11" style="stroke:#181818;stroke-width:1;"/><path d="M50.2833,403.8219 C51.4552,403.8219 52.6895,403.5563 54.0645,402.9469 L53.5802,401.4313 C52.4864,401.8531 51.4708,402.0406 50.6114,402.0406 C47.8927,402.0406 46.1739,400.1969 46.1739,397.2906 C46.1739,394.5406 47.7364,392.9469 50.4708,392.9469 C51.3927,392.9469 52.4083,393.1344 53.5489,393.5563 L54.127,392.0406 C53.0333,391.4625 51.7364,391.1656 50.5489,391.1656 C46.7833,391.1656 44.2052,393.8063 44.2052,397.6188 C44.2052,401.2906 46.6895,403.8219 50.2833,403.8219 Z " fill="#000000"/><text fill="#000000" font-family="sans-serif" font-size="14" lengthAdjust="spacing" textLength="125.9015" x="70.5685" y="402.762">EXPR_CONSTRAINT</text><line style="stroke:#181818;stroke-width:0.5;" x1="8" x2="226.7532" y1="413.4" y2="413.4"/><ellipse cx="18" cy="427.3" fill="none" rx="3" ry="3" style="stroke:#038048;stroke-width:1;"/><text fill="#000000" font-family="sans-serif" font-size="14" lengthAdjust="spacing" textLength="194.7532" x="27" y="431.1619">item : C_PRIMITIVE_OBJECT [1]</text><line style="stroke:#181818;stroke-width:0.5;" x1="8" x2="226.7532" y1="438.1999" y2="438.1999"/></g><!--class EXPR_LEAF--><g class="entity" data-entity="EXPR_LEAF" data-source-line="6" data-uid="ent0003" id="entity_EXPR_LEAF"><rect fill="#F5F5F5" height="64.7999" rx="2.5" ry="2.5" style="stroke:#808080;stroke-width:1;stroke-dasharray:1,3;" width="122.0256" x="56.36" y="256.6"/><ellipse cx="79.307" cy="272.6" fill="#A9DCDF" rx="11" ry="11" style="stroke:#181818;stroke-width:1;"/><path d="M73.8226,278.1 L75.8538,278.1 L79.9007,266.7562 L78.9945,266.7562 L82.8226,278.1 L84.9632,278.1 L80.6351,265.7719 L78.4163,265.7719 L73.8226,278.1 Z M76.1507,274.6 L82.5882,274.6 L82.5882,272.85 L76.1507,272.85 L76.1507,274.6 Z " fill="#000000"/><text fill="#808080" font-family="sans-serif" font-size="14" font-style="italic" lengthAdjust="spacing" textLength="72.3657" x="95.073" y="277.962">EXPR_LEAF</text><line style="stroke:#808080;stroke-width:1;stroke-dasharray:1,3;" x1="57.36" x2="177.3856" y1="288.6" y2="288.6"/><ellipse cx="67.36" cy="302.5" fill="none" rx="3" ry="3" style="stroke:#038048;stroke-width:1;"/><text fill="#808080" font-family="sans-serif" font-size="14" lengthAdjust="spacing" textLength="96.0256" x="76.36" y="306.3619">item : Any [0..1]</text><line style="stroke:#808080;stroke-width:1;stroke-dasharray:1,3;" x1="57.36" x2="177.3856" y1="313.3999" y2="313.3999"/></g><!--class EXPRESSION--><g class="entity" data-entity="EXPRESSION" data-source-line="10" data-uid="ent0004" id="entity_EXPRESSION"><rect fill="#F5F5F5" height="64.7999" rx="2.5" ry="2.5" style="stroke:#808080;stroke-width:1;stroke-dasharray:1,3;" width="196.0853" x="19.33" y="131.8"/><ellipse cx="72.1238" cy="147.8" fill="#A9DCDF" rx="11" ry="11" style="stroke:#181818;stroke-width:1;"/><path d="M66.6394,153.3 L68.6707,153.3 L72.7176,141.9563 L71.8113,141.9563 L75.6394,153.3 L77.7801,153.3 L73.4519,140.9719 L71.2332,140.9719 L66.6394,153.3 Z M68.9676,149.8 L75.4051,149.8 L75.4051,148.05 L68.9676,148.05 L68.9676,149.8 Z " fill="#000000"/><text fill="#808080" font-family="sans-serif" font-size="14" font-style="italic" lengthAdjust="spacing" textLength="81.9977" x="92.6238" y="153.162">EXPRESSION</text><line style="stroke:#808080;stroke-width:1;stroke-dasharray:1,3;" x1="20.33" x2="214.4153" y1="163.8" y2="163.8"/><line style="stroke:#808080;stroke-width:1;stroke-dasharray:1,3;" x1="20.33" x2="214.4153" y1="171.8" y2="171.8"/><ellipse cx="30.33" cy="185.7" fill="#84BE84" rx="3" ry="3" style="stroke:#038048;stroke-width:1;"/><text fill="#808080" font-family="sans-serif" font-size="14" font-style="italic" lengthAdjust="spacing" textLength="170.0853" x="39.33" y="189.5619">type() : EXPR_TYPE_DEF [1]</text></g><!--class EXPR_VALUE--><g class="entity" data-entity="EXPR_VALUE" data-source-line="14" data-uid="ent0005" id="entity_EXPR_VALUE"><rect fill="#F5F5F5" height="64.7999" rx="2.5" ry="2.5" style="stroke:#808080;stroke-width:1;stroke-dasharray:1,3;" width="119.3796" x="57.69" y="7"/><ellipse cx="74.967" cy="23" fill="#A9DCDF" rx="11" ry="11" style="stroke:#181818;stroke-width:1;"/><path d="M69.4826,28.5 L71.5139,28.5 L75.5607,17.1563 L74.6545,17.1563 L78.4826,28.5 L80.6232,28.5 L76.2951,16.1719 L74.0764,16.1719 L69.4826,28.5 Z M71.8107,25 L78.2482,25 L78.2482,23.25 L71.8107,23.25 L71.8107,25 Z " fill="#000000"/><text fill="#808080" font-family="sans-serif" font-size="14" font-style="italic" lengthAdjust="spacing" textLength="82.3197" x="89.473" y="28.362">EXPR_VALUE</text><line style="stroke:#808080;stroke-width:1;stroke-dasharray:1,3;" x1="58.69" x2="176.0696" y1="39" y2="39"/><line style="stroke:#808080;stroke-width:1;stroke-dasharray:1,3;" x1="58.69" x2="176.0696" y1="47" y2="47"/><ellipse cx="68.69" cy="60.9" fill="#84BE84" rx="3" ry="3" style="stroke:#038048;stroke-width:1;"/><text fill="#808080" font-family="sans-serif" font-size="14" font-style="italic" lengthAdjust="spacing" textLength="93.3796" x="77.69" y="64.7619">value() : Any [1]</text></g><!--reverse link EXPR_VALUE to EXPRESSION--><g class="link" data-entity-1="EXPR_VALUE" data-entity-2="EXPRESSION" data-source-line="18" data-uid="lnk6" id="link_EXPR_VALUE_EXPRESSION"><path codeLine="18" d="M117.38,90.02 C117.38,108.36 117.38,113.37 117.38,131.68" fill="none" id="EXPR_VALUE-backto-EXPRESSION" style="stroke:#181818;stroke-width:1;"/><polygon fill="none" points="117.38,72.02,111.38,90.02,123.38,90.02,117.38,72.02" style="stroke:#181818;stroke-width:1;"/></g><!--reverse link EXPRESSION to EXPR_LEAF--><g class="link" data-entity-1="EXPRESSION" data-entity-2="EXPR_LEAF" data-source-line="20" data-uid="lnk7" id="link_EXPRESSION_EXPR_LEAF"><path codeLine="20" d="M117.38,214.82 C117.38,233.16 117.38,238.17 117.38,256.48" fill="none" id="EXPRESSION-backto-EXPR_LEAF" style="stroke:#181818;stroke-width:1;"/><polygon fill="none" points="117.38,196.82,111.38,214.82,123.38,214.82,117.38,196.82" style="stroke:#181818;stroke-width:1;"/></g><!--reverse link EXPR_LEAF to EXPR_CONSTRAINT--><g class="link" data-entity-1="EXPR_LEAF" data-entity-2="EXPR_CONSTRAINT" data-source-line="22" data-uid="lnk8" id="link_EXPR_LEAF_EXPR_CONSTRAINT"><path codeLine="22" d="M117.38,339.62 C117.38,357.96 117.38,362.97 117.38,381.28" fill="none" id="EXPR_LEAF-backto-EXPR_CONSTRAINT" style="stroke:#181818;stroke-width:1;"/><polygon fill="none" points="117.38,321.62,111.38,339.62,123.38,339.62,117.38,321.62" style="stroke:#181818;stroke-width:1;"/></g></g></svg>
