<svg xmlns="http://www.w3.org/2000/svg" xmlns:xlink="http://www.w3.org/1999/xlink" contentStyleType="text/css" data-diagram-type="CLASS" height="1475px" preserveAspectRatio="none" style="width:808px;height:1475px;background:#FFFFFF;" version="1.1" viewBox="0 0 808 1475" width="808px" zoomAndPan="magnify"><defs/><g><!--class C_BOOLEAN--><g class="entity" data-entity="C_BOOLEAN" data-source-line="2" data-uid="ent0002" id="entity_C_BOOLEAN"><rect fill="#F1F1F1" height="165.5995" rx="2.5" ry="2.5" style="stroke:#181818;stroke-width:0.5;" width="400.4006" x="203.93" y="1303"/><ellipse cx="359.5535" cy="1319" fill="#ADD1B2" rx="11" ry="11" style="stroke:#181818;stroke-width:1;"/><path d="M359.5535,1325.4219 C360.7253,1325.4219 361.9597,1325.1563 363.3347,1324.5469 L362.8503,1323.0313 C361.7566,1323.4531 360.741,1323.6406 359.8816,1323.6406 C357.1628,1323.6406 355.4441,1321.7969 355.4441,1318.8906 C355.4441,1316.1406 357.0066,1314.5469 359.741,1314.5469 C360.6628,1314.5469 361.6785,1314.7344 362.8191,1315.1563 L363.3972,1313.6406 C362.3035,1313.0625 361.0066,1312.7656 359.8191,1312.7656 C356.0535,1312.7656 353.4753,1315.4063 353.4753,1319.2188 C353.4753,1322.8906 355.9597,1325.4219 359.5535,1325.4219 Z " fill="#000000"/><text fill="#000000" font-family="sans-serif" font-size="14" lengthAdjust="spacing" textLength="80.6537" x="380.0535" y="1324.362">C_BOOLEAN</text><line style="stroke:#181818;stroke-width:0.5;" x1="204.93" x2="603.3306" y1="1335" y2="1335"/><ellipse cx="214.93" cy="1348.9" fill="none" rx="3" ry="3" style="stroke:#038048;stroke-width:1;"/><text fill="#000000" font-family="sans-serif" font-size="14" lengthAdjust="spacing" textLength="181.4393" x="223.93" y="1352.7619">constraint : List&lt;Boolean&gt; [*]</text><ellipse cx="214.93" cy="1365.6999" fill="none" rx="3" ry="3" style="stroke:#038048;stroke-width:1;"/><text fill="#000000" font-family="sans-serif" font-size="14" lengthAdjust="spacing" textLength="191.1272" x="223.93" y="1369.5619">assumed_value : Boolean [0..1]</text><ellipse cx="214.93" cy="1382.4998" fill="none" rx="3" ry="3" style="stroke:#038048;stroke-width:1;"/><text fill="#000000" font-family="sans-serif" font-size="14" lengthAdjust="spacing" textLength="179.4373" x="223.93" y="1386.3618">default_value : Boolean [0..1]</text><line style="stroke:#181818;stroke-width:0.5;" x1="204.93" x2="603.3306" y1="1393.3998" y2="1393.3998"/><ellipse cx="214.93" cy="1407.2997" fill="#84BE84" rx="3" ry="3" style="stroke:#038048;stroke-width:1;"/><text fill="#000000" font-family="sans-serif" font-size="14" lengthAdjust="spacing" textLength="189.4053" x="223.93" y="1411.1617">prototype_value() : Boolean [1]</text><ellipse cx="214.93" cy="1424.0997" fill="#84BE84" rx="3" ry="3" style="stroke:#038048;stroke-width:1;"/><text fill="#000000" font-family="sans-serif" font-size="14" lengthAdjust="spacing" textLength="166.1093" x="223.93" y="1427.9616">any_allowed() : Boolean [1]</text><ellipse cx="214.93" cy="1440.8996" fill="#84BE84" rx="3" ry="3" style="stroke:#038048;stroke-width:1;"/><text fill="#000000" font-family="sans-serif" font-size="14" lengthAdjust="spacing" textLength="369.8226" x="223.93" y="1444.7616">c_value_conforms_to( other : C_BOOLEAN [1] ) : Boolean [1]</text><ellipse cx="214.93" cy="1457.6995" fill="#84BE84" rx="3" ry="3" style="stroke:#038048;stroke-width:1;"/><text fill="#000000" font-family="sans-serif" font-size="14" lengthAdjust="spacing" textLength="374.4006" x="223.93" y="1461.5615">c_value_congruent_to( other : C_BOOLEAN [1] ) : Boolean [1]</text></g><!--class C_PRIMITIVE_OBJECT--><g class="entity" data-entity="C_PRIMITIVE_OBJECT" data-source-line="12" data-uid="ent0003" id="entity_C_PRIMITIVE_OBJECT"><rect fill="#F5F5F5" height="199.1993" rx="2.5" ry="2.5" style="stroke:#808080;stroke-width:1;stroke-dasharray:1,3;" width="762.5088" x="22.88" y="1043.8"/><ellipse cx="330.9277" cy="1059.8" fill="#A9DCDF" rx="11" ry="11" style="stroke:#181818;stroke-width:1;"/><path d="M325.4433,1065.3 L327.4745,1065.3 L331.5214,1053.9563 L330.6152,1053.9563 L334.4433,1065.3 L336.5839,1065.3 L332.2558,1052.9719 L330.037,1052.9719 L325.4433,1065.3 Z M327.7714,1061.8 L334.2089,1061.8 L334.2089,1060.05 L327.7714,1060.05 L327.7714,1061.8 Z " fill="#000000"/><text fill="#808080" font-family="sans-serif" font-size="14" font-style="italic" lengthAdjust="spacing" textLength="137.9135" x="351.4277" y="1065.162">C_PRIMITIVE_OBJECT</text><line style="stroke:#808080;stroke-width:1;stroke-dasharray:1,3;" x1="23.88" x2="784.3888" y1="1075.8" y2="1075.8"/><ellipse cx="33.88" cy="1089.7" fill="none" rx="3" ry="3" style="stroke:#038048;stroke-width:1;"/><text fill="#808080" font-family="sans-serif" font-size="14" lengthAdjust="spacing" textLength="163.4633" x="42.88" y="1093.5619">assumed_value : Any [0..1]</text><ellipse cx="33.88" cy="1106.4999" fill="none" rx="3" ry="3" style="stroke:#038048;stroke-width:1;"/><text fill="#808080" font-family="sans-serif" font-size="14" lengthAdjust="spacing" textLength="292.1508" x="42.88" y="1110.3619">is_enumerated_type_constraint : Boolean [0..1]</text><ellipse cx="33.88" cy="1123.2998" fill="none" rx="3" ry="3" style="stroke:#038048;stroke-width:1;"/><text fill="#808080" font-family="sans-serif" font-size="14" lengthAdjust="spacing" textLength="114.8136" x="42.88" y="1127.1618">constraint : Any [1]</text><line style="stroke:#808080;stroke-width:1;stroke-dasharray:1,3;" x1="23.88" x2="784.3888" y1="1134.1998" y2="1134.1998"/><ellipse cx="33.88" cy="1148.0997" fill="#84BE84" rx="3" ry="3" style="stroke:#038048;stroke-width:1;"/><text fill="#808080" font-family="sans-serif" font-size="14" lengthAdjust="spacing" textLength="212.3931" x="42.88" y="1151.9617">has_assumed_value() : Boolean [1]</text><ellipse cx="33.88" cy="1164.8997" fill="#84BE84" rx="3" ry="3" style="stroke:#038048;stroke-width:1;"/><text fill="#808080" font-family="sans-serif" font-size="14" lengthAdjust="spacing" textLength="216.6352" x="42.88" y="1168.7616">constrained_typename() : String [1]</text><ellipse cx="33.88" cy="1181.6996" fill="#84BE84" rx="3" ry="3" style="stroke:#038048;stroke-width:1;"/><text fill="#808080" font-family="sans-serif" font-size="14" lengthAdjust="spacing" textLength="736.5088" x="42.88" y="1185.5616">c_conforms_to( other : C_PRIMITIVE_OBJECT [1], rmcc : FUNCTION&lt;Boolean,TUPLE2&lt;String,String&gt;&gt; [1] ) : Boolean [1]</text><ellipse cx="33.88" cy="1198.4995" fill="#84BE84" rx="3" ry="3" style="stroke:#038048;stroke-width:1;"/><text fill="#808080" font-family="sans-serif" font-size="14" font-style="italic" lengthAdjust="spacing" textLength="427.0824" x="42.88" y="1202.3615">c_value_conforms_to( other : C_PRIMITIVE_OBJECT [1] ) : Boolean [1]</text><ellipse cx="33.88" cy="1215.2995" fill="#84BE84" rx="3" ry="3" style="stroke:#038048;stroke-width:1;"/><text fill="#808080" font-family="sans-serif" font-size="14" lengthAdjust="spacing" textLength="391.6766" x="42.88" y="1219.1614">c_congruent_to( other : C_PRIMITIVE_OBJECT [1] ) : Boolean [1]</text><ellipse cx="33.88" cy="1232.0994" fill="#84BE84" rx="3" ry="3" style="stroke:#038048;stroke-width:1;"/><text fill="#808080" font-family="sans-serif" font-size="14" font-style="italic" lengthAdjust="spacing" textLength="431.6604" x="42.88" y="1235.9614">c_value_congruent_to( other : C_PRIMITIVE_OBJECT [1] ) : Boolean [1]</text></g><!--class C_DEFINED_OBJECT--><g class="entity" data-entity="C_DEFINED_OBJECT" data-source-line="24" data-uid="ent0004" id="entity_C_DEFINED_OBJECT"><rect fill="#F5F5F5" height="131.9996" rx="2.5" ry="2.5" style="stroke:#808080;stroke-width:1;stroke-dasharray:1,3;" width="288.5269" x="259.87" y="851.8"/><ellipse cx="334.0977" cy="867.8" fill="#A9DCDF" rx="11" ry="11" style="stroke:#181818;stroke-width:1;"/><path d="M328.6133,873.3 L330.6446,873.3 L334.6915,861.9563 L333.7852,861.9563 L337.6133,873.3 L339.754,873.3 L335.4258,860.9719 L333.2071,860.9719 L328.6133,873.3 Z M330.9415,869.8 L337.379,869.8 L337.379,868.05 L330.9415,868.05 L330.9415,869.8 Z " fill="#000000"/><text fill="#808080" font-family="sans-serif" font-size="14" font-style="italic" lengthAdjust="spacing" textLength="131.5715" x="354.5977" y="873.162">C_DEFINED_OBJECT</text><line style="stroke:#808080;stroke-width:1;stroke-dasharray:1,3;" x1="260.87" x2="547.3969" y1="883.8" y2="883.8"/><ellipse cx="270.87" cy="897.7" fill="none" rx="3" ry="3" style="stroke:#038048;stroke-width:1;"/><text fill="#808080" font-family="sans-serif" font-size="14" lengthAdjust="spacing" textLength="151.7734" x="279.87" y="901.5619">default_value : Any [0..1]</text><line style="stroke:#808080;stroke-width:1;stroke-dasharray:1,3;" x1="260.87" x2="547.3969" y1="908.5999" y2="908.5999"/><ellipse cx="270.87" cy="922.4999" fill="#84BE84" rx="3" ry="3" style="stroke:#038048;stroke-width:1;"/><text fill="#808080" font-family="sans-serif" font-size="14" font-style="italic" lengthAdjust="spacing" textLength="166.1093" x="279.87" y="926.3619">any_allowed() : Boolean [1]</text><ellipse cx="270.87" cy="939.2998" fill="#84BE84" rx="3" ry="3" style="stroke:#038048;stroke-width:1;"/><text fill="#808080" font-family="sans-serif" font-size="14" font-style="italic" lengthAdjust="spacing" textLength="262.5269" x="279.87" y="943.1618">valid_value( a_value : Any [1] ) : Boolean [1]</text><ellipse cx="270.87" cy="956.0997" fill="#84BE84" rx="3" ry="3" style="stroke:#038048;stroke-width:1;"/><text fill="#808080" font-family="sans-serif" font-size="14" font-style="italic" lengthAdjust="spacing" textLength="161.7414" x="279.87" y="959.9617">prototype_value() : Any [1]</text><ellipse cx="270.87" cy="972.8997" fill="#84BE84" rx="3" ry="3" style="stroke:#038048;stroke-width:1;"/><text fill="#808080" font-family="sans-serif" font-size="14" lengthAdjust="spacing" textLength="200.7032" x="279.87" y="976.7616">has_default_value() : Boolean [1]</text></g><!--class C_OBJECT--><g class="entity" data-entity="C_OBJECT" data-source-line="32" data-uid="ent0005" id="entity_C_OBJECT"><rect fill="#F5F5F5" height="266.399" rx="2.5" ry="2.5" style="stroke:#808080;stroke-width:1;stroke-dasharray:1,3;" width="690.7872" x="58.74" y="525.4"/><ellipse cx="366.7878" cy="541.4" fill="#A9DCDF" rx="11" ry="11" style="stroke:#181818;stroke-width:1;"/><path d="M361.3034,546.9 L363.3346,546.9 L367.3815,535.5562 L366.4753,535.5562 L370.3034,546.9 L372.444,546.9 L368.1159,534.5719 L365.8971,534.5719 L361.3034,546.9 Z M363.6315,543.4 L370.069,543.4 L370.069,541.65 L363.6315,541.65 L363.6315,543.4 Z " fill="#000000"/><text fill="#808080" font-family="sans-serif" font-size="14" font-style="italic" lengthAdjust="spacing" textLength="66.1917" x="387.2878" y="546.762">C_OBJECT</text><line style="stroke:#808080;stroke-width:1;stroke-dasharray:1,3;" x1="59.74" x2="748.5272" y1="557.4" y2="557.4"/><ellipse cx="69.74" cy="571.3" fill="none" rx="3" ry="3" style="stroke:#038048;stroke-width:1;"/><text fill="#808080" font-family="sans-serif" font-size="14" lengthAdjust="spacing" textLength="159.7254" x="78.74" y="575.1619">rm_type_name : String [1]</text><ellipse cx="69.74" cy="588.0999" fill="none" rx="3" ry="3" style="stroke:#038048;stroke-width:1;"/><text fill="#808080" font-family="sans-serif" font-size="14" lengthAdjust="spacing" textLength="242.6471" x="78.74" y="591.9619">occurrences : Multiplicity_interval [0..1]</text><ellipse cx="69.74" cy="604.8998" fill="none" rx="3" ry="3" style="stroke:#038048;stroke-width:1;"/><text fill="#808080" font-family="sans-serif" font-size="14" lengthAdjust="spacing" textLength="115.6535" x="78.74" y="608.7618">node_id : String [1]</text><ellipse cx="69.74" cy="621.6997" fill="none" rx="3" ry="3" style="stroke:#038048;stroke-width:1;"/><text fill="#808080" font-family="sans-serif" font-size="14" lengthAdjust="spacing" textLength="196.3632" x="78.74" y="625.5617">alternative_ids : List&lt;String&gt; [*]</text><ellipse cx="69.74" cy="638.4997" fill="none" rx="3" ry="3" style="stroke:#038048;stroke-width:1;"/><text fill="#808080" font-family="sans-serif" font-size="14" lengthAdjust="spacing" textLength="182.5033" x="78.74" y="642.3616">is_deprecated : Boolean [0..1]</text><ellipse cx="69.74" cy="655.2996" fill="none" rx="3" ry="3" style="stroke:#038048;stroke-width:1;"/><text fill="#808080" font-family="sans-serif" font-size="14" lengthAdjust="spacing" textLength="231.1111" x="78.74" y="659.1616">sibling_order : SIBLING_ORDER [0..1]</text><line style="stroke:#808080;stroke-width:1;stroke-dasharray:1,3;" x1="59.74" x2="748.5272" y1="666.1996" y2="666.1996"/><ellipse cx="69.74" cy="680.0995" fill="#84BE84" rx="3" ry="3" style="stroke:#038048;stroke-width:1;"/><text fill="#808080" font-family="sans-serif" font-size="14" lengthAdjust="spacing" textLength="209.5092" x="78.74" y="683.9615">specialisation_depth() : Integer [1]</text><ellipse cx="69.74" cy="696.8995" fill="#84BE84" rx="3" ry="3" style="stroke:#038048;stroke-width:1;"/><text fill="#808080" font-family="sans-serif" font-size="14" lengthAdjust="spacing" textLength="295.7629" x="78.74" y="700.7614">effective_occurrences() : Multiplicity_interval [1]</text><ellipse cx="69.74" cy="713.6994" fill="#84BE84" rx="3" ry="3" style="stroke:#038048;stroke-width:1;"/><text fill="#808080" font-family="sans-serif" font-size="14" lengthAdjust="spacing" textLength="664.7872" x="78.74" y="717.5614">c_conforms_to( other : C_OBJECT [1], rmcc : FUNCTION&lt;Boolean,TUPLE2&lt;String,String&gt;&gt; [1] ) : Boolean [1]</text><ellipse cx="69.74" cy="730.4993" fill="#84BE84" rx="3" ry="3" style="stroke:#038048;stroke-width:1;"/><text fill="#808080" font-family="sans-serif" font-size="14" lengthAdjust="spacing" textLength="423.4283" x="78.74" y="734.3613">c_congruent_to( other : ARCHETYPE_CONSTRAINT [1] ) : Boolean [1]</text><ellipse cx="69.74" cy="747.2992" fill="#84BE84" rx="3" ry="3" style="stroke:#038048;stroke-width:1;"/><text fill="#808080" font-family="sans-serif" font-size="14" lengthAdjust="spacing" textLength="383.9766" x="78.74" y="751.1612">occurrences_conforms_to( other : C_OBJECT [1] ) : Boolean [1]</text><ellipse cx="69.74" cy="764.0992" fill="#84BE84" rx="3" ry="3" style="stroke:#038048;stroke-width:1;"/><text fill="#808080" font-family="sans-serif" font-size="14" lengthAdjust="spacing" textLength="358.5107" x="78.74" y="767.9611">node_id_conforms_to( other : C_OBJECT [1] ) : Boolean [1]</text><ellipse cx="69.74" cy="780.8991" fill="#84BE84" rx="3" ry="3" style="stroke:#038048;stroke-width:1;"/><text fill="#808080" font-family="sans-serif" font-size="14" lengthAdjust="spacing" textLength="169.4413" x="78.74" y="784.7611">is_prohibited() : Boolean [1]</text></g><!--class ARCHETYPE_CONSTRAINT--><g class="entity" data-entity="ARCHETYPE_CONSTRAINT" data-source-line="48" data-uid="ent0006" id="entity_ARCHETYPE_CONSTRAINT"><rect fill="#F5F5F5" height="215.9993" rx="2.5" ry="2.5" style="stroke:#808080;stroke-width:1;stroke-dasharray:1,3;" width="794.2606" x="7" y="249.4"/><ellipse cx="315.0477" cy="265.4" fill="#A9DCDF" rx="11" ry="11" style="stroke:#181818;stroke-width:1;"/><path d="M309.5633,270.9 L311.5945,270.9 L315.6414,259.5562 L314.7352,259.5562 L318.5633,270.9 L320.7039,270.9 L316.3758,258.5719 L314.157,258.5719 L309.5633,270.9 Z M311.8914,267.4 L318.3289,267.4 L318.3289,265.65 L311.8914,265.65 L311.8914,267.4 Z " fill="#000000"/><text fill="#808080" font-family="sans-serif" font-size="14" font-style="italic" lengthAdjust="spacing" textLength="169.6653" x="335.5477" y="270.762">ARCHETYPE_CONSTRAINT</text><line style="stroke:#808080;stroke-width:1;stroke-dasharray:1,3;" x1="8" x2="800.2606" y1="281.4" y2="281.4"/><ellipse cx="18" cy="295.3" fill="none" rx="3" ry="3" style="stroke:#038048;stroke-width:1;"/><text fill="#808080" font-family="sans-serif" font-size="14" lengthAdjust="spacing" textLength="254.799" x="27" y="299.1619">parent : ARCHETYPE_CONSTRAINT [0..1]</text><ellipse cx="18" cy="312.0999" fill="none" rx="3" ry="3" style="stroke:#038048;stroke-width:1;"/><text fill="#808080" font-family="sans-serif" font-size="14" lengthAdjust="spacing" textLength="238.3071" x="27" y="315.9619">soc_parent : C_SECOND_ORDER [0..1]</text><line style="stroke:#808080;stroke-width:1;stroke-dasharray:1,3;" x1="8" x2="800.2606" y1="322.9999" y2="322.9999"/><ellipse cx="18" cy="336.8998" fill="#84BE84" rx="3" ry="3" style="stroke:#038048;stroke-width:1;"/><text fill="#808080" font-family="sans-serif" font-size="14" font-style="italic" lengthAdjust="spacing" textLength="169.4413" x="27" y="340.7618">is_prohibited() : Boolean [1]</text><ellipse cx="18" cy="353.6997" fill="#84BE84" rx="3" ry="3" style="stroke:#038048;stroke-width:1;"/><text fill="#808080" font-family="sans-serif" font-size="14" lengthAdjust="spacing" textLength="259.279" x="27" y="357.5617">has_path( a_path : String [1] ) : Boolean [1]</text><ellipse cx="18" cy="370.4997" fill="#84BE84" rx="3" ry="3" style="stroke:#038048;stroke-width:1;"/><text fill="#808080" font-family="sans-serif" font-size="14" lengthAdjust="spacing" textLength="102.5636" x="27" y="374.3616">path() : String [1]</text><ellipse cx="18" cy="387.2996" fill="#84BE84" rx="3" ry="3" style="stroke:#038048;stroke-width:1;"/><text fill="#808080" font-family="sans-serif" font-size="14" font-style="italic" lengthAdjust="spacing" textLength="768.2606" x="27" y="391.1616">c_conforms_to( other : ARCHETYPE_CONSTRAINT [1], rmcc : FUNCTION&lt;Boolean,TUPLE2&lt;String,String&gt;&gt; [1] ) : Boolean [1]</text><ellipse cx="18" cy="404.0995" fill="#84BE84" rx="3" ry="3" style="stroke:#038048;stroke-width:1;"/><text fill="#808080" font-family="sans-serif" font-size="14" font-style="italic" lengthAdjust="spacing" textLength="423.4283" x="27" y="407.9615">c_congruent_to( other : ARCHETYPE_CONSTRAINT [1] ) : Boolean [1]</text><ellipse cx="18" cy="420.8995" fill="#84BE84" rx="3" ry="3" style="stroke:#038048;stroke-width:1;"/><text fill="#808080" font-family="sans-serif" font-size="14" lengthAdjust="spacing" textLength="270.311" x="27" y="424.7614">is_second_order_constrained() : Boolean [1]</text><ellipse cx="18" cy="437.6994" fill="#84BE84" rx="3" ry="3" style="stroke:#038048;stroke-width:1;"/><text fill="#808080" font-family="sans-serif" font-size="14" lengthAdjust="spacing" textLength="131.2075" x="27" y="441.5614">is_root() : Boolean [1]</text><ellipse cx="18" cy="454.4993" fill="#84BE84" rx="3" ry="3" style="stroke:#038048;stroke-width:1;"/><text fill="#808080" font-family="sans-serif" font-size="14" lengthAdjust="spacing" textLength="128.2115" x="27" y="458.3613">is_leaf() : Boolean [1]</text></g><!--class ADL_CODE_DEFINITIONS--><g class="entity" data-entity="ADL_CODE_DEFINITIONS" data-source-line="61" data-uid="ent0007" id="entity_ADL_CODE_DEFINITIONS"><rect fill="#F5F5F5" height="182.3994" rx="2.5" ry="2.5" style="stroke:#808080;stroke-width:1;stroke-dasharray:1,3;" width="547.7921" x="130.23" y="7"/><ellipse cx="318.8094" cy="23" fill="#ADD1B2" rx="11" ry="11" style="stroke:#181818;stroke-width:1;"/><path d="M318.8094,29.4219 C319.9813,29.4219 321.2156,29.1563 322.5906,28.5469 L322.1063,27.0313 C321.0125,27.4531 319.9969,27.6406 319.1375,27.6406 C316.4188,27.6406 314.7,25.7969 314.7,22.8906 C314.7,20.1406 316.2625,18.5469 318.9969,18.5469 C319.9188,18.5469 320.9344,18.7344 322.075,19.1563 L322.6531,17.6406 C321.5594,17.0625 320.2625,16.7656 319.075,16.7656 C315.3094,16.7656 312.7313,19.4063 312.7313,23.2188 C312.7313,26.8906 315.2156,29.4219 318.8094,29.4219 Z " fill="#000000"/><text fill="#808080" font-family="sans-serif" font-size="14" lengthAdjust="spacing" textLength="162.1334" x="339.3094" y="28.362">ADL_CODE_DEFINITIONS</text><line style="stroke:#808080;stroke-width:1;stroke-dasharray:1,3;" x1="131.23" x2="677.0221" y1="39" y2="39"/><line style="stroke:#808080;stroke-width:1;stroke-dasharray:1,3;" x1="131.23" x2="677.0221" y1="47" y2="47"/><ellipse cx="141.23" cy="60.9" fill="#84BE84" rx="3" ry="3" style="stroke:#038048;stroke-width:1;"/><text fill="#808080" font-family="sans-serif" font-size="14" lengthAdjust="spacing" textLength="521.7921" x="150.23" y="64.7619">codes_conformant( a_child_code : String [1], a_parent_code : String [1] ) : Boolean [1]</text><ellipse cx="141.23" cy="77.6999" fill="#84BE84" rx="3" ry="3" style="stroke:#038048;stroke-width:1;"/><text fill="#808080" font-family="sans-serif" font-size="14" lengthAdjust="spacing" textLength="277.0449" x="150.23" y="81.5619">is_adl_code( a_code : String [1] ) : Boolean [1]</text><ellipse cx="141.23" cy="94.4998" fill="#84BE84" rx="3" ry="3" style="stroke:#038048;stroke-width:1;"/><text fill="#808080" font-family="sans-serif" font-size="14" lengthAdjust="spacing" textLength="270.2269" x="150.23" y="98.3618">is_at_code( a_code : String [1] ) : Boolean [1]</text><ellipse cx="141.23" cy="111.2997" fill="#84BE84" rx="3" ry="3" style="stroke:#038048;stroke-width:1;"/><text fill="#808080" font-family="sans-serif" font-size="14" lengthAdjust="spacing" textLength="269.429" x="150.23" y="115.1617">is_id_code( a_code : String [1] ) : Boolean [1]</text><ellipse cx="141.23" cy="128.0997" fill="#84BE84" rx="3" ry="3" style="stroke:#038048;stroke-width:1;"/><text fill="#808080" font-family="sans-serif" font-size="14" lengthAdjust="spacing" textLength="290.9889" x="150.23" y="131.9616">is_value_code( a_code : String [1] ) : Boolean [1]</text><ellipse cx="141.23" cy="144.8996" fill="#84BE84" rx="3" ry="3" style="stroke:#038048;stroke-width:1;"/><text fill="#808080" font-family="sans-serif" font-size="14" lengthAdjust="spacing" textLength="316.9308" x="150.23" y="148.7616">is_value_set_code( a_code : String [1] ) : Boolean [1]</text><ellipse cx="141.23" cy="161.6995" fill="#84BE84" rx="3" ry="3" style="stroke:#038048;stroke-width:1;"/><text fill="#808080" font-family="sans-serif" font-size="14" lengthAdjust="spacing" textLength="317.5608" x="150.23" y="165.5615">is_redefined_code( a_code : String [1] ) : Boolean [1]</text><ellipse cx="141.23" cy="178.4995" fill="#84BE84" rx="3" ry="3" style="stroke:#038048;stroke-width:1;"/><text fill="#808080" font-family="sans-serif" font-size="14" lengthAdjust="spacing" textLength="454.3962" x="150.23" y="182.3614">code_exists_at_level( a-code : String [1], a_level : Integer [1] ) : Boolean [1]</text></g><!--reverse link ADL_CODE_DEFINITIONS to ARCHETYPE_CONSTRAINT--><g class="link" data-entity-1="ADL_CODE_DEFINITIONS" data-entity-2="ARCHETYPE_CONSTRAINT" data-source-line="72" data-uid="lnk8" id="link_ADL_CODE_DEFINITIONS_ARCHETYPE_CONSTRAINT"><path codeLine="72" d="M404.13,207.88 C404.13,226.97 404.13,229.29 404.13,248.93" fill="none" id="ADL_CODE_DEFINITIONS-backto-ARCHETYPE_CONSTRAINT" style="stroke:#181818;stroke-width:1;"/><polygon fill="none" points="404.13,189.88,398.13,207.88,410.13,207.88,404.13,189.88" style="stroke:#181818;stroke-width:1;"/></g><!--reverse link ARCHETYPE_CONSTRAINT to C_OBJECT--><g class="link" data-entity-1="ARCHETYPE_CONSTRAINT" data-entity-2="C_OBJECT" data-source-line="74" data-uid="lnk9" id="link_ARCHETYPE_CONSTRAINT_C_OBJECT"><path codeLine="74" d="M404.13,483.58 C404.13,502.86 404.13,505.17 404.13,525.07" fill="none" id="ARCHETYPE_CONSTRAINT-backto-C_OBJECT" style="stroke:#181818;stroke-width:1;"/><polygon fill="none" points="404.13,465.58,398.13,483.58,410.13,483.58,404.13,465.58" style="stroke:#181818;stroke-width:1;"/></g><!--reverse link C_OBJECT to C_DEFINED_OBJECT--><g class="link" data-entity-1="C_OBJECT" data-entity-2="C_DEFINED_OBJECT" data-source-line="76" data-uid="lnk10" id="link_C_OBJECT_C_DEFINED_OBJECT"><path codeLine="76" d="M404.13,809.97 C404.13,830.65 404.13,833.2 404.13,851.47" fill="none" id="C_OBJECT-backto-C_DEFINED_OBJECT" style="stroke:#181818;stroke-width:1;"/><polygon fill="none" points="404.13,791.97,398.13,809.97,410.13,809.97,404.13,791.97" style="stroke:#181818;stroke-width:1;"/></g><!--reverse link C_DEFINED_OBJECT to C_PRIMITIVE_OBJECT--><g class="link" data-entity-1="C_DEFINED_OBJECT" data-entity-2="C_PRIMITIVE_OBJECT" data-source-line="78" data-uid="lnk11" id="link_C_DEFINED_OBJECT_C_PRIMITIVE_OBJECT"><path codeLine="78" d="M404.13,1002.08 C404.13,1020.64 404.13,1023.28 404.13,1043.37" fill="none" id="C_DEFINED_OBJECT-backto-C_PRIMITIVE_OBJECT" style="stroke:#181818;stroke-width:1;"/><polygon fill="none" points="404.13,984.08,398.13,1002.08,410.13,1002.08,404.13,984.08" style="stroke:#181818;stroke-width:1;"/></g><!--reverse link C_PRIMITIVE_OBJECT to C_BOOLEAN--><g class="link" data-entity-1="C_PRIMITIVE_OBJECT" data-entity-2="C_BOOLEAN" data-source-line="80" data-uid="lnk12" id="link_C_PRIMITIVE_OBJECT_C_BOOLEAN"><path codeLine="80" d="M404.13,1261.22 C404.13,1281.04 404.13,1283.65 404.13,1302.82" fill="none" id="C_PRIMITIVE_OBJECT-backto-C_BOOLEAN" style="stroke:#181818;stroke-width:1;"/><polygon fill="none" points="404.13,1243.22,398.13,1261.22,410.13,1261.22,404.13,1243.22" style="stroke:#181818;stroke-width:1;"/></g></g></svg>
