<svg xmlns="http://www.w3.org/2000/svg" xmlns:xlink="http://www.w3.org/1999/xlink" contentStyleType="text/css" data-diagram-type="CLASS" height="136px" preserveAspectRatio="none" style="width:293px;height:136px;background:#FFFFFF;" version="1.1" viewBox="0 0 293 136" width="293px" zoomAndPan="magnify"><defs/><g><!--class ARCHETYPE_TERM--><g class="entity" data-entity="ARCHETYPE_TERM" data-source-line="2" data-uid="ent0002" id="entity_ARCHETYPE_TERM"><rect fill="#F1F1F1" height="115.1997" rx="2.5" ry="2.5" style="stroke:#181818;stroke-width:0.5;" width="272.091" x="7" y="7"/><ellipse cx="78.2808" cy="23" fill="#ADD1B2" rx="11" ry="11" style="stroke:#181818;stroke-width:1;"/><path d="M78.2808,29.4219 C79.4527,29.4219 80.687,29.1563 82.062,28.5469 L81.5777,27.0313 C80.4839,27.4531 79.4683,27.6406 78.6089,27.6406 C75.8902,27.6406 74.1714,25.7969 74.1714,22.8906 C74.1714,20.1406 75.7339,18.5469 78.4683,18.5469 C79.3902,18.5469 80.4058,18.7344 81.5464,19.1563 L82.1245,17.6406 C81.0308,17.0625 79.7339,16.7656 78.5464,16.7656 C74.7808,16.7656 72.2027,19.4063 72.2027,23.2188 C72.2027,26.8906 74.687,29.4219 78.2808,29.4219 Z " fill="#000000"/><text fill="#000000" font-family="sans-serif" font-size="14" lengthAdjust="spacing" textLength="121.0295" x="98.7808" y="28.362">ARCHETYPE_TERM</text><line style="stroke:#181818;stroke-width:0.5;" x1="8" x2="278.091" y1="39" y2="39"/><ellipse cx="18" cy="52.9" fill="none" rx="3" ry="3" style="stroke:#038048;stroke-width:1;"/><text fill="#000000" font-family="sans-serif" font-size="14" lengthAdjust="spacing" textLength="95.8296" x="27" y="56.7619">code : String [1]</text><ellipse cx="18" cy="69.6999" fill="none" rx="3" ry="3" style="stroke:#038048;stroke-width:1;"/><text fill="#000000" font-family="sans-serif" font-size="14" lengthAdjust="spacing" textLength="90.0477" x="27" y="73.5619">text : String [1]</text><ellipse cx="18" cy="86.4998" fill="none" rx="3" ry="3" style="stroke:#038048;stroke-width:1;"/><text fill="#000000" font-family="sans-serif" font-size="14" lengthAdjust="spacing" textLength="135.4775" x="27" y="90.3618">description : String [1]</text><ellipse cx="18" cy="103.2997" fill="none" rx="3" ry="3" style="stroke:#038048;stroke-width:1;"/><text fill="#000000" font-family="sans-serif" font-size="14" lengthAdjust="spacing" textLength="246.091" x="27" y="107.1617">other_items : Hash&lt;String,String&gt; [0..1]</text><line style="stroke:#181818;stroke-width:0.5;" x1="8" x2="278.091" y1="114.1997" y2="114.1997"/></g></g></svg>
