<svg xmlns="http://www.w3.org/2000/svg" xmlns:xlink="http://www.w3.org/1999/xlink" contentStyleType="text/css" data-diagram-type="CLASS" height="270px" preserveAspectRatio="none" style="width:355px;height:270px;background:#FFFFFF;" version="1.1" viewBox="0 0 355 270" width="355px" zoomAndPan="magnify"><defs/><g><!--class ARCHETYPE--><g class="entity" data-entity="ARCHETYPE" data-source-line="2" data-uid="ent0002" id="entity_ARCHETYPE"><rect fill="#F1F1F1" height="249.5991" rx="2.5" ry="2.5" style="stroke:#181818;stroke-width:0.5;" width="334.0828" x="7" y="7"/><ellipse cx="131.1796" cy="23" fill="#A9DCDF" rx="11" ry="11" style="stroke:#181818;stroke-width:1;"/><path d="M125.6952,28.5 L127.7264,28.5 L131.7733,17.1563 L130.8671,17.1563 L134.6952,28.5 L136.8358,28.5 L132.5077,16.1719 L130.2889,16.1719 L125.6952,28.5 Z M128.0233,25 L134.4608,25 L134.4608,23.25 L128.0233,23.25 L128.0233,25 Z " fill="#000000"/><text fill="#000000" font-family="sans-serif" font-size="14" font-style="italic" lengthAdjust="spacing" textLength="77.2237" x="151.6796" y="28.362">ARCHETYPE</text><line style="stroke:#181818;stroke-width:0.5;" x1="8" x2="340.0828" y1="39" y2="39"/><ellipse cx="18" cy="52.9" fill="none" rx="3" ry="3" style="stroke:#038048;stroke-width:1;"/><text fill="#000000" font-family="sans-serif" font-size="14" lengthAdjust="spacing" textLength="209.4672" x="27" y="56.7619">parent_archetype_id : String [0..1]</text><ellipse cx="18" cy="69.6999" fill="none" rx="3" ry="3" style="stroke:#038048;stroke-width:1;"/><text fill="#000000" font-family="sans-serif" font-size="14" lengthAdjust="spacing" textLength="225.1331" x="27" y="73.5619">archetype_id : ARCHETYPE_HRID [1]</text><ellipse cx="18" cy="86.4998" fill="none" rx="3" ry="3" style="stroke:#038048;stroke-width:1;"/><text fill="#000000" font-family="sans-serif" font-size="14" lengthAdjust="spacing" textLength="165.0733" x="27" y="90.3618">is_differential : Boolean [1]</text><ellipse cx="18" cy="103.2997" fill="none" rx="3" ry="3" style="stroke:#038048;stroke-width:1;"/><text fill="#000000" font-family="sans-serif" font-size="14" lengthAdjust="spacing" textLength="224.6291" x="27" y="107.1617">definition : C_COMPLEX_OBJECT [1]</text><ellipse cx="18" cy="120.0997" fill="none" rx="3" ry="3" style="stroke:#038048;stroke-width:1;"/><text fill="#000000" font-family="sans-serif" font-size="14" lengthAdjust="spacing" textLength="286.2849" x="27" y="123.9616">terminology : ARCHETYPE_TERMINOLOGY [1]</text><ellipse cx="18" cy="136.8996" fill="none" rx="3" ry="3" style="stroke:#038048;stroke-width:1;"/><text fill="#000000" font-family="sans-serif" font-size="14" lengthAdjust="spacing" textLength="208.3751" x="27" y="140.7616">rules : List&lt;STATEMENT_SET&gt; [*]</text><ellipse cx="18" cy="153.6995" fill="none" rx="3" ry="3" style="stroke:#038048;stroke-width:1;"/><text fill="#000000" font-family="sans-serif" font-size="14" lengthAdjust="spacing" textLength="201.7112" x="27" y="157.5615">rm_overlay : RM_OVERLAY [0..1]</text><line style="stroke:#181818;stroke-width:0.5;" x1="8" x2="340.0828" y1="164.5995" y2="164.5995"/><ellipse cx="18" cy="178.4995" fill="#84BE84" rx="3" ry="3" style="stroke:#038048;stroke-width:1;"/><text fill="#000000" font-family="sans-serif" font-size="14" lengthAdjust="spacing" textLength="160.6494" x="27" y="182.3614">concept_code() : String [1]</text><ellipse cx="18" cy="195.2994" fill="#84BE84" rx="3" ry="3" style="stroke:#038048;stroke-width:1;"/><text fill="#000000" font-family="sans-serif" font-size="14" lengthAdjust="spacing" textLength="218.3012" x="27" y="199.1614">physical_paths() : List&lt;String&gt; [1..*]</text><ellipse cx="18" cy="212.0993" fill="#84BE84" rx="3" ry="3" style="stroke:#038048;stroke-width:1;"/><text fill="#000000" font-family="sans-serif" font-size="14" lengthAdjust="spacing" textLength="308.0828" x="27" y="215.9613">logical_paths( lang : String [1] ) : List&lt;String&gt; [1..*]</text><ellipse cx="18" cy="228.8992" fill="#84BE84" rx="3" ry="3" style="stroke:#038048;stroke-width:1;"/><text fill="#000000" font-family="sans-serif" font-size="14" lengthAdjust="spacing" textLength="209.5092" x="27" y="232.7612">specialisation_depth() : Integer [1]</text><ellipse cx="18" cy="245.6992" fill="#84BE84" rx="3" ry="3" style="stroke:#038048;stroke-width:1;"/><text fill="#000000" font-family="sans-serif" font-size="14" lengthAdjust="spacing" textLength="173.2353" x="27" y="249.5611">is_specialised() : Boolean [1]</text></g></g></svg>
