<svg xmlns="http://www.w3.org/2000/svg" xmlns:xlink="http://www.w3.org/1999/xlink" contentStyleType="text/css" data-diagram-type="CLASS" height="287px" preserveAspectRatio="none" style="width:773px;height:287px;background:#FFFFFF;" version="1.1" viewBox="0 0 773 287" width="773px" zoomAndPan="magnify"><defs/><g><!--class C_ATTRIBUTE_TUPLE--><g class="entity" data-entity="C_ATTRIBUTE_TUPLE" data-source-line="2" data-uid="ent0002" id="entity_C_ATTRIBUTE_TUPLE"><rect fill="#F1F1F1" height="115.1997" rx="2.5" ry="2.5" style="stroke:#181818;stroke-width:0.5;" width="759.8069" x="7" y="165.4"/><ellipse cx="315.0477" cy="181.4" fill="#ADD1B2" rx="11" ry="11" style="stroke:#181818;stroke-width:1;"/><path d="M315.0477,187.8219 C316.2196,187.8219 317.454,187.5563 318.829,186.9469 L318.3446,185.4313 C317.2508,185.8531 316.2352,186.0406 315.3758,186.0406 C312.6571,186.0406 310.9383,184.1969 310.9383,181.2906 C310.9383,178.5406 312.5008,176.9469 315.2352,176.9469 C316.1571,176.9469 317.1727,177.1344 318.3133,177.5563 L318.8915,176.0406 C317.7977,175.4625 316.5008,175.1656 315.3133,175.1656 C311.5477,175.1656 308.9696,177.8063 308.9696,181.6188 C308.9696,185.2906 311.454,187.8219 315.0477,187.8219 Z " fill="#000000"/><text fill="#000000" font-family="sans-serif" font-size="14" lengthAdjust="spacing" textLength="135.2114" x="335.5477" y="186.762">C_ATTRIBUTE_TUPLE</text><line style="stroke:#181818;stroke-width:0.5;" x1="8" x2="765.8069" y1="197.4" y2="197.4"/><ellipse cx="18" cy="211.3" fill="none" rx="3" ry="3" style="stroke:#038048;stroke-width:1;"/><text fill="#000000" font-family="sans-serif" font-size="14" lengthAdjust="spacing" textLength="234.7371" x="27" y="215.1619">tuples : List&lt;C_PRIMITIVE_TUPLE&gt; [*]</text><ellipse cx="18" cy="228.0999" fill="none" rx="3" ry="3" style="stroke:#038048;stroke-width:1;"/><text fill="#000000" font-family="sans-serif" font-size="14" lengthAdjust="spacing" textLength="214.2271" x="27" y="231.9619">members : List&lt;C_ATTRIBUTE&gt; [*]</text><line style="stroke:#181818;stroke-width:0.5;" x1="8" x2="765.8069" y1="238.9999" y2="238.9999"/><ellipse cx="18" cy="252.8998" fill="#84BE84" rx="3" ry="3" style="stroke:#038048;stroke-width:1;"/><text fill="#000000" font-family="sans-serif" font-size="14" lengthAdjust="spacing" textLength="733.8069" x="27" y="256.7618">c_conforms_to( other : C_ATTRIBUTE_TUPLE [1], rmcc : FUNCTION&lt;Boolean,TUPLE2&lt;String,String&gt;&gt; [1] ) : Boolean [1]</text><ellipse cx="18" cy="269.6997" fill="#84BE84" rx="3" ry="3" style="stroke:#038048;stroke-width:1;"/><text fill="#000000" font-family="sans-serif" font-size="14" lengthAdjust="spacing" textLength="378.9646" x="27" y="273.5617">c_congruent_to( other : C_SECOND_ORDER [1] ) : Boolean [1]</text></g><!--class C_SECOND_ORDER--><g class="entity" data-entity="C_SECOND_ORDER" data-source-line="9" data-uid="ent0003" id="entity_C_SECOND_ORDER"><rect fill="#F5F5F5" height="98.3998" rx="2.5" ry="2.5" style="stroke:#808080;stroke-width:1;stroke-dasharray:1,3;" width="749.7969" x="12.01" y="7"/><ellipse cx="320.0577" cy="23" fill="#A9DCDF" rx="11" ry="11" style="stroke:#181818;stroke-width:1;"/><path d="M314.5733,28.5 L316.6046,28.5 L320.6514,17.1563 L319.7452,17.1563 L323.5733,28.5 L325.7139,28.5 L321.3858,16.1719 L319.1671,16.1719 L314.5733,28.5 Z M316.9014,25 L323.3389,25 L323.3389,23.25 L316.9014,23.25 L316.9014,25 Z " fill="#000000"/><text fill="#808080" font-family="sans-serif" font-size="14" font-style="italic" lengthAdjust="spacing" textLength="125.2015" x="340.5577" y="28.362">C_SECOND_ORDER</text><line style="stroke:#808080;stroke-width:1;stroke-dasharray:1,3;" x1="13.01" x2="760.8069" y1="39" y2="39"/><ellipse cx="23.01" cy="52.9" fill="none" rx="3" ry="3" style="stroke:#038048;stroke-width:1;"/><text fill="#808080" font-family="sans-serif" font-size="14" lengthAdjust="spacing" textLength="296.5187" x="32.01" y="56.7619">members : List&lt;ARCHETYPE_CONSTRAINT&gt; [*]</text><line style="stroke:#808080;stroke-width:1;stroke-dasharray:1,3;" x1="13.01" x2="760.8069" y1="63.7999" y2="63.7999"/><ellipse cx="23.01" cy="77.6999" fill="#84BE84" rx="3" ry="3" style="stroke:#038048;stroke-width:1;"/><text fill="#808080" font-family="sans-serif" font-size="14" font-style="italic" lengthAdjust="spacing" textLength="723.7969" x="32.01" y="81.5619">c_conforms_to( other : C_SECOND_ORDER [1], rmcc : FUNCTION&lt;Boolean,TUPLE2&lt;String,String&gt;&gt; [1] ) : Boolean [1]</text><ellipse cx="23.01" cy="94.4998" fill="#84BE84" rx="3" ry="3" style="stroke:#038048;stroke-width:1;"/><text fill="#808080" font-family="sans-serif" font-size="14" font-style="italic" lengthAdjust="spacing" textLength="378.9646" x="32.01" y="98.3618">c_congruent_to( other : C_SECOND_ORDER [1] ) : Boolean [1]</text></g><!--reverse link C_SECOND_ORDER to C_ATTRIBUTE_TUPLE--><g class="link" data-entity-1="C_SECOND_ORDER" data-entity-2="C_ATTRIBUTE_TUPLE" data-source-line="15" data-uid="lnk4" id="link_C_SECOND_ORDER_C_ATTRIBUTE_TUPLE"><path codeLine="15" d="M386.9,123.75 C386.9,142.36 386.9,145.76 386.9,165.08" fill="none" id="C_SECOND_ORDER-backto-C_ATTRIBUTE_TUPLE" style="stroke:#181818;stroke-width:1;"/><polygon fill="none" points="386.9,105.75,380.9,123.75,392.9,123.75,386.9,105.75" style="stroke:#181818;stroke-width:1;"/></g></g></svg>
