<svg xmlns="http://www.w3.org/2000/svg" xmlns:xlink="http://www.w3.org/1999/xlink" contentStyleType="text/css" data-diagram-type="CLASS" height="304px" preserveAspectRatio="none" style="width:443px;height:304px;background:#FFFFFF;" version="1.1" viewBox="0 0 443 304" width="443px" zoomAndPan="magnify"><defs/><g><!--class C_ATTRIBUTE--><g class="entity" data-entity="C_ATTRIBUTE" data-source-line="2" data-uid="ent0002" id="entity_C_ATTRIBUTE"><rect fill="#F1F1F1" height="115.1997" rx="2.5" ry="2.5" style="stroke:#181818;stroke-width:0.5;" width="220.9492" x="111.47" y="182.2"/><ellipse cx="174.0078" cy="198.2" fill="#A9DCDF" rx="11" ry="11" style="stroke:#181818;stroke-width:1;"/><path d="M168.5234,203.7 L170.5547,203.7 L174.6016,192.3563 L173.6953,192.3563 L177.5234,203.7 L179.6641,203.7 L175.3359,191.3719 L173.1172,191.3719 L168.5234,203.7 Z M170.8516,200.2 L177.2891,200.2 L177.2891,198.45 L170.8516,198.45 L170.8516,200.2 Z " fill="#000000"/><text fill="#000000" font-family="sans-serif" font-size="14" font-style="italic" lengthAdjust="spacing" textLength="87.3736" x="194.5078" y="203.562">C_ATTRIBUTE</text><line style="stroke:#181818;stroke-width:0.5;" x1="112.47" x2="331.4192" y1="214.2" y2="214.2"/><ellipse cx="122.47" cy="228.1" fill="none" rx="3" ry="3" style="stroke:#038048;stroke-width:1;"/><text fill="#000000" font-family="sans-serif" font-size="14" lengthAdjust="spacing" textLength="186.8013" x="131.47" y="231.9619">rm_attribute_name : String [1]</text><ellipse cx="122.47" cy="244.8999" fill="none" rx="3" ry="3" style="stroke:#038048;stroke-width:1;"/><text fill="#000000" font-family="sans-serif" font-size="14" lengthAdjust="spacing" textLength="194.9492" x="131.47" y="248.7619">existence : Interval&lt;Integer&gt; [1]</text><ellipse cx="122.47" cy="261.6998" fill="none" rx="3" ry="3" style="stroke:#038048;stroke-width:1;"/><text fill="#000000" font-family="sans-serif" font-size="14" lengthAdjust="spacing" textLength="184.0993" x="131.47" y="265.5618">children : List&lt;C_OBJECT&gt; [*]</text><line style="stroke:#181818;stroke-width:0.5;" x1="112.47" x2="331.4192" y1="272.5998" y2="272.5998"/><ellipse cx="122.47" cy="286.4997" fill="#84BE84" rx="3" ry="3" style="stroke:#038048;stroke-width:1;"/><text fill="#000000" font-family="sans-serif" font-size="14" lengthAdjust="spacing" textLength="166.1093" x="131.47" y="290.3617">any_allowed() : Boolean [1]</text></g><!--class ARCHETYPE_CONSTRAINT--><g class="entity" data-entity="ARCHETYPE_CONSTRAINT" data-source-line="9" data-uid="ent0003" id="entity_ARCHETYPE_CONSTRAINT"><rect fill="#F5F5F5" height="115.1997" rx="2.5" ry="2.5" style="stroke:#808080;stroke-width:1;stroke-dasharray:1,3;" width="429.8984" x="7" y="7"/><ellipse cx="132.8665" cy="23" fill="#A9DCDF" rx="11" ry="11" style="stroke:#181818;stroke-width:1;"/><path d="M127.3822,28.5 L129.4134,28.5 L133.4603,17.1563 L132.554,17.1563 L136.3822,28.5 L138.5228,28.5 L134.1947,16.1719 L131.9759,16.1719 L127.3822,28.5 Z M129.7103,25 L136.1478,25 L136.1478,23.25 L129.7103,23.25 L129.7103,25 Z " fill="#000000"/><text fill="#808080" font-family="sans-serif" font-size="14" font-style="italic" lengthAdjust="spacing" textLength="169.6653" x="153.3665" y="28.362">ARCHETYPE_CONSTRAINT</text><line style="stroke:#808080;stroke-width:1;stroke-dasharray:1,3;" x1="8" x2="435.8984" y1="39" y2="39"/><line style="stroke:#808080;stroke-width:1;stroke-dasharray:1,3;" x1="8" x2="435.8984" y1="47" y2="47"/><ellipse cx="18" cy="60.9" fill="#84BE84" rx="3" ry="3" style="stroke:#038048;stroke-width:1;"/><text fill="#808080" font-family="sans-serif" font-size="14" font-style="italic" lengthAdjust="spacing" textLength="403.8984" x="27" y="64.7619">is_subset_of( other : ARCHETYPE_CONSTRAINT [1] ) : Boolean [1]</text><ellipse cx="18" cy="77.6999" fill="#84BE84" rx="3" ry="3" style="stroke:#038048;stroke-width:1;"/><text fill="#808080" font-family="sans-serif" font-size="14" font-style="italic" lengthAdjust="spacing" textLength="134.2035" x="27" y="81.5619">is_valid() : Boolean [1]</text><ellipse cx="18" cy="94.4998" fill="#84BE84" rx="3" ry="3" style="stroke:#038048;stroke-width:1;"/><text fill="#808080" font-family="sans-serif" font-size="14" lengthAdjust="spacing" textLength="102.5636" x="27" y="98.3618">path() : String [1]</text><ellipse cx="18" cy="111.2997" fill="#84BE84" rx="3" ry="3" style="stroke:#038048;stroke-width:1;"/><text fill="#808080" font-family="sans-serif" font-size="14" lengthAdjust="spacing" textLength="259.279" x="27" y="115.1617">has_path( a_path : String [1] ) : Boolean [1]</text></g><!--reverse link ARCHETYPE_CONSTRAINT to C_ATTRIBUTE--><g class="link" data-entity-1="ARCHETYPE_CONSTRAINT" data-entity-2="C_ATTRIBUTE" data-source-line="16" data-uid="lnk4" id="link_ARCHETYPE_CONSTRAINT_C_ATTRIBUTE"><path codeLine="16" d="M221.95,140.31 C221.95,159.45 221.95,162.81 221.95,181.96" fill="none" id="ARCHETYPE_CONSTRAINT-backto-C_ATTRIBUTE" style="stroke:#181818;stroke-width:1;"/><polygon fill="none" points="221.95,122.31,215.95,140.31,227.95,140.31,221.95,122.31" style="stroke:#181818;stroke-width:1;"/></g></g></svg>
