<svg xmlns="http://www.w3.org/2000/svg" xmlns:xlink="http://www.w3.org/1999/xlink" contentStyleType="text/css" data-diagram-type="CLASS" height="304px" preserveAspectRatio="none" style="width:564px;height:304px;background:#FFFFFF;" version="1.1" viewBox="0 0 564 304" width="564px" zoomAndPan="magnify"><defs/><g><!--class ARCHETYPE_ONTOLOGY--><g class="entity" data-entity="ARCHETYPE_ONTOLOGY" data-source-line="2" data-uid="ent0002" id="entity_ARCHETYPE_ONTOLOGY"><rect fill="#F1F1F1" height="283.199" rx="2.5" ry="2.5" style="stroke:#181818;stroke-width:0.5;" width="543.1301" x="7" y="7"/><ellipse cx="194.4244" cy="23" fill="#ADD1B2" rx="11" ry="11" style="stroke:#181818;stroke-width:1;"/><path d="M194.4244,29.4219 C195.5963,29.4219 196.8307,29.1563 198.2057,28.5469 L197.7213,27.0313 C196.6275,27.4531 195.6119,27.6406 194.7525,27.6406 C192.0338,27.6406 190.315,25.7969 190.315,22.8906 C190.315,20.1406 191.8775,18.5469 194.6119,18.5469 C195.5338,18.5469 196.5494,18.7344 197.69,19.1563 L198.2682,17.6406 C197.1744,17.0625 195.8775,16.7656 194.69,16.7656 C190.9244,16.7656 188.3463,19.4063 188.3463,23.2188 C188.3463,26.8906 190.8307,29.4219 194.4244,29.4219 Z " fill="#000000"/><text fill="#000000" font-family="sans-serif" font-size="14" lengthAdjust="spacing" textLength="159.7813" x="214.9244" y="28.362">ARCHETYPE_ONTOLOGY</text><line style="stroke:#181818;stroke-width:0.5;" x1="8" x2="549.1301" y1="39" y2="39"/><ellipse cx="18" cy="52.9" fill="none" rx="3" ry="3" style="stroke:#038048;stroke-width:1;"/><text fill="#000000" font-family="sans-serif" font-size="14" lengthAdjust="spacing" textLength="191.5052" x="27" y="56.7619">term_codes : List&lt;String&gt; [1..*]</text><ellipse cx="18" cy="69.6999" fill="none" rx="3" ry="3" style="stroke:#038048;stroke-width:1;"/><text fill="#000000" font-family="sans-serif" font-size="14" lengthAdjust="spacing" textLength="224.2231" x="27" y="73.5619">constraint_codes : List&lt;String&gt; [1..*]</text><ellipse cx="18" cy="86.4998" fill="none" rx="3" ry="3" style="stroke:#038048;stroke-width:1;"/><text fill="#000000" font-family="sans-serif" font-size="14" lengthAdjust="spacing" textLength="215.0672" x="27" y="90.3618">parent_archetype : ARCHETYPE [1]</text><ellipse cx="18" cy="103.2997" fill="none" rx="3" ry="3" style="stroke:#038048;stroke-width:1;"/><text fill="#000000" font-family="sans-serif" font-size="14" lengthAdjust="spacing" textLength="253.357" x="27" y="107.1617">terminologies_available : List&lt;String&gt; [*]</text><ellipse cx="18" cy="120.0997" fill="none" rx="3" ry="3" style="stroke:#038048;stroke-width:1;"/><text fill="#000000" font-family="sans-serif" font-size="14" lengthAdjust="spacing" textLength="201.0812" x="27" y="123.9616">specialisation_depth : Integer [1]</text><ellipse cx="18" cy="136.8996" fill="none" rx="3" ry="3" style="stroke:#038048;stroke-width:1;"/><text fill="#000000" font-family="sans-serif" font-size="14" lengthAdjust="spacing" textLength="257.795" x="27" y="140.7616">term_attribute_names : List&lt;String&gt; [1..*]</text><line style="stroke:#181818;stroke-width:0.5;" x1="8" x2="549.1301" y1="147.7996" y2="147.7996"/><ellipse cx="18" cy="161.6995" fill="#84BE84" rx="3" ry="3" style="stroke:#038048;stroke-width:1;"/><text fill="#000000" font-family="sans-serif" font-size="14" lengthAdjust="spacing" textLength="287.2789" x="27" y="165.5615">has_language( a_lang : String [1] ) : Boolean [1]</text><ellipse cx="18" cy="178.4995" fill="#84BE84" rx="3" ry="3" style="stroke:#038048;stroke-width:1;"/><text fill="#000000" font-family="sans-serif" font-size="14" lengthAdjust="spacing" textLength="373.3506" x="27" y="182.3614">has_terminology( a_terminology_id : String [1] ) : Boolean [1]</text><ellipse cx="18" cy="195.2994" fill="#84BE84" rx="3" ry="3" style="stroke:#038048;stroke-width:1;"/><text fill="#000000" font-family="sans-serif" font-size="14" lengthAdjust="spacing" textLength="299.7949" x="27" y="199.1614">has_term_code( a_code : String [1] ) : Boolean [1]</text><ellipse cx="18" cy="212.0993" fill="#84BE84" rx="3" ry="3" style="stroke:#038048;stroke-width:1;"/><text fill="#000000" font-family="sans-serif" font-size="14" lengthAdjust="spacing" textLength="332.5128" x="27" y="215.9613">has_constraint_code( a_code : String [1] ) : Boolean [1]</text><ellipse cx="18" cy="228.8992" fill="#84BE84" rx="3" ry="3" style="stroke:#038048;stroke-width:1;"/><text fill="#000000" font-family="sans-serif" font-size="14" lengthAdjust="spacing" textLength="484.4122" x="27" y="232.7612">term_definition( a_lang : String [1], a_code : String [1] ) : ARCHETYPE_TERM [1]</text><ellipse cx="18" cy="245.6992" fill="#84BE84" rx="3" ry="3" style="stroke:#038048;stroke-width:1;"/><text fill="#000000" font-family="sans-serif" font-size="14" lengthAdjust="spacing" textLength="517.1301" x="27" y="249.5611">constraint_definition( a_code : String [1], a_lang : String [1] ) : ARCHETYPE_TERM [1]</text><ellipse cx="18" cy="262.4991" fill="#84BE84" rx="3" ry="3" style="stroke:#038048;stroke-width:1;"/><text fill="#000000" font-family="sans-serif" font-size="14" lengthAdjust="spacing" textLength="496.2701" x="27" y="266.3611">term_binding( a_terminology : String [1], a_code : String [1] ) : CODE_PHRASE [1]</text><ellipse cx="18" cy="279.299" fill="#84BE84" rx="3" ry="3" style="stroke:#038048;stroke-width:1;"/><text fill="#000000" font-family="sans-serif" font-size="14" lengthAdjust="spacing" textLength="488.3323" x="27" y="283.161">constraint_binding( a_terminology_id : String [1], a_code : String [1] ) : String [1]</text></g></g></svg>
