<svg xmlns="http://www.w3.org/2000/svg" xmlns:xlink="http://www.w3.org/1999/xlink" contentStyleType="text/css" data-diagram-type="CLASS" height="405px" preserveAspectRatio="none" style="width:304px;height:405px;background:#FFFFFF;" version="1.1" viewBox="0 0 304 405" width="304px" zoomAndPan="magnify"><defs/><g><!--class C_DATE_TIME--><g class="entity" data-entity="C_DATE_TIME" data-source-line="2" data-uid="ent0002" id="entity_C_DATE_TIME"><rect fill="#F1F1F1" height="215.9993" rx="2.5" ry="2.5" style="stroke:#181818;stroke-width:0.5;" width="290.5569" x="7" y="182.2"/><ellipse cx="103.1727" cy="198.2" fill="#ADD1B2" rx="11" ry="11" style="stroke:#181818;stroke-width:1;"/><path d="M103.1727,204.6219 C104.3445,204.6219 105.5789,204.3563 106.9539,203.7469 L106.4695,202.2313 C105.3758,202.6531 104.3602,202.8406 103.5008,202.8406 C100.782,202.8406 99.0633,200.9969 99.0633,198.0906 C99.0633,195.3406 100.6258,193.7469 103.3602,193.7469 C104.282,193.7469 105.2977,193.9344 106.4383,194.3563 L107.0164,192.8406 C105.9227,192.2625 104.6258,191.9656 103.4383,191.9656 C99.6727,191.9656 97.0945,194.6063 97.0945,198.4188 C97.0945,202.0906 99.5789,204.6219 103.1727,204.6219 Z " fill="#000000"/><text fill="#000000" font-family="sans-serif" font-size="14" lengthAdjust="spacing" textLength="89.7116" x="123.6727" y="203.562">C_DATE_TIME</text><line style="stroke:#181818;stroke-width:0.5;" x1="8" x2="296.5569" y1="214.2" y2="214.2"/><ellipse cx="18" cy="228.1" fill="none" rx="3" ry="3" style="stroke:#038048;stroke-width:1;"/><text fill="#000000" font-family="sans-serif" font-size="14" lengthAdjust="spacing" textLength="234.4711" x="27" y="231.9619">month_validity : VALIDITY_KIND [0..1]</text><ellipse cx="18" cy="244.8999" fill="none" rx="3" ry="3" style="stroke:#038048;stroke-width:1;"/><text fill="#000000" font-family="sans-serif" font-size="14" lengthAdjust="spacing" textLength="215.0671" x="27" y="248.7619">day_validity : VALIDITY_KIND [0..1]</text><ellipse cx="18" cy="261.6998" fill="none" rx="3" ry="3" style="stroke:#038048;stroke-width:1;"/><text fill="#000000" font-family="sans-serif" font-size="14" lengthAdjust="spacing" textLength="222.1651" x="27" y="265.5618">hour_validity : VALIDITY_KIND [0..1]</text><ellipse cx="18" cy="278.4997" fill="none" rx="3" ry="3" style="stroke:#038048;stroke-width:1;"/><text fill="#000000" font-family="sans-serif" font-size="14" lengthAdjust="spacing" textLength="237.243" x="27" y="282.3617">minute_validity : VALIDITY_KIND [0..1]</text><ellipse cx="18" cy="295.2997" fill="none" rx="3" ry="3" style="stroke:#038048;stroke-width:1;"/><text fill="#000000" font-family="sans-serif" font-size="14" lengthAdjust="spacing" textLength="237.481" x="27" y="299.1616">second_validity : VALIDITY_KIND [0..1]</text><ellipse cx="18" cy="312.0996" fill="none" rx="3" ry="3" style="stroke:#038048;stroke-width:1;"/><text fill="#000000" font-family="sans-serif" font-size="14" lengthAdjust="spacing" textLength="264.5569" x="27" y="315.9616">millisecond_validity : VALIDITY_KIND [0..1]</text><ellipse cx="18" cy="328.8995" fill="none" rx="3" ry="3" style="stroke:#038048;stroke-width:1;"/><text fill="#000000" font-family="sans-serif" font-size="14" lengthAdjust="spacing" textLength="251.257" x="27" y="332.7615">timezone_validity : VALIDITY_KIND [0..1]</text><ellipse cx="18" cy="345.6995" fill="none" rx="3" ry="3" style="stroke:#038048;stroke-width:1;"/><text fill="#000000" font-family="sans-serif" font-size="14" lengthAdjust="spacing" textLength="262.345" x="27" y="349.5614">range : Interval&lt;Iso8601_date_time&gt; [0..1]</text><ellipse cx="18" cy="362.4994" fill="none" rx="3" ry="3" style="stroke:#038048;stroke-width:1;"/><text fill="#000000" font-family="sans-serif" font-size="14" lengthAdjust="spacing" textLength="258.9009" x="27" y="366.3614">assumed_value : Iso8601_date_time [0..1]</text><line style="stroke:#181818;stroke-width:0.5;" x1="8" x2="296.5569" y1="373.3993" y2="373.3993"/><ellipse cx="18" cy="387.2993" fill="#84BE84" rx="3" ry="3" style="stroke:#038048;stroke-width:1;"/><text fill="#000000" font-family="sans-serif" font-size="14" lengthAdjust="spacing" textLength="192.1772" x="27" y="391.1613">validity_is_range() : Boolean [1]</text></g><!--class C_PRIMITIVE--><g class="entity" data-entity="C_PRIMITIVE" data-source-line="15" data-uid="ent0003" id="entity_C_PRIMITIVE"><rect fill="#F5F5F5" height="115.1997" rx="2.5" ry="2.5" style="stroke:#808080;stroke-width:1;stroke-dasharray:1,3;" width="288.5269" x="8.02" y="7"/><ellipse cx="107.6576" cy="23" fill="#A9DCDF" rx="11" ry="11" style="stroke:#181818;stroke-width:1;"/><path d="M102.1732,28.5 L104.2045,28.5 L108.2514,17.1563 L107.3451,17.1563 L111.1732,28.5 L113.3139,28.5 L108.9857,16.1719 L106.767,16.1719 L102.1732,28.5 Z M104.5014,25 L110.9389,25 L110.9389,23.25 L104.5014,23.25 L104.5014,25 Z " fill="#000000"/><text fill="#808080" font-family="sans-serif" font-size="14" font-style="italic" lengthAdjust="spacing" textLength="80.7517" x="128.1576" y="28.362">C_PRIMITIVE</text><line style="stroke:#808080;stroke-width:1;stroke-dasharray:1,3;" x1="9.02" x2="295.5469" y1="39" y2="39"/><ellipse cx="19.02" cy="52.9" fill="none" rx="3" ry="3" style="stroke:#038048;stroke-width:1;"/><text fill="#808080" font-family="sans-serif" font-size="14" lengthAdjust="spacing" textLength="163.4633" x="28.02" y="56.7619">assumed_value : Any [0..1]</text><line style="stroke:#808080;stroke-width:1;stroke-dasharray:1,3;" x1="9.02" x2="295.5469" y1="63.7999" y2="63.7999"/><ellipse cx="19.02" cy="77.6999" fill="#84BE84" rx="3" ry="3" style="stroke:#038048;stroke-width:1;"/><text fill="#808080" font-family="sans-serif" font-size="14" font-style="italic" lengthAdjust="spacing" textLength="144.4374" x="28.02" y="81.5619">default_value() : Any [1]</text><ellipse cx="19.02" cy="94.4998" fill="#84BE84" rx="3" ry="3" style="stroke:#038048;stroke-width:1;"/><text fill="#808080" font-family="sans-serif" font-size="14" font-style="italic" lengthAdjust="spacing" textLength="212.3931" x="28.02" y="98.3618">has_assumed_value() : Boolean [1]</text><ellipse cx="19.02" cy="111.2997" fill="#84BE84" rx="3" ry="3" style="stroke:#038048;stroke-width:1;"/><text fill="#808080" font-family="sans-serif" font-size="14" font-style="italic" lengthAdjust="spacing" textLength="262.5269" x="28.02" y="115.1617">valid_value( a_value : Any [1] ) : Boolean [1]</text></g><!--reverse link C_PRIMITIVE to C_DATE_TIME--><g class="link" data-entity-1="C_PRIMITIVE" data-entity-2="C_DATE_TIME" data-source-line="22" data-uid="lnk4" id="link_C_PRIMITIVE_C_DATE_TIME"><path codeLine="22" d="M152.28,140.6 C152.28,158.72 152.28,161.38 152.28,181.85" fill="none" id="C_PRIMITIVE-backto-C_DATE_TIME" style="stroke:#181818;stroke-width:1;"/><polygon fill="none" points="152.28,122.6,146.28,140.6,158.28,140.6,152.28,122.6" style="stroke:#181818;stroke-width:1;"/></g></g></svg>
