<svg xmlns="http://www.w3.org/2000/svg" xmlns:xlink="http://www.w3.org/1999/xlink" contentStyleType="text/css" data-diagram-type="CLASS" height="220px" preserveAspectRatio="none" style="width:281px;height:220px;background:#FFFFFF;" version="1.1" viewBox="0 0 281 220" width="281px" zoomAndPan="magnify"><defs/><g><!--class EXPR_OPERATOR--><g class="entity" data-entity="EXPR_OPERATOR" data-source-line="2" data-uid="ent0002" id="entity_EXPR_OPERATOR"><rect fill="#F1F1F1" height="81.5999" rx="2.5" ry="2.5" style="stroke:#181818;stroke-width:0.5;" width="267.569" x="7" y="131.8"/><ellipse cx="80.4228" cy="147.8" fill="#A9DCDF" rx="11" ry="11" style="stroke:#181818;stroke-width:1;"/><path d="M74.9384,153.3 L76.9696,153.3 L81.0165,141.9563 L80.1103,141.9563 L83.9384,153.3 L86.079,153.3 L81.7509,140.9719 L79.5321,140.9719 L74.9384,153.3 Z M77.2665,149.8 L83.704,149.8 L83.704,148.05 L77.2665,148.05 L77.2665,149.8 Z " fill="#000000"/><text fill="#000000" font-family="sans-serif" font-size="14" font-style="italic" lengthAdjust="spacing" textLength="112.2235" x="100.9228" y="153.162">EXPR_OPERATOR</text><line style="stroke:#181818;stroke-width:0.5;" x1="8" x2="273.569" y1="163.8" y2="163.8"/><ellipse cx="18" cy="177.7" fill="none" rx="3" ry="3" style="stroke:#038048;stroke-width:1;"/><text fill="#000000" font-family="sans-serif" font-size="14" lengthAdjust="spacing" textLength="241.569" x="27" y="181.5619">precedence_overridden : Boolean [0..1]</text><ellipse cx="18" cy="194.4999" fill="none" rx="3" ry="3" style="stroke:#038048;stroke-width:1;"/><text fill="#000000" font-family="sans-serif" font-size="14" lengthAdjust="spacing" textLength="194.0532" x="27" y="198.3619">operator : OPERATOR_KIND [1]</text><line style="stroke:#181818;stroke-width:0.5;" x1="8" x2="273.569" y1="205.3999" y2="205.3999"/></g><!--class EXPR_ITEM--><g class="entity" data-entity="EXPR_ITEM" data-source-line="7" data-uid="ent0003" id="entity_EXPR_ITEM"><rect fill="#F5F5F5" height="64.7999" rx="2.5" ry="2.5" style="stroke:#808080;stroke-width:1;stroke-dasharray:1,3;" width="119.1416" x="81.21" y="7"/><ellipse cx="102.8781" cy="23" fill="#A9DCDF" rx="11" ry="11" style="stroke:#181818;stroke-width:1;"/><path d="M97.3937,28.5 L99.425,28.5 L103.4718,17.1563 L102.5656,17.1563 L106.3937,28.5 L108.5343,28.5 L104.2062,16.1719 L101.9875,16.1719 L97.3937,28.5 Z M99.7218,25 L106.1593,25 L106.1593,23.25 L99.7218,23.25 L99.7218,25 Z " fill="#000000"/><text fill="#808080" font-family="sans-serif" font-size="14" font-style="italic" lengthAdjust="spacing" textLength="72.3237" x="118.3599" y="28.362">EXPR_ITEM</text><line style="stroke:#808080;stroke-width:1;stroke-dasharray:1,3;" x1="82.21" x2="199.3516" y1="39" y2="39"/><ellipse cx="92.21" cy="52.9" fill="none" rx="3" ry="3" style="stroke:#038048;stroke-width:1;"/><text fill="#808080" font-family="sans-serif" font-size="14" lengthAdjust="spacing" textLength="93.1416" x="101.21" y="56.7619">type : String [1]</text><line style="stroke:#808080;stroke-width:1;stroke-dasharray:1,3;" x1="82.21" x2="199.3516" y1="63.7999" y2="63.7999"/></g><!--reverse link EXPR_ITEM to EXPR_OPERATOR--><g class="link" data-entity-1="EXPR_ITEM" data-entity-2="EXPR_OPERATOR" data-source-line="11" data-uid="lnk4" id="link_EXPR_ITEM_EXPR_OPERATOR"><path codeLine="11" d="M140.78,90.16 C140.78,108.06 140.78,112.58 140.78,131.67" fill="none" id="EXPR_ITEM-backto-EXPR_OPERATOR" style="stroke:#181818;stroke-width:1;"/><polygon fill="none" points="140.78,72.16,134.78,90.16,146.78,90.16,140.78,72.16" style="stroke:#181818;stroke-width:1;"/></g></g></svg>
