<svg xmlns="http://www.w3.org/2000/svg" xmlns:xlink="http://www.w3.org/1999/xlink" contentStyleType="text/css" data-diagram-type="CLASS" height="287px" preserveAspectRatio="none" style="width:302px;height:287px;background:#FFFFFF;" version="1.1" viewBox="0 0 302 287" width="302px" zoomAndPan="magnify"><defs/><g><!--class C_REAL--><g class="entity" data-entity="C_REAL" data-source-line="2" data-uid="ent0002" id="entity_C_REAL"><rect fill="#F1F1F1" height="98.3998" rx="2.5" ry="2.5" style="stroke:#181818;stroke-width:0.5;" width="196.6173" x="52.95" y="182.2"/><ellipse cx="122.6418" cy="198.2" fill="#ADD1B2" rx="11" ry="11" style="stroke:#181818;stroke-width:1;"/><path d="M122.6418,204.6219 C123.8136,204.6219 125.048,204.3563 126.423,203.7469 L125.9386,202.2313 C124.8449,202.6531 123.8293,202.8406 122.9699,202.8406 C120.2511,202.8406 118.5324,200.9969 118.5324,198.0906 C118.5324,195.3406 120.0949,193.7469 122.8293,193.7469 C123.7511,193.7469 124.7668,193.9344 125.9074,194.3563 L126.4855,192.8406 C125.3918,192.2625 124.0949,191.9656 122.9074,191.9656 C119.1418,191.9656 116.5636,194.6063 116.5636,198.4188 C116.5636,202.0906 119.048,204.6219 122.6418,204.6219 Z " fill="#000000"/><text fill="#000000" font-family="sans-serif" font-size="14" lengthAdjust="spacing" textLength="48.7338" x="143.1418" y="203.562">C_REAL</text><line style="stroke:#181818;stroke-width:0.5;" x1="53.95" x2="248.5673" y1="214.2" y2="214.2"/><ellipse cx="63.95" cy="228.1" fill="none" rx="3" ry="3" style="stroke:#038048;stroke-width:1;"/><text fill="#000000" font-family="sans-serif" font-size="14" lengthAdjust="spacing" textLength="113.5255" x="72.95" y="231.9619">list : List&lt;Real&gt; [*]</text><ellipse cx="63.95" cy="244.8999" fill="none" rx="3" ry="3" style="stroke:#038048;stroke-width:1;"/><text fill="#000000" font-family="sans-serif" font-size="14" lengthAdjust="spacing" textLength="170.6173" x="72.95" y="248.7619">range : Interval&lt;Real&gt; [0..1]</text><ellipse cx="63.95" cy="261.6998" fill="none" rx="3" ry="3" style="stroke:#038048;stroke-width:1;"/><text fill="#000000" font-family="sans-serif" font-size="14" lengthAdjust="spacing" textLength="167.1733" x="72.95" y="265.5618">assumed_value : Real [0..1]</text><line style="stroke:#181818;stroke-width:0.5;" x1="53.95" x2="248.5673" y1="272.5998" y2="272.5998"/></g><!--class C_PRIMITIVE--><g class="entity" data-entity="C_PRIMITIVE" data-source-line="8" data-uid="ent0003" id="entity_C_PRIMITIVE"><rect fill="#F5F5F5" height="115.1997" rx="2.5" ry="2.5" style="stroke:#808080;stroke-width:1;stroke-dasharray:1,3;" width="288.5269" x="7" y="7"/><ellipse cx="106.6376" cy="23" fill="#A9DCDF" rx="11" ry="11" style="stroke:#181818;stroke-width:1;"/><path d="M101.1532,28.5 L103.1845,28.5 L107.2314,17.1563 L106.3251,17.1563 L110.1532,28.5 L112.2939,28.5 L107.9657,16.1719 L105.747,16.1719 L101.1532,28.5 Z M103.4814,25 L109.9189,25 L109.9189,23.25 L103.4814,23.25 L103.4814,25 Z " fill="#000000"/><text fill="#808080" font-family="sans-serif" font-size="14" font-style="italic" lengthAdjust="spacing" textLength="80.7517" x="127.1376" y="28.362">C_PRIMITIVE</text><line style="stroke:#808080;stroke-width:1;stroke-dasharray:1,3;" x1="8" x2="294.5269" y1="39" y2="39"/><ellipse cx="18" cy="52.9" fill="none" rx="3" ry="3" style="stroke:#038048;stroke-width:1;"/><text fill="#808080" font-family="sans-serif" font-size="14" lengthAdjust="spacing" textLength="163.4633" x="27" y="56.7619">assumed_value : Any [0..1]</text><line style="stroke:#808080;stroke-width:1;stroke-dasharray:1,3;" x1="8" x2="294.5269" y1="63.7999" y2="63.7999"/><ellipse cx="18" cy="77.6999" fill="#84BE84" rx="3" ry="3" style="stroke:#038048;stroke-width:1;"/><text fill="#808080" font-family="sans-serif" font-size="14" font-style="italic" lengthAdjust="spacing" textLength="144.4374" x="27" y="81.5619">default_value() : Any [1]</text><ellipse cx="18" cy="94.4998" fill="#84BE84" rx="3" ry="3" style="stroke:#038048;stroke-width:1;"/><text fill="#808080" font-family="sans-serif" font-size="14" font-style="italic" lengthAdjust="spacing" textLength="212.3931" x="27" y="98.3618">has_assumed_value() : Boolean [1]</text><ellipse cx="18" cy="111.2997" fill="#84BE84" rx="3" ry="3" style="stroke:#038048;stroke-width:1;"/><text fill="#808080" font-family="sans-serif" font-size="14" font-style="italic" lengthAdjust="spacing" textLength="262.5269" x="27" y="115.1617">valid_value( a_value : Any [1] ) : Boolean [1]</text></g><!--reverse link C_PRIMITIVE to C_REAL--><g class="link" data-entity-1="C_PRIMITIVE" data-entity-2="C_REAL" data-source-line="15" data-uid="lnk4" id="link_C_PRIMITIVE_C_REAL"><path codeLine="15" d="M151.26,140.32 C151.26,159.68 151.26,163.15 151.26,181.82" fill="none" id="C_PRIMITIVE-backto-C_REAL" style="stroke:#181818;stroke-width:1;"/><polygon fill="none" points="151.26,122.32,145.26,140.32,157.26,140.32,151.26,122.32" style="stroke:#181818;stroke-width:1;"/></g></g></svg>
