<svg xmlns="http://www.w3.org/2000/svg" xmlns:xlink="http://www.w3.org/1999/xlink" contentStyleType="text/css" data-diagram-type="CLASS" height="321px" preserveAspectRatio="none" style="width:316px;height:321px;background:#FFFFFF;" version="1.1" viewBox="0 0 316 321" width="316px" zoomAndPan="magnify"><defs/><g><!--class C_STRING--><g class="entity" data-entity="C_STRING" data-source-line="2" data-uid="ent0002" id="entity_C_STRING"><rect fill="#F1F1F1" height="131.9996" rx="2.5" ry="2.5" style="stroke:#181818;stroke-width:0.5;" width="302.5409" x="7" y="182.2"/><ellipse cx="121.7086" cy="198.2" fill="#ADD1B2" rx="11" ry="11" style="stroke:#181818;stroke-width:1;"/><path d="M121.7086,204.6219 C122.8804,204.6219 124.1148,204.3563 125.4898,203.7469 L125.0054,202.2313 C123.9117,202.6531 122.8961,202.8406 122.0367,202.8406 C119.3179,202.8406 117.5992,200.9969 117.5992,198.0906 C117.5992,195.3406 119.1617,193.7469 121.8961,193.7469 C122.8179,193.7469 123.8336,193.9344 124.9742,194.3563 L125.5523,192.8406 C124.4586,192.2625 123.1617,191.9656 121.9742,191.9656 C118.2086,191.9656 115.6304,194.6063 115.6304,198.4188 C115.6304,202.0906 118.1148,204.6219 121.7086,204.6219 Z " fill="#000000"/><text fill="#000000" font-family="sans-serif" font-size="14" lengthAdjust="spacing" textLength="64.6237" x="142.2086" y="203.562">C_STRING</text><line style="stroke:#181818;stroke-width:0.5;" x1="8" x2="308.5409" y1="214.2" y2="214.2"/><ellipse cx="18" cy="228.1" fill="none" rx="3" ry="3" style="stroke:#038048;stroke-width:1;"/><text fill="#000000" font-family="sans-serif" font-size="14" lengthAdjust="spacing" textLength="127.6235" x="27" y="231.9619">pattern : String [0..1]</text><ellipse cx="18" cy="244.8999" fill="none" rx="3" ry="3" style="stroke:#038048;stroke-width:1;"/><text fill="#000000" font-family="sans-serif" font-size="14" lengthAdjust="spacing" textLength="123.8295" x="27" y="248.7619">list : List&lt;String&gt; [*]</text><ellipse cx="18" cy="261.6998" fill="none" rx="3" ry="3" style="stroke:#038048;stroke-width:1;"/><text fill="#000000" font-family="sans-serif" font-size="14" lengthAdjust="spacing" textLength="136.7795" x="27" y="265.5618">list_open : Boolean [1]</text><ellipse cx="18" cy="278.4997" fill="none" rx="3" ry="3" style="stroke:#038048;stroke-width:1;"/><text fill="#000000" font-family="sans-serif" font-size="14" lengthAdjust="spacing" textLength="177.4773" x="27" y="282.3617">assumed_value : String [0..1]</text><line style="stroke:#181818;stroke-width:0.5;" x1="8" x2="308.5409" y1="289.3997" y2="289.3997"/><ellipse cx="18" cy="303.2997" fill="#84BE84" rx="3" ry="3" style="stroke:#038048;stroke-width:1;"/><text fill="#000000" font-family="sans-serif" font-size="14" lengthAdjust="spacing" textLength="276.5409" x="27" y="307.1616">valid_value( a_value : String [1] ) : Boolean [1]</text></g><!--class C_PRIMITIVE--><g class="entity" data-entity="C_PRIMITIVE" data-source-line="10" data-uid="ent0003" id="entity_C_PRIMITIVE"><rect fill="#F5F5F5" height="115.1997" rx="2.5" ry="2.5" style="stroke:#808080;stroke-width:1;stroke-dasharray:1,3;" width="288.5269" x="14.01" y="7"/><ellipse cx="113.6476" cy="23" fill="#A9DCDF" rx="11" ry="11" style="stroke:#181818;stroke-width:1;"/><path d="M108.1632,28.5 L110.1945,28.5 L114.2414,17.1563 L113.3351,17.1563 L117.1632,28.5 L119.3039,28.5 L114.9757,16.1719 L112.757,16.1719 L108.1632,28.5 Z M110.4914,25 L116.9289,25 L116.9289,23.25 L110.4914,23.25 L110.4914,25 Z " fill="#000000"/><text fill="#808080" font-family="sans-serif" font-size="14" font-style="italic" lengthAdjust="spacing" textLength="80.7517" x="134.1476" y="28.362">C_PRIMITIVE</text><line style="stroke:#808080;stroke-width:1;stroke-dasharray:1,3;" x1="15.01" x2="301.5369" y1="39" y2="39"/><ellipse cx="25.01" cy="52.9" fill="none" rx="3" ry="3" style="stroke:#038048;stroke-width:1;"/><text fill="#808080" font-family="sans-serif" font-size="14" lengthAdjust="spacing" textLength="163.4633" x="34.01" y="56.7619">assumed_value : Any [0..1]</text><line style="stroke:#808080;stroke-width:1;stroke-dasharray:1,3;" x1="15.01" x2="301.5369" y1="63.7999" y2="63.7999"/><ellipse cx="25.01" cy="77.6999" fill="#84BE84" rx="3" ry="3" style="stroke:#038048;stroke-width:1;"/><text fill="#808080" font-family="sans-serif" font-size="14" font-style="italic" lengthAdjust="spacing" textLength="144.4374" x="34.01" y="81.5619">default_value() : Any [1]</text><ellipse cx="25.01" cy="94.4998" fill="#84BE84" rx="3" ry="3" style="stroke:#038048;stroke-width:1;"/><text fill="#808080" font-family="sans-serif" font-size="14" font-style="italic" lengthAdjust="spacing" textLength="212.3931" x="34.01" y="98.3618">has_assumed_value() : Boolean [1]</text><ellipse cx="25.01" cy="111.2997" fill="#84BE84" rx="3" ry="3" style="stroke:#038048;stroke-width:1;"/><text fill="#808080" font-family="sans-serif" font-size="14" font-style="italic" lengthAdjust="spacing" textLength="262.5269" x="34.01" y="115.1617">valid_value( a_value : Any [1] ) : Boolean [1]</text></g><!--reverse link C_PRIMITIVE to C_STRING--><g class="link" data-entity-1="C_PRIMITIVE" data-entity-2="C_STRING" data-source-line="17" data-uid="lnk4" id="link_C_PRIMITIVE_C_STRING"><path codeLine="17" d="M158.27,140.56 C158.27,159.39 158.27,162.48 158.27,181.88" fill="none" id="C_PRIMITIVE-backto-C_STRING" style="stroke:#181818;stroke-width:1;"/><polygon fill="none" points="158.27,122.56,152.27,140.56,164.27,140.56,158.27,122.56" style="stroke:#181818;stroke-width:1;"/></g></g></svg>
