<svg xmlns="http://www.w3.org/2000/svg" xmlns:xlink="http://www.w3.org/1999/xlink" contentStyleType="text/css" data-diagram-type="CLASS" height="169px" preserveAspectRatio="none" style="width:230px;height:169px;background:#FFFFFF;" version="1.1" viewBox="0 0 230 169" width="230px" zoomAndPan="magnify"><defs/><g><!--class CARDINALITY--><g class="entity" data-entity="CARDINALITY" data-source-line="2" data-uid="ent0002" id="entity_CARDINALITY"><rect fill="#F1F1F1" height="148.7996" rx="2.5" ry="2.5" style="stroke:#181818;stroke-width:0.5;" width="209.6233" x="7" y="7"/><ellipse cx="64.4138" cy="23" fill="#ADD1B2" rx="11" ry="11" style="stroke:#181818;stroke-width:1;"/><path d="M64.4138,29.4219 C65.5857,29.4219 66.8201,29.1563 68.1951,28.5469 L67.7107,27.0313 C66.6169,27.4531 65.6013,27.6406 64.7419,27.6406 C62.0232,27.6406 60.3044,25.7969 60.3044,22.8906 C60.3044,20.1406 61.8669,18.5469 64.6013,18.5469 C65.5232,18.5469 66.5388,18.7344 67.6794,19.1563 L68.2576,17.6406 C67.1638,17.0625 65.8669,16.7656 64.6794,16.7656 C60.9138,16.7656 58.3357,19.4063 58.3357,23.2188 C58.3357,26.8906 60.8201,29.4219 64.4138,29.4219 Z " fill="#000000"/><text fill="#000000" font-family="sans-serif" font-size="14" lengthAdjust="spacing" textLength="86.2957" x="84.9138" y="28.362">CARDINALITY</text><line style="stroke:#181818;stroke-width:0.5;" x1="8" x2="215.6233" y1="39" y2="39"/><ellipse cx="18" cy="52.9" fill="none" rx="3" ry="3" style="stroke:#038048;stroke-width:1;"/><text fill="#000000" font-family="sans-serif" font-size="14" lengthAdjust="spacing" textLength="183.6233" x="27" y="56.7619">interval : Interval&lt;Integer&gt; [1]</text><ellipse cx="18" cy="69.6999" fill="none" rx="3" ry="3" style="stroke:#038048;stroke-width:1;"/><text fill="#000000" font-family="sans-serif" font-size="14" lengthAdjust="spacing" textLength="145.8094" x="27" y="73.5619">is_ordered : Boolean [1]</text><ellipse cx="18" cy="86.4998" fill="none" rx="3" ry="3" style="stroke:#038048;stroke-width:1;"/><text fill="#000000" font-family="sans-serif" font-size="14" lengthAdjust="spacing" textLength="138.9494" x="27" y="90.3618">is_unique : Boolean [1]</text><line style="stroke:#181818;stroke-width:0.5;" x1="8" x2="215.6233" y1="97.3998" y2="97.3998"/><ellipse cx="18" cy="111.2997" fill="#84BE84" rx="3" ry="3" style="stroke:#038048;stroke-width:1;"/><text fill="#000000" font-family="sans-serif" font-size="14" lengthAdjust="spacing" textLength="128.1275" x="27" y="115.1617">is_bag() : Boolean [1]</text><ellipse cx="18" cy="128.0997" fill="#84BE84" rx="3" ry="3" style="stroke:#038048;stroke-width:1;"/><text fill="#000000" font-family="sans-serif" font-size="14" lengthAdjust="spacing" textLength="123.8855" x="27" y="131.9616">is_list() : Boolean [1]</text><ellipse cx="18" cy="144.8996" fill="#84BE84" rx="3" ry="3" style="stroke:#038048;stroke-width:1;"/><text fill="#000000" font-family="sans-serif" font-size="14" lengthAdjust="spacing" textLength="123.9415" x="27" y="148.7616">is_set() : Boolean [1]</text></g></g></svg>
