<svg xmlns="http://www.w3.org/2000/svg" xmlns:xlink="http://www.w3.org/1999/xlink" contentStyleType="text/css" data-diagram-type="CLASS" height="304px" preserveAspectRatio="none" style="width:302px;height:304px;background:#FFFFFF;" version="1.1" viewBox="0 0 302 304" width="302px" zoomAndPan="magnify"><defs/><g><!--class C_DATE--><g class="entity" data-entity="C_DATE" data-source-line="2" data-uid="ent0002" id="entity_C_DATE"><rect fill="#F1F1F1" height="115.1997" rx="2.5" ry="2.5" style="stroke:#181818;stroke-width:0.5;" width="260.4711" x="21.03" y="182.2"/><ellipse cx="121.5916" cy="198.2" fill="#ADD1B2" rx="11" ry="11" style="stroke:#181818;stroke-width:1;"/><path d="M121.5916,204.6219 C122.7635,204.6219 123.9979,204.3563 125.3729,203.7469 L124.8885,202.2313 C123.7948,202.6531 122.7791,202.8406 121.9198,202.8406 C119.201,202.8406 117.4823,200.9969 117.4823,198.0906 C117.4823,195.3406 119.0448,193.7469 121.7791,193.7469 C122.701,193.7469 123.7166,193.9344 124.8573,194.3563 L125.4354,192.8406 C124.3416,192.2625 123.0448,191.9656 121.8573,191.9656 C118.0916,191.9656 115.5135,194.6063 115.5135,198.4188 C115.5135,202.0906 117.9979,204.6219 121.5916,204.6219 Z " fill="#000000"/><text fill="#000000" font-family="sans-serif" font-size="14" lengthAdjust="spacing" textLength="50.8478" x="142.0916" y="203.562">C_DATE</text><line style="stroke:#181818;stroke-width:0.5;" x1="22.03" x2="280.5011" y1="214.2" y2="214.2"/><ellipse cx="32.03" cy="228.1" fill="none" rx="3" ry="3" style="stroke:#038048;stroke-width:1;"/><text fill="#000000" font-family="sans-serif" font-size="14" lengthAdjust="spacing" textLength="215.0671" x="41.03" y="231.9619">day_validity : VALIDITY_KIND [0..1]</text><ellipse cx="32.03" cy="244.8999" fill="none" rx="3" ry="3" style="stroke:#038048;stroke-width:1;"/><text fill="#000000" font-family="sans-serif" font-size="14" lengthAdjust="spacing" textLength="234.4711" x="41.03" y="248.7619">month_validity : VALIDITY_KIND [0..1]</text><ellipse cx="32.03" cy="261.6998" fill="none" rx="3" ry="3" style="stroke:#038048;stroke-width:1;"/><text fill="#000000" font-family="sans-serif" font-size="14" lengthAdjust="spacing" textLength="227.0511" x="41.03" y="265.5618">range : Interval&lt;Iso8601_date&gt; [0..1]</text><ellipse cx="32.03" cy="278.4997" fill="none" rx="3" ry="3" style="stroke:#038048;stroke-width:1;"/><text fill="#000000" font-family="sans-serif" font-size="14" lengthAdjust="spacing" textLength="223.6071" x="41.03" y="282.3617">assumed_value : Iso8601_date [0..1]</text><line style="stroke:#181818;stroke-width:0.5;" x1="22.03" x2="280.5011" y1="289.3997" y2="289.3997"/></g><!--class C_PRIMITIVE--><g class="entity" data-entity="C_PRIMITIVE" data-source-line="9" data-uid="ent0003" id="entity_C_PRIMITIVE"><rect fill="#F5F5F5" height="115.1997" rx="2.5" ry="2.5" style="stroke:#808080;stroke-width:1;stroke-dasharray:1,3;" width="288.5269" x="7" y="7"/><ellipse cx="106.6376" cy="23" fill="#A9DCDF" rx="11" ry="11" style="stroke:#181818;stroke-width:1;"/><path d="M101.1532,28.5 L103.1845,28.5 L107.2314,17.1563 L106.3251,17.1563 L110.1532,28.5 L112.2939,28.5 L107.9657,16.1719 L105.747,16.1719 L101.1532,28.5 Z M103.4814,25 L109.9189,25 L109.9189,23.25 L103.4814,23.25 L103.4814,25 Z " fill="#000000"/><text fill="#808080" font-family="sans-serif" font-size="14" font-style="italic" lengthAdjust="spacing" textLength="80.7517" x="127.1376" y="28.362">C_PRIMITIVE</text><line style="stroke:#808080;stroke-width:1;stroke-dasharray:1,3;" x1="8" x2="294.5269" y1="39" y2="39"/><ellipse cx="18" cy="52.9" fill="none" rx="3" ry="3" style="stroke:#038048;stroke-width:1;"/><text fill="#808080" font-family="sans-serif" font-size="14" lengthAdjust="spacing" textLength="163.4633" x="27" y="56.7619">assumed_value : Any [0..1]</text><line style="stroke:#808080;stroke-width:1;stroke-dasharray:1,3;" x1="8" x2="294.5269" y1="63.7999" y2="63.7999"/><ellipse cx="18" cy="77.6999" fill="#84BE84" rx="3" ry="3" style="stroke:#038048;stroke-width:1;"/><text fill="#808080" font-family="sans-serif" font-size="14" font-style="italic" lengthAdjust="spacing" textLength="144.4374" x="27" y="81.5619">default_value() : Any [1]</text><ellipse cx="18" cy="94.4998" fill="#84BE84" rx="3" ry="3" style="stroke:#038048;stroke-width:1;"/><text fill="#808080" font-family="sans-serif" font-size="14" font-style="italic" lengthAdjust="spacing" textLength="212.3931" x="27" y="98.3618">has_assumed_value() : Boolean [1]</text><ellipse cx="18" cy="111.2997" fill="#84BE84" rx="3" ry="3" style="stroke:#038048;stroke-width:1;"/><text fill="#808080" font-family="sans-serif" font-size="14" font-style="italic" lengthAdjust="spacing" textLength="262.5269" x="27" y="115.1617">valid_value( a_value : Any [1] ) : Boolean [1]</text></g><!--reverse link C_PRIMITIVE to C_DATE--><g class="link" data-entity-1="C_PRIMITIVE" data-entity-2="C_DATE" data-source-line="16" data-uid="lnk4" id="link_C_PRIMITIVE_C_DATE"><path codeLine="16" d="M151.26,140.31 C151.26,159.45 151.26,162.81 151.26,181.96" fill="none" id="C_PRIMITIVE-backto-C_DATE" style="stroke:#181818;stroke-width:1;"/><polygon fill="none" points="151.26,122.31,145.26,140.31,157.26,140.31,151.26,122.31" style="stroke:#181818;stroke-width:1;"/></g></g></svg>
