<svg xmlns="http://www.w3.org/2000/svg" xmlns:xlink="http://www.w3.org/1999/xlink" contentStyleType="text/css" data-diagram-type="CLASS" height="287px" preserveAspectRatio="none" style="width:443px;height:287px;background:#FFFFFF;" version="1.1" viewBox="0 0 443 287" width="443px" zoomAndPan="magnify"><defs/><g><!--class C_OBJECT--><g class="entity" data-entity="C_OBJECT" data-source-line="2" data-uid="ent0002" id="entity_C_OBJECT"><rect fill="#F1F1F1" height="98.3998" rx="2.5" ry="2.5" style="stroke:#181818;stroke-width:0.5;" width="237.8752" x="103.01" y="182.2"/><ellipse cx="184.6017" cy="198.2" fill="#A9DCDF" rx="11" ry="11" style="stroke:#181818;stroke-width:1;"/><path d="M179.1174,203.7 L181.1486,203.7 L185.1955,192.3563 L184.2892,192.3563 L188.1174,203.7 L190.258,203.7 L185.9299,191.3719 L183.7111,191.3719 L179.1174,203.7 Z M181.4455,200.2 L187.883,200.2 L187.883,198.45 L181.4455,198.45 L181.4455,200.2 Z " fill="#000000"/><text fill="#000000" font-family="sans-serif" font-size="14" font-style="italic" lengthAdjust="spacing" textLength="66.1917" x="205.1017" y="203.562">C_OBJECT</text><line style="stroke:#181818;stroke-width:0.5;" x1="104.01" x2="339.8852" y1="214.2" y2="214.2"/><ellipse cx="114.01" cy="228.1" fill="none" rx="3" ry="3" style="stroke:#038048;stroke-width:1;"/><text fill="#000000" font-family="sans-serif" font-size="14" lengthAdjust="spacing" textLength="159.7254" x="123.01" y="231.9619">rm_type_name : String [1]</text><ellipse cx="114.01" cy="244.8999" fill="none" rx="3" ry="3" style="stroke:#038048;stroke-width:1;"/><text fill="#000000" font-family="sans-serif" font-size="14" lengthAdjust="spacing" textLength="211.8752" x="123.01" y="248.7619">occurrences : Interval&lt;Integer&gt; [1]</text><ellipse cx="114.01" cy="261.6998" fill="none" rx="3" ry="3" style="stroke:#038048;stroke-width:1;"/><text fill="#000000" font-family="sans-serif" font-size="14" lengthAdjust="spacing" textLength="115.6535" x="123.01" y="265.5618">node_id : String [1]</text><line style="stroke:#181818;stroke-width:0.5;" x1="104.01" x2="339.8852" y1="272.5998" y2="272.5998"/></g><!--class ARCHETYPE_CONSTRAINT--><g class="entity" data-entity="ARCHETYPE_CONSTRAINT" data-source-line="8" data-uid="ent0003" id="entity_ARCHETYPE_CONSTRAINT"><rect fill="#F5F5F5" height="115.1997" rx="2.5" ry="2.5" style="stroke:#808080;stroke-width:1;stroke-dasharray:1,3;" width="429.8984" x="7" y="7"/><ellipse cx="132.8665" cy="23" fill="#A9DCDF" rx="11" ry="11" style="stroke:#181818;stroke-width:1;"/><path d="M127.3822,28.5 L129.4134,28.5 L133.4603,17.1563 L132.554,17.1563 L136.3822,28.5 L138.5228,28.5 L134.1947,16.1719 L131.9759,16.1719 L127.3822,28.5 Z M129.7103,25 L136.1478,25 L136.1478,23.25 L129.7103,23.25 L129.7103,25 Z " fill="#000000"/><text fill="#808080" font-family="sans-serif" font-size="14" font-style="italic" lengthAdjust="spacing" textLength="169.6653" x="153.3665" y="28.362">ARCHETYPE_CONSTRAINT</text><line style="stroke:#808080;stroke-width:1;stroke-dasharray:1,3;" x1="8" x2="435.8984" y1="39" y2="39"/><line style="stroke:#808080;stroke-width:1;stroke-dasharray:1,3;" x1="8" x2="435.8984" y1="47" y2="47"/><ellipse cx="18" cy="60.9" fill="#84BE84" rx="3" ry="3" style="stroke:#038048;stroke-width:1;"/><text fill="#808080" font-family="sans-serif" font-size="14" font-style="italic" lengthAdjust="spacing" textLength="403.8984" x="27" y="64.7619">is_subset_of( other : ARCHETYPE_CONSTRAINT [1] ) : Boolean [1]</text><ellipse cx="18" cy="77.6999" fill="#84BE84" rx="3" ry="3" style="stroke:#038048;stroke-width:1;"/><text fill="#808080" font-family="sans-serif" font-size="14" font-style="italic" lengthAdjust="spacing" textLength="134.2035" x="27" y="81.5619">is_valid() : Boolean [1]</text><ellipse cx="18" cy="94.4998" fill="#84BE84" rx="3" ry="3" style="stroke:#038048;stroke-width:1;"/><text fill="#808080" font-family="sans-serif" font-size="14" lengthAdjust="spacing" textLength="102.5636" x="27" y="98.3618">path() : String [1]</text><ellipse cx="18" cy="111.2997" fill="#84BE84" rx="3" ry="3" style="stroke:#038048;stroke-width:1;"/><text fill="#808080" font-family="sans-serif" font-size="14" lengthAdjust="spacing" textLength="259.279" x="27" y="115.1617">has_path( a_path : String [1] ) : Boolean [1]</text></g><!--reverse link ARCHETYPE_CONSTRAINT to C_OBJECT--><g class="link" data-entity-1="ARCHETYPE_CONSTRAINT" data-entity-2="C_OBJECT" data-source-line="15" data-uid="lnk4" id="link_ARCHETYPE_CONSTRAINT_C_OBJECT"><path codeLine="15" d="M221.95,140.32 C221.95,159.68 221.95,163.15 221.95,181.82" fill="none" id="ARCHETYPE_CONSTRAINT-backto-C_OBJECT" style="stroke:#181818;stroke-width:1;"/><polygon fill="none" points="221.95,122.32,215.95,140.32,227.95,140.32,221.95,122.32" style="stroke:#181818;stroke-width:1;"/></g></g></svg>
