<svg xmlns="http://www.w3.org/2000/svg" xmlns:xlink="http://www.w3.org/1999/xlink" contentStyleType="text/css" data-diagram-type="CLASS" height="445px" preserveAspectRatio="none" style="width:443px;height:445px;background:#FFFFFF;" version="1.1" viewBox="0 0 443 445" width="443px" zoomAndPan="magnify"><defs/><g><!--class C_MULTIPLE_ATTRIBUTE--><g class="entity" data-entity="C_MULTIPLE_ATTRIBUTE" data-source-line="2" data-uid="ent0002" id="entity_C_MULTIPLE_ATTRIBUTE"><rect fill="#F1F1F1" height="81.5999" rx="2.5" ry="2.5" style="stroke:#181818;stroke-width:0.5;" width="227.4732" x="108.21" y="357.4"/><ellipse cx="140.0462" cy="373.4" fill="#ADD1B2" rx="11" ry="11" style="stroke:#181818;stroke-width:1;"/><path d="M140.0462,379.8219 C141.2181,379.8219 142.4525,379.5563 143.8275,378.9469 L143.3431,377.4313 C142.2493,377.8531 141.2337,378.0406 140.3743,378.0406 C137.6556,378.0406 135.9368,376.1969 135.9368,373.2906 C135.9368,370.5406 137.4993,368.9469 140.2337,368.9469 C141.1556,368.9469 142.1712,369.1344 143.3118,369.5563 L143.89,368.0406 C142.7962,367.4625 141.4993,367.1656 140.3118,367.1656 C136.5462,367.1656 133.9681,369.8063 133.9681,373.6188 C133.9681,377.2906 136.4525,379.8219 140.0462,379.8219 Z " fill="#000000"/><text fill="#000000" font-family="sans-serif" font-size="14" lengthAdjust="spacing" textLength="158.0594" x="157.7876" y="378.762">C_MULTIPLE_ATTRIBUTE</text><line style="stroke:#181818;stroke-width:0.5;" x1="109.21" x2="334.6832" y1="389.4" y2="389.4"/><ellipse cx="119.21" cy="403.3" fill="none" rx="3" ry="3" style="stroke:#038048;stroke-width:1;"/><text fill="#000000" font-family="sans-serif" font-size="14" lengthAdjust="spacing" textLength="179.4653" x="128.21" y="407.1619">cardinality : CARDINALITY [1]</text><line style="stroke:#181818;stroke-width:0.5;" x1="109.21" x2="334.6832" y1="414.1999" y2="414.1999"/><ellipse cx="119.21" cy="428.0999" fill="#84BE84" rx="3" ry="3" style="stroke:#038048;stroke-width:1;"/><text fill="#000000" font-family="sans-serif" font-size="14" lengthAdjust="spacing" textLength="201.4732" x="128.21" y="431.9619">members() : List&lt;C_OBJECT&gt; [*]</text></g><!--class C_ATTRIBUTE--><g class="entity" data-entity="C_ATTRIBUTE" data-source-line="7" data-uid="ent0003" id="entity_C_ATTRIBUTE"><rect fill="#F5F5F5" height="115.1997" rx="2.5" ry="2.5" style="stroke:#808080;stroke-width:1;stroke-dasharray:1,3;" width="220.9492" x="111.47" y="182.2"/><ellipse cx="174.0078" cy="198.2" fill="#A9DCDF" rx="11" ry="11" style="stroke:#181818;stroke-width:1;"/><path d="M168.5234,203.7 L170.5547,203.7 L174.6016,192.3563 L173.6953,192.3563 L177.5234,203.7 L179.6641,203.7 L175.3359,191.3719 L173.1172,191.3719 L168.5234,203.7 Z M170.8516,200.2 L177.2891,200.2 L177.2891,198.45 L170.8516,198.45 L170.8516,200.2 Z " fill="#000000"/><text fill="#808080" font-family="sans-serif" font-size="14" font-style="italic" lengthAdjust="spacing" textLength="87.3736" x="194.5078" y="203.562">C_ATTRIBUTE</text><line style="stroke:#808080;stroke-width:1;stroke-dasharray:1,3;" x1="112.47" x2="331.4192" y1="214.2" y2="214.2"/><ellipse cx="122.47" cy="228.1" fill="none" rx="3" ry="3" style="stroke:#038048;stroke-width:1;"/><text fill="#808080" font-family="sans-serif" font-size="14" lengthAdjust="spacing" textLength="186.8013" x="131.47" y="231.9619">rm_attribute_name : String [1]</text><ellipse cx="122.47" cy="244.8999" fill="none" rx="3" ry="3" style="stroke:#038048;stroke-width:1;"/><text fill="#808080" font-family="sans-serif" font-size="14" lengthAdjust="spacing" textLength="194.9492" x="131.47" y="248.7619">existence : Interval&lt;Integer&gt; [1]</text><ellipse cx="122.47" cy="261.6998" fill="none" rx="3" ry="3" style="stroke:#038048;stroke-width:1;"/><text fill="#808080" font-family="sans-serif" font-size="14" lengthAdjust="spacing" textLength="184.0993" x="131.47" y="265.5618">children : List&lt;C_OBJECT&gt; [*]</text><line style="stroke:#808080;stroke-width:1;stroke-dasharray:1,3;" x1="112.47" x2="331.4192" y1="272.5998" y2="272.5998"/><ellipse cx="122.47" cy="286.4997" fill="#84BE84" rx="3" ry="3" style="stroke:#038048;stroke-width:1;"/><text fill="#808080" font-family="sans-serif" font-size="14" lengthAdjust="spacing" textLength="166.1093" x="131.47" y="290.3617">any_allowed() : Boolean [1]</text></g><!--class ARCHETYPE_CONSTRAINT--><g class="entity" data-entity="ARCHETYPE_CONSTRAINT" data-source-line="14" data-uid="ent0004" id="entity_ARCHETYPE_CONSTRAINT"><rect fill="#F5F5F5" height="115.1997" rx="2.5" ry="2.5" style="stroke:#808080;stroke-width:1;stroke-dasharray:1,3;" width="429.8984" x="7" y="7"/><ellipse cx="132.8665" cy="23" fill="#A9DCDF" rx="11" ry="11" style="stroke:#181818;stroke-width:1;"/><path d="M127.3822,28.5 L129.4134,28.5 L133.4603,17.1563 L132.554,17.1563 L136.3822,28.5 L138.5228,28.5 L134.1947,16.1719 L131.9759,16.1719 L127.3822,28.5 Z M129.7103,25 L136.1478,25 L136.1478,23.25 L129.7103,23.25 L129.7103,25 Z " fill="#000000"/><text fill="#808080" font-family="sans-serif" font-size="14" font-style="italic" lengthAdjust="spacing" textLength="169.6653" x="153.3665" y="28.362">ARCHETYPE_CONSTRAINT</text><line style="stroke:#808080;stroke-width:1;stroke-dasharray:1,3;" x1="8" x2="435.8984" y1="39" y2="39"/><line style="stroke:#808080;stroke-width:1;stroke-dasharray:1,3;" x1="8" x2="435.8984" y1="47" y2="47"/><ellipse cx="18" cy="60.9" fill="#84BE84" rx="3" ry="3" style="stroke:#038048;stroke-width:1;"/><text fill="#808080" font-family="sans-serif" font-size="14" font-style="italic" lengthAdjust="spacing" textLength="403.8984" x="27" y="64.7619">is_subset_of( other : ARCHETYPE_CONSTRAINT [1] ) : Boolean [1]</text><ellipse cx="18" cy="77.6999" fill="#84BE84" rx="3" ry="3" style="stroke:#038048;stroke-width:1;"/><text fill="#808080" font-family="sans-serif" font-size="14" font-style="italic" lengthAdjust="spacing" textLength="134.2035" x="27" y="81.5619">is_valid() : Boolean [1]</text><ellipse cx="18" cy="94.4998" fill="#84BE84" rx="3" ry="3" style="stroke:#038048;stroke-width:1;"/><text fill="#808080" font-family="sans-serif" font-size="14" lengthAdjust="spacing" textLength="102.5636" x="27" y="98.3618">path() : String [1]</text><ellipse cx="18" cy="111.2997" fill="#84BE84" rx="3" ry="3" style="stroke:#038048;stroke-width:1;"/><text fill="#808080" font-family="sans-serif" font-size="14" lengthAdjust="spacing" textLength="259.279" x="27" y="115.1617">has_path( a_path : String [1] ) : Boolean [1]</text></g><!--reverse link ARCHETYPE_CONSTRAINT to C_ATTRIBUTE--><g class="link" data-entity-1="ARCHETYPE_CONSTRAINT" data-entity-2="C_ATTRIBUTE" data-source-line="21" data-uid="lnk5" id="link_ARCHETYPE_CONSTRAINT_C_ATTRIBUTE"><path codeLine="21" d="M221.95,140.31 C221.95,159.45 221.95,162.81 221.95,181.96" fill="none" id="ARCHETYPE_CONSTRAINT-backto-C_ATTRIBUTE" style="stroke:#181818;stroke-width:1;"/><polygon fill="none" points="221.95,122.31,215.95,140.31,227.95,140.31,221.95,122.31" style="stroke:#181818;stroke-width:1;"/></g><!--reverse link C_ATTRIBUTE to C_MULTIPLE_ATTRIBUTE--><g class="link" data-entity-1="C_ATTRIBUTE" data-entity-2="C_MULTIPLE_ATTRIBUTE" data-source-line="23" data-uid="lnk6" id="link_C_ATTRIBUTE_C_MULTIPLE_ATTRIBUTE"><path codeLine="23" d="M221.95,315.71 C221.95,335.45 221.95,339.14 221.95,357.23" fill="none" id="C_ATTRIBUTE-backto-C_MULTIPLE_ATTRIBUTE" style="stroke:#181818;stroke-width:1;"/><polygon fill="none" points="221.95,297.71,215.95,315.71,227.95,315.71,221.95,297.71" style="stroke:#181818;stroke-width:1;"/></g></g></svg>
