<svg xmlns="http://www.w3.org/2000/svg" xmlns:xlink="http://www.w3.org/1999/xlink" contentStyleType="text/css" data-diagram-type="CLASS" height="745px" preserveAspectRatio="none" style="width:443px;height:745px;background:#FFFFFF;" version="1.1" viewBox="0 0 443 745" width="443px" zoomAndPan="magnify"><defs/><g><!--class C_ORDINAL--><g class="entity" data-entity="C_ORDINAL" data-source-line="2" data-uid="ent0002" id="entity_C_ORDINAL"><rect fill="#F1F1F1" height="64.7999" rx="2.5" ry="2.5" style="stroke:#181818;stroke-width:0.5;" width="171.7534" x="136.07" y="674.2"/><ellipse cx="180.0337" cy="690.2" fill="#ADD1B2" rx="11" ry="11" style="stroke:#181818;stroke-width:1;"/><path d="M180.0337,696.6219 C181.2055,696.6219 182.4399,696.3563 183.8149,695.7469 L183.3305,694.2313 C182.2368,694.6531 181.2212,694.8406 180.3618,694.8406 C177.643,694.8406 175.9243,692.9969 175.9243,690.0906 C175.9243,687.3406 177.4868,685.7469 180.2212,685.7469 C181.143,685.7469 182.1587,685.9344 183.2993,686.3563 L183.8774,684.8406 C182.7837,684.2625 181.4868,683.9656 180.2993,683.9656 C176.5337,683.9656 173.9555,686.6063 173.9555,690.4188 C173.9555,694.0906 176.4399,696.6219 180.0337,696.6219 Z " fill="#000000"/><text fill="#000000" font-family="sans-serif" font-size="14" lengthAdjust="spacing" textLength="75.3897" x="200.47" y="695.562">C_ORDINAL</text><line style="stroke:#181818;stroke-width:0.5;" x1="137.07" x2="306.8234" y1="706.2" y2="706.2"/><ellipse cx="147.07" cy="720.1" fill="none" rx="3" ry="3" style="stroke:#038048;stroke-width:1;"/><text fill="#000000" font-family="sans-serif" font-size="14" lengthAdjust="spacing" textLength="145.7534" x="156.07" y="723.9619">list : List&lt;ORDINAL&gt; [*]</text><line style="stroke:#181818;stroke-width:0.5;" x1="137.07" x2="306.8234" y1="730.9999" y2="730.9999"/></g><!--class C_DOMAIN_TYPE--><g class="entity" data-entity="C_DOMAIN_TYPE" data-source-line="6" data-uid="ent0003" id="entity_C_DOMAIN_TYPE"><rect fill="#F5F5F5" height="64.7999" rx="2.5" ry="2.5" style="stroke:#808080;stroke-width:1;stroke-dasharray:1,3;" width="326.5788" x="58.66" y="549.4"/><ellipse cx="162.1336" cy="565.4" fill="#A9DCDF" rx="11" ry="11" style="stroke:#181818;stroke-width:1;"/><path d="M156.6493,570.9 L158.6805,570.9 L162.7274,559.5563 L161.8211,559.5563 L165.6493,570.9 L167.7899,570.9 L163.4618,558.5719 L161.243,558.5719 L156.6493,570.9 Z M158.9774,567.4 L165.4149,567.4 L165.4149,565.65 L158.9774,565.65 L158.9774,567.4 Z " fill="#000000"/><text fill="#808080" font-family="sans-serif" font-size="14" font-style="italic" lengthAdjust="spacing" textLength="111.1315" x="182.6336" y="570.762">C_DOMAIN_TYPE</text><line style="stroke:#808080;stroke-width:1;stroke-dasharray:1,3;" x1="59.66" x2="384.2388" y1="581.4" y2="581.4"/><line style="stroke:#808080;stroke-width:1;stroke-dasharray:1,3;" x1="59.66" x2="384.2388" y1="589.4" y2="589.4"/><ellipse cx="69.66" cy="603.3" fill="#84BE84" rx="3" ry="3" style="stroke:#038048;stroke-width:1;"/><text fill="#808080" font-family="sans-serif" font-size="14" font-style="italic" lengthAdjust="spacing" textLength="300.5788" x="78.66" y="607.1619">standard_equivalent() : C_COMPLEX_OBJECT [1]</text></g><!--class C_DEFINED_OBJECT--><g class="entity" data-entity="C_DEFINED_OBJECT" data-source-line="10" data-uid="ent0004" id="entity_C_DEFINED_OBJECT"><rect fill="#F5F5F5" height="148.7996" rx="2.5" ry="2.5" style="stroke:#808080;stroke-width:1;stroke-dasharray:1,3;" width="288.5269" x="77.69" y="340.6"/><ellipse cx="151.9177" cy="356.6" fill="#A9DCDF" rx="11" ry="11" style="stroke:#181818;stroke-width:1;"/><path d="M146.4333,362.1 L148.4646,362.1 L152.5115,350.7563 L151.6052,350.7563 L155.4333,362.1 L157.574,362.1 L153.2458,349.7719 L151.0271,349.7719 L146.4333,362.1 Z M148.7615,358.6 L155.199,358.6 L155.199,356.85 L148.7615,356.85 L148.7615,358.6 Z " fill="#000000"/><text fill="#808080" font-family="sans-serif" font-size="14" font-style="italic" lengthAdjust="spacing" textLength="131.5715" x="172.4177" y="361.962">C_DEFINED_OBJECT</text><line style="stroke:#808080;stroke-width:1;stroke-dasharray:1,3;" x1="78.69" x2="365.2169" y1="372.6" y2="372.6"/><ellipse cx="88.69" cy="386.5" fill="none" rx="3" ry="3" style="stroke:#038048;stroke-width:1;"/><text fill="#808080" font-family="sans-serif" font-size="14" lengthAdjust="spacing" textLength="163.4633" x="97.69" y="390.3619">assumed_value : Any [0..1]</text><line style="stroke:#808080;stroke-width:1;stroke-dasharray:1,3;" x1="78.69" x2="365.2169" y1="397.3999" y2="397.3999"/><ellipse cx="88.69" cy="411.2999" fill="#84BE84" rx="3" ry="3" style="stroke:#038048;stroke-width:1;"/><text fill="#808080" font-family="sans-serif" font-size="14" font-style="italic" lengthAdjust="spacing" textLength="262.5269" x="97.69" y="415.1619">valid_value( a_value : Any [1] ) : Boolean [1]</text><ellipse cx="88.69" cy="428.0998" fill="#84BE84" rx="3" ry="3" style="stroke:#038048;stroke-width:1;"/><text fill="#808080" font-family="sans-serif" font-size="14" font-style="italic" lengthAdjust="spacing" textLength="161.7414" x="97.69" y="431.9618">prototype_value() : Any [1]</text><ellipse cx="88.69" cy="444.8997" fill="#84BE84" rx="3" ry="3" style="stroke:#038048;stroke-width:1;"/><text fill="#808080" font-family="sans-serif" font-size="14" lengthAdjust="spacing" textLength="212.3931" x="97.69" y="448.7617">has_assumed_value() : Boolean [1]</text><ellipse cx="88.69" cy="461.6997" fill="#84BE84" rx="3" ry="3" style="stroke:#038048;stroke-width:1;"/><text fill="#808080" font-family="sans-serif" font-size="14" font-style="italic" lengthAdjust="spacing" textLength="160.2013" x="97.69" y="465.5616">default_value() : Any [0..1]</text><ellipse cx="88.69" cy="478.4996" fill="#84BE84" rx="3" ry="3" style="stroke:#038048;stroke-width:1;"/><text fill="#808080" font-family="sans-serif" font-size="14" font-style="italic" lengthAdjust="spacing" textLength="166.1093" x="97.69" y="482.3616">any_allowed() : Boolean [1]</text></g><!--class C_OBJECT--><g class="entity" data-entity="C_OBJECT" data-source-line="19" data-uid="ent0005" id="entity_C_OBJECT"><rect fill="#F5F5F5" height="98.3998" rx="2.5" ry="2.5" style="stroke:#808080;stroke-width:1;stroke-dasharray:1,3;" width="237.8752" x="103.01" y="182.2"/><ellipse cx="184.6017" cy="198.2" fill="#A9DCDF" rx="11" ry="11" style="stroke:#181818;stroke-width:1;"/><path d="M179.1174,203.7 L181.1486,203.7 L185.1955,192.3563 L184.2892,192.3563 L188.1174,203.7 L190.258,203.7 L185.9299,191.3719 L183.7111,191.3719 L179.1174,203.7 Z M181.4455,200.2 L187.883,200.2 L187.883,198.45 L181.4455,198.45 L181.4455,200.2 Z " fill="#000000"/><text fill="#808080" font-family="sans-serif" font-size="14" font-style="italic" lengthAdjust="spacing" textLength="66.1917" x="205.1017" y="203.562">C_OBJECT</text><line style="stroke:#808080;stroke-width:1;stroke-dasharray:1,3;" x1="104.01" x2="339.8852" y1="214.2" y2="214.2"/><ellipse cx="114.01" cy="228.1" fill="none" rx="3" ry="3" style="stroke:#038048;stroke-width:1;"/><text fill="#808080" font-family="sans-serif" font-size="14" lengthAdjust="spacing" textLength="159.7254" x="123.01" y="231.9619">rm_type_name : String [1]</text><ellipse cx="114.01" cy="244.8999" fill="none" rx="3" ry="3" style="stroke:#038048;stroke-width:1;"/><text fill="#808080" font-family="sans-serif" font-size="14" lengthAdjust="spacing" textLength="211.8752" x="123.01" y="248.7619">occurrences : Interval&lt;Integer&gt; [1]</text><ellipse cx="114.01" cy="261.6998" fill="none" rx="3" ry="3" style="stroke:#038048;stroke-width:1;"/><text fill="#808080" font-family="sans-serif" font-size="14" lengthAdjust="spacing" textLength="115.6535" x="123.01" y="265.5618">node_id : String [1]</text><line style="stroke:#808080;stroke-width:1;stroke-dasharray:1,3;" x1="104.01" x2="339.8852" y1="272.5998" y2="272.5998"/></g><!--class ARCHETYPE_CONSTRAINT--><g class="entity" data-entity="ARCHETYPE_CONSTRAINT" data-source-line="25" data-uid="ent0006" id="entity_ARCHETYPE_CONSTRAINT"><rect fill="#F5F5F5" height="115.1997" rx="2.5" ry="2.5" style="stroke:#808080;stroke-width:1;stroke-dasharray:1,3;" width="429.8984" x="7" y="7"/><ellipse cx="132.8665" cy="23" fill="#A9DCDF" rx="11" ry="11" style="stroke:#181818;stroke-width:1;"/><path d="M127.3822,28.5 L129.4134,28.5 L133.4603,17.1563 L132.554,17.1563 L136.3822,28.5 L138.5228,28.5 L134.1947,16.1719 L131.9759,16.1719 L127.3822,28.5 Z M129.7103,25 L136.1478,25 L136.1478,23.25 L129.7103,23.25 L129.7103,25 Z " fill="#000000"/><text fill="#808080" font-family="sans-serif" font-size="14" font-style="italic" lengthAdjust="spacing" textLength="169.6653" x="153.3665" y="28.362">ARCHETYPE_CONSTRAINT</text><line style="stroke:#808080;stroke-width:1;stroke-dasharray:1,3;" x1="8" x2="435.8984" y1="39" y2="39"/><line style="stroke:#808080;stroke-width:1;stroke-dasharray:1,3;" x1="8" x2="435.8984" y1="47" y2="47"/><ellipse cx="18" cy="60.9" fill="#84BE84" rx="3" ry="3" style="stroke:#038048;stroke-width:1;"/><text fill="#808080" font-family="sans-serif" font-size="14" font-style="italic" lengthAdjust="spacing" textLength="403.8984" x="27" y="64.7619">is_subset_of( other : ARCHETYPE_CONSTRAINT [1] ) : Boolean [1]</text><ellipse cx="18" cy="77.6999" fill="#84BE84" rx="3" ry="3" style="stroke:#038048;stroke-width:1;"/><text fill="#808080" font-family="sans-serif" font-size="14" font-style="italic" lengthAdjust="spacing" textLength="134.2035" x="27" y="81.5619">is_valid() : Boolean [1]</text><ellipse cx="18" cy="94.4998" fill="#84BE84" rx="3" ry="3" style="stroke:#038048;stroke-width:1;"/><text fill="#808080" font-family="sans-serif" font-size="14" lengthAdjust="spacing" textLength="102.5636" x="27" y="98.3618">path() : String [1]</text><ellipse cx="18" cy="111.2997" fill="#84BE84" rx="3" ry="3" style="stroke:#038048;stroke-width:1;"/><text fill="#808080" font-family="sans-serif" font-size="14" lengthAdjust="spacing" textLength="259.279" x="27" y="115.1617">has_path( a_path : String [1] ) : Boolean [1]</text></g><!--reverse link ARCHETYPE_CONSTRAINT to C_OBJECT--><g class="link" data-entity-1="ARCHETYPE_CONSTRAINT" data-entity-2="C_OBJECT" data-source-line="32" data-uid="lnk7" id="link_ARCHETYPE_CONSTRAINT_C_OBJECT"><path codeLine="32" d="M221.95,140.32 C221.95,159.68 221.95,163.15 221.95,181.82" fill="none" id="ARCHETYPE_CONSTRAINT-backto-C_OBJECT" style="stroke:#181818;stroke-width:1;"/><polygon fill="none" points="221.95,122.32,215.95,140.32,227.95,140.32,221.95,122.32" style="stroke:#181818;stroke-width:1;"/></g><!--reverse link C_OBJECT to C_DEFINED_OBJECT--><g class="link" data-entity-1="C_OBJECT" data-entity-2="C_DEFINED_OBJECT" data-source-line="34" data-uid="lnk8" id="link_C_OBJECT_C_DEFINED_OBJECT"><path codeLine="34" d="M221.95,299.07 C221.95,317.24 221.95,320.31 221.95,340.25" fill="none" id="C_OBJECT-backto-C_DEFINED_OBJECT" style="stroke:#181818;stroke-width:1;"/><polygon fill="none" points="221.95,281.07,215.95,299.07,227.95,299.07,221.95,281.07" style="stroke:#181818;stroke-width:1;"/></g><!--reverse link C_DEFINED_OBJECT to C_DOMAIN_TYPE--><g class="link" data-entity-1="C_DEFINED_OBJECT" data-entity-2="C_DOMAIN_TYPE" data-source-line="36" data-uid="lnk9" id="link_C_DEFINED_OBJECT_C_DOMAIN_TYPE"><path codeLine="36" d="M221.95,507.72 C221.95,528.63 221.95,532.3 221.95,549.25" fill="none" id="C_DEFINED_OBJECT-backto-C_DOMAIN_TYPE" style="stroke:#181818;stroke-width:1;"/><polygon fill="none" points="221.95,489.72,215.95,507.72,227.95,507.72,221.95,489.72" style="stroke:#181818;stroke-width:1;"/></g><!--reverse link C_DOMAIN_TYPE to C_ORDINAL--><g class="link" data-entity-1="C_DOMAIN_TYPE" data-entity-2="C_ORDINAL" data-source-line="38" data-uid="lnk10" id="link_C_DOMAIN_TYPE_C_ORDINAL"><path codeLine="38" d="M221.95,632.42 C221.95,650.76 221.95,655.77 221.95,674.08" fill="none" id="C_DOMAIN_TYPE-backto-C_ORDINAL" style="stroke:#181818;stroke-width:1;"/><polygon fill="none" points="221.95,614.42,215.95,632.42,227.95,632.42,221.95,614.42" style="stroke:#181818;stroke-width:1;"/></g></g></svg>
