<svg xmlns="http://www.w3.org/2000/svg" xmlns:xlink="http://www.w3.org/1999/xlink" contentStyleType="text/css" data-diagram-type="CLASS" height="136px" preserveAspectRatio="none" style="width:309px;height:136px;background:#FFFFFF;" version="1.1" viewBox="0 0 309 136" width="309px" zoomAndPan="magnify"><defs/><g><!--class C_PRIMITIVE--><g class="entity" data-entity="C_PRIMITIVE" data-source-line="2" data-uid="ent0002" id="entity_C_PRIMITIVE"><rect fill="#F1F1F1" height="115.1997" rx="2.5" ry="2.5" style="stroke:#181818;stroke-width:0.5;" width="288.5269" x="7" y="7"/><ellipse cx="106.6376" cy="23" fill="#A9DCDF" rx="11" ry="11" style="stroke:#181818;stroke-width:1;"/><path d="M101.1532,28.5 L103.1845,28.5 L107.2314,17.1563 L106.3251,17.1563 L110.1532,28.5 L112.2939,28.5 L107.9657,16.1719 L105.747,16.1719 L101.1532,28.5 Z M103.4814,25 L109.9189,25 L109.9189,23.25 L103.4814,23.25 L103.4814,25 Z " fill="#000000"/><text fill="#000000" font-family="sans-serif" font-size="14" font-style="italic" lengthAdjust="spacing" textLength="80.7517" x="127.1376" y="28.362">C_PRIMITIVE</text><line style="stroke:#181818;stroke-width:0.5;" x1="8" x2="294.5269" y1="39" y2="39"/><ellipse cx="18" cy="52.9" fill="none" rx="3" ry="3" style="stroke:#038048;stroke-width:1;"/><text fill="#000000" font-family="sans-serif" font-size="14" lengthAdjust="spacing" textLength="163.4633" x="27" y="56.7619">assumed_value : Any [0..1]</text><line style="stroke:#181818;stroke-width:0.5;" x1="8" x2="294.5269" y1="63.7999" y2="63.7999"/><ellipse cx="18" cy="77.6999" fill="#84BE84" rx="3" ry="3" style="stroke:#038048;stroke-width:1;"/><text fill="#000000" font-family="sans-serif" font-size="14" font-style="italic" lengthAdjust="spacing" textLength="144.4374" x="27" y="81.5619">default_value() : Any [1]</text><ellipse cx="18" cy="94.4998" fill="#84BE84" rx="3" ry="3" style="stroke:#038048;stroke-width:1;"/><text fill="#000000" font-family="sans-serif" font-size="14" font-style="italic" lengthAdjust="spacing" textLength="212.3931" x="27" y="98.3618">has_assumed_value() : Boolean [1]</text><ellipse cx="18" cy="111.2997" fill="#84BE84" rx="3" ry="3" style="stroke:#038048;stroke-width:1;"/><text fill="#000000" font-family="sans-serif" font-size="14" font-style="italic" lengthAdjust="spacing" textLength="262.5269" x="27" y="115.1617">valid_value( a_value : Any [1] ) : Boolean [1]</text></g></g></svg>
