<svg xmlns="http://www.w3.org/2000/svg" xmlns:xlink="http://www.w3.org/1999/xlink" contentStyleType="text/css" data-diagram-type="CLASS" height="563px" preserveAspectRatio="none" style="width:342px;height:563px;background:#FFFFFF;" version="1.1" viewBox="0 0 342 563" width="342px" zoomAndPan="magnify"><defs/><g><!--class CONTACT--><g class="entity" data-entity="CONTACT" data-source-line="2" data-uid="ent0002" id="entity_CONTACT"><rect fill="#F1F1F1" height="98.3998" rx="2.5" ry="2.5" style="stroke:#181818;stroke-width:0.5;" width="315.1828" x="13.9" y="458.2"/><ellipse cx="135.3355" cy="474.2" fill="#ADD1B2" rx="11" ry="11" style="stroke:#181818;stroke-width:1;"/><path d="M135.3355,480.6219 C136.5074,480.6219 137.7418,480.3563 139.1168,479.7469 L138.6324,478.2313 C137.5387,478.6531 136.523,478.8406 135.6637,478.8406 C132.9449,478.8406 131.2262,476.9969 131.2262,474.0906 C131.2262,471.3406 132.7887,469.7469 135.523,469.7469 C136.4449,469.7469 137.4605,469.9344 138.6012,470.3563 L139.1793,468.8406 C138.0855,468.2625 136.7887,467.9656 135.6012,467.9656 C131.8355,467.9656 129.2574,470.6063 129.2574,474.4188 C129.2574,478.0906 131.7418,480.6219 135.3355,480.6219 Z " fill="#000000"/><text fill="#000000" font-family="sans-serif" font-size="14" lengthAdjust="spacing" textLength="63.8117" x="155.8355" y="479.562">CONTACT</text><line style="stroke:#181818;stroke-width:0.5;" x1="14.9" x2="328.0828" y1="490.2" y2="490.2"/><ellipse cx="24.9" cy="504.1" fill="none" rx="3" ry="3" style="stroke:#038048;stroke-width:1;"/><text fill="#000000" font-family="sans-serif" font-size="14" lengthAdjust="spacing" textLength="204.2872" x="33.9" y="507.9619">addresses : List&lt;ADDRESS&gt; [1..*]</text><ellipse cx="24.9" cy="520.8999" fill="none" rx="3" ry="3" style="stroke:#038048;stroke-width:1;"/><text fill="#000000" font-family="sans-serif" font-size="14" lengthAdjust="spacing" textLength="289.1828" x="33.9" y="524.7619">time_validity : DV_INTERVAL&lt;DV_DATE&gt; [0..1]</text><line style="stroke:#181818;stroke-width:0.5;" x1="14.9" x2="328.0828" y1="531.7999" y2="531.7999"/><ellipse cx="24.9" cy="545.6998" fill="#84BE84" rx="3" ry="3" style="stroke:#038048;stroke-width:1;"/><text fill="#000000" font-family="sans-serif" font-size="14" lengthAdjust="spacing" textLength="145.6414" x="33.9" y="549.5618">purpose() : DV_TEXT [1]</text></g><!--class LOCATABLE--><g class="entity" data-entity="LOCATABLE" data-source-line="8" data-uid="ent0003" id="entity_LOCATABLE"><rect fill="#F5F5F5" height="182.3994" rx="2.5" ry="2.5" style="stroke:#808080;stroke-width:1;stroke-dasharray:1,3;" width="267.387" x="37.8" y="215.8"/><ellipse cx="129.1007" cy="231.8" fill="#A9DCDF" rx="11" ry="11" style="stroke:#181818;stroke-width:1;"/><path d="M123.6163,237.3 L125.6475,237.3 L129.6944,225.9563 L128.7882,225.9563 L132.6163,237.3 L134.7569,237.3 L130.4288,224.9719 L128.21,224.9719 L123.6163,237.3 Z M125.9444,233.8 L132.3819,233.8 L132.3819,232.05 L125.9444,232.05 L125.9444,233.8 Z " fill="#000000"/><text fill="#808080" font-family="sans-serif" font-size="14" font-style="italic" lengthAdjust="spacing" textLength="76.2857" x="149.6007" y="237.162">LOCATABLE</text><line style="stroke:#808080;stroke-width:1;stroke-dasharray:1,3;" x1="38.8" x2="304.187" y1="247.8" y2="247.8"/><ellipse cx="48.8" cy="261.7" fill="none" rx="3" ry="3" style="stroke:#038048;stroke-width:1;"/><text fill="#808080" font-family="sans-serif" font-size="14" lengthAdjust="spacing" textLength="121.2115" x="57.8" y="265.5619">name : DV_TEXT [1]</text><ellipse cx="48.8" cy="278.4999" fill="none" rx="3" ry="3" style="stroke:#038048;stroke-width:1;"/><text fill="#808080" font-family="sans-serif" font-size="14" lengthAdjust="spacing" textLength="184.1273" x="57.8" y="282.3619">archetype_node_id : String [1]</text><ellipse cx="48.8" cy="295.2998" fill="none" rx="3" ry="3" style="stroke:#038048;stroke-width:1;"/><text fill="#808080" font-family="sans-serif" font-size="14" lengthAdjust="spacing" textLength="157.7794" x="57.8" y="299.1618">uid : UID_BASED_ID [0..1]</text><ellipse cx="48.8" cy="312.0997" fill="none" rx="3" ry="3" style="stroke:#038048;stroke-width:1;"/><text fill="#808080" font-family="sans-serif" font-size="14" lengthAdjust="spacing" textLength="126.0835" x="57.8" y="315.9617">links : List&lt;LINK&gt; [*]</text><ellipse cx="48.8" cy="328.8997" fill="none" rx="3" ry="3" style="stroke:#038048;stroke-width:1;"/><text fill="#808080" font-family="sans-serif" font-size="14" lengthAdjust="spacing" textLength="241.387" x="57.8" y="332.7616">archetype_details : ARCHETYPED [0..1]</text><ellipse cx="48.8" cy="345.6996" fill="none" rx="3" ry="3" style="stroke:#038048;stroke-width:1;"/><text fill="#808080" font-family="sans-serif" font-size="14" lengthAdjust="spacing" textLength="220.7791" x="57.8" y="349.5616">feeder_audit : FEEDER_AUDIT [0..1]</text><line style="stroke:#808080;stroke-width:1;stroke-dasharray:1,3;" x1="38.8" x2="304.187" y1="356.5996" y2="356.5996"/><ellipse cx="48.8" cy="370.4995" fill="#84BE84" rx="3" ry="3" style="stroke:#038048;stroke-width:1;"/><text fill="#808080" font-family="sans-serif" font-size="14" lengthAdjust="spacing" textLength="144.1295" x="57.8" y="374.3615">concept() : DV_TEXT [1]</text><ellipse cx="48.8" cy="387.2995" fill="#84BE84" rx="3" ry="3" style="stroke:#038048;stroke-width:1;"/><text fill="#808080" font-family="sans-serif" font-size="14" lengthAdjust="spacing" textLength="199.6812" x="57.8" y="391.1614">is_archetype_root() : Boolean [1]</text></g><!--class PATHABLE--><g class="entity" data-entity="PATHABLE" data-source-line="19" data-uid="ent0004" id="entity_PATHABLE"><rect fill="#F5F5F5" height="148.7996" rx="2.5" ry="2.5" style="stroke:#808080;stroke-width:1;stroke-dasharray:1,3;" width="328.9868" x="7" y="7"/><ellipse cx="133.3006" cy="23" fill="#A9DCDF" rx="11" ry="11" style="stroke:#181818;stroke-width:1;"/><path d="M127.8162,28.5 L129.8474,28.5 L133.8943,17.1563 L132.9881,17.1563 L136.8162,28.5 L138.9568,28.5 L134.6287,16.1719 L132.4099,16.1719 L127.8162,28.5 Z M130.1443,25 L136.5818,25 L136.5818,23.25 L130.1443,23.25 L130.1443,25 Z " fill="#000000"/><text fill="#808080" font-family="sans-serif" font-size="14" font-style="italic" lengthAdjust="spacing" textLength="67.8857" x="153.8006" y="28.362">PATHABLE</text><line style="stroke:#808080;stroke-width:1;stroke-dasharray:1,3;" x1="8" x2="334.9868" y1="39" y2="39"/><line style="stroke:#808080;stroke-width:1;stroke-dasharray:1,3;" x1="8" x2="334.9868" y1="47" y2="47"/><ellipse cx="18" cy="60.9" fill="#84BE84" rx="3" ry="3" style="stroke:#038048;stroke-width:1;"/><text fill="#808080" font-family="sans-serif" font-size="14" lengthAdjust="spacing" textLength="145.6834" x="27" y="64.7619">parent() : PATHABLE [1]</text><ellipse cx="18" cy="77.6999" fill="#84BE84" rx="3" ry="3" style="stroke:#038048;stroke-width:1;"/><text fill="#808080" font-family="sans-serif" font-size="14" lengthAdjust="spacing" textLength="257.529" x="27" y="81.5619">item_at_path( a_path : String [1] ) : Any [1]</text><ellipse cx="18" cy="94.4998" fill="#84BE84" rx="3" ry="3" style="stroke:#038048;stroke-width:1;"/><text fill="#808080" font-family="sans-serif" font-size="14" lengthAdjust="spacing" textLength="302.9868" x="27" y="98.3618">items_at_path( a_path : String [1] ) : List&lt;Any&gt; [*]</text><ellipse cx="18" cy="111.2997" fill="#84BE84" rx="3" ry="3" style="stroke:#038048;stroke-width:1;"/><text fill="#808080" font-family="sans-serif" font-size="14" lengthAdjust="spacing" textLength="273.1249" x="27" y="115.1617">path_exists( a_path : String [1] ) : Boolean [1]</text><ellipse cx="18" cy="128.0997" fill="#84BE84" rx="3" ry="3" style="stroke:#038048;stroke-width:1;"/><text fill="#808080" font-family="sans-serif" font-size="14" lengthAdjust="spacing" textLength="280.0549" x="27" y="131.9616">path_unique( a_path : String [1] ) : Boolean [1]</text><ellipse cx="18" cy="144.8996" fill="#84BE84" rx="3" ry="3" style="stroke:#038048;stroke-width:1;"/><text fill="#808080" font-family="sans-serif" font-size="14" lengthAdjust="spacing" textLength="292.6829" x="27" y="148.7616">path_of_item( a_loc : PATHABLE [1] ) : String [1]</text></g><!--reverse link PATHABLE to LOCATABLE--><g class="link" data-entity-1="PATHABLE" data-entity-2="LOCATABLE" data-source-line="28" data-uid="lnk5" id="link_PATHABLE_LOCATABLE"><path codeLine="28" d="M171.49,174.24 C171.49,193.19 171.49,195.79 171.49,215.49" fill="none" id="PATHABLE-backto-LOCATABLE" style="stroke:#181818;stroke-width:1;"/><polygon fill="none" points="171.49,156.24,165.49,174.24,177.49,174.24,171.49,156.24" style="stroke:#181818;stroke-width:1;"/></g><!--reverse link LOCATABLE to CONTACT--><g class="link" data-entity-1="LOCATABLE" data-entity-2="CONTACT" data-source-line="30" data-uid="lnk6" id="link_LOCATABLE_CONTACT"><path codeLine="30" d="M171.49,416.49 C171.49,436.93 171.49,439.87 171.49,457.79" fill="none" id="LOCATABLE-backto-CONTACT" style="stroke:#181818;stroke-width:1;"/><polygon fill="none" points="171.49,398.49,165.49,416.49,177.49,416.49,171.49,398.49" style="stroke:#181818;stroke-width:1;"/></g></g></svg>
