<svg xmlns="http://www.w3.org/2000/svg" xmlns:xlink="http://www.w3.org/1999/xlink" contentStyleType="text/css" data-diagram-type="CLASS" height="671px" preserveAspectRatio="none" style="width:504px;height:671px;background:#FFFFFF;" version="1.1" viewBox="0 0 504 671" width="504px" zoomAndPan="magnify"><defs/><g><!--class DV_ABSOLUTE_QUANTITY--><g class="entity" data-entity="DV_ABSOLUTE_QUANTITY" data-source-line="2" data-uid="ent0002" id="entity_DV_ABSOLUTE_QUANTITY"><rect fill="#F1F1F1" height="115.1997" rx="2.5" ry="2.5" style="stroke:#181818;stroke-width:0.5;" width="435.5123" x="28.85" y="549.4"/><ellipse cx="158.3495" cy="565.4" fill="#A9DCDF" rx="11" ry="11" style="stroke:#181818;stroke-width:1;"/><path d="M152.8651,570.9 L154.8963,570.9 L158.9432,559.5563 L158.037,559.5563 L161.8651,570.9 L164.0057,570.9 L159.6776,558.5719 L157.4588,558.5719 L152.8651,570.9 Z M155.1932,567.4 L161.6307,567.4 L161.6307,565.65 L155.1932,565.65 L155.1932,567.4 Z " fill="#000000"/><text fill="#000000" font-family="sans-serif" font-size="14" font-style="italic" lengthAdjust="spacing" textLength="168.0133" x="178.8495" y="570.762">DV_ABSOLUTE_QUANTITY</text><line style="stroke:#181818;stroke-width:0.5;" x1="29.85" x2="463.3623" y1="581.4" y2="581.4"/><ellipse cx="39.85" cy="595.3" fill="none" rx="3" ry="3" style="stroke:#038048;stroke-width:1;"/><text fill="#000000" font-family="sans-serif" font-size="14" lengthAdjust="spacing" textLength="182.7133" x="48.85" y="599.1619">accuracy : DV_AMOUNT [0..1]</text><line style="stroke:#181818;stroke-width:0.5;" x1="29.85" x2="463.3623" y1="606.1999" y2="606.1999"/><ellipse cx="39.85" cy="620.0999" fill="#84BE84" rx="3" ry="3" style="stroke:#038048;stroke-width:1;"/><text fill="#000000" font-family="sans-serif" font-size="14" font-style="italic" lengthAdjust="spacing" textLength="378.8804" x="48.85" y="623.9619">diff( other : DV_ABSOLUTE_QUANTITY [1] ) : DV_AMOUNT [1]</text><ellipse cx="39.85" cy="636.8998" fill="#84BE84" rx="3" ry="3" style="stroke:#038048;stroke-width:1;"/><text fill="#000000" font-family="sans-serif" font-size="14" font-style="italic" lengthAdjust="spacing" textLength="382.5764" x="48.85" y="640.7618">add( a_diff : DV_AMOUNT [1] ) : DV_ABSOLUTE_QUANTITY [1]</text><ellipse cx="39.85" cy="653.6997" fill="#84BE84" rx="3" ry="3" style="stroke:#038048;stroke-width:1;"/><text fill="#000000" font-family="sans-serif" font-size="14" font-style="italic" lengthAdjust="spacing" textLength="409.5123" x="48.85" y="657.5617">subtract( a_diif : DV_AMOUNT [1] ) : DV_ABSOLUTE_QUANTITY [1]</text></g><!--class DV_QUANTIFIED--><g class="entity" data-entity="DV_QUANTIFIED" data-source-line="9" data-uid="ent0003" id="entity_DV_QUANTIFIED"><rect fill="#F5F5F5" height="131.9996" rx="2.5" ry="2.5" style="stroke:#808080;stroke-width:1;stroke-dasharray:1,3;" width="262.515" x="115.35" y="357.4"/><ellipse cx="189.2697" cy="373.4" fill="#A9DCDF" rx="11" ry="11" style="stroke:#181818;stroke-width:1;"/><path d="M183.7853,378.9 L185.8166,378.9 L189.8635,367.5563 L188.9572,367.5563 L192.7853,378.9 L194.926,378.9 L190.5978,366.5719 L188.3791,366.5719 L183.7853,378.9 Z M186.1135,375.4 L192.551,375.4 L192.551,373.65 L186.1135,373.65 L186.1135,375.4 Z " fill="#000000"/><text fill="#808080" font-family="sans-serif" font-size="14" font-style="italic" lengthAdjust="spacing" textLength="106.1756" x="209.7697" y="378.762">DV_QUANTIFIED</text><line style="stroke:#808080;stroke-width:1;stroke-dasharray:1,3;" x1="116.35" x2="376.865" y1="389.4" y2="389.4"/><ellipse cx="126.35" cy="403.3" fill="none" rx="3" ry="3" style="stroke:#038048;stroke-width:1;"/><text fill="#808080" font-family="sans-serif" font-size="14" lengthAdjust="spacing" textLength="193.9972" x="135.35" y="407.1619">magnitude_status : String [0..1]</text><ellipse cx="126.35" cy="420.0999" fill="none" rx="3" ry="3" style="stroke:#038048;stroke-width:1;"/><text fill="#808080" font-family="sans-serif" font-size="14" lengthAdjust="spacing" textLength="121.4915" x="135.35" y="423.9619">accuracy : Any [0..1]</text><line style="stroke:#808080;stroke-width:1;stroke-dasharray:1,3;" x1="116.35" x2="376.865" y1="430.9999" y2="430.9999"/><ellipse cx="126.35" cy="444.8998" fill="#84BE84" rx="3" ry="3" style="stroke:#038048;stroke-width:1;"/><text fill="#808080" font-family="sans-serif" font-size="14" lengthAdjust="spacing" textLength="236.515" x="135.35" y="448.7618">valid_magnitude_status() : Boolean [1]</text><ellipse cx="126.35" cy="461.6997" fill="#84BE84" rx="3" ry="3" style="stroke:#038048;stroke-width:1;"/><text fill="#808080" font-family="sans-serif" font-size="14" font-style="italic" lengthAdjust="spacing" textLength="216.4531" x="135.35" y="465.5617">magnitude() : Ordered_Numeric [1]</text><ellipse cx="126.35" cy="478.4997" fill="#84BE84" rx="3" ry="3" style="stroke:#038048;stroke-width:1;"/><text fill="#808080" font-family="sans-serif" font-size="14" lengthAdjust="spacing" textLength="206.3172" x="135.35" y="482.3616">accuracy_unknown() : Boolean [1]</text></g><!--class DV_ORDERED--><g class="entity" data-entity="DV_ORDERED" data-source-line="17" data-uid="ent0004" id="entity_DV_ORDERED"><rect fill="#F5F5F5" height="165.5995" rx="2.5" ry="2.5" style="stroke:#808080;stroke-width:1;stroke-dasharray:1,3;" width="479.2201" x="7" y="131.8"/><ellipse cx="197.5322" cy="147.8" fill="#A9DCDF" rx="11" ry="11" style="stroke:#181818;stroke-width:1;"/><path d="M192.0479,153.3 L194.0791,153.3 L198.126,141.9563 L197.2197,141.9563 L201.0479,153.3 L203.1885,153.3 L198.8604,140.9719 L196.6416,140.9719 L192.0479,153.3 Z M194.376,149.8 L200.8135,149.8 L200.8135,148.05 L194.376,148.05 L194.376,149.8 Z " fill="#000000"/><text fill="#808080" font-family="sans-serif" font-size="14" font-style="italic" lengthAdjust="spacing" textLength="89.6556" x="218.0322" y="153.162">DV_ORDERED</text><line style="stroke:#808080;stroke-width:1;stroke-dasharray:1,3;" x1="8" x2="485.2201" y1="163.8" y2="163.8"/><ellipse cx="18" cy="177.7" fill="none" rx="3" ry="3" style="stroke:#038048;stroke-width:1;"/><text fill="#808080" font-family="sans-serif" font-size="14" lengthAdjust="spacing" textLength="230.5231" x="27" y="181.5619">normal_status : CODE_PHRASE [0..1]</text><ellipse cx="18" cy="194.4999" fill="none" rx="3" ry="3" style="stroke:#038048;stroke-width:1;"/><text fill="#808080" font-family="sans-serif" font-size="14" lengthAdjust="spacing" textLength="220.3871" x="27" y="198.3619">normal_range : DV_INTERVAL [0..1]</text><ellipse cx="18" cy="211.2998" fill="none" rx="3" ry="3" style="stroke:#038048;stroke-width:1;"/><text fill="#808080" font-family="sans-serif" font-size="14" lengthAdjust="spacing" textLength="453.2201" x="27" y="215.1618">other_reference_ranges : List&lt;REFERENCE_RANGE&lt;DV_ORDERED&gt;&gt; [*]</text><line style="stroke:#808080;stroke-width:1;stroke-dasharray:1,3;" x1="8" x2="485.2201" y1="222.1998" y2="222.1998"/><ellipse cx="18" cy="236.0997" fill="#84BE84" rx="3" ry="3" style="stroke:#038048;stroke-width:1;"/><text fill="#808080" font-family="sans-serif" font-size="14" font-style="italic" lengthAdjust="spacing" textLength="406.1805" x="27" y="239.9617">is_strictly_comparable_to( other : DV_ORDERED [1] ) : Boolean [1]</text><ellipse cx="18" cy="252.8997" fill="#84BE84" rx="3" ry="3" style="stroke:#038048;stroke-width:1;"/><text fill="#808080" font-family="sans-serif" font-size="14" lengthAdjust="spacing" textLength="146.6214" x="27" y="256.7616">is_simple() : Boolean [1]</text><ellipse cx="18" cy="269.6996" fill="#84BE84" rx="3" ry="3" style="stroke:#038048;stroke-width:1;"/><text fill="#808080" font-family="sans-serif" font-size="14" lengthAdjust="spacing" textLength="149.6174" x="27" y="273.5616">is_normal() : Boolean [1]</text><ellipse cx="18" cy="286.4995" fill="#84BE84" rx="3" ry="3" style="stroke:#038048;stroke-width:1;"/><text fill="#808080" font-family="sans-serif" font-size="14" font-style="italic" lengthAdjust="spacing" textLength="245.657" x="27" y="290.3615">infix &lt;( other : Ordered [1] ) : Boolean [1]</text></g><!--class DATA_VALUE--><g class="entity" data-entity="DATA_VALUE" data-source-line="27" data-uid="ent0005" id="entity_DATA_VALUE"><rect fill="#F5F5F5" height="48" rx="2.5" ry="2.5" style="stroke:#808080;stroke-width:1;stroke-dasharray:1,3;" width="116.2657" x="74.48" y="15.4"/><ellipse cx="89.48" cy="31.4" fill="#A9DCDF" rx="11" ry="11" style="stroke:#181818;stroke-width:1;"/><path d="M83.9956,36.9 L86.0269,36.9 L90.0738,25.5562 L89.1675,25.5562 L92.9956,36.9 L95.1363,36.9 L90.8081,24.5719 L88.5894,24.5719 L83.9956,36.9 Z M86.3238,33.4 L92.7613,33.4 L92.7613,31.65 L86.3238,31.65 L86.3238,33.4 Z " fill="#000000"/><text fill="#808080" font-family="sans-serif" font-size="14" font-style="italic" lengthAdjust="spacing" textLength="84.2657" x="103.48" y="36.762">DATA_VALUE</text><line style="stroke:#808080;stroke-width:1;stroke-dasharray:1,3;" x1="75.48" x2="189.7457" y1="47.4" y2="47.4"/><line style="stroke:#808080;stroke-width:1;stroke-dasharray:1,3;" x1="75.48" x2="189.7457" y1="55.4" y2="55.4"/></g><!--class Ordered--><g class="entity" data-entity="Ordered" data-source-line="32" data-uid="ent0007" id="entity_Ordered"><rect fill="#F5F5F5" height="64.7999" rx="2.5" ry="2.5" style="stroke:#808080;stroke-width:1;stroke-dasharray:1,3;" width="271.657" x="225.78" y="7"/><ellipse cx="331.3886" cy="23" fill="#A9DCDF" rx="11" ry="11" style="stroke:#181818;stroke-width:1;"/><path d="M325.9043,28.5 L327.9355,28.5 L331.9824,17.1563 L331.0761,17.1563 L334.9043,28.5 L337.0449,28.5 L332.7168,16.1719 L330.498,16.1719 L325.9043,28.5 Z M328.2324,25 L334.6699,25 L334.6699,23.25 L328.2324,23.25 L328.2324,25 Z " fill="#000000"/><text fill="#808080" font-family="sans-serif" font-size="14" font-style="italic" lengthAdjust="spacing" textLength="51.9398" x="351.8886" y="28.362">Ordered</text><line style="stroke:#808080;stroke-width:1;stroke-dasharray:1,3;" x1="226.78" x2="496.437" y1="39" y2="39"/><line style="stroke:#808080;stroke-width:1;stroke-dasharray:1,3;" x1="226.78" x2="496.437" y1="47" y2="47"/><ellipse cx="236.78" cy="60.9" fill="#84BE84" rx="3" ry="3" style="stroke:#038048;stroke-width:1;"/><text fill="#808080" font-family="sans-serif" font-size="14" font-style="italic" lengthAdjust="spacing" textLength="245.657" x="245.78" y="64.7619">infix &lt;( other : Ordered [1] ) : Boolean [1]</text></g><!--reverse link DATA_VALUE to DV_ORDERED--><g class="link" data-entity-1="DATA_VALUE" data-entity-2="DV_ORDERED" data-source-line="30" data-uid="lnk6" id="link_DATA_VALUE_DV_ORDERED"><path codeLine="30" d="M157.8759,78.7957 C169.4859,96.4357 176.27,106.73 192.61,131.56" fill="none" id="DATA_VALUE-backto-DV_ORDERED" style="stroke:#181818;stroke-width:1;"/><polygon fill="none" points="147.98,63.76,152.864,82.0943,162.8878,75.497,147.98,63.76" style="stroke:#181818;stroke-width:1;"/></g><!--reverse link Ordered to DV_ORDERED--><g class="link" data-entity-1="Ordered" data-entity-2="DV_ORDERED" data-source-line="36" data-uid="lnk8" id="link_Ordered_DV_ORDERED"><path codeLine="36" d="M330.5601,87.1634 C319.4001,103.9634 315.11,110.44 301.09,131.55" fill="none" id="Ordered-backto-DV_ORDERED" style="stroke:#181818;stroke-width:1;"/><polygon fill="none" points="340.52,72.17,325.5623,83.8434,335.5579,90.4833,340.52,72.17" style="stroke:#181818;stroke-width:1;"/></g><!--reverse link DV_ORDERED to DV_QUANTIFIED--><g class="link" data-entity-1="DV_ORDERED" data-entity-2="DV_QUANTIFIED" data-source-line="38" data-uid="lnk9" id="link_DV_ORDERED_DV_QUANTIFIED"><path codeLine="38" d="M246.61,315.63 C246.61,335.36 246.61,338.19 246.61,357.04" fill="none" id="DV_ORDERED-backto-DV_QUANTIFIED" style="stroke:#181818;stroke-width:1;"/><polygon fill="none" points="246.61,297.63,240.61,315.63,252.61,315.63,246.61,297.63" style="stroke:#181818;stroke-width:1;"/></g><!--reverse link DV_QUANTIFIED to DV_ABSOLUTE_QUANTITY--><g class="link" data-entity-1="DV_QUANTIFIED" data-entity-2="DV_ABSOLUTE_QUANTITY" data-source-line="40" data-uid="lnk10" id="link_DV_QUANTIFIED_DV_ABSOLUTE_QUANTITY"><path codeLine="40" d="M246.61,507.71 C246.61,527.13 246.61,530.24 246.61,549.09" fill="none" id="DV_QUANTIFIED-backto-DV_ABSOLUTE_QUANTITY" style="stroke:#181818;stroke-width:1;"/><polygon fill="none" points="246.61,489.71,240.61,507.71,252.61,507.71,246.61,489.71" style="stroke:#181818;stroke-width:1;"/></g></g></svg>
