<svg xmlns="http://www.w3.org/2000/svg" xmlns:xlink="http://www.w3.org/1999/xlink" contentStyleType="text/css" data-diagram-type="CLASS" height="1048px" preserveAspectRatio="none" style="width:1101px;height:1048px;background:#FFFFFF;" version="1.1" viewBox="0 0 1101 1048" width="1101px" zoomAndPan="magnify"><defs/><g><!--class DV_DURATION--><g class="entity" data-entity="DV_DURATION" data-source-line="2" data-uid="ent0002" id="entity_DV_DURATION"><rect fill="#F1F1F1" height="81.5999" rx="2.5" ry="2.5" style="stroke:#181818;stroke-width:0.5;" width="432.1805" x="218.52" y="959.8"/><ellipse cx="382.8654" cy="975.8" fill="#ADD1B2" rx="11" ry="11" style="stroke:#181818;stroke-width:1;"/><path d="M382.8654,982.2219 C384.0373,982.2219 385.2717,981.9563 386.6467,981.3469 L386.1623,979.8313 C385.0686,980.2531 384.0529,980.4406 383.1936,980.4406 C380.4748,980.4406 378.7561,978.5969 378.7561,975.6906 C378.7561,972.9406 380.3186,971.3469 383.0529,971.3469 C383.9748,971.3469 384.9904,971.5344 386.1311,971.9563 L386.7092,970.4406 C385.6154,969.8625 384.3186,969.5656 383.1311,969.5656 C379.3654,969.5656 376.7873,972.2063 376.7873,976.0188 C376.7873,979.6906 379.2717,982.2219 382.8654,982.2219 Z " fill="#000000"/><text fill="#000000" font-family="sans-serif" font-size="14" lengthAdjust="spacing" textLength="94.9896" x="403.3654" y="981.162">DV_DURATION</text><line style="stroke:#181818;stroke-width:0.5;" x1="219.52" x2="649.7005" y1="991.8" y2="991.8"/><ellipse cx="229.52" cy="1005.7" fill="none" rx="3" ry="3" style="stroke:#038048;stroke-width:1;"/><text fill="#000000" font-family="sans-serif" font-size="14" lengthAdjust="spacing" textLength="98.9656" x="238.52" y="1009.5619">value : String [1]</text><line style="stroke:#181818;stroke-width:0.5;" x1="219.52" x2="649.7005" y1="1016.5999" y2="1016.5999"/><ellipse cx="229.52" cy="1030.4999" fill="#84BE84" rx="3" ry="3" style="stroke:#038048;stroke-width:1;"/><text fill="#000000" font-family="sans-serif" font-size="14" lengthAdjust="spacing" textLength="406.1805" x="238.52" y="1034.3619">is_strictly_comparable_to( other : DV_ORDERED [1] ) : Boolean [1]</text></g><!--class DV_AMOUNT--><g class="entity" data-entity="DV_AMOUNT" data-source-line="7" data-uid="ent0003" id="entity_DV_AMOUNT"><rect fill="#F5F5F5" height="165.5995" rx="2.5" ry="2.5" style="stroke:#808080;stroke-width:1;stroke-dasharray:1,3;" width="416.2065" x="38.51" y="683.8"/><ellipse cx="200.0414" cy="699.8" fill="#A9DCDF" rx="11" ry="11" style="stroke:#181818;stroke-width:1;"/><path d="M194.557,705.3 L196.5883,705.3 L200.6352,693.9563 L199.7289,693.9563 L203.557,705.3 L205.6977,705.3 L201.3695,692.9719 L199.1508,692.9719 L194.557,705.3 Z M196.8852,701.8 L203.3227,701.8 L203.3227,700.05 L196.8852,700.05 L196.8852,701.8 Z " fill="#000000"/><text fill="#808080" font-family="sans-serif" font-size="14" font-style="italic" lengthAdjust="spacing" textLength="84.6437" x="220.5414" y="705.162">DV_AMOUNT</text><line style="stroke:#808080;stroke-width:1;stroke-dasharray:1,3;" x1="39.51" x2="453.7165" y1="715.8" y2="715.8"/><ellipse cx="49.51" cy="729.7" fill="none" rx="3" ry="3" style="stroke:#038048;stroke-width:1;"/><text fill="#808080" font-family="sans-serif" font-size="14" lengthAdjust="spacing" textLength="220.6811" x="58.51" y="733.5619">accuracy_is_percent : Boolean [0..1]</text><ellipse cx="49.51" cy="746.4999" fill="none" rx="3" ry="3" style="stroke:#038048;stroke-width:1;"/><text fill="#808080" font-family="sans-serif" font-size="14" lengthAdjust="spacing" textLength="125.2015" x="58.51" y="750.3619">accuracy : Real [0..1]</text><line style="stroke:#808080;stroke-width:1;stroke-dasharray:1,3;" x1="39.51" x2="453.7165" y1="757.3999" y2="757.3999"/><ellipse cx="49.51" cy="771.2998" fill="#84BE84" rx="3" ry="3" style="stroke:#038048;stroke-width:1;"/><text fill="#808080" font-family="sans-serif" font-size="14" lengthAdjust="spacing" textLength="390.2065" x="58.51" y="775.1618">valid_percentage( number : Ordered_Numeric [1] ) : Boolean [1]</text><ellipse cx="49.51" cy="788.0997" fill="#84BE84" rx="3" ry="3" style="stroke:#038048;stroke-width:1;"/><text fill="#808080" font-family="sans-serif" font-size="14" lengthAdjust="spacing" textLength="319.7727" x="58.51" y="791.9617">infix =( source : DV_AMOUNT [1] ) : DV_AMOUNT [1]</text><ellipse cx="49.51" cy="804.8997" fill="#84BE84" rx="3" ry="3" style="stroke:#038048;stroke-width:1;"/><text fill="#808080" font-family="sans-serif" font-size="14" lengthAdjust="spacing" textLength="311.9188" x="58.51" y="808.7616">infix +( other : DV_AMOUNT [1] ) : DV_AMOUNT [1]</text><ellipse cx="49.51" cy="821.6996" fill="#84BE84" rx="3" ry="3" style="stroke:#038048;stroke-width:1;"/><text fill="#808080" font-family="sans-serif" font-size="14" lengthAdjust="spacing" textLength="309.7348" x="58.51" y="825.5616">infix -( other : DV_AMOUNT [1] ) : DV_AMOUNT [1]</text><ellipse cx="49.51" cy="838.4995" fill="#84BE84" rx="3" ry="3" style="stroke:#038048;stroke-width:1;"/><text fill="#808080" font-family="sans-serif" font-size="14" lengthAdjust="spacing" textLength="166.0674" x="58.51" y="842.3615">prefix -() : DV_AMOUNT [1]</text></g><!--class DV_QUANTIFIED--><g class="entity" data-entity="DV_QUANTIFIED" data-source-line="17" data-uid="ent0004" id="entity_DV_QUANTIFIED"><rect fill="#F5F5F5" height="131.9996" rx="2.5" ry="2.5" style="stroke:#808080;stroke-width:1;stroke-dasharray:1,3;" width="262.515" x="115.35" y="441.4"/><ellipse cx="189.2697" cy="457.4" fill="#A9DCDF" rx="11" ry="11" style="stroke:#181818;stroke-width:1;"/><path d="M183.7853,462.9 L185.8166,462.9 L189.8635,451.5563 L188.9572,451.5563 L192.7853,462.9 L194.926,462.9 L190.5978,450.5719 L188.3791,450.5719 L183.7853,462.9 Z M186.1135,459.4 L192.551,459.4 L192.551,457.65 L186.1135,457.65 L186.1135,459.4 Z " fill="#000000"/><text fill="#808080" font-family="sans-serif" font-size="14" font-style="italic" lengthAdjust="spacing" textLength="106.1756" x="209.7697" y="462.762">DV_QUANTIFIED</text><line style="stroke:#808080;stroke-width:1;stroke-dasharray:1,3;" x1="116.35" x2="376.865" y1="473.4" y2="473.4"/><ellipse cx="126.35" cy="487.3" fill="none" rx="3" ry="3" style="stroke:#038048;stroke-width:1;"/><text fill="#808080" font-family="sans-serif" font-size="14" lengthAdjust="spacing" textLength="193.9972" x="135.35" y="491.1619">magnitude_status : String [0..1]</text><ellipse cx="126.35" cy="504.0999" fill="none" rx="3" ry="3" style="stroke:#038048;stroke-width:1;"/><text fill="#808080" font-family="sans-serif" font-size="14" lengthAdjust="spacing" textLength="121.4915" x="135.35" y="507.9619">accuracy : Any [0..1]</text><line style="stroke:#808080;stroke-width:1;stroke-dasharray:1,3;" x1="116.35" x2="376.865" y1="514.9999" y2="514.9999"/><ellipse cx="126.35" cy="528.8998" fill="#84BE84" rx="3" ry="3" style="stroke:#038048;stroke-width:1;"/><text fill="#808080" font-family="sans-serif" font-size="14" lengthAdjust="spacing" textLength="236.515" x="135.35" y="532.7618">valid_magnitude_status() : Boolean [1]</text><ellipse cx="126.35" cy="545.6997" fill="#84BE84" rx="3" ry="3" style="stroke:#038048;stroke-width:1;"/><text fill="#808080" font-family="sans-serif" font-size="14" font-style="italic" lengthAdjust="spacing" textLength="216.4531" x="135.35" y="549.5617">magnitude() : Ordered_Numeric [1]</text><ellipse cx="126.35" cy="562.4997" fill="#84BE84" rx="3" ry="3" style="stroke:#038048;stroke-width:1;"/><text fill="#808080" font-family="sans-serif" font-size="14" lengthAdjust="spacing" textLength="206.3172" x="135.35" y="566.3616">accuracy_unknown() : Boolean [1]</text></g><!--class DV_ORDERED--><g class="entity" data-entity="DV_ORDERED" data-source-line="25" data-uid="ent0005" id="entity_DV_ORDERED"><rect fill="#F5F5F5" height="165.5995" rx="2.5" ry="2.5" style="stroke:#808080;stroke-width:1;stroke-dasharray:1,3;" width="479.2201" x="7" y="182.2"/><ellipse cx="197.5322" cy="198.2" fill="#A9DCDF" rx="11" ry="11" style="stroke:#181818;stroke-width:1;"/><path d="M192.0479,203.7 L194.0791,203.7 L198.126,192.3563 L197.2197,192.3563 L201.0479,203.7 L203.1885,203.7 L198.8604,191.3719 L196.6416,191.3719 L192.0479,203.7 Z M194.376,200.2 L200.8135,200.2 L200.8135,198.45 L194.376,198.45 L194.376,200.2 Z " fill="#000000"/><text fill="#808080" font-family="sans-serif" font-size="14" font-style="italic" lengthAdjust="spacing" textLength="89.6556" x="218.0322" y="203.562">DV_ORDERED</text><line style="stroke:#808080;stroke-width:1;stroke-dasharray:1,3;" x1="8" x2="485.2201" y1="214.2" y2="214.2"/><ellipse cx="18" cy="228.1" fill="none" rx="3" ry="3" style="stroke:#038048;stroke-width:1;"/><text fill="#808080" font-family="sans-serif" font-size="14" lengthAdjust="spacing" textLength="230.5231" x="27" y="231.9619">normal_status : CODE_PHRASE [0..1]</text><ellipse cx="18" cy="244.8999" fill="none" rx="3" ry="3" style="stroke:#038048;stroke-width:1;"/><text fill="#808080" font-family="sans-serif" font-size="14" lengthAdjust="spacing" textLength="220.3871" x="27" y="248.7619">normal_range : DV_INTERVAL [0..1]</text><ellipse cx="18" cy="261.6998" fill="none" rx="3" ry="3" style="stroke:#038048;stroke-width:1;"/><text fill="#808080" font-family="sans-serif" font-size="14" lengthAdjust="spacing" textLength="453.2201" x="27" y="265.5618">other_reference_ranges : List&lt;REFERENCE_RANGE&lt;DV_ORDERED&gt;&gt; [*]</text><line style="stroke:#808080;stroke-width:1;stroke-dasharray:1,3;" x1="8" x2="485.2201" y1="272.5998" y2="272.5998"/><ellipse cx="18" cy="286.4997" fill="#84BE84" rx="3" ry="3" style="stroke:#038048;stroke-width:1;"/><text fill="#808080" font-family="sans-serif" font-size="14" font-style="italic" lengthAdjust="spacing" textLength="406.1805" x="27" y="290.3617">is_strictly_comparable_to( other : DV_ORDERED [1] ) : Boolean [1]</text><ellipse cx="18" cy="303.2997" fill="#84BE84" rx="3" ry="3" style="stroke:#038048;stroke-width:1;"/><text fill="#808080" font-family="sans-serif" font-size="14" lengthAdjust="spacing" textLength="146.6214" x="27" y="307.1616">is_simple() : Boolean [1]</text><ellipse cx="18" cy="320.0996" fill="#84BE84" rx="3" ry="3" style="stroke:#038048;stroke-width:1;"/><text fill="#808080" font-family="sans-serif" font-size="14" lengthAdjust="spacing" textLength="149.6174" x="27" y="323.9616">is_normal() : Boolean [1]</text><ellipse cx="18" cy="336.8995" fill="#84BE84" rx="3" ry="3" style="stroke:#038048;stroke-width:1;"/><text fill="#808080" font-family="sans-serif" font-size="14" font-style="italic" lengthAdjust="spacing" textLength="245.657" x="27" y="340.7615">infix &lt;( other : Ordered [1] ) : Boolean [1]</text></g><!--class DATA_VALUE--><g class="entity" data-entity="DATA_VALUE" data-source-line="35" data-uid="ent0006" id="entity_DATA_VALUE"><rect fill="#F5F5F5" height="48" rx="2.5" ry="2.5" style="stroke:#808080;stroke-width:1;stroke-dasharray:1,3;" width="116.2657" x="188.48" y="23.8"/><ellipse cx="203.48" cy="39.8" fill="#A9DCDF" rx="11" ry="11" style="stroke:#181818;stroke-width:1;"/><path d="M197.9956,45.3 L200.0269,45.3 L204.0738,33.9563 L203.1675,33.9563 L206.9956,45.3 L209.1363,45.3 L204.8081,32.9719 L202.5894,32.9719 L197.9956,45.3 Z M200.3238,41.8 L206.7613,41.8 L206.7613,40.05 L200.3238,40.05 L200.3238,41.8 Z " fill="#000000"/><text fill="#808080" font-family="sans-serif" font-size="14" font-style="italic" lengthAdjust="spacing" textLength="84.2657" x="217.48" y="45.162">DATA_VALUE</text><line style="stroke:#808080;stroke-width:1;stroke-dasharray:1,3;" x1="189.48" x2="303.7457" y1="55.8" y2="55.8"/><line style="stroke:#808080;stroke-width:1;stroke-dasharray:1,3;" x1="189.48" x2="303.7457" y1="63.8" y2="63.8"/></g><!--class Ordered--><g class="entity" data-entity="Ordered" data-source-line="40" data-uid="ent0008" id="entity_Ordered"><rect fill="#F5F5F5" height="81.5999" rx="2.5" ry="2.5" style="stroke:#808080;stroke-width:1;stroke-dasharray:1,3;" width="271.657" x="385.78" y="7"/><ellipse cx="491.3886" cy="23" fill="#A9DCDF" rx="11" ry="11" style="stroke:#181818;stroke-width:1;"/><path d="M485.9043,28.5 L487.9355,28.5 L491.9824,17.1563 L491.0761,17.1563 L494.9043,28.5 L497.0449,28.5 L492.7168,16.1719 L490.498,16.1719 L485.9043,28.5 Z M488.2324,25 L494.6699,25 L494.6699,23.25 L488.2324,23.25 L488.2324,25 Z " fill="#000000"/><text fill="#808080" font-family="sans-serif" font-size="14" font-style="italic" lengthAdjust="spacing" textLength="51.9398" x="511.8886" y="28.362">Ordered</text><line style="stroke:#808080;stroke-width:1;stroke-dasharray:1,3;" x1="386.78" x2="656.437" y1="39" y2="39"/><line style="stroke:#808080;stroke-width:1;stroke-dasharray:1,3;" x1="386.78" x2="656.437" y1="47" y2="47"/><ellipse cx="396.78" cy="60.9" fill="#84BE84" rx="3" ry="3" style="stroke:#038048;stroke-width:1;"/><text fill="#808080" font-family="sans-serif" font-size="14" font-style="italic" lengthAdjust="spacing" textLength="245.657" x="405.78" y="64.7619">infix &lt;( other : Ordered [1] ) : Boolean [1]</text><ellipse cx="396.78" cy="77.6999" fill="#84BE84" rx="3" ry="3" style="stroke:#038048;stroke-width:1;"/><text fill="#808080" font-family="sans-serif" font-size="14" font-style="italic" lengthAdjust="spacing" textLength="245.657" x="405.78" y="81.5619">infix &lt;( other : Ordered [1] ) : Boolean [1]</text></g><!--class Iso8601_duration--><g class="entity" data-entity="Iso8601_duration" data-source-line="52" data-uid="ent0013" id="entity_Iso8601_duration"><rect fill="#F5F5F5" height="266.399" rx="2.5" ry="2.5" style="stroke:#808080;stroke-width:1;stroke-dasharray:1,3;" width="266.127" x="489.55" y="633.4"/><ellipse cx="564.0717" cy="649.4" fill="#ADD1B2" rx="11" ry="11" style="stroke:#181818;stroke-width:1;"/><path d="M564.0717,655.8219 C565.2436,655.8219 566.478,655.5563 567.853,654.9469 L567.3686,653.4313 C566.2748,653.8531 565.2592,654.0406 564.3998,654.0406 C561.6811,654.0406 559.9623,652.1969 559.9623,649.2906 C559.9623,646.5406 561.5248,644.9469 564.2592,644.9469 C565.1811,644.9469 566.1967,645.1344 567.3373,645.5563 L567.9155,644.0406 C566.8217,643.4625 565.5248,643.1656 564.3373,643.1656 C560.5717,643.1656 557.9936,645.8063 557.9936,649.6188 C557.9936,653.2906 560.478,655.8219 564.0717,655.8219 Z " fill="#000000"/><text fill="#808080" font-family="sans-serif" font-size="14" lengthAdjust="spacing" textLength="108.5836" x="584.5717" y="654.762">Iso8601_duration</text><line style="stroke:#808080;stroke-width:1;stroke-dasharray:1,3;" x1="490.55" x2="754.677" y1="665.4" y2="665.4"/><line style="stroke:#808080;stroke-width:1;stroke-dasharray:1,3;" x1="490.55" x2="754.677" y1="673.4" y2="673.4"/><ellipse cx="500.55" cy="687.3" fill="#84BE84" rx="3" ry="3" style="stroke:#038048;stroke-width:1;"/><text fill="#808080" font-family="sans-serif" font-size="14" lengthAdjust="spacing" textLength="132.5235" x="509.55" y="691.1619">seconds() : Integer [1]</text><ellipse cx="500.55" cy="704.0999" fill="#84BE84" rx="3" ry="3" style="stroke:#038048;stroke-width:1;"/><text fill="#808080" font-family="sans-serif" font-size="14" lengthAdjust="spacing" textLength="181.0613" x="509.55" y="707.9619">fractional_seconds() : Real [1]</text><ellipse cx="500.55" cy="720.8998" fill="#84BE84" rx="3" ry="3" style="stroke:#038048;stroke-width:1;"/><text fill="#808080" font-family="sans-serif" font-size="14" lengthAdjust="spacing" textLength="240.127" x="509.55" y="724.7618">is_decimal_sign_comma() : Boolean [1]</text><ellipse cx="500.55" cy="737.6997" fill="#84BE84" rx="3" ry="3" style="stroke:#038048;stroke-width:1;"/><text fill="#808080" font-family="sans-serif" font-size="14" lengthAdjust="spacing" textLength="144.9974" x="509.55" y="741.5617">is_partial() : Boolean [1]</text><ellipse cx="500.55" cy="754.4997" fill="#84BE84" rx="3" ry="3" style="stroke:#038048;stroke-width:1;"/><text fill="#808080" font-family="sans-serif" font-size="14" lengthAdjust="spacing" textLength="162.6934" x="509.55" y="758.3616">is_extended() : Boolean [1]</text><ellipse cx="500.55" cy="771.2996" fill="#84BE84" rx="3" ry="3" style="stroke:#038048;stroke-width:1;"/><text fill="#808080" font-family="sans-serif" font-size="14" lengthAdjust="spacing" textLength="129.5135" x="509.55" y="775.1616">months() : Integer [1]</text><ellipse cx="500.55" cy="788.0995" fill="#84BE84" rx="3" ry="3" style="stroke:#038048;stroke-width:1;"/><text fill="#808080" font-family="sans-serif" font-size="14" lengthAdjust="spacing" textLength="114.7996" x="509.55" y="791.9615">years() : Integer [1]</text><ellipse cx="500.55" cy="804.8995" fill="#84BE84" rx="3" ry="3" style="stroke:#038048;stroke-width:1;"/><text fill="#808080" font-family="sans-serif" font-size="14" lengthAdjust="spacing" textLength="120.9595" x="509.55" y="808.7614">weeks() : Integer [1]</text><ellipse cx="500.55" cy="821.6994" fill="#84BE84" rx="3" ry="3" style="stroke:#038048;stroke-width:1;"/><text fill="#808080" font-family="sans-serif" font-size="14" lengthAdjust="spacing" textLength="134.8755" x="509.55" y="825.5614">to_seconds() : Real [1]</text><ellipse cx="500.55" cy="838.4993" fill="#84BE84" rx="3" ry="3" style="stroke:#038048;stroke-width:1;"/><text fill="#808080" font-family="sans-serif" font-size="14" lengthAdjust="spacing" textLength="132.2855" x="509.55" y="842.3613">minutes() : Integer [1]</text><ellipse cx="500.55" cy="855.2992" fill="#84BE84" rx="3" ry="3" style="stroke:#038048;stroke-width:1;"/><text fill="#808080" font-family="sans-serif" font-size="14" lengthAdjust="spacing" textLength="117.2076" x="509.55" y="859.1612">hours() : Integer [1]</text><ellipse cx="500.55" cy="872.0992" fill="#84BE84" rx="3" ry="3" style="stroke:#038048;stroke-width:1;"/><text fill="#808080" font-family="sans-serif" font-size="14" lengthAdjust="spacing" textLength="110.1096" x="509.55" y="875.9611">days() : Integer [1]</text><ellipse cx="500.55" cy="888.8991" fill="#84BE84" rx="3" ry="3" style="stroke:#038048;stroke-width:1;"/><text fill="#808080" font-family="sans-serif" font-size="14" lengthAdjust="spacing" textLength="131.2635" x="509.55" y="892.7611">as_string() : String [1]</text></g><!--class Iso8601_type--><g class="entity" data-entity="Iso8601_type" data-source-line="68" data-uid="ent0014" id="entity_Iso8601_type"><rect fill="#F5F5F5" height="98.3998" rx="2.5" ry="2.5" style="stroke:#808080;stroke-width:1;stroke-dasharray:1,3;" width="188.6934" x="528.26" y="458.2"/><ellipse cx="576.7908" cy="474.2" fill="#A9DCDF" rx="11" ry="11" style="stroke:#181818;stroke-width:1;"/><path d="M571.3065,479.7 L573.3377,479.7 L577.3846,468.3563 L576.4783,468.3563 L580.3065,479.7 L582.4471,479.7 L578.119,467.3719 L575.9002,467.3719 L571.3065,479.7 Z M573.6346,476.2 L580.0721,476.2 L580.0721,474.45 L573.6346,474.45 L573.6346,476.2 Z " fill="#000000"/><text fill="#808080" font-family="sans-serif" font-size="14" font-style="italic" lengthAdjust="spacing" textLength="83.1317" x="597.2908" y="479.562">Iso8601_type</text><line style="stroke:#808080;stroke-width:1;stroke-dasharray:1,3;" x1="529.26" x2="715.9534" y1="490.2" y2="490.2"/><ellipse cx="539.26" cy="504.1" fill="none" rx="3" ry="3" style="stroke:#038048;stroke-width:1;"/><text fill="#808080" font-family="sans-serif" font-size="14" lengthAdjust="spacing" textLength="98.9656" x="548.26" y="507.9619">value : String [1]</text><line style="stroke:#808080;stroke-width:1;stroke-dasharray:1,3;" x1="529.26" x2="715.9534" y1="514.9999" y2="514.9999"/><ellipse cx="539.26" cy="528.8999" fill="#84BE84" rx="3" ry="3" style="stroke:#038048;stroke-width:1;"/><text fill="#808080" font-family="sans-serif" font-size="14" font-style="italic" lengthAdjust="spacing" textLength="144.9974" x="548.26" y="532.7619">is_partial() : Boolean [1]</text><ellipse cx="539.26" cy="545.6998" fill="#84BE84" rx="3" ry="3" style="stroke:#038048;stroke-width:1;"/><text fill="#808080" font-family="sans-serif" font-size="14" font-style="italic" lengthAdjust="spacing" textLength="162.6934" x="548.26" y="549.5618">is_extended() : Boolean [1]</text></g><!--class Temporal--><g class="entity" data-entity="Temporal" data-source-line="74" data-uid="ent0015" id="entity_Temporal"><rect fill="#F5F5F5" height="48" rx="2.5" ry="2.5" style="stroke:#808080;stroke-width:1;stroke-dasharray:1,3;" width="91.9898" x="521.62" y="241"/><ellipse cx="536.62" cy="257" fill="#A9DCDF" rx="11" ry="11" style="stroke:#181818;stroke-width:1;"/><path d="M531.1356,262.5 L533.1669,262.5 L537.2138,251.1563 L536.3075,251.1563 L540.1356,262.5 L542.2763,262.5 L537.9481,250.1719 L535.7294,250.1719 L531.1356,262.5 Z M533.4638,259 L539.9013,259 L539.9013,257.25 L533.4638,257.25 L533.4638,259 Z " fill="#000000"/><text fill="#808080" font-family="sans-serif" font-size="14" font-style="italic" lengthAdjust="spacing" textLength="59.9898" x="550.62" y="262.362">Temporal</text><line style="stroke:#808080;stroke-width:1;stroke-dasharray:1,3;" x1="522.62" x2="612.6098" y1="273" y2="273"/><line style="stroke:#808080;stroke-width:1;stroke-dasharray:1,3;" x1="522.62" x2="612.6098" y1="281" y2="281"/></g><!--class Time_Definitions--><g class="entity" data-entity="Time_Definitions" data-source-line="85" data-uid="ent0018" id="entity_Time_Definitions"><rect fill="#F5F5F5" height="232.7992" rx="2.5" ry="2.5" style="stroke:#808080;stroke-width:1;stroke-dasharray:1,3;" width="445.5084" x="648.86" y="148.6"/><ellipse cx="814.3814" cy="164.6" fill="#ADD1B2" rx="11" ry="11" style="stroke:#181818;stroke-width:1;"/><path d="M814.3814,171.0219 C815.5533,171.0219 816.7877,170.7563 818.1627,170.1469 L817.6783,168.6313 C816.5845,169.0531 815.5689,169.2406 814.7095,169.2406 C811.9908,169.2406 810.272,167.3969 810.272,164.4906 C810.272,161.7406 811.8345,160.1469 814.5689,160.1469 C815.4908,160.1469 816.5064,160.3344 817.647,160.7563 L818.2252,159.2406 C817.1314,158.6625 815.8345,158.3656 814.647,158.3656 C810.8814,158.3656 808.3033,161.0063 808.3033,164.8188 C808.3033,168.4906 810.7877,171.0219 814.3814,171.0219 Z " fill="#000000"/><text fill="#808080" font-family="sans-serif" font-size="14" lengthAdjust="spacing" textLength="105.9656" x="834.8814" y="169.962">Time_Definitions</text><line style="stroke:#808080;stroke-width:1;stroke-dasharray:1,3;" x1="649.86" x2="1093.3684" y1="180.6" y2="180.6"/><line style="stroke:#808080;stroke-width:1;stroke-dasharray:1,3;" x1="649.86" x2="1093.3684" y1="188.6" y2="188.6"/><ellipse cx="659.86" cy="202.5" fill="#84BE84" rx="3" ry="3" style="stroke:#038048;stroke-width:1;"/><text fill="#808080" font-family="sans-serif" font-size="14" lengthAdjust="spacing" textLength="237.0191" x="668.86" y="206.3619">valid_year( y : Integer [1] ) : Boolean [1]</text><ellipse cx="659.86" cy="219.2999" fill="#84BE84" rx="3" ry="3" style="stroke:#038048;stroke-width:1;"/><text fill="#808080" font-family="sans-serif" font-size="14" lengthAdjust="spacing" textLength="257.417" x="668.86" y="223.1619">valid_month( m : Integer [1] ) : Boolean [1]</text><ellipse cx="659.86" cy="236.0998" fill="#84BE84" rx="3" ry="3" style="stroke:#038048;stroke-width:1;"/><text fill="#808080" font-family="sans-serif" font-size="14" lengthAdjust="spacing" textLength="412.6764" x="668.86" y="239.9618">valid_day( y : Integer [1], m : Integer [1], d : Integer [1] ) : Boolean [1]</text><ellipse cx="659.86" cy="252.8997" fill="#84BE84" rx="3" ry="3" style="stroke:#038048;stroke-width:1;"/><text fill="#808080" font-family="sans-serif" font-size="14" lengthAdjust="spacing" textLength="419.5084" x="668.86" y="256.7617">valid_hour( h : Integer [1], m : Integer [1], s : Integer [1] ) : Boolean [1]</text><ellipse cx="659.86" cy="269.6997" fill="#84BE84" rx="3" ry="3" style="stroke:#038048;stroke-width:1;"/><text fill="#808080" font-family="sans-serif" font-size="14" lengthAdjust="spacing" textLength="260.189" x="668.86" y="273.5616">valid_minute( m : Integer [1] ) : Boolean [1]</text><ellipse cx="659.86" cy="286.4996" fill="#84BE84" rx="3" ry="3" style="stroke:#038048;stroke-width:1;"/><text fill="#808080" font-family="sans-serif" font-size="14" lengthAdjust="spacing" textLength="254.519" x="668.86" y="290.3616">valid_second( s : Integer [1] ) : Boolean [1]</text><ellipse cx="659.86" cy="303.2995" fill="#84BE84" rx="3" ry="3" style="stroke:#038048;stroke-width:1;"/><text fill="#808080" font-family="sans-serif" font-size="14" lengthAdjust="spacing" textLength="325.6528" x="668.86" y="307.1615">valid_fractional_second( fs : Double [1] ) : Boolean [1]</text><ellipse cx="659.86" cy="320.0995" fill="#84BE84" rx="3" ry="3" style="stroke:#038048;stroke-width:1;"/><text fill="#808080" font-family="sans-serif" font-size="14" lengthAdjust="spacing" textLength="286.1729" x="668.86" y="323.9614">valid_iso8601_date( s : String [1] ) : Boolean [1]</text><ellipse cx="659.86" cy="336.8994" fill="#84BE84" rx="3" ry="3" style="stroke:#038048;stroke-width:1;"/><text fill="#808080" font-family="sans-serif" font-size="14" lengthAdjust="spacing" textLength="286.8729" x="668.86" y="340.7614">valid_iso8601_time( s : String [1] ) : Boolean [1]</text><ellipse cx="659.86" cy="353.6993" fill="#84BE84" rx="3" ry="3" style="stroke:#038048;stroke-width:1;"/><text fill="#808080" font-family="sans-serif" font-size="14" lengthAdjust="spacing" textLength="321.4667" x="668.86" y="357.5613">valid_iso8601_date_time( s : String [1] ) : Boolean [1]</text><ellipse cx="659.86" cy="370.4992" fill="#84BE84" rx="3" ry="3" style="stroke:#038048;stroke-width:1;"/><text fill="#808080" font-family="sans-serif" font-size="14" lengthAdjust="spacing" textLength="311.1908" x="668.86" y="374.3612">valid_iso8601_duration( s : String [1] ) : Boolean [1]</text></g><!--reverse link DATA_VALUE to DV_ORDERED--><g class="link" data-entity-1="DATA_VALUE" data-entity-2="DV_ORDERED" data-source-line="38" data-uid="lnk7" id="link_DATA_VALUE_DV_ORDERED"><path codeLine="38" d="M246.61,90.24 C246.61,116.5 246.61,142.52 246.61,181.77" fill="none" id="DATA_VALUE-backto-DV_ORDERED" style="stroke:#181818;stroke-width:1;"/><polygon fill="none" points="246.61,72.24,240.61,90.24,252.61,90.24,246.61,72.24" style="stroke:#181818;stroke-width:1;"/></g><!--reverse link Ordered to DV_ORDERED--><g class="link" data-entity-1="Ordered" data-entity-2="DV_ORDERED" data-source-line="44" data-uid="lnk9" id="link_Ordered_DV_ORDERED"><path codeLine="44" d="M456.0328,100.1209 C422.6828,126.2109 392.21,150.06 351.58,181.86" fill="none" id="Ordered-backto-DV_ORDERED" style="stroke:#181818;stroke-width:1;"/><polygon fill="none" points="470.21,89.03,452.3359,95.3952,459.7298,104.8466,470.21,89.03" style="stroke:#181818;stroke-width:1;"/></g><!--reverse link DV_ORDERED to DV_QUANTIFIED--><g class="link" data-entity-1="DV_ORDERED" data-entity-2="DV_QUANTIFIED" data-source-line="46" data-uid="lnk10" id="link_DV_ORDERED_DV_QUANTIFIED"><path codeLine="46" d="M246.61,366.06 C246.61,396.39 246.61,412.34 246.61,441" fill="none" id="DV_ORDERED-backto-DV_QUANTIFIED" style="stroke:#181818;stroke-width:1;"/><polygon fill="none" points="246.61,348.06,240.61,366.06,252.61,366.06,246.61,348.06" style="stroke:#181818;stroke-width:1;"/></g><!--reverse link DV_QUANTIFIED to DV_AMOUNT--><g class="link" data-entity-1="DV_QUANTIFIED" data-entity-2="DV_AMOUNT" data-source-line="48" data-uid="lnk11" id="link_DV_QUANTIFIED_DV_AMOUNT"><path codeLine="48" d="M246.61,591.64 C246.61,624.97 246.61,647.88 246.61,683.36" fill="none" id="DV_QUANTIFIED-backto-DV_AMOUNT" style="stroke:#181818;stroke-width:1;"/><polygon fill="none" points="246.61,573.64,240.61,591.64,252.61,591.64,246.61,573.64" style="stroke:#181818;stroke-width:1;"/></g><!--reverse link DV_AMOUNT to DV_DURATION--><g class="link" data-entity-1="DV_AMOUNT" data-entity-2="DV_DURATION" data-source-line="50" data-uid="lnk12" id="link_DV_AMOUNT_DV_DURATION"><path codeLine="50" d="M324.4926,863.7047 C354.7026,900.9847 377.72,929.4 402.17,959.56" fill="none" id="DV_AMOUNT-backto-DV_DURATION" style="stroke:#181818;stroke-width:1;"/><polygon fill="none" points="313.16,849.72,319.831,867.4823,329.1542,859.9272,313.16,849.72" style="stroke:#181818;stroke-width:1;"/></g><!--reverse link Ordered to Temporal--><g class="link" data-entity-1="Ordered" data-entity-2="Temporal" data-source-line="81" data-uid="lnk16" id="link_Ordered_Temporal"><path codeLine="81" d="M533.9718,106.6325 C543.5118,151.2725 554.83,204.22 562.61,240.59" fill="none" id="Ordered-backto-Temporal" style="stroke:#181818;stroke-width:1;"/><polygon fill="none" points="530.21,89.03,528.1043,107.8865,539.8393,105.3786,530.21,89.03" style="stroke:#181818;stroke-width:1;"/></g><!--reverse link Temporal to Iso8601_type--><g class="link" data-entity-1="Temporal" data-entity-2="Iso8601_type" data-source-line="83" data-uid="lnk17" id="link_Temporal_Iso8601_type"><path codeLine="83" d="M576.9975,307.0359 C585.8975,345.9059 599.83,406.84 611.53,457.98" fill="none" id="Temporal-backto-Iso8601_type" style="stroke:#181818;stroke-width:1;"/><polygon fill="none" points="572.98,289.49,571.1488,308.3751,582.8461,305.6968,572.98,289.49" style="stroke:#181818;stroke-width:1;"/></g><!--reverse link Time_Definitions to Iso8601_type--><g class="link" data-entity-1="Time_Definitions" data-entity-2="Iso8601_type" data-source-line="99" data-uid="lnk19" id="link_Time_Definitions_Iso8601_type"><path codeLine="99" d="M738.9013,394.1233 C710.9913,421.0733 695.72,435.82 672.79,457.95" fill="none" id="Time_Definitions-backto-Iso8601_type" style="stroke:#181818;stroke-width:1;"/><polygon fill="none" points="751.85,381.62,734.7336,389.8071,743.0691,398.4395,751.85,381.62" style="stroke:#181818;stroke-width:1;"/></g><!--reverse link Iso8601_type to Iso8601_duration--><g class="link" data-entity-1="Iso8601_type" data-entity-2="Iso8601_duration" data-source-line="101" data-uid="lnk20" id="link_Iso8601_type_Iso8601_duration"><path codeLine="101" d="M622.61,575.08 C622.61,596.93 622.61,605.87 622.61,633.05" fill="none" id="Iso8601_type-backto-Iso8601_duration" style="stroke:#181818;stroke-width:1;"/><polygon fill="none" points="622.61,557.08,616.61,575.08,628.61,575.08,622.61,557.08" style="stroke:#181818;stroke-width:1;"/></g><!--reverse link Iso8601_duration to DV_DURATION--><g class="link" data-entity-1="Iso8601_duration" data-entity-2="DV_DURATION" data-source-line="103" data-uid="lnk21" id="link_Iso8601_duration_DV_DURATION"><path codeLine="103" d="M503.827,914.1844 C486.387,935.7044 480.91,942.46 467.2,959.38" fill="none" id="Iso8601_duration-backto-DV_DURATION" style="stroke:#181818;stroke-width:1;"/><polygon fill="none" points="515.16,900.2,499.1655,910.4067,508.4884,917.962,515.16,900.2" style="stroke:#181818;stroke-width:1;"/></g></g></svg>
