<svg xmlns="http://www.w3.org/2000/svg" xmlns:xlink="http://www.w3.org/1999/xlink" contentStyleType="text/css" data-diagram-type="CLASS" height="930px" preserveAspectRatio="none" style="width:505px;height:930px;background:#FFFFFF;" version="1.1" viewBox="0 0 505 930" width="505px" zoomAndPan="magnify"><defs/><g><!--class DV_QUANTITY--><g class="entity" data-entity="DV_QUANTITY" data-source-line="2" data-uid="ent0002" id="entity_DV_QUANTITY"><rect fill="#F1F1F1" height="148.7996" rx="2.5" ry="2.5" style="stroke:#181818;stroke-width:0.5;" width="482.034" x="7" y="775"/><ellipse cx="197.5322" cy="791" fill="#ADD1B2" rx="11" ry="11" style="stroke:#181818;stroke-width:1;"/><path d="M197.5322,797.4219 C198.7041,797.4219 199.9384,797.1563 201.3134,796.5469 L200.8291,795.0313 C199.7353,795.4531 198.7197,795.6406 197.8603,795.6406 C195.1416,795.6406 193.4228,793.7969 193.4228,790.8906 C193.4228,788.1406 194.9853,786.5469 197.7197,786.5469 C198.6416,786.5469 199.6572,786.7344 200.7978,787.1563 L201.3759,785.6406 C200.2822,785.0625 198.9853,784.7656 197.7978,784.7656 C194.0322,784.7656 191.4541,787.4063 191.4541,791.2188 C191.4541,794.8906 193.9384,797.4219 197.5322,797.4219 Z " fill="#000000"/><text fill="#000000" font-family="sans-serif" font-size="14" lengthAdjust="spacing" textLength="92.4696" x="218.0322" y="796.362">DV_QUANTITY</text><line style="stroke:#181818;stroke-width:0.5;" x1="8" x2="488.034" y1="807" y2="807"/><ellipse cx="18" cy="820.9" fill="none" rx="3" ry="3" style="stroke:#038048;stroke-width:1;"/><text fill="#000000" font-family="sans-serif" font-size="14" lengthAdjust="spacing" textLength="122.8495" x="27" y="824.7619">magnitude : Real [1]</text><ellipse cx="18" cy="837.6999" fill="none" rx="3" ry="3" style="stroke:#038048;stroke-width:1;"/><text fill="#000000" font-family="sans-serif" font-size="14" lengthAdjust="spacing" textLength="145.5434" x="27" y="841.5619">precision : Integer [0..1]</text><ellipse cx="18" cy="854.4998" fill="none" rx="3" ry="3" style="stroke:#038048;stroke-width:1;"/><text fill="#000000" font-family="sans-serif" font-size="14" lengthAdjust="spacing" textLength="96.7256" x="27" y="858.3618">units : String [1]</text><ellipse cx="18" cy="871.2997" fill="none" rx="3" ry="3" style="stroke:#038048;stroke-width:1;"/><text fill="#000000" font-family="sans-serif" font-size="14" lengthAdjust="spacing" textLength="329.0966" x="27" y="875.1617">normal_range : DV_INTERVAL&lt;DV_QUANTITY&gt; [0..1]</text><ellipse cx="18" cy="888.0997" fill="none" rx="3" ry="3" style="stroke:#038048;stroke-width:1;"/><text fill="#000000" font-family="sans-serif" font-size="14" lengthAdjust="spacing" textLength="456.034" x="27" y="891.9616">other_reference_ranges : List&lt;REFERENCE_RANGE&lt;DV_QUANTITY&gt;&gt; [*]</text><line style="stroke:#181818;stroke-width:0.5;" x1="8" x2="488.034" y1="898.9996" y2="898.9996"/><ellipse cx="18" cy="912.8996" fill="#84BE84" rx="3" ry="3" style="stroke:#038048;stroke-width:1;"/><text fill="#000000" font-family="sans-serif" font-size="14" lengthAdjust="spacing" textLength="153.1454" x="27" y="916.7616">is_integral() : Boolean [1]</text></g><!--class DV_AMOUNT--><g class="entity" data-entity="DV_AMOUNT" data-source-line="11" data-uid="ent0003" id="entity_DV_AMOUNT"><rect fill="#F5F5F5" height="165.5995" rx="2.5" ry="2.5" style="stroke:#808080;stroke-width:1;stroke-dasharray:1,3;" width="416.2065" x="39.91" y="549.4"/><ellipse cx="201.4414" cy="565.4" fill="#A9DCDF" rx="11" ry="11" style="stroke:#181818;stroke-width:1;"/><path d="M195.957,570.9 L197.9883,570.9 L202.0352,559.5563 L201.1289,559.5563 L204.957,570.9 L207.0977,570.9 L202.7695,558.5719 L200.5508,558.5719 L195.957,570.9 Z M198.2852,567.4 L204.7227,567.4 L204.7227,565.65 L198.2852,565.65 L198.2852,567.4 Z " fill="#000000"/><text fill="#808080" font-family="sans-serif" font-size="14" font-style="italic" lengthAdjust="spacing" textLength="84.6437" x="221.9414" y="570.762">DV_AMOUNT</text><line style="stroke:#808080;stroke-width:1;stroke-dasharray:1,3;" x1="40.91" x2="455.1165" y1="581.4" y2="581.4"/><ellipse cx="50.91" cy="595.3" fill="none" rx="3" ry="3" style="stroke:#038048;stroke-width:1;"/><text fill="#808080" font-family="sans-serif" font-size="14" lengthAdjust="spacing" textLength="220.6811" x="59.91" y="599.1619">accuracy_is_percent : Boolean [0..1]</text><ellipse cx="50.91" cy="612.0999" fill="none" rx="3" ry="3" style="stroke:#038048;stroke-width:1;"/><text fill="#808080" font-family="sans-serif" font-size="14" lengthAdjust="spacing" textLength="125.2015" x="59.91" y="615.9619">accuracy : Real [0..1]</text><line style="stroke:#808080;stroke-width:1;stroke-dasharray:1,3;" x1="40.91" x2="455.1165" y1="622.9999" y2="622.9999"/><ellipse cx="50.91" cy="636.8998" fill="#84BE84" rx="3" ry="3" style="stroke:#038048;stroke-width:1;"/><text fill="#808080" font-family="sans-serif" font-size="14" lengthAdjust="spacing" textLength="390.2065" x="59.91" y="640.7618">valid_percentage( number : Ordered_Numeric [1] ) : Boolean [1]</text><ellipse cx="50.91" cy="653.6997" fill="#84BE84" rx="3" ry="3" style="stroke:#038048;stroke-width:1;"/><text fill="#808080" font-family="sans-serif" font-size="14" lengthAdjust="spacing" textLength="319.7727" x="59.91" y="657.5617">infix =( source : DV_AMOUNT [1] ) : DV_AMOUNT [1]</text><ellipse cx="50.91" cy="670.4997" fill="#84BE84" rx="3" ry="3" style="stroke:#038048;stroke-width:1;"/><text fill="#808080" font-family="sans-serif" font-size="14" lengthAdjust="spacing" textLength="311.9188" x="59.91" y="674.3616">infix +( other : DV_AMOUNT [1] ) : DV_AMOUNT [1]</text><ellipse cx="50.91" cy="687.2996" fill="#84BE84" rx="3" ry="3" style="stroke:#038048;stroke-width:1;"/><text fill="#808080" font-family="sans-serif" font-size="14" lengthAdjust="spacing" textLength="309.7348" x="59.91" y="691.1616">infix -( other : DV_AMOUNT [1] ) : DV_AMOUNT [1]</text><ellipse cx="50.91" cy="704.0995" fill="#84BE84" rx="3" ry="3" style="stroke:#038048;stroke-width:1;"/><text fill="#808080" font-family="sans-serif" font-size="14" lengthAdjust="spacing" textLength="166.0674" x="59.91" y="707.9615">prefix -() : DV_AMOUNT [1]</text></g><!--class DV_QUANTIFIED--><g class="entity" data-entity="DV_QUANTIFIED" data-source-line="21" data-uid="ent0004" id="entity_DV_QUANTIFIED"><rect fill="#F5F5F5" height="131.9996" rx="2.5" ry="2.5" style="stroke:#808080;stroke-width:1;stroke-dasharray:1,3;" width="262.515" x="116.76" y="357.4"/><ellipse cx="190.6797" cy="373.4" fill="#A9DCDF" rx="11" ry="11" style="stroke:#181818;stroke-width:1;"/><path d="M185.1953,378.9 L187.2266,378.9 L191.2735,367.5563 L190.3672,367.5563 L194.1953,378.9 L196.336,378.9 L192.0078,366.5719 L189.7891,366.5719 L185.1953,378.9 Z M187.5235,375.4 L193.961,375.4 L193.961,373.65 L187.5235,373.65 L187.5235,375.4 Z " fill="#000000"/><text fill="#808080" font-family="sans-serif" font-size="14" font-style="italic" lengthAdjust="spacing" textLength="106.1756" x="211.1797" y="378.762">DV_QUANTIFIED</text><line style="stroke:#808080;stroke-width:1;stroke-dasharray:1,3;" x1="117.76" x2="378.275" y1="389.4" y2="389.4"/><ellipse cx="127.76" cy="403.3" fill="none" rx="3" ry="3" style="stroke:#038048;stroke-width:1;"/><text fill="#808080" font-family="sans-serif" font-size="14" lengthAdjust="spacing" textLength="193.9972" x="136.76" y="407.1619">magnitude_status : String [0..1]</text><ellipse cx="127.76" cy="420.0999" fill="none" rx="3" ry="3" style="stroke:#038048;stroke-width:1;"/><text fill="#808080" font-family="sans-serif" font-size="14" lengthAdjust="spacing" textLength="121.4915" x="136.76" y="423.9619">accuracy : Any [0..1]</text><line style="stroke:#808080;stroke-width:1;stroke-dasharray:1,3;" x1="117.76" x2="378.275" y1="430.9999" y2="430.9999"/><ellipse cx="127.76" cy="444.8998" fill="#84BE84" rx="3" ry="3" style="stroke:#038048;stroke-width:1;"/><text fill="#808080" font-family="sans-serif" font-size="14" lengthAdjust="spacing" textLength="236.515" x="136.76" y="448.7618">valid_magnitude_status() : Boolean [1]</text><ellipse cx="127.76" cy="461.6997" fill="#84BE84" rx="3" ry="3" style="stroke:#038048;stroke-width:1;"/><text fill="#808080" font-family="sans-serif" font-size="14" font-style="italic" lengthAdjust="spacing" textLength="216.4531" x="136.76" y="465.5617">magnitude() : Ordered_Numeric [1]</text><ellipse cx="127.76" cy="478.4997" fill="#84BE84" rx="3" ry="3" style="stroke:#038048;stroke-width:1;"/><text fill="#808080" font-family="sans-serif" font-size="14" lengthAdjust="spacing" textLength="206.3172" x="136.76" y="482.3616">accuracy_unknown() : Boolean [1]</text></g><!--class DV_ORDERED--><g class="entity" data-entity="DV_ORDERED" data-source-line="29" data-uid="ent0005" id="entity_DV_ORDERED"><rect fill="#F5F5F5" height="165.5995" rx="2.5" ry="2.5" style="stroke:#808080;stroke-width:1;stroke-dasharray:1,3;" width="479.2201" x="8.41" y="131.8"/><ellipse cx="198.9422" cy="147.8" fill="#A9DCDF" rx="11" ry="11" style="stroke:#181818;stroke-width:1;"/><path d="M193.4579,153.3 L195.4891,153.3 L199.536,141.9562 L198.6297,141.9562 L202.4579,153.3 L204.5985,153.3 L200.2704,140.9719 L198.0516,140.9719 L193.4579,153.3 Z M195.786,149.8 L202.2235,149.8 L202.2235,148.05 L195.786,148.05 L195.786,149.8 Z " fill="#000000"/><text fill="#808080" font-family="sans-serif" font-size="14" font-style="italic" lengthAdjust="spacing" textLength="89.6556" x="219.4422" y="153.162">DV_ORDERED</text><line style="stroke:#808080;stroke-width:1;stroke-dasharray:1,3;" x1="9.41" x2="486.6301" y1="163.8" y2="163.8"/><ellipse cx="19.41" cy="177.7" fill="none" rx="3" ry="3" style="stroke:#038048;stroke-width:1;"/><text fill="#808080" font-family="sans-serif" font-size="14" lengthAdjust="spacing" textLength="230.5231" x="28.41" y="181.5619">normal_status : CODE_PHRASE [0..1]</text><ellipse cx="19.41" cy="194.4999" fill="none" rx="3" ry="3" style="stroke:#038048;stroke-width:1;"/><text fill="#808080" font-family="sans-serif" font-size="14" lengthAdjust="spacing" textLength="220.3871" x="28.41" y="198.3619">normal_range : DV_INTERVAL [0..1]</text><ellipse cx="19.41" cy="211.2998" fill="none" rx="3" ry="3" style="stroke:#038048;stroke-width:1;"/><text fill="#808080" font-family="sans-serif" font-size="14" lengthAdjust="spacing" textLength="453.2201" x="28.41" y="215.1618">other_reference_ranges : List&lt;REFERENCE_RANGE&lt;DV_ORDERED&gt;&gt; [*]</text><line style="stroke:#808080;stroke-width:1;stroke-dasharray:1,3;" x1="9.41" x2="486.6301" y1="222.1998" y2="222.1998"/><ellipse cx="19.41" cy="236.0997" fill="#84BE84" rx="3" ry="3" style="stroke:#038048;stroke-width:1;"/><text fill="#808080" font-family="sans-serif" font-size="14" font-style="italic" lengthAdjust="spacing" textLength="406.1805" x="28.41" y="239.9617">is_strictly_comparable_to( other : DV_ORDERED [1] ) : Boolean [1]</text><ellipse cx="19.41" cy="252.8997" fill="#84BE84" rx="3" ry="3" style="stroke:#038048;stroke-width:1;"/><text fill="#808080" font-family="sans-serif" font-size="14" lengthAdjust="spacing" textLength="146.6214" x="28.41" y="256.7616">is_simple() : Boolean [1]</text><ellipse cx="19.41" cy="269.6996" fill="#84BE84" rx="3" ry="3" style="stroke:#038048;stroke-width:1;"/><text fill="#808080" font-family="sans-serif" font-size="14" lengthAdjust="spacing" textLength="149.6174" x="28.41" y="273.5616">is_normal() : Boolean [1]</text><ellipse cx="19.41" cy="286.4995" fill="#84BE84" rx="3" ry="3" style="stroke:#038048;stroke-width:1;"/><text fill="#808080" font-family="sans-serif" font-size="14" font-style="italic" lengthAdjust="spacing" textLength="245.657" x="28.41" y="290.3615">infix &lt;( other : Ordered [1] ) : Boolean [1]</text></g><!--class DATA_VALUE--><g class="entity" data-entity="DATA_VALUE" data-source-line="39" data-uid="ent0006" id="entity_DATA_VALUE"><rect fill="#F5F5F5" height="48" rx="2.5" ry="2.5" style="stroke:#808080;stroke-width:1;stroke-dasharray:1,3;" width="116.2657" x="75.88" y="15.4"/><ellipse cx="90.88" cy="31.4" fill="#A9DCDF" rx="11" ry="11" style="stroke:#181818;stroke-width:1;"/><path d="M85.3956,36.9 L87.4269,36.9 L91.4738,25.5562 L90.5675,25.5562 L94.3956,36.9 L96.5363,36.9 L92.2081,24.5719 L89.9894,24.5719 L85.3956,36.9 Z M87.7238,33.4 L94.1613,33.4 L94.1613,31.65 L87.7238,31.65 L87.7238,33.4 Z " fill="#000000"/><text fill="#808080" font-family="sans-serif" font-size="14" font-style="italic" lengthAdjust="spacing" textLength="84.2657" x="104.88" y="36.762">DATA_VALUE</text><line style="stroke:#808080;stroke-width:1;stroke-dasharray:1,3;" x1="76.88" x2="191.1457" y1="47.4" y2="47.4"/><line style="stroke:#808080;stroke-width:1;stroke-dasharray:1,3;" x1="76.88" x2="191.1457" y1="55.4" y2="55.4"/></g><!--class Ordered--><g class="entity" data-entity="Ordered" data-source-line="44" data-uid="ent0008" id="entity_Ordered"><rect fill="#F5F5F5" height="64.7999" rx="2.5" ry="2.5" style="stroke:#808080;stroke-width:1;stroke-dasharray:1,3;" width="271.657" x="227.19" y="7"/><ellipse cx="332.7986" cy="23" fill="#A9DCDF" rx="11" ry="11" style="stroke:#181818;stroke-width:1;"/><path d="M327.3143,28.5 L329.3455,28.5 L333.3924,17.1563 L332.4861,17.1563 L336.3143,28.5 L338.4549,28.5 L334.1268,16.1719 L331.908,16.1719 L327.3143,28.5 Z M329.6424,25 L336.0799,25 L336.0799,23.25 L329.6424,23.25 L329.6424,25 Z " fill="#000000"/><text fill="#808080" font-family="sans-serif" font-size="14" font-style="italic" lengthAdjust="spacing" textLength="51.9398" x="353.2986" y="28.362">Ordered</text><line style="stroke:#808080;stroke-width:1;stroke-dasharray:1,3;" x1="228.19" x2="497.847" y1="39" y2="39"/><line style="stroke:#808080;stroke-width:1;stroke-dasharray:1,3;" x1="228.19" x2="497.847" y1="47" y2="47"/><ellipse cx="238.19" cy="60.9" fill="#84BE84" rx="3" ry="3" style="stroke:#038048;stroke-width:1;"/><text fill="#808080" font-family="sans-serif" font-size="14" font-style="italic" lengthAdjust="spacing" textLength="245.657" x="247.19" y="64.7619">infix &lt;( other : Ordered [1] ) : Boolean [1]</text></g><!--reverse link DATA_VALUE to DV_ORDERED--><g class="link" data-entity-1="DATA_VALUE" data-entity-2="DV_ORDERED" data-source-line="42" data-uid="lnk7" id="link_DATA_VALUE_DV_ORDERED"><path codeLine="42" d="M159.2859,78.7957 C170.8959,96.4357 177.67,106.73 194.02,131.56" fill="none" id="DATA_VALUE-backto-DV_ORDERED" style="stroke:#181818;stroke-width:1;"/><polygon fill="none" points="149.39,63.76,154.274,82.0943,164.2978,75.497,149.39,63.76" style="stroke:#181818;stroke-width:1;"/></g><!--reverse link Ordered to DV_ORDERED--><g class="link" data-entity-1="Ordered" data-entity-2="DV_ORDERED" data-source-line="48" data-uid="lnk9" id="link_Ordered_DV_ORDERED"><path codeLine="48" d="M331.9663,87.1675 C320.8163,103.9675 316.51,110.44 302.5,131.55" fill="none" id="Ordered-backto-DV_ORDERED" style="stroke:#181818;stroke-width:1;"/><polygon fill="none" points="341.92,72.17,326.9672,83.8496,336.9655,90.4854,341.92,72.17" style="stroke:#181818;stroke-width:1;"/></g><!--reverse link DV_ORDERED to DV_QUANTIFIED--><g class="link" data-entity-1="DV_ORDERED" data-entity-2="DV_QUANTIFIED" data-source-line="50" data-uid="lnk10" id="link_DV_ORDERED_DV_QUANTIFIED"><path codeLine="50" d="M248.02,315.63 C248.02,335.37 248.02,338.19 248.02,357.04" fill="none" id="DV_ORDERED-backto-DV_QUANTIFIED" style="stroke:#181818;stroke-width:1;"/><polygon fill="none" points="248.02,297.63,242.02,315.63,254.02,315.63,248.02,297.63" style="stroke:#181818;stroke-width:1;"/></g><!--reverse link DV_QUANTIFIED to DV_AMOUNT--><g class="link" data-entity-1="DV_QUANTIFIED" data-entity-2="DV_AMOUNT" data-source-line="52" data-uid="lnk11" id="link_DV_QUANTIFIED_DV_AMOUNT"><path codeLine="52" d="M248.02,507.83 C248.02,526.65 248.02,529.41 248.02,549.1" fill="none" id="DV_QUANTIFIED-backto-DV_AMOUNT" style="stroke:#181818;stroke-width:1;"/><polygon fill="none" points="248.02,489.83,242.02,507.83,254.02,507.83,248.02,489.83" style="stroke:#181818;stroke-width:1;"/></g><!--reverse link DV_AMOUNT to DV_QUANTITY--><g class="link" data-entity-1="DV_AMOUNT" data-entity-2="DV_QUANTITY" data-source-line="54" data-uid="lnk12" id="link_DV_AMOUNT_DV_QUANTITY"><path codeLine="54" d="M248.02,733.48 C248.02,752.94 248.02,755.57 248.02,774.63" fill="none" id="DV_AMOUNT-backto-DV_QUANTITY" style="stroke:#181818;stroke-width:1;"/><polygon fill="none" points="248.02,715.48,242.02,733.48,254.02,733.48,248.02,715.48" style="stroke:#181818;stroke-width:1;"/></g></g></svg>
