<svg xmlns="http://www.w3.org/2000/svg" xmlns:xlink="http://www.w3.org/1999/xlink" contentStyleType="text/css" data-diagram-type="CLASS" height="203px" preserveAspectRatio="none" style="width:214px;height:203px;background:#FFFFFF;" version="1.1" viewBox="0 0 214 203" width="214px" zoomAndPan="magnify"><defs/><g><!--class DV_STATE--><g class="entity" data-entity="DV_STATE" data-source-line="2" data-uid="ent0002" id="entity_DV_STATE"><rect fill="#F1F1F1" height="81.5999" rx="2.5" ry="2.5" style="stroke:#181818;stroke-width:0.5;" width="200.0473" x="7" y="115"/><ellipse cx="69.8108" cy="131" fill="#ADD1B2" rx="11" ry="11" style="stroke:#181818;stroke-width:1;"/><path d="M69.8108,137.4219 C70.9827,137.4219 72.217,137.1563 73.592,136.5469 L73.1077,135.0313 C72.0139,135.4531 70.9983,135.6406 70.1389,135.6406 C67.4202,135.6406 65.7014,133.7969 65.7014,130.8906 C65.7014,128.1406 67.2639,126.5469 69.9983,126.5469 C70.9202,126.5469 71.9358,126.7344 73.0764,127.1563 L73.6545,125.6406 C72.5608,125.0625 71.2639,124.7656 70.0764,124.7656 C66.3108,124.7656 63.7327,127.4063 63.7327,131.2188 C63.7327,134.8906 66.217,137.4219 69.8108,137.4219 Z " fill="#000000"/><text fill="#000000" font-family="sans-serif" font-size="14" lengthAdjust="spacing" textLength="65.9257" x="90.3108" y="136.362">DV_STATE</text><line style="stroke:#181818;stroke-width:0.5;" x1="8" x2="206.0473" y1="147" y2="147"/><ellipse cx="18" cy="160.9" fill="none" rx="3" ry="3" style="stroke:#038048;stroke-width:1;"/><text fill="#000000" font-family="sans-serif" font-size="14" lengthAdjust="spacing" textLength="174.0473" x="27" y="164.7619">value : DV_CODED_TEXT [1]</text><ellipse cx="18" cy="177.6999" fill="none" rx="3" ry="3" style="stroke:#038048;stroke-width:1;"/><text fill="#000000" font-family="sans-serif" font-size="14" lengthAdjust="spacing" textLength="149.1414" x="27" y="181.5619">is_terminal : Boolean [1]</text><line style="stroke:#181818;stroke-width:0.5;" x1="8" x2="206.0473" y1="188.5999" y2="188.5999"/></g><!--class DATA_VALUE--><g class="entity" data-entity="DATA_VALUE" data-source-line="7" data-uid="ent0003" id="entity_DATA_VALUE"><rect fill="#F5F5F5" height="48" rx="2.5" ry="2.5" style="stroke:#808080;stroke-width:1;stroke-dasharray:1,3;" width="116.2657" x="48.89" y="7"/><ellipse cx="63.89" cy="23" fill="#A9DCDF" rx="11" ry="11" style="stroke:#181818;stroke-width:1;"/><path d="M58.4056,28.5 L60.4369,28.5 L64.4838,17.1563 L63.5775,17.1563 L67.4056,28.5 L69.5463,28.5 L65.2181,16.1719 L62.9994,16.1719 L58.4056,28.5 Z M60.7338,25 L67.1713,25 L67.1713,23.25 L60.7338,23.25 L60.7338,25 Z " fill="#000000"/><text fill="#808080" font-family="sans-serif" font-size="14" font-style="italic" lengthAdjust="spacing" textLength="84.2657" x="77.89" y="28.362">DATA_VALUE</text><line style="stroke:#808080;stroke-width:1;stroke-dasharray:1,3;" x1="49.89" x2="164.1557" y1="39" y2="39"/><line style="stroke:#808080;stroke-width:1;stroke-dasharray:1,3;" x1="49.89" x2="164.1557" y1="47" y2="47"/></g><!--reverse link DATA_VALUE to DV_STATE--><g class="link" data-entity-1="DATA_VALUE" data-entity-2="DV_STATE" data-source-line="10" data-uid="lnk4" id="link_DATA_VALUE_DV_STATE"><path codeLine="10" d="M107.02,73.39 C107.02,90.09 107.02,94.98 107.02,114.58" fill="none" id="DATA_VALUE-backto-DV_STATE" style="stroke:#181818;stroke-width:1;"/><polygon fill="none" points="107.02,55.39,101.02,73.39,113.02,73.39,107.02,55.39" style="stroke:#181818;stroke-width:1;"/></g></g></svg>
