<svg xmlns="http://www.w3.org/2000/svg" xmlns:xlink="http://www.w3.org/1999/xlink" contentStyleType="text/css" data-diagram-type="CLASS" height="136px" preserveAspectRatio="none" style="width:432px;height:136px;background:#FFFFFF;" version="1.1" viewBox="0 0 432 136" width="432px" zoomAndPan="magnify"><defs/><g><!--class EXTRACT_VERSION_SPEC--><g class="entity" data-entity="EXTRACT_VERSION_SPEC" data-source-line="2" data-uid="ent0002" id="entity_EXTRACT_VERSION_SPEC"><rect fill="#F1F1F1" height="115.1997" rx="2.5" ry="2.5" style="stroke:#181818;stroke-width:0.5;" width="411.2924" x="7" y="7"/><ellipse cx="126.4125" cy="23" fill="#ADD1B2" rx="11" ry="11" style="stroke:#181818;stroke-width:1;"/><path d="M126.4125,29.4219 C127.5844,29.4219 128.8188,29.1563 130.1938,28.5469 L129.7094,27.0313 C128.6157,27.4531 127.6,27.6406 126.7407,27.6406 C124.0219,27.6406 122.3032,25.7969 122.3032,22.8906 C122.3032,20.1406 123.8657,18.5469 126.6,18.5469 C127.5219,18.5469 128.5375,18.7344 129.6782,19.1563 L130.2563,17.6406 C129.1625,17.0625 127.8657,16.7656 126.6782,16.7656 C122.9125,16.7656 120.3344,19.4063 120.3344,23.2188 C120.3344,26.8906 122.8188,29.4219 126.4125,29.4219 Z " fill="#000000"/><text fill="#000000" font-family="sans-serif" font-size="14" lengthAdjust="spacing" textLength="163.9673" x="146.9125" y="28.362">EXTRACT_VERSION_SPEC</text><line style="stroke:#181818;stroke-width:0.5;" x1="8" x2="417.2924" y1="39" y2="39"/><ellipse cx="18" cy="52.9" fill="none" rx="3" ry="3" style="stroke:#038048;stroke-width:1;"/><text fill="#000000" font-family="sans-serif" font-size="14" lengthAdjust="spacing" textLength="205.2812" x="27" y="56.7619">include_all_versions : Boolean [1]</text><ellipse cx="18" cy="69.6999" fill="none" rx="3" ry="3" style="stroke:#038048;stroke-width:1;"/><text fill="#000000" font-family="sans-serif" font-size="14" lengthAdjust="spacing" textLength="385.2924" x="27" y="73.5619">commit_time_interval : DV_INTERVAL&lt;DV_DATE_TIME&gt; [0..1]</text><ellipse cx="18" cy="86.4998" fill="none" rx="3" ry="3" style="stroke:#038048;stroke-width:1;"/><text fill="#000000" font-family="sans-serif" font-size="14" lengthAdjust="spacing" textLength="230.1451" x="27" y="90.3618">include_revision_history : Boolean [1]</text><ellipse cx="18" cy="103.2997" fill="none" rx="3" ry="3" style="stroke:#038048;stroke-width:1;"/><text fill="#000000" font-family="sans-serif" font-size="14" lengthAdjust="spacing" textLength="158.9974" x="27" y="107.1617">include_data : Boolean [1]</text><line style="stroke:#181818;stroke-width:0.5;" x1="8" x2="417.2924" y1="114.1997" y2="114.1997"/></g></g></svg>
