<svg xmlns="http://www.w3.org/2000/svg" xmlns:xlink="http://www.w3.org/1999/xlink" contentStyleType="text/css" data-diagram-type="CLASS" height="169px" preserveAspectRatio="none" style="width:265px;height:169px;background:#FFFFFF;" version="1.1" viewBox="0 0 265 169" width="265px" zoomAndPan="magnify"><defs/><g><!--class FEEDER_AUDIT_DETAILS--><g class="entity" data-entity="FEEDER_AUDIT_DETAILS" data-source-line="2" data-uid="ent0002" id="entity_FEEDER_AUDIT_DETAILS"><rect fill="#F1F1F1" height="148.7996" rx="2.5" ry="2.5" style="stroke:#181818;stroke-width:0.5;" width="244.8611" x="7" y="7"/><ellipse cx="46.5978" cy="23" fill="#ADD1B2" rx="11" ry="11" style="stroke:#181818;stroke-width:1;"/><path d="M46.5978,29.4219 C47.7697,29.4219 49.004,29.1563 50.379,28.5469 L49.8947,27.0313 C48.8009,27.4531 47.7853,27.6406 46.9259,27.6406 C44.2072,27.6406 42.4884,25.7969 42.4884,22.8906 C42.4884,20.1406 44.0509,18.5469 46.7853,18.5469 C47.7072,18.5469 48.7228,18.7344 49.8634,19.1563 L50.4415,17.6406 C49.3478,17.0625 48.0509,16.7656 46.8634,16.7656 C43.0978,16.7656 40.5197,19.4063 40.5197,23.2188 C40.5197,26.8906 43.004,29.4219 46.5978,29.4219 Z " fill="#000000"/><text fill="#000000" font-family="sans-serif" font-size="14" lengthAdjust="spacing" textLength="158.1994" x="66.064" y="28.362">FEEDER_AUDIT_DETAILS</text><line style="stroke:#181818;stroke-width:0.5;" x1="8" x2="250.8611" y1="39" y2="39"/><ellipse cx="18" cy="52.9" fill="none" rx="3" ry="3" style="stroke:#038048;stroke-width:1;"/><text fill="#000000" font-family="sans-serif" font-size="14" lengthAdjust="spacing" textLength="128.9675" x="27" y="56.7619">system_id : String [1]</text><ellipse cx="18" cy="69.6999" fill="none" rx="3" ry="3" style="stroke:#038048;stroke-width:1;"/><text fill="#000000" font-family="sans-serif" font-size="14" lengthAdjust="spacing" textLength="216.7471" x="27" y="73.5619">location : PARTY_IDENTIFIED [0..1]</text><ellipse cx="18" cy="86.4998" fill="none" rx="3" ry="3" style="stroke:#038048;stroke-width:1;"/><text fill="#000000" font-family="sans-serif" font-size="14" lengthAdjust="spacing" textLength="181.8172" x="27" y="90.3618">subject : PARTY_PROXY [0..1]</text><ellipse cx="18" cy="103.2997" fill="none" rx="3" ry="3" style="stroke:#038048;stroke-width:1;"/><text fill="#000000" font-family="sans-serif" font-size="14" lengthAdjust="spacing" textLength="218.8611" x="27" y="107.1617">provider : PARTY_IDENTIFIED [0..1]</text><ellipse cx="18" cy="120.0997" fill="none" rx="3" ry="3" style="stroke:#038048;stroke-width:1;"/><text fill="#000000" font-family="sans-serif" font-size="14" lengthAdjust="spacing" textLength="171.6813" x="27" y="123.9616">time : DV_DATE_TIME [0..1]</text><ellipse cx="18" cy="136.8996" fill="none" rx="3" ry="3" style="stroke:#038048;stroke-width:1;"/><text fill="#000000" font-family="sans-serif" font-size="14" lengthAdjust="spacing" textLength="145.3754" x="27" y="140.7616">version_id : String [0..1]</text><line style="stroke:#181818;stroke-width:0.5;" x1="8" x2="250.8611" y1="147.7996" y2="147.7996"/></g></g></svg>
