<svg xmlns="http://www.w3.org/2000/svg" xmlns:xlink="http://www.w3.org/1999/xlink" contentStyleType="text/css" data-diagram-type="CLASS" height="964px" preserveAspectRatio="none" style="width:397px;height:964px;background:#FFFFFF;" version="1.1" viewBox="0 0 397 964" width="397px" zoomAndPan="magnify"><defs/><g><!--class ITEM_TABLE--><g class="entity" data-entity="ITEM_TABLE" data-source-line="2" data-uid="ent0002" id="entity_ITEM_TABLE"><rect fill="#F1F1F1" height="266.399" rx="2.5" ry="2.5" style="stroke:#181818;stroke-width:0.5;" width="383.3205" x="7" y="691"/><ellipse cx="154.5944" cy="707" fill="#ADD1B2" rx="11" ry="11" style="stroke:#181818;stroke-width:1;"/><path d="M154.5944,713.4219 C155.7663,713.4219 157.0007,713.1563 158.3757,712.5469 L157.8913,711.0313 C156.7975,711.4531 155.7819,711.6406 154.9225,711.6406 C152.2038,711.6406 150.485,709.7969 150.485,706.8906 C150.485,704.1406 152.0475,702.5469 154.7819,702.5469 C155.7038,702.5469 156.7194,702.7344 157.86,703.1563 L158.4382,701.6406 C157.3444,701.0625 156.0475,700.7656 154.86,700.7656 C151.0944,700.7656 148.5163,703.4063 148.5163,707.2188 C148.5163,710.8906 151.0007,713.4219 154.5944,713.4219 Z " fill="#000000"/><text fill="#000000" font-family="sans-serif" font-size="14" lengthAdjust="spacing" textLength="79.6317" x="175.0944" y="712.362">ITEM_TABLE</text><line style="stroke:#181818;stroke-width:0.5;" x1="8" x2="389.3205" y1="723" y2="723"/><ellipse cx="18" cy="736.9" fill="none" rx="3" ry="3" style="stroke:#038048;stroke-width:1;"/><text fill="#000000" font-family="sans-serif" font-size="14" lengthAdjust="spacing" textLength="156.2114" x="27" y="740.7619">rows : List&lt;CLUSTER&gt; [*]</text><line style="stroke:#181818;stroke-width:0.5;" x1="8" x2="389.3205" y1="747.7999" y2="747.7999"/><ellipse cx="18" cy="761.6999" fill="#84BE84" rx="3" ry="3" style="stroke:#038048;stroke-width:1;"/><text fill="#000000" font-family="sans-serif" font-size="14" lengthAdjust="spacing" textLength="148.2035" x="27" y="765.5619">row_count() : Integer [1]</text><ellipse cx="18" cy="778.4998" fill="#84BE84" rx="3" ry="3" style="stroke:#038048;stroke-width:1;"/><text fill="#000000" font-family="sans-serif" font-size="14" lengthAdjust="spacing" textLength="170.5474" x="27" y="782.3618">column_count() : Integer [1]</text><ellipse cx="18" cy="795.2997" fill="#84BE84" rx="3" ry="3" style="stroke:#038048;stroke-width:1;"/><text fill="#000000" font-family="sans-serif" font-size="14" lengthAdjust="spacing" textLength="206.2752" x="27" y="799.1617">row_names() : List&lt;DV_TEXT&gt; [*]</text><ellipse cx="18" cy="812.0997" fill="#84BE84" rx="3" ry="3" style="stroke:#038048;stroke-width:1;"/><text fill="#000000" font-family="sans-serif" font-size="14" lengthAdjust="spacing" textLength="228.6191" x="27" y="815.9616">column_names() : List&lt;DV_TEXT&gt; [*]</text><ellipse cx="18" cy="828.8996" fill="#84BE84" rx="3" ry="3" style="stroke:#038048;stroke-width:1;"/><text fill="#000000" font-family="sans-serif" font-size="14" lengthAdjust="spacing" textLength="225.5391" x="27" y="832.7616">ith_row( i : Integer [1] ) : CLUSTER [1]</text><ellipse cx="18" cy="845.6995" fill="#84BE84" rx="3" ry="3" style="stroke:#038048;stroke-width:1;"/><text fill="#000000" font-family="sans-serif" font-size="14" lengthAdjust="spacing" textLength="324.5328" x="27" y="849.5615">has_row_with_name( a_key : String [1] ) : Boolean [1]</text><ellipse cx="18" cy="862.4995" fill="#84BE84" rx="3" ry="3" style="stroke:#038048;stroke-width:1;"/><text fill="#000000" font-family="sans-serif" font-size="14" lengthAdjust="spacing" textLength="346.8767" x="27" y="866.3614">has_column_with_name( a_key : String [1] ) : Boolean [1]</text><ellipse cx="18" cy="879.2994" fill="#84BE84" rx="3" ry="3" style="stroke:#038048;stroke-width:1;"/><text fill="#000000" font-family="sans-serif" font-size="14" lengthAdjust="spacing" textLength="276.4569" x="27" y="883.1614">named_row( a_key : String [1] ) : CLUSTER [1]</text><ellipse cx="18" cy="896.0993" fill="#84BE84" rx="3" ry="3" style="stroke:#038048;stroke-width:1;"/><text fill="#000000" font-family="sans-serif" font-size="14" lengthAdjust="spacing" textLength="357.1246" x="27" y="899.9613">has_row_with_key( keys : List&lt;String&gt; [0..1] ) : Boolean [1]</text><ellipse cx="18" cy="912.8992" fill="#84BE84" rx="3" ry="3" style="stroke:#038048;stroke-width:1;"/><text fill="#000000" font-family="sans-serif" font-size="14" lengthAdjust="spacing" textLength="335.4667" x="27" y="916.7612">row_with_key( keys : List&lt;String&gt; [0..1] ) : CLUSTER [1]</text><ellipse cx="18" cy="929.6992" fill="#84BE84" rx="3" ry="3" style="stroke:#038048;stroke-width:1;"/><text fill="#000000" font-family="sans-serif" font-size="14" lengthAdjust="spacing" textLength="357.3205" x="27" y="933.5611">element_at_cell_ij( i : Any [1], j : Integer [1] ) : ELEMENT [1]</text><ellipse cx="18" cy="946.4991" fill="#84BE84" rx="3" ry="3" style="stroke:#038048;stroke-width:1;"/><text fill="#000000" font-family="sans-serif" font-size="14" lengthAdjust="spacing" textLength="173.3613" x="27" y="950.3611">as_hierarchy() : CLUSTER [1]</text></g><!--class ITEM_STRUCTURE--><g class="entity" data-entity="ITEM_STRUCTURE" data-source-line="18" data-uid="ent0003" id="entity_ITEM_STRUCTURE"><rect fill="#F5F5F5" height="48" rx="2.5" ry="2.5" style="stroke:#808080;stroke-width:1;stroke-dasharray:1,3;" width="147.8075" x="124.76" y="583"/><ellipse cx="139.76" cy="599" fill="#A9DCDF" rx="11" ry="11" style="stroke:#181818;stroke-width:1;"/><path d="M134.2756,604.5 L136.3069,604.5 L140.3538,593.1563 L139.4475,593.1563 L143.2756,604.5 L145.4163,604.5 L141.0881,592.1719 L138.8694,592.1719 L134.2756,604.5 Z M136.6038,601 L143.0413,601 L143.0413,599.25 L136.6038,599.25 L136.6038,601 Z " fill="#000000"/><text fill="#808080" font-family="sans-serif" font-size="14" font-style="italic" lengthAdjust="spacing" textLength="115.8075" x="153.76" y="604.362">ITEM_STRUCTURE</text><line style="stroke:#808080;stroke-width:1;stroke-dasharray:1,3;" x1="125.76" x2="271.5675" y1="615" y2="615"/><line style="stroke:#808080;stroke-width:1;stroke-dasharray:1,3;" x1="125.76" x2="271.5675" y1="623" y2="623"/></g><!--class DATA_STRUCTURE--><g class="entity" data-entity="DATA_STRUCTURE" data-source-line="21" data-uid="ent0004" id="entity_DATA_STRUCTURE"><rect fill="#F5F5F5" height="64.7999" rx="2.5" ry="2.5" style="stroke:#808080;stroke-width:1;stroke-dasharray:1,3;" width="173.1954" x="112.06" y="458.2"/><ellipse cx="136.8907" cy="474.2" fill="#A9DCDF" rx="11" ry="11" style="stroke:#181818;stroke-width:1;"/><path d="M131.4063,479.7 L133.4375,479.7 L137.4844,468.3563 L136.5782,468.3563 L140.4063,479.7 L142.5469,479.7 L138.2188,467.3719 L136,467.3719 L131.4063,479.7 Z M133.7344,476.2 L140.1719,476.2 L140.1719,474.45 L133.7344,474.45 L133.7344,476.2 Z " fill="#000000"/><text fill="#808080" font-family="sans-serif" font-size="14" font-style="italic" lengthAdjust="spacing" textLength="119.3495" x="153.0753" y="479.562">DATA_STRUCTURE</text><line style="stroke:#808080;stroke-width:1;stroke-dasharray:1,3;" x1="113.06" x2="284.2554" y1="490.2" y2="490.2"/><line style="stroke:#808080;stroke-width:1;stroke-dasharray:1,3;" x1="113.06" x2="284.2554" y1="498.2" y2="498.2"/><ellipse cx="123.06" cy="512.1" fill="#84BE84" rx="3" ry="3" style="stroke:#038048;stroke-width:1;"/><text fill="#808080" font-family="sans-serif" font-size="14" lengthAdjust="spacing" textLength="147.1954" x="132.06" y="515.9619">as_hierarchy() : ITEM [1]</text></g><!--class LOCATABLE--><g class="entity" data-entity="LOCATABLE" data-source-line="25" data-uid="ent0005" id="entity_LOCATABLE"><rect fill="#F5F5F5" height="182.3994" rx="2.5" ry="2.5" style="stroke:#808080;stroke-width:1;stroke-dasharray:1,3;" width="267.387" x="64.97" y="215.8"/><ellipse cx="156.2707" cy="231.8" fill="#A9DCDF" rx="11" ry="11" style="stroke:#181818;stroke-width:1;"/><path d="M150.7863,237.3 L152.8175,237.3 L156.8644,225.9562 L155.9582,225.9562 L159.7863,237.3 L161.9269,237.3 L157.5988,224.9719 L155.38,224.9719 L150.7863,237.3 Z M153.1144,233.8 L159.5519,233.8 L159.5519,232.05 L153.1144,232.05 L153.1144,233.8 Z " fill="#000000"/><text fill="#808080" font-family="sans-serif" font-size="14" font-style="italic" lengthAdjust="spacing" textLength="76.2857" x="176.7707" y="237.162">LOCATABLE</text><line style="stroke:#808080;stroke-width:1;stroke-dasharray:1,3;" x1="65.97" x2="331.357" y1="247.8" y2="247.8"/><ellipse cx="75.97" cy="261.7" fill="none" rx="3" ry="3" style="stroke:#038048;stroke-width:1;"/><text fill="#808080" font-family="sans-serif" font-size="14" lengthAdjust="spacing" textLength="121.2115" x="84.97" y="265.5619">name : DV_TEXT [1]</text><ellipse cx="75.97" cy="278.4999" fill="none" rx="3" ry="3" style="stroke:#038048;stroke-width:1;"/><text fill="#808080" font-family="sans-serif" font-size="14" lengthAdjust="spacing" textLength="184.1273" x="84.97" y="282.3619">archetype_node_id : String [1]</text><ellipse cx="75.97" cy="295.2998" fill="none" rx="3" ry="3" style="stroke:#038048;stroke-width:1;"/><text fill="#808080" font-family="sans-serif" font-size="14" lengthAdjust="spacing" textLength="157.7794" x="84.97" y="299.1618">uid : UID_BASED_ID [0..1]</text><ellipse cx="75.97" cy="312.0997" fill="none" rx="3" ry="3" style="stroke:#038048;stroke-width:1;"/><text fill="#808080" font-family="sans-serif" font-size="14" lengthAdjust="spacing" textLength="126.0835" x="84.97" y="315.9617">links : List&lt;LINK&gt; [*]</text><ellipse cx="75.97" cy="328.8997" fill="none" rx="3" ry="3" style="stroke:#038048;stroke-width:1;"/><text fill="#808080" font-family="sans-serif" font-size="14" lengthAdjust="spacing" textLength="241.387" x="84.97" y="332.7616">archetype_details : ARCHETYPED [0..1]</text><ellipse cx="75.97" cy="345.6996" fill="none" rx="3" ry="3" style="stroke:#038048;stroke-width:1;"/><text fill="#808080" font-family="sans-serif" font-size="14" lengthAdjust="spacing" textLength="220.7791" x="84.97" y="349.5616">feeder_audit : FEEDER_AUDIT [0..1]</text><line style="stroke:#808080;stroke-width:1;stroke-dasharray:1,3;" x1="65.97" x2="331.357" y1="356.5996" y2="356.5996"/><ellipse cx="75.97" cy="370.4995" fill="#84BE84" rx="3" ry="3" style="stroke:#038048;stroke-width:1;"/><text fill="#808080" font-family="sans-serif" font-size="14" lengthAdjust="spacing" textLength="144.1295" x="84.97" y="374.3615">concept() : DV_TEXT [1]</text><ellipse cx="75.97" cy="387.2995" fill="#84BE84" rx="3" ry="3" style="stroke:#038048;stroke-width:1;"/><text fill="#808080" font-family="sans-serif" font-size="14" lengthAdjust="spacing" textLength="199.6812" x="84.97" y="391.1614">is_archetype_root() : Boolean [1]</text></g><!--class PATHABLE--><g class="entity" data-entity="PATHABLE" data-source-line="36" data-uid="ent0006" id="entity_PATHABLE"><rect fill="#F5F5F5" height="148.7996" rx="2.5" ry="2.5" style="stroke:#808080;stroke-width:1;stroke-dasharray:1,3;" width="328.9868" x="34.17" y="7"/><ellipse cx="160.4706" cy="23" fill="#A9DCDF" rx="11" ry="11" style="stroke:#181818;stroke-width:1;"/><path d="M154.9862,28.5 L157.0174,28.5 L161.0643,17.1563 L160.1581,17.1563 L163.9862,28.5 L166.1268,28.5 L161.7987,16.1719 L159.5799,16.1719 L154.9862,28.5 Z M157.3143,25 L163.7518,25 L163.7518,23.25 L157.3143,23.25 L157.3143,25 Z " fill="#000000"/><text fill="#808080" font-family="sans-serif" font-size="14" font-style="italic" lengthAdjust="spacing" textLength="67.8857" x="180.9706" y="28.362">PATHABLE</text><line style="stroke:#808080;stroke-width:1;stroke-dasharray:1,3;" x1="35.17" x2="362.1568" y1="39" y2="39"/><line style="stroke:#808080;stroke-width:1;stroke-dasharray:1,3;" x1="35.17" x2="362.1568" y1="47" y2="47"/><ellipse cx="45.17" cy="60.9" fill="#84BE84" rx="3" ry="3" style="stroke:#038048;stroke-width:1;"/><text fill="#808080" font-family="sans-serif" font-size="14" lengthAdjust="spacing" textLength="145.6834" x="54.17" y="64.7619">parent() : PATHABLE [1]</text><ellipse cx="45.17" cy="77.6999" fill="#84BE84" rx="3" ry="3" style="stroke:#038048;stroke-width:1;"/><text fill="#808080" font-family="sans-serif" font-size="14" lengthAdjust="spacing" textLength="257.529" x="54.17" y="81.5619">item_at_path( a_path : String [1] ) : Any [1]</text><ellipse cx="45.17" cy="94.4998" fill="#84BE84" rx="3" ry="3" style="stroke:#038048;stroke-width:1;"/><text fill="#808080" font-family="sans-serif" font-size="14" lengthAdjust="spacing" textLength="302.9868" x="54.17" y="98.3618">items_at_path( a_path : String [1] ) : List&lt;Any&gt; [*]</text><ellipse cx="45.17" cy="111.2997" fill="#84BE84" rx="3" ry="3" style="stroke:#038048;stroke-width:1;"/><text fill="#808080" font-family="sans-serif" font-size="14" lengthAdjust="spacing" textLength="273.1249" x="54.17" y="115.1617">path_exists( a_path : String [1] ) : Boolean [1]</text><ellipse cx="45.17" cy="128.0997" fill="#84BE84" rx="3" ry="3" style="stroke:#038048;stroke-width:1;"/><text fill="#808080" font-family="sans-serif" font-size="14" lengthAdjust="spacing" textLength="280.0549" x="54.17" y="131.9616">path_unique( a_path : String [1] ) : Boolean [1]</text><ellipse cx="45.17" cy="144.8996" fill="#84BE84" rx="3" ry="3" style="stroke:#038048;stroke-width:1;"/><text fill="#808080" font-family="sans-serif" font-size="14" lengthAdjust="spacing" textLength="292.6829" x="54.17" y="148.7616">path_of_item( a_loc : PATHABLE [1] ) : String [1]</text></g><!--reverse link PATHABLE to LOCATABLE--><g class="link" data-entity-1="PATHABLE" data-entity-2="LOCATABLE" data-source-line="45" data-uid="lnk7" id="link_PATHABLE_LOCATABLE"><path codeLine="45" d="M198.66,174.24 C198.66,193.19 198.66,195.8 198.66,215.49" fill="none" id="PATHABLE-backto-LOCATABLE" style="stroke:#181818;stroke-width:1;"/><polygon fill="none" points="198.66,156.24,192.66,174.24,204.66,174.24,198.66,156.24" style="stroke:#181818;stroke-width:1;"/></g><!--reverse link LOCATABLE to DATA_STRUCTURE--><g class="link" data-entity-1="LOCATABLE" data-entity-2="DATA_STRUCTURE" data-source-line="47" data-uid="lnk8" id="link_LOCATABLE_DATA_STRUCTURE"><path codeLine="47" d="M198.66,416.54 C198.66,437.86 198.66,441.2 198.66,457.86" fill="none" id="LOCATABLE-backto-DATA_STRUCTURE" style="stroke:#181818;stroke-width:1;"/><polygon fill="none" points="198.66,398.54,192.66,416.54,204.66,416.54,198.66,398.54" style="stroke:#181818;stroke-width:1;"/></g><!--reverse link DATA_STRUCTURE to ITEM_STRUCTURE--><g class="link" data-entity-1="DATA_STRUCTURE" data-entity-2="ITEM_STRUCTURE" data-source-line="49" data-uid="lnk9" id="link_DATA_STRUCTURE_ITEM_STRUCTURE"><path codeLine="49" d="M198.66,541.47 C198.66,560.24 198.66,565.58 198.66,582.65" fill="none" id="DATA_STRUCTURE-backto-ITEM_STRUCTURE" style="stroke:#181818;stroke-width:1;"/><polygon fill="none" points="198.66,523.47,192.66,541.47,204.66,541.47,198.66,523.47" style="stroke:#181818;stroke-width:1;"/></g><!--reverse link ITEM_STRUCTURE to ITEM_TABLE--><g class="link" data-entity-1="ITEM_STRUCTURE" data-entity-2="ITEM_TABLE" data-source-line="51" data-uid="lnk10" id="link_ITEM_STRUCTURE_ITEM_TABLE"><path codeLine="51" d="M198.66,649.44 C198.66,664.69 198.66,667.94 198.66,690.77" fill="none" id="ITEM_STRUCTURE-backto-ITEM_TABLE" style="stroke:#181818;stroke-width:1;"/><polygon fill="none" points="198.66,631.44,192.66,649.44,204.66,649.44,198.66,631.44" style="stroke:#181818;stroke-width:1;"/></g></g></svg>
