<svg xmlns="http://www.w3.org/2000/svg" xmlns:xlink="http://www.w3.org/1999/xlink" contentStyleType="text/css" data-diagram-type="CLASS" height="136px" preserveAspectRatio="none" style="width:323px;height:136px;background:#FFFFFF;" version="1.1" viewBox="0 0 323 136" width="323px" zoomAndPan="magnify"><defs/><g><!--class PARTICIPATION--><g class="entity" data-entity="PARTICIPATION" data-source-line="2" data-uid="ent0002" id="entity_PARTICIPATION"><rect fill="#F1F1F1" height="115.1997" rx="2.5" ry="2.5" style="stroke:#181818;stroke-width:0.5;" width="302.6249" x="7" y="7"/><ellipse cx="104.0826" cy="23" fill="#ADD1B2" rx="11" ry="11" style="stroke:#181818;stroke-width:1;"/><path d="M104.0826,29.4219 C105.2545,29.4219 106.4889,29.1563 107.8639,28.5469 L107.3795,27.0313 C106.2858,27.4531 105.2701,27.6406 104.4108,27.6406 C101.692,27.6406 99.9733,25.7969 99.9733,22.8906 C99.9733,20.1406 101.5358,18.5469 104.2701,18.5469 C105.192,18.5469 106.2076,18.7344 107.3483,19.1563 L107.9264,17.6406 C106.8326,17.0625 105.5358,16.7656 104.3483,16.7656 C100.5826,16.7656 98.0045,19.4063 98.0045,23.2188 C98.0045,26.8906 100.4889,29.4219 104.0826,29.4219 Z " fill="#000000"/><text fill="#000000" font-family="sans-serif" font-size="14" lengthAdjust="spacing" textLength="99.9596" x="124.5826" y="28.362">PARTICIPATION</text><line style="stroke:#181818;stroke-width:0.5;" x1="8" x2="308.6249" y1="39" y2="39"/><ellipse cx="18" cy="52.9" fill="none" rx="3" ry="3" style="stroke:#038048;stroke-width:1;"/><text fill="#000000" font-family="sans-serif" font-size="14" lengthAdjust="spacing" textLength="137.7315" x="27" y="56.7619">function : DV_TEXT [1]</text><ellipse cx="18" cy="69.6999" fill="none" rx="3" ry="3" style="stroke:#038048;stroke-width:1;"/><text fill="#000000" font-family="sans-serif" font-size="14" lengthAdjust="spacing" textLength="192.5412" x="27" y="73.5619">mode : DV_CODED_TEXT [0..1]</text><ellipse cx="18" cy="86.4998" fill="none" rx="3" ry="3" style="stroke:#038048;stroke-width:1;"/><text fill="#000000" font-family="sans-serif" font-size="14" lengthAdjust="spacing" textLength="185.0512" x="27" y="90.3618">performer : PARTY_PROXY [1]</text><ellipse cx="18" cy="103.2997" fill="none" rx="3" ry="3" style="stroke:#038048;stroke-width:1;"/><text fill="#000000" font-family="sans-serif" font-size="14" lengthAdjust="spacing" textLength="276.6249" x="27" y="107.1617">time : DV_INTERVAL&lt;DV_DATE_TIME&gt; [0..1]</text><line style="stroke:#181818;stroke-width:0.5;" x1="8" x2="308.6249" y1="114.1997" y2="114.1997"/></g></g></svg>
