<svg xmlns="http://www.w3.org/2000/svg" xmlns:xlink="http://www.w3.org/1999/xlink" contentStyleType="text/css" data-diagram-type="CLASS" height="102px" preserveAspectRatio="none" style="width:274px;height:102px;background:#FFFFFF;" version="1.1" viewBox="0 0 274 102" width="274px" zoomAndPan="magnify"><defs/><g><!--class REVISION_HISTORY_ITEM--><g class="entity" data-entity="REVISION_HISTORY_ITEM" data-source-line="2" data-uid="ent0002" id="entity_REVISION_HISTORY_ITEM"><rect fill="#F1F1F1" height="81.5999" rx="2.5" ry="2.5" style="stroke:#181818;stroke-width:0.5;" width="253.9471" x="7" y="7"/><ellipse cx="47.8704" cy="23" fill="#ADD1B2" rx="11" ry="11" style="stroke:#181818;stroke-width:1;"/><path d="M47.8704,29.4219 C49.0423,29.4219 50.2766,29.1563 51.6516,28.5469 L51.1673,27.0313 C50.0735,27.4531 49.0579,27.6406 48.1985,27.6406 C45.4798,27.6406 43.761,25.7969 43.761,22.8906 C43.761,20.1406 45.3235,18.5469 48.0579,18.5469 C48.9798,18.5469 49.9954,18.7344 51.136,19.1563 L51.7141,17.6406 C50.6204,17.0625 49.3235,16.7656 48.136,16.7656 C44.3704,16.7656 41.7923,19.4063 41.7923,23.2188 C41.7923,26.8906 44.2766,29.4219 47.8704,29.4219 Z " fill="#000000"/><text fill="#000000" font-family="sans-serif" font-size="14" lengthAdjust="spacing" textLength="164.4574" x="67.6194" y="28.362">REVISION_HISTORY_ITEM</text><line style="stroke:#181818;stroke-width:0.5;" x1="8" x2="259.9471" y1="39" y2="39"/><ellipse cx="18" cy="52.9" fill="none" rx="3" ry="3" style="stroke:#038048;stroke-width:1;"/><text fill="#000000" font-family="sans-serif" font-size="14" lengthAdjust="spacing" textLength="227.9471" x="27" y="56.7619">version_id : OBJECT_VERSION_ID [1]</text><ellipse cx="18" cy="69.6999" fill="none" rx="3" ry="3" style="stroke:#038048;stroke-width:1;"/><text fill="#000000" font-family="sans-serif" font-size="14" lengthAdjust="spacing" textLength="218.7071" x="27" y="73.5619">audits : List&lt;AUDIT_DETAILS&gt; [1..*]</text><line style="stroke:#181818;stroke-width:0.5;" x1="8" x2="259.9471" y1="80.5999" y2="80.5999"/></g></g></svg>
