<svg xmlns="http://www.w3.org/2000/svg" xmlns:xlink="http://www.w3.org/1999/xlink" contentStyleType="text/css" data-diagram-type="CLASS" height="388px" preserveAspectRatio="none" style="width:2141px;height:388px;background:#FFFFFF;" version="1.1" viewBox="0 0 2141 388" width="2141px" zoomAndPan="magnify"><defs/><g><!--class VERSIONED_OBJECT--><g class="entity" data-entity="VERSIONED_OBJECT" data-source-line="2" data-uid="ent0002" id="entity_VERSIONED_OBJECT"><rect fill="#F1F1F1" height="367.1986" rx="2.5" ry="2.5" style="stroke:#181818;stroke-width:0.5;" width="2120.4338" x="7" y="7"/><ellipse cx="990.9662" cy="23" fill="#ADD1B2" rx="11" ry="11" style="stroke:#181818;stroke-width:1;"/><path d="M990.9662,29.4219 C992.138,29.4219 993.3724,29.1563 994.7474,28.5469 L994.263,27.0313 C993.1693,27.4531 992.1537,27.6406 991.2943,27.6406 C988.5755,27.6406 986.8568,25.7969 986.8568,22.8906 C986.8568,20.1406 988.4193,18.5469 991.1537,18.5469 C992.0755,18.5469 993.0912,18.7344 994.2318,19.1563 L994.8099,17.6406 C993.7162,17.0625 992.4193,16.7656 991.2318,16.7656 C987.4662,16.7656 984.888,19.4063 984.888,23.2188 C984.888,26.8906 987.3724,29.4219 990.9662,29.4219 Z " fill="#000000"/><text fill="#000000" font-family="sans-serif" font-size="14" lengthAdjust="spacing" textLength="133.2095" x="1011.4662" y="28.362">VERSIONED_OBJECT</text><rect fill="#FFFFFF" height="16.4001" style="stroke:#181818;stroke-width:1;stroke-dasharray:2,2;" width="8.7921" x="2121.6418" y="4"/><text fill="#000000" font-family="sans-serif" font-size="12" font-style="italic" lengthAdjust="spacing" textLength="6.7921" x="2122.6418" y="16.7961">T</text><line style="stroke:#181818;stroke-width:0.5;" x1="8" x2="2126.4338" y1="39" y2="39"/><ellipse cx="18" cy="52.9" fill="none" rx="3" ry="3" style="stroke:#038048;stroke-width:1;"/><text fill="#000000" font-family="sans-serif" font-size="14" lengthAdjust="spacing" textLength="156.3234" x="27" y="56.7619">uid : HIER_OBJECT_ID [1]</text><ellipse cx="18" cy="69.6999" fill="none" rx="3" ry="3" style="stroke:#038048;stroke-width:1;"/><text fill="#000000" font-family="sans-serif" font-size="14" lengthAdjust="spacing" textLength="168.3773" x="27" y="73.5619">owner_id : OBJECT_REF [1]</text><ellipse cx="18" cy="86.4998" fill="none" rx="3" ry="3" style="stroke:#038048;stroke-width:1;"/><text fill="#000000" font-family="sans-serif" font-size="14" lengthAdjust="spacing" textLength="209.7192" x="27" y="90.3618">time_created : DV_DATE_TIME [1]</text><line style="stroke:#181818;stroke-width:0.5;" x1="8" x2="2126.4338" y1="97.3998" y2="97.3998"/><ellipse cx="18" cy="111.2997" fill="#84BE84" rx="3" ry="3" style="stroke:#038048;stroke-width:1;"/><text fill="#000000" font-family="sans-serif" font-size="14" lengthAdjust="spacing" textLength="169.2314" x="27" y="115.1617">version_count() : Integer [1]</text><ellipse cx="18" cy="128.0997" fill="#84BE84" rx="3" ry="3" style="stroke:#038048;stroke-width:1;"/><text fill="#000000" font-family="sans-serif" font-size="14" lengthAdjust="spacing" textLength="316.8747" x="27" y="131.9616">all_version_ids() : List&lt;OBJECT_VERSION_ID&gt; [1..*]</text><ellipse cx="18" cy="144.8996" fill="#84BE84" rx="3" ry="3" style="stroke:#038048;stroke-width:1;"/><text fill="#000000" font-family="sans-serif" font-size="14" lengthAdjust="spacing" textLength="244.761" x="27" y="148.7616">all_versions() : List&lt;VERSION&lt;T&gt;&gt; [1..*]</text><ellipse cx="18" cy="161.6995" fill="#84BE84" rx="3" ry="3" style="stroke:#038048;stroke-width:1;"/><text fill="#000000" font-family="sans-serif" font-size="14" lengthAdjust="spacing" textLength="438.8423" x="27" y="165.5615">has_version_at_time( a_ver_id : OBJECT_VERSION_ID [1] ) : Boolean [1]</text><ellipse cx="18" cy="178.4995" fill="#84BE84" rx="3" ry="3" style="stroke:#038048;stroke-width:1;"/><text fill="#000000" font-family="sans-serif" font-size="14" lengthAdjust="spacing" textLength="402.7505" x="27" y="182.3614">has_version_id( a_ver_id : OBJECT_VERSION_ID [1] ) : Boolean [1]</text><ellipse cx="18" cy="195.2994" fill="#84BE84" rx="3" ry="3" style="stroke:#038048;stroke-width:1;"/><text fill="#000000" font-family="sans-serif" font-size="14" lengthAdjust="spacing" textLength="415.3784" x="27" y="199.1614">version_with_id( a_ver_id : OBJECT_VERSION_ID [1] ) : VERSION [1]</text><ellipse cx="18" cy="212.0993" fill="#84BE84" rx="3" ry="3" style="stroke:#038048;stroke-width:1;"/><text fill="#000000" font-family="sans-serif" font-size="14" lengthAdjust="spacing" textLength="426.7464" x="27" y="215.9613">is_original_version( a_ver_id : OBJECT_VERSION_ID [1] ) : Boolean [1]</text><ellipse cx="18" cy="228.8992" fill="#84BE84" rx="3" ry="3" style="stroke:#038048;stroke-width:1;"/><text fill="#000000" font-family="sans-serif" font-size="14" lengthAdjust="spacing" textLength="370.8585" x="27" y="232.7612">version_at_time( a_time : DV_DATE_TIME [1] ) : VERSION [1]</text><ellipse cx="18" cy="245.6992" fill="#84BE84" rx="3" ry="3" style="stroke:#038048;stroke-width:1;"/><text fill="#000000" font-family="sans-serif" font-size="14" lengthAdjust="spacing" textLength="261.085" x="27" y="249.5611">revision_history() : REVISION_HISTORY [1]</text><ellipse cx="18" cy="262.4991" fill="#84BE84" rx="3" ry="3" style="stroke:#038048;stroke-width:1;"/><text fill="#000000" font-family="sans-serif" font-size="14" lengthAdjust="spacing" textLength="182.1533" x="27" y="266.3611">latest_version() : VERSION [1]</text><ellipse cx="18" cy="279.299" fill="#84BE84" rx="3" ry="3" style="stroke:#038048;stroke-width:1;"/><text fill="#000000" font-family="sans-serif" font-size="14" lengthAdjust="spacing" textLength="222.2071" x="27" y="283.161">latest_trunk_version() : VERSION [1]</text><ellipse cx="18" cy="296.0989" fill="#84BE84" rx="3" ry="3" style="stroke:#038048;stroke-width:1;"/><text fill="#000000" font-family="sans-serif" font-size="14" lengthAdjust="spacing" textLength="278.2769" x="27" y="299.9609">trunk_lifecycle_state() : DV_CODED_TEXT [1]</text><ellipse cx="18" cy="312.8989" fill="#84BE84" rx="3" ry="3" style="stroke:#038048;stroke-width:1;"/><text fill="#000000" font-family="sans-serif" font-size="14" lengthAdjust="spacing" textLength="1702.0289" x="27" y="316.7608">commit_original_version( a_contribution : OBJECT_REF [1], a_new_version_uid : OBJECT_VERSION_ID [1], a_preceding_version_id : OBJECT_VERSION_ID [1], an_audit : AUDIT_DETAILS [1], a_lifecycle_state : DV_CODED_TEXT [1], a_data : T [1], signing_key : String [1] ) : void [1]</text><ellipse cx="18" cy="329.6988" fill="#84BE84" rx="3" ry="3" style="stroke:#038048;stroke-width:1;"/><text fill="#000000" font-family="sans-serif" font-size="14" lengthAdjust="spacing" textLength="2094.4338" x="27" y="333.5608">commit_original_merged_version( a_contribution : OBJECT_REF [1], a_new_version_uid : OBJECT_VERSION_ID [1], a_preceding_version_id : OBJECT_VERSION_ID [1], an_audit : AUDIT_DETAILS [1], a_lifecycle_state : DV_CODED_TEXT [1], a_data : T [1], an_other_input_uids : List&lt;OBJECT_VERSION_ID&gt; [1], signing_key : String [1] ) : void [1]</text><ellipse cx="18" cy="346.4987" fill="#84BE84" rx="3" ry="3" style="stroke:#038048;stroke-width:1;"/><text fill="#000000" font-family="sans-serif" font-size="14" lengthAdjust="spacing" textLength="846.2402" x="27" y="350.3607">commit_imported_version( a_contribution : OBJECT_REF [1], an_audit : AUDIT_DETAILS [1], a_version : ORIGINAL_VERSION [1] ) : void [1]</text><ellipse cx="18" cy="363.2986" fill="#84BE84" rx="3" ry="3" style="stroke:#038048;stroke-width:1;"/><text fill="#000000" font-family="sans-serif" font-size="14" lengthAdjust="spacing" textLength="769.1007" x="27" y="367.1606">commit_attestation( an_attestation : ATTESTATION [1], a_ver_id : OBJECT_VERSION_ID [1], signing_key : String [1] ) : void [1]</text></g></g></svg>
