<svg xmlns="http://www.w3.org/2000/svg" xmlns:xlink="http://www.w3.org/1999/xlink" contentStyleType="text/css" data-diagram-type="CLASS" height="290px" preserveAspectRatio="none" style="width:315px;height:290px;background:#FFFFFF;" version="1.1" viewBox="0 0 315 290" width="315px" zoomAndPan="magnify"><defs/><g><!--class X_VERSIONED_EHR_STATUS--><g class="entity" data-entity="X_VERSIONED_EHR_STATUS" data-source-line="2" data-uid="ent0002" id="entity_X_VERSIONED_EHR_STATUS"><rect fill="#F1F1F1" height="48" rx="2.5" ry="2.5" style="stroke:#181818;stroke-width:0.5;" width="213.8313" x="48.81" y="235.6"/><ellipse cx="63.81" cy="251.6" fill="#ADD1B2" rx="11" ry="11" style="stroke:#181818;stroke-width:1;"/><path d="M63.81,258.0219 C64.9819,258.0219 66.2163,257.7563 67.5913,257.1469 L67.1069,255.6313 C66.0131,256.0531 64.9975,256.2406 64.1381,256.2406 C61.4194,256.2406 59.7006,254.3969 59.7006,251.4906 C59.7006,248.7406 61.2631,247.1469 63.9975,247.1469 C64.9194,247.1469 65.935,247.3344 67.0756,247.7563 L67.6538,246.2406 C66.56,245.6625 65.2631,245.3656 64.0756,245.3656 C60.31,245.3656 57.7319,248.0063 57.7319,251.8188 C57.7319,255.4906 60.2163,258.0219 63.81,258.0219 Z " fill="#000000"/><text fill="#000000" font-family="sans-serif" font-size="14" lengthAdjust="spacing" textLength="181.8313" x="77.81" y="256.962">X_VERSIONED_EHR_STATUS</text><line style="stroke:#181818;stroke-width:0.5;" x1="49.81" x2="261.6413" y1="267.6" y2="267.6"/><line style="stroke:#181818;stroke-width:0.5;" x1="49.81" x2="261.6413" y1="275.6" y2="275.6"/></g><!--class X_VERSIONED_OBJECT--><g class="entity" data-entity="X_VERSIONED_OBJECT" data-source-line="5" data-uid="ent0003" id="entity_X_VERSIONED_OBJECT"><rect fill="#F5F5F5" height="165.5995" rx="2.5" ry="2.5" style="stroke:#808080;stroke-width:1;stroke-dasharray:1,3;" width="297.4449" x="7" y="10"/><ellipse cx="71.7997" cy="26" fill="#ADD1B2" rx="11" ry="11" style="stroke:#181818;stroke-width:1;"/><path d="M71.7997,32.4219 C72.9716,32.4219 74.206,32.1563 75.581,31.5469 L75.0966,30.0313 C74.0028,30.4531 72.9872,30.6406 72.1278,30.6406 C69.4091,30.6406 67.6903,28.7969 67.6903,25.8906 C67.6903,23.1406 69.2528,21.5469 71.9872,21.5469 C72.9091,21.5469 73.9247,21.7344 75.0653,22.1563 L75.6435,20.6406 C74.5497,20.0625 73.2528,19.7656 72.0653,19.7656 C68.2997,19.7656 65.7216,22.4063 65.7216,26.2188 C65.7216,29.8906 68.206,32.4219 71.7997,32.4219 Z " fill="#000000"/><text fill="#808080" font-family="sans-serif" font-size="14" lengthAdjust="spacing" textLength="148.5534" x="92.2997" y="31.362">X_VERSIONED_OBJECT</text><rect fill="#FFFFFF" height="16.4001" style="stroke:#181818;stroke-width:1;stroke-dasharray:2,2;" width="8.7921" x="298.6528" y="7"/><text fill="#000000" font-family="sans-serif" font-size="12" font-style="italic" lengthAdjust="spacing" textLength="6.7921" x="299.6528" y="19.7961">T</text><line style="stroke:#808080;stroke-width:1;stroke-dasharray:1,3;" x1="8" x2="303.4449" y1="42" y2="42"/><ellipse cx="18" cy="55.9" fill="none" rx="3" ry="3" style="stroke:#038048;stroke-width:1;"/><text fill="#808080" font-family="sans-serif" font-size="14" lengthAdjust="spacing" textLength="156.3234" x="27" y="59.7619">uid : HIER_OBJECT_ID [1]</text><ellipse cx="18" cy="72.6999" fill="none" rx="3" ry="3" style="stroke:#038048;stroke-width:1;"/><text fill="#808080" font-family="sans-serif" font-size="14" lengthAdjust="spacing" textLength="168.3773" x="27" y="76.5619">owner_id : OBJECT_REF [1]</text><ellipse cx="18" cy="89.4998" fill="none" rx="3" ry="3" style="stroke:#038048;stroke-width:1;"/><text fill="#808080" font-family="sans-serif" font-size="14" lengthAdjust="spacing" textLength="209.7192" x="27" y="93.3618">time_created : DV_DATE_TIME [1]</text><ellipse cx="18" cy="106.2997" fill="none" rx="3" ry="3" style="stroke:#038048;stroke-width:1;"/><text fill="#808080" font-family="sans-serif" font-size="14" lengthAdjust="spacing" textLength="196.9093" x="27" y="110.1617">total_version_count : Integer [1]</text><ellipse cx="18" cy="123.0997" fill="none" rx="3" ry="3" style="stroke:#038048;stroke-width:1;"/><text fill="#808080" font-family="sans-serif" font-size="14" lengthAdjust="spacing" textLength="210.8532" x="27" y="126.9616">extract_version_count : Integer [1]</text><ellipse cx="18" cy="139.8996" fill="none" rx="3" ry="3" style="stroke:#038048;stroke-width:1;"/><text fill="#808080" font-family="sans-serif" font-size="14" lengthAdjust="spacing" textLength="268.421" x="27" y="143.7616">revision_history : REVISION_HISTORY [0..1]</text><ellipse cx="18" cy="156.6995" fill="none" rx="3" ry="3" style="stroke:#038048;stroke-width:1;"/><text fill="#808080" font-family="sans-serif" font-size="14" lengthAdjust="spacing" textLength="271.4449" x="27" y="160.5615">versions : List&lt;ORIGINAL_VERSION&lt;T&gt;&gt; [*]</text><line style="stroke:#808080;stroke-width:1;stroke-dasharray:1,3;" x1="8" x2="303.4449" y1="167.5995" y2="167.5995"/></g><!--reverse link X_VERSIONED_OBJECT to X_VERSIONED_EHR_STATUS--><g class="link" data-entity-1="X_VERSIONED_OBJECT" data-entity-2="X_VERSIONED_EHR_STATUS" data-source-line="15" data-uid="lnk4" id="link_X_VERSIONED_OBJECT_X_VERSIONED_EHR_STATUS"><path codeLine="15" d="M155.72,193.72 C155.72,215.53 155.72,219.38 155.72,235.17" fill="none" id="X_VERSIONED_OBJECT-backto-X_VERSIONED_EHR_STATUS" style="stroke:#181818;stroke-width:1;"/><polygon fill="none" points="155.72,175.72,149.72,193.72,161.72,193.72,155.72,175.72" style="stroke:#181818;stroke-width:1;"/></g></g></svg>
