<svg xmlns="http://www.w3.org/2000/svg" xmlns:xlink="http://www.w3.org/1999/xlink" contentStyleType="text/css" data-diagram-type="CLASS" height="145px" preserveAspectRatio="none" style="width:507px;height:145px;background:#FFFFFF;" version="1.1" viewBox="0 0 507 145" width="507px" zoomAndPan="magnify"><defs/><g><!--class BMM_TYPED--><g class="entity" data-entity="BMM_TYPED" data-source-line="2" data-uid="ent0002" id="entity_BMM_TYPED"><rect fill="#F1F1F1" height="81.5999" rx="2.5" ry="2.5" style="stroke:#181818;stroke-width:0.5;" width="181.2454" x="7" y="32.2"/><ellipse cx="52.2199" cy="48.2" fill="#A9DCDF" rx="11" ry="11" style="stroke:#181818;stroke-width:1;"/><path d="M46.7355,53.7 L48.7667,53.7 L52.8136,42.3563 L51.9074,42.3563 L55.7355,53.7 L57.8761,53.7 L53.548,41.3719 L51.3292,41.3719 L46.7355,53.7 Z M49.0636,50.2 L55.5011,50.2 L55.5011,48.45 L49.0636,48.45 L49.0636,50.2 Z " fill="#000000"/><text fill="#000000" font-family="sans-serif" font-size="14" font-style="italic" lengthAdjust="spacing" textLength="82.3057" x="72.7199" y="53.562">BMM_TYPED</text><line style="stroke:#181818;stroke-width:0.5;" x1="8" x2="187.2454" y1="64.2" y2="64.2"/><ellipse cx="18" cy="78.1" fill="none" rx="3" ry="3" style="stroke:#038048;stroke-width:1;"/><text fill="#000000" font-family="sans-serif" font-size="14" lengthAdjust="spacing" textLength="128.0575" x="27" y="81.9619">type : BMM_TYPE [1]</text><line style="stroke:#181818;stroke-width:0.5;" x1="8" x2="187.2454" y1="88.9999" y2="88.9999"/><ellipse cx="18" cy="102.8999" fill="#84BE84" rx="3" ry="3" style="stroke:#038048;stroke-width:1;"/><text fill="#000000" font-family="sans-serif" font-size="14" lengthAdjust="spacing" textLength="155.2454" x="27" y="106.7619">is_boolean() : Boolean [1]</text></g><!--class BMM_DECLARATION--><g class="entity" data-entity="BMM_DECLARATION" data-source-line="7" data-uid="ent0003" id="entity_BMM_DECLARATION"><rect fill="#F1F1F1" height="131.9996" rx="2.5" ry="2.5" style="stroke:#181818;stroke-width:0.5;" width="277.285" x="222.98" y="7"/><ellipse cx="290.8098" cy="23" fill="#A9DCDF" rx="11" ry="11" style="stroke:#181818;stroke-width:1;"/><path d="M285.3254,28.5 L287.3567,28.5 L291.4035,17.1563 L290.4973,17.1563 L294.3254,28.5 L296.466,28.5 L292.1379,16.1719 L289.9192,16.1719 L285.3254,28.5 Z M287.6535,25 L294.091,25 L294.091,23.25 L287.6535,23.25 L287.6535,25 Z " fill="#000000"/><text fill="#000000" font-family="sans-serif" font-size="14" font-style="italic" lengthAdjust="spacing" textLength="133.1255" x="311.3098" y="28.362">BMM_DECLARATION</text><line style="stroke:#181818;stroke-width:0.5;" x1="223.98" x2="499.265" y1="39" y2="39"/><ellipse cx="233.98" cy="52.9" fill="none" rx="3" ry="3" style="stroke:#038048;stroke-width:1;"/><text fill="#000000" font-family="sans-serif" font-size="14" lengthAdjust="spacing" textLength="100.8836" x="242.98" y="56.7619">name : String [1]</text><ellipse cx="233.98" cy="69.6999" fill="none" rx="3" ry="3" style="stroke:#038048;stroke-width:1;"/><text fill="#000000" font-family="sans-serif" font-size="14" lengthAdjust="spacing" textLength="251.285" x="242.98" y="73.5619">documentation : Hash&lt;String,Any&gt; [0..1]</text><ellipse cx="233.98" cy="86.4998" fill="none" rx="3" ry="3" style="stroke:#038048;stroke-width:1;"/><text fill="#000000" font-family="sans-serif" font-size="14" lengthAdjust="spacing" textLength="198.0292" x="242.98" y="90.3618">scope : BMM_DECLARATION [1]</text><ellipse cx="233.98" cy="103.2997" fill="none" rx="3" ry="3" style="stroke:#038048;stroke-width:1;"/><text fill="#000000" font-family="sans-serif" font-size="14" lengthAdjust="spacing" textLength="223.3411" x="242.98" y="107.1617">extensions : Hash&lt;String,Any&gt; [0..1]</text><line style="stroke:#181818;stroke-width:0.5;" x1="223.98" x2="499.265" y1="114.1997" y2="114.1997"/><ellipse cx="233.98" cy="128.0997" fill="#84BE84" rx="3" ry="3" style="stroke:#038048;stroke-width:1;"/><text fill="#000000" font-family="sans-serif" font-size="14" lengthAdjust="spacing" textLength="174.5653" x="242.98" y="131.9616">is_root_scope() : Boolean [1]</text></g></g></svg>
