<svg xmlns="http://www.w3.org/2000/svg" xmlns:xlink="http://www.w3.org/1999/xlink" contentStyleType="text/css" data-diagram-type="CLASS" height="594px" preserveAspectRatio="none" style="width:934px;height:594px;background:#FFFFFF;" version="1.1" viewBox="0 0 934 594" width="934px" zoomAndPan="magnify"><defs/><g><!--class BMM_INTEGER_VALUE--><g class="entity" data-entity="BMM_INTEGER_VALUE" data-source-line="2" data-uid="ent0002" id="entity_BMM_INTEGER_VALUE"><rect fill="#F1F1F1" height="64.7999" rx="2.5" ry="2.5" style="stroke:#181818;stroke-width:0.5;" width="177.9354" x="7" y="523"/><ellipse cx="22" cy="539" fill="#ADD1B2" rx="11" ry="11" style="stroke:#181818;stroke-width:1;"/><path d="M22,545.4219 C23.1719,545.4219 24.4063,545.1563 25.7813,544.5469 L25.2969,543.0313 C24.2031,543.4531 23.1875,543.6406 22.3281,543.6406 C19.6094,543.6406 17.8906,541.7969 17.8906,538.8906 C17.8906,536.1406 19.4531,534.5469 22.1875,534.5469 C23.1094,534.5469 24.125,534.7344 25.2656,535.1563 L25.8438,533.6406 C24.75,533.0625 23.4531,532.7656 22.2656,532.7656 C18.5,532.7656 15.9219,535.4063 15.9219,539.2188 C15.9219,542.8906 18.4063,545.4219 22,545.4219 Z " fill="#000000"/><text fill="#000000" font-family="sans-serif" font-size="14" lengthAdjust="spacing" textLength="145.9354" x="36" y="544.362">BMM_INTEGER_VALUE</text><line style="stroke:#181818;stroke-width:0.5;" x1="8" x2="183.9354" y1="555" y2="555"/><ellipse cx="18" cy="568.9" fill="none" rx="3" ry="3" style="stroke:#038048;stroke-width:1;"/><text fill="#000000" font-family="sans-serif" font-size="14" lengthAdjust="spacing" textLength="106.3016" x="27" y="572.7619">value : Integer [1]</text><line style="stroke:#181818;stroke-width:0.5;" x1="8" x2="183.9354" y1="579.7999" y2="579.7999"/></g><!--class BMM_PRIMITIVE_VALUE--><g class="entity" data-entity="BMM_PRIMITIVE_VALUE" data-source-line="6" data-uid="ent0003" id="entity_BMM_PRIMITIVE_VALUE"><rect fill="#F1F1F1" height="64.7999" rx="2.5" ry="2.5" style="stroke:#181818;stroke-width:0.5;" width="208.0833" x="200.93" y="398.2"/><ellipse cx="226.1134" cy="414.2" fill="#ADD1B2" rx="11" ry="11" style="stroke:#181818;stroke-width:1;"/><path d="M226.1134,420.6219 C227.2853,420.6219 228.5197,420.3562 229.8947,419.7469 L229.4103,418.2312 C228.3166,418.6531 227.3009,418.8406 226.4416,418.8406 C223.7228,418.8406 222.0041,416.9969 222.0041,414.0906 C222.0041,411.3406 223.5666,409.7469 226.3009,409.7469 C227.2228,409.7469 228.2384,409.9344 229.3791,410.3562 L229.9572,408.8406 C228.8634,408.2625 227.5666,407.9656 226.3791,407.9656 C222.6134,407.9656 220.0353,410.6062 220.0353,414.4187 C220.0353,418.0906 222.5197,420.6219 226.1134,420.6219 Z " fill="#000000"/><text fill="#000000" font-family="sans-serif" font-size="14" lengthAdjust="spacing" textLength="153.4534" x="242.3764" y="419.562">BMM_PRIMITIVE_VALUE</text><line style="stroke:#181818;stroke-width:0.5;" x1="201.93" x2="408.0133" y1="430.2" y2="430.2"/><ellipse cx="211.93" cy="444.1" fill="none" rx="3" ry="3" style="stroke:#038048;stroke-width:1;"/><text fill="#000000" font-family="sans-serif" font-size="14" lengthAdjust="spacing" textLength="182.0833" x="220.93" y="447.9619">type : BMM_SIMPLE_TYPE [1]</text><line style="stroke:#181818;stroke-width:0.5;" x1="201.93" x2="408.0133" y1="454.9999" y2="454.9999"/></g><!--class BMM_STRING_VALUE--><g class="entity" data-entity="BMM_STRING_VALUE" data-source-line="10" data-uid="ent0004" id="entity_BMM_STRING_VALUE"><rect fill="#F1F1F1" height="64.7999" rx="2.5" ry="2.5" style="stroke:#181818;stroke-width:0.5;" width="169.3255" x="220.3" y="523"/><ellipse cx="235.3" cy="539" fill="#ADD1B2" rx="11" ry="11" style="stroke:#181818;stroke-width:1;"/><path d="M235.3,545.4219 C236.4719,545.4219 237.7063,545.1563 239.0813,544.5469 L238.5969,543.0313 C237.5031,543.4531 236.4875,543.6406 235.6281,543.6406 C232.9094,543.6406 231.1906,541.7969 231.1906,538.8906 C231.1906,536.1406 232.7531,534.5469 235.4875,534.5469 C236.4094,534.5469 237.425,534.7344 238.5656,535.1563 L239.1438,533.6406 C238.05,533.0625 236.7531,532.7656 235.5656,532.7656 C231.8,532.7656 229.2219,535.4063 229.2219,539.2188 C229.2219,542.8906 231.7063,545.4219 235.3,545.4219 Z " fill="#000000"/><text fill="#000000" font-family="sans-serif" font-size="14" lengthAdjust="spacing" textLength="137.3255" x="249.3" y="544.362">BMM_STRING_VALUE</text><line style="stroke:#181818;stroke-width:0.5;" x1="221.3" x2="388.6255" y1="555" y2="555"/><ellipse cx="231.3" cy="568.9" fill="none" rx="3" ry="3" style="stroke:#038048;stroke-width:1;"/><text fill="#000000" font-family="sans-serif" font-size="14" lengthAdjust="spacing" textLength="98.9656" x="240.3" y="572.7619">value : String [1]</text><line style="stroke:#181818;stroke-width:0.5;" x1="221.3" x2="388.6255" y1="579.7999" y2="579.7999"/></g><!--class BMM_LITERAL_VALUE--><g class="entity" data-entity="BMM_LITERAL_VALUE" data-source-line="14" data-uid="ent0005" id="entity_BMM_LITERAL_VALUE"><rect fill="#F1F1F1" height="98.3998" rx="2.5" ry="2.5" style="stroke:#181818;stroke-width:0.5;" width="172.1814" x="502.88" y="115"/><ellipse cx="517.88" cy="131" fill="#A9DCDF" rx="11" ry="11" style="stroke:#181818;stroke-width:1;"/><path d="M512.3956,136.5 L514.4269,136.5 L518.4738,125.1562 L517.5675,125.1562 L521.3956,136.5 L523.5363,136.5 L519.2081,124.1719 L516.9894,124.1719 L512.3956,136.5 Z M514.7238,133 L521.1613,133 L521.1613,131.25 L514.7238,131.25 L514.7238,133 Z " fill="#000000"/><text fill="#000000" font-family="sans-serif" font-size="14" font-style="italic" lengthAdjust="spacing" textLength="140.1814" x="531.88" y="136.362">BMM_LITERAL_VALUE</text><line style="stroke:#181818;stroke-width:0.5;" x1="503.88" x2="674.0614" y1="147" y2="147"/><ellipse cx="513.88" cy="160.9" fill="none" rx="3" ry="3" style="stroke:#038048;stroke-width:1;"/><text fill="#000000" font-family="sans-serif" font-size="14" lengthAdjust="spacing" textLength="142.0854" x="522.88" y="164.7619">value_literal : String [1]</text><ellipse cx="513.88" cy="177.6999" fill="none" rx="3" ry="3" style="stroke:#038048;stroke-width:1;"/><text fill="#000000" font-family="sans-serif" font-size="14" lengthAdjust="spacing" textLength="100.7156" x="522.88" y="181.5619">value : Any [0..1]</text><ellipse cx="513.88" cy="194.4998" fill="none" rx="3" ry="3" style="stroke:#038048;stroke-width:1;"/><text fill="#000000" font-family="sans-serif" font-size="14" lengthAdjust="spacing" textLength="121.6875" x="522.88" y="198.3618">syntax : String [0..1]</text><line style="stroke:#181818;stroke-width:0.5;" x1="503.88" x2="674.0614" y1="205.3998" y2="205.3998"/></g><!--class BMM_TYPED--><g class="entity" data-entity="BMM_TYPED" data-source-line="20" data-uid="ent0006" id="entity_BMM_TYPED"><rect fill="#F5F5F5" height="48" rx="2.5" ry="2.5" style="stroke:#808080;stroke-width:1;stroke-dasharray:1,3;" width="114.3057" x="531.81" y="7"/><ellipse cx="546.81" cy="23" fill="#A9DCDF" rx="11" ry="11" style="stroke:#181818;stroke-width:1;"/><path d="M541.3256,28.5 L543.3569,28.5 L547.4038,17.1563 L546.4975,17.1563 L550.3256,28.5 L552.4663,28.5 L548.1381,16.1719 L545.9194,16.1719 L541.3256,28.5 Z M543.6538,25 L550.0913,25 L550.0913,23.25 L543.6538,23.25 L543.6538,25 Z " fill="#000000"/><text fill="#808080" font-family="sans-serif" font-size="14" font-style="italic" lengthAdjust="spacing" textLength="82.3057" x="560.81" y="28.362">BMM_TYPED</text><line style="stroke:#808080;stroke-width:1;stroke-dasharray:1,3;" x1="532.81" x2="645.1157" y1="39" y2="39"/><line style="stroke:#808080;stroke-width:1;stroke-dasharray:1,3;" x1="532.81" x2="645.1157" y1="47" y2="47"/></g><!--class BMM_BOOLEAN_VALUE--><g class="entity" data-entity="BMM_BOOLEAN_VALUE" data-source-line="23" data-uid="ent0007" id="entity_BMM_BOOLEAN_VALUE"><rect fill="#F1F1F1" height="64.7999" rx="2.5" ry="2.5" style="stroke:#181818;stroke-width:0.5;" width="185.3554" x="424.29" y="523"/><ellipse cx="439.29" cy="539" fill="#ADD1B2" rx="11" ry="11" style="stroke:#181818;stroke-width:1;"/><path d="M439.29,545.4219 C440.4619,545.4219 441.6963,545.1563 443.0713,544.5469 L442.5869,543.0313 C441.4931,543.4531 440.4775,543.6406 439.6181,543.6406 C436.8994,543.6406 435.1806,541.7969 435.1806,538.8906 C435.1806,536.1406 436.7431,534.5469 439.4775,534.5469 C440.3994,534.5469 441.415,534.7344 442.5556,535.1563 L443.1338,533.6406 C442.04,533.0625 440.7431,532.7656 439.5556,532.7656 C435.79,532.7656 433.2119,535.4063 433.2119,539.2188 C433.2119,542.8906 435.6963,545.4219 439.29,545.4219 Z " fill="#000000"/><text fill="#000000" font-family="sans-serif" font-size="14" lengthAdjust="spacing" textLength="153.3554" x="453.29" y="544.362">BMM_BOOLEAN_VALUE</text><line style="stroke:#181818;stroke-width:0.5;" x1="425.29" x2="608.6454" y1="555" y2="555"/><ellipse cx="435.29" cy="568.9" fill="none" rx="3" ry="3" style="stroke:#038048;stroke-width:1;"/><text fill="#000000" font-family="sans-serif" font-size="14" lengthAdjust="spacing" textLength="112.6155" x="444.29" y="572.7619">value : Boolean [1]</text><line style="stroke:#181818;stroke-width:0.5;" x1="425.29" x2="608.6454" y1="579.7999" y2="579.7999"/></g><!--class BMM_UNITARY_VALUE--><g class="entity" data-entity="BMM_UNITARY_VALUE" data-source-line="27" data-uid="ent0008" id="entity_BMM_UNITARY_VALUE"><rect fill="#F1F1F1" height="64.7999" rx="2.5" ry="2.5" style="stroke:#181818;stroke-width:0.5;" width="218.1772" x="208.88" y="273.4"/><ellipse cx="242.0266" cy="289.4" fill="#A9DCDF" rx="11" ry="11" style="stroke:#181818;stroke-width:1;"/><path d="M236.5422,294.9 L238.5735,294.9 L242.6204,283.5563 L241.7141,283.5563 L245.5422,294.9 L247.6829,294.9 L243.3547,282.5719 L241.136,282.5719 L236.5422,294.9 Z M238.8704,291.4 L245.3079,291.4 L245.3079,289.65 L238.8704,289.65 L238.8704,291.4 Z " fill="#000000"/><text fill="#000000" font-family="sans-serif" font-size="14" font-style="italic" lengthAdjust="spacing" textLength="145.8514" x="260.0592" y="294.762">BMM_UNITARY_VALUE</text><line style="stroke:#181818;stroke-width:0.5;" x1="209.88" x2="426.0572" y1="305.4" y2="305.4"/><ellipse cx="219.88" cy="319.3" fill="none" rx="3" ry="3" style="stroke:#038048;stroke-width:1;"/><text fill="#000000" font-family="sans-serif" font-size="14" lengthAdjust="spacing" textLength="192.1772" x="228.88" y="323.1619">type : BMM_UNITARY_TYPE [1]</text><line style="stroke:#181818;stroke-width:0.5;" x1="209.88" x2="426.0572" y1="330.1999" y2="330.1999"/></g><!--class BMM_CONTAINER_VALUE--><g class="entity" data-entity="BMM_CONTAINER_VALUE" data-source-line="31" data-uid="ent0009" id="entity_BMM_CONTAINER_VALUE"><rect fill="#F1F1F1" height="64.7999" rx="2.5" ry="2.5" style="stroke:#181818;stroke-width:0.5;" width="239.0091" x="469.46" y="273.4"/><ellipse cx="502.6066" cy="289.4" fill="#ADD1B2" rx="11" ry="11" style="stroke:#181818;stroke-width:1;"/><path d="M502.6066,295.8219 C503.7785,295.8219 505.0129,295.5563 506.3879,294.9469 L505.9035,293.4313 C504.8097,293.8531 503.7941,294.0406 502.9347,294.0406 C500.216,294.0406 498.4972,292.1969 498.4972,289.2906 C498.4972,286.5406 500.0597,284.9469 502.7941,284.9469 C503.716,284.9469 504.7316,285.1344 505.8722,285.5563 L506.4504,284.0406 C505.3566,283.4625 504.0597,283.1656 502.8722,283.1656 C499.1066,283.1656 496.5285,285.8063 496.5285,289.6188 C496.5285,293.2906 499.0129,295.8219 502.6066,295.8219 Z " fill="#000000"/><text fill="#000000" font-family="sans-serif" font-size="14" lengthAdjust="spacing" textLength="166.6833" x="520.6392" y="294.762">BMM_CONTAINER_VALUE</text><line style="stroke:#181818;stroke-width:0.5;" x1="470.46" x2="707.4691" y1="305.4" y2="305.4"/><ellipse cx="480.46" cy="319.3" fill="none" rx="3" ry="3" style="stroke:#038048;stroke-width:1;"/><text fill="#000000" font-family="sans-serif" font-size="14" lengthAdjust="spacing" textLength="213.0091" x="489.46" y="323.1619">type : BMM_CONTAINER_TYPE [1]</text><line style="stroke:#181818;stroke-width:0.5;" x1="470.46" x2="707.4691" y1="330.1999" y2="330.1999"/></g><!--class BMM_INDEXED_CONTAINER_VALUE--><g class="entity" data-entity="BMM_INDEXED_CONTAINER_VALUE" data-source-line="35" data-uid="ent0010" id="entity_BMM_INDEXED_CONTAINER_VALUE"><rect fill="#F1F1F1" height="64.7999" rx="2.5" ry="2.5" style="stroke:#181818;stroke-width:0.5;" width="304.8509" x="443.54" y="398.2"/><ellipse cx="476.6866" cy="414.2" fill="#ADD1B2" rx="11" ry="11" style="stroke:#181818;stroke-width:1;"/><path d="M476.6866,420.6219 C477.8585,420.6219 479.0929,420.3562 480.4679,419.7469 L479.9835,418.2312 C478.8898,418.6531 477.8741,418.8406 477.0148,418.8406 C474.296,418.8406 472.5773,416.9969 472.5773,414.0906 C472.5773,411.3406 474.1398,409.7469 476.8741,409.7469 C477.796,409.7469 478.8116,409.9344 479.9523,410.3562 L480.5304,408.8406 C479.4366,408.2625 478.1398,407.9656 476.9523,407.9656 C473.1866,407.9656 470.6085,410.6062 470.6085,414.4187 C470.6085,418.0906 473.0929,420.6219 476.6866,420.6219 Z " fill="#000000"/><text fill="#000000" font-family="sans-serif" font-size="14" lengthAdjust="spacing" textLength="232.5251" x="494.7192" y="419.562">BMM_INDEXED_CONTAINER_VALUE</text><line style="stroke:#181818;stroke-width:0.5;" x1="444.54" x2="747.3909" y1="430.2" y2="430.2"/><ellipse cx="454.54" cy="444.1" fill="none" rx="3" ry="3" style="stroke:#038048;stroke-width:1;"/><text fill="#000000" font-family="sans-serif" font-size="14" lengthAdjust="spacing" textLength="278.8509" x="463.54" y="447.9619">type : BMM_INDEXED_CONTAINER_TYPE [1]</text><line style="stroke:#181818;stroke-width:0.5;" x1="444.54" x2="747.3909" y1="454.9999" y2="454.9999"/></g><!--class BMM_INTERVAL_VALUE--><g class="entity" data-entity="BMM_INTERVAL_VALUE" data-source-line="39" data-uid="ent0011" id="entity_BMM_INTERVAL_VALUE"><rect fill="#F1F1F1" height="48" rx="2.5" ry="2.5" style="stroke:#181818;stroke-width:0.5;" width="184.0394" x="743.95" y="281.8"/><ellipse cx="758.95" cy="297.8" fill="#ADD1B2" rx="11" ry="11" style="stroke:#181818;stroke-width:1;"/><path d="M758.95,304.2219 C760.1219,304.2219 761.3563,303.9562 762.7313,303.3469 L762.2469,301.8312 C761.1531,302.2531 760.1375,302.4406 759.2781,302.4406 C756.5594,302.4406 754.8406,300.5969 754.8406,297.6906 C754.8406,294.9406 756.4031,293.3469 759.1375,293.3469 C760.0594,293.3469 761.075,293.5344 762.2156,293.9562 L762.7938,292.4406 C761.7,291.8625 760.4031,291.5656 759.2156,291.5656 C755.45,291.5656 752.8719,294.2062 752.8719,298.0187 C752.8719,301.6906 755.3563,304.2219 758.95,304.2219 Z " fill="#000000"/><text fill="#000000" font-family="sans-serif" font-size="14" lengthAdjust="spacing" textLength="152.0394" x="772.95" y="303.162">BMM_INTERVAL_VALUE</text><line style="stroke:#181818;stroke-width:0.5;" x1="744.95" x2="926.9894" y1="313.8" y2="313.8"/><line style="stroke:#181818;stroke-width:0.5;" x1="744.95" x2="926.9894" y1="321.8" y2="321.8"/></g><!--reverse link BMM_PRIMITIVE_VALUE to BMM_INTEGER_VALUE--><g class="link" data-entity-1="BMM_PRIMITIVE_VALUE" data-entity-2="BMM_INTEGER_VALUE" data-source-line="42" data-uid="lnk12" id="link_BMM_PRIMITIVE_VALUE_BMM_INTEGER_VALUE"><path codeLine="42" d="M235.3526,472.502 C204.3926,490.702 181.18,504.33 150.2,522.54" fill="none" id="BMM_PRIMITIVE_VALUE-backto-BMM_INTEGER_VALUE" style="stroke:#181818;stroke-width:1;"/><polygon fill="none" points="250.87,463.38,232.3119,467.3295,238.3933,477.6744,250.87,463.38" style="stroke:#181818;stroke-width:1;"/></g><!--reverse link BMM_UNITARY_VALUE to BMM_PRIMITIVE_VALUE--><g class="link" data-entity-1="BMM_UNITARY_VALUE" data-entity-2="BMM_PRIMITIVE_VALUE" data-source-line="43" data-uid="lnk13" id="link_BMM_UNITARY_VALUE_BMM_PRIMITIVE_VALUE"><path codeLine="43" d="M312.7265,356.3201 C310.7865,374.6601 310.24,379.77 308.3,398.08" fill="none" id="BMM_UNITARY_VALUE-backto-BMM_PRIMITIVE_VALUE" style="stroke:#181818;stroke-width:1;"/><polygon fill="none" points="314.62,338.42,306.7598,355.689,318.6932,356.9513,314.62,338.42" style="stroke:#181818;stroke-width:1;"/></g><!--reverse link BMM_PRIMITIVE_VALUE to BMM_STRING_VALUE--><g class="link" data-entity-1="BMM_PRIMITIVE_VALUE" data-entity-2="BMM_STRING_VALUE" data-source-line="44" data-uid="lnk14" id="link_BMM_PRIMITIVE_VALUE_BMM_STRING_VALUE"><path codeLine="44" d="M304.97,481.22 C304.97,499.56 304.97,504.57 304.97,522.88" fill="none" id="BMM_PRIMITIVE_VALUE-backto-BMM_STRING_VALUE" style="stroke:#181818;stroke-width:1;"/><polygon fill="none" points="304.97,463.22,298.97,481.22,310.97,481.22,304.97,463.22" style="stroke:#181818;stroke-width:1;"/></g><!--reverse link BMM_TYPED to BMM_LITERAL_VALUE--><g class="link" data-entity-1="BMM_TYPED" data-entity-2="BMM_LITERAL_VALUE" data-source-line="45" data-uid="lnk15" id="link_BMM_TYPED_BMM_LITERAL_VALUE"><path codeLine="45" d="M588.97,73.46 C588.97,89.89 588.97,94.45 588.97,114.68" fill="none" id="BMM_TYPED-backto-BMM_LITERAL_VALUE" style="stroke:#181818;stroke-width:1;"/><polygon fill="none" points="588.97,55.46,582.97,73.46,594.97,73.46,588.97,55.46" style="stroke:#181818;stroke-width:1;"/></g><!--reverse link BMM_PRIMITIVE_VALUE to BMM_BOOLEAN_VALUE--><g class="link" data-entity-1="BMM_PRIMITIVE_VALUE" data-entity-2="BMM_BOOLEAN_VALUE" data-source-line="46" data-uid="lnk16" id="link_BMM_PRIMITIVE_VALUE_BMM_BOOLEAN_VALUE"><path codeLine="46" d="M375.4144,472.4043 C406.8244,490.6043 430.53,504.33 461.96,522.54" fill="none" id="BMM_PRIMITIVE_VALUE-backto-BMM_BOOLEAN_VALUE" style="stroke:#181818;stroke-width:1;"/><polygon fill="none" points="359.84,463.38,372.4063,477.5958,378.4225,467.2129,359.84,463.38" style="stroke:#181818;stroke-width:1;"/></g><!--reverse link BMM_LITERAL_VALUE to BMM_UNITARY_VALUE--><g class="link" data-entity-1="BMM_LITERAL_VALUE" data-entity-2="BMM_UNITARY_VALUE" data-source-line="47" data-uid="lnk17" id="link_BMM_LITERAL_VALUE_BMM_UNITARY_VALUE"><path codeLine="47" d="M486.4784,217.993 C446.5084,238.583 415.97,254.31 379.63,273.03" fill="none" id="BMM_LITERAL_VALUE-backto-BMM_UNITARY_VALUE" style="stroke:#181818;stroke-width:1;"/><polygon fill="none" points="502.48,209.75,483.7307,212.6591,489.226,223.3269,502.48,209.75" style="stroke:#181818;stroke-width:1;"/></g><!--reverse link BMM_LITERAL_VALUE to BMM_CONTAINER_VALUE--><g class="link" data-entity-1="BMM_LITERAL_VALUE" data-entity-2="BMM_CONTAINER_VALUE" data-source-line="48" data-uid="lnk18" id="link_BMM_LITERAL_VALUE_BMM_CONTAINER_VALUE"><path codeLine="48" d="M588.97,231.63 C588.97,251.32 588.97,255.52 588.97,273.08" fill="none" id="BMM_LITERAL_VALUE-backto-BMM_CONTAINER_VALUE" style="stroke:#181818;stroke-width:1;"/><polygon fill="none" points="588.97,213.63,582.97,231.63,594.97,231.63,588.97,213.63" style="stroke:#181818;stroke-width:1;"/></g><!--reverse link BMM_CONTAINER_VALUE to BMM_INDEXED_CONTAINER_VALUE--><g class="link" data-entity-1="BMM_CONTAINER_VALUE" data-entity-2="BMM_INDEXED_CONTAINER_VALUE" data-source-line="49" data-uid="lnk19" id="link_BMM_CONTAINER_VALUE_BMM_INDEXED_CONTAINER_VALUE"><path codeLine="49" d="M591.7988,356.3906 C592.8488,374.7306 593.13,379.77 594.17,398.08" fill="none" id="BMM_CONTAINER_VALUE-backto-BMM_INDEXED_CONTAINER_VALUE" style="stroke:#181818;stroke-width:1;"/><polygon fill="none" points="590.77,338.42,585.8087,356.7335,597.789,356.0476,590.77,338.42" style="stroke:#181818;stroke-width:1;"/></g><!--reverse link BMM_LITERAL_VALUE to BMM_INTERVAL_VALUE--><g class="link" data-entity-1="BMM_LITERAL_VALUE" data-entity-2="BMM_INTERVAL_VALUE" data-source-line="50" data-uid="lnk20" id="link_BMM_LITERAL_VALUE_BMM_INTERVAL_VALUE"><path codeLine="50" d="M690.6796,222.6879 C731.1896,245.5879 761.98,262.98 794.54,281.38" fill="none" id="BMM_LITERAL_VALUE-backto-BMM_INTERVAL_VALUE" style="stroke:#181818;stroke-width:1;"/><polygon fill="none" points="675.01,213.83,687.727,227.9111,693.6323,217.4647,675.01,213.83" style="stroke:#181818;stroke-width:1;"/></g></g></svg>
