<svg xmlns="http://www.w3.org/2000/svg" xmlns:xlink="http://www.w3.org/1999/xlink" contentStyleType="text/css" data-diagram-type="CLASS" height="237px" preserveAspectRatio="none" style="width:2337px;height:237px;background:#FFFFFF;" version="1.1" viewBox="0 0 2337 237" width="2337px" zoomAndPan="magnify"><defs/><g><!--class EL_TYPE_DEF--><g class="entity" data-entity="EL_TYPE_DEF" data-source-line="2" data-uid="ent0002" id="entity_EL_TYPE_DEF"><rect fill="#F1F1F1" height="81.5999" rx="2.5" ry="2.5" style="stroke:#181818;stroke-width:0.5;" width="161.0435" x="1066.77" y="7"/><ellipse cx="1100.3513" cy="23" fill="#A9DCDF" rx="11" ry="11" style="stroke:#181818;stroke-width:1;"/><path d="M1094.867,28.5 L1096.8982,28.5 L1100.9451,17.1563 L1100.0388,17.1563 L1103.867,28.5 L1106.0076,28.5 L1101.6795,16.1719 L1099.4607,16.1719 L1094.867,28.5 Z M1097.1951,25 L1103.6326,25 L1103.6326,23.25 L1097.1951,23.25 L1097.1951,25 Z " fill="#000000"/><text fill="#000000" font-family="sans-serif" font-size="14" font-style="italic" lengthAdjust="spacing" textLength="87.7516" x="1118.4805" y="28.362">EL_TYPE_DEF</text><line style="stroke:#181818;stroke-width:0.5;" x1="1067.77" x2="1226.8135" y1="39" y2="39"/><ellipse cx="1077.77" cy="52.9" fill="none" rx="3" ry="3" style="stroke:#038048;stroke-width:1;"/><text fill="#000000" font-family="sans-serif" font-size="14" lengthAdjust="spacing" textLength="135.0435" x="1086.77" y="56.7619">type_name : String [1]</text><ellipse cx="1077.77" cy="69.6999" fill="none" rx="3" ry="3" style="stroke:#038048;stroke-width:1;"/><text fill="#000000" font-family="sans-serif" font-size="14" lengthAdjust="spacing" textLength="128.9255" x="1086.77" y="73.5619">type_anchor : Any [1]</text><line style="stroke:#181818;stroke-width:0.5;" x1="1067.77" x2="1226.8135" y1="80.5999" y2="80.5999"/></g><!--class TYPE_DEF_BOOLEAN--><g class="entity" data-entity="TYPE_DEF_BOOLEAN" data-source-line="7" data-uid="ent0003" id="entity_TYPE_DEF_BOOLEAN"><rect fill="#F1F1F1" height="81.5999" rx="2.5" ry="2.5" style="stroke:#181818;stroke-width:0.5;" width="182.5894" x="7" y="148.6"/><ellipse cx="28.0633" cy="164.6" fill="#ADD1B2" rx="11" ry="11" style="stroke:#181818;stroke-width:1;"/><path d="M28.0633,171.0219 C29.2352,171.0219 30.4695,170.7563 31.8445,170.1469 L31.3602,168.6313 C30.2664,169.0531 29.2508,169.2406 28.3914,169.2406 C25.6727,169.2406 23.9539,167.3969 23.9539,164.4906 C23.9539,161.7406 25.5164,160.1469 28.2508,160.1469 C29.1727,160.1469 30.1883,160.3344 31.3289,160.7563 L31.907,159.2406 C30.8133,158.6625 29.5164,158.3656 28.3289,158.3656 C24.5633,158.3656 21.9852,161.0063 21.9852,164.8188 C21.9852,168.4906 24.4695,171.0219 28.0633,171.0219 Z " fill="#000000"/><text fill="#000000" font-family="sans-serif" font-size="14" lengthAdjust="spacing" textLength="137.1154" x="43.4107" y="169.962">TYPE_DEF_BOOLEAN</text><line style="stroke:#181818;stroke-width:0.5;" x1="8" x2="188.5894" y1="180.6" y2="180.6"/><ellipse cx="18" cy="194.5" fill="none" rx="3" ry="3" style="stroke:#038048;stroke-width:1;"/><text fill="#000000" font-family="sans-serif" font-size="14" lengthAdjust="spacing" textLength="135.0435" x="27" y="198.3619">type_name : String [1]</text><ellipse cx="18" cy="211.2999" fill="none" rx="3" ry="3" style="stroke:#038048;stroke-width:1;"/><text fill="#000000" font-family="sans-serif" font-size="14" lengthAdjust="spacing" textLength="156.5894" x="27" y="215.1619">type_anchor : Boolean [1]</text><line style="stroke:#181818;stroke-width:0.5;" x1="8" x2="188.5894" y1="222.1999" y2="222.1999"/></g><!--class TYPE_DEF_DATE--><g class="entity" data-entity="TYPE_DEF_DATE" data-source-line="12" data-uid="ent0004" id="entity_TYPE_DEF_DATE"><rect fill="#F1F1F1" height="81.5999" rx="2.5" ry="2.5" style="stroke:#181818;stroke-width:0.5;" width="161.0435" x="224.77" y="148.6"/><ellipse cx="249.5503" cy="164.6" fill="#ADD1B2" rx="11" ry="11" style="stroke:#181818;stroke-width:1;"/><path d="M249.5503,171.0219 C250.7221,171.0219 251.9565,170.7563 253.3315,170.1469 L252.8471,168.6313 C251.7534,169.0531 250.7378,169.2406 249.8784,169.2406 C247.1596,169.2406 245.4409,167.3969 245.4409,164.4906 C245.4409,161.7406 247.0034,160.1469 249.7378,160.1469 C250.6596,160.1469 251.6753,160.3344 252.8159,160.7563 L253.394,159.2406 C252.3003,158.6625 251.0034,158.3656 249.8159,158.3656 C246.0503,158.3656 243.4721,161.0063 243.4721,164.8188 C243.4721,168.4906 245.9565,171.0219 249.5503,171.0219 Z " fill="#000000"/><text fill="#000000" font-family="sans-serif" font-size="14" lengthAdjust="spacing" textLength="107.3096" x="265.7237" y="169.962">TYPE_DEF_DATE</text><line style="stroke:#181818;stroke-width:0.5;" x1="225.77" x2="384.8135" y1="180.6" y2="180.6"/><ellipse cx="235.77" cy="194.5" fill="none" rx="3" ry="3" style="stroke:#038048;stroke-width:1;"/><text fill="#000000" font-family="sans-serif" font-size="14" lengthAdjust="spacing" textLength="135.0435" x="244.77" y="198.3619">type_name : String [1]</text><ellipse cx="235.77" cy="211.2999" fill="none" rx="3" ry="3" style="stroke:#038048;stroke-width:1;"/><text fill="#000000" font-family="sans-serif" font-size="14" lengthAdjust="spacing" textLength="128.9255" x="244.77" y="215.1619">type_anchor : Any [1]</text><line style="stroke:#181818;stroke-width:0.5;" x1="225.77" x2="384.8135" y1="222.1999" y2="222.1999"/></g><!--class TYPE_DEF_DATE_TIME--><g class="entity" data-entity="TYPE_DEF_DATE_TIME" data-source-line="17" data-uid="ent0005" id="entity_TYPE_DEF_DATE_TIME"><rect fill="#F1F1F1" height="81.5999" rx="2.5" ry="2.5" style="stroke:#181818;stroke-width:0.5;" width="178.1734" x="421.21" y="148.6"/><ellipse cx="436.21" cy="164.6" fill="#ADD1B2" rx="11" ry="11" style="stroke:#181818;stroke-width:1;"/><path d="M436.21,171.0219 C437.3819,171.0219 438.6163,170.7563 439.9913,170.1469 L439.5069,168.6313 C438.4131,169.0531 437.3975,169.2406 436.5381,169.2406 C433.8194,169.2406 432.1006,167.3969 432.1006,164.4906 C432.1006,161.7406 433.6631,160.1469 436.3975,160.1469 C437.3194,160.1469 438.335,160.3344 439.4756,160.7563 L440.0538,159.2406 C438.96,158.6625 437.6631,158.3656 436.4756,158.3656 C432.71,158.3656 430.1319,161.0063 430.1319,164.8188 C430.1319,168.4906 432.6163,171.0219 436.21,171.0219 Z " fill="#000000"/><text fill="#000000" font-family="sans-serif" font-size="14" lengthAdjust="spacing" textLength="146.1734" x="450.21" y="169.962">TYPE_DEF_DATE_TIME</text><line style="stroke:#181818;stroke-width:0.5;" x1="422.21" x2="598.3834" y1="180.6" y2="180.6"/><ellipse cx="432.21" cy="194.5" fill="none" rx="3" ry="3" style="stroke:#038048;stroke-width:1;"/><text fill="#000000" font-family="sans-serif" font-size="14" lengthAdjust="spacing" textLength="135.0435" x="441.21" y="198.3619">type_name : String [1]</text><ellipse cx="432.21" cy="211.2999" fill="none" rx="3" ry="3" style="stroke:#038048;stroke-width:1;"/><text fill="#000000" font-family="sans-serif" font-size="14" lengthAdjust="spacing" textLength="128.9255" x="441.21" y="215.1619">type_anchor : Any [1]</text><line style="stroke:#181818;stroke-width:0.5;" x1="422.21" x2="598.3834" y1="222.1999" y2="222.1999"/></g><!--class TYPE_DEF_DURATION--><g class="entity" data-entity="TYPE_DEF_DURATION" data-source-line="22" data-uid="ent0006" id="entity_TYPE_DEF_DURATION"><rect fill="#F1F1F1" height="81.5999" rx="2.5" ry="2.5" style="stroke:#181818;stroke-width:0.5;" width="174.0854" x="634.25" y="148.6"/><ellipse cx="649.25" cy="164.6" fill="#ADD1B2" rx="11" ry="11" style="stroke:#181818;stroke-width:1;"/><path d="M649.25,171.0219 C650.4219,171.0219 651.6563,170.7563 653.0313,170.1469 L652.5469,168.6313 C651.4531,169.0531 650.4375,169.2406 649.5781,169.2406 C646.8594,169.2406 645.1406,167.3969 645.1406,164.4906 C645.1406,161.7406 646.7031,160.1469 649.4375,160.1469 C650.3594,160.1469 651.375,160.3344 652.5156,160.7563 L653.0938,159.2406 C652,158.6625 650.7031,158.3656 649.5156,158.3656 C645.75,158.3656 643.1719,161.0063 643.1719,164.8188 C643.1719,168.4906 645.6563,171.0219 649.25,171.0219 Z " fill="#000000"/><text fill="#000000" font-family="sans-serif" font-size="14" lengthAdjust="spacing" textLength="142.0854" x="663.25" y="169.962">TYPE_DEF_DURATION</text><line style="stroke:#181818;stroke-width:0.5;" x1="635.25" x2="807.3354" y1="180.6" y2="180.6"/><ellipse cx="645.25" cy="194.5" fill="none" rx="3" ry="3" style="stroke:#038048;stroke-width:1;"/><text fill="#000000" font-family="sans-serif" font-size="14" lengthAdjust="spacing" textLength="135.0435" x="654.25" y="198.3619">type_name : String [1]</text><ellipse cx="645.25" cy="211.2999" fill="none" rx="3" ry="3" style="stroke:#038048;stroke-width:1;"/><text fill="#000000" font-family="sans-serif" font-size="14" lengthAdjust="spacing" textLength="128.9255" x="654.25" y="215.1619">type_anchor : Any [1]</text><line style="stroke:#181818;stroke-width:0.5;" x1="635.25" x2="807.3354" y1="222.1999" y2="222.1999"/></g><!--class TYPE_DEF_INTEGER--><g class="entity" data-entity="TYPE_DEF_INTEGER" data-source-line="27" data-uid="ent0007" id="entity_TYPE_DEF_INTEGER"><rect fill="#F1F1F1" height="81.5999" rx="2.5" ry="2.5" style="stroke:#181818;stroke-width:0.5;" width="176.2754" x="843.16" y="148.6"/><ellipse cx="864.721" cy="164.6" fill="#ADD1B2" rx="11" ry="11" style="stroke:#181818;stroke-width:1;"/><path d="M864.721,171.0219 C865.8929,171.0219 867.1272,170.7563 868.5022,170.1469 L868.0179,168.6313 C866.9241,169.0531 865.9085,169.2406 865.0491,169.2406 C862.3304,169.2406 860.6116,167.3969 860.6116,164.4906 C860.6116,161.7406 862.1741,160.1469 864.9085,160.1469 C865.8304,160.1469 866.846,160.3344 867.9866,160.7563 L868.5647,159.2406 C867.471,158.6625 866.1741,158.3656 864.9866,158.3656 C861.221,158.3656 858.6429,161.0063 858.6429,164.8188 C858.6429,168.4906 861.1272,171.0219 864.721,171.0219 Z " fill="#000000"/><text fill="#000000" font-family="sans-serif" font-size="14" lengthAdjust="spacing" textLength="129.6955" x="880.179" y="169.962">TYPE_DEF_INTEGER</text><line style="stroke:#181818;stroke-width:0.5;" x1="844.16" x2="1018.4354" y1="180.6" y2="180.6"/><ellipse cx="854.16" cy="194.5" fill="none" rx="3" ry="3" style="stroke:#038048;stroke-width:1;"/><text fill="#000000" font-family="sans-serif" font-size="14" lengthAdjust="spacing" textLength="135.0435" x="863.16" y="198.3619">type_name : String [1]</text><ellipse cx="854.16" cy="211.2999" fill="none" rx="3" ry="3" style="stroke:#038048;stroke-width:1;"/><text fill="#000000" font-family="sans-serif" font-size="14" lengthAdjust="spacing" textLength="150.2754" x="863.16" y="215.1619">type_anchor : Integer [1]</text><line style="stroke:#181818;stroke-width:0.5;" x1="844.16" x2="1018.4354" y1="222.1999" y2="222.1999"/></g><!--class TYPE_DEF_OBJECT_REF--><g class="entity" data-entity="TYPE_DEF_OBJECT_REF" data-source-line="32" data-uid="ent0008" id="entity_TYPE_DEF_OBJECT_REF"><rect fill="#F1F1F1" height="64.7999" rx="2.5" ry="2.5" style="stroke:#181818;stroke-width:0.5;" width="186.3914" x="1054.1" y="157"/><ellipse cx="1069.1" cy="173" fill="#ADD1B2" rx="11" ry="11" style="stroke:#181818;stroke-width:1;"/><path d="M1069.1,179.4219 C1070.2719,179.4219 1071.5063,179.1563 1072.8813,178.5469 L1072.3969,177.0313 C1071.3031,177.4531 1070.2875,177.6406 1069.4281,177.6406 C1066.7094,177.6406 1064.9906,175.7969 1064.9906,172.8906 C1064.9906,170.1406 1066.5531,168.5469 1069.2875,168.5469 C1070.2094,168.5469 1071.225,168.7344 1072.3656,169.1563 L1072.9438,167.6406 C1071.85,167.0625 1070.5531,166.7656 1069.3656,166.7656 C1065.6,166.7656 1063.0219,169.4063 1063.0219,173.2188 C1063.0219,176.8906 1065.5063,179.4219 1069.1,179.4219 Z " fill="#000000"/><text fill="#000000" font-family="sans-serif" font-size="14" lengthAdjust="spacing" textLength="154.3914" x="1083.1" y="178.362">TYPE_DEF_OBJECT_REF</text><line style="stroke:#181818;stroke-width:0.5;" x1="1055.1" x2="1239.4914" y1="189" y2="189"/><ellipse cx="1065.1" cy="202.9" fill="none" rx="3" ry="3" style="stroke:#038048;stroke-width:1;"/><text fill="#000000" font-family="sans-serif" font-size="14" lengthAdjust="spacing" textLength="135.0435" x="1074.1" y="206.7619">type_name : String [1]</text><line style="stroke:#181818;stroke-width:0.5;" x1="1055.1" x2="1239.4914" y1="213.7999" y2="213.7999"/></g><!--class TYPE_DEF_REAL--><g class="entity" data-entity="TYPE_DEF_REAL" data-source-line="36" data-uid="ent0009" id="entity_TYPE_DEF_REAL"><rect fill="#F1F1F1" height="81.5999" rx="2.5" ry="2.5" style="stroke:#181818;stroke-width:0.5;" width="161.0435" x="1275.77" y="148.6"/><ellipse cx="1301.5016" cy="164.6" fill="#ADD1B2" rx="11" ry="11" style="stroke:#181818;stroke-width:1;"/><path d="M1301.5016,171.0219 C1302.6734,171.0219 1303.9078,170.7563 1305.2828,170.1469 L1304.7984,168.6313 C1303.7047,169.0531 1302.6891,169.2406 1301.8297,169.2406 C1299.1109,169.2406 1297.3922,167.3969 1297.3922,164.4906 C1297.3922,161.7406 1298.9547,160.1469 1301.6891,160.1469 C1302.6109,160.1469 1303.6266,160.3344 1304.7672,160.7563 L1305.3453,159.2406 C1304.2516,158.6625 1302.9547,158.3656 1301.7672,158.3656 C1298.0016,158.3656 1295.4234,161.0063 1295.4234,164.8188 C1295.4234,168.4906 1297.9078,171.0219 1301.5016,171.0219 Z " fill="#000000"/><text fill="#000000" font-family="sans-serif" font-size="14" lengthAdjust="spacing" textLength="105.1956" x="1317.8864" y="169.962">TYPE_DEF_REAL</text><line style="stroke:#181818;stroke-width:0.5;" x1="1276.77" x2="1435.8135" y1="180.6" y2="180.6"/><ellipse cx="1286.77" cy="194.5" fill="none" rx="3" ry="3" style="stroke:#038048;stroke-width:1;"/><text fill="#000000" font-family="sans-serif" font-size="14" lengthAdjust="spacing" textLength="135.0435" x="1295.77" y="198.3619">type_name : String [1]</text><ellipse cx="1286.77" cy="211.2999" fill="none" rx="3" ry="3" style="stroke:#038048;stroke-width:1;"/><text fill="#000000" font-family="sans-serif" font-size="14" lengthAdjust="spacing" textLength="132.6355" x="1295.77" y="215.1619">type_anchor : Real [1]</text><line style="stroke:#181818;stroke-width:0.5;" x1="1276.77" x2="1435.8135" y1="222.1999" y2="222.1999"/></g><!--class TYPE_DEF_STRING--><g class="entity" data-entity="TYPE_DEF_STRING" data-source-line="41" data-uid="ent0010" id="entity_TYPE_DEF_STRING"><rect fill="#F1F1F1" height="81.5999" rx="2.5" ry="2.5" style="stroke:#181818;stroke-width:0.5;" width="168.9395" x="1471.82" y="148.6"/><ellipse cx="1493.9543" cy="164.6" fill="#ADD1B2" rx="11" ry="11" style="stroke:#181818;stroke-width:1;"/><path d="M1493.9543,171.0219 C1495.1262,171.0219 1496.3605,170.7563 1497.7355,170.1469 L1497.2512,168.6313 C1496.1574,169.0531 1495.1418,169.2406 1494.2824,169.2406 C1491.5637,169.2406 1489.8449,167.3969 1489.8449,164.4906 C1489.8449,161.7406 1491.4074,160.1469 1494.1418,160.1469 C1495.0637,160.1469 1496.0793,160.3344 1497.2199,160.7563 L1497.798,159.2406 C1496.7043,158.6625 1495.4074,158.3656 1494.2199,158.3656 C1490.4543,158.3656 1487.8762,161.0063 1487.8762,164.8188 C1487.8762,168.4906 1490.3605,171.0219 1493.9543,171.0219 Z " fill="#000000"/><text fill="#000000" font-family="sans-serif" font-size="14" lengthAdjust="spacing" textLength="121.0855" x="1509.5397" y="169.962">TYPE_DEF_STRING</text><line style="stroke:#181818;stroke-width:0.5;" x1="1472.82" x2="1639.7595" y1="180.6" y2="180.6"/><ellipse cx="1482.82" cy="194.5" fill="none" rx="3" ry="3" style="stroke:#038048;stroke-width:1;"/><text fill="#000000" font-family="sans-serif" font-size="14" lengthAdjust="spacing" textLength="135.0435" x="1491.82" y="198.3619">type_name : String [1]</text><ellipse cx="1482.82" cy="211.2999" fill="none" rx="3" ry="3" style="stroke:#038048;stroke-width:1;"/><text fill="#000000" font-family="sans-serif" font-size="14" lengthAdjust="spacing" textLength="142.9395" x="1491.82" y="215.1619">type_anchor : String [1]</text><line style="stroke:#181818;stroke-width:0.5;" x1="1472.82" x2="1639.7595" y1="222.1999" y2="222.1999"/></g><!--class TYPE_DEF_TERMINOLOGY_CODE--><g class="entity" data-entity="TYPE_DEF_TERMINOLOGY_CODE" data-source-line="46" data-uid="ent0011" id="entity_TYPE_DEF_TERMINOLOGY_CODE"><rect fill="#F1F1F1" height="81.5999" rx="2.5" ry="2.5" style="stroke:#181818;stroke-width:0.5;" width="247.1991" x="1675.7" y="148.6"/><ellipse cx="1690.8665" cy="164.6" fill="#ADD1B2" rx="11" ry="11" style="stroke:#181818;stroke-width:1;"/><path d="M1690.8665,171.0219 C1692.0384,171.0219 1693.2728,170.7563 1694.6478,170.1469 L1694.1634,168.6313 C1693.0696,169.0531 1692.054,169.2406 1691.1946,169.2406 C1688.4759,169.2406 1686.7571,167.3969 1686.7571,164.4906 C1686.7571,161.7406 1688.3196,160.1469 1691.054,160.1469 C1691.9759,160.1469 1692.9915,160.3344 1694.1321,160.7563 L1694.7103,159.2406 C1693.6165,158.6625 1692.3196,158.3656 1691.1321,158.3656 C1687.3665,158.3656 1684.7884,161.0063 1684.7884,164.8188 C1684.7884,168.4906 1687.2728,171.0219 1690.8665,171.0219 Z " fill="#000000"/><text fill="#000000" font-family="sans-serif" font-size="14" lengthAdjust="spacing" textLength="214.8291" x="1704.9035" y="169.962">TYPE_DEF_TERMINOLOGY_CODE</text><line style="stroke:#181818;stroke-width:0.5;" x1="1676.7" x2="1921.8991" y1="180.6" y2="180.6"/><ellipse cx="1686.7" cy="194.5" fill="none" rx="3" ry="3" style="stroke:#038048;stroke-width:1;"/><text fill="#000000" font-family="sans-serif" font-size="14" lengthAdjust="spacing" textLength="135.0435" x="1695.7" y="198.3619">type_name : String [1]</text><ellipse cx="1686.7" cy="211.2999" fill="none" rx="3" ry="3" style="stroke:#038048;stroke-width:1;"/><text fill="#000000" font-family="sans-serif" font-size="14" lengthAdjust="spacing" textLength="221.1991" x="1695.7" y="215.1619">type_anchor : Terminology_code [1]</text><line style="stroke:#181818;stroke-width:0.5;" x1="1676.7" x2="1921.8991" y1="222.1999" y2="222.1999"/></g><!--class TYPE_DEF_TIME--><g class="entity" data-entity="TYPE_DEF_TIME" data-source-line="51" data-uid="ent0012" id="entity_TYPE_DEF_TIME"><rect fill="#F1F1F1" height="81.5999" rx="2.5" ry="2.5" style="stroke:#181818;stroke-width:0.5;" width="161.0435" x="1957.77" y="148.6"/><ellipse cx="1983.8796" cy="164.6" fill="#ADD1B2" rx="11" ry="11" style="stroke:#181818;stroke-width:1;"/><path d="M1983.8796,171.0219 C1985.0514,171.0219 1986.2858,170.7563 1987.6608,170.1469 L1987.1764,168.6313 C1986.0827,169.0531 1985.0671,169.2406 1984.2077,169.2406 C1981.4889,169.2406 1979.7702,167.3969 1979.7702,164.4906 C1979.7702,161.7406 1981.3327,160.1469 1984.0671,160.1469 C1984.9889,160.1469 1986.0046,160.3344 1987.1452,160.7563 L1987.7233,159.2406 C1986.6296,158.6625 1985.3327,158.3656 1984.1452,158.3656 C1980.3796,158.3656 1977.8014,161.0063 1977.8014,164.8188 C1977.8014,168.4906 1980.2858,171.0219 1983.8796,171.0219 Z " fill="#000000"/><text fill="#000000" font-family="sans-serif" font-size="14" lengthAdjust="spacing" textLength="104.3556" x="2000.3483" y="169.962">TYPE_DEF_TIME</text><line style="stroke:#181818;stroke-width:0.5;" x1="1958.77" x2="2117.8135" y1="180.6" y2="180.6"/><ellipse cx="1968.77" cy="194.5" fill="none" rx="3" ry="3" style="stroke:#038048;stroke-width:1;"/><text fill="#000000" font-family="sans-serif" font-size="14" lengthAdjust="spacing" textLength="135.0435" x="1977.77" y="198.3619">type_name : String [1]</text><ellipse cx="1968.77" cy="211.2999" fill="none" rx="3" ry="3" style="stroke:#038048;stroke-width:1;"/><text fill="#000000" font-family="sans-serif" font-size="14" lengthAdjust="spacing" textLength="128.9255" x="1977.77" y="215.1619">type_anchor : Any [1]</text><line style="stroke:#181818;stroke-width:0.5;" x1="1958.77" x2="2117.8135" y1="222.1999" y2="222.1999"/></g><!--class TYPE_DEF_URI--><g class="entity" data-entity="TYPE_DEF_URI" data-source-line="56" data-uid="ent0013" id="entity_TYPE_DEF_URI"><rect fill="#F1F1F1" height="81.5999" rx="2.5" ry="2.5" style="stroke:#181818;stroke-width:0.5;" width="176.2754" x="2154.16" y="148.6"/><ellipse cx="2191.6473" cy="164.6" fill="#ADD1B2" rx="11" ry="11" style="stroke:#181818;stroke-width:1;"/><path d="M2191.6473,171.0219 C2192.8192,171.0219 2194.0536,170.7563 2195.4286,170.1469 L2194.9442,168.6313 C2193.8504,169.0531 2192.8348,169.2406 2191.9754,169.2406 C2189.2567,169.2406 2187.5379,167.3969 2187.5379,164.4906 C2187.5379,161.7406 2189.1004,160.1469 2191.8348,160.1469 C2192.7567,160.1469 2193.7723,160.3344 2194.9129,160.7563 L2195.4911,159.2406 C2194.3973,158.6625 2193.1004,158.3656 2191.9129,158.3656 C2188.1473,158.3656 2185.5692,161.0063 2185.5692,164.8188 C2185.5692,168.4906 2188.0536,171.0219 2191.6473,171.0219 Z " fill="#000000"/><text fill="#000000" font-family="sans-serif" font-size="14" lengthAdjust="spacing" textLength="94.3036" x="2210.6445" y="169.962">TYPE_DEF_URI</text><line style="stroke:#181818;stroke-width:0.5;" x1="2155.16" x2="2329.4354" y1="180.6" y2="180.6"/><ellipse cx="2165.16" cy="194.5" fill="none" rx="3" ry="3" style="stroke:#038048;stroke-width:1;"/><text fill="#000000" font-family="sans-serif" font-size="14" lengthAdjust="spacing" textLength="135.0435" x="2174.16" y="198.3619">type_name : String [1]</text><ellipse cx="2165.16" cy="211.2999" fill="none" rx="3" ry="3" style="stroke:#038048;stroke-width:1;"/><text fill="#000000" font-family="sans-serif" font-size="14" lengthAdjust="spacing" textLength="150.2754" x="2174.16" y="215.1619">type_anchor : Integer [1]</text><line style="stroke:#181818;stroke-width:0.5;" x1="2155.16" x2="2329.4354" y1="222.1999" y2="222.1999"/></g><!--reverse link EL_TYPE_DEF to TYPE_DEF_BOOLEAN--><g class="link" data-entity-1="EL_TYPE_DEF" data-entity-2="TYPE_DEF_BOOLEAN" data-source-line="61" data-uid="lnk14" id="link_EL_TYPE_DEF_TYPE_DEF_BOOLEAN"><path codeLine="61" d="M1048.3598,51.3542 C884.2498,56.7742 519.43,76.19 207.29,148.6 C201.6,149.92 195.8,151.45 189.99,153.13" fill="none" id="EL_TYPE_DEF-backto-TYPE_DEF_BOOLEAN" style="stroke:#181818;stroke-width:1;"/><polygon fill="none" points="1066.35,50.76,1048.1618,45.3574,1048.5579,57.3509,1066.35,50.76" style="stroke:#181818;stroke-width:1;"/></g><!--reverse link EL_TYPE_DEF to TYPE_DEF_DATE--><g class="link" data-entity-1="EL_TYPE_DEF" data-entity-2="TYPE_DEF_DATE" data-source-line="62" data-uid="lnk15" id="link_EL_TYPE_DEF_TYPE_DEF_DATE"><path codeLine="62" d="M1048.4846,54.0754 C910.4446,62.6454 639.31,85.93 403.29,148.6 C397.7,150.08 392.01,151.81 386.31,153.68" fill="none" id="EL_TYPE_DEF-backto-TYPE_DEF_DATE" style="stroke:#181818;stroke-width:1;"/><polygon fill="none" points="1066.45,52.96,1048.1128,48.0869,1048.8564,60.0638,1066.45,52.96" style="stroke:#181818;stroke-width:1;"/></g><!--reverse link EL_TYPE_DEF to TYPE_DEF_DATE_TIME--><g class="link" data-entity-1="EL_TYPE_DEF" data-entity-2="TYPE_DEF_DATE_TIME" data-source-line="63" data-uid="lnk16" id="link_EL_TYPE_DEF_TYPE_DEF_DATE_TIME"><path codeLine="63" d="M1048.8697,62.0373 C943.9397,76.9773 773.26,104.74 616.29,148.6 C610.9,150.11 605.39,151.77 599.86,153.54" fill="none" id="EL_TYPE_DEF-backto-TYPE_DEF_DATE_TIME" style="stroke:#181818;stroke-width:1;"/><polygon fill="none" points="1066.69,59.5,1048.024,56.0972,1049.7155,67.9774,1066.69,59.5" style="stroke:#181818;stroke-width:1;"/></g><!--reverse link EL_TYPE_DEF to TYPE_DEF_DURATION--><g class="link" data-entity-1="EL_TYPE_DEF" data-entity-2="TYPE_DEF_DURATION" data-source-line="64" data-uid="lnk17" id="link_EL_TYPE_DEF_TYPE_DEF_DURATION"><path codeLine="64" d="M1049.1709,77.391 C983.7609,96.761 906.74,120.43 825.29,148.6 C819.9,150.46 814.38,152.43 808.81,154.44" fill="none" id="EL_TYPE_DEF-backto-TYPE_DEF_DURATION" style="stroke:#181818;stroke-width:1;"/><polygon fill="none" points="1066.43,72.28,1047.4672,71.6379,1050.8745,83.144,1066.43,72.28" style="stroke:#181818;stroke-width:1;"/></g><!--reverse link EL_TYPE_DEF to TYPE_DEF_INTEGER--><g class="link" data-entity-1="EL_TYPE_DEF" data-entity-2="TYPE_DEF_INTEGER" data-source-line="65" data-uid="lnk18" id="link_EL_TYPE_DEF_TYPE_DEF_INTEGER"><path codeLine="65" d="M1069.9932,98.7616 C1041.2032,117.3716 1022.2,129.65 993.42,148.25" fill="none" id="EL_TYPE_DEF-backto-TYPE_DEF_INTEGER" style="stroke:#181818;stroke-width:1;"/><polygon fill="none" points="1085.11,88.99,1066.736,93.7226,1073.2504,103.8005,1085.11,88.99" style="stroke:#181818;stroke-width:1;"/></g><!--reverse link EL_TYPE_DEF to TYPE_DEF_OBJECT_REF--><g class="link" data-entity-1="EL_TYPE_DEF" data-entity-2="TYPE_DEF_OBJECT_REF" data-source-line="66" data-uid="lnk19" id="link_EL_TYPE_DEF_TYPE_DEF_OBJECT_REF"><path codeLine="66" d="M1147.29,106.8 C1147.29,128.4 1147.29,136.67 1147.29,156.81" fill="none" id="EL_TYPE_DEF-backto-TYPE_DEF_OBJECT_REF" style="stroke:#181818;stroke-width:1;"/><polygon fill="none" points="1147.29,88.8,1141.29,106.8,1153.29,106.8,1147.29,88.8" style="stroke:#181818;stroke-width:1;"/></g><!--reverse link EL_TYPE_DEF to TYPE_DEF_REAL--><g class="link" data-entity-1="EL_TYPE_DEF" data-entity-2="TYPE_DEF_REAL" data-source-line="67" data-uid="lnk20" id="link_EL_TYPE_DEF_TYPE_DEF_REAL"><path codeLine="67" d="M1222.4361,98.9907 C1250.2861,117.6007 1268.34,129.65 1296.19,148.25" fill="none" id="EL_TYPE_DEF-backto-TYPE_DEF_REAL" style="stroke:#181818;stroke-width:1;"/><polygon fill="none" points="1207.47,88.99,1219.1026,103.9794,1225.7697,94.002,1207.47,88.99" style="stroke:#181818;stroke-width:1;"/></g><!--reverse link EL_TYPE_DEF to TYPE_DEF_STRING--><g class="link" data-entity-1="EL_TYPE_DEF" data-entity-2="TYPE_DEF_STRING" data-source-line="68" data-uid="lnk21" id="link_EL_TYPE_DEF_TYPE_DEF_STRING"><path codeLine="68" d="M1245.3779,79.0778 C1307.5379,98.5378 1378.16,121.4 1454.29,148.6 C1459.93,150.61 1465.73,152.74 1471.56,154.91" fill="none" id="EL_TYPE_DEF-backto-TYPE_DEF_STRING" style="stroke:#181818;stroke-width:1;"/><polygon fill="none" points="1228.2,73.7,1243.5853,84.8037,1247.1705,73.3518,1228.2,73.7" style="stroke:#181818;stroke-width:1;"/></g><!--reverse link EL_TYPE_DEF to TYPE_DEF_TERMINOLOGY_CODE--><g class="link" data-entity-1="EL_TYPE_DEF" data-entity-2="TYPE_DEF_TERMINOLOGY_CODE" data-source-line="69" data-uid="lnk22" id="link_EL_TYPE_DEF_TYPE_DEF_TERMINOLOGY_CODE"><path codeLine="69" d="M1246.0137,65.5745 C1347.1437,83.1645 1507.5,112.66 1658.29,148.6 C1663.86,149.93 1669.54,151.33 1675.27,152.78" fill="none" id="EL_TYPE_DEF-backto-TYPE_DEF_TERMINOLOGY_CODE" style="stroke:#181818;stroke-width:1;"/><polygon fill="none" points="1228.28,62.49,1244.9856,71.4858,1247.0419,59.6633,1228.28,62.49" style="stroke:#181818;stroke-width:1;"/></g><!--reverse link EL_TYPE_DEF to TYPE_DEF_TIME--><g class="link" data-entity-1="EL_TYPE_DEF" data-entity-2="TYPE_DEF_TIME" data-source-line="70" data-uid="lnk23" id="link_EL_TYPE_DEF_TYPE_DEF_TIME"><path codeLine="70" d="M1246.2171,52.9479 C1391.1571,60.2679 1685.71,82.11 1940.29,148.6 C1945.89,150.06 1951.59,151.77 1957.29,153.63" fill="none" id="EL_TYPE_DEF-backto-TYPE_DEF_TIME" style="stroke:#181818;stroke-width:1;"/><polygon fill="none" points="1228.24,52.04,1245.9145,58.9403,1246.5197,46.9555,1228.24,52.04" style="stroke:#181818;stroke-width:1;"/></g><!--reverse link EL_TYPE_DEF to TYPE_DEF_URI--><g class="link" data-entity-1="EL_TYPE_DEF" data-entity-2="TYPE_DEF_URI" data-source-line="71" data-uid="lnk24" id="link_EL_TYPE_DEF_TYPE_DEF_URI"><path codeLine="71" d="M1246.2453,50.3321 C1416.5553,54.2321 1805.48,71.18 2136.29,148.6 C2142.04,149.94 2147.89,151.52 2153.75,153.25" fill="none" id="EL_TYPE_DEF-backto-TYPE_DEF_URI" style="stroke:#181818;stroke-width:1;"/><polygon fill="none" points="1228.25,49.92,1246.1079,56.3305,1246.3826,44.3337,1228.25,49.92" style="stroke:#181818;stroke-width:1;"/></g></g></svg>
