<svg xmlns="http://www.w3.org/2000/svg" xmlns:xlink="http://www.w3.org/1999/xlink" contentStyleType="text/css" data-diagram-type="CLASS" height="714px" preserveAspectRatio="none" style="width:1242px;height:714px;background:#FFFFFF;" version="1.1" viewBox="0 0 1242 714" width="1242px" zoomAndPan="magnify"><defs/><g><!--class BMM_MODEL--><g class="entity" data-entity="BMM_MODEL" data-source-line="2" data-uid="ent0002" id="entity_BMM_MODEL"><rect fill="#F1F1F1" height="400.7985" rx="2.5" ry="2.5" style="stroke:#181818;stroke-width:0.5;" width="933.2941" x="7" y="307"/><ellipse cx="425.5212" cy="323" fill="#ADD1B2" rx="11" ry="11" style="stroke:#181818;stroke-width:1;"/><path d="M425.5212,329.4219 C426.6931,329.4219 427.9275,329.1562 429.3025,328.5469 L428.8181,327.0312 C427.7243,327.4531 426.7087,327.6406 425.8493,327.6406 C423.1306,327.6406 421.4118,325.7969 421.4118,322.8906 C421.4118,320.1406 422.9743,318.5469 425.7087,318.5469 C426.6306,318.5469 427.6462,318.7344 428.7868,319.1562 L429.365,317.6406 C428.2712,317.0625 426.9743,316.7656 425.7868,316.7656 C422.0212,316.7656 419.4431,319.4062 419.4431,323.2187 C419.4431,326.8906 421.9275,329.4219 425.5212,329.4219 Z " fill="#000000"/><text fill="#000000" font-family="sans-serif" font-size="14" lengthAdjust="spacing" textLength="87.7516" x="446.0212" y="328.362">BMM_MODEL</text><line style="stroke:#181818;stroke-width:0.5;" x1="8" x2="939.2941" y1="339" y2="339"/><ellipse cx="18" cy="352.9" fill="none" rx="3" ry="3" style="stroke:#038048;stroke-width:1;"/><text fill="#000000" font-family="sans-serif" font-size="14" lengthAdjust="spacing" textLength="316.9167" x="27" y="356.7619">class_definitions : Hash&lt;String,BMM_CLASS&gt; [0..1]</text><ellipse cx="18" cy="369.6999" fill="none" rx="3" ry="3" style="stroke:#038048;stroke-width:1;"/><text fill="#000000" font-family="sans-serif" font-size="14" lengthAdjust="spacing" textLength="238.041" x="27" y="373.5619">used_models : List&lt;BMM_MODEL&gt; [*]</text><line style="stroke:#181818;stroke-width:0.5;" x1="8" x2="939.2941" y1="380.5999" y2="380.5999"/><ellipse cx="18" cy="394.4998" fill="#84BE84" rx="3" ry="3" style="stroke:#038048;stroke-width:1;"/><text fill="#000000" font-family="sans-serif" font-size="14" lengthAdjust="spacing" textLength="132.4395" x="27" y="398.3618">model_id() : String [1]</text><ellipse cx="18" cy="411.2997" fill="#84BE84" rx="3" ry="3" style="stroke:#038048;stroke-width:1;"/><text fill="#000000" font-family="sans-serif" font-size="14" lengthAdjust="spacing" textLength="335.3407" x="27" y="415.1617">class_definition( a_name : String [1] ) : BMM_CLASS [1]</text><ellipse cx="18" cy="428.0997" fill="#84BE84" rx="3" ry="3" style="stroke:#038048;stroke-width:1;"/><text fill="#000000" font-family="sans-serif" font-size="14" lengthAdjust="spacing" textLength="210.6992" x="27" y="431.9616">type_definition() : BMM_CLASS [1]</text><ellipse cx="18" cy="444.8996" fill="#84BE84" rx="3" ry="3" style="stroke:#038048;stroke-width:1;"/><text fill="#000000" font-family="sans-serif" font-size="14" lengthAdjust="spacing" textLength="372.3846" x="27" y="448.7616">has_class_definition( a_class_name : String [1] ) : Boolean [1]</text><ellipse cx="18" cy="461.6995" fill="#84BE84" rx="3" ry="3" style="stroke:#038048;stroke-width:1;"/><text fill="#000000" font-family="sans-serif" font-size="14" lengthAdjust="spacing" textLength="365.5247" x="27" y="465.5615">has_type_definition( a_type_name : String [1] ) : Boolean [1]</text><ellipse cx="18" cy="478.4995" fill="#84BE84" rx="3" ry="3" style="stroke:#038048;stroke-width:1;"/><text fill="#000000" font-family="sans-serif" font-size="14" lengthAdjust="spacing" textLength="442.6642" x="27" y="482.3614">enumeration_definition( a_name : String [1] ) : BMM_ENUMERATION [1]</text><ellipse cx="18" cy="495.2994" fill="#84BE84" rx="3" ry="3" style="stroke:#038048;stroke-width:1;"/><text fill="#000000" font-family="sans-serif" font-size="14" lengthAdjust="spacing" textLength="209.2012" x="27" y="499.1614">primitive_types() : List&lt;String&gt; [*]</text><ellipse cx="18" cy="512.0993" fill="#84BE84" rx="3" ry="3" style="stroke:#038048;stroke-width:1;"/><text fill="#000000" font-family="sans-serif" font-size="14" lengthAdjust="spacing" textLength="233.7851" x="27" y="515.9613">enumeration_types() : List&lt;String&gt; [*]</text><ellipse cx="18" cy="528.8992" fill="#84BE84" rx="3" ry="3" style="stroke:#038048;stroke-width:1;"/><text fill="#000000" font-family="sans-serif" font-size="14" lengthAdjust="spacing" textLength="265.5649" x="27" y="532.7612">property_definition() : BMM_PROPERTY [1]</text><ellipse cx="18" cy="545.6992" fill="#84BE84" rx="3" ry="3" style="stroke:#038048;stroke-width:1;"/><text fill="#000000" font-family="sans-serif" font-size="14" lengthAdjust="spacing" textLength="907.2941" x="27" y="549.5611">ms_conformant_property_type( a_bmm_type_name : String [1], a_bmm_property_name : String [1], a_ms_property_name : String [1] ) : Boolean [1]</text><ellipse cx="18" cy="562.4991" fill="#84BE84" rx="3" ry="3" style="stroke:#038048;stroke-width:1;"/><text fill="#000000" font-family="sans-serif" font-size="14" lengthAdjust="spacing" textLength="319.9407" x="27" y="566.3611">property_definition_at_path() : BMM_PROPERTY [1]</text><ellipse cx="18" cy="579.299" fill="#84BE84" rx="3" ry="3" style="stroke:#038048;stroke-width:1;"/><text fill="#000000" font-family="sans-serif" font-size="14" lengthAdjust="spacing" textLength="575.0477" x="27" y="583.161">class_definition_at_path( a_type_name : String [1], a_prop_path : String [1] ) : BMM_CLASS [1]</text><ellipse cx="18" cy="596.0989" fill="#84BE84" rx="3" ry="3" style="stroke:#038048;stroke-width:1;"/><text fill="#000000" font-family="sans-serif" font-size="14" lengthAdjust="spacing" textLength="357.5026" x="27" y="599.9609">all_ancestor_classes( a_class : String [1] ) : List&lt;String&gt; [*]</text><ellipse cx="18" cy="612.8989" fill="#84BE84" rx="3" ry="3" style="stroke:#038048;stroke-width:1;"/><text fill="#000000" font-family="sans-serif" font-size="14" lengthAdjust="spacing" textLength="562.5038" x="27" y="616.7608">is_descendant_of( a_class_name : String [1], a_parent_class_name : String [1] ) : Boolean [1]</text><ellipse cx="18" cy="629.6988" fill="#84BE84" rx="3" ry="3" style="stroke:#038048;stroke-width:1;"/><text fill="#000000" font-family="sans-serif" font-size="14" lengthAdjust="spacing" textLength="500.9321" x="27" y="633.5608">type_conforms_to( a_desc_type : String [1], an_anc_type : String [1] ) : Boolean [1]</text><ellipse cx="18" cy="646.4987" fill="#84BE84" rx="3" ry="3" style="stroke:#038048;stroke-width:1;"/><text fill="#000000" font-family="sans-serif" font-size="14" lengthAdjust="spacing" textLength="295.8749" x="27" y="650.3607">subtypes( a_type : String [1] ) : List&lt;String&gt; [1..*]</text><ellipse cx="18" cy="663.2986" fill="#84BE84" rx="3" ry="3" style="stroke:#038048;stroke-width:1;"/><text fill="#000000" font-family="sans-serif" font-size="14" lengthAdjust="spacing" textLength="296.9808" x="27" y="667.1606">any_class_definition() : BMM_SIMPLE_CLASS [1]</text><ellipse cx="18" cy="680.0986" fill="#84BE84" rx="3" ry="3" style="stroke:#038048;stroke-width:1;"/><text fill="#000000" font-family="sans-serif" font-size="14" lengthAdjust="spacing" textLength="285.6689" x="27" y="683.9605">any_type_definition() : BMM_SIMPLE_TYPE [1]</text><ellipse cx="18" cy="696.8985" fill="#84BE84" rx="3" ry="3" style="stroke:#038048;stroke-width:1;"/><text fill="#000000" font-family="sans-serif" font-size="14" lengthAdjust="spacing" textLength="314.0888" x="27" y="700.7605">boolean_type_definition() : BMM_SIMPLE_TYPE [1]</text></g><!--class BMM_MODEL_METADATA--><g class="entity" data-entity="BMM_MODEL_METADATA" data-source-line="26" data-uid="ent0003" id="entity_BMM_MODEL_METADATA"><rect fill="#F1F1F1" height="81.5999" rx="2.5" ry="2.5" style="stroke:#181818;stroke-width:0.5;" width="199.0473" x="374.12" y="140.2"/><ellipse cx="389.12" cy="156.2" fill="#ADD1B2" rx="11" ry="11" style="stroke:#181818;stroke-width:1;"/><path d="M389.12,162.6219 C390.2919,162.6219 391.5263,162.3562 392.9013,161.7469 L392.4169,160.2312 C391.3231,160.6531 390.3075,160.8406 389.4481,160.8406 C386.7294,160.8406 385.0106,158.9969 385.0106,156.0906 C385.0106,153.3406 386.5731,151.7469 389.3075,151.7469 C390.2294,151.7469 391.245,151.9344 392.3856,152.3562 L392.9638,150.8406 C391.87,150.2625 390.5731,149.9656 389.3856,149.9656 C385.62,149.9656 383.0419,152.6062 383.0419,156.4187 C383.0419,160.0906 385.5263,162.6219 389.12,162.6219 Z " fill="#000000"/><text fill="#000000" font-family="sans-serif" font-size="14" lengthAdjust="spacing" textLength="167.0473" x="403.12" y="161.562">BMM_MODEL_METADATA</text><line style="stroke:#181818;stroke-width:0.5;" x1="375.12" x2="572.1673" y1="172.2" y2="172.2"/><ellipse cx="385.12" cy="186.1" fill="none" rx="3" ry="3" style="stroke:#038048;stroke-width:1;"/><text fill="#000000" font-family="sans-serif" font-size="14" lengthAdjust="spacing" textLength="148.8894" x="394.12" y="189.9619">rm_publisher : String [1]</text><ellipse cx="385.12" cy="202.8999" fill="none" rx="3" ry="3" style="stroke:#038048;stroke-width:1;"/><text fill="#000000" font-family="sans-serif" font-size="14" lengthAdjust="spacing" textLength="135.6735" x="394.12" y="206.7619">rm_release : String [1]</text><line style="stroke:#181818;stroke-width:0.5;" x1="375.12" x2="572.1673" y1="213.7999" y2="213.7999"/></g><!--class BMM_PACKAGE--><g class="entity" data-entity="BMM_PACKAGE" data-source-line="31" data-uid="ent0004" id="entity_BMM_PACKAGE"><rect fill="#F1F1F1" height="98.3998" rx="2.5" ry="2.5" style="stroke:#181818;stroke-width:0.5;" width="259.8551" x="975.72" y="458.2"/><ellipse cx="1050.7037" cy="474.2" fill="#ADD1B2" rx="11" ry="11" style="stroke:#181818;stroke-width:1;"/><path d="M1050.7037,480.6219 C1051.8756,480.6219 1053.11,480.3562 1054.485,479.7469 L1054.0006,478.2312 C1052.9069,478.6531 1051.8912,478.8406 1051.0319,478.8406 C1048.3131,478.8406 1046.5944,476.9969 1046.5944,474.0906 C1046.5944,471.3406 1048.1569,469.7469 1050.8912,469.7469 C1051.8131,469.7469 1052.8287,469.9344 1053.9694,470.3562 L1054.5475,468.8406 C1053.4537,468.2625 1052.1569,467.9656 1050.9694,467.9656 C1047.2037,467.9656 1044.6256,470.6062 1044.6256,474.4187 C1044.6256,478.0906 1047.11,480.6219 1050.7037,480.6219 Z " fill="#000000"/><text fill="#000000" font-family="sans-serif" font-size="14" lengthAdjust="spacing" textLength="101.3876" x="1071.2037" y="479.562">BMM_PACKAGE</text><line style="stroke:#181818;stroke-width:0.5;" x1="976.72" x2="1234.5751" y1="490.2" y2="490.2"/><ellipse cx="986.72" cy="504.1" fill="none" rx="3" ry="3" style="stroke:#038048;stroke-width:1;"/><text fill="#000000" font-family="sans-serif" font-size="14" lengthAdjust="spacing" textLength="192.2192" x="995.72" y="507.9619">classes : List&lt;BMM_CLASS&gt; [*]</text><line style="stroke:#181818;stroke-width:0.5;" x1="976.72" x2="1234.5751" y1="514.9999" y2="514.9999"/><ellipse cx="986.72" cy="528.8999" fill="#84BE84" rx="3" ry="3" style="stroke:#038048;stroke-width:1;"/><text fill="#000000" font-family="sans-serif" font-size="14" lengthAdjust="spacing" textLength="233.8551" x="995.72" y="532.7619">root_classes() : List&lt;BMM_CLASS&gt; [*]</text><ellipse cx="986.72" cy="545.6998" fill="#84BE84" rx="3" ry="3" style="stroke:#038048;stroke-width:1;"/><text fill="#000000" font-family="sans-serif" font-size="14" lengthAdjust="spacing" textLength="102.5636" x="995.72" y="549.5618">path() : String [1]</text></g><!--class BMM_PACKAGE_CONTAINER--><g class="entity" data-entity="BMM_PACKAGE_CONTAINER" data-source-line="37" data-uid="ent0005" id="entity_BMM_PACKAGE_CONTAINER"><rect fill="#F1F1F1" height="131.9996" rx="2.5" ry="2.5" style="stroke:#181818;stroke-width:0.5;" width="461.4402" x="740.93" y="115"/><ellipse cx="874.2305" cy="131" fill="#A9DCDF" rx="11" ry="11" style="stroke:#181818;stroke-width:1;"/><path d="M868.7461,136.5 L870.7774,136.5 L874.8243,125.1563 L873.918,125.1563 L877.7461,136.5 L879.8868,136.5 L875.5586,124.1719 L873.3399,124.1719 L868.7461,136.5 Z M871.0743,133 L877.5118,133 L877.5118,131.25 L871.0743,131.25 L871.0743,133 Z " fill="#000000"/><text fill="#000000" font-family="sans-serif" font-size="14" font-style="italic" lengthAdjust="spacing" textLength="186.3392" x="894.7305" y="136.362">BMM_PACKAGE_CONTAINER</text><line style="stroke:#181818;stroke-width:0.5;" x1="741.93" x2="1201.3702" y1="147" y2="147"/><ellipse cx="751.93" cy="160.9" fill="none" rx="3" ry="3" style="stroke:#038048;stroke-width:1;"/><text fill="#000000" font-family="sans-serif" font-size="14" lengthAdjust="spacing" textLength="292.3608" x="760.93" y="164.7619">packages : Hash&lt;String,BMM_PACKAGE&gt; [0..1]</text><ellipse cx="751.93" cy="177.6999" fill="none" rx="3" ry="3" style="stroke:#038048;stroke-width:1;"/><text fill="#000000" font-family="sans-serif" font-size="14" lengthAdjust="spacing" textLength="251.243" x="760.93" y="181.5619">scope : BMM_PACKAGE_CONTAINER [1]</text><line style="stroke:#181818;stroke-width:0.5;" x1="741.93" x2="1201.3702" y1="188.5999" y2="188.5999"/><ellipse cx="751.93" cy="202.4998" fill="#84BE84" rx="3" ry="3" style="stroke:#038048;stroke-width:1;"/><text fill="#000000" font-family="sans-serif" font-size="14" lengthAdjust="spacing" textLength="374.1766" x="760.93" y="206.3618">package_at_path( a_path : String [1] ) : BMM_PACKAGE [0..1]</text><ellipse cx="751.93" cy="219.2997" fill="#84BE84" rx="3" ry="3" style="stroke:#038048;stroke-width:1;"/><text fill="#000000" font-family="sans-serif" font-size="14" lengthAdjust="spacing" textLength="435.4402" x="760.93" y="223.1617">do_recursive_packages( action : EL_PROCEDURE_AGENT [1] ) : void [1]</text><ellipse cx="751.93" cy="236.0997" fill="#84BE84" rx="3" ry="3" style="stroke:#038048;stroke-width:1;"/><text fill="#000000" font-family="sans-serif" font-size="14" lengthAdjust="spacing" textLength="317.4908" x="760.93" y="239.9616">has_package_path( a_path : String [1] ) : Boolean [1]</text></g><!--class BMM_DECLARATION--><g class="entity" data-entity="BMM_DECLARATION" data-source-line="48" data-uid="ent0009" id="entity_BMM_DECLARATION"><rect fill="#F1F1F1" height="48" rx="2.5" ry="2.5" style="stroke:#181818;stroke-width:0.5;" width="165.1255" x="889.08" y="7"/><ellipse cx="904.08" cy="23" fill="#ADD1B2" rx="11" ry="11" style="stroke:#181818;stroke-width:1;"/><path d="M904.08,29.4219 C905.2519,29.4219 906.4863,29.1563 907.8613,28.5469 L907.3769,27.0313 C906.2831,27.4531 905.2675,27.6406 904.4081,27.6406 C901.6894,27.6406 899.9706,25.7969 899.9706,22.8906 C899.9706,20.1406 901.5331,18.5469 904.2675,18.5469 C905.1894,18.5469 906.205,18.7344 907.3456,19.1563 L907.9238,17.6406 C906.83,17.0625 905.5331,16.7656 904.3456,16.7656 C900.58,16.7656 898.0019,19.4063 898.0019,23.2188 C898.0019,26.8906 900.4863,29.4219 904.08,29.4219 Z " fill="#000000"/><text fill="#000000" font-family="sans-serif" font-size="14" lengthAdjust="spacing" textLength="133.1255" x="918.08" y="28.362">BMM_DECLARATION</text><line style="stroke:#181818;stroke-width:0.5;" x1="890.08" x2="1053.2055" y1="39" y2="39"/><line style="stroke:#181818;stroke-width:0.5;" x1="890.08" x2="1053.2055" y1="47" y2="47"/></g><!--reverse link BMM_PACKAGE_CONTAINER to BMM_MODEL--><g class="link" data-entity-1="BMM_PACKAGE_CONTAINER" data-entity-2="BMM_MODEL" data-source-line="45" data-uid="lnk6" id="link_BMM_PACKAGE_CONTAINER_BMM_MODEL"><path codeLine="45" d="M856.0876,257.2746 C828.8076,275.0446 812.87,285.43 780.46,306.54" fill="none" id="BMM_PACKAGE_CONTAINER-backto-BMM_MODEL" style="stroke:#181818;stroke-width:1;"/><polygon fill="none" points="871.17,247.45,852.8128,252.2471,859.3625,262.302,871.17,247.45" style="stroke:#181818;stroke-width:1;"/></g><!--reverse link BMM_MODEL_METADATA to BMM_MODEL--><g class="link" data-entity-1="BMM_MODEL_METADATA" data-entity-2="BMM_MODEL" data-source-line="46" data-uid="lnk7" id="link_BMM_MODEL_METADATA_BMM_MODEL"><path codeLine="46" d="M473.65,240.1 C473.65,262.65 473.65,274.67 473.65,306.75" fill="none" id="BMM_MODEL_METADATA-backto-BMM_MODEL" style="stroke:#181818;stroke-width:1;"/><polygon fill="none" points="473.65,222.1,467.65,240.1,479.65,240.1,473.65,222.1" style="stroke:#181818;stroke-width:1;"/></g><!--reverse link BMM_PACKAGE_CONTAINER to BMM_PACKAGE--><g class="link" data-entity-1="BMM_PACKAGE_CONTAINER" data-entity-2="BMM_PACKAGE" data-source-line="47" data-uid="lnk8" id="link_BMM_PACKAGE_CONTAINER_BMM_PACKAGE"><path codeLine="47" d="M1005.4732,263.8961 C1031.2332,326.2461 1062.58,402.15 1085.71,458.13" fill="none" id="BMM_PACKAGE_CONTAINER-backto-BMM_PACKAGE" style="stroke:#181818;stroke-width:1;"/><polygon fill="none" points="998.6,247.26,999.9279,266.1871,1011.0186,261.605,998.6,247.26" style="stroke:#181818;stroke-width:1;"/></g><!--reverse link BMM_DECLARATION to BMM_PACKAGE_CONTAINER--><g class="link" data-entity-1="BMM_DECLARATION" data-entity-2="BMM_PACKAGE_CONTAINER" data-source-line="48" data-uid="lnk10" id="link_BMM_DECLARATION_BMM_PACKAGE_CONTAINER"><path codeLine="48" d="M971.65,73.45 C971.65,89.51 971.65,93.65 971.65,114.81" fill="none" id="BMM_DECLARATION-backto-BMM_PACKAGE_CONTAINER" style="stroke:#181818;stroke-width:1;"/><polygon fill="none" points="971.65,55.45,965.65,73.45,977.65,73.45,971.65,55.45" style="stroke:#181818;stroke-width:1;"/></g></g></svg>
