<svg xmlns="http://www.w3.org/2000/svg" xmlns:xlink="http://www.w3.org/1999/xlink" contentStyleType="text/css" data-diagram-type="CLASS" height="206px" preserveAspectRatio="none" style="width:264px;height:206px;background:#FFFFFF;" version="1.1" viewBox="0 0 264 206" width="264px" zoomAndPan="magnify"><defs/><g><!--class EL_CONDITIONAL_EXPRESSION--><g class="entity" data-entity="EL_CONDITIONAL_EXPRESSION" data-source-line="2" data-uid="ent0002" id="entity_EL_CONDITIONAL_EXPRESSION"><rect fill="#F1F1F1" height="64.7999" rx="2.5" ry="2.5" style="stroke:#181818;stroke-width:0.5;" width="246.5612" x="7" y="134.8"/><ellipse cx="22" cy="150.8" fill="#ADD1B2" rx="11" ry="11" style="stroke:#181818;stroke-width:1;"/><path d="M22,157.2219 C23.1719,157.2219 24.4063,156.9562 25.7813,156.3469 L25.2969,154.8312 C24.2031,155.2531 23.1875,155.4406 22.3281,155.4406 C19.6094,155.4406 17.8906,153.5969 17.8906,150.6906 C17.8906,147.9406 19.4531,146.3469 22.1875,146.3469 C23.1094,146.3469 24.125,146.5344 25.2656,146.9562 L25.8438,145.4406 C24.75,144.8625 23.4531,144.5656 22.2656,144.5656 C18.5,144.5656 15.9219,147.2062 15.9219,151.0187 C15.9219,154.6906 18.4063,157.2219 22,157.2219 Z " fill="#000000"/><text fill="#000000" font-family="sans-serif" font-size="14" lengthAdjust="spacing" textLength="203.7692" x="36" y="156.162">EL_CONDITIONAL_EXPRESSION</text><rect fill="#FFFFFF" height="16.4001" style="stroke:#181818;stroke-width:1;stroke-dasharray:2,2;" width="8.7921" x="247.7692" y="131.8"/><text fill="#000000" font-family="sans-serif" font-size="12" font-style="italic" lengthAdjust="spacing" textLength="6.7921" x="248.7692" y="144.5961">T</text><line style="stroke:#181818;stroke-width:0.5;" x1="8" x2="252.5612" y1="166.8" y2="166.8"/><ellipse cx="18" cy="180.7" fill="none" rx="3" ry="3" style="stroke:#038048;stroke-width:1;"/><text fill="#000000" font-family="sans-serif" font-size="14" lengthAdjust="spacing" textLength="191.0152" x="27" y="184.5619">condition : EL_EXPRESSION [1]</text><line style="stroke:#181818;stroke-width:0.5;" x1="8" x2="252.5612" y1="191.5999" y2="191.5999"/></g><!--class EL_DECISION_BRANCH--><g class="entity" data-entity="EL_DECISION_BRANCH" data-source-line="6" data-uid="ent0003" id="entity_EL_DECISION_BRANCH"><rect fill="#F5F5F5" height="64.7999" rx="2.5" ry="2.5" style="stroke:#808080;stroke-width:1;stroke-dasharray:1,3;" width="191.4575" x="34.55" y="10"/><ellipse cx="49.55" cy="26" fill="#A9DCDF" rx="11" ry="11" style="stroke:#181818;stroke-width:1;"/><path d="M44.0656,31.5 L46.0969,31.5 L50.1438,20.1563 L49.2375,20.1563 L53.0656,31.5 L55.2063,31.5 L50.8781,19.1719 L48.6594,19.1719 L44.0656,31.5 Z M46.3938,28 L52.8313,28 L52.8313,26.25 L46.3938,26.25 L46.3938,28 Z " fill="#000000"/><text fill="#808080" font-family="sans-serif" font-size="14" font-style="italic" lengthAdjust="spacing" textLength="148.6654" x="63.55" y="31.362">EL_DECISION_BRANCH</text><rect fill="#FFFFFF" height="16.4001" style="stroke:#181818;stroke-width:1;stroke-dasharray:2,2;" width="8.7921" x="220.2154" y="7"/><text fill="#000000" font-family="sans-serif" font-size="12" font-style="italic" lengthAdjust="spacing" textLength="6.7921" x="221.2154" y="19.7961">T</text><line style="stroke:#808080;stroke-width:1;stroke-dasharray:1,3;" x1="35.55" x2="225.0075" y1="42" y2="42"/><ellipse cx="45.55" cy="55.9" fill="none" rx="3" ry="3" style="stroke:#038048;stroke-width:1;"/><text fill="#808080" font-family="sans-serif" font-size="14" lengthAdjust="spacing" textLength="72.3937" x="54.55" y="59.7619">result : T [1]</text><line style="stroke:#808080;stroke-width:1;stroke-dasharray:1,3;" x1="35.55" x2="225.0075" y1="66.7999" y2="66.7999"/></g><!--reverse link EL_DECISION_BRANCH to EL_CONDITIONAL_EXPRESSION--><g class="link" data-entity-1="EL_DECISION_BRANCH" data-entity-2="EL_CONDITIONAL_EXPRESSION" data-source-line="10" data-uid="lnk4" id="link_EL_DECISION_BRANCH_EL_CONDITIONAL_EXPRESSION"><path codeLine="10" d="M130.28,93.02 C130.28,111.36 130.28,116.37 130.28,134.68" fill="none" id="EL_DECISION_BRANCH-backto-EL_CONDITIONAL_EXPRESSION" style="stroke:#181818;stroke-width:1;"/><polygon fill="none" points="130.28,75.02,124.28,93.02,136.28,93.02,130.28,75.02" style="stroke:#181818;stroke-width:1;"/></g></g></svg>
