<svg xmlns="http://www.w3.org/2000/svg" xmlns:xlink="http://www.w3.org/1999/xlink" contentStyleType="text/css" data-diagram-type="CLASS" height="328px" preserveAspectRatio="none" style="width:275px;height:328px;background:#FFFFFF;" version="1.1" viewBox="0 0 275 328" width="275px" zoomAndPan="magnify"><defs/><g><!--class EL_BOOLEAN_EXPRESSION--><g class="entity" data-entity="EL_BOOLEAN_EXPRESSION" data-source-line="2" data-uid="ent0002" id="entity_EL_BOOLEAN_EXPRESSION"><rect fill="#F1F1F1" height="48" rx="2.5" ry="2.5" style="stroke:#181818;stroke-width:0.5;" width="207.8813" x="33.95" y="273.4"/><ellipse cx="48.95" cy="289.4" fill="#ADD1B2" rx="11" ry="11" style="stroke:#181818;stroke-width:1;"/><path d="M48.95,295.8219 C50.1219,295.8219 51.3563,295.5563 52.7313,294.9469 L52.2469,293.4313 C51.1531,293.8531 50.1375,294.0406 49.2781,294.0406 C46.5594,294.0406 44.8406,292.1969 44.8406,289.2906 C44.8406,286.5406 46.4031,284.9469 49.1375,284.9469 C50.0594,284.9469 51.075,285.1344 52.2156,285.5563 L52.7938,284.0406 C51.7,283.4625 50.4031,283.1656 49.2156,283.1656 C45.45,283.1656 42.8719,285.8063 42.8719,289.6188 C42.8719,293.2906 45.3563,295.8219 48.95,295.8219 Z " fill="#000000"/><text fill="#000000" font-family="sans-serif" font-size="14" lengthAdjust="spacing" textLength="175.8813" x="62.95" y="294.762">EL_BOOLEAN_EXPRESSION</text><line style="stroke:#181818;stroke-width:0.5;" x1="34.95" x2="240.8313" y1="305.4" y2="305.4"/><line style="stroke:#181818;stroke-width:0.5;" x1="34.95" x2="240.8313" y1="313.4" y2="313.4"/></g><!--class EL_CONSTRAINED--><g class="entity" data-entity="EL_CONSTRAINED" data-source-line="5" data-uid="ent0003" id="entity_EL_CONSTRAINED"><rect fill="#F5F5F5" height="64.7999" rx="2.5" ry="2.5" style="stroke:#808080;stroke-width:1;stroke-dasharray:1,3;" width="261.773" x="7" y="148.6"/><ellipse cx="74.6828" cy="164.6" fill="#A9DCDF" rx="11" ry="11" style="stroke:#181818;stroke-width:1;"/><path d="M69.1984,170.1 L71.2296,170.1 L75.2765,158.7562 L74.3703,158.7562 L78.1984,170.1 L80.339,170.1 L76.0109,157.7719 L73.7921,157.7719 L69.1984,170.1 Z M71.5265,166.6 L77.964,166.6 L77.964,164.85 L71.5265,164.85 L71.5265,166.6 Z " fill="#000000"/><text fill="#808080" font-family="sans-serif" font-size="14" font-style="italic" lengthAdjust="spacing" textLength="117.9075" x="95.1828" y="169.962">EL_CONSTRAINED</text><line style="stroke:#808080;stroke-width:1;stroke-dasharray:1,3;" x1="8" x2="267.773" y1="180.6" y2="180.6"/><ellipse cx="18" cy="194.5" fill="none" rx="3" ry="3" style="stroke:#038048;stroke-width:1;"/><text fill="#808080" font-family="sans-serif" font-size="14" lengthAdjust="spacing" textLength="235.773" x="27" y="198.3619">base_expression : EL_EXPRESSION [1]</text><line style="stroke:#808080;stroke-width:1;stroke-dasharray:1,3;" x1="8" x2="267.773" y1="205.3999" y2="205.3999"/></g><!--class EL_EXPRESSION--><g class="entity" data-entity="EL_EXPRESSION" data-source-line="9" data-uid="ent0004" id="entity_EL_EXPRESSION"><rect fill="#F5F5F5" height="81.5999" rx="2.5" ry="2.5" style="stroke:#808080;stroke-width:1;stroke-dasharray:1,3;" width="194.6573" x="40.56" y="7"/><ellipse cx="81.8399" cy="23" fill="#A9DCDF" rx="11" ry="11" style="stroke:#181818;stroke-width:1;"/><path d="M76.3555,28.5 L78.3868,28.5 L82.4336,17.1563 L81.5274,17.1563 L85.3555,28.5 L87.4961,28.5 L83.168,16.1719 L80.9493,16.1719 L76.3555,28.5 Z M78.6836,25 L85.1211,25 L85.1211,23.25 L78.6836,23.25 L78.6836,25 Z " fill="#000000"/><text fill="#808080" font-family="sans-serif" font-size="14" font-style="italic" lengthAdjust="spacing" textLength="104.2576" x="101.6799" y="28.362">EL_EXPRESSION</text><line style="stroke:#808080;stroke-width:1;stroke-dasharray:1,3;" x1="41.56" x2="234.2173" y1="39" y2="39"/><line style="stroke:#808080;stroke-width:1;stroke-dasharray:1,3;" x1="41.56" x2="234.2173" y1="47" y2="47"/><ellipse cx="51.56" cy="60.9" fill="#84BE84" rx="3" ry="3" style="stroke:#038048;stroke-width:1;"/><text fill="#808080" font-family="sans-serif" font-size="14" font-style="italic" lengthAdjust="spacing" textLength="168.6573" x="60.56" y="64.7619">eval_type() : BMM_TYPE [1]</text><ellipse cx="51.56" cy="77.6999" fill="#84BE84" rx="3" ry="3" style="stroke:#038048;stroke-width:1;"/><text fill="#808080" font-family="sans-serif" font-size="14" lengthAdjust="spacing" textLength="155.2454" x="60.56" y="81.5619">is_boolean() : Boolean [1]</text></g><!--reverse link EL_EXPRESSION to EL_CONSTRAINED--><g class="link" data-entity-1="EL_EXPRESSION" data-entity-2="EL_CONSTRAINED" data-source-line="14" data-uid="lnk5" id="link_EL_EXPRESSION_EL_CONSTRAINED"><path codeLine="14" d="M137.89,106.88 C137.89,126.02 137.89,130.59 137.89,148.49" fill="none" id="EL_EXPRESSION-backto-EL_CONSTRAINED" style="stroke:#181818;stroke-width:1;"/><polygon fill="none" points="137.89,88.88,131.89,106.88,143.89,106.88,137.89,88.88" style="stroke:#181818;stroke-width:1;"/></g><!--reverse link EL_CONSTRAINED to EL_BOOLEAN_EXPRESSION--><g class="link" data-entity-1="EL_CONSTRAINED" data-entity-2="EL_BOOLEAN_EXPRESSION" data-source-line="16" data-uid="lnk6" id="link_EL_CONSTRAINED_EL_BOOLEAN_EXPRESSION"><path codeLine="16" d="M137.89,231.87 C137.89,250.64 137.89,255.98 137.89,273.05" fill="none" id="EL_CONSTRAINED-backto-EL_BOOLEAN_EXPRESSION" style="stroke:#181818;stroke-width:1;"/><polygon fill="none" points="137.89,213.87,131.89,231.87,143.89,231.87,137.89,213.87" style="stroke:#181818;stroke-width:1;"/></g></g></svg>
