<svg xmlns="http://www.w3.org/2000/svg" xmlns:xlink="http://www.w3.org/1999/xlink" contentStyleType="text/css" data-diagram-type="CLASS" height="152px" preserveAspectRatio="none" style="width:298px;height:152px;background:#FFFFFF;" version="1.1" viewBox="0 0 298 152" width="298px" zoomAndPan="magnify"><defs/><g><!--class BMM_MODEL_ELEMENT--><g class="entity" data-entity="BMM_MODEL_ELEMENT" data-source-line="2" data-uid="ent0002" id="entity_BMM_MODEL_ELEMENT"><rect fill="#F1F1F1" height="131.9996" rx="2.5" ry="2.5" style="stroke:#181818;stroke-width:0.5;" width="277.285" x="7" y="7"/><ellipse cx="62.9858" cy="23" fill="#A9DCDF" rx="11" ry="11" style="stroke:#181818;stroke-width:1;"/><path d="M57.5015,28.5 L59.5327,28.5 L63.5796,17.1563 L62.6733,17.1563 L66.5015,28.5 L68.6421,28.5 L64.314,16.1719 L62.0952,16.1719 L57.5015,28.5 Z M59.8296,25 L66.2671,25 L66.2671,23.25 L59.8296,23.25 L59.8296,25 Z " fill="#000000"/><text fill="#000000" font-family="sans-serif" font-size="14" font-style="italic" lengthAdjust="spacing" textLength="156.8134" x="83.4858" y="28.362">BMM_MODEL_ELEMENT</text><line style="stroke:#181818;stroke-width:0.5;" x1="8" x2="283.285" y1="39" y2="39"/><ellipse cx="18" cy="52.9" fill="none" rx="3" ry="3" style="stroke:#038048;stroke-width:1;"/><text fill="#000000" font-family="sans-serif" font-size="14" lengthAdjust="spacing" textLength="100.8836" x="27" y="56.7619">name : String [1]</text><ellipse cx="18" cy="69.6999" fill="none" rx="3" ry="3" style="stroke:#038048;stroke-width:1;"/><text fill="#000000" font-family="sans-serif" font-size="14" lengthAdjust="spacing" textLength="251.285" x="27" y="73.5619">documentation : Hash&lt;String,Any&gt; [0..1]</text><ellipse cx="18" cy="86.4998" fill="none" rx="3" ry="3" style="stroke:#038048;stroke-width:1;"/><text fill="#000000" font-family="sans-serif" font-size="14" lengthAdjust="spacing" textLength="221.7171" x="27" y="90.3618">scope : BMM_MODEL_ELEMENT [1]</text><ellipse cx="18" cy="103.2997" fill="none" rx="3" ry="3" style="stroke:#038048;stroke-width:1;"/><text fill="#000000" font-family="sans-serif" font-size="14" lengthAdjust="spacing" textLength="223.3411" x="27" y="107.1617">extensions : Hash&lt;String,Any&gt; [0..1]</text><line style="stroke:#181818;stroke-width:0.5;" x1="8" x2="283.285" y1="114.1997" y2="114.1997"/><ellipse cx="18" cy="128.0997" fill="#84BE84" rx="3" ry="3" style="stroke:#038048;stroke-width:1;"/><text fill="#000000" font-family="sans-serif" font-size="14" lengthAdjust="spacing" textLength="174.5653" x="27" y="131.9616">is_root_scope() : Boolean [1]</text></g></g></svg>
