<svg xmlns="http://www.w3.org/2000/svg" xmlns:xlink="http://www.w3.org/1999/xlink" contentStyleType="text/css" data-diagram-type="CLASS" height="561px" preserveAspectRatio="none" style="width:272px;height:561px;background:#FFFFFF;" version="1.1" viewBox="0 0 272 561" width="272px" zoomAndPan="magnify"><defs/><g><!--class EL_DEFINED--><g class="entity" data-entity="EL_DEFINED" data-source-line="2" data-uid="ent0002" id="entity_EL_DEFINED"><rect fill="#F1F1F1" height="48" rx="2.5" ry="2.5" style="stroke:#181818;stroke-width:0.5;" width="112.6397" x="80.13" y="506.2"/><ellipse cx="95.13" cy="522.2" fill="#ADD1B2" rx="11" ry="11" style="stroke:#181818;stroke-width:1;"/><path d="M95.13,528.6219 C96.3019,528.6219 97.5363,528.3563 98.9113,527.7469 L98.4269,526.2313 C97.3331,526.6531 96.3175,526.8406 95.4581,526.8406 C92.7394,526.8406 91.0206,524.9969 91.0206,522.0906 C91.0206,519.3406 92.5831,517.7469 95.3175,517.7469 C96.2394,517.7469 97.255,517.9344 98.3956,518.3563 L98.9738,516.8406 C97.88,516.2625 96.5831,515.9656 95.3956,515.9656 C91.63,515.9656 89.0519,518.6063 89.0519,522.4188 C89.0519,526.0906 91.5363,528.6219 95.13,528.6219 Z " fill="#000000"/><text fill="#000000" font-family="sans-serif" font-size="14" lengthAdjust="spacing" textLength="80.6397" x="109.13" y="527.562">EL_DEFINED</text><line style="stroke:#181818;stroke-width:0.5;" x1="81.13" x2="191.7697" y1="538.2" y2="538.2"/><line style="stroke:#181818;stroke-width:0.5;" x1="81.13" x2="191.7697" y1="546.2" y2="546.2"/></g><!--class EL_PREDICATE--><g class="entity" data-entity="EL_PREDICATE" data-source-line="5" data-uid="ent0003" id="entity_EL_PREDICATE"><rect fill="#F5F5F5" height="81.5999" rx="2.5" ry="2.5" style="stroke:#808080;stroke-width:1;stroke-dasharray:1,3;" width="258.903" x="7" y="364.6"/><ellipse cx="84.7207" cy="380.6" fill="#A9DCDF" rx="11" ry="11" style="stroke:#181818;stroke-width:1;"/><path d="M79.2363,386.1 L81.2676,386.1 L85.3145,374.7563 L84.4082,374.7563 L88.2363,386.1 L90.377,386.1 L86.0488,373.7719 L83.8301,373.7719 L79.2363,386.1 Z M81.5645,382.6 L88.002,382.6 L88.002,380.85 L81.5645,380.85 L81.5645,382.6 Z " fill="#000000"/><text fill="#808080" font-family="sans-serif" font-size="14" font-style="italic" lengthAdjust="spacing" textLength="94.9616" x="105.2207" y="385.962">EL_PREDICATE</text><line style="stroke:#808080;stroke-width:1;stroke-dasharray:1,3;" x1="8" x2="264.903" y1="396.6" y2="396.6"/><ellipse cx="18" cy="410.5" fill="none" rx="3" ry="3" style="stroke:#038048;stroke-width:1;"/><text fill="#808080" font-family="sans-serif" font-size="14" lengthAdjust="spacing" textLength="232.903" x="27" y="414.3619">operand : EL_VALUE_GENERATOR [1]</text><line style="stroke:#808080;stroke-width:1;stroke-dasharray:1,3;" x1="8" x2="264.903" y1="421.3999" y2="421.3999"/><ellipse cx="18" cy="435.2999" fill="#84BE84" rx="3" ry="3" style="stroke:#038048;stroke-width:1;"/><text fill="#808080" font-family="sans-serif" font-size="14" lengthAdjust="spacing" textLength="222.6831" x="27" y="439.1619">eval_type() : BMM_SIMPLE_TYPE [1]</text></g><!--class EL_SIMPLE--><g class="entity" data-entity="EL_SIMPLE" data-source-line="10" data-uid="ent0004" id="entity_EL_SIMPLE"><rect fill="#F5F5F5" height="48" rx="2.5" ry="2.5" style="stroke:#808080;stroke-width:1;stroke-dasharray:1,3;" width="101.2857" x="85.81" y="256.6"/><ellipse cx="100.81" cy="272.6" fill="#A9DCDF" rx="11" ry="11" style="stroke:#181818;stroke-width:1;"/><path d="M95.3256,278.1 L97.3569,278.1 L101.4038,266.7563 L100.4975,266.7563 L104.3256,278.1 L106.4663,278.1 L102.1381,265.7719 L99.9194,265.7719 L95.3256,278.1 Z M97.6538,274.6 L104.0913,274.6 L104.0913,272.85 L97.6538,272.85 L97.6538,274.6 Z " fill="#000000"/><text fill="#808080" font-family="sans-serif" font-size="14" font-style="italic" lengthAdjust="spacing" textLength="69.2857" x="114.81" y="277.962">EL_SIMPLE</text><line style="stroke:#808080;stroke-width:1;stroke-dasharray:1,3;" x1="86.81" x2="186.0957" y1="288.6" y2="288.6"/><line style="stroke:#808080;stroke-width:1;stroke-dasharray:1,3;" x1="86.81" x2="186.0957" y1="296.6" y2="296.6"/></g><!--class EL_TERMINAL--><g class="entity" data-entity="EL_TERMINAL" data-source-line="13" data-uid="ent0005" id="entity_EL_TERMINAL"><rect fill="#F5F5F5" height="48" rx="2.5" ry="2.5" style="stroke:#808080;stroke-width:1;stroke-dasharray:1,3;" width="121.1516" x="75.88" y="148.6"/><ellipse cx="90.88" cy="164.6" fill="#A9DCDF" rx="11" ry="11" style="stroke:#181818;stroke-width:1;"/><path d="M85.3956,170.1 L87.4269,170.1 L91.4738,158.7563 L90.5675,158.7563 L94.3956,170.1 L96.5363,170.1 L92.2081,157.7719 L89.9894,157.7719 L85.3956,170.1 Z M87.7238,166.6 L94.1613,166.6 L94.1613,164.85 L87.7238,164.85 L87.7238,166.6 Z " fill="#000000"/><text fill="#808080" font-family="sans-serif" font-size="14" font-style="italic" lengthAdjust="spacing" textLength="89.1516" x="104.88" y="169.962">EL_TERMINAL</text><line style="stroke:#808080;stroke-width:1;stroke-dasharray:1,3;" x1="76.88" x2="196.0316" y1="180.6" y2="180.6"/><line style="stroke:#808080;stroke-width:1;stroke-dasharray:1,3;" x1="76.88" x2="196.0316" y1="188.6" y2="188.6"/></g><!--class EL_EXPRESSION--><g class="entity" data-entity="EL_EXPRESSION" data-source-line="16" data-uid="ent0006" id="entity_EL_EXPRESSION"><rect fill="#F5F5F5" height="81.5999" rx="2.5" ry="2.5" style="stroke:#808080;stroke-width:1;stroke-dasharray:1,3;" width="194.6573" x="39.12" y="7"/><ellipse cx="80.3999" cy="23" fill="#A9DCDF" rx="11" ry="11" style="stroke:#181818;stroke-width:1;"/><path d="M74.9155,28.5 L76.9468,28.5 L80.9936,17.1563 L80.0874,17.1563 L83.9155,28.5 L86.0561,28.5 L81.728,16.1719 L79.5093,16.1719 L74.9155,28.5 Z M77.2436,25 L83.6811,25 L83.6811,23.25 L77.2436,23.25 L77.2436,25 Z " fill="#000000"/><text fill="#808080" font-family="sans-serif" font-size="14" font-style="italic" lengthAdjust="spacing" textLength="104.2576" x="100.2399" y="28.362">EL_EXPRESSION</text><line style="stroke:#808080;stroke-width:1;stroke-dasharray:1,3;" x1="40.12" x2="232.7773" y1="39" y2="39"/><line style="stroke:#808080;stroke-width:1;stroke-dasharray:1,3;" x1="40.12" x2="232.7773" y1="47" y2="47"/><ellipse cx="50.12" cy="60.9" fill="#84BE84" rx="3" ry="3" style="stroke:#038048;stroke-width:1;"/><text fill="#808080" font-family="sans-serif" font-size="14" font-style="italic" lengthAdjust="spacing" textLength="168.6573" x="59.12" y="64.7619">eval_type() : BMM_TYPE [1]</text><ellipse cx="50.12" cy="77.6999" fill="#84BE84" rx="3" ry="3" style="stroke:#038048;stroke-width:1;"/><text fill="#808080" font-family="sans-serif" font-size="14" lengthAdjust="spacing" textLength="155.2454" x="59.12" y="81.5619">is_boolean() : Boolean [1]</text></g><!--reverse link EL_EXPRESSION to EL_TERMINAL--><g class="link" data-entity-1="EL_EXPRESSION" data-entity-2="EL_TERMINAL" data-source-line="21" data-uid="lnk7" id="link_EL_EXPRESSION_EL_TERMINAL"><path codeLine="21" d="M136.45,107.01 C136.45,126.6 136.45,131.46 136.45,148.16" fill="none" id="EL_EXPRESSION-backto-EL_TERMINAL" style="stroke:#181818;stroke-width:1;"/><polygon fill="none" points="136.45,89.01,130.45,107.01,142.45,107.01,136.45,89.01" style="stroke:#181818;stroke-width:1;"/></g><!--reverse link EL_TERMINAL to EL_SIMPLE--><g class="link" data-entity-1="EL_TERMINAL" data-entity-2="EL_SIMPLE" data-source-line="23" data-uid="lnk8" id="link_EL_TERMINAL_EL_SIMPLE"><path codeLine="23" d="M136.45,214.86 C136.45,232.54 136.45,238.73 136.45,256.39" fill="none" id="EL_TERMINAL-backto-EL_SIMPLE" style="stroke:#181818;stroke-width:1;"/><polygon fill="none" points="136.45,196.86,130.45,214.86,142.45,214.86,136.45,196.86" style="stroke:#181818;stroke-width:1;"/></g><!--reverse link EL_SIMPLE to EL_PREDICATE--><g class="link" data-entity-1="EL_SIMPLE" data-entity-2="EL_PREDICATE" data-source-line="25" data-uid="lnk9" id="link_EL_SIMPLE_EL_PREDICATE"><path codeLine="25" d="M136.45,322.99 C136.45,339.69 136.45,344.58 136.45,364.18" fill="none" id="EL_SIMPLE-backto-EL_PREDICATE" style="stroke:#181818;stroke-width:1;"/><polygon fill="none" points="136.45,304.99,130.45,322.99,142.45,322.99,136.45,304.99" style="stroke:#181818;stroke-width:1;"/></g><!--reverse link EL_PREDICATE to EL_DEFINED--><g class="link" data-entity-1="EL_PREDICATE" data-entity-2="EL_DEFINED" data-source-line="27" data-uid="lnk10" id="link_EL_PREDICATE_EL_DEFINED"><path codeLine="27" d="M136.45,464.61 C136.45,484.19 136.45,489.06 136.45,505.76" fill="none" id="EL_PREDICATE-backto-EL_DEFINED" style="stroke:#181818;stroke-width:1;"/><polygon fill="none" points="136.45,446.61,130.45,464.61,142.45,464.61,136.45,446.61" style="stroke:#181818;stroke-width:1;"/></g></g></svg>
