<svg xmlns="http://www.w3.org/2000/svg" xmlns:xlink="http://www.w3.org/1999/xlink" contentStyleType="text/css" data-diagram-type="CLASS" height="240px" preserveAspectRatio="none" style="width:201px;height:240px;background:#FFFFFF;" version="1.1" viewBox="0 0 201 240" width="201px" zoomAndPan="magnify"><defs/><g><!--class BMM_INTERVAL_VALUE--><g class="entity" data-entity="BMM_INTERVAL_VALUE" data-source-line="2" data-uid="ent0002" id="entity_BMM_INTERVAL_VALUE"><rect fill="#F1F1F1" height="48" rx="2.5" ry="2.5" style="stroke:#181818;stroke-width:0.5;" width="184.0394" x="7" y="185.2"/><ellipse cx="22" cy="201.2" fill="#ADD1B2" rx="11" ry="11" style="stroke:#181818;stroke-width:1;"/><path d="M22,207.6219 C23.1719,207.6219 24.4063,207.3563 25.7813,206.7469 L25.2969,205.2313 C24.2031,205.6531 23.1875,205.8406 22.3281,205.8406 C19.6094,205.8406 17.8906,203.9969 17.8906,201.0906 C17.8906,198.3406 19.4531,196.7469 22.1875,196.7469 C23.1094,196.7469 24.125,196.9344 25.2656,197.3563 L25.8438,195.8406 C24.75,195.2625 23.4531,194.9656 22.2656,194.9656 C18.5,194.9656 15.9219,197.6063 15.9219,201.4188 C15.9219,205.0906 18.4063,207.6219 22,207.6219 Z " fill="#000000"/><text fill="#000000" font-family="sans-serif" font-size="14" lengthAdjust="spacing" textLength="152.0394" x="36" y="206.562">BMM_INTERVAL_VALUE</text><line style="stroke:#181818;stroke-width:0.5;" x1="8" x2="190.0394" y1="217.2" y2="217.2"/><line style="stroke:#181818;stroke-width:0.5;" x1="8" x2="190.0394" y1="225.2" y2="225.2"/></g><!--class BMM_LITERAL_VALUE--><g class="entity" data-entity="BMM_LITERAL_VALUE" data-source-line="5" data-uid="ent0003" id="entity_BMM_LITERAL_VALUE"><rect fill="#F5F5F5" height="115.1997" rx="2.5" ry="2.5" style="stroke:#808080;stroke-width:1;stroke-dasharray:1,3;" width="182.9735" x="7.53" y="10"/><ellipse cx="22.53" cy="26" fill="#A9DCDF" rx="11" ry="11" style="stroke:#181818;stroke-width:1;"/><path d="M17.0456,31.5 L19.0769,31.5 L23.1238,20.1563 L22.2175,20.1563 L26.0456,31.5 L28.1863,31.5 L23.8581,19.1719 L21.6394,19.1719 L17.0456,31.5 Z M19.3738,28 L25.8113,28 L25.8113,26.25 L19.3738,26.25 L19.3738,28 Z " fill="#000000"/><text fill="#808080" font-family="sans-serif" font-size="14" font-style="italic" lengthAdjust="spacing" textLength="140.1814" x="36.53" y="31.362">BMM_LITERAL_VALUE</text><rect fill="#FFFFFF" height="16.4001" style="stroke:#181818;stroke-width:1;stroke-dasharray:2,2;" width="8.7921" x="184.7114" y="7"/><text fill="#000000" font-family="sans-serif" font-size="12" font-style="italic" lengthAdjust="spacing" textLength="6.7921" x="185.7114" y="19.7961">T</text><line style="stroke:#808080;stroke-width:1;stroke-dasharray:1,3;" x1="8.53" x2="189.5035" y1="42" y2="42"/><ellipse cx="18.53" cy="55.9" fill="none" rx="3" ry="3" style="stroke:#038048;stroke-width:1;"/><text fill="#808080" font-family="sans-serif" font-size="14" lengthAdjust="spacing" textLength="142.0854" x="27.53" y="59.7619">value_literal : String [1]</text><ellipse cx="18.53" cy="72.6999" fill="none" rx="3" ry="3" style="stroke:#038048;stroke-width:1;"/><text fill="#808080" font-family="sans-serif" font-size="14" lengthAdjust="spacing" textLength="100.7156" x="27.53" y="76.5619">value : Any [0..1]</text><ellipse cx="18.53" cy="89.4998" fill="none" rx="3" ry="3" style="stroke:#038048;stroke-width:1;"/><text fill="#808080" font-family="sans-serif" font-size="14" lengthAdjust="spacing" textLength="121.6875" x="27.53" y="93.3618">syntax : String [0..1]</text><ellipse cx="18.53" cy="106.2997" fill="none" rx="3" ry="3" style="stroke:#038048;stroke-width:1;"/><text fill="#808080" font-family="sans-serif" font-size="14" lengthAdjust="spacing" textLength="63.6297" x="27.53" y="110.1617">type : T [1]</text><line style="stroke:#808080;stroke-width:1;stroke-dasharray:1,3;" x1="8.53" x2="189.5035" y1="117.1997" y2="117.1997"/></g><!--reverse link BMM_LITERAL_VALUE to BMM_INTERVAL_VALUE--><g class="link" data-entity-1="BMM_LITERAL_VALUE" data-entity-2="BMM_INTERVAL_VALUE" data-source-line="12" data-uid="lnk4" id="link_BMM_LITERAL_VALUE_BMM_INTERVAL_VALUE"><path codeLine="12" d="M99.02,143.38 C99.02,164.21 99.02,168.65 99.02,184.91" fill="none" id="BMM_LITERAL_VALUE-backto-BMM_INTERVAL_VALUE" style="stroke:#181818;stroke-width:1;"/><polygon fill="none" points="99.02,125.38,93.02,143.38,105.02,143.38,99.02,125.38" style="stroke:#181818;stroke-width:1;"/></g></g></svg>
