<svg xmlns="http://www.w3.org/2000/svg" xmlns:xlink="http://www.w3.org/1999/xlink" contentStyleType="text/css" data-diagram-type="CLASS" height="1007px" preserveAspectRatio="none" style="width:364px;height:1007px;background:#FFFFFF;" version="1.1" viewBox="0 0 364 1007" width="364px" zoomAndPan="magnify"><defs/><g><!--class BMM_SIMPLE_CLASS--><g class="entity" data-entity="BMM_SIMPLE_CLASS" data-source-line="2" data-uid="ent0002" id="entity_BMM_SIMPLE_CLASS"><rect fill="#F1F1F1" height="64.7999" rx="2.5" ry="2.5" style="stroke:#181818;stroke-width:0.5;" width="216.5112" x="73.86" y="935.8"/><ellipse cx="111.4733" cy="951.8" fill="#ADD1B2" rx="11" ry="11" style="stroke:#181818;stroke-width:1;"/><path d="M111.4733,958.2219 C112.6452,958.2219 113.8795,957.9563 115.2545,957.3469 L114.7702,955.8313 C113.6764,956.2531 112.6608,956.4406 111.8014,956.4406 C109.0827,956.4406 107.3639,954.5969 107.3639,951.6906 C107.3639,948.9406 108.9264,947.3469 111.6608,947.3469 C112.5827,947.3469 113.5983,947.5344 114.7389,947.9563 L115.317,946.4406 C114.2233,945.8625 112.9264,945.5656 111.7389,945.5656 C107.9733,945.5656 105.3952,948.2063 105.3952,952.0188 C105.3952,955.6906 107.8795,958.2219 111.4733,958.2219 Z " fill="#000000"/><text fill="#000000" font-family="sans-serif" font-size="14" lengthAdjust="spacing" textLength="134.2595" x="130.4985" y="957.162">BMM_SIMPLE_CLASS</text><line style="stroke:#181818;stroke-width:0.5;" x1="74.86" x2="289.3712" y1="967.8" y2="967.8"/><line style="stroke:#181818;stroke-width:0.5;" x1="74.86" x2="289.3712" y1="975.8" y2="975.8"/><ellipse cx="84.86" cy="989.7" fill="#84BE84" rx="3" ry="3" style="stroke:#038048;stroke-width:1;"/><text fill="#000000" font-family="sans-serif" font-size="14" lengthAdjust="spacing" textLength="190.5112" x="93.86" y="993.5619">type() : BMM_SIMPLE_TYPE [1]</text></g><!--class BMM_CLASS--><g class="entity" data-entity="BMM_CLASS" data-source-line="6" data-uid="ent0003" id="entity_BMM_CLASS"><rect fill="#F5F5F5" height="518.3979" rx="2.5" ry="2.5" style="stroke:#808080;stroke-width:1;stroke-dasharray:1,3;" width="350.2247" x="7" y="357.4"/><ellipse cx="137.7455" cy="373.4" fill="#A9DCDF" rx="11" ry="11" style="stroke:#181818;stroke-width:1;"/><path d="M132.2611,378.9 L134.2924,378.9 L138.3393,367.5563 L137.433,367.5563 L141.2611,378.9 L143.4018,378.9 L139.0736,366.5719 L136.8549,366.5719 L132.2611,378.9 Z M134.5893,375.4 L141.0268,375.4 L141.0268,373.65 L134.5893,373.65 L134.5893,375.4 Z " fill="#000000"/><text fill="#808080" font-family="sans-serif" font-size="14" font-style="italic" lengthAdjust="spacing" textLength="80.2337" x="158.2455" y="378.762">BMM_CLASS</text><line style="stroke:#808080;stroke-width:1;stroke-dasharray:1,3;" x1="8" x2="356.2247" y1="389.4" y2="389.4"/><ellipse cx="18" cy="403.3" fill="none" rx="3" ry="3" style="stroke:#038048;stroke-width:1;"/><text fill="#808080" font-family="sans-serif" font-size="14" lengthAdjust="spacing" textLength="320.7947" x="27" y="407.1619">ancestors : Hash&lt;String,BMM_MODEL_TYPE&gt; [0..1]</text><ellipse cx="18" cy="420.0999" fill="none" rx="3" ry="3" style="stroke:#038048;stroke-width:1;"/><text fill="#808080" font-family="sans-serif" font-size="14" lengthAdjust="spacing" textLength="181.1453" x="27" y="423.9619">package : BMM_PACKAGE [1]</text><ellipse cx="18" cy="436.8998" fill="none" rx="3" ry="3" style="stroke:#038048;stroke-width:1;"/><text fill="#808080" font-family="sans-serif" font-size="14" lengthAdjust="spacing" textLength="306.1368" x="27" y="440.7618">properties : Hash&lt;String,BMM_PROPERTY&gt; [0..1]</text><ellipse cx="18" cy="453.6997" fill="none" rx="3" ry="3" style="stroke:#038048;stroke-width:1;"/><text fill="#808080" font-family="sans-serif" font-size="14" lengthAdjust="spacing" textLength="180.7953" x="27" y="457.5617">source_schema_id : String [1]</text><ellipse cx="18" cy="470.4997" fill="none" rx="3" ry="3" style="stroke:#038048;stroke-width:1;"/><text fill="#808080" font-family="sans-serif" font-size="14" lengthAdjust="spacing" textLength="299.7947" x="27" y="474.3616">immediate_descendants : List&lt;BMM_CLASS&gt; [*]</text><ellipse cx="18" cy="487.2996" fill="none" rx="3" ry="3" style="stroke:#038048;stroke-width:1;"/><text fill="#808080" font-family="sans-serif" font-size="14" lengthAdjust="spacing" textLength="147.9934" x="27" y="491.1616">is_override : Boolean [1]</text><ellipse cx="18" cy="504.0995" fill="none" rx="3" ry="3" style="stroke:#038048;stroke-width:1;"/><text fill="#808080" font-family="sans-serif" font-size="14" lengthAdjust="spacing" textLength="323.2727" x="27" y="507.9615">static_properties : Hash&lt;String,BMM_STATIC&gt; [0..1]</text><ellipse cx="18" cy="520.8995" fill="none" rx="3" ry="3" style="stroke:#038048;stroke-width:1;"/><text fill="#808080" font-family="sans-serif" font-size="14" lengthAdjust="spacing" textLength="300.6628" x="27" y="524.7614">functions : Hash&lt;String,BMM_FUNCTION&gt; [0..1]</text><ellipse cx="18" cy="537.6994" fill="none" rx="3" ry="3" style="stroke:#038048;stroke-width:1;"/><text fill="#808080" font-family="sans-serif" font-size="14" lengthAdjust="spacing" textLength="324.2247" x="27" y="541.5614">procedures : Hash&lt;String,BMM_PROCEDURE&gt; [0..1]</text><ellipse cx="18" cy="554.4993" fill="none" rx="3" ry="3" style="stroke:#038048;stroke-width:1;"/><text fill="#808080" font-family="sans-serif" font-size="14" lengthAdjust="spacing" textLength="167.5093" x="27" y="558.3613">is_primitive : Boolean [0..1]</text><ellipse cx="18" cy="571.2992" fill="none" rx="3" ry="3" style="stroke:#038048;stroke-width:1;"/><text fill="#808080" font-family="sans-serif" font-size="14" lengthAdjust="spacing" textLength="163.0714" x="27" y="575.1612">is_abstract : Boolean [0..1]</text><ellipse cx="18" cy="588.0992" fill="none" rx="3" ry="3" style="stroke:#038048;stroke-width:1;"/><text fill="#808080" font-family="sans-serif" font-size="14" lengthAdjust="spacing" textLength="241.933" x="27" y="591.9611">invariants : List&lt;BMM_ASSERTION&gt; [*]</text><ellipse cx="18" cy="604.8991" fill="none" rx="3" ry="3" style="stroke:#038048;stroke-width:1;"/><text fill="#808080" font-family="sans-serif" font-size="14" lengthAdjust="spacing" textLength="305.2688" x="27" y="608.7611">creators : Hash&lt;String,BMM_PROCEDURE&gt; [0..1]</text><ellipse cx="18" cy="621.699" fill="none" rx="3" ry="3" style="stroke:#038048;stroke-width:1;"/><text fill="#808080" font-family="sans-serif" font-size="14" lengthAdjust="spacing" textLength="320.1508" x="27" y="625.561">converters : Hash&lt;String,BMM_PROCEDURE&gt; [0..1]</text><ellipse cx="18" cy="638.4989" fill="none" rx="3" ry="3" style="stroke:#038048;stroke-width:1;"/><text fill="#808080" font-family="sans-serif" font-size="14" lengthAdjust="spacing" textLength="217.7271" x="27" y="642.3609">features : List&lt;BMM_FEATURE&gt; [*]</text><line style="stroke:#808080;stroke-width:1;stroke-dasharray:1,3;" x1="8" x2="356.2247" y1="649.3989" y2="649.3989"/><ellipse cx="18" cy="663.2989" fill="#84BE84" rx="3" ry="3" style="stroke:#038048;stroke-width:1;"/><text fill="#808080" font-family="sans-serif" font-size="14" font-style="italic" lengthAdjust="spacing" textLength="191.3652" x="27" y="667.1608">type() : BMM_MODEL_TYPE [1]</text><ellipse cx="18" cy="680.0988" fill="#84BE84" rx="3" ry="3" style="stroke:#038048;stroke-width:1;"/><text fill="#808080" font-family="sans-serif" font-size="14" lengthAdjust="spacing" textLength="195.6212" x="27" y="683.9608">all_ancestors() : List&lt;String&gt; [*]</text><ellipse cx="18" cy="696.8987" fill="#84BE84" rx="3" ry="3" style="stroke:#038048;stroke-width:1;"/><text fill="#808080" font-family="sans-serif" font-size="14" lengthAdjust="spacing" textLength="213.6952" x="27" y="700.7607">all_descendants() : List&lt;String&gt; [*]</text><ellipse cx="18" cy="713.6986" fill="#84BE84" rx="3" ry="3" style="stroke:#038048;stroke-width:1;"/><text fill="#808080" font-family="sans-serif" font-size="14" lengthAdjust="spacing" textLength="170.1693" x="27" y="717.5606">suppliers() : List&lt;String&gt; [*]</text><ellipse cx="18" cy="730.4986" fill="#84BE84" rx="3" ry="3" style="stroke:#038048;stroke-width:1;"/><text fill="#808080" font-family="sans-serif" font-size="14" lengthAdjust="spacing" textLength="263.157" x="27" y="734.3605">suppliers_non_primitive() : List&lt;String&gt; [*]</text><ellipse cx="18" cy="747.2985" fill="#84BE84" rx="3" ry="3" style="stroke:#038048;stroke-width:1;"/><text fill="#808080" font-family="sans-serif" font-size="14" lengthAdjust="spacing" textLength="216.0192" x="27" y="751.1605">supplier_closure() : List&lt;String&gt; [*]</text><ellipse cx="18" cy="764.0984" fill="#84BE84" rx="3" ry="3" style="stroke:#038048;stroke-width:1;"/><text fill="#808080" font-family="sans-serif" font-size="14" lengthAdjust="spacing" textLength="160.7754" x="27" y="767.9604">package_path() : String [1]</text><ellipse cx="18" cy="780.8984" fill="#84BE84" rx="3" ry="3" style="stroke:#038048;stroke-width:1;"/><text fill="#808080" font-family="sans-serif" font-size="14" lengthAdjust="spacing" textLength="140.1535" x="27" y="784.7603">class_path() : String [1]</text><ellipse cx="18" cy="797.6983" fill="#84BE84" rx="3" ry="3" style="stroke:#038048;stroke-width:1;"/><text fill="#808080" font-family="sans-serif" font-size="14" lengthAdjust="spacing" textLength="160.1734" x="27" y="801.5603">is_primitive() : Boolean [1]</text><ellipse cx="18" cy="814.4982" fill="#84BE84" rx="3" ry="3" style="stroke:#038048;stroke-width:1;"/><text fill="#808080" font-family="sans-serif" font-size="14" lengthAdjust="spacing" textLength="155.7354" x="27" y="818.3602">is_abstract() : Boolean [1]</text><ellipse cx="18" cy="831.2981" fill="#84BE84" rx="3" ry="3" style="stroke:#038048;stroke-width:1;"/><text fill="#808080" font-family="sans-serif" font-size="14" lengthAdjust="spacing" textLength="150.7094" x="27" y="835.1601">features() : List&lt;Any&gt; [*]</text><ellipse cx="18" cy="848.0981" fill="#84BE84" rx="3" ry="3" style="stroke:#038048;stroke-width:1;"/><text fill="#808080" font-family="sans-serif" font-size="14" lengthAdjust="spacing" textLength="178.5833" x="27" y="851.96">flat_features() : List&lt;Any&gt; [*]</text><ellipse cx="18" cy="864.898" fill="#84BE84" rx="3" ry="3" style="stroke:#038048;stroke-width:1;"/><text fill="#808080" font-family="sans-serif" font-size="14" lengthAdjust="spacing" textLength="276.6809" x="27" y="868.76">flat_properties() : List&lt;BMM_PROPERTY&gt; [*]</text></g><!--class BMM_MODULE--><g class="entity" data-entity="BMM_MODULE" data-source-line="37" data-uid="ent0004" id="entity_BMM_MODULE"><rect fill="#F5F5F5" height="98.3998" rx="2.5" ry="2.5" style="stroke:#808080;stroke-width:1;stroke-dasharray:1,3;" width="341.7127" x="11.26" y="199"/><ellipse cx="129.2935" cy="215" fill="#A9DCDF" rx="11" ry="11" style="stroke:#181818;stroke-width:1;"/><path d="M123.8092,220.5 L125.8404,220.5 L129.8873,209.1563 L128.981,209.1563 L132.8092,220.5 L134.9498,220.5 L130.6217,208.1719 L128.4029,208.1719 L123.8092,220.5 Z M126.1373,217 L132.5748,217 L132.5748,215.25 L126.1373,215.25 L126.1373,217 Z " fill="#000000"/><text fill="#808080" font-family="sans-serif" font-size="14" font-style="italic" lengthAdjust="spacing" textLength="97.1456" x="149.7935" y="220.362">BMM_MODULE</text><line style="stroke:#808080;stroke-width:1;stroke-dasharray:1,3;" x1="12.26" x2="351.9727" y1="231" y2="231"/><ellipse cx="22.26" cy="244.9" fill="none" rx="3" ry="3" style="stroke:#038048;stroke-width:1;"/><text fill="#808080" font-family="sans-serif" font-size="14" lengthAdjust="spacing" textLength="152.6554" x="31.26" y="248.7619">scope : BMM_MODEL [1]</text><ellipse cx="22.26" cy="261.6999" fill="none" rx="3" ry="3" style="stroke:#038048;stroke-width:1;"/><text fill="#808080" font-family="sans-serif" font-size="14" lengthAdjust="spacing" textLength="315.7127" x="31.26" y="265.5619">feature_groups : List&lt;BMM_FEATURE_GROUP&gt; [*]</text><ellipse cx="22.26" cy="278.4998" fill="none" rx="3" ry="3" style="stroke:#038048;stroke-width:1;"/><text fill="#808080" font-family="sans-serif" font-size="14" lengthAdjust="spacing" textLength="282.8688" x="31.26" y="282.3618">features : List&lt;BMM_FORMAL_ELEMENT&gt; [*]</text><line style="stroke:#808080;stroke-width:1;stroke-dasharray:1,3;" x1="12.26" x2="351.9727" y1="289.3998" y2="289.3998"/></g><!--class BMM_MODEL_ELEMENT--><g class="entity" data-entity="BMM_MODEL_ELEMENT" data-source-line="43" data-uid="ent0005" id="entity_BMM_MODEL_ELEMENT"><rect fill="#F5F5F5" height="131.9996" rx="2.5" ry="2.5" style="stroke:#808080;stroke-width:1;stroke-dasharray:1,3;" width="277.285" x="43.47" y="7"/><ellipse cx="99.4558" cy="23" fill="#A9DCDF" rx="11" ry="11" style="stroke:#181818;stroke-width:1;"/><path d="M93.9715,28.5 L96.0027,28.5 L100.0496,17.1563 L99.1433,17.1563 L102.9715,28.5 L105.1121,28.5 L100.784,16.1719 L98.5652,16.1719 L93.9715,28.5 Z M96.2996,25 L102.7371,25 L102.7371,23.25 L96.2996,23.25 L96.2996,25 Z " fill="#000000"/><text fill="#808080" font-family="sans-serif" font-size="14" font-style="italic" lengthAdjust="spacing" textLength="156.8134" x="119.9558" y="28.362">BMM_MODEL_ELEMENT</text><line style="stroke:#808080;stroke-width:1;stroke-dasharray:1,3;" x1="44.47" x2="319.755" y1="39" y2="39"/><ellipse cx="54.47" cy="52.9" fill="none" rx="3" ry="3" style="stroke:#038048;stroke-width:1;"/><text fill="#808080" font-family="sans-serif" font-size="14" lengthAdjust="spacing" textLength="100.8836" x="63.47" y="56.7619">name : String [1]</text><ellipse cx="54.47" cy="69.6999" fill="none" rx="3" ry="3" style="stroke:#038048;stroke-width:1;"/><text fill="#808080" font-family="sans-serif" font-size="14" lengthAdjust="spacing" textLength="251.285" x="63.47" y="73.5619">documentation : Hash&lt;String,Any&gt; [0..1]</text><ellipse cx="54.47" cy="86.4998" fill="none" rx="3" ry="3" style="stroke:#038048;stroke-width:1;"/><text fill="#808080" font-family="sans-serif" font-size="14" lengthAdjust="spacing" textLength="221.7171" x="63.47" y="90.3618">scope : BMM_MODEL_ELEMENT [1]</text><ellipse cx="54.47" cy="103.2997" fill="none" rx="3" ry="3" style="stroke:#038048;stroke-width:1;"/><text fill="#808080" font-family="sans-serif" font-size="14" lengthAdjust="spacing" textLength="223.3411" x="63.47" y="107.1617">extensions : Hash&lt;String,Any&gt; [0..1]</text><line style="stroke:#808080;stroke-width:1;stroke-dasharray:1,3;" x1="44.47" x2="319.755" y1="114.1997" y2="114.1997"/><ellipse cx="54.47" cy="128.0997" fill="#84BE84" rx="3" ry="3" style="stroke:#038048;stroke-width:1;"/><text fill="#808080" font-family="sans-serif" font-size="14" lengthAdjust="spacing" textLength="174.5653" x="63.47" y="131.9616">is_root_scope() : Boolean [1]</text></g><!--reverse link BMM_MODEL_ELEMENT to BMM_MODULE--><g class="link" data-entity-1="BMM_MODEL_ELEMENT" data-entity-2="BMM_MODULE" data-source-line="51" data-uid="lnk6" id="link_BMM_MODEL_ELEMENT_BMM_MODULE"><path codeLine="51" d="M182.11,157.48 C182.11,177.12 182.11,180.3 182.11,198.64" fill="none" id="BMM_MODEL_ELEMENT-backto-BMM_MODULE" style="stroke:#181818;stroke-width:1;"/><polygon fill="none" points="182.11,139.48,176.11,157.48,188.11,157.48,182.11,139.48" style="stroke:#181818;stroke-width:1;"/></g><!--reverse link BMM_MODULE to BMM_CLASS--><g class="link" data-entity-1="BMM_MODULE" data-entity-2="BMM_CLASS" data-source-line="53" data-uid="lnk7" id="link_BMM_MODULE_BMM_CLASS"><path codeLine="53" d="M182.11,315.86 C182.11,332.79 182.11,335.15 182.11,357.27" fill="none" id="BMM_MODULE-backto-BMM_CLASS" style="stroke:#181818;stroke-width:1;"/><polygon fill="none" points="182.11,297.86,176.11,315.86,188.11,315.86,182.11,297.86" style="stroke:#181818;stroke-width:1;"/></g><!--reverse link BMM_CLASS to BMM_SIMPLE_CLASS--><g class="link" data-entity-1="BMM_CLASS" data-entity-2="BMM_SIMPLE_CLASS" data-source-line="55" data-uid="lnk8" id="link_BMM_CLASS_BMM_SIMPLE_CLASS"><path codeLine="55" d="M182.11,894.26 C182.11,917.39 182.11,919.95 182.11,935.65" fill="none" id="BMM_CLASS-backto-BMM_SIMPLE_CLASS" style="stroke:#181818;stroke-width:1;"/><polygon fill="none" points="182.11,876.26,176.11,894.26,188.11,894.26,182.11,876.26" style="stroke:#181818;stroke-width:1;"/></g></g></svg>
