<svg xmlns="http://www.w3.org/2000/svg" xmlns:xlink="http://www.w3.org/1999/xlink" contentStyleType="text/css" data-diagram-type="CLASS" height="455px" preserveAspectRatio="none" style="width:313px;height:455px;background:#FFFFFF;" version="1.1" viewBox="0 0 313 455" width="313px" zoomAndPan="magnify"><defs/><g><!--class BMM_CONTAINER_TYPE--><g class="entity" data-entity="BMM_CONTAINER_TYPE" data-source-line="2" data-uid="ent0002" id="entity_BMM_CONTAINER_TYPE"><rect fill="#F1F1F1" height="215.9993" rx="2.5" ry="2.5" style="stroke:#181818;stroke-width:0.5;" width="299.3629" x="7" y="232.6"/><ellipse cx="73.7798" cy="248.6" fill="#ADD1B2" rx="11" ry="11" style="stroke:#181818;stroke-width:1;"/><path d="M73.7798,255.0219 C74.9517,255.0219 76.186,254.7563 77.561,254.1469 L77.0767,252.6313 C75.9829,253.0531 74.9673,253.2406 74.1079,253.2406 C71.3892,253.2406 69.6704,251.3969 69.6704,248.4906 C69.6704,245.7406 71.2329,244.1469 73.9673,244.1469 C74.8892,244.1469 75.9048,244.3344 77.0454,244.7563 L77.6235,243.2406 C76.5298,242.6625 75.2329,242.3656 74.0454,242.3656 C70.2798,242.3656 67.7017,245.0063 67.7017,248.8188 C67.7017,252.4906 70.186,255.0219 73.7798,255.0219 Z " fill="#000000"/><text fill="#000000" font-family="sans-serif" font-size="14" lengthAdjust="spacing" textLength="157.3033" x="94.2798" y="253.962">BMM_CONTAINER_TYPE</text><line style="stroke:#181818;stroke-width:0.5;" x1="8" x2="305.3629" y1="264.6" y2="264.6"/><ellipse cx="18" cy="278.5" fill="none" rx="3" ry="3" style="stroke:#038048;stroke-width:1;"/><text fill="#000000" font-family="sans-serif" font-size="14" lengthAdjust="spacing" textLength="270.3669" x="27" y="282.3619">container_class : BMM_GENERIC_CLASS [1]</text><ellipse cx="18" cy="295.2999" fill="none" rx="3" ry="3" style="stroke:#038048;stroke-width:1;"/><text fill="#000000" font-family="sans-serif" font-size="14" lengthAdjust="spacing" textLength="227.4711" x="27" y="299.1619">item_type : BMM_UNITARY_TYPE [1]</text><ellipse cx="18" cy="312.0998" fill="none" rx="3" ry="3" style="stroke:#038048;stroke-width:1;"/><text fill="#000000" font-family="sans-serif" font-size="14" lengthAdjust="spacing" textLength="161.5733" x="27" y="315.9618">is_ordered : Boolean [0..1]</text><ellipse cx="18" cy="328.8997" fill="none" rx="3" ry="3" style="stroke:#038048;stroke-width:1;"/><text fill="#000000" font-family="sans-serif" font-size="14" lengthAdjust="spacing" textLength="154.7134" x="27" y="332.7617">is_unique : Boolean [0..1]</text><line style="stroke:#181818;stroke-width:0.5;" x1="8" x2="305.3629" y1="339.7997" y2="339.7997"/><ellipse cx="18" cy="353.6997" fill="#84BE84" rx="3" ry="3" style="stroke:#038048;stroke-width:1;"/><text fill="#000000" font-family="sans-serif" font-size="14" lengthAdjust="spacing" textLength="143.4715" x="27" y="357.5616">type_name() : String [1]</text><ellipse cx="18" cy="370.4996" fill="#84BE84" rx="3" ry="3" style="stroke:#038048;stroke-width:1;"/><text fill="#000000" font-family="sans-serif" font-size="14" lengthAdjust="spacing" textLength="155.7354" x="27" y="374.3616">is_abstract() : Boolean [1]</text><ellipse cx="18" cy="387.2995" fill="#84BE84" rx="3" ry="3" style="stroke:#038048;stroke-width:1;"/><text fill="#000000" font-family="sans-serif" font-size="14" lengthAdjust="spacing" textLength="243.1371" x="27" y="391.1615">flattened_type_list() : List&lt;String&gt; [1..*]</text><ellipse cx="18" cy="404.0995" fill="#84BE84" rx="3" ry="3" style="stroke:#038048;stroke-width:1;"/><text fill="#000000" font-family="sans-serif" font-size="14" lengthAdjust="spacing" textLength="251.019" x="27" y="407.9614">unitary_type() : BMM_UNITARY_TYPE [1]</text><ellipse cx="18" cy="420.8994" fill="#84BE84" rx="3" ry="3" style="stroke:#038048;stroke-width:1;"/><text fill="#000000" font-family="sans-serif" font-size="14" lengthAdjust="spacing" textLength="160.1734" x="27" y="424.7614">is_primitive() : Boolean [1]</text><ellipse cx="18" cy="437.6993" fill="#84BE84" rx="3" ry="3" style="stroke:#038048;stroke-width:1;"/><text fill="#000000" font-family="sans-serif" font-size="14" lengthAdjust="spacing" textLength="273.3629" x="27" y="441.5613">effective_type() : BMM_EFFECTIVE_TYPE [1]</text></g><!--class BMM_TYPE--><g class="entity" data-entity="BMM_TYPE" data-source-line="15" data-uid="ent0003" id="entity_BMM_TYPE"><rect fill="#F5F5F5" height="165.5995" rx="2.5" ry="2.5" style="stroke:#808080;stroke-width:1;stroke-dasharray:1,3;" width="299.3629" x="7" y="7"/><ellipse cx="116.2556" cy="23" fill="#A9DCDF" rx="11" ry="11" style="stroke:#181818;stroke-width:1;"/><path d="M110.7712,28.5 L112.8025,28.5 L116.8494,17.1563 L115.9431,17.1563 L119.7712,28.5 L121.9119,28.5 L117.5837,16.1719 L115.365,16.1719 L110.7712,28.5 Z M113.0994,25 L119.5369,25 L119.5369,23.25 L113.0994,23.25 L113.0994,25 Z " fill="#000000"/><text fill="#808080" font-family="sans-serif" font-size="14" font-style="italic" lengthAdjust="spacing" textLength="72.3517" x="136.7556" y="28.362">BMM_TYPE</text><line style="stroke:#808080;stroke-width:1;stroke-dasharray:1,3;" x1="8" x2="305.3629" y1="39" y2="39"/><line style="stroke:#808080;stroke-width:1;stroke-dasharray:1,3;" x1="8" x2="305.3629" y1="47" y2="47"/><ellipse cx="18" cy="60.9" fill="#84BE84" rx="3" ry="3" style="stroke:#038048;stroke-width:1;"/><text fill="#808080" font-family="sans-serif" font-size="14" font-style="italic" lengthAdjust="spacing" textLength="143.4715" x="27" y="64.7619">type_name() : String [1]</text><ellipse cx="18" cy="77.6999" fill="#84BE84" rx="3" ry="3" style="stroke:#038048;stroke-width:1;"/><text fill="#808080" font-family="sans-serif" font-size="14" lengthAdjust="spacing" textLength="167.1314" x="27" y="81.5619">type_signature() : String [1]</text><ellipse cx="18" cy="94.4998" fill="#84BE84" rx="3" ry="3" style="stroke:#038048;stroke-width:1;"/><text fill="#808080" font-family="sans-serif" font-size="14" font-style="italic" lengthAdjust="spacing" textLength="155.7354" x="27" y="98.3618">is_abstract() : Boolean [1]</text><ellipse cx="18" cy="111.2997" fill="#84BE84" rx="3" ry="3" style="stroke:#038048;stroke-width:1;"/><text fill="#808080" font-family="sans-serif" font-size="14" font-style="italic" lengthAdjust="spacing" textLength="160.1734" x="27" y="115.1617">is_primitive() : Boolean [1]</text><ellipse cx="18" cy="128.0997" fill="#84BE84" rx="3" ry="3" style="stroke:#038048;stroke-width:1;"/><text fill="#808080" font-family="sans-serif" font-size="14" font-style="italic" lengthAdjust="spacing" textLength="251.019" x="27" y="131.9616">unitary_type() : BMM_UNITARY_TYPE [1]</text><ellipse cx="18" cy="144.8996" fill="#84BE84" rx="3" ry="3" style="stroke:#038048;stroke-width:1;"/><text fill="#808080" font-family="sans-serif" font-size="14" font-style="italic" lengthAdjust="spacing" textLength="273.3629" x="27" y="148.7616">effective_type() : BMM_EFFECTIVE_TYPE [1]</text><ellipse cx="18" cy="161.6995" fill="#84BE84" rx="3" ry="3" style="stroke:#038048;stroke-width:1;"/><text fill="#808080" font-family="sans-serif" font-size="14" font-style="italic" lengthAdjust="spacing" textLength="243.1371" x="27" y="165.5615">flattened_type_list() : List&lt;String&gt; [1..*]</text></g><!--reverse link BMM_TYPE to BMM_CONTAINER_TYPE--><g class="link" data-entity-1="BMM_TYPE" data-entity-2="BMM_CONTAINER_TYPE" data-source-line="25" data-uid="lnk4" id="link_BMM_TYPE_BMM_CONTAINER_TYPE"><path codeLine="25" d="M156.68,190.96 C156.68,209.92 156.68,212.38 156.68,232.24" fill="none" id="BMM_TYPE-backto-BMM_CONTAINER_TYPE" style="stroke:#181818;stroke-width:1;"/><polygon fill="none" points="156.68,172.96,150.68,190.96,162.68,190.96,156.68,172.96" style="stroke:#181818;stroke-width:1;"/></g></g></svg>
