<svg xmlns="http://www.w3.org/2000/svg" xmlns:xlink="http://www.w3.org/1999/xlink" contentStyleType="text/css" data-diagram-type="CLASS" height="253px" preserveAspectRatio="none" style="width:244px;height:253px;background:#FFFFFF;" version="1.1" viewBox="0 0 244 253" width="244px" zoomAndPan="magnify"><defs/><g><!--class EL_TUPLE--><g class="entity" data-entity="EL_TUPLE" data-source-line="2" data-uid="ent0002" id="entity_EL_TUPLE"><rect fill="#F1F1F1" height="98.3998" rx="2.5" ry="2.5" style="stroke:#181818;stroke-width:0.5;" width="230.2592" x="7" y="148.6"/><ellipse cx="86.3307" cy="164.6" fill="#ADD1B2" rx="11" ry="11" style="stroke:#181818;stroke-width:1;"/><path d="M86.3307,171.0219 C87.5026,171.0219 88.737,170.7563 90.112,170.1469 L89.6276,168.6313 C88.5338,169.0531 87.5182,169.2406 86.6588,169.2406 C83.9401,169.2406 82.2213,167.3969 82.2213,164.4906 C82.2213,161.7406 83.7838,160.1469 86.5182,160.1469 C87.4401,160.1469 88.4557,160.3344 89.5963,160.7563 L90.1745,159.2406 C89.0807,158.6625 87.7838,158.3656 86.5963,158.3656 C82.8307,158.3656 80.2526,161.0063 80.2526,164.8188 C80.2526,168.4906 82.737,171.0219 86.3307,171.0219 Z " fill="#000000"/><text fill="#000000" font-family="sans-serif" font-size="14" lengthAdjust="spacing" textLength="63.0977" x="106.8307" y="169.962">EL_TUPLE</text><line style="stroke:#181818;stroke-width:0.5;" x1="8" x2="236.2592" y1="180.6" y2="180.6"/><ellipse cx="18" cy="194.5" fill="none" rx="3" ry="3" style="stroke:#038048;stroke-width:1;"/><text fill="#000000" font-family="sans-serif" font-size="14" lengthAdjust="spacing" textLength="204.2592" x="27" y="198.3619">items : List&lt;EL_TUPLE_ITEM&gt; [*]</text><ellipse cx="18" cy="211.2999" fill="none" rx="3" ry="3" style="stroke:#038048;stroke-width:1;"/><text fill="#000000" font-family="sans-serif" font-size="14" lengthAdjust="spacing" textLength="175.8953" x="27" y="215.1619">type : BMM_TUPLE_TYPE [1]</text><line style="stroke:#181818;stroke-width:0.5;" x1="8" x2="236.2592" y1="222.1999" y2="222.1999"/><ellipse cx="18" cy="236.0998" fill="#84BE84" rx="3" ry="3" style="stroke:#038048;stroke-width:1;"/><text fill="#000000" font-family="sans-serif" font-size="14" lengthAdjust="spacing" textLength="168.6573" x="27" y="239.9618">eval_type() : BMM_TYPE [1]</text></g><!--class EL_EXPRESSION--><g class="entity" data-entity="EL_EXPRESSION" data-source-line="8" data-uid="ent0003" id="entity_EL_EXPRESSION"><rect fill="#F5F5F5" height="81.5999" rx="2.5" ry="2.5" style="stroke:#808080;stroke-width:1;stroke-dasharray:1,3;" width="194.6573" x="24.8" y="7"/><ellipse cx="66.0799" cy="23" fill="#A9DCDF" rx="11" ry="11" style="stroke:#181818;stroke-width:1;"/><path d="M60.5955,28.5 L62.6268,28.5 L66.6736,17.1563 L65.7674,17.1563 L69.5955,28.5 L71.7361,28.5 L67.408,16.1719 L65.1893,16.1719 L60.5955,28.5 Z M62.9236,25 L69.3611,25 L69.3611,23.25 L62.9236,23.25 L62.9236,25 Z " fill="#000000"/><text fill="#808080" font-family="sans-serif" font-size="14" font-style="italic" lengthAdjust="spacing" textLength="104.2576" x="85.9199" y="28.362">EL_EXPRESSION</text><line style="stroke:#808080;stroke-width:1;stroke-dasharray:1,3;" x1="25.8" x2="218.4573" y1="39" y2="39"/><line style="stroke:#808080;stroke-width:1;stroke-dasharray:1,3;" x1="25.8" x2="218.4573" y1="47" y2="47"/><ellipse cx="35.8" cy="60.9" fill="#84BE84" rx="3" ry="3" style="stroke:#038048;stroke-width:1;"/><text fill="#808080" font-family="sans-serif" font-size="14" font-style="italic" lengthAdjust="spacing" textLength="168.6573" x="44.8" y="64.7619">eval_type() : BMM_TYPE [1]</text><ellipse cx="35.8" cy="77.6999" fill="#84BE84" rx="3" ry="3" style="stroke:#038048;stroke-width:1;"/><text fill="#808080" font-family="sans-serif" font-size="14" lengthAdjust="spacing" textLength="155.2454" x="44.8" y="81.5619">is_boolean() : Boolean [1]</text></g><!--reverse link EL_EXPRESSION to EL_TUPLE--><g class="link" data-entity-1="EL_EXPRESSION" data-entity-2="EL_TUPLE" data-source-line="13" data-uid="lnk4" id="link_EL_EXPRESSION_EL_TUPLE"><path codeLine="13" d="M122.13,106.85 C122.13,125.17 122.13,129.04 122.13,148.28" fill="none" id="EL_EXPRESSION-backto-EL_TUPLE" style="stroke:#181818;stroke-width:1;"/><polygon fill="none" points="122.13,88.85,116.13,106.85,128.13,106.85,122.13,88.85" style="stroke:#181818;stroke-width:1;"/></g></g></svg>
