<svg xmlns="http://www.w3.org/2000/svg" xmlns:xlink="http://www.w3.org/1999/xlink" contentStyleType="text/css" data-diagram-type="CLASS" height="1290px" preserveAspectRatio="none" style="width:364px;height:1290px;background:#FFFFFF;" version="1.1" viewBox="0 0 364 1290" width="364px" zoomAndPan="magnify"><defs/><g><!--class BMM_ENUMERATION_STRING--><g class="entity" data-entity="BMM_ENUMERATION_STRING" data-source-line="2" data-uid="ent0002" id="entity_BMM_ENUMERATION_STRING"><rect fill="#F1F1F1" height="64.7999" rx="2.5" ry="2.5" style="stroke:#181818;stroke-width:0.5;" width="305.6069" x="29.31" y="1219"/><ellipse cx="80.8718" cy="1235" fill="#ADD1B2" rx="11" ry="11" style="stroke:#181818;stroke-width:1;"/><path d="M80.8718,1241.4219 C82.0437,1241.4219 83.2781,1241.1563 84.6531,1240.5469 L84.1687,1239.0313 C83.075,1239.4531 82.0593,1239.6406 81.2,1239.6406 C78.4812,1239.6406 76.7625,1237.7969 76.7625,1234.8906 C76.7625,1232.1406 78.325,1230.5469 81.0593,1230.5469 C81.9812,1230.5469 82.9968,1230.7344 84.1375,1231.1563 L84.7156,1229.6406 C83.6218,1229.0625 82.325,1228.7656 81.1375,1228.7656 C77.3718,1228.7656 74.7937,1231.4063 74.7937,1235.2188 C74.7937,1238.8906 77.2781,1241.4219 80.8718,1241.4219 Z " fill="#000000"/><text fill="#000000" font-family="sans-serif" font-size="14" lengthAdjust="spacing" textLength="193.9832" x="101.3718" y="1240.362">BMM_ENUMERATION_STRING</text><line style="stroke:#181818;stroke-width:0.5;" x1="30.31" x2="333.9169" y1="1251" y2="1251"/><ellipse cx="40.31" cy="1264.9" fill="none" rx="3" ry="3" style="stroke:#038048;stroke-width:1;"/><text fill="#000000" font-family="sans-serif" font-size="14" lengthAdjust="spacing" textLength="279.6069" x="49.31" y="1268.7619">item_values : List&lt;BMM_STRING_VALUE&gt; [*]</text><line style="stroke:#181818;stroke-width:0.5;" x1="30.31" x2="333.9169" y1="1275.7999" y2="1275.7999"/></g><!--class BMM_ENUMERATION--><g class="entity" data-entity="BMM_ENUMERATION" data-source-line="6" data-uid="ent0003" id="entity_BMM_ENUMERATION"><rect fill="#F5F5F5" height="98.3998" rx="2.5" ry="2.5" style="stroke:#808080;stroke-width:1;stroke-dasharray:1,3;" width="321.7348" x="21.24" y="1060.6"/><ellipse cx="108.6627" cy="1076.6" fill="#ADD1B2" rx="11" ry="11" style="stroke:#181818;stroke-width:1;"/><path d="M108.6627,1083.0219 C109.8346,1083.0219 111.0689,1082.7563 112.4439,1082.1469 L111.9596,1080.6313 C110.8658,1081.0531 109.8502,1081.2406 108.9908,1081.2406 C106.2721,1081.2406 104.5533,1079.3969 104.5533,1076.4906 C104.5533,1073.7406 106.1158,1072.1469 108.8502,1072.1469 C109.7721,1072.1469 110.7877,1072.3344 111.9283,1072.7563 L112.5064,1071.2406 C111.4127,1070.6625 110.1158,1070.3656 108.9283,1070.3656 C105.1627,1070.3656 102.5846,1073.0063 102.5846,1076.8188 C102.5846,1080.4906 105.0689,1083.0219 108.6627,1083.0219 Z " fill="#000000"/><text fill="#808080" font-family="sans-serif" font-size="14" lengthAdjust="spacing" textLength="138.3894" x="129.1627" y="1081.962">BMM_ENUMERATION</text><line style="stroke:#808080;stroke-width:1;stroke-dasharray:1,3;" x1="22.24" x2="341.9748" y1="1092.6" y2="1092.6"/><ellipse cx="32.24" cy="1106.5" fill="none" rx="3" ry="3" style="stroke:#038048;stroke-width:1;"/><text fill="#808080" font-family="sans-serif" font-size="14" lengthAdjust="spacing" textLength="181.6353" x="41.24" y="1110.3619">item_names : List&lt;String&gt; [*]</text><ellipse cx="32.24" cy="1123.2999" fill="none" rx="3" ry="3" style="stroke:#038048;stroke-width:1;"/><text fill="#808080" font-family="sans-serif" font-size="14" lengthAdjust="spacing" textLength="295.7348" x="41.24" y="1127.1619">item_values : List&lt;BMM_PRIMITIVE_VALUE&gt; [*]</text><line style="stroke:#808080;stroke-width:1;stroke-dasharray:1,3;" x1="22.24" x2="341.9748" y1="1134.1999" y2="1134.1999"/><ellipse cx="32.24" cy="1148.0998" fill="#84BE84" rx="3" ry="3" style="stroke:#038048;stroke-width:1;"/><text fill="#808080" font-family="sans-serif" font-size="14" lengthAdjust="spacing" textLength="232.8331" x="41.24" y="1151.9618">name_map() : Hash&lt;String,String&gt; [1]</text></g><!--class BMM_SIMPLE_CLASS--><g class="entity" data-entity="BMM_SIMPLE_CLASS" data-source-line="12" data-uid="ent0004" id="entity_BMM_SIMPLE_CLASS"><rect fill="#F5F5F5" height="64.7999" rx="2.5" ry="2.5" style="stroke:#808080;stroke-width:1;stroke-dasharray:1,3;" width="216.5112" x="73.86" y="935.8"/><ellipse cx="111.4733" cy="951.8" fill="#ADD1B2" rx="11" ry="11" style="stroke:#181818;stroke-width:1;"/><path d="M111.4733,958.2219 C112.6452,958.2219 113.8795,957.9563 115.2545,957.3469 L114.7702,955.8313 C113.6764,956.2531 112.6608,956.4406 111.8014,956.4406 C109.0827,956.4406 107.3639,954.5969 107.3639,951.6906 C107.3639,948.9406 108.9264,947.3469 111.6608,947.3469 C112.5827,947.3469 113.5983,947.5344 114.7389,947.9563 L115.317,946.4406 C114.2233,945.8625 112.9264,945.5656 111.7389,945.5656 C107.9733,945.5656 105.3952,948.2063 105.3952,952.0188 C105.3952,955.6906 107.8795,958.2219 111.4733,958.2219 Z " fill="#000000"/><text fill="#808080" font-family="sans-serif" font-size="14" lengthAdjust="spacing" textLength="134.2595" x="130.4985" y="957.162">BMM_SIMPLE_CLASS</text><line style="stroke:#808080;stroke-width:1;stroke-dasharray:1,3;" x1="74.86" x2="289.3712" y1="967.8" y2="967.8"/><line style="stroke:#808080;stroke-width:1;stroke-dasharray:1,3;" x1="74.86" x2="289.3712" y1="975.8" y2="975.8"/><ellipse cx="84.86" cy="989.7" fill="#84BE84" rx="3" ry="3" style="stroke:#038048;stroke-width:1;"/><text fill="#808080" font-family="sans-serif" font-size="14" lengthAdjust="spacing" textLength="190.5112" x="93.86" y="993.5619">type() : BMM_SIMPLE_TYPE [1]</text></g><!--class BMM_CLASS--><g class="entity" data-entity="BMM_CLASS" data-source-line="16" data-uid="ent0005" id="entity_BMM_CLASS"><rect fill="#F5F5F5" height="518.3979" rx="2.5" ry="2.5" style="stroke:#808080;stroke-width:1;stroke-dasharray:1,3;" width="350.2247" x="7" y="357.4"/><ellipse cx="137.7455" cy="373.4" fill="#A9DCDF" rx="11" ry="11" style="stroke:#181818;stroke-width:1;"/><path d="M132.2611,378.9 L134.2924,378.9 L138.3393,367.5563 L137.433,367.5563 L141.2611,378.9 L143.4018,378.9 L139.0736,366.5719 L136.8549,366.5719 L132.2611,378.9 Z M134.5893,375.4 L141.0268,375.4 L141.0268,373.65 L134.5893,373.65 L134.5893,375.4 Z " fill="#000000"/><text fill="#808080" font-family="sans-serif" font-size="14" font-style="italic" lengthAdjust="spacing" textLength="80.2337" x="158.2455" y="378.762">BMM_CLASS</text><line style="stroke:#808080;stroke-width:1;stroke-dasharray:1,3;" x1="8" x2="356.2247" y1="389.4" y2="389.4"/><ellipse cx="18" cy="403.3" fill="none" rx="3" ry="3" style="stroke:#038048;stroke-width:1;"/><text fill="#808080" font-family="sans-serif" font-size="14" lengthAdjust="spacing" textLength="320.7947" x="27" y="407.1619">ancestors : Hash&lt;String,BMM_MODEL_TYPE&gt; [0..1]</text><ellipse cx="18" cy="420.0999" fill="none" rx="3" ry="3" style="stroke:#038048;stroke-width:1;"/><text fill="#808080" font-family="sans-serif" font-size="14" lengthAdjust="spacing" textLength="181.1453" x="27" y="423.9619">package : BMM_PACKAGE [1]</text><ellipse cx="18" cy="436.8998" fill="none" rx="3" ry="3" style="stroke:#038048;stroke-width:1;"/><text fill="#808080" font-family="sans-serif" font-size="14" lengthAdjust="spacing" textLength="306.1368" x="27" y="440.7618">properties : Hash&lt;String,BMM_PROPERTY&gt; [0..1]</text><ellipse cx="18" cy="453.6997" fill="none" rx="3" ry="3" style="stroke:#038048;stroke-width:1;"/><text fill="#808080" font-family="sans-serif" font-size="14" lengthAdjust="spacing" textLength="180.7953" x="27" y="457.5617">source_schema_id : String [1]</text><ellipse cx="18" cy="470.4997" fill="none" rx="3" ry="3" style="stroke:#038048;stroke-width:1;"/><text fill="#808080" font-family="sans-serif" font-size="14" lengthAdjust="spacing" textLength="299.7947" x="27" y="474.3616">immediate_descendants : List&lt;BMM_CLASS&gt; [*]</text><ellipse cx="18" cy="487.2996" fill="none" rx="3" ry="3" style="stroke:#038048;stroke-width:1;"/><text fill="#808080" font-family="sans-serif" font-size="14" lengthAdjust="spacing" textLength="147.9934" x="27" y="491.1616">is_override : Boolean [1]</text><ellipse cx="18" cy="504.0995" fill="none" rx="3" ry="3" style="stroke:#038048;stroke-width:1;"/><text fill="#808080" font-family="sans-serif" font-size="14" lengthAdjust="spacing" textLength="323.2727" x="27" y="507.9615">static_properties : Hash&lt;String,BMM_STATIC&gt; [0..1]</text><ellipse cx="18" cy="520.8995" fill="none" rx="3" ry="3" style="stroke:#038048;stroke-width:1;"/><text fill="#808080" font-family="sans-serif" font-size="14" lengthAdjust="spacing" textLength="300.6628" x="27" y="524.7614">functions : Hash&lt;String,BMM_FUNCTION&gt; [0..1]</text><ellipse cx="18" cy="537.6994" fill="none" rx="3" ry="3" style="stroke:#038048;stroke-width:1;"/><text fill="#808080" font-family="sans-serif" font-size="14" lengthAdjust="spacing" textLength="324.2247" x="27" y="541.5614">procedures : Hash&lt;String,BMM_PROCEDURE&gt; [0..1]</text><ellipse cx="18" cy="554.4993" fill="none" rx="3" ry="3" style="stroke:#038048;stroke-width:1;"/><text fill="#808080" font-family="sans-serif" font-size="14" lengthAdjust="spacing" textLength="167.5093" x="27" y="558.3613">is_primitive : Boolean [0..1]</text><ellipse cx="18" cy="571.2992" fill="none" rx="3" ry="3" style="stroke:#038048;stroke-width:1;"/><text fill="#808080" font-family="sans-serif" font-size="14" lengthAdjust="spacing" textLength="163.0714" x="27" y="575.1612">is_abstract : Boolean [0..1]</text><ellipse cx="18" cy="588.0992" fill="none" rx="3" ry="3" style="stroke:#038048;stroke-width:1;"/><text fill="#808080" font-family="sans-serif" font-size="14" lengthAdjust="spacing" textLength="241.933" x="27" y="591.9611">invariants : List&lt;BMM_ASSERTION&gt; [*]</text><ellipse cx="18" cy="604.8991" fill="none" rx="3" ry="3" style="stroke:#038048;stroke-width:1;"/><text fill="#808080" font-family="sans-serif" font-size="14" lengthAdjust="spacing" textLength="305.2688" x="27" y="608.7611">creators : Hash&lt;String,BMM_PROCEDURE&gt; [0..1]</text><ellipse cx="18" cy="621.699" fill="none" rx="3" ry="3" style="stroke:#038048;stroke-width:1;"/><text fill="#808080" font-family="sans-serif" font-size="14" lengthAdjust="spacing" textLength="320.1508" x="27" y="625.561">converters : Hash&lt;String,BMM_PROCEDURE&gt; [0..1]</text><ellipse cx="18" cy="638.4989" fill="none" rx="3" ry="3" style="stroke:#038048;stroke-width:1;"/><text fill="#808080" font-family="sans-serif" font-size="14" lengthAdjust="spacing" textLength="217.7271" x="27" y="642.3609">features : List&lt;BMM_FEATURE&gt; [*]</text><line style="stroke:#808080;stroke-width:1;stroke-dasharray:1,3;" x1="8" x2="356.2247" y1="649.3989" y2="649.3989"/><ellipse cx="18" cy="663.2989" fill="#84BE84" rx="3" ry="3" style="stroke:#038048;stroke-width:1;"/><text fill="#808080" font-family="sans-serif" font-size="14" font-style="italic" lengthAdjust="spacing" textLength="191.3652" x="27" y="667.1608">type() : BMM_MODEL_TYPE [1]</text><ellipse cx="18" cy="680.0988" fill="#84BE84" rx="3" ry="3" style="stroke:#038048;stroke-width:1;"/><text fill="#808080" font-family="sans-serif" font-size="14" lengthAdjust="spacing" textLength="195.6212" x="27" y="683.9608">all_ancestors() : List&lt;String&gt; [*]</text><ellipse cx="18" cy="696.8987" fill="#84BE84" rx="3" ry="3" style="stroke:#038048;stroke-width:1;"/><text fill="#808080" font-family="sans-serif" font-size="14" lengthAdjust="spacing" textLength="213.6952" x="27" y="700.7607">all_descendants() : List&lt;String&gt; [*]</text><ellipse cx="18" cy="713.6986" fill="#84BE84" rx="3" ry="3" style="stroke:#038048;stroke-width:1;"/><text fill="#808080" font-family="sans-serif" font-size="14" lengthAdjust="spacing" textLength="170.1693" x="27" y="717.5606">suppliers() : List&lt;String&gt; [*]</text><ellipse cx="18" cy="730.4986" fill="#84BE84" rx="3" ry="3" style="stroke:#038048;stroke-width:1;"/><text fill="#808080" font-family="sans-serif" font-size="14" lengthAdjust="spacing" textLength="263.157" x="27" y="734.3605">suppliers_non_primitive() : List&lt;String&gt; [*]</text><ellipse cx="18" cy="747.2985" fill="#84BE84" rx="3" ry="3" style="stroke:#038048;stroke-width:1;"/><text fill="#808080" font-family="sans-serif" font-size="14" lengthAdjust="spacing" textLength="216.0192" x="27" y="751.1605">supplier_closure() : List&lt;String&gt; [*]</text><ellipse cx="18" cy="764.0984" fill="#84BE84" rx="3" ry="3" style="stroke:#038048;stroke-width:1;"/><text fill="#808080" font-family="sans-serif" font-size="14" lengthAdjust="spacing" textLength="160.7754" x="27" y="767.9604">package_path() : String [1]</text><ellipse cx="18" cy="780.8984" fill="#84BE84" rx="3" ry="3" style="stroke:#038048;stroke-width:1;"/><text fill="#808080" font-family="sans-serif" font-size="14" lengthAdjust="spacing" textLength="140.1535" x="27" y="784.7603">class_path() : String [1]</text><ellipse cx="18" cy="797.6983" fill="#84BE84" rx="3" ry="3" style="stroke:#038048;stroke-width:1;"/><text fill="#808080" font-family="sans-serif" font-size="14" lengthAdjust="spacing" textLength="160.1734" x="27" y="801.5603">is_primitive() : Boolean [1]</text><ellipse cx="18" cy="814.4982" fill="#84BE84" rx="3" ry="3" style="stroke:#038048;stroke-width:1;"/><text fill="#808080" font-family="sans-serif" font-size="14" lengthAdjust="spacing" textLength="155.7354" x="27" y="818.3602">is_abstract() : Boolean [1]</text><ellipse cx="18" cy="831.2981" fill="#84BE84" rx="3" ry="3" style="stroke:#038048;stroke-width:1;"/><text fill="#808080" font-family="sans-serif" font-size="14" lengthAdjust="spacing" textLength="150.7094" x="27" y="835.1601">features() : List&lt;Any&gt; [*]</text><ellipse cx="18" cy="848.0981" fill="#84BE84" rx="3" ry="3" style="stroke:#038048;stroke-width:1;"/><text fill="#808080" font-family="sans-serif" font-size="14" lengthAdjust="spacing" textLength="178.5833" x="27" y="851.96">flat_features() : List&lt;Any&gt; [*]</text><ellipse cx="18" cy="864.898" fill="#84BE84" rx="3" ry="3" style="stroke:#038048;stroke-width:1;"/><text fill="#808080" font-family="sans-serif" font-size="14" lengthAdjust="spacing" textLength="276.6809" x="27" y="868.76">flat_properties() : List&lt;BMM_PROPERTY&gt; [*]</text></g><!--class BMM_MODULE--><g class="entity" data-entity="BMM_MODULE" data-source-line="47" data-uid="ent0006" id="entity_BMM_MODULE"><rect fill="#F5F5F5" height="98.3998" rx="2.5" ry="2.5" style="stroke:#808080;stroke-width:1;stroke-dasharray:1,3;" width="341.7127" x="11.26" y="199"/><ellipse cx="129.2935" cy="215" fill="#A9DCDF" rx="11" ry="11" style="stroke:#181818;stroke-width:1;"/><path d="M123.8092,220.5 L125.8404,220.5 L129.8873,209.1563 L128.981,209.1563 L132.8092,220.5 L134.9498,220.5 L130.6217,208.1719 L128.4029,208.1719 L123.8092,220.5 Z M126.1373,217 L132.5748,217 L132.5748,215.25 L126.1373,215.25 L126.1373,217 Z " fill="#000000"/><text fill="#808080" font-family="sans-serif" font-size="14" font-style="italic" lengthAdjust="spacing" textLength="97.1456" x="149.7935" y="220.362">BMM_MODULE</text><line style="stroke:#808080;stroke-width:1;stroke-dasharray:1,3;" x1="12.26" x2="351.9727" y1="231" y2="231"/><ellipse cx="22.26" cy="244.9" fill="none" rx="3" ry="3" style="stroke:#038048;stroke-width:1;"/><text fill="#808080" font-family="sans-serif" font-size="14" lengthAdjust="spacing" textLength="152.6554" x="31.26" y="248.7619">scope : BMM_MODEL [1]</text><ellipse cx="22.26" cy="261.6999" fill="none" rx="3" ry="3" style="stroke:#038048;stroke-width:1;"/><text fill="#808080" font-family="sans-serif" font-size="14" lengthAdjust="spacing" textLength="315.7127" x="31.26" y="265.5619">feature_groups : List&lt;BMM_FEATURE_GROUP&gt; [*]</text><ellipse cx="22.26" cy="278.4998" fill="none" rx="3" ry="3" style="stroke:#038048;stroke-width:1;"/><text fill="#808080" font-family="sans-serif" font-size="14" lengthAdjust="spacing" textLength="282.8688" x="31.26" y="282.3618">features : List&lt;BMM_FORMAL_ELEMENT&gt; [*]</text><line style="stroke:#808080;stroke-width:1;stroke-dasharray:1,3;" x1="12.26" x2="351.9727" y1="289.3998" y2="289.3998"/></g><!--class BMM_MODEL_ELEMENT--><g class="entity" data-entity="BMM_MODEL_ELEMENT" data-source-line="53" data-uid="ent0007" id="entity_BMM_MODEL_ELEMENT"><rect fill="#F5F5F5" height="131.9996" rx="2.5" ry="2.5" style="stroke:#808080;stroke-width:1;stroke-dasharray:1,3;" width="277.285" x="43.47" y="7"/><ellipse cx="99.4558" cy="23" fill="#A9DCDF" rx="11" ry="11" style="stroke:#181818;stroke-width:1;"/><path d="M93.9715,28.5 L96.0027,28.5 L100.0496,17.1563 L99.1433,17.1563 L102.9715,28.5 L105.1121,28.5 L100.784,16.1719 L98.5652,16.1719 L93.9715,28.5 Z M96.2996,25 L102.7371,25 L102.7371,23.25 L96.2996,23.25 L96.2996,25 Z " fill="#000000"/><text fill="#808080" font-family="sans-serif" font-size="14" font-style="italic" lengthAdjust="spacing" textLength="156.8134" x="119.9558" y="28.362">BMM_MODEL_ELEMENT</text><line style="stroke:#808080;stroke-width:1;stroke-dasharray:1,3;" x1="44.47" x2="319.755" y1="39" y2="39"/><ellipse cx="54.47" cy="52.9" fill="none" rx="3" ry="3" style="stroke:#038048;stroke-width:1;"/><text fill="#808080" font-family="sans-serif" font-size="14" lengthAdjust="spacing" textLength="100.8836" x="63.47" y="56.7619">name : String [1]</text><ellipse cx="54.47" cy="69.6999" fill="none" rx="3" ry="3" style="stroke:#038048;stroke-width:1;"/><text fill="#808080" font-family="sans-serif" font-size="14" lengthAdjust="spacing" textLength="251.285" x="63.47" y="73.5619">documentation : Hash&lt;String,Any&gt; [0..1]</text><ellipse cx="54.47" cy="86.4998" fill="none" rx="3" ry="3" style="stroke:#038048;stroke-width:1;"/><text fill="#808080" font-family="sans-serif" font-size="14" lengthAdjust="spacing" textLength="221.7171" x="63.47" y="90.3618">scope : BMM_MODEL_ELEMENT [1]</text><ellipse cx="54.47" cy="103.2997" fill="none" rx="3" ry="3" style="stroke:#038048;stroke-width:1;"/><text fill="#808080" font-family="sans-serif" font-size="14" lengthAdjust="spacing" textLength="223.3411" x="63.47" y="107.1617">extensions : Hash&lt;String,Any&gt; [0..1]</text><line style="stroke:#808080;stroke-width:1;stroke-dasharray:1,3;" x1="44.47" x2="319.755" y1="114.1997" y2="114.1997"/><ellipse cx="54.47" cy="128.0997" fill="#84BE84" rx="3" ry="3" style="stroke:#038048;stroke-width:1;"/><text fill="#808080" font-family="sans-serif" font-size="14" lengthAdjust="spacing" textLength="174.5653" x="63.47" y="131.9616">is_root_scope() : Boolean [1]</text></g><!--reverse link BMM_MODEL_ELEMENT to BMM_MODULE--><g class="link" data-entity-1="BMM_MODEL_ELEMENT" data-entity-2="BMM_MODULE" data-source-line="61" data-uid="lnk8" id="link_BMM_MODEL_ELEMENT_BMM_MODULE"><path codeLine="61" d="M182.11,157.48 C182.11,177.12 182.11,180.3 182.11,198.64" fill="none" id="BMM_MODEL_ELEMENT-backto-BMM_MODULE" style="stroke:#181818;stroke-width:1;"/><polygon fill="none" points="182.11,139.48,176.11,157.48,188.11,157.48,182.11,139.48" style="stroke:#181818;stroke-width:1;"/></g><!--reverse link BMM_MODULE to BMM_CLASS--><g class="link" data-entity-1="BMM_MODULE" data-entity-2="BMM_CLASS" data-source-line="63" data-uid="lnk9" id="link_BMM_MODULE_BMM_CLASS"><path codeLine="63" d="M182.11,315.86 C182.11,332.79 182.11,335.15 182.11,357.27" fill="none" id="BMM_MODULE-backto-BMM_CLASS" style="stroke:#181818;stroke-width:1;"/><polygon fill="none" points="182.11,297.86,176.11,315.86,188.11,315.86,182.11,297.86" style="stroke:#181818;stroke-width:1;"/></g><!--reverse link BMM_CLASS to BMM_SIMPLE_CLASS--><g class="link" data-entity-1="BMM_CLASS" data-entity-2="BMM_SIMPLE_CLASS" data-source-line="65" data-uid="lnk10" id="link_BMM_CLASS_BMM_SIMPLE_CLASS"><path codeLine="65" d="M182.11,894.26 C182.11,917.39 182.11,919.96 182.11,935.65" fill="none" id="BMM_CLASS-backto-BMM_SIMPLE_CLASS" style="stroke:#181818;stroke-width:1;"/><polygon fill="none" points="182.11,876.26,176.11,894.26,188.11,894.26,182.11,876.26" style="stroke:#181818;stroke-width:1;"/></g><!--reverse link BMM_SIMPLE_CLASS to BMM_ENUMERATION--><g class="link" data-entity-1="BMM_SIMPLE_CLASS" data-entity-2="BMM_ENUMERATION" data-source-line="67" data-uid="lnk11" id="link_BMM_SIMPLE_CLASS_BMM_ENUMERATION"><path codeLine="67" d="M182.11,1018.88 C182.11,1036.41 182.11,1040.58 182.11,1060.26" fill="none" id="BMM_SIMPLE_CLASS-backto-BMM_ENUMERATION" style="stroke:#181818;stroke-width:1;"/><polygon fill="none" points="182.11,1000.88,176.11,1018.88,188.11,1018.88,182.11,1000.88" style="stroke:#181818;stroke-width:1;"/></g><!--reverse link BMM_ENUMERATION to BMM_ENUMERATION_STRING--><g class="link" data-entity-1="BMM_ENUMERATION" data-entity-2="BMM_ENUMERATION_STRING" data-source-line="69" data-uid="lnk12" id="link_BMM_ENUMERATION_BMM_ENUMERATION_STRING"><path codeLine="69" d="M182.11,1177.23 C182.11,1196.92 182.11,1201.12 182.11,1218.68" fill="none" id="BMM_ENUMERATION-backto-BMM_ENUMERATION_STRING" style="stroke:#181818;stroke-width:1;"/><polygon fill="none" points="182.11,1159.23,176.11,1177.23,188.11,1177.23,182.11,1159.23" style="stroke:#181818;stroke-width:1;"/></g></g></svg>
