<svg xmlns="http://www.w3.org/2000/svg" xmlns:xlink="http://www.w3.org/1999/xlink" contentStyleType="text/css" data-diagram-type="CLASS" height="678px" preserveAspectRatio="none" style="width:338px;height:678px;background:#FFFFFF;" version="1.1" viewBox="0 0 338 678" width="338px" zoomAndPan="magnify"><defs/><g><!--class BMM_PARAMETER--><g class="entity" data-entity="BMM_PARAMETER" data-source-line="2" data-uid="ent0002" id="entity_BMM_PARAMETER"><rect fill="#F1F1F1" height="64.7999" rx="2.5" ry="2.5" style="stroke:#181818;stroke-width:0.5;" width="324.0168" x="7" y="607"/><ellipse cx="105.0976" cy="623" fill="#ADD1B2" rx="11" ry="11" style="stroke:#181818;stroke-width:1;"/><path d="M105.0976,629.4219 C106.2695,629.4219 107.5039,629.1563 108.8789,628.5469 L108.3945,627.0313 C107.3008,627.4531 106.2851,627.6406 105.4258,627.6406 C102.707,627.6406 100.9883,625.7969 100.9883,622.8906 C100.9883,620.1406 102.5508,618.5469 105.2851,618.5469 C106.207,618.5469 107.2226,618.7344 108.3633,619.1563 L108.9414,617.6406 C107.8476,617.0625 106.5508,616.7656 105.3633,616.7656 C101.5976,616.7656 99.0195,619.4063 99.0195,623.2188 C99.0195,626.8906 101.5039,629.4219 105.0976,629.4219 Z " fill="#000000"/><text fill="#000000" font-family="sans-serif" font-size="14" lengthAdjust="spacing" textLength="119.3215" x="125.5976" y="628.362">BMM_PARAMETER</text><line style="stroke:#181818;stroke-width:0.5;" x1="8" x2="330.0168" y1="639" y2="639"/><ellipse cx="18" cy="652.9" fill="none" rx="3" ry="3" style="stroke:#038048;stroke-width:1;"/><text fill="#000000" font-family="sans-serif" font-size="14" lengthAdjust="spacing" textLength="298.0168" x="27" y="656.7619">direction : BMM_PARAMETER_DIRECTION [0..1]</text><line style="stroke:#181818;stroke-width:0.5;" x1="8" x2="330.0168" y1="663.7999" y2="663.7999"/></g><!--class BMM_READONLY_VARIABLE--><g class="entity" data-entity="BMM_READONLY_VARIABLE" data-source-line="6" data-uid="ent0003" id="entity_BMM_READONLY_VARIABLE"><rect fill="#F5F5F5" height="48" rx="2.5" ry="2.5" style="stroke:#808080;stroke-width:1;stroke-dasharray:1,3;" width="213.2572" x="62.38" y="499"/><ellipse cx="77.38" cy="515" fill="#A9DCDF" rx="11" ry="11" style="stroke:#181818;stroke-width:1;"/><path d="M71.8956,520.5 L73.9269,520.5 L77.9738,509.1563 L77.0675,509.1563 L80.8956,520.5 L83.0363,520.5 L78.7081,508.1719 L76.4894,508.1719 L71.8956,520.5 Z M74.2238,517 L80.6613,517 L80.6613,515.25 L74.2238,515.25 L74.2238,517 Z " fill="#000000"/><text fill="#808080" font-family="sans-serif" font-size="14" font-style="italic" lengthAdjust="spacing" textLength="181.2572" x="91.38" y="520.362">BMM_READONLY_VARIABLE</text><line style="stroke:#808080;stroke-width:1;stroke-dasharray:1,3;" x1="63.38" x2="274.6372" y1="531" y2="531"/><line style="stroke:#808080;stroke-width:1;stroke-dasharray:1,3;" x1="63.38" x2="274.6372" y1="539" y2="539"/></g><!--class BMM_VARIABLE--><g class="entity" data-entity="BMM_VARIABLE" data-source-line="9" data-uid="ent0004" id="entity_BMM_VARIABLE"><rect fill="#F5F5F5" height="64.7999" rx="2.5" ry="2.5" style="stroke:#808080;stroke-width:1;stroke-dasharray:1,3;" width="189.8273" x="74.09" y="374.2"/><ellipse cx="114.0595" cy="390.2" fill="#A9DCDF" rx="11" ry="11" style="stroke:#181818;stroke-width:1;"/><path d="M108.5751,395.7 L110.6064,395.7 L114.6532,384.3562 L113.747,384.3562 L117.5751,395.7 L119.7157,395.7 L115.3876,383.3719 L113.1689,383.3719 L108.5751,395.7 Z M110.9032,392.2 L117.3407,392.2 L117.3407,390.45 L110.9032,390.45 L110.9032,392.2 Z " fill="#000000"/><text fill="#808080" font-family="sans-serif" font-size="14" font-style="italic" lengthAdjust="spacing" textLength="102.3396" x="133.6083" y="395.562">BMM_VARIABLE</text><line style="stroke:#808080;stroke-width:1;stroke-dasharray:1,3;" x1="75.09" x2="262.9173" y1="406.2" y2="406.2"/><ellipse cx="85.09" cy="420.1" fill="none" rx="3" ry="3" style="stroke:#038048;stroke-width:1;"/><text fill="#808080" font-family="sans-serif" font-size="14" lengthAdjust="spacing" textLength="163.8273" x="94.09" y="423.9619">scope : BMM_ROUTINE [1]</text><line style="stroke:#808080;stroke-width:1;stroke-dasharray:1,3;" x1="75.09" x2="262.9173" y1="430.9999" y2="430.9999"/></g><!--class BMM_FORMAL_ELEMENT--><g class="entity" data-entity="BMM_FORMAL_ELEMENT" data-source-line="13" data-uid="ent0005" id="entity_BMM_FORMAL_ELEMENT"><rect fill="#F5F5F5" height="115.1997" rx="2.5" ry="2.5" style="stroke:#808080;stroke-width:1;stroke-dasharray:1,3;" width="236.3352" x="50.84" y="199"/><ellipse cx="83.9866" cy="215" fill="#A9DCDF" rx="11" ry="11" style="stroke:#181818;stroke-width:1;"/><path d="M78.5023,220.5 L80.5335,220.5 L84.5804,209.1562 L83.6741,209.1562 L87.5023,220.5 L89.6429,220.5 L85.3148,208.1719 L83.096,208.1719 L78.5023,220.5 Z M80.8304,217 L87.2679,217 L87.2679,215.25 L80.8304,215.25 L80.8304,217 Z " fill="#000000"/><text fill="#808080" font-family="sans-serif" font-size="14" font-style="italic" lengthAdjust="spacing" textLength="164.0093" x="102.0192" y="220.362">BMM_FORMAL_ELEMENT</text><line style="stroke:#808080;stroke-width:1;stroke-dasharray:1,3;" x1="51.84" x2="286.1752" y1="231" y2="231"/><ellipse cx="61.84" cy="244.9" fill="none" rx="3" ry="3" style="stroke:#038048;stroke-width:1;"/><text fill="#808080" font-family="sans-serif" font-size="14" lengthAdjust="spacing" textLength="128.0575" x="70.84" y="248.7619">type : BMM_TYPE [1]</text><ellipse cx="61.84" cy="261.6999" fill="none" rx="3" ry="3" style="stroke:#038048;stroke-width:1;"/><text fill="#808080" font-family="sans-serif" font-size="14" lengthAdjust="spacing" textLength="162.3013" x="70.84" y="265.5619">is_nullable : Boolean [0..1]</text><line style="stroke:#808080;stroke-width:1;stroke-dasharray:1,3;" x1="51.84" x2="286.1752" y1="272.5999" y2="272.5999"/><ellipse cx="61.84" cy="286.4998" fill="#84BE84" rx="3" ry="3" style="stroke:#038048;stroke-width:1;"/><text fill="#808080" font-family="sans-serif" font-size="14" font-style="italic" lengthAdjust="spacing" textLength="210.3352" x="70.84" y="290.3618">signature() : BMM_SIGNATURE [1]</text><ellipse cx="61.84" cy="303.2997" fill="#84BE84" rx="3" ry="3" style="stroke:#038048;stroke-width:1;"/><text fill="#808080" font-family="sans-serif" font-size="14" lengthAdjust="spacing" textLength="155.2454" x="70.84" y="307.1617">is_boolean() : Boolean [1]</text></g><!--class BMM_MODEL_ELEMENT--><g class="entity" data-entity="BMM_MODEL_ELEMENT" data-source-line="20" data-uid="ent0006" id="entity_BMM_MODEL_ELEMENT"><rect fill="#F5F5F5" height="131.9996" rx="2.5" ry="2.5" style="stroke:#808080;stroke-width:1;stroke-dasharray:1,3;" width="277.285" x="30.37" y="7"/><ellipse cx="86.3558" cy="23" fill="#A9DCDF" rx="11" ry="11" style="stroke:#181818;stroke-width:1;"/><path d="M80.8715,28.5 L82.9027,28.5 L86.9496,17.1563 L86.0433,17.1563 L89.8715,28.5 L92.0121,28.5 L87.684,16.1719 L85.4652,16.1719 L80.8715,28.5 Z M83.1996,25 L89.6371,25 L89.6371,23.25 L83.1996,23.25 L83.1996,25 Z " fill="#000000"/><text fill="#808080" font-family="sans-serif" font-size="14" font-style="italic" lengthAdjust="spacing" textLength="156.8134" x="106.8558" y="28.362">BMM_MODEL_ELEMENT</text><line style="stroke:#808080;stroke-width:1;stroke-dasharray:1,3;" x1="31.37" x2="306.655" y1="39" y2="39"/><ellipse cx="41.37" cy="52.9" fill="none" rx="3" ry="3" style="stroke:#038048;stroke-width:1;"/><text fill="#808080" font-family="sans-serif" font-size="14" lengthAdjust="spacing" textLength="100.8836" x="50.37" y="56.7619">name : String [1]</text><ellipse cx="41.37" cy="69.6999" fill="none" rx="3" ry="3" style="stroke:#038048;stroke-width:1;"/><text fill="#808080" font-family="sans-serif" font-size="14" lengthAdjust="spacing" textLength="251.285" x="50.37" y="73.5619">documentation : Hash&lt;String,Any&gt; [0..1]</text><ellipse cx="41.37" cy="86.4998" fill="none" rx="3" ry="3" style="stroke:#038048;stroke-width:1;"/><text fill="#808080" font-family="sans-serif" font-size="14" lengthAdjust="spacing" textLength="221.7171" x="50.37" y="90.3618">scope : BMM_MODEL_ELEMENT [1]</text><ellipse cx="41.37" cy="103.2997" fill="none" rx="3" ry="3" style="stroke:#038048;stroke-width:1;"/><text fill="#808080" font-family="sans-serif" font-size="14" lengthAdjust="spacing" textLength="223.3411" x="50.37" y="107.1617">extensions : Hash&lt;String,Any&gt; [0..1]</text><line style="stroke:#808080;stroke-width:1;stroke-dasharray:1,3;" x1="31.37" x2="306.655" y1="114.1997" y2="114.1997"/><ellipse cx="41.37" cy="128.0997" fill="#84BE84" rx="3" ry="3" style="stroke:#038048;stroke-width:1;"/><text fill="#808080" font-family="sans-serif" font-size="14" lengthAdjust="spacing" textLength="174.5653" x="50.37" y="131.9616">is_root_scope() : Boolean [1]</text></g><!--reverse link BMM_MODEL_ELEMENT to BMM_FORMAL_ELEMENT--><g class="link" data-entity-1="BMM_MODEL_ELEMENT" data-entity-2="BMM_FORMAL_ELEMENT" data-source-line="28" data-uid="lnk7" id="link_BMM_MODEL_ELEMENT_BMM_FORMAL_ELEMENT"><path codeLine="28" d="M169.01,157.31 C169.01,176.73 169.01,179.84 169.01,198.69" fill="none" id="BMM_MODEL_ELEMENT-backto-BMM_FORMAL_ELEMENT" style="stroke:#181818;stroke-width:1;"/><polygon fill="none" points="169.01,139.31,163.01,157.31,175.01,157.31,169.01,139.31" style="stroke:#181818;stroke-width:1;"/></g><!--reverse link BMM_FORMAL_ELEMENT to BMM_VARIABLE--><g class="link" data-entity-1="BMM_FORMAL_ELEMENT" data-entity-2="BMM_VARIABLE" data-source-line="30" data-uid="lnk8" id="link_BMM_FORMAL_ELEMENT_BMM_VARIABLE"><path codeLine="30" d="M169.01,332.4 C169.01,352.61 169.01,356.64 169.01,373.99" fill="none" id="BMM_FORMAL_ELEMENT-backto-BMM_VARIABLE" style="stroke:#181818;stroke-width:1;"/><polygon fill="none" points="169.01,314.4,163.01,332.4,175.01,332.4,169.01,314.4" style="stroke:#181818;stroke-width:1;"/></g><!--reverse link BMM_VARIABLE to BMM_READONLY_VARIABLE--><g class="link" data-entity-1="BMM_VARIABLE" data-entity-2="BMM_READONLY_VARIABLE" data-source-line="32" data-uid="lnk9" id="link_BMM_VARIABLE_BMM_READONLY_VARIABLE"><path codeLine="32" d="M169.01,457.47 C169.01,476.24 169.01,481.58 169.01,498.65" fill="none" id="BMM_VARIABLE-backto-BMM_READONLY_VARIABLE" style="stroke:#181818;stroke-width:1;"/><polygon fill="none" points="169.01,439.47,163.01,457.47,175.01,457.47,169.01,439.47" style="stroke:#181818;stroke-width:1;"/></g><!--reverse link BMM_READONLY_VARIABLE to BMM_PARAMETER--><g class="link" data-entity-1="BMM_READONLY_VARIABLE" data-entity-2="BMM_PARAMETER" data-source-line="34" data-uid="lnk10" id="link_BMM_READONLY_VARIABLE_BMM_PARAMETER"><path codeLine="34" d="M169.01,565.43 C169.01,582.55 169.01,587.97 169.01,606.76" fill="none" id="BMM_READONLY_VARIABLE-backto-BMM_PARAMETER" style="stroke:#181818;stroke-width:1;"/><polygon fill="none" points="169.01,547.43,163.01,565.43,175.01,565.43,169.01,547.43" style="stroke:#181818;stroke-width:1;"/></g></g></svg>
