<svg xmlns="http://www.w3.org/2000/svg" xmlns:xlink="http://www.w3.org/1999/xlink" contentStyleType="text/css" data-diagram-type="CLASS" height="719px" preserveAspectRatio="none" style="width:304px;height:719px;background:#FFFFFF;" version="1.1" viewBox="0 0 304 719" width="304px" zoomAndPan="magnify"><defs/><g><!--class EL_WRITABLE_VARIABLE--><g class="entity" data-entity="EL_WRITABLE_VARIABLE" data-source-line="2" data-uid="ent0002" id="entity_EL_WRITABLE_VARIABLE"><rect fill="#F1F1F1" height="81.5999" rx="2.5" ry="2.5" style="stroke:#181818;stroke-width:0.5;" width="290.1229" x="7" y="631"/><ellipse cx="68.4948" cy="647" fill="#ADD1B2" rx="11" ry="11" style="stroke:#181818;stroke-width:1;"/><path d="M68.4948,653.4219 C69.6667,653.4219 70.901,653.1563 72.276,652.5469 L71.7917,651.0313 C70.6979,651.4531 69.6823,651.6406 68.8229,651.6406 C66.1042,651.6406 64.3854,649.7969 64.3854,646.8906 C64.3854,644.1406 65.9479,642.5469 68.6823,642.5469 C69.6042,642.5469 70.6198,642.7344 71.7604,643.1563 L72.3385,641.6406 C71.2448,641.0625 69.9479,640.7656 68.7604,640.7656 C64.9948,640.7656 62.4167,643.4063 62.4167,647.2188 C62.4167,650.8906 64.901,653.4219 68.4948,653.4219 Z " fill="#000000"/><text fill="#000000" font-family="sans-serif" font-size="14" lengthAdjust="spacing" textLength="158.6333" x="88.9948" y="652.362">EL_WRITABLE_VARIABLE</text><line style="stroke:#181818;stroke-width:0.5;" x1="8" x2="296.1229" y1="663" y2="663"/><ellipse cx="18" cy="676.9" fill="none" rx="3" ry="3" style="stroke:#038048;stroke-width:1;"/><text fill="#000000" font-family="sans-serif" font-size="14" lengthAdjust="spacing" textLength="264.1229" x="27" y="680.7619">definition : BMM_WRITABLE_VARIABLE [1]</text><ellipse cx="18" cy="693.6999" fill="none" rx="3" ry="3" style="stroke:#038048;stroke-width:1;"/><text fill="#000000" font-family="sans-serif" font-size="14" lengthAdjust="spacing" textLength="147.7414" x="27" y="697.5619">is_writable : Boolean [1]</text><line style="stroke:#181818;stroke-width:0.5;" x1="8" x2="296.1229" y1="704.5999" y2="704.5999"/></g><!--class EL_VARIABLE--><g class="entity" data-entity="EL_VARIABLE" data-source-line="7" data-uid="ent0003" id="entity_EL_VARIABLE"><rect fill="#F5F5F5" height="48" rx="2.5" ry="2.5" style="stroke:#808080;stroke-width:1;stroke-dasharray:1,3;" width="116.7276" x="93.7" y="523"/><ellipse cx="108.7" cy="539" fill="#A9DCDF" rx="11" ry="11" style="stroke:#181818;stroke-width:1;"/><path d="M103.2156,544.5 L105.2469,544.5 L109.2938,533.1563 L108.3875,533.1563 L112.2156,544.5 L114.3563,544.5 L110.0281,532.1719 L107.8094,532.1719 L103.2156,544.5 Z M105.5438,541 L111.9813,541 L111.9813,539.25 L105.5438,539.25 L105.5438,541 Z " fill="#000000"/><text fill="#808080" font-family="sans-serif" font-size="14" font-style="italic" lengthAdjust="spacing" textLength="84.7276" x="122.7" y="544.362">EL_VARIABLE</text><line style="stroke:#808080;stroke-width:1;stroke-dasharray:1,3;" x1="94.7" x2="209.4276" y1="555" y2="555"/><line style="stroke:#808080;stroke-width:1;stroke-dasharray:1,3;" x1="94.7" x2="209.4276" y1="563" y2="563"/></g><!--class EL_VALUE_GENERATOR--><g class="entity" data-entity="EL_VALUE_GENERATOR" data-source-line="10" data-uid="ent0004" id="entity_EL_VALUE_GENERATOR"><rect fill="#F5F5F5" height="98.3998" rx="2.5" ry="2.5" style="stroke:#808080;stroke-width:1;stroke-dasharray:1,3;" width="184.6694" x="59.73" y="364.6"/><ellipse cx="74.73" cy="380.6" fill="#A9DCDF" rx="11" ry="11" style="stroke:#181818;stroke-width:1;"/><path d="M69.2456,386.1 L71.2769,386.1 L75.3237,374.7563 L74.4175,374.7563 L78.2456,386.1 L80.3862,386.1 L76.0581,373.7719 L73.8394,373.7719 L69.2456,386.1 Z M71.5737,382.6 L78.0112,382.6 L78.0112,380.85 L71.5737,380.85 L71.5737,382.6 Z " fill="#000000"/><text fill="#808080" font-family="sans-serif" font-size="14" font-style="italic" lengthAdjust="spacing" textLength="152.6694" x="88.73" y="385.962">EL_VALUE_GENERATOR</text><line style="stroke:#808080;stroke-width:1;stroke-dasharray:1,3;" x1="60.73" x2="243.3994" y1="396.6" y2="396.6"/><ellipse cx="70.73" cy="410.5" fill="none" rx="3" ry="3" style="stroke:#038048;stroke-width:1;"/><text fill="#808080" font-family="sans-serif" font-size="14" lengthAdjust="spacing" textLength="147.7414" x="79.73" y="414.3619">is_writable : Boolean [1]</text><ellipse cx="70.73" cy="427.2999" fill="none" rx="3" ry="3" style="stroke:#038048;stroke-width:1;"/><text fill="#808080" font-family="sans-serif" font-size="14" lengthAdjust="spacing" textLength="100.8836" x="79.73" y="431.1619">name : String [1]</text><line style="stroke:#808080;stroke-width:1;stroke-dasharray:1,3;" x1="60.73" x2="243.3994" y1="438.1999" y2="438.1999"/><ellipse cx="70.73" cy="452.0998" fill="#84BE84" rx="3" ry="3" style="stroke:#038048;stroke-width:1;"/><text fill="#808080" font-family="sans-serif" font-size="14" lengthAdjust="spacing" textLength="133.7695" x="79.73" y="455.9618">reference() : String [1]</text></g><!--class EL_SIMPLE--><g class="entity" data-entity="EL_SIMPLE" data-source-line="16" data-uid="ent0005" id="entity_EL_SIMPLE"><rect fill="#F5F5F5" height="48" rx="2.5" ry="2.5" style="stroke:#808080;stroke-width:1;stroke-dasharray:1,3;" width="101.2857" x="101.42" y="256.6"/><ellipse cx="116.42" cy="272.6" fill="#A9DCDF" rx="11" ry="11" style="stroke:#181818;stroke-width:1;"/><path d="M110.9356,278.1 L112.9669,278.1 L117.0138,266.7563 L116.1075,266.7563 L119.9356,278.1 L122.0763,278.1 L117.7481,265.7719 L115.5294,265.7719 L110.9356,278.1 Z M113.2638,274.6 L119.7013,274.6 L119.7013,272.85 L113.2638,272.85 L113.2638,274.6 Z " fill="#000000"/><text fill="#808080" font-family="sans-serif" font-size="14" font-style="italic" lengthAdjust="spacing" textLength="69.2857" x="130.42" y="277.962">EL_SIMPLE</text><line style="stroke:#808080;stroke-width:1;stroke-dasharray:1,3;" x1="102.42" x2="201.7057" y1="288.6" y2="288.6"/><line style="stroke:#808080;stroke-width:1;stroke-dasharray:1,3;" x1="102.42" x2="201.7057" y1="296.6" y2="296.6"/></g><!--class EL_TERMINAL--><g class="entity" data-entity="EL_TERMINAL" data-source-line="19" data-uid="ent0006" id="entity_EL_TERMINAL"><rect fill="#F5F5F5" height="48" rx="2.5" ry="2.5" style="stroke:#808080;stroke-width:1;stroke-dasharray:1,3;" width="121.1516" x="91.49" y="148.6"/><ellipse cx="106.49" cy="164.6" fill="#A9DCDF" rx="11" ry="11" style="stroke:#181818;stroke-width:1;"/><path d="M101.0056,170.1 L103.0369,170.1 L107.0838,158.7563 L106.1775,158.7563 L110.0056,170.1 L112.1463,170.1 L107.8181,157.7719 L105.5994,157.7719 L101.0056,170.1 Z M103.3338,166.6 L109.7713,166.6 L109.7713,164.85 L103.3338,164.85 L103.3338,166.6 Z " fill="#000000"/><text fill="#808080" font-family="sans-serif" font-size="14" font-style="italic" lengthAdjust="spacing" textLength="89.1516" x="120.49" y="169.962">EL_TERMINAL</text><line style="stroke:#808080;stroke-width:1;stroke-dasharray:1,3;" x1="92.49" x2="211.6416" y1="180.6" y2="180.6"/><line style="stroke:#808080;stroke-width:1;stroke-dasharray:1,3;" x1="92.49" x2="211.6416" y1="188.6" y2="188.6"/></g><!--class EL_EXPRESSION--><g class="entity" data-entity="EL_EXPRESSION" data-source-line="22" data-uid="ent0007" id="entity_EL_EXPRESSION"><rect fill="#F5F5F5" height="81.5999" rx="2.5" ry="2.5" style="stroke:#808080;stroke-width:1;stroke-dasharray:1,3;" width="194.6573" x="54.73" y="7"/><ellipse cx="96.0099" cy="23" fill="#A9DCDF" rx="11" ry="11" style="stroke:#181818;stroke-width:1;"/><path d="M90.5255,28.5 L92.5568,28.5 L96.6036,17.1563 L95.6974,17.1563 L99.5255,28.5 L101.6661,28.5 L97.338,16.1719 L95.1193,16.1719 L90.5255,28.5 Z M92.8536,25 L99.2911,25 L99.2911,23.25 L92.8536,23.25 L92.8536,25 Z " fill="#000000"/><text fill="#808080" font-family="sans-serif" font-size="14" font-style="italic" lengthAdjust="spacing" textLength="104.2576" x="115.8499" y="28.362">EL_EXPRESSION</text><line style="stroke:#808080;stroke-width:1;stroke-dasharray:1,3;" x1="55.73" x2="248.3873" y1="39" y2="39"/><line style="stroke:#808080;stroke-width:1;stroke-dasharray:1,3;" x1="55.73" x2="248.3873" y1="47" y2="47"/><ellipse cx="65.73" cy="60.9" fill="#84BE84" rx="3" ry="3" style="stroke:#038048;stroke-width:1;"/><text fill="#808080" font-family="sans-serif" font-size="14" font-style="italic" lengthAdjust="spacing" textLength="168.6573" x="74.73" y="64.7619">eval_type() : BMM_TYPE [1]</text><ellipse cx="65.73" cy="77.6999" fill="#84BE84" rx="3" ry="3" style="stroke:#038048;stroke-width:1;"/><text fill="#808080" font-family="sans-serif" font-size="14" lengthAdjust="spacing" textLength="155.2454" x="74.73" y="81.5619">is_boolean() : Boolean [1]</text></g><!--reverse link EL_EXPRESSION to EL_TERMINAL--><g class="link" data-entity-1="EL_EXPRESSION" data-entity-2="EL_TERMINAL" data-source-line="27" data-uid="lnk8" id="link_EL_EXPRESSION_EL_TERMINAL"><path codeLine="27" d="M152.06,107.01 C152.06,126.6 152.06,131.46 152.06,148.16" fill="none" id="EL_EXPRESSION-backto-EL_TERMINAL" style="stroke:#181818;stroke-width:1;"/><polygon fill="none" points="152.06,89.01,146.06,107.01,158.06,107.01,152.06,89.01" style="stroke:#181818;stroke-width:1;"/></g><!--reverse link EL_TERMINAL to EL_SIMPLE--><g class="link" data-entity-1="EL_TERMINAL" data-entity-2="EL_SIMPLE" data-source-line="29" data-uid="lnk9" id="link_EL_TERMINAL_EL_SIMPLE"><path codeLine="29" d="M152.06,214.86 C152.06,232.54 152.06,238.73 152.06,256.39" fill="none" id="EL_TERMINAL-backto-EL_SIMPLE" style="stroke:#181818;stroke-width:1;"/><polygon fill="none" points="152.06,196.86,146.06,214.86,158.06,214.86,152.06,196.86" style="stroke:#181818;stroke-width:1;"/></g><!--reverse link EL_SIMPLE to EL_VALUE_GENERATOR--><g class="link" data-entity-1="EL_SIMPLE" data-entity-2="EL_VALUE_GENERATOR" data-source-line="31" data-uid="lnk10" id="link_EL_SIMPLE_EL_VALUE_GENERATOR"><path codeLine="31" d="M152.06,323.06 C152.06,339.49 152.06,344.05 152.06,364.28" fill="none" id="EL_SIMPLE-backto-EL_VALUE_GENERATOR" style="stroke:#181818;stroke-width:1;"/><polygon fill="none" points="152.06,305.06,146.06,323.06,158.06,323.06,152.06,305.06" style="stroke:#181818;stroke-width:1;"/></g><!--reverse link EL_VALUE_GENERATOR to EL_VARIABLE--><g class="link" data-entity-1="EL_VALUE_GENERATOR" data-entity-2="EL_VARIABLE" data-source-line="33" data-uid="lnk11" id="link_EL_VALUE_GENERATOR_EL_VARIABLE"><path codeLine="33" d="M152.06,481.28 C152.06,501.57 152.06,506.22 152.06,522.68" fill="none" id="EL_VALUE_GENERATOR-backto-EL_VARIABLE" style="stroke:#181818;stroke-width:1;"/><polygon fill="none" points="152.06,463.28,146.06,481.28,158.06,481.28,152.06,463.28" style="stroke:#181818;stroke-width:1;"/></g><!--reverse link EL_VARIABLE to EL_WRITABLE_VARIABLE--><g class="link" data-entity-1="EL_VARIABLE" data-entity-2="EL_WRITABLE_VARIABLE" data-source-line="35" data-uid="lnk12" id="link_EL_VARIABLE_EL_WRITABLE_VARIABLE"><path codeLine="35" d="M152.06,589.39 C152.06,606.09 152.06,610.98 152.06,630.58" fill="none" id="EL_VARIABLE-backto-EL_WRITABLE_VARIABLE" style="stroke:#181818;stroke-width:1;"/><polygon fill="none" points="152.06,571.39,146.06,589.39,158.06,589.39,152.06,571.39" style="stroke:#181818;stroke-width:1;"/></g></g></svg>
