<svg xmlns="http://www.w3.org/2000/svg" xmlns:xlink="http://www.w3.org/1999/xlink" contentStyleType="text/css" data-diagram-type="CLASS" height="489px" preserveAspectRatio="none" style="width:222px;height:489px;background:#FFFFFF;" version="1.1" viewBox="0 0 222 489" width="222px" zoomAndPan="magnify"><defs/><g><!--class BMM_INTEGER_VALUE--><g class="entity" data-entity="BMM_INTEGER_VALUE" data-source-line="2" data-uid="ent0002" id="entity_BMM_INTEGER_VALUE"><rect fill="#F1F1F1" height="64.7999" rx="2.5" ry="2.5" style="stroke:#181818;stroke-width:0.5;" width="177.9354" x="22.07" y="418"/><ellipse cx="37.07" cy="434" fill="#ADD1B2" rx="11" ry="11" style="stroke:#181818;stroke-width:1;"/><path d="M37.07,440.4219 C38.2419,440.4219 39.4763,440.1563 40.8513,439.5469 L40.3669,438.0313 C39.2731,438.4531 38.2575,438.6406 37.3981,438.6406 C34.6794,438.6406 32.9606,436.7969 32.9606,433.8906 C32.9606,431.1406 34.5231,429.5469 37.2575,429.5469 C38.1794,429.5469 39.195,429.7344 40.3356,430.1563 L40.9138,428.6406 C39.82,428.0625 38.5231,427.7656 37.3356,427.7656 C33.57,427.7656 30.9919,430.4063 30.9919,434.2188 C30.9919,437.8906 33.4763,440.4219 37.07,440.4219 Z " fill="#000000"/><text fill="#000000" font-family="sans-serif" font-size="14" lengthAdjust="spacing" textLength="145.9354" x="51.07" y="439.362">BMM_INTEGER_VALUE</text><line style="stroke:#181818;stroke-width:0.5;" x1="23.07" x2="199.0054" y1="450" y2="450"/><ellipse cx="33.07" cy="463.9" fill="none" rx="3" ry="3" style="stroke:#038048;stroke-width:1;"/><text fill="#000000" font-family="sans-serif" font-size="14" lengthAdjust="spacing" textLength="106.3016" x="42.07" y="467.7619">value : Integer [1]</text><line style="stroke:#181818;stroke-width:0.5;" x1="23.07" x2="199.0054" y1="474.7999" y2="474.7999"/></g><!--class BMM_PRIMITIVE_VALUE--><g class="entity" data-entity="BMM_PRIMITIVE_VALUE" data-source-line="6" data-uid="ent0003" id="entity_BMM_PRIMITIVE_VALUE"><rect fill="#F5F5F5" height="64.7999" rx="2.5" ry="2.5" style="stroke:#808080;stroke-width:1;stroke-dasharray:1,3;" width="208.0833" x="7" y="293.2"/><ellipse cx="32.1834" cy="309.2" fill="#ADD1B2" rx="11" ry="11" style="stroke:#181818;stroke-width:1;"/><path d="M32.1834,315.6219 C33.3553,315.6219 34.5897,315.3563 35.9647,314.7469 L35.4803,313.2313 C34.3866,313.6531 33.3709,313.8406 32.5116,313.8406 C29.7928,313.8406 28.0741,311.9969 28.0741,309.0906 C28.0741,306.3406 29.6366,304.7469 32.3709,304.7469 C33.2928,304.7469 34.3084,304.9344 35.4491,305.3563 L36.0272,303.8406 C34.9334,303.2625 33.6366,302.9656 32.4491,302.9656 C28.6834,302.9656 26.1053,305.6063 26.1053,309.4188 C26.1053,313.0906 28.5897,315.6219 32.1834,315.6219 Z " fill="#000000"/><text fill="#808080" font-family="sans-serif" font-size="14" lengthAdjust="spacing" textLength="153.4534" x="48.4464" y="314.562">BMM_PRIMITIVE_VALUE</text><line style="stroke:#808080;stroke-width:1;stroke-dasharray:1,3;" x1="8" x2="214.0833" y1="325.2" y2="325.2"/><ellipse cx="18" cy="339.1" fill="none" rx="3" ry="3" style="stroke:#038048;stroke-width:1;"/><text fill="#808080" font-family="sans-serif" font-size="14" lengthAdjust="spacing" textLength="182.0833" x="27" y="342.9619">type : BMM_SIMPLE_TYPE [1]</text><line style="stroke:#808080;stroke-width:1;stroke-dasharray:1,3;" x1="8" x2="214.0833" y1="349.9999" y2="349.9999"/></g><!--class BMM_UNITARY_VALUE--><g class="entity" data-entity="BMM_UNITARY_VALUE" data-source-line="10" data-uid="ent0004" id="entity_BMM_UNITARY_VALUE"><rect fill="#F5F5F5" height="48" rx="2.5" ry="2.5" style="stroke:#808080;stroke-width:1;stroke-dasharray:1,3;" width="188.6435" x="16.72" y="185.2"/><ellipse cx="31.72" cy="201.2" fill="#A9DCDF" rx="11" ry="11" style="stroke:#181818;stroke-width:1;"/><path d="M26.2356,206.7 L28.2669,206.7 L32.3138,195.3563 L31.4075,195.3563 L35.2356,206.7 L37.3763,206.7 L33.0481,194.3719 L30.8294,194.3719 L26.2356,206.7 Z M28.5638,203.2 L35.0013,203.2 L35.0013,201.45 L28.5638,201.45 L28.5638,203.2 Z " fill="#000000"/><text fill="#808080" font-family="sans-serif" font-size="14" font-style="italic" lengthAdjust="spacing" textLength="145.8514" x="45.72" y="206.562">BMM_UNITARY_VALUE</text><rect fill="#FFFFFF" height="16.4001" style="stroke:#181818;stroke-width:1;stroke-dasharray:2,2;" width="8.7921" x="199.5714" y="182.2"/><text fill="#000000" font-family="sans-serif" font-size="12" font-style="italic" lengthAdjust="spacing" textLength="6.7921" x="200.5714" y="194.9961">T</text><line style="stroke:#808080;stroke-width:1;stroke-dasharray:1,3;" x1="17.72" x2="204.3635" y1="217.2" y2="217.2"/><line style="stroke:#808080;stroke-width:1;stroke-dasharray:1,3;" x1="17.72" x2="204.3635" y1="225.2" y2="225.2"/></g><!--class BMM_LITERAL_VALUE--><g class="entity" data-entity="BMM_LITERAL_VALUE" data-source-line="13" data-uid="ent0005" id="entity_BMM_LITERAL_VALUE"><rect fill="#F5F5F5" height="115.1997" rx="2.5" ry="2.5" style="stroke:#808080;stroke-width:1;stroke-dasharray:1,3;" width="182.9735" x="19.55" y="10"/><ellipse cx="34.55" cy="26" fill="#A9DCDF" rx="11" ry="11" style="stroke:#181818;stroke-width:1;"/><path d="M29.0656,31.5 L31.0969,31.5 L35.1438,20.1563 L34.2375,20.1563 L38.0656,31.5 L40.2063,31.5 L35.8781,19.1719 L33.6594,19.1719 L29.0656,31.5 Z M31.3937,28 L37.8313,28 L37.8313,26.25 L31.3937,26.25 L31.3937,28 Z " fill="#000000"/><text fill="#808080" font-family="sans-serif" font-size="14" font-style="italic" lengthAdjust="spacing" textLength="140.1814" x="48.55" y="31.362">BMM_LITERAL_VALUE</text><rect fill="#FFFFFF" height="16.4001" style="stroke:#181818;stroke-width:1;stroke-dasharray:2,2;" width="8.7921" x="196.7314" y="7"/><text fill="#000000" font-family="sans-serif" font-size="12" font-style="italic" lengthAdjust="spacing" textLength="6.7921" x="197.7314" y="19.7961">T</text><line style="stroke:#808080;stroke-width:1;stroke-dasharray:1,3;" x1="20.55" x2="201.5235" y1="42" y2="42"/><ellipse cx="30.55" cy="55.9" fill="none" rx="3" ry="3" style="stroke:#038048;stroke-width:1;"/><text fill="#808080" font-family="sans-serif" font-size="14" lengthAdjust="spacing" textLength="142.0854" x="39.55" y="59.7619">value_literal : String [1]</text><ellipse cx="30.55" cy="72.6999" fill="none" rx="3" ry="3" style="stroke:#038048;stroke-width:1;"/><text fill="#808080" font-family="sans-serif" font-size="14" lengthAdjust="spacing" textLength="100.7156" x="39.55" y="76.5619">value : Any [0..1]</text><ellipse cx="30.55" cy="89.4998" fill="none" rx="3" ry="3" style="stroke:#038048;stroke-width:1;"/><text fill="#808080" font-family="sans-serif" font-size="14" lengthAdjust="spacing" textLength="121.6875" x="39.55" y="93.3618">syntax : String [0..1]</text><ellipse cx="30.55" cy="106.2997" fill="none" rx="3" ry="3" style="stroke:#038048;stroke-width:1;"/><text fill="#808080" font-family="sans-serif" font-size="14" lengthAdjust="spacing" textLength="63.6297" x="39.55" y="110.1617">type : T [1]</text><line style="stroke:#808080;stroke-width:1;stroke-dasharray:1,3;" x1="20.55" x2="201.5235" y1="117.1997" y2="117.1997"/></g><!--reverse link BMM_LITERAL_VALUE to BMM_UNITARY_VALUE--><g class="link" data-entity-1="BMM_LITERAL_VALUE" data-entity-2="BMM_UNITARY_VALUE" data-source-line="20" data-uid="lnk6" id="link_BMM_LITERAL_VALUE_BMM_UNITARY_VALUE"><path codeLine="20" d="M111.04,143.38 C111.04,164.22 111.04,168.65 111.04,184.91" fill="none" id="BMM_LITERAL_VALUE-backto-BMM_UNITARY_VALUE" style="stroke:#181818;stroke-width:1;"/><polygon fill="none" points="111.04,125.38,105.04,143.38,117.04,143.38,111.04,125.38" style="stroke:#181818;stroke-width:1;"/></g><!--reverse link BMM_UNITARY_VALUE to BMM_PRIMITIVE_VALUE--><g class="link" data-entity-1="BMM_UNITARY_VALUE" data-entity-2="BMM_PRIMITIVE_VALUE" data-source-line="22" data-uid="lnk7" id="link_BMM_UNITARY_VALUE_BMM_PRIMITIVE_VALUE"><path codeLine="22" d="M111.04,251.63 C111.04,268.75 111.04,274.17 111.04,292.96" fill="none" id="BMM_UNITARY_VALUE-backto-BMM_PRIMITIVE_VALUE" style="stroke:#181818;stroke-width:1;"/><polygon fill="none" points="111.04,233.63,105.04,251.63,117.04,251.63,111.04,233.63" style="stroke:#181818;stroke-width:1;"/></g><!--reverse link BMM_PRIMITIVE_VALUE to BMM_INTEGER_VALUE--><g class="link" data-entity-1="BMM_PRIMITIVE_VALUE" data-entity-2="BMM_INTEGER_VALUE" data-source-line="24" data-uid="lnk8" id="link_BMM_PRIMITIVE_VALUE_BMM_INTEGER_VALUE"><path codeLine="24" d="M111.04,376.22 C111.04,394.56 111.04,399.57 111.04,417.88" fill="none" id="BMM_PRIMITIVE_VALUE-backto-BMM_INTEGER_VALUE" style="stroke:#181818;stroke-width:1;"/><polygon fill="none" points="111.04,358.22,105.04,376.22,117.04,376.22,111.04,358.22" style="stroke:#181818;stroke-width:1;"/></g></g></svg>
