<svg xmlns="http://www.w3.org/2000/svg" xmlns:xlink="http://www.w3.org/1999/xlink" contentStyleType="text/css" data-diagram-type="CLASS" height="621px" preserveAspectRatio="none" style="width:339px;height:621px;background:#FFFFFF;" version="1.1" viewBox="0 0 339 621" width="339px" zoomAndPan="magnify"><defs/><g><!--class BMM_MODEL_TYPE--><g class="entity" data-entity="BMM_MODEL_TYPE" data-source-line="2" data-uid="ent0002" id="entity_BMM_MODEL_TYPE"><rect fill="#F1F1F1" height="115.1997" rx="2.5" ry="2.5" style="stroke:#181818;stroke-width:0.5;" width="325.9208" x="7" y="499"/><ellipse cx="102.0947" cy="515" fill="#A9DCDF" rx="11" ry="11" style="stroke:#181818;stroke-width:1;"/><path d="M96.6103,520.5 L98.6415,520.5 L102.6884,509.1563 L101.7822,509.1563 L105.6103,520.5 L107.7509,520.5 L103.4228,508.1719 L101.204,508.1719 L96.6103,520.5 Z M98.9384,517 L105.3759,517 L105.3759,515.25 L98.9384,515.25 L98.9384,517 Z " fill="#000000"/><text fill="#000000" font-family="sans-serif" font-size="14" font-style="italic" lengthAdjust="spacing" textLength="127.2315" x="122.5947" y="520.362">BMM_MODEL_TYPE</text><line style="stroke:#181818;stroke-width:0.5;" x1="8" x2="331.9208" y1="531" y2="531"/><ellipse cx="18" cy="544.9" fill="none" rx="3" ry="3" style="stroke:#038048;stroke-width:1;"/><text fill="#000000" font-family="sans-serif" font-size="14" lengthAdjust="spacing" textLength="299.9208" x="27" y="548.7619">value_constraint : BMM_VALUE_SET_SPEC [0..1]</text><ellipse cx="18" cy="561.6999" fill="none" rx="3" ry="3" style="stroke:#038048;stroke-width:1;"/><text fill="#000000" font-family="sans-serif" font-size="14" lengthAdjust="spacing" textLength="175.4053" x="27" y="565.5619">base_class : BMM_CLASS [1]</text><line style="stroke:#181818;stroke-width:0.5;" x1="8" x2="331.9208" y1="572.5999" y2="572.5999"/><ellipse cx="18" cy="586.4998" fill="#84BE84" rx="3" ry="3" style="stroke:#038048;stroke-width:1;"/><text fill="#000000" font-family="sans-serif" font-size="14" lengthAdjust="spacing" textLength="179.5073" x="27" y="590.3618">type_base_name() : String [1]</text><ellipse cx="18" cy="603.2997" fill="#84BE84" rx="3" ry="3" style="stroke:#038048;stroke-width:1;"/><text fill="#000000" font-family="sans-serif" font-size="14" lengthAdjust="spacing" textLength="160.1734" x="27" y="607.1617">is_primitive() : Boolean [1]</text></g><!--class BMM_EFFECTIVE_TYPE--><g class="entity" data-entity="BMM_EFFECTIVE_TYPE" data-source-line="9" data-uid="ent0003" id="entity_BMM_EFFECTIVE_TYPE"><rect fill="#F5F5F5" height="81.5999" rx="2.5" ry="2.5" style="stroke:#808080;stroke-width:1;stroke-dasharray:1,3;" width="299.3629" x="20.28" y="357.4"/><ellipse cx="91.3228" cy="373.4" fill="#A9DCDF" rx="11" ry="11" style="stroke:#181818;stroke-width:1;"/><path d="M85.8384,378.9 L87.8696,378.9 L91.9165,367.5563 L91.0103,367.5563 L94.8384,378.9 L96.979,378.9 L92.6509,366.5719 L90.4321,366.5719 L85.8384,378.9 Z M88.1665,375.4 L94.604,375.4 L94.604,373.65 L88.1665,373.65 L88.1665,375.4 Z " fill="#000000"/><text fill="#808080" font-family="sans-serif" font-size="14" font-style="italic" lengthAdjust="spacing" textLength="148.7774" x="111.8228" y="378.762">BMM_EFFECTIVE_TYPE</text><line style="stroke:#808080;stroke-width:1;stroke-dasharray:1,3;" x1="21.28" x2="318.6429" y1="389.4" y2="389.4"/><line style="stroke:#808080;stroke-width:1;stroke-dasharray:1,3;" x1="21.28" x2="318.6429" y1="397.4" y2="397.4"/><ellipse cx="31.28" cy="411.3" fill="#84BE84" rx="3" ry="3" style="stroke:#038048;stroke-width:1;"/><text fill="#808080" font-family="sans-serif" font-size="14" lengthAdjust="spacing" textLength="273.3629" x="40.28" y="415.1619">effective_type() : BMM_EFFECTIVE_TYPE [1]</text><ellipse cx="31.28" cy="428.0999" fill="#84BE84" rx="3" ry="3" style="stroke:#038048;stroke-width:1;"/><text fill="#808080" font-family="sans-serif" font-size="14" font-style="italic" lengthAdjust="spacing" textLength="179.5073" x="40.28" y="431.9619">type_base_name() : String [1]</text></g><!--class BMM_UNITARY_TYPE--><g class="entity" data-entity="BMM_UNITARY_TYPE" data-source-line="14" data-uid="ent0004" id="entity_BMM_UNITARY_TYPE"><rect fill="#F5F5F5" height="64.7999" rx="2.5" ry="2.5" style="stroke:#808080;stroke-width:1;stroke-dasharray:1,3;" width="277.019" x="31.45" y="232.6"/><ellipse cx="97.4738" cy="248.6" fill="#A9DCDF" rx="11" ry="11" style="stroke:#181818;stroke-width:1;"/><path d="M91.9894,254.1 L94.0207,254.1 L98.0675,242.7563 L97.1613,242.7563 L100.9894,254.1 L103.13,254.1 L98.8019,241.7719 L96.5832,241.7719 L91.9894,254.1 Z M94.3175,250.6 L100.755,250.6 L100.755,248.85 L94.3175,248.85 L94.3175,250.6 Z " fill="#000000"/><text fill="#808080" font-family="sans-serif" font-size="14" font-style="italic" lengthAdjust="spacing" textLength="136.4714" x="117.9738" y="253.962">BMM_UNITARY_TYPE</text><line style="stroke:#808080;stroke-width:1;stroke-dasharray:1,3;" x1="32.45" x2="307.469" y1="264.6" y2="264.6"/><line style="stroke:#808080;stroke-width:1;stroke-dasharray:1,3;" x1="32.45" x2="307.469" y1="272.6" y2="272.6"/><ellipse cx="42.45" cy="286.5" fill="#84BE84" rx="3" ry="3" style="stroke:#038048;stroke-width:1;"/><text fill="#808080" font-family="sans-serif" font-size="14" lengthAdjust="spacing" textLength="251.019" x="51.45" y="290.3619">unitary_type() : BMM_UNITARY_TYPE [1]</text></g><!--class BMM_TYPE--><g class="entity" data-entity="BMM_TYPE" data-source-line="18" data-uid="ent0005" id="entity_BMM_TYPE"><rect fill="#F5F5F5" height="165.5995" rx="2.5" ry="2.5" style="stroke:#808080;stroke-width:1;stroke-dasharray:1,3;" width="299.3629" x="20.28" y="7"/><ellipse cx="129.5356" cy="23" fill="#A9DCDF" rx="11" ry="11" style="stroke:#181818;stroke-width:1;"/><path d="M124.0512,28.5 L126.0825,28.5 L130.1294,17.1563 L129.2231,17.1563 L133.0512,28.5 L135.1919,28.5 L130.8637,16.1719 L128.645,16.1719 L124.0512,28.5 Z M126.3794,25 L132.8169,25 L132.8169,23.25 L126.3794,23.25 L126.3794,25 Z " fill="#000000"/><text fill="#808080" font-family="sans-serif" font-size="14" font-style="italic" lengthAdjust="spacing" textLength="72.3517" x="150.0356" y="28.362">BMM_TYPE</text><line style="stroke:#808080;stroke-width:1;stroke-dasharray:1,3;" x1="21.28" x2="318.6429" y1="39" y2="39"/><line style="stroke:#808080;stroke-width:1;stroke-dasharray:1,3;" x1="21.28" x2="318.6429" y1="47" y2="47"/><ellipse cx="31.28" cy="60.9" fill="#84BE84" rx="3" ry="3" style="stroke:#038048;stroke-width:1;"/><text fill="#808080" font-family="sans-serif" font-size="14" font-style="italic" lengthAdjust="spacing" textLength="143.4715" x="40.28" y="64.7619">type_name() : String [1]</text><ellipse cx="31.28" cy="77.6999" fill="#84BE84" rx="3" ry="3" style="stroke:#038048;stroke-width:1;"/><text fill="#808080" font-family="sans-serif" font-size="14" lengthAdjust="spacing" textLength="167.1314" x="40.28" y="81.5619">type_signature() : String [1]</text><ellipse cx="31.28" cy="94.4998" fill="#84BE84" rx="3" ry="3" style="stroke:#038048;stroke-width:1;"/><text fill="#808080" font-family="sans-serif" font-size="14" font-style="italic" lengthAdjust="spacing" textLength="155.7354" x="40.28" y="98.3618">is_abstract() : Boolean [1]</text><ellipse cx="31.28" cy="111.2997" fill="#84BE84" rx="3" ry="3" style="stroke:#038048;stroke-width:1;"/><text fill="#808080" font-family="sans-serif" font-size="14" font-style="italic" lengthAdjust="spacing" textLength="160.1734" x="40.28" y="115.1617">is_primitive() : Boolean [1]</text><ellipse cx="31.28" cy="128.0997" fill="#84BE84" rx="3" ry="3" style="stroke:#038048;stroke-width:1;"/><text fill="#808080" font-family="sans-serif" font-size="14" font-style="italic" lengthAdjust="spacing" textLength="251.019" x="40.28" y="131.9616">unitary_type() : BMM_UNITARY_TYPE [1]</text><ellipse cx="31.28" cy="144.8996" fill="#84BE84" rx="3" ry="3" style="stroke:#038048;stroke-width:1;"/><text fill="#808080" font-family="sans-serif" font-size="14" font-style="italic" lengthAdjust="spacing" textLength="273.3629" x="40.28" y="148.7616">effective_type() : BMM_EFFECTIVE_TYPE [1]</text><ellipse cx="31.28" cy="161.6995" fill="#84BE84" rx="3" ry="3" style="stroke:#038048;stroke-width:1;"/><text fill="#808080" font-family="sans-serif" font-size="14" font-style="italic" lengthAdjust="spacing" textLength="243.1371" x="40.28" y="165.5615">flattened_type_list() : List&lt;String&gt; [1..*]</text></g><!--reverse link BMM_TYPE to BMM_UNITARY_TYPE--><g class="link" data-entity-1="BMM_TYPE" data-entity-2="BMM_UNITARY_TYPE" data-source-line="28" data-uid="lnk6" id="link_BMM_TYPE_BMM_UNITARY_TYPE"><path codeLine="28" d="M169.96,191.09 C169.96,212.21 169.96,215.68 169.96,232.44" fill="none" id="BMM_TYPE-backto-BMM_UNITARY_TYPE" style="stroke:#181818;stroke-width:1;"/><polygon fill="none" points="169.96,173.09,163.96,191.09,175.96,191.09,169.96,173.09" style="stroke:#181818;stroke-width:1;"/></g><!--reverse link BMM_UNITARY_TYPE to BMM_EFFECTIVE_TYPE--><g class="link" data-entity-1="BMM_UNITARY_TYPE" data-entity-2="BMM_EFFECTIVE_TYPE" data-source-line="30" data-uid="lnk7" id="link_BMM_UNITARY_TYPE_BMM_EFFECTIVE_TYPE"><path codeLine="30" d="M169.96,315.76 C169.96,333.66 169.96,338.18 169.96,357.27" fill="none" id="BMM_UNITARY_TYPE-backto-BMM_EFFECTIVE_TYPE" style="stroke:#181818;stroke-width:1;"/><polygon fill="none" points="169.96,297.76,163.96,315.76,175.96,315.76,169.96,297.76" style="stroke:#181818;stroke-width:1;"/></g><!--reverse link BMM_EFFECTIVE_TYPE to BMM_MODEL_TYPE--><g class="link" data-entity-1="BMM_EFFECTIVE_TYPE" data-entity-2="BMM_MODEL_TYPE" data-source-line="32" data-uid="lnk8" id="link_BMM_EFFECTIVE_TYPE_BMM_MODEL_TYPE"><path codeLine="32" d="M169.96,457.48 C169.96,475.49 169.96,479.04 169.96,498.66" fill="none" id="BMM_EFFECTIVE_TYPE-backto-BMM_MODEL_TYPE" style="stroke:#181818;stroke-width:1;"/><polygon fill="none" points="169.96,439.48,163.96,457.48,175.96,457.48,169.96,439.48" style="stroke:#181818;stroke-width:1;"/></g></g></svg>
