<svg xmlns="http://www.w3.org/2000/svg" xmlns:xlink="http://www.w3.org/1999/xlink" contentStyleType="text/css" data-diagram-type="CLASS" height="220px" preserveAspectRatio="none" style="width:275px;height:220px;background:#FFFFFF;" version="1.1" viewBox="0 0 275 220" width="275px" zoomAndPan="magnify"><defs/><g><!--class EL_CONSTRAINED--><g class="entity" data-entity="EL_CONSTRAINED" data-source-line="2" data-uid="ent0002" id="entity_EL_CONSTRAINED"><rect fill="#F1F1F1" height="64.7999" rx="2.5" ry="2.5" style="stroke:#181818;stroke-width:0.5;" width="261.773" x="7" y="148.6"/><ellipse cx="74.6828" cy="164.6" fill="#A9DCDF" rx="11" ry="11" style="stroke:#181818;stroke-width:1;"/><path d="M69.1984,170.1 L71.2296,170.1 L75.2765,158.7563 L74.3703,158.7563 L78.1984,170.1 L80.339,170.1 L76.0109,157.7719 L73.7921,157.7719 L69.1984,170.1 Z M71.5265,166.6 L77.964,166.6 L77.964,164.85 L71.5265,164.85 L71.5265,166.6 Z " fill="#000000"/><text fill="#000000" font-family="sans-serif" font-size="14" font-style="italic" lengthAdjust="spacing" textLength="117.9075" x="95.1828" y="169.962">EL_CONSTRAINED</text><line style="stroke:#181818;stroke-width:0.5;" x1="8" x2="267.773" y1="180.6" y2="180.6"/><ellipse cx="18" cy="194.5" fill="none" rx="3" ry="3" style="stroke:#038048;stroke-width:1;"/><text fill="#000000" font-family="sans-serif" font-size="14" lengthAdjust="spacing" textLength="235.773" x="27" y="198.3619">base_expression : EL_EXPRESSION [1]</text><line style="stroke:#181818;stroke-width:0.5;" x1="8" x2="267.773" y1="205.3999" y2="205.3999"/></g><!--class EL_EXPRESSION--><g class="entity" data-entity="EL_EXPRESSION" data-source-line="6" data-uid="ent0003" id="entity_EL_EXPRESSION"><rect fill="#F5F5F5" height="81.5999" rx="2.5" ry="2.5" style="stroke:#808080;stroke-width:1;stroke-dasharray:1,3;" width="194.6573" x="40.56" y="7"/><ellipse cx="81.8399" cy="23" fill="#A9DCDF" rx="11" ry="11" style="stroke:#181818;stroke-width:1;"/><path d="M76.3555,28.5 L78.3868,28.5 L82.4336,17.1563 L81.5274,17.1563 L85.3555,28.5 L87.4961,28.5 L83.168,16.1719 L80.9493,16.1719 L76.3555,28.5 Z M78.6836,25 L85.1211,25 L85.1211,23.25 L78.6836,23.25 L78.6836,25 Z " fill="#000000"/><text fill="#808080" font-family="sans-serif" font-size="14" font-style="italic" lengthAdjust="spacing" textLength="104.2576" x="101.6799" y="28.362">EL_EXPRESSION</text><line style="stroke:#808080;stroke-width:1;stroke-dasharray:1,3;" x1="41.56" x2="234.2173" y1="39" y2="39"/><line style="stroke:#808080;stroke-width:1;stroke-dasharray:1,3;" x1="41.56" x2="234.2173" y1="47" y2="47"/><ellipse cx="51.56" cy="60.9" fill="#84BE84" rx="3" ry="3" style="stroke:#038048;stroke-width:1;"/><text fill="#808080" font-family="sans-serif" font-size="14" font-style="italic" lengthAdjust="spacing" textLength="168.6573" x="60.56" y="64.7619">eval_type() : BMM_TYPE [1]</text><ellipse cx="51.56" cy="77.6999" fill="#84BE84" rx="3" ry="3" style="stroke:#038048;stroke-width:1;"/><text fill="#808080" font-family="sans-serif" font-size="14" lengthAdjust="spacing" textLength="155.2454" x="60.56" y="81.5619">is_boolean() : Boolean [1]</text></g><!--reverse link EL_EXPRESSION to EL_CONSTRAINED--><g class="link" data-entity-1="EL_EXPRESSION" data-entity-2="EL_CONSTRAINED" data-source-line="11" data-uid="lnk4" id="link_EL_EXPRESSION_EL_CONSTRAINED"><path codeLine="11" d="M137.89,106.88 C137.89,126.02 137.89,130.59 137.89,148.49" fill="none" id="EL_EXPRESSION-backto-EL_CONSTRAINED" style="stroke:#181818;stroke-width:1;"/><polygon fill="none" points="137.89,88.88,131.89,106.88,143.89,106.88,137.89,88.88" style="stroke:#181818;stroke-width:1;"/></g></g></svg>
