<svg xmlns="http://www.w3.org/2000/svg" xmlns:xlink="http://www.w3.org/1999/xlink" contentStyleType="text/css" data-diagram-type="CLASS" height="911px" preserveAspectRatio="none" style="width:271px;height:911px;background:#FFFFFF;" version="1.1" viewBox="0 0 271 911" width="271px" zoomAndPan="magnify"><defs/><g><!--class BMM_INDEXED_CONTAINER_TYPE--><g class="entity" data-entity="BMM_INDEXED_CONTAINER_TYPE" data-source-line="2" data-uid="ent0002" id="entity_BMM_INDEXED_CONTAINER_TYPE"><rect fill="#F1F1F1" height="64.7999" rx="2.5" ry="2.5" style="stroke:#181818;stroke-width:0.5;" width="255.1451" x="8.35" y="839.8"/><ellipse cx="23.35" cy="855.8" fill="#ADD1B2" rx="11" ry="11" style="stroke:#181818;stroke-width:1;"/><path d="M23.35,862.2219 C24.5219,862.2219 25.7563,861.9563 27.1313,861.3469 L26.6469,859.8313 C25.5531,860.2531 24.5375,860.4406 23.6781,860.4406 C20.9594,860.4406 19.2406,858.5969 19.2406,855.6906 C19.2406,852.9406 20.8031,851.3469 23.5375,851.3469 C24.4594,851.3469 25.475,851.5344 26.6156,851.9563 L27.1938,850.4406 C26.1,849.8625 24.8031,849.5656 23.6156,849.5656 C19.85,849.5656 17.2719,852.2063 17.2719,856.0188 C17.2719,859.6906 19.7563,862.2219 23.35,862.2219 Z " fill="#000000"/><text fill="#000000" font-family="sans-serif" font-size="14" lengthAdjust="spacing" textLength="223.1451" x="37.35" y="861.162">BMM_INDEXED_CONTAINER_TYPE</text><line style="stroke:#181818;stroke-width:0.5;" x1="9.35" x2="262.4951" y1="871.8" y2="871.8"/><ellipse cx="19.35" cy="885.7" fill="none" rx="3" ry="3" style="stroke:#038048;stroke-width:1;"/><text fill="#000000" font-family="sans-serif" font-size="14" lengthAdjust="spacing" textLength="222.4031" x="28.35" y="889.5619">index_type : BMM_SIMPLE_TYPE [1]</text><line style="stroke:#181818;stroke-width:0.5;" x1="9.35" x2="262.4951" y1="896.5999" y2="896.5999"/></g><!--class BMM_CONTAINER_TYPE--><g class="entity" data-entity="BMM_CONTAINER_TYPE" data-source-line="6" data-uid="ent0003" id="entity_BMM_CONTAINER_TYPE"><rect fill="#F5F5F5" height="98.3998" rx="2.5" ry="2.5" style="stroke:#808080;stroke-width:1;stroke-dasharray:1,3;" width="227.6272" x="22.11" y="681.4"/><ellipse cx="54.3557" cy="697.4" fill="#ADD1B2" rx="11" ry="11" style="stroke:#181818;stroke-width:1;"/><path d="M54.3557,703.8219 C55.5276,703.8219 56.762,703.5563 58.137,702.9469 L57.6526,701.4313 C56.5589,701.8531 55.5432,702.0406 54.6839,702.0406 C51.9651,702.0406 50.2464,700.1969 50.2464,697.2906 C50.2464,694.5406 51.8089,692.9469 54.5432,692.9469 C55.4651,692.9469 56.4807,693.1344 57.6214,693.5563 L58.1995,692.0406 C57.1057,691.4625 55.8089,691.1656 54.6214,691.1656 C50.8557,691.1656 48.2776,693.8063 48.2776,697.6188 C48.2776,701.2906 50.762,703.8219 54.3557,703.8219 Z " fill="#000000"/><text fill="#808080" font-family="sans-serif" font-size="14" lengthAdjust="spacing" textLength="157.3033" x="72.1881" y="702.762">BMM_CONTAINER_TYPE</text><line style="stroke:#808080;stroke-width:1;stroke-dasharray:1,3;" x1="23.11" x2="248.7372" y1="713.4" y2="713.4"/><ellipse cx="33.11" cy="727.3" fill="none" rx="3" ry="3" style="stroke:#038048;stroke-width:1;"/><text fill="#808080" font-family="sans-serif" font-size="14" lengthAdjust="spacing" textLength="201.6272" x="42.11" y="731.1619">container_type : BMM_CLASS [1]</text><ellipse cx="33.11" cy="744.0999" fill="none" rx="3" ry="3" style="stroke:#038048;stroke-width:1;"/><text fill="#808080" font-family="sans-serif" font-size="14" lengthAdjust="spacing" textLength="164.0933" x="42.11" y="747.9619">base_type : BMM_TYPE [1]</text><line style="stroke:#808080;stroke-width:1;stroke-dasharray:1,3;" x1="23.11" x2="248.7372" y1="754.9999" y2="754.9999"/><ellipse cx="33.11" cy="768.8998" fill="#84BE84" rx="3" ry="3" style="stroke:#038048;stroke-width:1;"/><text fill="#808080" font-family="sans-serif" font-size="14" lengthAdjust="spacing" textLength="143.4715" x="42.11" y="772.7618">type_name() : String [1]</text></g><!--class BMM_TYPE--><g class="entity" data-entity="BMM_TYPE" data-source-line="12" data-uid="ent0004" id="entity_BMM_TYPE"><rect fill="#F5F5F5" height="81.5999" rx="2.5" ry="2.5" style="stroke:#808080;stroke-width:1;stroke-dasharray:1,3;" width="257.8391" x="7" y="539.8"/><ellipse cx="95.4937" cy="555.8" fill="#A9DCDF" rx="11" ry="11" style="stroke:#181818;stroke-width:1;"/><path d="M90.0093,561.3 L92.0406,561.3 L96.0874,549.9563 L95.1812,549.9563 L99.0093,561.3 L101.1499,561.3 L96.8218,548.9719 L94.6031,548.9719 L90.0093,561.3 Z M92.3374,557.8 L98.7749,557.8 L98.7749,556.05 L92.3374,556.05 L92.3374,557.8 Z " fill="#000000"/><text fill="#808080" font-family="sans-serif" font-size="14" font-style="italic" lengthAdjust="spacing" textLength="72.3517" x="115.9937" y="561.162">BMM_TYPE</text><line style="stroke:#808080;stroke-width:1;stroke-dasharray:1,3;" x1="8" x2="263.8391" y1="571.8" y2="571.8"/><line style="stroke:#808080;stroke-width:1;stroke-dasharray:1,3;" x1="8" x2="263.8391" y1="579.8" y2="579.8"/><ellipse cx="18" cy="593.7" fill="#84BE84" rx="3" ry="3" style="stroke:#038048;stroke-width:1;"/><text fill="#808080" font-family="sans-serif" font-size="14" lengthAdjust="spacing" textLength="231.8391" x="27" y="597.5619">has_type_substitutions() : Boolean [1]</text><ellipse cx="18" cy="610.4999" fill="#84BE84" rx="3" ry="3" style="stroke:#038048;stroke-width:1;"/><text fill="#808080" font-family="sans-serif" font-size="14" lengthAdjust="spacing" textLength="228.5491" x="27" y="614.3619">type_substitutions() : List&lt;String&gt; [*]</text></g><!--class BMM_TYPE_ELEMENT--><g class="entity" data-entity="BMM_TYPE_ELEMENT" data-source-line="17" data-uid="ent0005" id="entity_BMM_TYPE_ELEMENT"><rect fill="#F5F5F5" height="48" rx="2.5" ry="2.5" style="stroke:#808080;stroke-width:1;stroke-dasharray:1,3;" width="173.4134" x="49.21" y="431.8"/><ellipse cx="64.21" cy="447.8" fill="#A9DCDF" rx="11" ry="11" style="stroke:#181818;stroke-width:1;"/><path d="M58.7256,453.3 L60.7569,453.3 L64.8038,441.9563 L63.8975,441.9563 L67.7256,453.3 L69.8663,453.3 L65.5381,440.9719 L63.3194,440.9719 L58.7256,453.3 Z M61.0538,449.8 L67.4913,449.8 L67.4913,448.05 L61.0538,448.05 L61.0538,449.8 Z " fill="#000000"/><text fill="#808080" font-family="sans-serif" font-size="14" font-style="italic" lengthAdjust="spacing" textLength="141.4134" x="78.21" y="453.162">BMM_TYPE_ELEMENT</text><line style="stroke:#808080;stroke-width:1;stroke-dasharray:1,3;" x1="50.21" x2="221.6234" y1="463.8" y2="463.8"/><line style="stroke:#808080;stroke-width:1;stroke-dasharray:1,3;" x1="50.21" x2="221.6234" y1="471.8" y2="471.8"/></g><!--class BMM_CLASSIFIER--><g class="entity" data-entity="BMM_CLASSIFIER" data-source-line="20" data-uid="ent0006" id="entity_BMM_CLASSIFIER"><rect fill="#F5F5F5" height="131.9996" rx="2.5" ry="2.5" style="stroke:#808080;stroke-width:1;stroke-dasharray:1,3;" width="256.0471" x="7.9" y="239.8"/><ellipse cx="75.4498" cy="255.8" fill="#A9DCDF" rx="11" ry="11" style="stroke:#181818;stroke-width:1;"/><path d="M69.9654,261.3 L71.9966,261.3 L76.0435,249.9563 L75.1373,249.9563 L78.9654,261.3 L81.106,261.3 L76.7779,248.9719 L74.5591,248.9719 L69.9654,261.3 Z M72.2935,257.8 L78.731,257.8 L78.731,256.05 L72.2935,256.05 L72.2935,257.8 Z " fill="#000000"/><text fill="#808080" font-family="sans-serif" font-size="14" font-style="italic" lengthAdjust="spacing" textLength="112.4476" x="95.9498" y="261.162">BMM_CLASSIFIER</text><line style="stroke:#808080;stroke-width:1;stroke-dasharray:1,3;" x1="8.9" x2="262.9471" y1="271.8" y2="271.8"/><line style="stroke:#808080;stroke-width:1;stroke-dasharray:1,3;" x1="8.9" x2="262.9471" y1="279.8" y2="279.8"/><ellipse cx="18.9" cy="293.7" fill="#84BE84" rx="3" ry="3" style="stroke:#038048;stroke-width:1;"/><text fill="#808080" font-family="sans-serif" font-size="14" lengthAdjust="spacing" textLength="143.4715" x="27.9" y="297.5619">type_name() : String [1]</text><ellipse cx="18.9" cy="310.4999" fill="#84BE84" rx="3" ry="3" style="stroke:#038048;stroke-width:1;"/><text fill="#808080" font-family="sans-serif" font-size="14" lengthAdjust="spacing" textLength="162.6374" x="27.9" y="314.3619">type_category() : String [1]</text><ellipse cx="18.9" cy="327.2998" fill="#84BE84" rx="3" ry="3" style="stroke:#038048;stroke-width:1;"/><text fill="#808080" font-family="sans-serif" font-size="14" lengthAdjust="spacing" textLength="167.1314" x="27.9" y="331.1618">type_signature() : String [1]</text><ellipse cx="18.9" cy="344.0997" fill="#84BE84" rx="3" ry="3" style="stroke:#038048;stroke-width:1;"/><text fill="#808080" font-family="sans-serif" font-size="14" lengthAdjust="spacing" textLength="183.8333" x="27.9" y="347.9617">base_class() : BMM_CLASS [1]</text><ellipse cx="18.9" cy="360.8997" fill="#84BE84" rx="3" ry="3" style="stroke:#038048;stroke-width:1;"/><text fill="#808080" font-family="sans-serif" font-size="14" lengthAdjust="spacing" textLength="230.0471" x="27.9" y="364.7616">flattened_type_list() : List&lt;String&gt; [*]</text></g><!--class BMM_MODEL_ELEMENT--><g class="entity" data-entity="BMM_MODEL_ELEMENT" data-source-line="28" data-uid="ent0007" id="entity_BMM_MODEL_ELEMENT"><rect fill="#F5F5F5" height="64.7999" rx="2.5" ry="2.5" style="stroke:#808080;stroke-width:1;stroke-dasharray:1,3;" width="202.3433" x="34.75" y="115"/><ellipse cx="55.8385" cy="131" fill="#A9DCDF" rx="11" ry="11" style="stroke:#181818;stroke-width:1;"/><path d="M50.3541,136.5 L52.3854,136.5 L56.4322,125.1563 L55.526,125.1563 L59.3541,136.5 L61.4947,136.5 L57.1666,124.1719 L54.9479,124.1719 L50.3541,136.5 Z M52.6822,133 L59.1197,133 L59.1197,131.25 L52.6822,131.25 L52.6822,133 Z " fill="#000000"/><text fill="#808080" font-family="sans-serif" font-size="14" font-style="italic" lengthAdjust="spacing" textLength="156.8134" x="71.1915" y="136.362">BMM_MODEL_ELEMENT</text><line style="stroke:#808080;stroke-width:1;stroke-dasharray:1,3;" x1="35.75" x2="236.0933" y1="147" y2="147"/><ellipse cx="45.75" cy="160.9" fill="none" rx="3" ry="3" style="stroke:#038048;stroke-width:1;"/><text fill="#808080" font-family="sans-serif" font-size="14" lengthAdjust="spacing" textLength="176.3433" x="54.75" y="164.7619">documentation : String [0..1]</text><line style="stroke:#808080;stroke-width:1;stroke-dasharray:1,3;" x1="35.75" x2="236.0933" y1="171.7999" y2="171.7999"/></g><!--class BMM_DEFINITIONS--><g class="entity" data-entity="BMM_DEFINITIONS" data-source-line="32" data-uid="ent0008" id="entity_BMM_DEFINITIONS"><rect fill="#F5F5F5" height="48" rx="2.5" ry="2.5" style="stroke:#808080;stroke-width:1;stroke-dasharray:1,3;" width="156.4035" x="57.72" y="7"/><ellipse cx="72.72" cy="23" fill="#ADD1B2" rx="11" ry="11" style="stroke:#181818;stroke-width:1;"/><path d="M72.72,29.4219 C73.8919,29.4219 75.1263,29.1563 76.5013,28.5469 L76.0169,27.0313 C74.9231,27.4531 73.9075,27.6406 73.0481,27.6406 C70.3294,27.6406 68.6106,25.7969 68.6106,22.8906 C68.6106,20.1406 70.1731,18.5469 72.9075,18.5469 C73.8294,18.5469 74.845,18.7344 75.9856,19.1563 L76.5638,17.6406 C75.47,17.0625 74.1731,16.7656 72.9856,16.7656 C69.22,16.7656 66.6419,19.4063 66.6419,23.2188 C66.6419,26.8906 69.1263,29.4219 72.72,29.4219 Z " fill="#000000"/><text fill="#808080" font-family="sans-serif" font-size="14" lengthAdjust="spacing" textLength="124.4035" x="86.72" y="28.362">BMM_DEFINITIONS</text><line style="stroke:#808080;stroke-width:1;stroke-dasharray:1,3;" x1="58.72" x2="213.1235" y1="39" y2="39"/><line style="stroke:#808080;stroke-width:1;stroke-dasharray:1,3;" x1="58.72" x2="213.1235" y1="47" y2="47"/></g><!--reverse link BMM_DEFINITIONS to BMM_MODEL_ELEMENT--><g class="link" data-entity-1="BMM_DEFINITIONS" data-entity-2="BMM_MODEL_ELEMENT" data-source-line="35" data-uid="lnk9" id="link_BMM_DEFINITIONS_BMM_MODEL_ELEMENT"><path codeLine="35" d="M135.92,73.43 C135.92,90.55 135.92,95.97 135.92,114.76" fill="none" id="BMM_DEFINITIONS-backto-BMM_MODEL_ELEMENT" style="stroke:#181818;stroke-width:1;"/><polygon fill="none" points="135.92,55.43,129.92,73.43,141.92,73.43,135.92,55.43" style="stroke:#181818;stroke-width:1;"/></g><!--reverse link BMM_MODEL_ELEMENT to BMM_CLASSIFIER--><g class="link" data-entity-1="BMM_MODEL_ELEMENT" data-entity-2="BMM_CLASSIFIER" data-source-line="37" data-uid="lnk10" id="link_BMM_MODEL_ELEMENT_BMM_CLASSIFIER"><path codeLine="37" d="M135.92,198.05 C135.92,215.19 135.92,219.02 135.92,239.61" fill="none" id="BMM_MODEL_ELEMENT-backto-BMM_CLASSIFIER" style="stroke:#181818;stroke-width:1;"/><polygon fill="none" points="135.92,180.05,129.92,198.05,141.92,198.05,135.92,180.05" style="stroke:#181818;stroke-width:1;"/></g><!--reverse link BMM_CLASSIFIER to BMM_TYPE_ELEMENT--><g class="link" data-entity-1="BMM_CLASSIFIER" data-entity-2="BMM_TYPE_ELEMENT" data-source-line="39" data-uid="lnk11" id="link_BMM_CLASSIFIER_BMM_TYPE_ELEMENT"><path codeLine="39" d="M135.92,390.15 C135.92,411.36 135.92,415.54 135.92,431.58" fill="none" id="BMM_CLASSIFIER-backto-BMM_TYPE_ELEMENT" style="stroke:#181818;stroke-width:1;"/><polygon fill="none" points="135.92,372.15,129.92,390.15,141.92,390.15,135.92,372.15" style="stroke:#181818;stroke-width:1;"/></g><!--reverse link BMM_TYPE_ELEMENT to BMM_TYPE--><g class="link" data-entity-1="BMM_TYPE_ELEMENT" data-entity-2="BMM_TYPE" data-source-line="41" data-uid="lnk12" id="link_BMM_TYPE_ELEMENT_BMM_TYPE"><path codeLine="41" d="M135.92,498.19 C135.92,514.89 135.92,519.78 135.92,539.38" fill="none" id="BMM_TYPE_ELEMENT-backto-BMM_TYPE" style="stroke:#181818;stroke-width:1;"/><polygon fill="none" points="135.92,480.19,129.92,498.19,141.92,498.19,135.92,480.19" style="stroke:#181818;stroke-width:1;"/></g><!--reverse link BMM_TYPE to BMM_CONTAINER_TYPE--><g class="link" data-entity-1="BMM_TYPE" data-entity-2="BMM_CONTAINER_TYPE" data-source-line="43" data-uid="lnk13" id="link_BMM_TYPE_BMM_CONTAINER_TYPE"><path codeLine="43" d="M135.92,639.65 C135.92,657.97 135.92,661.84 135.92,681.08" fill="none" id="BMM_TYPE-backto-BMM_CONTAINER_TYPE" style="stroke:#181818;stroke-width:1;"/><polygon fill="none" points="135.92,621.65,129.92,639.65,141.92,639.65,135.92,621.65" style="stroke:#181818;stroke-width:1;"/></g><!--reverse link BMM_CONTAINER_TYPE to BMM_INDEXED_CONTAINER_TYPE--><g class="link" data-entity-1="BMM_CONTAINER_TYPE" data-entity-2="BMM_INDEXED_CONTAINER_TYPE" data-source-line="45" data-uid="lnk14" id="link_BMM_CONTAINER_TYPE_BMM_INDEXED_CONTAINER_TYPE"><path codeLine="45" d="M135.92,798.03 C135.92,817.72 135.92,821.92 135.92,839.48" fill="none" id="BMM_CONTAINER_TYPE-backto-BMM_INDEXED_CONTAINER_TYPE" style="stroke:#181818;stroke-width:1;"/><polygon fill="none" points="135.92,780.03,129.92,798.03,141.92,798.03,135.92,780.03" style="stroke:#181818;stroke-width:1;"/></g></g></svg>
