<svg xmlns="http://www.w3.org/2000/svg" xmlns:xlink="http://www.w3.org/1999/xlink" contentStyleType="text/css" data-diagram-type="CLASS" height="815px" preserveAspectRatio="none" style="width:947px;height:815px;background:#FFFFFF;" version="1.1" viewBox="0 0 947 815" width="947px" zoomAndPan="magnify"><defs/><g><!--class BMM_MODEL--><g class="entity" data-entity="BMM_MODEL" data-source-line="2" data-uid="ent0002" id="entity_BMM_MODEL"><rect fill="#F1F1F1" height="417.5984" rx="2.5" ry="2.5" style="stroke:#181818;stroke-width:0.5;" width="933.2941" x="7" y="391"/><ellipse cx="425.5212" cy="407" fill="#ADD1B2" rx="11" ry="11" style="stroke:#181818;stroke-width:1;"/><path d="M425.5212,413.4219 C426.6931,413.4219 427.9275,413.1563 429.3025,412.5469 L428.8181,411.0313 C427.7243,411.4531 426.7087,411.6406 425.8493,411.6406 C423.1306,411.6406 421.4118,409.7969 421.4118,406.8906 C421.4118,404.1406 422.9743,402.5469 425.7087,402.5469 C426.6306,402.5469 427.6462,402.7344 428.7868,403.1563 L429.365,401.6406 C428.2712,401.0625 426.9743,400.7656 425.7868,400.7656 C422.0212,400.7656 419.4431,403.4063 419.4431,407.2188 C419.4431,410.8906 421.9275,413.4219 425.5212,413.4219 Z " fill="#000000"/><text fill="#000000" font-family="sans-serif" font-size="14" lengthAdjust="spacing" textLength="87.7516" x="446.0212" y="412.362">BMM_MODEL</text><line style="stroke:#181818;stroke-width:0.5;" x1="8" x2="939.2941" y1="423" y2="423"/><ellipse cx="18" cy="436.9" fill="none" rx="3" ry="3" style="stroke:#038048;stroke-width:1;"/><text fill="#000000" font-family="sans-serif" font-size="14" lengthAdjust="spacing" textLength="208.3612" x="27" y="440.7619">class_definitions : List&lt;String&gt; [*]</text><ellipse cx="18" cy="453.6999" fill="none" rx="3" ry="3" style="stroke:#038048;stroke-width:1;"/><text fill="#000000" font-family="sans-serif" font-size="14" lengthAdjust="spacing" textLength="238.041" x="27" y="457.5619">used_models : List&lt;BMM_MODEL&gt; [*]</text><ellipse cx="18" cy="470.4998" fill="none" rx="3" ry="3" style="stroke:#038048;stroke-width:1;"/><text fill="#000000" font-family="sans-serif" font-size="14" lengthAdjust="spacing" textLength="284.3248" x="27" y="474.3618">modules : Hash&lt;String,BMM_MODULE&gt; [0..1]</text><line style="stroke:#181818;stroke-width:0.5;" x1="8" x2="939.2941" y1="481.3998" y2="481.3998"/><ellipse cx="18" cy="495.2997" fill="#84BE84" rx="3" ry="3" style="stroke:#038048;stroke-width:1;"/><text fill="#000000" font-family="sans-serif" font-size="14" lengthAdjust="spacing" textLength="132.4395" x="27" y="499.1617">model_id() : String [1]</text><ellipse cx="18" cy="512.0997" fill="#84BE84" rx="3" ry="3" style="stroke:#038048;stroke-width:1;"/><text fill="#000000" font-family="sans-serif" font-size="14" lengthAdjust="spacing" textLength="335.3407" x="27" y="515.9616">class_definition( a_name : String [1] ) : BMM_CLASS [1]</text><ellipse cx="18" cy="528.8996" fill="#84BE84" rx="3" ry="3" style="stroke:#038048;stroke-width:1;"/><text fill="#000000" font-family="sans-serif" font-size="14" lengthAdjust="spacing" textLength="210.6992" x="27" y="532.7616">type_definition() : BMM_CLASS [1]</text><ellipse cx="18" cy="545.6995" fill="#84BE84" rx="3" ry="3" style="stroke:#038048;stroke-width:1;"/><text fill="#000000" font-family="sans-serif" font-size="14" lengthAdjust="spacing" textLength="372.3846" x="27" y="549.5615">has_class_definition( a_class_name : String [1] ) : Boolean [1]</text><ellipse cx="18" cy="562.4995" fill="#84BE84" rx="3" ry="3" style="stroke:#038048;stroke-width:1;"/><text fill="#000000" font-family="sans-serif" font-size="14" lengthAdjust="spacing" textLength="365.5247" x="27" y="566.3614">has_type_definition( a_type_name : String [1] ) : Boolean [1]</text><ellipse cx="18" cy="579.2994" fill="#84BE84" rx="3" ry="3" style="stroke:#038048;stroke-width:1;"/><text fill="#000000" font-family="sans-serif" font-size="14" lengthAdjust="spacing" textLength="442.6642" x="27" y="583.1614">enumeration_definition( a_name : String [1] ) : BMM_ENUMERATION [1]</text><ellipse cx="18" cy="596.0993" fill="#84BE84" rx="3" ry="3" style="stroke:#038048;stroke-width:1;"/><text fill="#000000" font-family="sans-serif" font-size="14" lengthAdjust="spacing" textLength="209.2012" x="27" y="599.9613">primitive_types() : List&lt;String&gt; [*]</text><ellipse cx="18" cy="612.8992" fill="#84BE84" rx="3" ry="3" style="stroke:#038048;stroke-width:1;"/><text fill="#000000" font-family="sans-serif" font-size="14" lengthAdjust="spacing" textLength="233.7851" x="27" y="616.7612">enumeration_types() : List&lt;String&gt; [*]</text><ellipse cx="18" cy="629.6992" fill="#84BE84" rx="3" ry="3" style="stroke:#038048;stroke-width:1;"/><text fill="#000000" font-family="sans-serif" font-size="14" lengthAdjust="spacing" textLength="265.5649" x="27" y="633.5611">property_definition() : BMM_PROPERTY [1]</text><ellipse cx="18" cy="646.4991" fill="#84BE84" rx="3" ry="3" style="stroke:#038048;stroke-width:1;"/><text fill="#000000" font-family="sans-serif" font-size="14" lengthAdjust="spacing" textLength="907.2941" x="27" y="650.3611">ms_conformant_property_type( a_bmm_type_name : String [1], a_bmm_property_name : String [1], a_ms_property_name : String [1] ) : Boolean [1]</text><ellipse cx="18" cy="663.299" fill="#84BE84" rx="3" ry="3" style="stroke:#038048;stroke-width:1;"/><text fill="#000000" font-family="sans-serif" font-size="14" lengthAdjust="spacing" textLength="319.9407" x="27" y="667.161">property_definition_at_path() : BMM_PROPERTY [1]</text><ellipse cx="18" cy="680.0989" fill="#84BE84" rx="3" ry="3" style="stroke:#038048;stroke-width:1;"/><text fill="#000000" font-family="sans-serif" font-size="14" lengthAdjust="spacing" textLength="575.0477" x="27" y="683.9609">class_definition_at_path( a_type_name : String [1], a_prop_path : String [1] ) : BMM_CLASS [1]</text><ellipse cx="18" cy="696.8989" fill="#84BE84" rx="3" ry="3" style="stroke:#038048;stroke-width:1;"/><text fill="#000000" font-family="sans-serif" font-size="14" lengthAdjust="spacing" textLength="357.5026" x="27" y="700.7608">all_ancestor_classes( a_class : String [1] ) : List&lt;String&gt; [*]</text><ellipse cx="18" cy="713.6988" fill="#84BE84" rx="3" ry="3" style="stroke:#038048;stroke-width:1;"/><text fill="#000000" font-family="sans-serif" font-size="14" lengthAdjust="spacing" textLength="562.5038" x="27" y="717.5608">is_descendant_of( a_class_name : String [1], a_parent_class_name : String [1] ) : Boolean [1]</text><ellipse cx="18" cy="730.4987" fill="#84BE84" rx="3" ry="3" style="stroke:#038048;stroke-width:1;"/><text fill="#000000" font-family="sans-serif" font-size="14" lengthAdjust="spacing" textLength="500.9321" x="27" y="734.3607">type_conforms_to( a_desc_type : String [1], an_anc_type : String [1] ) : Boolean [1]</text><ellipse cx="18" cy="747.2986" fill="#84BE84" rx="3" ry="3" style="stroke:#038048;stroke-width:1;"/><text fill="#000000" font-family="sans-serif" font-size="14" lengthAdjust="spacing" textLength="295.8749" x="27" y="751.1606">subtypes( a_type : String [1] ) : List&lt;String&gt; [1..*]</text><ellipse cx="18" cy="764.0986" fill="#84BE84" rx="3" ry="3" style="stroke:#038048;stroke-width:1;"/><text fill="#000000" font-family="sans-serif" font-size="14" lengthAdjust="spacing" textLength="296.9808" x="27" y="767.9605">any_class_definition() : BMM_SIMPLE_CLASS [1]</text><ellipse cx="18" cy="780.8985" fill="#84BE84" rx="3" ry="3" style="stroke:#038048;stroke-width:1;"/><text fill="#000000" font-family="sans-serif" font-size="14" lengthAdjust="spacing" textLength="285.6689" x="27" y="784.7605">any_type_definition() : BMM_SIMPLE_TYPE [1]</text><ellipse cx="18" cy="797.6984" fill="#84BE84" rx="3" ry="3" style="stroke:#038048;stroke-width:1;"/><text fill="#000000" font-family="sans-serif" font-size="14" lengthAdjust="spacing" textLength="314.0888" x="27" y="801.5604">boolean_type_definition() : BMM_SIMPLE_TYPE [1]</text></g><!--class BMM_PACKAGE_CONTAINER--><g class="entity" data-entity="BMM_PACKAGE_CONTAINER" data-source-line="27" data-uid="ent0003" id="entity_BMM_PACKAGE_CONTAINER"><rect fill="#F5F5F5" height="131.9996" rx="2.5" ry="2.5" style="stroke:#808080;stroke-width:1;stroke-dasharray:1,3;" width="461.4402" x="60.93" y="199"/><ellipse cx="194.2305" cy="215" fill="#A9DCDF" rx="11" ry="11" style="stroke:#181818;stroke-width:1;"/><path d="M188.7461,220.5 L190.7774,220.5 L194.8243,209.1563 L193.918,209.1563 L197.7461,220.5 L199.8868,220.5 L195.5586,208.1719 L193.3399,208.1719 L188.7461,220.5 Z M191.0743,217 L197.5118,217 L197.5118,215.25 L191.0743,215.25 L191.0743,217 Z " fill="#000000"/><text fill="#808080" font-family="sans-serif" font-size="14" font-style="italic" lengthAdjust="spacing" textLength="186.3392" x="214.7305" y="220.362">BMM_PACKAGE_CONTAINER</text><line style="stroke:#808080;stroke-width:1;stroke-dasharray:1,3;" x1="61.93" x2="521.3702" y1="231" y2="231"/><ellipse cx="71.93" cy="244.9" fill="none" rx="3" ry="3" style="stroke:#038048;stroke-width:1;"/><text fill="#808080" font-family="sans-serif" font-size="14" lengthAdjust="spacing" textLength="292.3608" x="80.93" y="248.7619">packages : Hash&lt;String,BMM_PACKAGE&gt; [0..1]</text><ellipse cx="71.93" cy="261.6999" fill="none" rx="3" ry="3" style="stroke:#038048;stroke-width:1;"/><text fill="#808080" font-family="sans-serif" font-size="14" lengthAdjust="spacing" textLength="251.243" x="80.93" y="265.5619">scope : BMM_PACKAGE_CONTAINER [1]</text><line style="stroke:#808080;stroke-width:1;stroke-dasharray:1,3;" x1="61.93" x2="521.3702" y1="272.5999" y2="272.5999"/><ellipse cx="71.93" cy="286.4998" fill="#84BE84" rx="3" ry="3" style="stroke:#038048;stroke-width:1;"/><text fill="#808080" font-family="sans-serif" font-size="14" lengthAdjust="spacing" textLength="374.1766" x="80.93" y="290.3618">package_at_path( a_path : String [1] ) : BMM_PACKAGE [0..1]</text><ellipse cx="71.93" cy="303.2997" fill="#84BE84" rx="3" ry="3" style="stroke:#038048;stroke-width:1;"/><text fill="#808080" font-family="sans-serif" font-size="14" lengthAdjust="spacing" textLength="435.4402" x="80.93" y="307.1617">do_recursive_packages( action : EL_PROCEDURE_AGENT [1] ) : void [1]</text><ellipse cx="71.93" cy="320.0997" fill="#84BE84" rx="3" ry="3" style="stroke:#038048;stroke-width:1;"/><text fill="#808080" font-family="sans-serif" font-size="14" lengthAdjust="spacing" textLength="317.4908" x="80.93" y="323.9616">has_package_path( a_path : String [1] ) : Boolean [1]</text></g><!--class BMM_MODEL_ELEMENT--><g class="entity" data-entity="BMM_MODEL_ELEMENT" data-source-line="35" data-uid="ent0004" id="entity_BMM_MODEL_ELEMENT"><rect fill="#F5F5F5" height="131.9996" rx="2.5" ry="2.5" style="stroke:#808080;stroke-width:1;stroke-dasharray:1,3;" width="277.285" x="153" y="7"/><ellipse cx="208.9858" cy="23" fill="#A9DCDF" rx="11" ry="11" style="stroke:#181818;stroke-width:1;"/><path d="M203.5015,28.5 L205.5327,28.5 L209.5796,17.1563 L208.6733,17.1563 L212.5015,28.5 L214.6421,28.5 L210.314,16.1719 L208.0952,16.1719 L203.5015,28.5 Z M205.8296,25 L212.2671,25 L212.2671,23.25 L205.8296,23.25 L205.8296,25 Z " fill="#000000"/><text fill="#808080" font-family="sans-serif" font-size="14" font-style="italic" lengthAdjust="spacing" textLength="156.8134" x="229.4858" y="28.362">BMM_MODEL_ELEMENT</text><line style="stroke:#808080;stroke-width:1;stroke-dasharray:1,3;" x1="154" x2="429.285" y1="39" y2="39"/><ellipse cx="164" cy="52.9" fill="none" rx="3" ry="3" style="stroke:#038048;stroke-width:1;"/><text fill="#808080" font-family="sans-serif" font-size="14" lengthAdjust="spacing" textLength="100.8836" x="173" y="56.7619">name : String [1]</text><ellipse cx="164" cy="69.6999" fill="none" rx="3" ry="3" style="stroke:#038048;stroke-width:1;"/><text fill="#808080" font-family="sans-serif" font-size="14" lengthAdjust="spacing" textLength="251.285" x="173" y="73.5619">documentation : Hash&lt;String,Any&gt; [0..1]</text><ellipse cx="164" cy="86.4998" fill="none" rx="3" ry="3" style="stroke:#038048;stroke-width:1;"/><text fill="#808080" font-family="sans-serif" font-size="14" lengthAdjust="spacing" textLength="221.7171" x="173" y="90.3618">scope : BMM_MODEL_ELEMENT [1]</text><ellipse cx="164" cy="103.2997" fill="none" rx="3" ry="3" style="stroke:#038048;stroke-width:1;"/><text fill="#808080" font-family="sans-serif" font-size="14" lengthAdjust="spacing" textLength="223.3411" x="173" y="107.1617">extensions : Hash&lt;String,Any&gt; [0..1]</text><line style="stroke:#808080;stroke-width:1;stroke-dasharray:1,3;" x1="154" x2="429.285" y1="114.1997" y2="114.1997"/><ellipse cx="164" cy="128.0997" fill="#84BE84" rx="3" ry="3" style="stroke:#038048;stroke-width:1;"/><text fill="#808080" font-family="sans-serif" font-size="14" lengthAdjust="spacing" textLength="174.5653" x="173" y="131.9616">is_root_scope() : Boolean [1]</text></g><!--class BMM_MODEL_METADATA--><g class="entity" data-entity="BMM_MODEL_METADATA" data-source-line="47" data-uid="ent0007" id="entity_BMM_MODEL_METADATA"><rect fill="#F5F5F5" height="81.5999" rx="2.5" ry="2.5" style="stroke:#808080;stroke-width:1;stroke-dasharray:1,3;" width="199.0473" x="557.12" y="224.2"/><ellipse cx="572.12" cy="240.2" fill="#ADD1B2" rx="11" ry="11" style="stroke:#181818;stroke-width:1;"/><path d="M572.12,246.6219 C573.2919,246.6219 574.5263,246.3563 575.9013,245.7469 L575.4169,244.2313 C574.3231,244.6531 573.3075,244.8406 572.4481,244.8406 C569.7294,244.8406 568.0106,242.9969 568.0106,240.0906 C568.0106,237.3406 569.5731,235.7469 572.3075,235.7469 C573.2294,235.7469 574.245,235.9344 575.3856,236.3563 L575.9638,234.8406 C574.87,234.2625 573.5731,233.9656 572.3856,233.9656 C568.62,233.9656 566.0419,236.6063 566.0419,240.4188 C566.0419,244.0906 568.5263,246.6219 572.12,246.6219 Z " fill="#000000"/><text fill="#808080" font-family="sans-serif" font-size="14" lengthAdjust="spacing" textLength="167.0473" x="586.12" y="245.562">BMM_MODEL_METADATA</text><line style="stroke:#808080;stroke-width:1;stroke-dasharray:1,3;" x1="558.12" x2="755.1673" y1="256.2" y2="256.2"/><ellipse cx="568.12" cy="270.1" fill="none" rx="3" ry="3" style="stroke:#038048;stroke-width:1;"/><text fill="#808080" font-family="sans-serif" font-size="14" lengthAdjust="spacing" textLength="148.8894" x="577.12" y="273.9619">rm_publisher : String [1]</text><ellipse cx="568.12" cy="286.8999" fill="none" rx="3" ry="3" style="stroke:#038048;stroke-width:1;"/><text fill="#808080" font-family="sans-serif" font-size="14" lengthAdjust="spacing" textLength="135.6735" x="577.12" y="290.7619">rm_release : String [1]</text><line style="stroke:#808080;stroke-width:1;stroke-dasharray:1,3;" x1="558.12" x2="755.1673" y1="297.7999" y2="297.7999"/></g><!--reverse link BMM_MODEL_ELEMENT to BMM_PACKAGE_CONTAINER--><g class="link" data-entity-1="BMM_MODEL_ELEMENT" data-entity-2="BMM_PACKAGE_CONTAINER" data-source-line="43" data-uid="lnk5" id="link_BMM_MODEL_ELEMENT_BMM_PACKAGE_CONTAINER"><path codeLine="43" d="M291.65,157.39 C291.65,176.6 291.65,179.61 291.65,198.82" fill="none" id="BMM_MODEL_ELEMENT-backto-BMM_PACKAGE_CONTAINER" style="stroke:#181818;stroke-width:1;"/><polygon fill="none" points="291.65,139.39,285.65,157.39,297.65,157.39,291.65,139.39" style="stroke:#181818;stroke-width:1;"/></g><!--reverse link BMM_PACKAGE_CONTAINER to BMM_MODEL--><g class="link" data-entity-1="BMM_PACKAGE_CONTAINER" data-entity-2="BMM_MODEL" data-source-line="45" data-uid="lnk6" id="link_BMM_PACKAGE_CONTAINER_BMM_MODEL"><path codeLine="45" d="M336.0274,347.1523 C345.7574,364.9423 348.21,369.42 359.82,390.67" fill="none" id="BMM_PACKAGE_CONTAINER-backto-BMM_MODEL" style="stroke:#181818;stroke-width:1;"/><polygon fill="none" points="327.39,331.36,330.7633,350.0314,341.2915,344.2731,327.39,331.36" style="stroke:#181818;stroke-width:1;"/></g><!--reverse link BMM_MODEL_METADATA to BMM_MODEL--><g class="link" data-entity-1="BMM_MODEL_METADATA" data-entity-2="BMM_MODEL" data-source-line="52" data-uid="lnk8" id="link_BMM_MODEL_METADATA_BMM_MODEL"><path codeLine="52" d="M625.8947,321.9214 C613.5347,344.3914 605.76,358.55 588.08,390.7" fill="none" id="BMM_MODEL_METADATA-backto-BMM_MODEL" style="stroke:#181818;stroke-width:1;"/><polygon fill="none" points="634.57,306.15,620.6375,319.0297,631.1518,324.8132,634.57,306.15" style="stroke:#181818;stroke-width:1;"/></g></g></svg>
