<svg xmlns="http://www.w3.org/2000/svg" xmlns:xlink="http://www.w3.org/1999/xlink" contentStyleType="text/css" data-diagram-type="CLASS" height="203px" preserveAspectRatio="none" style="width:269px;height:203px;background:#FFFFFF;" version="1.1" viewBox="0 0 269 203" width="269px" zoomAndPan="magnify"><defs/><g><!--class BMM_LOCAL_ROUTINE--><g class="entity" data-entity="BMM_LOCAL_ROUTINE" data-source-line="2" data-uid="ent0002" id="entity_BMM_LOCAL_ROUTINE"><rect fill="#F1F1F1" height="81.5999" rx="2.5" ry="2.5" style="stroke:#181818;stroke-width:0.5;" width="255.2771" x="7" y="115"/><ellipse cx="56.1258" cy="131" fill="#ADD1B2" rx="11" ry="11" style="stroke:#181818;stroke-width:1;"/><path d="M56.1258,137.4219 C57.2977,137.4219 58.5321,137.1563 59.9071,136.5469 L59.4227,135.0313 C58.329,135.4531 57.3133,135.6406 56.454,135.6406 C53.7352,135.6406 52.0165,133.7969 52.0165,130.8906 C52.0165,128.1406 53.579,126.5469 56.3133,126.5469 C57.2352,126.5469 58.2508,126.7344 59.3915,127.1563 L59.9696,125.6406 C58.8758,125.0625 57.579,124.7656 56.3915,124.7656 C52.6258,124.7656 50.0477,127.4063 50.0477,131.2188 C50.0477,134.8906 52.5321,137.4219 56.1258,137.4219 Z " fill="#000000"/><text fill="#000000" font-family="sans-serif" font-size="14" lengthAdjust="spacing" textLength="148.5254" x="76.6258" y="136.362">BMM_LOCAL_ROUTINE</text><line style="stroke:#181818;stroke-width:0.5;" x1="8" x2="261.2771" y1="147" y2="147"/><ellipse cx="18" cy="160.9" fill="none" rx="3" ry="3" style="stroke:#038048;stroke-width:1;"/><text fill="#000000" font-family="sans-serif" font-size="14" lengthAdjust="spacing" textLength="185.9052" x="27" y="164.7619">locals : List&lt;BMM_LOCAL&gt; [*]</text><ellipse cx="18" cy="177.6999" fill="none" rx="3" ry="3" style="stroke:#038048;stroke-width:1;"/><text fill="#000000" font-family="sans-serif" font-size="14" lengthAdjust="spacing" textLength="229.2771" x="27" y="181.5619">body : BMM_STATEMENT_BLOCK [1]</text><line style="stroke:#181818;stroke-width:0.5;" x1="8" x2="261.2771" y1="188.5999" y2="188.5999"/></g><!--class BMM_ROUTINE_DEFINITION--><g class="entity" data-entity="BMM_ROUTINE_DEFINITION" data-source-line="7" data-uid="ent0003" id="entity_BMM_ROUTINE_DEFINITION"><rect fill="#F5F5F5" height="48" rx="2.5" ry="2.5" style="stroke:#808080;stroke-width:1;stroke-dasharray:1,3;" width="214.7133" x="27.28" y="7"/><ellipse cx="42.28" cy="23" fill="#A9DCDF" rx="11" ry="11" style="stroke:#181818;stroke-width:1;"/><path d="M36.7956,28.5 L38.8269,28.5 L42.8738,17.1563 L41.9675,17.1563 L45.7956,28.5 L47.9363,28.5 L43.6081,16.1719 L41.3894,16.1719 L36.7956,28.5 Z M39.1238,25 L45.5613,25 L45.5613,23.25 L39.1238,23.25 L39.1238,25 Z " fill="#000000"/><text fill="#808080" font-family="sans-serif" font-size="14" font-style="italic" lengthAdjust="spacing" textLength="182.7133" x="56.28" y="28.362">BMM_ROUTINE_DEFINITION</text><line style="stroke:#808080;stroke-width:1;stroke-dasharray:1,3;" x1="28.28" x2="240.9933" y1="39" y2="39"/><line style="stroke:#808080;stroke-width:1;stroke-dasharray:1,3;" x1="28.28" x2="240.9933" y1="47" y2="47"/></g><!--reverse link BMM_ROUTINE_DEFINITION to BMM_LOCAL_ROUTINE--><g class="link" data-entity-1="BMM_ROUTINE_DEFINITION" data-entity-2="BMM_LOCAL_ROUTINE" data-source-line="10" data-uid="lnk4" id="link_BMM_ROUTINE_DEFINITION_BMM_LOCAL_ROUTINE"><path codeLine="10" d="M134.64,73.39 C134.64,90.09 134.64,94.98 134.64,114.58" fill="none" id="BMM_ROUTINE_DEFINITION-backto-BMM_LOCAL_ROUTINE" style="stroke:#181818;stroke-width:1;"/><polygon fill="none" points="134.64,55.39,128.64,73.39,140.64,73.39,134.64,55.39" style="stroke:#181818;stroke-width:1;"/></g></g></svg>
