<svg xmlns="http://www.w3.org/2000/svg" xmlns:xlink="http://www.w3.org/1999/xlink" contentStyleType="text/css" data-diagram-type="CLASS" height="829px" preserveAspectRatio="none" style="width:407px;height:829px;background:#FFFFFF;" version="1.1" viewBox="0 0 407 829" width="407px" zoomAndPan="magnify"><defs/><g><!--class BMM_FUNCTION--><g class="entity" data-entity="BMM_FUNCTION" data-source-line="2" data-uid="ent0002" id="entity_BMM_FUNCTION"><rect fill="#F1F1F1" height="81.5999" rx="2.5" ry="2.5" style="stroke:#181818;stroke-width:0.5;" width="302.3169" x="52.65" y="741.4"/><ellipse cx="144.8187" cy="757.4" fill="#ADD1B2" rx="11" ry="11" style="stroke:#181818;stroke-width:1;"/><path d="M144.8187,763.8219 C145.9905,763.8219 147.2249,763.5563 148.5999,762.9469 L148.1155,761.4313 C147.0218,761.8531 146.0062,762.0406 145.1468,762.0406 C142.428,762.0406 140.7093,760.1969 140.7093,757.2906 C140.7093,754.5406 142.2718,752.9469 145.0062,752.9469 C145.928,752.9469 146.9437,753.1344 148.0843,753.5563 L148.6624,752.0406 C147.5687,751.4625 146.2718,751.1656 145.0843,751.1656 C141.3187,751.1656 138.7405,753.8063 138.7405,757.6188 C138.7405,761.2906 141.2249,763.8219 144.8187,763.8219 Z " fill="#000000"/><text fill="#000000" font-family="sans-serif" font-size="14" lengthAdjust="spacing" textLength="109.4796" x="165.3187" y="762.762">BMM_FUNCTION</text><line style="stroke:#181818;stroke-width:0.5;" x1="53.65" x2="353.9669" y1="773.4" y2="773.4"/><ellipse cx="63.65" cy="787.3" fill="none" rx="3" ry="3" style="stroke:#038048;stroke-width:1;"/><text fill="#000000" font-family="sans-serif" font-size="14" lengthAdjust="spacing" textLength="276.3169" x="72.65" y="791.1619">operator_definition : BMM_OPERATOR [0..1]</text><ellipse cx="63.65" cy="804.0999" fill="none" rx="3" ry="3" style="stroke:#038048;stroke-width:1;"/><text fill="#000000" font-family="sans-serif" font-size="14" lengthAdjust="spacing" textLength="153.3414" x="72.65" y="807.9619">result : BMM_RESULT [1]</text><line style="stroke:#181818;stroke-width:0.5;" x1="53.65" x2="353.9669" y1="814.9999" y2="814.9999"/></g><!--class BMM_ROUTINE--><g class="entity" data-entity="BMM_ROUTINE" data-source-line="7" data-uid="ent0003" id="entity_BMM_ROUTINE"><rect fill="#F5F5F5" height="131.9996" rx="2.5" ry="2.5" style="stroke:#808080;stroke-width:1;stroke-dasharray:1,3;" width="312.3549" x="47.63" y="549.4"/><ellipse cx="150.0956" cy="565.4" fill="#A9DCDF" rx="11" ry="11" style="stroke:#181818;stroke-width:1;"/><path d="M144.6113,570.9 L146.6425,570.9 L150.6894,559.5563 L149.7831,559.5563 L153.6113,570.9 L155.7519,570.9 L151.4238,558.5719 L149.205,558.5719 L144.6113,570.9 Z M146.9394,567.4 L153.3769,567.4 L153.3769,565.65 L146.9394,565.65 L146.9394,567.4 Z " fill="#000000"/><text fill="#808080" font-family="sans-serif" font-size="14" font-style="italic" lengthAdjust="spacing" textLength="98.9236" x="170.5956" y="570.762">BMM_ROUTINE</text><line style="stroke:#808080;stroke-width:1;stroke-dasharray:1,3;" x1="48.63" x2="358.9849" y1="581.4" y2="581.4"/><ellipse cx="58.63" cy="595.3" fill="none" rx="3" ry="3" style="stroke:#038048;stroke-width:1;"/><text fill="#808080" font-family="sans-serif" font-size="14" lengthAdjust="spacing" textLength="258.4529" x="67.63" y="599.1619">parameters : List&lt;BMM_PARAMETER&gt; [*]</text><ellipse cx="58.63" cy="612.0999" fill="none" rx="3" ry="3" style="stroke:#038048;stroke-width:1;"/><text fill="#808080" font-family="sans-serif" font-size="14" lengthAdjust="spacing" textLength="273.6569" x="67.63" y="615.9619">pre_conditions : List&lt;BMM_ASSERTION&gt; [*]</text><ellipse cx="58.63" cy="628.8998" fill="none" rx="3" ry="3" style="stroke:#038048;stroke-width:1;"/><text fill="#808080" font-family="sans-serif" font-size="14" lengthAdjust="spacing" textLength="280.4749" x="67.63" y="632.7618">post_conditions : List&lt;BMM_ASSERTION&gt; [*]</text><ellipse cx="58.63" cy="645.6997" fill="none" rx="3" ry="3" style="stroke:#038048;stroke-width:1;"/><text fill="#808080" font-family="sans-serif" font-size="14" lengthAdjust="spacing" textLength="286.3549" x="67.63" y="649.5617">definition : BMM_ROUTINE_DEFINITION [0..1]</text><line style="stroke:#808080;stroke-width:1;stroke-dasharray:1,3;" x1="48.63" x2="358.9849" y1="656.5997" y2="656.5997"/><ellipse cx="58.63" cy="670.4997" fill="#84BE84" rx="3" ry="3" style="stroke:#038048;stroke-width:1;"/><text fill="#808080" font-family="sans-serif" font-size="14" lengthAdjust="spacing" textLength="109.4096" x="67.63" y="674.3616">arity() : Integer [1]</text></g><!--class BMM_FEATURE--><g class="entity" data-entity="BMM_FEATURE" data-source-line="15" data-uid="ent0004" id="entity_BMM_FEATURE"><rect fill="#F5F5F5" height="115.1997" rx="2.5" ry="2.5" style="stroke:#808080;stroke-width:1;stroke-dasharray:1,3;" width="393.6245" x="7" y="374.2"/><ellipse cx="150.1284" cy="390.2" fill="#A9DCDF" rx="11" ry="11" style="stroke:#181818;stroke-width:1;"/><path d="M144.6441,395.7 L146.6753,395.7 L150.7222,384.3563 L149.8159,384.3563 L153.6441,395.7 L155.7847,395.7 L151.4566,383.3719 L149.2378,383.3719 L144.6441,395.7 Z M146.9722,392.2 L153.4097,392.2 L153.4097,390.45 L146.9722,390.45 L146.9722,392.2 Z " fill="#000000"/><text fill="#808080" font-family="sans-serif" font-size="14" font-style="italic" lengthAdjust="spacing" textLength="98.8676" x="170.6284" y="395.562">BMM_FEATURE</text><line style="stroke:#808080;stroke-width:1;stroke-dasharray:1,3;" x1="8" x2="399.6245" y1="406.2" y2="406.2"/><ellipse cx="18" cy="420.1" fill="none" rx="3" ry="3" style="stroke:#038048;stroke-width:1;"/><text fill="#808080" font-family="sans-serif" font-size="14" lengthAdjust="spacing" textLength="238.643" x="27" y="423.9619">is_synthesised_generic : Boolean [0..1]</text><ellipse cx="18" cy="436.8999" fill="none" rx="3" ry="3" style="stroke:#038048;stroke-width:1;"/><text fill="#808080" font-family="sans-serif" font-size="14" lengthAdjust="spacing" textLength="367.6245" x="27" y="440.7619">feature_extensions : List&lt;BMM_FEATURE_EXTENSION&gt; [*]</text><ellipse cx="18" cy="453.6998" fill="none" rx="3" ry="3" style="stroke:#038048;stroke-width:1;"/><text fill="#808080" font-family="sans-serif" font-size="14" lengthAdjust="spacing" textLength="218.3991" x="27" y="457.5618">group : BMM_FEATURE_GROUP [1]</text><ellipse cx="18" cy="470.4997" fill="none" rx="3" ry="3" style="stroke:#038048;stroke-width:1;"/><text fill="#808080" font-family="sans-serif" font-size="14" lengthAdjust="spacing" textLength="145.1374" x="27" y="474.3617">scope : BMM_CLASS [1]</text><line style="stroke:#808080;stroke-width:1;stroke-dasharray:1,3;" x1="8" x2="399.6245" y1="481.3997" y2="481.3997"/></g><!--class BMM_FORMAL_ELEMENT--><g class="entity" data-entity="BMM_FORMAL_ELEMENT" data-source-line="22" data-uid="ent0005" id="entity_BMM_FORMAL_ELEMENT"><rect fill="#F5F5F5" height="115.1997" rx="2.5" ry="2.5" style="stroke:#808080;stroke-width:1;stroke-dasharray:1,3;" width="236.3352" x="85.64" y="199"/><ellipse cx="118.7866" cy="215" fill="#A9DCDF" rx="11" ry="11" style="stroke:#181818;stroke-width:1;"/><path d="M113.3023,220.5 L115.3335,220.5 L119.3804,209.1563 L118.4741,209.1563 L122.3023,220.5 L124.4429,220.5 L120.1148,208.1719 L117.896,208.1719 L113.3023,220.5 Z M115.6304,217 L122.0679,217 L122.0679,215.25 L115.6304,215.25 L115.6304,217 Z " fill="#000000"/><text fill="#808080" font-family="sans-serif" font-size="14" font-style="italic" lengthAdjust="spacing" textLength="164.0093" x="136.8192" y="220.362">BMM_FORMAL_ELEMENT</text><line style="stroke:#808080;stroke-width:1;stroke-dasharray:1,3;" x1="86.64" x2="320.9752" y1="231" y2="231"/><ellipse cx="96.64" cy="244.9" fill="none" rx="3" ry="3" style="stroke:#038048;stroke-width:1;"/><text fill="#808080" font-family="sans-serif" font-size="14" lengthAdjust="spacing" textLength="128.0575" x="105.64" y="248.7619">type : BMM_TYPE [1]</text><ellipse cx="96.64" cy="261.6999" fill="none" rx="3" ry="3" style="stroke:#038048;stroke-width:1;"/><text fill="#808080" font-family="sans-serif" font-size="14" lengthAdjust="spacing" textLength="162.3013" x="105.64" y="265.5619">is_nullable : Boolean [0..1]</text><line style="stroke:#808080;stroke-width:1;stroke-dasharray:1,3;" x1="86.64" x2="320.9752" y1="272.5999" y2="272.5999"/><ellipse cx="96.64" cy="286.4998" fill="#84BE84" rx="3" ry="3" style="stroke:#038048;stroke-width:1;"/><text fill="#808080" font-family="sans-serif" font-size="14" font-style="italic" lengthAdjust="spacing" textLength="210.3352" x="105.64" y="290.3618">signature() : BMM_SIGNATURE [1]</text><ellipse cx="96.64" cy="303.2997" fill="#84BE84" rx="3" ry="3" style="stroke:#038048;stroke-width:1;"/><text fill="#808080" font-family="sans-serif" font-size="14" lengthAdjust="spacing" textLength="155.2454" x="105.64" y="307.1617">is_boolean() : Boolean [1]</text></g><!--class BMM_MODEL_ELEMENT--><g class="entity" data-entity="BMM_MODEL_ELEMENT" data-source-line="29" data-uid="ent0006" id="entity_BMM_MODEL_ELEMENT"><rect fill="#F5F5F5" height="131.9996" rx="2.5" ry="2.5" style="stroke:#808080;stroke-width:1;stroke-dasharray:1,3;" width="277.285" x="65.17" y="7"/><ellipse cx="121.1558" cy="23" fill="#A9DCDF" rx="11" ry="11" style="stroke:#181818;stroke-width:1;"/><path d="M115.6715,28.5 L117.7027,28.5 L121.7496,17.1563 L120.8433,17.1563 L124.6715,28.5 L126.8121,28.5 L122.484,16.1719 L120.2652,16.1719 L115.6715,28.5 Z M117.9996,25 L124.4371,25 L124.4371,23.25 L117.9996,23.25 L117.9996,25 Z " fill="#000000"/><text fill="#808080" font-family="sans-serif" font-size="14" font-style="italic" lengthAdjust="spacing" textLength="156.8134" x="141.6558" y="28.362">BMM_MODEL_ELEMENT</text><line style="stroke:#808080;stroke-width:1;stroke-dasharray:1,3;" x1="66.17" x2="341.455" y1="39" y2="39"/><ellipse cx="76.17" cy="52.9" fill="none" rx="3" ry="3" style="stroke:#038048;stroke-width:1;"/><text fill="#808080" font-family="sans-serif" font-size="14" lengthAdjust="spacing" textLength="100.8836" x="85.17" y="56.7619">name : String [1]</text><ellipse cx="76.17" cy="69.6999" fill="none" rx="3" ry="3" style="stroke:#038048;stroke-width:1;"/><text fill="#808080" font-family="sans-serif" font-size="14" lengthAdjust="spacing" textLength="251.285" x="85.17" y="73.5619">documentation : Hash&lt;String,Any&gt; [0..1]</text><ellipse cx="76.17" cy="86.4998" fill="none" rx="3" ry="3" style="stroke:#038048;stroke-width:1;"/><text fill="#808080" font-family="sans-serif" font-size="14" lengthAdjust="spacing" textLength="221.7171" x="85.17" y="90.3618">scope : BMM_MODEL_ELEMENT [1]</text><ellipse cx="76.17" cy="103.2997" fill="none" rx="3" ry="3" style="stroke:#038048;stroke-width:1;"/><text fill="#808080" font-family="sans-serif" font-size="14" lengthAdjust="spacing" textLength="223.3411" x="85.17" y="107.1617">extensions : Hash&lt;String,Any&gt; [0..1]</text><line style="stroke:#808080;stroke-width:1;stroke-dasharray:1,3;" x1="66.17" x2="341.455" y1="114.1997" y2="114.1997"/><ellipse cx="76.17" cy="128.0997" fill="#84BE84" rx="3" ry="3" style="stroke:#038048;stroke-width:1;"/><text fill="#808080" font-family="sans-serif" font-size="14" lengthAdjust="spacing" textLength="174.5653" x="85.17" y="131.9616">is_root_scope() : Boolean [1]</text></g><!--reverse link BMM_MODEL_ELEMENT to BMM_FORMAL_ELEMENT--><g class="link" data-entity-1="BMM_MODEL_ELEMENT" data-entity-2="BMM_FORMAL_ELEMENT" data-source-line="37" data-uid="lnk7" id="link_BMM_MODEL_ELEMENT_BMM_FORMAL_ELEMENT"><path codeLine="37" d="M203.81,157.31 C203.81,176.73 203.81,179.84 203.81,198.69" fill="none" id="BMM_MODEL_ELEMENT-backto-BMM_FORMAL_ELEMENT" style="stroke:#181818;stroke-width:1;"/><polygon fill="none" points="203.81,139.31,197.81,157.31,209.81,157.31,203.81,139.31" style="stroke:#181818;stroke-width:1;"/></g><!--reverse link BMM_FORMAL_ELEMENT to BMM_FEATURE--><g class="link" data-entity-1="BMM_FORMAL_ELEMENT" data-entity-2="BMM_FEATURE" data-source-line="39" data-uid="lnk8" id="link_BMM_FORMAL_ELEMENT_BMM_FEATURE"><path codeLine="39" d="M203.81,332.31 C203.81,351.45 203.81,354.81 203.81,373.96" fill="none" id="BMM_FORMAL_ELEMENT-backto-BMM_FEATURE" style="stroke:#181818;stroke-width:1;"/><polygon fill="none" points="203.81,314.31,197.81,332.31,209.81,332.31,203.81,314.31" style="stroke:#181818;stroke-width:1;"/></g><!--reverse link BMM_FEATURE to BMM_ROUTINE--><g class="link" data-entity-1="BMM_FEATURE" data-entity-2="BMM_ROUTINE" data-source-line="41" data-uid="lnk9" id="link_BMM_FEATURE_BMM_ROUTINE"><path codeLine="41" d="M203.81,507.76 C203.81,526.59 203.81,529.68 203.81,549.08" fill="none" id="BMM_FEATURE-backto-BMM_ROUTINE" style="stroke:#181818;stroke-width:1;"/><polygon fill="none" points="203.81,489.76,197.81,507.76,209.81,507.76,203.81,489.76" style="stroke:#181818;stroke-width:1;"/></g><!--reverse link BMM_ROUTINE to BMM_FUNCTION--><g class="link" data-entity-1="BMM_ROUTINE" data-entity-2="BMM_FUNCTION" data-source-line="43" data-uid="lnk10" id="link_BMM_ROUTINE_BMM_FUNCTION"><path codeLine="43" d="M203.81,699.53 C203.81,719.69 203.81,723.28 203.81,741.2" fill="none" id="BMM_ROUTINE-backto-BMM_FUNCTION" style="stroke:#181818;stroke-width:1;"/><polygon fill="none" points="203.81,681.53,197.81,699.53,209.81,699.53,203.81,681.53" style="stroke:#181818;stroke-width:1;"/></g></g></svg>
