<svg xmlns="http://www.w3.org/2000/svg" xmlns:xlink="http://www.w3.org/1999/xlink" contentStyleType="text/css" data-diagram-type="CLASS" height="837px" preserveAspectRatio="none" style="width:407px;height:837px;background:#FFFFFF;" version="1.1" viewBox="0 0 407 837" width="407px" zoomAndPan="magnify"><defs/><g><!--class BMM_SINGLETON--><g class="entity" data-entity="BMM_SINGLETON" data-source-line="2" data-uid="ent0002" id="entity_BMM_SINGLETON"><rect fill="#F1F1F1" height="64.7999" rx="2.5" ry="2.5" style="stroke:#181818;stroke-width:0.5;" width="298.6769" x="54.47" y="765.4"/><ellipse cx="141.4657" cy="781.4" fill="#ADD1B2" rx="11" ry="11" style="stroke:#181818;stroke-width:1;"/><path d="M141.4657,787.8219 C142.6376,787.8219 143.872,787.5563 145.247,786.9469 L144.7626,785.4313 C143.6688,785.8531 142.6532,786.0406 141.7938,786.0406 C139.0751,786.0406 137.3563,784.1969 137.3563,781.2906 C137.3563,778.5406 138.9188,776.9469 141.6532,776.9469 C142.5751,776.9469 143.5907,777.1344 144.7313,777.5563 L145.3095,776.0406 C144.2157,775.4625 142.9188,775.1656 141.7313,775.1656 C137.9657,775.1656 135.3876,777.8063 135.3876,781.6188 C135.3876,785.2906 137.872,787.8219 141.4657,787.8219 Z " fill="#000000"/><text fill="#000000" font-family="sans-serif" font-size="14" lengthAdjust="spacing" textLength="116.1855" x="161.9657" y="786.762">BMM_SINGLETON</text><line style="stroke:#181818;stroke-width:0.5;" x1="55.47" x2="352.1469" y1="797.4" y2="797.4"/><ellipse cx="65.47" cy="811.3" fill="none" rx="3" ry="3" style="stroke:#038048;stroke-width:1;"/><text fill="#000000" font-family="sans-serif" font-size="14" lengthAdjust="spacing" textLength="272.6769" x="74.47" y="815.1619">generator : BMM_ROUTINE_DEFINITION [1]</text><line style="stroke:#181818;stroke-width:0.5;" x1="55.47" x2="352.1469" y1="822.1999" y2="822.1999"/></g><!--class BMM_STATIC--><g class="entity" data-entity="BMM_STATIC" data-source-line="6" data-uid="ent0003" id="entity_BMM_STATIC"><rect fill="#F5F5F5" height="48" rx="2.5" ry="2.5" style="stroke:#808080;stroke-width:1;stroke-dasharray:1,3;" width="116.9937" x="145.32" y="657.4"/><ellipse cx="160.32" cy="673.4" fill="#A9DCDF" rx="11" ry="11" style="stroke:#181818;stroke-width:1;"/><path d="M154.8356,678.9 L156.8669,678.9 L160.9138,667.5563 L160.0075,667.5563 L163.8356,678.9 L165.9763,678.9 L161.6481,666.5719 L159.4294,666.5719 L154.8356,678.9 Z M157.1638,675.4 L163.6013,675.4 L163.6013,673.65 L157.1638,673.65 L157.1638,675.4 Z " fill="#000000"/><text fill="#808080" font-family="sans-serif" font-size="14" font-style="italic" lengthAdjust="spacing" textLength="84.9937" x="174.32" y="678.762">BMM_STATIC</text><line style="stroke:#808080;stroke-width:1;stroke-dasharray:1,3;" x1="146.32" x2="261.3137" y1="689.4" y2="689.4"/><line style="stroke:#808080;stroke-width:1;stroke-dasharray:1,3;" x1="146.32" x2="261.3137" y1="697.4" y2="697.4"/></g><!--class BMM_INSTANTIABLE_FEATURE--><g class="entity" data-entity="BMM_INSTANTIABLE_FEATURE" data-source-line="9" data-uid="ent0004" id="entity_BMM_INSTANTIABLE_FEATURE"><rect fill="#F5F5F5" height="48" rx="2.5" ry="2.5" style="stroke:#808080;stroke-width:1;stroke-dasharray:1,3;" width="231.5412" x="88.04" y="549.4"/><ellipse cx="103.04" cy="565.4" fill="#A9DCDF" rx="11" ry="11" style="stroke:#181818;stroke-width:1;"/><path d="M97.5556,570.9 L99.5869,570.9 L103.6338,559.5563 L102.7275,559.5563 L106.5556,570.9 L108.6963,570.9 L104.3681,558.5719 L102.1494,558.5719 L97.5556,570.9 Z M99.8838,567.4 L106.3213,567.4 L106.3213,565.65 L99.8838,565.65 L99.8838,567.4 Z " fill="#000000"/><text fill="#808080" font-family="sans-serif" font-size="14" font-style="italic" lengthAdjust="spacing" textLength="199.5412" x="117.04" y="570.762">BMM_INSTANTIABLE_FEATURE</text><line style="stroke:#808080;stroke-width:1;stroke-dasharray:1,3;" x1="89.04" x2="318.5812" y1="581.4" y2="581.4"/><line style="stroke:#808080;stroke-width:1;stroke-dasharray:1,3;" x1="89.04" x2="318.5812" y1="589.4" y2="589.4"/></g><!--class BMM_FEATURE--><g class="entity" data-entity="BMM_FEATURE" data-source-line="12" data-uid="ent0005" id="entity_BMM_FEATURE"><rect fill="#F5F5F5" height="115.1997" rx="2.5" ry="2.5" style="stroke:#808080;stroke-width:1;stroke-dasharray:1,3;" width="393.6245" x="7" y="374.2"/><ellipse cx="150.1284" cy="390.2" fill="#A9DCDF" rx="11" ry="11" style="stroke:#181818;stroke-width:1;"/><path d="M144.6441,395.7 L146.6753,395.7 L150.7222,384.3563 L149.8159,384.3563 L153.6441,395.7 L155.7847,395.7 L151.4566,383.3719 L149.2378,383.3719 L144.6441,395.7 Z M146.9722,392.2 L153.4097,392.2 L153.4097,390.45 L146.9722,390.45 L146.9722,392.2 Z " fill="#000000"/><text fill="#808080" font-family="sans-serif" font-size="14" font-style="italic" lengthAdjust="spacing" textLength="98.8676" x="170.6284" y="395.562">BMM_FEATURE</text><line style="stroke:#808080;stroke-width:1;stroke-dasharray:1,3;" x1="8" x2="399.6245" y1="406.2" y2="406.2"/><ellipse cx="18" cy="420.1" fill="none" rx="3" ry="3" style="stroke:#038048;stroke-width:1;"/><text fill="#808080" font-family="sans-serif" font-size="14" lengthAdjust="spacing" textLength="238.643" x="27" y="423.9619">is_synthesised_generic : Boolean [0..1]</text><ellipse cx="18" cy="436.8999" fill="none" rx="3" ry="3" style="stroke:#038048;stroke-width:1;"/><text fill="#808080" font-family="sans-serif" font-size="14" lengthAdjust="spacing" textLength="367.6245" x="27" y="440.7619">feature_extensions : List&lt;BMM_FEATURE_EXTENSION&gt; [*]</text><ellipse cx="18" cy="453.6998" fill="none" rx="3" ry="3" style="stroke:#038048;stroke-width:1;"/><text fill="#808080" font-family="sans-serif" font-size="14" lengthAdjust="spacing" textLength="218.3991" x="27" y="457.5618">group : BMM_FEATURE_GROUP [1]</text><ellipse cx="18" cy="470.4997" fill="none" rx="3" ry="3" style="stroke:#038048;stroke-width:1;"/><text fill="#808080" font-family="sans-serif" font-size="14" lengthAdjust="spacing" textLength="145.1374" x="27" y="474.3617">scope : BMM_CLASS [1]</text><line style="stroke:#808080;stroke-width:1;stroke-dasharray:1,3;" x1="8" x2="399.6245" y1="481.3997" y2="481.3997"/></g><!--class BMM_FORMAL_ELEMENT--><g class="entity" data-entity="BMM_FORMAL_ELEMENT" data-source-line="19" data-uid="ent0006" id="entity_BMM_FORMAL_ELEMENT"><rect fill="#F5F5F5" height="115.1997" rx="2.5" ry="2.5" style="stroke:#808080;stroke-width:1;stroke-dasharray:1,3;" width="236.3352" x="85.64" y="199"/><ellipse cx="118.7866" cy="215" fill="#A9DCDF" rx="11" ry="11" style="stroke:#181818;stroke-width:1;"/><path d="M113.3023,220.5 L115.3335,220.5 L119.3804,209.1563 L118.4741,209.1563 L122.3023,220.5 L124.4429,220.5 L120.1148,208.1719 L117.896,208.1719 L113.3023,220.5 Z M115.6304,217 L122.0679,217 L122.0679,215.25 L115.6304,215.25 L115.6304,217 Z " fill="#000000"/><text fill="#808080" font-family="sans-serif" font-size="14" font-style="italic" lengthAdjust="spacing" textLength="164.0093" x="136.8192" y="220.362">BMM_FORMAL_ELEMENT</text><line style="stroke:#808080;stroke-width:1;stroke-dasharray:1,3;" x1="86.64" x2="320.9752" y1="231" y2="231"/><ellipse cx="96.64" cy="244.9" fill="none" rx="3" ry="3" style="stroke:#038048;stroke-width:1;"/><text fill="#808080" font-family="sans-serif" font-size="14" lengthAdjust="spacing" textLength="128.0575" x="105.64" y="248.7619">type : BMM_TYPE [1]</text><ellipse cx="96.64" cy="261.6999" fill="none" rx="3" ry="3" style="stroke:#038048;stroke-width:1;"/><text fill="#808080" font-family="sans-serif" font-size="14" lengthAdjust="spacing" textLength="162.3013" x="105.64" y="265.5619">is_nullable : Boolean [0..1]</text><line style="stroke:#808080;stroke-width:1;stroke-dasharray:1,3;" x1="86.64" x2="320.9752" y1="272.5999" y2="272.5999"/><ellipse cx="96.64" cy="286.4998" fill="#84BE84" rx="3" ry="3" style="stroke:#038048;stroke-width:1;"/><text fill="#808080" font-family="sans-serif" font-size="14" font-style="italic" lengthAdjust="spacing" textLength="210.3352" x="105.64" y="290.3618">signature() : BMM_SIGNATURE [1]</text><ellipse cx="96.64" cy="303.2997" fill="#84BE84" rx="3" ry="3" style="stroke:#038048;stroke-width:1;"/><text fill="#808080" font-family="sans-serif" font-size="14" lengthAdjust="spacing" textLength="155.2454" x="105.64" y="307.1617">is_boolean() : Boolean [1]</text></g><!--class BMM_MODEL_ELEMENT--><g class="entity" data-entity="BMM_MODEL_ELEMENT" data-source-line="26" data-uid="ent0007" id="entity_BMM_MODEL_ELEMENT"><rect fill="#F5F5F5" height="131.9996" rx="2.5" ry="2.5" style="stroke:#808080;stroke-width:1;stroke-dasharray:1,3;" width="277.285" x="65.17" y="7"/><ellipse cx="121.1558" cy="23" fill="#A9DCDF" rx="11" ry="11" style="stroke:#181818;stroke-width:1;"/><path d="M115.6715,28.5 L117.7027,28.5 L121.7496,17.1563 L120.8433,17.1563 L124.6715,28.5 L126.8121,28.5 L122.484,16.1719 L120.2652,16.1719 L115.6715,28.5 Z M117.9996,25 L124.4371,25 L124.4371,23.25 L117.9996,23.25 L117.9996,25 Z " fill="#000000"/><text fill="#808080" font-family="sans-serif" font-size="14" font-style="italic" lengthAdjust="spacing" textLength="156.8134" x="141.6558" y="28.362">BMM_MODEL_ELEMENT</text><line style="stroke:#808080;stroke-width:1;stroke-dasharray:1,3;" x1="66.17" x2="341.455" y1="39" y2="39"/><ellipse cx="76.17" cy="52.9" fill="none" rx="3" ry="3" style="stroke:#038048;stroke-width:1;"/><text fill="#808080" font-family="sans-serif" font-size="14" lengthAdjust="spacing" textLength="100.8836" x="85.17" y="56.7619">name : String [1]</text><ellipse cx="76.17" cy="69.6999" fill="none" rx="3" ry="3" style="stroke:#038048;stroke-width:1;"/><text fill="#808080" font-family="sans-serif" font-size="14" lengthAdjust="spacing" textLength="251.285" x="85.17" y="73.5619">documentation : Hash&lt;String,Any&gt; [0..1]</text><ellipse cx="76.17" cy="86.4998" fill="none" rx="3" ry="3" style="stroke:#038048;stroke-width:1;"/><text fill="#808080" font-family="sans-serif" font-size="14" lengthAdjust="spacing" textLength="221.7171" x="85.17" y="90.3618">scope : BMM_MODEL_ELEMENT [1]</text><ellipse cx="76.17" cy="103.2997" fill="none" rx="3" ry="3" style="stroke:#038048;stroke-width:1;"/><text fill="#808080" font-family="sans-serif" font-size="14" lengthAdjust="spacing" textLength="223.3411" x="85.17" y="107.1617">extensions : Hash&lt;String,Any&gt; [0..1]</text><line style="stroke:#808080;stroke-width:1;stroke-dasharray:1,3;" x1="66.17" x2="341.455" y1="114.1997" y2="114.1997"/><ellipse cx="76.17" cy="128.0997" fill="#84BE84" rx="3" ry="3" style="stroke:#038048;stroke-width:1;"/><text fill="#808080" font-family="sans-serif" font-size="14" lengthAdjust="spacing" textLength="174.5653" x="85.17" y="131.9616">is_root_scope() : Boolean [1]</text></g><!--reverse link BMM_MODEL_ELEMENT to BMM_FORMAL_ELEMENT--><g class="link" data-entity-1="BMM_MODEL_ELEMENT" data-entity-2="BMM_FORMAL_ELEMENT" data-source-line="34" data-uid="lnk8" id="link_BMM_MODEL_ELEMENT_BMM_FORMAL_ELEMENT"><path codeLine="34" d="M203.81,157.31 C203.81,176.73 203.81,179.84 203.81,198.69" fill="none" id="BMM_MODEL_ELEMENT-backto-BMM_FORMAL_ELEMENT" style="stroke:#181818;stroke-width:1;"/><polygon fill="none" points="203.81,139.31,197.81,157.31,209.81,157.31,203.81,139.31" style="stroke:#181818;stroke-width:1;"/></g><!--reverse link BMM_FORMAL_ELEMENT to BMM_FEATURE--><g class="link" data-entity-1="BMM_FORMAL_ELEMENT" data-entity-2="BMM_FEATURE" data-source-line="36" data-uid="lnk9" id="link_BMM_FORMAL_ELEMENT_BMM_FEATURE"><path codeLine="36" d="M203.81,332.31 C203.81,351.45 203.81,354.81 203.81,373.96" fill="none" id="BMM_FORMAL_ELEMENT-backto-BMM_FEATURE" style="stroke:#181818;stroke-width:1;"/><polygon fill="none" points="203.81,314.31,197.81,332.31,209.81,332.31,203.81,314.31" style="stroke:#181818;stroke-width:1;"/></g><!--reverse link BMM_FEATURE to BMM_INSTANTIABLE_FEATURE--><g class="link" data-entity-1="BMM_FEATURE" data-entity-2="BMM_INSTANTIABLE_FEATURE" data-source-line="38" data-uid="lnk10" id="link_BMM_FEATURE_BMM_INSTANTIABLE_FEATURE"><path codeLine="38" d="M203.81,507.58 C203.81,528.41 203.81,532.85 203.81,549.11" fill="none" id="BMM_FEATURE-backto-BMM_INSTANTIABLE_FEATURE" style="stroke:#181818;stroke-width:1;"/><polygon fill="none" points="203.81,489.58,197.81,507.58,209.81,507.58,203.81,489.58" style="stroke:#181818;stroke-width:1;"/></g><!--reverse link BMM_INSTANTIABLE_FEATURE to BMM_STATIC--><g class="link" data-entity-1="BMM_INSTANTIABLE_FEATURE" data-entity-2="BMM_STATIC" data-source-line="40" data-uid="lnk11" id="link_BMM_INSTANTIABLE_FEATURE_BMM_STATIC"><path codeLine="40" d="M203.81,615.66 C203.81,633.34 203.81,639.53 203.81,657.19" fill="none" id="BMM_INSTANTIABLE_FEATURE-backto-BMM_STATIC" style="stroke:#181818;stroke-width:1;"/><polygon fill="none" points="203.81,597.66,197.81,615.66,209.81,615.66,203.81,597.66" style="stroke:#181818;stroke-width:1;"/></g><!--reverse link BMM_STATIC to BMM_SINGLETON--><g class="link" data-entity-1="BMM_STATIC" data-entity-2="BMM_SINGLETON" data-source-line="42" data-uid="lnk12" id="link_BMM_STATIC_BMM_SINGLETON"><path codeLine="42" d="M203.81,723.83 C203.81,740.95 203.81,746.37 203.81,765.16" fill="none" id="BMM_STATIC-backto-BMM_SINGLETON" style="stroke:#181818;stroke-width:1;"/><polygon fill="none" points="203.81,705.83,197.81,723.83,209.81,723.83,203.81,705.83" style="stroke:#181818;stroke-width:1;"/></g></g></svg>
