<svg xmlns="http://www.w3.org/2000/svg" xmlns:xlink="http://www.w3.org/1999/xlink" contentStyleType="text/css" data-diagram-type="CLASS" height="419px" preserveAspectRatio="none" style="width:259px;height:419px;background:#FFFFFF;" version="1.1" viewBox="0 0 259 419" width="259px" zoomAndPan="magnify"><defs/><g><!--class BMM_ASSIGNMENT--><g class="entity" data-entity="BMM_ASSIGNMENT" data-source-line="2" data-uid="ent0002" id="entity_BMM_ASSIGNMENT"><rect fill="#F1F1F1" height="81.5999" rx="2.5" ry="2.5" style="stroke:#181818;stroke-width:0.5;" width="245.1411" x="7" y="331"/><ellipse cx="61.8238" cy="347" fill="#ADD1B2" rx="11" ry="11" style="stroke:#181818;stroke-width:1;"/><path d="M61.8238,353.4219 C62.9957,353.4219 64.23,353.1563 65.605,352.5469 L65.1207,351.0313 C64.0269,351.4531 63.0113,351.6406 62.1519,351.6406 C59.4332,351.6406 57.7144,349.7969 57.7144,346.8906 C57.7144,344.1406 59.2769,342.5469 62.0113,342.5469 C62.9332,342.5469 63.9488,342.7344 65.0894,343.1563 L65.6675,341.6406 C64.5738,341.0625 63.2769,340.7656 62.0894,340.7656 C58.3238,340.7656 55.7457,343.4063 55.7457,347.2188 C55.7457,350.8906 58.23,353.4219 61.8238,353.4219 Z " fill="#000000"/><text fill="#000000" font-family="sans-serif" font-size="14" lengthAdjust="spacing" textLength="126.9935" x="82.3238" y="352.362">BMM_ASSIGNMENT</text><line style="stroke:#181818;stroke-width:0.5;" x1="8" x2="251.1411" y1="363" y2="363"/><ellipse cx="18" cy="376.9" fill="none" rx="3" ry="3" style="stroke:#038048;stroke-width:1;"/><text fill="#000000" font-family="sans-serif" font-size="14" lengthAdjust="spacing" textLength="219.1411" x="27" y="380.7619">target : EL_VALUE_GENERATOR [1]</text><ellipse cx="18" cy="393.6999" fill="none" rx="3" ry="3" style="stroke:#038048;stroke-width:1;"/><text fill="#000000" font-family="sans-serif" font-size="14" lengthAdjust="spacing" textLength="174.2573" x="27" y="397.5619">source : EL_EXPRESSION [1]</text><line style="stroke:#181818;stroke-width:0.5;" x1="8" x2="251.1411" y1="404.5999" y2="404.5999"/></g><!--class BMM_SIMPLE_STATEMENT--><g class="entity" data-entity="BMM_SIMPLE_STATEMENT" data-source-line="7" data-uid="ent0003" id="entity_BMM_SIMPLE_STATEMENT"><rect fill="#F5F5F5" height="48" rx="2.5" ry="2.5" style="stroke:#808080;stroke-width:1;stroke-dasharray:1,3;" width="205.0533" x="27.04" y="223"/><ellipse cx="42.04" cy="239" fill="#A9DCDF" rx="11" ry="11" style="stroke:#181818;stroke-width:1;"/><path d="M36.5556,244.5 L38.5869,244.5 L42.6338,233.1563 L41.7275,233.1563 L45.5556,244.5 L47.6963,244.5 L43.3681,232.1719 L41.1494,232.1719 L36.5556,244.5 Z M38.8838,241 L45.3213,241 L45.3213,239.25 L38.8838,239.25 L38.8838,241 Z " fill="#000000"/><text fill="#808080" font-family="sans-serif" font-size="14" font-style="italic" lengthAdjust="spacing" textLength="173.0533" x="56.04" y="244.362">BMM_SIMPLE_STATEMENT</text><line style="stroke:#808080;stroke-width:1;stroke-dasharray:1,3;" x1="28.04" x2="231.0933" y1="255" y2="255"/><line style="stroke:#808080;stroke-width:1;stroke-dasharray:1,3;" x1="28.04" x2="231.0933" y1="263" y2="263"/></g><!--class BMM_STATEMENT--><g class="entity" data-entity="BMM_STATEMENT" data-source-line="10" data-uid="ent0004" id="entity_BMM_STATEMENT"><rect fill="#F5F5F5" height="48" rx="2.5" ry="2.5" style="stroke:#808080;stroke-width:1;stroke-dasharray:1,3;" width="151.0275" x="54.06" y="115"/><ellipse cx="69.06" cy="131" fill="#A9DCDF" rx="11" ry="11" style="stroke:#181818;stroke-width:1;"/><path d="M63.5756,136.5 L65.6069,136.5 L69.6538,125.1563 L68.7475,125.1563 L72.5756,136.5 L74.7163,136.5 L70.3881,124.1719 L68.1694,124.1719 L63.5756,136.5 Z M65.9038,133 L72.3413,133 L72.3413,131.25 L65.9038,131.25 L65.9038,133 Z " fill="#000000"/><text fill="#808080" font-family="sans-serif" font-size="14" font-style="italic" lengthAdjust="spacing" textLength="119.0275" x="83.06" y="136.362">BMM_STATEMENT</text><line style="stroke:#808080;stroke-width:1;stroke-dasharray:1,3;" x1="55.06" x2="204.0875" y1="147" y2="147"/><line style="stroke:#808080;stroke-width:1;stroke-dasharray:1,3;" x1="55.06" x2="204.0875" y1="155" y2="155"/></g><!--class BMM_STATEMENT_ITEM--><g class="entity" data-entity="BMM_STATEMENT_ITEM" data-source-line="13" data-uid="ent0005" id="entity_BMM_STATEMENT_ITEM"><rect fill="#F5F5F5" height="48" rx="2.5" ry="2.5" style="stroke:#808080;stroke-width:1;stroke-dasharray:1,3;" width="189.8914" x="34.62" y="7"/><ellipse cx="49.62" cy="23" fill="#A9DCDF" rx="11" ry="11" style="stroke:#181818;stroke-width:1;"/><path d="M44.1356,28.5 L46.1669,28.5 L50.2138,17.1563 L49.3075,17.1563 L53.1356,28.5 L55.2763,28.5 L50.9481,16.1719 L48.7294,16.1719 L44.1356,28.5 Z M46.4638,25 L52.9013,25 L52.9013,23.25 L46.4638,23.25 L46.4638,25 Z " fill="#000000"/><text fill="#808080" font-family="sans-serif" font-size="14" font-style="italic" lengthAdjust="spacing" textLength="157.8914" x="63.62" y="28.362">BMM_STATEMENT_ITEM</text><line style="stroke:#808080;stroke-width:1;stroke-dasharray:1,3;" x1="35.62" x2="223.5114" y1="39" y2="39"/><line style="stroke:#808080;stroke-width:1;stroke-dasharray:1,3;" x1="35.62" x2="223.5114" y1="47" y2="47"/></g><!--reverse link BMM_STATEMENT_ITEM to BMM_STATEMENT--><g class="link" data-entity-1="BMM_STATEMENT_ITEM" data-entity-2="BMM_STATEMENT" data-source-line="16" data-uid="lnk6" id="link_BMM_STATEMENT_ITEM_BMM_STATEMENT"><path codeLine="16" d="M129.57,73.26 C129.57,90.94 129.57,97.13 129.57,114.79" fill="none" id="BMM_STATEMENT_ITEM-backto-BMM_STATEMENT" style="stroke:#181818;stroke-width:1;"/><polygon fill="none" points="129.57,55.26,123.57,73.26,135.57,73.26,129.57,55.26" style="stroke:#181818;stroke-width:1;"/></g><!--reverse link BMM_STATEMENT to BMM_SIMPLE_STATEMENT--><g class="link" data-entity-1="BMM_STATEMENT" data-entity-2="BMM_SIMPLE_STATEMENT" data-source-line="18" data-uid="lnk7" id="link_BMM_STATEMENT_BMM_SIMPLE_STATEMENT"><path codeLine="18" d="M129.57,181.26 C129.57,198.94 129.57,205.13 129.57,222.79" fill="none" id="BMM_STATEMENT-backto-BMM_SIMPLE_STATEMENT" style="stroke:#181818;stroke-width:1;"/><polygon fill="none" points="129.57,163.26,123.57,181.26,135.57,181.26,129.57,163.26" style="stroke:#181818;stroke-width:1;"/></g><!--reverse link BMM_SIMPLE_STATEMENT to BMM_ASSIGNMENT--><g class="link" data-entity-1="BMM_SIMPLE_STATEMENT" data-entity-2="BMM_ASSIGNMENT" data-source-line="20" data-uid="lnk8" id="link_BMM_SIMPLE_STATEMENT_BMM_ASSIGNMENT"><path codeLine="20" d="M129.57,289.39 C129.57,306.09 129.57,310.98 129.57,330.58" fill="none" id="BMM_SIMPLE_STATEMENT-backto-BMM_ASSIGNMENT" style="stroke:#181818;stroke-width:1;"/><polygon fill="none" points="129.57,271.39,123.57,289.39,135.57,289.39,129.57,271.39" style="stroke:#181818;stroke-width:1;"/></g></g></svg>
