<svg xmlns="http://www.w3.org/2000/svg" xmlns:xlink="http://www.w3.org/1999/xlink" contentStyleType="text/css" data-diagram-type="CLASS" height="1089px" preserveAspectRatio="none" style="width:346px;height:1089px;background:#FFFFFF;" version="1.1" viewBox="0 0 346 1089" width="346px" zoomAndPan="magnify"><defs/><g><!--class BMM_ENUMERATION_STRING--><g class="entity" data-entity="BMM_ENUMERATION_STRING" data-source-line="2" data-uid="ent0002" id="entity_BMM_ENUMERATION_STRING"><rect fill="#F1F1F1" height="64.7999" rx="2.5" ry="2.5" style="stroke:#181818;stroke-width:0.5;" width="234.4172" x="55.86" y="1017.4"/><ellipse cx="74.6553" cy="1033.4" fill="#ADD1B2" rx="11" ry="11" style="stroke:#181818;stroke-width:1;"/><path d="M74.6553,1039.8219 C75.8272,1039.8219 77.0615,1039.5563 78.4365,1038.9469 L77.9522,1037.4313 C76.8584,1037.8531 75.8428,1038.0406 74.9834,1038.0406 C72.2647,1038.0406 70.5459,1036.1969 70.5459,1033.2906 C70.5459,1030.5406 72.1084,1028.9469 74.8428,1028.9469 C75.7647,1028.9469 76.7803,1029.1344 77.9209,1029.5563 L78.499,1028.0406 C77.4053,1027.4625 76.1084,1027.1656 74.9209,1027.1656 C71.1553,1027.1656 68.5772,1029.8063 68.5772,1033.6188 C68.5772,1037.2906 71.0615,1039.8219 74.6553,1039.8219 Z " fill="#000000"/><text fill="#000000" font-family="sans-serif" font-size="14" lengthAdjust="spacing" textLength="193.9832" x="89.4987" y="1038.762">BMM_ENUMERATION_STRING</text><line style="stroke:#181818;stroke-width:0.5;" x1="56.86" x2="289.2772" y1="1049.4" y2="1049.4"/><ellipse cx="66.86" cy="1063.3" fill="none" rx="3" ry="3" style="stroke:#038048;stroke-width:1;"/><text fill="#000000" font-family="sans-serif" font-size="14" lengthAdjust="spacing" textLength="208.4172" x="75.86" y="1067.1619">underlying_type_name : String [1]</text><line style="stroke:#181818;stroke-width:0.5;" x1="56.86" x2="289.2772" y1="1074.1999" y2="1074.1999"/></g><!--class BMM_ENUMERATION--><g class="entity" data-entity="BMM_ENUMERATION" data-source-line="6" data-uid="ent0003" id="entity_BMM_ENUMERATION"><rect fill="#F5F5F5" height="98.3998" rx="2.5" ry="2.5" style="stroke:#808080;stroke-width:1;stroke-dasharray:1,3;" width="234.4172" x="55.86" y="859"/><ellipse cx="99.6725" cy="875" fill="#ADD1B2" rx="11" ry="11" style="stroke:#181818;stroke-width:1;"/><path d="M99.6725,881.4219 C100.8444,881.4219 102.0787,881.1563 103.4537,880.5469 L102.9694,879.0313 C101.8756,879.4531 100.86,879.6406 100.0006,879.6406 C97.2819,879.6406 95.5631,877.7969 95.5631,874.8906 C95.5631,872.1406 97.1256,870.5469 99.86,870.5469 C100.7819,870.5469 101.7975,870.7344 102.9381,871.1563 L103.5162,869.6406 C102.4225,869.0625 101.1256,868.7656 99.9381,868.7656 C96.1725,868.7656 93.5944,871.4063 93.5944,875.2188 C93.5944,878.8906 96.0787,881.4219 99.6725,881.4219 Z " fill="#000000"/><text fill="#808080" font-family="sans-serif" font-size="14" lengthAdjust="spacing" textLength="138.3894" x="120.0753" y="880.362">BMM_ENUMERATION</text><line style="stroke:#808080;stroke-width:1;stroke-dasharray:1,3;" x1="56.86" x2="289.2772" y1="891" y2="891"/><ellipse cx="66.86" cy="904.9" fill="none" rx="3" ry="3" style="stroke:#038048;stroke-width:1;"/><text fill="#808080" font-family="sans-serif" font-size="14" lengthAdjust="spacing" textLength="181.6353" x="75.86" y="908.7619">item_names : List&lt;String&gt; [*]</text><ellipse cx="66.86" cy="921.6999" fill="none" rx="3" ry="3" style="stroke:#038048;stroke-width:1;"/><text fill="#808080" font-family="sans-serif" font-size="14" lengthAdjust="spacing" textLength="150.2054" x="75.86" y="925.5619">item_values : List&lt;T&gt; [*]</text><ellipse cx="66.86" cy="938.4998" fill="none" rx="3" ry="3" style="stroke:#038048;stroke-width:1;"/><text fill="#808080" font-family="sans-serif" font-size="14" lengthAdjust="spacing" textLength="208.4172" x="75.86" y="942.3618">underlying_type_name : String [1]</text><line style="stroke:#808080;stroke-width:1;stroke-dasharray:1,3;" x1="56.86" x2="289.2772" y1="949.3998" y2="949.3998"/></g><!--class BMM_CLASS--><g class="entity" data-entity="BMM_CLASS" data-source-line="12" data-uid="ent0004" id="entity_BMM_CLASS"><rect fill="#F5F5F5" height="367.1986" rx="2.5" ry="2.5" style="stroke:#808080;stroke-width:1;stroke-dasharray:1,3;" width="332.1368" x="7" y="431.8"/><ellipse cx="128.7015" cy="447.8" fill="#ADD1B2" rx="11" ry="11" style="stroke:#181818;stroke-width:1;"/><path d="M128.7015,454.2219 C129.8734,454.2219 131.1078,453.9563 132.4828,453.3469 L131.9984,451.8313 C130.9047,452.2531 129.889,452.4406 129.0297,452.4406 C126.3109,452.4406 124.5922,450.5969 124.5922,447.6906 C124.5922,444.9406 126.1547,443.3469 128.889,443.3469 C129.8109,443.3469 130.8265,443.5344 131.9672,443.9563 L132.5453,442.4406 C131.4515,441.8625 130.1547,441.5656 128.9672,441.5656 C125.2015,441.5656 122.6234,444.2063 122.6234,448.0188 C122.6234,451.6906 125.1078,454.2219 128.7015,454.2219 Z " fill="#000000"/><text fill="#808080" font-family="sans-serif" font-size="14" lengthAdjust="spacing" textLength="80.2337" x="149.2015" y="453.162">BMM_CLASS</text><line style="stroke:#808080;stroke-width:1;stroke-dasharray:1,3;" x1="8" x2="338.1368" y1="463.8" y2="463.8"/><ellipse cx="18" cy="477.7" fill="none" rx="3" ry="3" style="stroke:#038048;stroke-width:1;"/><text fill="#808080" font-family="sans-serif" font-size="14" lengthAdjust="spacing" textLength="100.8836" x="27" y="481.5619">name : String [1]</text><ellipse cx="18" cy="494.4999" fill="none" rx="3" ry="3" style="stroke:#038048;stroke-width:1;"/><text fill="#808080" font-family="sans-serif" font-size="14" lengthAdjust="spacing" textLength="273.7969" x="27" y="498.3619">ancestors : Hash&lt;String,BMM_CLASS&gt; [0..1]</text><ellipse cx="18" cy="511.2998" fill="none" rx="3" ry="3" style="stroke:#038048;stroke-width:1;"/><text fill="#808080" font-family="sans-serif" font-size="14" lengthAdjust="spacing" textLength="181.1453" x="27" y="515.1618">package : BMM_PACKAGE [1]</text><ellipse cx="18" cy="528.0997" fill="none" rx="3" ry="3" style="stroke:#038048;stroke-width:1;"/><text fill="#808080" font-family="sans-serif" font-size="14" lengthAdjust="spacing" textLength="306.1368" x="27" y="531.9617">properties : Hash&lt;String,BMM_PROPERTY&gt; [0..1]</text><ellipse cx="18" cy="544.8997" fill="none" rx="3" ry="3" style="stroke:#038048;stroke-width:1;"/><text fill="#808080" font-family="sans-serif" font-size="14" lengthAdjust="spacing" textLength="180.7953" x="27" y="548.7616">source_schema_id : String [1]</text><ellipse cx="18" cy="561.6996" fill="none" rx="3" ry="3" style="stroke:#038048;stroke-width:1;"/><text fill="#808080" font-family="sans-serif" font-size="14" lengthAdjust="spacing" textLength="256.9969" x="27" y="565.5616">immediate_descendants : List&lt;String&gt; [*]</text><ellipse cx="18" cy="578.4995" fill="none" rx="3" ry="3" style="stroke:#038048;stroke-width:1;"/><text fill="#808080" font-family="sans-serif" font-size="14" lengthAdjust="spacing" textLength="147.3074" x="27" y="582.3615">is_abstract : Boolean [1]</text><ellipse cx="18" cy="595.2995" fill="none" rx="3" ry="3" style="stroke:#038048;stroke-width:1;"/><text fill="#808080" font-family="sans-serif" font-size="14" lengthAdjust="spacing" textLength="185.9053" x="27" y="599.1614">is_primitive_type : Boolean [1]</text><ellipse cx="18" cy="612.0994" fill="none" rx="3" ry="3" style="stroke:#038048;stroke-width:1;"/><text fill="#808080" font-family="sans-serif" font-size="14" lengthAdjust="spacing" textLength="147.9934" x="27" y="615.9614">is_override : Boolean [1]</text><line style="stroke:#808080;stroke-width:1;stroke-dasharray:1,3;" x1="8" x2="338.1368" y1="622.9993" y2="622.9993"/><ellipse cx="18" cy="636.8993" fill="#84BE84" rx="3" ry="3" style="stroke:#038048;stroke-width:1;"/><text fill="#808080" font-family="sans-serif" font-size="14" lengthAdjust="spacing" textLength="195.6212" x="27" y="640.7613">all_ancestors() : List&lt;String&gt; [*]</text><ellipse cx="18" cy="653.6992" fill="#84BE84" rx="3" ry="3" style="stroke:#038048;stroke-width:1;"/><text fill="#808080" font-family="sans-serif" font-size="14" lengthAdjust="spacing" textLength="213.6952" x="27" y="657.5612">all_descendants() : List&lt;String&gt; [*]</text><ellipse cx="18" cy="670.4992" fill="#84BE84" rx="3" ry="3" style="stroke:#038048;stroke-width:1;"/><text fill="#808080" font-family="sans-serif" font-size="14" lengthAdjust="spacing" textLength="170.1693" x="27" y="674.3611">suppliers() : List&lt;String&gt; [*]</text><ellipse cx="18" cy="687.2991" fill="#84BE84" rx="3" ry="3" style="stroke:#038048;stroke-width:1;"/><text fill="#808080" font-family="sans-serif" font-size="14" lengthAdjust="spacing" textLength="263.157" x="27" y="691.1611">suppliers_non_primitive() : List&lt;String&gt; [*]</text><ellipse cx="18" cy="704.099" fill="#84BE84" rx="3" ry="3" style="stroke:#038048;stroke-width:1;"/><text fill="#808080" font-family="sans-serif" font-size="14" lengthAdjust="spacing" textLength="216.0192" x="27" y="707.961">supplier_closure() : List&lt;String&gt; [*]</text><ellipse cx="18" cy="720.8989" fill="#84BE84" rx="3" ry="3" style="stroke:#038048;stroke-width:1;"/><text fill="#808080" font-family="sans-serif" font-size="14" lengthAdjust="spacing" textLength="183.8333" x="27" y="724.7609">base_class() : BMM_CLASS [1]</text><ellipse cx="18" cy="737.6989" fill="#84BE84" rx="3" ry="3" style="stroke:#038048;stroke-width:1;"/><text fill="#808080" font-family="sans-serif" font-size="14" lengthAdjust="spacing" textLength="160.7754" x="27" y="741.5608">package_path() : String [1]</text><ellipse cx="18" cy="754.4988" fill="#84BE84" rx="3" ry="3" style="stroke:#038048;stroke-width:1;"/><text fill="#808080" font-family="sans-serif" font-size="14" lengthAdjust="spacing" textLength="140.1535" x="27" y="758.3608">class_path() : String [1]</text><ellipse cx="18" cy="771.2987" fill="#84BE84" rx="3" ry="3" style="stroke:#038048;stroke-width:1;"/><text fill="#808080" font-family="sans-serif" font-size="14" lengthAdjust="spacing" textLength="276.6809" x="27" y="775.1607">flat_properties() : List&lt;BMM_PROPERTY&gt; [*]</text><ellipse cx="18" cy="788.0986" fill="#84BE84" rx="3" ry="3" style="stroke:#038048;stroke-width:1;"/><text fill="#808080" font-family="sans-serif" font-size="14" lengthAdjust="spacing" textLength="143.4715" x="27" y="791.9606">type_name() : String [1]</text></g><!--class BMM_CLASSIFIER--><g class="entity" data-entity="BMM_CLASSIFIER" data-source-line="34" data-uid="ent0005" id="entity_BMM_CLASSIFIER"><rect fill="#F5F5F5" height="131.9996" rx="2.5" ry="2.5" style="stroke:#808080;stroke-width:1;stroke-dasharray:1,3;" width="256.0471" x="45.04" y="239.8"/><ellipse cx="112.5898" cy="255.8" fill="#A9DCDF" rx="11" ry="11" style="stroke:#181818;stroke-width:1;"/><path d="M107.1054,261.3 L109.1366,261.3 L113.1835,249.9563 L112.2773,249.9563 L116.1054,261.3 L118.246,261.3 L113.9179,248.9719 L111.6991,248.9719 L107.1054,261.3 Z M109.4335,257.8 L115.871,257.8 L115.871,256.05 L109.4335,256.05 L109.4335,257.8 Z " fill="#000000"/><text fill="#808080" font-family="sans-serif" font-size="14" font-style="italic" lengthAdjust="spacing" textLength="112.4476" x="133.0898" y="261.162">BMM_CLASSIFIER</text><line style="stroke:#808080;stroke-width:1;stroke-dasharray:1,3;" x1="46.04" x2="300.0871" y1="271.8" y2="271.8"/><line style="stroke:#808080;stroke-width:1;stroke-dasharray:1,3;" x1="46.04" x2="300.0871" y1="279.8" y2="279.8"/><ellipse cx="56.04" cy="293.7" fill="#84BE84" rx="3" ry="3" style="stroke:#038048;stroke-width:1;"/><text fill="#808080" font-family="sans-serif" font-size="14" lengthAdjust="spacing" textLength="143.4715" x="65.04" y="297.5619">type_name() : String [1]</text><ellipse cx="56.04" cy="310.4999" fill="#84BE84" rx="3" ry="3" style="stroke:#038048;stroke-width:1;"/><text fill="#808080" font-family="sans-serif" font-size="14" lengthAdjust="spacing" textLength="162.6374" x="65.04" y="314.3619">type_category() : String [1]</text><ellipse cx="56.04" cy="327.2998" fill="#84BE84" rx="3" ry="3" style="stroke:#038048;stroke-width:1;"/><text fill="#808080" font-family="sans-serif" font-size="14" lengthAdjust="spacing" textLength="167.1314" x="65.04" y="331.1618">type_signature() : String [1]</text><ellipse cx="56.04" cy="344.0997" fill="#84BE84" rx="3" ry="3" style="stroke:#038048;stroke-width:1;"/><text fill="#808080" font-family="sans-serif" font-size="14" lengthAdjust="spacing" textLength="183.8333" x="65.04" y="347.9617">base_class() : BMM_CLASS [1]</text><ellipse cx="56.04" cy="360.8997" fill="#84BE84" rx="3" ry="3" style="stroke:#038048;stroke-width:1;"/><text fill="#808080" font-family="sans-serif" font-size="14" lengthAdjust="spacing" textLength="230.0471" x="65.04" y="364.7616">flattened_type_list() : List&lt;String&gt; [*]</text></g><!--class BMM_MODEL_ELEMENT--><g class="entity" data-entity="BMM_MODEL_ELEMENT" data-source-line="42" data-uid="ent0006" id="entity_BMM_MODEL_ELEMENT"><rect fill="#F5F5F5" height="64.7999" rx="2.5" ry="2.5" style="stroke:#808080;stroke-width:1;stroke-dasharray:1,3;" width="202.3433" x="71.9" y="115"/><ellipse cx="92.9885" cy="131" fill="#A9DCDF" rx="11" ry="11" style="stroke:#181818;stroke-width:1;"/><path d="M87.5041,136.5 L89.5354,136.5 L93.5822,125.1563 L92.676,125.1563 L96.5041,136.5 L98.6447,136.5 L94.3166,124.1719 L92.0979,124.1719 L87.5041,136.5 Z M89.8322,133 L96.2697,133 L96.2697,131.25 L89.8322,131.25 L89.8322,133 Z " fill="#000000"/><text fill="#808080" font-family="sans-serif" font-size="14" font-style="italic" lengthAdjust="spacing" textLength="156.8134" x="108.3415" y="136.362">BMM_MODEL_ELEMENT</text><line style="stroke:#808080;stroke-width:1;stroke-dasharray:1,3;" x1="72.9" x2="273.2433" y1="147" y2="147"/><ellipse cx="82.9" cy="160.9" fill="none" rx="3" ry="3" style="stroke:#038048;stroke-width:1;"/><text fill="#808080" font-family="sans-serif" font-size="14" lengthAdjust="spacing" textLength="176.3433" x="91.9" y="164.7619">documentation : String [0..1]</text><line style="stroke:#808080;stroke-width:1;stroke-dasharray:1,3;" x1="72.9" x2="273.2433" y1="171.7999" y2="171.7999"/></g><!--class BMM_DEFINITIONS--><g class="entity" data-entity="BMM_DEFINITIONS" data-source-line="46" data-uid="ent0007" id="entity_BMM_DEFINITIONS"><rect fill="#F5F5F5" height="48" rx="2.5" ry="2.5" style="stroke:#808080;stroke-width:1;stroke-dasharray:1,3;" width="156.4035" x="94.87" y="7"/><ellipse cx="109.87" cy="23" fill="#ADD1B2" rx="11" ry="11" style="stroke:#181818;stroke-width:1;"/><path d="M109.87,29.4219 C111.0419,29.4219 112.2763,29.1563 113.6513,28.5469 L113.1669,27.0313 C112.0731,27.4531 111.0575,27.6406 110.1981,27.6406 C107.4794,27.6406 105.7606,25.7969 105.7606,22.8906 C105.7606,20.1406 107.3231,18.5469 110.0575,18.5469 C110.9794,18.5469 111.995,18.7344 113.1356,19.1563 L113.7138,17.6406 C112.62,17.0625 111.3231,16.7656 110.1356,16.7656 C106.37,16.7656 103.7919,19.4063 103.7919,23.2188 C103.7919,26.8906 106.2763,29.4219 109.87,29.4219 Z " fill="#000000"/><text fill="#808080" font-family="sans-serif" font-size="14" lengthAdjust="spacing" textLength="124.4035" x="123.87" y="28.362">BMM_DEFINITIONS</text><line style="stroke:#808080;stroke-width:1;stroke-dasharray:1,3;" x1="95.87" x2="250.2735" y1="39" y2="39"/><line style="stroke:#808080;stroke-width:1;stroke-dasharray:1,3;" x1="95.87" x2="250.2735" y1="47" y2="47"/></g><!--reverse link BMM_DEFINITIONS to BMM_MODEL_ELEMENT--><g class="link" data-entity-1="BMM_DEFINITIONS" data-entity-2="BMM_MODEL_ELEMENT" data-source-line="49" data-uid="lnk8" id="link_BMM_DEFINITIONS_BMM_MODEL_ELEMENT"><path codeLine="49" d="M173.07,73.43 C173.07,90.56 173.07,95.98 173.07,114.76" fill="none" id="BMM_DEFINITIONS-backto-BMM_MODEL_ELEMENT" style="stroke:#181818;stroke-width:1;"/><polygon fill="none" points="173.07,55.43,167.07,73.43,179.07,73.43,173.07,55.43" style="stroke:#181818;stroke-width:1;"/></g><!--reverse link BMM_MODEL_ELEMENT to BMM_CLASSIFIER--><g class="link" data-entity-1="BMM_MODEL_ELEMENT" data-entity-2="BMM_CLASSIFIER" data-source-line="51" data-uid="lnk9" id="link_BMM_MODEL_ELEMENT_BMM_CLASSIFIER"><path codeLine="51" d="M173.07,198.05 C173.07,215.19 173.07,219.02 173.07,239.61" fill="none" id="BMM_MODEL_ELEMENT-backto-BMM_CLASSIFIER" style="stroke:#181818;stroke-width:1;"/><polygon fill="none" points="173.07,180.05,167.07,198.05,179.07,198.05,173.07,180.05" style="stroke:#181818;stroke-width:1;"/></g><!--reverse link BMM_CLASSIFIER to BMM_CLASS--><g class="link" data-entity-1="BMM_CLASSIFIER" data-entity-2="BMM_CLASS" data-source-line="53" data-uid="lnk10" id="link_BMM_CLASSIFIER_BMM_CLASS"><path codeLine="53" d="M173.07,390.04 C173.07,407.94 173.07,410.26 173.07,431.35" fill="none" id="BMM_CLASSIFIER-backto-BMM_CLASS" style="stroke:#181818;stroke-width:1;"/><polygon fill="none" points="173.07,372.04,167.07,390.04,179.07,390.04,173.07,372.04" style="stroke:#181818;stroke-width:1;"/></g><!--reverse link BMM_CLASS to BMM_ENUMERATION--><g class="link" data-entity-1="BMM_CLASS" data-entity-2="BMM_ENUMERATION" data-source-line="55" data-uid="lnk11" id="link_BMM_CLASS_BMM_ENUMERATION"><path codeLine="55" d="M173.07,817.33 C173.07,838.95 173.07,841.37 173.07,858.52" fill="none" id="BMM_CLASS-backto-BMM_ENUMERATION" style="stroke:#181818;stroke-width:1;"/><polygon fill="none" points="173.07,799.33,167.07,817.33,179.07,817.33,173.07,799.33" style="stroke:#181818;stroke-width:1;"/></g><!--reverse link BMM_ENUMERATION to BMM_ENUMERATION_STRING--><g class="link" data-entity-1="BMM_ENUMERATION" data-entity-2="BMM_ENUMERATION_STRING" data-source-line="57" data-uid="lnk12" id="link_BMM_ENUMERATION_BMM_ENUMERATION_STRING"><path codeLine="57" d="M173.07,975.63 C173.07,995.32 173.07,999.52 173.07,1017.08" fill="none" id="BMM_ENUMERATION-backto-BMM_ENUMERATION_STRING" style="stroke:#181818;stroke-width:1;"/><polygon fill="none" points="173.07,957.63,167.07,975.63,179.07,975.63,173.07,957.63" style="stroke:#181818;stroke-width:1;"/></g></g></svg>
