<svg xmlns="http://www.w3.org/2000/svg" xmlns:xlink="http://www.w3.org/1999/xlink" contentStyleType="text/css" data-diagram-type="CLASS" height="1057px" preserveAspectRatio="none" style="width:476px;height:1057px;background:#FFFFFF;" version="1.1" viewBox="0 0 476 1057" width="476px" zoomAndPan="magnify"><defs/><g><!--class BMM_GENERIC_CLASS--><g class="entity" data-entity="BMM_GENERIC_CLASS" data-source-line="2" data-uid="ent0002" id="entity_BMM_GENERIC_CLASS"><rect fill="#F1F1F1" height="115.1997" rx="2.5" ry="2.5" style="stroke:#181818;stroke-width:0.5;" width="462.7004" x="7" y="935.8"/><ellipse cx="161.3285" cy="951.8" fill="#ADD1B2" rx="11" ry="11" style="stroke:#181818;stroke-width:1;"/><path d="M161.3285,958.2219 C162.5004,958.2219 163.7347,957.9563 165.1097,957.3469 L164.6254,955.8313 C163.5316,956.2531 162.516,956.4406 161.6566,956.4406 C158.9379,956.4406 157.2191,954.5969 157.2191,951.6906 C157.2191,948.9406 158.7816,947.3469 161.516,947.3469 C162.4379,947.3469 163.4535,947.5344 164.5941,947.9563 L165.1722,946.4406 C164.0785,945.8625 162.7816,945.5656 161.5941,945.5656 C157.8285,945.5656 155.2504,948.2063 155.2504,952.0188 C155.2504,955.6906 157.7347,958.2219 161.3285,958.2219 Z " fill="#000000"/><text fill="#000000" font-family="sans-serif" font-size="14" lengthAdjust="spacing" textLength="145.5434" x="181.8285" y="957.162">BMM_GENERIC_CLASS</text><line style="stroke:#181818;stroke-width:0.5;" x1="8" x2="468.7004" y1="967.8" y2="967.8"/><ellipse cx="18" cy="981.7" fill="none" rx="3" ry="3" style="stroke:#038048;stroke-width:1;"/><text fill="#000000" font-family="sans-serif" font-size="14" lengthAdjust="spacing" textLength="400.8883" x="27" y="985.5619">generic_parameters : Hash&lt;String,BMM_PARAMETER_TYPE&gt; [1]</text><line style="stroke:#181818;stroke-width:0.5;" x1="8" x2="468.7004" y1="992.5999" y2="992.5999"/><ellipse cx="18" cy="1006.4999" fill="#84BE84" rx="3" ry="3" style="stroke:#038048;stroke-width:1;"/><text fill="#000000" font-family="sans-serif" font-size="14" lengthAdjust="spacing" textLength="170.1693" x="27" y="1010.3619">suppliers() : List&lt;String&gt; [*]</text><ellipse cx="18" cy="1023.2998" fill="#84BE84" rx="3" ry="3" style="stroke:#038048;stroke-width:1;"/><text fill="#000000" font-family="sans-serif" font-size="14" lengthAdjust="spacing" textLength="201.7952" x="27" y="1027.1618">type() : BMM_GENERIC_TYPE [1]</text><ellipse cx="18" cy="1040.0997" fill="#84BE84" rx="3" ry="3" style="stroke:#038048;stroke-width:1;"/><text fill="#000000" font-family="sans-serif" font-size="14" lengthAdjust="spacing" textLength="436.7004" x="27" y="1043.9617">generic_parameter_conformance_type( a_name : String [1] ) : String [1]</text></g><!--class BMM_CLASS--><g class="entity" data-entity="BMM_CLASS" data-source-line="9" data-uid="ent0003" id="entity_BMM_CLASS"><rect fill="#F5F5F5" height="518.3979" rx="2.5" ry="2.5" style="stroke:#808080;stroke-width:1;stroke-dasharray:1,3;" width="325.7947" x="75.45" y="357.4"/><ellipse cx="193.9805" cy="373.4" fill="#A9DCDF" rx="11" ry="11" style="stroke:#181818;stroke-width:1;"/><path d="M188.4962,378.9 L190.5274,378.9 L194.5743,367.5563 L193.668,367.5563 L197.4962,378.9 L199.6368,378.9 L195.3087,366.5719 L193.0899,366.5719 L188.4962,378.9 Z M190.8243,375.4 L197.2618,375.4 L197.2618,373.65 L190.8243,373.65 L190.8243,375.4 Z " fill="#000000"/><text fill="#808080" font-family="sans-serif" font-size="14" font-style="italic" lengthAdjust="spacing" textLength="80.2337" x="214.4805" y="378.762">BMM_CLASS</text><line style="stroke:#808080;stroke-width:1;stroke-dasharray:1,3;" x1="76.45" x2="400.2447" y1="389.4" y2="389.4"/><ellipse cx="86.45" cy="403.3" fill="none" rx="3" ry="3" style="stroke:#038048;stroke-width:1;"/><text fill="#808080" font-family="sans-serif" font-size="14" lengthAdjust="spacing" textLength="165.2414" x="95.45" y="407.1619">ancestors : List&lt;String&gt; [*]</text><ellipse cx="86.45" cy="420.0999" fill="none" rx="3" ry="3" style="stroke:#038048;stroke-width:1;"/><text fill="#808080" font-family="sans-serif" font-size="14" lengthAdjust="spacing" textLength="181.1453" x="95.45" y="423.9619">package : BMM_PACKAGE [1]</text><ellipse cx="86.45" cy="436.8998" fill="none" rx="3" ry="3" style="stroke:#038048;stroke-width:1;"/><text fill="#808080" font-family="sans-serif" font-size="14" lengthAdjust="spacing" textLength="169.2034" x="95.45" y="440.7618">properties : List&lt;String&gt; [*]</text><ellipse cx="86.45" cy="453.6997" fill="none" rx="3" ry="3" style="stroke:#038048;stroke-width:1;"/><text fill="#808080" font-family="sans-serif" font-size="14" lengthAdjust="spacing" textLength="180.7953" x="95.45" y="457.5617">source_schema_id : String [1]</text><ellipse cx="86.45" cy="470.4997" fill="none" rx="3" ry="3" style="stroke:#038048;stroke-width:1;"/><text fill="#808080" font-family="sans-serif" font-size="14" lengthAdjust="spacing" textLength="299.7947" x="95.45" y="474.3616">immediate_descendants : List&lt;BMM_CLASS&gt; [*]</text><ellipse cx="86.45" cy="487.2996" fill="none" rx="3" ry="3" style="stroke:#038048;stroke-width:1;"/><text fill="#808080" font-family="sans-serif" font-size="14" lengthAdjust="spacing" textLength="147.9934" x="95.45" y="491.1616">is_override : Boolean [1]</text><ellipse cx="86.45" cy="504.0995" fill="none" rx="3" ry="3" style="stroke:#038048;stroke-width:1;"/><text fill="#808080" font-family="sans-serif" font-size="14" lengthAdjust="spacing" textLength="209.9572" x="95.45" y="507.9615">static_properties : List&lt;String&gt; [*]</text><ellipse cx="86.45" cy="520.8995" fill="none" rx="3" ry="3" style="stroke:#038048;stroke-width:1;"/><text fill="#808080" font-family="sans-serif" font-size="14" lengthAdjust="spacing" textLength="162.8614" x="95.45" y="524.7614">functions : List&lt;String&gt; [*]</text><ellipse cx="86.45" cy="537.6994" fill="none" rx="3" ry="3" style="stroke:#038048;stroke-width:1;"/><text fill="#808080" font-family="sans-serif" font-size="14" lengthAdjust="spacing" textLength="175.0413" x="95.45" y="541.5614">procedures : List&lt;String&gt; [*]</text><ellipse cx="86.45" cy="554.4993" fill="none" rx="3" ry="3" style="stroke:#038048;stroke-width:1;"/><text fill="#808080" font-family="sans-serif" font-size="14" lengthAdjust="spacing" textLength="167.5093" x="95.45" y="558.3613">is_primitive : Boolean [0..1]</text><ellipse cx="86.45" cy="571.2992" fill="none" rx="3" ry="3" style="stroke:#038048;stroke-width:1;"/><text fill="#808080" font-family="sans-serif" font-size="14" lengthAdjust="spacing" textLength="163.0714" x="95.45" y="575.1612">is_abstract : Boolean [0..1]</text><ellipse cx="86.45" cy="588.0992" fill="none" rx="3" ry="3" style="stroke:#038048;stroke-width:1;"/><text fill="#808080" font-family="sans-serif" font-size="14" lengthAdjust="spacing" textLength="241.933" x="95.45" y="591.9611">invariants : List&lt;BMM_ASSERTION&gt; [*]</text><ellipse cx="86.45" cy="604.8991" fill="none" rx="3" ry="3" style="stroke:#038048;stroke-width:1;"/><text fill="#808080" font-family="sans-serif" font-size="14" lengthAdjust="spacing" textLength="156.0854" x="95.45" y="608.7611">creators : List&lt;String&gt; [*]</text><ellipse cx="86.45" cy="621.699" fill="none" rx="3" ry="3" style="stroke:#038048;stroke-width:1;"/><text fill="#808080" font-family="sans-serif" font-size="14" lengthAdjust="spacing" textLength="170.9673" x="95.45" y="625.561">converters : List&lt;String&gt; [*]</text><ellipse cx="86.45" cy="638.4989" fill="none" rx="3" ry="3" style="stroke:#038048;stroke-width:1;"/><text fill="#808080" font-family="sans-serif" font-size="14" lengthAdjust="spacing" textLength="217.7271" x="95.45" y="642.3609">features : List&lt;BMM_FEATURE&gt; [*]</text><line style="stroke:#808080;stroke-width:1;stroke-dasharray:1,3;" x1="76.45" x2="400.2447" y1="649.3989" y2="649.3989"/><ellipse cx="86.45" cy="663.2989" fill="#84BE84" rx="3" ry="3" style="stroke:#038048;stroke-width:1;"/><text fill="#808080" font-family="sans-serif" font-size="14" font-style="italic" lengthAdjust="spacing" textLength="191.3652" x="95.45" y="667.1608">type() : BMM_MODEL_TYPE [1]</text><ellipse cx="86.45" cy="680.0988" fill="#84BE84" rx="3" ry="3" style="stroke:#038048;stroke-width:1;"/><text fill="#808080" font-family="sans-serif" font-size="14" lengthAdjust="spacing" textLength="195.6212" x="95.45" y="683.9608">all_ancestors() : List&lt;String&gt; [*]</text><ellipse cx="86.45" cy="696.8987" fill="#84BE84" rx="3" ry="3" style="stroke:#038048;stroke-width:1;"/><text fill="#808080" font-family="sans-serif" font-size="14" lengthAdjust="spacing" textLength="213.6952" x="95.45" y="700.7607">all_descendants() : List&lt;String&gt; [*]</text><ellipse cx="86.45" cy="713.6986" fill="#84BE84" rx="3" ry="3" style="stroke:#038048;stroke-width:1;"/><text fill="#808080" font-family="sans-serif" font-size="14" lengthAdjust="spacing" textLength="170.1693" x="95.45" y="717.5606">suppliers() : List&lt;String&gt; [*]</text><ellipse cx="86.45" cy="730.4986" fill="#84BE84" rx="3" ry="3" style="stroke:#038048;stroke-width:1;"/><text fill="#808080" font-family="sans-serif" font-size="14" lengthAdjust="spacing" textLength="263.157" x="95.45" y="734.3605">suppliers_non_primitive() : List&lt;String&gt; [*]</text><ellipse cx="86.45" cy="747.2985" fill="#84BE84" rx="3" ry="3" style="stroke:#038048;stroke-width:1;"/><text fill="#808080" font-family="sans-serif" font-size="14" lengthAdjust="spacing" textLength="216.0192" x="95.45" y="751.1605">supplier_closure() : List&lt;String&gt; [*]</text><ellipse cx="86.45" cy="764.0984" fill="#84BE84" rx="3" ry="3" style="stroke:#038048;stroke-width:1;"/><text fill="#808080" font-family="sans-serif" font-size="14" lengthAdjust="spacing" textLength="160.7754" x="95.45" y="767.9604">package_path() : String [1]</text><ellipse cx="86.45" cy="780.8984" fill="#84BE84" rx="3" ry="3" style="stroke:#038048;stroke-width:1;"/><text fill="#808080" font-family="sans-serif" font-size="14" lengthAdjust="spacing" textLength="140.1535" x="95.45" y="784.7603">class_path() : String [1]</text><ellipse cx="86.45" cy="797.6983" fill="#84BE84" rx="3" ry="3" style="stroke:#038048;stroke-width:1;"/><text fill="#808080" font-family="sans-serif" font-size="14" lengthAdjust="spacing" textLength="160.1734" x="95.45" y="801.5603">is_primitive() : Boolean [1]</text><ellipse cx="86.45" cy="814.4982" fill="#84BE84" rx="3" ry="3" style="stroke:#038048;stroke-width:1;"/><text fill="#808080" font-family="sans-serif" font-size="14" lengthAdjust="spacing" textLength="155.7354" x="95.45" y="818.3602">is_abstract() : Boolean [1]</text><ellipse cx="86.45" cy="831.2981" fill="#84BE84" rx="3" ry="3" style="stroke:#038048;stroke-width:1;"/><text fill="#808080" font-family="sans-serif" font-size="14" lengthAdjust="spacing" textLength="150.7094" x="95.45" y="835.1601">features() : List&lt;Any&gt; [*]</text><ellipse cx="86.45" cy="848.0981" fill="#84BE84" rx="3" ry="3" style="stroke:#038048;stroke-width:1;"/><text fill="#808080" font-family="sans-serif" font-size="14" lengthAdjust="spacing" textLength="178.5833" x="95.45" y="851.96">flat_features() : List&lt;Any&gt; [*]</text><ellipse cx="86.45" cy="864.898" fill="#84BE84" rx="3" ry="3" style="stroke:#038048;stroke-width:1;"/><text fill="#808080" font-family="sans-serif" font-size="14" lengthAdjust="spacing" textLength="276.6809" x="95.45" y="868.76">flat_properties() : List&lt;BMM_PROPERTY&gt; [*]</text></g><!--class BMM_MODULE--><g class="entity" data-entity="BMM_MODULE" data-source-line="40" data-uid="ent0004" id="entity_BMM_MODULE"><rect fill="#F5F5F5" height="98.3998" rx="2.5" ry="2.5" style="stroke:#808080;stroke-width:1;stroke-dasharray:1,3;" width="341.7127" x="67.49" y="199"/><ellipse cx="185.5235" cy="215" fill="#A9DCDF" rx="11" ry="11" style="stroke:#181818;stroke-width:1;"/><path d="M180.0392,220.5 L182.0704,220.5 L186.1173,209.1563 L185.211,209.1563 L189.0392,220.5 L191.1798,220.5 L186.8517,208.1719 L184.6329,208.1719 L180.0392,220.5 Z M182.3673,217 L188.8048,217 L188.8048,215.25 L182.3673,215.25 L182.3673,217 Z " fill="#000000"/><text fill="#808080" font-family="sans-serif" font-size="14" font-style="italic" lengthAdjust="spacing" textLength="97.1456" x="206.0235" y="220.362">BMM_MODULE</text><line style="stroke:#808080;stroke-width:1;stroke-dasharray:1,3;" x1="68.49" x2="408.2027" y1="231" y2="231"/><ellipse cx="78.49" cy="244.9" fill="none" rx="3" ry="3" style="stroke:#038048;stroke-width:1;"/><text fill="#808080" font-family="sans-serif" font-size="14" lengthAdjust="spacing" textLength="152.6554" x="87.49" y="248.7619">scope : BMM_MODEL [1]</text><ellipse cx="78.49" cy="261.6999" fill="none" rx="3" ry="3" style="stroke:#038048;stroke-width:1;"/><text fill="#808080" font-family="sans-serif" font-size="14" lengthAdjust="spacing" textLength="315.7127" x="87.49" y="265.5619">feature_groups : List&lt;BMM_FEATURE_GROUP&gt; [*]</text><ellipse cx="78.49" cy="278.4998" fill="none" rx="3" ry="3" style="stroke:#038048;stroke-width:1;"/><text fill="#808080" font-family="sans-serif" font-size="14" lengthAdjust="spacing" textLength="282.8688" x="87.49" y="282.3618">features : List&lt;BMM_FORMAL_ELEMENT&gt; [*]</text><line style="stroke:#808080;stroke-width:1;stroke-dasharray:1,3;" x1="68.49" x2="408.2027" y1="289.3998" y2="289.3998"/></g><!--class BMM_MODEL_ELEMENT--><g class="entity" data-entity="BMM_MODEL_ELEMENT" data-source-line="46" data-uid="ent0005" id="entity_BMM_MODEL_ELEMENT"><rect fill="#F5F5F5" height="131.9996" rx="2.5" ry="2.5" style="stroke:#808080;stroke-width:1;stroke-dasharray:1,3;" width="277.285" x="99.71" y="7"/><ellipse cx="155.6958" cy="23" fill="#A9DCDF" rx="11" ry="11" style="stroke:#181818;stroke-width:1;"/><path d="M150.2115,28.5 L152.2427,28.5 L156.2896,17.1563 L155.3833,17.1563 L159.2115,28.5 L161.3521,28.5 L157.024,16.1719 L154.8052,16.1719 L150.2115,28.5 Z M152.5396,25 L158.9771,25 L158.9771,23.25 L152.5396,23.25 L152.5396,25 Z " fill="#000000"/><text fill="#808080" font-family="sans-serif" font-size="14" font-style="italic" lengthAdjust="spacing" textLength="156.8134" x="176.1958" y="28.362">BMM_MODEL_ELEMENT</text><line style="stroke:#808080;stroke-width:1;stroke-dasharray:1,3;" x1="100.71" x2="375.995" y1="39" y2="39"/><ellipse cx="110.71" cy="52.9" fill="none" rx="3" ry="3" style="stroke:#038048;stroke-width:1;"/><text fill="#808080" font-family="sans-serif" font-size="14" lengthAdjust="spacing" textLength="100.8836" x="119.71" y="56.7619">name : String [1]</text><ellipse cx="110.71" cy="69.6999" fill="none" rx="3" ry="3" style="stroke:#038048;stroke-width:1;"/><text fill="#808080" font-family="sans-serif" font-size="14" lengthAdjust="spacing" textLength="251.285" x="119.71" y="73.5619">documentation : Hash&lt;String,Any&gt; [0..1]</text><ellipse cx="110.71" cy="86.4998" fill="none" rx="3" ry="3" style="stroke:#038048;stroke-width:1;"/><text fill="#808080" font-family="sans-serif" font-size="14" lengthAdjust="spacing" textLength="221.7171" x="119.71" y="90.3618">scope : BMM_MODEL_ELEMENT [1]</text><ellipse cx="110.71" cy="103.2997" fill="none" rx="3" ry="3" style="stroke:#038048;stroke-width:1;"/><text fill="#808080" font-family="sans-serif" font-size="14" lengthAdjust="spacing" textLength="223.3411" x="119.71" y="107.1617">extensions : Hash&lt;String,Any&gt; [0..1]</text><line style="stroke:#808080;stroke-width:1;stroke-dasharray:1,3;" x1="100.71" x2="375.995" y1="114.1997" y2="114.1997"/><ellipse cx="110.71" cy="128.0997" fill="#84BE84" rx="3" ry="3" style="stroke:#038048;stroke-width:1;"/><text fill="#808080" font-family="sans-serif" font-size="14" lengthAdjust="spacing" textLength="174.5653" x="119.71" y="131.9616">is_root_scope() : Boolean [1]</text></g><!--reverse link BMM_MODEL_ELEMENT to BMM_MODULE--><g class="link" data-entity-1="BMM_MODEL_ELEMENT" data-entity-2="BMM_MODULE" data-source-line="54" data-uid="lnk6" id="link_BMM_MODEL_ELEMENT_BMM_MODULE"><path codeLine="54" d="M238.35,157.48 C238.35,177.12 238.35,180.3 238.35,198.64" fill="none" id="BMM_MODEL_ELEMENT-backto-BMM_MODULE" style="stroke:#181818;stroke-width:1;"/><polygon fill="none" points="238.35,139.48,232.35,157.48,244.35,157.48,238.35,139.48" style="stroke:#181818;stroke-width:1;"/></g><!--reverse link BMM_MODULE to BMM_CLASS--><g class="link" data-entity-1="BMM_MODULE" data-entity-2="BMM_CLASS" data-source-line="56" data-uid="lnk7" id="link_BMM_MODULE_BMM_CLASS"><path codeLine="56" d="M238.35,315.86 C238.35,332.79 238.35,335.15 238.35,357.27" fill="none" id="BMM_MODULE-backto-BMM_CLASS" style="stroke:#181818;stroke-width:1;"/><polygon fill="none" points="238.35,297.86,232.35,315.86,244.35,315.86,238.35,297.86" style="stroke:#181818;stroke-width:1;"/></g><!--reverse link BMM_CLASS to BMM_GENERIC_CLASS--><g class="link" data-entity-1="BMM_CLASS" data-entity-2="BMM_GENERIC_CLASS" data-source-line="58" data-uid="lnk8" id="link_BMM_CLASS_BMM_GENERIC_CLASS"><path codeLine="58" d="M238.35,894.12 C238.35,915.89 238.35,918.16 238.35,935.47" fill="none" id="BMM_CLASS-backto-BMM_GENERIC_CLASS" style="stroke:#181818;stroke-width:1;"/><polygon fill="none" points="238.35,876.12,232.35,894.12,244.35,894.12,238.35,876.12" style="stroke:#181818;stroke-width:1;"/></g></g></svg>
