<svg xmlns="http://www.w3.org/2000/svg" xmlns:xlink="http://www.w3.org/1999/xlink" contentStyleType="text/css" data-diagram-type="CLASS" height="361px" preserveAspectRatio="none" style="width:398px;height:361px;background:#FFFFFF;" version="1.1" viewBox="0 0 398 361" width="398px" zoomAndPan="magnify"><defs/><g><!--class BMM_PACKAGE_CONTAINER--><g class="entity" data-entity="BMM_PACKAGE_CONTAINER" data-source-line="2" data-uid="ent0002" id="entity_BMM_PACKAGE_CONTAINER"><rect fill="#F1F1F1" height="115.1997" rx="2.5" ry="2.5" style="stroke:#181818;stroke-width:0.5;" width="384.4127" x="7" y="239.8"/><ellipse cx="101.7867" cy="255.8" fill="#ADD1B2" rx="11" ry="11" style="stroke:#181818;stroke-width:1;"/><path d="M101.7867,262.2219 C102.9586,262.2219 104.193,261.9563 105.568,261.3469 L105.0836,259.8313 C103.9898,260.2531 102.9742,260.4406 102.1148,260.4406 C99.3961,260.4406 97.6773,258.5969 97.6773,255.6906 C97.6773,252.9406 99.2398,251.3469 101.9742,251.3469 C102.8961,251.3469 103.9117,251.5344 105.0523,251.9563 L105.6305,250.4406 C104.5367,249.8625 103.2398,249.5656 102.0523,249.5656 C98.2867,249.5656 95.7086,252.2063 95.7086,256.0188 C95.7086,259.6906 98.193,262.2219 101.7867,262.2219 Z " fill="#000000"/><text fill="#000000" font-family="sans-serif" font-size="14" lengthAdjust="spacing" textLength="186.3392" x="122.2867" y="261.162">BMM_PACKAGE_CONTAINER</text><line style="stroke:#181818;stroke-width:0.5;" x1="8" x2="390.4127" y1="271.8" y2="271.8"/><ellipse cx="18" cy="285.7" fill="none" rx="3" ry="3" style="stroke:#038048;stroke-width:1;"/><text fill="#000000" font-family="sans-serif" font-size="14" lengthAdjust="spacing" textLength="292.3608" x="27" y="289.5619">packages : Hash&lt;String,BMM_PACKAGE&gt; [0..1]</text><line style="stroke:#181818;stroke-width:0.5;" x1="8" x2="390.4127" y1="296.5999" y2="296.5999"/><ellipse cx="18" cy="310.4999" fill="#84BE84" rx="3" ry="3" style="stroke:#038048;stroke-width:1;"/><text fill="#000000" font-family="sans-serif" font-size="14" lengthAdjust="spacing" textLength="358.4127" x="27" y="314.3619">package_at_path( a_path : String [1] ) : BMM_PACKAGE [1]</text><ellipse cx="18" cy="327.2998" fill="#84BE84" rx="3" ry="3" style="stroke:#038048;stroke-width:1;"/><text fill="#000000" font-family="sans-serif" font-size="14" lengthAdjust="spacing" textLength="334.7247" x="27" y="331.1618">do_recursive_packages( action : PROCEDURE [1] ) :  [1]</text><ellipse cx="18" cy="344.0997" fill="#84BE84" rx="3" ry="3" style="stroke:#038048;stroke-width:1;"/><text fill="#000000" font-family="sans-serif" font-size="14" lengthAdjust="spacing" textLength="317.4908" x="27" y="347.9617">has_package_path( a_path : String [1] ) : Boolean [1]</text></g><!--class BMM_MODEL_ELEMENT--><g class="entity" data-entity="BMM_MODEL_ELEMENT" data-source-line="9" data-uid="ent0003" id="entity_BMM_MODEL_ELEMENT"><rect fill="#F5F5F5" height="64.7999" rx="2.5" ry="2.5" style="stroke:#808080;stroke-width:1;stroke-dasharray:1,3;" width="202.3433" x="98.03" y="115"/><ellipse cx="119.1185" cy="131" fill="#A9DCDF" rx="11" ry="11" style="stroke:#181818;stroke-width:1;"/><path d="M113.6341,136.5 L115.6654,136.5 L119.7122,125.1563 L118.806,125.1563 L122.6341,136.5 L124.7747,136.5 L120.4466,124.1719 L118.2279,124.1719 L113.6341,136.5 Z M115.9622,133 L122.3997,133 L122.3997,131.25 L115.9622,131.25 L115.9622,133 Z " fill="#000000"/><text fill="#808080" font-family="sans-serif" font-size="14" font-style="italic" lengthAdjust="spacing" textLength="156.8134" x="134.4715" y="136.362">BMM_MODEL_ELEMENT</text><line style="stroke:#808080;stroke-width:1;stroke-dasharray:1,3;" x1="99.03" x2="299.3733" y1="147" y2="147"/><ellipse cx="109.03" cy="160.9" fill="none" rx="3" ry="3" style="stroke:#038048;stroke-width:1;"/><text fill="#808080" font-family="sans-serif" font-size="14" lengthAdjust="spacing" textLength="176.3433" x="118.03" y="164.7619">documentation : String [0..1]</text><line style="stroke:#808080;stroke-width:1;stroke-dasharray:1,3;" x1="99.03" x2="299.3733" y1="171.7999" y2="171.7999"/></g><!--class BMM_DEFINITIONS--><g class="entity" data-entity="BMM_DEFINITIONS" data-source-line="13" data-uid="ent0004" id="entity_BMM_DEFINITIONS"><rect fill="#F5F5F5" height="48" rx="2.5" ry="2.5" style="stroke:#808080;stroke-width:1;stroke-dasharray:1,3;" width="156.4035" x="121" y="7"/><ellipse cx="136" cy="23" fill="#ADD1B2" rx="11" ry="11" style="stroke:#181818;stroke-width:1;"/><path d="M136,29.4219 C137.1719,29.4219 138.4063,29.1563 139.7813,28.5469 L139.2969,27.0313 C138.2031,27.4531 137.1875,27.6406 136.3281,27.6406 C133.6094,27.6406 131.8906,25.7969 131.8906,22.8906 C131.8906,20.1406 133.4531,18.5469 136.1875,18.5469 C137.1094,18.5469 138.125,18.7344 139.2656,19.1563 L139.8438,17.6406 C138.75,17.0625 137.4531,16.7656 136.2656,16.7656 C132.5,16.7656 129.9219,19.4063 129.9219,23.2188 C129.9219,26.8906 132.4063,29.4219 136,29.4219 Z " fill="#000000"/><text fill="#808080" font-family="sans-serif" font-size="14" lengthAdjust="spacing" textLength="124.4035" x="150" y="28.362">BMM_DEFINITIONS</text><line style="stroke:#808080;stroke-width:1;stroke-dasharray:1,3;" x1="122" x2="276.4035" y1="39" y2="39"/><line style="stroke:#808080;stroke-width:1;stroke-dasharray:1,3;" x1="122" x2="276.4035" y1="47" y2="47"/></g><!--reverse link BMM_DEFINITIONS to BMM_MODEL_ELEMENT--><g class="link" data-entity-1="BMM_DEFINITIONS" data-entity-2="BMM_MODEL_ELEMENT" data-source-line="16" data-uid="lnk5" id="link_BMM_DEFINITIONS_BMM_MODEL_ELEMENT"><path codeLine="16" d="M199.21,73.43 C199.21,90.55 199.21,95.97 199.21,114.76" fill="none" id="BMM_DEFINITIONS-backto-BMM_MODEL_ELEMENT" style="stroke:#181818;stroke-width:1;"/><polygon fill="none" points="199.21,55.43,193.21,73.43,205.21,73.43,199.21,55.43" style="stroke:#181818;stroke-width:1;"/></g><!--reverse link BMM_MODEL_ELEMENT to BMM_PACKAGE_CONTAINER--><g class="link" data-entity-1="BMM_MODEL_ELEMENT" data-entity-2="BMM_PACKAGE_CONTAINER" data-source-line="18" data-uid="lnk6" id="link_BMM_MODEL_ELEMENT_BMM_PACKAGE_CONTAINER"><path codeLine="18" d="M199.21,198.15 C199.21,215.39 199.21,219.24 199.21,239.32" fill="none" id="BMM_MODEL_ELEMENT-backto-BMM_PACKAGE_CONTAINER" style="stroke:#181818;stroke-width:1;"/><polygon fill="none" points="199.21,180.15,193.21,198.15,205.21,198.15,199.21,180.15" style="stroke:#181818;stroke-width:1;"/></g></g></svg>
