<svg xmlns="http://www.w3.org/2000/svg" xmlns:xlink="http://www.w3.org/1999/xlink" contentStyleType="text/css" data-diagram-type="CLASS" height="378px" preserveAspectRatio="none" style="width:270px;height:378px;background:#FFFFFF;" version="1.1" viewBox="0 0 270 378" width="270px" zoomAndPan="magnify"><defs/><g><!--class BMM_CLASSIFIER--><g class="entity" data-entity="BMM_CLASSIFIER" data-source-line="2" data-uid="ent0002" id="entity_BMM_CLASSIFIER"><rect fill="#F1F1F1" height="131.9996" rx="2.5" ry="2.5" style="stroke:#181818;stroke-width:0.5;" width="256.0471" x="7" y="239.8"/><ellipse cx="74.5498" cy="255.8" fill="#A9DCDF" rx="11" ry="11" style="stroke:#181818;stroke-width:1;"/><path d="M69.0654,261.3 L71.0966,261.3 L75.1435,249.9563 L74.2373,249.9563 L78.0654,261.3 L80.206,261.3 L75.8779,248.9719 L73.6591,248.9719 L69.0654,261.3 Z M71.3935,257.8 L77.831,257.8 L77.831,256.05 L71.3935,256.05 L71.3935,257.8 Z " fill="#000000"/><text fill="#000000" font-family="sans-serif" font-size="14" font-style="italic" lengthAdjust="spacing" textLength="112.4476" x="95.0498" y="261.162">BMM_CLASSIFIER</text><line style="stroke:#181818;stroke-width:0.5;" x1="8" x2="262.0471" y1="271.8" y2="271.8"/><line style="stroke:#181818;stroke-width:0.5;" x1="8" x2="262.0471" y1="279.8" y2="279.8"/><ellipse cx="18" cy="293.7" fill="#84BE84" rx="3" ry="3" style="stroke:#038048;stroke-width:1;"/><text fill="#000000" font-family="sans-serif" font-size="14" lengthAdjust="spacing" textLength="143.4715" x="27" y="297.5619">type_name() : String [1]</text><ellipse cx="18" cy="310.4999" fill="#84BE84" rx="3" ry="3" style="stroke:#038048;stroke-width:1;"/><text fill="#000000" font-family="sans-serif" font-size="14" lengthAdjust="spacing" textLength="162.6374" x="27" y="314.3619">type_category() : String [1]</text><ellipse cx="18" cy="327.2998" fill="#84BE84" rx="3" ry="3" style="stroke:#038048;stroke-width:1;"/><text fill="#000000" font-family="sans-serif" font-size="14" lengthAdjust="spacing" textLength="167.1314" x="27" y="331.1618">type_signature() : String [1]</text><ellipse cx="18" cy="344.0997" fill="#84BE84" rx="3" ry="3" style="stroke:#038048;stroke-width:1;"/><text fill="#000000" font-family="sans-serif" font-size="14" lengthAdjust="spacing" textLength="183.8333" x="27" y="347.9617">base_class() : BMM_CLASS [1]</text><ellipse cx="18" cy="360.8997" fill="#84BE84" rx="3" ry="3" style="stroke:#038048;stroke-width:1;"/><text fill="#000000" font-family="sans-serif" font-size="14" lengthAdjust="spacing" textLength="230.0471" x="27" y="364.7616">flattened_type_list() : List&lt;String&gt; [*]</text></g><!--class BMM_MODEL_ELEMENT--><g class="entity" data-entity="BMM_MODEL_ELEMENT" data-source-line="10" data-uid="ent0003" id="entity_BMM_MODEL_ELEMENT"><rect fill="#F5F5F5" height="64.7999" rx="2.5" ry="2.5" style="stroke:#808080;stroke-width:1;stroke-dasharray:1,3;" width="202.3433" x="33.85" y="115"/><ellipse cx="54.9385" cy="131" fill="#A9DCDF" rx="11" ry="11" style="stroke:#181818;stroke-width:1;"/><path d="M49.4541,136.5 L51.4854,136.5 L55.5322,125.1563 L54.626,125.1563 L58.4541,136.5 L60.5947,136.5 L56.2666,124.1719 L54.0479,124.1719 L49.4541,136.5 Z M51.7822,133 L58.2197,133 L58.2197,131.25 L51.7822,131.25 L51.7822,133 Z " fill="#000000"/><text fill="#808080" font-family="sans-serif" font-size="14" font-style="italic" lengthAdjust="spacing" textLength="156.8134" x="70.2915" y="136.362">BMM_MODEL_ELEMENT</text><line style="stroke:#808080;stroke-width:1;stroke-dasharray:1,3;" x1="34.85" x2="235.1933" y1="147" y2="147"/><ellipse cx="44.85" cy="160.9" fill="none" rx="3" ry="3" style="stroke:#038048;stroke-width:1;"/><text fill="#808080" font-family="sans-serif" font-size="14" lengthAdjust="spacing" textLength="176.3433" x="53.85" y="164.7619">documentation : String [0..1]</text><line style="stroke:#808080;stroke-width:1;stroke-dasharray:1,3;" x1="34.85" x2="235.1933" y1="171.7999" y2="171.7999"/></g><!--class BMM_DEFINITIONS--><g class="entity" data-entity="BMM_DEFINITIONS" data-source-line="14" data-uid="ent0004" id="entity_BMM_DEFINITIONS"><rect fill="#F5F5F5" height="48" rx="2.5" ry="2.5" style="stroke:#808080;stroke-width:1;stroke-dasharray:1,3;" width="156.4035" x="56.82" y="7"/><ellipse cx="71.82" cy="23" fill="#ADD1B2" rx="11" ry="11" style="stroke:#181818;stroke-width:1;"/><path d="M71.82,29.4219 C72.9919,29.4219 74.2263,29.1563 75.6013,28.5469 L75.1169,27.0313 C74.0231,27.4531 73.0075,27.6406 72.1481,27.6406 C69.4294,27.6406 67.7106,25.7969 67.7106,22.8906 C67.7106,20.1406 69.2731,18.5469 72.0075,18.5469 C72.9294,18.5469 73.945,18.7344 75.0856,19.1563 L75.6638,17.6406 C74.57,17.0625 73.2731,16.7656 72.0856,16.7656 C68.32,16.7656 65.7419,19.4063 65.7419,23.2188 C65.7419,26.8906 68.2263,29.4219 71.82,29.4219 Z " fill="#000000"/><text fill="#808080" font-family="sans-serif" font-size="14" lengthAdjust="spacing" textLength="124.4035" x="85.82" y="28.362">BMM_DEFINITIONS</text><line style="stroke:#808080;stroke-width:1;stroke-dasharray:1,3;" x1="57.82" x2="212.2235" y1="39" y2="39"/><line style="stroke:#808080;stroke-width:1;stroke-dasharray:1,3;" x1="57.82" x2="212.2235" y1="47" y2="47"/></g><!--reverse link BMM_DEFINITIONS to BMM_MODEL_ELEMENT--><g class="link" data-entity-1="BMM_DEFINITIONS" data-entity-2="BMM_MODEL_ELEMENT" data-source-line="17" data-uid="lnk5" id="link_BMM_DEFINITIONS_BMM_MODEL_ELEMENT"><path codeLine="17" d="M135.02,73.43 C135.02,90.55 135.02,95.97 135.02,114.76" fill="none" id="BMM_DEFINITIONS-backto-BMM_MODEL_ELEMENT" style="stroke:#181818;stroke-width:1;"/><polygon fill="none" points="135.02,55.43,129.02,73.43,141.02,73.43,135.02,55.43" style="stroke:#181818;stroke-width:1;"/></g><!--reverse link BMM_MODEL_ELEMENT to BMM_CLASSIFIER--><g class="link" data-entity-1="BMM_MODEL_ELEMENT" data-entity-2="BMM_CLASSIFIER" data-source-line="19" data-uid="lnk6" id="link_BMM_MODEL_ELEMENT_BMM_CLASSIFIER"><path codeLine="19" d="M135.02,198.05 C135.02,215.19 135.02,219.02 135.02,239.61" fill="none" id="BMM_MODEL_ELEMENT-backto-BMM_CLASSIFIER" style="stroke:#181818;stroke-width:1;"/><polygon fill="none" points="135.02,180.05,129.02,198.05,141.02,198.05,135.02,180.05" style="stroke:#181818;stroke-width:1;"/></g></g></svg>
