<svg xmlns="http://www.w3.org/2000/svg" xmlns:xlink="http://www.w3.org/1999/xlink" contentStyleType="text/css" data-diagram-type="CLASS" height="170px" preserveAspectRatio="none" style="width:203px;height:170px;background:#FFFFFF;" version="1.1" viewBox="0 0 203 170" width="203px" zoomAndPan="magnify"><defs/><g><!--class BMM_STATEMENT--><g class="entity" data-entity="BMM_STATEMENT" data-source-line="2" data-uid="ent0002" id="entity_BMM_STATEMENT"><rect fill="#F1F1F1" height="48" rx="2.5" ry="2.5" style="stroke:#181818;stroke-width:0.5;" width="151.0275" x="26.43" y="115"/><ellipse cx="41.43" cy="131" fill="#A9DCDF" rx="11" ry="11" style="stroke:#181818;stroke-width:1;"/><path d="M35.9456,136.5 L37.9769,136.5 L42.0238,125.1563 L41.1175,125.1563 L44.9456,136.5 L47.0863,136.5 L42.7581,124.1719 L40.5394,124.1719 L35.9456,136.5 Z M38.2738,133 L44.7113,133 L44.7113,131.25 L38.2738,131.25 L38.2738,133 Z " fill="#000000"/><text fill="#000000" font-family="sans-serif" font-size="14" font-style="italic" lengthAdjust="spacing" textLength="119.0275" x="55.43" y="136.362">BMM_STATEMENT</text><line style="stroke:#181818;stroke-width:0.5;" x1="27.43" x2="176.4575" y1="147" y2="147"/><line style="stroke:#181818;stroke-width:0.5;" x1="27.43" x2="176.4575" y1="155" y2="155"/></g><!--class BMM_STATEMENT_ITEM--><g class="entity" data-entity="BMM_STATEMENT_ITEM" data-source-line="5" data-uid="ent0003" id="entity_BMM_STATEMENT_ITEM"><rect fill="#F5F5F5" height="48" rx="2.5" ry="2.5" style="stroke:#808080;stroke-width:1;stroke-dasharray:1,3;" width="189.8914" x="7" y="7"/><ellipse cx="22" cy="23" fill="#A9DCDF" rx="11" ry="11" style="stroke:#181818;stroke-width:1;"/><path d="M16.5156,28.5 L18.5469,28.5 L22.5938,17.1563 L21.6875,17.1563 L25.5156,28.5 L27.6563,28.5 L23.3281,16.1719 L21.1094,16.1719 L16.5156,28.5 Z M18.8438,25 L25.2813,25 L25.2813,23.25 L18.8438,23.25 L18.8438,25 Z " fill="#000000"/><text fill="#808080" font-family="sans-serif" font-size="14" font-style="italic" lengthAdjust="spacing" textLength="157.8914" x="36" y="28.362">BMM_STATEMENT_ITEM</text><line style="stroke:#808080;stroke-width:1;stroke-dasharray:1,3;" x1="8" x2="195.8914" y1="39" y2="39"/><line style="stroke:#808080;stroke-width:1;stroke-dasharray:1,3;" x1="8" x2="195.8914" y1="47" y2="47"/></g><!--reverse link BMM_STATEMENT_ITEM to BMM_STATEMENT--><g class="link" data-entity-1="BMM_STATEMENT_ITEM" data-entity-2="BMM_STATEMENT" data-source-line="8" data-uid="lnk4" id="link_BMM_STATEMENT_ITEM_BMM_STATEMENT"><path codeLine="8" d="M101.95,73.26 C101.95,90.94 101.95,97.13 101.95,114.79" fill="none" id="BMM_STATEMENT_ITEM-backto-BMM_STATEMENT" style="stroke:#181818;stroke-width:1;"/><polygon fill="none" points="101.95,55.26,95.95,73.26,107.95,73.26,101.95,55.26" style="stroke:#181818;stroke-width:1;"/></g></g></svg>
