<svg xmlns="http://www.w3.org/2000/svg" xmlns:xlink="http://www.w3.org/1999/xlink" contentStyleType="text/css" data-diagram-type="CLASS" height="695px" preserveAspectRatio="none" style="width:405px;height:695px;background:#FFFFFF;" version="1.1" viewBox="0 0 405 695" width="405px" zoomAndPan="magnify"><defs/><g><!--class BMM_GENERIC_PARAMETER--><g class="entity" data-entity="BMM_GENERIC_PARAMETER" data-source-line="2" data-uid="ent0002" id="entity_BMM_GENERIC_PARAMETER"><rect fill="#F1F1F1" height="148.7996" rx="2.5" ry="2.5" style="stroke:#181818;stroke-width:0.5;" width="391.4685" x="7" y="539.8"/><ellipse cx="106.1686" cy="555.8" fill="#ADD1B2" rx="11" ry="11" style="stroke:#181818;stroke-width:1;"/><path d="M106.1686,562.2219 C107.3405,562.2219 108.5749,561.9563 109.9499,561.3469 L109.4655,559.8313 C108.3718,560.2531 107.3561,560.4406 106.4968,560.4406 C103.778,560.4406 102.0593,558.5969 102.0593,555.6906 C102.0593,552.9406 103.6218,551.3469 106.3561,551.3469 C107.278,551.3469 108.2936,551.5344 109.4343,551.9563 L110.0124,550.4406 C108.9186,549.8625 107.6218,549.5656 106.4343,549.5656 C102.6686,549.5656 100.0905,552.2063 100.0905,556.0188 C100.0905,559.6906 102.5749,562.2219 106.1686,562.2219 Z " fill="#000000"/><text fill="#000000" font-family="sans-serif" font-size="14" lengthAdjust="spacing" textLength="184.6312" x="126.6686" y="561.162">BMM_GENERIC_PARAMETER</text><line style="stroke:#181818;stroke-width:0.5;" x1="8" x2="397.4685" y1="571.8" y2="571.8"/><ellipse cx="18" cy="585.7" fill="none" rx="3" ry="3" style="stroke:#038048;stroke-width:1;"/><text fill="#000000" font-family="sans-serif" font-size="14" lengthAdjust="spacing" textLength="100.8836" x="27" y="589.5619">name : String [1]</text><ellipse cx="18" cy="602.4999" fill="none" rx="3" ry="3" style="stroke:#038048;stroke-width:1;"/><text fill="#000000" font-family="sans-serif" font-size="14" lengthAdjust="spacing" textLength="237.9851" x="27" y="606.3619">conforms_to_type : BMM_CLASS [0..1]</text><ellipse cx="18" cy="619.2998" fill="none" rx="3" ry="3" style="stroke:#038048;stroke-width:1;"/><text fill="#000000" font-family="sans-serif" font-size="14" lengthAdjust="spacing" textLength="365.4685" x="27" y="623.1618">inheritance_precursor : BMM_GENERIC_PARAMETER [0..1]</text><line style="stroke:#181818;stroke-width:0.5;" x1="8" x2="397.4685" y1="630.1998" y2="630.1998"/><ellipse cx="18" cy="644.0997" fill="#84BE84" rx="3" ry="3" style="stroke:#038048;stroke-width:1;"/><text fill="#000000" font-family="sans-serif" font-size="14" lengthAdjust="spacing" textLength="251.481" x="27" y="647.9617">flattened_conforms_to_type() : String [1]</text><ellipse cx="18" cy="660.8997" fill="#84BE84" rx="3" ry="3" style="stroke:#038048;stroke-width:1;"/><text fill="#000000" font-family="sans-serif" font-size="14" lengthAdjust="spacing" textLength="291.1009" x="27" y="664.7616">effective_conforms_to_type() : BMM_CLASS [1]</text><ellipse cx="18" cy="677.6996" fill="#84BE84" rx="3" ry="3" style="stroke:#038048;stroke-width:1;"/><text fill="#000000" font-family="sans-serif" font-size="14" lengthAdjust="spacing" textLength="167.1314" x="27" y="681.5616">type_signature() : String [1]</text></g><!--class BMM_TYPE_ELEMENT--><g class="entity" data-entity="BMM_TYPE_ELEMENT" data-source-line="11" data-uid="ent0003" id="entity_BMM_TYPE_ELEMENT"><rect fill="#F5F5F5" height="48" rx="2.5" ry="2.5" style="stroke:#808080;stroke-width:1;stroke-dasharray:1,3;" width="173.4134" x="116.03" y="431.8"/><ellipse cx="131.03" cy="447.8" fill="#A9DCDF" rx="11" ry="11" style="stroke:#181818;stroke-width:1;"/><path d="M125.5456,453.3 L127.5769,453.3 L131.6238,441.9563 L130.7175,441.9563 L134.5456,453.3 L136.6863,453.3 L132.3581,440.9719 L130.1394,440.9719 L125.5456,453.3 Z M127.8738,449.8 L134.3113,449.8 L134.3113,448.05 L127.8738,448.05 L127.8738,449.8 Z " fill="#000000"/><text fill="#808080" font-family="sans-serif" font-size="14" font-style="italic" lengthAdjust="spacing" textLength="141.4134" x="145.03" y="453.162">BMM_TYPE_ELEMENT</text><line style="stroke:#808080;stroke-width:1;stroke-dasharray:1,3;" x1="117.03" x2="288.4434" y1="463.8" y2="463.8"/><line style="stroke:#808080;stroke-width:1;stroke-dasharray:1,3;" x1="117.03" x2="288.4434" y1="471.8" y2="471.8"/></g><!--class BMM_CLASSIFIER--><g class="entity" data-entity="BMM_CLASSIFIER" data-source-line="14" data-uid="ent0004" id="entity_BMM_CLASSIFIER"><rect fill="#F5F5F5" height="131.9996" rx="2.5" ry="2.5" style="stroke:#808080;stroke-width:1;stroke-dasharray:1,3;" width="256.0471" x="74.71" y="239.8"/><ellipse cx="142.2598" cy="255.8" fill="#A9DCDF" rx="11" ry="11" style="stroke:#181818;stroke-width:1;"/><path d="M136.7754,261.3 L138.8066,261.3 L142.8535,249.9563 L141.9473,249.9563 L145.7754,261.3 L147.916,261.3 L143.5879,248.9719 L141.3691,248.9719 L136.7754,261.3 Z M139.1035,257.8 L145.541,257.8 L145.541,256.05 L139.1035,256.05 L139.1035,257.8 Z " fill="#000000"/><text fill="#808080" font-family="sans-serif" font-size="14" font-style="italic" lengthAdjust="spacing" textLength="112.4476" x="162.7598" y="261.162">BMM_CLASSIFIER</text><line style="stroke:#808080;stroke-width:1;stroke-dasharray:1,3;" x1="75.71" x2="329.7571" y1="271.8" y2="271.8"/><line style="stroke:#808080;stroke-width:1;stroke-dasharray:1,3;" x1="75.71" x2="329.7571" y1="279.8" y2="279.8"/><ellipse cx="85.71" cy="293.7" fill="#84BE84" rx="3" ry="3" style="stroke:#038048;stroke-width:1;"/><text fill="#808080" font-family="sans-serif" font-size="14" lengthAdjust="spacing" textLength="143.4715" x="94.71" y="297.5619">type_name() : String [1]</text><ellipse cx="85.71" cy="310.4999" fill="#84BE84" rx="3" ry="3" style="stroke:#038048;stroke-width:1;"/><text fill="#808080" font-family="sans-serif" font-size="14" lengthAdjust="spacing" textLength="162.6374" x="94.71" y="314.3619">type_category() : String [1]</text><ellipse cx="85.71" cy="327.2998" fill="#84BE84" rx="3" ry="3" style="stroke:#038048;stroke-width:1;"/><text fill="#808080" font-family="sans-serif" font-size="14" lengthAdjust="spacing" textLength="167.1314" x="94.71" y="331.1618">type_signature() : String [1]</text><ellipse cx="85.71" cy="344.0997" fill="#84BE84" rx="3" ry="3" style="stroke:#038048;stroke-width:1;"/><text fill="#808080" font-family="sans-serif" font-size="14" lengthAdjust="spacing" textLength="183.8333" x="94.71" y="347.9617">base_class() : BMM_CLASS [1]</text><ellipse cx="85.71" cy="360.8997" fill="#84BE84" rx="3" ry="3" style="stroke:#038048;stroke-width:1;"/><text fill="#808080" font-family="sans-serif" font-size="14" lengthAdjust="spacing" textLength="230.0471" x="94.71" y="364.7616">flattened_type_list() : List&lt;String&gt; [*]</text></g><!--class BMM_MODEL_ELEMENT--><g class="entity" data-entity="BMM_MODEL_ELEMENT" data-source-line="22" data-uid="ent0005" id="entity_BMM_MODEL_ELEMENT"><rect fill="#F5F5F5" height="64.7999" rx="2.5" ry="2.5" style="stroke:#808080;stroke-width:1;stroke-dasharray:1,3;" width="202.3433" x="101.56" y="115"/><ellipse cx="122.6485" cy="131" fill="#A9DCDF" rx="11" ry="11" style="stroke:#181818;stroke-width:1;"/><path d="M117.1641,136.5 L119.1954,136.5 L123.2422,125.1563 L122.336,125.1563 L126.1641,136.5 L128.3047,136.5 L123.9766,124.1719 L121.7579,124.1719 L117.1641,136.5 Z M119.4922,133 L125.9297,133 L125.9297,131.25 L119.4922,131.25 L119.4922,133 Z " fill="#000000"/><text fill="#808080" font-family="sans-serif" font-size="14" font-style="italic" lengthAdjust="spacing" textLength="156.8134" x="138.0015" y="136.362">BMM_MODEL_ELEMENT</text><line style="stroke:#808080;stroke-width:1;stroke-dasharray:1,3;" x1="102.56" x2="302.9033" y1="147" y2="147"/><ellipse cx="112.56" cy="160.9" fill="none" rx="3" ry="3" style="stroke:#038048;stroke-width:1;"/><text fill="#808080" font-family="sans-serif" font-size="14" lengthAdjust="spacing" textLength="176.3433" x="121.56" y="164.7619">documentation : String [0..1]</text><line style="stroke:#808080;stroke-width:1;stroke-dasharray:1,3;" x1="102.56" x2="302.9033" y1="171.7999" y2="171.7999"/></g><!--class BMM_DEFINITIONS--><g class="entity" data-entity="BMM_DEFINITIONS" data-source-line="26" data-uid="ent0006" id="entity_BMM_DEFINITIONS"><rect fill="#F5F5F5" height="48" rx="2.5" ry="2.5" style="stroke:#808080;stroke-width:1;stroke-dasharray:1,3;" width="156.4035" x="124.53" y="7"/><ellipse cx="139.53" cy="23" fill="#ADD1B2" rx="11" ry="11" style="stroke:#181818;stroke-width:1;"/><path d="M139.53,29.4219 C140.7019,29.4219 141.9363,29.1563 143.3113,28.5469 L142.8269,27.0313 C141.7331,27.4531 140.7175,27.6406 139.8581,27.6406 C137.1394,27.6406 135.4206,25.7969 135.4206,22.8906 C135.4206,20.1406 136.9831,18.5469 139.7175,18.5469 C140.6394,18.5469 141.655,18.7344 142.7956,19.1563 L143.3738,17.6406 C142.28,17.0625 140.9831,16.7656 139.7956,16.7656 C136.03,16.7656 133.4519,19.4063 133.4519,23.2188 C133.4519,26.8906 135.9363,29.4219 139.53,29.4219 Z " fill="#000000"/><text fill="#808080" font-family="sans-serif" font-size="14" lengthAdjust="spacing" textLength="124.4035" x="153.53" y="28.362">BMM_DEFINITIONS</text><line style="stroke:#808080;stroke-width:1;stroke-dasharray:1,3;" x1="125.53" x2="279.9335" y1="39" y2="39"/><line style="stroke:#808080;stroke-width:1;stroke-dasharray:1,3;" x1="125.53" x2="279.9335" y1="47" y2="47"/></g><!--reverse link BMM_DEFINITIONS to BMM_MODEL_ELEMENT--><g class="link" data-entity-1="BMM_DEFINITIONS" data-entity-2="BMM_MODEL_ELEMENT" data-source-line="29" data-uid="lnk7" id="link_BMM_DEFINITIONS_BMM_MODEL_ELEMENT"><path codeLine="29" d="M202.73,73.43 C202.73,90.55 202.73,95.97 202.73,114.76" fill="none" id="BMM_DEFINITIONS-backto-BMM_MODEL_ELEMENT" style="stroke:#181818;stroke-width:1;"/><polygon fill="none" points="202.73,55.43,196.73,73.43,208.73,73.43,202.73,55.43" style="stroke:#181818;stroke-width:1;"/></g><!--reverse link BMM_MODEL_ELEMENT to BMM_CLASSIFIER--><g class="link" data-entity-1="BMM_MODEL_ELEMENT" data-entity-2="BMM_CLASSIFIER" data-source-line="31" data-uid="lnk8" id="link_BMM_MODEL_ELEMENT_BMM_CLASSIFIER"><path codeLine="31" d="M202.73,198.05 C202.73,215.19 202.73,219.02 202.73,239.61" fill="none" id="BMM_MODEL_ELEMENT-backto-BMM_CLASSIFIER" style="stroke:#181818;stroke-width:1;"/><polygon fill="none" points="202.73,180.05,196.73,198.05,208.73,198.05,202.73,180.05" style="stroke:#181818;stroke-width:1;"/></g><!--reverse link BMM_CLASSIFIER to BMM_TYPE_ELEMENT--><g class="link" data-entity-1="BMM_CLASSIFIER" data-entity-2="BMM_TYPE_ELEMENT" data-source-line="33" data-uid="lnk9" id="link_BMM_CLASSIFIER_BMM_TYPE_ELEMENT"><path codeLine="33" d="M202.73,390.15 C202.73,411.36 202.73,415.54 202.73,431.58" fill="none" id="BMM_CLASSIFIER-backto-BMM_TYPE_ELEMENT" style="stroke:#181818;stroke-width:1;"/><polygon fill="none" points="202.73,372.15,196.73,390.15,208.73,390.15,202.73,372.15" style="stroke:#181818;stroke-width:1;"/></g><!--reverse link BMM_TYPE_ELEMENT to BMM_GENERIC_PARAMETER--><g class="link" data-entity-1="BMM_TYPE_ELEMENT" data-entity-2="BMM_GENERIC_PARAMETER" data-source-line="35" data-uid="lnk10" id="link_BMM_TYPE_ELEMENT_BMM_GENERIC_PARAMETER"><path codeLine="35" d="M202.73,498.22 C202.73,514.07 202.73,517.95 202.73,539.39" fill="none" id="BMM_TYPE_ELEMENT-backto-BMM_GENERIC_PARAMETER" style="stroke:#181818;stroke-width:1;"/><polygon fill="none" points="202.73,480.22,196.73,498.22,208.73,498.22,202.73,480.22" style="stroke:#181818;stroke-width:1;"/></g></g></svg>
