<svg xmlns="http://www.w3.org/2000/svg" xmlns:xlink="http://www.w3.org/1999/xlink" contentStyleType="text/css" data-diagram-type="CLASS" height="287px" preserveAspectRatio="none" style="width:355px;height:287px;background:#FFFFFF;" version="1.1" viewBox="0 0 355 287" width="355px" zoomAndPan="magnify"><defs/><g><!--class BMM_SCHEMA_CORE--><g class="entity" data-entity="BMM_SCHEMA_CORE" data-source-line="2" data-uid="ent0002" id="entity_BMM_SCHEMA_CORE"><rect fill="#F1F1F1" height="266.399" rx="2.5" ry="2.5" style="stroke:#181818;stroke-width:0.5;" width="334.1528" x="7" y="7"/><ellipse cx="100.2117" cy="23" fill="#ADD1B2" rx="11" ry="11" style="stroke:#181818;stroke-width:1;"/><path d="M100.2117,29.4219 C101.3835,29.4219 102.6179,29.1563 103.9929,28.5469 L103.5085,27.0313 C102.4148,27.4531 101.3992,27.6406 100.5398,27.6406 C97.821,27.6406 96.1023,25.7969 96.1023,22.8906 C96.1023,20.1406 97.6648,18.5469 100.3992,18.5469 C101.321,18.5469 102.3367,18.7344 103.4773,19.1563 L104.0554,17.6406 C102.9617,17.0625 101.6648,16.7656 100.4773,16.7656 C96.7117,16.7656 94.1335,19.4063 94.1335,23.2188 C94.1335,26.8906 96.6179,29.4219 100.2117,29.4219 Z " fill="#000000"/><text fill="#000000" font-family="sans-serif" font-size="14" lengthAdjust="spacing" textLength="139.2294" x="120.7117" y="28.362">BMM_SCHEMA_CORE</text><line style="stroke:#181818;stroke-width:0.5;" x1="8" x2="340.1528" y1="39" y2="39"/><ellipse cx="18" cy="52.9" fill="none" rx="3" ry="3" style="stroke:#038048;stroke-width:1;"/><text fill="#000000" font-family="sans-serif" font-size="14" lengthAdjust="spacing" textLength="148.8894" x="27" y="56.7619">rm_publisher : String [1]</text><ellipse cx="18" cy="69.6999" fill="none" rx="3" ry="3" style="stroke:#038048;stroke-width:1;"/><text fill="#000000" font-family="sans-serif" font-size="14" lengthAdjust="spacing" textLength="135.6735" x="27" y="73.5619">rm_release : String [1]</text><ellipse cx="18" cy="86.4998" fill="none" rx="3" ry="3" style="stroke:#038048;stroke-width:1;"/><text fill="#000000" font-family="sans-serif" font-size="14" lengthAdjust="spacing" textLength="155.8194" x="27" y="90.3618">schema_name : String [1]</text><ellipse cx="18" cy="103.2997" fill="none" rx="3" ry="3" style="stroke:#038048;stroke-width:1;"/><text fill="#000000" font-family="sans-serif" font-size="14" lengthAdjust="spacing" textLength="169.5673" x="27" y="107.1617">schema_revision : String [1]</text><ellipse cx="18" cy="120.0997" fill="none" rx="3" ry="3" style="stroke:#038048;stroke-width:1;"/><text fill="#000000" font-family="sans-serif" font-size="14" lengthAdjust="spacing" textLength="209.6492" x="27" y="123.9616">schema_lifecycle_state : String [1]</text><ellipse cx="18" cy="136.8996" fill="none" rx="3" ry="3" style="stroke:#038048;stroke-width:1;"/><text fill="#000000" font-family="sans-serif" font-size="14" lengthAdjust="spacing" textLength="162.1054" x="27" y="140.7616">schema_author : String [1]</text><ellipse cx="18" cy="153.6995" fill="none" rx="3" ry="3" style="stroke:#038048;stroke-width:1;"/><text fill="#000000" font-family="sans-serif" font-size="14" lengthAdjust="spacing" textLength="190.4133" x="27" y="157.5615">schema_description : String [1]</text><ellipse cx="18" cy="170.4995" fill="none" rx="3" ry="3" style="stroke:#038048;stroke-width:1;"/><text fill="#000000" font-family="sans-serif" font-size="14" lengthAdjust="spacing" textLength="236.6271" x="27" y="174.3614">schema_contributors : List&lt;String&gt; [*]</text><ellipse cx="18" cy="187.2994" fill="none" rx="3" ry="3" style="stroke:#038048;stroke-width:1;"/><text fill="#000000" font-family="sans-serif" font-size="14" lengthAdjust="spacing" textLength="228.6331" x="27" y="191.1614">archetype_parent_class : String [0..1]</text><ellipse cx="18" cy="204.0993" fill="none" rx="3" ry="3" style="stroke:#038048;stroke-width:1;"/><text fill="#000000" font-family="sans-serif" font-size="14" lengthAdjust="spacing" textLength="302.9868" x="27" y="207.9613">archetype_data_value_parent_class : String [0..1]</text><ellipse cx="18" cy="220.8992" fill="none" rx="3" ry="3" style="stroke:#038048;stroke-width:1;"/><text fill="#000000" font-family="sans-serif" font-size="14" lengthAdjust="spacing" textLength="308.1528" x="27" y="224.7612">archetype_rm_closure_packages : List&lt;String&gt; [*]</text><ellipse cx="18" cy="237.6992" fill="none" rx="3" ry="3" style="stroke:#038048;stroke-width:1;"/><text fill="#000000" font-family="sans-serif" font-size="14" lengthAdjust="spacing" textLength="308.1528" x="27" y="241.5611">archetype_visualise_descendants_of : String [0..1]</text><line style="stroke:#181818;stroke-width:0.5;" x1="8" x2="340.1528" y1="248.5991" y2="248.5991"/><ellipse cx="18" cy="262.4991" fill="#84BE84" rx="3" ry="3" style="stroke:#038048;stroke-width:1;"/><text fill="#000000" font-family="sans-serif" font-size="14" lengthAdjust="spacing" textLength="140.7695" x="27" y="266.3611">schema_id() : String [1]</text></g></g></svg>
