<svg xmlns="http://www.w3.org/2000/svg" xmlns:xlink="http://www.w3.org/1999/xlink" contentStyleType="text/css" data-diagram-type="CLASS" height="981px" preserveAspectRatio="none" style="width:466px;height:981px;background:#FFFFFF;" version="1.1" viewBox="0 0 466 981" width="466px" zoomAndPan="magnify"><defs/><g><!--class BMM_GENERIC_CLASS--><g class="entity" data-entity="BMM_GENERIC_CLASS" data-source-line="2" data-uid="ent0002" id="entity_BMM_GENERIC_CLASS"><rect fill="#F1F1F1" height="115.1997" rx="2.5" ry="2.5" style="stroke:#181818;stroke-width:0.5;" width="452.7183" x="7" y="859"/><ellipse cx="156.3374" cy="875" fill="#ADD1B2" rx="11" ry="11" style="stroke:#181818;stroke-width:1;"/><path d="M156.3374,881.4219 C157.5093,881.4219 158.7437,881.1563 160.1187,880.5469 L159.6343,879.0313 C158.5406,879.4531 157.5249,879.6406 156.6656,879.6406 C153.9468,879.6406 152.2281,877.7969 152.2281,874.8906 C152.2281,872.1406 153.7906,870.5469 156.5249,870.5469 C157.4468,870.5469 158.4624,870.7344 159.6031,871.1563 L160.1812,869.6406 C159.0874,869.0625 157.7906,868.7656 156.6031,868.7656 C152.8374,868.7656 150.2593,871.4063 150.2593,875.2188 C150.2593,878.8906 152.7437,881.4219 156.3374,881.4219 Z " fill="#000000"/><text fill="#000000" font-family="sans-serif" font-size="14" lengthAdjust="spacing" textLength="145.5434" x="176.8374" y="880.362">BMM_GENERIC_CLASS</text><line style="stroke:#181818;stroke-width:0.5;" x1="8" x2="458.7183" y1="891" y2="891"/><ellipse cx="18" cy="904.9" fill="none" rx="3" ry="3" style="stroke:#038048;stroke-width:1;"/><text fill="#000000" font-family="sans-serif" font-size="14" lengthAdjust="spacing" textLength="426.7183" x="27" y="908.7619">generic_parameters : Hash&lt;String,BMM_GENERIC_PARAMETER&gt; [1]</text><line style="stroke:#181818;stroke-width:0.5;" x1="8" x2="458.7183" y1="915.7999" y2="915.7999"/><ellipse cx="18" cy="929.6999" fill="#84BE84" rx="3" ry="3" style="stroke:#038048;stroke-width:1;"/><text fill="#000000" font-family="sans-serif" font-size="14" lengthAdjust="spacing" textLength="170.1693" x="27" y="933.5619">suppliers() : List&lt;String&gt; [*]</text><ellipse cx="18" cy="946.4998" fill="#84BE84" rx="3" ry="3" style="stroke:#038048;stroke-width:1;"/><text fill="#000000" font-family="sans-serif" font-size="14" lengthAdjust="spacing" textLength="167.1314" x="27" y="950.3618">type_signature() : String [1]</text><ellipse cx="18" cy="963.2997" fill="#84BE84" rx="3" ry="3" style="stroke:#038048;stroke-width:1;"/><text fill="#000000" font-family="sans-serif" font-size="14" lengthAdjust="spacing" textLength="143.4715" x="27" y="967.1617">type_name() : String [1]</text></g><!--class BMM_CLASS--><g class="entity" data-entity="BMM_CLASS" data-source-line="9" data-uid="ent0003" id="entity_BMM_CLASS"><rect fill="#F5F5F5" height="367.1986" rx="2.5" ry="2.5" style="stroke:#808080;stroke-width:1;stroke-dasharray:1,3;" width="332.1368" x="67.29" y="431.8"/><ellipse cx="188.9915" cy="447.8" fill="#ADD1B2" rx="11" ry="11" style="stroke:#181818;stroke-width:1;"/><path d="M188.9915,454.2219 C190.1634,454.2219 191.3978,453.9563 192.7728,453.3469 L192.2884,451.8313 C191.1947,452.2531 190.179,452.4406 189.3197,452.4406 C186.6009,452.4406 184.8822,450.5969 184.8822,447.6906 C184.8822,444.9406 186.4447,443.3469 189.179,443.3469 C190.1009,443.3469 191.1165,443.5344 192.2572,443.9563 L192.8353,442.4406 C191.7415,441.8625 190.4447,441.5656 189.2572,441.5656 C185.4915,441.5656 182.9134,444.2063 182.9134,448.0188 C182.9134,451.6906 185.3978,454.2219 188.9915,454.2219 Z " fill="#000000"/><text fill="#808080" font-family="sans-serif" font-size="14" lengthAdjust="spacing" textLength="80.2337" x="209.4915" y="453.162">BMM_CLASS</text><line style="stroke:#808080;stroke-width:1;stroke-dasharray:1,3;" x1="68.29" x2="398.4268" y1="463.8" y2="463.8"/><ellipse cx="78.29" cy="477.7" fill="none" rx="3" ry="3" style="stroke:#038048;stroke-width:1;"/><text fill="#808080" font-family="sans-serif" font-size="14" lengthAdjust="spacing" textLength="100.8836" x="87.29" y="481.5619">name : String [1]</text><ellipse cx="78.29" cy="494.4999" fill="none" rx="3" ry="3" style="stroke:#038048;stroke-width:1;"/><text fill="#808080" font-family="sans-serif" font-size="14" lengthAdjust="spacing" textLength="273.7969" x="87.29" y="498.3619">ancestors : Hash&lt;String,BMM_CLASS&gt; [0..1]</text><ellipse cx="78.29" cy="511.2998" fill="none" rx="3" ry="3" style="stroke:#038048;stroke-width:1;"/><text fill="#808080" font-family="sans-serif" font-size="14" lengthAdjust="spacing" textLength="181.1453" x="87.29" y="515.1618">package : BMM_PACKAGE [1]</text><ellipse cx="78.29" cy="528.0997" fill="none" rx="3" ry="3" style="stroke:#038048;stroke-width:1;"/><text fill="#808080" font-family="sans-serif" font-size="14" lengthAdjust="spacing" textLength="306.1368" x="87.29" y="531.9617">properties : Hash&lt;String,BMM_PROPERTY&gt; [0..1]</text><ellipse cx="78.29" cy="544.8997" fill="none" rx="3" ry="3" style="stroke:#038048;stroke-width:1;"/><text fill="#808080" font-family="sans-serif" font-size="14" lengthAdjust="spacing" textLength="180.7953" x="87.29" y="548.7616">source_schema_id : String [1]</text><ellipse cx="78.29" cy="561.6996" fill="none" rx="3" ry="3" style="stroke:#038048;stroke-width:1;"/><text fill="#808080" font-family="sans-serif" font-size="14" lengthAdjust="spacing" textLength="256.9969" x="87.29" y="565.5616">immediate_descendants : List&lt;String&gt; [*]</text><ellipse cx="78.29" cy="578.4995" fill="none" rx="3" ry="3" style="stroke:#038048;stroke-width:1;"/><text fill="#808080" font-family="sans-serif" font-size="14" lengthAdjust="spacing" textLength="147.3074" x="87.29" y="582.3615">is_abstract : Boolean [1]</text><ellipse cx="78.29" cy="595.2995" fill="none" rx="3" ry="3" style="stroke:#038048;stroke-width:1;"/><text fill="#808080" font-family="sans-serif" font-size="14" lengthAdjust="spacing" textLength="185.9053" x="87.29" y="599.1614">is_primitive_type : Boolean [1]</text><ellipse cx="78.29" cy="612.0994" fill="none" rx="3" ry="3" style="stroke:#038048;stroke-width:1;"/><text fill="#808080" font-family="sans-serif" font-size="14" lengthAdjust="spacing" textLength="147.9934" x="87.29" y="615.9614">is_override : Boolean [1]</text><line style="stroke:#808080;stroke-width:1;stroke-dasharray:1,3;" x1="68.29" x2="398.4268" y1="622.9993" y2="622.9993"/><ellipse cx="78.29" cy="636.8993" fill="#84BE84" rx="3" ry="3" style="stroke:#038048;stroke-width:1;"/><text fill="#808080" font-family="sans-serif" font-size="14" lengthAdjust="spacing" textLength="195.6212" x="87.29" y="640.7613">all_ancestors() : List&lt;String&gt; [*]</text><ellipse cx="78.29" cy="653.6992" fill="#84BE84" rx="3" ry="3" style="stroke:#038048;stroke-width:1;"/><text fill="#808080" font-family="sans-serif" font-size="14" lengthAdjust="spacing" textLength="213.6952" x="87.29" y="657.5612">all_descendants() : List&lt;String&gt; [*]</text><ellipse cx="78.29" cy="670.4992" fill="#84BE84" rx="3" ry="3" style="stroke:#038048;stroke-width:1;"/><text fill="#808080" font-family="sans-serif" font-size="14" lengthAdjust="spacing" textLength="170.1693" x="87.29" y="674.3611">suppliers() : List&lt;String&gt; [*]</text><ellipse cx="78.29" cy="687.2991" fill="#84BE84" rx="3" ry="3" style="stroke:#038048;stroke-width:1;"/><text fill="#808080" font-family="sans-serif" font-size="14" lengthAdjust="spacing" textLength="263.157" x="87.29" y="691.1611">suppliers_non_primitive() : List&lt;String&gt; [*]</text><ellipse cx="78.29" cy="704.099" fill="#84BE84" rx="3" ry="3" style="stroke:#038048;stroke-width:1;"/><text fill="#808080" font-family="sans-serif" font-size="14" lengthAdjust="spacing" textLength="216.0192" x="87.29" y="707.961">supplier_closure() : List&lt;String&gt; [*]</text><ellipse cx="78.29" cy="720.8989" fill="#84BE84" rx="3" ry="3" style="stroke:#038048;stroke-width:1;"/><text fill="#808080" font-family="sans-serif" font-size="14" lengthAdjust="spacing" textLength="183.8333" x="87.29" y="724.7609">base_class() : BMM_CLASS [1]</text><ellipse cx="78.29" cy="737.6989" fill="#84BE84" rx="3" ry="3" style="stroke:#038048;stroke-width:1;"/><text fill="#808080" font-family="sans-serif" font-size="14" lengthAdjust="spacing" textLength="160.7754" x="87.29" y="741.5608">package_path() : String [1]</text><ellipse cx="78.29" cy="754.4988" fill="#84BE84" rx="3" ry="3" style="stroke:#038048;stroke-width:1;"/><text fill="#808080" font-family="sans-serif" font-size="14" lengthAdjust="spacing" textLength="140.1535" x="87.29" y="758.3608">class_path() : String [1]</text><ellipse cx="78.29" cy="771.2987" fill="#84BE84" rx="3" ry="3" style="stroke:#038048;stroke-width:1;"/><text fill="#808080" font-family="sans-serif" font-size="14" lengthAdjust="spacing" textLength="276.6809" x="87.29" y="775.1607">flat_properties() : List&lt;BMM_PROPERTY&gt; [*]</text><ellipse cx="78.29" cy="788.0986" fill="#84BE84" rx="3" ry="3" style="stroke:#038048;stroke-width:1;"/><text fill="#808080" font-family="sans-serif" font-size="14" lengthAdjust="spacing" textLength="143.4715" x="87.29" y="791.9606">type_name() : String [1]</text></g><!--class BMM_CLASSIFIER--><g class="entity" data-entity="BMM_CLASSIFIER" data-source-line="31" data-uid="ent0004" id="entity_BMM_CLASSIFIER"><rect fill="#F5F5F5" height="131.9996" rx="2.5" ry="2.5" style="stroke:#808080;stroke-width:1;stroke-dasharray:1,3;" width="256.0471" x="105.34" y="239.8"/><ellipse cx="172.8898" cy="255.8" fill="#A9DCDF" rx="11" ry="11" style="stroke:#181818;stroke-width:1;"/><path d="M167.4054,261.3 L169.4366,261.3 L173.4835,249.9563 L172.5773,249.9563 L176.4054,261.3 L178.546,261.3 L174.2179,248.9719 L171.9991,248.9719 L167.4054,261.3 Z M169.7335,257.8 L176.171,257.8 L176.171,256.05 L169.7335,256.05 L169.7335,257.8 Z " fill="#000000"/><text fill="#808080" font-family="sans-serif" font-size="14" font-style="italic" lengthAdjust="spacing" textLength="112.4476" x="193.3898" y="261.162">BMM_CLASSIFIER</text><line style="stroke:#808080;stroke-width:1;stroke-dasharray:1,3;" x1="106.34" x2="360.3871" y1="271.8" y2="271.8"/><line style="stroke:#808080;stroke-width:1;stroke-dasharray:1,3;" x1="106.34" x2="360.3871" y1="279.8" y2="279.8"/><ellipse cx="116.34" cy="293.7" fill="#84BE84" rx="3" ry="3" style="stroke:#038048;stroke-width:1;"/><text fill="#808080" font-family="sans-serif" font-size="14" lengthAdjust="spacing" textLength="143.4715" x="125.34" y="297.5619">type_name() : String [1]</text><ellipse cx="116.34" cy="310.4999" fill="#84BE84" rx="3" ry="3" style="stroke:#038048;stroke-width:1;"/><text fill="#808080" font-family="sans-serif" font-size="14" lengthAdjust="spacing" textLength="162.6374" x="125.34" y="314.3619">type_category() : String [1]</text><ellipse cx="116.34" cy="327.2998" fill="#84BE84" rx="3" ry="3" style="stroke:#038048;stroke-width:1;"/><text fill="#808080" font-family="sans-serif" font-size="14" lengthAdjust="spacing" textLength="167.1314" x="125.34" y="331.1618">type_signature() : String [1]</text><ellipse cx="116.34" cy="344.0997" fill="#84BE84" rx="3" ry="3" style="stroke:#038048;stroke-width:1;"/><text fill="#808080" font-family="sans-serif" font-size="14" lengthAdjust="spacing" textLength="183.8333" x="125.34" y="347.9617">base_class() : BMM_CLASS [1]</text><ellipse cx="116.34" cy="360.8997" fill="#84BE84" rx="3" ry="3" style="stroke:#038048;stroke-width:1;"/><text fill="#808080" font-family="sans-serif" font-size="14" lengthAdjust="spacing" textLength="230.0471" x="125.34" y="364.7616">flattened_type_list() : List&lt;String&gt; [*]</text></g><!--class BMM_MODEL_ELEMENT--><g class="entity" data-entity="BMM_MODEL_ELEMENT" data-source-line="39" data-uid="ent0005" id="entity_BMM_MODEL_ELEMENT"><rect fill="#F5F5F5" height="64.7999" rx="2.5" ry="2.5" style="stroke:#808080;stroke-width:1;stroke-dasharray:1,3;" width="202.3433" x="132.19" y="115"/><ellipse cx="153.2785" cy="131" fill="#A9DCDF" rx="11" ry="11" style="stroke:#181818;stroke-width:1;"/><path d="M147.7941,136.5 L149.8254,136.5 L153.8722,125.1563 L152.966,125.1563 L156.7941,136.5 L158.9347,136.5 L154.6066,124.1719 L152.3879,124.1719 L147.7941,136.5 Z M150.1222,133 L156.5597,133 L156.5597,131.25 L150.1222,131.25 L150.1222,133 Z " fill="#000000"/><text fill="#808080" font-family="sans-serif" font-size="14" font-style="italic" lengthAdjust="spacing" textLength="156.8134" x="168.6315" y="136.362">BMM_MODEL_ELEMENT</text><line style="stroke:#808080;stroke-width:1;stroke-dasharray:1,3;" x1="133.19" x2="333.5333" y1="147" y2="147"/><ellipse cx="143.19" cy="160.9" fill="none" rx="3" ry="3" style="stroke:#038048;stroke-width:1;"/><text fill="#808080" font-family="sans-serif" font-size="14" lengthAdjust="spacing" textLength="176.3433" x="152.19" y="164.7619">documentation : String [0..1]</text><line style="stroke:#808080;stroke-width:1;stroke-dasharray:1,3;" x1="133.19" x2="333.5333" y1="171.7999" y2="171.7999"/></g><!--class BMM_DEFINITIONS--><g class="entity" data-entity="BMM_DEFINITIONS" data-source-line="43" data-uid="ent0006" id="entity_BMM_DEFINITIONS"><rect fill="#F5F5F5" height="48" rx="2.5" ry="2.5" style="stroke:#808080;stroke-width:1;stroke-dasharray:1,3;" width="156.4035" x="155.16" y="7"/><ellipse cx="170.16" cy="23" fill="#ADD1B2" rx="11" ry="11" style="stroke:#181818;stroke-width:1;"/><path d="M170.16,29.4219 C171.3319,29.4219 172.5663,29.1563 173.9413,28.5469 L173.4569,27.0313 C172.3631,27.4531 171.3475,27.6406 170.4881,27.6406 C167.7694,27.6406 166.0506,25.7969 166.0506,22.8906 C166.0506,20.1406 167.6131,18.5469 170.3475,18.5469 C171.2694,18.5469 172.285,18.7344 173.4256,19.1563 L174.0038,17.6406 C172.91,17.0625 171.6131,16.7656 170.4256,16.7656 C166.66,16.7656 164.0819,19.4063 164.0819,23.2188 C164.0819,26.8906 166.5663,29.4219 170.16,29.4219 Z " fill="#000000"/><text fill="#808080" font-family="sans-serif" font-size="14" lengthAdjust="spacing" textLength="124.4035" x="184.16" y="28.362">BMM_DEFINITIONS</text><line style="stroke:#808080;stroke-width:1;stroke-dasharray:1,3;" x1="156.16" x2="310.5635" y1="39" y2="39"/><line style="stroke:#808080;stroke-width:1;stroke-dasharray:1,3;" x1="156.16" x2="310.5635" y1="47" y2="47"/></g><!--reverse link BMM_DEFINITIONS to BMM_MODEL_ELEMENT--><g class="link" data-entity-1="BMM_DEFINITIONS" data-entity-2="BMM_MODEL_ELEMENT" data-source-line="46" data-uid="lnk7" id="link_BMM_DEFINITIONS_BMM_MODEL_ELEMENT"><path codeLine="46" d="M233.36,73.43 C233.36,90.56 233.36,95.98 233.36,114.76" fill="none" id="BMM_DEFINITIONS-backto-BMM_MODEL_ELEMENT" style="stroke:#181818;stroke-width:1;"/><polygon fill="none" points="233.36,55.43,227.36,73.43,239.36,73.43,233.36,55.43" style="stroke:#181818;stroke-width:1;"/></g><!--reverse link BMM_MODEL_ELEMENT to BMM_CLASSIFIER--><g class="link" data-entity-1="BMM_MODEL_ELEMENT" data-entity-2="BMM_CLASSIFIER" data-source-line="48" data-uid="lnk8" id="link_BMM_MODEL_ELEMENT_BMM_CLASSIFIER"><path codeLine="48" d="M233.36,198.05 C233.36,215.19 233.36,219.02 233.36,239.61" fill="none" id="BMM_MODEL_ELEMENT-backto-BMM_CLASSIFIER" style="stroke:#181818;stroke-width:1;"/><polygon fill="none" points="233.36,180.05,227.36,198.05,239.36,198.05,233.36,180.05" style="stroke:#181818;stroke-width:1;"/></g><!--reverse link BMM_CLASSIFIER to BMM_CLASS--><g class="link" data-entity-1="BMM_CLASSIFIER" data-entity-2="BMM_CLASS" data-source-line="50" data-uid="lnk9" id="link_BMM_CLASSIFIER_BMM_CLASS"><path codeLine="50" d="M233.36,390.04 C233.36,407.94 233.36,410.26 233.36,431.35" fill="none" id="BMM_CLASSIFIER-backto-BMM_CLASS" style="stroke:#181818;stroke-width:1;"/><polygon fill="none" points="233.36,372.04,227.36,390.04,239.36,390.04,233.36,372.04" style="stroke:#181818;stroke-width:1;"/></g><!--reverse link BMM_CLASS to BMM_GENERIC_CLASS--><g class="link" data-entity-1="BMM_CLASS" data-entity-2="BMM_GENERIC_CLASS" data-source-line="52" data-uid="lnk10" id="link_BMM_CLASS_BMM_GENERIC_CLASS"><path codeLine="52" d="M233.36,817.49 C233.36,838.72 233.36,841.01 233.36,858.51" fill="none" id="BMM_CLASS-backto-BMM_GENERIC_CLASS" style="stroke:#181818;stroke-width:1;"/><polygon fill="none" points="233.36,799.49,227.36,817.49,239.36,817.49,233.36,799.49" style="stroke:#181818;stroke-width:1;"/></g></g></svg>
