<svg xmlns="http://www.w3.org/2000/svg" xmlns:xlink="http://www.w3.org/1999/xlink" contentStyleType="text/css" data-diagram-type="CLASS" height="729px" preserveAspectRatio="none" style="width:313px;height:729px;background:#FFFFFF;" version="1.1" viewBox="0 0 313 729" width="313px" zoomAndPan="magnify"><defs/><g><!--class BMM_STATUS_TYPE--><g class="entity" data-entity="BMM_STATUS_TYPE" data-source-line="2" data-uid="ent0002" id="entity_BMM_STATUS_TYPE"><rect fill="#F1F1F1" height="48" rx="2.5" ry="2.5" style="stroke:#181818;stroke-width:0.5;" width="160.8415" x="76.26" y="674.2"/><ellipse cx="91.26" cy="690.2" fill="#ADD1B2" rx="11" ry="11" style="stroke:#181818;stroke-width:1;"/><path d="M91.26,696.6219 C92.4319,696.6219 93.6663,696.3563 95.0413,695.7469 L94.5569,694.2313 C93.4631,694.6531 92.4475,694.8406 91.5881,694.8406 C88.8694,694.8406 87.1506,692.9969 87.1506,690.0906 C87.1506,687.3406 88.7131,685.7469 91.4475,685.7469 C92.3694,685.7469 93.385,685.9344 94.5256,686.3563 L95.1038,684.8406 C94.01,684.2625 92.7131,683.9656 91.5256,683.9656 C87.76,683.9656 85.1819,686.6063 85.1819,690.4188 C85.1819,694.0906 87.6663,696.6219 91.26,696.6219 Z " fill="#000000"/><text fill="#000000" font-family="sans-serif" font-size="14" lengthAdjust="spacing" textLength="128.8415" x="105.26" y="695.562">BMM_STATUS_TYPE</text><line style="stroke:#181818;stroke-width:0.5;" x1="77.26" x2="236.1015" y1="706.2" y2="706.2"/><line style="stroke:#181818;stroke-width:0.5;" x1="77.26" x2="236.1015" y1="714.2" y2="714.2"/></g><!--class BMM_BUILTIN_TYPE--><g class="entity" data-entity="BMM_BUILTIN_TYPE" data-source-line="5" data-uid="ent0003" id="entity_BMM_BUILTIN_TYPE"><rect fill="#F5F5F5" height="115.1997" rx="2.5" ry="2.5" style="stroke:#808080;stroke-width:1;stroke-dasharray:1,3;" width="205.5073" x="53.93" y="499"/><ellipse cx="88.261" cy="515" fill="#A9DCDF" rx="11" ry="11" style="stroke:#181818;stroke-width:1;"/><path d="M82.7766,520.5 L84.8079,520.5 L88.8548,509.1563 L87.9485,509.1563 L91.7766,520.5 L93.9173,520.5 L89.5891,508.1719 L87.3704,508.1719 L82.7766,520.5 Z M85.1048,517 L91.5423,517 L91.5423,515.25 L85.1048,515.25 L85.1048,517 Z " fill="#000000"/><text fill="#808080" font-family="sans-serif" font-size="14" font-style="italic" lengthAdjust="spacing" textLength="130.5495" x="106.5568" y="520.362">BMM_BUILTIN_TYPE</text><line style="stroke:#808080;stroke-width:1;stroke-dasharray:1,3;" x1="54.93" x2="258.4373" y1="531" y2="531"/><line style="stroke:#808080;stroke-width:1;stroke-dasharray:1,3;" x1="54.93" x2="258.4373" y1="539" y2="539"/><ellipse cx="64.93" cy="552.9" fill="#84BE84" rx="3" ry="3" style="stroke:#038048;stroke-width:1;"/><text fill="#808080" font-family="sans-serif" font-size="14" lengthAdjust="spacing" textLength="155.7354" x="73.93" y="556.7619">is_abstract() : Boolean [1]</text><ellipse cx="64.93" cy="569.6999" fill="#84BE84" rx="3" ry="3" style="stroke:#038048;stroke-width:1;"/><text fill="#808080" font-family="sans-serif" font-size="14" lengthAdjust="spacing" textLength="160.1734" x="73.93" y="573.5619">is_primitive() : Boolean [1]</text><ellipse cx="64.93" cy="586.4998" fill="#84BE84" rx="3" ry="3" style="stroke:#038048;stroke-width:1;"/><text fill="#808080" font-family="sans-serif" font-size="14" lengthAdjust="spacing" textLength="179.5073" x="73.93" y="590.3618">type_base_name() : String [1]</text><ellipse cx="64.93" cy="603.2997" fill="#84BE84" rx="3" ry="3" style="stroke:#038048;stroke-width:1;"/><text fill="#808080" font-family="sans-serif" font-size="14" lengthAdjust="spacing" textLength="143.4715" x="73.93" y="607.1617">type_name() : String [1]</text></g><!--class BMM_EFFECTIVE_TYPE--><g class="entity" data-entity="BMM_EFFECTIVE_TYPE" data-source-line="12" data-uid="ent0004" id="entity_BMM_EFFECTIVE_TYPE"><rect fill="#F5F5F5" height="81.5999" rx="2.5" ry="2.5" style="stroke:#808080;stroke-width:1;stroke-dasharray:1,3;" width="299.3629" x="7" y="357.4"/><ellipse cx="78.0428" cy="373.4" fill="#A9DCDF" rx="11" ry="11" style="stroke:#181818;stroke-width:1;"/><path d="M72.5584,378.9 L74.5896,378.9 L78.6365,367.5563 L77.7303,367.5563 L81.5584,378.9 L83.699,378.9 L79.3709,366.5719 L77.1521,366.5719 L72.5584,378.9 Z M74.8865,375.4 L81.324,375.4 L81.324,373.65 L74.8865,373.65 L74.8865,375.4 Z " fill="#000000"/><text fill="#808080" font-family="sans-serif" font-size="14" font-style="italic" lengthAdjust="spacing" textLength="148.7774" x="98.5428" y="378.762">BMM_EFFECTIVE_TYPE</text><line style="stroke:#808080;stroke-width:1;stroke-dasharray:1,3;" x1="8" x2="305.3629" y1="389.4" y2="389.4"/><line style="stroke:#808080;stroke-width:1;stroke-dasharray:1,3;" x1="8" x2="305.3629" y1="397.4" y2="397.4"/><ellipse cx="18" cy="411.3" fill="#84BE84" rx="3" ry="3" style="stroke:#038048;stroke-width:1;"/><text fill="#808080" font-family="sans-serif" font-size="14" lengthAdjust="spacing" textLength="273.3629" x="27" y="415.1619">effective_type() : BMM_EFFECTIVE_TYPE [1]</text><ellipse cx="18" cy="428.0999" fill="#84BE84" rx="3" ry="3" style="stroke:#038048;stroke-width:1;"/><text fill="#808080" font-family="sans-serif" font-size="14" font-style="italic" lengthAdjust="spacing" textLength="179.5073" x="27" y="431.9619">type_base_name() : String [1]</text></g><!--class BMM_UNITARY_TYPE--><g class="entity" data-entity="BMM_UNITARY_TYPE" data-source-line="17" data-uid="ent0005" id="entity_BMM_UNITARY_TYPE"><rect fill="#F5F5F5" height="64.7999" rx="2.5" ry="2.5" style="stroke:#808080;stroke-width:1;stroke-dasharray:1,3;" width="277.019" x="18.17" y="232.6"/><ellipse cx="84.1938" cy="248.6" fill="#A9DCDF" rx="11" ry="11" style="stroke:#181818;stroke-width:1;"/><path d="M78.7094,254.1 L80.7407,254.1 L84.7875,242.7563 L83.8813,242.7563 L87.7094,254.1 L89.85,254.1 L85.5219,241.7719 L83.3032,241.7719 L78.7094,254.1 Z M81.0375,250.6 L87.475,250.6 L87.475,248.85 L81.0375,248.85 L81.0375,250.6 Z " fill="#000000"/><text fill="#808080" font-family="sans-serif" font-size="14" font-style="italic" lengthAdjust="spacing" textLength="136.4714" x="104.6938" y="253.962">BMM_UNITARY_TYPE</text><line style="stroke:#808080;stroke-width:1;stroke-dasharray:1,3;" x1="19.17" x2="294.189" y1="264.6" y2="264.6"/><line style="stroke:#808080;stroke-width:1;stroke-dasharray:1,3;" x1="19.17" x2="294.189" y1="272.6" y2="272.6"/><ellipse cx="29.17" cy="286.5" fill="#84BE84" rx="3" ry="3" style="stroke:#038048;stroke-width:1;"/><text fill="#808080" font-family="sans-serif" font-size="14" lengthAdjust="spacing" textLength="251.019" x="38.17" y="290.3619">unitary_type() : BMM_UNITARY_TYPE [1]</text></g><!--class BMM_TYPE--><g class="entity" data-entity="BMM_TYPE" data-source-line="21" data-uid="ent0006" id="entity_BMM_TYPE"><rect fill="#F5F5F5" height="165.5995" rx="2.5" ry="2.5" style="stroke:#808080;stroke-width:1;stroke-dasharray:1,3;" width="299.3629" x="7" y="7"/><ellipse cx="116.2556" cy="23" fill="#A9DCDF" rx="11" ry="11" style="stroke:#181818;stroke-width:1;"/><path d="M110.7712,28.5 L112.8025,28.5 L116.8494,17.1563 L115.9431,17.1563 L119.7712,28.5 L121.9119,28.5 L117.5837,16.1719 L115.365,16.1719 L110.7712,28.5 Z M113.0994,25 L119.5369,25 L119.5369,23.25 L113.0994,23.25 L113.0994,25 Z " fill="#000000"/><text fill="#808080" font-family="sans-serif" font-size="14" font-style="italic" lengthAdjust="spacing" textLength="72.3517" x="136.7556" y="28.362">BMM_TYPE</text><line style="stroke:#808080;stroke-width:1;stroke-dasharray:1,3;" x1="8" x2="305.3629" y1="39" y2="39"/><line style="stroke:#808080;stroke-width:1;stroke-dasharray:1,3;" x1="8" x2="305.3629" y1="47" y2="47"/><ellipse cx="18" cy="60.9" fill="#84BE84" rx="3" ry="3" style="stroke:#038048;stroke-width:1;"/><text fill="#808080" font-family="sans-serif" font-size="14" font-style="italic" lengthAdjust="spacing" textLength="143.4715" x="27" y="64.7619">type_name() : String [1]</text><ellipse cx="18" cy="77.6999" fill="#84BE84" rx="3" ry="3" style="stroke:#038048;stroke-width:1;"/><text fill="#808080" font-family="sans-serif" font-size="14" lengthAdjust="spacing" textLength="167.1314" x="27" y="81.5619">type_signature() : String [1]</text><ellipse cx="18" cy="94.4998" fill="#84BE84" rx="3" ry="3" style="stroke:#038048;stroke-width:1;"/><text fill="#808080" font-family="sans-serif" font-size="14" font-style="italic" lengthAdjust="spacing" textLength="155.7354" x="27" y="98.3618">is_abstract() : Boolean [1]</text><ellipse cx="18" cy="111.2997" fill="#84BE84" rx="3" ry="3" style="stroke:#038048;stroke-width:1;"/><text fill="#808080" font-family="sans-serif" font-size="14" font-style="italic" lengthAdjust="spacing" textLength="160.1734" x="27" y="115.1617">is_primitive() : Boolean [1]</text><ellipse cx="18" cy="128.0997" fill="#84BE84" rx="3" ry="3" style="stroke:#038048;stroke-width:1;"/><text fill="#808080" font-family="sans-serif" font-size="14" font-style="italic" lengthAdjust="spacing" textLength="251.019" x="27" y="131.9616">unitary_type() : BMM_UNITARY_TYPE [1]</text><ellipse cx="18" cy="144.8996" fill="#84BE84" rx="3" ry="3" style="stroke:#038048;stroke-width:1;"/><text fill="#808080" font-family="sans-serif" font-size="14" font-style="italic" lengthAdjust="spacing" textLength="273.3629" x="27" y="148.7616">effective_type() : BMM_EFFECTIVE_TYPE [1]</text><ellipse cx="18" cy="161.6995" fill="#84BE84" rx="3" ry="3" style="stroke:#038048;stroke-width:1;"/><text fill="#808080" font-family="sans-serif" font-size="14" font-style="italic" lengthAdjust="spacing" textLength="243.1371" x="27" y="165.5615">flattened_type_list() : List&lt;String&gt; [1..*]</text></g><!--reverse link BMM_TYPE to BMM_UNITARY_TYPE--><g class="link" data-entity-1="BMM_TYPE" data-entity-2="BMM_UNITARY_TYPE" data-source-line="31" data-uid="lnk7" id="link_BMM_TYPE_BMM_UNITARY_TYPE"><path codeLine="31" d="M156.68,191.09 C156.68,212.21 156.68,215.68 156.68,232.44" fill="none" id="BMM_TYPE-backto-BMM_UNITARY_TYPE" style="stroke:#181818;stroke-width:1;"/><polygon fill="none" points="156.68,173.09,150.68,191.09,162.68,191.09,156.68,173.09" style="stroke:#181818;stroke-width:1;"/></g><!--reverse link BMM_UNITARY_TYPE to BMM_EFFECTIVE_TYPE--><g class="link" data-entity-1="BMM_UNITARY_TYPE" data-entity-2="BMM_EFFECTIVE_TYPE" data-source-line="33" data-uid="lnk8" id="link_BMM_UNITARY_TYPE_BMM_EFFECTIVE_TYPE"><path codeLine="33" d="M156.68,315.76 C156.68,333.66 156.68,338.18 156.68,357.27" fill="none" id="BMM_UNITARY_TYPE-backto-BMM_EFFECTIVE_TYPE" style="stroke:#181818;stroke-width:1;"/><polygon fill="none" points="156.68,297.76,150.68,315.76,162.68,315.76,156.68,297.76" style="stroke:#181818;stroke-width:1;"/></g><!--reverse link BMM_EFFECTIVE_TYPE to BMM_BUILTIN_TYPE--><g class="link" data-entity-1="BMM_EFFECTIVE_TYPE" data-entity-2="BMM_BUILTIN_TYPE" data-source-line="35" data-uid="lnk9" id="link_BMM_EFFECTIVE_TYPE_BMM_BUILTIN_TYPE"><path codeLine="35" d="M156.68,457.48 C156.68,475.49 156.68,479.04 156.68,498.66" fill="none" id="BMM_EFFECTIVE_TYPE-backto-BMM_BUILTIN_TYPE" style="stroke:#181818;stroke-width:1;"/><polygon fill="none" points="156.68,439.48,150.68,457.48,162.68,457.48,156.68,439.48" style="stroke:#181818;stroke-width:1;"/></g><!--reverse link BMM_BUILTIN_TYPE to BMM_STATUS_TYPE--><g class="link" data-entity-1="BMM_BUILTIN_TYPE" data-entity-2="BMM_STATUS_TYPE" data-source-line="37" data-uid="lnk10" id="link_BMM_BUILTIN_TYPE_BMM_STATUS_TYPE"><path codeLine="37" d="M156.68,632.38 C156.68,653.21 156.68,657.65 156.68,673.91" fill="none" id="BMM_BUILTIN_TYPE-backto-BMM_STATUS_TYPE" style="stroke:#181818;stroke-width:1;"/><polygon fill="none" points="156.68,614.38,150.68,632.38,162.68,632.38,156.68,614.38" style="stroke:#181818;stroke-width:1;"/></g></g></svg>
