<svg xmlns="http://www.w3.org/2000/svg" xmlns:xlink="http://www.w3.org/1999/xlink" contentStyleType="text/css" data-diagram-type="CLASS" height="203px" preserveAspectRatio="none" style="width:333px;height:203px;background:#FFFFFF;" version="1.1" viewBox="0 0 333 203" width="333px" zoomAndPan="magnify"><defs/><g><!--class BMM_EXTERNAL_ROUTINE--><g class="entity" data-entity="BMM_EXTERNAL_ROUTINE" data-source-line="2" data-uid="ent0002" id="entity_BMM_EXTERNAL_ROUTINE"><rect fill="#F1F1F1" height="81.5999" rx="2.5" ry="2.5" style="stroke:#181818;stroke-width:0.5;" width="319.6489" x="7" y="115"/><ellipse cx="75.7888" cy="131" fill="#ADD1B2" rx="11" ry="11" style="stroke:#181818;stroke-width:1;"/><path d="M75.7888,137.4219 C76.9607,137.4219 78.195,137.1563 79.57,136.5469 L79.0857,135.0313 C77.9919,135.4531 76.9763,135.6406 76.1169,135.6406 C73.3982,135.6406 71.6794,133.7969 71.6794,130.8906 C71.6794,128.1406 73.2419,126.5469 75.9763,126.5469 C76.8982,126.5469 77.9138,126.7344 79.0544,127.1563 L79.6325,125.6406 C78.5388,125.0625 77.2419,124.7656 76.0544,124.7656 C72.2888,124.7656 69.7107,127.4063 69.7107,131.2188 C69.7107,134.8906 72.195,137.4219 75.7888,137.4219 Z " fill="#000000"/><text fill="#000000" font-family="sans-serif" font-size="14" lengthAdjust="spacing" textLength="173.5713" x="96.2888" y="136.362">BMM_EXTERNAL_ROUTINE</text><line style="stroke:#181818;stroke-width:0.5;" x1="8" x2="325.6489" y1="147" y2="147"/><ellipse cx="18" cy="160.9" fill="none" rx="3" ry="3" style="stroke:#038048;stroke-width:1;"/><text fill="#000000" font-family="sans-serif" font-size="14" lengthAdjust="spacing" textLength="221.3251" x="27" y="164.7619">meta_data : Hash&lt;String,String&gt; [1]</text><ellipse cx="18" cy="177.6999" fill="none" rx="3" ry="3" style="stroke:#038048;stroke-width:1;"/><text fill="#000000" font-family="sans-serif" font-size="14" lengthAdjust="spacing" textLength="293.6489" x="27" y="181.5619">argument_mapping : Hash&lt;String,String&gt; [0..1]</text><line style="stroke:#181818;stroke-width:0.5;" x1="8" x2="325.6489" y1="188.5999" y2="188.5999"/></g><!--class BMM_ROUTINE_DEFINITION--><g class="entity" data-entity="BMM_ROUTINE_DEFINITION" data-source-line="7" data-uid="ent0003" id="entity_BMM_ROUTINE_DEFINITION"><rect fill="#F5F5F5" height="48" rx="2.5" ry="2.5" style="stroke:#808080;stroke-width:1;stroke-dasharray:1,3;" width="214.7133" x="59.47" y="7"/><ellipse cx="74.47" cy="23" fill="#A9DCDF" rx="11" ry="11" style="stroke:#181818;stroke-width:1;"/><path d="M68.9856,28.5 L71.0169,28.5 L75.0638,17.1563 L74.1575,17.1563 L77.9856,28.5 L80.1263,28.5 L75.7981,16.1719 L73.5794,16.1719 L68.9856,28.5 Z M71.3138,25 L77.7513,25 L77.7513,23.25 L71.3138,23.25 L71.3138,25 Z " fill="#000000"/><text fill="#808080" font-family="sans-serif" font-size="14" font-style="italic" lengthAdjust="spacing" textLength="182.7133" x="88.47" y="28.362">BMM_ROUTINE_DEFINITION</text><line style="stroke:#808080;stroke-width:1;stroke-dasharray:1,3;" x1="60.47" x2="273.1833" y1="39" y2="39"/><line style="stroke:#808080;stroke-width:1;stroke-dasharray:1,3;" x1="60.47" x2="273.1833" y1="47" y2="47"/></g><!--reverse link BMM_ROUTINE_DEFINITION to BMM_EXTERNAL_ROUTINE--><g class="link" data-entity-1="BMM_ROUTINE_DEFINITION" data-entity-2="BMM_EXTERNAL_ROUTINE" data-source-line="10" data-uid="lnk4" id="link_BMM_ROUTINE_DEFINITION_BMM_EXTERNAL_ROUTINE"><path codeLine="10" d="M166.82,73.39 C166.82,90.09 166.82,94.98 166.82,114.58" fill="none" id="BMM_ROUTINE_DEFINITION-backto-BMM_EXTERNAL_ROUTINE" style="stroke:#181818;stroke-width:1;"/><polygon fill="none" points="166.82,55.39,160.82,73.39,172.82,73.39,166.82,55.39" style="stroke:#181818;stroke-width:1;"/></g></g></svg>
