<svg xmlns="http://www.w3.org/2000/svg" xmlns:xlink="http://www.w3.org/1999/xlink" contentStyleType="text/css" data-diagram-type="CLASS" height="240px" preserveAspectRatio="none" style="width:206px;height:240px;background:#FFFFFF;" version="1.1" viewBox="0 0 206 240" width="206px" zoomAndPan="magnify"><defs/><g><!--class BMM_UNITARY_VALUE--><g class="entity" data-entity="BMM_UNITARY_VALUE" data-source-line="2" data-uid="ent0002" id="entity_BMM_UNITARY_VALUE"><rect fill="#F1F1F1" height="48" rx="2.5" ry="2.5" style="stroke:#181818;stroke-width:0.5;" width="188.6435" x="7" y="185.2"/><ellipse cx="22" cy="201.2" fill="#A9DCDF" rx="11" ry="11" style="stroke:#181818;stroke-width:1;"/><path d="M16.5156,206.7 L18.5469,206.7 L22.5938,195.3563 L21.6875,195.3563 L25.5156,206.7 L27.6563,206.7 L23.3281,194.3719 L21.1094,194.3719 L16.5156,206.7 Z M18.8438,203.2 L25.2813,203.2 L25.2813,201.45 L18.8438,201.45 L18.8438,203.2 Z " fill="#000000"/><text fill="#000000" font-family="sans-serif" font-size="14" font-style="italic" lengthAdjust="spacing" textLength="145.8514" x="36" y="206.562">BMM_UNITARY_VALUE</text><rect fill="#FFFFFF" height="16.4001" style="stroke:#181818;stroke-width:1;stroke-dasharray:2,2;" width="8.7921" x="189.8514" y="182.2"/><text fill="#000000" font-family="sans-serif" font-size="12" font-style="italic" lengthAdjust="spacing" textLength="6.7921" x="190.8514" y="194.9961">T</text><line style="stroke:#181818;stroke-width:0.5;" x1="8" x2="194.6435" y1="217.2" y2="217.2"/><line style="stroke:#181818;stroke-width:0.5;" x1="8" x2="194.6435" y1="225.2" y2="225.2"/></g><!--class BMM_LITERAL_VALUE--><g class="entity" data-entity="BMM_LITERAL_VALUE" data-source-line="5" data-uid="ent0003" id="entity_BMM_LITERAL_VALUE"><rect fill="#F5F5F5" height="115.1997" rx="2.5" ry="2.5" style="stroke:#808080;stroke-width:1;stroke-dasharray:1,3;" width="182.9735" x="9.84" y="10"/><ellipse cx="24.84" cy="26" fill="#A9DCDF" rx="11" ry="11" style="stroke:#181818;stroke-width:1;"/><path d="M19.3556,31.5 L21.3869,31.5 L25.4338,20.1563 L24.5275,20.1563 L28.3556,31.5 L30.4963,31.5 L26.1681,19.1719 L23.9494,19.1719 L19.3556,31.5 Z M21.6838,28 L28.1213,28 L28.1213,26.25 L21.6838,26.25 L21.6838,28 Z " fill="#000000"/><text fill="#808080" font-family="sans-serif" font-size="14" font-style="italic" lengthAdjust="spacing" textLength="140.1814" x="38.84" y="31.362">BMM_LITERAL_VALUE</text><rect fill="#FFFFFF" height="16.4001" style="stroke:#181818;stroke-width:1;stroke-dasharray:2,2;" width="8.7921" x="187.0214" y="7"/><text fill="#000000" font-family="sans-serif" font-size="12" font-style="italic" lengthAdjust="spacing" textLength="6.7921" x="188.0214" y="19.7961">T</text><line style="stroke:#808080;stroke-width:1;stroke-dasharray:1,3;" x1="10.84" x2="191.8135" y1="42" y2="42"/><ellipse cx="20.84" cy="55.9" fill="none" rx="3" ry="3" style="stroke:#038048;stroke-width:1;"/><text fill="#808080" font-family="sans-serif" font-size="14" lengthAdjust="spacing" textLength="142.0854" x="29.84" y="59.7619">value_literal : String [1]</text><ellipse cx="20.84" cy="72.6999" fill="none" rx="3" ry="3" style="stroke:#038048;stroke-width:1;"/><text fill="#808080" font-family="sans-serif" font-size="14" lengthAdjust="spacing" textLength="100.7156" x="29.84" y="76.5619">value : Any [0..1]</text><ellipse cx="20.84" cy="89.4998" fill="none" rx="3" ry="3" style="stroke:#038048;stroke-width:1;"/><text fill="#808080" font-family="sans-serif" font-size="14" lengthAdjust="spacing" textLength="121.6875" x="29.84" y="93.3618">syntax : String [0..1]</text><ellipse cx="20.84" cy="106.2997" fill="none" rx="3" ry="3" style="stroke:#038048;stroke-width:1;"/><text fill="#808080" font-family="sans-serif" font-size="14" lengthAdjust="spacing" textLength="63.6297" x="29.84" y="110.1617">type : T [1]</text><line style="stroke:#808080;stroke-width:1;stroke-dasharray:1,3;" x1="10.84" x2="191.8135" y1="117.1997" y2="117.1997"/></g><!--reverse link BMM_LITERAL_VALUE to BMM_UNITARY_VALUE--><g class="link" data-entity-1="BMM_LITERAL_VALUE" data-entity-2="BMM_UNITARY_VALUE" data-source-line="12" data-uid="lnk4" id="link_BMM_LITERAL_VALUE_BMM_UNITARY_VALUE"><path codeLine="12" d="M101.32,143.38 C101.32,164.21 101.32,168.65 101.32,184.91" fill="none" id="BMM_LITERAL_VALUE-backto-BMM_UNITARY_VALUE" style="stroke:#181818;stroke-width:1;"/><polygon fill="none" points="101.32,125.38,95.32,143.38,107.32,143.38,101.32,125.38" style="stroke:#181818;stroke-width:1;"/></g></g></svg>
