<svg xmlns="http://www.w3.org/2000/svg" xmlns:xlink="http://www.w3.org/1999/xlink" contentStyleType="text/css" data-diagram-type="CLASS" height="769px" preserveAspectRatio="none" style="width:368px;height:769px;background:#FFFFFF;" version="1.1" viewBox="0 0 368 769" width="368px" zoomAndPan="magnify"><defs/><g><!--class BMM_OPEN_TYPE--><g class="entity" data-entity="BMM_OPEN_TYPE" data-source-line="2" data-uid="ent0002" id="entity_BMM_OPEN_TYPE"><rect fill="#F1F1F1" height="81.5999" rx="2.5" ry="2.5" style="stroke:#181818;stroke-width:0.5;" width="354.9847" x="7" y="681.4"/><ellipse cx="121.7786" cy="697.4" fill="#ADD1B2" rx="11" ry="11" style="stroke:#181818;stroke-width:1;"/><path d="M121.7786,703.8219 C122.9505,703.8219 124.1848,703.5563 125.5598,702.9469 L125.0755,701.4313 C123.9817,701.8531 122.9661,702.0406 122.1067,702.0406 C119.388,702.0406 117.6692,700.1969 117.6692,697.2906 C117.6692,694.5406 119.2317,692.9469 121.9661,692.9469 C122.888,692.9469 123.9036,693.1344 125.0442,693.5563 L125.6223,692.0406 C124.5286,691.4625 123.2317,691.1656 122.0442,691.1656 C118.2786,691.1656 115.7005,693.8063 115.7005,697.6188 C115.7005,701.2906 118.1848,703.8219 121.7786,703.8219 Z " fill="#000000"/><text fill="#000000" font-family="sans-serif" font-size="14" lengthAdjust="spacing" textLength="116.9275" x="142.2786" y="702.762">BMM_OPEN_TYPE</text><line style="stroke:#181818;stroke-width:0.5;" x1="8" x2="360.9847" y1="713.4" y2="713.4"/><ellipse cx="18" cy="727.3" fill="none" rx="3" ry="3" style="stroke:#038048;stroke-width:1;"/><text fill="#000000" font-family="sans-serif" font-size="14" lengthAdjust="spacing" textLength="328.9847" x="27" y="731.1619">generic_constraint : BMM_GENERIC_PARAMETER [1]</text><line style="stroke:#181818;stroke-width:0.5;" x1="8" x2="360.9847" y1="738.1999" y2="738.1999"/><ellipse cx="18" cy="752.0999" fill="#84BE84" rx="3" ry="3" style="stroke:#038048;stroke-width:1;"/><text fill="#000000" font-family="sans-serif" font-size="14" lengthAdjust="spacing" textLength="232.3011" x="27" y="755.9619">conformance_type_name() : String [1]</text></g><!--class BMM_TYPE--><g class="entity" data-entity="BMM_TYPE" data-source-line="7" data-uid="ent0003" id="entity_BMM_TYPE"><rect fill="#F5F5F5" height="81.5999" rx="2.5" ry="2.5" style="stroke:#808080;stroke-width:1;stroke-dasharray:1,3;" width="257.8391" x="55.57" y="539.8"/><ellipse cx="144.0637" cy="555.8" fill="#A9DCDF" rx="11" ry="11" style="stroke:#181818;stroke-width:1;"/><path d="M138.5793,561.3 L140.6106,561.3 L144.6574,549.9563 L143.7512,549.9563 L147.5793,561.3 L149.7199,561.3 L145.3918,548.9719 L143.1731,548.9719 L138.5793,561.3 Z M140.9074,557.8 L147.3449,557.8 L147.3449,556.05 L140.9074,556.05 L140.9074,557.8 Z " fill="#000000"/><text fill="#808080" font-family="sans-serif" font-size="14" font-style="italic" lengthAdjust="spacing" textLength="72.3517" x="164.5637" y="561.162">BMM_TYPE</text><line style="stroke:#808080;stroke-width:1;stroke-dasharray:1,3;" x1="56.57" x2="312.4091" y1="571.8" y2="571.8"/><line style="stroke:#808080;stroke-width:1;stroke-dasharray:1,3;" x1="56.57" x2="312.4091" y1="579.8" y2="579.8"/><ellipse cx="66.57" cy="593.7" fill="#84BE84" rx="3" ry="3" style="stroke:#038048;stroke-width:1;"/><text fill="#808080" font-family="sans-serif" font-size="14" lengthAdjust="spacing" textLength="231.8391" x="75.57" y="597.5619">has_type_substitutions() : Boolean [1]</text><ellipse cx="66.57" cy="610.4999" fill="#84BE84" rx="3" ry="3" style="stroke:#038048;stroke-width:1;"/><text fill="#808080" font-family="sans-serif" font-size="14" lengthAdjust="spacing" textLength="228.5491" x="75.57" y="614.3619">type_substitutions() : List&lt;String&gt; [*]</text></g><!--class BMM_TYPE_ELEMENT--><g class="entity" data-entity="BMM_TYPE_ELEMENT" data-source-line="12" data-uid="ent0004" id="entity_BMM_TYPE_ELEMENT"><rect fill="#F5F5F5" height="48" rx="2.5" ry="2.5" style="stroke:#808080;stroke-width:1;stroke-dasharray:1,3;" width="173.4134" x="97.79" y="431.8"/><ellipse cx="112.79" cy="447.8" fill="#A9DCDF" rx="11" ry="11" style="stroke:#181818;stroke-width:1;"/><path d="M107.3056,453.3 L109.3369,453.3 L113.3838,441.9563 L112.4775,441.9563 L116.3056,453.3 L118.4463,453.3 L114.1181,440.9719 L111.8994,440.9719 L107.3056,453.3 Z M109.6338,449.8 L116.0713,449.8 L116.0713,448.05 L109.6338,448.05 L109.6338,449.8 Z " fill="#000000"/><text fill="#808080" font-family="sans-serif" font-size="14" font-style="italic" lengthAdjust="spacing" textLength="141.4134" x="126.79" y="453.162">BMM_TYPE_ELEMENT</text><line style="stroke:#808080;stroke-width:1;stroke-dasharray:1,3;" x1="98.79" x2="270.2034" y1="463.8" y2="463.8"/><line style="stroke:#808080;stroke-width:1;stroke-dasharray:1,3;" x1="98.79" x2="270.2034" y1="471.8" y2="471.8"/></g><!--class BMM_CLASSIFIER--><g class="entity" data-entity="BMM_CLASSIFIER" data-source-line="15" data-uid="ent0005" id="entity_BMM_CLASSIFIER"><rect fill="#F5F5F5" height="131.9996" rx="2.5" ry="2.5" style="stroke:#808080;stroke-width:1;stroke-dasharray:1,3;" width="256.0471" x="56.47" y="239.8"/><ellipse cx="124.0198" cy="255.8" fill="#A9DCDF" rx="11" ry="11" style="stroke:#181818;stroke-width:1;"/><path d="M118.5354,261.3 L120.5666,261.3 L124.6135,249.9562 L123.7073,249.9562 L127.5354,261.3 L129.676,261.3 L125.3479,248.9719 L123.1291,248.9719 L118.5354,261.3 Z M120.8635,257.8 L127.301,257.8 L127.301,256.05 L120.8635,256.05 L120.8635,257.8 Z " fill="#000000"/><text fill="#808080" font-family="sans-serif" font-size="14" font-style="italic" lengthAdjust="spacing" textLength="112.4476" x="144.5198" y="261.162">BMM_CLASSIFIER</text><line style="stroke:#808080;stroke-width:1;stroke-dasharray:1,3;" x1="57.47" x2="311.5171" y1="271.8" y2="271.8"/><line style="stroke:#808080;stroke-width:1;stroke-dasharray:1,3;" x1="57.47" x2="311.5171" y1="279.8" y2="279.8"/><ellipse cx="67.47" cy="293.7" fill="#84BE84" rx="3" ry="3" style="stroke:#038048;stroke-width:1;"/><text fill="#808080" font-family="sans-serif" font-size="14" lengthAdjust="spacing" textLength="143.4715" x="76.47" y="297.5619">type_name() : String [1]</text><ellipse cx="67.47" cy="310.4999" fill="#84BE84" rx="3" ry="3" style="stroke:#038048;stroke-width:1;"/><text fill="#808080" font-family="sans-serif" font-size="14" lengthAdjust="spacing" textLength="162.6374" x="76.47" y="314.3619">type_category() : String [1]</text><ellipse cx="67.47" cy="327.2998" fill="#84BE84" rx="3" ry="3" style="stroke:#038048;stroke-width:1;"/><text fill="#808080" font-family="sans-serif" font-size="14" lengthAdjust="spacing" textLength="167.1314" x="76.47" y="331.1618">type_signature() : String [1]</text><ellipse cx="67.47" cy="344.0997" fill="#84BE84" rx="3" ry="3" style="stroke:#038048;stroke-width:1;"/><text fill="#808080" font-family="sans-serif" font-size="14" lengthAdjust="spacing" textLength="183.8333" x="76.47" y="347.9617">base_class() : BMM_CLASS [1]</text><ellipse cx="67.47" cy="360.8997" fill="#84BE84" rx="3" ry="3" style="stroke:#038048;stroke-width:1;"/><text fill="#808080" font-family="sans-serif" font-size="14" lengthAdjust="spacing" textLength="230.0471" x="76.47" y="364.7616">flattened_type_list() : List&lt;String&gt; [*]</text></g><!--class BMM_MODEL_ELEMENT--><g class="entity" data-entity="BMM_MODEL_ELEMENT" data-source-line="23" data-uid="ent0006" id="entity_BMM_MODEL_ELEMENT"><rect fill="#F5F5F5" height="64.7999" rx="2.5" ry="2.5" style="stroke:#808080;stroke-width:1;stroke-dasharray:1,3;" width="202.3433" x="83.32" y="115"/><ellipse cx="104.4085" cy="131" fill="#A9DCDF" rx="11" ry="11" style="stroke:#181818;stroke-width:1;"/><path d="M98.9241,136.5 L100.9554,136.5 L105.0022,125.1563 L104.096,125.1563 L107.9241,136.5 L110.0647,136.5 L105.7366,124.1719 L103.5179,124.1719 L98.9241,136.5 Z M101.2522,133 L107.6897,133 L107.6897,131.25 L101.2522,131.25 L101.2522,133 Z " fill="#000000"/><text fill="#808080" font-family="sans-serif" font-size="14" font-style="italic" lengthAdjust="spacing" textLength="156.8134" x="119.7615" y="136.362">BMM_MODEL_ELEMENT</text><line style="stroke:#808080;stroke-width:1;stroke-dasharray:1,3;" x1="84.32" x2="284.6633" y1="147" y2="147"/><ellipse cx="94.32" cy="160.9" fill="none" rx="3" ry="3" style="stroke:#038048;stroke-width:1;"/><text fill="#808080" font-family="sans-serif" font-size="14" lengthAdjust="spacing" textLength="176.3433" x="103.32" y="164.7619">documentation : String [0..1]</text><line style="stroke:#808080;stroke-width:1;stroke-dasharray:1,3;" x1="84.32" x2="284.6633" y1="171.7999" y2="171.7999"/></g><!--class BMM_DEFINITIONS--><g class="entity" data-entity="BMM_DEFINITIONS" data-source-line="27" data-uid="ent0007" id="entity_BMM_DEFINITIONS"><rect fill="#F5F5F5" height="48" rx="2.5" ry="2.5" style="stroke:#808080;stroke-width:1;stroke-dasharray:1,3;" width="156.4035" x="106.29" y="7"/><ellipse cx="121.29" cy="23" fill="#ADD1B2" rx="11" ry="11" style="stroke:#181818;stroke-width:1;"/><path d="M121.29,29.4219 C122.4619,29.4219 123.6963,29.1563 125.0713,28.5469 L124.5869,27.0313 C123.4931,27.4531 122.4775,27.6406 121.6181,27.6406 C118.8994,27.6406 117.1806,25.7969 117.1806,22.8906 C117.1806,20.1406 118.7431,18.5469 121.4775,18.5469 C122.3994,18.5469 123.415,18.7344 124.5556,19.1563 L125.1338,17.6406 C124.04,17.0625 122.7431,16.7656 121.5556,16.7656 C117.79,16.7656 115.2119,19.4063 115.2119,23.2188 C115.2119,26.8906 117.6963,29.4219 121.29,29.4219 Z " fill="#000000"/><text fill="#808080" font-family="sans-serif" font-size="14" lengthAdjust="spacing" textLength="124.4035" x="135.29" y="28.362">BMM_DEFINITIONS</text><line style="stroke:#808080;stroke-width:1;stroke-dasharray:1,3;" x1="107.29" x2="261.6935" y1="39" y2="39"/><line style="stroke:#808080;stroke-width:1;stroke-dasharray:1,3;" x1="107.29" x2="261.6935" y1="47" y2="47"/></g><!--reverse link BMM_DEFINITIONS to BMM_MODEL_ELEMENT--><g class="link" data-entity-1="BMM_DEFINITIONS" data-entity-2="BMM_MODEL_ELEMENT" data-source-line="30" data-uid="lnk8" id="link_BMM_DEFINITIONS_BMM_MODEL_ELEMENT"><path codeLine="30" d="M184.49,73.43 C184.49,90.55 184.49,95.97 184.49,114.76" fill="none" id="BMM_DEFINITIONS-backto-BMM_MODEL_ELEMENT" style="stroke:#181818;stroke-width:1;"/><polygon fill="none" points="184.49,55.43,178.49,73.43,190.49,73.43,184.49,55.43" style="stroke:#181818;stroke-width:1;"/></g><!--reverse link BMM_MODEL_ELEMENT to BMM_CLASSIFIER--><g class="link" data-entity-1="BMM_MODEL_ELEMENT" data-entity-2="BMM_CLASSIFIER" data-source-line="32" data-uid="lnk9" id="link_BMM_MODEL_ELEMENT_BMM_CLASSIFIER"><path codeLine="32" d="M184.49,198.05 C184.49,215.19 184.49,219.02 184.49,239.61" fill="none" id="BMM_MODEL_ELEMENT-backto-BMM_CLASSIFIER" style="stroke:#181818;stroke-width:1;"/><polygon fill="none" points="184.49,180.05,178.49,198.05,190.49,198.05,184.49,180.05" style="stroke:#181818;stroke-width:1;"/></g><!--reverse link BMM_CLASSIFIER to BMM_TYPE_ELEMENT--><g class="link" data-entity-1="BMM_CLASSIFIER" data-entity-2="BMM_TYPE_ELEMENT" data-source-line="34" data-uid="lnk10" id="link_BMM_CLASSIFIER_BMM_TYPE_ELEMENT"><path codeLine="34" d="M184.49,390.15 C184.49,411.36 184.49,415.54 184.49,431.58" fill="none" id="BMM_CLASSIFIER-backto-BMM_TYPE_ELEMENT" style="stroke:#181818;stroke-width:1;"/><polygon fill="none" points="184.49,372.15,178.49,390.15,190.49,390.15,184.49,372.15" style="stroke:#181818;stroke-width:1;"/></g><!--reverse link BMM_TYPE_ELEMENT to BMM_TYPE--><g class="link" data-entity-1="BMM_TYPE_ELEMENT" data-entity-2="BMM_TYPE" data-source-line="36" data-uid="lnk11" id="link_BMM_TYPE_ELEMENT_BMM_TYPE"><path codeLine="36" d="M184.49,498.19 C184.49,514.89 184.49,519.78 184.49,539.38" fill="none" id="BMM_TYPE_ELEMENT-backto-BMM_TYPE" style="stroke:#181818;stroke-width:1;"/><polygon fill="none" points="184.49,480.19,178.49,498.19,190.49,498.19,184.49,480.19" style="stroke:#181818;stroke-width:1;"/></g><!--reverse link BMM_TYPE to BMM_OPEN_TYPE--><g class="link" data-entity-1="BMM_TYPE" data-entity-2="BMM_OPEN_TYPE" data-source-line="38" data-uid="lnk12" id="link_BMM_TYPE_BMM_OPEN_TYPE"><path codeLine="38" d="M184.49,639.6 C184.49,658.3 184.49,662.5 184.49,681.19" fill="none" id="BMM_TYPE-backto-BMM_OPEN_TYPE" style="stroke:#181818;stroke-width:1;"/><polygon fill="none" points="184.49,621.6,178.49,639.6,190.49,639.6,184.49,621.6" style="stroke:#181818;stroke-width:1;"/></g></g></svg>
