<svg xmlns="http://www.w3.org/2000/svg" xmlns:xlink="http://www.w3.org/1999/xlink" contentStyleType="text/css" data-diagram-type="CLASS" height="429px" preserveAspectRatio="none" style="width:264px;height:429px;background:#FFFFFF;" version="1.1" viewBox="0 0 264 429" width="264px" zoomAndPan="magnify"><defs/><g><!--class BMM_PROPERTY--><g class="entity" data-entity="BMM_PROPERTY" data-source-line="2" data-uid="ent0002" id="entity_BMM_PROPERTY"><rect fill="#F1F1F1" height="182.3994" rx="2.5" ry="2.5" style="stroke:#181818;stroke-width:0.5;" width="246.4851" x="7" y="239.8"/><ellipse cx="66.2908" cy="255.8" fill="#ADD1B2" rx="11" ry="11" style="stroke:#181818;stroke-width:1;"/><path d="M66.2908,262.2219 C67.4626,262.2219 68.697,261.9562 70.072,261.3469 L69.5876,259.8312 C68.4939,260.2531 67.4783,260.4406 66.6189,260.4406 C63.9001,260.4406 62.1814,258.5969 62.1814,255.6906 C62.1814,252.9406 63.7439,251.3469 66.4783,251.3469 C67.4001,251.3469 68.4158,251.5344 69.5564,251.9562 L70.1345,250.4406 C69.0408,249.8625 67.7439,249.5656 66.5564,249.5656 C62.7908,249.5656 60.2126,252.2062 60.2126,256.0187 C60.2126,259.6906 62.697,262.2219 66.2908,262.2219 Z " fill="#000000"/><text fill="#000000" font-family="sans-serif" font-size="14" lengthAdjust="spacing" textLength="108.6115" x="86.7908" y="261.162">BMM_PROPERTY</text><rect fill="#FFFFFF" height="16.4001" style="stroke:#181818;stroke-width:1;stroke-dasharray:2,2;" width="8.7921" x="247.6931" y="236.8"/><text fill="#000000" font-family="sans-serif" font-size="12" font-style="italic" lengthAdjust="spacing" textLength="6.7921" x="248.6931" y="249.5961">T</text><line style="stroke:#181818;stroke-width:0.5;" x1="8" x2="252.4851" y1="271.8" y2="271.8"/><ellipse cx="18" cy="285.7" fill="none" rx="3" ry="3" style="stroke:#038048;stroke-width:1;"/><text fill="#000000" font-family="sans-serif" font-size="14" lengthAdjust="spacing" textLength="100.8836" x="27" y="289.5619">name : String [1]</text><ellipse cx="18" cy="302.4999" fill="none" rx="3" ry="3" style="stroke:#038048;stroke-width:1;"/><text fill="#000000" font-family="sans-serif" font-size="14" lengthAdjust="spacing" textLength="179.9833" x="27" y="306.3619">is_mandatory : Boolean [0..1]</text><ellipse cx="18" cy="319.2998" fill="none" rx="3" ry="3" style="stroke:#038048;stroke-width:1;"/><text fill="#000000" font-family="sans-serif" font-size="14" lengthAdjust="spacing" textLength="175.4473" x="27" y="323.1618">is_computed : Boolean [0..1]</text><ellipse cx="18" cy="336.0997" fill="none" rx="3" ry="3" style="stroke:#038048;stroke-width:1;"/><text fill="#000000" font-family="sans-serif" font-size="14" lengthAdjust="spacing" textLength="63.6297" x="27" y="339.9617">type : T [1]</text><ellipse cx="18" cy="352.8997" fill="none" rx="3" ry="3" style="stroke:#038048;stroke-width:1;"/><text fill="#000000" font-family="sans-serif" font-size="14" lengthAdjust="spacing" textLength="184.5052" x="27" y="356.7616">is_im_runtime : Boolean [0..1]</text><ellipse cx="18" cy="369.6996" fill="none" rx="3" ry="3" style="stroke:#038048;stroke-width:1;"/><text fill="#000000" font-family="sans-serif" font-size="14" lengthAdjust="spacing" textLength="220.4851" x="27" y="373.5616">is_im_infrastructure : Boolean [0..1]</text><line style="stroke:#181818;stroke-width:0.5;" x1="8" x2="252.4851" y1="380.5996" y2="380.5996"/><ellipse cx="18" cy="394.4995" fill="#84BE84" rx="3" ry="3" style="stroke:#038048;stroke-width:1;"/><text fill="#000000" font-family="sans-serif" font-size="14" lengthAdjust="spacing" textLength="218.3852" x="27" y="398.3615">existence() : Multiplicity_interval [1]</text><ellipse cx="18" cy="411.2995" fill="#84BE84" rx="3" ry="3" style="stroke:#038048;stroke-width:1;"/><text fill="#000000" font-family="sans-serif" font-size="14" lengthAdjust="spacing" textLength="160.0054" x="27" y="415.1614">display_name() : String [1]</text></g><!--class BMM_MODEL_ELEMENT--><g class="entity" data-entity="BMM_MODEL_ELEMENT" data-source-line="13" data-uid="ent0003" id="entity_BMM_MODEL_ELEMENT"><rect fill="#F5F5F5" height="64.7999" rx="2.5" ry="2.5" style="stroke:#808080;stroke-width:1;stroke-dasharray:1,3;" width="202.3433" x="29.07" y="115"/><ellipse cx="50.1585" cy="131" fill="#A9DCDF" rx="11" ry="11" style="stroke:#181818;stroke-width:1;"/><path d="M44.6741,136.5 L46.7054,136.5 L50.7522,125.1563 L49.846,125.1563 L53.6741,136.5 L55.8147,136.5 L51.4866,124.1719 L49.2679,124.1719 L44.6741,136.5 Z M47.0022,133 L53.4397,133 L53.4397,131.25 L47.0022,131.25 L47.0022,133 Z " fill="#000000"/><text fill="#808080" font-family="sans-serif" font-size="14" font-style="italic" lengthAdjust="spacing" textLength="156.8134" x="65.5115" y="136.362">BMM_MODEL_ELEMENT</text><line style="stroke:#808080;stroke-width:1;stroke-dasharray:1,3;" x1="30.07" x2="230.4133" y1="147" y2="147"/><ellipse cx="40.07" cy="160.9" fill="none" rx="3" ry="3" style="stroke:#038048;stroke-width:1;"/><text fill="#808080" font-family="sans-serif" font-size="14" lengthAdjust="spacing" textLength="176.3433" x="49.07" y="164.7619">documentation : String [0..1]</text><line style="stroke:#808080;stroke-width:1;stroke-dasharray:1,3;" x1="30.07" x2="230.4133" y1="171.7999" y2="171.7999"/></g><!--class BMM_DEFINITIONS--><g class="entity" data-entity="BMM_DEFINITIONS" data-source-line="17" data-uid="ent0004" id="entity_BMM_DEFINITIONS"><rect fill="#F5F5F5" height="48" rx="2.5" ry="2.5" style="stroke:#808080;stroke-width:1;stroke-dasharray:1,3;" width="156.4035" x="52.04" y="7"/><ellipse cx="67.04" cy="23" fill="#ADD1B2" rx="11" ry="11" style="stroke:#181818;stroke-width:1;"/><path d="M67.04,29.4219 C68.2119,29.4219 69.4462,29.1563 70.8212,28.5469 L70.3369,27.0313 C69.2431,27.4531 68.2275,27.6406 67.3681,27.6406 C64.6494,27.6406 62.9306,25.7969 62.9306,22.8906 C62.9306,20.1406 64.4931,18.5469 67.2275,18.5469 C68.1494,18.5469 69.165,18.7344 70.3056,19.1563 L70.8837,17.6406 C69.79,17.0625 68.4931,16.7656 67.3056,16.7656 C63.54,16.7656 60.9619,19.4063 60.9619,23.2188 C60.9619,26.8906 63.4462,29.4219 67.04,29.4219 Z " fill="#000000"/><text fill="#808080" font-family="sans-serif" font-size="14" lengthAdjust="spacing" textLength="124.4035" x="81.04" y="28.362">BMM_DEFINITIONS</text><line style="stroke:#808080;stroke-width:1;stroke-dasharray:1,3;" x1="53.04" x2="207.4435" y1="39" y2="39"/><line style="stroke:#808080;stroke-width:1;stroke-dasharray:1,3;" x1="53.04" x2="207.4435" y1="47" y2="47"/></g><!--reverse link BMM_DEFINITIONS to BMM_MODEL_ELEMENT--><g class="link" data-entity-1="BMM_DEFINITIONS" data-entity-2="BMM_MODEL_ELEMENT" data-source-line="20" data-uid="lnk5" id="link_BMM_DEFINITIONS_BMM_MODEL_ELEMENT"><path codeLine="20" d="M130.24,73.43 C130.24,90.55 130.24,95.97 130.24,114.76" fill="none" id="BMM_DEFINITIONS-backto-BMM_MODEL_ELEMENT" style="stroke:#181818;stroke-width:1;"/><polygon fill="none" points="130.24,55.43,124.24,73.43,136.24,73.43,130.24,55.43" style="stroke:#181818;stroke-width:1;"/></g><!--reverse link BMM_MODEL_ELEMENT to BMM_PROPERTY--><g class="link" data-entity-1="BMM_MODEL_ELEMENT" data-entity-2="BMM_PROPERTY" data-source-line="22" data-uid="lnk6" id="link_BMM_MODEL_ELEMENT_BMM_PROPERTY"><path codeLine="22" d="M130.24,198.03 C130.24,214.7 130.24,218.07 130.24,239.43" fill="none" id="BMM_MODEL_ELEMENT-backto-BMM_PROPERTY" style="stroke:#181818;stroke-width:1;"/><polygon fill="none" points="130.24,180.03,124.24,198.03,136.24,198.03,130.24,180.03" style="stroke:#181818;stroke-width:1;"/></g></g></svg>
