<svg xmlns="http://www.w3.org/2000/svg" xmlns:xlink="http://www.w3.org/1999/xlink" contentStyleType="text/css" data-diagram-type="CLASS" height="436px" preserveAspectRatio="none" style="width:263px;height:436px;background:#FFFFFF;" version="1.1" viewBox="0 0 263 436" width="263px" zoomAndPan="magnify"><defs/><g><!--class BMM_DECLARATION--><g class="entity" data-entity="BMM_DECLARATION" data-source-line="2" data-uid="ent0002" id="entity_BMM_DECLARATION"><rect fill="#F1F1F1" height="98.3998" rx="2.5" ry="2.5" style="stroke:#181818;stroke-width:0.5;" width="249.1031" x="7" y="331"/><ellipse cx="60.7388" cy="347" fill="#ADD1B2" rx="11" ry="11" style="stroke:#181818;stroke-width:1;"/><path d="M60.7388,353.4219 C61.9107,353.4219 63.1451,353.1563 64.5201,352.5469 L64.0357,351.0313 C62.9419,351.4531 61.9263,351.6406 61.0669,351.6406 C58.3482,351.6406 56.6294,349.7969 56.6294,346.8906 C56.6294,344.1406 58.1919,342.5469 60.9263,342.5469 C61.8482,342.5469 62.8638,342.7344 64.0044,343.1563 L64.5826,341.6406 C63.4888,341.0625 62.1919,340.7656 61.0044,340.7656 C57.2388,340.7656 54.6607,343.4063 54.6607,347.2188 C54.6607,350.8906 57.1451,353.4219 60.7388,353.4219 Z " fill="#000000"/><text fill="#000000" font-family="sans-serif" font-size="14" lengthAdjust="spacing" textLength="133.1255" x="81.2388" y="352.362">BMM_DECLARATION</text><line style="stroke:#181818;stroke-width:0.5;" x1="8" x2="255.1031" y1="363" y2="363"/><ellipse cx="18" cy="376.9" fill="none" rx="3" ry="3" style="stroke:#038048;stroke-width:1;"/><text fill="#000000" font-family="sans-serif" font-size="14" lengthAdjust="spacing" textLength="100.8836" x="27" y="380.7619">name : String [1]</text><ellipse cx="18" cy="393.6999" fill="none" rx="3" ry="3" style="stroke:#038048;stroke-width:1;"/><text fill="#000000" font-family="sans-serif" font-size="14" lengthAdjust="spacing" textLength="223.1031" x="27" y="397.5619">result : EL_WRITABLE_VARIABLE [1]</text><ellipse cx="18" cy="410.4998" fill="none" rx="3" ry="3" style="stroke:#038048;stroke-width:1;"/><text fill="#000000" font-family="sans-serif" font-size="14" lengthAdjust="spacing" textLength="128.0575" x="27" y="414.3618">type : BMM_TYPE [1]</text><line style="stroke:#181818;stroke-width:0.5;" x1="8" x2="255.1031" y1="421.3998" y2="421.3998"/></g><!--class BMM_SIMPLE_STATEMENT--><g class="entity" data-entity="BMM_SIMPLE_STATEMENT" data-source-line="8" data-uid="ent0003" id="entity_BMM_SIMPLE_STATEMENT"><rect fill="#F5F5F5" height="48" rx="2.5" ry="2.5" style="stroke:#808080;stroke-width:1;stroke-dasharray:1,3;" width="205.0533" x="29.02" y="223"/><ellipse cx="44.02" cy="239" fill="#A9DCDF" rx="11" ry="11" style="stroke:#181818;stroke-width:1;"/><path d="M38.5356,244.5 L40.5669,244.5 L44.6137,233.1562 L43.7075,233.1562 L47.5356,244.5 L49.6762,244.5 L45.3481,232.1719 L43.1294,232.1719 L38.5356,244.5 Z M40.8637,241 L47.3012,241 L47.3012,239.25 L40.8637,239.25 L40.8637,241 Z " fill="#000000"/><text fill="#808080" font-family="sans-serif" font-size="14" font-style="italic" lengthAdjust="spacing" textLength="173.0533" x="58.02" y="244.362">BMM_SIMPLE_STATEMENT</text><line style="stroke:#808080;stroke-width:1;stroke-dasharray:1,3;" x1="30.02" x2="233.0733" y1="255" y2="255"/><line style="stroke:#808080;stroke-width:1;stroke-dasharray:1,3;" x1="30.02" x2="233.0733" y1="263" y2="263"/></g><!--class BMM_STATEMENT--><g class="entity" data-entity="BMM_STATEMENT" data-source-line="11" data-uid="ent0004" id="entity_BMM_STATEMENT"><rect fill="#F5F5F5" height="48" rx="2.5" ry="2.5" style="stroke:#808080;stroke-width:1;stroke-dasharray:1,3;" width="151.0275" x="56.04" y="115"/><ellipse cx="71.04" cy="131" fill="#A9DCDF" rx="11" ry="11" style="stroke:#181818;stroke-width:1;"/><path d="M65.5556,136.5 L67.5869,136.5 L71.6337,125.1563 L70.7275,125.1563 L74.5556,136.5 L76.6962,136.5 L72.3681,124.1719 L70.1494,124.1719 L65.5556,136.5 Z M67.8837,133 L74.3212,133 L74.3212,131.25 L67.8837,131.25 L67.8837,133 Z " fill="#000000"/><text fill="#808080" font-family="sans-serif" font-size="14" font-style="italic" lengthAdjust="spacing" textLength="119.0275" x="85.04" y="136.362">BMM_STATEMENT</text><line style="stroke:#808080;stroke-width:1;stroke-dasharray:1,3;" x1="57.04" x2="206.0675" y1="147" y2="147"/><line style="stroke:#808080;stroke-width:1;stroke-dasharray:1,3;" x1="57.04" x2="206.0675" y1="155" y2="155"/></g><!--class BMM_STATEMENT_ITEM--><g class="entity" data-entity="BMM_STATEMENT_ITEM" data-source-line="14" data-uid="ent0005" id="entity_BMM_STATEMENT_ITEM"><rect fill="#F5F5F5" height="48" rx="2.5" ry="2.5" style="stroke:#808080;stroke-width:1;stroke-dasharray:1,3;" width="189.8914" x="36.61" y="7"/><ellipse cx="51.61" cy="23" fill="#A9DCDF" rx="11" ry="11" style="stroke:#181818;stroke-width:1;"/><path d="M46.1256,28.5 L48.1569,28.5 L52.2038,17.1563 L51.2975,17.1563 L55.1256,28.5 L57.2663,28.5 L52.9381,16.1719 L50.7194,16.1719 L46.1256,28.5 Z M48.4538,25 L54.8913,25 L54.8913,23.25 L48.4538,23.25 L48.4538,25 Z " fill="#000000"/><text fill="#808080" font-family="sans-serif" font-size="14" font-style="italic" lengthAdjust="spacing" textLength="157.8914" x="65.61" y="28.362">BMM_STATEMENT_ITEM</text><line style="stroke:#808080;stroke-width:1;stroke-dasharray:1,3;" x1="37.61" x2="225.5014" y1="39" y2="39"/><line style="stroke:#808080;stroke-width:1;stroke-dasharray:1,3;" x1="37.61" x2="225.5014" y1="47" y2="47"/></g><!--reverse link BMM_STATEMENT_ITEM to BMM_STATEMENT--><g class="link" data-entity-1="BMM_STATEMENT_ITEM" data-entity-2="BMM_STATEMENT" data-source-line="17" data-uid="lnk6" id="link_BMM_STATEMENT_ITEM_BMM_STATEMENT"><path codeLine="17" d="M131.55,73.26 C131.55,90.94 131.55,97.13 131.55,114.79" fill="none" id="BMM_STATEMENT_ITEM-backto-BMM_STATEMENT" style="stroke:#181818;stroke-width:1;"/><polygon fill="none" points="131.55,55.26,125.55,73.26,137.55,73.26,131.55,55.26" style="stroke:#181818;stroke-width:1;"/></g><!--reverse link BMM_STATEMENT to BMM_SIMPLE_STATEMENT--><g class="link" data-entity-1="BMM_STATEMENT" data-entity-2="BMM_SIMPLE_STATEMENT" data-source-line="19" data-uid="lnk7" id="link_BMM_STATEMENT_BMM_SIMPLE_STATEMENT"><path codeLine="19" d="M131.55,181.26 C131.55,198.94 131.55,205.13 131.55,222.79" fill="none" id="BMM_STATEMENT-backto-BMM_SIMPLE_STATEMENT" style="stroke:#181818;stroke-width:1;"/><polygon fill="none" points="131.55,163.26,125.55,181.26,137.55,181.26,131.55,163.26" style="stroke:#181818;stroke-width:1;"/></g><!--reverse link BMM_SIMPLE_STATEMENT to BMM_DECLARATION--><g class="link" data-entity-1="BMM_SIMPLE_STATEMENT" data-entity-2="BMM_DECLARATION" data-source-line="21" data-uid="lnk8" id="link_BMM_SIMPLE_STATEMENT_BMM_DECLARATION"><path codeLine="21" d="M131.55,289.46 C131.55,305.89 131.55,310.45 131.55,330.68" fill="none" id="BMM_SIMPLE_STATEMENT-backto-BMM_DECLARATION" style="stroke:#181818;stroke-width:1;"/><polygon fill="none" points="131.55,271.46,125.55,289.46,137.55,289.46,131.55,271.46" style="stroke:#181818;stroke-width:1;"/></g></g></svg>
