<svg xmlns="http://www.w3.org/2000/svg" xmlns:xlink="http://www.w3.org/1999/xlink" contentStyleType="text/css" data-diagram-type="CLASS" height="789px" preserveAspectRatio="none" style="width:947px;height:789px;background:#FFFFFF;" version="1.1" viewBox="0 0 947 789" width="947px" zoomAndPan="magnify"><defs/><g><!--class BMM_MODEL--><g class="entity" data-entity="BMM_MODEL" data-source-line="2" data-uid="ent0002" id="entity_BMM_MODEL"><rect fill="#F1F1F1" height="215.9993" rx="2.5" ry="2.5" style="stroke:#181818;stroke-width:0.5;" width="933.2941" x="7" y="566.2"/><ellipse cx="425.5212" cy="582.2" fill="#ADD1B2" rx="11" ry="11" style="stroke:#181818;stroke-width:1;"/><path d="M425.5212,588.6219 C426.6931,588.6219 427.9275,588.3563 429.3025,587.7469 L428.8181,586.2313 C427.7243,586.6531 426.7087,586.8406 425.8493,586.8406 C423.1306,586.8406 421.4118,584.9969 421.4118,582.0906 C421.4118,579.3406 422.9743,577.7469 425.7087,577.7469 C426.6306,577.7469 427.6462,577.9344 428.7868,578.3563 L429.365,576.8406 C428.2712,576.2625 426.9743,575.9656 425.7868,575.9656 C422.0212,575.9656 419.4431,578.6063 419.4431,582.4188 C419.4431,586.0906 421.9275,588.6219 425.5212,588.6219 Z " fill="#000000"/><text fill="#000000" font-family="sans-serif" font-size="14" lengthAdjust="spacing" textLength="87.7516" x="446.0212" y="587.562">BMM_MODEL</text><line style="stroke:#181818;stroke-width:0.5;" x1="8" x2="939.2941" y1="598.2" y2="598.2"/><ellipse cx="18" cy="612.1" fill="none" rx="3" ry="3" style="stroke:#038048;stroke-width:1;"/><text fill="#000000" font-family="sans-serif" font-size="14" lengthAdjust="spacing" textLength="316.9167" x="27" y="615.9619">class_definitions : Hash&lt;String,BMM_CLASS&gt; [0..1]</text><line style="stroke:#181818;stroke-width:0.5;" x1="8" x2="939.2941" y1="622.9999" y2="622.9999"/><ellipse cx="18" cy="636.8999" fill="#84BE84" rx="3" ry="3" style="stroke:#038048;stroke-width:1;"/><text fill="#000000" font-family="sans-serif" font-size="14" lengthAdjust="spacing" textLength="209.2012" x="27" y="640.7619">primitive_types() : List&lt;String&gt; [*]</text><ellipse cx="18" cy="653.6998" fill="#84BE84" rx="3" ry="3" style="stroke:#038048;stroke-width:1;"/><text fill="#000000" font-family="sans-serif" font-size="14" lengthAdjust="spacing" textLength="233.7851" x="27" y="657.5618">enumeration_types() : List&lt;String&gt; [*]</text><ellipse cx="18" cy="670.4997" fill="#84BE84" rx="3" ry="3" style="stroke:#038048;stroke-width:1;"/><text fill="#000000" font-family="sans-serif" font-size="14" lengthAdjust="spacing" textLength="335.3407" x="27" y="674.3617">class_definition( a_name : String [1] ) : BMM_CLASS [1]</text><ellipse cx="18" cy="687.2997" fill="#84BE84" rx="3" ry="3" style="stroke:#038048;stroke-width:1;"/><text fill="#000000" font-family="sans-serif" font-size="14" lengthAdjust="spacing" textLength="442.6642" x="27" y="691.1616">enumeration_definition( a_name : String [1] ) : BMM_ENUMERATION [1]</text><ellipse cx="18" cy="704.0996" fill="#84BE84" rx="3" ry="3" style="stroke:#038048;stroke-width:1;"/><text fill="#000000" font-family="sans-serif" font-size="14" lengthAdjust="spacing" textLength="265.5649" x="27" y="707.9616">property_definition() : BMM_PROPERTY [1]</text><ellipse cx="18" cy="720.8995" fill="#84BE84" rx="3" ry="3" style="stroke:#038048;stroke-width:1;"/><text fill="#000000" font-family="sans-serif" font-size="14" lengthAdjust="spacing" textLength="907.2941" x="27" y="724.7615">ms_conformant_property_type( a_bmm_type_name : String [1], a_bmm_property_name : String [1], a_ms_property_name : String [1] ) : Boolean [1]</text><ellipse cx="18" cy="737.6995" fill="#84BE84" rx="3" ry="3" style="stroke:#038048;stroke-width:1;"/><text fill="#000000" font-family="sans-serif" font-size="14" lengthAdjust="spacing" textLength="319.9407" x="27" y="741.5614">property_definition_at_path() : BMM_PROPERTY [1]</text><ellipse cx="18" cy="754.4994" fill="#84BE84" rx="3" ry="3" style="stroke:#038048;stroke-width:1;"/><text fill="#000000" font-family="sans-serif" font-size="14" lengthAdjust="spacing" textLength="357.5026" x="27" y="758.3614">all_ancestor_classes( a_class : String [1] ) : List&lt;String&gt; [*]</text><ellipse cx="18" cy="771.2993" fill="#84BE84" rx="3" ry="3" style="stroke:#038048;stroke-width:1;"/><text fill="#000000" font-family="sans-serif" font-size="14" lengthAdjust="spacing" textLength="500.9321" x="27" y="775.1613">type_conforms_to( a_desc_type : String [1], an_anc_type : String [1] ) : Boolean [1]</text></g><!--class BMM_SCHEMA_CORE--><g class="entity" data-entity="BMM_SCHEMA_CORE" data-source-line="15" data-uid="ent0003" id="entity_BMM_SCHEMA_CORE"><rect fill="#F5F5F5" height="266.399" rx="2.5" ry="2.5" style="stroke:#808080;stroke-width:1;stroke-dasharray:1,3;" width="334.1528" x="109.57" y="239.8"/><ellipse cx="202.7817" cy="255.8" fill="#ADD1B2" rx="11" ry="11" style="stroke:#181818;stroke-width:1;"/><path d="M202.7817,262.2219 C203.9535,262.2219 205.1879,261.9563 206.5629,261.3469 L206.0785,259.8313 C204.9848,260.2531 203.9692,260.4406 203.1098,260.4406 C200.391,260.4406 198.6723,258.5969 198.6723,255.6906 C198.6723,252.9406 200.2348,251.3469 202.9692,251.3469 C203.891,251.3469 204.9067,251.5344 206.0473,251.9563 L206.6254,250.4406 C205.5317,249.8625 204.2348,249.5656 203.0473,249.5656 C199.2817,249.5656 196.7035,252.2063 196.7035,256.0188 C196.7035,259.6906 199.1879,262.2219 202.7817,262.2219 Z " fill="#000000"/><text fill="#808080" font-family="sans-serif" font-size="14" lengthAdjust="spacing" textLength="139.2294" x="223.2817" y="261.162">BMM_SCHEMA_CORE</text><line style="stroke:#808080;stroke-width:1;stroke-dasharray:1,3;" x1="110.57" x2="442.7228" y1="271.8" y2="271.8"/><ellipse cx="120.57" cy="285.7" fill="none" rx="3" ry="3" style="stroke:#038048;stroke-width:1;"/><text fill="#808080" font-family="sans-serif" font-size="14" lengthAdjust="spacing" textLength="148.8894" x="129.57" y="289.5619">rm_publisher : String [1]</text><ellipse cx="120.57" cy="302.4999" fill="none" rx="3" ry="3" style="stroke:#038048;stroke-width:1;"/><text fill="#808080" font-family="sans-serif" font-size="14" lengthAdjust="spacing" textLength="135.6735" x="129.57" y="306.3619">rm_release : String [1]</text><ellipse cx="120.57" cy="319.2998" fill="none" rx="3" ry="3" style="stroke:#038048;stroke-width:1;"/><text fill="#808080" font-family="sans-serif" font-size="14" lengthAdjust="spacing" textLength="155.8194" x="129.57" y="323.1618">schema_name : String [1]</text><ellipse cx="120.57" cy="336.0997" fill="none" rx="3" ry="3" style="stroke:#038048;stroke-width:1;"/><text fill="#808080" font-family="sans-serif" font-size="14" lengthAdjust="spacing" textLength="169.5673" x="129.57" y="339.9617">schema_revision : String [1]</text><ellipse cx="120.57" cy="352.8997" fill="none" rx="3" ry="3" style="stroke:#038048;stroke-width:1;"/><text fill="#808080" font-family="sans-serif" font-size="14" lengthAdjust="spacing" textLength="209.6492" x="129.57" y="356.7616">schema_lifecycle_state : String [1]</text><ellipse cx="120.57" cy="369.6996" fill="none" rx="3" ry="3" style="stroke:#038048;stroke-width:1;"/><text fill="#808080" font-family="sans-serif" font-size="14" lengthAdjust="spacing" textLength="162.1054" x="129.57" y="373.5616">schema_author : String [1]</text><ellipse cx="120.57" cy="386.4995" fill="none" rx="3" ry="3" style="stroke:#038048;stroke-width:1;"/><text fill="#808080" font-family="sans-serif" font-size="14" lengthAdjust="spacing" textLength="190.4133" x="129.57" y="390.3615">schema_description : String [1]</text><ellipse cx="120.57" cy="403.2995" fill="none" rx="3" ry="3" style="stroke:#038048;stroke-width:1;"/><text fill="#808080" font-family="sans-serif" font-size="14" lengthAdjust="spacing" textLength="236.6271" x="129.57" y="407.1614">schema_contributors : List&lt;String&gt; [*]</text><ellipse cx="120.57" cy="420.0994" fill="none" rx="3" ry="3" style="stroke:#038048;stroke-width:1;"/><text fill="#808080" font-family="sans-serif" font-size="14" lengthAdjust="spacing" textLength="228.6331" x="129.57" y="423.9614">archetype_parent_class : String [0..1]</text><ellipse cx="120.57" cy="436.8993" fill="none" rx="3" ry="3" style="stroke:#038048;stroke-width:1;"/><text fill="#808080" font-family="sans-serif" font-size="14" lengthAdjust="spacing" textLength="302.9868" x="129.57" y="440.7613">archetype_data_value_parent_class : String [0..1]</text><ellipse cx="120.57" cy="453.6992" fill="none" rx="3" ry="3" style="stroke:#038048;stroke-width:1;"/><text fill="#808080" font-family="sans-serif" font-size="14" lengthAdjust="spacing" textLength="308.1528" x="129.57" y="457.5612">archetype_rm_closure_packages : List&lt;String&gt; [*]</text><ellipse cx="120.57" cy="470.4992" fill="none" rx="3" ry="3" style="stroke:#038048;stroke-width:1;"/><text fill="#808080" font-family="sans-serif" font-size="14" lengthAdjust="spacing" textLength="308.1528" x="129.57" y="474.3611">archetype_visualise_descendants_of : String [0..1]</text><line style="stroke:#808080;stroke-width:1;stroke-dasharray:1,3;" x1="110.57" x2="442.7228" y1="481.3991" y2="481.3991"/><ellipse cx="120.57" cy="495.2991" fill="#84BE84" rx="3" ry="3" style="stroke:#038048;stroke-width:1;"/><text fill="#808080" font-family="sans-serif" font-size="14" lengthAdjust="spacing" textLength="140.7695" x="129.57" y="499.1611">schema_id() : String [1]</text></g><!--class BMM_PACKAGE_CONTAINER--><g class="entity" data-entity="BMM_PACKAGE_CONTAINER" data-source-line="33" data-uid="ent0005" id="entity_BMM_PACKAGE_CONTAINER"><rect fill="#F5F5F5" height="115.1997" rx="2.5" ry="2.5" style="stroke:#808080;stroke-width:1;stroke-dasharray:1,3;" width="384.4127" x="478.44" y="315.4"/><ellipse cx="573.2267" cy="331.4" fill="#ADD1B2" rx="11" ry="11" style="stroke:#181818;stroke-width:1;"/><path d="M573.2267,337.8219 C574.3986,337.8219 575.633,337.5563 577.008,336.9469 L576.5236,335.4313 C575.4298,335.8531 574.4142,336.0406 573.5548,336.0406 C570.8361,336.0406 569.1173,334.1969 569.1173,331.2906 C569.1173,328.5406 570.6798,326.9469 573.4142,326.9469 C574.3361,326.9469 575.3517,327.1344 576.4923,327.5563 L577.0705,326.0406 C575.9767,325.4625 574.6798,325.1656 573.4923,325.1656 C569.7267,325.1656 567.1486,327.8063 567.1486,331.6188 C567.1486,335.2906 569.633,337.8219 573.2267,337.8219 Z " fill="#000000"/><text fill="#808080" font-family="sans-serif" font-size="14" lengthAdjust="spacing" textLength="186.3392" x="593.7267" y="336.762">BMM_PACKAGE_CONTAINER</text><line style="stroke:#808080;stroke-width:1;stroke-dasharray:1,3;" x1="479.44" x2="861.8527" y1="347.4" y2="347.4"/><ellipse cx="489.44" cy="361.3" fill="none" rx="3" ry="3" style="stroke:#038048;stroke-width:1;"/><text fill="#808080" font-family="sans-serif" font-size="14" lengthAdjust="spacing" textLength="292.3608" x="498.44" y="365.1619">packages : Hash&lt;String,BMM_PACKAGE&gt; [0..1]</text><line style="stroke:#808080;stroke-width:1;stroke-dasharray:1,3;" x1="479.44" x2="861.8527" y1="372.1999" y2="372.1999"/><ellipse cx="489.44" cy="386.0999" fill="#84BE84" rx="3" ry="3" style="stroke:#038048;stroke-width:1;"/><text fill="#808080" font-family="sans-serif" font-size="14" lengthAdjust="spacing" textLength="358.4127" x="498.44" y="389.9619">package_at_path( a_path : String [1] ) : BMM_PACKAGE [1]</text><ellipse cx="489.44" cy="402.8998" fill="#84BE84" rx="3" ry="3" style="stroke:#038048;stroke-width:1;"/><text fill="#808080" font-family="sans-serif" font-size="14" lengthAdjust="spacing" textLength="334.7247" x="498.44" y="406.7618">do_recursive_packages( action : PROCEDURE [1] ) :  [1]</text><ellipse cx="489.44" cy="419.6997" fill="#84BE84" rx="3" ry="3" style="stroke:#038048;stroke-width:1;"/><text fill="#808080" font-family="sans-serif" font-size="14" lengthAdjust="spacing" textLength="317.4908" x="498.44" y="423.5617">has_package_path( a_path : String [1] ) : Boolean [1]</text></g><!--class BMM_MODEL_ELEMENT--><g class="entity" data-entity="BMM_MODEL_ELEMENT" data-source-line="40" data-uid="ent0006" id="entity_BMM_MODEL_ELEMENT"><rect fill="#F5F5F5" height="64.7999" rx="2.5" ry="2.5" style="stroke:#808080;stroke-width:1;stroke-dasharray:1,3;" width="202.3433" x="569.48" y="115"/><ellipse cx="590.5685" cy="131" fill="#A9DCDF" rx="11" ry="11" style="stroke:#181818;stroke-width:1;"/><path d="M585.0841,136.5 L587.1154,136.5 L591.1622,125.1563 L590.256,125.1563 L594.0841,136.5 L596.2247,136.5 L591.8966,124.1719 L589.6779,124.1719 L585.0841,136.5 Z M587.4122,133 L593.8497,133 L593.8497,131.25 L587.4122,131.25 L587.4122,133 Z " fill="#000000"/><text fill="#808080" font-family="sans-serif" font-size="14" font-style="italic" lengthAdjust="spacing" textLength="156.8134" x="605.9215" y="136.362">BMM_MODEL_ELEMENT</text><line style="stroke:#808080;stroke-width:1;stroke-dasharray:1,3;" x1="570.48" x2="770.8233" y1="147" y2="147"/><ellipse cx="580.48" cy="160.9" fill="none" rx="3" ry="3" style="stroke:#038048;stroke-width:1;"/><text fill="#808080" font-family="sans-serif" font-size="14" lengthAdjust="spacing" textLength="176.3433" x="589.48" y="164.7619">documentation : String [0..1]</text><line style="stroke:#808080;stroke-width:1;stroke-dasharray:1,3;" x1="570.48" x2="770.8233" y1="171.7999" y2="171.7999"/></g><!--class BMM_DEFINITIONS--><g class="entity" data-entity="BMM_DEFINITIONS" data-source-line="44" data-uid="ent0007" id="entity_BMM_DEFINITIONS"><rect fill="#F5F5F5" height="48" rx="2.5" ry="2.5" style="stroke:#808080;stroke-width:1;stroke-dasharray:1,3;" width="156.4035" x="592.45" y="7"/><ellipse cx="607.45" cy="23" fill="#ADD1B2" rx="11" ry="11" style="stroke:#181818;stroke-width:1;"/><path d="M607.45,29.4219 C608.6219,29.4219 609.8563,29.1563 611.2313,28.5469 L610.7469,27.0313 C609.6531,27.4531 608.6375,27.6406 607.7781,27.6406 C605.0594,27.6406 603.3406,25.7969 603.3406,22.8906 C603.3406,20.1406 604.9031,18.5469 607.6375,18.5469 C608.5594,18.5469 609.575,18.7344 610.7156,19.1563 L611.2938,17.6406 C610.2,17.0625 608.9031,16.7656 607.7156,16.7656 C603.95,16.7656 601.3719,19.4063 601.3719,23.2188 C601.3719,26.8906 603.8563,29.4219 607.45,29.4219 Z " fill="#000000"/><text fill="#808080" font-family="sans-serif" font-size="14" lengthAdjust="spacing" textLength="124.4035" x="621.45" y="28.362">BMM_DEFINITIONS</text><line style="stroke:#808080;stroke-width:1;stroke-dasharray:1,3;" x1="593.45" x2="747.8535" y1="39" y2="39"/><line style="stroke:#808080;stroke-width:1;stroke-dasharray:1,3;" x1="593.45" x2="747.8535" y1="47" y2="47"/></g><!--reverse link BMM_SCHEMA_CORE to BMM_MODEL--><g class="link" data-entity-1="BMM_SCHEMA_CORE" data-entity-2="BMM_MODEL" data-source-line="31" data-uid="lnk4" id="link_BMM_SCHEMA_CORE_BMM_MODEL"><path codeLine="31" d="M373.8088,521.5738 C386.8788,541.4238 390.32,546.65 402.99,565.89" fill="none" id="BMM_SCHEMA_CORE-backto-BMM_MODEL" style="stroke:#181818;stroke-width:1;"/><polygon fill="none" points="363.91,506.54,368.7975,524.8734,378.8201,518.2742,363.91,506.54" style="stroke:#181818;stroke-width:1;"/></g><!--reverse link BMM_DEFINITIONS to BMM_MODEL_ELEMENT--><g class="link" data-entity-1="BMM_DEFINITIONS" data-entity-2="BMM_MODEL_ELEMENT" data-source-line="47" data-uid="lnk8" id="link_BMM_DEFINITIONS_BMM_MODEL_ELEMENT"><path codeLine="47" d="M670.65,73.43 C670.65,90.56 670.65,95.98 670.65,114.76" fill="none" id="BMM_DEFINITIONS-backto-BMM_MODEL_ELEMENT" style="stroke:#181818;stroke-width:1;"/><polygon fill="none" points="670.65,55.43,664.65,73.43,676.65,73.43,670.65,55.43" style="stroke:#181818;stroke-width:1;"/></g><!--reverse link BMM_MODEL_ELEMENT to BMM_PACKAGE_CONTAINER--><g class="link" data-entity-1="BMM_MODEL_ELEMENT" data-entity-2="BMM_PACKAGE_CONTAINER" data-source-line="49" data-uid="lnk9" id="link_BMM_MODEL_ELEMENT_BMM_PACKAGE_CONTAINER"><path codeLine="49" d="M670.65,197.96 C670.65,232.99 670.65,272.24 670.65,315.13" fill="none" id="BMM_MODEL_ELEMENT-backto-BMM_PACKAGE_CONTAINER" style="stroke:#181818;stroke-width:1;"/><polygon fill="none" points="670.65,179.96,664.65,197.96,676.65,197.96,670.65,179.96" style="stroke:#181818;stroke-width:1;"/></g><!--reverse link BMM_PACKAGE_CONTAINER to BMM_MODEL--><g class="link" data-entity-1="BMM_PACKAGE_CONTAINER" data-entity-2="BMM_MODEL" data-source-line="51" data-uid="lnk10" id="link_BMM_PACKAGE_CONTAINER_BMM_MODEL"><path codeLine="51" d="M623.2331,446.015 C598.1731,484.085 574.32,520.3 544.32,565.86" fill="none" id="BMM_PACKAGE_CONTAINER-backto-BMM_MODEL" style="stroke:#181818;stroke-width:1;"/><polygon fill="none" points="633.13,430.98,618.2214,442.716,628.2447,449.314,633.13,430.98" style="stroke:#181818;stroke-width:1;"/></g></g></svg>
