<svg xmlns="http://www.w3.org/2000/svg" xmlns:xlink="http://www.w3.org/1999/xlink" contentStyleType="text/css" data-diagram-type="CLASS" height="786px" preserveAspectRatio="none" style="width:317px;height:786px;background:#FFFFFF;" version="1.1" viewBox="0 0 317 786" width="317px" zoomAndPan="magnify"><defs/><g><!--class BMM_GENERIC_TYPE--><g class="entity" data-entity="BMM_GENERIC_TYPE" data-source-line="2" data-uid="ent0002" id="entity_BMM_GENERIC_TYPE"><rect fill="#F1F1F1" height="98.3998" rx="2.5" ry="2.5" style="stroke:#181818;stroke-width:0.5;" width="303.5349" x="7" y="681.4"/><ellipse cx="85.6867" cy="697.4" fill="#ADD1B2" rx="11" ry="11" style="stroke:#181818;stroke-width:1;"/><path d="M85.6867,703.8219 C86.8586,703.8219 88.093,703.5563 89.468,702.9469 L88.9836,701.4313 C87.8898,701.8531 86.8742,702.0406 86.0148,702.0406 C83.2961,702.0406 81.5773,700.1969 81.5773,697.2906 C81.5773,694.5406 83.1398,692.9469 85.8742,692.9469 C86.7961,692.9469 87.8117,693.1344 88.9523,693.5563 L89.5305,692.0406 C88.4367,691.4625 87.1398,691.1656 85.9523,691.1656 C82.1867,691.1656 79.6086,693.8063 79.6086,697.6188 C79.6086,701.2906 82.093,703.8219 85.6867,703.8219 Z " fill="#000000"/><text fill="#000000" font-family="sans-serif" font-size="14" lengthAdjust="spacing" textLength="137.6614" x="106.1867" y="702.762">BMM_GENERIC_TYPE</text><line style="stroke:#181818;stroke-width:0.5;" x1="8" x2="309.5349" y1="713.4" y2="713.4"/><ellipse cx="18" cy="727.3" fill="none" rx="3" ry="3" style="stroke:#038048;stroke-width:1;"/><text fill="#000000" font-family="sans-serif" font-size="14" lengthAdjust="spacing" textLength="277.5349" x="27" y="731.1619">generic_parameters : List&lt;BMM_TYPE&gt; [1..*]</text><ellipse cx="18" cy="744.0999" fill="none" rx="3" ry="3" style="stroke:#038048;stroke-width:1;"/><text fill="#000000" font-family="sans-serif" font-size="14" lengthAdjust="spacing" textLength="240.715" x="27" y="747.9619">base_class : BMM_GENERIC_CLASS [1]</text><line style="stroke:#181818;stroke-width:0.5;" x1="8" x2="309.5349" y1="754.9999" y2="754.9999"/><ellipse cx="18" cy="768.8998" fill="#84BE84" rx="3" ry="3" style="stroke:#038048;stroke-width:1;"/><text fill="#000000" font-family="sans-serif" font-size="14" lengthAdjust="spacing" textLength="143.4715" x="27" y="772.7618">type_name() : String [1]</text></g><!--class BMM_TYPE--><g class="entity" data-entity="BMM_TYPE" data-source-line="8" data-uid="ent0003" id="entity_BMM_TYPE"><rect fill="#F5F5F5" height="81.5999" rx="2.5" ry="2.5" style="stroke:#808080;stroke-width:1;stroke-dasharray:1,3;" width="257.8391" x="29.85" y="539.8"/><ellipse cx="118.3437" cy="555.8" fill="#A9DCDF" rx="11" ry="11" style="stroke:#181818;stroke-width:1;"/><path d="M112.8593,561.3 L114.8906,561.3 L118.9374,549.9563 L118.0312,549.9563 L121.8593,561.3 L123.9999,561.3 L119.6718,548.9719 L117.4531,548.9719 L112.8593,561.3 Z M115.1874,557.8 L121.6249,557.8 L121.6249,556.05 L115.1874,556.05 L115.1874,557.8 Z " fill="#000000"/><text fill="#808080" font-family="sans-serif" font-size="14" font-style="italic" lengthAdjust="spacing" textLength="72.3517" x="138.8437" y="561.162">BMM_TYPE</text><line style="stroke:#808080;stroke-width:1;stroke-dasharray:1,3;" x1="30.85" x2="286.6891" y1="571.8" y2="571.8"/><line style="stroke:#808080;stroke-width:1;stroke-dasharray:1,3;" x1="30.85" x2="286.6891" y1="579.8" y2="579.8"/><ellipse cx="40.85" cy="593.7" fill="#84BE84" rx="3" ry="3" style="stroke:#038048;stroke-width:1;"/><text fill="#808080" font-family="sans-serif" font-size="14" lengthAdjust="spacing" textLength="231.8391" x="49.85" y="597.5619">has_type_substitutions() : Boolean [1]</text><ellipse cx="40.85" cy="610.4999" fill="#84BE84" rx="3" ry="3" style="stroke:#038048;stroke-width:1;"/><text fill="#808080" font-family="sans-serif" font-size="14" lengthAdjust="spacing" textLength="228.5491" x="49.85" y="614.3619">type_substitutions() : List&lt;String&gt; [*]</text></g><!--class BMM_TYPE_ELEMENT--><g class="entity" data-entity="BMM_TYPE_ELEMENT" data-source-line="13" data-uid="ent0004" id="entity_BMM_TYPE_ELEMENT"><rect fill="#F5F5F5" height="48" rx="2.5" ry="2.5" style="stroke:#808080;stroke-width:1;stroke-dasharray:1,3;" width="173.4134" x="72.06" y="431.8"/><ellipse cx="87.06" cy="447.8" fill="#A9DCDF" rx="11" ry="11" style="stroke:#181818;stroke-width:1;"/><path d="M81.5756,453.3 L83.6069,453.3 L87.6538,441.9562 L86.7475,441.9562 L90.5756,453.3 L92.7163,453.3 L88.3881,440.9719 L86.1694,440.9719 L81.5756,453.3 Z M83.9038,449.8 L90.3413,449.8 L90.3413,448.05 L83.9038,448.05 L83.9038,449.8 Z " fill="#000000"/><text fill="#808080" font-family="sans-serif" font-size="14" font-style="italic" lengthAdjust="spacing" textLength="141.4134" x="101.06" y="453.162">BMM_TYPE_ELEMENT</text><line style="stroke:#808080;stroke-width:1;stroke-dasharray:1,3;" x1="73.06" x2="244.4734" y1="463.8" y2="463.8"/><line style="stroke:#808080;stroke-width:1;stroke-dasharray:1,3;" x1="73.06" x2="244.4734" y1="471.8" y2="471.8"/></g><!--class BMM_CLASSIFIER--><g class="entity" data-entity="BMM_CLASSIFIER" data-source-line="16" data-uid="ent0005" id="entity_BMM_CLASSIFIER"><rect fill="#F5F5F5" height="131.9996" rx="2.5" ry="2.5" style="stroke:#808080;stroke-width:1;stroke-dasharray:1,3;" width="256.0471" x="30.74" y="239.8"/><ellipse cx="98.2898" cy="255.8" fill="#A9DCDF" rx="11" ry="11" style="stroke:#181818;stroke-width:1;"/><path d="M92.8054,261.3 L94.8366,261.3 L98.8835,249.9562 L97.9773,249.9562 L101.8054,261.3 L103.946,261.3 L99.6179,248.9719 L97.3991,248.9719 L92.8054,261.3 Z M95.1335,257.8 L101.571,257.8 L101.571,256.05 L95.1335,256.05 L95.1335,257.8 Z " fill="#000000"/><text fill="#808080" font-family="sans-serif" font-size="14" font-style="italic" lengthAdjust="spacing" textLength="112.4476" x="118.7898" y="261.162">BMM_CLASSIFIER</text><line style="stroke:#808080;stroke-width:1;stroke-dasharray:1,3;" x1="31.74" x2="285.7871" y1="271.8" y2="271.8"/><line style="stroke:#808080;stroke-width:1;stroke-dasharray:1,3;" x1="31.74" x2="285.7871" y1="279.8" y2="279.8"/><ellipse cx="41.74" cy="293.7" fill="#84BE84" rx="3" ry="3" style="stroke:#038048;stroke-width:1;"/><text fill="#808080" font-family="sans-serif" font-size="14" lengthAdjust="spacing" textLength="143.4715" x="50.74" y="297.5619">type_name() : String [1]</text><ellipse cx="41.74" cy="310.4999" fill="#84BE84" rx="3" ry="3" style="stroke:#038048;stroke-width:1;"/><text fill="#808080" font-family="sans-serif" font-size="14" lengthAdjust="spacing" textLength="162.6374" x="50.74" y="314.3619">type_category() : String [1]</text><ellipse cx="41.74" cy="327.2998" fill="#84BE84" rx="3" ry="3" style="stroke:#038048;stroke-width:1;"/><text fill="#808080" font-family="sans-serif" font-size="14" lengthAdjust="spacing" textLength="167.1314" x="50.74" y="331.1618">type_signature() : String [1]</text><ellipse cx="41.74" cy="344.0997" fill="#84BE84" rx="3" ry="3" style="stroke:#038048;stroke-width:1;"/><text fill="#808080" font-family="sans-serif" font-size="14" lengthAdjust="spacing" textLength="183.8333" x="50.74" y="347.9617">base_class() : BMM_CLASS [1]</text><ellipse cx="41.74" cy="360.8997" fill="#84BE84" rx="3" ry="3" style="stroke:#038048;stroke-width:1;"/><text fill="#808080" font-family="sans-serif" font-size="14" lengthAdjust="spacing" textLength="230.0471" x="50.74" y="364.7616">flattened_type_list() : List&lt;String&gt; [*]</text></g><!--class BMM_MODEL_ELEMENT--><g class="entity" data-entity="BMM_MODEL_ELEMENT" data-source-line="24" data-uid="ent0006" id="entity_BMM_MODEL_ELEMENT"><rect fill="#F5F5F5" height="64.7999" rx="2.5" ry="2.5" style="stroke:#808080;stroke-width:1;stroke-dasharray:1,3;" width="202.3433" x="57.6" y="115"/><ellipse cx="78.6885" cy="131" fill="#A9DCDF" rx="11" ry="11" style="stroke:#181818;stroke-width:1;"/><path d="M73.2041,136.5 L75.2354,136.5 L79.2822,125.1563 L78.376,125.1563 L82.2041,136.5 L84.3447,136.5 L80.0166,124.1719 L77.7979,124.1719 L73.2041,136.5 Z M75.5322,133 L81.9697,133 L81.9697,131.25 L75.5322,131.25 L75.5322,133 Z " fill="#000000"/><text fill="#808080" font-family="sans-serif" font-size="14" font-style="italic" lengthAdjust="spacing" textLength="156.8134" x="94.0415" y="136.362">BMM_MODEL_ELEMENT</text><line style="stroke:#808080;stroke-width:1;stroke-dasharray:1,3;" x1="58.6" x2="258.9433" y1="147" y2="147"/><ellipse cx="68.6" cy="160.9" fill="none" rx="3" ry="3" style="stroke:#038048;stroke-width:1;"/><text fill="#808080" font-family="sans-serif" font-size="14" lengthAdjust="spacing" textLength="176.3433" x="77.6" y="164.7619">documentation : String [0..1]</text><line style="stroke:#808080;stroke-width:1;stroke-dasharray:1,3;" x1="58.6" x2="258.9433" y1="171.7999" y2="171.7999"/></g><!--class BMM_DEFINITIONS--><g class="entity" data-entity="BMM_DEFINITIONS" data-source-line="28" data-uid="ent0007" id="entity_BMM_DEFINITIONS"><rect fill="#F5F5F5" height="48" rx="2.5" ry="2.5" style="stroke:#808080;stroke-width:1;stroke-dasharray:1,3;" width="156.4035" x="80.57" y="7"/><ellipse cx="95.57" cy="23" fill="#ADD1B2" rx="11" ry="11" style="stroke:#181818;stroke-width:1;"/><path d="M95.57,29.4219 C96.7419,29.4219 97.9763,29.1563 99.3513,28.5469 L98.8669,27.0313 C97.7731,27.4531 96.7575,27.6406 95.8981,27.6406 C93.1794,27.6406 91.4606,25.7969 91.4606,22.8906 C91.4606,20.1406 93.0231,18.5469 95.7575,18.5469 C96.6794,18.5469 97.695,18.7344 98.8356,19.1563 L99.4138,17.6406 C98.32,17.0625 97.0231,16.7656 95.8356,16.7656 C92.07,16.7656 89.4919,19.4063 89.4919,23.2188 C89.4919,26.8906 91.9763,29.4219 95.57,29.4219 Z " fill="#000000"/><text fill="#808080" font-family="sans-serif" font-size="14" lengthAdjust="spacing" textLength="124.4035" x="109.57" y="28.362">BMM_DEFINITIONS</text><line style="stroke:#808080;stroke-width:1;stroke-dasharray:1,3;" x1="81.57" x2="235.9735" y1="39" y2="39"/><line style="stroke:#808080;stroke-width:1;stroke-dasharray:1,3;" x1="81.57" x2="235.9735" y1="47" y2="47"/></g><!--reverse link BMM_DEFINITIONS to BMM_MODEL_ELEMENT--><g class="link" data-entity-1="BMM_DEFINITIONS" data-entity-2="BMM_MODEL_ELEMENT" data-source-line="31" data-uid="lnk8" id="link_BMM_DEFINITIONS_BMM_MODEL_ELEMENT"><path codeLine="31" d="M158.77,73.43 C158.77,90.55 158.77,95.97 158.77,114.76" fill="none" id="BMM_DEFINITIONS-backto-BMM_MODEL_ELEMENT" style="stroke:#181818;stroke-width:1;"/><polygon fill="none" points="158.77,55.43,152.77,73.43,164.77,73.43,158.77,55.43" style="stroke:#181818;stroke-width:1;"/></g><!--reverse link BMM_MODEL_ELEMENT to BMM_CLASSIFIER--><g class="link" data-entity-1="BMM_MODEL_ELEMENT" data-entity-2="BMM_CLASSIFIER" data-source-line="33" data-uid="lnk9" id="link_BMM_MODEL_ELEMENT_BMM_CLASSIFIER"><path codeLine="33" d="M158.77,198.05 C158.77,215.19 158.77,219.02 158.77,239.61" fill="none" id="BMM_MODEL_ELEMENT-backto-BMM_CLASSIFIER" style="stroke:#181818;stroke-width:1;"/><polygon fill="none" points="158.77,180.05,152.77,198.05,164.77,198.05,158.77,180.05" style="stroke:#181818;stroke-width:1;"/></g><!--reverse link BMM_CLASSIFIER to BMM_TYPE_ELEMENT--><g class="link" data-entity-1="BMM_CLASSIFIER" data-entity-2="BMM_TYPE_ELEMENT" data-source-line="35" data-uid="lnk10" id="link_BMM_CLASSIFIER_BMM_TYPE_ELEMENT"><path codeLine="35" d="M158.77,390.15 C158.77,411.36 158.77,415.54 158.77,431.58" fill="none" id="BMM_CLASSIFIER-backto-BMM_TYPE_ELEMENT" style="stroke:#181818;stroke-width:1;"/><polygon fill="none" points="158.77,372.15,152.77,390.15,164.77,390.15,158.77,372.15" style="stroke:#181818;stroke-width:1;"/></g><!--reverse link BMM_TYPE_ELEMENT to BMM_TYPE--><g class="link" data-entity-1="BMM_TYPE_ELEMENT" data-entity-2="BMM_TYPE" data-source-line="37" data-uid="lnk11" id="link_BMM_TYPE_ELEMENT_BMM_TYPE"><path codeLine="37" d="M158.77,498.19 C158.77,514.89 158.77,519.78 158.77,539.38" fill="none" id="BMM_TYPE_ELEMENT-backto-BMM_TYPE" style="stroke:#181818;stroke-width:1;"/><polygon fill="none" points="158.77,480.19,152.77,498.19,164.77,498.19,158.77,480.19" style="stroke:#181818;stroke-width:1;"/></g><!--reverse link BMM_TYPE to BMM_GENERIC_TYPE--><g class="link" data-entity-1="BMM_TYPE" data-entity-2="BMM_GENERIC_TYPE" data-source-line="39" data-uid="lnk12" id="link_BMM_TYPE_BMM_GENERIC_TYPE"><path codeLine="39" d="M158.77,639.65 C158.77,657.97 158.77,661.84 158.77,681.08" fill="none" id="BMM_TYPE-backto-BMM_GENERIC_TYPE" style="stroke:#181818;stroke-width:1;"/><polygon fill="none" points="158.77,621.65,152.77,639.65,164.77,639.65,158.77,621.65" style="stroke:#181818;stroke-width:1;"/></g></g></svg>
