<svg xmlns="http://www.w3.org/2000/svg" xmlns:xlink="http://www.w3.org/1999/xlink" contentStyleType="text/css" data-diagram-type="CLASS" height="220px" preserveAspectRatio="none" style="width:707px;height:220px;background:#FFFFFF;" version="1.1" viewBox="0 0 707 220" width="707px" zoomAndPan="magnify"><defs/><g><!--class BMM_MODEL_ACCESS--><g class="entity" data-entity="BMM_MODEL_ACCESS" data-source-line="2" data-uid="ent0002" id="entity_BMM_MODEL_ACCESS"><rect fill="#F1F1F1" height="199.1993" rx="2.5" ry="2.5" style="stroke:#181818;stroke-width:0.5;" width="686.4891" x="7" y="7"/><ellipse cx="273.3769" cy="23" fill="#ADD1B2" rx="11" ry="11" style="stroke:#181818;stroke-width:1;"/><path d="M273.3769,29.4219 C274.5487,29.4219 275.7831,29.1563 277.1581,28.5469 L276.6737,27.0313 C275.58,27.4531 274.5644,27.6406 273.705,27.6406 C270.9862,27.6406 269.2675,25.7969 269.2675,22.8906 C269.2675,20.1406 270.83,18.5469 273.5644,18.5469 C274.4862,18.5469 275.5019,18.7344 276.6425,19.1563 L277.2206,17.6406 C276.1269,17.0625 274.83,16.7656 273.6425,16.7656 C269.8769,16.7656 267.2987,19.4063 267.2987,23.2188 C267.2987,26.8906 269.7831,29.4219 273.3769,29.4219 Z " fill="#000000"/><text fill="#000000" font-family="sans-serif" font-size="14" lengthAdjust="spacing" textLength="145.2354" x="293.8769" y="28.362">BMM_MODEL_ACCESS</text><line style="stroke:#181818;stroke-width:0.5;" x1="8" x2="692.4891" y1="39" y2="39"/><ellipse cx="18" cy="52.9" fill="none" rx="3" ry="3" style="stroke:#038048;stroke-width:1;"/><text fill="#000000" font-family="sans-serif" font-size="14" lengthAdjust="spacing" textLength="226.1131" x="27" y="56.7619">schema_directories : List&lt;String&gt; [*]</text><ellipse cx="18" cy="69.6999" fill="none" rx="3" ry="3" style="stroke:#038048;stroke-width:1;"/><text fill="#000000" font-family="sans-serif" font-size="14" lengthAdjust="spacing" textLength="181.3273" x="27" y="73.5619">all_schemas : List&lt;String&gt; [*]</text><ellipse cx="18" cy="86.4998" fill="none" rx="3" ry="3" style="stroke:#038048;stroke-width:1;"/><text fill="#000000" font-family="sans-serif" font-size="14" lengthAdjust="spacing" textLength="306.9067" x="27" y="90.3618">bmm_models : Hash&lt;String,BMM_MODEL&gt; [0..1]</text><ellipse cx="18" cy="103.2997" fill="none" rx="3" ry="3" style="stroke:#038048;stroke-width:1;"/><text fill="#000000" font-family="sans-serif" font-size="14" lengthAdjust="spacing" textLength="256.297" x="27" y="107.1617">matching_bmm_models : List&lt;String&gt; [*]</text><line style="stroke:#181818;stroke-width:0.5;" x1="8" x2="692.4891" y1="114.1997" y2="114.1997"/><ellipse cx="18" cy="128.0997" fill="#84BE84" rx="3" ry="3" style="stroke:#038048;stroke-width:1;"/><text fill="#000000" font-family="sans-serif" font-size="14" lengthAdjust="spacing" textLength="660.4891" x="27" y="131.9616">initialise_with_load_list( a_schema_dirs : List&lt;String&gt; [1], a_schema_load_list : List&lt;String&gt; [0..1] ) : void [1]</text><ellipse cx="18" cy="144.8996" fill="#84BE84" rx="3" ry="3" style="stroke:#038048;stroke-width:1;"/><text fill="#000000" font-family="sans-serif" font-size="14" lengthAdjust="spacing" textLength="339.4846" x="27" y="148.7616">initialise_all( a_schema_dirs : List&lt;String&gt; [1] ) : void [1]</text><ellipse cx="18" cy="161.6995" fill="#84BE84" rx="3" ry="3" style="stroke:#038048;stroke-width:1;"/><text fill="#000000" font-family="sans-serif" font-size="14" lengthAdjust="spacing" textLength="164.1353" x="27" y="165.5615">reload_schemas() : void [1]</text><ellipse cx="18" cy="178.4995" fill="#84BE84" rx="3" ry="3" style="stroke:#038048;stroke-width:1;"/><text fill="#000000" font-family="sans-serif" font-size="14" lengthAdjust="spacing" textLength="358.1186" x="27" y="182.3614">bmm_model( a_model_key : String [1] ) : BMM_MODEL [1]</text><ellipse cx="18" cy="195.2994" fill="#84BE84" rx="3" ry="3" style="stroke:#038048;stroke-width:1;"/><text fill="#000000" font-family="sans-serif" font-size="14" lengthAdjust="spacing" textLength="350.0546" x="27" y="199.1614">has_bmm_model( a_model_key : String [1] ) : Boolean [1]</text></g></g></svg>
