<svg xmlns="http://www.w3.org/2000/svg" xmlns:xlink="http://www.w3.org/1999/xlink" contentStyleType="text/css" data-diagram-type="CLASS" height="587px" preserveAspectRatio="none" style="width:272px;height:587px;background:#FFFFFF;" version="1.1" viewBox="0 0 272 587" width="272px" zoomAndPan="magnify"><defs/><g><!--class BMM_CONTAINER_PROPERTY--><g class="entity" data-entity="BMM_CONTAINER_PROPERTY" data-source-line="2" data-uid="ent0002" id="entity_BMM_CONTAINER_PROPERTY"><rect fill="#F1F1F1" height="98.3998" rx="2.5" ry="2.5" style="stroke:#181818;stroke-width:0.5;" width="258.1331" x="7" y="482.2"/><ellipse cx="36.6565" cy="498.2" fill="#ADD1B2" rx="11" ry="11" style="stroke:#181818;stroke-width:1;"/><path d="M36.6565,504.6219 C37.8283,504.6219 39.0627,504.3563 40.4377,503.7469 L39.9533,502.2313 C38.8596,502.6531 37.844,502.8406 36.9846,502.8406 C34.2658,502.8406 32.5471,500.9969 32.5471,498.0906 C32.5471,495.3406 34.1096,493.7469 36.844,493.7469 C37.7658,493.7469 38.7815,493.9344 39.9221,494.3563 L40.5002,492.8406 C39.4065,492.2625 38.1096,491.9656 36.9221,491.9656 C33.1565,491.9656 30.5783,494.6063 30.5783,498.4188 C30.5783,502.0906 33.0627,504.6219 36.6565,504.6219 Z " fill="#000000"/><text fill="#000000" font-family="sans-serif" font-size="14" lengthAdjust="spacing" textLength="193.5632" x="53.9134" y="503.562">BMM_CONTAINER_PROPERTY</text><line style="stroke:#181818;stroke-width:0.5;" x1="8" x2="264.1331" y1="514.2" y2="514.2"/><ellipse cx="18" cy="528.1" fill="none" rx="3" ry="3" style="stroke:#038048;stroke-width:1;"/><text fill="#000000" font-family="sans-serif" font-size="14" lengthAdjust="spacing" textLength="232.1331" x="27" y="531.9619">cardinality : Multiplicity_interval [0..1]</text><ellipse cx="18" cy="544.8999" fill="none" rx="3" ry="3" style="stroke:#038048;stroke-width:1;"/><text fill="#000000" font-family="sans-serif" font-size="14" lengthAdjust="spacing" textLength="213.0091" x="27" y="548.7619">type : BMM_CONTAINER_TYPE [1]</text><line style="stroke:#181818;stroke-width:0.5;" x1="8" x2="264.1331" y1="555.7999" y2="555.7999"/><ellipse cx="18" cy="569.6998" fill="#84BE84" rx="3" ry="3" style="stroke:#038048;stroke-width:1;"/><text fill="#000000" font-family="sans-serif" font-size="14" lengthAdjust="spacing" textLength="160.0054" x="27" y="573.5618">display_name() : String [1]</text></g><!--class BMM_PROPERTY--><g class="entity" data-entity="BMM_PROPERTY" data-source-line="8" data-uid="ent0003" id="entity_BMM_PROPERTY"><rect fill="#F5F5F5" height="182.3994" rx="2.5" ry="2.5" style="stroke:#808080;stroke-width:1;stroke-dasharray:1,3;" width="246.4851" x="12.82" y="239.8"/><ellipse cx="72.1108" cy="255.8" fill="#ADD1B2" rx="11" ry="11" style="stroke:#181818;stroke-width:1;"/><path d="M72.1108,262.2219 C73.2826,262.2219 74.517,261.9563 75.892,261.3469 L75.4076,259.8313 C74.3139,260.2531 73.2983,260.4406 72.4389,260.4406 C69.7201,260.4406 68.0014,258.5969 68.0014,255.6906 C68.0014,252.9406 69.5639,251.3469 72.2983,251.3469 C73.2201,251.3469 74.2358,251.5344 75.3764,251.9563 L75.9545,250.4406 C74.8608,249.8625 73.5639,249.5656 72.3764,249.5656 C68.6108,249.5656 66.0326,252.2063 66.0326,256.0188 C66.0326,259.6906 68.517,262.2219 72.1108,262.2219 Z " fill="#000000"/><text fill="#808080" font-family="sans-serif" font-size="14" lengthAdjust="spacing" textLength="108.6115" x="92.6108" y="261.162">BMM_PROPERTY</text><rect fill="#FFFFFF" height="16.4001" style="stroke:#181818;stroke-width:1;stroke-dasharray:2,2;" width="8.7921" x="253.5131" y="236.8"/><text fill="#000000" font-family="sans-serif" font-size="12" font-style="italic" lengthAdjust="spacing" textLength="6.7921" x="254.5131" y="249.5961">T</text><line style="stroke:#808080;stroke-width:1;stroke-dasharray:1,3;" x1="13.82" x2="258.3051" y1="271.8" y2="271.8"/><ellipse cx="23.82" cy="285.7" fill="none" rx="3" ry="3" style="stroke:#038048;stroke-width:1;"/><text fill="#808080" font-family="sans-serif" font-size="14" lengthAdjust="spacing" textLength="100.8836" x="32.82" y="289.5619">name : String [1]</text><ellipse cx="23.82" cy="302.4999" fill="none" rx="3" ry="3" style="stroke:#038048;stroke-width:1;"/><text fill="#808080" font-family="sans-serif" font-size="14" lengthAdjust="spacing" textLength="179.9833" x="32.82" y="306.3619">is_mandatory : Boolean [0..1]</text><ellipse cx="23.82" cy="319.2998" fill="none" rx="3" ry="3" style="stroke:#038048;stroke-width:1;"/><text fill="#808080" font-family="sans-serif" font-size="14" lengthAdjust="spacing" textLength="175.4473" x="32.82" y="323.1618">is_computed : Boolean [0..1]</text><ellipse cx="23.82" cy="336.0997" fill="none" rx="3" ry="3" style="stroke:#038048;stroke-width:1;"/><text fill="#808080" font-family="sans-serif" font-size="14" lengthAdjust="spacing" textLength="63.6297" x="32.82" y="339.9617">type : T [1]</text><ellipse cx="23.82" cy="352.8997" fill="none" rx="3" ry="3" style="stroke:#038048;stroke-width:1;"/><text fill="#808080" font-family="sans-serif" font-size="14" lengthAdjust="spacing" textLength="184.5052" x="32.82" y="356.7616">is_im_runtime : Boolean [0..1]</text><ellipse cx="23.82" cy="369.6996" fill="none" rx="3" ry="3" style="stroke:#038048;stroke-width:1;"/><text fill="#808080" font-family="sans-serif" font-size="14" lengthAdjust="spacing" textLength="220.4851" x="32.82" y="373.5616">is_im_infrastructure : Boolean [0..1]</text><line style="stroke:#808080;stroke-width:1;stroke-dasharray:1,3;" x1="13.82" x2="258.3051" y1="380.5996" y2="380.5996"/><ellipse cx="23.82" cy="394.4995" fill="#84BE84" rx="3" ry="3" style="stroke:#038048;stroke-width:1;"/><text fill="#808080" font-family="sans-serif" font-size="14" lengthAdjust="spacing" textLength="218.3852" x="32.82" y="398.3615">existence() : Multiplicity_interval [1]</text><ellipse cx="23.82" cy="411.2995" fill="#84BE84" rx="3" ry="3" style="stroke:#038048;stroke-width:1;"/><text fill="#808080" font-family="sans-serif" font-size="14" lengthAdjust="spacing" textLength="160.0054" x="32.82" y="415.1614">display_name() : String [1]</text></g><!--class BMM_MODEL_ELEMENT--><g class="entity" data-entity="BMM_MODEL_ELEMENT" data-source-line="19" data-uid="ent0004" id="entity_BMM_MODEL_ELEMENT"><rect fill="#F5F5F5" height="64.7999" rx="2.5" ry="2.5" style="stroke:#808080;stroke-width:1;stroke-dasharray:1,3;" width="202.3433" x="34.89" y="115"/><ellipse cx="55.9785" cy="131" fill="#A9DCDF" rx="11" ry="11" style="stroke:#181818;stroke-width:1;"/><path d="M50.4941,136.5 L52.5254,136.5 L56.5722,125.1563 L55.666,125.1563 L59.4941,136.5 L61.6347,136.5 L57.3066,124.1719 L55.0879,124.1719 L50.4941,136.5 Z M52.8222,133 L59.2597,133 L59.2597,131.25 L52.8222,131.25 L52.8222,133 Z " fill="#000000"/><text fill="#808080" font-family="sans-serif" font-size="14" font-style="italic" lengthAdjust="spacing" textLength="156.8134" x="71.3315" y="136.362">BMM_MODEL_ELEMENT</text><line style="stroke:#808080;stroke-width:1;stroke-dasharray:1,3;" x1="35.89" x2="236.2333" y1="147" y2="147"/><ellipse cx="45.89" cy="160.9" fill="none" rx="3" ry="3" style="stroke:#038048;stroke-width:1;"/><text fill="#808080" font-family="sans-serif" font-size="14" lengthAdjust="spacing" textLength="176.3433" x="54.89" y="164.7619">documentation : String [0..1]</text><line style="stroke:#808080;stroke-width:1;stroke-dasharray:1,3;" x1="35.89" x2="236.2333" y1="171.7999" y2="171.7999"/></g><!--class BMM_DEFINITIONS--><g class="entity" data-entity="BMM_DEFINITIONS" data-source-line="23" data-uid="ent0005" id="entity_BMM_DEFINITIONS"><rect fill="#F5F5F5" height="48" rx="2.5" ry="2.5" style="stroke:#808080;stroke-width:1;stroke-dasharray:1,3;" width="156.4035" x="57.86" y="7"/><ellipse cx="72.86" cy="23" fill="#ADD1B2" rx="11" ry="11" style="stroke:#181818;stroke-width:1;"/><path d="M72.86,29.4219 C74.0319,29.4219 75.2663,29.1563 76.6413,28.5469 L76.1569,27.0313 C75.0631,27.4531 74.0475,27.6406 73.1881,27.6406 C70.4694,27.6406 68.7506,25.7969 68.7506,22.8906 C68.7506,20.1406 70.3131,18.5469 73.0475,18.5469 C73.9694,18.5469 74.985,18.7344 76.1256,19.1563 L76.7038,17.6406 C75.61,17.0625 74.3131,16.7656 73.1256,16.7656 C69.36,16.7656 66.7819,19.4063 66.7819,23.2188 C66.7819,26.8906 69.2663,29.4219 72.86,29.4219 Z " fill="#000000"/><text fill="#808080" font-family="sans-serif" font-size="14" lengthAdjust="spacing" textLength="124.4035" x="86.86" y="28.362">BMM_DEFINITIONS</text><line style="stroke:#808080;stroke-width:1;stroke-dasharray:1,3;" x1="58.86" x2="213.2635" y1="39" y2="39"/><line style="stroke:#808080;stroke-width:1;stroke-dasharray:1,3;" x1="58.86" x2="213.2635" y1="47" y2="47"/></g><!--reverse link BMM_DEFINITIONS to BMM_MODEL_ELEMENT--><g class="link" data-entity-1="BMM_DEFINITIONS" data-entity-2="BMM_MODEL_ELEMENT" data-source-line="26" data-uid="lnk6" id="link_BMM_DEFINITIONS_BMM_MODEL_ELEMENT"><path codeLine="26" d="M136.07,73.43 C136.07,90.55 136.07,95.97 136.07,114.76" fill="none" id="BMM_DEFINITIONS-backto-BMM_MODEL_ELEMENT" style="stroke:#181818;stroke-width:1;"/><polygon fill="none" points="136.07,55.43,130.07,73.43,142.07,73.43,136.07,55.43" style="stroke:#181818;stroke-width:1;"/></g><!--reverse link BMM_MODEL_ELEMENT to BMM_PROPERTY--><g class="link" data-entity-1="BMM_MODEL_ELEMENT" data-entity-2="BMM_PROPERTY" data-source-line="28" data-uid="lnk7" id="link_BMM_MODEL_ELEMENT_BMM_PROPERTY"><path codeLine="28" d="M136.07,198.03 C136.07,214.7 136.07,218.07 136.07,239.43" fill="none" id="BMM_MODEL_ELEMENT-backto-BMM_PROPERTY" style="stroke:#181818;stroke-width:1;"/><polygon fill="none" points="136.07,180.03,130.07,198.03,142.07,198.03,136.07,180.03" style="stroke:#181818;stroke-width:1;"/></g><!--reverse link BMM_PROPERTY to BMM_CONTAINER_PROPERTY--><g class="link" data-entity-1="BMM_PROPERTY" data-entity-2="BMM_CONTAINER_PROPERTY" data-source-line="30" data-uid="lnk8" id="link_BMM_PROPERTY_BMM_CONTAINER_PROPERTY"><path codeLine="30" d="M136.07,440.49 C136.07,460.93 136.07,463.87 136.07,481.79" fill="none" id="BMM_PROPERTY-backto-BMM_CONTAINER_PROPERTY" style="stroke:#181818;stroke-width:1;"/><polygon fill="none" points="136.07,422.49,130.07,440.49,142.07,440.49,136.07,422.49" style="stroke:#181818;stroke-width:1;"/></g></g></svg>
