<svg xmlns="http://www.w3.org/2000/svg" xmlns:xlink="http://www.w3.org/1999/xlink" contentStyleType="text/css" data-diagram-type="CLASS" height="1007px" preserveAspectRatio="none" style="width:355px;height:1007px;background:#FFFFFF;" version="1.1" viewBox="0 0 355 1007" width="355px" zoomAndPan="magnify"><defs/><g><!--class BMM_SIMPLE_CLASS--><g class="entity" data-entity="BMM_SIMPLE_CLASS" data-source-line="2" data-uid="ent0002" id="entity_BMM_SIMPLE_CLASS"><rect fill="#F1F1F1" height="64.7999" rx="2.5" ry="2.5" style="stroke:#181818;stroke-width:0.5;" width="216.5112" x="69.6" y="935.8"/><ellipse cx="107.2133" cy="951.8" fill="#ADD1B2" rx="11" ry="11" style="stroke:#181818;stroke-width:1;"/><path d="M107.2133,958.2219 C108.3852,958.2219 109.6195,957.9563 110.9945,957.3469 L110.5102,955.8313 C109.4164,956.2531 108.4008,956.4406 107.5414,956.4406 C104.8227,956.4406 103.1039,954.5969 103.1039,951.6906 C103.1039,948.9406 104.6664,947.3469 107.4008,947.3469 C108.3227,947.3469 109.3383,947.5344 110.4789,947.9563 L111.057,946.4406 C109.9633,945.8625 108.6664,945.5656 107.4789,945.5656 C103.7133,945.5656 101.1352,948.2063 101.1352,952.0188 C101.1352,955.6906 103.6195,958.2219 107.2133,958.2219 Z " fill="#000000"/><text fill="#000000" font-family="sans-serif" font-size="14" lengthAdjust="spacing" textLength="134.2595" x="126.2385" y="957.162">BMM_SIMPLE_CLASS</text><line style="stroke:#181818;stroke-width:0.5;" x1="70.6" x2="285.1112" y1="967.8" y2="967.8"/><line style="stroke:#181818;stroke-width:0.5;" x1="70.6" x2="285.1112" y1="975.8" y2="975.8"/><ellipse cx="80.6" cy="989.7" fill="#84BE84" rx="3" ry="3" style="stroke:#038048;stroke-width:1;"/><text fill="#000000" font-family="sans-serif" font-size="14" lengthAdjust="spacing" textLength="190.5112" x="89.6" y="993.5619">type() : BMM_SIMPLE_TYPE [1]</text></g><!--class BMM_CLASS--><g class="entity" data-entity="BMM_CLASS" data-source-line="6" data-uid="ent0003" id="entity_BMM_CLASS"><rect fill="#F5F5F5" height="518.3979" rx="2.5" ry="2.5" style="stroke:#808080;stroke-width:1;stroke-dasharray:1,3;" width="325.7947" x="14.96" y="357.4"/><ellipse cx="133.4905" cy="373.4" fill="#A9DCDF" rx="11" ry="11" style="stroke:#181818;stroke-width:1;"/><path d="M128.0062,378.9 L130.0374,378.9 L134.0843,367.5563 L133.178,367.5563 L137.0062,378.9 L139.1468,378.9 L134.8187,366.5719 L132.5999,366.5719 L128.0062,378.9 Z M130.3343,375.4 L136.7718,375.4 L136.7718,373.65 L130.3343,373.65 L130.3343,375.4 Z " fill="#000000"/><text fill="#808080" font-family="sans-serif" font-size="14" font-style="italic" lengthAdjust="spacing" textLength="80.2337" x="153.9905" y="378.762">BMM_CLASS</text><line style="stroke:#808080;stroke-width:1;stroke-dasharray:1,3;" x1="15.96" x2="339.7547" y1="389.4" y2="389.4"/><ellipse cx="25.96" cy="403.3" fill="none" rx="3" ry="3" style="stroke:#038048;stroke-width:1;"/><text fill="#808080" font-family="sans-serif" font-size="14" lengthAdjust="spacing" textLength="165.2414" x="34.96" y="407.1619">ancestors : List&lt;String&gt; [*]</text><ellipse cx="25.96" cy="420.0999" fill="none" rx="3" ry="3" style="stroke:#038048;stroke-width:1;"/><text fill="#808080" font-family="sans-serif" font-size="14" lengthAdjust="spacing" textLength="181.1453" x="34.96" y="423.9619">package : BMM_PACKAGE [1]</text><ellipse cx="25.96" cy="436.8998" fill="none" rx="3" ry="3" style="stroke:#038048;stroke-width:1;"/><text fill="#808080" font-family="sans-serif" font-size="14" lengthAdjust="spacing" textLength="169.2034" x="34.96" y="440.7618">properties : List&lt;String&gt; [*]</text><ellipse cx="25.96" cy="453.6997" fill="none" rx="3" ry="3" style="stroke:#038048;stroke-width:1;"/><text fill="#808080" font-family="sans-serif" font-size="14" lengthAdjust="spacing" textLength="180.7953" x="34.96" y="457.5617">source_schema_id : String [1]</text><ellipse cx="25.96" cy="470.4997" fill="none" rx="3" ry="3" style="stroke:#038048;stroke-width:1;"/><text fill="#808080" font-family="sans-serif" font-size="14" lengthAdjust="spacing" textLength="299.7947" x="34.96" y="474.3616">immediate_descendants : List&lt;BMM_CLASS&gt; [*]</text><ellipse cx="25.96" cy="487.2996" fill="none" rx="3" ry="3" style="stroke:#038048;stroke-width:1;"/><text fill="#808080" font-family="sans-serif" font-size="14" lengthAdjust="spacing" textLength="147.9934" x="34.96" y="491.1616">is_override : Boolean [1]</text><ellipse cx="25.96" cy="504.0995" fill="none" rx="3" ry="3" style="stroke:#038048;stroke-width:1;"/><text fill="#808080" font-family="sans-serif" font-size="14" lengthAdjust="spacing" textLength="209.9572" x="34.96" y="507.9615">static_properties : List&lt;String&gt; [*]</text><ellipse cx="25.96" cy="520.8995" fill="none" rx="3" ry="3" style="stroke:#038048;stroke-width:1;"/><text fill="#808080" font-family="sans-serif" font-size="14" lengthAdjust="spacing" textLength="162.8614" x="34.96" y="524.7614">functions : List&lt;String&gt; [*]</text><ellipse cx="25.96" cy="537.6994" fill="none" rx="3" ry="3" style="stroke:#038048;stroke-width:1;"/><text fill="#808080" font-family="sans-serif" font-size="14" lengthAdjust="spacing" textLength="175.0413" x="34.96" y="541.5614">procedures : List&lt;String&gt; [*]</text><ellipse cx="25.96" cy="554.4993" fill="none" rx="3" ry="3" style="stroke:#038048;stroke-width:1;"/><text fill="#808080" font-family="sans-serif" font-size="14" lengthAdjust="spacing" textLength="167.5093" x="34.96" y="558.3613">is_primitive : Boolean [0..1]</text><ellipse cx="25.96" cy="571.2992" fill="none" rx="3" ry="3" style="stroke:#038048;stroke-width:1;"/><text fill="#808080" font-family="sans-serif" font-size="14" lengthAdjust="spacing" textLength="163.0714" x="34.96" y="575.1612">is_abstract : Boolean [0..1]</text><ellipse cx="25.96" cy="588.0992" fill="none" rx="3" ry="3" style="stroke:#038048;stroke-width:1;"/><text fill="#808080" font-family="sans-serif" font-size="14" lengthAdjust="spacing" textLength="241.933" x="34.96" y="591.9611">invariants : List&lt;BMM_ASSERTION&gt; [*]</text><ellipse cx="25.96" cy="604.8991" fill="none" rx="3" ry="3" style="stroke:#038048;stroke-width:1;"/><text fill="#808080" font-family="sans-serif" font-size="14" lengthAdjust="spacing" textLength="156.0854" x="34.96" y="608.7611">creators : List&lt;String&gt; [*]</text><ellipse cx="25.96" cy="621.699" fill="none" rx="3" ry="3" style="stroke:#038048;stroke-width:1;"/><text fill="#808080" font-family="sans-serif" font-size="14" lengthAdjust="spacing" textLength="170.9673" x="34.96" y="625.561">converters : List&lt;String&gt; [*]</text><ellipse cx="25.96" cy="638.4989" fill="none" rx="3" ry="3" style="stroke:#038048;stroke-width:1;"/><text fill="#808080" font-family="sans-serif" font-size="14" lengthAdjust="spacing" textLength="217.7271" x="34.96" y="642.3609">features : List&lt;BMM_FEATURE&gt; [*]</text><line style="stroke:#808080;stroke-width:1;stroke-dasharray:1,3;" x1="15.96" x2="339.7547" y1="649.3989" y2="649.3989"/><ellipse cx="25.96" cy="663.2989" fill="#84BE84" rx="3" ry="3" style="stroke:#038048;stroke-width:1;"/><text fill="#808080" font-family="sans-serif" font-size="14" font-style="italic" lengthAdjust="spacing" textLength="191.3652" x="34.96" y="667.1608">type() : BMM_MODEL_TYPE [1]</text><ellipse cx="25.96" cy="680.0988" fill="#84BE84" rx="3" ry="3" style="stroke:#038048;stroke-width:1;"/><text fill="#808080" font-family="sans-serif" font-size="14" lengthAdjust="spacing" textLength="195.6212" x="34.96" y="683.9608">all_ancestors() : List&lt;String&gt; [*]</text><ellipse cx="25.96" cy="696.8987" fill="#84BE84" rx="3" ry="3" style="stroke:#038048;stroke-width:1;"/><text fill="#808080" font-family="sans-serif" font-size="14" lengthAdjust="spacing" textLength="213.6952" x="34.96" y="700.7607">all_descendants() : List&lt;String&gt; [*]</text><ellipse cx="25.96" cy="713.6986" fill="#84BE84" rx="3" ry="3" style="stroke:#038048;stroke-width:1;"/><text fill="#808080" font-family="sans-serif" font-size="14" lengthAdjust="spacing" textLength="170.1693" x="34.96" y="717.5606">suppliers() : List&lt;String&gt; [*]</text><ellipse cx="25.96" cy="730.4986" fill="#84BE84" rx="3" ry="3" style="stroke:#038048;stroke-width:1;"/><text fill="#808080" font-family="sans-serif" font-size="14" lengthAdjust="spacing" textLength="263.157" x="34.96" y="734.3605">suppliers_non_primitive() : List&lt;String&gt; [*]</text><ellipse cx="25.96" cy="747.2985" fill="#84BE84" rx="3" ry="3" style="stroke:#038048;stroke-width:1;"/><text fill="#808080" font-family="sans-serif" font-size="14" lengthAdjust="spacing" textLength="216.0192" x="34.96" y="751.1605">supplier_closure() : List&lt;String&gt; [*]</text><ellipse cx="25.96" cy="764.0984" fill="#84BE84" rx="3" ry="3" style="stroke:#038048;stroke-width:1;"/><text fill="#808080" font-family="sans-serif" font-size="14" lengthAdjust="spacing" textLength="160.7754" x="34.96" y="767.9604">package_path() : String [1]</text><ellipse cx="25.96" cy="780.8984" fill="#84BE84" rx="3" ry="3" style="stroke:#038048;stroke-width:1;"/><text fill="#808080" font-family="sans-serif" font-size="14" lengthAdjust="spacing" textLength="140.1535" x="34.96" y="784.7603">class_path() : String [1]</text><ellipse cx="25.96" cy="797.6983" fill="#84BE84" rx="3" ry="3" style="stroke:#038048;stroke-width:1;"/><text fill="#808080" font-family="sans-serif" font-size="14" lengthAdjust="spacing" textLength="160.1734" x="34.96" y="801.5603">is_primitive() : Boolean [1]</text><ellipse cx="25.96" cy="814.4982" fill="#84BE84" rx="3" ry="3" style="stroke:#038048;stroke-width:1;"/><text fill="#808080" font-family="sans-serif" font-size="14" lengthAdjust="spacing" textLength="155.7354" x="34.96" y="818.3602">is_abstract() : Boolean [1]</text><ellipse cx="25.96" cy="831.2981" fill="#84BE84" rx="3" ry="3" style="stroke:#038048;stroke-width:1;"/><text fill="#808080" font-family="sans-serif" font-size="14" lengthAdjust="spacing" textLength="150.7094" x="34.96" y="835.1601">features() : List&lt;Any&gt; [*]</text><ellipse cx="25.96" cy="848.0981" fill="#84BE84" rx="3" ry="3" style="stroke:#038048;stroke-width:1;"/><text fill="#808080" font-family="sans-serif" font-size="14" lengthAdjust="spacing" textLength="178.5833" x="34.96" y="851.96">flat_features() : List&lt;Any&gt; [*]</text><ellipse cx="25.96" cy="864.898" fill="#84BE84" rx="3" ry="3" style="stroke:#038048;stroke-width:1;"/><text fill="#808080" font-family="sans-serif" font-size="14" lengthAdjust="spacing" textLength="276.6809" x="34.96" y="868.76">flat_properties() : List&lt;BMM_PROPERTY&gt; [*]</text></g><!--class BMM_MODULE--><g class="entity" data-entity="BMM_MODULE" data-source-line="37" data-uid="ent0004" id="entity_BMM_MODULE"><rect fill="#F5F5F5" height="98.3998" rx="2.5" ry="2.5" style="stroke:#808080;stroke-width:1;stroke-dasharray:1,3;" width="341.7127" x="7" y="199"/><ellipse cx="125.0335" cy="215" fill="#A9DCDF" rx="11" ry="11" style="stroke:#181818;stroke-width:1;"/><path d="M119.5492,220.5 L121.5804,220.5 L125.6273,209.1563 L124.721,209.1563 L128.5492,220.5 L130.6898,220.5 L126.3617,208.1719 L124.1429,208.1719 L119.5492,220.5 Z M121.8773,217 L128.3148,217 L128.3148,215.25 L121.8773,215.25 L121.8773,217 Z " fill="#000000"/><text fill="#808080" font-family="sans-serif" font-size="14" font-style="italic" lengthAdjust="spacing" textLength="97.1456" x="145.5335" y="220.362">BMM_MODULE</text><line style="stroke:#808080;stroke-width:1;stroke-dasharray:1,3;" x1="8" x2="347.7127" y1="231" y2="231"/><ellipse cx="18" cy="244.9" fill="none" rx="3" ry="3" style="stroke:#038048;stroke-width:1;"/><text fill="#808080" font-family="sans-serif" font-size="14" lengthAdjust="spacing" textLength="152.6554" x="27" y="248.7619">scope : BMM_MODEL [1]</text><ellipse cx="18" cy="261.6999" fill="none" rx="3" ry="3" style="stroke:#038048;stroke-width:1;"/><text fill="#808080" font-family="sans-serif" font-size="14" lengthAdjust="spacing" textLength="315.7127" x="27" y="265.5619">feature_groups : List&lt;BMM_FEATURE_GROUP&gt; [*]</text><ellipse cx="18" cy="278.4998" fill="none" rx="3" ry="3" style="stroke:#038048;stroke-width:1;"/><text fill="#808080" font-family="sans-serif" font-size="14" lengthAdjust="spacing" textLength="282.8688" x="27" y="282.3618">features : List&lt;BMM_FORMAL_ELEMENT&gt; [*]</text><line style="stroke:#808080;stroke-width:1;stroke-dasharray:1,3;" x1="8" x2="347.7127" y1="289.3998" y2="289.3998"/></g><!--class BMM_MODEL_ELEMENT--><g class="entity" data-entity="BMM_MODEL_ELEMENT" data-source-line="43" data-uid="ent0005" id="entity_BMM_MODEL_ELEMENT"><rect fill="#F5F5F5" height="131.9996" rx="2.5" ry="2.5" style="stroke:#808080;stroke-width:1;stroke-dasharray:1,3;" width="277.285" x="39.21" y="7"/><ellipse cx="95.1958" cy="23" fill="#A9DCDF" rx="11" ry="11" style="stroke:#181818;stroke-width:1;"/><path d="M89.7115,28.5 L91.7427,28.5 L95.7896,17.1563 L94.8833,17.1563 L98.7115,28.5 L100.8521,28.5 L96.524,16.1719 L94.3052,16.1719 L89.7115,28.5 Z M92.0396,25 L98.4771,25 L98.4771,23.25 L92.0396,23.25 L92.0396,25 Z " fill="#000000"/><text fill="#808080" font-family="sans-serif" font-size="14" font-style="italic" lengthAdjust="spacing" textLength="156.8134" x="115.6958" y="28.362">BMM_MODEL_ELEMENT</text><line style="stroke:#808080;stroke-width:1;stroke-dasharray:1,3;" x1="40.21" x2="315.495" y1="39" y2="39"/><ellipse cx="50.21" cy="52.9" fill="none" rx="3" ry="3" style="stroke:#038048;stroke-width:1;"/><text fill="#808080" font-family="sans-serif" font-size="14" lengthAdjust="spacing" textLength="100.8836" x="59.21" y="56.7619">name : String [1]</text><ellipse cx="50.21" cy="69.6999" fill="none" rx="3" ry="3" style="stroke:#038048;stroke-width:1;"/><text fill="#808080" font-family="sans-serif" font-size="14" lengthAdjust="spacing" textLength="251.285" x="59.21" y="73.5619">documentation : Hash&lt;String,Any&gt; [0..1]</text><ellipse cx="50.21" cy="86.4998" fill="none" rx="3" ry="3" style="stroke:#038048;stroke-width:1;"/><text fill="#808080" font-family="sans-serif" font-size="14" lengthAdjust="spacing" textLength="221.7171" x="59.21" y="90.3618">scope : BMM_MODEL_ELEMENT [1]</text><ellipse cx="50.21" cy="103.2997" fill="none" rx="3" ry="3" style="stroke:#038048;stroke-width:1;"/><text fill="#808080" font-family="sans-serif" font-size="14" lengthAdjust="spacing" textLength="223.3411" x="59.21" y="107.1617">extensions : Hash&lt;String,Any&gt; [0..1]</text><line style="stroke:#808080;stroke-width:1;stroke-dasharray:1,3;" x1="40.21" x2="315.495" y1="114.1997" y2="114.1997"/><ellipse cx="50.21" cy="128.0997" fill="#84BE84" rx="3" ry="3" style="stroke:#038048;stroke-width:1;"/><text fill="#808080" font-family="sans-serif" font-size="14" lengthAdjust="spacing" textLength="174.5653" x="59.21" y="131.9616">is_root_scope() : Boolean [1]</text></g><!--reverse link BMM_MODEL_ELEMENT to BMM_MODULE--><g class="link" data-entity-1="BMM_MODEL_ELEMENT" data-entity-2="BMM_MODULE" data-source-line="51" data-uid="lnk6" id="link_BMM_MODEL_ELEMENT_BMM_MODULE"><path codeLine="51" d="M177.86,157.48 C177.86,177.12 177.86,180.3 177.86,198.64" fill="none" id="BMM_MODEL_ELEMENT-backto-BMM_MODULE" style="stroke:#181818;stroke-width:1;"/><polygon fill="none" points="177.86,139.48,171.86,157.48,183.86,157.48,177.86,139.48" style="stroke:#181818;stroke-width:1;"/></g><!--reverse link BMM_MODULE to BMM_CLASS--><g class="link" data-entity-1="BMM_MODULE" data-entity-2="BMM_CLASS" data-source-line="53" data-uid="lnk7" id="link_BMM_MODULE_BMM_CLASS"><path codeLine="53" d="M177.86,315.86 C177.86,332.79 177.86,335.15 177.86,357.27" fill="none" id="BMM_MODULE-backto-BMM_CLASS" style="stroke:#181818;stroke-width:1;"/><polygon fill="none" points="177.86,297.86,171.86,315.86,183.86,315.86,177.86,297.86" style="stroke:#181818;stroke-width:1;"/></g><!--reverse link BMM_CLASS to BMM_SIMPLE_CLASS--><g class="link" data-entity-1="BMM_CLASS" data-entity-2="BMM_SIMPLE_CLASS" data-source-line="55" data-uid="lnk8" id="link_BMM_CLASS_BMM_SIMPLE_CLASS"><path codeLine="55" d="M177.86,894.26 C177.86,917.39 177.86,919.95 177.86,935.65" fill="none" id="BMM_CLASS-backto-BMM_SIMPLE_CLASS" style="stroke:#181818;stroke-width:1;"/><polygon fill="none" points="177.86,876.26,171.86,894.26,183.86,894.26,177.86,876.26" style="stroke:#181818;stroke-width:1;"/></g></g></svg>
