<svg xmlns="http://www.w3.org/2000/svg" xmlns:xlink="http://www.w3.org/1999/xlink" contentStyleType="text/css" data-diagram-type="CLASS" height="206px" preserveAspectRatio="none" style="width:241px;height:206px;background:#FFFFFF;" version="1.1" viewBox="0 0 241 206" width="241px" zoomAndPan="magnify"><defs/><g><!--class EL_CASE--><g class="entity" data-entity="EL_CASE" data-source-line="2" data-uid="ent0002" id="entity_EL_CASE"><rect fill="#F1F1F1" height="64.7999" rx="2.5" ry="2.5" style="stroke:#181818;stroke-width:0.5;" width="223.5672" x="7" y="134.8"/><ellipse cx="81.1517" cy="150.8" fill="#ADD1B2" rx="11" ry="11" style="stroke:#181818;stroke-width:1;"/><path d="M81.1517,157.2219 C82.3236,157.2219 83.5579,156.9562 84.9329,156.3469 L84.4486,154.8312 C83.3548,155.2531 82.3392,155.4406 81.4798,155.4406 C78.7611,155.4406 77.0423,153.5969 77.0423,150.6906 C77.0423,147.9406 78.6048,146.3469 81.3392,146.3469 C82.2611,146.3469 83.2767,146.5344 84.4173,146.9562 L84.9954,145.4406 C83.9017,144.8625 82.6048,144.5656 81.4173,144.5656 C77.6517,144.5656 75.0736,147.2062 75.0736,151.0187 C75.0736,154.6906 77.5579,157.2219 81.1517,157.2219 Z " fill="#000000"/><text fill="#000000" font-family="sans-serif" font-size="14" lengthAdjust="spacing" textLength="55.9718" x="101.6517" y="156.162">EL_CASE</text><rect fill="#FFFFFF" height="16.4001" style="stroke:#181818;stroke-width:1;stroke-dasharray:2,2;" width="8.7921" x="224.7752" y="131.8"/><text fill="#000000" font-family="sans-serif" font-size="12" font-style="italic" lengthAdjust="spacing" textLength="6.7921" x="225.7752" y="144.5961">T</text><line style="stroke:#181818;stroke-width:0.5;" x1="8" x2="229.5672" y1="166.8" y2="166.8"/><ellipse cx="18" cy="180.7" fill="none" rx="3" ry="3" style="stroke:#038048;stroke-width:1;"/><text fill="#000000" font-family="sans-serif" font-size="14" lengthAdjust="spacing" textLength="197.5672" x="27" y="184.5619">value_constraint : C_OBJECT [1]</text><line style="stroke:#181818;stroke-width:0.5;" x1="8" x2="229.5672" y1="191.5999" y2="191.5999"/></g><!--class EL_DECISION_BRANCH--><g class="entity" data-entity="EL_DECISION_BRANCH" data-source-line="6" data-uid="ent0003" id="entity_EL_DECISION_BRANCH"><rect fill="#F5F5F5" height="64.7999" rx="2.5" ry="2.5" style="stroke:#808080;stroke-width:1;stroke-dasharray:1,3;" width="191.4575" x="23.05" y="10"/><ellipse cx="38.05" cy="26" fill="#A9DCDF" rx="11" ry="11" style="stroke:#181818;stroke-width:1;"/><path d="M32.5656,31.5 L34.5969,31.5 L38.6438,20.1563 L37.7375,20.1563 L41.5656,31.5 L43.7063,31.5 L39.3781,19.1719 L37.1594,19.1719 L32.5656,31.5 Z M34.8938,28 L41.3313,28 L41.3313,26.25 L34.8938,26.25 L34.8938,28 Z " fill="#000000"/><text fill="#808080" font-family="sans-serif" font-size="14" font-style="italic" lengthAdjust="spacing" textLength="148.6654" x="52.05" y="31.362">EL_DECISION_BRANCH</text><rect fill="#FFFFFF" height="16.4001" style="stroke:#181818;stroke-width:1;stroke-dasharray:2,2;" width="8.7921" x="208.7154" y="7"/><text fill="#000000" font-family="sans-serif" font-size="12" font-style="italic" lengthAdjust="spacing" textLength="6.7921" x="209.7154" y="19.7961">T</text><line style="stroke:#808080;stroke-width:1;stroke-dasharray:1,3;" x1="24.05" x2="213.5075" y1="42" y2="42"/><ellipse cx="34.05" cy="55.9" fill="none" rx="3" ry="3" style="stroke:#038048;stroke-width:1;"/><text fill="#808080" font-family="sans-serif" font-size="14" lengthAdjust="spacing" textLength="72.3937" x="43.05" y="59.7619">result : T [1]</text><line style="stroke:#808080;stroke-width:1;stroke-dasharray:1,3;" x1="24.05" x2="213.5075" y1="66.7999" y2="66.7999"/></g><!--reverse link EL_DECISION_BRANCH to EL_CASE--><g class="link" data-entity-1="EL_DECISION_BRANCH" data-entity-2="EL_CASE" data-source-line="10" data-uid="lnk4" id="link_EL_DECISION_BRANCH_EL_CASE"><path codeLine="10" d="M118.78,93.02 C118.78,111.36 118.78,116.37 118.78,134.68" fill="none" id="EL_DECISION_BRANCH-backto-EL_CASE" style="stroke:#181818;stroke-width:1;"/><polygon fill="none" points="118.78,75.02,112.78,93.02,124.78,93.02,118.78,75.02" style="stroke:#181818;stroke-width:1;"/></g></g></svg>
