<svg xmlns="http://www.w3.org/2000/svg" xmlns:xlink="http://www.w3.org/1999/xlink" contentStyleType="text/css" data-diagram-type="CLASS" height="469px" preserveAspectRatio="none" style="width:387px;height:469px;background:#FFFFFF;" version="1.1" viewBox="0 0 387 469" width="387px" zoomAndPan="magnify"><defs/><g><!--class EL_CONDITION_CHAIN--><g class="entity" data-entity="EL_CONDITION_CHAIN" data-source-line="2" data-uid="ent0002" id="entity_EL_CONDITION_CHAIN"><rect fill="#F1F1F1" height="64.7999" rx="2.5" ry="2.5" style="stroke:#181818;stroke-width:0.5;" width="369.3206" x="7" y="398.2"/><ellipse cx="107.9896" cy="414.2" fill="#ADD1B2" rx="11" ry="11" style="stroke:#181818;stroke-width:1;"/><path d="M107.9896,420.6219 C109.1615,420.6219 110.3958,420.3563 111.7708,419.7469 L111.2865,418.2313 C110.1927,418.6531 109.1771,418.8406 108.3177,418.8406 C105.599,418.8406 103.8802,416.9969 103.8802,414.0906 C103.8802,411.3406 105.4427,409.7469 108.1771,409.7469 C109.099,409.7469 110.1146,409.9344 111.2552,410.3563 L111.8333,408.8406 C110.7396,408.2625 109.4427,407.9656 108.2552,407.9656 C104.4896,407.9656 101.9115,410.6063 101.9115,414.4188 C101.9115,418.0906 104.3958,420.6219 107.9896,420.6219 Z " fill="#000000"/><text fill="#000000" font-family="sans-serif" font-size="14" lengthAdjust="spacing" textLength="148.0494" x="128.4896" y="419.562">EL_CONDITION_CHAIN</text><rect fill="#FFFFFF" height="16.4001" style="stroke:#181818;stroke-width:1;stroke-dasharray:2,2;" width="8.7921" x="370.5286" y="395.2"/><text fill="#000000" font-family="sans-serif" font-size="12" font-style="italic" lengthAdjust="spacing" textLength="6.7921" x="371.5286" y="407.9961">T</text><line style="stroke:#181818;stroke-width:0.5;" x1="8" x2="375.3206" y1="430.2" y2="430.2"/><ellipse cx="18" cy="444.1" fill="none" rx="3" ry="3" style="stroke:#038048;stroke-width:1;"/><text fill="#000000" font-family="sans-serif" font-size="14" lengthAdjust="spacing" textLength="343.3206" x="27" y="447.9619">items : List&lt;EL_CONDITIONAL_EXPRESSION&lt;T&gt;&gt; [1..*]</text><line style="stroke:#181818;stroke-width:0.5;" x1="8" x2="375.3206" y1="454.9999" y2="454.9999"/></g><!--class EL_DECISION_TABLE--><g class="entity" data-entity="EL_DECISION_TABLE" data-source-line="6" data-uid="ent0003" id="entity_EL_DECISION_TABLE"><rect fill="#F5F5F5" height="81.5999" rx="2.5" ry="2.5" style="stroke:#808080;stroke-width:1;stroke-dasharray:1,3;" width="314.2168" x="34.55" y="256.6"/><ellipse cx="115.2396" cy="272.6" fill="#A9DCDF" rx="11" ry="11" style="stroke:#181818;stroke-width:1;"/><path d="M109.7553,278.1 L111.7865,278.1 L115.8334,266.7563 L114.9271,266.7563 L118.7553,278.1 L120.8959,278.1 L116.5678,265.7719 L114.349,265.7719 L109.7553,278.1 Z M112.0834,274.6 L118.5209,274.6 L118.5209,272.85 L112.0834,272.85 L112.0834,274.6 Z " fill="#000000"/><text fill="#808080" font-family="sans-serif" font-size="14" font-style="italic" lengthAdjust="spacing" textLength="133.5455" x="135.7396" y="277.962">EL_DECISION_TABLE</text><rect fill="#FFFFFF" height="16.4001" style="stroke:#181818;stroke-width:1;stroke-dasharray:2,2;" width="8.7921" x="342.9747" y="253.6"/><text fill="#000000" font-family="sans-serif" font-size="12" font-style="italic" lengthAdjust="spacing" textLength="6.7921" x="343.9747" y="266.3961">T</text><line style="stroke:#808080;stroke-width:1;stroke-dasharray:1,3;" x1="35.55" x2="347.7668" y1="288.6" y2="288.6"/><ellipse cx="45.55" cy="302.5" fill="none" rx="3" ry="3" style="stroke:#038048;stroke-width:1;"/><text fill="#808080" font-family="sans-serif" font-size="14" lengthAdjust="spacing" textLength="288.2168" x="54.55" y="306.3619">items : List&lt;EL_DECISION_BRANCH&lt;T&gt;&gt; [1..*]</text><ellipse cx="45.55" cy="319.2999" fill="none" rx="3" ry="3" style="stroke:#038048;stroke-width:1;"/><text fill="#808080" font-family="sans-serif" font-size="14" lengthAdjust="spacing" textLength="61.6417" x="54.55" y="323.1619">else : T [1]</text><line style="stroke:#808080;stroke-width:1;stroke-dasharray:1,3;" x1="35.55" x2="347.7668" y1="330.1999" y2="330.1999"/></g><!--class EL_TERMINAL--><g class="entity" data-entity="EL_TERMINAL" data-source-line="11" data-uid="ent0004" id="entity_EL_TERMINAL"><rect fill="#F5F5F5" height="48" rx="2.5" ry="2.5" style="stroke:#808080;stroke-width:1;stroke-dasharray:1,3;" width="121.1516" x="131.08" y="148.6"/><ellipse cx="146.08" cy="164.6" fill="#A9DCDF" rx="11" ry="11" style="stroke:#181818;stroke-width:1;"/><path d="M140.5956,170.1 L142.6269,170.1 L146.6737,158.7563 L145.7675,158.7563 L149.5956,170.1 L151.7362,170.1 L147.4081,157.7719 L145.1894,157.7719 L140.5956,170.1 Z M142.9237,166.6 L149.3612,166.6 L149.3612,164.85 L142.9237,164.85 L142.9237,166.6 Z " fill="#000000"/><text fill="#808080" font-family="sans-serif" font-size="14" font-style="italic" lengthAdjust="spacing" textLength="89.1516" x="160.08" y="169.962">EL_TERMINAL</text><line style="stroke:#808080;stroke-width:1;stroke-dasharray:1,3;" x1="132.08" x2="251.2316" y1="180.6" y2="180.6"/><line style="stroke:#808080;stroke-width:1;stroke-dasharray:1,3;" x1="132.08" x2="251.2316" y1="188.6" y2="188.6"/></g><!--class EL_EXPRESSION--><g class="entity" data-entity="EL_EXPRESSION" data-source-line="14" data-uid="ent0005" id="entity_EL_EXPRESSION"><rect fill="#F5F5F5" height="81.5999" rx="2.5" ry="2.5" style="stroke:#808080;stroke-width:1;stroke-dasharray:1,3;" width="194.6573" x="94.33" y="7"/><ellipse cx="135.6099" cy="23" fill="#A9DCDF" rx="11" ry="11" style="stroke:#181818;stroke-width:1;"/><path d="M130.1255,28.5 L132.1568,28.5 L136.2036,17.1563 L135.2974,17.1563 L139.1255,28.5 L141.2661,28.5 L136.938,16.1719 L134.7193,16.1719 L130.1255,28.5 Z M132.4536,25 L138.8911,25 L138.8911,23.25 L132.4536,23.25 L132.4536,25 Z " fill="#000000"/><text fill="#808080" font-family="sans-serif" font-size="14" font-style="italic" lengthAdjust="spacing" textLength="104.2576" x="155.4499" y="28.362">EL_EXPRESSION</text><line style="stroke:#808080;stroke-width:1;stroke-dasharray:1,3;" x1="95.33" x2="287.9873" y1="39" y2="39"/><line style="stroke:#808080;stroke-width:1;stroke-dasharray:1,3;" x1="95.33" x2="287.9873" y1="47" y2="47"/><ellipse cx="105.33" cy="60.9" fill="#84BE84" rx="3" ry="3" style="stroke:#038048;stroke-width:1;"/><text fill="#808080" font-family="sans-serif" font-size="14" font-style="italic" lengthAdjust="spacing" textLength="168.6573" x="114.33" y="64.7619">eval_type() : BMM_TYPE [1]</text><ellipse cx="105.33" cy="77.6999" fill="#84BE84" rx="3" ry="3" style="stroke:#038048;stroke-width:1;"/><text fill="#808080" font-family="sans-serif" font-size="14" lengthAdjust="spacing" textLength="155.2454" x="114.33" y="81.5619">is_boolean() : Boolean [1]</text></g><!--reverse link EL_EXPRESSION to EL_TERMINAL--><g class="link" data-entity-1="EL_EXPRESSION" data-entity-2="EL_TERMINAL" data-source-line="19" data-uid="lnk6" id="link_EL_EXPRESSION_EL_TERMINAL"><path codeLine="19" d="M191.66,107.01 C191.66,126.6 191.66,131.46 191.66,148.16" fill="none" id="EL_EXPRESSION-backto-EL_TERMINAL" style="stroke:#181818;stroke-width:1;"/><polygon fill="none" points="191.66,89.01,185.66,107.01,197.66,107.01,191.66,89.01" style="stroke:#181818;stroke-width:1;"/></g><!--reverse link EL_TERMINAL to EL_DECISION_TABLE--><g class="link" data-entity-1="EL_TERMINAL" data-entity-2="EL_DECISION_TABLE" data-source-line="21" data-uid="lnk7" id="link_EL_TERMINAL_EL_DECISION_TABLE"><path codeLine="21" d="M191.66,214.99 C191.66,231.69 191.66,236.58 191.66,256.18" fill="none" id="EL_TERMINAL-backto-EL_DECISION_TABLE" style="stroke:#181818;stroke-width:1;"/><polygon fill="none" points="191.66,196.99,185.66,214.99,197.66,214.99,191.66,196.99" style="stroke:#181818;stroke-width:1;"/></g><!--reverse link EL_DECISION_TABLE to EL_CONDITION_CHAIN--><g class="link" data-entity-1="EL_DECISION_TABLE" data-entity-2="EL_CONDITION_CHAIN" data-source-line="23" data-uid="lnk8" id="link_EL_DECISION_TABLE_EL_CONDITION_CHAIN"><path codeLine="23" d="M191.66,356.48 C191.66,375.62 191.66,380.19 191.66,398.09" fill="none" id="EL_DECISION_TABLE-backto-EL_CONDITION_CHAIN" style="stroke:#181818;stroke-width:1;"/><polygon fill="none" points="191.66,338.48,185.66,356.48,197.66,356.48,191.66,338.48" style="stroke:#181818;stroke-width:1;"/></g></g></svg>
