<svg xmlns="http://www.w3.org/2000/svg" xmlns:xlink="http://www.w3.org/1999/xlink" contentStyleType="text/css" data-diagram-type="CLASS" height="611px" preserveAspectRatio="none" style="width:278px;height:611px;background:#FFFFFF;" version="1.1" viewBox="0 0 278 611" width="278px" zoomAndPan="magnify"><defs/><g><!--class EL_FEATURE_REF--><g class="entity" data-entity="EL_FEATURE_REF" data-source-line="2" data-uid="ent0002" id="entity_EL_FEATURE_REF"><rect fill="#F1F1F1" height="81.5999" rx="2.5" ry="2.5" style="stroke:#181818;stroke-width:0.5;" width="264.615" x="7" y="523"/><ellipse cx="78.5607" cy="539" fill="#A9DCDF" rx="11" ry="11" style="stroke:#181818;stroke-width:1;"/><path d="M73.0764,544.5 L75.1076,544.5 L79.1545,533.1563 L78.2482,533.1563 L82.0764,544.5 L84.217,544.5 L79.8889,532.1719 L77.6701,532.1719 L73.0764,544.5 Z M75.4045,541 L81.842,541 L81.842,539.25 L75.4045,539.25 L75.4045,541 Z " fill="#000000"/><text fill="#000000" font-family="sans-serif" font-size="14" font-style="italic" lengthAdjust="spacing" textLength="112.9935" x="99.0607" y="544.362">EL_FEATURE_REF</text><line style="stroke:#181818;stroke-width:0.5;" x1="8" x2="270.615" y1="555" y2="555"/><ellipse cx="18" cy="568.9" fill="none" rx="3" ry="3" style="stroke:#038048;stroke-width:1;"/><text fill="#000000" font-family="sans-serif" font-size="14" lengthAdjust="spacing" textLength="238.615" x="27" y="572.7619">scoper : EL_VALUE_GENERATOR [0..1]</text><line style="stroke:#181818;stroke-width:0.5;" x1="8" x2="270.615" y1="579.7999" y2="579.7999"/><ellipse cx="18" cy="593.6999" fill="#84BE84" rx="3" ry="3" style="stroke:#038048;stroke-width:1;"/><text fill="#000000" font-family="sans-serif" font-size="14" lengthAdjust="spacing" textLength="133.7695" x="27" y="597.5619">reference() : String [1]</text></g><!--class EL_VALUE_GENERATOR--><g class="entity" data-entity="EL_VALUE_GENERATOR" data-source-line="7" data-uid="ent0003" id="entity_EL_VALUE_GENERATOR"><rect fill="#F5F5F5" height="98.3998" rx="2.5" ry="2.5" style="stroke:#808080;stroke-width:1;stroke-dasharray:1,3;" width="184.6694" x="46.97" y="364.6"/><ellipse cx="61.97" cy="380.6" fill="#A9DCDF" rx="11" ry="11" style="stroke:#181818;stroke-width:1;"/><path d="M56.4856,386.1 L58.5169,386.1 L62.5638,374.7563 L61.6575,374.7563 L65.4856,386.1 L67.6263,386.1 L63.2981,373.7719 L61.0794,373.7719 L56.4856,386.1 Z M58.8138,382.6 L65.2513,382.6 L65.2513,380.85 L58.8138,380.85 L58.8138,382.6 Z " fill="#000000"/><text fill="#808080" font-family="sans-serif" font-size="14" font-style="italic" lengthAdjust="spacing" textLength="152.6694" x="75.97" y="385.962">EL_VALUE_GENERATOR</text><line style="stroke:#808080;stroke-width:1;stroke-dasharray:1,3;" x1="47.97" x2="230.6394" y1="396.6" y2="396.6"/><ellipse cx="57.97" cy="410.5" fill="none" rx="3" ry="3" style="stroke:#038048;stroke-width:1;"/><text fill="#808080" font-family="sans-serif" font-size="14" lengthAdjust="spacing" textLength="147.7414" x="66.97" y="414.3619">is_writable : Boolean [1]</text><ellipse cx="57.97" cy="427.2999" fill="none" rx="3" ry="3" style="stroke:#038048;stroke-width:1;"/><text fill="#808080" font-family="sans-serif" font-size="14" lengthAdjust="spacing" textLength="100.8836" x="66.97" y="431.1619">name : String [1]</text><line style="stroke:#808080;stroke-width:1;stroke-dasharray:1,3;" x1="47.97" x2="230.6394" y1="438.1999" y2="438.1999"/><ellipse cx="57.97" cy="452.0998" fill="#84BE84" rx="3" ry="3" style="stroke:#038048;stroke-width:1;"/><text fill="#808080" font-family="sans-serif" font-size="14" lengthAdjust="spacing" textLength="133.7695" x="66.97" y="455.9618">reference() : String [1]</text></g><!--class EL_SIMPLE--><g class="entity" data-entity="EL_SIMPLE" data-source-line="13" data-uid="ent0004" id="entity_EL_SIMPLE"><rect fill="#F5F5F5" height="48" rx="2.5" ry="2.5" style="stroke:#808080;stroke-width:1;stroke-dasharray:1,3;" width="101.2857" x="88.66" y="256.6"/><ellipse cx="103.66" cy="272.6" fill="#A9DCDF" rx="11" ry="11" style="stroke:#181818;stroke-width:1;"/><path d="M98.1756,278.1 L100.2069,278.1 L104.2538,266.7563 L103.3475,266.7563 L107.1756,278.1 L109.3163,278.1 L104.9881,265.7719 L102.7694,265.7719 L98.1756,278.1 Z M100.5038,274.6 L106.9413,274.6 L106.9413,272.85 L100.5038,272.85 L100.5038,274.6 Z " fill="#000000"/><text fill="#808080" font-family="sans-serif" font-size="14" font-style="italic" lengthAdjust="spacing" textLength="69.2857" x="117.66" y="277.962">EL_SIMPLE</text><line style="stroke:#808080;stroke-width:1;stroke-dasharray:1,3;" x1="89.66" x2="188.9457" y1="288.6" y2="288.6"/><line style="stroke:#808080;stroke-width:1;stroke-dasharray:1,3;" x1="89.66" x2="188.9457" y1="296.6" y2="296.6"/></g><!--class EL_TERMINAL--><g class="entity" data-entity="EL_TERMINAL" data-source-line="16" data-uid="ent0005" id="entity_EL_TERMINAL"><rect fill="#F5F5F5" height="48" rx="2.5" ry="2.5" style="stroke:#808080;stroke-width:1;stroke-dasharray:1,3;" width="121.1516" x="78.73" y="148.6"/><ellipse cx="93.73" cy="164.6" fill="#A9DCDF" rx="11" ry="11" style="stroke:#181818;stroke-width:1;"/><path d="M88.2456,170.1 L90.2769,170.1 L94.3238,158.7563 L93.4175,158.7563 L97.2456,170.1 L99.3863,170.1 L95.0581,157.7719 L92.8394,157.7719 L88.2456,170.1 Z M90.5738,166.6 L97.0113,166.6 L97.0113,164.85 L90.5738,164.85 L90.5738,166.6 Z " fill="#000000"/><text fill="#808080" font-family="sans-serif" font-size="14" font-style="italic" lengthAdjust="spacing" textLength="89.1516" x="107.73" y="169.962">EL_TERMINAL</text><line style="stroke:#808080;stroke-width:1;stroke-dasharray:1,3;" x1="79.73" x2="198.8816" y1="180.6" y2="180.6"/><line style="stroke:#808080;stroke-width:1;stroke-dasharray:1,3;" x1="79.73" x2="198.8816" y1="188.6" y2="188.6"/></g><!--class EL_EXPRESSION--><g class="entity" data-entity="EL_EXPRESSION" data-source-line="19" data-uid="ent0006" id="entity_EL_EXPRESSION"><rect fill="#F5F5F5" height="81.5999" rx="2.5" ry="2.5" style="stroke:#808080;stroke-width:1;stroke-dasharray:1,3;" width="194.6573" x="41.98" y="7"/><ellipse cx="83.2599" cy="23" fill="#A9DCDF" rx="11" ry="11" style="stroke:#181818;stroke-width:1;"/><path d="M77.7755,28.5 L79.8068,28.5 L83.8536,17.1563 L82.9474,17.1563 L86.7755,28.5 L88.9161,28.5 L84.588,16.1719 L82.3693,16.1719 L77.7755,28.5 Z M80.1036,25 L86.5411,25 L86.5411,23.25 L80.1036,23.25 L80.1036,25 Z " fill="#000000"/><text fill="#808080" font-family="sans-serif" font-size="14" font-style="italic" lengthAdjust="spacing" textLength="104.2576" x="103.0999" y="28.362">EL_EXPRESSION</text><line style="stroke:#808080;stroke-width:1;stroke-dasharray:1,3;" x1="42.98" x2="235.6373" y1="39" y2="39"/><line style="stroke:#808080;stroke-width:1;stroke-dasharray:1,3;" x1="42.98" x2="235.6373" y1="47" y2="47"/><ellipse cx="52.98" cy="60.9" fill="#84BE84" rx="3" ry="3" style="stroke:#038048;stroke-width:1;"/><text fill="#808080" font-family="sans-serif" font-size="14" font-style="italic" lengthAdjust="spacing" textLength="168.6573" x="61.98" y="64.7619">eval_type() : BMM_TYPE [1]</text><ellipse cx="52.98" cy="77.6999" fill="#84BE84" rx="3" ry="3" style="stroke:#038048;stroke-width:1;"/><text fill="#808080" font-family="sans-serif" font-size="14" lengthAdjust="spacing" textLength="155.2454" x="61.98" y="81.5619">is_boolean() : Boolean [1]</text></g><!--reverse link EL_EXPRESSION to EL_TERMINAL--><g class="link" data-entity-1="EL_EXPRESSION" data-entity-2="EL_TERMINAL" data-source-line="24" data-uid="lnk7" id="link_EL_EXPRESSION_EL_TERMINAL"><path codeLine="24" d="M139.31,107.01 C139.31,126.6 139.31,131.46 139.31,148.16" fill="none" id="EL_EXPRESSION-backto-EL_TERMINAL" style="stroke:#181818;stroke-width:1;"/><polygon fill="none" points="139.31,89.01,133.31,107.01,145.31,107.01,139.31,89.01" style="stroke:#181818;stroke-width:1;"/></g><!--reverse link EL_TERMINAL to EL_SIMPLE--><g class="link" data-entity-1="EL_TERMINAL" data-entity-2="EL_SIMPLE" data-source-line="26" data-uid="lnk8" id="link_EL_TERMINAL_EL_SIMPLE"><path codeLine="26" d="M139.31,214.86 C139.31,232.54 139.31,238.73 139.31,256.39" fill="none" id="EL_TERMINAL-backto-EL_SIMPLE" style="stroke:#181818;stroke-width:1;"/><polygon fill="none" points="139.31,196.86,133.31,214.86,145.31,214.86,139.31,196.86" style="stroke:#181818;stroke-width:1;"/></g><!--reverse link EL_SIMPLE to EL_VALUE_GENERATOR--><g class="link" data-entity-1="EL_SIMPLE" data-entity-2="EL_VALUE_GENERATOR" data-source-line="28" data-uid="lnk9" id="link_EL_SIMPLE_EL_VALUE_GENERATOR"><path codeLine="28" d="M139.31,323.06 C139.31,339.49 139.31,344.05 139.31,364.28" fill="none" id="EL_SIMPLE-backto-EL_VALUE_GENERATOR" style="stroke:#181818;stroke-width:1;"/><polygon fill="none" points="139.31,305.06,133.31,323.06,145.31,323.06,139.31,305.06" style="stroke:#181818;stroke-width:1;"/></g><!--reverse link EL_VALUE_GENERATOR to EL_FEATURE_REF--><g class="link" data-entity-1="EL_VALUE_GENERATOR" data-entity-2="EL_FEATURE_REF" data-source-line="30" data-uid="lnk10" id="link_EL_VALUE_GENERATOR_EL_FEATURE_REF"><path codeLine="30" d="M139.31,481.26 C139.31,500.48 139.31,504.32 139.31,522.64" fill="none" id="EL_VALUE_GENERATOR-backto-EL_FEATURE_REF" style="stroke:#181818;stroke-width:1;"/><polygon fill="none" points="139.31,463.26,133.31,481.26,145.31,481.26,139.31,463.26" style="stroke:#181818;stroke-width:1;"/></g></g></svg>
