<svg xmlns="http://www.w3.org/2000/svg" xmlns:xlink="http://www.w3.org/1999/xlink" contentStyleType="text/css" data-diagram-type="CLASS" height="453px" preserveAspectRatio="none" style="width:330px;height:453px;background:#FFFFFF;" version="1.1" viewBox="0 0 330 453" width="330px" zoomAndPan="magnify"><defs/><g><!--class EL_LITERAL--><g class="entity" data-entity="EL_LITERAL" data-source-line="2" data-uid="ent0002" id="entity_EL_LITERAL"><rect fill="#F1F1F1" height="81.5999" rx="2.5" ry="2.5" style="stroke:#181818;stroke-width:0.5;" width="316.3028" x="7" y="364.6"/><ellipse cx="124.0466" cy="380.6" fill="#ADD1B2" rx="11" ry="11" style="stroke:#181818;stroke-width:1;"/><path d="M124.0466,387.0219 C125.2184,387.0219 126.4528,386.7562 127.8278,386.1469 L127.3434,384.6312 C126.2497,385.0531 125.2341,385.2406 124.3747,385.2406 C121.6559,385.2406 119.9372,383.3969 119.9372,380.4906 C119.9372,377.7406 121.4997,376.1469 124.2341,376.1469 C125.1559,376.1469 126.1716,376.3344 127.3122,376.7562 L127.8903,375.2406 C126.7966,374.6625 125.4997,374.3656 124.3122,374.3656 C120.5466,374.3656 117.9684,377.0062 117.9684,380.8187 C117.9684,384.4906 120.4528,387.0219 124.0466,387.0219 Z " fill="#000000"/><text fill="#000000" font-family="sans-serif" font-size="14" lengthAdjust="spacing" textLength="73.7097" x="144.5466" y="385.962">EL_LITERAL</text><line style="stroke:#181818;stroke-width:0.5;" x1="8" x2="322.3028" y1="396.6" y2="396.6"/><ellipse cx="18" cy="410.5" fill="none" rx="3" ry="3" style="stroke:#038048;stroke-width:1;"/><text fill="#000000" font-family="sans-serif" font-size="14" lengthAdjust="spacing" textLength="290.3028" x="27" y="414.3619">value : BMM_LITERAL_VALUE&lt;BMM_TYPE&gt; [1]</text><line style="stroke:#181818;stroke-width:0.5;" x1="8" x2="322.3028" y1="421.3999" y2="421.3999"/><ellipse cx="18" cy="435.2999" fill="#84BE84" rx="3" ry="3" style="stroke:#038048;stroke-width:1;"/><text fill="#000000" font-family="sans-serif" font-size="14" lengthAdjust="spacing" textLength="168.6573" x="27" y="439.1619">eval_type() : BMM_TYPE [1]</text></g><!--class EL_SIMPLE--><g class="entity" data-entity="EL_SIMPLE" data-source-line="7" data-uid="ent0003" id="entity_EL_SIMPLE"><rect fill="#F5F5F5" height="48" rx="2.5" ry="2.5" style="stroke:#808080;stroke-width:1;stroke-dasharray:1,3;" width="101.2857" x="114.51" y="256.6"/><ellipse cx="129.51" cy="272.6" fill="#A9DCDF" rx="11" ry="11" style="stroke:#181818;stroke-width:1;"/><path d="M124.0256,278.1 L126.0569,278.1 L130.1038,266.7562 L129.1975,266.7562 L133.0256,278.1 L135.1663,278.1 L130.8381,265.7719 L128.6194,265.7719 L124.0256,278.1 Z M126.3537,274.6 L132.7913,274.6 L132.7913,272.85 L126.3537,272.85 L126.3537,274.6 Z " fill="#000000"/><text fill="#808080" font-family="sans-serif" font-size="14" font-style="italic" lengthAdjust="spacing" textLength="69.2857" x="143.51" y="277.962">EL_SIMPLE</text><line style="stroke:#808080;stroke-width:1;stroke-dasharray:1,3;" x1="115.51" x2="214.7957" y1="288.6" y2="288.6"/><line style="stroke:#808080;stroke-width:1;stroke-dasharray:1,3;" x1="115.51" x2="214.7957" y1="296.6" y2="296.6"/></g><!--class EL_TERMINAL--><g class="entity" data-entity="EL_TERMINAL" data-source-line="10" data-uid="ent0004" id="entity_EL_TERMINAL"><rect fill="#F5F5F5" height="48" rx="2.5" ry="2.5" style="stroke:#808080;stroke-width:1;stroke-dasharray:1,3;" width="121.1516" x="104.58" y="148.6"/><ellipse cx="119.58" cy="164.6" fill="#A9DCDF" rx="11" ry="11" style="stroke:#181818;stroke-width:1;"/><path d="M114.0956,170.1 L116.1269,170.1 L120.1738,158.7562 L119.2675,158.7562 L123.0956,170.1 L125.2363,170.1 L120.9081,157.7719 L118.6894,157.7719 L114.0956,170.1 Z M116.4238,166.6 L122.8613,166.6 L122.8613,164.85 L116.4238,164.85 L116.4238,166.6 Z " fill="#000000"/><text fill="#808080" font-family="sans-serif" font-size="14" font-style="italic" lengthAdjust="spacing" textLength="89.1516" x="133.58" y="169.962">EL_TERMINAL</text><line style="stroke:#808080;stroke-width:1;stroke-dasharray:1,3;" x1="105.58" x2="224.7316" y1="180.6" y2="180.6"/><line style="stroke:#808080;stroke-width:1;stroke-dasharray:1,3;" x1="105.58" x2="224.7316" y1="188.6" y2="188.6"/></g><!--class EL_EXPRESSION--><g class="entity" data-entity="EL_EXPRESSION" data-source-line="13" data-uid="ent0005" id="entity_EL_EXPRESSION"><rect fill="#F5F5F5" height="81.5999" rx="2.5" ry="2.5" style="stroke:#808080;stroke-width:1;stroke-dasharray:1,3;" width="194.6573" x="67.82" y="7"/><ellipse cx="109.0999" cy="23" fill="#A9DCDF" rx="11" ry="11" style="stroke:#181818;stroke-width:1;"/><path d="M103.6155,28.5 L105.6468,28.5 L109.6936,17.1563 L108.7874,17.1563 L112.6155,28.5 L114.7561,28.5 L110.428,16.1719 L108.2093,16.1719 L103.6155,28.5 Z M105.9436,25 L112.3811,25 L112.3811,23.25 L105.9436,23.25 L105.9436,25 Z " fill="#000000"/><text fill="#808080" font-family="sans-serif" font-size="14" font-style="italic" lengthAdjust="spacing" textLength="104.2576" x="128.9399" y="28.362">EL_EXPRESSION</text><line style="stroke:#808080;stroke-width:1;stroke-dasharray:1,3;" x1="68.82" x2="261.4773" y1="39" y2="39"/><line style="stroke:#808080;stroke-width:1;stroke-dasharray:1,3;" x1="68.82" x2="261.4773" y1="47" y2="47"/><ellipse cx="78.82" cy="60.9" fill="#84BE84" rx="3" ry="3" style="stroke:#038048;stroke-width:1;"/><text fill="#808080" font-family="sans-serif" font-size="14" font-style="italic" lengthAdjust="spacing" textLength="168.6573" x="87.82" y="64.7619">eval_type() : BMM_TYPE [1]</text><ellipse cx="78.82" cy="77.6999" fill="#84BE84" rx="3" ry="3" style="stroke:#038048;stroke-width:1;"/><text fill="#808080" font-family="sans-serif" font-size="14" lengthAdjust="spacing" textLength="155.2454" x="87.82" y="81.5619">is_boolean() : Boolean [1]</text></g><!--reverse link EL_EXPRESSION to EL_TERMINAL--><g class="link" data-entity-1="EL_EXPRESSION" data-entity-2="EL_TERMINAL" data-source-line="18" data-uid="lnk6" id="link_EL_EXPRESSION_EL_TERMINAL"><path codeLine="18" d="M165.15,107.01 C165.15,126.6 165.15,131.46 165.15,148.16" fill="none" id="EL_EXPRESSION-backto-EL_TERMINAL" style="stroke:#181818;stroke-width:1;"/><polygon fill="none" points="165.15,89.01,159.15,107.01,171.15,107.01,165.15,89.01" style="stroke:#181818;stroke-width:1;"/></g><!--reverse link EL_TERMINAL to EL_SIMPLE--><g class="link" data-entity-1="EL_TERMINAL" data-entity-2="EL_SIMPLE" data-source-line="20" data-uid="lnk7" id="link_EL_TERMINAL_EL_SIMPLE"><path codeLine="20" d="M165.15,214.86 C165.15,232.54 165.15,238.73 165.15,256.39" fill="none" id="EL_TERMINAL-backto-EL_SIMPLE" style="stroke:#181818;stroke-width:1;"/><polygon fill="none" points="165.15,196.86,159.15,214.86,171.15,214.86,165.15,196.86" style="stroke:#181818;stroke-width:1;"/></g><!--reverse link EL_SIMPLE to EL_LITERAL--><g class="link" data-entity-1="EL_SIMPLE" data-entity-2="EL_LITERAL" data-source-line="22" data-uid="lnk8" id="link_EL_SIMPLE_EL_LITERAL"><path codeLine="22" d="M165.15,322.99 C165.15,339.69 165.15,344.58 165.15,364.18" fill="none" id="EL_SIMPLE-backto-EL_LITERAL" style="stroke:#181818;stroke-width:1;"/><polygon fill="none" points="165.15,304.99,159.15,322.99,171.15,322.99,165.15,304.99" style="stroke:#181818;stroke-width:1;"/></g></g></svg>
