<svg xmlns="http://www.w3.org/2000/svg" xmlns:xlink="http://www.w3.org/1999/xlink" contentStyleType="text/css" data-diagram-type="CLASS" height="628px" preserveAspectRatio="none" style="width:208px;height:628px;background:#FFFFFF;" version="1.1" viewBox="0 0 208 628" width="208px" zoomAndPan="magnify"><defs/><g><!--class EL_TYPE_REF--><g class="entity" data-entity="EL_TYPE_REF" data-source-line="2" data-uid="ent0002" id="entity_EL_TYPE_REF"><rect fill="#F1F1F1" height="98.3998" rx="2.5" ry="2.5" style="stroke:#181818;stroke-width:0.5;" width="194.6573" x="7" y="523"/><ellipse cx="56.8398" cy="539" fill="#ADD1B2" rx="11" ry="11" style="stroke:#181818;stroke-width:1;"/><path d="M56.8398,545.4219 C58.0117,545.4219 59.2461,545.1563 60.6211,544.5469 L60.1367,543.0313 C59.043,543.4531 58.0273,543.6406 57.168,543.6406 C54.4492,543.6406 52.7305,541.7969 52.7305,538.8906 C52.7305,536.1406 54.293,534.5469 57.0273,534.5469 C57.9492,534.5469 58.9648,534.7344 60.1055,535.1563 L60.6836,533.6406 C59.5898,533.0625 58.293,532.7656 57.1055,532.7656 C53.3398,532.7656 50.7617,535.4063 50.7617,539.2188 C50.7617,542.8906 53.2461,545.4219 56.8398,545.4219 Z " fill="#000000"/><text fill="#000000" font-family="sans-serif" font-size="14" lengthAdjust="spacing" textLength="86.4776" x="77.3398" y="544.362">EL_TYPE_REF</text><line style="stroke:#181818;stroke-width:0.5;" x1="8" x2="200.6573" y1="555" y2="555"/><ellipse cx="18" cy="568.9" fill="none" rx="3" ry="3" style="stroke:#038048;stroke-width:1;"/><text fill="#000000" font-family="sans-serif" font-size="14" lengthAdjust="spacing" textLength="128.0575" x="27" y="572.7619">type : BMM_TYPE [1]</text><ellipse cx="18" cy="585.6999" fill="none" rx="3" ry="3" style="stroke:#038048;stroke-width:1;"/><text fill="#000000" font-family="sans-serif" font-size="14" lengthAdjust="spacing" textLength="148.2734" x="27" y="589.5619">is_mutable : Boolean [1]</text><line style="stroke:#181818;stroke-width:0.5;" x1="8" x2="200.6573" y1="596.5999" y2="596.5999"/><ellipse cx="18" cy="610.4998" fill="#84BE84" rx="3" ry="3" style="stroke:#038048;stroke-width:1;"/><text fill="#000000" font-family="sans-serif" font-size="14" lengthAdjust="spacing" textLength="168.6573" x="27" y="614.3618">eval_type() : BMM_TYPE [1]</text></g><!--class EL_VALUE_GENERATOR--><g class="entity" data-entity="EL_VALUE_GENERATOR" data-source-line="8" data-uid="ent0003" id="entity_EL_VALUE_GENERATOR"><rect fill="#F5F5F5" height="98.3998" rx="2.5" ry="2.5" style="stroke:#808080;stroke-width:1;stroke-dasharray:1,3;" width="184.6694" x="11.99" y="364.6"/><ellipse cx="26.99" cy="380.6" fill="#A9DCDF" rx="11" ry="11" style="stroke:#181818;stroke-width:1;"/><path d="M21.5056,386.1 L23.5369,386.1 L27.5838,374.7562 L26.6775,374.7562 L30.5056,386.1 L32.6463,386.1 L28.3181,373.7719 L26.0994,373.7719 L21.5056,386.1 Z M23.8338,382.6 L30.2713,382.6 L30.2713,380.85 L23.8338,380.85 L23.8338,382.6 Z " fill="#000000"/><text fill="#808080" font-family="sans-serif" font-size="14" font-style="italic" lengthAdjust="spacing" textLength="152.6694" x="40.99" y="385.962">EL_VALUE_GENERATOR</text><line style="stroke:#808080;stroke-width:1;stroke-dasharray:1,3;" x1="12.99" x2="195.6594" y1="396.6" y2="396.6"/><ellipse cx="22.99" cy="410.5" fill="none" rx="3" ry="3" style="stroke:#038048;stroke-width:1;"/><text fill="#808080" font-family="sans-serif" font-size="14" lengthAdjust="spacing" textLength="147.7414" x="31.99" y="414.3619">is_writable : Boolean [1]</text><ellipse cx="22.99" cy="427.2999" fill="none" rx="3" ry="3" style="stroke:#038048;stroke-width:1;"/><text fill="#808080" font-family="sans-serif" font-size="14" lengthAdjust="spacing" textLength="100.8836" x="31.99" y="431.1619">name : String [1]</text><line style="stroke:#808080;stroke-width:1;stroke-dasharray:1,3;" x1="12.99" x2="195.6594" y1="438.1999" y2="438.1999"/><ellipse cx="22.99" cy="452.0998" fill="#84BE84" rx="3" ry="3" style="stroke:#038048;stroke-width:1;"/><text fill="#808080" font-family="sans-serif" font-size="14" lengthAdjust="spacing" textLength="133.7695" x="31.99" y="455.9618">reference() : String [1]</text></g><!--class EL_SIMPLE--><g class="entity" data-entity="EL_SIMPLE" data-source-line="14" data-uid="ent0004" id="entity_EL_SIMPLE"><rect fill="#F5F5F5" height="48" rx="2.5" ry="2.5" style="stroke:#808080;stroke-width:1;stroke-dasharray:1,3;" width="101.2857" x="53.69" y="256.6"/><ellipse cx="68.69" cy="272.6" fill="#A9DCDF" rx="11" ry="11" style="stroke:#181818;stroke-width:1;"/><path d="M63.2056,278.1 L65.2369,278.1 L69.2838,266.7562 L68.3775,266.7562 L72.2056,278.1 L74.3463,278.1 L70.0181,265.7719 L67.7994,265.7719 L63.2056,278.1 Z M65.5338,274.6 L71.9713,274.6 L71.9713,272.85 L65.5338,272.85 L65.5338,274.6 Z " fill="#000000"/><text fill="#808080" font-family="sans-serif" font-size="14" font-style="italic" lengthAdjust="spacing" textLength="69.2857" x="82.69" y="277.962">EL_SIMPLE</text><line style="stroke:#808080;stroke-width:1;stroke-dasharray:1,3;" x1="54.69" x2="153.9757" y1="288.6" y2="288.6"/><line style="stroke:#808080;stroke-width:1;stroke-dasharray:1,3;" x1="54.69" x2="153.9757" y1="296.6" y2="296.6"/></g><!--class EL_TERMINAL--><g class="entity" data-entity="EL_TERMINAL" data-source-line="17" data-uid="ent0005" id="entity_EL_TERMINAL"><rect fill="#F5F5F5" height="48" rx="2.5" ry="2.5" style="stroke:#808080;stroke-width:1;stroke-dasharray:1,3;" width="121.1516" x="43.75" y="148.6"/><ellipse cx="58.75" cy="164.6" fill="#A9DCDF" rx="11" ry="11" style="stroke:#181818;stroke-width:1;"/><path d="M53.2656,170.1 L55.2969,170.1 L59.3438,158.7562 L58.4375,158.7562 L62.2656,170.1 L64.4063,170.1 L60.0781,157.7719 L57.8594,157.7719 L53.2656,170.1 Z M55.5938,166.6 L62.0313,166.6 L62.0313,164.85 L55.5938,164.85 L55.5938,166.6 Z " fill="#000000"/><text fill="#808080" font-family="sans-serif" font-size="14" font-style="italic" lengthAdjust="spacing" textLength="89.1516" x="72.75" y="169.962">EL_TERMINAL</text><line style="stroke:#808080;stroke-width:1;stroke-dasharray:1,3;" x1="44.75" x2="163.9016" y1="180.6" y2="180.6"/><line style="stroke:#808080;stroke-width:1;stroke-dasharray:1,3;" x1="44.75" x2="163.9016" y1="188.6" y2="188.6"/></g><!--class EL_EXPRESSION--><g class="entity" data-entity="EL_EXPRESSION" data-source-line="20" data-uid="ent0006" id="entity_EL_EXPRESSION"><rect fill="#F5F5F5" height="81.5999" rx="2.5" ry="2.5" style="stroke:#808080;stroke-width:1;stroke-dasharray:1,3;" width="194.6573" x="7" y="7"/><ellipse cx="48.2799" cy="23" fill="#A9DCDF" rx="11" ry="11" style="stroke:#181818;stroke-width:1;"/><path d="M42.7955,28.5 L44.8268,28.5 L48.8736,17.1563 L47.9674,17.1563 L51.7955,28.5 L53.9361,28.5 L49.608,16.1719 L47.3893,16.1719 L42.7955,28.5 Z M45.1236,25 L51.5611,25 L51.5611,23.25 L45.1236,23.25 L45.1236,25 Z " fill="#000000"/><text fill="#808080" font-family="sans-serif" font-size="14" font-style="italic" lengthAdjust="spacing" textLength="104.2576" x="68.1199" y="28.362">EL_EXPRESSION</text><line style="stroke:#808080;stroke-width:1;stroke-dasharray:1,3;" x1="8" x2="200.6573" y1="39" y2="39"/><line style="stroke:#808080;stroke-width:1;stroke-dasharray:1,3;" x1="8" x2="200.6573" y1="47" y2="47"/><ellipse cx="18" cy="60.9" fill="#84BE84" rx="3" ry="3" style="stroke:#038048;stroke-width:1;"/><text fill="#808080" font-family="sans-serif" font-size="14" font-style="italic" lengthAdjust="spacing" textLength="168.6573" x="27" y="64.7619">eval_type() : BMM_TYPE [1]</text><ellipse cx="18" cy="77.6999" fill="#84BE84" rx="3" ry="3" style="stroke:#038048;stroke-width:1;"/><text fill="#808080" font-family="sans-serif" font-size="14" lengthAdjust="spacing" textLength="155.2454" x="27" y="81.5619">is_boolean() : Boolean [1]</text></g><!--reverse link EL_EXPRESSION to EL_TERMINAL--><g class="link" data-entity-1="EL_EXPRESSION" data-entity-2="EL_TERMINAL" data-source-line="25" data-uid="lnk7" id="link_EL_EXPRESSION_EL_TERMINAL"><path codeLine="25" d="M104.33,107.01 C104.33,126.6 104.33,131.46 104.33,148.16" fill="none" id="EL_EXPRESSION-backto-EL_TERMINAL" style="stroke:#181818;stroke-width:1;"/><polygon fill="none" points="104.33,89.01,98.33,107.01,110.33,107.01,104.33,89.01" style="stroke:#181818;stroke-width:1;"/></g><!--reverse link EL_TERMINAL to EL_SIMPLE--><g class="link" data-entity-1="EL_TERMINAL" data-entity-2="EL_SIMPLE" data-source-line="27" data-uid="lnk8" id="link_EL_TERMINAL_EL_SIMPLE"><path codeLine="27" d="M104.33,214.86 C104.33,232.54 104.33,238.73 104.33,256.39" fill="none" id="EL_TERMINAL-backto-EL_SIMPLE" style="stroke:#181818;stroke-width:1;"/><polygon fill="none" points="104.33,196.86,98.33,214.86,110.33,214.86,104.33,196.86" style="stroke:#181818;stroke-width:1;"/></g><!--reverse link EL_SIMPLE to EL_VALUE_GENERATOR--><g class="link" data-entity-1="EL_SIMPLE" data-entity-2="EL_VALUE_GENERATOR" data-source-line="29" data-uid="lnk9" id="link_EL_SIMPLE_EL_VALUE_GENERATOR"><path codeLine="29" d="M104.33,323.06 C104.33,339.49 104.33,344.05 104.33,364.28" fill="none" id="EL_SIMPLE-backto-EL_VALUE_GENERATOR" style="stroke:#181818;stroke-width:1;"/><polygon fill="none" points="104.33,305.06,98.33,323.06,110.33,323.06,104.33,305.06" style="stroke:#181818;stroke-width:1;"/></g><!--reverse link EL_VALUE_GENERATOR to EL_TYPE_REF--><g class="link" data-entity-1="EL_VALUE_GENERATOR" data-entity-2="EL_TYPE_REF" data-source-line="31" data-uid="lnk10" id="link_EL_VALUE_GENERATOR_EL_TYPE_REF"><path codeLine="31" d="M104.33,481.43 C104.33,500.26 104.33,503.77 104.33,522.6" fill="none" id="EL_VALUE_GENERATOR-backto-EL_TYPE_REF" style="stroke:#181818;stroke-width:1;"/><polygon fill="none" points="104.33,463.43,98.33,481.43,110.33,481.43,104.33,463.43" style="stroke:#181818;stroke-width:1;"/></g></g></svg>
