<svg xmlns="http://www.w3.org/2000/svg" xmlns:xlink="http://www.w3.org/1999/xlink" contentStyleType="text/css" data-diagram-type="CLASS" height="412px" preserveAspectRatio="none" style="width:308px;height:412px;background:#FFFFFF;" version="1.1" viewBox="0 0 308 412" width="308px" zoomAndPan="magnify"><defs/><g><!--class EL_UNARY_OPERATOR--><g class="entity" data-entity="EL_UNARY_OPERATOR" data-source-line="2" data-uid="ent0002" id="entity_EL_UNARY_OPERATOR"><rect fill="#F1F1F1" height="64.7999" rx="2.5" ry="2.5" style="stroke:#181818;stroke-width:0.5;" width="210.4913" x="49.24" y="340.6"/><ellipse cx="78.6444" cy="356.6" fill="#ADD1B2" rx="11" ry="11" style="stroke:#181818;stroke-width:1;"/><path d="M78.6444,363.0219 C79.8163,363.0219 81.0507,362.7562 82.4257,362.1469 L81.9413,360.6312 C80.8476,361.0531 79.8319,361.2406 78.9726,361.2406 C76.2538,361.2406 74.5351,359.3969 74.5351,356.4906 C74.5351,353.7406 76.0976,352.1469 78.8319,352.1469 C79.7538,352.1469 80.7694,352.3344 81.9101,352.7562 L82.4882,351.2406 C81.3944,350.6625 80.0976,350.3656 78.9101,350.3656 C75.1444,350.3656 72.5663,353.0062 72.5663,356.8187 C72.5663,360.4906 75.0507,363.0219 78.6444,363.0219 Z " fill="#000000"/><text fill="#000000" font-family="sans-serif" font-size="14" lengthAdjust="spacing" textLength="146.4814" x="95.8454" y="361.962">EL_UNARY_OPERATOR</text><line style="stroke:#181818;stroke-width:0.5;" x1="50.24" x2="258.7313" y1="372.6" y2="372.6"/><ellipse cx="60.24" cy="386.5" fill="none" rx="3" ry="3" style="stroke:#038048;stroke-width:1;"/><text fill="#000000" font-family="sans-serif" font-size="14" lengthAdjust="spacing" textLength="184.4913" x="69.24" y="390.3619">operand : EL_EXPRESSION [1]</text><line style="stroke:#181818;stroke-width:0.5;" x1="50.24" x2="258.7313" y1="397.3999" y2="397.3999"/></g><!--class EL_OPERATOR--><g class="entity" data-entity="EL_OPERATOR" data-source-line="6" data-uid="ent0003" id="entity_EL_OPERATOR"><rect fill="#F5F5F5" height="131.9996" rx="2.5" ry="2.5" style="stroke:#808080;stroke-width:1;stroke-dasharray:1,3;" width="294.981" x="7" y="148.6"/><ellipse cx="103.2287" cy="164.6" fill="#A9DCDF" rx="11" ry="11" style="stroke:#181818;stroke-width:1;"/><path d="M97.7443,170.1 L99.7756,170.1 L103.8224,158.7562 L102.9162,158.7562 L106.7443,170.1 L108.8849,170.1 L104.5568,157.7719 L102.3381,157.7719 L97.7443,170.1 Z M100.0724,166.6 L106.5099,166.6 L106.5099,164.85 L100.0724,164.85 L100.0724,166.6 Z " fill="#000000"/><text fill="#808080" font-family="sans-serif" font-size="14" font-style="italic" lengthAdjust="spacing" textLength="94.0236" x="123.7287" y="169.962">EL_OPERATOR</text><line style="stroke:#808080;stroke-width:1;stroke-dasharray:1,3;" x1="8" x2="300.981" y1="180.6" y2="180.6"/><ellipse cx="18" cy="194.5" fill="none" rx="3" ry="3" style="stroke:#038048;stroke-width:1;"/><text fill="#808080" font-family="sans-serif" font-size="14" lengthAdjust="spacing" textLength="241.569" x="27" y="198.3619">precedence_overridden : Boolean [0..1]</text><ellipse cx="18" cy="211.2999" fill="none" rx="3" ry="3" style="stroke:#038048;stroke-width:1;"/><text fill="#808080" font-family="sans-serif" font-size="14" lengthAdjust="spacing" textLength="127.1755" x="27" y="215.1619">symbol : String [0..1]</text><ellipse cx="18" cy="228.0998" fill="none" rx="3" ry="3" style="stroke:#038048;stroke-width:1;"/><text fill="#808080" font-family="sans-serif" font-size="14" lengthAdjust="spacing" textLength="180.8653" x="27" y="231.9618">call : EL_FUNCTION_CALL [1]</text><line style="stroke:#808080;stroke-width:1;stroke-dasharray:1,3;" x1="8" x2="300.981" y1="238.9998" y2="238.9998"/><ellipse cx="18" cy="252.8997" fill="#84BE84" rx="3" ry="3" style="stroke:#038048;stroke-width:1;"/><text fill="#808080" font-family="sans-serif" font-size="14" lengthAdjust="spacing" textLength="268.981" x="27" y="256.7617">operator_definition() : BMM_OPERATOR [1]</text><ellipse cx="18" cy="269.6997" fill="#84BE84" rx="3" ry="3" style="stroke:#038048;stroke-width:1;"/><text fill="#808080" font-family="sans-serif" font-size="14" lengthAdjust="spacing" textLength="261.085" x="27" y="273.5616">equivalent_call() : EL_FUNCTION_CALL [1]</text></g><!--class EL_EXPRESSION--><g class="entity" data-entity="EL_EXPRESSION" data-source-line="14" data-uid="ent0004" id="entity_EL_EXPRESSION"><rect fill="#F5F5F5" height="81.5999" rx="2.5" ry="2.5" style="stroke:#808080;stroke-width:1;stroke-dasharray:1,3;" width="194.6573" x="57.16" y="7"/><ellipse cx="98.4399" cy="23" fill="#A9DCDF" rx="11" ry="11" style="stroke:#181818;stroke-width:1;"/><path d="M92.9555,28.5 L94.9868,28.5 L99.0336,17.1563 L98.1274,17.1563 L101.9555,28.5 L104.0961,28.5 L99.768,16.1719 L97.5493,16.1719 L92.9555,28.5 Z M95.2836,25 L101.7211,25 L101.7211,23.25 L95.2836,23.25 L95.2836,25 Z " fill="#000000"/><text fill="#808080" font-family="sans-serif" font-size="14" font-style="italic" lengthAdjust="spacing" textLength="104.2576" x="118.2799" y="28.362">EL_EXPRESSION</text><line style="stroke:#808080;stroke-width:1;stroke-dasharray:1,3;" x1="58.16" x2="250.8173" y1="39" y2="39"/><line style="stroke:#808080;stroke-width:1;stroke-dasharray:1,3;" x1="58.16" x2="250.8173" y1="47" y2="47"/><ellipse cx="68.16" cy="60.9" fill="#84BE84" rx="3" ry="3" style="stroke:#038048;stroke-width:1;"/><text fill="#808080" font-family="sans-serif" font-size="14" font-style="italic" lengthAdjust="spacing" textLength="168.6573" x="77.16" y="64.7619">eval_type() : BMM_TYPE [1]</text><ellipse cx="68.16" cy="77.6999" fill="#84BE84" rx="3" ry="3" style="stroke:#038048;stroke-width:1;"/><text fill="#808080" font-family="sans-serif" font-size="14" lengthAdjust="spacing" textLength="155.2454" x="77.16" y="81.5619">is_boolean() : Boolean [1]</text></g><!--reverse link EL_EXPRESSION to EL_OPERATOR--><g class="link" data-entity-1="EL_EXPRESSION" data-entity-2="EL_OPERATOR" data-source-line="19" data-uid="lnk5" id="link_EL_EXPRESSION_EL_OPERATOR"><path codeLine="19" d="M154.49,106.69 C154.49,124.6 154.49,128.2 154.49,148.36" fill="none" id="EL_EXPRESSION-backto-EL_OPERATOR" style="stroke:#181818;stroke-width:1;"/><polygon fill="none" points="154.49,88.69,148.49,106.69,160.49,106.69,154.49,88.69" style="stroke:#181818;stroke-width:1;"/></g><!--reverse link EL_OPERATOR to EL_UNARY_OPERATOR--><g class="link" data-entity-1="EL_OPERATOR" data-entity-2="EL_UNARY_OPERATOR" data-source-line="21" data-uid="lnk6" id="link_EL_OPERATOR_EL_UNARY_OPERATOR"><path codeLine="21" d="M154.49,299.02 C154.49,319.45 154.49,323.07 154.49,340.1" fill="none" id="EL_OPERATOR-backto-EL_UNARY_OPERATOR" style="stroke:#181818;stroke-width:1;"/><polygon fill="none" points="154.49,281.02,148.49,299.02,160.49,299.02,154.49,281.02" style="stroke:#181818;stroke-width:1;"/></g></g></svg>
