<svg xmlns="http://www.w3.org/2000/svg" xmlns:xlink="http://www.w3.org/1999/xlink" contentStyleType="text/css" data-diagram-type="CLASS" height="321px" preserveAspectRatio="none" style="width:456px;height:321px;background:#FFFFFF;" version="1.1" viewBox="0 0 456 321" width="456px" zoomAndPan="magnify"><defs/><g><!--class P_BMM_FUNCTION--><g class="entity" data-entity="P_BMM_FUNCTION" data-source-line="2" data-uid="ent0002" id="entity_P_BMM_FUNCTION"><rect fill="#F1F1F1" height="182.3994" rx="2.5" ry="2.5" style="stroke:#181818;stroke-width:0.5;" width="442.0783" x="7" y="131.8"/><ellipse cx="161.4194" cy="147.8" fill="#ADD1B2" rx="11" ry="11" style="stroke:#181818;stroke-width:1;"/><path d="M161.4194,154.2219 C162.5913,154.2219 163.8257,153.9562 165.2007,153.3469 L164.7163,151.8312 C163.6225,152.2531 162.6069,152.4406 161.7475,152.4406 C159.0288,152.4406 157.31,150.5969 157.31,147.6906 C157.31,144.9406 158.8725,143.3469 161.6069,143.3469 C162.5288,143.3469 163.5444,143.5344 164.685,143.9562 L165.2632,142.4406 C164.1694,141.8625 162.8725,141.5656 161.685,141.5656 C157.9194,141.5656 155.3413,144.2062 155.3413,148.0187 C155.3413,151.6906 157.8257,154.2219 161.4194,154.2219 Z " fill="#000000"/><text fill="#000000" font-family="sans-serif" font-size="14" lengthAdjust="spacing" textLength="124.7395" x="181.9194" y="153.162">P_BMM_FUNCTION</text><line style="stroke:#181818;stroke-width:0.5;" x1="8" x2="448.0783" y1="163.8" y2="163.8"/><ellipse cx="18" cy="177.7" fill="none" rx="3" ry="3" style="stroke:#038048;stroke-width:1;"/><text fill="#000000" font-family="sans-serif" font-size="14" lengthAdjust="spacing" textLength="100.8836" x="27" y="181.5619">name : String [1]</text><ellipse cx="18" cy="194.4999" fill="none" rx="3" ry="3" style="stroke:#038048;stroke-width:1;"/><text fill="#000000" font-family="sans-serif" font-size="14" lengthAdjust="spacing" textLength="212.7572" x="27" y="198.3619">aliases : Hash&lt;String,String&gt; [0..1]</text><ellipse cx="18" cy="211.2998" fill="none" rx="3" ry="3" style="stroke:#038048;stroke-width:1;"/><text fill="#000000" font-family="sans-serif" font-size="14" lengthAdjust="spacing" textLength="163.0714" x="27" y="215.1618">is_abstract : Boolean [0..1]</text><ellipse cx="18" cy="228.0997" fill="none" rx="3" ry="3" style="stroke:#038048;stroke-width:1;"/><text fill="#000000" font-family="sans-serif" font-size="14" lengthAdjust="spacing" textLength="416.0783" x="27" y="231.9617">parameters : Hash&lt;String,P_BMM_FUNCTION_PARAMETER&gt; [0..1]</text><ellipse cx="18" cy="244.8997" fill="none" rx="3" ry="3" style="stroke:#038048;stroke-width:1;"/><text fill="#000000" font-family="sans-serif" font-size="14" lengthAdjust="spacing" textLength="263.073" x="27" y="248.7616">pre_conditions : Hash&lt;String,String&gt; [0..1]</text><ellipse cx="18" cy="261.6996" fill="none" rx="3" ry="3" style="stroke:#038048;stroke-width:1;"/><text fill="#000000" font-family="sans-serif" font-size="14" lengthAdjust="spacing" textLength="269.891" x="27" y="265.5616">post_conditions : Hash&lt;String,String&gt; [0..1]</text><ellipse cx="18" cy="278.4995" fill="none" rx="3" ry="3" style="stroke:#038048;stroke-width:1;"/><text fill="#000000" font-family="sans-serif" font-size="14" lengthAdjust="spacing" textLength="167.8453" x="27" y="282.3615">result : P_BMM_TYPE [0..1]</text><ellipse cx="18" cy="295.2995" fill="none" rx="3" ry="3" style="stroke:#038048;stroke-width:1;"/><text fill="#000000" font-family="sans-serif" font-size="14" lengthAdjust="spacing" textLength="162.3013" x="27" y="299.1614">is_nullable : Boolean [0..1]</text><line style="stroke:#181818;stroke-width:0.5;" x1="8" x2="448.0783" y1="306.1994" y2="306.1994"/></g><!--class P_BMM_MODEL_ELEMENT--><g class="entity" data-entity="P_BMM_MODEL_ELEMENT" data-source-line="13" data-uid="ent0003" id="entity_P_BMM_MODEL_ELEMENT"><rect fill="#F5F5F5" height="64.7999" rx="2.5" ry="2.5" style="stroke:#808080;stroke-width:1;stroke-dasharray:1,3;" width="204.0733" x="126" y="7"/><ellipse cx="141" cy="23" fill="#A9DCDF" rx="11" ry="11" style="stroke:#181818;stroke-width:1;"/><path d="M135.5156,28.5 L137.5469,28.5 L141.5938,17.1563 L140.6875,17.1563 L144.5156,28.5 L146.6563,28.5 L142.3281,16.1719 L140.1094,16.1719 L135.5156,28.5 Z M137.8438,25 L144.2813,25 L144.2813,23.25 L137.8438,23.25 L137.8438,25 Z " fill="#000000"/><text fill="#808080" font-family="sans-serif" font-size="14" font-style="italic" lengthAdjust="spacing" textLength="172.0733" x="155" y="28.362">P_BMM_MODEL_ELEMENT</text><line style="stroke:#808080;stroke-width:1;stroke-dasharray:1,3;" x1="127" x2="329.0733" y1="39" y2="39"/><ellipse cx="137" cy="52.9" fill="none" rx="3" ry="3" style="stroke:#038048;stroke-width:1;"/><text fill="#808080" font-family="sans-serif" font-size="14" lengthAdjust="spacing" textLength="176.3433" x="146" y="56.7619">documentation : String [0..1]</text><line style="stroke:#808080;stroke-width:1;stroke-dasharray:1,3;" x1="127" x2="329.0733" y1="63.7999" y2="63.7999"/></g><!--reverse link P_BMM_MODEL_ELEMENT to P_BMM_FUNCTION--><g class="link" data-entity-1="P_BMM_MODEL_ELEMENT" data-entity-2="P_BMM_FUNCTION" data-source-line="17" data-uid="lnk4" id="link_P_BMM_MODEL_ELEMENT_P_BMM_FUNCTION"><path codeLine="17" d="M228.04,90.03 C228.04,106.7 228.04,110.07 228.04,131.43" fill="none" id="P_BMM_MODEL_ELEMENT-backto-P_BMM_FUNCTION" style="stroke:#181818;stroke-width:1;"/><polygon fill="none" points="228.04,72.03,222.04,90.03,234.04,90.03,228.04,72.03" style="stroke:#181818;stroke-width:1;"/></g></g></svg>
