<svg xmlns="http://www.w3.org/2000/svg" xmlns:xlink="http://www.w3.org/1999/xlink" contentStyleType="text/css" data-diagram-type="CLASS" height="378px" preserveAspectRatio="none" style="width:587px;height:378px;background:#FFFFFF;" version="1.1" viewBox="0 0 587 378" width="587px" zoomAndPan="magnify"><defs/><g><!--class P_BMM_OPEN_TYPE--><g class="entity" data-entity="P_BMM_OPEN_TYPE" data-source-line="2" data-uid="ent0002" id="entity_P_BMM_OPEN_TYPE"><rect fill="#F1F1F1" height="81.5999" rx="2.5" ry="2.5" style="stroke:#181818;stroke-width:0.5;" width="254.185" x="166.77" y="290.2"/><ellipse cx="223.5188" cy="306.2" fill="#ADD1B2" rx="11" ry="11" style="stroke:#181818;stroke-width:1;"/><path d="M223.5188,312.6219 C224.6907,312.6219 225.9251,312.3563 227.3001,311.7469 L226.8157,310.2313 C225.7219,310.6531 224.7063,310.8406 223.8469,310.8406 C221.1282,310.8406 219.4094,308.9969 219.4094,306.0906 C219.4094,303.3406 220.9719,301.7469 223.7063,301.7469 C224.6282,301.7469 225.6438,301.9344 226.7844,302.3563 L227.3626,300.8406 C226.2688,300.2625 224.9719,299.9656 223.7844,299.9656 C220.0188,299.9656 217.4407,302.6063 217.4407,306.4188 C217.4407,310.0906 219.9251,312.6219 223.5188,312.6219 Z " fill="#000000"/><text fill="#000000" font-family="sans-serif" font-size="14" lengthAdjust="spacing" textLength="132.1874" x="244.0188" y="311.562">P_BMM_OPEN_TYPE</text><line style="stroke:#181818;stroke-width:0.5;" x1="167.77" x2="419.955" y1="322.2" y2="322.2"/><ellipse cx="177.77" cy="336.1" fill="none" rx="3" ry="3" style="stroke:#038048;stroke-width:1;"/><text fill="#000000" font-family="sans-serif" font-size="14" lengthAdjust="spacing" textLength="93.1416" x="186.77" y="339.9619">type : String [1]</text><ellipse cx="177.77" cy="352.8999" fill="none" rx="3" ry="3" style="stroke:#038048;stroke-width:1;"/><text fill="#000000" font-family="sans-serif" font-size="14" lengthAdjust="spacing" textLength="228.185" x="186.77" y="356.7619">bmm_type : BMM_OPEN_TYPE [0..1]</text><line style="stroke:#181818;stroke-width:0.5;" x1="167.77" x2="419.955" y1="363.7999" y2="363.7999"/></g><!--class P_BMM_BASE_TYPE--><g class="entity" data-entity="P_BMM_BASE_TYPE" data-source-line="7" data-uid="ent0003" id="entity_P_BMM_BASE_TYPE"><rect fill="#F5F5F5" height="64.7999" rx="2.5" ry="2.5" style="stroke:#808080;stroke-width:1;stroke-dasharray:1,3;" width="210.5753" x="188.57" y="165.4"/><ellipse cx="226.2778" cy="181.4" fill="#A9DCDF" rx="11" ry="11" style="stroke:#181818;stroke-width:1;"/><path d="M220.7934,186.9 L222.8247,186.9 L226.8716,175.5563 L225.9653,175.5563 L229.7934,186.9 L231.9341,186.9 L227.6059,174.5719 L225.3872,174.5719 L220.7934,186.9 Z M223.1216,183.4 L229.5591,183.4 L229.5591,181.65 L223.1216,181.65 L223.1216,183.4 Z " fill="#000000"/><text fill="#808080" font-family="sans-serif" font-size="14" font-style="italic" lengthAdjust="spacing" textLength="128.1135" x="245.324" y="186.762">P_BMM_BASE_TYPE</text><line style="stroke:#808080;stroke-width:1;stroke-dasharray:1,3;" x1="189.57" x2="398.1453" y1="197.4" y2="197.4"/><ellipse cx="199.57" cy="211.3" fill="none" rx="3" ry="3" style="stroke:#038048;stroke-width:1;"/><text fill="#808080" font-family="sans-serif" font-size="14" lengthAdjust="spacing" textLength="184.5753" x="208.57" y="215.1619">value_constraint : String [0..1]</text><line style="stroke:#808080;stroke-width:1;stroke-dasharray:1,3;" x1="189.57" x2="398.1453" y1="222.1999" y2="222.1999"/></g><!--class P_BMM_TYPE--><g class="entity" data-entity="P_BMM_TYPE" data-source-line="11" data-uid="ent0004" id="entity_P_BMM_TYPE"><rect fill="#F5F5F5" height="98.3998" rx="2.5" ry="2.5" style="stroke:#808080;stroke-width:1;stroke-dasharray:1,3;" width="573.7197" x="7" y="7"/><ellipse cx="245.804" cy="23" fill="#A9DCDF" rx="11" ry="11" style="stroke:#181818;stroke-width:1;"/><path d="M240.3197,28.5 L242.3509,28.5 L246.3978,17.1563 L245.4915,17.1563 L249.3197,28.5 L251.4603,28.5 L247.1322,16.1719 L244.9134,16.1719 L240.3197,28.5 Z M242.6478,25 L249.0853,25 L249.0853,23.25 L242.6478,23.25 L242.6478,25 Z " fill="#000000"/><text fill="#808080" font-family="sans-serif" font-size="14" font-style="italic" lengthAdjust="spacing" textLength="87.6116" x="266.304" y="28.362">P_BMM_TYPE</text><line style="stroke:#808080;stroke-width:1;stroke-dasharray:1,3;" x1="8" x2="579.7197" y1="39" y2="39"/><ellipse cx="18" cy="52.9" fill="none" rx="3" ry="3" style="stroke:#038048;stroke-width:1;"/><text fill="#808080" font-family="sans-serif" font-size="14" lengthAdjust="spacing" textLength="183.6092" x="27" y="56.7619">bmm_type : BMM_TYPE [0..1]</text><line style="stroke:#808080;stroke-width:1;stroke-dasharray:1,3;" x1="8" x2="579.7197" y1="63.7999" y2="63.7999"/><ellipse cx="18" cy="77.6999" fill="#84BE84" rx="3" ry="3" style="stroke:#038048;stroke-width:1;"/><text fill="#808080" font-family="sans-serif" font-size="14" font-style="italic" lengthAdjust="spacing" textLength="547.7197" x="27" y="81.5619">create_bmm_type( a_schema : BMM_MODEL [1], a_class_def : BMM_CLASS [1] ) : void [1]</text><ellipse cx="18" cy="94.4998" fill="#84BE84" rx="3" ry="3" style="stroke:#038048;stroke-width:1;"/><text fill="#808080" font-family="sans-serif" font-size="14" font-style="italic" lengthAdjust="spacing" textLength="165.4234" x="27" y="98.3618">as_type_string() : String [1]</text></g><!--reverse link P_BMM_TYPE to P_BMM_BASE_TYPE--><g class="link" data-entity-1="P_BMM_TYPE" data-entity-2="P_BMM_BASE_TYPE" data-source-line="17" data-uid="lnk5" id="link_P_BMM_TYPE_P_BMM_BASE_TYPE"><path codeLine="17" d="M293.86,123.63 C293.86,143.32 293.86,147.52 293.86,165.08" fill="none" id="P_BMM_TYPE-backto-P_BMM_BASE_TYPE" style="stroke:#181818;stroke-width:1;"/><polygon fill="none" points="293.86,105.63,287.86,123.63,299.86,123.63,293.86,105.63" style="stroke:#181818;stroke-width:1;"/></g><!--reverse link P_BMM_BASE_TYPE to P_BMM_OPEN_TYPE--><g class="link" data-entity-1="P_BMM_BASE_TYPE" data-entity-2="P_BMM_OPEN_TYPE" data-source-line="19" data-uid="lnk6" id="link_P_BMM_BASE_TYPE_P_BMM_OPEN_TYPE"><path codeLine="19" d="M293.86,248.56 C293.86,266.46 293.86,270.98 293.86,290.07" fill="none" id="P_BMM_BASE_TYPE-backto-P_BMM_OPEN_TYPE" style="stroke:#181818;stroke-width:1;"/><polygon fill="none" points="293.86,230.56,287.86,248.56,299.86,248.56,293.86,230.56" style="stroke:#181818;stroke-width:1;"/></g></g></svg>
