<svg xmlns="http://www.w3.org/2000/svg" xmlns:xlink="http://www.w3.org/1999/xlink" contentStyleType="text/css" data-diagram-type="CLASS" height="361px" preserveAspectRatio="none" style="width:342px;height:361px;background:#FFFFFF;" version="1.1" viewBox="0 0 342 361" width="342px" zoomAndPan="magnify"><defs/><g><!--class P_BMM_CONTAINER_FUNCTION_PARAMETER--><g class="entity" data-entity="P_BMM_CONTAINER_FUNCTION_PARAMETER" data-source-line="2" data-uid="ent0002" id="entity_P_BMM_CONTAINER_FUNCTION_PARAMETER"><rect fill="#F1F1F1" height="81.5999" rx="2.5" ry="2.5" style="stroke:#181818;stroke-width:0.5;" width="328.1408" x="7" y="273.4"/><ellipse cx="22" cy="289.4" fill="#ADD1B2" rx="11" ry="11" style="stroke:#181818;stroke-width:1;"/><path d="M22,295.8219 C23.1719,295.8219 24.4063,295.5563 25.7813,294.9469 L25.2969,293.4313 C24.2031,293.8531 23.1875,294.0406 22.3281,294.0406 C19.6094,294.0406 17.8906,292.1969 17.8906,289.2906 C17.8906,286.5406 19.4531,284.9469 22.1875,284.9469 C23.1094,284.9469 24.125,285.1344 25.2656,285.5563 L25.8438,284.0406 C24.75,283.4625 23.4531,283.1656 22.2656,283.1656 C18.5,283.1656 15.9219,285.8063 15.9219,289.6188 C15.9219,293.2906 18.4063,295.8219 22,295.8219 Z " fill="#000000"/><text fill="#000000" font-family="sans-serif" font-size="14" lengthAdjust="spacing" textLength="296.1408" x="36" y="294.762">P_BMM_CONTAINER_FUNCTION_PARAMETER</text><line style="stroke:#181818;stroke-width:0.5;" x1="8" x2="334.1408" y1="305.4" y2="305.4"/><ellipse cx="18" cy="319.3" fill="none" rx="3" ry="3" style="stroke:#038048;stroke-width:1;"/><text fill="#000000" font-family="sans-serif" font-size="14" lengthAdjust="spacing" textLength="255.4009" x="27" y="323.1619">type_def : P_BMM_CONTAINER_TYPE [1]</text><ellipse cx="18" cy="336.0999" fill="none" rx="3" ry="3" style="stroke:#038048;stroke-width:1;"/><text fill="#000000" font-family="sans-serif" font-size="14" lengthAdjust="spacing" textLength="217.1252" x="27" y="339.9619">cardinality : Interval&lt;Integer&gt; [0..1]</text><line style="stroke:#181818;stroke-width:0.5;" x1="8" x2="334.1408" y1="346.9999" y2="346.9999"/></g><!--class P_BMM_FUNCTION_PARAMETER--><g class="entity" data-entity="P_BMM_FUNCTION_PARAMETER" data-source-line="7" data-uid="ent0003" id="entity_P_BMM_FUNCTION_PARAMETER"><rect fill="#F5F5F5" height="81.5999" rx="2.5" ry="2.5" style="stroke:#808080;stroke-width:1;stroke-dasharray:1,3;" width="243.1891" x="49.48" y="131.8"/><ellipse cx="64.48" cy="147.8" fill="#A9DCDF" rx="11" ry="11" style="stroke:#181818;stroke-width:1;"/><path d="M58.9956,153.3 L61.0269,153.3 L65.0737,141.9563 L64.1675,141.9563 L67.9956,153.3 L70.1362,153.3 L65.8081,140.9719 L63.5894,140.9719 L58.9956,153.3 Z M61.3237,149.8 L67.7612,149.8 L67.7612,148.05 L61.3237,148.05 L61.3237,149.8 Z " fill="#000000"/><text fill="#808080" font-family="sans-serif" font-size="14" font-style="italic" lengthAdjust="spacing" textLength="211.1891" x="78.48" y="153.162">P_BMM_FUNCTION_PARAMETER</text><line style="stroke:#808080;stroke-width:1;stroke-dasharray:1,3;" x1="50.48" x2="291.6691" y1="163.8" y2="163.8"/><ellipse cx="60.48" cy="177.7" fill="none" rx="3" ry="3" style="stroke:#038048;stroke-width:1;"/><text fill="#808080" font-family="sans-serif" font-size="14" lengthAdjust="spacing" textLength="100.8836" x="69.48" y="181.5619">name : String [1]</text><ellipse cx="60.48" cy="194.4999" fill="none" rx="3" ry="3" style="stroke:#038048;stroke-width:1;"/><text fill="#808080" font-family="sans-serif" font-size="14" lengthAdjust="spacing" textLength="162.3013" x="69.48" y="198.3619">is_nullable : Boolean [0..1]</text><line style="stroke:#808080;stroke-width:1;stroke-dasharray:1,3;" x1="50.48" x2="291.6691" y1="205.3999" y2="205.3999"/></g><!--class P_BMM_MODEL_ELEMENT--><g class="entity" data-entity="P_BMM_MODEL_ELEMENT" data-source-line="12" data-uid="ent0004" id="entity_P_BMM_MODEL_ELEMENT"><rect fill="#F5F5F5" height="64.7999" rx="2.5" ry="2.5" style="stroke:#808080;stroke-width:1;stroke-dasharray:1,3;" width="204.0733" x="69.03" y="7"/><ellipse cx="84.03" cy="23" fill="#A9DCDF" rx="11" ry="11" style="stroke:#181818;stroke-width:1;"/><path d="M78.5456,28.5 L80.5769,28.5 L84.6238,17.1563 L83.7175,17.1563 L87.5456,28.5 L89.6863,28.5 L85.3581,16.1719 L83.1394,16.1719 L78.5456,28.5 Z M80.8738,25 L87.3113,25 L87.3113,23.25 L80.8738,23.25 L80.8738,25 Z " fill="#000000"/><text fill="#808080" font-family="sans-serif" font-size="14" font-style="italic" lengthAdjust="spacing" textLength="172.0733" x="98.03" y="28.362">P_BMM_MODEL_ELEMENT</text><line style="stroke:#808080;stroke-width:1;stroke-dasharray:1,3;" x1="70.03" x2="272.1033" y1="39" y2="39"/><ellipse cx="80.03" cy="52.9" fill="none" rx="3" ry="3" style="stroke:#038048;stroke-width:1;"/><text fill="#808080" font-family="sans-serif" font-size="14" lengthAdjust="spacing" textLength="176.3433" x="89.03" y="56.7619">documentation : String [0..1]</text><line style="stroke:#808080;stroke-width:1;stroke-dasharray:1,3;" x1="70.03" x2="272.1033" y1="63.7999" y2="63.7999"/></g><!--reverse link P_BMM_MODEL_ELEMENT to P_BMM_FUNCTION_PARAMETER--><g class="link" data-entity-1="P_BMM_MODEL_ELEMENT" data-entity-2="P_BMM_FUNCTION_PARAMETER" data-source-line="16" data-uid="lnk5" id="link_P_BMM_MODEL_ELEMENT_P_BMM_FUNCTION_PARAMETER"><path codeLine="16" d="M171.07,90.16 C171.07,108.06 171.07,112.58 171.07,131.67" fill="none" id="P_BMM_MODEL_ELEMENT-backto-P_BMM_FUNCTION_PARAMETER" style="stroke:#181818;stroke-width:1;"/><polygon fill="none" points="171.07,72.16,165.07,90.16,177.07,90.16,171.07,72.16" style="stroke:#181818;stroke-width:1;"/></g><!--reverse link P_BMM_FUNCTION_PARAMETER to P_BMM_CONTAINER_FUNCTION_PARAMETER--><g class="link" data-entity-1="P_BMM_FUNCTION_PARAMETER" data-entity-2="P_BMM_CONTAINER_FUNCTION_PARAMETER" data-source-line="18" data-uid="lnk6" id="link_P_BMM_FUNCTION_PARAMETER_P_BMM_CONTAINER_FUNCTION_PARAMETER"><path codeLine="18" d="M171.07,231.6 C171.07,250.3 171.07,254.5 171.07,273.19" fill="none" id="P_BMM_FUNCTION_PARAMETER-backto-P_BMM_CONTAINER_FUNCTION_PARAMETER" style="stroke:#181818;stroke-width:1;"/><polygon fill="none" points="171.07,213.6,165.07,231.6,177.07,231.6,171.07,213.6" style="stroke:#181818;stroke-width:1;"/></g></g></svg>
