<svg xmlns="http://www.w3.org/2000/svg" xmlns:xlink="http://www.w3.org/1999/xlink" contentStyleType="text/css" data-diagram-type="CLASS" height="755px" preserveAspectRatio="none" style="width:524px;height:755px;background:#FFFFFF;" version="1.1" viewBox="0 0 524 755" width="524px" zoomAndPan="magnify"><defs/><g><!--class P_BMM_ENUMERATION_STRING--><g class="entity" data-entity="P_BMM_ENUMERATION_STRING" data-source-line="2" data-uid="ent0002" id="entity_P_BMM_ENUMERATION_STRING"><rect fill="#F1F1F1" height="64.7999" rx="2.5" ry="2.5" style="stroke:#181818;stroke-width:0.5;" width="334.6707" x="95.1" y="683.8"/><ellipse cx="153.5638" cy="699.8" fill="#ADD1B2" rx="11" ry="11" style="stroke:#181818;stroke-width:1;"/><path d="M153.5638,706.2219 C154.7357,706.2219 155.97,705.9563 157.345,705.3469 L156.8607,703.8313 C155.7669,704.2531 154.7513,704.4406 153.8919,704.4406 C151.1732,704.4406 149.4544,702.5969 149.4544,699.6906 C149.4544,696.9406 151.0169,695.3469 153.7513,695.3469 C154.6732,695.3469 155.6888,695.5344 156.8294,695.9563 L157.4075,694.4406 C156.3138,693.8625 155.0169,693.5656 153.8294,693.5656 C150.0638,693.5656 147.4857,696.2063 147.4857,700.0188 C147.4857,703.6906 149.97,706.2219 153.5638,706.2219 Z " fill="#000000"/><text fill="#000000" font-family="sans-serif" font-size="14" lengthAdjust="spacing" textLength="209.2431" x="174.0638" y="705.162">P_BMM_ENUMERATION_STRING</text><line style="stroke:#181818;stroke-width:0.5;" x1="96.1" x2="428.7707" y1="715.8" y2="715.8"/><ellipse cx="106.1" cy="729.7" fill="none" rx="3" ry="3" style="stroke:#038048;stroke-width:1;"/><text fill="#000000" font-family="sans-serif" font-size="14" lengthAdjust="spacing" textLength="308.6707" x="115.1" y="733.5619">bmm_class : BMM_ENUMERATION_STRING [0..1]</text><line style="stroke:#181818;stroke-width:0.5;" x1="96.1" x2="428.7707" y1="740.5999" y2="740.5999"/></g><!--class P_BMM_ENUMERATION--><g class="entity" data-entity="P_BMM_ENUMERATION" data-source-line="6" data-uid="ent0003" id="entity_P_BMM_ENUMERATION"><rect fill="#F5F5F5" height="115.1997" rx="2.5" ry="2.5" style="stroke:#808080;stroke-width:1;stroke-dasharray:1,3;" width="279.077" x="122.9" y="508.6"/><ellipse cx="181.3638" cy="524.6" fill="#ADD1B2" rx="11" ry="11" style="stroke:#181818;stroke-width:1;"/><path d="M181.3638,531.0219 C182.5357,531.0219 183.77,530.7563 185.145,530.1469 L184.6607,528.6313 C183.5669,529.0531 182.5513,529.2406 181.6919,529.2406 C178.9732,529.2406 177.2544,527.3969 177.2544,524.4906 C177.2544,521.7406 178.8169,520.1469 181.5513,520.1469 C182.4732,520.1469 183.4888,520.3344 184.6294,520.7563 L185.2075,519.2406 C184.1138,518.6625 182.8169,518.3656 181.6294,518.3656 C177.8638,518.3656 175.2857,521.0063 175.2857,524.8188 C175.2857,528.4906 177.77,531.0219 181.3638,531.0219 Z " fill="#000000"/><text fill="#808080" font-family="sans-serif" font-size="14" lengthAdjust="spacing" textLength="153.6494" x="201.8638" y="529.962">P_BMM_ENUMERATION</text><line style="stroke:#808080;stroke-width:1;stroke-dasharray:1,3;" x1="123.9" x2="400.977" y1="540.6" y2="540.6"/><ellipse cx="133.9" cy="554.5" fill="none" rx="3" ry="3" style="stroke:#038048;stroke-width:1;"/><text fill="#808080" font-family="sans-serif" font-size="14" lengthAdjust="spacing" textLength="181.6353" x="142.9" y="558.3619">item_names : List&lt;String&gt; [*]</text><ellipse cx="133.9" cy="571.2999" fill="none" rx="3" ry="3" style="stroke:#038048;stroke-width:1;"/><text fill="#808080" font-family="sans-serif" font-size="14" lengthAdjust="spacing" textLength="165.7033" x="142.9" y="575.1619">item_values : List&lt;Any&gt; [*]</text><ellipse cx="133.9" cy="588.0998" fill="none" rx="3" ry="3" style="stroke:#038048;stroke-width:1;"/><text fill="#808080" font-family="sans-serif" font-size="14" lengthAdjust="spacing" textLength="241.3311" x="142.9" y="591.9618">item_documentations : List&lt;String&gt; [*]</text><ellipse cx="133.9" cy="604.8997" fill="none" rx="3" ry="3" style="stroke:#038048;stroke-width:1;"/><text fill="#808080" font-family="sans-serif" font-size="14" lengthAdjust="spacing" textLength="253.077" x="142.9" y="608.7617">bmm_class : BMM_ENUMERATION [0..1]</text><line style="stroke:#808080;stroke-width:1;stroke-dasharray:1,3;" x1="123.9" x2="400.977" y1="615.7997" y2="615.7997"/></g><!--class P_BMM_CLASS--><g class="entity" data-entity="P_BMM_CLASS" data-source-line="13" data-uid="ent0004" id="entity_P_BMM_CLASS"><rect fill="#F5F5F5" height="316.7988" rx="2.5" ry="2.5" style="stroke:#808080;stroke-width:1;stroke-dasharray:1,3;" width="510.874" x="7" y="131.8"/><ellipse cx="210.4402" cy="147.8" fill="#ADD1B2" rx="11" ry="11" style="stroke:#181818;stroke-width:1;"/><path d="M210.4402,154.2219 C211.6121,154.2219 212.8465,153.9563 214.2215,153.3469 L213.7371,151.8313 C212.6433,152.2531 211.6277,152.4406 210.7683,152.4406 C208.0496,152.4406 206.3308,150.5969 206.3308,147.6906 C206.3308,144.9406 207.8933,143.3469 210.6277,143.3469 C211.5496,143.3469 212.5652,143.5344 213.7058,143.9563 L214.284,142.4406 C213.1902,141.8625 211.8933,141.5656 210.7058,141.5656 C206.9402,141.5656 204.3621,144.2063 204.3621,148.0188 C204.3621,151.6906 206.8465,154.2219 210.4402,154.2219 Z " fill="#000000"/><text fill="#808080" font-family="sans-serif" font-size="14" lengthAdjust="spacing" textLength="95.4936" x="230.9402" y="153.162">P_BMM_CLASS</text><line style="stroke:#808080;stroke-width:1;stroke-dasharray:1,3;" x1="8" x2="516.874" y1="163.8" y2="163.8"/><ellipse cx="18" cy="177.7" fill="none" rx="3" ry="3" style="stroke:#038048;stroke-width:1;"/><text fill="#808080" font-family="sans-serif" font-size="14" lengthAdjust="spacing" textLength="100.8836" x="27" y="181.5619">name : String [1]</text><ellipse cx="18" cy="194.4999" fill="none" rx="3" ry="3" style="stroke:#038048;stroke-width:1;"/><text fill="#808080" font-family="sans-serif" font-size="14" lengthAdjust="spacing" textLength="165.2414" x="27" y="198.3619">ancestors : List&lt;String&gt; [*]</text><ellipse cx="18" cy="211.2998" fill="none" rx="3" ry="3" style="stroke:#038048;stroke-width:1;"/><text fill="#808080" font-family="sans-serif" font-size="14" lengthAdjust="spacing" textLength="322.0406" x="27" y="215.1618">constants : Hash&lt;String,P_BMM_CONSTANT&gt; [0..1]</text><ellipse cx="18" cy="228.0997" fill="none" rx="3" ry="3" style="stroke:#038048;stroke-width:1;"/><text fill="#808080" font-family="sans-serif" font-size="14" lengthAdjust="spacing" textLength="321.3967" x="27" y="231.9617">properties : Hash&lt;String,P_BMM_PROPERTY&gt; [0..1]</text><ellipse cx="18" cy="244.8997" fill="none" rx="3" ry="3" style="stroke:#038048;stroke-width:1;"/><text fill="#808080" font-family="sans-serif" font-size="14" lengthAdjust="spacing" textLength="315.9227" x="27" y="248.7616">functions : Hash&lt;String,P_BMM_FUNCTION&gt; [0..1]</text><ellipse cx="18" cy="261.6996" fill="none" rx="3" ry="3" style="stroke:#038048;stroke-width:1;"/><text fill="#808080" font-family="sans-serif" font-size="14" lengthAdjust="spacing" textLength="231.3491" x="27" y="265.5616">invariants : Hash&lt;String,String&gt; [0..1]</text><ellipse cx="18" cy="278.4995" fill="none" rx="3" ry="3" style="stroke:#038048;stroke-width:1;"/><text fill="#808080" font-family="sans-serif" font-size="14" lengthAdjust="spacing" textLength="163.0714" x="27" y="282.3615">is_abstract : Boolean [0..1]</text><ellipse cx="18" cy="295.2995" fill="none" rx="3" ry="3" style="stroke:#038048;stroke-width:1;"/><text fill="#808080" font-family="sans-serif" font-size="14" lengthAdjust="spacing" textLength="163.7573" x="27" y="299.1614">is_override : Boolean [0..1]</text><ellipse cx="18" cy="312.0994" fill="none" rx="3" ry="3" style="stroke:#038048;stroke-width:1;"/><text fill="#808080" font-family="sans-serif" font-size="14" lengthAdjust="spacing" textLength="484.874" x="27" y="315.9614">generic_parameter_defs : Hash&lt;String,P_BMM_GENERIC_PARAMETER&gt; [0..1]</text><ellipse cx="18" cy="328.8993" fill="none" rx="3" ry="3" style="stroke:#038048;stroke-width:1;"/><text fill="#808080" font-family="sans-serif" font-size="14" lengthAdjust="spacing" textLength="180.7953" x="27" y="332.7613">source_schema_id : String [1]</text><ellipse cx="18" cy="345.6992" fill="none" rx="3" ry="3" style="stroke:#038048;stroke-width:1;"/><text fill="#808080" font-family="sans-serif" font-size="14" lengthAdjust="spacing" textLength="194.9212" x="27" y="349.5612">bmm_class : BMM_CLASS [0..1]</text><ellipse cx="18" cy="362.4992" fill="none" rx="3" ry="3" style="stroke:#038048;stroke-width:1;"/><text fill="#808080" font-family="sans-serif" font-size="14" lengthAdjust="spacing" textLength="92.5536" x="27" y="366.3611">uid : Integer [1]</text><ellipse cx="18" cy="379.2991" fill="none" rx="3" ry="3" style="stroke:#038048;stroke-width:1;"/><text fill="#808080" font-family="sans-serif" font-size="14" lengthAdjust="spacing" textLength="307.8587" x="27" y="383.1611">ancestor_defs : List&lt;P_BMM_GENERIC_TYPE&gt; [*]</text><line style="stroke:#808080;stroke-width:1;stroke-dasharray:1,3;" x1="8" x2="516.874" y1="390.199" y2="390.199"/><ellipse cx="18" cy="404.099" fill="#84BE84" rx="3" ry="3" style="stroke:#038048;stroke-width:1;"/><text fill="#808080" font-family="sans-serif" font-size="14" lengthAdjust="spacing" textLength="150.9614" x="27" y="407.961">is_generic() : Boolean [1]</text><ellipse cx="18" cy="420.8989" fill="#84BE84" rx="3" ry="3" style="stroke:#038048;stroke-width:1;"/><text fill="#808080" font-family="sans-serif" font-size="14" lengthAdjust="spacing" textLength="179.2553" x="27" y="424.7609">create_bmm_class() : void [1]</text><ellipse cx="18" cy="437.6989" fill="#84BE84" rx="3" ry="3" style="stroke:#038048;stroke-width:1;"/><text fill="#808080" font-family="sans-serif" font-size="14" lengthAdjust="spacing" textLength="420.0263" x="27" y="441.5608">populate_bmm_class( a_bmm_schema : BMM_MODEL [1] ) : void [1]</text></g><!--class P_BMM_MODEL_ELEMENT--><g class="entity" data-entity="P_BMM_MODEL_ELEMENT" data-source-line="32" data-uid="ent0005" id="entity_P_BMM_MODEL_ELEMENT"><rect fill="#F5F5F5" height="64.7999" rx="2.5" ry="2.5" style="stroke:#808080;stroke-width:1;stroke-dasharray:1,3;" width="204.0733" x="160.4" y="7"/><ellipse cx="175.4" cy="23" fill="#A9DCDF" rx="11" ry="11" style="stroke:#181818;stroke-width:1;"/><path d="M169.9156,28.5 L171.9469,28.5 L175.9938,17.1563 L175.0875,17.1563 L178.9156,28.5 L181.0563,28.5 L176.7281,16.1719 L174.5094,16.1719 L169.9156,28.5 Z M172.2438,25 L178.6813,25 L178.6813,23.25 L172.2438,23.25 L172.2438,25 Z " fill="#000000"/><text fill="#808080" font-family="sans-serif" font-size="14" font-style="italic" lengthAdjust="spacing" textLength="172.0733" x="189.4" y="28.362">P_BMM_MODEL_ELEMENT</text><line style="stroke:#808080;stroke-width:1;stroke-dasharray:1,3;" x1="161.4" x2="363.4733" y1="39" y2="39"/><ellipse cx="171.4" cy="52.9" fill="none" rx="3" ry="3" style="stroke:#038048;stroke-width:1;"/><text fill="#808080" font-family="sans-serif" font-size="14" lengthAdjust="spacing" textLength="176.3433" x="180.4" y="56.7619">documentation : String [0..1]</text><line style="stroke:#808080;stroke-width:1;stroke-dasharray:1,3;" x1="161.4" x2="363.4733" y1="63.7999" y2="63.7999"/></g><!--reverse link P_BMM_MODEL_ELEMENT to P_BMM_CLASS--><g class="link" data-entity-1="P_BMM_MODEL_ELEMENT" data-entity-2="P_BMM_CLASS" data-source-line="36" data-uid="lnk6" id="link_P_BMM_MODEL_ELEMENT_P_BMM_CLASS"><path codeLine="36" d="M262.44,90.16 C262.44,106.21 262.44,109.01 262.44,131.35" fill="none" id="P_BMM_MODEL_ELEMENT-backto-P_BMM_CLASS" style="stroke:#181818;stroke-width:1;"/><polygon fill="none" points="262.44,72.16,256.44,90.16,268.44,90.16,262.44,72.16" style="stroke:#181818;stroke-width:1;"/></g><!--reverse link P_BMM_CLASS to P_BMM_ENUMERATION--><g class="link" data-entity-1="P_BMM_CLASS" data-entity-2="P_BMM_ENUMERATION" data-source-line="38" data-uid="lnk7" id="link_P_BMM_CLASS_P_BMM_ENUMERATION"><path codeLine="38" d="M262.44,467 C262.44,488.06 262.44,490.44 262.44,508.1" fill="none" id="P_BMM_CLASS-backto-P_BMM_ENUMERATION" style="stroke:#181818;stroke-width:1;"/><polygon fill="none" points="262.44,449,256.44,467,268.44,467,262.44,449" style="stroke:#181818;stroke-width:1;"/></g><!--reverse link P_BMM_ENUMERATION to P_BMM_ENUMERATION_STRING--><g class="link" data-entity-1="P_BMM_ENUMERATION" data-entity-2="P_BMM_ENUMERATION_STRING" data-source-line="40" data-uid="lnk8" id="link_P_BMM_ENUMERATION_P_BMM_ENUMERATION_STRING"><path codeLine="40" d="M262.44,642 C262.44,662.21 262.44,666.24 262.44,683.59" fill="none" id="P_BMM_ENUMERATION-backto-P_BMM_ENUMERATION_STRING" style="stroke:#181818;stroke-width:1;"/><polygon fill="none" points="262.44,624,256.44,642,268.44,642,262.44,624" style="stroke:#181818;stroke-width:1;"/></g></g></svg>
