<svg xmlns="http://www.w3.org/2000/svg" xmlns:xlink="http://www.w3.org/1999/xlink" contentStyleType="text/css" data-diagram-type="CLASS" height="220px" preserveAspectRatio="none" style="width:257px;height:220px;background:#FFFFFF;" version="1.1" viewBox="0 0 257 220" width="257px" zoomAndPan="magnify"><defs/><g><!--class P_BMM_FUNCTION_PARAMETER--><g class="entity" data-entity="P_BMM_FUNCTION_PARAMETER" data-source-line="2" data-uid="ent0002" id="entity_P_BMM_FUNCTION_PARAMETER"><rect fill="#F1F1F1" height="81.5999" rx="2.5" ry="2.5" style="stroke:#181818;stroke-width:0.5;" width="243.1891" x="7" y="131.8"/><ellipse cx="22" cy="147.8" fill="#A9DCDF" rx="11" ry="11" style="stroke:#181818;stroke-width:1;"/><path d="M16.5156,153.3 L18.5469,153.3 L22.5938,141.9563 L21.6875,141.9563 L25.5156,153.3 L27.6563,153.3 L23.3281,140.9719 L21.1094,140.9719 L16.5156,153.3 Z M18.8438,149.8 L25.2813,149.8 L25.2813,148.05 L18.8438,148.05 L18.8438,149.8 Z " fill="#000000"/><text fill="#000000" font-family="sans-serif" font-size="14" font-style="italic" lengthAdjust="spacing" textLength="211.1891" x="36" y="153.162">P_BMM_FUNCTION_PARAMETER</text><line style="stroke:#181818;stroke-width:0.5;" x1="8" x2="249.1891" y1="163.8" y2="163.8"/><ellipse cx="18" cy="177.7" fill="none" rx="3" ry="3" style="stroke:#038048;stroke-width:1;"/><text fill="#000000" font-family="sans-serif" font-size="14" lengthAdjust="spacing" textLength="100.8836" x="27" y="181.5619">name : String [1]</text><ellipse cx="18" cy="194.4999" fill="none" rx="3" ry="3" style="stroke:#038048;stroke-width:1;"/><text fill="#000000" font-family="sans-serif" font-size="14" lengthAdjust="spacing" textLength="162.3013" x="27" y="198.3619">is_nullable : Boolean [0..1]</text><line style="stroke:#181818;stroke-width:0.5;" x1="8" x2="249.1891" y1="205.3999" y2="205.3999"/></g><!--class P_BMM_MODEL_ELEMENT--><g class="entity" data-entity="P_BMM_MODEL_ELEMENT" data-source-line="7" data-uid="ent0003" id="entity_P_BMM_MODEL_ELEMENT"><rect fill="#F5F5F5" height="64.7999" rx="2.5" ry="2.5" style="stroke:#808080;stroke-width:1;stroke-dasharray:1,3;" width="204.0733" x="26.56" y="7"/><ellipse cx="41.56" cy="23" fill="#A9DCDF" rx="11" ry="11" style="stroke:#181818;stroke-width:1;"/><path d="M36.0756,28.5 L38.1069,28.5 L42.1538,17.1563 L41.2475,17.1563 L45.0756,28.5 L47.2163,28.5 L42.8881,16.1719 L40.6694,16.1719 L36.0756,28.5 Z M38.4038,25 L44.8413,25 L44.8413,23.25 L38.4038,23.25 L38.4038,25 Z " fill="#000000"/><text fill="#808080" font-family="sans-serif" font-size="14" font-style="italic" lengthAdjust="spacing" textLength="172.0733" x="55.56" y="28.362">P_BMM_MODEL_ELEMENT</text><line style="stroke:#808080;stroke-width:1;stroke-dasharray:1,3;" x1="27.56" x2="229.6333" y1="39" y2="39"/><ellipse cx="37.56" cy="52.9" fill="none" rx="3" ry="3" style="stroke:#038048;stroke-width:1;"/><text fill="#808080" font-family="sans-serif" font-size="14" lengthAdjust="spacing" textLength="176.3433" x="46.56" y="56.7619">documentation : String [0..1]</text><line style="stroke:#808080;stroke-width:1;stroke-dasharray:1,3;" x1="27.56" x2="229.6333" y1="63.7999" y2="63.7999"/></g><!--reverse link P_BMM_MODEL_ELEMENT to P_BMM_FUNCTION_PARAMETER--><g class="link" data-entity-1="P_BMM_MODEL_ELEMENT" data-entity-2="P_BMM_FUNCTION_PARAMETER" data-source-line="11" data-uid="lnk4" id="link_P_BMM_MODEL_ELEMENT_P_BMM_FUNCTION_PARAMETER"><path codeLine="11" d="M128.59,90.16 C128.59,108.06 128.59,112.58 128.59,131.67" fill="none" id="P_BMM_MODEL_ELEMENT-backto-P_BMM_FUNCTION_PARAMETER" style="stroke:#181818;stroke-width:1;"/><polygon fill="none" points="128.59,72.16,122.59,90.16,134.59,90.16,128.59,72.16" style="stroke:#181818;stroke-width:1;"/></g></g></svg>
