<svg xmlns="http://www.w3.org/2000/svg" xmlns:xlink="http://www.w3.org/1999/xlink" contentStyleType="text/css" data-diagram-type="CLASS" height="237px" preserveAspectRatio="none" style="width:218px;height:237px;background:#FFFFFF;" version="1.1" viewBox="0 0 218 237" width="218px" zoomAndPan="magnify"><defs/><g><!--class P_BMM_CONSTANT--><g class="entity" data-entity="P_BMM_CONSTANT" data-source-line="2" data-uid="ent0002" id="entity_P_BMM_CONSTANT"><rect fill="#F1F1F1" height="98.3998" rx="2.5" ry="2.5" style="stroke:#181818;stroke-width:0.5;" width="160.1555" x="28.96" y="131.8"/><ellipse cx="43.96" cy="147.8" fill="#ADD1B2" rx="11" ry="11" style="stroke:#181818;stroke-width:1;"/><path d="M43.96,154.2219 C45.1319,154.2219 46.3663,153.9562 47.7413,153.3469 L47.2569,151.8312 C46.1631,152.2531 45.1475,152.4406 44.2881,152.4406 C41.5694,152.4406 39.8506,150.5969 39.8506,147.6906 C39.8506,144.9406 41.4131,143.3469 44.1475,143.3469 C45.0694,143.3469 46.085,143.5344 47.2256,143.9562 L47.8038,142.4406 C46.71,141.8625 45.4131,141.5656 44.2256,141.5656 C40.46,141.5656 37.8819,144.2062 37.8819,148.0187 C37.8819,151.6906 40.3663,154.2219 43.96,154.2219 Z " fill="#000000"/><text fill="#000000" font-family="sans-serif" font-size="14" lengthAdjust="spacing" textLength="128.1555" x="57.96" y="153.162">P_BMM_CONSTANT</text><line style="stroke:#181818;stroke-width:0.5;" x1="29.96" x2="188.1155" y1="163.8" y2="163.8"/><ellipse cx="39.96" cy="177.7" fill="none" rx="3" ry="3" style="stroke:#038048;stroke-width:1;"/><text fill="#000000" font-family="sans-serif" font-size="14" lengthAdjust="spacing" textLength="100.8836" x="48.96" y="181.5619">name : String [1]</text><ellipse cx="39.96" cy="194.4999" fill="none" rx="3" ry="3" style="stroke:#038048;stroke-width:1;"/><text fill="#000000" font-family="sans-serif" font-size="14" lengthAdjust="spacing" textLength="93.1416" x="48.96" y="198.3619">type : String [1]</text><ellipse cx="39.96" cy="211.2998" fill="none" rx="3" ry="3" style="stroke:#038048;stroke-width:1;"/><text fill="#000000" font-family="sans-serif" font-size="14" lengthAdjust="spacing" textLength="114.7295" x="48.96" y="215.1618">value : String [0..1]</text><line style="stroke:#181818;stroke-width:0.5;" x1="29.96" x2="188.1155" y1="222.1998" y2="222.1998"/></g><!--class P_BMM_MODEL_ELEMENT--><g class="entity" data-entity="P_BMM_MODEL_ELEMENT" data-source-line="8" data-uid="ent0003" id="entity_P_BMM_MODEL_ELEMENT"><rect fill="#F5F5F5" height="64.7999" rx="2.5" ry="2.5" style="stroke:#808080;stroke-width:1;stroke-dasharray:1,3;" width="204.0733" x="7" y="7"/><ellipse cx="22" cy="23" fill="#A9DCDF" rx="11" ry="11" style="stroke:#181818;stroke-width:1;"/><path d="M16.5156,28.5 L18.5469,28.5 L22.5938,17.1563 L21.6875,17.1563 L25.5156,28.5 L27.6563,28.5 L23.3281,16.1719 L21.1094,16.1719 L16.5156,28.5 Z M18.8438,25 L25.2813,25 L25.2813,23.25 L18.8438,23.25 L18.8438,25 Z " fill="#000000"/><text fill="#808080" font-family="sans-serif" font-size="14" font-style="italic" lengthAdjust="spacing" textLength="172.0733" x="36" y="28.362">P_BMM_MODEL_ELEMENT</text><line style="stroke:#808080;stroke-width:1;stroke-dasharray:1,3;" x1="8" x2="210.0733" y1="39" y2="39"/><ellipse cx="18" cy="52.9" fill="none" rx="3" ry="3" style="stroke:#038048;stroke-width:1;"/><text fill="#808080" font-family="sans-serif" font-size="14" lengthAdjust="spacing" textLength="176.3433" x="27" y="56.7619">documentation : String [0..1]</text><line style="stroke:#808080;stroke-width:1;stroke-dasharray:1,3;" x1="8" x2="210.0733" y1="63.7999" y2="63.7999"/></g><!--reverse link P_BMM_MODEL_ELEMENT to P_BMM_CONSTANT--><g class="link" data-entity-1="P_BMM_MODEL_ELEMENT" data-entity-2="P_BMM_CONSTANT" data-source-line="12" data-uid="lnk4" id="link_P_BMM_MODEL_ELEMENT_P_BMM_CONSTANT"><path codeLine="12" d="M109.04,90.08 C109.04,107.61 109.04,111.78 109.04,131.46" fill="none" id="P_BMM_MODEL_ELEMENT-backto-P_BMM_CONSTANT" style="stroke:#181818;stroke-width:1;"/><polygon fill="none" points="109.04,72.08,103.04,90.08,115.04,90.08,109.04,72.08" style="stroke:#181818;stroke-width:1;"/></g></g></svg>
