<svg xmlns="http://www.w3.org/2000/svg" xmlns:xlink="http://www.w3.org/1999/xlink" contentStyleType="text/css" data-diagram-type="CLASS" height="345px" preserveAspectRatio="none" style="width:356px;height:345px;background:#FFFFFF;" version="1.1" viewBox="0 0 356 345" width="356px" zoomAndPan="magnify"><defs/><g><!--class P_BMM_SINGLE_FUNCTION_PARAMETER_OPEN--><g class="entity" data-entity="P_BMM_SINGLE_FUNCTION_PARAMETER_OPEN" data-source-line="2" data-uid="ent0002" id="entity_P_BMM_SINGLE_FUNCTION_PARAMETER_OPEN"><rect fill="#F1F1F1" height="64.7999" rx="2.5" ry="2.5" style="stroke:#181818;stroke-width:0.5;" width="342.0147" x="7" y="273.4"/><ellipse cx="22" cy="289.4" fill="#ADD1B2" rx="11" ry="11" style="stroke:#181818;stroke-width:1;"/><path d="M22,295.8219 C23.1719,295.8219 24.4063,295.5563 25.7813,294.9469 L25.2969,293.4313 C24.2031,293.8531 23.1875,294.0406 22.3281,294.0406 C19.6094,294.0406 17.8906,292.1969 17.8906,289.2906 C17.8906,286.5406 19.4531,284.9469 22.1875,284.9469 C23.1094,284.9469 24.125,285.1344 25.2656,285.5563 L25.8438,284.0406 C24.75,283.4625 23.4531,283.1656 22.2656,283.1656 C18.5,283.1656 15.9219,285.8063 15.9219,289.6188 C15.9219,293.2906 18.4063,295.8219 22,295.8219 Z " fill="#000000"/><text fill="#000000" font-family="sans-serif" font-size="14" lengthAdjust="spacing" textLength="310.0147" x="36" y="294.762">P_BMM_SINGLE_FUNCTION_PARAMETER_OPEN</text><line style="stroke:#181818;stroke-width:0.5;" x1="8" x2="348.0147" y1="305.4" y2="305.4"/><ellipse cx="18" cy="319.3" fill="none" rx="3" ry="3" style="stroke:#038048;stroke-width:1;"/><text fill="#000000" font-family="sans-serif" font-size="14" lengthAdjust="spacing" textLength="93.1416" x="27" y="323.1619">type : String [1]</text><line style="stroke:#181818;stroke-width:0.5;" x1="8" x2="348.0147" y1="330.1999" y2="330.1999"/></g><!--class P_BMM_FUNCTION_PARAMETER--><g class="entity" data-entity="P_BMM_FUNCTION_PARAMETER" data-source-line="6" data-uid="ent0003" id="entity_P_BMM_FUNCTION_PARAMETER"><rect fill="#F5F5F5" height="81.5999" rx="2.5" ry="2.5" style="stroke:#808080;stroke-width:1;stroke-dasharray:1,3;" width="243.1891" x="56.41" y="131.8"/><ellipse cx="71.41" cy="147.8" fill="#A9DCDF" rx="11" ry="11" style="stroke:#181818;stroke-width:1;"/><path d="M65.9256,153.3 L67.9569,153.3 L72.0038,141.9562 L71.0975,141.9562 L74.9256,153.3 L77.0663,153.3 L72.7381,140.9719 L70.5194,140.9719 L65.9256,153.3 Z M68.2538,149.8 L74.6913,149.8 L74.6913,148.05 L68.2538,148.05 L68.2538,149.8 Z " fill="#000000"/><text fill="#808080" font-family="sans-serif" font-size="14" font-style="italic" lengthAdjust="spacing" textLength="211.1891" x="85.41" y="153.162">P_BMM_FUNCTION_PARAMETER</text><line style="stroke:#808080;stroke-width:1;stroke-dasharray:1,3;" x1="57.41" x2="298.5991" y1="163.8" y2="163.8"/><ellipse cx="67.41" cy="177.7" fill="none" rx="3" ry="3" style="stroke:#038048;stroke-width:1;"/><text fill="#808080" font-family="sans-serif" font-size="14" lengthAdjust="spacing" textLength="100.8836" x="76.41" y="181.5619">name : String [1]</text><ellipse cx="67.41" cy="194.4999" fill="none" rx="3" ry="3" style="stroke:#038048;stroke-width:1;"/><text fill="#808080" font-family="sans-serif" font-size="14" lengthAdjust="spacing" textLength="162.3013" x="76.41" y="198.3619">is_nullable : Boolean [0..1]</text><line style="stroke:#808080;stroke-width:1;stroke-dasharray:1,3;" x1="57.41" x2="298.5991" y1="205.3999" y2="205.3999"/></g><!--class P_BMM_MODEL_ELEMENT--><g class="entity" data-entity="P_BMM_MODEL_ELEMENT" data-source-line="11" data-uid="ent0004" id="entity_P_BMM_MODEL_ELEMENT"><rect fill="#F5F5F5" height="64.7999" rx="2.5" ry="2.5" style="stroke:#808080;stroke-width:1;stroke-dasharray:1,3;" width="204.0733" x="75.97" y="7"/><ellipse cx="90.97" cy="23" fill="#A9DCDF" rx="11" ry="11" style="stroke:#181818;stroke-width:1;"/><path d="M85.4856,28.5 L87.5169,28.5 L91.5638,17.1563 L90.6575,17.1563 L94.4856,28.5 L96.6263,28.5 L92.2981,16.1719 L90.0794,16.1719 L85.4856,28.5 Z M87.8138,25 L94.2513,25 L94.2513,23.25 L87.8138,23.25 L87.8138,25 Z " fill="#000000"/><text fill="#808080" font-family="sans-serif" font-size="14" font-style="italic" lengthAdjust="spacing" textLength="172.0733" x="104.97" y="28.362">P_BMM_MODEL_ELEMENT</text><line style="stroke:#808080;stroke-width:1;stroke-dasharray:1,3;" x1="76.97" x2="279.0433" y1="39" y2="39"/><ellipse cx="86.97" cy="52.9" fill="none" rx="3" ry="3" style="stroke:#038048;stroke-width:1;"/><text fill="#808080" font-family="sans-serif" font-size="14" lengthAdjust="spacing" textLength="176.3433" x="95.97" y="56.7619">documentation : String [0..1]</text><line style="stroke:#808080;stroke-width:1;stroke-dasharray:1,3;" x1="76.97" x2="279.0433" y1="63.7999" y2="63.7999"/></g><!--reverse link P_BMM_MODEL_ELEMENT to P_BMM_FUNCTION_PARAMETER--><g class="link" data-entity-1="P_BMM_MODEL_ELEMENT" data-entity-2="P_BMM_FUNCTION_PARAMETER" data-source-line="15" data-uid="lnk5" id="link_P_BMM_MODEL_ELEMENT_P_BMM_FUNCTION_PARAMETER"><path codeLine="15" d="M178.01,90.16 C178.01,108.06 178.01,112.58 178.01,131.67" fill="none" id="P_BMM_MODEL_ELEMENT-backto-P_BMM_FUNCTION_PARAMETER" style="stroke:#181818;stroke-width:1;"/><polygon fill="none" points="178.01,72.16,172.01,90.16,184.01,90.16,178.01,72.16" style="stroke:#181818;stroke-width:1;"/></g><!--reverse link P_BMM_FUNCTION_PARAMETER to P_BMM_SINGLE_FUNCTION_PARAMETER_OPEN--><g class="link" data-entity-1="P_BMM_FUNCTION_PARAMETER" data-entity-2="P_BMM_SINGLE_FUNCTION_PARAMETER_OPEN" data-source-line="17" data-uid="lnk6" id="link_P_BMM_FUNCTION_PARAMETER_P_BMM_SINGLE_FUNCTION_PARAMETER_OPEN"><path codeLine="17" d="M178.01,231.68 C178.01,250.82 178.01,255.39 178.01,273.29" fill="none" id="P_BMM_FUNCTION_PARAMETER-backto-P_BMM_SINGLE_FUNCTION_PARAMETER_OPEN" style="stroke:#181818;stroke-width:1;"/><polygon fill="none" points="178.01,213.68,172.01,231.68,184.01,231.68,178.01,213.68" style="stroke:#181818;stroke-width:1;"/></g></g></svg>
