<svg xmlns="http://www.w3.org/2000/svg" xmlns:xlink="http://www.w3.org/1999/xlink" contentStyleType="text/css" data-diagram-type="CLASS" height="556px" preserveAspectRatio="none" style="width:701px;height:556px;background:#FFFFFF;" version="1.1" viewBox="0 0 701 556" width="701px" zoomAndPan="magnify"><defs/><g><!--class P_BMM_SCHEMA--><g class="entity" data-entity="P_BMM_SCHEMA" data-source-line="2" data-uid="ent0002" id="entity_P_BMM_SCHEMA"><rect fill="#F1F1F1" height="215.9993" rx="2.5" ry="2.5" style="stroke:#181818;stroke-width:0.5;" width="348.7127" x="171.57" y="333.4"/><ellipse cx="286.1946" cy="349.4" fill="#ADD1B2" rx="11" ry="11" style="stroke:#181818;stroke-width:1;"/><path d="M286.1946,355.8219 C287.3664,355.8219 288.6008,355.5563 289.9758,354.9469 L289.4914,353.4313 C288.3977,353.8531 287.3821,354.0406 286.5227,354.0406 C283.8039,354.0406 282.0852,352.1969 282.0852,349.2906 C282.0852,346.5406 283.6477,344.9469 286.3821,344.9469 C287.3039,344.9469 288.3196,345.1344 289.4602,345.5563 L290.0383,344.0406 C288.9446,343.4625 287.6477,343.1656 286.4602,343.1656 C282.6946,343.1656 280.1164,345.8063 280.1164,349.6188 C280.1164,353.2906 282.6008,355.8219 286.1946,355.8219 Z " fill="#000000"/><text fill="#000000" font-family="sans-serif" font-size="14" lengthAdjust="spacing" textLength="110.9636" x="306.6946" y="354.762">P_BMM_SCHEMA</text><line style="stroke:#181818;stroke-width:0.5;" x1="172.57" x2="519.2827" y1="365.4" y2="365.4"/><ellipse cx="182.57" cy="379.3" fill="none" rx="3" ry="3" style="stroke:#038048;stroke-width:1;"/><text fill="#000000" font-family="sans-serif" font-size="14" lengthAdjust="spacing" textLength="150.9754" x="191.57" y="383.1619">bmm_version : String [1]</text><ellipse cx="182.57" cy="396.0999" fill="none" rx="3" ry="3" style="stroke:#038048;stroke-width:1;"/><text fill="#000000" font-family="sans-serif" font-size="14" lengthAdjust="spacing" textLength="322.7127" x="191.57" y="399.9619">includes : Hash&lt;String,BMM_INCLUDE_SPEC&gt; [0..1]</text><ellipse cx="182.57" cy="412.8998" fill="none" rx="3" ry="3" style="stroke:#038048;stroke-width:1;"/><text fill="#000000" font-family="sans-serif" font-size="14" lengthAdjust="spacing" textLength="258.831" x="191.57" y="416.7618">primitive_types : List&lt;P_BMM_CLASS&gt; [*]</text><ellipse cx="182.57" cy="429.6997" fill="none" rx="3" ry="3" style="stroke:#038048;stroke-width:1;"/><text fill="#000000" font-family="sans-serif" font-size="14" lengthAdjust="spacing" textLength="266.4189" x="191.57" y="433.5617">class_definitions : List&lt;P_BMM_CLASS&gt; [*]</text><line style="stroke:#181818;stroke-width:0.5;" x1="172.57" x2="519.2827" y1="440.5997" y2="440.5997"/><ellipse cx="182.57" cy="454.4997" fill="#84BE84" rx="3" ry="3" style="stroke:#038048;stroke-width:1;"/><text fill="#000000" font-family="sans-serif" font-size="14" lengthAdjust="spacing" textLength="165.6753" x="191.57" y="458.3616">validate_created() : void [1]</text><ellipse cx="182.57" cy="471.2996" fill="#84BE84" rx="3" ry="3" style="stroke:#038048;stroke-width:1;"/><text fill="#000000" font-family="sans-serif" font-size="14" lengthAdjust="spacing" textLength="141.5674" x="191.57" y="475.1616">load_finalise() : void [1]</text><ellipse cx="182.57" cy="488.0995" fill="#84BE84" rx="3" ry="3" style="stroke:#038048;stroke-width:1;"/><text fill="#000000" font-family="sans-serif" font-size="14" lengthAdjust="spacing" textLength="282.7709" x="191.57" y="491.9615">merge( other : P_BMM_SCHEMA [1] ) : void [1]</text><ellipse cx="182.57" cy="504.8995" fill="#84BE84" rx="3" ry="3" style="stroke:#038048;stroke-width:1;"/><text fill="#000000" font-family="sans-serif" font-size="14" lengthAdjust="spacing" textLength="111.8736" x="191.57" y="508.7614">validate() : void [1]</text><ellipse cx="182.57" cy="521.6994" fill="#84BE84" rx="3" ry="3" style="stroke:#038048;stroke-width:1;"/><text fill="#000000" font-family="sans-serif" font-size="14" lengthAdjust="spacing" textLength="188.2712" x="191.57" y="525.5614">create_bmm_model() : void [1]</text><ellipse cx="182.57" cy="538.4993" fill="#84BE84" rx="3" ry="3" style="stroke:#038048;stroke-width:1;"/><text fill="#000000" font-family="sans-serif" font-size="14" lengthAdjust="spacing" textLength="276.8909" x="191.57" y="542.3613">canonical_packages() : P_BMM_PACKAGE [1]</text></g><!--class P_BMM_PACKAGE_CONTAINER--><g class="entity" data-entity="P_BMM_PACKAGE_CONTAINER" data-source-line="15" data-uid="ent0003" id="entity_P_BMM_PACKAGE_CONTAINER"><rect fill="#F5F5F5" height="64.7999" rx="2.5" ry="2.5" style="stroke:#808080;stroke-width:1;stroke-dasharray:1,3;" width="317.8568" x="7" y="107.8"/><ellipse cx="60.8788" cy="123.8" fill="#ADD1B2" rx="11" ry="11" style="stroke:#181818;stroke-width:1;"/><path d="M60.8788,130.2219 C62.0507,130.2219 63.2851,129.9562 64.6601,129.3469 L64.1757,127.8312 C63.0819,128.2531 62.0663,128.4406 61.2069,128.4406 C58.4882,128.4406 56.7694,126.5969 56.7694,123.6906 C56.7694,120.9406 58.3319,119.3469 61.0663,119.3469 C61.9882,119.3469 63.0038,119.5344 64.1444,119.9562 L64.7226,118.4406 C63.6288,117.8625 62.3319,117.5656 61.1444,117.5656 C57.3788,117.5656 54.8007,120.2062 54.8007,124.0187 C54.8007,127.6906 57.2851,130.2219 60.8788,130.2219 Z " fill="#000000"/><text fill="#808080" font-family="sans-serif" font-size="14" lengthAdjust="spacing" textLength="201.5992" x="81.3788" y="129.162">P_BMM_PACKAGE_CONTAINER</text><line style="stroke:#808080;stroke-width:1;stroke-dasharray:1,3;" x1="8" x2="323.8568" y1="139.8" y2="139.8"/><ellipse cx="18" cy="153.7" fill="none" rx="3" ry="3" style="stroke:#038048;stroke-width:1;"/><text fill="#808080" font-family="sans-serif" font-size="14" lengthAdjust="spacing" textLength="291.8568" x="27" y="157.5619">packages : Hash&lt;String,P_BMM_PACKAGE&gt; [1]</text><line style="stroke:#808080;stroke-width:1;stroke-dasharray:1,3;" x1="8" x2="323.8568" y1="164.5999" y2="164.5999"/></g><!--class BMM_SCHEMA_CORE--><g class="entity" data-entity="BMM_SCHEMA_CORE" data-source-line="21" data-uid="ent0005" id="entity_BMM_SCHEMA_CORE"><rect fill="#F5F5F5" height="266.399" rx="2.5" ry="2.5" style="stroke:#808080;stroke-width:1;stroke-dasharray:1,3;" width="334.1528" x="359.85" y="7"/><ellipse cx="453.0617" cy="23" fill="#ADD1B2" rx="11" ry="11" style="stroke:#181818;stroke-width:1;"/><path d="M453.0617,29.4219 C454.2335,29.4219 455.4679,29.1563 456.8429,28.5469 L456.3585,27.0313 C455.2648,27.4531 454.2492,27.6406 453.3898,27.6406 C450.671,27.6406 448.9523,25.7969 448.9523,22.8906 C448.9523,20.1406 450.5148,18.5469 453.2492,18.5469 C454.171,18.5469 455.1867,18.7344 456.3273,19.1563 L456.9054,17.6406 C455.8117,17.0625 454.5148,16.7656 453.3273,16.7656 C449.5617,16.7656 446.9835,19.4063 446.9835,23.2188 C446.9835,26.8906 449.4679,29.4219 453.0617,29.4219 Z " fill="#000000"/><text fill="#808080" font-family="sans-serif" font-size="14" lengthAdjust="spacing" textLength="139.2294" x="473.5617" y="28.362">BMM_SCHEMA_CORE</text><line style="stroke:#808080;stroke-width:1;stroke-dasharray:1,3;" x1="360.85" x2="693.0028" y1="39" y2="39"/><ellipse cx="370.85" cy="52.9" fill="none" rx="3" ry="3" style="stroke:#038048;stroke-width:1;"/><text fill="#808080" font-family="sans-serif" font-size="14" lengthAdjust="spacing" textLength="148.8894" x="379.85" y="56.7619">rm_publisher : String [1]</text><ellipse cx="370.85" cy="69.6999" fill="none" rx="3" ry="3" style="stroke:#038048;stroke-width:1;"/><text fill="#808080" font-family="sans-serif" font-size="14" lengthAdjust="spacing" textLength="135.6735" x="379.85" y="73.5619">rm_release : String [1]</text><ellipse cx="370.85" cy="86.4998" fill="none" rx="3" ry="3" style="stroke:#038048;stroke-width:1;"/><text fill="#808080" font-family="sans-serif" font-size="14" lengthAdjust="spacing" textLength="155.8194" x="379.85" y="90.3618">schema_name : String [1]</text><ellipse cx="370.85" cy="103.2997" fill="none" rx="3" ry="3" style="stroke:#038048;stroke-width:1;"/><text fill="#808080" font-family="sans-serif" font-size="14" lengthAdjust="spacing" textLength="169.5673" x="379.85" y="107.1617">schema_revision : String [1]</text><ellipse cx="370.85" cy="120.0997" fill="none" rx="3" ry="3" style="stroke:#038048;stroke-width:1;"/><text fill="#808080" font-family="sans-serif" font-size="14" lengthAdjust="spacing" textLength="209.6492" x="379.85" y="123.9616">schema_lifecycle_state : String [1]</text><ellipse cx="370.85" cy="136.8996" fill="none" rx="3" ry="3" style="stroke:#038048;stroke-width:1;"/><text fill="#808080" font-family="sans-serif" font-size="14" lengthAdjust="spacing" textLength="162.1054" x="379.85" y="140.7616">schema_author : String [1]</text><ellipse cx="370.85" cy="153.6995" fill="none" rx="3" ry="3" style="stroke:#038048;stroke-width:1;"/><text fill="#808080" font-family="sans-serif" font-size="14" lengthAdjust="spacing" textLength="190.4133" x="379.85" y="157.5615">schema_description : String [1]</text><ellipse cx="370.85" cy="170.4995" fill="none" rx="3" ry="3" style="stroke:#038048;stroke-width:1;"/><text fill="#808080" font-family="sans-serif" font-size="14" lengthAdjust="spacing" textLength="236.6271" x="379.85" y="174.3614">schema_contributors : List&lt;String&gt; [*]</text><ellipse cx="370.85" cy="187.2994" fill="none" rx="3" ry="3" style="stroke:#038048;stroke-width:1;"/><text fill="#808080" font-family="sans-serif" font-size="14" lengthAdjust="spacing" textLength="228.6331" x="379.85" y="191.1614">archetype_parent_class : String [0..1]</text><ellipse cx="370.85" cy="204.0993" fill="none" rx="3" ry="3" style="stroke:#038048;stroke-width:1;"/><text fill="#808080" font-family="sans-serif" font-size="14" lengthAdjust="spacing" textLength="302.9868" x="379.85" y="207.9613">archetype_data_value_parent_class : String [0..1]</text><ellipse cx="370.85" cy="220.8992" fill="none" rx="3" ry="3" style="stroke:#038048;stroke-width:1;"/><text fill="#808080" font-family="sans-serif" font-size="14" lengthAdjust="spacing" textLength="308.1528" x="379.85" y="224.7612">archetype_rm_closure_packages : List&lt;String&gt; [*]</text><ellipse cx="370.85" cy="237.6992" fill="none" rx="3" ry="3" style="stroke:#038048;stroke-width:1;"/><text fill="#808080" font-family="sans-serif" font-size="14" lengthAdjust="spacing" textLength="308.1528" x="379.85" y="241.5611">archetype_visualise_descendants_of : String [0..1]</text><line style="stroke:#808080;stroke-width:1;stroke-dasharray:1,3;" x1="360.85" x2="693.0028" y1="248.5991" y2="248.5991"/><ellipse cx="370.85" cy="262.4991" fill="#84BE84" rx="3" ry="3" style="stroke:#038048;stroke-width:1;"/><text fill="#808080" font-family="sans-serif" font-size="14" lengthAdjust="spacing" textLength="140.7695" x="379.85" y="266.3611">schema_id() : String [1]</text></g><!--reverse link P_BMM_PACKAGE_CONTAINER to P_BMM_SCHEMA--><g class="link" data-entity-1="P_BMM_PACKAGE_CONTAINER" data-entity-2="P_BMM_SCHEMA" data-source-line="19" data-uid="lnk4" id="link_P_BMM_PACKAGE_CONTAINER_P_BMM_SCHEMA"><path codeLine="19" d="M194.3012,188.3627 C217.1512,226.3327 247.31,276.48 281.43,333.19" fill="none" id="P_BMM_PACKAGE_CONTAINER-backto-P_BMM_SCHEMA" style="stroke:#181818;stroke-width:1;"/><polygon fill="none" points="185.02,172.94,189.1603,191.4564,199.4421,185.2689,185.02,172.94" style="stroke:#181818;stroke-width:1;"/></g><!--reverse link BMM_SCHEMA_CORE to P_BMM_SCHEMA--><g class="link" data-entity-1="BMM_SCHEMA_CORE" data-entity-2="P_BMM_SCHEMA" data-source-line="37" data-uid="lnk6" id="link_BMM_SCHEMA_CORE_P_BMM_SCHEMA"><path codeLine="37" d="M437.4321,289.1405 C425.4221,308.9905 422.49,313.85 410.85,333.09" fill="none" id="BMM_SCHEMA_CORE-backto-P_BMM_SCHEMA" style="stroke:#181818;stroke-width:1;"/><polygon fill="none" points="446.75,273.74,432.2986,286.0346,442.5656,292.2465,446.75,273.74" style="stroke:#181818;stroke-width:1;"/></g></g></svg>
