<svg xmlns="http://www.w3.org/2000/svg" xmlns:xlink="http://www.w3.org/1999/xlink" contentStyleType="text/css" data-diagram-type="CLASS" height="220px" preserveAspectRatio="none" style="width:355px;height:220px;background:#FFFFFF;" version="1.1" viewBox="0 0 355 220" width="355px" zoomAndPan="magnify"><defs/><g><!--class P_BMM_INTERFACE--><g class="entity" data-entity="P_BMM_INTERFACE" data-source-line="2" data-uid="ent0002" id="entity_P_BMM_INTERFACE"><rect fill="#F1F1F1" height="81.5999" rx="2.5" ry="2.5" style="stroke:#181818;stroke-width:0.5;" width="341.9227" x="7" y="131.8"/><ellipse cx="109.7106" cy="147.8" fill="#ADD1B2" rx="11" ry="11" style="stroke:#181818;stroke-width:1;"/><path d="M109.7106,154.2219 C110.8825,154.2219 112.1169,153.9563 113.4919,153.3469 L113.0075,151.8313 C111.9137,152.2531 110.8981,152.4406 110.0387,152.4406 C107.32,152.4406 105.6012,150.5969 105.6012,147.6906 C105.6012,144.9406 107.1637,143.3469 109.8981,143.3469 C110.82,143.3469 111.8356,143.5344 112.9762,143.9563 L113.5544,142.4406 C112.4606,141.8625 111.1637,141.5656 109.9762,141.5656 C106.2106,141.5656 103.6325,144.2063 103.6325,148.0188 C103.6325,151.6906 106.1169,154.2219 109.7106,154.2219 Z " fill="#000000"/><text fill="#000000" font-family="sans-serif" font-size="14" lengthAdjust="spacing" textLength="128.0015" x="130.2106" y="153.162">P_BMM_INTERFACE</text><line style="stroke:#181818;stroke-width:0.5;" x1="8" x2="347.9227" y1="163.8" y2="163.8"/><ellipse cx="18" cy="177.7" fill="none" rx="3" ry="3" style="stroke:#038048;stroke-width:1;"/><text fill="#000000" font-family="sans-serif" font-size="14" lengthAdjust="spacing" textLength="100.8836" x="27" y="181.5619">name : String [1]</text><ellipse cx="18" cy="194.4999" fill="none" rx="3" ry="3" style="stroke:#038048;stroke-width:1;"/><text fill="#000000" font-family="sans-serif" font-size="14" lengthAdjust="spacing" textLength="315.9227" x="27" y="198.3619">functions : Hash&lt;String,P_BMM_FUNCTION&gt; [0..1]</text><line style="stroke:#181818;stroke-width:0.5;" x1="8" x2="347.9227" y1="205.3999" y2="205.3999"/></g><!--class P_BMM_MODEL_ELEMENT--><g class="entity" data-entity="P_BMM_MODEL_ELEMENT" data-source-line="7" data-uid="ent0003" id="entity_P_BMM_MODEL_ELEMENT"><rect fill="#F5F5F5" height="64.7999" rx="2.5" ry="2.5" style="stroke:#808080;stroke-width:1;stroke-dasharray:1,3;" width="204.0733" x="75.92" y="7"/><ellipse cx="90.92" cy="23" fill="#A9DCDF" rx="11" ry="11" style="stroke:#181818;stroke-width:1;"/><path d="M85.4356,28.5 L87.4669,28.5 L91.5138,17.1563 L90.6075,17.1563 L94.4356,28.5 L96.5763,28.5 L92.2481,16.1719 L90.0294,16.1719 L85.4356,28.5 Z M87.7638,25 L94.2013,25 L94.2013,23.25 L87.7638,23.25 L87.7638,25 Z " fill="#000000"/><text fill="#808080" font-family="sans-serif" font-size="14" font-style="italic" lengthAdjust="spacing" textLength="172.0733" x="104.92" y="28.362">P_BMM_MODEL_ELEMENT</text><line style="stroke:#808080;stroke-width:1;stroke-dasharray:1,3;" x1="76.92" x2="278.9933" y1="39" y2="39"/><ellipse cx="86.92" cy="52.9" fill="none" rx="3" ry="3" style="stroke:#038048;stroke-width:1;"/><text fill="#808080" font-family="sans-serif" font-size="14" lengthAdjust="spacing" textLength="176.3433" x="95.92" y="56.7619">documentation : String [0..1]</text><line style="stroke:#808080;stroke-width:1;stroke-dasharray:1,3;" x1="76.92" x2="278.9933" y1="63.7999" y2="63.7999"/></g><!--reverse link P_BMM_MODEL_ELEMENT to P_BMM_INTERFACE--><g class="link" data-entity-1="P_BMM_MODEL_ELEMENT" data-entity-2="P_BMM_INTERFACE" data-source-line="11" data-uid="lnk4" id="link_P_BMM_MODEL_ELEMENT_P_BMM_INTERFACE"><path codeLine="11" d="M177.96,90.16 C177.96,108.06 177.96,112.58 177.96,131.67" fill="none" id="P_BMM_MODEL_ELEMENT-backto-P_BMM_INTERFACE" style="stroke:#181818;stroke-width:1;"/><polygon fill="none" points="177.96,72.16,171.96,90.16,183.96,90.16,177.96,72.16" style="stroke:#181818;stroke-width:1;"/></g></g></svg>
