<svg xmlns="http://www.w3.org/2000/svg" xmlns:xlink="http://www.w3.org/1999/xlink" contentStyleType="text/css" data-diagram-type="CLASS" height="270px" preserveAspectRatio="none" style="width:700px;height:270px;background:#FFFFFF;" version="1.1" viewBox="0 0 700 270" width="700px" zoomAndPan="magnify"><defs/><g><!--class REFERENCE_MODEL_ACCESS--><g class="entity" data-entity="REFERENCE_MODEL_ACCESS" data-source-line="2" data-uid="ent0002" id="entity_REFERENCE_MODEL_ACCESS"><rect fill="#F1F1F1" height="148.7996" rx="2.5" ry="2.5" style="stroke:#181818;stroke-width:0.5;" width="686.4891" x="7" y="115"/><ellipse cx="251.075" cy="131" fill="#ADD1B2" rx="11" ry="11" style="stroke:#181818;stroke-width:1;"/><path d="M251.075,137.4219 C252.2468,137.4219 253.4812,137.1563 254.8562,136.5469 L254.3718,135.0313 C253.2781,135.4531 252.2625,135.6406 251.4031,135.6406 C248.6843,135.6406 246.9656,133.7969 246.9656,130.8906 C246.9656,128.1406 248.5281,126.5469 251.2625,126.5469 C252.1843,126.5469 253.2,126.7344 254.3406,127.1563 L254.9187,125.6406 C253.825,125.0625 252.5281,124.7656 251.3406,124.7656 C247.575,124.7656 244.9968,127.4063 244.9968,131.2188 C244.9968,134.8906 247.4812,137.4219 251.075,137.4219 Z " fill="#000000"/><text fill="#000000" font-family="sans-serif" font-size="14" lengthAdjust="spacing" textLength="189.8392" x="271.575" y="136.362">REFERENCE_MODEL_ACCESS</text><line style="stroke:#181818;stroke-width:0.5;" x1="8" x2="692.4891" y1="147" y2="147"/><ellipse cx="18" cy="160.9" fill="none" rx="3" ry="3" style="stroke:#038048;stroke-width:1;"/><text fill="#000000" font-family="sans-serif" font-size="14" lengthAdjust="spacing" textLength="226.1131" x="27" y="164.7619">schema_directories : List&lt;String&gt; [*]</text><ellipse cx="18" cy="177.6999" fill="none" rx="3" ry="3" style="stroke:#038048;stroke-width:1;"/><text fill="#000000" font-family="sans-serif" font-size="14" lengthAdjust="spacing" textLength="355.3046" x="27" y="181.5619">all_schemas : Hash&lt;String,SCHEMA_DESCRIPTOR&gt; [0..1]</text><ellipse cx="18" cy="194.4998" fill="none" rx="3" ry="3" style="stroke:#038048;stroke-width:1;"/><text fill="#000000" font-family="sans-serif" font-size="14" lengthAdjust="spacing" textLength="303.3228" x="27" y="198.3618">valid_models : Hash&lt;String,BMM_MODEL&gt; [0..1]</text><line style="stroke:#181818;stroke-width:0.5;" x1="8" x2="692.4891" y1="205.3998" y2="205.3998"/><ellipse cx="18" cy="219.2997" fill="#84BE84" rx="3" ry="3" style="stroke:#038048;stroke-width:1;"/><text fill="#000000" font-family="sans-serif" font-size="14" lengthAdjust="spacing" textLength="660.4891" x="27" y="223.1617">initialise_with_load_list( a_schema_dirs : List&lt;String&gt; [1], a_schema_load_list : List&lt;String&gt; [0..1] ) : void [1]</text><ellipse cx="18" cy="236.0997" fill="#84BE84" rx="3" ry="3" style="stroke:#038048;stroke-width:1;"/><text fill="#000000" font-family="sans-serif" font-size="14" lengthAdjust="spacing" textLength="136.7234" x="27" y="239.9616">initialise_all() : void [1]</text><ellipse cx="18" cy="252.8996" fill="#84BE84" rx="3" ry="3" style="stroke:#038048;stroke-width:1;"/><text fill="#000000" font-family="sans-serif" font-size="14" lengthAdjust="spacing" textLength="164.1353" x="27" y="256.7616">reload_schemas() : void [1]</text></g><!--class BMM_DEFINITIONS--><g class="entity" data-entity="BMM_DEFINITIONS" data-source-line="11" data-uid="ent0003" id="entity_BMM_DEFINITIONS"><rect fill="#F5F5F5" height="48" rx="2.5" ry="2.5" style="stroke:#808080;stroke-width:1;stroke-dasharray:1,3;" width="156.4035" x="272.04" y="7"/><ellipse cx="287.04" cy="23" fill="#ADD1B2" rx="11" ry="11" style="stroke:#181818;stroke-width:1;"/><path d="M287.04,29.4219 C288.2119,29.4219 289.4463,29.1563 290.8213,28.5469 L290.3369,27.0313 C289.2431,27.4531 288.2275,27.6406 287.3681,27.6406 C284.6494,27.6406 282.9306,25.7969 282.9306,22.8906 C282.9306,20.1406 284.4931,18.5469 287.2275,18.5469 C288.1494,18.5469 289.165,18.7344 290.3056,19.1563 L290.8838,17.6406 C289.79,17.0625 288.4931,16.7656 287.3056,16.7656 C283.54,16.7656 280.9619,19.4063 280.9619,23.2188 C280.9619,26.8906 283.4463,29.4219 287.04,29.4219 Z " fill="#000000"/><text fill="#808080" font-family="sans-serif" font-size="14" lengthAdjust="spacing" textLength="124.4035" x="301.04" y="28.362">BMM_DEFINITIONS</text><line style="stroke:#808080;stroke-width:1;stroke-dasharray:1,3;" x1="273.04" x2="427.4435" y1="39" y2="39"/><line style="stroke:#808080;stroke-width:1;stroke-dasharray:1,3;" x1="273.04" x2="427.4435" y1="47" y2="47"/></g><!--reverse link BMM_DEFINITIONS to REFERENCE_MODEL_ACCESS--><g class="link" data-entity-1="BMM_DEFINITIONS" data-entity-2="REFERENCE_MODEL_ACCESS" data-source-line="14" data-uid="lnk4" id="link_BMM_DEFINITIONS_REFERENCE_MODEL_ACCESS"><path codeLine="14" d="M350.24,73.42 C350.24,89.27 350.24,93.15 350.24,114.59" fill="none" id="BMM_DEFINITIONS-backto-REFERENCE_MODEL_ACCESS" style="stroke:#181818;stroke-width:1;"/><polygon fill="none" points="350.24,55.42,344.24,73.42,356.24,73.42,350.24,55.42" style="stroke:#181818;stroke-width:1;"/></g></g></svg>
