<svg xmlns="http://www.w3.org/2000/svg" xmlns:xlink="http://www.w3.org/1999/xlink" contentStyleType="text/css" data-diagram-type="CLASS" height="354px" preserveAspectRatio="none" style="width:438px;height:354px;background:#FFFFFF;" version="1.1" viewBox="0 0 438 354" width="438px" zoomAndPan="magnify"><defs/><g><!--class SCHEMA_DESCRIPTOR--><g class="entity" data-entity="SCHEMA_DESCRIPTOR" data-source-line="2" data-uid="ent0002" id="entity_SCHEMA_DESCRIPTOR"><rect fill="#F1F1F1" height="232.7992" rx="2.5" ry="2.5" style="stroke:#181818;stroke-width:0.5;" width="424.8584" x="7" y="115"/><ellipse cx="142.3515" cy="131" fill="#ADD1B2" rx="11" ry="11" style="stroke:#181818;stroke-width:1;"/><path d="M142.3515,137.4219 C143.5234,137.4219 144.7577,137.1563 146.1327,136.5469 L145.6484,135.0313 C144.5546,135.4531 143.539,135.6406 142.6796,135.6406 C139.9609,135.6406 138.2421,133.7969 138.2421,130.8906 C138.2421,128.1406 139.8046,126.5469 142.539,126.5469 C143.4609,126.5469 144.4765,126.7344 145.6171,127.1563 L146.1952,125.6406 C145.1015,125.0625 143.8046,124.7656 142.6171,124.7656 C138.8515,124.7656 136.2734,127.4063 136.2734,131.2188 C136.2734,134.8906 138.7577,137.4219 142.3515,137.4219 Z " fill="#000000"/><text fill="#000000" font-family="sans-serif" font-size="14" lengthAdjust="spacing" textLength="145.6554" x="162.8515" y="136.362">SCHEMA_DESCRIPTOR</text><line style="stroke:#181818;stroke-width:0.5;" x1="8" x2="430.8584" y1="147" y2="147"/><ellipse cx="18" cy="160.9" fill="none" rx="3" ry="3" style="stroke:#038048;stroke-width:1;"/><text fill="#000000" font-family="sans-serif" font-size="14" lengthAdjust="spacing" textLength="218.2031" x="27" y="164.7619">p_schema : P_BMM_SCHEMA [0..1]</text><ellipse cx="18" cy="177.6999" fill="none" rx="3" ry="3" style="stroke:#038048;stroke-width:1;"/><text fill="#000000" font-family="sans-serif" font-size="14" lengthAdjust="spacing" textLength="179.9973" x="27" y="181.5619">schema : BMM_MODEL [0..1]</text><ellipse cx="18" cy="194.4998" fill="none" rx="3" ry="3" style="stroke:#038048;stroke-width:1;"/><text fill="#000000" font-family="sans-serif" font-size="14" lengthAdjust="spacing" textLength="132.3415" x="27" y="198.3618">schema_id : String [1]</text><ellipse cx="18" cy="211.2997" fill="none" rx="3" ry="3" style="stroke:#038048;stroke-width:1;"/><text fill="#000000" font-family="sans-serif" font-size="14" lengthAdjust="spacing" textLength="221.3251" x="27" y="215.1617">meta_data : Hash&lt;String,String&gt; [1]</text><ellipse cx="18" cy="228.0997" fill="none" rx="3" ry="3" style="stroke:#038048;stroke-width:1;"/><text fill="#000000" font-family="sans-serif" font-size="14" lengthAdjust="spacing" textLength="156.4354" x="27" y="231.9616">includes : List&lt;String&gt; [*]</text><line style="stroke:#181818;stroke-width:0.5;" x1="8" x2="430.8584" y1="238.9996" y2="238.9996"/><ellipse cx="18" cy="252.8996" fill="#84BE84" rx="3" ry="3" style="stroke:#038048;stroke-width:1;"/><text fill="#000000" font-family="sans-serif" font-size="14" lengthAdjust="spacing" textLength="162.2734" x="27" y="256.7616">is_top_level() : Boolean [1]</text><ellipse cx="18" cy="269.6995" fill="#84BE84" rx="3" ry="3" style="stroke:#038048;stroke-width:1;"/><text fill="#000000" font-family="sans-serif" font-size="14" lengthAdjust="spacing" textLength="214.5911" x="27" y="273.5615">is_bmm_compatible() : Boolean [1]</text><ellipse cx="18" cy="286.4995" fill="#84BE84" rx="3" ry="3" style="stroke:#038048;stroke-width:1;"/><text fill="#000000" font-family="sans-serif" font-size="14" lengthAdjust="spacing" textLength="90.0336" x="27" y="290.3614">load() : void [1]</text><ellipse cx="18" cy="303.2994" fill="#84BE84" rx="3" ry="3" style="stroke:#038048;stroke-width:1;"/><text fill="#000000" font-family="sans-serif" font-size="14" lengthAdjust="spacing" textLength="111.8736" x="27" y="307.1614">validate() : void [1]</text><ellipse cx="18" cy="320.0993" fill="#84BE84" rx="3" ry="3" style="stroke:#038048;stroke-width:1;"/><text fill="#000000" font-family="sans-serif" font-size="14" lengthAdjust="spacing" textLength="398.8584" x="27" y="323.9613">validate_includes( all_schemas_list : List&lt;String&gt; [0..1] ) : void [1]</text><ellipse cx="18" cy="336.8992" fill="#84BE84" rx="3" ry="3" style="stroke:#038048;stroke-width:1;"/><text fill="#000000" font-family="sans-serif" font-size="14" lengthAdjust="spacing" textLength="156.8134" x="27" y="340.7612">create_schema() : void [1]</text></g><!--class BMM_DEFINITIONS--><g class="entity" data-entity="BMM_DEFINITIONS" data-source-line="16" data-uid="ent0003" id="entity_BMM_DEFINITIONS"><rect fill="#F5F5F5" height="48" rx="2.5" ry="2.5" style="stroke:#808080;stroke-width:1;stroke-dasharray:1,3;" width="156.4035" x="141.23" y="7"/><ellipse cx="156.23" cy="23" fill="#ADD1B2" rx="11" ry="11" style="stroke:#181818;stroke-width:1;"/><path d="M156.23,29.4219 C157.4019,29.4219 158.6363,29.1563 160.0113,28.5469 L159.5269,27.0313 C158.4331,27.4531 157.4175,27.6406 156.5581,27.6406 C153.8394,27.6406 152.1206,25.7969 152.1206,22.8906 C152.1206,20.1406 153.6831,18.5469 156.4175,18.5469 C157.3394,18.5469 158.355,18.7344 159.4956,19.1563 L160.0738,17.6406 C158.98,17.0625 157.6831,16.7656 156.4956,16.7656 C152.73,16.7656 150.1519,19.4063 150.1519,23.2188 C150.1519,26.8906 152.6363,29.4219 156.23,29.4219 Z " fill="#000000"/><text fill="#808080" font-family="sans-serif" font-size="14" lengthAdjust="spacing" textLength="124.4035" x="170.23" y="28.362">BMM_DEFINITIONS</text><line style="stroke:#808080;stroke-width:1;stroke-dasharray:1,3;" x1="142.23" x2="296.6335" y1="39" y2="39"/><line style="stroke:#808080;stroke-width:1;stroke-dasharray:1,3;" x1="142.23" x2="296.6335" y1="47" y2="47"/></g><!--reverse link BMM_DEFINITIONS to SCHEMA_DESCRIPTOR--><g class="link" data-entity-1="BMM_DEFINITIONS" data-entity-2="SCHEMA_DESCRIPTOR" data-source-line="19" data-uid="lnk4" id="link_BMM_DEFINITIONS_SCHEMA_DESCRIPTOR"><path codeLine="19" d="M219.43,73.15 C219.43,88.58 219.43,92.16 219.43,114.91" fill="none" id="BMM_DEFINITIONS-backto-SCHEMA_DESCRIPTOR" style="stroke:#181818;stroke-width:1;"/><polygon fill="none" points="219.43,55.15,213.43,73.15,225.43,73.15,219.43,55.15" style="stroke:#181818;stroke-width:1;"/></g></g></svg>
