<svg xmlns="http://www.w3.org/2000/svg" xmlns:xlink="http://www.w3.org/1999/xlink" contentStyleType="text/css" data-diagram-type="CLASS" height="237px" preserveAspectRatio="none" style="width:264px;height:237px;background:#FFFFFF;" version="1.1" viewBox="0 0 264 237" width="264px" zoomAndPan="magnify"><defs/><g><!--class TYPE_DEF_DATE_TIME--><g class="entity" data-entity="TYPE_DEF_DATE_TIME" data-source-line="2" data-uid="ent0002" id="entity_TYPE_DEF_DATE_TIME"><rect fill="#F1F1F1" height="81.5999" rx="2.5" ry="2.5" style="stroke:#181818;stroke-width:0.5;" width="250.3631" x="7" y="148.6"/><ellipse cx="54.8449" cy="164.6" fill="#ADD1B2" rx="11" ry="11" style="stroke:#181818;stroke-width:1;"/><path d="M54.8449,171.0219 C56.0167,171.0219 57.2511,170.7563 58.6261,170.1469 L58.1417,168.6313 C57.048,169.0531 56.0324,169.2406 55.173,169.2406 C52.4542,169.2406 50.7355,167.3969 50.7355,164.4906 C50.7355,161.7406 52.298,160.1469 55.0324,160.1469 C55.9542,160.1469 56.9699,160.3344 58.1105,160.7563 L58.6886,159.2406 C57.5949,158.6625 56.298,158.3656 55.1105,158.3656 C51.3449,158.3656 48.7667,161.0063 48.7667,164.8188 C48.7667,168.4906 51.2511,171.0219 54.8449,171.0219 Z " fill="#000000"/><text fill="#000000" font-family="sans-serif" font-size="14" lengthAdjust="spacing" textLength="146.1734" x="75.3449" y="169.962">TYPE_DEF_DATE_TIME</text><line style="stroke:#181818;stroke-width:0.5;" x1="8" x2="256.3631" y1="180.6" y2="180.6"/><ellipse cx="18" cy="194.5" fill="none" rx="3" ry="3" style="stroke:#038048;stroke-width:1;"/><text fill="#000000" font-family="sans-serif" font-size="14" lengthAdjust="spacing" textLength="135.0435" x="27" y="198.3619">type_name : String [1]</text><ellipse cx="18" cy="211.2999" fill="none" rx="3" ry="3" style="stroke:#038048;stroke-width:1;"/><text fill="#000000" font-family="sans-serif" font-size="14" lengthAdjust="spacing" textLength="224.3631" x="27" y="215.1619">type_anchor : Iso8601_date_time [1]</text><line style="stroke:#181818;stroke-width:0.5;" x1="8" x2="256.3631" y1="222.1999" y2="222.1999"/></g><!--class EXPR_TYPE_DEF--><g class="entity" data-entity="EXPR_TYPE_DEF" data-source-line="7" data-uid="ent0003" id="entity_EXPR_TYPE_DEF"><rect fill="#F5F5F5" height="81.5999" rx="2.5" ry="2.5" style="stroke:#808080;stroke-width:1;stroke-dasharray:1,3;" width="161.0435" x="51.66" y="7"/><ellipse cx="77.0514" cy="23" fill="#A9DCDF" rx="11" ry="11" style="stroke:#181818;stroke-width:1;"/><path d="M71.567,28.5 L73.5982,28.5 L77.6451,17.1563 L76.7389,17.1563 L80.567,28.5 L82.7076,28.5 L78.3795,16.1719 L76.1607,16.1719 L71.567,28.5 Z M73.8951,25 L80.3326,25 L80.3326,23.25 L73.8951,23.25 L73.8951,25 Z " fill="#000000"/><text fill="#808080" font-family="sans-serif" font-size="14" font-style="italic" lengthAdjust="spacing" textLength="105.9516" x="93.3606" y="28.362">EXPR_TYPE_DEF</text><line style="stroke:#808080;stroke-width:1;stroke-dasharray:1,3;" x1="52.66" x2="211.7035" y1="39" y2="39"/><ellipse cx="62.66" cy="52.9" fill="none" rx="3" ry="3" style="stroke:#038048;stroke-width:1;"/><text fill="#808080" font-family="sans-serif" font-size="14" lengthAdjust="spacing" textLength="135.0435" x="71.66" y="56.7619">type_name : String [1]</text><ellipse cx="62.66" cy="69.6999" fill="none" rx="3" ry="3" style="stroke:#038048;stroke-width:1;"/><text fill="#808080" font-family="sans-serif" font-size="14" lengthAdjust="spacing" textLength="128.9255" x="71.66" y="73.5619">type_anchor : Any [1]</text><line style="stroke:#808080;stroke-width:1;stroke-dasharray:1,3;" x1="52.66" x2="211.7035" y1="80.5999" y2="80.5999"/></g><!--reverse link EXPR_TYPE_DEF to TYPE_DEF_DATE_TIME--><g class="link" data-entity-1="EXPR_TYPE_DEF" data-entity-2="TYPE_DEF_DATE_TIME" data-source-line="12" data-uid="lnk4" id="link_EXPR_TYPE_DEF_TYPE_DEF_DATE_TIME"><path codeLine="12" d="M132.18,106.8 C132.18,125.5 132.18,129.7 132.18,148.39" fill="none" id="EXPR_TYPE_DEF-backto-TYPE_DEF_DATE_TIME" style="stroke:#181818;stroke-width:1;"/><polygon fill="none" points="132.18,88.8,126.18,106.8,138.18,106.8,132.18,88.8" style="stroke:#181818;stroke-width:1;"/></g></g></svg>
