<svg xmlns="http://www.w3.org/2000/svg" xmlns:xlink="http://www.w3.org/1999/xlink" contentStyleType="text/css" data-diagram-type="CLASS" height="237px" preserveAspectRatio="none" style="width:175px;height:237px;background:#FFFFFF;" version="1.1" viewBox="0 0 175 237" width="175px" zoomAndPan="magnify"><defs/><g><!--class TYPE_DEF_URI--><g class="entity" data-entity="TYPE_DEF_URI" data-source-line="2" data-uid="ent0002" id="entity_TYPE_DEF_URI"><rect fill="#F1F1F1" height="81.5999" rx="2.5" ry="2.5" style="stroke:#181818;stroke-width:0.5;" width="161.0435" x="7" y="148.6"/><ellipse cx="37.6329" cy="164.6" fill="#ADD1B2" rx="11" ry="11" style="stroke:#181818;stroke-width:1;"/><path d="M37.6329,171.0219 C38.8048,171.0219 40.0392,170.7563 41.4142,170.1469 L40.9298,168.6313 C39.8361,169.0531 38.8204,169.2406 37.9611,169.2406 C35.2423,169.2406 33.5236,167.3969 33.5236,164.4906 C33.5236,161.7406 35.0861,160.1469 37.8204,160.1469 C38.7423,160.1469 39.7579,160.3344 40.8986,160.7563 L41.4767,159.2406 C40.3829,158.6625 39.0861,158.3656 37.8986,158.3656 C34.1329,158.3656 31.5548,161.0063 31.5548,164.8188 C31.5548,168.4906 34.0392,171.0219 37.6329,171.0219 Z " fill="#000000"/><text fill="#000000" font-family="sans-serif" font-size="14" lengthAdjust="spacing" textLength="94.3036" x="55.1069" y="169.962">TYPE_DEF_URI</text><line style="stroke:#181818;stroke-width:0.5;" x1="8" x2="167.0435" y1="180.6" y2="180.6"/><ellipse cx="18" cy="194.5" fill="none" rx="3" ry="3" style="stroke:#038048;stroke-width:1;"/><text fill="#000000" font-family="sans-serif" font-size="14" lengthAdjust="spacing" textLength="135.0435" x="27" y="198.3619">type_name : String [1]</text><ellipse cx="18" cy="211.2999" fill="none" rx="3" ry="3" style="stroke:#038048;stroke-width:1;"/><text fill="#000000" font-family="sans-serif" font-size="14" lengthAdjust="spacing" textLength="123.6195" x="27" y="215.1619">type_anchor : Uri [1]</text><line style="stroke:#181818;stroke-width:0.5;" x1="8" x2="167.0435" y1="222.1999" y2="222.1999"/></g><!--class EXPR_TYPE_DEF--><g class="entity" data-entity="EXPR_TYPE_DEF" data-source-line="7" data-uid="ent0003" id="entity_EXPR_TYPE_DEF"><rect fill="#F5F5F5" height="81.5999" rx="2.5" ry="2.5" style="stroke:#808080;stroke-width:1;stroke-dasharray:1,3;" width="161.0435" x="7" y="7"/><ellipse cx="32.3914" cy="23" fill="#A9DCDF" rx="11" ry="11" style="stroke:#181818;stroke-width:1;"/><path d="M26.907,28.5 L28.9382,28.5 L32.9851,17.1563 L32.0789,17.1563 L35.907,28.5 L38.0476,28.5 L33.7195,16.1719 L31.5007,16.1719 L26.907,28.5 Z M29.2351,25 L35.6726,25 L35.6726,23.25 L29.2351,23.25 L29.2351,25 Z " fill="#000000"/><text fill="#808080" font-family="sans-serif" font-size="14" font-style="italic" lengthAdjust="spacing" textLength="105.9516" x="48.7006" y="28.362">EXPR_TYPE_DEF</text><line style="stroke:#808080;stroke-width:1;stroke-dasharray:1,3;" x1="8" x2="167.0435" y1="39" y2="39"/><ellipse cx="18" cy="52.9" fill="none" rx="3" ry="3" style="stroke:#038048;stroke-width:1;"/><text fill="#808080" font-family="sans-serif" font-size="14" lengthAdjust="spacing" textLength="135.0435" x="27" y="56.7619">type_name : String [1]</text><ellipse cx="18" cy="69.6999" fill="none" rx="3" ry="3" style="stroke:#038048;stroke-width:1;"/><text fill="#808080" font-family="sans-serif" font-size="14" lengthAdjust="spacing" textLength="128.9255" x="27" y="73.5619">type_anchor : Any [1]</text><line style="stroke:#808080;stroke-width:1;stroke-dasharray:1,3;" x1="8" x2="167.0435" y1="80.5999" y2="80.5999"/></g><!--reverse link EXPR_TYPE_DEF to TYPE_DEF_URI--><g class="link" data-entity-1="EXPR_TYPE_DEF" data-entity-2="TYPE_DEF_URI" data-source-line="12" data-uid="lnk4" id="link_EXPR_TYPE_DEF_TYPE_DEF_URI"><path codeLine="12" d="M87.52,106.8 C87.52,125.5 87.52,129.7 87.52,148.39" fill="none" id="EXPR_TYPE_DEF-backto-TYPE_DEF_URI" style="stroke:#181818;stroke-width:1;"/><polygon fill="none" points="87.52,88.8,81.52,106.8,93.52,106.8,87.52,88.8" style="stroke:#181818;stroke-width:1;"/></g></g></svg>
