<svg xmlns="http://www.w3.org/2000/svg" xmlns:xlink="http://www.w3.org/1999/xlink" contentStyleType="text/css" data-diagram-type="CLASS" height="688px" preserveAspectRatio="none" style="width:1688px;height:688px;background:#FFFFFF;" version="1.1" viewBox="0 0 1688 688" width="1688px" zoomAndPan="magnify"><defs/><g><!--class ARCHETYPE_CONSTRAINT--><g class="entity" data-entity="ARCHETYPE_CONSTRAINT" data-source-line="2" data-uid="ent0002" id="entity_ARCHETYPE_CONSTRAINT"><rect fill="#F1F1F1" height="115.1997" rx="2.5" ry="2.5" style="stroke:#181818;stroke-width:0.5;" width="429.8984" x="955.34" y="23.8"/><ellipse cx="1081.2065" cy="39.8" fill="#A9DCDF" rx="11" ry="11" style="stroke:#181818;stroke-width:1;"/><path d="M1075.7222,45.3 L1077.7534,45.3 L1081.8003,33.9562 L1080.894,33.9562 L1084.7222,45.3 L1086.8628,45.3 L1082.5347,32.9719 L1080.3159,32.9719 L1075.7222,45.3 Z M1078.0503,41.8 L1084.4878,41.8 L1084.4878,40.05 L1078.0503,40.05 L1078.0503,41.8 Z " fill="#000000"/><text fill="#000000" font-family="sans-serif" font-size="14" font-style="italic" lengthAdjust="spacing" textLength="169.6653" x="1101.7065" y="45.162">ARCHETYPE_CONSTRAINT</text><line style="stroke:#181818;stroke-width:0.5;" x1="956.34" x2="1384.2384" y1="55.8" y2="55.8"/><line style="stroke:#181818;stroke-width:0.5;" x1="956.34" x2="1384.2384" y1="63.8" y2="63.8"/><ellipse cx="966.34" cy="77.7" fill="#84BE84" rx="3" ry="3" style="stroke:#038048;stroke-width:1;"/><text fill="#000000" font-family="sans-serif" font-size="14" font-style="italic" lengthAdjust="spacing" textLength="403.8984" x="975.34" y="81.5619">is_subset_of( other : ARCHETYPE_CONSTRAINT [1] ) : Boolean [1]</text><ellipse cx="966.34" cy="94.4999" fill="#84BE84" rx="3" ry="3" style="stroke:#038048;stroke-width:1;"/><text fill="#000000" font-family="sans-serif" font-size="14" font-style="italic" lengthAdjust="spacing" textLength="134.2035" x="975.34" y="98.3619">is_valid() : Boolean [1]</text><ellipse cx="966.34" cy="111.2998" fill="#84BE84" rx="3" ry="3" style="stroke:#038048;stroke-width:1;"/><text fill="#000000" font-family="sans-serif" font-size="14" lengthAdjust="spacing" textLength="102.5636" x="975.34" y="115.1618">path() : String [1]</text><ellipse cx="966.34" cy="128.0997" fill="#84BE84" rx="3" ry="3" style="stroke:#038048;stroke-width:1;"/><text fill="#000000" font-family="sans-serif" font-size="14" lengthAdjust="spacing" textLength="259.279" x="975.34" y="131.9617">has_path( a_path : String [1] ) : Boolean [1]</text></g><!--class C_OBJECT--><g class="entity" data-entity="C_OBJECT" data-source-line="9" data-uid="ent0003" id="entity_C_OBJECT"><rect fill="#F1F1F1" height="98.3998" rx="2.5" ry="2.5" style="stroke:#181818;stroke-width:0.5;" width="237.8752" x="919.35" y="224.2"/><ellipse cx="1000.9417" cy="240.2" fill="#A9DCDF" rx="11" ry="11" style="stroke:#181818;stroke-width:1;"/><path d="M995.4574,245.7 L997.4886,245.7 L1001.5355,234.3563 L1000.6292,234.3563 L1004.4574,245.7 L1006.598,245.7 L1002.2699,233.3719 L1000.0511,233.3719 L995.4574,245.7 Z M997.7855,242.2 L1004.223,242.2 L1004.223,240.45 L997.7855,240.45 L997.7855,242.2 Z " fill="#000000"/><text fill="#000000" font-family="sans-serif" font-size="14" font-style="italic" lengthAdjust="spacing" textLength="66.1917" x="1021.4417" y="245.562">C_OBJECT</text><line style="stroke:#181818;stroke-width:0.5;" x1="920.35" x2="1156.2252" y1="256.2" y2="256.2"/><ellipse cx="930.35" cy="270.1" fill="none" rx="3" ry="3" style="stroke:#038048;stroke-width:1;"/><text fill="#000000" font-family="sans-serif" font-size="14" lengthAdjust="spacing" textLength="159.7254" x="939.35" y="273.9619">rm_type_name : String [1]</text><ellipse cx="930.35" cy="286.8999" fill="none" rx="3" ry="3" style="stroke:#038048;stroke-width:1;"/><text fill="#000000" font-family="sans-serif" font-size="14" lengthAdjust="spacing" textLength="211.8752" x="939.35" y="290.7619">occurrences : Interval&lt;Integer&gt; [1]</text><ellipse cx="930.35" cy="303.6998" fill="none" rx="3" ry="3" style="stroke:#038048;stroke-width:1;"/><text fill="#000000" font-family="sans-serif" font-size="14" lengthAdjust="spacing" textLength="115.6535" x="939.35" y="307.5618">node_id : String [1]</text><line style="stroke:#181818;stroke-width:0.5;" x1="920.35" x2="1156.2252" y1="314.5998" y2="314.5998"/></g><!--class C_ATTRIBUTE--><g class="entity" data-entity="C_ATTRIBUTE" data-source-line="15" data-uid="ent0004" id="entity_C_ATTRIBUTE"><rect fill="#F1F1F1" height="115.1997" rx="2.5" ry="2.5" style="stroke:#181818;stroke-width:0.5;" width="220.9492" x="1191.81" y="215.8"/><ellipse cx="1254.3478" cy="231.8" fill="#A9DCDF" rx="11" ry="11" style="stroke:#181818;stroke-width:1;"/><path d="M1248.8634,237.3 L1250.8947,237.3 L1254.9416,225.9562 L1254.0353,225.9562 L1257.8634,237.3 L1260.0041,237.3 L1255.6759,224.9719 L1253.4572,224.9719 L1248.8634,237.3 Z M1251.1916,233.8 L1257.6291,233.8 L1257.6291,232.05 L1251.1916,232.05 L1251.1916,233.8 Z " fill="#000000"/><text fill="#000000" font-family="sans-serif" font-size="14" font-style="italic" lengthAdjust="spacing" textLength="87.3736" x="1274.8478" y="237.162">C_ATTRIBUTE</text><line style="stroke:#181818;stroke-width:0.5;" x1="1192.81" x2="1411.7592" y1="247.8" y2="247.8"/><ellipse cx="1202.81" cy="261.7" fill="none" rx="3" ry="3" style="stroke:#038048;stroke-width:1;"/><text fill="#000000" font-family="sans-serif" font-size="14" lengthAdjust="spacing" textLength="186.8013" x="1211.81" y="265.5619">rm_attribute_name : String [1]</text><ellipse cx="1202.81" cy="278.4999" fill="none" rx="3" ry="3" style="stroke:#038048;stroke-width:1;"/><text fill="#000000" font-family="sans-serif" font-size="14" lengthAdjust="spacing" textLength="194.9492" x="1211.81" y="282.3619">existence : Interval&lt;Integer&gt; [1]</text><ellipse cx="1202.81" cy="295.2998" fill="none" rx="3" ry="3" style="stroke:#038048;stroke-width:1;"/><text fill="#000000" font-family="sans-serif" font-size="14" lengthAdjust="spacing" textLength="184.0993" x="1211.81" y="299.1618">children : List&lt;C_OBJECT&gt; [*]</text><line style="stroke:#181818;stroke-width:0.5;" x1="1192.81" x2="1411.7592" y1="306.1998" y2="306.1998"/><ellipse cx="1202.81" cy="320.0997" fill="#84BE84" rx="3" ry="3" style="stroke:#038048;stroke-width:1;"/><text fill="#000000" font-family="sans-serif" font-size="14" lengthAdjust="spacing" textLength="166.1093" x="1211.81" y="323.9617">any_allowed() : Boolean [1]</text></g><!--class C_DEFINED_OBJECT--><g class="entity" data-entity="C_DEFINED_OBJECT" data-source-line="22" data-uid="ent0005" id="entity_C_DEFINED_OBJECT"><rect fill="#F1F1F1" height="148.7996" rx="2.5" ry="2.5" style="stroke:#181818;stroke-width:0.5;" width="288.5269" x="507.03" y="391"/><ellipse cx="581.2577" cy="407" fill="#A9DCDF" rx="11" ry="11" style="stroke:#181818;stroke-width:1;"/><path d="M575.7733,412.5 L577.8046,412.5 L581.8515,401.1563 L580.9452,401.1563 L584.7733,412.5 L586.914,412.5 L582.5858,400.1719 L580.3671,400.1719 L575.7733,412.5 Z M578.1015,409 L584.539,409 L584.539,407.25 L578.1015,407.25 L578.1015,409 Z " fill="#000000"/><text fill="#000000" font-family="sans-serif" font-size="14" font-style="italic" lengthAdjust="spacing" textLength="131.5715" x="601.7577" y="412.362">C_DEFINED_OBJECT</text><line style="stroke:#181818;stroke-width:0.5;" x1="508.03" x2="794.5569" y1="423" y2="423"/><ellipse cx="518.03" cy="436.9" fill="none" rx="3" ry="3" style="stroke:#038048;stroke-width:1;"/><text fill="#000000" font-family="sans-serif" font-size="14" lengthAdjust="spacing" textLength="163.4633" x="527.03" y="440.7619">assumed_value : Any [0..1]</text><line style="stroke:#181818;stroke-width:0.5;" x1="508.03" x2="794.5569" y1="447.7999" y2="447.7999"/><ellipse cx="518.03" cy="461.6999" fill="#84BE84" rx="3" ry="3" style="stroke:#038048;stroke-width:1;"/><text fill="#000000" font-family="sans-serif" font-size="14" font-style="italic" lengthAdjust="spacing" textLength="262.5269" x="527.03" y="465.5619">valid_value( a_value : Any [1] ) : Boolean [1]</text><ellipse cx="518.03" cy="478.4998" fill="#84BE84" rx="3" ry="3" style="stroke:#038048;stroke-width:1;"/><text fill="#000000" font-family="sans-serif" font-size="14" font-style="italic" lengthAdjust="spacing" textLength="161.7414" x="527.03" y="482.3618">prototype_value() : Any [1]</text><ellipse cx="518.03" cy="495.2997" fill="#84BE84" rx="3" ry="3" style="stroke:#038048;stroke-width:1;"/><text fill="#000000" font-family="sans-serif" font-size="14" lengthAdjust="spacing" textLength="212.3931" x="527.03" y="499.1617">has_assumed_value() : Boolean [1]</text><ellipse cx="518.03" cy="512.0997" fill="#84BE84" rx="3" ry="3" style="stroke:#038048;stroke-width:1;"/><text fill="#000000" font-family="sans-serif" font-size="14" font-style="italic" lengthAdjust="spacing" textLength="160.2013" x="527.03" y="515.9616">default_value() : Any [0..1]</text><ellipse cx="518.03" cy="528.8996" fill="#84BE84" rx="3" ry="3" style="stroke:#038048;stroke-width:1;"/><text fill="#000000" font-family="sans-serif" font-size="14" font-style="italic" lengthAdjust="spacing" textLength="166.1093" x="527.03" y="532.7616">any_allowed() : Boolean [1]</text></g><!--class CARDINALITY--><g class="entity" data-entity="CARDINALITY" data-source-line="31" data-uid="ent0006" id="entity_CARDINALITY"><rect fill="#F1F1F1" height="148.7996" rx="2.5" ry="2.5" style="stroke:#181818;stroke-width:0.5;" width="209.6233" x="1420.48" y="7"/><ellipse cx="1477.8938" cy="23" fill="#ADD1B2" rx="11" ry="11" style="stroke:#181818;stroke-width:1;"/><path d="M1477.8938,29.4219 C1479.0657,29.4219 1480.3001,29.1563 1481.6751,28.5469 L1481.1907,27.0313 C1480.0969,27.4531 1479.0813,27.6406 1478.2219,27.6406 C1475.5032,27.6406 1473.7844,25.7969 1473.7844,22.8906 C1473.7844,20.1406 1475.3469,18.5469 1478.0813,18.5469 C1479.0032,18.5469 1480.0188,18.7344 1481.1594,19.1563 L1481.7376,17.6406 C1480.6438,17.0625 1479.3469,16.7656 1478.1594,16.7656 C1474.3938,16.7656 1471.8157,19.4063 1471.8157,23.2188 C1471.8157,26.8906 1474.3001,29.4219 1477.8938,29.4219 Z " fill="#000000"/><text fill="#000000" font-family="sans-serif" font-size="14" lengthAdjust="spacing" textLength="86.2957" x="1498.3938" y="28.362">CARDINALITY</text><line style="stroke:#181818;stroke-width:0.5;" x1="1421.48" x2="1629.1033" y1="39" y2="39"/><ellipse cx="1431.48" cy="52.9" fill="none" rx="3" ry="3" style="stroke:#038048;stroke-width:1;"/><text fill="#000000" font-family="sans-serif" font-size="14" lengthAdjust="spacing" textLength="183.6233" x="1440.48" y="56.7619">interval : Interval&lt;Integer&gt; [1]</text><ellipse cx="1431.48" cy="69.6999" fill="none" rx="3" ry="3" style="stroke:#038048;stroke-width:1;"/><text fill="#000000" font-family="sans-serif" font-size="14" lengthAdjust="spacing" textLength="145.8094" x="1440.48" y="73.5619">is_ordered : Boolean [1]</text><ellipse cx="1431.48" cy="86.4998" fill="none" rx="3" ry="3" style="stroke:#038048;stroke-width:1;"/><text fill="#000000" font-family="sans-serif" font-size="14" lengthAdjust="spacing" textLength="138.9494" x="1440.48" y="90.3618">is_unique : Boolean [1]</text><line style="stroke:#181818;stroke-width:0.5;" x1="1421.48" x2="1629.1033" y1="97.3998" y2="97.3998"/><ellipse cx="1431.48" cy="111.2997" fill="#84BE84" rx="3" ry="3" style="stroke:#038048;stroke-width:1;"/><text fill="#000000" font-family="sans-serif" font-size="14" lengthAdjust="spacing" textLength="128.1275" x="1440.48" y="115.1617">is_bag() : Boolean [1]</text><ellipse cx="1431.48" cy="128.0997" fill="#84BE84" rx="3" ry="3" style="stroke:#038048;stroke-width:1;"/><text fill="#000000" font-family="sans-serif" font-size="14" lengthAdjust="spacing" textLength="123.8855" x="1440.48" y="131.9616">is_list() : Boolean [1]</text><ellipse cx="1431.48" cy="144.8996" fill="#84BE84" rx="3" ry="3" style="stroke:#038048;stroke-width:1;"/><text fill="#000000" font-family="sans-serif" font-size="14" lengthAdjust="spacing" textLength="123.9415" x="1440.48" y="148.7616">is_set() : Boolean [1]</text></g><!--class ARCHETYPE_INTERNAL_REF--><g class="entity" data-entity="ARCHETYPE_INTERNAL_REF" data-source-line="40" data-uid="ent0007" id="entity_ARCHETYPE_INTERNAL_REF"><rect fill="#F1F1F1" height="64.7999" rx="2.5" ry="2.5" style="stroke:#181818;stroke-width:0.5;" width="213.3272" x="871.63" y="608.2"/><ellipse cx="886.63" cy="624.2" fill="#ADD1B2" rx="11" ry="11" style="stroke:#181818;stroke-width:1;"/><path d="M886.63,630.6219 C887.8019,630.6219 889.0363,630.3562 890.4113,629.7469 L889.9269,628.2312 C888.8331,628.6531 887.8175,628.8406 886.9581,628.8406 C884.2394,628.8406 882.5206,626.9969 882.5206,624.0906 C882.5206,621.3406 884.0831,619.7469 886.8175,619.7469 C887.7394,619.7469 888.755,619.9344 889.8956,620.3562 L890.4738,618.8406 C889.38,618.2625 888.0831,617.9656 886.8956,617.9656 C883.13,617.9656 880.5519,620.6062 880.5519,624.4187 C880.5519,628.0906 883.0363,630.6219 886.63,630.6219 Z " fill="#000000"/><text fill="#000000" font-family="sans-serif" font-size="14" lengthAdjust="spacing" textLength="181.3272" x="900.63" y="629.562">ARCHETYPE_INTERNAL_REF</text><line style="stroke:#181818;stroke-width:0.5;" x1="872.63" x2="1083.9572" y1="640.2" y2="640.2"/><ellipse cx="882.63" cy="654.1" fill="none" rx="3" ry="3" style="stroke:#038048;stroke-width:1;"/><text fill="#000000" font-family="sans-serif" font-size="14" lengthAdjust="spacing" textLength="139.0615" x="891.63" y="657.9619">target_path : String [1]</text><line style="stroke:#181818;stroke-width:0.5;" x1="872.63" x2="1083.9572" y1="664.9999" y2="664.9999"/></g><!--class ARCHETYPE_SLOT--><g class="entity" data-entity="ARCHETYPE_SLOT" data-source-line="44" data-uid="ent0008" id="entity_ARCHETYPE_SLOT"><rect fill="#F1F1F1" height="81.5999" rx="2.5" ry="2.5" style="stroke:#181818;stroke-width:0.5;" width="221.4812" x="1119.55" y="599.8"/><ellipse cx="1167.2338" cy="615.8" fill="#ADD1B2" rx="11" ry="11" style="stroke:#181818;stroke-width:1;"/><path d="M1167.2338,622.2219 C1168.4057,622.2219 1169.6401,621.9563 1171.0151,621.3469 L1170.5307,619.8313 C1169.437,620.2531 1168.4213,620.4406 1167.562,620.4406 C1164.8432,620.4406 1163.1245,618.5969 1163.1245,615.6906 C1163.1245,612.9406 1164.687,611.3469 1167.4213,611.3469 C1168.3432,611.3469 1169.3588,611.5344 1170.4995,611.9563 L1171.0776,610.4406 C1169.9838,609.8625 1168.687,609.5656 1167.4995,609.5656 C1163.7338,609.5656 1161.1557,612.2063 1161.1557,616.0188 C1161.1557,619.6906 1163.6401,622.2219 1167.2338,622.2219 Z " fill="#000000"/><text fill="#000000" font-family="sans-serif" font-size="14" lengthAdjust="spacing" textLength="117.6135" x="1187.7338" y="621.162">ARCHETYPE_SLOT</text><line style="stroke:#181818;stroke-width:0.5;" x1="1120.55" x2="1340.0312" y1="631.8" y2="631.8"/><ellipse cx="1130.55" cy="645.7" fill="none" rx="3" ry="3" style="stroke:#038048;stroke-width:1;"/><text fill="#000000" font-family="sans-serif" font-size="14" lengthAdjust="spacing" textLength="192.9052" x="1139.55" y="649.5619">includes : List&lt;ASSERTION&gt; [*]</text><ellipse cx="1130.55" cy="662.4999" fill="none" rx="3" ry="3" style="stroke:#038048;stroke-width:1;"/><text fill="#000000" font-family="sans-serif" font-size="14" lengthAdjust="spacing" textLength="195.4812" x="1139.55" y="666.3619">excludes : List&lt;ASSERTION&gt; [*]</text><line style="stroke:#181818;stroke-width:0.5;" x1="1120.55" x2="1340.0312" y1="673.3999" y2="673.3999"/></g><!--class C_SINGLE_ATTRIBUTE--><g class="entity" data-entity="C_SINGLE_ATTRIBUTE" data-source-line="49" data-uid="ent0009" id="entity_C_SINGLE_ATTRIBUTE"><rect fill="#F1F1F1" height="64.7999" rx="2.5" ry="2.5" style="stroke:#181818;stroke-width:0.5;" width="241.1231" x="1177.73" y="433"/><ellipse cx="1223.2299" cy="449" fill="#ADD1B2" rx="11" ry="11" style="stroke:#181818;stroke-width:1;"/><path d="M1223.2299,455.4219 C1224.4017,455.4219 1225.6361,455.1563 1227.0111,454.5469 L1226.5267,453.0313 C1225.433,453.4531 1224.4174,453.6406 1223.558,453.6406 C1220.8392,453.6406 1219.1205,451.7969 1219.1205,448.8906 C1219.1205,446.1406 1220.683,444.5469 1223.4174,444.5469 C1224.3392,444.5469 1225.3549,444.7344 1226.4955,445.1563 L1227.0736,443.6406 C1225.9799,443.0625 1224.683,442.7656 1223.4955,442.7656 C1219.7299,442.7656 1217.1517,445.4063 1217.1517,449.2188 C1217.1517,452.8906 1219.6361,455.4219 1223.2299,455.4219 Z " fill="#000000"/><text fill="#000000" font-family="sans-serif" font-size="14" lengthAdjust="spacing" textLength="141.6234" x="1243.7299" y="454.362">C_SINGLE_ATTRIBUTE</text><line style="stroke:#181818;stroke-width:0.5;" x1="1178.73" x2="1417.8531" y1="465" y2="465"/><line style="stroke:#181818;stroke-width:0.5;" x1="1178.73" x2="1417.8531" y1="473" y2="473"/><ellipse cx="1188.73" cy="486.9" fill="#84BE84" rx="3" ry="3" style="stroke:#038048;stroke-width:1;"/><text fill="#000000" font-family="sans-serif" font-size="14" lengthAdjust="spacing" textLength="215.1231" x="1197.73" y="490.7619">alternatives() : List&lt;C_OBJECT&gt; [*]</text></g><!--class CONSTRAINT_REF--><g class="entity" data-entity="CONSTRAINT_REF" data-source-line="53" data-uid="ent0010" id="entity_CONSTRAINT_REF"><rect fill="#F1F1F1" height="64.7999" rx="2.5" ry="2.5" style="stroke:#181818;stroke-width:0.5;" width="151.3415" x="1375.62" y="608.2"/><ellipse cx="1391.5929" cy="624.2" fill="#ADD1B2" rx="11" ry="11" style="stroke:#181818;stroke-width:1;"/><path d="M1391.5929,630.6219 C1392.7648,630.6219 1393.9992,630.3562 1395.3742,629.7469 L1394.8898,628.2312 C1393.796,628.6531 1392.7804,628.8406 1391.921,628.8406 C1389.2023,628.8406 1387.4835,626.9969 1387.4835,624.0906 C1387.4835,621.3406 1389.046,619.7469 1391.7804,619.7469 C1392.7023,619.7469 1393.7179,619.9344 1394.8585,620.3562 L1395.4367,618.8406 C1394.3429,618.2625 1393.046,617.9656 1391.8585,617.9656 C1388.0929,617.9656 1385.5148,620.6062 1385.5148,624.4187 C1385.5148,628.0906 1387.9992,630.6219 1391.5929,630.6219 Z " fill="#000000"/><text fill="#000000" font-family="sans-serif" font-size="14" lengthAdjust="spacing" textLength="117.1795" x="1405.8091" y="629.562">CONSTRAINT_REF</text><line style="stroke:#181818;stroke-width:0.5;" x1="1376.62" x2="1525.9615" y1="640.2" y2="640.2"/><ellipse cx="1386.62" cy="654.1" fill="none" rx="3" ry="3" style="stroke:#038048;stroke-width:1;"/><text fill="#000000" font-family="sans-serif" font-size="14" lengthAdjust="spacing" textLength="125.3415" x="1395.62" y="657.9619">reference : String [1]</text><line style="stroke:#181818;stroke-width:0.5;" x1="1376.62" x2="1525.9615" y1="664.9999" y2="664.9999"/></g><!--class C_MULTIPLE_ATTRIBUTE--><g class="entity" data-entity="C_MULTIPLE_ATTRIBUTE" data-source-line="57" data-uid="ent0011" id="entity_C_MULTIPLE_ATTRIBUTE"><rect fill="#F1F1F1" height="81.5999" rx="2.5" ry="2.5" style="stroke:#181818;stroke-width:0.5;" width="227.4732" x="1453.55" y="424.6"/><ellipse cx="1485.3862" cy="440.6" fill="#ADD1B2" rx="11" ry="11" style="stroke:#181818;stroke-width:1;"/><path d="M1485.3862,447.0219 C1486.5581,447.0219 1487.7925,446.7562 1489.1675,446.1469 L1488.6831,444.6312 C1487.5893,445.0531 1486.5737,445.2406 1485.7143,445.2406 C1482.9956,445.2406 1481.2768,443.3969 1481.2768,440.4906 C1481.2768,437.7406 1482.8393,436.1469 1485.5737,436.1469 C1486.4956,436.1469 1487.5112,436.3344 1488.6518,436.7562 L1489.23,435.2406 C1488.1362,434.6625 1486.8393,434.3656 1485.6518,434.3656 C1481.8862,434.3656 1479.3081,437.0062 1479.3081,440.8187 C1479.3081,444.4906 1481.7925,447.0219 1485.3862,447.0219 Z " fill="#000000"/><text fill="#000000" font-family="sans-serif" font-size="14" lengthAdjust="spacing" textLength="158.0594" x="1503.1276" y="445.962">C_MULTIPLE_ATTRIBUTE</text><line style="stroke:#181818;stroke-width:0.5;" x1="1454.55" x2="1680.0232" y1="456.6" y2="456.6"/><ellipse cx="1464.55" cy="470.5" fill="none" rx="3" ry="3" style="stroke:#038048;stroke-width:1;"/><text fill="#000000" font-family="sans-serif" font-size="14" lengthAdjust="spacing" textLength="179.4653" x="1473.55" y="474.3619">cardinality : CARDINALITY [1]</text><line style="stroke:#181818;stroke-width:0.5;" x1="1454.55" x2="1680.0232" y1="481.3999" y2="481.3999"/><ellipse cx="1464.55" cy="495.2999" fill="#84BE84" rx="3" ry="3" style="stroke:#038048;stroke-width:1;"/><text fill="#000000" font-family="sans-serif" font-size="14" lengthAdjust="spacing" textLength="201.4732" x="1473.55" y="499.1619">members() : List&lt;C_OBJECT&gt; [*]</text></g><!--class C_DOMAIN_TYPE--><g class="entity" data-entity="C_DOMAIN_TYPE" data-source-line="62" data-uid="ent0012" id="entity_C_DOMAIN_TYPE"><rect fill="#F1F1F1" height="64.7999" rx="2.5" ry="2.5" style="stroke:#181818;stroke-width:0.5;" width="326.5788" x="7" y="608.2"/><ellipse cx="110.4736" cy="624.2" fill="#A9DCDF" rx="11" ry="11" style="stroke:#181818;stroke-width:1;"/><path d="M104.9893,629.7 L107.0205,629.7 L111.0674,618.3562 L110.1611,618.3562 L113.9893,629.7 L116.1299,629.7 L111.8018,617.3719 L109.583,617.3719 L104.9893,629.7 Z M107.3174,626.2 L113.7549,626.2 L113.7549,624.45 L107.3174,624.45 L107.3174,626.2 Z " fill="#000000"/><text fill="#000000" font-family="sans-serif" font-size="14" font-style="italic" lengthAdjust="spacing" textLength="111.1315" x="130.9736" y="629.562">C_DOMAIN_TYPE</text><line style="stroke:#181818;stroke-width:0.5;" x1="8" x2="332.5788" y1="640.2" y2="640.2"/><line style="stroke:#181818;stroke-width:0.5;" x1="8" x2="332.5788" y1="648.2" y2="648.2"/><ellipse cx="18" cy="662.1" fill="#84BE84" rx="3" ry="3" style="stroke:#038048;stroke-width:1;"/><text fill="#000000" font-family="sans-serif" font-size="14" font-style="italic" lengthAdjust="spacing" textLength="300.5788" x="27" y="665.9619">standard_equivalent() : C_COMPLEX_OBJECT [1]</text></g><!--class C_REFERENCE_OBJECT--><g class="entity" data-entity="C_REFERENCE_OBJECT" data-source-line="66" data-uid="ent0013" id="entity_C_REFERENCE_OBJECT"><rect fill="#F1F1F1" height="48" rx="2.5" ry="2.5" style="stroke:#181818;stroke-width:0.5;" width="182.6674" x="951.96" y="441.4"/><ellipse cx="966.96" cy="457.4" fill="#A9DCDF" rx="11" ry="11" style="stroke:#181818;stroke-width:1;"/><path d="M961.4756,462.9 L963.5069,462.9 L967.5538,451.5563 L966.6475,451.5563 L970.4756,462.9 L972.6163,462.9 L968.2881,450.5719 L966.0694,450.5719 L961.4756,462.9 Z M963.8038,459.4 L970.2413,459.4 L970.2413,457.65 L963.8038,457.65 L963.8038,459.4 Z " fill="#000000"/><text fill="#000000" font-family="sans-serif" font-size="14" font-style="italic" lengthAdjust="spacing" textLength="150.6674" x="980.96" y="462.762">C_REFERENCE_OBJECT</text><line style="stroke:#181818;stroke-width:0.5;" x1="952.96" x2="1133.6274" y1="473.4" y2="473.4"/><line style="stroke:#181818;stroke-width:0.5;" x1="952.96" x2="1133.6274" y1="481.4" y2="481.4"/></g><!--class C_PRIMITIVE_OBJECT--><g class="entity" data-entity="C_PRIMITIVE_OBJECT" data-source-line="69" data-uid="ent0014" id="entity_C_PRIMITIVE_OBJECT"><rect fill="#F1F1F1" height="81.5999" rx="2.5" ry="2.5" style="stroke:#181818;stroke-width:0.5;" width="192.1093" x="368.23" y="599.8"/><ellipse cx="393.2182" cy="615.8" fill="#ADD1B2" rx="11" ry="11" style="stroke:#181818;stroke-width:1;"/><path d="M393.2182,622.2219 C394.39,622.2219 395.6244,621.9563 396.9994,621.3469 L396.515,619.8313 C395.4213,620.2531 394.4057,620.4406 393.5463,620.4406 C390.8275,620.4406 389.1088,618.5969 389.1088,615.6906 C389.1088,612.9406 390.6713,611.3469 393.4057,611.3469 C394.3275,611.3469 395.3432,611.5344 396.4838,611.9563 L397.0619,610.4406 C395.9682,609.8625 394.6713,609.5656 393.4838,609.5656 C389.7182,609.5656 387.14,612.2063 387.14,616.0188 C387.14,619.6906 389.6244,622.2219 393.2182,622.2219 Z " fill="#000000"/><text fill="#000000" font-family="sans-serif" font-size="14" lengthAdjust="spacing" textLength="137.9135" x="409.4377" y="621.162">C_PRIMITIVE_OBJECT</text><line style="stroke:#181818;stroke-width:0.5;" x1="369.23" x2="559.3393" y1="631.8" y2="631.8"/><ellipse cx="379.23" cy="645.7" fill="none" rx="3" ry="3" style="stroke:#038048;stroke-width:1;"/><text fill="#000000" font-family="sans-serif" font-size="14" lengthAdjust="spacing" textLength="137.5915" x="388.23" y="649.5619">item : C_PRIMITIVE [1]</text><line style="stroke:#181818;stroke-width:0.5;" x1="369.23" x2="559.3393" y1="656.5999" y2="656.5999"/><ellipse cx="379.23" cy="670.4999" fill="#84BE84" rx="3" ry="3" style="stroke:#038048;stroke-width:1;"/><text fill="#000000" font-family="sans-serif" font-size="14" lengthAdjust="spacing" textLength="166.1093" x="388.23" y="674.3619">any_allowed() : Boolean [1]</text></g><!--class C_COMPLEX_OBJECT--><g class="entity" data-entity="C_COMPLEX_OBJECT" data-source-line="74" data-uid="ent0015" id="entity_C_COMPLEX_OBJECT"><rect fill="#F1F1F1" height="81.5999" rx="2.5" ry="2.5" style="stroke:#181818;stroke-width:0.5;" width="241.6131" x="595.48" y="599.8"/><ellipse cx="643.6608" cy="615.8" fill="#ADD1B2" rx="11" ry="11" style="stroke:#181818;stroke-width:1;"/><path d="M643.6608,622.2219 C644.8327,622.2219 646.0671,621.9563 647.4421,621.3469 L646.9577,619.8313 C645.864,620.2531 644.8483,620.4406 643.989,620.4406 C641.2702,620.4406 639.5515,618.5969 639.5515,615.6906 C639.5515,612.9406 641.114,611.3469 643.8483,611.3469 C644.7702,611.3469 645.7858,611.5344 646.9265,611.9563 L647.5046,610.4406 C646.4108,609.8625 645.114,609.5656 643.9265,609.5656 C640.1608,609.5656 637.5827,612.2063 637.5827,616.0188 C637.5827,619.6906 640.0671,622.2219 643.6608,622.2219 Z " fill="#000000"/><text fill="#000000" font-family="sans-serif" font-size="14" lengthAdjust="spacing" textLength="136.7514" x="664.1608" y="621.162">C_COMPLEX_OBJECT</text><line style="stroke:#181818;stroke-width:0.5;" x1="596.48" x2="836.0931" y1="631.8" y2="631.8"/><ellipse cx="606.48" cy="645.7" fill="none" rx="3" ry="3" style="stroke:#038048;stroke-width:1;"/><text fill="#000000" font-family="sans-serif" font-size="14" lengthAdjust="spacing" textLength="215.6131" x="615.48" y="649.5619">attributes : List&lt;C_ATTRIBUTE&gt; [*]</text><line style="stroke:#181818;stroke-width:0.5;" x1="596.48" x2="836.0931" y1="656.5999" y2="656.5999"/><ellipse cx="606.48" cy="670.4999" fill="#84BE84" rx="3" ry="3" style="stroke:#038048;stroke-width:1;"/><text fill="#000000" font-family="sans-serif" font-size="14" lengthAdjust="spacing" textLength="166.1093" x="615.48" y="674.3619">any_allowed() : Boolean [1]</text></g><!--reverse link ARCHETYPE_CONSTRAINT to C_OBJECT--><g class="link" data-entity-1="ARCHETYPE_CONSTRAINT" data-entity-2="C_OBJECT" data-source-line="79" data-uid="lnk16" id="link_ARCHETYPE_CONSTRAINT_C_OBJECT"><path codeLine="79" d="M1120.4168,154.1904 C1101.7268,181.0804 1089.94,198.05 1072.07,223.78" fill="none" id="ARCHETYPE_CONSTRAINT-backto-C_OBJECT" style="stroke:#181818;stroke-width:1;"/><polygon fill="none" points="1130.69,139.41,1115.49,150.766,1125.3436,157.6148,1130.69,139.41" style="stroke:#181818;stroke-width:1;"/></g><!--reverse link ARCHETYPE_CONSTRAINT to C_ATTRIBUTE--><g class="link" data-entity-1="ARCHETYPE_CONSTRAINT" data-entity-2="C_ATTRIBUTE" data-source-line="80" data-uid="lnk17" id="link_ARCHETYPE_CONSTRAINT_C_ATTRIBUTE"><path codeLine="80" d="M1220.1636,154.1902 C1236.8736,178.2302 1246.01,191.39 1262.71,215.43" fill="none" id="ARCHETYPE_CONSTRAINT-backto-C_ATTRIBUTE" style="stroke:#181818;stroke-width:1;"/><polygon fill="none" points="1209.89,139.41,1215.2369,157.6147,1225.0903,150.7657,1209.89,139.41" style="stroke:#181818;stroke-width:1;"/></g><!--reverse link C_OBJECT to C_DEFINED_OBJECT--><g class="link" data-entity-1="C_OBJECT" data-entity-2="C_DEFINED_OBJECT" data-source-line="81" data-uid="lnk18" id="link_C_OBJECT_C_DEFINED_OBJECT"><path codeLine="81" d="M922.9729,331.0139 C879.4129,352.4039 843.57,370 795.82,393.44" fill="none" id="C_OBJECT-backto-C_DEFINED_OBJECT" style="stroke:#181818;stroke-width:1;"/><polygon fill="none" points="939.13,323.08,920.3282,325.6282,925.6175,336.3996,939.13,323.08" style="stroke:#181818;stroke-width:1;"/></g><!--reverse link C_REFERENCE_OBJECT to ARCHETYPE_INTERNAL_REF--><g class="link" data-entity-1="C_REFERENCE_OBJECT" data-entity-2="ARCHETYPE_INTERNAL_REF" data-source-line="82" data-uid="lnk19" id="link_C_REFERENCE_OBJECT_ARCHETYPE_INTERNAL_REF"><path codeLine="82" d="M1028.198,506.6132 C1016.768,537.0832 1003.03,573.67 990.22,607.81" fill="none" id="C_REFERENCE_OBJECT-backto-ARCHETYPE_INTERNAL_REF" style="stroke:#181818;stroke-width:1;"/><polygon fill="none" points="1034.52,489.76,1022.5802,504.5059,1033.8157,508.7206,1034.52,489.76" style="stroke:#181818;stroke-width:1;"/></g><!--reverse link C_REFERENCE_OBJECT to ARCHETYPE_SLOT--><g class="link" data-entity-1="C_REFERENCE_OBJECT" data-entity-2="ARCHETYPE_SLOT" data-source-line="83" data-uid="lnk20" id="link_C_REFERENCE_OBJECT_ARCHETYPE_SLOT"><path codeLine="83" d="M1081.7166,501.9906 C1112.0266,530.0606 1150.17,565.39 1186.89,599.4" fill="none" id="C_REFERENCE_OBJECT-backto-ARCHETYPE_SLOT" style="stroke:#181818;stroke-width:1;"/><polygon fill="none" points="1068.51,489.76,1077.6397,506.3927,1085.7934,497.5884,1068.51,489.76" style="stroke:#181818;stroke-width:1;"/></g><!--reverse link C_ATTRIBUTE to C_SINGLE_ATTRIBUTE--><g class="link" data-entity-1="C_ATTRIBUTE" data-entity-2="C_SINGLE_ATTRIBUTE" data-source-line="84" data-uid="lnk21" id="link_C_ATTRIBUTE_C_SINGLE_ATTRIBUTE"><path codeLine="84" d="M1300.7097,349.406 C1300.0097,382.526 1299.54,405.02 1298.96,432.57" fill="none" id="C_ATTRIBUTE-backto-C_SINGLE_ATTRIBUTE" style="stroke:#181818;stroke-width:1;"/><polygon fill="none" points="1301.09,331.41,1294.711,349.2792,1306.7083,349.5328,1301.09,331.41" style="stroke:#181818;stroke-width:1;"/></g><!--reverse link C_REFERENCE_OBJECT to CONSTRAINT_REF--><g class="link" data-entity-1="C_REFERENCE_OBJECT" data-entity-2="CONSTRAINT_REF" data-source-line="85" data-uid="lnk22" id="link_C_REFERENCE_OBJECT_CONSTRAINT_REF"><path codeLine="85" d="M1090.0539,499.9839 C1112.8639,515.7939 1129.96,525.99 1160.29,539.8 C1243.98,577.9 1271.89,568.33 1358.29,599.8 C1365.06,602.26 1372.04,604.96 1379,607.75" fill="none" id="C_REFERENCE_OBJECT-backto-CONSTRAINT_REF" style="stroke:#181818;stroke-width:1;"/><polygon fill="none" points="1075.26,489.73,1086.6359,504.9152,1093.4718,495.0526,1075.26,489.73" style="stroke:#181818;stroke-width:1;"/></g><!--reverse link C_ATTRIBUTE to C_MULTIPLE_ATTRIBUTE--><g class="link" data-entity-1="C_ATTRIBUTE" data-entity-2="C_MULTIPLE_ATTRIBUTE" data-source-line="86" data-uid="lnk23" id="link_C_ATTRIBUTE_C_MULTIPLE_ATTRIBUTE"><path codeLine="86" d="M1396.4282,341.8988 C1438.1982,371.8488 1473.76,397.34 1511.39,424.32" fill="none" id="C_ATTRIBUTE-backto-C_MULTIPLE_ATTRIBUTE" style="stroke:#181818;stroke-width:1;"/><polygon fill="none" points="1381.8,331.41,1392.932,346.7749,1399.9245,337.0227,1381.8,331.41" style="stroke:#181818;stroke-width:1;"/></g><!--reverse link C_DEFINED_OBJECT to C_DOMAIN_TYPE--><g class="link" data-entity-1="C_DEFINED_OBJECT" data-entity-2="C_DOMAIN_TYPE" data-source-line="87" data-uid="lnk24" id="link_C_DEFINED_OBJECT_C_DOMAIN_TYPE"><path codeLine="87" d="M489.7144,524.5781 C409.0644,553.6181 328.15,582.76 258.84,607.72" fill="none" id="C_DEFINED_OBJECT-backto-C_DOMAIN_TYPE" style="stroke:#181818;stroke-width:1;"/><polygon fill="none" points="506.65,518.48,487.6817,518.9329,491.7471,530.2233,506.65,518.48" style="stroke:#181818;stroke-width:1;"/></g><!--reverse link C_OBJECT to C_REFERENCE_OBJECT--><g class="link" data-entity-1="C_OBJECT" data-entity-2="C_REFERENCE_OBJECT" data-source-line="88" data-uid="lnk25" id="link_C_OBJECT_C_REFERENCE_OBJECT"><path codeLine="88" d="M1040.0344,340.8337 C1041.0344,378.7637 1041.91,411.86 1042.68,441.15" fill="none" id="C_OBJECT-backto-C_REFERENCE_OBJECT" style="stroke:#181818;stroke-width:1;"/><polygon fill="none" points="1039.56,322.84,1034.0365,340.9919,1046.0323,340.6756,1039.56,322.84" style="stroke:#181818;stroke-width:1;"/></g><!--reverse link C_DEFINED_OBJECT to C_PRIMITIVE_OBJECT--><g class="link" data-entity-1="C_DEFINED_OBJECT" data-entity-2="C_PRIMITIVE_OBJECT" data-source-line="89" data-uid="lnk26" id="link_C_DEFINED_OBJECT_C_PRIMITIVE_OBJECT"><path codeLine="89" d="M558.5045,552.3317 C536.5345,572.6817 526.73,581.77 507.66,599.43" fill="none" id="C_DEFINED_OBJECT-backto-C_PRIMITIVE_OBJECT" style="stroke:#181818;stroke-width:1;"/><polygon fill="none" points="571.71,540.1,554.4273,547.9299,562.5818,556.7336,571.71,540.1" style="stroke:#181818;stroke-width:1;"/></g><!--reverse link C_DEFINED_OBJECT to C_COMPLEX_OBJECT--><g class="link" data-entity-1="C_DEFINED_OBJECT" data-entity-2="C_COMPLEX_OBJECT" data-source-line="90" data-uid="lnk27" id="link_C_DEFINED_OBJECT_C_COMPLEX_OBJECT"><path codeLine="90" d="M685.2738,556.9526 C692.9438,577.3926 694.66,581.96 701.3,599.67" fill="none" id="C_DEFINED_OBJECT-backto-C_COMPLEX_OBJECT" style="stroke:#181818;stroke-width:1;"/><polygon fill="none" points="678.95,540.1,679.6563,559.0605,690.8914,554.8446,678.95,540.1" style="stroke:#181818;stroke-width:1;"/></g></g></svg>
