<svg xmlns="http://www.w3.org/2000/svg" xmlns:xlink="http://www.w3.org/1999/xlink" contentStyleType="text/css" data-diagram-type="CLASS" height="297px" preserveAspectRatio="none" style="width:823px;height:297px;background:#FFFFFF;" version="1.1" viewBox="0 0 823 297" width="823px" zoomAndPan="magnify"><defs/><g><!--class ARCHETYPE_TERM--><g class="entity" data-entity="ARCHETYPE_TERM" data-source-line="2" data-uid="ent0002" id="entity_ARCHETYPE_TERM"><rect fill="#F1F1F1" height="98.3998" rx="2.5" ry="2.5" style="stroke:#181818;stroke-width:0.5;" width="231.4912" x="7" y="99.4"/><ellipse cx="57.9809" cy="115.4" fill="#ADD1B2" rx="11" ry="11" style="stroke:#181818;stroke-width:1;"/><path d="M57.9809,121.8219 C59.1527,121.8219 60.3871,121.5562 61.7621,120.9469 L61.2777,119.4312 C60.184,119.8531 59.1684,120.0406 58.309,120.0406 C55.5902,120.0406 53.8715,118.1969 53.8715,115.2906 C53.8715,112.5406 55.434,110.9469 58.1684,110.9469 C59.0902,110.9469 60.1059,111.1344 61.2465,111.5562 L61.8246,110.0406 C60.7309,109.4625 59.434,109.1656 58.2465,109.1656 C54.4809,109.1656 51.9027,111.8062 51.9027,115.6187 C51.9027,119.2906 54.3871,121.8219 57.9809,121.8219 Z " fill="#000000"/><text fill="#000000" font-family="sans-serif" font-size="14" lengthAdjust="spacing" textLength="121.0295" x="78.4809" y="120.762">ARCHETYPE_TERM</text><line style="stroke:#181818;stroke-width:0.5;" x1="8" x2="237.4912" y1="131.4" y2="131.4"/><ellipse cx="18" cy="145.3" fill="none" rx="3" ry="3" style="stroke:#038048;stroke-width:1;"/><text fill="#000000" font-family="sans-serif" font-size="14" lengthAdjust="spacing" textLength="95.8296" x="27" y="149.1619">code : String [1]</text><ellipse cx="18" cy="162.0999" fill="none" rx="3" ry="3" style="stroke:#038048;stroke-width:1;"/><text fill="#000000" font-family="sans-serif" font-size="14" lengthAdjust="spacing" textLength="205.4912" x="27" y="165.9619">items : Hash&lt;String,String&gt; [0..1]</text><line style="stroke:#181818;stroke-width:0.5;" x1="8" x2="237.4912" y1="172.9999" y2="172.9999"/><ellipse cx="18" cy="186.8998" fill="#84BE84" rx="3" ry="3" style="stroke:#038048;stroke-width:1;"/><text fill="#000000" font-family="sans-serif" font-size="14" lengthAdjust="spacing" textLength="140.9514" x="27" y="190.7618">keys() : List&lt;String&gt; [*]</text></g><!--class ARCHETYPE_ONTOLOGY--><g class="entity" data-entity="ARCHETYPE_ONTOLOGY" data-source-line="8" data-uid="ent0003" id="entity_ARCHETYPE_ONTOLOGY"><rect fill="#F1F1F1" height="283.199" rx="2.5" ry="2.5" style="stroke:#181818;stroke-width:0.5;" width="543.1301" x="273.18" y="7"/><ellipse cx="460.6044" cy="23" fill="#ADD1B2" rx="11" ry="11" style="stroke:#181818;stroke-width:1;"/><path d="M460.6044,29.4219 C461.7763,29.4219 463.0107,29.1563 464.3857,28.5469 L463.9013,27.0313 C462.8075,27.4531 461.7919,27.6406 460.9325,27.6406 C458.2138,27.6406 456.495,25.7969 456.495,22.8906 C456.495,20.1406 458.0575,18.5469 460.7919,18.5469 C461.7138,18.5469 462.7294,18.7344 463.87,19.1563 L464.4482,17.6406 C463.3544,17.0625 462.0575,16.7656 460.87,16.7656 C457.1044,16.7656 454.5263,19.4063 454.5263,23.2188 C454.5263,26.8906 457.0107,29.4219 460.6044,29.4219 Z " fill="#000000"/><text fill="#000000" font-family="sans-serif" font-size="14" lengthAdjust="spacing" textLength="159.7813" x="481.1044" y="28.362">ARCHETYPE_ONTOLOGY</text><line style="stroke:#181818;stroke-width:0.5;" x1="274.18" x2="815.3101" y1="39" y2="39"/><ellipse cx="284.18" cy="52.9" fill="none" rx="3" ry="3" style="stroke:#038048;stroke-width:1;"/><text fill="#000000" font-family="sans-serif" font-size="14" lengthAdjust="spacing" textLength="191.5052" x="293.18" y="56.7619">term_codes : List&lt;String&gt; [1..*]</text><ellipse cx="284.18" cy="69.6999" fill="none" rx="3" ry="3" style="stroke:#038048;stroke-width:1;"/><text fill="#000000" font-family="sans-serif" font-size="14" lengthAdjust="spacing" textLength="224.2231" x="293.18" y="73.5619">constraint_codes : List&lt;String&gt; [1..*]</text><ellipse cx="284.18" cy="86.4998" fill="none" rx="3" ry="3" style="stroke:#038048;stroke-width:1;"/><text fill="#000000" font-family="sans-serif" font-size="14" lengthAdjust="spacing" textLength="215.0672" x="293.18" y="90.3618">parent_archetype : ARCHETYPE [1]</text><ellipse cx="284.18" cy="103.2997" fill="none" rx="3" ry="3" style="stroke:#038048;stroke-width:1;"/><text fill="#000000" font-family="sans-serif" font-size="14" lengthAdjust="spacing" textLength="253.357" x="293.18" y="107.1617">terminologies_available : List&lt;String&gt; [*]</text><ellipse cx="284.18" cy="120.0997" fill="none" rx="3" ry="3" style="stroke:#038048;stroke-width:1;"/><text fill="#000000" font-family="sans-serif" font-size="14" lengthAdjust="spacing" textLength="201.0812" x="293.18" y="123.9616">specialisation_depth : Integer [1]</text><ellipse cx="284.18" cy="136.8996" fill="none" rx="3" ry="3" style="stroke:#038048;stroke-width:1;"/><text fill="#000000" font-family="sans-serif" font-size="14" lengthAdjust="spacing" textLength="257.795" x="293.18" y="140.7616">term_attribute_names : List&lt;String&gt; [1..*]</text><line style="stroke:#181818;stroke-width:0.5;" x1="274.18" x2="815.3101" y1="147.7996" y2="147.7996"/><ellipse cx="284.18" cy="161.6995" fill="#84BE84" rx="3" ry="3" style="stroke:#038048;stroke-width:1;"/><text fill="#000000" font-family="sans-serif" font-size="14" lengthAdjust="spacing" textLength="287.2789" x="293.18" y="165.5615">has_language( a_lang : String [1] ) : Boolean [1]</text><ellipse cx="284.18" cy="178.4995" fill="#84BE84" rx="3" ry="3" style="stroke:#038048;stroke-width:1;"/><text fill="#000000" font-family="sans-serif" font-size="14" lengthAdjust="spacing" textLength="373.3506" x="293.18" y="182.3614">has_terminology( a_terminology_id : String [1] ) : Boolean [1]</text><ellipse cx="284.18" cy="195.2994" fill="#84BE84" rx="3" ry="3" style="stroke:#038048;stroke-width:1;"/><text fill="#000000" font-family="sans-serif" font-size="14" lengthAdjust="spacing" textLength="299.7949" x="293.18" y="199.1614">has_term_code( a_code : String [1] ) : Boolean [1]</text><ellipse cx="284.18" cy="212.0993" fill="#84BE84" rx="3" ry="3" style="stroke:#038048;stroke-width:1;"/><text fill="#000000" font-family="sans-serif" font-size="14" lengthAdjust="spacing" textLength="332.5128" x="293.18" y="215.9613">has_constraint_code( a_code : String [1] ) : Boolean [1]</text><ellipse cx="284.18" cy="228.8992" fill="#84BE84" rx="3" ry="3" style="stroke:#038048;stroke-width:1;"/><text fill="#000000" font-family="sans-serif" font-size="14" lengthAdjust="spacing" textLength="484.4122" x="293.18" y="232.7612">term_definition( a_lang : String [1], a_code : String [1] ) : ARCHETYPE_TERM [1]</text><ellipse cx="284.18" cy="245.6992" fill="#84BE84" rx="3" ry="3" style="stroke:#038048;stroke-width:1;"/><text fill="#000000" font-family="sans-serif" font-size="14" lengthAdjust="spacing" textLength="517.1301" x="293.18" y="249.5611">constraint_definition( a_code : String [1], a_lang : String [1] ) : ARCHETYPE_TERM [1]</text><ellipse cx="284.18" cy="262.4991" fill="#84BE84" rx="3" ry="3" style="stroke:#038048;stroke-width:1;"/><text fill="#000000" font-family="sans-serif" font-size="14" lengthAdjust="spacing" textLength="496.2701" x="293.18" y="266.3611">term_binding( a_terminology : String [1], a_code : String [1] ) : CODE_PHRASE [1]</text><ellipse cx="284.18" cy="279.299" fill="#84BE84" rx="3" ry="3" style="stroke:#038048;stroke-width:1;"/><text fill="#000000" font-family="sans-serif" font-size="14" lengthAdjust="spacing" textLength="488.3323" x="293.18" y="283.161">constraint_binding( a_terminology_id : String [1], a_code : String [1] ) : String [1]</text></g></g></svg>
