<svg xmlns="http://www.w3.org/2000/svg" xmlns:xlink="http://www.w3.org/1999/xlink" contentStyleType="text/css" data-diagram-type="CLASS" height="405px" preserveAspectRatio="none" style="width:2326px;height:405px;background:#FFFFFF;" version="1.1" viewBox="0 0 2326 405" width="2326px" zoomAndPan="magnify"><defs/><g><!--class C_BOOLEAN--><g class="entity" data-entity="C_BOOLEAN" data-source-line="2" data-uid="ent0002" id="entity_C_BOOLEAN"><rect fill="#F1F1F1" height="98.3998" rx="2.5" ry="2.5" style="stroke:#181818;stroke-width:0.5;" width="217.1272" x="7" y="241"/><ellipse cx="70.9868" cy="257" fill="#ADD1B2" rx="11" ry="11" style="stroke:#181818;stroke-width:1;"/><path d="M70.9868,263.4219 C72.1586,263.4219 73.393,263.1563 74.768,262.5469 L74.2836,261.0313 C73.1899,261.4531 72.1743,261.6406 71.3149,261.6406 C68.5961,261.6406 66.8774,259.7969 66.8774,256.8906 C66.8774,254.1406 68.4399,252.5469 71.1743,252.5469 C72.0961,252.5469 73.1118,252.7344 74.2524,253.1563 L74.8305,251.6406 C73.7368,251.0625 72.4399,250.7656 71.2524,250.7656 C67.4868,250.7656 64.9086,253.4063 64.9086,257.2188 C64.9086,260.8906 67.393,263.4219 70.9868,263.4219 Z " fill="#000000"/><text fill="#000000" font-family="sans-serif" font-size="14" lengthAdjust="spacing" textLength="80.6537" x="91.4868" y="262.362">C_BOOLEAN</text><line style="stroke:#181818;stroke-width:0.5;" x1="8" x2="223.1272" y1="273" y2="273"/><ellipse cx="18" cy="286.9" fill="none" rx="3" ry="3" style="stroke:#038048;stroke-width:1;"/><text fill="#000000" font-family="sans-serif" font-size="14" lengthAdjust="spacing" textLength="141.3714" x="27" y="290.7619">true_valid : Boolean [1]</text><ellipse cx="18" cy="303.6999" fill="none" rx="3" ry="3" style="stroke:#038048;stroke-width:1;"/><text fill="#000000" font-family="sans-serif" font-size="14" lengthAdjust="spacing" textLength="145.5434" x="27" y="307.5619">false_valid : Boolean [1]</text><ellipse cx="18" cy="320.4998" fill="none" rx="3" ry="3" style="stroke:#038048;stroke-width:1;"/><text fill="#000000" font-family="sans-serif" font-size="14" lengthAdjust="spacing" textLength="191.1272" x="27" y="324.3618">assumed_value : Boolean [0..1]</text><line style="stroke:#181818;stroke-width:0.5;" x1="8" x2="223.1272" y1="331.3998" y2="331.3998"/></g><!--class C_STRING--><g class="entity" data-entity="C_STRING" data-source-line="8" data-uid="ent0003" id="entity_C_STRING"><rect fill="#F1F1F1" height="131.9996" rx="2.5" ry="2.5" style="stroke:#181818;stroke-width:0.5;" width="302.5409" x="259.29" y="224.2"/><ellipse cx="373.9986" cy="240.2" fill="#ADD1B2" rx="11" ry="11" style="stroke:#181818;stroke-width:1;"/><path d="M373.9986,246.6219 C375.1704,246.6219 376.4048,246.3563 377.7798,245.7469 L377.2954,244.2313 C376.2017,244.6531 375.1861,244.8406 374.3267,244.8406 C371.6079,244.8406 369.8892,242.9969 369.8892,240.0906 C369.8892,237.3406 371.4517,235.7469 374.1861,235.7469 C375.1079,235.7469 376.1236,235.9344 377.2642,236.3563 L377.8423,234.8406 C376.7486,234.2625 375.4517,233.9656 374.2642,233.9656 C370.4986,233.9656 367.9204,236.6063 367.9204,240.4188 C367.9204,244.0906 370.4048,246.6219 373.9986,246.6219 Z " fill="#000000"/><text fill="#000000" font-family="sans-serif" font-size="14" lengthAdjust="spacing" textLength="64.6237" x="394.4986" y="245.562">C_STRING</text><line style="stroke:#181818;stroke-width:0.5;" x1="260.29" x2="560.8309" y1="256.2" y2="256.2"/><ellipse cx="270.29" cy="270.1" fill="none" rx="3" ry="3" style="stroke:#038048;stroke-width:1;"/><text fill="#000000" font-family="sans-serif" font-size="14" lengthAdjust="spacing" textLength="127.6235" x="279.29" y="273.9619">pattern : String [0..1]</text><ellipse cx="270.29" cy="286.8999" fill="none" rx="3" ry="3" style="stroke:#038048;stroke-width:1;"/><text fill="#000000" font-family="sans-serif" font-size="14" lengthAdjust="spacing" textLength="123.8295" x="279.29" y="290.7619">list : List&lt;String&gt; [*]</text><ellipse cx="270.29" cy="303.6998" fill="none" rx="3" ry="3" style="stroke:#038048;stroke-width:1;"/><text fill="#000000" font-family="sans-serif" font-size="14" lengthAdjust="spacing" textLength="136.7795" x="279.29" y="307.5618">list_open : Boolean [1]</text><ellipse cx="270.29" cy="320.4997" fill="none" rx="3" ry="3" style="stroke:#038048;stroke-width:1;"/><text fill="#000000" font-family="sans-serif" font-size="14" lengthAdjust="spacing" textLength="177.4773" x="279.29" y="324.3617">assumed_value : String [0..1]</text><line style="stroke:#181818;stroke-width:0.5;" x1="260.29" x2="560.8309" y1="331.3997" y2="331.3997"/><ellipse cx="270.29" cy="345.2997" fill="#84BE84" rx="3" ry="3" style="stroke:#038048;stroke-width:1;"/><text fill="#000000" font-family="sans-serif" font-size="14" lengthAdjust="spacing" textLength="276.5409" x="279.29" y="349.1616">valid_value( a_value : String [1] ) : Boolean [1]</text></g><!--class C_INTEGER--><g class="entity" data-entity="C_INTEGER" data-source-line="16" data-uid="ent0004" id="entity_C_INTEGER"><rect fill="#F1F1F1" height="98.3998" rx="2.5" ry="2.5" style="stroke:#181818;stroke-width:0.5;" width="214.2573" x="596.43" y="241"/><ellipse cx="662.6918" cy="257" fill="#ADD1B2" rx="11" ry="11" style="stroke:#181818;stroke-width:1;"/><path d="M662.6918,263.4219 C663.8637,263.4219 665.098,263.1563 666.473,262.5469 L665.9887,261.0313 C664.8949,261.4531 663.8793,261.6406 663.0199,261.6406 C660.3012,261.6406 658.5824,259.7969 658.5824,256.8906 C658.5824,254.1406 660.1449,252.5469 662.8793,252.5469 C663.8012,252.5469 664.8168,252.7344 665.9574,253.1563 L666.5355,251.6406 C665.4418,251.0625 664.1449,250.7656 662.9574,250.7656 C659.1918,250.7656 656.6137,253.4063 656.6137,257.2188 C656.6137,260.8906 659.098,263.4219 662.6918,263.4219 Z " fill="#000000"/><text fill="#000000" font-family="sans-serif" font-size="14" lengthAdjust="spacing" textLength="73.2337" x="683.1918" y="262.362">C_INTEGER</text><line style="stroke:#181818;stroke-width:0.5;" x1="597.43" x2="809.6873" y1="273" y2="273"/><ellipse cx="607.43" cy="286.9" fill="none" rx="3" ry="3" style="stroke:#038048;stroke-width:1;"/><text fill="#000000" font-family="sans-serif" font-size="14" lengthAdjust="spacing" textLength="131.1655" x="616.43" y="290.7619">list : List&lt;Integer&gt; [*]</text><ellipse cx="607.43" cy="303.6999" fill="none" rx="3" ry="3" style="stroke:#038048;stroke-width:1;"/><text fill="#000000" font-family="sans-serif" font-size="14" lengthAdjust="spacing" textLength="188.2573" x="616.43" y="307.5619">range : Interval&lt;Integer&gt; [0..1]</text><ellipse cx="607.43" cy="320.4998" fill="none" rx="3" ry="3" style="stroke:#038048;stroke-width:1;"/><text fill="#000000" font-family="sans-serif" font-size="14" lengthAdjust="spacing" textLength="184.8132" x="616.43" y="324.3618">assumed_value : Integer [0..1]</text><line style="stroke:#181818;stroke-width:0.5;" x1="597.43" x2="809.6873" y1="331.3998" y2="331.3998"/></g><!--class C_REAL--><g class="entity" data-entity="C_REAL" data-source-line="22" data-uid="ent0005" id="entity_C_REAL"><rect fill="#F1F1F1" height="98.3998" rx="2.5" ry="2.5" style="stroke:#181818;stroke-width:0.5;" width="196.6173" x="845.25" y="241"/><ellipse cx="914.9418" cy="257" fill="#ADD1B2" rx="11" ry="11" style="stroke:#181818;stroke-width:1;"/><path d="M914.9418,263.4219 C916.1136,263.4219 917.348,263.1563 918.723,262.5469 L918.2386,261.0313 C917.1449,261.4531 916.1293,261.6406 915.2699,261.6406 C912.5511,261.6406 910.8324,259.7969 910.8324,256.8906 C910.8324,254.1406 912.3949,252.5469 915.1293,252.5469 C916.0511,252.5469 917.0668,252.7344 918.2074,253.1563 L918.7855,251.6406 C917.6918,251.0625 916.3949,250.7656 915.2074,250.7656 C911.4418,250.7656 908.8636,253.4063 908.8636,257.2188 C908.8636,260.8906 911.348,263.4219 914.9418,263.4219 Z " fill="#000000"/><text fill="#000000" font-family="sans-serif" font-size="14" lengthAdjust="spacing" textLength="48.7338" x="935.4418" y="262.362">C_REAL</text><line style="stroke:#181818;stroke-width:0.5;" x1="846.25" x2="1040.8673" y1="273" y2="273"/><ellipse cx="856.25" cy="286.9" fill="none" rx="3" ry="3" style="stroke:#038048;stroke-width:1;"/><text fill="#000000" font-family="sans-serif" font-size="14" lengthAdjust="spacing" textLength="113.5255" x="865.25" y="290.7619">list : List&lt;Real&gt; [*]</text><ellipse cx="856.25" cy="303.6999" fill="none" rx="3" ry="3" style="stroke:#038048;stroke-width:1;"/><text fill="#000000" font-family="sans-serif" font-size="14" lengthAdjust="spacing" textLength="170.6173" x="865.25" y="307.5619">range : Interval&lt;Real&gt; [0..1]</text><ellipse cx="856.25" cy="320.4998" fill="none" rx="3" ry="3" style="stroke:#038048;stroke-width:1;"/><text fill="#000000" font-family="sans-serif" font-size="14" lengthAdjust="spacing" textLength="167.1733" x="865.25" y="324.3618">assumed_value : Real [0..1]</text><line style="stroke:#181818;stroke-width:0.5;" x1="846.25" x2="1040.8673" y1="331.3998" y2="331.3998"/></g><!--class C_TIME--><g class="entity" data-entity="C_TIME" data-source-line="28" data-uid="ent0006" id="entity_C_TIME"><rect fill="#F1F1F1" height="165.5995" rx="2.5" ry="2.5" style="stroke:#181818;stroke-width:0.5;" width="290.5569" x="1077.29" y="207.4"/><ellipse cx="1194.3716" cy="223.4" fill="#ADD1B2" rx="11" ry="11" style="stroke:#181818;stroke-width:1;"/><path d="M1194.3716,229.8219 C1195.5434,229.8219 1196.7778,229.5562 1198.1528,228.9469 L1197.6684,227.4312 C1196.5747,227.8531 1195.5591,228.0406 1194.6997,228.0406 C1191.9809,228.0406 1190.2622,226.1969 1190.2622,223.2906 C1190.2622,220.5406 1191.8247,218.9469 1194.5591,218.9469 C1195.4809,218.9469 1196.4966,219.1344 1197.6372,219.5562 L1198.2153,218.0406 C1197.1216,217.4625 1195.8247,217.1656 1194.6372,217.1656 C1190.8716,217.1656 1188.2934,219.8062 1188.2934,223.6187 C1188.2934,227.2906 1190.7778,229.8219 1194.3716,229.8219 Z " fill="#000000"/><text fill="#000000" font-family="sans-serif" font-size="14" lengthAdjust="spacing" textLength="47.8938" x="1214.8716" y="228.762">C_TIME</text><line style="stroke:#181818;stroke-width:0.5;" x1="1078.29" x2="1366.8469" y1="239.4" y2="239.4"/><ellipse cx="1088.29" cy="253.3" fill="none" rx="3" ry="3" style="stroke:#038048;stroke-width:1;"/><text fill="#000000" font-family="sans-serif" font-size="14" lengthAdjust="spacing" textLength="237.243" x="1097.29" y="257.1619">minute_validity : VALIDITY_KIND [0..1]</text><ellipse cx="1088.29" cy="270.0999" fill="none" rx="3" ry="3" style="stroke:#038048;stroke-width:1;"/><text fill="#000000" font-family="sans-serif" font-size="14" lengthAdjust="spacing" textLength="237.481" x="1097.29" y="273.9619">second_validity : VALIDITY_KIND [0..1]</text><ellipse cx="1088.29" cy="286.8998" fill="none" rx="3" ry="3" style="stroke:#038048;stroke-width:1;"/><text fill="#000000" font-family="sans-serif" font-size="14" lengthAdjust="spacing" textLength="264.5569" x="1097.29" y="290.7618">millisecond_validity : VALIDITY_KIND [0..1]</text><ellipse cx="1088.29" cy="303.6997" fill="none" rx="3" ry="3" style="stroke:#038048;stroke-width:1;"/><text fill="#000000" font-family="sans-serif" font-size="14" lengthAdjust="spacing" textLength="251.257" x="1097.29" y="307.5617">timezone_validity : VALIDITY_KIND [0..1]</text><ellipse cx="1088.29" cy="320.4997" fill="none" rx="3" ry="3" style="stroke:#038048;stroke-width:1;"/><text fill="#000000" font-family="sans-serif" font-size="14" lengthAdjust="spacing" textLength="227.7511" x="1097.29" y="324.3616">range : Interval&lt;Iso8601_time&gt; [0..1]</text><ellipse cx="1088.29" cy="337.2996" fill="none" rx="3" ry="3" style="stroke:#038048;stroke-width:1;"/><text fill="#000000" font-family="sans-serif" font-size="14" lengthAdjust="spacing" textLength="224.3071" x="1097.29" y="341.1616">assumed_value : Iso8601_time [0..1]</text><line style="stroke:#181818;stroke-width:0.5;" x1="1078.29" x2="1366.8469" y1="348.1996" y2="348.1996"/><ellipse cx="1088.29" cy="362.0995" fill="#84BE84" rx="3" ry="3" style="stroke:#038048;stroke-width:1;"/><text fill="#000000" font-family="sans-serif" font-size="14" lengthAdjust="spacing" textLength="192.1772" x="1097.29" y="365.9615">validity_is_range() : Boolean [1]</text></g><!--class C_DATE--><g class="entity" data-entity="C_DATE" data-source-line="38" data-uid="ent0007" id="entity_C_DATE"><rect fill="#F1F1F1" height="115.1997" rx="2.5" ry="2.5" style="stroke:#181818;stroke-width:0.5;" width="260.4711" x="1403.33" y="232.6"/><ellipse cx="1503.8916" cy="248.6" fill="#ADD1B2" rx="11" ry="11" style="stroke:#181818;stroke-width:1;"/><path d="M1503.8916,255.0219 C1505.0635,255.0219 1506.2979,254.7563 1507.6729,254.1469 L1507.1885,252.6313 C1506.0948,253.0531 1505.0791,253.2406 1504.2198,253.2406 C1501.501,253.2406 1499.7823,251.3969 1499.7823,248.4906 C1499.7823,245.7406 1501.3448,244.1469 1504.0791,244.1469 C1505.001,244.1469 1506.0166,244.3344 1507.1573,244.7563 L1507.7354,243.2406 C1506.6416,242.6625 1505.3448,242.3656 1504.1573,242.3656 C1500.3916,242.3656 1497.8135,245.0063 1497.8135,248.8188 C1497.8135,252.4906 1500.2979,255.0219 1503.8916,255.0219 Z " fill="#000000"/><text fill="#000000" font-family="sans-serif" font-size="14" lengthAdjust="spacing" textLength="50.8478" x="1524.3916" y="253.962">C_DATE</text><line style="stroke:#181818;stroke-width:0.5;" x1="1404.33" x2="1662.8011" y1="264.6" y2="264.6"/><ellipse cx="1414.33" cy="278.5" fill="none" rx="3" ry="3" style="stroke:#038048;stroke-width:1;"/><text fill="#000000" font-family="sans-serif" font-size="14" lengthAdjust="spacing" textLength="215.0671" x="1423.33" y="282.3619">day_validity : VALIDITY_KIND [0..1]</text><ellipse cx="1414.33" cy="295.2999" fill="none" rx="3" ry="3" style="stroke:#038048;stroke-width:1;"/><text fill="#000000" font-family="sans-serif" font-size="14" lengthAdjust="spacing" textLength="234.4711" x="1423.33" y="299.1619">month_validity : VALIDITY_KIND [0..1]</text><ellipse cx="1414.33" cy="312.0998" fill="none" rx="3" ry="3" style="stroke:#038048;stroke-width:1;"/><text fill="#000000" font-family="sans-serif" font-size="14" lengthAdjust="spacing" textLength="227.0511" x="1423.33" y="315.9618">range : Interval&lt;Iso8601_date&gt; [0..1]</text><ellipse cx="1414.33" cy="328.8997" fill="none" rx="3" ry="3" style="stroke:#038048;stroke-width:1;"/><text fill="#000000" font-family="sans-serif" font-size="14" lengthAdjust="spacing" textLength="223.6071" x="1423.33" y="332.7617">assumed_value : Iso8601_date [0..1]</text><line style="stroke:#181818;stroke-width:0.5;" x1="1404.33" x2="1662.8011" y1="339.7997" y2="339.7997"/></g><!--class C_DATE_TIME--><g class="entity" data-entity="C_DATE_TIME" data-source-line="45" data-uid="ent0008" id="entity_C_DATE_TIME"><rect fill="#F1F1F1" height="215.9993" rx="2.5" ry="2.5" style="stroke:#181818;stroke-width:0.5;" width="290.5569" x="1699.29" y="182.2"/><ellipse cx="1795.4627" cy="198.2" fill="#ADD1B2" rx="11" ry="11" style="stroke:#181818;stroke-width:1;"/><path d="M1795.4627,204.6219 C1796.6345,204.6219 1797.8689,204.3563 1799.2439,203.7469 L1798.7595,202.2313 C1797.6658,202.6531 1796.6502,202.8406 1795.7908,202.8406 C1793.072,202.8406 1791.3533,200.9969 1791.3533,198.0906 C1791.3533,195.3406 1792.9158,193.7469 1795.6502,193.7469 C1796.572,193.7469 1797.5877,193.9344 1798.7283,194.3563 L1799.3064,192.8406 C1798.2127,192.2625 1796.9158,191.9656 1795.7283,191.9656 C1791.9627,191.9656 1789.3845,194.6063 1789.3845,198.4188 C1789.3845,202.0906 1791.8689,204.6219 1795.4627,204.6219 Z " fill="#000000"/><text fill="#000000" font-family="sans-serif" font-size="14" lengthAdjust="spacing" textLength="89.7116" x="1815.9627" y="203.562">C_DATE_TIME</text><line style="stroke:#181818;stroke-width:0.5;" x1="1700.29" x2="1988.8469" y1="214.2" y2="214.2"/><ellipse cx="1710.29" cy="228.1" fill="none" rx="3" ry="3" style="stroke:#038048;stroke-width:1;"/><text fill="#000000" font-family="sans-serif" font-size="14" lengthAdjust="spacing" textLength="234.4711" x="1719.29" y="231.9619">month_validity : VALIDITY_KIND [0..1]</text><ellipse cx="1710.29" cy="244.8999" fill="none" rx="3" ry="3" style="stroke:#038048;stroke-width:1;"/><text fill="#000000" font-family="sans-serif" font-size="14" lengthAdjust="spacing" textLength="215.0671" x="1719.29" y="248.7619">day_validity : VALIDITY_KIND [0..1]</text><ellipse cx="1710.29" cy="261.6998" fill="none" rx="3" ry="3" style="stroke:#038048;stroke-width:1;"/><text fill="#000000" font-family="sans-serif" font-size="14" lengthAdjust="spacing" textLength="222.1651" x="1719.29" y="265.5618">hour_validity : VALIDITY_KIND [0..1]</text><ellipse cx="1710.29" cy="278.4997" fill="none" rx="3" ry="3" style="stroke:#038048;stroke-width:1;"/><text fill="#000000" font-family="sans-serif" font-size="14" lengthAdjust="spacing" textLength="237.243" x="1719.29" y="282.3617">minute_validity : VALIDITY_KIND [0..1]</text><ellipse cx="1710.29" cy="295.2997" fill="none" rx="3" ry="3" style="stroke:#038048;stroke-width:1;"/><text fill="#000000" font-family="sans-serif" font-size="14" lengthAdjust="spacing" textLength="237.481" x="1719.29" y="299.1616">second_validity : VALIDITY_KIND [0..1]</text><ellipse cx="1710.29" cy="312.0996" fill="none" rx="3" ry="3" style="stroke:#038048;stroke-width:1;"/><text fill="#000000" font-family="sans-serif" font-size="14" lengthAdjust="spacing" textLength="264.5569" x="1719.29" y="315.9616">millisecond_validity : VALIDITY_KIND [0..1]</text><ellipse cx="1710.29" cy="328.8995" fill="none" rx="3" ry="3" style="stroke:#038048;stroke-width:1;"/><text fill="#000000" font-family="sans-serif" font-size="14" lengthAdjust="spacing" textLength="251.257" x="1719.29" y="332.7615">timezone_validity : VALIDITY_KIND [0..1]</text><ellipse cx="1710.29" cy="345.6995" fill="none" rx="3" ry="3" style="stroke:#038048;stroke-width:1;"/><text fill="#000000" font-family="sans-serif" font-size="14" lengthAdjust="spacing" textLength="262.345" x="1719.29" y="349.5614">range : Interval&lt;Iso8601_date_time&gt; [0..1]</text><ellipse cx="1710.29" cy="362.4994" fill="none" rx="3" ry="3" style="stroke:#038048;stroke-width:1;"/><text fill="#000000" font-family="sans-serif" font-size="14" lengthAdjust="spacing" textLength="258.9009" x="1719.29" y="366.3614">assumed_value : Iso8601_date_time [0..1]</text><line style="stroke:#181818;stroke-width:0.5;" x1="1700.29" x2="1988.8469" y1="373.3993" y2="373.3993"/><ellipse cx="1710.29" cy="387.2993" fill="#84BE84" rx="3" ry="3" style="stroke:#038048;stroke-width:1;"/><text fill="#000000" font-family="sans-serif" font-size="14" lengthAdjust="spacing" textLength="192.1772" x="1719.29" y="391.1613">validity_is_range() : Boolean [1]</text></g><!--class C_DURATION--><g class="entity" data-entity="C_DURATION" data-source-line="58" data-uid="ent0009" id="entity_C_DURATION"><rect fill="#F1F1F1" height="215.9993" rx="2.5" ry="2.5" style="stroke:#181818;stroke-width:0.5;" width="294.575" x="2025.28" y="182.2"/><ellipse cx="2125.5056" cy="198.2" fill="#ADD1B2" rx="11" ry="11" style="stroke:#181818;stroke-width:1;"/><path d="M2125.5056,204.6219 C2126.6775,204.6219 2127.9119,204.3563 2129.2869,203.7469 L2128.8025,202.2313 C2127.7088,202.6531 2126.6931,202.8406 2125.8338,202.8406 C2123.115,202.8406 2121.3963,200.9969 2121.3963,198.0906 C2121.3963,195.3406 2122.9588,193.7469 2125.6931,193.7469 C2126.615,193.7469 2127.6306,193.9344 2128.7713,194.3563 L2129.3494,192.8406 C2128.2556,192.2625 2126.9588,191.9656 2125.7713,191.9656 C2122.0056,191.9656 2119.4275,194.6063 2119.4275,198.4188 C2119.4275,202.0906 2121.9119,204.6219 2125.5056,204.6219 Z " fill="#000000"/><text fill="#000000" font-family="sans-serif" font-size="14" lengthAdjust="spacing" textLength="85.6237" x="2146.0056" y="203.562">C_DURATION</text><line style="stroke:#181818;stroke-width:0.5;" x1="2026.28" x2="2318.855" y1="214.2" y2="214.2"/><ellipse cx="2036.28" cy="228.1" fill="none" rx="3" ry="3" style="stroke:#038048;stroke-width:1;"/><text fill="#000000" font-family="sans-serif" font-size="14" lengthAdjust="spacing" textLength="184.6732" x="2045.28" y="231.9619">years_allowed : Boolean [0..1]</text><ellipse cx="2036.28" cy="244.8999" fill="none" rx="3" ry="3" style="stroke:#038048;stroke-width:1;"/><text fill="#000000" font-family="sans-serif" font-size="14" lengthAdjust="spacing" textLength="199.3872" x="2045.28" y="248.7619">months_allowed : Boolean [0..1]</text><ellipse cx="2036.28" cy="261.6998" fill="none" rx="3" ry="3" style="stroke:#038048;stroke-width:1;"/><text fill="#000000" font-family="sans-serif" font-size="14" lengthAdjust="spacing" textLength="190.8332" x="2045.28" y="265.5618">weeks_allowed : Boolean [0..1]</text><ellipse cx="2036.28" cy="278.4997" fill="none" rx="3" ry="3" style="stroke:#038048;stroke-width:1;"/><text fill="#000000" font-family="sans-serif" font-size="14" lengthAdjust="spacing" textLength="179.9833" x="2045.28" y="282.3617">days_allowed : Boolean [0..1]</text><ellipse cx="2036.28" cy="295.2997" fill="none" rx="3" ry="3" style="stroke:#038048;stroke-width:1;"/><text fill="#000000" font-family="sans-serif" font-size="14" lengthAdjust="spacing" textLength="187.0813" x="2045.28" y="299.1616">hours_allowed : Boolean [0..1]</text><ellipse cx="2036.28" cy="312.0996" fill="none" rx="3" ry="3" style="stroke:#038048;stroke-width:1;"/><text fill="#000000" font-family="sans-serif" font-size="14" lengthAdjust="spacing" textLength="202.1592" x="2045.28" y="315.9616">minutes_allowed : Boolean [0..1]</text><ellipse cx="2036.28" cy="328.8995" fill="none" rx="3" ry="3" style="stroke:#038048;stroke-width:1;"/><text fill="#000000" font-family="sans-serif" font-size="14" lengthAdjust="spacing" textLength="202.3972" x="2045.28" y="332.7615">seconds_allowed : Boolean [0..1]</text><ellipse cx="2036.28" cy="345.6995" fill="none" rx="3" ry="3" style="stroke:#038048;stroke-width:1;"/><text fill="#000000" font-family="sans-serif" font-size="14" lengthAdjust="spacing" textLength="268.575" x="2045.28" y="349.5614">fractional_seconds_allowed : Boolean [0..1]</text><ellipse cx="2036.28" cy="362.4994" fill="none" rx="3" ry="3" style="stroke:#038048;stroke-width:1;"/><text fill="#000000" font-family="sans-serif" font-size="14" lengthAdjust="spacing" textLength="252.069" x="2045.28" y="366.3614">range : Interval&lt;Iso8601_duration&gt; [0..1]</text><ellipse cx="2036.28" cy="379.2993" fill="none" rx="3" ry="3" style="stroke:#038048;stroke-width:1;"/><text fill="#000000" font-family="sans-serif" font-size="14" lengthAdjust="spacing" textLength="248.625" x="2045.28" y="383.1613">assumed_value : Iso8601_duration [0..1]</text><line style="stroke:#181818;stroke-width:0.5;" x1="2026.28" x2="2318.855" y1="390.1993" y2="390.1993"/></g><!--class C_PRIMITIVE--><g class="entity" data-entity="C_PRIMITIVE" data-source-line="71" data-uid="ent0010" id="entity_C_PRIMITIVE"><rect fill="#F1F1F1" height="115.1997" rx="2.5" ry="2.5" style="stroke:#181818;stroke-width:0.5;" width="288.5269" x="938.3" y="7"/><ellipse cx="1037.9376" cy="23" fill="#A9DCDF" rx="11" ry="11" style="stroke:#181818;stroke-width:1;"/><path d="M1032.4532,28.5 L1034.4845,28.5 L1038.5314,17.1563 L1037.6251,17.1563 L1041.4532,28.5 L1043.5939,28.5 L1039.2657,16.1719 L1037.047,16.1719 L1032.4532,28.5 Z M1034.7814,25 L1041.2189,25 L1041.2189,23.25 L1034.7814,23.25 L1034.7814,25 Z " fill="#000000"/><text fill="#000000" font-family="sans-serif" font-size="14" font-style="italic" lengthAdjust="spacing" textLength="80.7517" x="1058.4376" y="28.362">C_PRIMITIVE</text><line style="stroke:#181818;stroke-width:0.5;" x1="939.3" x2="1225.8269" y1="39" y2="39"/><ellipse cx="949.3" cy="52.9" fill="none" rx="3" ry="3" style="stroke:#038048;stroke-width:1;"/><text fill="#000000" font-family="sans-serif" font-size="14" lengthAdjust="spacing" textLength="163.4633" x="958.3" y="56.7619">assumed_value : Any [0..1]</text><line style="stroke:#181818;stroke-width:0.5;" x1="939.3" x2="1225.8269" y1="63.7999" y2="63.7999"/><ellipse cx="949.3" cy="77.6999" fill="#84BE84" rx="3" ry="3" style="stroke:#038048;stroke-width:1;"/><text fill="#000000" font-family="sans-serif" font-size="14" font-style="italic" lengthAdjust="spacing" textLength="144.4374" x="958.3" y="81.5619">default_value() : Any [1]</text><ellipse cx="949.3" cy="94.4998" fill="#84BE84" rx="3" ry="3" style="stroke:#038048;stroke-width:1;"/><text fill="#000000" font-family="sans-serif" font-size="14" font-style="italic" lengthAdjust="spacing" textLength="212.3931" x="958.3" y="98.3618">has_assumed_value() : Boolean [1]</text><ellipse cx="949.3" cy="111.2997" fill="#84BE84" rx="3" ry="3" style="stroke:#038048;stroke-width:1;"/><text fill="#000000" font-family="sans-serif" font-size="14" font-style="italic" lengthAdjust="spacing" textLength="262.5269" x="958.3" y="115.1617">valid_value( a_value : Any [1] ) : Boolean [1]</text></g><!--reverse link C_PRIMITIVE to C_BOOLEAN--><g class="link" data-entity-1="C_PRIMITIVE" data-entity-2="C_BOOLEAN" data-source-line="78" data-uid="lnk11" id="link_C_PRIMITIVE_C_BOOLEAN"><path codeLine="78" d="M920.0058,77.2761 C713.3258,93.5861 362.98,127.85 241.56,182.2 C211.05,195.86 182.21,219.25 159.85,240.68" fill="none" id="C_PRIMITIVE-backto-C_BOOLEAN" style="stroke:#181818;stroke-width:1;"/><polygon fill="none" points="937.95,75.86,919.5338,71.2946,920.4778,83.2575,937.95,75.86" style="stroke:#181818;stroke-width:1;"/></g><!--reverse link C_PRIMITIVE to C_STRING--><g class="link" data-entity-1="C_PRIMITIVE" data-entity-2="C_STRING" data-source-line="79" data-uid="lnk12" id="link_C_PRIMITIVE_C_STRING"><path codeLine="79" d="M920.1235,88.68 C817.1235,106.15 694.72,133.47 578.56,182.2 C552.1,193.3 525.13,208.46 500.78,223.86" fill="none" id="C_PRIMITIVE-backto-C_STRING" style="stroke:#181818;stroke-width:1;"/><polygon fill="none" points="937.87,85.67,919.1201,82.7645,921.1268,94.5955,937.87,85.67" style="stroke:#181818;stroke-width:1;"/></g><!--reverse link C_PRIMITIVE to C_INTEGER--><g class="link" data-entity-1="C_PRIMITIVE" data-entity-2="C_INTEGER" data-source-line="80" data-uid="lnk13" id="link_C_PRIMITIVE_C_INTEGER"><path codeLine="80" d="M922.827,130.0701 C885.367,147.2401 862.19,159.99 827.56,182.2 C801.36,199.01 774.88,221.02 753.16,240.7" fill="none" id="C_PRIMITIVE-backto-C_INTEGER" style="stroke:#181818;stroke-width:1;"/><polygon fill="none" points="939.19,122.57,920.3269,124.6157,925.327,135.5244,939.19,122.57" style="stroke:#181818;stroke-width:1;"/></g><!--reverse link C_PRIMITIVE to C_REAL--><g class="link" data-entity-1="C_PRIMITIVE" data-entity-2="C_REAL" data-source-line="81" data-uid="lnk14" id="link_C_PRIMITIVE_C_REAL"><path codeLine="81" d="M1037.6281,137.8877 C1014.9481,174.3777 995.33,205.92 973.75,240.64" fill="none" id="C_PRIMITIVE-backto-C_REAL" style="stroke:#181818;stroke-width:1;"/><polygon fill="none" points="1047.13,122.6,1032.5322,134.7204,1042.724,141.055,1047.13,122.6" style="stroke:#181818;stroke-width:1;"/></g><!--reverse link C_PRIMITIVE to C_TIME--><g class="link" data-entity-1="C_PRIMITIVE" data-entity-2="C_TIME" data-source-line="82" data-uid="lnk15" id="link_C_PRIMITIVE_C_TIME"><path codeLine="82" d="M1127.8018,137.8566 C1143.8418,163.4766 1153.53,178.94 1171.09,206.98" fill="none" id="C_PRIMITIVE-backto-C_TIME" style="stroke:#181818;stroke-width:1;"/><polygon fill="none" points="1118.25,122.6,1122.7162,141.0405,1132.8873,134.6727,1118.25,122.6" style="stroke:#181818;stroke-width:1;"/></g><!--reverse link C_PRIMITIVE to C_DATE--><g class="link" data-entity-1="C_PRIMITIVE" data-entity-2="C_DATE" data-source-line="83" data-uid="lnk16" id="link_C_PRIMITIVE_C_DATE"><path codeLine="83" d="M1243.9,118.7432 C1295.25,137.6632 1335.76,155.21 1385.56,182.2 C1411.91,196.48 1438.97,214.79 1462.63,232.22" fill="none" id="C_PRIMITIVE-backto-C_DATE" style="stroke:#181818;stroke-width:1;"/><polygon fill="none" points="1227.01,112.52,1241.8256,124.3732,1245.9744,113.1132,1227.01,112.52" style="stroke:#181818;stroke-width:1;"/></g><!--reverse link C_PRIMITIVE to C_DATE_TIME--><g class="link" data-entity-1="C_PRIMITIVE" data-entity-2="C_DATE_TIME" data-source-line="84" data-uid="lnk17" id="link_C_PRIMITIVE_C_DATE_TIME"><path codeLine="84" d="M1245.003,79.9291 C1369.193,94.1591 1533.27,121.84 1681.56,182.2 C1687.36,184.56 1693.18,187.14 1698.97,189.89" fill="none" id="C_PRIMITIVE-backto-C_DATE_TIME" style="stroke:#181818;stroke-width:1;"/><polygon fill="none" points="1227.12,77.88,1244.32,85.8901,1245.686,73.9681,1227.12,77.88" style="stroke:#181818;stroke-width:1;"/></g><!--reverse link C_PRIMITIVE to C_DURATION--><g class="link" data-entity-1="C_PRIMITIVE" data-entity-2="C_DURATION" data-source-line="85" data-uid="lnk18" id="link_C_PRIMITIVE_C_DURATION"><path codeLine="85" d="M1245.2165,77.3062 C1468.4165,94.5462 1867.6,131.06 2007.56,182.2 C2013.34,184.31 2019.11,186.65 2024.86,189.18" fill="none" id="C_PRIMITIVE-backto-C_DURATION" style="stroke:#181818;stroke-width:1;"/><polygon fill="none" points="1227.27,75.92,1244.7545,83.2884,1245.6786,71.324,1227.27,75.92" style="stroke:#181818;stroke-width:1;"/></g></g></svg>
