<svg xmlns="http://www.w3.org/2000/svg" xmlns:xlink="http://www.w3.org/1999/xlink" contentStyleType="text/css" data-diagram-type="CLASS" height="513px" preserveAspectRatio="none" style="width:539px;height:513px;background:#FFFFFF;" version="1.1" viewBox="0 0 539 513" width="539px" zoomAndPan="magnify"><defs/><g><!--class COMPOSITION--><g class="entity" data-entity="COMPOSITION" data-source-line="2" data-uid="ent0002" id="entity_COMPOSITION"><rect fill="#F1F1F1" height="165.5995" rx="2.5" ry="2.5" style="stroke:#181818;stroke-width:0.5;" width="244.9171" x="7" y="340.6"/><ellipse cx="77.7698" cy="356.6" fill="#ADD1B2" rx="11" ry="11" style="stroke:#181818;stroke-width:1;"/><path d="M77.7698,363.0219 C78.9416,363.0219 80.176,362.7562 81.551,362.1469 L81.0666,360.6312 C79.9729,361.0531 78.9573,361.2406 78.0979,361.2406 C75.3791,361.2406 73.6604,359.3969 73.6604,356.4906 C73.6604,353.7406 75.2229,352.1469 77.9573,352.1469 C78.8791,352.1469 79.8948,352.3344 81.0354,352.7562 L81.6135,351.2406 C80.5198,350.6625 79.2229,350.3656 78.0354,350.3656 C74.2698,350.3656 71.6916,353.0062 71.6916,356.8187 C71.6916,360.4906 74.176,363.0219 77.7698,363.0219 Z " fill="#000000"/><text fill="#000000" font-family="sans-serif" font-size="14" lengthAdjust="spacing" textLength="94.8776" x="98.2698" y="361.962">COMPOSITION</text><line style="stroke:#181818;stroke-width:0.5;" x1="8" x2="250.9171" y1="372.6" y2="372.6"/><ellipse cx="18" cy="386.5" fill="none" rx="3" ry="3" style="stroke:#038048;stroke-width:1;"/><text fill="#000000" font-family="sans-serif" font-size="14" lengthAdjust="spacing" textLength="182.3913" x="27" y="390.3619">language : CODE_PHRASE [1]</text><ellipse cx="18" cy="403.2999" fill="none" rx="3" ry="3" style="stroke:#038048;stroke-width:1;"/><text fill="#000000" font-family="sans-serif" font-size="14" lengthAdjust="spacing" textLength="176.4973" x="27" y="407.1619">territory : CODE_PHRASE [1]</text><ellipse cx="18" cy="420.0998" fill="none" rx="3" ry="3" style="stroke:#038048;stroke-width:1;"/><text fill="#000000" font-family="sans-serif" font-size="14" lengthAdjust="spacing" textLength="195.1312" x="27" y="423.9618">category : DV_CODED_TEXT [1]</text><ellipse cx="18" cy="436.8997" fill="none" rx="3" ry="3" style="stroke:#038048;stroke-width:1;"/><text fill="#000000" font-family="sans-serif" font-size="14" lengthAdjust="spacing" textLength="203.5452" x="27" y="440.7617">context : EVENT_CONTEXT [0..1]</text><ellipse cx="18" cy="453.6997" fill="none" rx="3" ry="3" style="stroke:#038048;stroke-width:1;"/><text fill="#000000" font-family="sans-serif" font-size="14" lengthAdjust="spacing" textLength="183.3152" x="27" y="457.5616">composer : PARTY_PROXY [1]</text><ellipse cx="18" cy="470.4996" fill="none" rx="3" ry="3" style="stroke:#038048;stroke-width:1;"/><text fill="#000000" font-family="sans-serif" font-size="14" lengthAdjust="spacing" textLength="218.9171" x="27" y="474.3616">content : List&lt;CONTENT_ITEM&gt; [*]</text><line style="stroke:#181818;stroke-width:0.5;" x1="8" x2="250.9171" y1="481.3996" y2="481.3996"/><ellipse cx="18" cy="495.2995" fill="#84BE84" rx="3" ry="3" style="stroke:#038048;stroke-width:1;"/><text fill="#000000" font-family="sans-serif" font-size="14" lengthAdjust="spacing" textLength="167.5374" x="27" y="499.1615">is_persistent() : Boolean [1]</text></g><!--class LOCATABLE--><g class="entity" data-entity="LOCATABLE" data-source-line="12" data-uid="ent0003" id="entity_LOCATABLE"><rect fill="#F5F5F5" height="48" rx="2.5" ry="2.5" style="stroke:#808080;stroke-width:1;stroke-dasharray:1,3;" width="108.2857" x="75.32" y="173.8"/><ellipse cx="90.32" cy="189.8" fill="#A9DCDF" rx="11" ry="11" style="stroke:#181818;stroke-width:1;"/><path d="M84.8356,195.3 L86.8669,195.3 L90.9138,183.9563 L90.0075,183.9563 L93.8356,195.3 L95.9763,195.3 L91.6481,182.9719 L89.4294,182.9719 L84.8356,195.3 Z M87.1638,191.8 L93.6013,191.8 L93.6013,190.05 L87.1638,190.05 L87.1638,191.8 Z " fill="#000000"/><text fill="#808080" font-family="sans-serif" font-size="14" font-style="italic" lengthAdjust="spacing" textLength="76.2857" x="104.32" y="195.162">LOCATABLE</text><line style="stroke:#808080;stroke-width:1;stroke-dasharray:1,3;" x1="76.32" x2="182.6057" y1="205.8" y2="205.8"/><line style="stroke:#808080;stroke-width:1;stroke-dasharray:1,3;" x1="76.32" x2="182.6057" y1="213.8" y2="213.8"/></g><!--class EVENT_CONTEXT--><g class="entity" data-entity="EVENT_CONTEXT" data-source-line="15" data-uid="ent0004" id="entity_EVENT_CONTEXT"><rect fill="#F1F1F1" height="165.5995" rx="2.5" ry="2.5" style="stroke:#181818;stroke-width:0.5;" width="313.6148" x="218.65" y="115"/><ellipse cx="314.8296" cy="131" fill="#ADD1B2" rx="11" ry="11" style="stroke:#181818;stroke-width:1;"/><path d="M314.8296,137.4219 C316.0015,137.4219 317.2359,137.1563 318.6109,136.5469 L318.1265,135.0313 C317.0328,135.4531 316.0171,135.6406 315.1578,135.6406 C312.439,135.6406 310.7203,133.7969 310.7203,130.8906 C310.7203,128.1406 312.2828,126.5469 315.0171,126.5469 C315.939,126.5469 316.9546,126.7344 318.0953,127.1563 L318.6734,125.6406 C317.5796,125.0625 316.2828,124.7656 315.0953,124.7656 C311.3296,124.7656 308.7515,127.4063 308.7515,131.2188 C308.7515,134.8906 311.2359,137.4219 314.8296,137.4219 Z " fill="#000000"/><text fill="#000000" font-family="sans-serif" font-size="14" lengthAdjust="spacing" textLength="112.7555" x="335.3296" y="136.362">EVENT_CONTEXT</text><line style="stroke:#181818;stroke-width:0.5;" x1="219.65" x2="531.2648" y1="147" y2="147"/><ellipse cx="229.65" cy="160.9" fill="none" rx="3" ry="3" style="stroke:#038048;stroke-width:1;"/><text fill="#000000" font-family="sans-serif" font-size="14" lengthAdjust="spacing" textLength="191.9672" x="238.65" y="164.7619">start_time : DV_DATE_TIME [1]</text><ellipse cx="229.65" cy="177.6999" fill="none" rx="3" ry="3" style="stroke:#038048;stroke-width:1;"/><text fill="#000000" font-family="sans-serif" font-size="14" lengthAdjust="spacing" textLength="201.9912" x="238.65" y="181.5619">end_time : DV_DATE_TIME [0..1]</text><ellipse cx="229.65" cy="194.4998" fill="none" rx="3" ry="3" style="stroke:#038048;stroke-width:1;"/><text fill="#000000" font-family="sans-serif" font-size="14" lengthAdjust="spacing" textLength="131.6555" x="238.65" y="198.3618">location : String [0..1]</text><ellipse cx="229.65" cy="211.2997" fill="none" rx="3" ry="3" style="stroke:#038048;stroke-width:1;"/><text fill="#000000" font-family="sans-serif" font-size="14" lengthAdjust="spacing" textLength="184.4213" x="238.65" y="215.1617">setting : DV_CODED_TEXT [1]</text><ellipse cx="229.65" cy="228.0997" fill="none" rx="3" ry="3" style="stroke:#038048;stroke-width:1;"/><text fill="#000000" font-family="sans-serif" font-size="14" lengthAdjust="spacing" textLength="247.1971" x="238.65" y="231.9616">other_context : ITEM_STRUCTURE [0..1]</text><ellipse cx="229.65" cy="244.8996" fill="none" rx="3" ry="3" style="stroke:#038048;stroke-width:1;"/><text fill="#000000" font-family="sans-serif" font-size="14" lengthAdjust="spacing" textLength="287.6148" x="238.65" y="248.7616">health_care_facility : PARTY_IDENTIFIED [0..1]</text><ellipse cx="229.65" cy="261.6995" fill="none" rx="3" ry="3" style="stroke:#038048;stroke-width:1;"/><text fill="#000000" font-family="sans-serif" font-size="14" lengthAdjust="spacing" textLength="252.419" x="238.65" y="265.5615">participations : List&lt;PARTICIPATION&gt; [*]</text><line style="stroke:#181818;stroke-width:0.5;" x1="219.65" x2="531.2648" y1="272.5995" y2="272.5995"/></g><!--class PATHABLE--><g class="entity" data-entity="PATHABLE" data-source-line="25" data-uid="ent0005" id="entity_PATHABLE"><rect fill="#F5F5F5" height="48" rx="2.5" ry="2.5" style="stroke:#808080;stroke-width:1;stroke-dasharray:1,3;" width="99.8857" x="202.52" y="7"/><ellipse cx="217.52" cy="23" fill="#A9DCDF" rx="11" ry="11" style="stroke:#181818;stroke-width:1;"/><path d="M212.0356,28.5 L214.0669,28.5 L218.1138,17.1563 L217.2075,17.1563 L221.0356,28.5 L223.1763,28.5 L218.8481,16.1719 L216.6294,16.1719 L212.0356,28.5 Z M214.3638,25 L220.8013,25 L220.8013,23.25 L214.3638,23.25 L214.3638,25 Z " fill="#000000"/><text fill="#808080" font-family="sans-serif" font-size="14" font-style="italic" lengthAdjust="spacing" textLength="67.8857" x="231.52" y="28.362">PATHABLE</text><line style="stroke:#808080;stroke-width:1;stroke-dasharray:1,3;" x1="203.52" x2="301.4057" y1="39" y2="39"/><line style="stroke:#808080;stroke-width:1;stroke-dasharray:1,3;" x1="203.52" x2="301.4057" y1="47" y2="47"/></g><!--reverse link LOCATABLE to COMPOSITION--><g class="link" data-entity-1="LOCATABLE" data-entity-2="COMPOSITION" data-source-line="28" data-uid="lnk6" id="link_LOCATABLE_COMPOSITION"><path codeLine="28" d="M129.46,239.89 C129.46,267.73 129.46,298.05 129.46,340.28" fill="none" id="LOCATABLE-backto-COMPOSITION" style="stroke:#181818;stroke-width:1;"/><polygon fill="none" points="129.46,221.89,123.46,239.89,135.46,239.89,129.46,221.89" style="stroke:#181818;stroke-width:1;"/></g><!--reverse link PATHABLE to LOCATABLE--><g class="link" data-entity-1="PATHABLE" data-entity-2="LOCATABLE" data-source-line="29" data-uid="lnk7" id="link_PATHABLE_LOCATABLE"><path codeLine="29" d="M224.3324,69.6843 C200.9524,101.0043 170.36,142 146.93,173.39" fill="none" id="PATHABLE-backto-LOCATABLE" style="stroke:#181818;stroke-width:1;"/><polygon fill="none" points="235.1,55.26,219.5244,66.0951,229.1405,73.2735,235.1,55.26" style="stroke:#181818;stroke-width:1;"/></g><!--reverse link PATHABLE to EVENT_CONTEXT--><g class="link" data-entity-1="PATHABLE" data-entity-2="EVENT_CONTEXT" data-source-line="30" data-uid="lnk8" id="link_PATHABLE_EVENT_CONTEXT"><path codeLine="30" d="M280.5849,69.6863 C292.3749,85.4863 297.97,92.98 314.29,114.85" fill="none" id="PATHABLE-backto-EVENT_CONTEXT" style="stroke:#181818;stroke-width:1;"/><polygon fill="none" points="269.82,55.26,275.7762,73.2746,285.3937,66.098,269.82,55.26" style="stroke:#181818;stroke-width:1;"/></g></g></svg>
