<svg xmlns="http://www.w3.org/2000/svg" xmlns:xlink="http://www.w3.org/1999/xlink" contentStyleType="text/css" data-diagram-type="CLASS" height="186px" preserveAspectRatio="none" style="width:187px;height:186px;background:#FFFFFF;" version="1.1" viewBox="0 0 187 186" width="187px" zoomAndPan="magnify"><defs/><g><!--class DATA_STRUCTURE--><g class="entity" data-entity="DATA_STRUCTURE" data-source-line="2" data-uid="ent0002" id="entity_DATA_STRUCTURE"><rect fill="#F1F1F1" height="64.7999" rx="2.5" ry="2.5" style="stroke:#181818;stroke-width:0.5;" width="173.1954" x="7" y="115"/><ellipse cx="31.8307" cy="131" fill="#A9DCDF" rx="11" ry="11" style="stroke:#181818;stroke-width:1;"/><path d="M26.3463,136.5 L28.3775,136.5 L32.4244,125.1563 L31.5182,125.1563 L35.3463,136.5 L37.4869,136.5 L33.1588,124.1719 L30.94,124.1719 L26.3463,136.5 Z M28.6744,133 L35.1119,133 L35.1119,131.25 L28.6744,131.25 L28.6744,133 Z " fill="#000000"/><text fill="#000000" font-family="sans-serif" font-size="14" font-style="italic" lengthAdjust="spacing" textLength="119.3495" x="48.0153" y="136.362">DATA_STRUCTURE</text><line style="stroke:#181818;stroke-width:0.5;" x1="8" x2="179.1954" y1="147" y2="147"/><line style="stroke:#181818;stroke-width:0.5;" x1="8" x2="179.1954" y1="155" y2="155"/><ellipse cx="18" cy="168.9" fill="#84BE84" rx="3" ry="3" style="stroke:#038048;stroke-width:1;"/><text fill="#000000" font-family="sans-serif" font-size="14" lengthAdjust="spacing" textLength="147.1954" x="27" y="172.7619">as_hierarchy() : ITEM [1]</text></g><!--class LOCATABLE--><g class="entity" data-entity="LOCATABLE" data-source-line="6" data-uid="ent0003" id="entity_LOCATABLE"><rect fill="#F5F5F5" height="48" rx="2.5" ry="2.5" style="stroke:#808080;stroke-width:1;stroke-dasharray:1,3;" width="108.2857" x="39.45" y="7"/><ellipse cx="54.45" cy="23" fill="#A9DCDF" rx="11" ry="11" style="stroke:#181818;stroke-width:1;"/><path d="M48.9656,28.5 L50.9969,28.5 L55.0438,17.1563 L54.1375,17.1563 L57.9656,28.5 L60.1063,28.5 L55.7781,16.1719 L53.5594,16.1719 L48.9656,28.5 Z M51.2938,25 L57.7313,25 L57.7313,23.25 L51.2938,23.25 L51.2938,25 Z " fill="#000000"/><text fill="#808080" font-family="sans-serif" font-size="14" font-style="italic" lengthAdjust="spacing" textLength="76.2857" x="68.45" y="28.362">LOCATABLE</text><line style="stroke:#808080;stroke-width:1;stroke-dasharray:1,3;" x1="40.45" x2="146.7357" y1="39" y2="39"/><line style="stroke:#808080;stroke-width:1;stroke-dasharray:1,3;" x1="40.45" x2="146.7357" y1="47" y2="47"/></g><!--reverse link LOCATABLE to DATA_STRUCTURE--><g class="link" data-entity-1="LOCATABLE" data-entity-2="DATA_STRUCTURE" data-source-line="9" data-uid="lnk4" id="link_LOCATABLE_DATA_STRUCTURE"><path codeLine="9" d="M93.6,73.43 C93.6,90.55 93.6,95.97 93.6,114.76" fill="none" id="LOCATABLE-backto-DATA_STRUCTURE" style="stroke:#181818;stroke-width:1;"/><polygon fill="none" points="93.6,55.43,87.6,73.43,99.6,73.43,93.6,55.43" style="stroke:#181818;stroke-width:1;"/></g></g></svg>
