<svg xmlns="http://www.w3.org/2000/svg" xmlns:xlink="http://www.w3.org/1999/xlink" contentStyleType="text/css" data-diagram-type="CLASS" height="405px" preserveAspectRatio="none" style="width:1408px;height:405px;background:#FFFFFF;" version="1.1" viewBox="0 0 1408 405" width="1408px" zoomAndPan="magnify"><defs/><g><!--class EHR--><g class="entity" data-entity="EHR" data-source-line="2" data-uid="ent0002" id="entity_EHR"><rect fill="#F1F1F1" height="215.9993" rx="2.5" ry="2.5" style="stroke:#181818;stroke-width:0.5;" width="259.0291" x="7" y="7"/><ellipse cx="118.7896" cy="23" fill="#ADD1B2" rx="11" ry="11" style="stroke:#181818;stroke-width:1;"/><path d="M118.7896,29.4219 C119.9615,29.4219 121.1958,29.1563 122.5708,28.5469 L122.0865,27.0313 C120.9927,27.4531 119.9771,27.6406 119.1177,27.6406 C116.399,27.6406 114.6802,25.7969 114.6802,22.8906 C114.6802,20.1406 116.2427,18.5469 118.9771,18.5469 C119.899,18.5469 120.9146,18.7344 122.0552,19.1563 L122.6333,17.6406 C121.5396,17.0625 120.2427,16.7656 119.0552,16.7656 C115.2896,16.7656 112.7115,19.4063 112.7115,23.2188 C112.7115,26.8906 115.1958,29.4219 118.7896,29.4219 Z " fill="#000000"/><text fill="#000000" font-family="sans-serif" font-size="14" lengthAdjust="spacing" textLength="26.9499" x="139.2896" y="28.362">EHR</text><line style="stroke:#181818;stroke-width:0.5;" x1="8" x2="265.0291" y1="39" y2="39"/><ellipse cx="18" cy="52.9" fill="none" rx="3" ry="3" style="stroke:#038048;stroke-width:1;"/><text fill="#000000" font-family="sans-serif" font-size="14" lengthAdjust="spacing" textLength="200.0732" x="27" y="56.7619">system_id : HIER_OBJECT_ID [1]</text><ellipse cx="18" cy="69.6999" fill="none" rx="3" ry="3" style="stroke:#038048;stroke-width:1;"/><text fill="#000000" font-family="sans-serif" font-size="14" lengthAdjust="spacing" textLength="176.1193" x="27" y="73.5619">ehr_id : HIER_OBJECT_ID [1]</text><ellipse cx="18" cy="86.4998" fill="none" rx="3" ry="3" style="stroke:#038048;stroke-width:1;"/><text fill="#000000" font-family="sans-serif" font-size="14" lengthAdjust="spacing" textLength="232.2591" x="27" y="90.3618">contributions : List&lt;OBJECT_REF&gt; [*]</text><ellipse cx="18" cy="103.2997" fill="none" rx="3" ry="3" style="stroke:#038048;stroke-width:1;"/><text fill="#000000" font-family="sans-serif" font-size="14" lengthAdjust="spacing" textLength="176.1333" x="27" y="107.1617">ehr_status : OBJECT_REF [1]</text><ellipse cx="18" cy="120.0997" fill="none" rx="3" ry="3" style="stroke:#038048;stroke-width:1;"/><text fill="#000000" font-family="sans-serif" font-size="14" lengthAdjust="spacing" textLength="178.6813" x="27" y="123.9616">ehr_access : OBJECT_REF [1]</text><ellipse cx="18" cy="136.8996" fill="none" rx="3" ry="3" style="stroke:#038048;stroke-width:1;"/><text fill="#000000" font-family="sans-serif" font-size="14" lengthAdjust="spacing" textLength="233.0291" x="27" y="140.7616">compositions : List&lt;OBJECT_REF&gt; [*]</text><ellipse cx="18" cy="153.6995" fill="none" rx="3" ry="3" style="stroke:#038048;stroke-width:1;"/><text fill="#000000" font-family="sans-serif" font-size="14" lengthAdjust="spacing" textLength="181.8313" x="27" y="157.5615">directory : OBJECT_REF [0..1]</text><ellipse cx="18" cy="170.4995" fill="none" rx="3" ry="3" style="stroke:#038048;stroke-width:1;"/><text fill="#000000" font-family="sans-serif" font-size="14" lengthAdjust="spacing" textLength="209.7192" x="27" y="174.3614">time_created : DV_DATE_TIME [1]</text><ellipse cx="18" cy="187.2994" fill="none" rx="3" ry="3" style="stroke:#038048;stroke-width:1;"/><text fill="#000000" font-family="sans-serif" font-size="14" lengthAdjust="spacing" textLength="193.1432" x="27" y="191.1614">folders : List&lt;OBJECT_REF&gt; [*]</text><ellipse cx="18" cy="204.0993" fill="none" rx="3" ry="3" style="stroke:#038048;stroke-width:1;"/><text fill="#000000" font-family="sans-serif" font-size="14" lengthAdjust="spacing" textLength="176.1053" x="27" y="207.9613">tags : List&lt;OBJECT_REF&gt; [*]</text><line style="stroke:#181818;stroke-width:0.5;" x1="8" x2="265.0291" y1="214.9993" y2="214.9993"/></g><!--class VERSIONED_EHR_ACCESS--><g class="entity" data-entity="VERSIONED_EHR_ACCESS" data-source-line="15" data-uid="ent0003" id="entity_VERSIONED_EHR_ACCESS"><rect fill="#F1F1F1" height="48" rx="2.5" ry="2.5" style="stroke:#181818;stroke-width:0.5;" width="199.4813" x="55.77" y="316.6"/><ellipse cx="70.77" cy="332.6" fill="#ADD1B2" rx="11" ry="11" style="stroke:#181818;stroke-width:1;"/><path d="M70.77,339.0219 C71.9419,339.0219 73.1763,338.7562 74.5513,338.1469 L74.0669,336.6312 C72.9731,337.0531 71.9575,337.2406 71.0981,337.2406 C68.3794,337.2406 66.6606,335.3969 66.6606,332.4906 C66.6606,329.7406 68.2231,328.1469 70.9575,328.1469 C71.8794,328.1469 72.895,328.3344 74.0356,328.7562 L74.6138,327.2406 C73.52,326.6625 72.2231,326.3656 71.0356,326.3656 C67.27,326.3656 64.6919,329.0062 64.6919,332.8187 C64.6919,336.4906 67.1763,339.0219 70.77,339.0219 Z " fill="#000000"/><text fill="#000000" font-family="sans-serif" font-size="14" lengthAdjust="spacing" textLength="167.4813" x="84.77" y="337.962">VERSIONED_EHR_ACCESS</text><line style="stroke:#181818;stroke-width:0.5;" x1="56.77" x2="254.2513" y1="348.6" y2="348.6"/><line style="stroke:#181818;stroke-width:0.5;" x1="56.77" x2="254.2513" y1="356.6" y2="356.6"/></g><!--class VERSIONED_OBJECT--><g class="entity" data-entity="VERSIONED_OBJECT" data-source-line="18" data-uid="ent0004" id="entity_VERSIONED_OBJECT"><rect fill="#F5F5F5" height="48" rx="2.5" ry="2.5" style="stroke:#808080;stroke-width:1;stroke-dasharray:1,3;" width="176.0015" x="301.51" y="91"/><ellipse cx="316.51" cy="107" fill="#ADD1B2" rx="11" ry="11" style="stroke:#181818;stroke-width:1;"/><path d="M316.51,113.4219 C317.6819,113.4219 318.9163,113.1563 320.2913,112.5469 L319.8069,111.0313 C318.7131,111.4531 317.6975,111.6406 316.8381,111.6406 C314.1194,111.6406 312.4006,109.7969 312.4006,106.8906 C312.4006,104.1406 313.9631,102.5469 316.6975,102.5469 C317.6194,102.5469 318.635,102.7344 319.7756,103.1563 L320.3538,101.6406 C319.26,101.0625 317.9631,100.7656 316.7756,100.7656 C313.01,100.7656 310.4319,103.4063 310.4319,107.2188 C310.4319,110.8906 312.9163,113.4219 316.51,113.4219 Z " fill="#000000"/><text fill="#808080" font-family="sans-serif" font-size="14" lengthAdjust="spacing" textLength="133.2095" x="330.51" y="112.362">VERSIONED_OBJECT</text><rect fill="#FFFFFF" height="16.4001" style="stroke:#181818;stroke-width:1;stroke-dasharray:2,2;" width="8.7921" x="471.7195" y="88"/><text fill="#000000" font-family="sans-serif" font-size="12" font-style="italic" lengthAdjust="spacing" textLength="6.7921" x="472.7195" y="100.7961">T</text><line style="stroke:#808080;stroke-width:1;stroke-dasharray:1,3;" x1="302.51" x2="476.5115" y1="123" y2="123"/><line style="stroke:#808080;stroke-width:1;stroke-dasharray:1,3;" x1="302.51" x2="476.5115" y1="131" y2="131"/></g><!--class VERSIONED_EHR_STATUS--><g class="entity" data-entity="VERSIONED_EHR_STATUS" data-source-line="21" data-uid="ent0005" id="entity_VERSIONED_EHR_STATUS"><rect fill="#F1F1F1" height="48" rx="2.5" ry="2.5" style="stroke:#181818;stroke-width:0.5;" width="198.4873" x="290.27" y="316.6"/><ellipse cx="305.27" cy="332.6" fill="#ADD1B2" rx="11" ry="11" style="stroke:#181818;stroke-width:1;"/><path d="M305.27,339.0219 C306.4419,339.0219 307.6763,338.7562 309.0513,338.1469 L308.5669,336.6312 C307.4731,337.0531 306.4575,337.2406 305.5981,337.2406 C302.8794,337.2406 301.1606,335.3969 301.1606,332.4906 C301.1606,329.7406 302.7231,328.1469 305.4575,328.1469 C306.3794,328.1469 307.395,328.3344 308.5356,328.7562 L309.1138,327.2406 C308.02,326.6625 306.7231,326.3656 305.5356,326.3656 C301.77,326.3656 299.1919,329.0062 299.1919,332.8187 C299.1919,336.4906 301.6763,339.0219 305.27,339.0219 Z " fill="#000000"/><text fill="#000000" font-family="sans-serif" font-size="14" lengthAdjust="spacing" textLength="166.4873" x="319.27" y="337.962">VERSIONED_EHR_STATUS</text><line style="stroke:#181818;stroke-width:0.5;" x1="291.27" x2="487.7573" y1="348.6" y2="348.6"/><line style="stroke:#181818;stroke-width:0.5;" x1="291.27" x2="487.7573" y1="356.6" y2="356.6"/></g><!--class VERSIONED_COMPOSITION--><g class="entity" data-entity="VERSIONED_COMPOSITION" data-source-line="24" data-uid="ent0006" id="entity_VERSIONED_COMPOSITION"><rect fill="#F1F1F1" height="64.7999" rx="2.5" ry="2.5" style="stroke:#181818;stroke-width:0.5;" width="209.9253" x="523.55" y="308.2"/><ellipse cx="538.55" cy="324.2" fill="#ADD1B2" rx="11" ry="11" style="stroke:#181818;stroke-width:1;"/><path d="M538.55,330.6219 C539.7219,330.6219 540.9563,330.3563 542.3313,329.7469 L541.8469,328.2313 C540.7531,328.6531 539.7375,328.8406 538.8781,328.8406 C536.1594,328.8406 534.4406,326.9969 534.4406,324.0906 C534.4406,321.3406 536.0031,319.7469 538.7375,319.7469 C539.6594,319.7469 540.675,319.9344 541.8156,320.3563 L542.3938,318.8406 C541.3,318.2625 540.0031,317.9656 538.8156,317.9656 C535.05,317.9656 532.4719,320.6063 532.4719,324.4188 C532.4719,328.0906 534.9563,330.6219 538.55,330.6219 Z " fill="#000000"/><text fill="#000000" font-family="sans-serif" font-size="14" lengthAdjust="spacing" textLength="177.9253" x="552.55" y="329.562">VERSIONED_COMPOSITION</text><line style="stroke:#181818;stroke-width:0.5;" x1="524.55" x2="732.4753" y1="340.2" y2="340.2"/><line style="stroke:#181818;stroke-width:0.5;" x1="524.55" x2="732.4753" y1="348.2" y2="348.2"/><ellipse cx="534.55" cy="362.1" fill="#84BE84" rx="3" ry="3" style="stroke:#038048;stroke-width:1;"/><text fill="#000000" font-family="sans-serif" font-size="14" lengthAdjust="spacing" textLength="167.5374" x="543.55" y="365.9619">is_persistent() : Boolean [1]</text></g><!--class EHR_ACCESS--><g class="entity" data-entity="EHR_ACCESS" data-source-line="28" data-uid="ent0007" id="entity_EHR_ACCESS"><rect fill="#F1F1F1" height="81.5999" rx="2.5" ry="2.5" style="stroke:#181818;stroke-width:0.5;" width="312.9008" x="768.06" y="299.8"/><ellipse cx="878.0436" cy="315.8" fill="#ADD1B2" rx="11" ry="11" style="stroke:#181818;stroke-width:1;"/><path d="M878.0436,322.2219 C879.2154,322.2219 880.4498,321.9563 881.8248,321.3469 L881.3404,319.8313 C880.2467,320.2531 879.2311,320.4406 878.3717,320.4406 C875.6529,320.4406 873.9342,318.5969 873.9342,315.6906 C873.9342,312.9406 875.4967,311.3469 878.2311,311.3469 C879.1529,311.3469 880.1686,311.5344 881.3092,311.9563 L881.8873,310.4406 C880.7936,309.8625 879.4967,309.5656 878.3092,309.5656 C874.5436,309.5656 871.9654,312.2063 871.9654,316.0188 C871.9654,319.6906 874.4498,322.2219 878.0436,322.2219 Z " fill="#000000"/><text fill="#000000" font-family="sans-serif" font-size="14" lengthAdjust="spacing" textLength="84.4337" x="898.5436" y="321.162">EHR_ACCESS</text><line style="stroke:#181818;stroke-width:0.5;" x1="769.06" x2="1079.9608" y1="331.8" y2="331.8"/><ellipse cx="779.06" cy="345.7" fill="none" rx="3" ry="3" style="stroke:#038048;stroke-width:1;"/><text fill="#000000" font-family="sans-serif" font-size="14" lengthAdjust="spacing" textLength="286.9008" x="788.06" y="349.5619">settings : ACCESS_CONTROL_SETTINGS [0..1]</text><line style="stroke:#181818;stroke-width:0.5;" x1="769.06" x2="1079.9608" y1="356.5999" y2="356.5999"/><ellipse cx="779.06" cy="370.4999" fill="#84BE84" rx="3" ry="3" style="stroke:#038048;stroke-width:1;"/><text fill="#000000" font-family="sans-serif" font-size="14" lengthAdjust="spacing" textLength="122.5695" x="788.06" y="374.3619">scheme() : String [1]</text></g><!--class LOCATABLE--><g class="entity" data-entity="LOCATABLE" data-source-line="33" data-uid="ent0008" id="entity_LOCATABLE"><rect fill="#F5F5F5" height="48" rx="2.5" ry="2.5" style="stroke:#808080;stroke-width:1;stroke-dasharray:1,3;" width="108.2857" x="1033.37" y="91"/><ellipse cx="1048.37" cy="107" fill="#A9DCDF" rx="11" ry="11" style="stroke:#181818;stroke-width:1;"/><path d="M1042.8856,112.5 L1044.9169,112.5 L1048.9638,101.1563 L1048.0575,101.1563 L1051.8856,112.5 L1054.0263,112.5 L1049.6981,100.1719 L1047.4794,100.1719 L1042.8856,112.5 Z M1045.2138,109 L1051.6513,109 L1051.6513,107.25 L1045.2138,107.25 L1045.2138,109 Z " fill="#000000"/><text fill="#808080" font-family="sans-serif" font-size="14" font-style="italic" lengthAdjust="spacing" textLength="76.2857" x="1062.37" y="112.362">LOCATABLE</text><line style="stroke:#808080;stroke-width:1;stroke-dasharray:1,3;" x1="1034.37" x2="1140.6557" y1="123" y2="123"/><line style="stroke:#808080;stroke-width:1;stroke-dasharray:1,3;" x1="1034.37" x2="1140.6557" y1="131" y2="131"/></g><!--class EHR_STATUS--><g class="entity" data-entity="EHR_STATUS" data-source-line="36" data-uid="ent0009" id="entity_EHR_STATUS"><rect fill="#F1F1F1" height="115.1997" rx="2.5" ry="2.5" style="stroke:#181818;stroke-width:0.5;" width="268.143" x="1116.44" y="283"/><ellipse cx="1204.5417" cy="299" fill="#ADD1B2" rx="11" ry="11" style="stroke:#181818;stroke-width:1;"/><path d="M1204.5417,305.4219 C1205.7136,305.4219 1206.9479,305.1563 1208.3229,304.5469 L1207.8386,303.0313 C1206.7448,303.4531 1205.7292,303.6406 1204.8698,303.6406 C1202.1511,303.6406 1200.4323,301.7969 1200.4323,298.8906 C1200.4323,296.1406 1201.9948,294.5469 1204.7292,294.5469 C1205.6511,294.5469 1206.6667,294.7344 1207.8073,295.1563 L1208.3854,293.6406 C1207.2917,293.0625 1205.9948,292.7656 1204.8073,292.7656 C1201.0417,292.7656 1198.4636,295.4063 1198.4636,299.2188 C1198.4636,302.8906 1200.9479,305.4219 1204.5417,305.4219 Z " fill="#000000"/><text fill="#000000" font-family="sans-serif" font-size="14" lengthAdjust="spacing" textLength="83.4397" x="1225.0417" y="304.362">EHR_STATUS</text><line style="stroke:#181818;stroke-width:0.5;" x1="1117.44" x2="1383.583" y1="315" y2="315"/><ellipse cx="1127.44" cy="328.9" fill="none" rx="3" ry="3" style="stroke:#038048;stroke-width:1;"/><text fill="#000000" font-family="sans-serif" font-size="14" lengthAdjust="spacing" textLength="152.8934" x="1136.44" y="332.7619">subject : PARTY_SELF [1]</text><ellipse cx="1127.44" cy="345.6999" fill="none" rx="3" ry="3" style="stroke:#038048;stroke-width:1;"/><text fill="#000000" font-family="sans-serif" font-size="14" lengthAdjust="spacing" textLength="158.1853" x="1136.44" y="349.5619">is_queryable : Boolean [1]</text><ellipse cx="1127.44" cy="362.4998" fill="none" rx="3" ry="3" style="stroke:#038048;stroke-width:1;"/><text fill="#000000" font-family="sans-serif" font-size="14" lengthAdjust="spacing" textLength="162.9733" x="1136.44" y="366.3618">is_modifiable : Boolean [1]</text><ellipse cx="1127.44" cy="379.2997" fill="none" rx="3" ry="3" style="stroke:#038048;stroke-width:1;"/><text fill="#000000" font-family="sans-serif" font-size="14" lengthAdjust="spacing" textLength="242.143" x="1136.44" y="383.1617">other_details : ITEM_STRUCTURE [0..1]</text><line style="stroke:#181818;stroke-width:0.5;" x1="1117.44" x2="1383.583" y1="390.1997" y2="390.1997"/></g><!--class ACCESS_CONTROL_SETTINGS--><g class="entity" data-entity="ACCESS_CONTROL_SETTINGS" data-source-line="43" data-uid="ent0010" id="entity_ACCESS_CONTROL_SETTINGS"><rect fill="#F1F1F1" height="48" rx="2.5" ry="2.5" style="stroke:#181818;stroke-width:0.5;" width="224.7372" x="1177.15" y="91"/><ellipse cx="1192.15" cy="107" fill="#A9DCDF" rx="11" ry="11" style="stroke:#181818;stroke-width:1;"/><path d="M1186.6656,112.5 L1188.6969,112.5 L1192.7438,101.1563 L1191.8375,101.1563 L1195.6656,112.5 L1197.8063,112.5 L1193.4781,100.1719 L1191.2594,100.1719 L1186.6656,112.5 Z M1188.9938,109 L1195.4313,109 L1195.4313,107.25 L1188.9938,107.25 L1188.9938,109 Z " fill="#000000"/><text fill="#000000" font-family="sans-serif" font-size="14" font-style="italic" lengthAdjust="spacing" textLength="192.7372" x="1206.15" y="112.362">ACCESS_CONTROL_SETTINGS</text><line style="stroke:#181818;stroke-width:0.5;" x1="1178.15" x2="1400.8872" y1="123" y2="123"/><line style="stroke:#181818;stroke-width:0.5;" x1="1178.15" x2="1400.8872" y1="131" y2="131"/></g><!--reverse link VERSIONED_OBJECT to VERSIONED_EHR_ACCESS--><g class="link" data-entity-1="VERSIONED_OBJECT" data-entity-2="VERSIONED_EHR_ACCESS" data-source-line="46" data-uid="lnk11" id="link_VERSIONED_OBJECT_VERSIONED_EHR_ACCESS"><path codeLine="46" d="M354.5843,152.2269 C333.3543,174.1369 312.96,194.77 283.51,223 C249.02,256.08 208,293.05 181.86,316.31" fill="none" id="VERSIONED_OBJECT-backto-VERSIONED_EHR_ACCESS" style="stroke:#181818;stroke-width:1;"/><polygon fill="none" points="367.11,139.3,350.2753,148.0517,358.8932,156.4022,367.11,139.3" style="stroke:#181818;stroke-width:1;"/></g><!--reverse link VERSIONED_OBJECT to VERSIONED_EHR_STATUS--><g class="link" data-entity-1="VERSIONED_OBJECT" data-entity-2="VERSIONED_EHR_STATUS" data-source-line="47" data-uid="lnk12" id="link_VERSIONED_OBJECT_VERSIONED_EHR_STATUS"><path codeLine="47" d="M389.51,157.09 C389.51,199.93 389.51,273.3 389.51,316.3" fill="none" id="VERSIONED_OBJECT-backto-VERSIONED_EHR_STATUS" style="stroke:#181818;stroke-width:1;"/><polygon fill="none" points="389.51,139.09,383.51,157.09,395.51,157.09,389.51,139.09" style="stroke:#181818;stroke-width:1;"/></g><!--reverse link VERSIONED_OBJECT to VERSIONED_COMPOSITION--><g class="link" data-entity-1="VERSIONED_OBJECT" data-entity-2="VERSIONED_COMPOSITION" data-source-line="48" data-uid="lnk13" id="link_VERSIONED_OBJECT_VERSIONED_COMPOSITION"><path codeLine="48" d="M427.3352,151.3865 C470.3952,191.6665 546.13,262.53 594.82,308.08" fill="none" id="VERSIONED_OBJECT-backto-VERSIONED_COMPOSITION" style="stroke:#181818;stroke-width:1;"/><polygon fill="none" points="414.19,139.09,423.2363,155.7682,431.434,147.0048,414.19,139.09" style="stroke:#181818;stroke-width:1;"/></g><!--reverse link LOCATABLE to EHR_ACCESS--><g class="link" data-entity-1="LOCATABLE" data-entity-2="EHR_ACCESS" data-source-line="49" data-uid="lnk14" id="link_LOCATABLE_EHR_ACCESS"><path codeLine="49" d="M1060.0767,153.6354 C1032.5067,191.4554 987.97,252.55 953.86,299.35" fill="none" id="LOCATABLE-backto-EHR_ACCESS" style="stroke:#181818;stroke-width:1;"/><polygon fill="none" points="1070.68,139.09,1055.2282,150.101,1064.9252,157.1699,1070.68,139.09" style="stroke:#181818;stroke-width:1;"/></g><!--reverse link LOCATABLE to EHR_STATUS--><g class="link" data-entity-1="LOCATABLE" data-entity-2="EHR_STATUS" data-source-line="50" data-uid="lnk15" id="link_LOCATABLE_EHR_STATUS"><path codeLine="50" d="M1112.3219,154.3641 C1126.5819,176.2641 1139.01,194.73 1159.51,223 C1173.84,242.75 1190.06,263.9 1204.8,282.69" fill="none" id="LOCATABLE-backto-EHR_STATUS" style="stroke:#181818;stroke-width:1;"/><polygon fill="none" points="1102.5,139.28,1107.2939,157.6381,1117.3499,151.0901,1102.5,139.28" style="stroke:#181818;stroke-width:1;"/></g></g></svg>
