<svg xmlns="http://www.w3.org/2000/svg" xmlns:xlink="http://www.w3.org/1999/xlink" contentStyleType="text/css" data-diagram-type="CLASS" height="937px" preserveAspectRatio="none" style="width:1187px;height:937px;background:#FFFFFF;" version="1.1" viewBox="0 0 1187 937" width="1187px" zoomAndPan="magnify"><defs/><g><!--class ADMIN_ENTRY--><g class="entity" data-entity="ADMIN_ENTRY" data-source-line="2" data-uid="ent0002" id="entity_ADMIN_ENTRY"><rect fill="#F1F1F1" height="64.7999" rx="2.5" ry="2.5" style="stroke:#181818;stroke-width:0.5;" width="197.7233" x="230.37" y="682.6"/><ellipse cx="277.2909" cy="698.6" fill="#ADD1B2" rx="11" ry="11" style="stroke:#181818;stroke-width:1;"/><path d="M277.2909,705.0219 C278.4627,705.0219 279.6971,704.7563 281.0721,704.1469 L280.5877,702.6313 C279.494,703.0531 278.4784,703.2406 277.619,703.2406 C274.9002,703.2406 273.1815,701.3969 273.1815,698.4906 C273.1815,695.7406 274.744,694.1469 277.4784,694.1469 C278.4002,694.1469 279.4159,694.3344 280.5565,694.7563 L281.1346,693.2406 C280.0409,692.6625 278.744,692.3656 277.5565,692.3656 C273.7909,692.3656 271.2127,695.0063 271.2127,698.8188 C271.2127,702.4906 273.6971,705.0219 277.2909,705.0219 Z " fill="#000000"/><text fill="#000000" font-family="sans-serif" font-size="14" lengthAdjust="spacing" textLength="95.3816" x="297.7909" y="703.962">ADMIN_ENTRY</text><line style="stroke:#181818;stroke-width:0.5;" x1="231.37" x2="427.0933" y1="714.6" y2="714.6"/><ellipse cx="241.37" cy="728.5" fill="none" rx="3" ry="3" style="stroke:#038048;stroke-width:1;"/><text fill="#000000" font-family="sans-serif" font-size="14" lengthAdjust="spacing" textLength="171.7233" x="250.37" y="732.3619">data : ITEM_STRUCTURE [1]</text><line style="stroke:#181818;stroke-width:0.5;" x1="231.37" x2="427.0933" y1="739.3999" y2="739.3999"/></g><!--class ENTRY--><g class="entity" data-entity="ENTRY" data-source-line="6" data-uid="ent0003" id="entity_ENTRY"><rect fill="#F1F1F1" height="165.5995" rx="2.5" ry="2.5" style="stroke:#181818;stroke-width:0.5;" width="319.0189" x="295.72" y="448.6"/><ellipse cx="429.2795" cy="464.6" fill="#A9DCDF" rx="11" ry="11" style="stroke:#181818;stroke-width:1;"/><path d="M423.7951,470.1 L425.8264,470.1 L429.8733,458.7563 L428.967,458.7563 L432.7951,470.1 L434.9358,470.1 L430.6076,457.7719 L428.3889,457.7719 L423.7951,470.1 Z M426.1233,466.6 L432.5608,466.6 L432.5608,464.85 L426.1233,464.85 L426.1233,466.6 Z " fill="#000000"/><text fill="#000000" font-family="sans-serif" font-size="14" font-style="italic" lengthAdjust="spacing" textLength="43.3998" x="449.7795" y="469.962">ENTRY</text><line style="stroke:#181818;stroke-width:0.5;" x1="296.72" x2="613.7389" y1="480.6" y2="480.6"/><ellipse cx="306.72" cy="494.5" fill="none" rx="3" ry="3" style="stroke:#038048;stroke-width:1;"/><text fill="#000000" font-family="sans-serif" font-size="14" lengthAdjust="spacing" textLength="182.3913" x="315.72" y="498.3619">language : CODE_PHRASE [1]</text><ellipse cx="306.72" cy="511.2999" fill="none" rx="3" ry="3" style="stroke:#038048;stroke-width:1;"/><text fill="#000000" font-family="sans-serif" font-size="14" lengthAdjust="spacing" textLength="182.2093" x="315.72" y="515.1619">encoding : CODE_PHRASE [1]</text><ellipse cx="306.72" cy="528.0998" fill="none" rx="3" ry="3" style="stroke:#038048;stroke-width:1;"/><text fill="#000000" font-family="sans-serif" font-size="14" lengthAdjust="spacing" textLength="293.0189" x="315.72" y="531.9618">other_participations : List&lt;PARTICIPATION&gt; [*]</text><ellipse cx="306.72" cy="544.8997" fill="none" rx="3" ry="3" style="stroke:#038048;stroke-width:1;"/><text fill="#000000" font-family="sans-serif" font-size="14" lengthAdjust="spacing" textLength="203.3352" x="315.72" y="548.7617">workflow_id : OBJECT_REF [0..1]</text><ellipse cx="306.72" cy="561.6997" fill="none" rx="3" ry="3" style="stroke:#038048;stroke-width:1;"/><text fill="#000000" font-family="sans-serif" font-size="14" lengthAdjust="spacing" textLength="166.0533" x="315.72" y="565.5616">subject : PARTY_PROXY [1]</text><ellipse cx="306.72" cy="578.4996" fill="none" rx="3" ry="3" style="stroke:#038048;stroke-width:1;"/><text fill="#000000" font-family="sans-serif" font-size="14" lengthAdjust="spacing" textLength="189.1252" x="315.72" y="582.3616">provider : PARTY_PROXY [0..1]</text><line style="stroke:#181818;stroke-width:0.5;" x1="296.72" x2="613.7389" y1="589.3996" y2="589.3996"/><ellipse cx="306.72" cy="603.2995" fill="#84BE84" rx="3" ry="3" style="stroke:#038048;stroke-width:1;"/><text fill="#000000" font-family="sans-serif" font-size="14" lengthAdjust="spacing" textLength="179.2553" x="315.72" y="607.1615">subject_is_self() : Boolean [1]</text></g><!--class CARE_ENTRY--><g class="entity" data-entity="CARE_ENTRY" data-source-line="16" data-uid="ent0004" id="entity_CARE_ENTRY"><rect fill="#F1F1F1" height="81.5999" rx="2.5" ry="2.5" style="stroke:#181818;stroke-width:0.5;" width="238.6872" x="462.89" y="674.2"/><ellipse cx="535.4588" cy="690.2" fill="#A9DCDF" rx="11" ry="11" style="stroke:#181818;stroke-width:1;"/><path d="M529.9744,695.7 L532.0056,695.7 L536.0525,684.3563 L535.1463,684.3563 L538.9744,695.7 L541.115,695.7 L536.7869,683.3719 L534.5681,683.3719 L529.9744,695.7 Z M532.3025,692.2 L538.74,692.2 L538.74,690.45 L532.3025,690.45 L532.3025,692.2 Z " fill="#000000"/><text fill="#000000" font-family="sans-serif" font-size="14" font-style="italic" lengthAdjust="spacing" textLength="85.0496" x="555.9588" y="695.562">CARE_ENTRY</text><line style="stroke:#181818;stroke-width:0.5;" x1="463.89" x2="700.5772" y1="706.2" y2="706.2"/><ellipse cx="473.89" cy="720.1" fill="none" rx="3" ry="3" style="stroke:#038048;stroke-width:1;"/><text fill="#000000" font-family="sans-serif" font-size="14" lengthAdjust="spacing" textLength="212.6872" x="482.89" y="723.9619">protocol : ITEM_STRUCTURE [0..1]</text><ellipse cx="473.89" cy="736.8999" fill="none" rx="3" ry="3" style="stroke:#038048;stroke-width:1;"/><text fill="#000000" font-family="sans-serif" font-size="14" lengthAdjust="spacing" textLength="201.9072" x="482.89" y="740.7619">guideline_id : OBJECT_REF [0..1]</text><line style="stroke:#181818;stroke-width:0.5;" x1="463.89" x2="700.5772" y1="747.7999" y2="747.7999"/></g><!--class OBSERVATION--><g class="entity" data-entity="OBSERVATION" data-source-line="21" data-uid="ent0005" id="entity_OBSERVATION"><rect fill="#F1F1F1" height="81.5999" rx="2.5" ry="2.5" style="stroke:#181818;stroke-width:0.5;" width="290.4589" x="7" y="832.6"/><ellipse cx="100.9467" cy="848.6" fill="#ADD1B2" rx="11" ry="11" style="stroke:#181818;stroke-width:1;"/><path d="M100.9467,855.0219 C102.1185,855.0219 103.3529,854.7563 104.7279,854.1469 L104.2435,852.6313 C103.1498,853.0531 102.1342,853.2406 101.2748,853.2406 C98.556,853.2406 96.8373,851.3969 96.8373,848.4906 C96.8373,845.7406 98.3998,844.1469 101.1342,844.1469 C102.056,844.1469 103.0717,844.3344 104.2123,844.7563 L104.7904,843.2406 C103.6967,842.6625 102.3998,842.3656 101.2123,842.3656 C97.4467,842.3656 94.8685,845.0063 94.8685,848.8188 C94.8685,852.4906 97.3529,855.0219 100.9467,855.0219 Z " fill="#000000"/><text fill="#000000" font-family="sans-serif" font-size="14" lengthAdjust="spacing" textLength="94.0656" x="121.4467" y="853.962">OBSERVATION</text><line style="stroke:#181818;stroke-width:0.5;" x1="8" x2="296.4589" y1="864.6" y2="864.6"/><ellipse cx="18" cy="878.5" fill="none" rx="3" ry="3" style="stroke:#038048;stroke-width:1;"/><text fill="#000000" font-family="sans-serif" font-size="14" lengthAdjust="spacing" textLength="244.901" x="27" y="882.3619">data : HISTORY&lt;ITEM_STRUCTURE&gt; [1]</text><ellipse cx="18" cy="895.2999" fill="none" rx="3" ry="3" style="stroke:#038048;stroke-width:1;"/><text fill="#000000" font-family="sans-serif" font-size="14" lengthAdjust="spacing" textLength="264.4589" x="27" y="899.1619">state : HISTORY&lt;ITEM_STRUCTURE&gt; [0..1]</text><line style="stroke:#181818;stroke-width:0.5;" x1="8" x2="296.4589" y1="906.1999" y2="906.1999"/></g><!--class EVALUATION--><g class="entity" data-entity="EVALUATION" data-source-line="26" data-uid="ent0006" id="entity_EVALUATION"><rect fill="#F1F1F1" height="64.7999" rx="2.5" ry="2.5" style="stroke:#181818;stroke-width:0.5;" width="197.7233" x="332.37" y="841"/><ellipse cx="385.2688" cy="857" fill="#ADD1B2" rx="11" ry="11" style="stroke:#181818;stroke-width:1;"/><path d="M385.2688,863.4219 C386.4407,863.4219 387.6751,863.1563 389.0501,862.5469 L388.5657,861.0313 C387.472,861.4531 386.4563,861.6406 385.597,861.6406 C382.8782,861.6406 381.1595,859.7969 381.1595,856.8906 C381.1595,854.1406 382.722,852.5469 385.4563,852.5469 C386.3782,852.5469 387.3938,852.7344 388.5345,853.1563 L389.1126,851.6406 C388.0188,851.0625 386.722,850.7656 385.5345,850.7656 C381.7688,850.7656 379.1907,853.4063 379.1907,857.2188 C379.1907,860.8906 381.6751,863.4219 385.2688,863.4219 Z " fill="#000000"/><text fill="#000000" font-family="sans-serif" font-size="14" lengthAdjust="spacing" textLength="83.4257" x="405.7688" y="862.362">EVALUATION</text><line style="stroke:#181818;stroke-width:0.5;" x1="333.37" x2="529.0933" y1="873" y2="873"/><ellipse cx="343.37" cy="886.9" fill="none" rx="3" ry="3" style="stroke:#038048;stroke-width:1;"/><text fill="#000000" font-family="sans-serif" font-size="14" lengthAdjust="spacing" textLength="171.7233" x="352.37" y="890.7619">data : ITEM_STRUCTURE [1]</text><line style="stroke:#181818;stroke-width:0.5;" x1="333.37" x2="529.0933" y1="897.7999" y2="897.7999"/></g><!--class ACTION--><g class="entity" data-entity="ACTION" data-source-line="30" data-uid="ent0007" id="entity_ACTION"><rect fill="#F1F1F1" height="115.1997" rx="2.5" ry="2.5" style="stroke:#181818;stroke-width:0.5;" width="335.8608" x="565.3" y="815.8"/><ellipse cx="703.6825" cy="831.8" fill="#ADD1B2" rx="11" ry="11" style="stroke:#181818;stroke-width:1;"/><path d="M703.6825,838.2219 C704.8544,838.2219 706.0887,837.9563 707.4637,837.3469 L706.9794,835.8313 C705.8856,836.2531 704.87,836.4406 704.0106,836.4406 C701.2919,836.4406 699.5731,834.5969 699.5731,831.6906 C699.5731,828.9406 701.1356,827.3469 703.87,827.3469 C704.7919,827.3469 705.8075,827.5344 706.9481,827.9563 L707.5262,826.4406 C706.4325,825.8625 705.1356,825.5656 703.9481,825.5656 C700.1825,825.5656 697.6044,828.2063 697.6044,832.0188 C697.6044,835.6906 700.0887,838.2219 703.6825,838.2219 Z " fill="#000000"/><text fill="#000000" font-family="sans-serif" font-size="14" lengthAdjust="spacing" textLength="50.5958" x="724.1825" y="837.162">ACTION</text><line style="stroke:#181818;stroke-width:0.5;" x1="566.3" x2="900.1608" y1="847.8" y2="847.8"/><ellipse cx="576.3" cy="861.7" fill="none" rx="3" ry="3" style="stroke:#038048;stroke-width:1;"/><text fill="#000000" font-family="sans-serif" font-size="14" lengthAdjust="spacing" textLength="155.9174" x="585.3" y="865.5619">time : DV_DATE_TIME [1]</text><ellipse cx="576.3" cy="878.4999" fill="none" rx="3" ry="3" style="stroke:#038048;stroke-width:1;"/><text fill="#000000" font-family="sans-serif" font-size="14" lengthAdjust="spacing" textLength="228.2971" x="585.3" y="882.3619">ism_transition : ISM_TRANSITION [1]</text><ellipse cx="576.3" cy="895.2998" fill="none" rx="3" ry="3" style="stroke:#038048;stroke-width:1;"/><text fill="#000000" font-family="sans-serif" font-size="14" lengthAdjust="spacing" textLength="309.8608" x="585.3" y="899.1618">instruction_details : INSTRUCTION_DETAILS [0..1]</text><ellipse cx="576.3" cy="912.0997" fill="none" rx="3" ry="3" style="stroke:#038048;stroke-width:1;"/><text fill="#000000" font-family="sans-serif" font-size="14" lengthAdjust="spacing" textLength="213.8492" x="585.3" y="915.9617">description : ITEM_STRUCTURE [1]</text><line style="stroke:#181818;stroke-width:0.5;" x1="566.3" x2="900.1608" y1="922.9997" y2="922.9997"/></g><!--class ACTIVITY--><g class="entity" data-entity="ACTIVITY" data-source-line="37" data-uid="ent0008" id="entity_ACTIVITY"><rect fill="#F1F1F1" height="98.3998" rx="2.5" ry="2.5" style="stroke:#181818;stroke-width:0.5;" width="239.8492" x="112.3" y="290.2"/><ellipse cx="199.1347" cy="306.2" fill="#ADD1B2" rx="11" ry="11" style="stroke:#181818;stroke-width:1;"/><path d="M199.1347,312.6219 C200.3066,312.6219 201.5409,312.3563 202.9159,311.7469 L202.4316,310.2313 C201.3378,310.6531 200.3222,310.8406 199.4628,310.8406 C196.7441,310.8406 195.0253,308.9969 195.0253,306.0906 C195.0253,303.3406 196.5878,301.7469 199.3222,301.7469 C200.2441,301.7469 201.2597,301.9344 202.4003,302.3563 L202.9784,300.8406 C201.8847,300.2625 200.5878,299.9656 199.4003,299.9656 C195.6347,299.9656 193.0566,302.6063 193.0566,306.4188 C193.0566,310.0906 195.5409,312.6219 199.1347,312.6219 Z " fill="#000000"/><text fill="#000000" font-family="sans-serif" font-size="14" lengthAdjust="spacing" textLength="57.6798" x="219.6347" y="311.562">ACTIVITY</text><line style="stroke:#181818;stroke-width:0.5;" x1="113.3" x2="351.1492" y1="322.2" y2="322.2"/><ellipse cx="123.3" cy="336.1" fill="none" rx="3" ry="3" style="stroke:#038048;stroke-width:1;"/><text fill="#000000" font-family="sans-serif" font-size="14" lengthAdjust="spacing" textLength="176.2593" x="132.3" y="339.9619">timing : DV_PARSABLE [0..1]</text><ellipse cx="123.3" cy="352.8999" fill="none" rx="3" ry="3" style="stroke:#038048;stroke-width:1;"/><text fill="#000000" font-family="sans-serif" font-size="14" lengthAdjust="spacing" textLength="190.9593" x="132.3" y="356.7619">action_archetype_id : String [1]</text><ellipse cx="123.3" cy="369.6998" fill="none" rx="3" ry="3" style="stroke:#038048;stroke-width:1;"/><text fill="#000000" font-family="sans-serif" font-size="14" lengthAdjust="spacing" textLength="213.8492" x="132.3" y="373.5618">description : ITEM_STRUCTURE [1]</text><line style="stroke:#181818;stroke-width:0.5;" x1="113.3" x2="351.1492" y1="380.5998" y2="380.5998"/></g><!--class LOCATABLE--><g class="entity" data-entity="LOCATABLE" data-source-line="43" data-uid="ent0009" id="entity_LOCATABLE"><rect fill="#F5F5F5" height="48" rx="2.5" ry="2.5" style="stroke:#808080;stroke-width:1;stroke-dasharray:1,3;" width="108.2857" x="289.09" y="148.6"/><ellipse cx="304.09" cy="164.6" fill="#A9DCDF" rx="11" ry="11" style="stroke:#181818;stroke-width:1;"/><path d="M298.6056,170.1 L300.6369,170.1 L304.6838,158.7563 L303.7775,158.7563 L307.6056,170.1 L309.7463,170.1 L305.4181,157.7719 L303.1994,157.7719 L298.6056,170.1 Z M300.9338,166.6 L307.3713,166.6 L307.3713,164.85 L300.9338,164.85 L300.9338,166.6 Z " fill="#000000"/><text fill="#808080" font-family="sans-serif" font-size="14" font-style="italic" lengthAdjust="spacing" textLength="76.2857" x="318.09" y="169.962">LOCATABLE</text><line style="stroke:#808080;stroke-width:1;stroke-dasharray:1,3;" x1="290.09" x2="396.3757" y1="180.6" y2="180.6"/><line style="stroke:#808080;stroke-width:1;stroke-dasharray:1,3;" x1="290.09" x2="396.3757" y1="188.6" y2="188.6"/></g><!--class ISM_TRANSITION--><g class="entity" data-entity="ISM_TRANSITION" data-source-line="46" data-uid="ent0010" id="entity_ISM_TRANSITION"><rect fill="#F1F1F1" height="115.1997" rx="2.5" ry="2.5" style="stroke:#181818;stroke-width:0.5;" width="270.691" x="431.88" y="115"/><ellipse cx="507.6477" cy="131" fill="#ADD1B2" rx="11" ry="11" style="stroke:#181818;stroke-width:1;"/><path d="M507.6477,137.4219 C508.8196,137.4219 510.054,137.1563 511.429,136.5469 L510.9446,135.0313 C509.8509,135.4531 508.8352,135.6406 507.9759,135.6406 C505.2571,135.6406 503.5384,133.7969 503.5384,130.8906 C503.5384,128.1406 505.1009,126.5469 507.8352,126.5469 C508.7571,126.5469 509.7727,126.7344 510.9134,127.1563 L511.4915,125.6406 C510.3977,125.0625 509.1009,124.7656 507.9134,124.7656 C504.1477,124.7656 501.5696,127.4063 501.5696,131.2188 C501.5696,134.8906 504.054,137.4219 507.6477,137.4219 Z " fill="#000000"/><text fill="#000000" font-family="sans-serif" font-size="14" lengthAdjust="spacing" textLength="110.6556" x="528.1477" y="136.362">ISM_TRANSITION</text><line style="stroke:#181818;stroke-width:0.5;" x1="432.88" x2="701.571" y1="147" y2="147"/><ellipse cx="442.88" cy="160.9" fill="none" rx="3" ry="3" style="stroke:#038048;stroke-width:1;"/><text fill="#000000" font-family="sans-serif" font-size="14" lengthAdjust="spacing" textLength="224.5171" x="451.88" y="164.7619">current_state : DV_CODED_TEXT [1]</text><ellipse cx="442.88" cy="177.6999" fill="none" rx="3" ry="3" style="stroke:#038048;stroke-width:1;"/><text fill="#000000" font-family="sans-serif" font-size="14" lengthAdjust="spacing" textLength="216.5791" x="451.88" y="181.5619">transition : DV_CODED_TEXT [0..1]</text><ellipse cx="442.88" cy="194.4998" fill="none" rx="3" ry="3" style="stroke:#038048;stroke-width:1;"/><text fill="#000000" font-family="sans-serif" font-size="14" lengthAdjust="spacing" textLength="244.691" x="451.88" y="198.3618">careflow_step : DV_CODED_TEXT [0..1]</text><ellipse cx="442.88" cy="211.2997" fill="none" rx="3" ry="3" style="stroke:#038048;stroke-width:1;"/><text fill="#000000" font-family="sans-serif" font-size="14" lengthAdjust="spacing" textLength="167.4813" x="451.88" y="215.1617">reason : List&lt;DV_TEXT&gt; [*]</text><line style="stroke:#181818;stroke-width:0.5;" x1="432.88" x2="701.571" y1="222.1997" y2="222.1997"/></g><!--class PATHABLE--><g class="entity" data-entity="PATHABLE" data-source-line="53" data-uid="ent0011" id="entity_PATHABLE"><rect fill="#F5F5F5" height="48" rx="2.5" ry="2.5" style="stroke:#808080;stroke-width:1;stroke-dasharray:1,3;" width="99.8857" x="517.29" y="7"/><ellipse cx="532.29" cy="23" fill="#A9DCDF" rx="11" ry="11" style="stroke:#181818;stroke-width:1;"/><path d="M526.8056,28.5 L528.8369,28.5 L532.8838,17.1563 L531.9775,17.1563 L535.8056,28.5 L537.9463,28.5 L533.6181,16.1719 L531.3994,16.1719 L526.8056,28.5 Z M529.1338,25 L535.5713,25 L535.5713,23.25 L529.1338,23.25 L529.1338,25 Z " fill="#000000"/><text fill="#808080" font-family="sans-serif" font-size="14" font-style="italic" lengthAdjust="spacing" textLength="67.8857" x="546.29" y="28.362">PATHABLE</text><line style="stroke:#808080;stroke-width:1;stroke-dasharray:1,3;" x1="518.29" x2="616.1757" y1="39" y2="39"/><line style="stroke:#808080;stroke-width:1;stroke-dasharray:1,3;" x1="518.29" x2="616.1757" y1="47" y2="47"/></g><!--class INSTRUCTION_DETAILS--><g class="entity" data-entity="INSTRUCTION_DETAILS" data-source-line="56" data-uid="ent0012" id="entity_INSTRUCTION_DETAILS"><rect fill="#F1F1F1" height="98.3998" rx="2.5" ry="2.5" style="stroke:#181818;stroke-width:0.5;" width="250.2651" x="737.1" y="123.4"/><ellipse cx="782.8868" cy="139.4" fill="#ADD1B2" rx="11" ry="11" style="stroke:#181818;stroke-width:1;"/><path d="M782.8868,145.8219 C784.0587,145.8219 785.2931,145.5562 786.6681,144.9469 L786.1837,143.4312 C785.09,143.8531 784.0743,144.0406 783.215,144.0406 C780.4962,144.0406 778.7775,142.1969 778.7775,139.2906 C778.7775,136.5406 780.34,134.9469 783.0743,134.9469 C783.9962,134.9469 785.0118,135.1344 786.1525,135.5562 L786.7306,134.0406 C785.6368,133.4625 784.34,133.1656 783.1525,133.1656 C779.3868,133.1656 776.8087,135.8062 776.8087,139.6187 C776.8087,143.2906 779.2931,145.8219 782.8868,145.8219 Z " fill="#000000"/><text fill="#000000" font-family="sans-serif" font-size="14" lengthAdjust="spacing" textLength="150.1914" x="803.3868" y="144.762">INSTRUCTION_DETAILS</text><line style="stroke:#181818;stroke-width:0.5;" x1="738.1" x2="986.3651" y1="155.4" y2="155.4"/><ellipse cx="748.1" cy="169.3" fill="none" rx="3" ry="3" style="stroke:#038048;stroke-width:1;"/><text fill="#000000" font-family="sans-serif" font-size="14" lengthAdjust="spacing" textLength="221.9271" x="757.1" y="173.1619">instruction_id : LOCATABLE_REF [1]</text><ellipse cx="748.1" cy="186.0999" fill="none" rx="3" ry="3" style="stroke:#038048;stroke-width:1;"/><text fill="#000000" font-family="sans-serif" font-size="14" lengthAdjust="spacing" textLength="128.5475" x="757.1" y="189.9619">activity_id : String [1]</text><ellipse cx="748.1" cy="202.8998" fill="none" rx="3" ry="3" style="stroke:#038048;stroke-width:1;"/><text fill="#000000" font-family="sans-serif" font-size="14" lengthAdjust="spacing" textLength="224.2651" x="757.1" y="206.7618">wf_details : ITEM_STRUCTURE [0..1]</text><line style="stroke:#181818;stroke-width:0.5;" x1="738.1" x2="986.3651" y1="213.7998" y2="213.7998"/></g><!--class CONTENT_ITEM--><g class="entity" data-entity="CONTENT_ITEM" data-source-line="62" data-uid="ent0013" id="entity_CONTENT_ITEM"><rect fill="#F5F5F5" height="48" rx="2.5" ry="2.5" style="stroke:#808080;stroke-width:1;stroke-dasharray:1,3;" width="135.5576" x="387.45" y="315.4"/><ellipse cx="402.45" cy="331.4" fill="#A9DCDF" rx="11" ry="11" style="stroke:#181818;stroke-width:1;"/><path d="M396.9656,336.9 L398.9969,336.9 L403.0438,325.5563 L402.1375,325.5563 L405.9656,336.9 L408.1063,336.9 L403.7781,324.5719 L401.5594,324.5719 L396.9656,336.9 Z M399.2938,333.4 L405.7313,333.4 L405.7313,331.65 L399.2938,331.65 L399.2938,333.4 Z " fill="#000000"/><text fill="#808080" font-family="sans-serif" font-size="14" font-style="italic" lengthAdjust="spacing" textLength="103.5576" x="416.45" y="336.762">CONTENT_ITEM</text><line style="stroke:#808080;stroke-width:1;stroke-dasharray:1,3;" x1="388.45" x2="522.0076" y1="347.4" y2="347.4"/><line style="stroke:#808080;stroke-width:1;stroke-dasharray:1,3;" x1="388.45" x2="522.0076" y1="355.4" y2="355.4"/></g><!--class INSTRUCTION--><g class="entity" data-entity="INSTRUCTION" data-source-line="65" data-uid="ent0014" id="entity_INSTRUCTION"><rect fill="#F1F1F1" height="115.1997" rx="2.5" ry="2.5" style="stroke:#181818;stroke-width:0.5;" width="244.0491" x="936.2" y="815.8"/><ellipse cx="1009.0697" cy="831.8" fill="#ADD1B2" rx="11" ry="11" style="stroke:#181818;stroke-width:1;"/><path d="M1009.0697,838.2219 C1010.2416,838.2219 1011.476,837.9563 1012.851,837.3469 L1012.3666,835.8313 C1011.2729,836.2531 1010.2572,836.4406 1009.3979,836.4406 C1006.6791,836.4406 1004.9604,834.5969 1004.9604,831.6906 C1004.9604,828.9406 1006.5229,827.3469 1009.2572,827.3469 C1010.1791,827.3469 1011.1947,827.5344 1012.3354,827.9563 L1012.9135,826.4406 C1011.8197,825.8625 1010.5229,825.5656 1009.3354,825.5656 C1005.5697,825.5656 1002.9916,828.2063 1002.9916,832.0188 C1002.9916,835.6906 1005.476,838.2219 1009.0697,838.2219 Z " fill="#000000"/><text fill="#000000" font-family="sans-serif" font-size="14" lengthAdjust="spacing" textLength="89.8096" x="1029.5697" y="837.162">INSTRUCTION</text><line style="stroke:#181818;stroke-width:0.5;" x1="937.2" x2="1179.2491" y1="847.8" y2="847.8"/><ellipse cx="947.2" cy="861.7" fill="none" rx="3" ry="3" style="stroke:#038048;stroke-width:1;"/><text fill="#000000" font-family="sans-serif" font-size="14" lengthAdjust="spacing" textLength="141.7494" x="956.2" y="865.5619">narrative : DV_TEXT [1]</text><ellipse cx="947.2" cy="878.4999" fill="none" rx="3" ry="3" style="stroke:#038048;stroke-width:1;"/><text fill="#000000" font-family="sans-serif" font-size="14" lengthAdjust="spacing" textLength="216.0751" x="956.2" y="882.3619">expiry_time : DV_DATE_TIME [0..1]</text><ellipse cx="947.2" cy="895.2998" fill="none" rx="3" ry="3" style="stroke:#038048;stroke-width:1;"/><text fill="#000000" font-family="sans-serif" font-size="14" lengthAdjust="spacing" textLength="218.0491" x="956.2" y="899.1618">wf_definition : DV_PARSABLE [0..1]</text><ellipse cx="947.2" cy="912.0997" fill="none" rx="3" ry="3" style="stroke:#038048;stroke-width:1;"/><text fill="#000000" font-family="sans-serif" font-size="14" lengthAdjust="spacing" textLength="179.9413" x="956.2" y="915.9617">activities : List&lt;ACTIVITY&gt; [*]</text><line style="stroke:#181818;stroke-width:0.5;" x1="937.2" x2="1179.2491" y1="922.9997" y2="922.9997"/></g><!--reverse link ENTRY to ADMIN_ENTRY--><g class="link" data-entity-1="ENTRY" data-entity-2="ADMIN_ENTRY" data-source-line="72" data-uid="lnk15" id="link_ENTRY_ADMIN_ENTRY"><path codeLine="72" d="M387.8673,629.4877 C371.1973,653.5077 364.23,663.55 351.18,682.37" fill="none" id="ENTRY-backto-ADMIN_ENTRY" style="stroke:#181818;stroke-width:1;"/><polygon fill="none" points="398.13,614.7,382.938,626.0668,392.7965,632.9086,398.13,614.7" style="stroke:#181818;stroke-width:1;"/></g><!--reverse link CONTENT_ITEM to ENTRY--><g class="link" data-entity-1="CONTENT_ITEM" data-entity-2="ENTRY" data-source-line="73" data-uid="lnk16" id="link_CONTENT_ITEM_ENTRY"><path codeLine="73" d="M455.23,381.7 C455.23,402.9 455.23,417.51 455.23,448.27" fill="none" id="CONTENT_ITEM-backto-ENTRY" style="stroke:#181818;stroke-width:1;"/><polygon fill="none" points="455.23,363.7,449.23,381.7,461.23,381.7,455.23,363.7" style="stroke:#181818;stroke-width:1;"/></g><!--reverse link ENTRY to CARE_ENTRY--><g class="link" data-entity-1="ENTRY" data-entity-2="CARE_ENTRY" data-source-line="74" data-uid="lnk17" id="link_ENTRY_CARE_ENTRY"><path codeLine="74" d="M523.0951,629.4512 C537.5351,650.1012 542.07,656.58 554.32,674.09" fill="none" id="ENTRY-backto-CARE_ENTRY" style="stroke:#181818;stroke-width:1;"/><polygon fill="none" points="512.78,614.7,518.1781,632.8896,528.0122,626.0128,512.78,614.7" style="stroke:#181818;stroke-width:1;"/></g><!--reverse link CARE_ENTRY to OBSERVATION--><g class="link" data-entity-1="CARE_ENTRY" data-entity-2="OBSERVATION" data-source-line="75" data-uid="lnk18" id="link_CARE_ENTRY_OBSERVATION"><path codeLine="75" d="M454.5739,762.4318 C390.5039,785.7318 327.04,808.82 262.96,832.12" fill="none" id="CARE_ENTRY-backto-OBSERVATION" style="stroke:#181818;stroke-width:1;"/><polygon fill="none" points="471.49,756.28,452.5233,756.7931,456.6245,768.0705,471.49,756.28" style="stroke:#181818;stroke-width:1;"/></g><!--reverse link CARE_ENTRY to EVALUATION--><g class="link" data-entity-1="CARE_ENTRY" data-entity-2="EVALUATION" data-source-line="76" data-uid="lnk19" id="link_CARE_ENTRY_EVALUATION"><path codeLine="76" d="M530.8361,769.228 C505.4961,795.468 485.4,816.29 461.89,840.64" fill="none" id="CARE_ENTRY-backto-EVALUATION" style="stroke:#181818;stroke-width:1;"/><polygon fill="none" points="543.34,756.28,526.5201,765.0601,535.1521,773.396,543.34,756.28" style="stroke:#181818;stroke-width:1;"/></g><!--reverse link CARE_ENTRY to ACTION--><g class="link" data-entity-1="CARE_ENTRY" data-entity-2="ACTION" data-source-line="77" data-uid="lnk20" id="link_CARE_ENTRY_ACTION"><path codeLine="77" d="M633.6194,769.2324 C650.9994,787.2424 659.31,795.84 678.26,815.46" fill="none" id="CARE_ENTRY-backto-ACTION" style="stroke:#181818;stroke-width:1;"/><polygon fill="none" points="621.12,756.28,629.3019,773.3989,637.9368,765.066,621.12,756.28" style="stroke:#181818;stroke-width:1;"/></g><!--reverse link LOCATABLE to ACTIVITY--><g class="link" data-entity-1="LOCATABLE" data-entity-2="ACTIVITY" data-source-line="78" data-uid="lnk21" id="link_LOCATABLE_ACTIVITY"><path codeLine="78" d="M317.5082,211.7919 C301.3182,235.8419 285.61,259.15 264.95,289.83" fill="none" id="LOCATABLE-backto-ACTIVITY" style="stroke:#181818;stroke-width:1;"/><polygon fill="none" points="327.56,196.86,312.5309,208.4412,322.4854,215.1425,327.56,196.86" style="stroke:#181818;stroke-width:1;"/></g><!--reverse link PATHABLE to LOCATABLE--><g class="link" data-entity-1="PATHABLE" data-entity-2="LOCATABLE" data-source-line="79" data-uid="lnk22" id="link_PATHABLE_LOCATABLE"><path codeLine="79" d="M503.0544,63.4874 C472.2744,79.0874 447.99,92.64 414.23,115 C399.12,125.01 383.25,137.45 370.36,148.12" fill="none" id="PATHABLE-backto-LOCATABLE" style="stroke:#181818;stroke-width:1;"/><polygon fill="none" points="519.11,55.35,500.3419,58.1355,505.7668,68.8392,519.11,55.35" style="stroke:#181818;stroke-width:1;"/></g><!--reverse link PATHABLE to ISM_TRANSITION--><g class="link" data-entity-1="PATHABLE" data-entity-2="ISM_TRANSITION" data-source-line="80" data-uid="lnk23" id="link_PATHABLE_ISM_TRANSITION"><path codeLine="80" d="M567.23,73.37 C567.23,89.59 567.23,93.94 567.23,114.7" fill="none" id="PATHABLE-backto-ISM_TRANSITION" style="stroke:#181818;stroke-width:1;"/><polygon fill="none" points="567.23,55.37,561.23,73.37,573.23,73.37,567.23,55.37" style="stroke:#181818;stroke-width:1;"/></g><!--reverse link PATHABLE to INSTRUCTION_DETAILS--><g class="link" data-entity-1="PATHABLE" data-entity-2="INSTRUCTION_DETAILS" data-source-line="81" data-uid="lnk24" id="link_PATHABLE_INSTRUCTION_DETAILS"><path codeLine="81" d="M632.8809,63.068 C671.7509,81.458 710.99,100.03 759.41,122.95" fill="none" id="PATHABLE-backto-INSTRUCTION_DETAILS" style="stroke:#181818;stroke-width:1;"/><polygon fill="none" points="616.61,55.37,630.3149,68.4916,635.4469,57.6444,616.61,55.37" style="stroke:#181818;stroke-width:1;"/></g><!--reverse link LOCATABLE to CONTENT_ITEM--><g class="link" data-entity-1="LOCATABLE" data-entity-2="CONTENT_ITEM" data-source-line="82" data-uid="lnk25" id="link_LOCATABLE_CONTENT_ITEM"><path codeLine="82" d="M369.1559,211.7486 C390.4359,243.0686 417.98,283.6 439.32,314.99" fill="none" id="LOCATABLE-backto-CONTENT_ITEM" style="stroke:#181818;stroke-width:1;"/><polygon fill="none" points="359.04,196.86,364.193,215.1205,374.1187,208.3766,359.04,196.86" style="stroke:#181818;stroke-width:1;"/></g><!--reverse link CARE_ENTRY to INSTRUCTION--><g class="link" data-entity-1="CARE_ENTRY" data-entity-2="INSTRUCTION" data-source-line="83" data-uid="lnk26" id="link_CARE_ENTRY_INSTRUCTION"><path codeLine="83" d="M718.9976,753.3892 C783.5876,771.6992 847.15,790.94 918.23,815.8 C924.04,817.83 929.97,819.97 935.94,822.18" fill="none" id="CARE_ENTRY-backto-INSTRUCTION" style="stroke:#181818;stroke-width:1;"/><polygon fill="none" points="701.68,748.48,717.3612,759.1617,720.634,747.6167,701.68,748.48" style="stroke:#181818;stroke-width:1;"/></g></g></svg>
