<svg xmlns="http://www.w3.org/2000/svg" xmlns:xlink="http://www.w3.org/1999/xlink" contentStyleType="text/css" data-diagram-type="CLASS" height="462px" preserveAspectRatio="none" style="width:1381px;height:462px;background:#FFFFFF;" version="1.1" viewBox="0 0 1381 462" width="1381px" zoomAndPan="magnify"><defs/><g><!--class REVISION_HISTORY_ITEM--><g class="entity" data-entity="REVISION_HISTORY_ITEM" data-source-line="2" data-uid="ent0002" id="entity_REVISION_HISTORY_ITEM"><rect fill="#F1F1F1" height="81.5999" rx="2.5" ry="2.5" style="stroke:#181818;stroke-width:0.5;" width="253.9471" x="50.83" y="32.2"/><ellipse cx="91.7004" cy="48.2" fill="#ADD1B2" rx="11" ry="11" style="stroke:#181818;stroke-width:1;"/><path d="M91.7004,54.6219 C92.8723,54.6219 94.1066,54.3562 95.4816,53.7469 L94.9973,52.2312 C93.9035,52.6531 92.8879,52.8406 92.0285,52.8406 C89.3098,52.8406 87.591,50.9969 87.591,48.0906 C87.591,45.3406 89.1535,43.7469 91.8879,43.7469 C92.8098,43.7469 93.8254,43.9344 94.966,44.3562 L95.5441,42.8406 C94.4504,42.2625 93.1535,41.9656 91.966,41.9656 C88.2004,41.9656 85.6223,44.6062 85.6223,48.4187 C85.6223,52.0906 88.1066,54.6219 91.7004,54.6219 Z " fill="#000000"/><text fill="#000000" font-family="sans-serif" font-size="14" lengthAdjust="spacing" textLength="164.4574" x="111.4494" y="53.562">REVISION_HISTORY_ITEM</text><line style="stroke:#181818;stroke-width:0.5;" x1="51.83" x2="303.7771" y1="64.2" y2="64.2"/><ellipse cx="61.83" cy="78.1" fill="none" rx="3" ry="3" style="stroke:#038048;stroke-width:1;"/><text fill="#000000" font-family="sans-serif" font-size="14" lengthAdjust="spacing" textLength="227.9471" x="70.83" y="81.9619">version_id : OBJECT_VERSION_ID [1]</text><ellipse cx="61.83" cy="94.8999" fill="none" rx="3" ry="3" style="stroke:#038048;stroke-width:1;"/><text fill="#000000" font-family="sans-serif" font-size="14" lengthAdjust="spacing" textLength="218.7071" x="70.83" y="98.7619">audits : List&lt;AUDIT_DETAILS&gt; [1..*]</text><line style="stroke:#181818;stroke-width:0.5;" x1="51.83" x2="303.7771" y1="105.7999" y2="105.7999"/></g><!--class AUDIT_DETAILS--><g class="entity" data-entity="AUDIT_DETAILS" data-source-line="7" data-uid="ent0003" id="entity_AUDIT_DETAILS"><rect fill="#F1F1F1" height="131.9996" rx="2.5" ry="2.5" style="stroke:#181818;stroke-width:0.5;" width="257.1251" x="677.24" y="7"/><ellipse cx="751.4747" cy="23" fill="#ADD1B2" rx="11" ry="11" style="stroke:#181818;stroke-width:1;"/><path d="M751.4747,29.4219 C752.6466,29.4219 753.881,29.1563 755.256,28.5469 L754.7716,27.0313 C753.6779,27.4531 752.6622,27.6406 751.8029,27.6406 C749.0841,27.6406 747.3654,25.7969 747.3654,22.8906 C747.3654,20.1406 748.9279,18.5469 751.6622,18.5469 C752.5841,18.5469 753.5997,18.7344 754.7404,19.1563 L755.3185,17.6406 C754.2247,17.0625 752.9279,16.7656 751.7404,16.7656 C747.9747,16.7656 745.3966,19.4063 745.3966,23.2188 C745.3966,26.8906 747.881,29.4219 751.4747,29.4219 Z " fill="#000000"/><text fill="#000000" font-family="sans-serif" font-size="14" lengthAdjust="spacing" textLength="100.1556" x="771.9747" y="28.362">AUDIT_DETAILS</text><line style="stroke:#181818;stroke-width:0.5;" x1="678.24" x2="933.3651" y1="39" y2="39"/><ellipse cx="688.24" cy="52.9" fill="none" rx="3" ry="3" style="stroke:#038048;stroke-width:1;"/><text fill="#000000" font-family="sans-serif" font-size="14" lengthAdjust="spacing" textLength="128.9675" x="697.24" y="56.7619">system_id : String [1]</text><ellipse cx="688.24" cy="69.6999" fill="none" rx="3" ry="3" style="stroke:#038048;stroke-width:1;"/><text fill="#000000" font-family="sans-serif" font-size="14" lengthAdjust="spacing" textLength="231.1251" x="697.24" y="73.5619">time_committed : DV_DATE_TIME [1]</text><ellipse cx="688.24" cy="86.4998" fill="none" rx="3" ry="3" style="stroke:#038048;stroke-width:1;"/><text fill="#000000" font-family="sans-serif" font-size="14" lengthAdjust="spacing" textLength="220.1771" x="697.24" y="90.3618">change_type : DV_CODED_TEXT [1]</text><ellipse cx="688.24" cy="103.2997" fill="none" rx="3" ry="3" style="stroke:#038048;stroke-width:1;"/><text fill="#000000" font-family="sans-serif" font-size="14" lengthAdjust="spacing" textLength="171.5693" x="697.24" y="107.1617">description : DV_TEXT [0..1]</text><ellipse cx="688.24" cy="120.0997" fill="none" rx="3" ry="3" style="stroke:#038048;stroke-width:1;"/><text fill="#000000" font-family="sans-serif" font-size="14" lengthAdjust="spacing" textLength="186.8432" x="697.24" y="123.9616">committer : PARTY_PROXY [1]</text><line style="stroke:#181818;stroke-width:0.5;" x1="678.24" x2="933.3651" y1="130.9996" y2="130.9996"/></g><!--class ATTESTATION--><g class="entity" data-entity="ATTESTATION" data-source-line="15" data-uid="ent0004" id="entity_ATTESTATION"><rect fill="#F1F1F1" height="131.9996" rx="2.5" ry="2.5" style="stroke:#181818;stroke-width:0.5;" width="265.6371" x="672.98" y="199"/><ellipse cx="756.5387" cy="215" fill="#ADD1B2" rx="11" ry="11" style="stroke:#181818;stroke-width:1;"/><path d="M756.5387,221.4219 C757.7106,221.4219 758.945,221.1563 760.32,220.5469 L759.8356,219.0313 C758.7418,219.4531 757.7262,219.6406 756.8668,219.6406 C754.1481,219.6406 752.4293,217.7969 752.4293,214.8906 C752.4293,212.1406 753.9918,210.5469 756.7262,210.5469 C757.6481,210.5469 758.6637,210.7344 759.8043,211.1563 L760.3825,209.6406 C759.2887,209.0625 757.9918,208.7656 756.8043,208.7656 C753.0387,208.7656 750.4606,211.4063 750.4606,215.2188 C750.4606,218.8906 752.945,221.4219 756.5387,221.4219 Z " fill="#000000"/><text fill="#000000" font-family="sans-serif" font-size="14" lengthAdjust="spacing" textLength="90.0196" x="777.0387" y="220.362">ATTESTATION</text><line style="stroke:#181818;stroke-width:0.5;" x1="673.98" x2="937.6171" y1="231" y2="231"/><ellipse cx="683.98" cy="244.9" fill="none" rx="3" ry="3" style="stroke:#038048;stroke-width:1;"/><text fill="#000000" font-family="sans-serif" font-size="14" lengthAdjust="spacing" textLength="239.6371" x="692.98" y="248.7619">attested_view : DV_MULTIMEDIA [0..1]</text><ellipse cx="683.98" cy="261.6999" fill="none" rx="3" ry="3" style="stroke:#038048;stroke-width:1;"/><text fill="#000000" font-family="sans-serif" font-size="14" lengthAdjust="spacing" textLength="115.6536" x="692.98" y="265.5619">proof : String [0..1]</text><ellipse cx="683.98" cy="278.4998" fill="none" rx="3" ry="3" style="stroke:#038048;stroke-width:1;"/><text fill="#000000" font-family="sans-serif" font-size="14" lengthAdjust="spacing" textLength="183.4553" x="692.98" y="282.3618">items : List&lt;DV_EHR_URI&gt; [*]</text><ellipse cx="683.98" cy="295.2997" fill="none" rx="3" ry="3" style="stroke:#038048;stroke-width:1;"/><text fill="#000000" font-family="sans-serif" font-size="14" lengthAdjust="spacing" textLength="128.5195" x="692.98" y="299.1617">reason : DV_TEXT [1]</text><ellipse cx="683.98" cy="312.0997" fill="none" rx="3" ry="3" style="stroke:#038048;stroke-width:1;"/><text fill="#000000" font-family="sans-serif" font-size="14" lengthAdjust="spacing" textLength="147.2374" x="692.98" y="315.9616">is_pending : Boolean [1]</text><line style="stroke:#181818;stroke-width:0.5;" x1="673.98" x2="937.6171" y1="322.9996" y2="322.9996"/></g><!--class PARTICIPATION--><g class="entity" data-entity="PARTICIPATION" data-source-line="23" data-uid="ent0005" id="entity_PARTICIPATION"><rect fill="#F1F1F1" height="115.1997" rx="2.5" ry="2.5" style="stroke:#181818;stroke-width:0.5;" width="302.6249" x="339.49" y="15.4"/><ellipse cx="436.5726" cy="31.4" fill="#ADD1B2" rx="11" ry="11" style="stroke:#181818;stroke-width:1;"/><path d="M436.5726,37.8219 C437.7445,37.8219 438.9789,37.5563 440.3539,36.9469 L439.8695,35.4313 C438.7758,35.8531 437.7601,36.0406 436.9008,36.0406 C434.182,36.0406 432.4633,34.1969 432.4633,31.2906 C432.4633,28.5406 434.0258,26.9469 436.7601,26.9469 C437.682,26.9469 438.6976,27.1344 439.8383,27.5563 L440.4164,26.0406 C439.3226,25.4625 438.0258,25.1656 436.8383,25.1656 C433.0726,25.1656 430.4945,27.8063 430.4945,31.6188 C430.4945,35.2906 432.9789,37.8219 436.5726,37.8219 Z " fill="#000000"/><text fill="#000000" font-family="sans-serif" font-size="14" lengthAdjust="spacing" textLength="99.9596" x="457.0726" y="36.762">PARTICIPATION</text><line style="stroke:#181818;stroke-width:0.5;" x1="340.49" x2="641.1149" y1="47.4" y2="47.4"/><ellipse cx="350.49" cy="61.3" fill="none" rx="3" ry="3" style="stroke:#038048;stroke-width:1;"/><text fill="#000000" font-family="sans-serif" font-size="14" lengthAdjust="spacing" textLength="137.7315" x="359.49" y="65.1619">function : DV_TEXT [1]</text><ellipse cx="350.49" cy="78.0999" fill="none" rx="3" ry="3" style="stroke:#038048;stroke-width:1;"/><text fill="#000000" font-family="sans-serif" font-size="14" lengthAdjust="spacing" textLength="192.5412" x="359.49" y="81.9619">mode : DV_CODED_TEXT [0..1]</text><ellipse cx="350.49" cy="94.8998" fill="none" rx="3" ry="3" style="stroke:#038048;stroke-width:1;"/><text fill="#000000" font-family="sans-serif" font-size="14" lengthAdjust="spacing" textLength="185.0512" x="359.49" y="98.7618">performer : PARTY_PROXY [1]</text><ellipse cx="350.49" cy="111.6997" fill="none" rx="3" ry="3" style="stroke:#038048;stroke-width:1;"/><text fill="#000000" font-family="sans-serif" font-size="14" lengthAdjust="spacing" textLength="276.6249" x="359.49" y="115.5617">time : DV_INTERVAL&lt;DV_DATE_TIME&gt; [0..1]</text><line style="stroke:#181818;stroke-width:0.5;" x1="340.49" x2="641.1149" y1="122.5997" y2="122.5997"/></g><!--class PARTY_PROXY--><g class="entity" data-entity="PARTY_PROXY" data-source-line="30" data-uid="ent0006" id="entity_PARTY_PROXY"><rect fill="#F1F1F1" height="64.7999" rx="2.5" ry="2.5" style="stroke:#181818;stroke-width:0.5;" width="218.9052" x="1100.35" y="40.6"/><ellipse cx="1159.1568" cy="56.6" fill="#A9DCDF" rx="11" ry="11" style="stroke:#181818;stroke-width:1;"/><path d="M1153.6724,62.1 L1155.7037,62.1 L1159.7506,50.7563 L1158.8443,50.7563 L1162.6724,62.1 L1164.8131,62.1 L1160.4849,49.7719 L1158.2662,49.7719 L1153.6724,62.1 Z M1156.0006,58.6 L1162.4381,58.6 L1162.4381,56.85 L1156.0006,56.85 L1156.0006,58.6 Z " fill="#000000"/><text fill="#000000" font-family="sans-serif" font-size="14" font-style="italic" lengthAdjust="spacing" textLength="92.7916" x="1179.6568" y="61.962">PARTY_PROXY</text><line style="stroke:#181818;stroke-width:0.5;" x1="1101.35" x2="1318.2552" y1="72.6" y2="72.6"/><ellipse cx="1111.35" cy="86.5" fill="none" rx="3" ry="3" style="stroke:#038048;stroke-width:1;"/><text fill="#000000" font-family="sans-serif" font-size="14" lengthAdjust="spacing" textLength="192.9052" x="1120.35" y="90.3619">external_ref : PARTY_REF [0..1]</text><line style="stroke:#181818;stroke-width:0.5;" x1="1101.35" x2="1318.2552" y1="97.3999" y2="97.3999"/></g><!--class PARTY_IDENTIFIED--><g class="entity" data-entity="PARTY_IDENTIFIED" data-source-line="34" data-uid="ent0007" id="entity_PARTY_IDENTIFIED"><rect fill="#F1F1F1" height="81.5999" rx="2.5" ry="2.5" style="stroke:#181818;stroke-width:0.5;" width="254.0311" x="973.78" y="224.2"/><ellipse cx="1035.2818" cy="240.2" fill="#ADD1B2" rx="11" ry="11" style="stroke:#181818;stroke-width:1;"/><path d="M1035.2818,246.6219 C1036.4537,246.6219 1037.688,246.3563 1039.063,245.7469 L1038.5787,244.2313 C1037.4849,244.6531 1036.4693,244.8406 1035.6099,244.8406 C1032.8912,244.8406 1031.1724,242.9969 1031.1724,240.0906 C1031.1724,237.3406 1032.7349,235.7469 1035.4693,235.7469 C1036.3912,235.7469 1037.4068,235.9344 1038.5474,236.3563 L1039.1255,234.8406 C1038.0318,234.2625 1036.7349,233.9656 1035.5474,233.9656 C1031.7818,233.9656 1029.2037,236.6063 1029.2037,240.4188 C1029.2037,244.0906 1031.688,246.6219 1035.2818,246.6219 Z " fill="#000000"/><text fill="#000000" font-family="sans-serif" font-size="14" lengthAdjust="spacing" textLength="122.5275" x="1055.7818" y="245.562">PARTY_IDENTIFIED</text><line style="stroke:#181818;stroke-width:0.5;" x1="974.78" x2="1226.8111" y1="256.2" y2="256.2"/><ellipse cx="984.78" cy="270.1" fill="none" rx="3" ry="3" style="stroke:#038048;stroke-width:1;"/><text fill="#000000" font-family="sans-serif" font-size="14" lengthAdjust="spacing" textLength="116.6475" x="993.78" y="273.9619">name : String [0..1]</text><ellipse cx="984.78" cy="286.8999" fill="none" rx="3" ry="3" style="stroke:#038048;stroke-width:1;"/><text fill="#000000" font-family="sans-serif" font-size="14" lengthAdjust="spacing" textLength="228.0311" x="993.78" y="290.7619">identifiers : List&lt;DV_IDENTIFIER&gt; [*]</text><line style="stroke:#181818;stroke-width:0.5;" x1="974.78" x2="1226.8111" y1="297.7999" y2="297.7999"/></g><!--class PARTY_SELF--><g class="entity" data-entity="PARTY_SELF" data-source-line="39" data-uid="ent0008" id="entity_PARTY_SELF"><rect fill="#F1F1F1" height="48" rx="2.5" ry="2.5" style="stroke:#181818;stroke-width:0.5;" width="111.6317" x="1262.98" y="241"/><ellipse cx="1277.98" cy="257" fill="#ADD1B2" rx="11" ry="11" style="stroke:#181818;stroke-width:1;"/><path d="M1277.98,263.4219 C1279.1519,263.4219 1280.3863,263.1563 1281.7613,262.5469 L1281.2769,261.0313 C1280.1831,261.4531 1279.1675,261.6406 1278.3081,261.6406 C1275.5894,261.6406 1273.8706,259.7969 1273.8706,256.8906 C1273.8706,254.1406 1275.4331,252.5469 1278.1675,252.5469 C1279.0894,252.5469 1280.105,252.7344 1281.2456,253.1563 L1281.8238,251.6406 C1280.73,251.0625 1279.4331,250.7656 1278.2456,250.7656 C1274.48,250.7656 1271.9019,253.4063 1271.9019,257.2188 C1271.9019,260.8906 1274.3863,263.4219 1277.98,263.4219 Z " fill="#000000"/><text fill="#000000" font-family="sans-serif" font-size="14" lengthAdjust="spacing" textLength="79.6317" x="1291.98" y="262.362">PARTY_SELF</text><line style="stroke:#181818;stroke-width:0.5;" x1="1263.98" x2="1373.6117" y1="273" y2="273"/><line style="stroke:#181818;stroke-width:0.5;" x1="1263.98" x2="1373.6117" y1="281" y2="281"/></g><!--class PARTY_RELATED--><g class="entity" data-entity="PARTY_RELATED" data-source-line="42" data-uid="ent0009" id="entity_PARTY_RELATED"><rect fill="#F1F1F1" height="64.7999" rx="2.5" ry="2.5" style="stroke:#181818;stroke-width:0.5;" width="241.0392" x="980.28" y="391"/><ellipse cx="1042.7968" cy="407" fill="#ADD1B2" rx="11" ry="11" style="stroke:#181818;stroke-width:1;"/><path d="M1042.7968,413.4219 C1043.9687,413.4219 1045.2031,413.1563 1046.5781,412.5469 L1046.0937,411.0313 C1044.9999,411.4531 1043.9843,411.6406 1043.1249,411.6406 C1040.4062,411.6406 1038.6874,409.7969 1038.6874,406.8906 C1038.6874,404.1406 1040.2499,402.5469 1042.9843,402.5469 C1043.9062,402.5469 1044.9218,402.7344 1046.0624,403.1563 L1046.6406,401.6406 C1045.5468,401.0625 1044.2499,400.7656 1043.0624,400.7656 C1039.2968,400.7656 1036.7187,403.4063 1036.7187,407.2188 C1036.7187,410.8906 1039.2031,413.4219 1042.7968,413.4219 Z " fill="#000000"/><text fill="#000000" font-family="sans-serif" font-size="14" lengthAdjust="spacing" textLength="107.5055" x="1063.2968" y="412.362">PARTY_RELATED</text><line style="stroke:#181818;stroke-width:0.5;" x1="981.28" x2="1220.3192" y1="423" y2="423"/><ellipse cx="991.28" cy="436.9" fill="none" rx="3" ry="3" style="stroke:#038048;stroke-width:1;"/><text fill="#000000" font-family="sans-serif" font-size="14" lengthAdjust="spacing" textLength="215.0392" x="1000.28" y="440.7619">relationship : DV_CODED_TEXT [1]</text><line style="stroke:#181818;stroke-width:0.5;" x1="981.28" x2="1220.3192" y1="447.7999" y2="447.7999"/></g><!--class REVISION_HISTORY--><g class="entity" data-entity="REVISION_HISTORY" data-source-line="46" data-uid="ent0010" id="entity_REVISION_HISTORY"><rect fill="#F1F1F1" height="98.3998" rx="2.5" ry="2.5" style="stroke:#181818;stroke-width:0.5;" width="341.6008" x="7" y="215.8"/><ellipse cx="110.7537" cy="231.8" fill="#ADD1B2" rx="11" ry="11" style="stroke:#181818;stroke-width:1;"/><path d="M110.7537,238.2219 C111.9255,238.2219 113.1599,237.9563 114.5349,237.3469 L114.0505,235.8313 C112.9568,236.2531 111.9412,236.4406 111.0818,236.4406 C108.363,236.4406 106.6443,234.5969 106.6443,231.6906 C106.6443,228.9406 108.2068,227.3469 110.9412,227.3469 C111.863,227.3469 112.8787,227.5344 114.0193,227.9563 L114.5974,226.4406 C113.5037,225.8625 112.2068,225.5656 111.0193,225.5656 C107.2537,225.5656 104.6755,228.2063 104.6755,232.0188 C104.6755,235.6906 107.1599,238.2219 110.7537,238.2219 Z " fill="#000000"/><text fill="#000000" font-family="sans-serif" font-size="14" lengthAdjust="spacing" textLength="125.5935" x="131.2537" y="237.162">REVISION_HISTORY</text><line style="stroke:#181818;stroke-width:0.5;" x1="8" x2="347.6008" y1="247.8" y2="247.8"/><ellipse cx="18" cy="261.7" fill="none" rx="3" ry="3" style="stroke:#038048;stroke-width:1;"/><text fill="#000000" font-family="sans-serif" font-size="14" lengthAdjust="spacing" textLength="279.8448" x="27" y="265.5619">items : List&lt;REVISION_HISTORY_ITEM&gt; [1..*]</text><line style="stroke:#181818;stroke-width:0.5;" x1="8" x2="347.6008" y1="272.5999" y2="272.5999"/><ellipse cx="18" cy="286.4999" fill="#84BE84" rx="3" ry="3" style="stroke:#038048;stroke-width:1;"/><text fill="#000000" font-family="sans-serif" font-size="14" lengthAdjust="spacing" textLength="205.0992" x="27" y="290.3619">most_recent_version() : String [1]</text><ellipse cx="18" cy="303.2998" fill="#84BE84" rx="3" ry="3" style="stroke:#038048;stroke-width:1;"/><text fill="#000000" font-family="sans-serif" font-size="14" lengthAdjust="spacing" textLength="315.6008" x="27" y="307.1618">most_recent_version_time_committed() : String [1]</text></g><!--reverse link AUDIT_DETAILS to ATTESTATION--><g class="link" data-entity-1="AUDIT_DETAILS" data-entity-2="ATTESTATION" data-source-line="52" data-uid="lnk11" id="link_AUDIT_DETAILS_ATTESTATION"><path codeLine="52" d="M805.8,157.39 C805.8,176.6 805.8,179.61 805.8,198.81" fill="none" id="AUDIT_DETAILS-backto-ATTESTATION" style="stroke:#181818;stroke-width:1;"/><polygon fill="none" points="805.8,139.39,799.8,157.39,811.8,157.39,805.8,139.39" style="stroke:#181818;stroke-width:1;"/></g><!--reverse link PARTY_PROXY to PARTY_IDENTIFIED--><g class="link" data-entity-1="PARTY_PROXY" data-entity-2="PARTY_IDENTIFIED" data-source-line="53" data-uid="lnk12" id="link_PARTY_PROXY_PARTY_IDENTIFIED"><path codeLine="53" d="M1182.601,121.4121 C1163.991,153.8421 1144.03,188.65 1123.85,223.82" fill="none" id="PARTY_PROXY-backto-PARTY_IDENTIFIED" style="stroke:#181818;stroke-width:1;"/><polygon fill="none" points="1191.56,105.8,1177.397,118.4257,1187.805,124.3984,1191.56,105.8" style="stroke:#181818;stroke-width:1;"/></g><!--reverse link PARTY_PROXY to PARTY_SELF--><g class="link" data-entity-1="PARTY_PROXY" data-entity-2="PARTY_SELF" data-source-line="54" data-uid="lnk13" id="link_PARTY_PROXY_PARTY_SELF"><path codeLine="54" d="M1236.9979,121.4127 C1258.8179,159.4427 1285.87,206.59 1305.32,240.51" fill="none" id="PARTY_PROXY-backto-PARTY_SELF" style="stroke:#181818;stroke-width:1;"/><polygon fill="none" points="1228.04,105.8,1231.7937,124.3987,1242.2021,118.4267,1228.04,105.8" style="stroke:#181818;stroke-width:1;"/></g><!--reverse link PARTY_IDENTIFIED to PARTY_RELATED--><g class="link" data-entity-1="PARTY_IDENTIFIED" data-entity-2="PARTY_RELATED" data-source-line="55" data-uid="lnk14" id="link_PARTY_IDENTIFIED_PARTY_RELATED"><path codeLine="55" d="M1100.8,324.28 C1100.8,350.52 1100.8,366.29 1100.8,390.64" fill="none" id="PARTY_IDENTIFIED-backto-PARTY_RELATED" style="stroke:#181818;stroke-width:1;"/><polygon fill="none" points="1100.8,306.28,1094.8,324.28,1106.8,324.28,1100.8,306.28" style="stroke:#181818;stroke-width:1;"/></g></g></svg>
