<svg xmlns="http://www.w3.org/2000/svg" xmlns:xlink="http://www.w3.org/1999/xlink" contentStyleType="text/css" data-diagram-type="CLASS" height="186px" preserveAspectRatio="none" style="width:154px;height:186px;background:#FFFFFF;" version="1.1" viewBox="0 0 154 186" width="154px" zoomAndPan="magnify"><defs/><g><!--class GENERIC_ENTRY--><g class="entity" data-entity="GENERIC_ENTRY" data-source-line="2" data-uid="ent0002" id="entity_GENERIC_ENTRY"><rect fill="#F1F1F1" height="64.7999" rx="2.5" ry="2.5" style="stroke:#181818;stroke-width:0.5;" width="140.7095" x="7" y="115"/><ellipse cx="22" cy="131" fill="#ADD1B2" rx="11" ry="11" style="stroke:#181818;stroke-width:1;"/><path d="M22,137.4219 C23.1719,137.4219 24.4063,137.1563 25.7813,136.5469 L25.2969,135.0313 C24.2031,135.4531 23.1875,135.6406 22.3281,135.6406 C19.6094,135.6406 17.8906,133.7969 17.8906,130.8906 C17.8906,128.1406 19.4531,126.5469 22.1875,126.5469 C23.1094,126.5469 24.125,126.7344 25.2656,127.1563 L25.8438,125.6406 C24.75,125.0625 23.4531,124.7656 22.2656,124.7656 C18.5,124.7656 15.9219,127.4063 15.9219,131.2188 C15.9219,134.8906 18.4063,137.4219 22,137.4219 Z " fill="#000000"/><text fill="#000000" font-family="sans-serif" font-size="14" lengthAdjust="spacing" textLength="108.7095" x="36" y="136.362">GENERIC_ENTRY</text><line style="stroke:#181818;stroke-width:0.5;" x1="8" x2="146.7095" y1="147" y2="147"/><ellipse cx="18" cy="160.9" fill="none" rx="3" ry="3" style="stroke:#038048;stroke-width:1;"/><text fill="#000000" font-family="sans-serif" font-size="14" lengthAdjust="spacing" textLength="87.7796" x="27" y="164.7619">data : ITEM [1]</text><line style="stroke:#181818;stroke-width:0.5;" x1="8" x2="146.7095" y1="171.7999" y2="171.7999"/></g><!--class CONTENT_ITEM--><g class="entity" data-entity="CONTENT_ITEM" data-source-line="6" data-uid="ent0003" id="entity_CONTENT_ITEM"><rect fill="#F5F5F5" height="48" rx="2.5" ry="2.5" style="stroke:#808080;stroke-width:1;stroke-dasharray:1,3;" width="135.5576" x="9.58" y="7"/><ellipse cx="24.58" cy="23" fill="#A9DCDF" rx="11" ry="11" style="stroke:#181818;stroke-width:1;"/><path d="M19.0956,28.5 L21.1269,28.5 L25.1738,17.1563 L24.2675,17.1563 L28.0956,28.5 L30.2363,28.5 L25.9081,16.1719 L23.6894,16.1719 L19.0956,28.5 Z M21.4238,25 L27.8613,25 L27.8613,23.25 L21.4238,23.25 L21.4238,25 Z " fill="#000000"/><text fill="#808080" font-family="sans-serif" font-size="14" font-style="italic" lengthAdjust="spacing" textLength="103.5576" x="38.58" y="28.362">CONTENT_ITEM</text><line style="stroke:#808080;stroke-width:1;stroke-dasharray:1,3;" x1="10.58" x2="144.1376" y1="39" y2="39"/><line style="stroke:#808080;stroke-width:1;stroke-dasharray:1,3;" x1="10.58" x2="144.1376" y1="47" y2="47"/></g><!--reverse link CONTENT_ITEM to GENERIC_ENTRY--><g class="link" data-entity-1="CONTENT_ITEM" data-entity-2="GENERIC_ENTRY" data-source-line="9" data-uid="lnk4" id="link_CONTENT_ITEM_GENERIC_ENTRY"><path codeLine="9" d="M77.35,73.43 C77.35,90.55 77.35,95.97 77.35,114.76" fill="none" id="CONTENT_ITEM-backto-GENERIC_ENTRY" style="stroke:#181818;stroke-width:1;"/><polygon fill="none" points="77.35,55.43,71.35,73.43,83.35,73.43,77.35,55.43" style="stroke:#181818;stroke-width:1;"/></g></g></svg>
