<svg xmlns="http://www.w3.org/2000/svg" xmlns:xlink="http://www.w3.org/1999/xlink" contentStyleType="text/css" data-diagram-type="CLASS" height="254px" preserveAspectRatio="none" style="width:499px;height:254px;background:#FFFFFF;" version="1.1" viewBox="0 0 499 254" width="499px" zoomAndPan="magnify"><defs/><g><!--class MESSAGE--><g class="entity" data-entity="MESSAGE" data-source-line="2" data-uid="ent0002" id="entity_MESSAGE"><rect fill="#F1F1F1" height="115.1997" rx="2.5" ry="2.5" style="stroke:#181818;stroke-width:0.5;" width="236.7272" x="7" y="15.4"/><ellipse cx="89.7957" cy="31.4" fill="#ADD1B2" rx="11" ry="11" style="stroke:#181818;stroke-width:1;"/><path d="M89.7957,37.8219 C90.9676,37.8219 92.202,37.5563 93.577,36.9469 L93.0926,35.4313 C91.9988,35.8531 90.9832,36.0406 90.1238,36.0406 C87.4051,36.0406 85.6863,34.1969 85.6863,31.2906 C85.6863,28.5406 87.2488,26.9469 89.9832,26.9469 C90.9051,26.9469 91.9207,27.1344 93.0613,27.5563 L93.6395,26.0406 C92.5457,25.4625 91.2488,25.1656 90.0613,25.1656 C86.2957,25.1656 83.7176,27.8063 83.7176,31.6188 C83.7176,35.2906 86.202,37.8219 89.7957,37.8219 Z " fill="#000000"/><text fill="#000000" font-family="sans-serif" font-size="14" lengthAdjust="spacing" textLength="62.6358" x="110.2957" y="36.762">MESSAGE</text><line style="stroke:#181818;stroke-width:0.5;" x1="8" x2="242.7272" y1="47.4" y2="47.4"/><ellipse cx="18" cy="61.3" fill="none" rx="3" ry="3" style="stroke:#038048;stroke-width:1;"/><text fill="#000000" font-family="sans-serif" font-size="14" lengthAdjust="spacing" textLength="160.1594" x="27" y="65.1619">audit : AUDIT_DETAILS [1]</text><ellipse cx="18" cy="78.0999" fill="none" rx="3" ry="3" style="stroke:#038048;stroke-width:1;"/><text fill="#000000" font-family="sans-serif" font-size="14" lengthAdjust="spacing" textLength="162.5253" x="27" y="81.9619">author : PARTY_PROXY [1]</text><ellipse cx="18" cy="94.8998" fill="none" rx="3" ry="3" style="stroke:#038048;stroke-width:1;"/><text fill="#000000" font-family="sans-serif" font-size="14" lengthAdjust="spacing" textLength="210.7272" x="27" y="98.7618">content : MESSAGE_CONTENT [1]</text><ellipse cx="18" cy="111.6997" fill="none" rx="3" ry="3" style="stroke:#038048;stroke-width:1;"/><text fill="#000000" font-family="sans-serif" font-size="14" lengthAdjust="spacing" textLength="140.3074" x="27" y="115.5617">signature : String [0..1]</text><line style="stroke:#181818;stroke-width:0.5;" x1="8" x2="242.7272" y1="122.5997" y2="122.5997"/></g><!--class ADDRESSED_MESSAGE--><g class="entity" data-entity="ADDRESSED_MESSAGE" data-source-line="9" data-uid="ent0003" id="entity_ADDRESSED_MESSAGE"><rect fill="#F1F1F1" height="131.9996" rx="2.5" ry="2.5" style="stroke:#181818;stroke-width:0.5;" width="214.1032" x="278.31" y="7"/><ellipse cx="308.3066" cy="23" fill="#ADD1B2" rx="11" ry="11" style="stroke:#181818;stroke-width:1;"/><path d="M308.3066,29.4219 C309.4785,29.4219 310.7129,29.1563 312.0879,28.5469 L311.6035,27.0313 C310.5097,27.4531 309.4941,27.6406 308.6347,27.6406 C305.916,27.6406 304.1972,25.7969 304.1972,22.8906 C304.1972,20.1406 305.7597,18.5469 308.4941,18.5469 C309.416,18.5469 310.4316,18.7344 311.5722,19.1563 L312.1504,17.6406 C311.0566,17.0625 309.7597,16.7656 308.5722,16.7656 C304.8066,16.7656 302.2285,19.4063 302.2285,23.2188 C302.2285,26.8906 304.7129,29.4219 308.3066,29.4219 Z " fill="#000000"/><text fill="#000000" font-family="sans-serif" font-size="14" lengthAdjust="spacing" textLength="148.7774" x="325.6392" y="28.362">ADDRESSED_MESSAGE</text><line style="stroke:#181818;stroke-width:0.5;" x1="279.31" x2="491.4132" y1="39" y2="39"/><ellipse cx="289.31" cy="52.9" fill="none" rx="3" ry="3" style="stroke:#038048;stroke-width:1;"/><text fill="#000000" font-family="sans-serif" font-size="14" lengthAdjust="spacing" textLength="108.4576" x="298.31" y="56.7619">sender : String [1]</text><ellipse cx="289.31" cy="69.6999" fill="none" rx="3" ry="3" style="stroke:#038048;stroke-width:1;"/><text fill="#000000" font-family="sans-serif" font-size="14" lengthAdjust="spacing" textLength="174.8173" x="298.31" y="73.5619">sender_reference : String [1]</text><ellipse cx="289.31" cy="86.4998" fill="none" rx="3" ry="3" style="stroke:#038048;stroke-width:1;"/><text fill="#000000" font-family="sans-serif" font-size="14" lengthAdjust="spacing" textLength="188.1032" x="298.31" y="90.3618">addressees : List&lt;String&gt; [1..*]</text><ellipse cx="289.31" cy="103.2997" fill="none" rx="3" ry="3" style="stroke:#038048;stroke-width:1;"/><text fill="#000000" font-family="sans-serif" font-size="14" lengthAdjust="spacing" textLength="138.7395" x="298.31" y="107.1617">urgency : Integer [0..1]</text><ellipse cx="289.31" cy="120.0997" fill="none" rx="3" ry="3" style="stroke:#038048;stroke-width:1;"/><text fill="#000000" font-family="sans-serif" font-size="14" lengthAdjust="spacing" textLength="146.5094" x="298.31" y="123.9616">message : MESSAGE [1]</text><line style="stroke:#181818;stroke-width:0.5;" x1="279.31" x2="491.4132" y1="130.9996" y2="130.9996"/></g><!--class MESSAGE_CONTENT--><g class="entity" data-entity="MESSAGE_CONTENT" data-source-line="17" data-uid="ent0004" id="entity_MESSAGE_CONTENT"><rect fill="#F1F1F1" height="48" rx="2.5" ry="2.5" style="stroke:#181818;stroke-width:0.5;" width="166.3295" x="42.2" y="199"/><ellipse cx="57.2" cy="215" fill="#A9DCDF" rx="11" ry="11" style="stroke:#181818;stroke-width:1;"/><path d="M51.7156,220.5 L53.7469,220.5 L57.7938,209.1563 L56.8875,209.1563 L60.7156,220.5 L62.8563,220.5 L58.5281,208.1719 L56.3094,208.1719 L51.7156,220.5 Z M54.0438,217 L60.4813,217 L60.4813,215.25 L54.0438,215.25 L54.0438,217 Z " fill="#000000"/><text fill="#000000" font-family="sans-serif" font-size="14" font-style="italic" lengthAdjust="spacing" textLength="134.3295" x="71.2" y="220.362">MESSAGE_CONTENT</text><line style="stroke:#181818;stroke-width:0.5;" x1="43.2" x2="207.5295" y1="231" y2="231"/><line style="stroke:#181818;stroke-width:0.5;" x1="43.2" x2="207.5295" y1="239" y2="239"/></g></g></svg>
