<svg xmlns="http://www.w3.org/2000/svg" xmlns:xlink="http://www.w3.org/1999/xlink" contentStyleType="text/css" data-diagram-type="CLASS" height="345px" preserveAspectRatio="none" style="width:479px;height:345px;background:#FFFFFF;" version="1.1" viewBox="0 0 479 345" width="479px" zoomAndPan="magnify"><defs/><g><!--class ITEM--><g class="entity" data-entity="ITEM" data-source-line="2" data-uid="ent0002" id="entity_ITEM"><rect fill="#F1F1F1" height="48" rx="2.5" ry="2.5" style="stroke:#181818;stroke-width:0.5;" width="63.8639" x="186.69" y="115"/><ellipse cx="201.69" cy="131" fill="#A9DCDF" rx="11" ry="11" style="stroke:#181818;stroke-width:1;"/><path d="M196.2056,136.5 L198.2369,136.5 L202.2838,125.1563 L201.3775,125.1563 L205.2056,136.5 L207.3463,136.5 L203.0181,124.1719 L200.7994,124.1719 L196.2056,136.5 Z M198.5338,133 L204.9713,133 L204.9713,131.25 L198.5338,131.25 L198.5338,133 Z " fill="#000000"/><text fill="#000000" font-family="sans-serif" font-size="14" font-style="italic" lengthAdjust="spacing" textLength="31.8639" x="215.69" y="136.362">ITEM</text><line style="stroke:#181818;stroke-width:0.5;" x1="187.69" x2="249.5539" y1="147" y2="147"/><line style="stroke:#181818;stroke-width:0.5;" x1="187.69" x2="249.5539" y1="155" y2="155"/></g><!--class LOCATABLE--><g class="entity" data-entity="LOCATABLE" data-source-line="5" data-uid="ent0003" id="entity_LOCATABLE"><rect fill="#F5F5F5" height="48" rx="2.5" ry="2.5" style="stroke:#808080;stroke-width:1;stroke-dasharray:1,3;" width="108.2857" x="164.48" y="7"/><ellipse cx="179.48" cy="23" fill="#A9DCDF" rx="11" ry="11" style="stroke:#181818;stroke-width:1;"/><path d="M173.9956,28.5 L176.0269,28.5 L180.0738,17.1563 L179.1675,17.1563 L182.9956,28.5 L185.1363,28.5 L180.8081,16.1719 L178.5894,16.1719 L173.9956,28.5 Z M176.3238,25 L182.7613,25 L182.7613,23.25 L176.3238,23.25 L176.3238,25 Z " fill="#000000"/><text fill="#808080" font-family="sans-serif" font-size="14" font-style="italic" lengthAdjust="spacing" textLength="76.2857" x="193.48" y="28.362">LOCATABLE</text><line style="stroke:#808080;stroke-width:1;stroke-dasharray:1,3;" x1="165.48" x2="271.7657" y1="39" y2="39"/><line style="stroke:#808080;stroke-width:1;stroke-dasharray:1,3;" x1="165.48" x2="271.7657" y1="47" y2="47"/></g><!--class CLUSTER--><g class="entity" data-entity="CLUSTER" data-source-line="8" data-uid="ent0004" id="entity_CLUSTER"><rect fill="#F1F1F1" height="64.7999" rx="2.5" ry="2.5" style="stroke:#181818;stroke-width:0.5;" width="173.2514" x="7" y="248.2"/><ellipse cx="60.3608" cy="264.2" fill="#ADD1B2" rx="11" ry="11" style="stroke:#181818;stroke-width:1;"/><path d="M60.3608,270.6219 C61.5327,270.6219 62.7671,270.3563 64.1421,269.7469 L63.6577,268.2313 C62.5639,268.6531 61.5483,268.8406 60.6889,268.8406 C57.9702,268.8406 56.2514,266.9969 56.2514,264.0906 C56.2514,261.3406 57.8139,259.7469 60.5483,259.7469 C61.4702,259.7469 62.4858,259.9344 63.6264,260.3563 L64.2046,258.8406 C63.1108,258.2625 61.8139,257.9656 60.6264,257.9656 C56.8608,257.9656 54.2827,260.6063 54.2827,264.4188 C54.2827,268.0906 56.7671,270.6219 60.3608,270.6219 Z " fill="#000000"/><text fill="#000000" font-family="sans-serif" font-size="14" lengthAdjust="spacing" textLength="58.0298" x="80.8608" y="269.562">CLUSTER</text><line style="stroke:#181818;stroke-width:0.5;" x1="8" x2="179.2514" y1="280.2" y2="280.2"/><ellipse cx="18" cy="294.1" fill="none" rx="3" ry="3" style="stroke:#038048;stroke-width:1;"/><text fill="#000000" font-family="sans-serif" font-size="14" lengthAdjust="spacing" textLength="147.2514" x="27" y="297.9619">items : List&lt;ITEM&gt; [1..*]</text><line style="stroke:#181818;stroke-width:0.5;" x1="8" x2="179.2514" y1="304.9999" y2="304.9999"/></g><!--class ELEMENT--><g class="entity" data-entity="ELEMENT" data-source-line="12" data-uid="ent0005" id="entity_ELEMENT"><rect fill="#F1F1F1" height="115.1997" rx="2.5" ry="2.5" style="stroke:#181818;stroke-width:0.5;" width="256.9291" x="215.16" y="223"/><ellipse cx="308.3437" cy="239" fill="#ADD1B2" rx="11" ry="11" style="stroke:#181818;stroke-width:1;"/><path d="M308.3437,245.4219 C309.5155,245.4219 310.7499,245.1563 312.1249,244.5469 L311.6405,243.0313 C310.5468,243.4531 309.5312,243.6406 308.6718,243.6406 C305.953,243.6406 304.2343,241.7969 304.2343,238.8906 C304.2343,236.1406 305.7968,234.5469 308.5312,234.5469 C309.453,234.5469 310.4687,234.7344 311.6093,235.1563 L312.1874,233.6406 C311.0937,233.0625 309.7968,232.7656 308.6093,232.7656 C304.8437,232.7656 302.2655,235.4063 302.2655,239.2188 C302.2655,242.8906 304.7499,245.4219 308.3437,245.4219 Z " fill="#000000"/><text fill="#000000" font-family="sans-serif" font-size="14" lengthAdjust="spacing" textLength="62.0617" x="328.8437" y="244.362">ELEMENT</text><line style="stroke:#181818;stroke-width:0.5;" x1="216.16" x2="471.0891" y1="255" y2="255"/><ellipse cx="226.16" cy="268.9" fill="none" rx="3" ry="3" style="stroke:#038048;stroke-width:1;"/><text fill="#000000" font-family="sans-serif" font-size="14" lengthAdjust="spacing" textLength="230.9291" x="235.16" y="272.7619">null_flavour : DV_CODED_TEXT [0..1]</text><ellipse cx="226.16" cy="285.6999" fill="none" rx="3" ry="3" style="stroke:#038048;stroke-width:1;"/><text fill="#000000" font-family="sans-serif" font-size="14" lengthAdjust="spacing" textLength="161.5593" x="235.16" y="289.5619">value : DATA_VALUE [0..1]</text><ellipse cx="226.16" cy="302.4998" fill="none" rx="3" ry="3" style="stroke:#038048;stroke-width:1;"/><text fill="#000000" font-family="sans-serif" font-size="14" lengthAdjust="spacing" textLength="174.8173" x="235.16" y="306.3618">null_reason : DV_TEXT [0..1]</text><line style="stroke:#181818;stroke-width:0.5;" x1="216.16" x2="471.0891" y1="313.3998" y2="313.3998"/><ellipse cx="226.16" cy="327.2997" fill="#84BE84" rx="3" ry="3" style="stroke:#038048;stroke-width:1;"/><text fill="#000000" font-family="sans-serif" font-size="14" lengthAdjust="spacing" textLength="128.5335" x="235.16" y="331.1617">is_null() : Boolean [1]</text></g><!--reverse link LOCATABLE to ITEM--><g class="link" data-entity-1="LOCATABLE" data-entity-2="ITEM" data-source-line="19" data-uid="lnk6" id="link_LOCATABLE_ITEM"><path codeLine="19" d="M218.63,73.26 C218.63,90.94 218.63,97.13 218.63,114.79" fill="none" id="LOCATABLE-backto-ITEM" style="stroke:#181818;stroke-width:1;"/><polygon fill="none" points="218.63,55.26,212.63,73.26,224.63,73.26,218.63,55.26" style="stroke:#181818;stroke-width:1;"/></g><!--reverse link ITEM to CLUSTER--><g class="link" data-entity-1="ITEM" data-entity-2="CLUSTER" data-source-line="20" data-uid="lnk7" id="link_ITEM_CLUSTER"><path codeLine="20" d="M185.6929,176.7801 C164.9829,199.9101 145.13,222.08 122.12,247.78" fill="none" id="ITEM-backto-CLUSTER" style="stroke:#181818;stroke-width:1;"/><polygon fill="none" points="197.7,163.37,181.2229,172.7777,190.163,180.7824,197.7,163.37" style="stroke:#181818;stroke-width:1;"/></g><!--reverse link ITEM to ELEMENT--><g class="link" data-entity-1="ITEM" data-entity-2="ELEMENT" data-source-line="21" data-uid="lnk8" id="link_ITEM_ELEMENT"><path codeLine="21" d="M251.5557,176.7813 C266.0757,193.0013 274.08,201.93 292.68,222.7" fill="none" id="ITEM-backto-ELEMENT" style="stroke:#181818;stroke-width:1;"/><polygon fill="none" points="239.55,163.37,247.0853,180.7832,256.0261,172.7794,239.55,163.37" style="stroke:#181818;stroke-width:1;"/></g></g></svg>
