<svg xmlns="http://www.w3.org/2000/svg" xmlns:xlink="http://www.w3.org/1999/xlink" contentStyleType="text/css" data-diagram-type="CLASS" height="421px" preserveAspectRatio="none" style="width:824px;height:421px;background:#FFFFFF;" version="1.1" viewBox="0 0 824 421" width="824px" zoomAndPan="magnify"><defs/><g><!--class AUTHORED_RESOURCE--><g class="entity" data-entity="AUTHORED_RESOURCE" data-source-line="2" data-uid="ent0002" id="entity_AUTHORED_RESOURCE"><rect fill="#F1F1F1" height="165.5995" rx="2.5" ry="2.5" style="stroke:#181818;stroke-width:0.5;" width="385.7706" x="7" y="7"/><ellipse cx="120.0636" cy="23" fill="#A9DCDF" rx="11" ry="11" style="stroke:#181818;stroke-width:1;"/><path d="M114.5792,28.5 L116.6105,28.5 L120.6573,17.1563 L119.7511,17.1563 L123.5792,28.5 L125.7198,28.5 L121.3917,16.1719 L119.173,16.1719 L114.5792,28.5 Z M116.9073,25 L123.3448,25 L123.3448,23.25 L116.9073,23.25 L116.9073,25 Z " fill="#000000"/><text fill="#000000" font-family="sans-serif" font-size="14" font-style="italic" lengthAdjust="spacing" textLength="151.1434" x="140.5636" y="28.362">AUTHORED_RESOURCE</text><line style="stroke:#181818;stroke-width:0.5;" x1="8" x2="391.7706" y1="39" y2="39"/><ellipse cx="18" cy="52.9" fill="none" rx="3" ry="3" style="stroke:#038048;stroke-width:1;"/><text fill="#000000" font-family="sans-serif" font-size="14" lengthAdjust="spacing" textLength="236.473" x="27" y="56.7619">original_language : CODE_PHRASE [1]</text><ellipse cx="18" cy="69.6999" fill="none" rx="3" ry="3" style="stroke:#038048;stroke-width:1;"/><text fill="#000000" font-family="sans-serif" font-size="14" lengthAdjust="spacing" textLength="176.1753" x="27" y="73.5619">is_controlled : Boolean [0..1]</text><ellipse cx="18" cy="86.4998" fill="none" rx="3" ry="3" style="stroke:#038048;stroke-width:1;"/><text fill="#000000" font-family="sans-serif" font-size="14" lengthAdjust="spacing" textLength="359.7706" x="27" y="90.3618">translations : Hash&lt;String,TRANSLATION_DETAILS&gt; [0..1]</text><ellipse cx="18" cy="103.2997" fill="none" rx="3" ry="3" style="stroke:#038048;stroke-width:1;"/><text fill="#000000" font-family="sans-serif" font-size="14" lengthAdjust="spacing" textLength="279.7049" x="27" y="107.1617">description : RESOURCE_DESCRIPTION [0..1]</text><ellipse cx="18" cy="120.0997" fill="none" rx="3" ry="3" style="stroke:#038048;stroke-width:1;"/><text fill="#000000" font-family="sans-serif" font-size="14" lengthAdjust="spacing" textLength="268.421" x="27" y="123.9616">revision_history : REVISION_HISTORY [0..1]</text><line style="stroke:#181818;stroke-width:0.5;" x1="8" x2="391.7706" y1="130.9996" y2="130.9996"/><ellipse cx="18" cy="144.8996" fill="#84BE84" rx="3" ry="3" style="stroke:#038048;stroke-width:1;"/><text fill="#000000" font-family="sans-serif" font-size="14" lengthAdjust="spacing" textLength="175.3493" x="27" y="148.7616">current_revision() : String [1]</text><ellipse cx="18" cy="161.6995" fill="#84BE84" rx="3" ry="3" style="stroke:#038048;stroke-width:1;"/><text fill="#000000" font-family="sans-serif" font-size="14" lengthAdjust="spacing" textLength="252.111" x="27" y="165.5615">languages_available() : List&lt;String&gt; [1..*]</text></g><!--class RESOURCE_DESCRIPTION--><g class="entity" data-entity="RESOURCE_DESCRIPTION" data-source-line="12" data-uid="ent0003" id="entity_RESOURCE_DESCRIPTION"><rect fill="#F1F1F1" height="165.5995" rx="2.5" ry="2.5" style="stroke:#181818;stroke-width:0.5;" width="389.6905" x="428.04" y="7"/><ellipse cx="535.6856" cy="23" fill="#ADD1B2" rx="11" ry="11" style="stroke:#181818;stroke-width:1;"/><path d="M535.6856,29.4219 C536.8575,29.4219 538.0918,29.1563 539.4668,28.5469 L538.9825,27.0313 C537.8887,27.4531 536.8731,27.6406 536.0137,27.6406 C533.295,27.6406 531.5762,25.7969 531.5762,22.8906 C531.5762,20.1406 533.1387,18.5469 535.8731,18.5469 C536.795,18.5469 537.8106,18.7344 538.9512,19.1563 L539.5293,17.6406 C538.4356,17.0625 537.1387,16.7656 535.9512,16.7656 C532.1856,16.7656 529.6075,19.4063 529.6075,23.2188 C529.6075,26.8906 532.0918,29.4219 535.6856,29.4219 Z " fill="#000000"/><text fill="#000000" font-family="sans-serif" font-size="14" lengthAdjust="spacing" textLength="165.8993" x="556.1856" y="28.362">RESOURCE_DESCRIPTION</text><line style="stroke:#181818;stroke-width:0.5;" x1="429.04" x2="816.7305" y1="39" y2="39"/><ellipse cx="439.04" cy="52.9" fill="none" rx="3" ry="3" style="stroke:#038048;stroke-width:1;"/><text fill="#000000" font-family="sans-serif" font-size="14" lengthAdjust="spacing" textLength="250.207" x="448.04" y="56.7619">original_author : Hash&lt;String,String&gt; [1]</text><ellipse cx="439.04" cy="69.6999" fill="none" rx="3" ry="3" style="stroke:#038048;stroke-width:1;"/><text fill="#000000" font-family="sans-serif" font-size="14" lengthAdjust="spacing" textLength="222.2912" x="448.04" y="73.5619">other_contributors : List&lt;String&gt; [*]</text><ellipse cx="439.04" cy="86.4998" fill="none" rx="3" ry="3" style="stroke:#038048;stroke-width:1;"/><text fill="#000000" font-family="sans-serif" font-size="14" lengthAdjust="spacing" textLength="154.7134" x="448.04" y="90.3618">lifecycle_state : String [1]</text><ellipse cx="439.04" cy="103.2997" fill="none" rx="3" ry="3" style="stroke:#038048;stroke-width:1;"/><text fill="#000000" font-family="sans-serif" font-size="14" lengthAdjust="spacing" textLength="217.6151" x="448.04" y="107.1617">resource_package_uri : String [0..1]</text><ellipse cx="439.04" cy="120.0997" fill="none" rx="3" ry="3" style="stroke:#038048;stroke-width:1;"/><text fill="#000000" font-family="sans-serif" font-size="14" lengthAdjust="spacing" textLength="252.727" x="448.04" y="123.9616">other_details : Hash&lt;String,String&gt; [0..1]</text><ellipse cx="439.04" cy="136.8996" fill="none" rx="3" ry="3" style="stroke:#038048;stroke-width:1;"/><text fill="#000000" font-family="sans-serif" font-size="14" lengthAdjust="spacing" textLength="281.6369" x="448.04" y="140.7616">parent_resource : AUTHORED_RESOURCE [1]</text><ellipse cx="439.04" cy="153.6995" fill="none" rx="3" ry="3" style="stroke:#038048;stroke-width:1;"/><text fill="#000000" font-family="sans-serif" font-size="14" lengthAdjust="spacing" textLength="363.6905" x="448.04" y="157.5615">details : Hash&lt;String,RESOURCE_DESCRIPTION_ITEM&gt; [1]</text><line style="stroke:#181818;stroke-width:0.5;" x1="429.04" x2="816.7305" y1="164.5995" y2="164.5995"/></g><!--class TRANSLATION_DETAILS--><g class="entity" data-entity="TRANSLATION_DETAILS" data-source-line="22" data-uid="ent0004" id="entity_TRANSLATION_DETAILS"><rect fill="#F1F1F1" height="115.1997" rx="2.5" ry="2.5" style="stroke:#181818;stroke-width:0.5;" width="278.727" x="60.52" y="266.2"/><ellipse cx="119.3128" cy="282.2" fill="#ADD1B2" rx="11" ry="11" style="stroke:#181818;stroke-width:1;"/><path d="M119.3128,288.6219 C120.4847,288.6219 121.7191,288.3563 123.0941,287.7469 L122.6097,286.2313 C121.5159,286.6531 120.5003,286.8406 119.6409,286.8406 C116.9222,286.8406 115.2034,284.9969 115.2034,282.0906 C115.2034,279.3406 116.7659,277.7469 119.5003,277.7469 C120.4222,277.7469 121.4378,277.9344 122.5784,278.3563 L123.1566,276.8406 C122.0628,276.2625 120.7659,275.9656 119.5784,275.9656 C115.8128,275.9656 113.2347,278.6063 113.2347,282.4188 C113.2347,286.0906 115.7191,288.6219 119.3128,288.6219 Z " fill="#000000"/><text fill="#000000" font-family="sans-serif" font-size="14" lengthAdjust="spacing" textLength="152.6414" x="139.8128" y="287.562">TRANSLATION_DETAILS</text><line style="stroke:#181818;stroke-width:0.5;" x1="61.52" x2="338.247" y1="298.2" y2="298.2"/><ellipse cx="71.52" cy="312.1" fill="none" rx="3" ry="3" style="stroke:#038048;stroke-width:1;"/><text fill="#000000" font-family="sans-serif" font-size="14" lengthAdjust="spacing" textLength="182.3913" x="80.52" y="315.9619">language : CODE_PHRASE [1]</text><ellipse cx="71.52" cy="328.8999" fill="none" rx="3" ry="3" style="stroke:#038048;stroke-width:1;"/><text fill="#000000" font-family="sans-serif" font-size="14" lengthAdjust="spacing" textLength="196.1253" x="80.52" y="332.7619">author : Hash&lt;String,String&gt; [1]</text><ellipse cx="71.52" cy="345.6998" fill="none" rx="3" ry="3" style="stroke:#038048;stroke-width:1;"/><text fill="#000000" font-family="sans-serif" font-size="14" lengthAdjust="spacing" textLength="159.2354" x="80.52" y="349.5618">accreditaton : String [0..1]</text><ellipse cx="71.52" cy="362.4997" fill="none" rx="3" ry="3" style="stroke:#038048;stroke-width:1;"/><text fill="#000000" font-family="sans-serif" font-size="14" lengthAdjust="spacing" textLength="252.727" x="80.52" y="366.3617">other_details : Hash&lt;String,String&gt; [0..1]</text><line style="stroke:#181818;stroke-width:0.5;" x1="61.52" x2="338.247" y1="373.3997" y2="373.3997"/></g><!--class RESOURCE_DESCRIPTION_ITEM--><g class="entity" data-entity="RESOURCE_DESCRIPTION_ITEM" data-source-line="29" data-uid="ent0005" id="entity_RESOURCE_DESCRIPTION_ITEM"><rect fill="#F1F1F1" height="182.3994" rx="2.5" ry="2.5" style="stroke:#181818;stroke-width:0.5;" width="328.4408" x="374.66" y="232.6"/><ellipse cx="432.2488" cy="248.6" fill="#ADD1B2" rx="11" ry="11" style="stroke:#181818;stroke-width:1;"/><path d="M432.2488,255.0219 C433.4207,255.0219 434.6551,254.7563 436.0301,254.1469 L435.5457,252.6313 C434.4519,253.0531 433.4363,253.2406 432.5769,253.2406 C429.8582,253.2406 428.1394,251.3969 428.1394,248.4906 C428.1394,245.7406 429.7019,244.1469 432.4363,244.1469 C433.3582,244.1469 434.3738,244.3344 435.5144,244.7563 L436.0926,243.2406 C434.9988,242.6625 433.7019,242.3656 432.5144,242.3656 C428.7488,242.3656 426.1707,245.0063 426.1707,248.8188 C426.1707,252.4906 428.6551,255.0219 432.2488,255.0219 Z " fill="#000000"/><text fill="#000000" font-family="sans-serif" font-size="14" lengthAdjust="spacing" textLength="204.7632" x="452.7488" y="253.962">RESOURCE_DESCRIPTION_ITEM</text><line style="stroke:#181818;stroke-width:0.5;" x1="375.66" x2="702.1008" y1="264.6" y2="264.6"/><ellipse cx="385.66" cy="278.5" fill="none" rx="3" ry="3" style="stroke:#038048;stroke-width:1;"/><text fill="#000000" font-family="sans-serif" font-size="14" lengthAdjust="spacing" textLength="182.3913" x="394.66" y="282.3619">language : CODE_PHRASE [1]</text><ellipse cx="385.66" cy="295.2999" fill="none" rx="3" ry="3" style="stroke:#038048;stroke-width:1;"/><text fill="#000000" font-family="sans-serif" font-size="14" lengthAdjust="spacing" textLength="116.8856" x="394.66" y="299.1619">purpose : String [1]</text><ellipse cx="385.66" cy="312.0998" fill="none" rx="3" ry="3" style="stroke:#038048;stroke-width:1;"/><text fill="#000000" font-family="sans-serif" font-size="14" lengthAdjust="spacing" textLength="164.6814" x="394.66" y="315.9618">keywords : List&lt;String&gt; [*]</text><ellipse cx="385.66" cy="328.8997" fill="none" rx="3" ry="3" style="stroke:#038048;stroke-width:1;"/><text fill="#000000" font-family="sans-serif" font-size="14" lengthAdjust="spacing" textLength="103.4456" x="394.66" y="332.7617">use : String [0..1]</text><ellipse cx="385.66" cy="345.6997" fill="none" rx="3" ry="3" style="stroke:#038048;stroke-width:1;"/><text fill="#000000" font-family="sans-serif" font-size="14" lengthAdjust="spacing" textLength="125.7895" x="394.66" y="349.5616">misuse : String [0..1]</text><ellipse cx="385.66" cy="362.4996" fill="none" rx="3" ry="3" style="stroke:#038048;stroke-width:1;"/><text fill="#000000" font-family="sans-serif" font-size="14" lengthAdjust="spacing" textLength="140.6295" x="394.66" y="366.3616">copyright : String [0..1]</text><ellipse cx="385.66" cy="379.2995" fill="none" rx="3" ry="3" style="stroke:#038048;stroke-width:1;"/><text fill="#000000" font-family="sans-serif" font-size="14" lengthAdjust="spacing" textLength="302.4408" x="394.66" y="383.1615">original_resource_uri : Hash&lt;String,String&gt; [0..1]</text><ellipse cx="385.66" cy="396.0995" fill="none" rx="3" ry="3" style="stroke:#038048;stroke-width:1;"/><text fill="#000000" font-family="sans-serif" font-size="14" lengthAdjust="spacing" textLength="252.727" x="394.66" y="399.9614">other_details : Hash&lt;String,String&gt; [0..1]</text><line style="stroke:#181818;stroke-width:0.5;" x1="375.66" x2="702.1008" y1="406.9994" y2="406.9994"/></g></g></svg>
