<svg xmlns="http://www.w3.org/2000/svg" xmlns:xlink="http://www.w3.org/1999/xlink" contentStyleType="text/css" data-diagram-type="CLASS" height="529px" preserveAspectRatio="none" style="width:986px;height:529px;background:#FFFFFF;" version="1.1" viewBox="0 0 986 529" width="986px" zoomAndPan="magnify"><defs/><g><!--class DV_PARAGRAPH--><g class="entity" data-entity="DV_PARAGRAPH" data-source-line="2" data-uid="ent0002" id="entity_DV_PARAGRAPH"><rect fill="#F1F1F1" height="64.7999" rx="2.5" ry="2.5" style="stroke:#181818;stroke-width:0.5;" width="199.1513" x="7" y="291.4"/><ellipse cx="49.6659" cy="307.4" fill="#ADD1B2" rx="11" ry="11" style="stroke:#181818;stroke-width:1;"/><path d="M49.6659,313.8219 C50.8377,313.8219 52.0721,313.5563 53.4471,312.9469 L52.9627,311.4313 C51.869,311.8531 50.8534,312.0406 49.994,312.0406 C47.2752,312.0406 45.5565,310.1969 45.5565,307.2906 C45.5565,304.5406 47.119,302.9469 49.8534,302.9469 C50.7752,302.9469 51.7909,303.1344 52.9315,303.5563 L53.5096,302.0406 C52.4159,301.4625 51.119,301.1656 49.9315,301.1656 C46.1659,301.1656 43.5877,303.8063 43.5877,307.6188 C43.5877,311.2906 46.0721,313.8219 49.6659,313.8219 Z " fill="#000000"/><text fill="#000000" font-family="sans-serif" font-size="14" lengthAdjust="spacing" textLength="105.6716" x="69.8138" y="312.762">DV_PARAGRAPH</text><line style="stroke:#181818;stroke-width:0.5;" x1="8" x2="205.1513" y1="323.4" y2="323.4"/><ellipse cx="18" cy="337.3" fill="none" rx="3" ry="3" style="stroke:#038048;stroke-width:1;"/><text fill="#000000" font-family="sans-serif" font-size="14" lengthAdjust="spacing" textLength="173.1513" x="27" y="341.1619">items : List&lt;DV_TEXT&gt; [1..*]</text><line style="stroke:#181818;stroke-width:0.5;" x1="8" x2="205.1513" y1="348.1999" y2="348.1999"/></g><!--class DV_TEXT--><g class="entity" data-entity="DV_TEXT" data-source-line="6" data-uid="ent0003" id="entity_DV_TEXT"><rect fill="#F1F1F1" height="148.7996" rx="2.5" ry="2.5" style="stroke:#181818;stroke-width:0.5;" width="260.289" x="241.43" y="249.4"/><ellipse cx="338.4426" cy="265.4" fill="#ADD1B2" rx="11" ry="11" style="stroke:#181818;stroke-width:1;"/><path d="M338.4426,271.8219 C339.6145,271.8219 340.8489,271.5563 342.2239,270.9469 L341.7395,269.4313 C340.6458,269.8531 339.6301,270.0406 338.7708,270.0406 C336.052,270.0406 334.3333,268.1969 334.3333,265.2906 C334.3333,262.5406 335.8958,260.9469 338.6301,260.9469 C339.552,260.9469 340.5676,261.1344 341.7083,261.5563 L342.2864,260.0406 C341.1926,259.4625 339.8958,259.1656 338.7083,259.1656 C334.9426,259.1656 332.3645,261.8063 332.3645,265.6188 C332.3645,269.2906 334.8489,271.8219 338.4426,271.8219 Z " fill="#000000"/><text fill="#000000" font-family="sans-serif" font-size="14" lengthAdjust="spacing" textLength="57.7638" x="358.9426" y="270.762">DV_TEXT</text><line style="stroke:#181818;stroke-width:0.5;" x1="242.43" x2="500.719" y1="281.4" y2="281.4"/><ellipse cx="252.43" cy="295.3" fill="none" rx="3" ry="3" style="stroke:#038048;stroke-width:1;"/><text fill="#000000" font-family="sans-serif" font-size="14" lengthAdjust="spacing" textLength="98.9656" x="261.43" y="299.1619">value : String [1]</text><ellipse cx="252.43" cy="312.0999" fill="none" rx="3" ry="3" style="stroke:#038048;stroke-width:1;"/><text fill="#000000" font-family="sans-serif" font-size="14" lengthAdjust="spacing" textLength="149.0854" x="261.43" y="315.9619">hyperlink : DV_URI [0..1]</text><ellipse cx="252.43" cy="328.8998" fill="none" rx="3" ry="3" style="stroke:#038048;stroke-width:1;"/><text fill="#000000" font-family="sans-serif" font-size="14" lengthAdjust="spacing" textLength="148.7634" x="261.43" y="332.7618">formatting : String [0..1]</text><ellipse cx="252.43" cy="345.6997" fill="none" rx="3" ry="3" style="stroke:#038048;stroke-width:1;"/><text fill="#000000" font-family="sans-serif" font-size="14" lengthAdjust="spacing" textLength="234.289" x="261.43" y="349.5617">mappings : List&lt;TERM_MAPPING&gt; [*]</text><ellipse cx="252.43" cy="362.4997" fill="none" rx="3" ry="3" style="stroke:#038048;stroke-width:1;"/><text fill="#000000" font-family="sans-serif" font-size="14" lengthAdjust="spacing" textLength="198.1552" x="261.43" y="366.3616">language : CODE_PHRASE [0..1]</text><ellipse cx="252.43" cy="379.2996" fill="none" rx="3" ry="3" style="stroke:#038048;stroke-width:1;"/><text fill="#000000" font-family="sans-serif" font-size="14" lengthAdjust="spacing" textLength="197.9732" x="261.43" y="383.1616">encoding : CODE_PHRASE [0..1]</text><line style="stroke:#181818;stroke-width:0.5;" x1="242.43" x2="500.719" y1="390.1996" y2="390.1996"/></g><!--class DV_CODED_TEXT--><g class="entity" data-entity="DV_CODED_TEXT" data-source-line="15" data-uid="ent0004" id="entity_DV_CODED_TEXT"><rect fill="#F1F1F1" height="64.7999" rx="2.5" ry="2.5" style="stroke:#181818;stroke-width:0.5;" width="238.7851" x="252.18" y="458.2"/><ellipse cx="311.0638" cy="474.2" fill="#ADD1B2" rx="11" ry="11" style="stroke:#181818;stroke-width:1;"/><path d="M311.0638,480.6219 C312.2357,480.6219 313.47,480.3563 314.845,479.7469 L314.3607,478.2313 C313.2669,478.6531 312.2513,478.8406 311.3919,478.8406 C308.6732,478.8406 306.9544,476.9969 306.9544,474.0906 C306.9544,471.3406 308.5169,469.7469 311.2513,469.7469 C312.1732,469.7469 313.1888,469.9344 314.3294,470.3563 L314.9075,468.8406 C313.8138,468.2625 312.5169,467.9656 311.3294,467.9656 C307.5638,467.9656 304.9857,470.6063 304.9857,474.4188 C304.9857,478.0906 307.47,480.6219 311.0638,480.6219 Z " fill="#000000"/><text fill="#000000" font-family="sans-serif" font-size="14" lengthAdjust="spacing" textLength="112.5175" x="331.5638" y="479.562">DV_CODED_TEXT</text><line style="stroke:#181818;stroke-width:0.5;" x1="253.18" x2="489.9651" y1="490.2" y2="490.2"/><ellipse cx="263.18" cy="504.1" fill="none" rx="3" ry="3" style="stroke:#038048;stroke-width:1;"/><text fill="#000000" font-family="sans-serif" font-size="14" lengthAdjust="spacing" textLength="212.7851" x="272.18" y="507.9619">defining_code : CODE_PHRASE [1]</text><line style="stroke:#181818;stroke-width:0.5;" x1="253.18" x2="489.9651" y1="514.9999" y2="514.9999"/></g><!--class TERM_MAPPING--><g class="entity" data-entity="TERM_MAPPING" data-source-line="19" data-uid="ent0005" id="entity_TERM_MAPPING"><rect fill="#F1F1F1" height="182.3994" rx="2.5" ry="2.5" style="stroke:#181818;stroke-width:0.5;" width="345.2408" x="331.96" y="7"/><ellipse cx="447.6486" cy="23" fill="#ADD1B2" rx="11" ry="11" style="stroke:#181818;stroke-width:1;"/><path d="M447.6486,29.4219 C448.8205,29.4219 450.0549,29.1563 451.4299,28.5469 L450.9455,27.0313 C449.8517,27.4531 448.8361,27.6406 447.9767,27.6406 C445.258,27.6406 443.5392,25.7969 443.5392,22.8906 C443.5392,20.1406 445.1017,18.5469 447.8361,18.5469 C448.758,18.5469 449.7736,18.7344 450.9142,19.1563 L451.4924,17.6406 C450.3986,17.0625 449.1017,16.7656 447.9142,16.7656 C444.1486,16.7656 441.5705,19.4063 441.5705,23.2188 C441.5705,26.8906 444.0549,29.4219 447.6486,29.4219 Z " fill="#000000"/><text fill="#000000" font-family="sans-serif" font-size="14" lengthAdjust="spacing" textLength="105.3636" x="468.1486" y="28.362">TERM_MAPPING</text><line style="stroke:#181818;stroke-width:0.5;" x1="332.96" x2="676.2008" y1="39" y2="39"/><ellipse cx="342.96" cy="52.9" fill="none" rx="3" ry="3" style="stroke:#038048;stroke-width:1;"/><text fill="#000000" font-family="sans-serif" font-size="14" lengthAdjust="spacing" textLength="128.4915" x="351.96" y="56.7619">match : Character [1]</text><ellipse cx="342.96" cy="69.6999" fill="none" rx="3" ry="3" style="stroke:#038048;stroke-width:1;"/><text fill="#000000" font-family="sans-serif" font-size="14" lengthAdjust="spacing" textLength="207.7312" x="351.96" y="73.5619">purpose : DV_CODED_TEXT [0..1]</text><ellipse cx="342.96" cy="86.4998" fill="none" rx="3" ry="3" style="stroke:#038048;stroke-width:1;"/><text fill="#000000" font-family="sans-serif" font-size="14" lengthAdjust="spacing" textLength="162.9874" x="351.96" y="90.3618">target : CODE_PHRASE [1]</text><line style="stroke:#181818;stroke-width:0.5;" x1="332.96" x2="676.2008" y1="97.3998" y2="97.3998"/><ellipse cx="342.96" cy="111.2997" fill="#84BE84" rx="3" ry="3" style="stroke:#038048;stroke-width:1;"/><text fill="#000000" font-family="sans-serif" font-size="14" lengthAdjust="spacing" textLength="145.2915" x="351.96" y="115.1617">narrower() : Boolean [1]</text><ellipse cx="342.96" cy="128.0997" fill="#84BE84" rx="3" ry="3" style="stroke:#038048;stroke-width:1;"/><text fill="#000000" font-family="sans-serif" font-size="14" lengthAdjust="spacing" textLength="137.0735" x="351.96" y="131.9616">broader() : Boolean [1]</text><ellipse cx="342.96" cy="144.8996" fill="#84BE84" rx="3" ry="3" style="stroke:#038048;stroke-width:1;"/><text fill="#000000" font-family="sans-serif" font-size="14" lengthAdjust="spacing" textLength="152.8514" x="351.96" y="148.7616">equivalent() : Boolean [1]</text><ellipse cx="342.96" cy="161.6995" fill="#84BE84" rx="3" ry="3" style="stroke:#038048;stroke-width:1;"/><text fill="#000000" font-family="sans-serif" font-size="14" lengthAdjust="spacing" textLength="145.5574" x="351.96" y="165.5615">unknown() : Boolean [1]</text><ellipse cx="342.96" cy="178.4995" fill="#84BE84" rx="3" ry="3" style="stroke:#038048;stroke-width:1;"/><text fill="#000000" font-family="sans-serif" font-size="14" lengthAdjust="spacing" textLength="319.2408" x="351.96" y="182.3614">is_valid_match_code( c : Character [1] ) : Boolean [1]</text></g><!--class CODE_PHRASE--><g class="entity" data-entity="CODE_PHRASE" data-source-line="30" data-uid="ent0006" id="entity_CODE_PHRASE"><rect fill="#F1F1F1" height="98.3998" rx="2.5" ry="2.5" style="stroke:#181818;stroke-width:0.5;" width="267.177" x="711.99" y="49"/><ellipse cx="793.0707" cy="65" fill="#ADD1B2" rx="11" ry="11" style="stroke:#181818;stroke-width:1;"/><path d="M793.0707,71.4219 C794.2426,71.4219 795.477,71.1563 796.852,70.5469 L796.3676,69.0313 C795.2738,69.4531 794.2582,69.6406 793.3988,69.6406 C790.6801,69.6406 788.9613,67.7969 788.9613,64.8906 C788.9613,62.1406 790.5238,60.5469 793.2582,60.5469 C794.1801,60.5469 795.1957,60.7344 796.3363,61.1563 L796.9145,59.6406 C795.8207,59.0625 794.5238,58.7656 793.3363,58.7656 C789.5707,58.7656 786.9926,61.4063 786.9926,65.2188 C786.9926,68.8906 789.477,71.4219 793.0707,71.4219 Z " fill="#000000"/><text fill="#000000" font-family="sans-serif" font-size="14" lengthAdjust="spacing" textLength="96.5156" x="813.5707" y="70.362">CODE_PHRASE</text><line style="stroke:#181818;stroke-width:0.5;" x1="712.99" x2="978.167" y1="81" y2="81"/><ellipse cx="722.99" cy="94.9" fill="none" rx="3" ry="3" style="stroke:#038048;stroke-width:1;"/><text fill="#000000" font-family="sans-serif" font-size="14" lengthAdjust="spacing" textLength="241.177" x="731.99" y="98.7619">terminology_id : TERMINOLOGY_ID [1]</text><ellipse cx="722.99" cy="111.6999" fill="none" rx="3" ry="3" style="stroke:#038048;stroke-width:1;"/><text fill="#000000" font-family="sans-serif" font-size="14" lengthAdjust="spacing" textLength="139.0195" x="731.99" y="115.5619">code_string : String [1]</text><ellipse cx="722.99" cy="128.4998" fill="none" rx="3" ry="3" style="stroke:#038048;stroke-width:1;"/><text fill="#000000" font-family="sans-serif" font-size="14" lengthAdjust="spacing" textLength="177.6173" x="731.99" y="132.3618">preferred_term : String [0..1]</text><line style="stroke:#181818;stroke-width:0.5;" x1="712.99" x2="978.167" y1="139.3998" y2="139.3998"/></g><!--class DATA_VALUE--><g class="entity" data-entity="DATA_VALUE" data-source-line="36" data-uid="ent0007" id="entity_DATA_VALUE"><rect fill="#F1F1F1" height="48" rx="2.5" ry="2.5" style="stroke:#181818;stroke-width:0.5;" width="116.2657" x="180.44" y="74.2"/><ellipse cx="195.44" cy="90.2" fill="#ADD1B2" rx="11" ry="11" style="stroke:#181818;stroke-width:1;"/><path d="M195.44,96.6219 C196.6119,96.6219 197.8463,96.3562 199.2213,95.7469 L198.7369,94.2312 C197.6431,94.6531 196.6275,94.8406 195.7681,94.8406 C193.0494,94.8406 191.3306,92.9969 191.3306,90.0906 C191.3306,87.3406 192.8931,85.7469 195.6275,85.7469 C196.5494,85.7469 197.565,85.9344 198.7056,86.3562 L199.2838,84.8406 C198.19,84.2625 196.8931,83.9656 195.7056,83.9656 C191.94,83.9656 189.3619,86.6062 189.3619,90.4187 C189.3619,94.0906 191.8463,96.6219 195.44,96.6219 Z " fill="#000000"/><text fill="#000000" font-family="sans-serif" font-size="14" lengthAdjust="spacing" textLength="84.2657" x="209.44" y="95.562">DATA_VALUE</text><line style="stroke:#181818;stroke-width:0.5;" x1="181.44" x2="295.7057" y1="106.2" y2="106.2"/><line style="stroke:#181818;stroke-width:0.5;" x1="181.44" x2="295.7057" y1="114.2" y2="114.2"/></g><!--reverse link DATA_VALUE to DV_PARAGRAPH--><g class="link" data-entity-1="DATA_VALUE" data-entity-2="DV_PARAGRAPH" data-source-line="36" data-uid="lnk8" id="link_DATA_VALUE_DV_PARAGRAPH"><path codeLine="36" d="M215.7991,137.7904 C192.0191,178.0704 152.07,245.73 125.19,291.28" fill="none" id="DATA_VALUE-backto-DV_PARAGRAPH" style="stroke:#181818;stroke-width:1;"/><polygon fill="none" points="224.95,122.29,210.6323,134.7401,220.9659,140.8407,224.95,122.29" style="stroke:#181818;stroke-width:1;"/></g><!--reverse link DATA_VALUE to DV_TEXT--><g class="link" data-entity-1="DATA_VALUE" data-entity-2="DV_TEXT" data-source-line="37" data-uid="lnk9" id="link_DATA_VALUE_DV_TEXT"><path codeLine="37" d="M261.5103,137.7611 C279.1603,167.4411 301.46,204.93 327.66,248.97" fill="none" id="DATA_VALUE-backto-DV_TEXT" style="stroke:#181818;stroke-width:1;"/><polygon fill="none" points="252.31,122.29,256.3533,140.8279,266.6673,134.6943,252.31,122.29" style="stroke:#181818;stroke-width:1;"/></g><!--reverse link DV_TEXT to DV_CODED_TEXT--><g class="link" data-entity-1="DV_TEXT" data-entity-2="DV_CODED_TEXT" data-source-line="38" data-uid="lnk10" id="link_DV_TEXT_DV_CODED_TEXT"><path codeLine="38" d="M371.58,416.52 C371.58,437.43 371.58,441.1 371.58,458.05" fill="none" id="DV_TEXT-backto-DV_CODED_TEXT" style="stroke:#181818;stroke-width:1;"/><polygon fill="none" points="371.58,398.52,365.58,416.52,377.58,416.52,371.58,398.52" style="stroke:#181818;stroke-width:1;"/></g></g></svg>
