<svg xmlns="http://www.w3.org/2000/svg" xmlns:xlink="http://www.w3.org/1999/xlink" contentStyleType="text/css" data-diagram-type="CLASS" height="170px" preserveAspectRatio="none" style="width:149px;height:170px;background:#FFFFFF;" version="1.1" viewBox="0 0 149 170" width="149px" zoomAndPan="magnify"><defs/><g><!--class CONTENT_ITEM--><g class="entity" data-entity="CONTENT_ITEM" data-source-line="2" data-uid="ent0002" id="entity_CONTENT_ITEM"><rect fill="#F1F1F1" height="48" rx="2.5" ry="2.5" style="stroke:#181818;stroke-width:0.5;" width="135.5576" x="7" y="115"/><ellipse cx="22" cy="131" fill="#A9DCDF" rx="11" ry="11" style="stroke:#181818;stroke-width:1;"/><path d="M16.5156,136.5 L18.5469,136.5 L22.5938,125.1563 L21.6875,125.1563 L25.5156,136.5 L27.6563,136.5 L23.3281,124.1719 L21.1094,124.1719 L16.5156,136.5 Z M18.8438,133 L25.2813,133 L25.2813,131.25 L18.8438,131.25 L18.8438,133 Z " fill="#000000"/><text fill="#000000" font-family="sans-serif" font-size="14" font-style="italic" lengthAdjust="spacing" textLength="103.5576" x="36" y="136.362">CONTENT_ITEM</text><line style="stroke:#181818;stroke-width:0.5;" x1="8" x2="141.5576" y1="147" y2="147"/><line style="stroke:#181818;stroke-width:0.5;" x1="8" x2="141.5576" y1="155" y2="155"/></g><!--class LOCATABLE--><g class="entity" data-entity="LOCATABLE" data-source-line="5" data-uid="ent0003" id="entity_LOCATABLE"><rect fill="#F5F5F5" height="48" rx="2.5" ry="2.5" style="stroke:#808080;stroke-width:1;stroke-dasharray:1,3;" width="108.2857" x="20.64" y="7"/><ellipse cx="35.64" cy="23" fill="#A9DCDF" rx="11" ry="11" style="stroke:#181818;stroke-width:1;"/><path d="M30.1556,28.5 L32.1869,28.5 L36.2338,17.1563 L35.3275,17.1563 L39.1556,28.5 L41.2963,28.5 L36.9681,16.1719 L34.7494,16.1719 L30.1556,28.5 Z M32.4838,25 L38.9213,25 L38.9213,23.25 L32.4838,23.25 L32.4838,25 Z " fill="#000000"/><text fill="#808080" font-family="sans-serif" font-size="14" font-style="italic" lengthAdjust="spacing" textLength="76.2857" x="49.64" y="28.362">LOCATABLE</text><line style="stroke:#808080;stroke-width:1;stroke-dasharray:1,3;" x1="21.64" x2="127.9257" y1="39" y2="39"/><line style="stroke:#808080;stroke-width:1;stroke-dasharray:1,3;" x1="21.64" x2="127.9257" y1="47" y2="47"/></g><!--reverse link LOCATABLE to CONTENT_ITEM--><g class="link" data-entity-1="LOCATABLE" data-entity-2="CONTENT_ITEM" data-source-line="8" data-uid="lnk4" id="link_LOCATABLE_CONTENT_ITEM"><path codeLine="8" d="M74.78,73.26 C74.78,90.94 74.78,97.13 74.78,114.79" fill="none" id="LOCATABLE-backto-CONTENT_ITEM" style="stroke:#181818;stroke-width:1;"/><polygon fill="none" points="74.78,55.26,68.78,73.26,80.78,73.26,74.78,55.26" style="stroke:#181818;stroke-width:1;"/></g></g></svg>
