<svg xmlns="http://www.w3.org/2000/svg" xmlns:xlink="http://www.w3.org/1999/xlink" contentStyleType="text/css" data-diagram-type="CLASS" height="563px" preserveAspectRatio="none" style="width:2451px;height:563px;background:#FFFFFF;" version="1.1" viewBox="0 0 2451 563" width="2451px" zoomAndPan="magnify"><defs/><g><!--class EXTRACT--><g class="entity" data-entity="EXTRACT" data-source-line="2" data-uid="ent0002" id="entity_EXTRACT"><rect fill="#F1F1F1" height="165.5995" rx="2.5" ry="2.5" style="stroke:#181818;stroke-width:0.5;" width="344.2607" x="1080.52" y="207.4"/><ellipse cx="1218.9795" cy="223.4" fill="#ADD1B2" rx="11" ry="11" style="stroke:#181818;stroke-width:1;"/><path d="M1218.9795,229.8219 C1220.1513,229.8219 1221.3857,229.5563 1222.7607,228.9469 L1222.2763,227.4313 C1221.1826,227.8531 1220.167,228.0406 1219.3076,228.0406 C1216.5888,228.0406 1214.8701,226.1969 1214.8701,223.2906 C1214.8701,220.5406 1216.4326,218.9469 1219.167,218.9469 C1220.0888,218.9469 1221.1045,219.1344 1222.2451,219.5563 L1222.8232,218.0406 C1221.7295,217.4625 1220.4326,217.1656 1219.2451,217.1656 C1215.4795,217.1656 1212.9013,219.8063 1212.9013,223.6188 C1212.9013,227.2906 1215.3857,229.8219 1218.9795,229.8219 Z " fill="#000000"/><text fill="#000000" font-family="sans-serif" font-size="14" lengthAdjust="spacing" textLength="58.8418" x="1239.4795" y="228.762">EXTRACT</text><line style="stroke:#181818;stroke-width:0.5;" x1="1081.52" x2="1423.7807" y1="239.4" y2="239.4"/><ellipse cx="1091.52" cy="253.3" fill="none" rx="3" ry="3" style="stroke:#038048;stroke-width:1;"/><text fill="#000000" font-family="sans-serif" font-size="14" lengthAdjust="spacing" textLength="248.135" x="1100.52" y="257.1619">chapters : List&lt;EXTRACT_CHAPTER&gt; [*]</text><ellipse cx="1091.52" cy="270.0999" fill="none" rx="3" ry="3" style="stroke:#038048;stroke-width:1;"/><text fill="#000000" font-family="sans-serif" font-size="14" lengthAdjust="spacing" textLength="221.5071" x="1100.52" y="273.9619">specification : EXTRACT_SPEC [0..1]</text><ellipse cx="1091.52" cy="286.8998" fill="none" rx="3" ry="3" style="stroke:#038048;stroke-width:1;"/><text fill="#000000" font-family="sans-serif" font-size="14" lengthAdjust="spacing" textLength="218.6791" x="1100.52" y="290.7618">request_id : HIER_OBJECT_ID [0..1]</text><ellipse cx="1091.52" cy="303.6997" fill="none" rx="3" ry="3" style="stroke:#038048;stroke-width:1;"/><text fill="#000000" font-family="sans-serif" font-size="14" lengthAdjust="spacing" textLength="209.7192" x="1100.52" y="307.5617">time_created : DV_DATE_TIME [1]</text><ellipse cx="1091.52" cy="320.4997" fill="none" rx="3" ry="3" style="stroke:#038048;stroke-width:1;"/><text fill="#000000" font-family="sans-serif" font-size="14" lengthAdjust="spacing" textLength="200.0732" x="1100.52" y="324.3616">system_id : HIER_OBJECT_ID [1]</text><ellipse cx="1091.52" cy="337.2996" fill="none" rx="3" ry="3" style="stroke:#038048;stroke-width:1;"/><text fill="#000000" font-family="sans-serif" font-size="14" lengthAdjust="spacing" textLength="152.4734" x="1100.52" y="341.1616">sequence_nr : Integer [1]</text><ellipse cx="1091.52" cy="354.0995" fill="none" rx="3" ry="3" style="stroke:#038048;stroke-width:1;"/><text fill="#000000" font-family="sans-serif" font-size="14" lengthAdjust="spacing" textLength="318.2607" x="1100.52" y="357.9615">participations : List&lt;EXTRACT_PARTICIPATION&gt; [*]</text><line style="stroke:#181818;stroke-width:0.5;" x1="1081.52" x2="1423.7807" y1="364.9995" y2="364.9995"/></g><!--class EXTRACT_ACTION_REQUEST--><g class="entity" data-entity="EXTRACT_ACTION_REQUEST" data-source-line="12" data-uid="ent0003" id="entity_EXTRACT_ACTION_REQUEST"><rect fill="#F1F1F1" height="98.3998" rx="2.5" ry="2.5" style="stroke:#181818;stroke-width:0.5;" width="216.2392" x="1459.53" y="241"/><ellipse cx="1474.53" cy="257" fill="#ADD1B2" rx="11" ry="11" style="stroke:#181818;stroke-width:1;"/><path d="M1474.53,263.4219 C1475.7019,263.4219 1476.9363,263.1563 1478.3113,262.5469 L1477.8269,261.0313 C1476.7331,261.4531 1475.7175,261.6406 1474.8581,261.6406 C1472.1394,261.6406 1470.4206,259.7969 1470.4206,256.8906 C1470.4206,254.1406 1471.9831,252.5469 1474.7175,252.5469 C1475.6394,252.5469 1476.655,252.7344 1477.7956,253.1563 L1478.3738,251.6406 C1477.28,251.0625 1475.9831,250.7656 1474.7956,250.7656 C1471.03,250.7656 1468.4519,253.4063 1468.4519,257.2188 C1468.4519,260.8906 1470.9363,263.4219 1474.53,263.4219 Z " fill="#000000"/><text fill="#000000" font-family="sans-serif" font-size="14" lengthAdjust="spacing" textLength="184.2392" x="1488.53" y="262.362">EXTRACT_ACTION_REQUEST</text><line style="stroke:#181818;stroke-width:0.5;" x1="1460.53" x2="1674.7692" y1="273" y2="273"/><ellipse cx="1470.53" cy="286.9" fill="none" rx="3" ry="3" style="stroke:#038048;stroke-width:1;"/><text fill="#000000" font-family="sans-serif" font-size="14" lengthAdjust="spacing" textLength="176.2733" x="1479.53" y="290.7619">request_id : OBJECT_REF [1]</text><ellipse cx="1470.53" cy="303.6999" fill="none" rx="3" ry="3" style="stroke:#038048;stroke-width:1;"/><text fill="#000000" font-family="sans-serif" font-size="14" lengthAdjust="spacing" textLength="156.3234" x="1479.53" y="307.5619">uid : HIER_OBJECT_ID [1]</text><ellipse cx="1470.53" cy="320.4998" fill="none" rx="3" ry="3" style="stroke:#038048;stroke-width:1;"/><text fill="#000000" font-family="sans-serif" font-size="14" lengthAdjust="spacing" textLength="179.1433" x="1479.53" y="324.3618">action : DV_CODED_TEXT [1]</text><line style="stroke:#181818;stroke-width:0.5;" x1="1460.53" x2="1674.7692" y1="331.3998" y2="331.3998"/></g><!--class EXTRACT_CHAPTER--><g class="entity" data-entity="EXTRACT_CHAPTER" data-source-line="18" data-uid="ent0004" id="entity_EXTRACT_CHAPTER"><rect fill="#F1F1F1" height="64.7999" rx="2.5" ry="2.5" style="stroke:#181818;stroke-width:0.5;" width="226.0032" x="1710.64" y="257.8"/><ellipse cx="1756.0069" cy="273.8" fill="#ADD1B2" rx="11" ry="11" style="stroke:#181818;stroke-width:1;"/><path d="M1756.0069,280.2219 C1757.1787,280.2219 1758.4131,279.9563 1759.7881,279.3469 L1759.3037,277.8313 C1758.21,278.2531 1757.1944,278.4406 1756.335,278.4406 C1753.6162,278.4406 1751.8975,276.5969 1751.8975,273.6906 C1751.8975,270.9406 1753.46,269.3469 1756.1944,269.3469 C1757.1162,269.3469 1758.1319,269.5344 1759.2725,269.9563 L1759.8506,268.4406 C1758.7569,267.8625 1757.46,267.5656 1756.2725,267.5656 C1752.5069,267.5656 1749.9287,270.2063 1749.9287,274.0188 C1749.9287,277.6906 1752.4131,280.2219 1756.0069,280.2219 Z " fill="#000000"/><text fill="#000000" font-family="sans-serif" font-size="14" lengthAdjust="spacing" textLength="126.7695" x="1776.5069" y="279.162">EXTRACT_CHAPTER</text><line style="stroke:#181818;stroke-width:0.5;" x1="1711.64" x2="1935.6432" y1="289.8" y2="289.8"/><ellipse cx="1721.64" cy="303.7" fill="none" rx="3" ry="3" style="stroke:#038048;stroke-width:1;"/><text fill="#000000" font-family="sans-serif" font-size="14" lengthAdjust="spacing" textLength="200.0032" x="1730.64" y="307.5619">items : List&lt;EXTRACT_ITEM&gt; [*]</text><line style="stroke:#181818;stroke-width:0.5;" x1="1711.64" x2="1935.6432" y1="314.5999" y2="314.5999"/></g><!--class EXTRACT_CONTENT_ITEM--><g class="entity" data-entity="EXTRACT_CONTENT_ITEM" data-source-line="22" data-uid="ent0005" id="entity_EXTRACT_CONTENT_ITEM"><rect fill="#F1F1F1" height="115.1997" rx="2.5" ry="2.5" style="stroke:#181818;stroke-width:0.5;" width="201.3993" x="1935.95" y="441.4"/><ellipse cx="1950.95" cy="457.4" fill="#A9DCDF" rx="11" ry="11" style="stroke:#181818;stroke-width:1;"/><path d="M1945.4656,462.9 L1947.4969,462.9 L1951.5438,451.5563 L1950.6375,451.5563 L1954.4656,462.9 L1956.6063,462.9 L1952.2781,450.5719 L1950.0594,450.5719 L1945.4656,462.9 Z M1947.7938,459.4 L1954.2313,459.4 L1954.2313,457.65 L1947.7938,457.65 L1947.7938,459.4 Z " fill="#000000"/><text fill="#000000" font-family="sans-serif" font-size="14" font-style="italic" lengthAdjust="spacing" textLength="169.3993" x="1964.95" y="462.762">EXTRACT_CONTENT_ITEM</text><line style="stroke:#181818;stroke-width:0.5;" x1="1936.95" x2="2136.3493" y1="473.4" y2="473.4"/><ellipse cx="1946.95" cy="487.3" fill="none" rx="3" ry="3" style="stroke:#038048;stroke-width:1;"/><text fill="#000000" font-family="sans-serif" font-size="14" lengthAdjust="spacing" textLength="144.8574" x="1955.95" y="491.1619">is_primary : Boolean [1]</text><ellipse cx="1946.95" cy="504.0999" fill="none" rx="3" ry="3" style="stroke:#038048;stroke-width:1;"/><text fill="#000000" font-family="sans-serif" font-size="14" lengthAdjust="spacing" textLength="165.2693" x="1955.95" y="507.9619">is_changed : Boolean [0..1]</text><ellipse cx="1946.95" cy="520.8998" fill="none" rx="3" ry="3" style="stroke:#038048;stroke-width:1;"/><text fill="#000000" font-family="sans-serif" font-size="14" lengthAdjust="spacing" textLength="160.7473" x="1955.95" y="524.7618">is_masked : Boolean [0..1]</text><ellipse cx="1946.95" cy="537.6997" fill="none" rx="3" ry="3" style="stroke:#038048;stroke-width:1;"/><text fill="#000000" font-family="sans-serif" font-size="14" lengthAdjust="spacing" textLength="96.0256" x="1955.95" y="541.5617">item : Any [0..1]</text><line style="stroke:#181818;stroke-width:0.5;" x1="1936.95" x2="2136.3493" y1="548.5997" y2="548.5997"/></g><!--class EXTRACT_ENTITY_CHAPTER--><g class="entity" data-entity="EXTRACT_ENTITY_CHAPTER" data-source-line="29" data-uid="ent0006" id="entity_EXTRACT_ENTITY_CHAPTER"><rect fill="#F1F1F1" height="64.7999" rx="2.5" ry="2.5" style="stroke:#181818;stroke-width:0.5;" width="212.1512" x="1688.57" y="466.6"/><ellipse cx="1703.57" cy="482.6" fill="#ADD1B2" rx="11" ry="11" style="stroke:#181818;stroke-width:1;"/><path d="M1703.57,489.0219 C1704.7419,489.0219 1705.9763,488.7563 1707.3513,488.1469 L1706.8669,486.6313 C1705.7731,487.0531 1704.7575,487.2406 1703.8981,487.2406 C1701.1794,487.2406 1699.4606,485.3969 1699.4606,482.4906 C1699.4606,479.7406 1701.0231,478.1469 1703.7575,478.1469 C1704.6794,478.1469 1705.695,478.3344 1706.8356,478.7563 L1707.4138,477.2406 C1706.32,476.6625 1705.0231,476.3656 1703.8356,476.3656 C1700.07,476.3656 1697.4919,479.0063 1697.4919,482.8188 C1697.4919,486.4906 1699.9763,489.0219 1703.57,489.0219 Z " fill="#000000"/><text fill="#000000" font-family="sans-serif" font-size="14" lengthAdjust="spacing" textLength="180.1512" x="1717.57" y="487.962">EXTRACT_ENTITY_CHAPTER</text><line style="stroke:#181818;stroke-width:0.5;" x1="1689.57" x2="1899.7212" y1="498.6" y2="498.6"/><ellipse cx="1699.57" cy="512.5" fill="none" rx="3" ry="3" style="stroke:#038048;stroke-width:1;"/><text fill="#000000" font-family="sans-serif" font-size="14" lengthAdjust="spacing" textLength="155.5394" x="1708.57" y="516.3619">extract_id_key : String [1]</text><line style="stroke:#181818;stroke-width:0.5;" x1="1689.57" x2="1899.7212" y1="523.3999" y2="523.3999"/></g><!--class EXTRACT_ENTITY_MANIFEST--><g class="entity" data-entity="EXTRACT_ENTITY_MANIFEST" data-source-line="33" data-uid="ent0007" id="entity_EXTRACT_ENTITY_MANIFEST"><rect fill="#F1F1F1" height="131.9996" rx="2.5" ry="2.5" style="stroke:#181818;stroke-width:0.5;" width="229.5872" x="97.85" y="7"/><ellipse cx="118.0754" cy="23" fill="#ADD1B2" rx="11" ry="11" style="stroke:#181818;stroke-width:1;"/><path d="M118.0754,29.4219 C119.2472,29.4219 120.4816,29.1563 121.8566,28.5469 L121.3722,27.0313 C120.2785,27.4531 119.2629,27.6406 118.4035,27.6406 C115.6847,27.6406 113.966,25.7969 113.966,22.8906 C113.966,20.1406 115.5285,18.5469 118.2629,18.5469 C119.1847,18.5469 120.2004,18.7344 121.341,19.1563 L121.9191,17.6406 C120.8254,17.0625 119.5285,16.7656 118.341,16.7656 C114.5754,16.7656 111.9972,19.4063 111.9972,23.2188 C111.9972,26.8906 114.4816,29.4219 118.0754,29.4219 Z " fill="#000000"/><text fill="#000000" font-family="sans-serif" font-size="14" lengthAdjust="spacing" textLength="185.9752" x="133.2366" y="28.362">EXTRACT_ENTITY_MANIFEST</text><line style="stroke:#181818;stroke-width:0.5;" x1="98.85" x2="326.4372" y1="39" y2="39"/><ellipse cx="108.85" cy="52.9" fill="none" rx="3" ry="3" style="stroke:#038048;stroke-width:1;"/><text fill="#000000" font-family="sans-serif" font-size="14" lengthAdjust="spacing" textLength="155.5394" x="117.85" y="56.7619">extract_id_key : String [1]</text><ellipse cx="108.85" cy="69.6999" fill="none" rx="3" ry="3" style="stroke:#038048;stroke-width:1;"/><text fill="#000000" font-family="sans-serif" font-size="14" lengthAdjust="spacing" textLength="120.7775" x="117.85" y="73.5619">ehr_id : String [0..1]</text><ellipse cx="108.85" cy="86.4998" fill="none" rx="3" ry="3" style="stroke:#038048;stroke-width:1;"/><text fill="#000000" font-family="sans-serif" font-size="14" lengthAdjust="spacing" textLength="144.8854" x="117.85" y="90.3618">subject_id : String [0..1]</text><ellipse cx="108.85" cy="103.2997" fill="none" rx="3" ry="3" style="stroke:#038048;stroke-width:1;"/><text fill="#000000" font-family="sans-serif" font-size="14" lengthAdjust="spacing" textLength="163.4634" x="117.85" y="107.1617">other_ids : List&lt;String&gt; [*]</text><ellipse cx="108.85" cy="120.0997" fill="none" rx="3" ry="3" style="stroke:#038048;stroke-width:1;"/><text fill="#000000" font-family="sans-serif" font-size="14" lengthAdjust="spacing" textLength="203.5872" x="117.85" y="123.9616">item_list : List&lt;OBJECT_REF&gt; [*]</text><line style="stroke:#181818;stroke-width:0.5;" x1="98.85" x2="326.4372" y1="130.9996" y2="130.9996"/></g><!--class EXTRACT_ERROR--><g class="entity" data-entity="EXTRACT_ERROR" data-source-line="41" data-uid="ent0008" id="entity_EXTRACT_ERROR"><rect fill="#F1F1F1" height="81.5999" rx="2.5" ry="2.5" style="stroke:#181818;stroke-width:0.5;" width="218.0372" x="362.63" y="32.2"/><ellipse cx="412.0498" cy="48.2" fill="#ADD1B2" rx="11" ry="11" style="stroke:#181818;stroke-width:1;"/><path d="M412.0498,54.6219 C413.2217,54.6219 414.4561,54.3563 415.8311,53.7469 L415.3467,52.2313 C414.253,52.6531 413.2373,52.8406 412.378,52.8406 C409.6592,52.8406 407.9405,50.9969 407.9405,48.0906 C407.9405,45.3406 409.503,43.7469 412.2373,43.7469 C413.1592,43.7469 414.1748,43.9344 415.3155,44.3563 L415.8936,42.8406 C414.7998,42.2625 413.503,41.9656 412.3155,41.9656 C408.5498,41.9656 405.9717,44.6063 405.9717,48.4188 C405.9717,52.0906 408.4561,54.6219 412.0498,54.6219 Z " fill="#000000"/><text fill="#000000" font-family="sans-serif" font-size="14" lengthAdjust="spacing" textLength="110.6975" x="432.5498" y="53.562">EXTRACT_ERROR</text><line style="stroke:#181818;stroke-width:0.5;" x1="363.63" x2="579.6672" y1="64.2" y2="64.2"/><ellipse cx="373.63" cy="78.1" fill="none" rx="3" ry="3" style="stroke:#038048;stroke-width:1;"/><text fill="#000000" font-family="sans-serif" font-size="14" lengthAdjust="spacing" textLength="192.0372" x="382.63" y="81.9619">request_id : OBJECT_REF [0..1]</text><ellipse cx="373.63" cy="94.8999" fill="none" rx="3" ry="3" style="stroke:#038048;stroke-width:1;"/><text fill="#000000" font-family="sans-serif" font-size="14" lengthAdjust="spacing" textLength="128.5195" x="382.63" y="98.7619">reason : DV_TEXT [1]</text><line style="stroke:#181818;stroke-width:0.5;" x1="363.63" x2="579.6672" y1="105.7999" y2="105.7999"/></g><!--class EXTRACT_FOLDER--><g class="entity" data-entity="EXTRACT_FOLDER" data-source-line="46" data-uid="ent0009" id="entity_EXTRACT_FOLDER"><rect fill="#F1F1F1" height="64.7999" rx="2.5" ry="2.5" style="stroke:#181818;stroke-width:0.5;" width="226.0032" x="2172.64" y="466.6"/><ellipse cx="2222.2628" cy="482.6" fill="#ADD1B2" rx="11" ry="11" style="stroke:#181818;stroke-width:1;"/><path d="M2222.2628,489.0219 C2223.4347,489.0219 2224.6691,488.7563 2226.0441,488.1469 L2225.5597,486.6313 C2224.466,487.0531 2223.4503,487.2406 2222.591,487.2406 C2219.8722,487.2406 2218.1535,485.3969 2218.1535,482.4906 C2218.1535,479.7406 2219.716,478.1469 2222.4503,478.1469 C2223.3722,478.1469 2224.3878,478.3344 2225.5285,478.7563 L2226.1066,477.2406 C2225.0128,476.6625 2223.716,476.3656 2222.5285,476.3656 C2218.7628,476.3656 2216.1847,479.0063 2216.1847,482.8188 C2216.1847,486.4906 2218.6691,489.0219 2222.2628,489.0219 Z " fill="#000000"/><text fill="#000000" font-family="sans-serif" font-size="14" lengthAdjust="spacing" textLength="118.2575" x="2242.7628" y="487.962">EXTRACT_FOLDER</text><line style="stroke:#181818;stroke-width:0.5;" x1="2173.64" x2="2397.6432" y1="498.6" y2="498.6"/><ellipse cx="2183.64" cy="512.5" fill="none" rx="3" ry="3" style="stroke:#038048;stroke-width:1;"/><text fill="#000000" font-family="sans-serif" font-size="14" lengthAdjust="spacing" textLength="200.0032" x="2192.64" y="516.3619">items : List&lt;EXTRACT_ITEM&gt; [*]</text><line style="stroke:#181818;stroke-width:0.5;" x1="2173.64" x2="2397.6432" y1="523.3999" y2="523.3999"/></g><!--class EXTRACT_ITEM--><g class="entity" data-entity="EXTRACT_ITEM" data-source-line="50" data-uid="ent0010" id="entity_EXTRACT_ITEM"><rect fill="#F1F1F1" height="48" rx="2.5" ry="2.5" style="stroke:#181818;stroke-width:0.5;" width="129.7056" x="1971.79" y="266.2"/><ellipse cx="1986.79" cy="282.2" fill="#A9DCDF" rx="11" ry="11" style="stroke:#181818;stroke-width:1;"/><path d="M1981.3056,287.7 L1983.3369,287.7 L1987.3838,276.3563 L1986.4775,276.3563 L1990.3056,287.7 L1992.4463,287.7 L1988.1181,275.3719 L1985.8994,275.3719 L1981.3056,287.7 Z M1983.6338,284.2 L1990.0713,284.2 L1990.0713,282.45 L1983.6338,282.45 L1983.6338,284.2 Z " fill="#000000"/><text fill="#000000" font-family="sans-serif" font-size="14" font-style="italic" lengthAdjust="spacing" textLength="97.7056" x="2000.79" y="287.562">EXTRACT_ITEM</text><line style="stroke:#181818;stroke-width:0.5;" x1="1972.79" x2="2100.4956" y1="298.2" y2="298.2"/><line style="stroke:#181818;stroke-width:0.5;" x1="1972.79" x2="2100.4956" y1="306.2" y2="306.2"/></g><!--class EXTRACT_MANIFEST--><g class="entity" data-entity="EXTRACT_MANIFEST" data-source-line="53" data-uid="ent0011" id="entity_EXTRACT_MANIFEST"><rect fill="#F1F1F1" height="64.7999" rx="2.5" ry="2.5" style="stroke:#181818;stroke-width:0.5;" width="338.7867" x="615.25" y="40.6"/><ellipse cx="714.0966" cy="56.6" fill="#ADD1B2" rx="11" ry="11" style="stroke:#181818;stroke-width:1;"/><path d="M714.0966,63.0219 C715.2685,63.0219 716.5029,62.7563 717.8779,62.1469 L717.3935,60.6313 C716.2998,61.0531 715.2841,61.2406 714.4248,61.2406 C711.706,61.2406 709.9873,59.3969 709.9873,56.4906 C709.9873,53.7406 711.5498,52.1469 714.2841,52.1469 C715.206,52.1469 716.2216,52.3344 717.3623,52.7563 L717.9404,51.2406 C716.8466,50.6625 715.5498,50.3656 714.3623,50.3656 C710.5966,50.3656 708.0185,53.0063 708.0185,56.8188 C708.0185,60.4906 710.5029,63.0219 714.0966,63.0219 Z " fill="#000000"/><text fill="#000000" font-family="sans-serif" font-size="14" lengthAdjust="spacing" textLength="132.5935" x="734.5966" y="61.962">EXTRACT_MANIFEST</text><line style="stroke:#181818;stroke-width:0.5;" x1="616.25" x2="953.0367" y1="72.6" y2="72.6"/><ellipse cx="626.25" cy="86.5" fill="none" rx="3" ry="3" style="stroke:#038048;stroke-width:1;"/><text fill="#000000" font-family="sans-serif" font-size="14" lengthAdjust="spacing" textLength="312.7867" x="635.25" y="90.3619">entities : List&lt;EXTRACT_ENTITY_MANIFEST&gt; [1..*]</text><line style="stroke:#181818;stroke-width:0.5;" x1="616.25" x2="953.0367" y1="97.3999" y2="97.3999"/></g><!--class EXTRACT_PARTICIPATION--><g class="entity" data-entity="EXTRACT_PARTICIPATION" data-source-line="57" data-uid="ent0012" id="entity_EXTRACT_PARTICIPATION"><rect fill="#F1F1F1" height="115.1997" rx="2.5" ry="2.5" style="stroke:#181818;stroke-width:0.5;" width="302.6249" x="61.33" y="232.6"/><ellipse cx="125.4918" cy="248.6" fill="#ADD1B2" rx="11" ry="11" style="stroke:#181818;stroke-width:1;"/><path d="M125.4918,255.0219 C126.6637,255.0219 127.898,254.7563 129.273,254.1469 L128.7887,252.6313 C127.6949,253.0531 126.6793,253.2406 125.8199,253.2406 C123.1012,253.2406 121.3824,251.3969 121.3824,248.4906 C121.3824,245.7406 122.9449,244.1469 125.6793,244.1469 C126.6012,244.1469 127.6168,244.3344 128.7574,244.7563 L129.3355,243.2406 C128.2418,242.6625 126.9449,242.3656 125.7574,242.3656 C121.9918,242.3656 119.4137,245.0063 119.4137,248.8188 C119.4137,252.4906 121.898,255.0219 125.4918,255.0219 Z " fill="#000000"/><text fill="#000000" font-family="sans-serif" font-size="14" lengthAdjust="spacing" textLength="165.8013" x="145.9918" y="253.962">EXTRACT_PARTICIPATION</text><line style="stroke:#181818;stroke-width:0.5;" x1="62.33" x2="362.9549" y1="264.6" y2="264.6"/><ellipse cx="72.33" cy="278.5" fill="none" rx="3" ry="3" style="stroke:#038048;stroke-width:1;"/><text fill="#000000" font-family="sans-serif" font-size="14" lengthAdjust="spacing" textLength="276.6249" x="81.33" y="282.3619">time : DV_INTERVAL&lt;DV_DATE_TIME&gt; [0..1]</text><ellipse cx="72.33" cy="295.2999" fill="none" rx="3" ry="3" style="stroke:#038048;stroke-width:1;"/><text fill="#000000" font-family="sans-serif" font-size="14" lengthAdjust="spacing" textLength="137.7315" x="81.33" y="299.1619">function : DV_TEXT [1]</text><ellipse cx="72.33" cy="312.0998" fill="none" rx="3" ry="3" style="stroke:#038048;stroke-width:1;"/><text fill="#000000" font-family="sans-serif" font-size="14" lengthAdjust="spacing" textLength="192.5412" x="81.33" y="315.9618">mode : DV_CODED_TEXT [0..1]</text><ellipse cx="72.33" cy="328.8997" fill="none" rx="3" ry="3" style="stroke:#038048;stroke-width:1;"/><text fill="#000000" font-family="sans-serif" font-size="14" lengthAdjust="spacing" textLength="129.6955" x="81.33" y="332.7617">performer : String [1]</text><line style="stroke:#181818;stroke-width:0.5;" x1="62.33" x2="362.9549" y1="339.7997" y2="339.7997"/></g><!--class EXTRACT_REQUEST--><g class="entity" data-entity="EXTRACT_REQUEST" data-source-line="64" data-uid="ent0013" id="entity_EXTRACT_REQUEST"><rect fill="#F1F1F1" height="98.3998" rx="2.5" ry="2.5" style="stroke:#181818;stroke-width:0.5;" width="307.6508" x="2136.82" y="241"/><ellipse cx="2223.0737" cy="257" fill="#ADD1B2" rx="11" ry="11" style="stroke:#181818;stroke-width:1;"/><path d="M2223.0737,263.4219 C2224.2455,263.4219 2225.4799,263.1563 2226.8549,262.5469 L2226.3705,261.0313 C2225.2768,261.4531 2224.2612,261.6406 2223.4018,261.6406 C2220.683,261.6406 2218.9643,259.7969 2218.9643,256.8906 C2218.9643,254.1406 2220.5268,252.5469 2223.2612,252.5469 C2224.183,252.5469 2225.1987,252.7344 2226.3393,253.1563 L2226.9174,251.6406 C2225.8237,251.0625 2224.5268,250.7656 2223.3393,250.7656 C2219.5737,250.7656 2216.9955,253.4063 2216.9955,257.2188 C2216.9955,260.8906 2219.4799,263.4219 2223.0737,263.4219 Z " fill="#000000"/><text fill="#000000" font-family="sans-serif" font-size="14" lengthAdjust="spacing" textLength="126.6435" x="2243.5737" y="262.362">EXTRACT_REQUEST</text><line style="stroke:#181818;stroke-width:0.5;" x1="2137.82" x2="2443.4708" y1="273" y2="273"/><ellipse cx="2147.82" cy="286.9" fill="none" rx="3" ry="3" style="stroke:#038048;stroke-width:1;"/><text fill="#000000" font-family="sans-serif" font-size="14" lengthAdjust="spacing" textLength="206.0652" x="2156.82" y="290.7619">extract_spec : EXTRACT_SPEC [1]</text><ellipse cx="2147.82" cy="303.6999" fill="none" rx="3" ry="3" style="stroke:#038048;stroke-width:1;"/><text fill="#000000" font-family="sans-serif" font-size="14" lengthAdjust="spacing" textLength="281.6508" x="2156.82" y="307.5619">update_spec : EXTRACT_UPDATE_SPEC [0..1]</text><ellipse cx="2147.82" cy="320.4998" fill="none" rx="3" ry="3" style="stroke:#038048;stroke-width:1;"/><text fill="#000000" font-family="sans-serif" font-size="14" lengthAdjust="spacing" textLength="156.3234" x="2156.82" y="324.3618">uid : HIER_OBJECT_ID [1]</text><line style="stroke:#181818;stroke-width:0.5;" x1="2137.82" x2="2443.4708" y1="331.3998" y2="331.3998"/></g><!--class EXTRACT_SPEC--><g class="entity" data-entity="EXTRACT_SPEC" data-source-line="70" data-uid="ent0014" id="entity_EXTRACT_SPEC"><rect fill="#F1F1F1" height="182.3994" rx="2.5" ry="2.5" style="stroke:#181818;stroke-width:0.5;" width="314.9028" x="399.19" y="199"/><ellipse cx="502.8666" cy="215" fill="#ADD1B2" rx="11" ry="11" style="stroke:#181818;stroke-width:1;"/><path d="M502.8666,221.4219 C504.0385,221.4219 505.2729,221.1563 506.6479,220.5469 L506.1635,219.0313 C505.0697,219.4531 504.0541,219.6406 503.1947,219.6406 C500.476,219.6406 498.7572,217.7969 498.7572,214.8906 C498.7572,212.1406 500.3197,210.5469 503.0541,210.5469 C503.976,210.5469 504.9916,210.7344 506.1322,211.1563 L506.7104,209.6406 C505.6166,209.0625 504.3197,208.7656 503.1322,208.7656 C499.3666,208.7656 496.7885,211.4063 496.7885,215.2188 C496.7885,218.8906 499.2729,221.4219 502.8666,221.4219 Z " fill="#000000"/><text fill="#000000" font-family="sans-serif" font-size="14" lengthAdjust="spacing" textLength="99.0496" x="523.3666" y="220.362">EXTRACT_SPEC</text><line style="stroke:#181818;stroke-width:0.5;" x1="400.19" x2="713.0928" y1="231" y2="231"/><ellipse cx="410.19" cy="244.9" fill="none" rx="3" ry="3" style="stroke:#038048;stroke-width:1;"/><text fill="#000000" font-family="sans-serif" font-size="14" lengthAdjust="spacing" textLength="288.9028" x="419.19" y="248.7619">version_spec : EXTRACT_VERSION_SPEC [0..1]</text><ellipse cx="410.19" cy="261.6999" fill="none" rx="3" ry="3" style="stroke:#038048;stroke-width:1;"/><text fill="#000000" font-family="sans-serif" font-size="14" lengthAdjust="spacing" textLength="215.7951" x="419.19" y="265.5619">manifest : EXTRACT_MANIFEST [1]</text><ellipse cx="410.19" cy="278.4998" fill="none" rx="3" ry="3" style="stroke:#038048;stroke-width:1;"/><text fill="#000000" font-family="sans-serif" font-size="14" lengthAdjust="spacing" textLength="218.2731" x="419.19" y="282.3618">extract_type : DV_CODED_TEXT [1]</text><ellipse cx="410.19" cy="295.2997" fill="none" rx="3" ry="3" style="stroke:#038048;stroke-width:1;"/><text fill="#000000" font-family="sans-serif" font-size="14" lengthAdjust="spacing" textLength="202.6212" x="419.19" y="299.1617">include_multimedia : Boolean [1]</text><ellipse cx="410.19" cy="312.0997" fill="none" rx="3" ry="3" style="stroke:#038048;stroke-width:1;"/><text fill="#000000" font-family="sans-serif" font-size="14" lengthAdjust="spacing" textLength="118.4676" x="419.19" y="315.9616">priority : Integer [1]</text><ellipse cx="410.19" cy="328.8996" fill="none" rx="3" ry="3" style="stroke:#038048;stroke-width:1;"/><text fill="#000000" font-family="sans-serif" font-size="14" lengthAdjust="spacing" textLength="138.9215" x="419.19" y="332.7616">link_depth : Integer [1]</text><ellipse cx="410.19" cy="345.6995" fill="none" rx="3" ry="3" style="stroke:#038048;stroke-width:1;"/><text fill="#000000" font-family="sans-serif" font-size="14" lengthAdjust="spacing" textLength="202.7892" x="419.19" y="349.5615">criteria : List&lt;DV_PARSABLE&gt; [*]</text><ellipse cx="410.19" cy="362.4995" fill="none" rx="3" ry="3" style="stroke:#038048;stroke-width:1;"/><text fill="#000000" font-family="sans-serif" font-size="14" lengthAdjust="spacing" textLength="242.143" x="419.19" y="366.3614">other_details : ITEM_STRUCTURE [0..1]</text><line style="stroke:#181818;stroke-width:0.5;" x1="400.19" x2="713.0928" y1="373.3994" y2="373.3994"/></g><!--class EXTRACT_UPDATE_SPEC--><g class="entity" data-entity="EXTRACT_UPDATE_SPEC" data-source-line="81" data-uid="ent0015" id="entity_EXTRACT_UPDATE_SPEC"><rect fill="#F1F1F1" height="115.1997" rx="2.5" ry="2.5" style="stroke:#181818;stroke-width:0.5;" width="296.4229" x="749.43" y="232.6"/><ellipse cx="814.1308" cy="248.6" fill="#ADD1B2" rx="11" ry="11" style="stroke:#181818;stroke-width:1;"/><path d="M814.1308,255.0219 C815.3027,255.0219 816.537,254.7563 817.912,254.1469 L817.4277,252.6313 C816.3339,253.0531 815.3183,253.2406 814.4589,253.2406 C811.7402,253.2406 810.0214,251.3969 810.0214,248.4906 C810.0214,245.7406 811.5839,244.1469 814.3183,244.1469 C815.2402,244.1469 816.2558,244.3344 817.3964,244.7563 L817.9745,243.2406 C816.8808,242.6625 815.5839,242.3656 814.3964,242.3656 C810.6308,242.3656 808.0527,245.0063 808.0527,248.8188 C808.0527,252.4906 810.537,255.0219 814.1308,255.0219 Z " fill="#000000"/><text fill="#000000" font-family="sans-serif" font-size="14" lengthAdjust="spacing" textLength="158.5213" x="834.6308" y="253.962">EXTRACT_UPDATE_SPEC</text><line style="stroke:#181818;stroke-width:0.5;" x1="750.43" x2="1044.8529" y1="264.6" y2="264.6"/><ellipse cx="760.43" cy="278.5" fill="none" rx="3" ry="3" style="stroke:#038048;stroke-width:1;"/><text fill="#000000" font-family="sans-serif" font-size="14" lengthAdjust="spacing" textLength="185.7233" x="769.43" y="282.3619">persist_in_server : Boolean [1]</text><ellipse cx="760.43" cy="295.2999" fill="none" rx="3" ry="3" style="stroke:#038048;stroke-width:1;"/><text fill="#000000" font-family="sans-serif" font-size="14" lengthAdjust="spacing" textLength="226.6031" x="769.43" y="299.1619">repeat_period : DV_DURATION [0..1]</text><ellipse cx="760.43" cy="312.0998" fill="none" rx="3" ry="3" style="stroke:#038048;stroke-width:1;"/><text fill="#000000" font-family="sans-serif" font-size="14" lengthAdjust="spacing" textLength="270.4229" x="769.43" y="315.9618">trigger_events : List&lt;DV_CODED_TEXT&gt; [*]</text><ellipse cx="760.43" cy="328.8997" fill="none" rx="3" ry="3" style="stroke:#038048;stroke-width:1;"/><text fill="#000000" font-family="sans-serif" font-size="14" lengthAdjust="spacing" textLength="224.1671" x="769.43" y="332.7617">update_method : CODE_PHRASE [1]</text><line style="stroke:#181818;stroke-width:0.5;" x1="750.43" x2="1044.8529" y1="339.7997" y2="339.7997"/></g><!--class EXTRACT_VERSION_SPEC--><g class="entity" data-entity="EXTRACT_VERSION_SPEC" data-source-line="88" data-uid="ent0016" id="entity_EXTRACT_VERSION_SPEC"><rect fill="#F1F1F1" height="115.1997" rx="2.5" ry="2.5" style="stroke:#181818;stroke-width:0.5;" width="411.2924" x="7" y="441.4"/><ellipse cx="126.4125" cy="457.4" fill="#ADD1B2" rx="11" ry="11" style="stroke:#181818;stroke-width:1;"/><path d="M126.4125,463.8219 C127.5844,463.8219 128.8188,463.5563 130.1938,462.9469 L129.7094,461.4313 C128.6157,461.8531 127.6,462.0406 126.7407,462.0406 C124.0219,462.0406 122.3032,460.1969 122.3032,457.2906 C122.3032,454.5406 123.8657,452.9469 126.6,452.9469 C127.5219,452.9469 128.5375,453.1344 129.6782,453.5563 L130.2563,452.0406 C129.1625,451.4625 127.8657,451.1656 126.6782,451.1656 C122.9125,451.1656 120.3344,453.8063 120.3344,457.6188 C120.3344,461.2906 122.8188,463.8219 126.4125,463.8219 Z " fill="#000000"/><text fill="#000000" font-family="sans-serif" font-size="14" lengthAdjust="spacing" textLength="163.9673" x="146.9125" y="462.762">EXTRACT_VERSION_SPEC</text><line style="stroke:#181818;stroke-width:0.5;" x1="8" x2="417.2924" y1="473.4" y2="473.4"/><ellipse cx="18" cy="487.3" fill="none" rx="3" ry="3" style="stroke:#038048;stroke-width:1;"/><text fill="#000000" font-family="sans-serif" font-size="14" lengthAdjust="spacing" textLength="205.2812" x="27" y="491.1619">include_all_versions : Boolean [1]</text><ellipse cx="18" cy="504.0999" fill="none" rx="3" ry="3" style="stroke:#038048;stroke-width:1;"/><text fill="#000000" font-family="sans-serif" font-size="14" lengthAdjust="spacing" textLength="385.2924" x="27" y="507.9619">commit_time_interval : DV_INTERVAL&lt;DV_DATE_TIME&gt; [0..1]</text><ellipse cx="18" cy="520.8998" fill="none" rx="3" ry="3" style="stroke:#038048;stroke-width:1;"/><text fill="#000000" font-family="sans-serif" font-size="14" lengthAdjust="spacing" textLength="230.1451" x="27" y="524.7618">include_revision_history : Boolean [1]</text><ellipse cx="18" cy="537.6997" fill="none" rx="3" ry="3" style="stroke:#038048;stroke-width:1;"/><text fill="#000000" font-family="sans-serif" font-size="14" lengthAdjust="spacing" textLength="158.9974" x="27" y="541.5617">include_data : Boolean [1]</text><line style="stroke:#181818;stroke-width:0.5;" x1="8" x2="417.2924" y1="548.5997" y2="548.5997"/></g><!--class LOCATABLE--><g class="entity" data-entity="LOCATABLE" data-source-line="95" data-uid="ent0017" id="entity_LOCATABLE"><rect fill="#F1F1F1" height="48" rx="2.5" ry="2.5" style="stroke:#181818;stroke-width:0.5;" width="108.2857" x="1769.5" y="49"/><ellipse cx="1784.5" cy="65" fill="#ADD1B2" rx="11" ry="11" style="stroke:#181818;stroke-width:1;"/><path d="M1784.5,71.4219 C1785.6719,71.4219 1786.9063,71.1563 1788.2813,70.5469 L1787.7969,69.0313 C1786.7031,69.4531 1785.6875,69.6406 1784.8281,69.6406 C1782.1094,69.6406 1780.3906,67.7969 1780.3906,64.8906 C1780.3906,62.1406 1781.9531,60.5469 1784.6875,60.5469 C1785.6094,60.5469 1786.625,60.7344 1787.7656,61.1563 L1788.3438,59.6406 C1787.25,59.0625 1785.9531,58.7656 1784.7656,58.7656 C1781,58.7656 1778.4219,61.4063 1778.4219,65.2188 C1778.4219,68.8906 1780.9063,71.4219 1784.5,71.4219 Z " fill="#000000"/><text fill="#000000" font-family="sans-serif" font-size="14" lengthAdjust="spacing" textLength="76.2857" x="1798.5" y="70.362">LOCATABLE</text><line style="stroke:#181818;stroke-width:0.5;" x1="1770.5" x2="1876.7857" y1="81" y2="81"/><line style="stroke:#181818;stroke-width:0.5;" x1="1770.5" x2="1876.7857" y1="89" y2="89"/></g><!--reverse link LOCATABLE to EXTRACT--><g class="link" data-entity-1="LOCATABLE" data-entity-2="EXTRACT" data-source-line="95" data-uid="lnk18" id="link_LOCATABLE_EXTRACT"><path codeLine="95" d="M1751.8031,94.4563 C1676.9531,116.1763 1555.99,153.23 1441.65,199 C1435.32,201.53 1428.9,204.18 1422.45,206.91" fill="none" id="LOCATABLE-backto-EXTRACT" style="stroke:#181818;stroke-width:1;"/><polygon fill="none" points="1769.09,89.44,1750.131,88.694,1753.4752,100.2186,1769.09,89.44" style="stroke:#181818;stroke-width:1;"/></g><!--reverse link LOCATABLE to EXTRACT_ACTION_REQUEST--><g class="link" data-entity-1="LOCATABLE" data-entity-2="EXTRACT_ACTION_REQUEST" data-source-line="96" data-uid="lnk19" id="link_LOCATABLE_EXTRACT_ACTION_REQUEST"><path codeLine="96" d="M1781.9824,109.0235 C1741.2924,143.2335 1678.49,196.02 1625.35,240.69" fill="none" id="LOCATABLE-backto-EXTRACT_ACTION_REQUEST" style="stroke:#181818;stroke-width:1;"/><polygon fill="none" points="1795.76,97.44,1778.1212,104.431,1785.8435,113.616,1795.76,97.44" style="stroke:#181818;stroke-width:1;"/></g><!--reverse link LOCATABLE to EXTRACT_CHAPTER--><g class="link" data-entity-1="LOCATABLE" data-entity-2="EXTRACT_CHAPTER" data-source-line="97" data-uid="lnk20" id="link_LOCATABLE_EXTRACT_CHAPTER"><path codeLine="97" d="M1823.65,115.44 C1823.65,154.22 1823.65,213.78 1823.65,257.44" fill="none" id="LOCATABLE-backto-EXTRACT_CHAPTER" style="stroke:#181818;stroke-width:1;"/><polygon fill="none" points="1823.65,97.44,1817.65,115.44,1829.65,115.44,1823.65,97.44" style="stroke:#181818;stroke-width:1;"/></g><!--reverse link EXTRACT_ITEM to EXTRACT_CONTENT_ITEM--><g class="link" data-entity-1="EXTRACT_ITEM" data-entity-2="EXTRACT_CONTENT_ITEM" data-source-line="98" data-uid="lnk21" id="link_EXTRACT_ITEM_EXTRACT_CONTENT_ITEM"><path codeLine="98" d="M2036.65,332.52 C2036.65,363.05 2036.65,399.57 2036.65,441.27" fill="none" id="EXTRACT_ITEM-backto-EXTRACT_CONTENT_ITEM" style="stroke:#181818;stroke-width:1;"/><polygon fill="none" points="2036.65,314.52,2030.65,332.52,2042.65,332.52,2036.65,314.52" style="stroke:#181818;stroke-width:1;"/></g><!--reverse link EXTRACT_CHAPTER to EXTRACT_ENTITY_CHAPTER--><g class="link" data-entity-1="EXTRACT_CHAPTER" data-entity-2="EXTRACT_ENTITY_CHAPTER" data-source-line="99" data-uid="lnk22" id="link_EXTRACT_CHAPTER_EXTRACT_ENTITY_CHAPTER"><path codeLine="99" d="M1816.68,340.8855 C1811.23,379.7455 1804.57,427.23 1799.12,466.1" fill="none" id="EXTRACT_CHAPTER-backto-EXTRACT_ENTITY_CHAPTER" style="stroke:#181818;stroke-width:1;"/><polygon fill="none" points="1819.18,323.06,1810.7382,340.0522,1822.6219,341.7189,1819.18,323.06" style="stroke:#181818;stroke-width:1;"/></g><!--reverse link EXTRACT_ITEM to EXTRACT_FOLDER--><g class="link" data-entity-1="EXTRACT_ITEM" data-entity-2="EXTRACT_FOLDER" data-source-line="100" data-uid="lnk23" id="link_EXTRACT_ITEM_EXTRACT_FOLDER"><path codeLine="100" d="M2067.1469,328.0994 C2083.2169,347.1194 2095.8,360.5 2119.65,381.4 C2155.8,413.09 2200.59,444.13 2234.53,466.21" fill="none" id="EXTRACT_ITEM-backto-EXTRACT_FOLDER" style="stroke:#181818;stroke-width:1;"/><polygon fill="none" points="2055.53,314.35,2062.5638,331.9718,2071.7301,324.2271,2055.53,314.35" style="stroke:#181818;stroke-width:1;"/></g><!--reverse link LOCATABLE to EXTRACT_ITEM--><g class="link" data-entity-1="LOCATABLE" data-entity-2="EXTRACT_ITEM" data-source-line="101" data-uid="lnk24" id="link_LOCATABLE_EXTRACT_ITEM"><path codeLine="101" d="M1862.4938,109.6519 C1889.2838,134.3919 1919.07,162.56 1954.65,199 C1976.23,221.11 1999.87,247.34 2016.19,265.8" fill="none" id="LOCATABLE-backto-EXTRACT_ITEM" style="stroke:#181818;stroke-width:1;"/><polygon fill="none" points="1849.27,97.44,1858.4232,114.0598,1866.5644,105.244,1849.27,97.44" style="stroke:#181818;stroke-width:1;"/></g><!--reverse link LOCATABLE to EXTRACT_REQUEST--><g class="link" data-entity-1="LOCATABLE" data-entity-2="EXTRACT_REQUEST" data-source-line="102" data-uid="lnk25" id="link_LOCATABLE_EXTRACT_REQUEST"><path codeLine="102" d="M1894.7764,102.2005 C1954.4164,126.1205 2035.93,159.87 2118.65,199 C2145.77,211.83 2174.83,226.65 2201.19,240.51" fill="none" id="LOCATABLE-backto-EXTRACT_REQUEST" style="stroke:#181818;stroke-width:1;"/><polygon fill="none" points="1878.07,95.5,1892.5429,107.7693,1897.0099,96.6317,1878.07,95.5" style="stroke:#181818;stroke-width:1;"/></g></g></svg>
