<svg xmlns="http://www.w3.org/2000/svg" xmlns:xlink="http://www.w3.org/1999/xlink" contentStyleType="text/css" data-diagram-type="CLASS" height="388px" preserveAspectRatio="none" style="width:1391px;height:388px;background:#FFFFFF;" version="1.1" viewBox="0 0 1391 388" width="1391px" zoomAndPan="magnify"><defs/><g><!--class EHR--><g class="entity" data-entity="EHR" data-source-line="2" data-uid="ent0002" id="entity_EHR"><rect fill="#F1F1F1" height="199.1993" rx="2.5" ry="2.5" style="stroke:#181818;stroke-width:0.5;" width="259.0291" x="7" y="7"/><ellipse cx="118.7896" cy="23" fill="#ADD1B2" rx="11" ry="11" style="stroke:#181818;stroke-width:1;"/><path d="M118.7896,29.4219 C119.9615,29.4219 121.1958,29.1563 122.5708,28.5469 L122.0865,27.0313 C120.9927,27.4531 119.9771,27.6406 119.1177,27.6406 C116.399,27.6406 114.6802,25.7969 114.6802,22.8906 C114.6802,20.1406 116.2427,18.5469 118.9771,18.5469 C119.899,18.5469 120.9146,18.7344 122.0552,19.1563 L122.6333,17.6406 C121.5396,17.0625 120.2427,16.7656 119.0552,16.7656 C115.2896,16.7656 112.7115,19.4063 112.7115,23.2188 C112.7115,26.8906 115.1958,29.4219 118.7896,29.4219 Z " fill="#000000"/><text fill="#000000" font-family="sans-serif" font-size="14" lengthAdjust="spacing" textLength="26.9499" x="139.2896" y="28.362">EHR</text><line style="stroke:#181818;stroke-width:0.5;" x1="8" x2="265.0291" y1="39" y2="39"/><ellipse cx="18" cy="52.9" fill="none" rx="3" ry="3" style="stroke:#038048;stroke-width:1;"/><text fill="#000000" font-family="sans-serif" font-size="14" lengthAdjust="spacing" textLength="200.0732" x="27" y="56.7619">system_id : HIER_OBJECT_ID [1]</text><ellipse cx="18" cy="69.6999" fill="none" rx="3" ry="3" style="stroke:#038048;stroke-width:1;"/><text fill="#000000" font-family="sans-serif" font-size="14" lengthAdjust="spacing" textLength="176.1193" x="27" y="73.5619">ehr_id : HIER_OBJECT_ID [1]</text><ellipse cx="18" cy="86.4998" fill="none" rx="3" ry="3" style="stroke:#038048;stroke-width:1;"/><text fill="#000000" font-family="sans-serif" font-size="14" lengthAdjust="spacing" textLength="232.2591" x="27" y="90.3618">contributions : List&lt;OBJECT_REF&gt; [*]</text><ellipse cx="18" cy="103.2997" fill="none" rx="3" ry="3" style="stroke:#038048;stroke-width:1;"/><text fill="#000000" font-family="sans-serif" font-size="14" lengthAdjust="spacing" textLength="176.1333" x="27" y="107.1617">ehr_status : OBJECT_REF [1]</text><ellipse cx="18" cy="120.0997" fill="none" rx="3" ry="3" style="stroke:#038048;stroke-width:1;"/><text fill="#000000" font-family="sans-serif" font-size="14" lengthAdjust="spacing" textLength="178.6813" x="27" y="123.9616">ehr_access : OBJECT_REF [1]</text><ellipse cx="18" cy="136.8996" fill="none" rx="3" ry="3" style="stroke:#038048;stroke-width:1;"/><text fill="#000000" font-family="sans-serif" font-size="14" lengthAdjust="spacing" textLength="233.0291" x="27" y="140.7616">compositions : List&lt;OBJECT_REF&gt; [*]</text><ellipse cx="18" cy="153.6995" fill="none" rx="3" ry="3" style="stroke:#038048;stroke-width:1;"/><text fill="#000000" font-family="sans-serif" font-size="14" lengthAdjust="spacing" textLength="181.8313" x="27" y="157.5615">directory : OBJECT_REF [0..1]</text><ellipse cx="18" cy="170.4995" fill="none" rx="3" ry="3" style="stroke:#038048;stroke-width:1;"/><text fill="#000000" font-family="sans-serif" font-size="14" lengthAdjust="spacing" textLength="209.7192" x="27" y="174.3614">time_created : DV_DATE_TIME [1]</text><ellipse cx="18" cy="187.2994" fill="none" rx="3" ry="3" style="stroke:#038048;stroke-width:1;"/><text fill="#000000" font-family="sans-serif" font-size="14" lengthAdjust="spacing" textLength="193.1432" x="27" y="191.1614">folders : List&lt;OBJECT_REF&gt; [*]</text><line style="stroke:#181818;stroke-width:0.5;" x1="8" x2="265.0291" y1="198.1993" y2="198.1993"/></g><!--class VERSIONED_EHR_ACCESS--><g class="entity" data-entity="VERSIONED_EHR_ACCESS" data-source-line="14" data-uid="ent0003" id="entity_VERSIONED_EHR_ACCESS"><rect fill="#F1F1F1" height="48" rx="2.5" ry="2.5" style="stroke:#181818;stroke-width:0.5;" width="199.4813" x="55.77" y="299.8"/><ellipse cx="70.77" cy="315.8" fill="#ADD1B2" rx="11" ry="11" style="stroke:#181818;stroke-width:1;"/><path d="M70.77,322.2219 C71.9419,322.2219 73.1763,321.9562 74.5513,321.3469 L74.0669,319.8312 C72.9731,320.2531 71.9575,320.4406 71.0981,320.4406 C68.3794,320.4406 66.6606,318.5969 66.6606,315.6906 C66.6606,312.9406 68.2231,311.3469 70.9575,311.3469 C71.8794,311.3469 72.895,311.5344 74.0356,311.9562 L74.6138,310.4406 C73.52,309.8625 72.2231,309.5656 71.0356,309.5656 C67.27,309.5656 64.6919,312.2062 64.6919,316.0187 C64.6919,319.6906 67.1763,322.2219 70.77,322.2219 Z " fill="#000000"/><text fill="#000000" font-family="sans-serif" font-size="14" lengthAdjust="spacing" textLength="167.4813" x="84.77" y="321.162">VERSIONED_EHR_ACCESS</text><line style="stroke:#181818;stroke-width:0.5;" x1="56.77" x2="254.2513" y1="331.8" y2="331.8"/><line style="stroke:#181818;stroke-width:0.5;" x1="56.77" x2="254.2513" y1="339.8" y2="339.8"/></g><!--class VERSIONED_OBJECT--><g class="entity" data-entity="VERSIONED_OBJECT" data-source-line="17" data-uid="ent0004" id="entity_VERSIONED_OBJECT"><rect fill="#F5F5F5" height="48" rx="2.5" ry="2.5" style="stroke:#808080;stroke-width:1;stroke-dasharray:1,3;" width="176.0015" x="301.51" y="82.6"/><ellipse cx="316.51" cy="98.6" fill="#ADD1B2" rx="11" ry="11" style="stroke:#181818;stroke-width:1;"/><path d="M316.51,105.0219 C317.6819,105.0219 318.9163,104.7562 320.2913,104.1469 L319.8069,102.6312 C318.7131,103.0531 317.6975,103.2406 316.8381,103.2406 C314.1194,103.2406 312.4006,101.3969 312.4006,98.4906 C312.4006,95.7406 313.9631,94.1469 316.6975,94.1469 C317.6194,94.1469 318.635,94.3344 319.7756,94.7562 L320.3538,93.2406 C319.26,92.6625 317.9631,92.3656 316.7756,92.3656 C313.01,92.3656 310.4319,95.0062 310.4319,98.8187 C310.4319,102.4906 312.9163,105.0219 316.51,105.0219 Z " fill="#000000"/><text fill="#808080" font-family="sans-serif" font-size="14" lengthAdjust="spacing" textLength="133.2095" x="330.51" y="103.962">VERSIONED_OBJECT</text><rect fill="#FFFFFF" height="16.4001" style="stroke:#181818;stroke-width:1;stroke-dasharray:2,2;" width="8.7921" x="471.7195" y="79.6"/><text fill="#000000" font-family="sans-serif" font-size="12" font-style="italic" lengthAdjust="spacing" textLength="6.7921" x="472.7195" y="92.3961">T</text><line style="stroke:#808080;stroke-width:1;stroke-dasharray:1,3;" x1="302.51" x2="476.5115" y1="114.6" y2="114.6"/><line style="stroke:#808080;stroke-width:1;stroke-dasharray:1,3;" x1="302.51" x2="476.5115" y1="122.6" y2="122.6"/></g><!--class VERSIONED_EHR_STATUS--><g class="entity" data-entity="VERSIONED_EHR_STATUS" data-source-line="20" data-uid="ent0005" id="entity_VERSIONED_EHR_STATUS"><rect fill="#F1F1F1" height="48" rx="2.5" ry="2.5" style="stroke:#181818;stroke-width:0.5;" width="198.4873" x="290.27" y="299.8"/><ellipse cx="305.27" cy="315.8" fill="#ADD1B2" rx="11" ry="11" style="stroke:#181818;stroke-width:1;"/><path d="M305.27,322.2219 C306.4419,322.2219 307.6763,321.9562 309.0513,321.3469 L308.5669,319.8312 C307.4731,320.2531 306.4575,320.4406 305.5981,320.4406 C302.8794,320.4406 301.1606,318.5969 301.1606,315.6906 C301.1606,312.9406 302.7231,311.3469 305.4575,311.3469 C306.3794,311.3469 307.395,311.5344 308.5356,311.9562 L309.1138,310.4406 C308.02,309.8625 306.7231,309.5656 305.5356,309.5656 C301.77,309.5656 299.1919,312.2062 299.1919,316.0187 C299.1919,319.6906 301.6763,322.2219 305.27,322.2219 Z " fill="#000000"/><text fill="#000000" font-family="sans-serif" font-size="14" lengthAdjust="spacing" textLength="166.4873" x="319.27" y="321.162">VERSIONED_EHR_STATUS</text><line style="stroke:#181818;stroke-width:0.5;" x1="291.27" x2="487.7573" y1="331.8" y2="331.8"/><line style="stroke:#181818;stroke-width:0.5;" x1="291.27" x2="487.7573" y1="339.8" y2="339.8"/></g><!--class VERSIONED_COMPOSITION--><g class="entity" data-entity="VERSIONED_COMPOSITION" data-source-line="23" data-uid="ent0006" id="entity_VERSIONED_COMPOSITION"><rect fill="#F1F1F1" height="64.7999" rx="2.5" ry="2.5" style="stroke:#181818;stroke-width:0.5;" width="209.9253" x="523.55" y="291.4"/><ellipse cx="538.55" cy="307.4" fill="#ADD1B2" rx="11" ry="11" style="stroke:#181818;stroke-width:1;"/><path d="M538.55,313.8219 C539.7219,313.8219 540.9563,313.5563 542.3313,312.9469 L541.8469,311.4313 C540.7531,311.8531 539.7375,312.0406 538.8781,312.0406 C536.1594,312.0406 534.4406,310.1969 534.4406,307.2906 C534.4406,304.5406 536.0031,302.9469 538.7375,302.9469 C539.6594,302.9469 540.675,303.1344 541.8156,303.5563 L542.3938,302.0406 C541.3,301.4625 540.0031,301.1656 538.8156,301.1656 C535.05,301.1656 532.4719,303.8063 532.4719,307.6188 C532.4719,311.2906 534.9563,313.8219 538.55,313.8219 Z " fill="#000000"/><text fill="#000000" font-family="sans-serif" font-size="14" lengthAdjust="spacing" textLength="177.9253" x="552.55" y="312.762">VERSIONED_COMPOSITION</text><line style="stroke:#181818;stroke-width:0.5;" x1="524.55" x2="732.4753" y1="323.4" y2="323.4"/><line style="stroke:#181818;stroke-width:0.5;" x1="524.55" x2="732.4753" y1="331.4" y2="331.4"/><ellipse cx="534.55" cy="345.3" fill="#84BE84" rx="3" ry="3" style="stroke:#038048;stroke-width:1;"/><text fill="#000000" font-family="sans-serif" font-size="14" lengthAdjust="spacing" textLength="167.5374" x="543.55" y="349.1619">is_persistent() : Boolean [1]</text></g><!--class EHR_ACCESS--><g class="entity" data-entity="EHR_ACCESS" data-source-line="27" data-uid="ent0007" id="entity_EHR_ACCESS"><rect fill="#F1F1F1" height="81.5999" rx="2.5" ry="2.5" style="stroke:#181818;stroke-width:0.5;" width="312.9008" x="768.06" y="283"/><ellipse cx="878.0436" cy="299" fill="#ADD1B2" rx="11" ry="11" style="stroke:#181818;stroke-width:1;"/><path d="M878.0436,305.4219 C879.2154,305.4219 880.4498,305.1563 881.8248,304.5469 L881.3404,303.0313 C880.2467,303.4531 879.2311,303.6406 878.3717,303.6406 C875.6529,303.6406 873.9342,301.7969 873.9342,298.8906 C873.9342,296.1406 875.4967,294.5469 878.2311,294.5469 C879.1529,294.5469 880.1686,294.7344 881.3092,295.1563 L881.8873,293.6406 C880.7936,293.0625 879.4967,292.7656 878.3092,292.7656 C874.5436,292.7656 871.9654,295.4063 871.9654,299.2188 C871.9654,302.8906 874.4498,305.4219 878.0436,305.4219 Z " fill="#000000"/><text fill="#000000" font-family="sans-serif" font-size="14" lengthAdjust="spacing" textLength="84.4337" x="898.5436" y="304.362">EHR_ACCESS</text><line style="stroke:#181818;stroke-width:0.5;" x1="769.06" x2="1079.9608" y1="315" y2="315"/><ellipse cx="779.06" cy="328.9" fill="none" rx="3" ry="3" style="stroke:#038048;stroke-width:1;"/><text fill="#000000" font-family="sans-serif" font-size="14" lengthAdjust="spacing" textLength="286.9008" x="788.06" y="332.7619">settings : ACCESS_CONTROL_SETTINGS [0..1]</text><line style="stroke:#181818;stroke-width:0.5;" x1="769.06" x2="1079.9608" y1="339.7999" y2="339.7999"/><ellipse cx="779.06" cy="353.6999" fill="#84BE84" rx="3" ry="3" style="stroke:#038048;stroke-width:1;"/><text fill="#000000" font-family="sans-serif" font-size="14" lengthAdjust="spacing" textLength="122.5695" x="788.06" y="357.5619">scheme() : String [1]</text></g><!--class LOCATABLE--><g class="entity" data-entity="LOCATABLE" data-source-line="32" data-uid="ent0008" id="entity_LOCATABLE"><rect fill="#F5F5F5" height="48" rx="2.5" ry="2.5" style="stroke:#808080;stroke-width:1;stroke-dasharray:1,3;" width="108.2857" x="1033.37" y="82.6"/><ellipse cx="1048.37" cy="98.6" fill="#A9DCDF" rx="11" ry="11" style="stroke:#181818;stroke-width:1;"/><path d="M1042.8856,104.1 L1044.9169,104.1 L1048.9638,92.7562 L1048.0575,92.7562 L1051.8856,104.1 L1054.0263,104.1 L1049.6981,91.7719 L1047.4794,91.7719 L1042.8856,104.1 Z M1045.2138,100.6 L1051.6513,100.6 L1051.6513,98.85 L1045.2138,98.85 L1045.2138,100.6 Z " fill="#000000"/><text fill="#808080" font-family="sans-serif" font-size="14" font-style="italic" lengthAdjust="spacing" textLength="76.2857" x="1062.37" y="103.962">LOCATABLE</text><line style="stroke:#808080;stroke-width:1;stroke-dasharray:1,3;" x1="1034.37" x2="1140.6557" y1="114.6" y2="114.6"/><line style="stroke:#808080;stroke-width:1;stroke-dasharray:1,3;" x1="1034.37" x2="1140.6557" y1="122.6" y2="122.6"/></g><!--class EHR_STATUS--><g class="entity" data-entity="EHR_STATUS" data-source-line="35" data-uid="ent0009" id="entity_EHR_STATUS"><rect fill="#F1F1F1" height="115.1997" rx="2.5" ry="2.5" style="stroke:#181818;stroke-width:0.5;" width="268.143" x="1116.44" y="266.2"/><ellipse cx="1204.5417" cy="282.2" fill="#ADD1B2" rx="11" ry="11" style="stroke:#181818;stroke-width:1;"/><path d="M1204.5417,288.6219 C1205.7136,288.6219 1206.9479,288.3563 1208.3229,287.7469 L1207.8386,286.2313 C1206.7448,286.6531 1205.7292,286.8406 1204.8698,286.8406 C1202.1511,286.8406 1200.4323,284.9969 1200.4323,282.0906 C1200.4323,279.3406 1201.9948,277.7469 1204.7292,277.7469 C1205.6511,277.7469 1206.6667,277.9344 1207.8073,278.3563 L1208.3854,276.8406 C1207.2917,276.2625 1205.9948,275.9656 1204.8073,275.9656 C1201.0417,275.9656 1198.4636,278.6063 1198.4636,282.4188 C1198.4636,286.0906 1200.9479,288.6219 1204.5417,288.6219 Z " fill="#000000"/><text fill="#000000" font-family="sans-serif" font-size="14" lengthAdjust="spacing" textLength="83.4397" x="1225.0417" y="287.562">EHR_STATUS</text><line style="stroke:#181818;stroke-width:0.5;" x1="1117.44" x2="1383.583" y1="298.2" y2="298.2"/><ellipse cx="1127.44" cy="312.1" fill="none" rx="3" ry="3" style="stroke:#038048;stroke-width:1;"/><text fill="#000000" font-family="sans-serif" font-size="14" lengthAdjust="spacing" textLength="152.8934" x="1136.44" y="315.9619">subject : PARTY_SELF [1]</text><ellipse cx="1127.44" cy="328.8999" fill="none" rx="3" ry="3" style="stroke:#038048;stroke-width:1;"/><text fill="#000000" font-family="sans-serif" font-size="14" lengthAdjust="spacing" textLength="158.1853" x="1136.44" y="332.7619">is_queryable : Boolean [1]</text><ellipse cx="1127.44" cy="345.6998" fill="none" rx="3" ry="3" style="stroke:#038048;stroke-width:1;"/><text fill="#000000" font-family="sans-serif" font-size="14" lengthAdjust="spacing" textLength="162.9733" x="1136.44" y="349.5618">is_modifiable : Boolean [1]</text><ellipse cx="1127.44" cy="362.4997" fill="none" rx="3" ry="3" style="stroke:#038048;stroke-width:1;"/><text fill="#000000" font-family="sans-serif" font-size="14" lengthAdjust="spacing" textLength="242.143" x="1136.44" y="366.3617">other_details : ITEM_STRUCTURE [0..1]</text><line style="stroke:#181818;stroke-width:0.5;" x1="1117.44" x2="1383.583" y1="373.3997" y2="373.3997"/></g><!--reverse link VERSIONED_OBJECT to VERSIONED_EHR_ACCESS--><g class="link" data-entity-1="VERSIONED_OBJECT" data-entity-2="VERSIONED_EHR_ACCESS" data-source-line="42" data-uid="lnk10" id="link_VERSIONED_OBJECT_VERSIONED_EHR_ACCESS"><path codeLine="42" d="M351.5869,143.0681 C330.1469,163.0981 311.44,180.5 283.51,206.2 C248.13,238.77 206.97,276.18 181.09,299.65" fill="none" id="VERSIONED_OBJECT-backto-VERSIONED_EHR_ACCESS" style="stroke:#181818;stroke-width:1;"/><polygon fill="none" points="364.74,130.78,347.4909,138.6837,355.6829,147.4524,364.74,130.78" style="stroke:#181818;stroke-width:1;"/></g><!--reverse link VERSIONED_OBJECT to VERSIONED_EHR_STATUS--><g class="link" data-entity-1="VERSIONED_OBJECT" data-entity-2="VERSIONED_EHR_STATUS" data-source-line="43" data-uid="lnk11" id="link_VERSIONED_OBJECT_VERSIONED_EHR_STATUS"><path codeLine="43" d="M389.51,149.04 C389.51,190.44 389.51,258.01 389.51,299.39" fill="none" id="VERSIONED_OBJECT-backto-VERSIONED_EHR_STATUS" style="stroke:#181818;stroke-width:1;"/><polygon fill="none" points="389.51,131.04,383.51,149.04,395.51,149.04,389.51,131.04" style="stroke:#181818;stroke-width:1;"/></g><!--reverse link VERSIONED_OBJECT to VERSIONED_COMPOSITION--><g class="link" data-entity-1="VERSIONED_OBJECT" data-entity-2="VERSIONED_COMPOSITION" data-source-line="44" data-uid="lnk12" id="link_VERSIONED_OBJECT_VERSIONED_COMPOSITION"><path codeLine="44" d="M428.9267,143.0843 C471.9967,181.8643 544.75,247.38 593.25,291.04" fill="none" id="VERSIONED_OBJECT-backto-VERSIONED_COMPOSITION" style="stroke:#181818;stroke-width:1;"/><polygon fill="none" points="415.55,131.04,424.9119,147.5432,432.9414,138.6254,415.55,131.04" style="stroke:#181818;stroke-width:1;"/></g><!--reverse link LOCATABLE to EHR_ACCESS--><g class="link" data-entity-1="LOCATABLE" data-entity-2="EHR_ACCESS" data-source-line="45" data-uid="lnk13" id="link_LOCATABLE_EHR_ACCESS"><path codeLine="45" d="M1058.8907,145.3878 C1031.3307,181.7678 988.79,237.94 954.98,282.58" fill="none" id="LOCATABLE-backto-EHR_ACCESS" style="stroke:#181818;stroke-width:1;"/><polygon fill="none" points="1069.76,131.04,1054.1081,141.7647,1063.6733,149.0109,1069.76,131.04" style="stroke:#181818;stroke-width:1;"/></g><!--reverse link LOCATABLE to EHR_STATUS--><g class="link" data-entity-1="LOCATABLE" data-entity-2="EHR_STATUS" data-source-line="46" data-uid="lnk14" id="link_LOCATABLE_EHR_STATUS"><path codeLine="46" d="M1116.137,145.3895 C1140.477,177.5295 1174.12,221.94 1207.48,265.98" fill="none" id="LOCATABLE-backto-EHR_STATUS" style="stroke:#181818;stroke-width:1;"/><polygon fill="none" points="1105.27,131.04,1111.3539,149.0118,1120.9202,141.7671,1105.27,131.04" style="stroke:#181818;stroke-width:1;"/></g></g></svg>
