<svg xmlns="http://www.w3.org/2000/svg" xmlns:xlink="http://www.w3.org/1999/xlink" contentStyleType="text/css" data-diagram-type="CLASS" height="371px" preserveAspectRatio="none" style="width:321px;height:371px;background:#FFFFFF;" version="1.1" viewBox="0 0 321 371" width="321px" zoomAndPan="magnify"><defs/><g><!--class GENERIC_CONTENT_ITEM--><g class="entity" data-entity="GENERIC_CONTENT_ITEM" data-source-line="2" data-uid="ent0002" id="entity_GENERIC_CONTENT_ITEM"><rect fill="#F1F1F1" height="249.5991" rx="2.5" ry="2.5" style="stroke:#181818;stroke-width:0.5;" width="307.1329" x="7" y="115"/><ellipse cx="71.8828" cy="131" fill="#ADD1B2" rx="11" ry="11" style="stroke:#181818;stroke-width:1;"/><path d="M71.8828,137.4219 C73.0547,137.4219 74.289,137.1563 75.664,136.5469 L75.1797,135.0313 C74.0859,135.4531 73.0703,135.6406 72.2109,135.6406 C69.4922,135.6406 67.7734,133.7969 67.7734,130.8906 C67.7734,128.1406 69.3359,126.5469 72.0703,126.5469 C72.9922,126.5469 74.0078,126.7344 75.1484,127.1563 L75.7265,125.6406 C74.6328,125.0625 73.3359,124.7656 72.1484,124.7656 C68.3828,124.7656 65.8047,127.4063 65.8047,131.2188 C65.8047,134.8906 68.289,137.4219 71.8828,137.4219 Z " fill="#000000"/><text fill="#000000" font-family="sans-serif" font-size="14" lengthAdjust="spacing" textLength="168.8673" x="92.3828" y="136.362">GENERIC_CONTENT_ITEM</text><line style="stroke:#181818;stroke-width:0.5;" x1="8" x2="313.1329" y1="147" y2="147"/><ellipse cx="18" cy="160.9" fill="none" rx="3" ry="3" style="stroke:#038048;stroke-width:1;"/><text fill="#000000" font-family="sans-serif" font-size="14" lengthAdjust="spacing" textLength="219.2811" x="27" y="164.7619">item_type : DV_CODED_TEXT [0..1]</text><ellipse cx="18" cy="177.6999" fill="none" rx="3" ry="3" style="stroke:#038048;stroke-width:1;"/><text fill="#000000" font-family="sans-serif" font-size="14" lengthAdjust="spacing" textLength="196.4052" x="27" y="181.5619">item_type_version : String [0..1]</text><ellipse cx="18" cy="194.4998" fill="none" rx="3" ry="3" style="stroke:#038048;stroke-width:1;"/><text fill="#000000" font-family="sans-serif" font-size="14" lengthAdjust="spacing" textLength="122.9335" x="27" y="198.3618">author : String [0..1]</text><ellipse cx="18" cy="211.2997" fill="none" rx="3" ry="3" style="stroke:#038048;stroke-width:1;"/><text fill="#000000" font-family="sans-serif" font-size="14" lengthAdjust="spacing" textLength="249.213" x="27" y="215.1617">creation_time : Iso8601_date_time [0..1]</text><ellipse cx="18" cy="228.0997" fill="none" rx="3" ry="3" style="stroke:#038048;stroke-width:1;"/><text fill="#000000" font-family="sans-serif" font-size="14" lengthAdjust="spacing" textLength="145.5434" x="27" y="231.9616">authoriser : String [0..1]</text><ellipse cx="18" cy="244.8996" fill="none" rx="3" ry="3" style="stroke:#038048;stroke-width:1;"/><text fill="#000000" font-family="sans-serif" font-size="14" lengthAdjust="spacing" textLength="281.1329" x="27" y="248.7616">authorisation_time : Iso8601_date_time [0..1]</text><ellipse cx="18" cy="261.6995" fill="none" rx="3" ry="3" style="stroke:#038048;stroke-width:1;"/><text fill="#000000" font-family="sans-serif" font-size="14" lengthAdjust="spacing" textLength="230.2011" x="27" y="265.5615">item_status : DV_CODED_TEXT [0..1]</text><ellipse cx="18" cy="278.4995" fill="none" rx="3" ry="3" style="stroke:#038048;stroke-width:1;"/><text fill="#000000" font-family="sans-serif" font-size="14" lengthAdjust="spacing" textLength="145.3754" x="27" y="282.3614">version_id : String [0..1]</text><ellipse cx="18" cy="295.2994" fill="none" rx="3" ry="3" style="stroke:#038048;stroke-width:1;"/><text fill="#000000" font-family="sans-serif" font-size="14" lengthAdjust="spacing" textLength="171.3173" x="27" y="299.1614">version_set_id : String [0..1]</text><ellipse cx="18" cy="312.0993" fill="none" rx="3" ry="3" style="stroke:#038048;stroke-width:1;"/><text fill="#000000" font-family="sans-serif" font-size="14" lengthAdjust="spacing" textLength="144.7314" x="27" y="315.9613">system_id : String [0..1]</text><ellipse cx="18" cy="328.8992" fill="none" rx="3" ry="3" style="stroke:#038048;stroke-width:1;"/><text fill="#000000" font-family="sans-serif" font-size="14" lengthAdjust="spacing" textLength="252.727" x="27" y="332.7612">other_details : Hash&lt;String,String&gt; [0..1]</text><ellipse cx="18" cy="345.6992" fill="none" rx="3" ry="3" style="stroke:#038048;stroke-width:1;"/><text fill="#000000" font-family="sans-serif" font-size="14" lengthAdjust="spacing" textLength="148.8894" x="27" y="349.5611">item : LOCATABLE [0..1]</text><line style="stroke:#181818;stroke-width:0.5;" x1="8" x2="313.1329" y1="356.5991" y2="356.5991"/></g><!--class EXTRACT_CONTENT_ITEM--><g class="entity" data-entity="EXTRACT_CONTENT_ITEM" data-source-line="17" data-uid="ent0003" id="entity_EXTRACT_CONTENT_ITEM"><rect fill="#F1F1F1" height="48" rx="2.5" ry="2.5" style="stroke:#181818;stroke-width:0.5;" width="201.3993" x="59.87" y="7"/><ellipse cx="74.87" cy="23" fill="#ADD1B2" rx="11" ry="11" style="stroke:#181818;stroke-width:1;"/><path d="M74.87,29.4219 C76.0419,29.4219 77.2763,29.1563 78.6513,28.5469 L78.1669,27.0313 C77.0731,27.4531 76.0575,27.6406 75.1981,27.6406 C72.4794,27.6406 70.7606,25.7969 70.7606,22.8906 C70.7606,20.1406 72.3231,18.5469 75.0575,18.5469 C75.9794,18.5469 76.995,18.7344 78.1356,19.1563 L78.7138,17.6406 C77.62,17.0625 76.3231,16.7656 75.1356,16.7656 C71.37,16.7656 68.7919,19.4063 68.7919,23.2188 C68.7919,26.8906 71.2763,29.4219 74.87,29.4219 Z " fill="#000000"/><text fill="#000000" font-family="sans-serif" font-size="14" lengthAdjust="spacing" textLength="169.3993" x="88.87" y="28.362">EXTRACT_CONTENT_ITEM</text><line style="stroke:#181818;stroke-width:0.5;" x1="60.87" x2="260.2693" y1="39" y2="39"/><line style="stroke:#181818;stroke-width:0.5;" x1="60.87" x2="260.2693" y1="47" y2="47"/></g><!--reverse link EXTRACT_CONTENT_ITEM to GENERIC_CONTENT_ITEM--><g class="link" data-entity-1="EXTRACT_CONTENT_ITEM" data-entity-2="GENERIC_CONTENT_ITEM" data-source-line="17" data-uid="lnk4" id="link_EXTRACT_CONTENT_ITEM_GENERIC_CONTENT_ITEM"><path codeLine="17" d="M160.57,73.32 C160.57,88.64 160.57,91.99 160.57,114.74" fill="none" id="EXTRACT_CONTENT_ITEM-backto-GENERIC_CONTENT_ITEM" style="stroke:#181818;stroke-width:1;"/><polygon fill="none" points="160.57,55.32,154.57,73.32,166.57,73.32,160.57,55.32" style="stroke:#181818;stroke-width:1;"/></g></g></svg>
