<svg xmlns="http://www.w3.org/2000/svg" xmlns:xlink="http://www.w3.org/1999/xlink" contentStyleType="text/css" data-diagram-type="CLASS" height="445px" preserveAspectRatio="none" style="width:746px;height:445px;background:#FFFFFF;" version="1.1" viewBox="0 0 746 445" width="746px" zoomAndPan="magnify"><defs/><g><!--class EVENT--><g class="entity" data-entity="EVENT" data-source-line="2" data-uid="ent0002" id="entity_EVENT"><rect fill="#F1F1F1" height="115.1997" rx="2.5" ry="2.5" style="stroke:#181818;stroke-width:0.5;" width="217.2812" x="207.4" y="115"/><ellipse cx="284.7857" cy="131" fill="#A9DCDF" rx="11" ry="11" style="stroke:#181818;stroke-width:1;"/><path d="M279.3013,136.5 L281.3326,136.5 L285.3794,125.1563 L284.4732,125.1563 L288.3013,136.5 L290.4419,136.5 L286.1138,124.1719 L283.8951,124.1719 L279.3013,136.5 Z M281.6294,133 L288.0669,133 L288.0669,131.25 L281.6294,131.25 L281.6294,133 Z " fill="#000000"/><text fill="#000000" font-family="sans-serif" font-size="14" font-style="italic" lengthAdjust="spacing" textLength="43.2178" x="305.2857" y="136.362">EVENT</text><rect fill="#FFFFFF" height="16.4001" style="stroke:#181818;stroke-width:1;stroke-dasharray:2,2;" width="8.7921" x="418.8892" y="112"/><text fill="#000000" font-family="sans-serif" font-size="12" font-style="italic" lengthAdjust="spacing" textLength="6.7921" x="419.8892" y="124.7961">T</text><line style="stroke:#181818;stroke-width:0.5;" x1="208.4" x2="423.6812" y1="147" y2="147"/><ellipse cx="218.4" cy="160.9" fill="none" rx="3" ry="3" style="stroke:#038048;stroke-width:1;"/><text fill="#000000" font-family="sans-serif" font-size="14" lengthAdjust="spacing" textLength="155.9174" x="227.4" y="164.7619">time : DV_DATE_TIME [1]</text><ellipse cx="218.4" cy="177.6999" fill="none" rx="3" ry="3" style="stroke:#038048;stroke-width:1;"/><text fill="#000000" font-family="sans-serif" font-size="14" lengthAdjust="spacing" textLength="191.2812" x="227.4" y="181.5619">state : ITEM_STRUCTURE [0..1]</text><ellipse cx="218.4" cy="194.4998" fill="none" rx="3" ry="3" style="stroke:#038048;stroke-width:1;"/><text fill="#000000" font-family="sans-serif" font-size="14" lengthAdjust="spacing" textLength="63.8397" x="227.4" y="198.3618">data : T [1]</text><line style="stroke:#181818;stroke-width:0.5;" x1="208.4" x2="423.6812" y1="205.3998" y2="205.3998"/><ellipse cx="218.4" cy="219.2997" fill="#84BE84" rx="3" ry="3" style="stroke:#038048;stroke-width:1;"/><text fill="#000000" font-family="sans-serif" font-size="14" lengthAdjust="spacing" textLength="168.3633" x="227.4" y="223.1617">offset() : DV_DURATION [1]</text></g><!--class LOCATABLE--><g class="entity" data-entity="LOCATABLE" data-source-line="9" data-uid="ent0003" id="entity_LOCATABLE"><rect fill="#F5F5F5" height="48" rx="2.5" ry="2.5" style="stroke:#808080;stroke-width:1;stroke-dasharray:1,3;" width="108.2857" x="390.89" y="7"/><ellipse cx="405.89" cy="23" fill="#A9DCDF" rx="11" ry="11" style="stroke:#181818;stroke-width:1;"/><path d="M400.4056,28.5 L402.4369,28.5 L406.4838,17.1563 L405.5775,17.1563 L409.4056,28.5 L411.5463,28.5 L407.2181,16.1719 L404.9994,16.1719 L400.4056,28.5 Z M402.7338,25 L409.1713,25 L409.1713,23.25 L402.7338,23.25 L402.7338,25 Z " fill="#000000"/><text fill="#808080" font-family="sans-serif" font-size="14" font-style="italic" lengthAdjust="spacing" textLength="76.2857" x="419.89" y="28.362">LOCATABLE</text><line style="stroke:#808080;stroke-width:1;stroke-dasharray:1,3;" x1="391.89" x2="498.1757" y1="39" y2="39"/><line style="stroke:#808080;stroke-width:1;stroke-dasharray:1,3;" x1="391.89" x2="498.1757" y1="47" y2="47"/></g><!--class POINT_EVENT--><g class="entity" data-entity="POINT_EVENT" data-source-line="12" data-uid="ent0004" id="entity_POINT_EVENT"><rect fill="#F1F1F1" height="48" rx="2.5" ry="2.5" style="stroke:#181818;stroke-width:0.5;" width="134.0717" x="7" y="340.6"/><ellipse cx="22" cy="356.6" fill="#ADD1B2" rx="11" ry="11" style="stroke:#181818;stroke-width:1;"/><path d="M22,363.0219 C23.1719,363.0219 24.4063,362.7563 25.7813,362.1469 L25.2969,360.6313 C24.2031,361.0531 23.1875,361.2406 22.3281,361.2406 C19.6094,361.2406 17.8906,359.3969 17.8906,356.4906 C17.8906,353.7406 19.4531,352.1469 22.1875,352.1469 C23.1094,352.1469 24.125,352.3344 25.2656,352.7563 L25.8438,351.2406 C24.75,350.6625 23.4531,350.3656 22.2656,350.3656 C18.5,350.3656 15.9219,353.0063 15.9219,356.8188 C15.9219,360.4906 18.4063,363.0219 22,363.0219 Z " fill="#000000"/><text fill="#000000" font-family="sans-serif" font-size="14" lengthAdjust="spacing" textLength="91.2796" x="36" y="361.962">POINT_EVENT</text><rect fill="#FFFFFF" height="16.4001" style="stroke:#181818;stroke-width:1;stroke-dasharray:2,2;" width="8.7921" x="135.2796" y="337.6"/><text fill="#000000" font-family="sans-serif" font-size="12" font-style="italic" lengthAdjust="spacing" textLength="6.7921" x="136.2796" y="350.3961">T</text><line style="stroke:#181818;stroke-width:0.5;" x1="8" x2="140.0717" y1="372.6" y2="372.6"/><line style="stroke:#181818;stroke-width:0.5;" x1="8" x2="140.0717" y1="380.6" y2="380.6"/></g><!--class INTERVAL_EVENT--><g class="entity" data-entity="INTERVAL_EVENT" data-source-line="15" data-uid="ent0005" id="entity_INTERVAL_EVENT"><rect fill="#F1F1F1" height="115.1997" rx="2.5" ry="2.5" style="stroke:#181818;stroke-width:0.5;" width="280.281" x="175.9" y="307"/><ellipse cx="249.6317" cy="323" fill="#ADD1B2" rx="11" ry="11" style="stroke:#181818;stroke-width:1;"/><path d="M249.6317,329.4219 C250.8036,329.4219 252.038,329.1563 253.413,328.5469 L252.9286,327.0313 C251.8348,327.4531 250.8192,327.6406 249.9598,327.6406 C247.2411,327.6406 245.5223,325.7969 245.5223,322.8906 C245.5223,320.1406 247.0848,318.5469 249.8192,318.5469 C250.7411,318.5469 251.7567,318.7344 252.8973,319.1563 L253.4755,317.6406 C252.3817,317.0625 251.0848,316.7656 249.8973,316.7656 C246.1317,316.7656 243.5536,319.4063 243.5536,323.2188 C243.5536,326.8906 246.038,329.4219 249.6317,329.4219 Z " fill="#000000"/><text fill="#000000" font-family="sans-serif" font-size="14" lengthAdjust="spacing" textLength="113.5255" x="270.1317" y="328.362">INTERVAL_EVENT</text><rect fill="#FFFFFF" height="16.4001" style="stroke:#181818;stroke-width:1;stroke-dasharray:2,2;" width="8.7921" x="450.389" y="304"/><text fill="#000000" font-family="sans-serif" font-size="12" font-style="italic" lengthAdjust="spacing" textLength="6.7921" x="451.389" y="316.7961">T</text><line style="stroke:#181818;stroke-width:0.5;" x1="176.9" x2="455.181" y1="339" y2="339"/><ellipse cx="186.9" cy="352.9" fill="none" rx="3" ry="3" style="stroke:#038048;stroke-width:1;"/><text fill="#000000" font-family="sans-serif" font-size="14" lengthAdjust="spacing" textLength="158.9134" x="195.9" y="356.7619">width : DV_DURATION [1]</text><ellipse cx="186.9" cy="369.6999" fill="none" rx="3" ry="3" style="stroke:#038048;stroke-width:1;"/><text fill="#000000" font-family="sans-serif" font-size="14" lengthAdjust="spacing" textLength="176.7073" x="195.9" y="373.5619">sample_count : Integer [0..1]</text><ellipse cx="186.9" cy="386.4998" fill="none" rx="3" ry="3" style="stroke:#038048;stroke-width:1;"/><text fill="#000000" font-family="sans-serif" font-size="14" lengthAdjust="spacing" textLength="232.0491" x="195.9" y="390.3618">math_function : DV_CODED_TEXT [1]</text><line style="stroke:#181818;stroke-width:0.5;" x1="176.9" x2="455.181" y1="397.3998" y2="397.3998"/><ellipse cx="186.9" cy="411.2997" fill="#84BE84" rx="3" ry="3" style="stroke:#038048;stroke-width:1;"/><text fill="#000000" font-family="sans-serif" font-size="14" lengthAdjust="spacing" textLength="254.281" x="195.9" y="415.1617">interval_start_time() : DV_DATE_TIME [1]</text></g><!--class HISTORY--><g class="entity" data-entity="HISTORY" data-source-line="22" data-uid="ent0006" id="entity_HISTORY"><rect fill="#F1F1F1" height="148.7996" rx="2.5" ry="2.5" style="stroke:#181818;stroke-width:0.5;" width="244.3991" x="490.84" y="290.2"/><ellipse cx="574.9246" cy="306.2" fill="#ADD1B2" rx="11" ry="11" style="stroke:#181818;stroke-width:1;"/><path d="M574.9246,312.6219 C576.0965,312.6219 577.3309,312.3563 578.7059,311.7469 L578.2215,310.2313 C577.1278,310.6531 576.1121,310.8406 575.2528,310.8406 C572.534,310.8406 570.8153,308.9969 570.8153,306.0906 C570.8153,303.3406 572.3778,301.7469 575.1121,301.7469 C576.034,301.7469 577.0496,301.9344 578.1903,302.3563 L578.7684,300.8406 C577.6746,300.2625 576.3778,299.9656 575.1903,299.9656 C571.4246,299.9656 568.8465,302.6063 568.8465,306.4188 C568.8465,310.0906 571.3309,312.6219 574.9246,312.6219 Z " fill="#000000"/><text fill="#000000" font-family="sans-serif" font-size="14" lengthAdjust="spacing" textLength="56.9378" x="595.4246" y="311.562">HISTORY</text><rect fill="#FFFFFF" height="16.4001" style="stroke:#181818;stroke-width:1;stroke-dasharray:2,2;" width="8.7921" x="729.4471" y="287.2"/><text fill="#000000" font-family="sans-serif" font-size="12" font-style="italic" lengthAdjust="spacing" textLength="6.7921" x="730.4471" y="299.9961">T</text><line style="stroke:#181818;stroke-width:0.5;" x1="491.84" x2="734.2391" y1="322.2" y2="322.2"/><ellipse cx="501.84" cy="336.1" fill="none" rx="3" ry="3" style="stroke:#038048;stroke-width:1;"/><text fill="#000000" font-family="sans-serif" font-size="14" lengthAdjust="spacing" textLength="163.6454" x="510.84" y="339.9619">origin : DV_DATE_TIME [1]</text><ellipse cx="501.84" cy="352.8999" fill="none" rx="3" ry="3" style="stroke:#038048;stroke-width:1;"/><text fill="#000000" font-family="sans-serif" font-size="14" lengthAdjust="spacing" textLength="179.3253" x="510.84" y="356.7619">period : DV_DURATION [0..1]</text><ellipse cx="501.84" cy="369.6998" fill="none" rx="3" ry="3" style="stroke:#038048;stroke-width:1;"/><text fill="#000000" font-family="sans-serif" font-size="14" lengthAdjust="spacing" textLength="191.9112" x="510.84" y="373.5618">duration : DV_DURATION [0..1]</text><ellipse cx="501.84" cy="386.4997" fill="none" rx="3" ry="3" style="stroke:#038048;stroke-width:1;"/><text fill="#000000" font-family="sans-serif" font-size="14" lengthAdjust="spacing" textLength="218.3991" x="510.84" y="390.3617">summary : ITEM_STRUCTURE [0..1]</text><ellipse cx="501.84" cy="403.2997" fill="none" rx="3" ry="3" style="stroke:#038048;stroke-width:1;"/><text fill="#000000" font-family="sans-serif" font-size="14" lengthAdjust="spacing" textLength="175.8813" x="510.84" y="407.1616">events : List&lt;EVENT&lt;T&gt;&gt; [*]</text><line style="stroke:#181818;stroke-width:0.5;" x1="491.84" x2="734.2391" y1="414.1996" y2="414.1996"/><ellipse cx="501.84" cy="428.0996" fill="#84BE84" rx="3" ry="3" style="stroke:#038048;stroke-width:1;"/><text fill="#000000" font-family="sans-serif" font-size="14" lengthAdjust="spacing" textLength="155.0074" x="510.84" y="431.9616">is_periodic() : Boolean [1]</text></g><!--class DATA_STRUCTURE--><g class="entity" data-entity="DATA_STRUCTURE" data-source-line="31" data-uid="ent0007" id="entity_DATA_STRUCTURE"><rect fill="#F5F5F5" height="48" rx="2.5" ry="2.5" style="stroke:#808080;stroke-width:1;stroke-dasharray:1,3;" width="151.3495" x="498.36" y="148.6"/><ellipse cx="513.36" cy="164.6" fill="#A9DCDF" rx="11" ry="11" style="stroke:#181818;stroke-width:1;"/><path d="M507.8756,170.1 L509.9069,170.1 L513.9538,158.7563 L513.0475,158.7563 L516.8756,170.1 L519.0163,170.1 L514.6881,157.7719 L512.4694,157.7719 L507.8756,170.1 Z M510.2038,166.6 L516.6413,166.6 L516.6413,164.85 L510.2038,164.85 L510.2038,166.6 Z " fill="#000000"/><text fill="#808080" font-family="sans-serif" font-size="14" font-style="italic" lengthAdjust="spacing" textLength="119.3495" x="527.36" y="169.962">DATA_STRUCTURE</text><line style="stroke:#808080;stroke-width:1;stroke-dasharray:1,3;" x1="499.36" x2="648.7095" y1="180.6" y2="180.6"/><line style="stroke:#808080;stroke-width:1;stroke-dasharray:1,3;" x1="499.36" x2="648.7095" y1="188.6" y2="188.6"/></g><!--reverse link LOCATABLE to EVENT--><g class="link" data-entity-1="LOCATABLE" data-entity-2="EVENT" data-source-line="34" data-uid="lnk8" id="link_LOCATABLE_EVENT"><path codeLine="34" d="M411.2232,68.5893 C396.2332,84.8093 387.8,93.94 368.61,114.7" fill="none" id="LOCATABLE-backto-EVENT" style="stroke:#181818;stroke-width:1;"/><polygon fill="none" points="423.44,55.37,406.8168,64.517,415.6296,72.6615,423.44,55.37" style="stroke:#181818;stroke-width:1;"/></g><!--reverse link EVENT to POINT_EVENT--><g class="link" data-entity-1="EVENT" data-entity-2="POINT_EVENT" data-source-line="35" data-uid="lnk9" id="link_EVENT_POINT_EVENT"><path codeLine="35" d="M221.7954,241.1155 C196.4354,259.7155 183.02,270.13 158.04,290.2 C137.96,306.34 116.07,325.52 99.67,340.22" fill="none" id="EVENT-backto-POINT_EVENT" style="stroke:#181818;stroke-width:1;"/><polygon fill="none" points="236.31,230.47,218.2469,236.2774,225.344,245.9537,236.31,230.47" style="stroke:#181818;stroke-width:1;"/></g><!--reverse link EVENT to INTERVAL_EVENT--><g class="link" data-entity-1="EVENT" data-entity-2="INTERVAL_EVENT" data-source-line="36" data-uid="lnk10" id="link_EVENT_INTERVAL_EVENT"><path codeLine="36" d="M316.04,248.61 C316.04,272.65 316.04,282.59 316.04,306.63" fill="none" id="EVENT-backto-INTERVAL_EVENT" style="stroke:#181818;stroke-width:1;"/><polygon fill="none" points="316.04,230.61,310.04,248.61,322.04,248.61,316.04,230.61" style="stroke:#181818;stroke-width:1;"/></g><!--reverse link DATA_STRUCTURE to HISTORY--><g class="link" data-entity-1="DATA_STRUCTURE" data-entity-2="HISTORY" data-source-line="37" data-uid="lnk11" id="link_DATA_STRUCTURE_HISTORY"><path codeLine="37" d="M582.4392,214.5324 C587.1992,237.7224 591.13,256.9 597.94,290.04" fill="none" id="DATA_STRUCTURE-backto-HISTORY" style="stroke:#181818;stroke-width:1;"/><polygon fill="none" points="578.82,196.9,576.5618,215.7388,588.3167,213.326,578.82,196.9" style="stroke:#181818;stroke-width:1;"/></g><!--reverse link LOCATABLE to DATA_STRUCTURE--><g class="link" data-entity-1="LOCATABLE" data-entity-2="DATA_STRUCTURE" data-source-line="38" data-uid="lnk12" id="link_LOCATABLE_DATA_STRUCTURE"><path codeLine="38" d="M478.8452,68.5908 C502.6552,94.3608 528.53,122.36 552.37,148.16" fill="none" id="LOCATABLE-backto-DATA_STRUCTURE" style="stroke:#181818;stroke-width:1;"/><polygon fill="none" points="466.63,55.37,474.4383,72.6625,483.2521,64.519,466.63,55.37" style="stroke:#181818;stroke-width:1;"/></g></g></svg>
