<svg xmlns="http://www.w3.org/2000/svg" xmlns:xlink="http://www.w3.org/1999/xlink" contentStyleType="text/css" data-diagram-type="CLASS" height="496px" preserveAspectRatio="none" style="width:1396px;height:496px;background:#FFFFFF;" version="1.1" viewBox="0 0 1396 496" width="1396px" zoomAndPan="magnify"><defs/><g><!--class ITEM_STRUCTURE--><g class="entity" data-entity="ITEM_STRUCTURE" data-source-line="2" data-uid="ent0002" id="entity_ITEM_STRUCTURE"><rect fill="#F1F1F1" height="48" rx="2.5" ry="2.5" style="stroke:#181818;stroke-width:0.5;" width="147.8075" x="583.77" y="115"/><ellipse cx="598.77" cy="131" fill="#A9DCDF" rx="11" ry="11" style="stroke:#181818;stroke-width:1;"/><path d="M593.2856,136.5 L595.3169,136.5 L599.3638,125.1563 L598.4575,125.1563 L602.2856,136.5 L604.4263,136.5 L600.0981,124.1719 L597.8794,124.1719 L593.2856,136.5 Z M595.6138,133 L602.0513,133 L602.0513,131.25 L595.6138,131.25 L595.6138,133 Z " fill="#000000"/><text fill="#000000" font-family="sans-serif" font-size="14" font-style="italic" lengthAdjust="spacing" textLength="115.8075" x="612.77" y="136.362">ITEM_STRUCTURE</text><line style="stroke:#181818;stroke-width:0.5;" x1="584.77" x2="730.5775" y1="147" y2="147"/><line style="stroke:#181818;stroke-width:0.5;" x1="584.77" x2="730.5775" y1="155" y2="155"/></g><!--class ITEM_TREE--><g class="entity" data-entity="ITEM_TREE" data-source-line="5" data-uid="ent0003" id="entity_ITEM_TREE"><rect fill="#F1F1F1" height="115.1997" rx="2.5" ry="2.5" style="stroke:#181818;stroke-width:0.5;" width="345.3387" x="7" y="298.6"/><ellipse cx="139.5095" cy="314.6" fill="#ADD1B2" rx="11" ry="11" style="stroke:#181818;stroke-width:1;"/><path d="M139.5095,321.0219 C140.6814,321.0219 141.9158,320.7562 143.2908,320.1469 L142.8064,318.6312 C141.7126,319.0531 140.697,319.2406 139.8376,319.2406 C137.1189,319.2406 135.4001,317.3969 135.4001,314.4906 C135.4001,311.7406 136.9626,310.1469 139.697,310.1469 C140.6189,310.1469 141.6345,310.3344 142.7751,310.7562 L143.3533,309.2406 C142.2595,308.6625 140.9626,308.3656 139.7751,308.3656 C136.0095,308.3656 133.4314,311.0062 133.4314,314.8187 C133.4314,318.4906 135.9158,321.0219 139.5095,321.0219 Z " fill="#000000"/><text fill="#000000" font-family="sans-serif" font-size="14" lengthAdjust="spacing" textLength="71.8197" x="160.0095" y="319.962">ITEM_TREE</text><line style="stroke:#181818;stroke-width:0.5;" x1="8" x2="351.3387" y1="330.6" y2="330.6"/><ellipse cx="18" cy="344.5" fill="none" rx="3" ry="3" style="stroke:#038048;stroke-width:1;"/><text fill="#000000" font-family="sans-serif" font-size="14" lengthAdjust="spacing" textLength="134.1615" x="27" y="348.3619">items : List&lt;ITEM&gt; [*]</text><line style="stroke:#181818;stroke-width:0.5;" x1="8" x2="351.3387" y1="355.3999" y2="355.3999"/><ellipse cx="18" cy="369.2999" fill="#84BE84" rx="3" ry="3" style="stroke:#038048;stroke-width:1;"/><text fill="#000000" font-family="sans-serif" font-size="14" lengthAdjust="spacing" textLength="317.7428" x="27" y="373.1619">has_element_path( a_path : String [1] ) : Boolean [1]</text><ellipse cx="18" cy="386.0998" fill="#84BE84" rx="3" ry="3" style="stroke:#038048;stroke-width:1;"/><text fill="#000000" font-family="sans-serif" font-size="14" lengthAdjust="spacing" textLength="319.3387" x="27" y="389.9618">element_at_path( a_path : String [1] ) : ELEMENT [1]</text><ellipse cx="18" cy="402.8997" fill="#84BE84" rx="3" ry="3" style="stroke:#038048;stroke-width:1;"/><text fill="#000000" font-family="sans-serif" font-size="14" lengthAdjust="spacing" textLength="173.3613" x="27" y="406.7617">as_hierarchy() : CLUSTER [1]</text></g><!--class ITEM_SINGLE--><g class="entity" data-entity="ITEM_SINGLE" data-source-line="12" data-uid="ent0004" id="entity_ITEM_SINGLE"><rect fill="#F1F1F1" height="81.5999" rx="2.5" ry="2.5" style="stroke:#181818;stroke-width:0.5;" width="203.3933" x="386.97" y="315.4"/><ellipse cx="441.3598" cy="331.4" fill="#ADD1B2" rx="11" ry="11" style="stroke:#181818;stroke-width:1;"/><path d="M441.3598,337.8219 C442.5317,337.8219 443.7661,337.5563 445.1411,336.9469 L444.6567,335.4313 C443.5629,335.8531 442.5473,336.0406 441.6879,336.0406 C438.9692,336.0406 437.2504,334.1969 437.2504,331.2906 C437.2504,328.5406 438.8129,326.9469 441.5473,326.9469 C442.4692,326.9469 443.4848,327.1344 444.6254,327.5563 L445.2036,326.0406 C444.1098,325.4625 442.8129,325.1656 441.6254,325.1656 C437.8598,325.1656 435.2817,327.8063 435.2817,331.6188 C435.2817,335.2906 437.7661,337.8219 441.3598,337.8219 Z " fill="#000000"/><text fill="#000000" font-family="sans-serif" font-size="14" lengthAdjust="spacing" textLength="86.1137" x="461.8598" y="336.762">ITEM_SINGLE</text><line style="stroke:#181818;stroke-width:0.5;" x1="387.97" x2="589.3633" y1="347.4" y2="347.4"/><ellipse cx="397.97" cy="361.3" fill="none" rx="3" ry="3" style="stroke:#038048;stroke-width:1;"/><text fill="#000000" font-family="sans-serif" font-size="14" lengthAdjust="spacing" textLength="118.9015" x="406.97" y="365.1619">item : ELEMENT [1]</text><line style="stroke:#181818;stroke-width:0.5;" x1="387.97" x2="589.3633" y1="372.1999" y2="372.1999"/><ellipse cx="397.97" cy="386.0999" fill="#84BE84" rx="3" ry="3" style="stroke:#038048;stroke-width:1;"/><text fill="#000000" font-family="sans-serif" font-size="14" lengthAdjust="spacing" textLength="177.3933" x="406.97" y="389.9619">as_hierarchy() : ELEMENT [1]</text></g><!--class ITEM_TABLE--><g class="entity" data-entity="ITEM_TABLE" data-source-line="17" data-uid="ent0005" id="entity_ITEM_TABLE"><rect fill="#F1F1F1" height="266.399" rx="2.5" ry="2.5" style="stroke:#181818;stroke-width:0.5;" width="404.6704" x="625.33" y="223"/><ellipse cx="783.5994" cy="239" fill="#ADD1B2" rx="11" ry="11" style="stroke:#181818;stroke-width:1;"/><path d="M783.5994,245.4219 C784.7712,245.4219 786.0056,245.1563 787.3806,244.5469 L786.8962,243.0313 C785.8025,243.4531 784.7869,243.6406 783.9275,243.6406 C781.2087,243.6406 779.49,241.7969 779.49,238.8906 C779.49,236.1406 781.0525,234.5469 783.7869,234.5469 C784.7087,234.5469 785.7244,234.7344 786.865,235.1563 L787.4431,233.6406 C786.3494,233.0625 785.0525,232.7656 783.865,232.7656 C780.0994,232.7656 777.5212,235.4063 777.5212,239.2188 C777.5212,242.8906 780.0056,245.4219 783.5994,245.4219 Z " fill="#000000"/><text fill="#000000" font-family="sans-serif" font-size="14" lengthAdjust="spacing" textLength="79.6317" x="804.0994" y="244.362">ITEM_TABLE</text><line style="stroke:#181818;stroke-width:0.5;" x1="626.33" x2="1029.0004" y1="255" y2="255"/><ellipse cx="636.33" cy="268.9" fill="none" rx="3" ry="3" style="stroke:#038048;stroke-width:1;"/><text fill="#000000" font-family="sans-serif" font-size="14" lengthAdjust="spacing" textLength="156.2114" x="645.33" y="272.7619">rows : List&lt;CLUSTER&gt; [*]</text><line style="stroke:#181818;stroke-width:0.5;" x1="626.33" x2="1029.0004" y1="279.7999" y2="279.7999"/><ellipse cx="636.33" cy="293.6999" fill="#84BE84" rx="3" ry="3" style="stroke:#038048;stroke-width:1;"/><text fill="#000000" font-family="sans-serif" font-size="14" lengthAdjust="spacing" textLength="148.2035" x="645.33" y="297.5619">row_count() : Integer [1]</text><ellipse cx="636.33" cy="310.4998" fill="#84BE84" rx="3" ry="3" style="stroke:#038048;stroke-width:1;"/><text fill="#000000" font-family="sans-serif" font-size="14" lengthAdjust="spacing" textLength="170.5474" x="645.33" y="314.3618">column_count() : Integer [1]</text><ellipse cx="636.33" cy="327.2997" fill="#84BE84" rx="3" ry="3" style="stroke:#038048;stroke-width:1;"/><text fill="#000000" font-family="sans-serif" font-size="14" lengthAdjust="spacing" textLength="206.2752" x="645.33" y="331.1617">row_names() : List&lt;DV_TEXT&gt; [*]</text><ellipse cx="636.33" cy="344.0997" fill="#84BE84" rx="3" ry="3" style="stroke:#038048;stroke-width:1;"/><text fill="#000000" font-family="sans-serif" font-size="14" lengthAdjust="spacing" textLength="228.6191" x="645.33" y="347.9616">column_names() : List&lt;DV_TEXT&gt; [*]</text><ellipse cx="636.33" cy="360.8996" fill="#84BE84" rx="3" ry="3" style="stroke:#038048;stroke-width:1;"/><text fill="#000000" font-family="sans-serif" font-size="14" lengthAdjust="spacing" textLength="225.5391" x="645.33" y="364.7616">ith_row( i : Integer [1] ) : CLUSTER [1]</text><ellipse cx="636.33" cy="377.6995" fill="#84BE84" rx="3" ry="3" style="stroke:#038048;stroke-width:1;"/><text fill="#000000" font-family="sans-serif" font-size="14" lengthAdjust="spacing" textLength="324.5328" x="645.33" y="381.5615">has_row_with_name( a_key : String [1] ) : Boolean [1]</text><ellipse cx="636.33" cy="394.4995" fill="#84BE84" rx="3" ry="3" style="stroke:#038048;stroke-width:1;"/><text fill="#000000" font-family="sans-serif" font-size="14" lengthAdjust="spacing" textLength="346.8767" x="645.33" y="398.3614">has_column_with_name( a_key : String [1] ) : Boolean [1]</text><ellipse cx="636.33" cy="411.2994" fill="#84BE84" rx="3" ry="3" style="stroke:#038048;stroke-width:1;"/><text fill="#000000" font-family="sans-serif" font-size="14" lengthAdjust="spacing" textLength="276.4569" x="645.33" y="415.1614">named_row( a_key : String [1] ) : CLUSTER [1]</text><ellipse cx="636.33" cy="428.0993" fill="#84BE84" rx="3" ry="3" style="stroke:#038048;stroke-width:1;"/><text fill="#000000" font-family="sans-serif" font-size="14" lengthAdjust="spacing" textLength="357.1246" x="645.33" y="431.9613">has_row_with_key( keys : List&lt;String&gt; [0..1] ) : Boolean [1]</text><ellipse cx="636.33" cy="444.8992" fill="#84BE84" rx="3" ry="3" style="stroke:#038048;stroke-width:1;"/><text fill="#000000" font-family="sans-serif" font-size="14" lengthAdjust="spacing" textLength="335.4667" x="645.33" y="448.7612">row_with_key( keys : List&lt;String&gt; [0..1] ) : CLUSTER [1]</text><ellipse cx="636.33" cy="461.6992" fill="#84BE84" rx="3" ry="3" style="stroke:#038048;stroke-width:1;"/><text fill="#000000" font-family="sans-serif" font-size="14" lengthAdjust="spacing" textLength="378.6704" x="645.33" y="465.5611">element_at_cell_ij( i : Integer [1], j : Integer [1] ) : ELEMENT [1]</text><ellipse cx="636.33" cy="478.4991" fill="#84BE84" rx="3" ry="3" style="stroke:#038048;stroke-width:1;"/><text fill="#000000" font-family="sans-serif" font-size="14" lengthAdjust="spacing" textLength="173.3613" x="645.33" y="482.3611">as_hierarchy() : CLUSTER [1]</text></g><!--class ITEM_LIST--><g class="entity" data-entity="ITEM_LIST" data-source-line="33" data-uid="ent0006" id="entity_ITEM_LIST"><rect fill="#F1F1F1" height="148.7996" rx="2.5" ry="2.5" style="stroke:#181818;stroke-width:0.5;" width="324.4228" x="1065.46" y="281.8"/><ellipse cx="1190.7455" cy="297.8" fill="#ADD1B2" rx="11" ry="11" style="stroke:#181818;stroke-width:1;"/><path d="M1190.7455,304.2219 C1191.9174,304.2219 1193.1518,303.9562 1194.5268,303.3469 L1194.0424,301.8312 C1192.9486,302.2531 1191.933,302.4406 1191.0736,302.4406 C1188.3549,302.4406 1186.6361,300.5969 1186.6361,297.6906 C1186.6361,294.9406 1188.1986,293.3469 1190.933,293.3469 C1191.8549,293.3469 1192.8705,293.5344 1194.0111,293.9562 L1194.5893,292.4406 C1193.4955,291.8625 1192.1986,291.5656 1191.0111,291.5656 C1187.2455,291.5656 1184.6674,294.2062 1184.6674,298.0187 C1184.6674,301.6906 1187.1518,304.2219 1190.7455,304.2219 Z " fill="#000000"/><text fill="#000000" font-family="sans-serif" font-size="14" lengthAdjust="spacing" textLength="65.3517" x="1211.2455" y="303.162">ITEM_LIST</text><line style="stroke:#181818;stroke-width:0.5;" x1="1066.46" x2="1388.8828" y1="313.8" y2="313.8"/><ellipse cx="1076.46" cy="327.7" fill="none" rx="3" ry="3" style="stroke:#038048;stroke-width:1;"/><text fill="#000000" font-family="sans-serif" font-size="14" lengthAdjust="spacing" textLength="164.3593" x="1085.46" y="331.5619">items : List&lt;ELEMENT&gt; [*]</text><line style="stroke:#181818;stroke-width:0.5;" x1="1066.46" x2="1388.8828" y1="338.5999" y2="338.5999"/><ellipse cx="1076.46" cy="352.4999" fill="#84BE84" rx="3" ry="3" style="stroke:#038048;stroke-width:1;"/><text fill="#000000" font-family="sans-serif" font-size="14" lengthAdjust="spacing" textLength="152.3194" x="1085.46" y="356.3619">item_count() : Integer [1]</text><ellipse cx="1076.46" cy="369.2998" fill="#84BE84" rx="3" ry="3" style="stroke:#038048;stroke-width:1;"/><text fill="#000000" font-family="sans-serif" font-size="14" lengthAdjust="spacing" textLength="175.0973" x="1085.46" y="373.1618">names() : List&lt;DV_TEXT&gt; [*]</text><ellipse cx="1076.46" cy="386.0997" fill="#84BE84" rx="3" ry="3" style="stroke:#038048;stroke-width:1;"/><text fill="#000000" font-family="sans-serif" font-size="14" lengthAdjust="spacing" textLength="298.4228" x="1085.46" y="389.9617">named_item( a_name : String [1] ) : ELEMENT [1]</text><ellipse cx="1076.46" cy="402.8997" fill="#84BE84" rx="3" ry="3" style="stroke:#038048;stroke-width:1;"/><text fill="#000000" font-family="sans-serif" font-size="14" lengthAdjust="spacing" textLength="233.6871" x="1085.46" y="406.7616">ith_item( i : Integer [1] ) : ELEMENT [1]</text><ellipse cx="1076.46" cy="419.6996" fill="#84BE84" rx="3" ry="3" style="stroke:#038048;stroke-width:1;"/><text fill="#000000" font-family="sans-serif" font-size="14" lengthAdjust="spacing" textLength="173.3613" x="1085.46" y="423.5616">as_hierarchy() : CLUSTER [1]</text></g><!--class DATA_STRUCTURE--><g class="entity" data-entity="DATA_STRUCTURE" data-source-line="42" data-uid="ent0007" id="entity_DATA_STRUCTURE"><rect fill="#F1F1F1" height="48" rx="2.5" ry="2.5" style="stroke:#181818;stroke-width:0.5;" width="151.3495" x="581.99" y="7"/><ellipse cx="596.99" cy="23" fill="#ADD1B2" rx="11" ry="11" style="stroke:#181818;stroke-width:1;"/><path d="M596.99,29.4219 C598.1619,29.4219 599.3963,29.1563 600.7713,28.5469 L600.2869,27.0313 C599.1931,27.4531 598.1775,27.6406 597.3181,27.6406 C594.5994,27.6406 592.8806,25.7969 592.8806,22.8906 C592.8806,20.1406 594.4431,18.5469 597.1775,18.5469 C598.0994,18.5469 599.115,18.7344 600.2556,19.1563 L600.8338,17.6406 C599.74,17.0625 598.4431,16.7656 597.2556,16.7656 C593.49,16.7656 590.9119,19.4063 590.9119,23.2188 C590.9119,26.8906 593.3963,29.4219 596.99,29.4219 Z " fill="#000000"/><text fill="#000000" font-family="sans-serif" font-size="14" lengthAdjust="spacing" textLength="119.3495" x="610.99" y="28.362">DATA_STRUCTURE</text><line style="stroke:#181818;stroke-width:0.5;" x1="582.99" x2="732.3395" y1="39" y2="39"/><line style="stroke:#181818;stroke-width:0.5;" x1="582.99" x2="732.3395" y1="47" y2="47"/></g><!--reverse link DATA_STRUCTURE to ITEM_STRUCTURE--><g class="link" data-entity-1="DATA_STRUCTURE" data-entity-2="ITEM_STRUCTURE" data-source-line="42" data-uid="lnk8" id="link_DATA_STRUCTURE_ITEM_STRUCTURE"><path codeLine="42" d="M657.67,73.26 C657.67,90.94 657.67,97.13 657.67,114.79" fill="none" id="DATA_STRUCTURE-backto-ITEM_STRUCTURE" style="stroke:#181818;stroke-width:1;"/><polygon fill="none" points="657.67,55.26,651.67,73.26,663.67,73.26,657.67,55.26" style="stroke:#181818;stroke-width:1;"/></g><!--reverse link ITEM_STRUCTURE to ITEM_TREE--><g class="link" data-entity-1="ITEM_STRUCTURE" data-entity-2="ITEM_TREE" data-source-line="43" data-uid="lnk9" id="link_ITEM_STRUCTURE_ITEM_TREE"><path codeLine="43" d="M565.7842,158.2648 C506.1542,171.4448 438.85,190.07 369.67,223 C327.4,243.12 284.25,272.31 249.78,298.14" fill="none" id="ITEM_STRUCTURE-backto-ITEM_TREE" style="stroke:#181818;stroke-width:1;"/><polygon fill="none" points="583.36,154.38,564.4893,152.4062,567.0791,164.1234,583.36,154.38" style="stroke:#181818;stroke-width:1;"/></g><!--reverse link ITEM_STRUCTURE to ITEM_SINGLE--><g class="link" data-entity-1="ITEM_STRUCTURE" data-entity-2="ITEM_SINGLE" data-source-line="44" data-uid="lnk10" id="link_ITEM_STRUCTURE_ITEM_SINGLE"><path codeLine="44" d="M628.1445,177.5979 C599.5745,213.9879 555.31,270.34 520.26,314.98" fill="none" id="ITEM_STRUCTURE-backto-ITEM_SINGLE" style="stroke:#181818;stroke-width:1;"/><polygon fill="none" points="639.26,163.44,623.4252,173.8928,632.8638,181.3031,639.26,163.44" style="stroke:#181818;stroke-width:1;"/></g><!--reverse link ITEM_STRUCTURE to ITEM_TABLE--><g class="link" data-entity-1="ITEM_STRUCTURE" data-entity-2="ITEM_TABLE" data-source-line="45" data-uid="lnk11" id="link_ITEM_STRUCTURE_ITEM_TABLE"><path codeLine="45" d="M687.3439,177.5677 C699.3839,192.8177 705.02,199.94 723.05,222.77" fill="none" id="ITEM_STRUCTURE-backto-ITEM_TABLE" style="stroke:#181818;stroke-width:1;"/><polygon fill="none" points="676.19,163.44,682.6347,181.2856,692.0531,173.8497,676.19,163.44" style="stroke:#181818;stroke-width:1;"/></g><!--reverse link ITEM_STRUCTURE to ITEM_LIST--><g class="link" data-entity-1="ITEM_STRUCTURE" data-entity-2="ITEM_LIST" data-source-line="46" data-uid="lnk12" id="link_ITEM_STRUCTURE_ITEM_LIST"><path codeLine="46" d="M749.9574,148.4206 C830.6474,157.4906 943.92,176.47 1047.67,223 C1081.1,237.99 1114.38,259.93 1143.06,281.65" fill="none" id="ITEM_STRUCTURE-backto-ITEM_LIST" style="stroke:#181818;stroke-width:1;"/><polygon fill="none" points="732.07,146.41,749.2871,154.3831,750.6276,142.4582,732.07,146.41" style="stroke:#181818;stroke-width:1;"/></g></g></svg>
