<svg xmlns="http://www.w3.org/2000/svg" xmlns:xlink="http://www.w3.org/1999/xlink" contentStyleType="text/css" data-diagram-type="CLASS" height="186px" preserveAspectRatio="none" style="width:245px;height:186px;background:#FFFFFF;" version="1.1" viewBox="0 0 245 186" width="245px" zoomAndPan="magnify"><defs/><g><!--class SECTION--><g class="entity" data-entity="SECTION" data-source-line="2" data-uid="ent0002" id="entity_SECTION"><rect fill="#F1F1F1" height="64.7999" rx="2.5" ry="2.5" style="stroke:#181818;stroke-width:0.5;" width="231.8551" x="7" y="115"/><ellipse cx="89.8027" cy="131" fill="#ADD1B2" rx="11" ry="11" style="stroke:#181818;stroke-width:1;"/><path d="M89.8027,137.4219 C90.9746,137.4219 92.2089,137.1563 93.5839,136.5469 L93.0996,135.0313 C92.0058,135.4531 90.9902,135.6406 90.1308,135.6406 C87.4121,135.6406 85.6933,133.7969 85.6933,130.8906 C85.6933,128.1406 87.2558,126.5469 89.9902,126.5469 C90.9121,126.5469 91.9277,126.7344 93.0683,127.1563 L93.6464,125.6406 C92.5527,125.0625 91.2558,124.7656 90.0683,124.7656 C86.3027,124.7656 83.7246,127.4063 83.7246,131.2188 C83.7246,134.8906 86.2089,137.4219 89.8027,137.4219 Z " fill="#000000"/><text fill="#000000" font-family="sans-serif" font-size="14" lengthAdjust="spacing" textLength="57.7498" x="110.3027" y="136.362">SECTION</text><line style="stroke:#181818;stroke-width:0.5;" x1="8" x2="237.8551" y1="147" y2="147"/><ellipse cx="18" cy="160.9" fill="none" rx="3" ry="3" style="stroke:#038048;stroke-width:1;"/><text fill="#000000" font-family="sans-serif" font-size="14" lengthAdjust="spacing" textLength="205.8551" x="27" y="164.7619">items : List&lt;CONTENT_ITEM&gt; [*]</text><line style="stroke:#181818;stroke-width:0.5;" x1="8" x2="237.8551" y1="171.7999" y2="171.7999"/></g><!--class CONTENT_ITEM--><g class="entity" data-entity="CONTENT_ITEM" data-source-line="6" data-uid="ent0003" id="entity_CONTENT_ITEM"><rect fill="#F1F1F1" height="48" rx="2.5" ry="2.5" style="stroke:#181818;stroke-width:0.5;" width="135.5576" x="55.15" y="7"/><ellipse cx="70.15" cy="23" fill="#ADD1B2" rx="11" ry="11" style="stroke:#181818;stroke-width:1;"/><path d="M70.15,29.4219 C71.3219,29.4219 72.5563,29.1563 73.9313,28.5469 L73.4469,27.0313 C72.3531,27.4531 71.3375,27.6406 70.4781,27.6406 C67.7594,27.6406 66.0406,25.7969 66.0406,22.8906 C66.0406,20.1406 67.6031,18.5469 70.3375,18.5469 C71.2594,18.5469 72.275,18.7344 73.4156,19.1563 L73.9938,17.6406 C72.9,17.0625 71.6031,16.7656 70.4156,16.7656 C66.65,16.7656 64.0719,19.4063 64.0719,23.2188 C64.0719,26.8906 66.5563,29.4219 70.15,29.4219 Z " fill="#000000"/><text fill="#000000" font-family="sans-serif" font-size="14" lengthAdjust="spacing" textLength="103.5576" x="84.15" y="28.362">CONTENT_ITEM</text><line style="stroke:#181818;stroke-width:0.5;" x1="56.15" x2="189.7076" y1="39" y2="39"/><line style="stroke:#181818;stroke-width:0.5;" x1="56.15" x2="189.7076" y1="47" y2="47"/></g><!--reverse link CONTENT_ITEM to SECTION--><g class="link" data-entity-1="CONTENT_ITEM" data-entity-2="SECTION" data-source-line="6" data-uid="lnk4" id="link_CONTENT_ITEM_SECTION"><path codeLine="6" d="M122.93,73.43 C122.93,90.55 122.93,95.97 122.93,114.76" fill="none" id="CONTENT_ITEM-backto-SECTION" style="stroke:#181818;stroke-width:1;"/><polygon fill="none" points="122.93,55.43,116.93,73.43,128.93,73.43,122.93,55.43" style="stroke:#181818;stroke-width:1;"/></g></g></svg>
