<svg xmlns="http://www.w3.org/2000/svg" xmlns:xlink="http://www.w3.org/1999/xlink" contentStyleType="text/css" data-diagram-type="CLASS" height="1168px" preserveAspectRatio="none" style="width:2181px;height:1168px;background:#FFFFFF;" version="1.1" viewBox="0 0 2181 1168" width="2181px" zoomAndPan="magnify"><defs/><g><!--class DV_ORDERED--><g class="entity" data-entity="DV_ORDERED" data-source-line="2" data-uid="ent0002" id="entity_DV_ORDERED"><rect fill="#F1F1F1" height="165.5995" rx="2.5" ry="2.5" style="stroke:#181818;stroke-width:0.5;" width="479.2201" x="1199.85" y="168.4"/><ellipse cx="1390.3822" cy="184.4" fill="#A9DCDF" rx="11" ry="11" style="stroke:#181818;stroke-width:1;"/><path d="M1384.8979,189.9 L1386.9291,189.9 L1390.976,178.5562 L1390.0697,178.5562 L1393.8979,189.9 L1396.0385,189.9 L1391.7104,177.5719 L1389.4916,177.5719 L1384.8979,189.9 Z M1387.226,186.4 L1393.6635,186.4 L1393.6635,184.65 L1387.226,184.65 L1387.226,186.4 Z " fill="#000000"/><text fill="#000000" font-family="sans-serif" font-size="14" font-style="italic" lengthAdjust="spacing" textLength="89.6556" x="1410.8822" y="189.762">DV_ORDERED</text><line style="stroke:#181818;stroke-width:0.5;" x1="1200.85" x2="1678.0701" y1="200.4" y2="200.4"/><ellipse cx="1210.85" cy="214.3" fill="none" rx="3" ry="3" style="stroke:#038048;stroke-width:1;"/><text fill="#000000" font-family="sans-serif" font-size="14" lengthAdjust="spacing" textLength="230.5231" x="1219.85" y="218.1619">normal_status : CODE_PHRASE [0..1]</text><ellipse cx="1210.85" cy="231.0999" fill="none" rx="3" ry="3" style="stroke:#038048;stroke-width:1;"/><text fill="#000000" font-family="sans-serif" font-size="14" lengthAdjust="spacing" textLength="220.3871" x="1219.85" y="234.9619">normal_range : DV_INTERVAL [0..1]</text><ellipse cx="1210.85" cy="247.8998" fill="none" rx="3" ry="3" style="stroke:#038048;stroke-width:1;"/><text fill="#000000" font-family="sans-serif" font-size="14" lengthAdjust="spacing" textLength="453.2201" x="1219.85" y="251.7618">other_reference_ranges : List&lt;REFERENCE_RANGE&lt;DV_ORDERED&gt;&gt; [*]</text><line style="stroke:#181818;stroke-width:0.5;" x1="1200.85" x2="1678.0701" y1="258.7998" y2="258.7998"/><ellipse cx="1210.85" cy="272.6997" fill="#84BE84" rx="3" ry="3" style="stroke:#038048;stroke-width:1;"/><text fill="#000000" font-family="sans-serif" font-size="14" font-style="italic" lengthAdjust="spacing" textLength="406.1805" x="1219.85" y="276.5617">is_strictly_comparable_to( other : DV_ORDERED [1] ) : Boolean [1]</text><ellipse cx="1210.85" cy="289.4997" fill="#84BE84" rx="3" ry="3" style="stroke:#038048;stroke-width:1;"/><text fill="#000000" font-family="sans-serif" font-size="14" lengthAdjust="spacing" textLength="146.6214" x="1219.85" y="293.3616">is_simple() : Boolean [1]</text><ellipse cx="1210.85" cy="306.2996" fill="#84BE84" rx="3" ry="3" style="stroke:#038048;stroke-width:1;"/><text fill="#000000" font-family="sans-serif" font-size="14" lengthAdjust="spacing" textLength="149.6174" x="1219.85" y="310.1616">is_normal() : Boolean [1]</text><ellipse cx="1210.85" cy="323.0995" fill="#84BE84" rx="3" ry="3" style="stroke:#038048;stroke-width:1;"/><text fill="#000000" font-family="sans-serif" font-size="14" font-style="italic" lengthAdjust="spacing" textLength="305.3948" x="1219.85" y="326.9615">less_than( other : DV_ORDERED [1] ) : Boolean [1]</text></g><!--class DV_INTERVAL--><g class="entity" data-entity="DV_INTERVAL" data-source-line="12" data-uid="ent0003" id="entity_DV_INTERVAL"><rect fill="#F1F1F1" height="48" rx="2.5" ry="2.5" style="stroke:#181818;stroke-width:0.5;" width="131.4957" x="1713.71" y="227.2"/><ellipse cx="1728.71" cy="243.2" fill="#ADD1B2" rx="11" ry="11" style="stroke:#181818;stroke-width:1;"/><path d="M1728.71,249.6219 C1729.8819,249.6219 1731.1163,249.3563 1732.4913,248.7469 L1732.0069,247.2313 C1730.9131,247.6531 1729.8975,247.8406 1729.0381,247.8406 C1726.3194,247.8406 1724.6006,245.9969 1724.6006,243.0906 C1724.6006,240.3406 1726.1631,238.7469 1728.8975,238.7469 C1729.8194,238.7469 1730.835,238.9344 1731.9756,239.3563 L1732.5538,237.8406 C1731.46,237.2625 1730.1631,236.9656 1728.9756,236.9656 C1725.21,236.9656 1722.6319,239.6063 1722.6319,243.4188 C1722.6319,247.0906 1725.1163,249.6219 1728.71,249.6219 Z " fill="#000000"/><text fill="#000000" font-family="sans-serif" font-size="14" lengthAdjust="spacing" textLength="88.7036" x="1742.71" y="248.562">DV_INTERVAL</text><rect fill="#FFFFFF" height="16.4001" style="stroke:#181818;stroke-width:1;stroke-dasharray:2,2;" width="8.7921" x="1839.4136" y="224.2"/><text fill="#000000" font-family="sans-serif" font-size="12" font-style="italic" lengthAdjust="spacing" textLength="6.7921" x="1840.4136" y="236.9961">T</text><line style="stroke:#181818;stroke-width:0.5;" x1="1714.71" x2="1844.2057" y1="259.2" y2="259.2"/><line style="stroke:#181818;stroke-width:0.5;" x1="1714.71" x2="1844.2057" y1="267.2" y2="267.2"/></g><!--class REFERENCE_RANGE--><g class="entity" data-entity="REFERENCE_RANGE" data-source-line="15" data-uid="ent0004" id="entity_REFERENCE_RANGE"><rect fill="#F1F1F1" height="98.3998" rx="2.5" ry="2.5" style="stroke:#181818;stroke-width:0.5;" width="316.2189" x="1854.35" y="10"/><ellipse cx="1937.5107" cy="26" fill="#ADD1B2" rx="11" ry="11" style="stroke:#181818;stroke-width:1;"/><path d="M1937.5107,32.4219 C1938.6826,32.4219 1939.9169,32.1563 1941.2919,31.5469 L1940.8076,30.0313 C1939.7138,30.4531 1938.6982,30.6406 1937.8388,30.6406 C1935.1201,30.6406 1933.4013,28.7969 1933.4013,25.8906 C1933.4013,23.1406 1934.9638,21.5469 1937.6982,21.5469 C1938.6201,21.5469 1939.6357,21.7344 1940.7763,22.1563 L1941.3544,20.6406 C1940.2607,20.0625 1938.9638,19.7656 1937.7763,19.7656 C1934.0107,19.7656 1931.4326,22.4063 1931.4326,26.2188 C1931.4326,29.8906 1933.9169,32.4219 1937.5107,32.4219 Z " fill="#000000"/><text fill="#000000" font-family="sans-serif" font-size="14" lengthAdjust="spacing" textLength="130.6055" x="1958.0107" y="31.362">REFERENCE_RANGE</text><rect fill="#FFFFFF" height="16.4001" style="stroke:#181818;stroke-width:1;stroke-dasharray:2,2;" width="8.7921" x="2164.7768" y="7"/><text fill="#000000" font-family="sans-serif" font-size="12" font-style="italic" lengthAdjust="spacing" textLength="6.7921" x="2165.7768" y="19.7961">T</text><line style="stroke:#181818;stroke-width:0.5;" x1="1855.35" x2="2169.5689" y1="42" y2="42"/><ellipse cx="1865.35" cy="55.9" fill="none" rx="3" ry="3" style="stroke:#038048;stroke-width:1;"/><text fill="#000000" font-family="sans-serif" font-size="14" lengthAdjust="spacing" textLength="140.5734" x="1874.35" y="59.7619">meaning : DV_TEXT [1]</text><ellipse cx="1865.35" cy="72.6999" fill="none" rx="3" ry="3" style="stroke:#038048;stroke-width:1;"/><text fill="#000000" font-family="sans-serif" font-size="14" lengthAdjust="spacing" textLength="153.0054" x="1874.35" y="76.5619">range : DV_INTERVAL [1]</text><line style="stroke:#181818;stroke-width:0.5;" x1="1855.35" x2="2169.5689" y1="83.5999" y2="83.5999"/><ellipse cx="1865.35" cy="97.4998" fill="#84BE84" rx="3" ry="3" style="stroke:#038048;stroke-width:1;"/><text fill="#000000" font-family="sans-serif" font-size="14" lengthAdjust="spacing" textLength="290.2189" x="1874.35" y="101.3618">is_in_range( v : DV_ORDERED [1] ) : Boolean [1]</text></g><!--class DV_QUANTIFIED--><g class="entity" data-entity="DV_QUANTIFIED" data-source-line="21" data-uid="ent0005" id="entity_DV_QUANTIFIED"><rect fill="#F1F1F1" height="165.5995" rx="2.5" ry="2.5" style="stroke:#181818;stroke-width:0.5;" width="347.9148" x="842.5" y="394"/><ellipse cx="959.1196" cy="410" fill="#A9DCDF" rx="11" ry="11" style="stroke:#181818;stroke-width:1;"/><path d="M953.6352,415.5 L955.6665,415.5 L959.7133,404.1563 L958.8071,404.1563 L962.6352,415.5 L964.7758,415.5 L960.4477,403.1719 L958.229,403.1719 L953.6352,415.5 Z M955.9633,412 L962.4008,412 L962.4008,410.25 L955.9633,410.25 L955.9633,412 Z " fill="#000000"/><text fill="#000000" font-family="sans-serif" font-size="14" font-style="italic" lengthAdjust="spacing" textLength="106.1756" x="979.6196" y="415.362">DV_QUANTIFIED</text><line style="stroke:#181818;stroke-width:0.5;" x1="843.5" x2="1189.4148" y1="426" y2="426"/><ellipse cx="853.5" cy="439.9" fill="none" rx="3" ry="3" style="stroke:#038048;stroke-width:1;"/><text fill="#000000" font-family="sans-serif" font-size="14" lengthAdjust="spacing" textLength="193.9972" x="862.5" y="443.7619">magnitude_status : String [0..1]</text><ellipse cx="853.5" cy="456.6999" fill="none" rx="3" ry="3" style="stroke:#038048;stroke-width:1;"/><text fill="#000000" font-family="sans-serif" font-size="14" lengthAdjust="spacing" textLength="121.4915" x="862.5" y="460.5619">accuracy : Any [0..1]</text><line style="stroke:#181818;stroke-width:0.5;" x1="843.5" x2="1189.4148" y1="467.5999" y2="467.5999"/><ellipse cx="853.5" cy="481.4998" fill="#84BE84" rx="3" ry="3" style="stroke:#038048;stroke-width:1;"/><text fill="#000000" font-family="sans-serif" font-size="14" lengthAdjust="spacing" textLength="236.515" x="862.5" y="485.3618">valid_magnitude_status() : Boolean [1]</text><ellipse cx="853.5" cy="498.2997" fill="#84BE84" rx="3" ry="3" style="stroke:#038048;stroke-width:1;"/><text fill="#000000" font-family="sans-serif" font-size="14" font-style="italic" lengthAdjust="spacing" textLength="216.4531" x="862.5" y="502.1617">magnitude() : Ordered_Numeric [1]</text><ellipse cx="853.5" cy="515.0997" fill="#84BE84" rx="3" ry="3" style="stroke:#038048;stroke-width:1;"/><text fill="#000000" font-family="sans-serif" font-size="14" lengthAdjust="spacing" textLength="206.3172" x="862.5" y="518.9616">accuracy_unknown() : Boolean [1]</text><ellipse cx="853.5" cy="531.8996" fill="#84BE84" rx="3" ry="3" style="stroke:#038048;stroke-width:1;"/><text fill="#000000" font-family="sans-serif" font-size="14" font-style="italic" lengthAdjust="spacing" textLength="313.7248" x="862.5" y="535.7616">is_equal( other : DV_QUANTIFIED [1] ) : Boolean [1]</text><ellipse cx="853.5" cy="548.6995" fill="#84BE84" rx="3" ry="3" style="stroke:#038048;stroke-width:1;"/><text fill="#000000" font-family="sans-serif" font-size="14" lengthAdjust="spacing" textLength="321.9148" x="862.5" y="552.5615">less_than( other : DV_QUANTIFIED [1] ) : Boolean [1]</text></g><!--class DV_PROPORTION--><g class="entity" data-entity="DV_PROPORTION" data-source-line="31" data-uid="ent0006" id="entity_DV_PROPORTION"><rect fill="#F1F1F1" height="283.199" rx="2.5" ry="2.5" style="stroke:#181818;stroke-width:0.5;" width="502.922" x="7" y="878.8"/><ellipse cx="197.5322" cy="894.8" fill="#ADD1B2" rx="11" ry="11" style="stroke:#181818;stroke-width:1;"/><path d="M197.5322,901.2219 C198.7041,901.2219 199.9385,900.9563 201.3135,900.3469 L200.8291,898.8313 C199.7354,899.2531 198.7197,899.4406 197.8604,899.4406 C195.1416,899.4406 193.4229,897.5969 193.4229,894.6906 C193.4229,891.9406 194.9854,890.3469 197.7197,890.3469 C198.6416,890.3469 199.6572,890.5344 200.7979,890.9563 L201.376,889.4406 C200.2822,888.8625 198.9854,888.5656 197.7979,888.5656 C194.0322,888.5656 191.4541,891.2063 191.4541,895.0188 C191.4541,898.6906 193.9385,901.2219 197.5322,901.2219 Z " fill="#000000"/><text fill="#000000" font-family="sans-serif" font-size="14" lengthAdjust="spacing" textLength="113.3575" x="218.0322" y="900.162">DV_PROPORTION</text><line style="stroke:#181818;stroke-width:0.5;" x1="8" x2="508.922" y1="910.8" y2="910.8"/><ellipse cx="18" cy="924.7" fill="none" rx="3" ry="3" style="stroke:#038048;stroke-width:1;"/><text fill="#000000" font-family="sans-serif" font-size="14" lengthAdjust="spacing" textLength="121.9395" x="27" y="928.5619">numerator : Real [1]</text><ellipse cx="18" cy="941.4999" fill="none" rx="3" ry="3" style="stroke:#038048;stroke-width:1;"/><text fill="#000000" font-family="sans-serif" font-size="14" lengthAdjust="spacing" textLength="136.1495" x="27" y="945.3619">denominator : Real [1]</text><ellipse cx="18" cy="958.2998" fill="none" rx="3" ry="3" style="stroke:#038048;stroke-width:1;"/><text fill="#000000" font-family="sans-serif" font-size="14" lengthAdjust="spacing" textLength="100.4776" x="27" y="962.1618">type : Integer [1]</text><ellipse cx="18" cy="975.0997" fill="none" rx="3" ry="3" style="stroke:#038048;stroke-width:1;"/><text fill="#000000" font-family="sans-serif" font-size="14" lengthAdjust="spacing" textLength="145.5434" x="27" y="978.9617">precision : Integer [0..1]</text><ellipse cx="18" cy="991.8997" fill="none" rx="3" ry="3" style="stroke:#038048;stroke-width:1;"/><text fill="#000000" font-family="sans-serif" font-size="14" lengthAdjust="spacing" textLength="349.9845" x="27" y="995.7616">normal_range : DV_INTERVAL&lt;DV_PROPORTION&gt; [0..1]</text><ellipse cx="18" cy="1008.6996" fill="none" rx="3" ry="3" style="stroke:#038048;stroke-width:1;"/><text fill="#000000" font-family="sans-serif" font-size="14" lengthAdjust="spacing" textLength="476.922" x="27" y="1012.5616">other_reference_ranges : List&lt;REFERENCE_RANGE&lt;DV_PROPORTION&gt;&gt; [*]</text><line style="stroke:#181818;stroke-width:0.5;" x1="8" x2="508.922" y1="1019.5996" y2="1019.5996"/><ellipse cx="18" cy="1033.4995" fill="#84BE84" rx="3" ry="3" style="stroke:#038048;stroke-width:1;"/><text fill="#000000" font-family="sans-serif" font-size="14" lengthAdjust="spacing" textLength="131.2775" x="27" y="1037.3615">magnitude() : Real [1]</text><ellipse cx="18" cy="1050.2995" fill="#84BE84" rx="3" ry="3" style="stroke:#038048;stroke-width:1;"/><text fill="#000000" font-family="sans-serif" font-size="14" lengthAdjust="spacing" textLength="153.1454" x="27" y="1054.1614">is_integral() : Boolean [1]</text><ellipse cx="18" cy="1067.0994" fill="#84BE84" rx="3" ry="3" style="stroke:#038048;stroke-width:1;"/><text fill="#000000" font-family="sans-serif" font-size="14" lengthAdjust="spacing" textLength="355.1226" x="27" y="1070.9614">add( other : DV_PROPORTION [1] ) : DV_PROPORTION [1]</text><ellipse cx="18" cy="1083.8993" fill="#84BE84" rx="3" ry="3" style="stroke:#038048;stroke-width:1;"/><text fill="#000000" font-family="sans-serif" font-size="14" lengthAdjust="spacing" textLength="383.3745" x="27" y="1087.7613">subtract( other : DV_PROPORTION [1] ) : DV_PROPORTION [1]</text><ellipse cx="18" cy="1100.6992" fill="#84BE84" rx="3" ry="3" style="stroke:#038048;stroke-width:1;"/><text fill="#000000" font-family="sans-serif" font-size="14" lengthAdjust="spacing" textLength="320.9067" x="27" y="1104.5612">is_equal( other : DV_PROPORTION [1] ) : Boolean [1]</text><ellipse cx="18" cy="1117.4992" fill="#84BE84" rx="3" ry="3" style="stroke:#038048;stroke-width:1;"/><text fill="#000000" font-family="sans-serif" font-size="14" lengthAdjust="spacing" textLength="300.1168" x="27" y="1121.3611">multiply( factor : Real [1] ) : DV_PROPORTION [1]</text><ellipse cx="18" cy="1134.2991" fill="#84BE84" rx="3" ry="3" style="stroke:#038048;stroke-width:1;"/><text fill="#000000" font-family="sans-serif" font-size="14" lengthAdjust="spacing" textLength="329.0967" x="27" y="1138.1611">less_than( other : DV_PROPORTION [1] ) : Boolean [1]</text><ellipse cx="18" cy="1151.099" fill="#84BE84" rx="3" ry="3" style="stroke:#038048;stroke-width:1;"/><text fill="#000000" font-family="sans-serif" font-size="14" lengthAdjust="spacing" textLength="406.1805" x="27" y="1154.961">is_strictly_comparable_to( other : DV_ORDERED [1] ) : Boolean [1]</text></g><!--class PROPORTION_KIND--><g class="entity" data-entity="PROPORTION_KIND" data-source-line="48" data-uid="ent0007" id="entity_PROPORTION_KIND"><rect fill="#F1F1F1" height="131.9996" rx="2.5" ry="2.5" style="stroke:#181818;stroke-width:0.5;" width="159.6655" x="178.63" y="653.2"/><ellipse cx="193.63" cy="669.2" fill="#EB937F" rx="11" ry="11" style="stroke:#181818;stroke-width:1;"/><path d="M189.1925,675.7 L197.13,675.7 L197.13,673.95 L191.13,673.95 L191.13,670.2156 L196.6769,670.2156 L196.6769,668.45 L191.13,668.45 L191.13,665.1219 L197.13,665.1219 L197.13,663.3719 L189.1925,663.3719 L189.1925,675.7 Z " fill="#000000"/><text fill="#000000" font-family="sans-serif" font-size="14" lengthAdjust="spacing" textLength="127.6655" x="207.63" y="674.562">PROPORTION_KIND</text><line style="stroke:#181818;stroke-width:0.5;" x1="179.63" x2="337.2955" y1="685.2" y2="685.2"/><text fill="#000000" font-family="sans-serif" font-size="14" lengthAdjust="spacing" textLength="73.7237" x="184.63" y="702.9619">pk_ratio = 0</text><text fill="#000000" font-family="sans-serif" font-size="14" lengthAdjust="spacing" textLength="85.5817" x="184.63" y="719.7619">pk_unitary = 1</text><text fill="#000000" font-family="sans-serif" font-size="14" lengthAdjust="spacing" textLength="91.2236" x="184.63" y="736.5618">pk_percent = 2</text><text fill="#000000" font-family="sans-serif" font-size="14" lengthAdjust="spacing" textLength="92.2316" x="184.63" y="753.3617">pk_fraction = 3</text><text fill="#000000" font-family="sans-serif" font-size="14" lengthAdjust="spacing" textLength="144.1994" x="184.63" y="770.1616">pk_integer_fraction = 4</text><line style="stroke:#181818;stroke-width:0.5;" x1="179.63" x2="337.2955" y1="777.1996" y2="777.1996"/></g><!--class DV_AMOUNT--><g class="entity" data-entity="DV_AMOUNT" data-source-line="56" data-uid="ent0008" id="entity_DV_AMOUNT"><rect fill="#F1F1F1" height="199.1993" rx="2.5" ry="2.5" style="stroke:#181818;stroke-width:0.5;" width="416.2065" x="577.36" y="619.6"/><ellipse cx="738.8914" cy="635.6" fill="#A9DCDF" rx="11" ry="11" style="stroke:#181818;stroke-width:1;"/><path d="M733.407,641.1 L735.4383,641.1 L739.4852,629.7563 L738.5789,629.7563 L742.407,641.1 L744.5477,641.1 L740.2195,628.7719 L738.0008,628.7719 L733.407,641.1 Z M735.7352,637.6 L742.1727,637.6 L742.1727,635.85 L735.7352,635.85 L735.7352,637.6 Z " fill="#000000"/><text fill="#000000" font-family="sans-serif" font-size="14" font-style="italic" lengthAdjust="spacing" textLength="84.6437" x="759.3914" y="640.962">DV_AMOUNT</text><line style="stroke:#181818;stroke-width:0.5;" x1="578.36" x2="992.5665" y1="651.6" y2="651.6"/><ellipse cx="588.36" cy="665.5" fill="none" rx="3" ry="3" style="stroke:#038048;stroke-width:1;"/><text fill="#000000" font-family="sans-serif" font-size="14" lengthAdjust="spacing" textLength="220.6811" x="597.36" y="669.3619">accuracy_is_percent : Boolean [0..1]</text><ellipse cx="588.36" cy="682.2999" fill="none" rx="3" ry="3" style="stroke:#038048;stroke-width:1;"/><text fill="#000000" font-family="sans-serif" font-size="14" lengthAdjust="spacing" textLength="125.2015" x="597.36" y="686.1619">accuracy : Real [0..1]</text><line style="stroke:#181818;stroke-width:0.5;" x1="578.36" x2="992.5665" y1="693.1999" y2="693.1999"/><ellipse cx="588.36" cy="707.0998" fill="#84BE84" rx="3" ry="3" style="stroke:#038048;stroke-width:1;"/><text fill="#000000" font-family="sans-serif" font-size="14" lengthAdjust="spacing" textLength="390.2065" x="597.36" y="710.9618">valid_percentage( number : Ordered_Numeric [1] ) : Boolean [1]</text><ellipse cx="588.36" cy="723.8997" fill="#84BE84" rx="3" ry="3" style="stroke:#038048;stroke-width:1;"/><text fill="#000000" font-family="sans-serif" font-size="14" lengthAdjust="spacing" textLength="297.6948" x="597.36" y="727.7617">add( other : DV_AMOUNT [1] ) : DV_AMOUNT [1]</text><ellipse cx="588.36" cy="740.6997" fill="#84BE84" rx="3" ry="3" style="stroke:#038048;stroke-width:1;"/><text fill="#000000" font-family="sans-serif" font-size="14" lengthAdjust="spacing" textLength="325.9467" x="597.36" y="744.5616">subtract( other : DV_AMOUNT [1] ) : DV_AMOUNT [1]</text><ellipse cx="588.36" cy="757.4996" fill="#84BE84" rx="3" ry="3" style="stroke:#038048;stroke-width:1;"/><text fill="#000000" font-family="sans-serif" font-size="14" font-style="italic" lengthAdjust="spacing" textLength="292.1929" x="597.36" y="761.3616">is_equal( other : DV_AMOUNT [1] ) : Boolean [1]</text><ellipse cx="588.36" cy="774.2995" fill="#84BE84" rx="3" ry="3" style="stroke:#038048;stroke-width:1;"/><text fill="#000000" font-family="sans-serif" font-size="14" lengthAdjust="spacing" textLength="271.4029" x="597.36" y="778.1615">multiply( factor : Real [1] ) : DV_AMOUNT [1]</text><ellipse cx="588.36" cy="791.0995" fill="#84BE84" rx="3" ry="3" style="stroke:#038048;stroke-width:1;"/><text fill="#000000" font-family="sans-serif" font-size="14" lengthAdjust="spacing" textLength="174.7053" x="597.36" y="794.9614">negative() : DV_AMOUNT [1]</text><ellipse cx="588.36" cy="807.8994" fill="#84BE84" rx="3" ry="3" style="stroke:#038048;stroke-width:1;"/><text fill="#000000" font-family="sans-serif" font-size="14" lengthAdjust="spacing" textLength="300.3829" x="597.36" y="811.7614">less_than( other : DV_AMOUNT [1] ) : Boolean [1]</text></g><!--class DV_QUANTITY--><g class="entity" data-entity="DV_QUANTITY" data-source-line="68" data-uid="ent0009" id="entity_DV_QUANTITY"><rect fill="#F1F1F1" height="266.399" rx="2.5" ry="2.5" style="stroke:#181818;stroke-width:0.5;" width="482.034" x="544.44" y="887.2"/><ellipse cx="734.9722" cy="903.2" fill="#ADD1B2" rx="11" ry="11" style="stroke:#181818;stroke-width:1;"/><path d="M734.9722,909.6219 C736.1441,909.6219 737.3784,909.3563 738.7534,908.7469 L738.2691,907.2313 C737.1753,907.6531 736.1597,907.8406 735.3003,907.8406 C732.5816,907.8406 730.8628,905.9969 730.8628,903.0906 C730.8628,900.3406 732.4253,898.7469 735.1597,898.7469 C736.0816,898.7469 737.0972,898.9344 738.2378,899.3563 L738.8159,897.8406 C737.7222,897.2625 736.4253,896.9656 735.2378,896.9656 C731.4722,896.9656 728.8941,899.6063 728.8941,903.4188 C728.8941,907.0906 731.3784,909.6219 734.9722,909.6219 Z " fill="#000000"/><text fill="#000000" font-family="sans-serif" font-size="14" lengthAdjust="spacing" textLength="92.4696" x="755.4722" y="908.562">DV_QUANTITY</text><line style="stroke:#181818;stroke-width:0.5;" x1="545.44" x2="1025.474" y1="919.2" y2="919.2"/><ellipse cx="555.44" cy="933.1" fill="none" rx="3" ry="3" style="stroke:#038048;stroke-width:1;"/><text fill="#000000" font-family="sans-serif" font-size="14" lengthAdjust="spacing" textLength="122.8495" x="564.44" y="936.9619">magnitude : Real [1]</text><ellipse cx="555.44" cy="949.8999" fill="none" rx="3" ry="3" style="stroke:#038048;stroke-width:1;"/><text fill="#000000" font-family="sans-serif" font-size="14" lengthAdjust="spacing" textLength="145.5434" x="564.44" y="953.7619">precision : Integer [0..1]</text><ellipse cx="555.44" cy="966.6998" fill="none" rx="3" ry="3" style="stroke:#038048;stroke-width:1;"/><text fill="#000000" font-family="sans-serif" font-size="14" lengthAdjust="spacing" textLength="96.7256" x="564.44" y="970.5618">units : String [1]</text><ellipse cx="555.44" cy="983.4997" fill="none" rx="3" ry="3" style="stroke:#038048;stroke-width:1;"/><text fill="#000000" font-family="sans-serif" font-size="14" lengthAdjust="spacing" textLength="329.0966" x="564.44" y="987.3617">normal_range : DV_INTERVAL&lt;DV_QUANTITY&gt; [0..1]</text><ellipse cx="555.44" cy="1000.2997" fill="none" rx="3" ry="3" style="stroke:#038048;stroke-width:1;"/><text fill="#000000" font-family="sans-serif" font-size="14" lengthAdjust="spacing" textLength="456.034" x="564.44" y="1004.1616">other_reference_ranges : List&lt;REFERENCE_RANGE&lt;DV_QUANTITY&gt;&gt; [*]</text><ellipse cx="555.44" cy="1017.0996" fill="none" rx="3" ry="3" style="stroke:#038048;stroke-width:1;"/><text fill="#000000" font-family="sans-serif" font-size="14" lengthAdjust="spacing" textLength="164.0513" x="564.44" y="1020.9616">units_system : String [0..1]</text><ellipse cx="555.44" cy="1033.8995" fill="none" rx="3" ry="3" style="stroke:#038048;stroke-width:1;"/><text fill="#000000" font-family="sans-serif" font-size="14" lengthAdjust="spacing" textLength="205.0852" x="564.44" y="1037.7615">units_display_name : String [0..1]</text><line style="stroke:#181818;stroke-width:0.5;" x1="545.44" x2="1025.474" y1="1044.7995" y2="1044.7995"/><ellipse cx="555.44" cy="1058.6995" fill="#84BE84" rx="3" ry="3" style="stroke:#038048;stroke-width:1;"/><text fill="#000000" font-family="sans-serif" font-size="14" lengthAdjust="spacing" textLength="313.3467" x="564.44" y="1062.5614">add( other : DV_QUANTITY [1] ) : DV_QUANTITY [1]</text><ellipse cx="555.44" cy="1075.4994" fill="#84BE84" rx="3" ry="3" style="stroke:#038048;stroke-width:1;"/><text fill="#000000" font-family="sans-serif" font-size="14" lengthAdjust="spacing" textLength="341.5986" x="564.44" y="1079.3614">subtract( other : DV_QUANTITY [1] ) : DV_QUANTITY [1]</text><ellipse cx="555.44" cy="1092.2993" fill="#84BE84" rx="3" ry="3" style="stroke:#038048;stroke-width:1;"/><text fill="#000000" font-family="sans-serif" font-size="14" lengthAdjust="spacing" textLength="279.2289" x="564.44" y="1096.1613">multiply( factor : Real [1] ) : DV_QUANTITY [1]</text><ellipse cx="555.44" cy="1109.0992" fill="#84BE84" rx="3" ry="3" style="stroke:#038048;stroke-width:1;"/><text fill="#000000" font-family="sans-serif" font-size="14" lengthAdjust="spacing" textLength="308.2088" x="564.44" y="1112.9612">less_than( other : DV_QUANTITY [1] ) : Boolean [1]</text><ellipse cx="555.44" cy="1125.8992" fill="#84BE84" rx="3" ry="3" style="stroke:#038048;stroke-width:1;"/><text fill="#000000" font-family="sans-serif" font-size="14" lengthAdjust="spacing" textLength="153.1454" x="564.44" y="1129.7611">is_integral() : Boolean [1]</text><ellipse cx="555.44" cy="1142.6991" fill="#84BE84" rx="3" ry="3" style="stroke:#038048;stroke-width:1;"/><text fill="#000000" font-family="sans-serif" font-size="14" lengthAdjust="spacing" textLength="406.1805" x="564.44" y="1146.5611">is_strictly_comparable_to( other : DV_ORDERED [1] ) : Boolean [1]</text></g><!--class DV_COUNT--><g class="entity" data-entity="DV_COUNT" data-source-line="84" data-uid="ent0010" id="entity_DV_COUNT"><rect fill="#F1F1F1" height="182.3994" rx="2.5" ry="2.5" style="stroke:#181818;stroke-width:0.5;" width="462.4481" x="1061.24" y="929.2"/><ellipse cx="1251.7722" cy="945.2" fill="#ADD1B2" rx="11" ry="11" style="stroke:#181818;stroke-width:1;"/><path d="M1251.7722,951.6219 C1252.9441,951.6219 1254.1785,951.3563 1255.5535,950.7469 L1255.0691,949.2313 C1253.9753,949.6531 1252.9597,949.8406 1252.1003,949.8406 C1249.3816,949.8406 1247.6628,947.9969 1247.6628,945.0906 C1247.6628,942.3406 1249.2253,940.7469 1251.9597,940.7469 C1252.8816,940.7469 1253.8972,940.9344 1255.0378,941.3563 L1255.616,939.8406 C1254.5222,939.2625 1253.2253,938.9656 1252.0378,938.9656 C1248.2722,938.9656 1245.6941,941.6063 1245.6941,945.4188 C1245.6941,949.0906 1248.1785,951.6219 1251.7722,951.6219 Z " fill="#000000"/><text fill="#000000" font-family="sans-serif" font-size="14" lengthAdjust="spacing" textLength="72.8837" x="1272.2722" y="950.562">DV_COUNT</text><line style="stroke:#181818;stroke-width:0.5;" x1="1062.24" x2="1522.6881" y1="961.2" y2="961.2"/><ellipse cx="1072.24" cy="975.1" fill="none" rx="3" ry="3" style="stroke:#038048;stroke-width:1;"/><text fill="#000000" font-family="sans-serif" font-size="14" lengthAdjust="spacing" textLength="157.0094" x="1081.24" y="978.9619">magnitude : Integer64 [1]</text><ellipse cx="1072.24" cy="991.8999" fill="none" rx="3" ry="3" style="stroke:#038048;stroke-width:1;"/><text fill="#000000" font-family="sans-serif" font-size="14" lengthAdjust="spacing" textLength="309.5107" x="1081.24" y="995.7619">normal_range : DV_INTERVAL&lt;DV_COUNT&gt; [0..1]</text><ellipse cx="1072.24" cy="1008.6998" fill="none" rx="3" ry="3" style="stroke:#038048;stroke-width:1;"/><text fill="#000000" font-family="sans-serif" font-size="14" lengthAdjust="spacing" textLength="436.4481" x="1081.24" y="1012.5618">other_reference_ranges : List&lt;REFERENCE_RANGE&lt;DV_COUNT&gt;&gt; [*]</text><line style="stroke:#181818;stroke-width:0.5;" x1="1062.24" x2="1522.6881" y1="1019.5998" y2="1019.5998"/><ellipse cx="1072.24" cy="1033.4997" fill="#84BE84" rx="3" ry="3" style="stroke:#038048;stroke-width:1;"/><text fill="#000000" font-family="sans-serif" font-size="14" lengthAdjust="spacing" textLength="274.1749" x="1081.24" y="1037.3617">add( other : DV_COUNT [1] ) : DV_COUNT [1]</text><ellipse cx="1072.24" cy="1050.2997" fill="#84BE84" rx="3" ry="3" style="stroke:#038048;stroke-width:1;"/><text fill="#000000" font-family="sans-serif" font-size="14" lengthAdjust="spacing" textLength="302.4268" x="1081.24" y="1054.1616">subtract( other : DV_COUNT [1] ) : DV_COUNT [1]</text><ellipse cx="1072.24" cy="1067.0996" fill="#84BE84" rx="3" ry="3" style="stroke:#038048;stroke-width:1;"/><text fill="#000000" font-family="sans-serif" font-size="14" lengthAdjust="spacing" textLength="259.643" x="1081.24" y="1070.9616">multiply( factor : Real [1] ) : DV_COUNT [1]</text><ellipse cx="1072.24" cy="1083.8995" fill="#84BE84" rx="3" ry="3" style="stroke:#038048;stroke-width:1;"/><text fill="#000000" font-family="sans-serif" font-size="14" lengthAdjust="spacing" textLength="288.6229" x="1081.24" y="1087.7615">less_than( other : DV_COUNT [1] ) : Boolean [1]</text><ellipse cx="1072.24" cy="1100.6995" fill="#84BE84" rx="3" ry="3" style="stroke:#038048;stroke-width:1;"/><text fill="#000000" font-family="sans-serif" font-size="14" lengthAdjust="spacing" textLength="406.1805" x="1081.24" y="1104.5614">is_strictly_comparable_to( other : DV_ORDERED [1] ) : Boolean [1]</text></g><!--class DV_ABSOLUTE_QUANTITY--><g class="entity" data-entity="DV_ABSOLUTE_QUANTITY" data-source-line="95" data-uid="ent0011" id="entity_DV_ABSOLUTE_QUANTITY"><rect fill="#F1F1F1" height="115.1997" rx="2.5" ry="2.5" style="stroke:#181818;stroke-width:0.5;" width="436.8282" x="1029.05" y="661.6"/><ellipse cx="1159.2075" cy="677.6" fill="#A9DCDF" rx="11" ry="11" style="stroke:#181818;stroke-width:1;"/><path d="M1153.7231,683.1 L1155.7543,683.1 L1159.8012,671.7563 L1158.895,671.7563 L1162.7231,683.1 L1164.8637,683.1 L1160.5356,670.7719 L1158.3168,670.7719 L1153.7231,683.1 Z M1156.0512,679.6 L1162.4887,679.6 L1162.4887,677.85 L1156.0512,677.85 L1156.0512,679.6 Z " fill="#000000"/><text fill="#000000" font-family="sans-serif" font-size="14" font-style="italic" lengthAdjust="spacing" textLength="168.0133" x="1179.7075" y="682.962">DV_ABSOLUTE_QUANTITY</text><line style="stroke:#181818;stroke-width:0.5;" x1="1030.05" x2="1464.8782" y1="693.6" y2="693.6"/><ellipse cx="1040.05" cy="707.5" fill="none" rx="3" ry="3" style="stroke:#038048;stroke-width:1;"/><text fill="#000000" font-family="sans-serif" font-size="14" lengthAdjust="spacing" textLength="182.7133" x="1049.05" y="711.3619">accuracy : DV_AMOUNT [0..1]</text><line style="stroke:#181818;stroke-width:0.5;" x1="1030.05" x2="1464.8782" y1="718.3999" y2="718.3999"/><ellipse cx="1040.05" cy="732.2999" fill="#84BE84" rx="3" ry="3" style="stroke:#038048;stroke-width:1;"/><text fill="#000000" font-family="sans-serif" font-size="14" font-style="italic" lengthAdjust="spacing" textLength="382.5764" x="1049.05" y="736.1619">add( a_diff : DV_AMOUNT [1] ) : DV_ABSOLUTE_QUANTITY [1]</text><ellipse cx="1040.05" cy="749.0998" fill="#84BE84" rx="3" ry="3" style="stroke:#038048;stroke-width:1;"/><text fill="#000000" font-family="sans-serif" font-size="14" font-style="italic" lengthAdjust="spacing" textLength="410.8282" x="1049.05" y="752.9618">subtract( a_diff : DV_AMOUNT [1] ) : DV_ABSOLUTE_QUANTITY [1]</text><ellipse cx="1040.05" cy="765.8997" fill="#84BE84" rx="3" ry="3" style="stroke:#038048;stroke-width:1;"/><text fill="#000000" font-family="sans-serif" font-size="14" font-style="italic" lengthAdjust="spacing" textLength="378.8804" x="1049.05" y="769.7617">diff( other : DV_ABSOLUTE_QUANTITY [1] ) : DV_AMOUNT [1]</text></g><!--class DV_ORDINAL--><g class="entity" data-entity="DV_ORDINAL" data-source-line="102" data-uid="ent0012" id="entity_DV_ORDINAL"><rect fill="#F1F1F1" height="115.1997" rx="2.5" ry="2.5" style="stroke:#181818;stroke-width:0.5;" width="427.2805" x="1225.82" y="419.2"/><ellipse cx="1392.8324" cy="435.2" fill="#ADD1B2" rx="11" ry="11" style="stroke:#181818;stroke-width:1;"/><path d="M1392.8324,441.6219 C1394.0043,441.6219 1395.2387,441.3563 1396.6137,440.7469 L1396.1293,439.2313 C1395.0356,439.6531 1394.0199,439.8406 1393.1606,439.8406 C1390.4418,439.8406 1388.7231,437.9969 1388.7231,435.0906 C1388.7231,432.3406 1390.2856,430.7469 1393.0199,430.7469 C1393.9418,430.7469 1394.9574,430.9344 1396.0981,431.3563 L1396.6762,429.8406 C1395.5824,429.2625 1394.2856,428.9656 1393.0981,428.9656 C1389.3324,428.9656 1386.7543,431.6063 1386.7543,435.4188 C1386.7543,439.0906 1389.2387,441.6219 1392.8324,441.6219 Z " fill="#000000"/><text fill="#000000" font-family="sans-serif" font-size="14" lengthAdjust="spacing" textLength="84.7557" x="1413.3324" y="440.562">DV_ORDINAL</text><line style="stroke:#181818;stroke-width:0.5;" x1="1226.82" x2="1652.1005" y1="451.2" y2="451.2"/><ellipse cx="1236.82" cy="465.1" fill="none" rx="3" ry="3" style="stroke:#038048;stroke-width:1;"/><text fill="#000000" font-family="sans-serif" font-size="14" lengthAdjust="spacing" textLength="186.4932" x="1245.82" y="468.9619">symbol : DV_CODED_TEXT [1]</text><ellipse cx="1236.82" cy="481.8999" fill="none" rx="3" ry="3" style="stroke:#038048;stroke-width:1;"/><text fill="#000000" font-family="sans-serif" font-size="14" lengthAdjust="spacing" textLength="106.3016" x="1245.82" y="485.7619">value : Integer [1]</text><line style="stroke:#181818;stroke-width:0.5;" x1="1226.82" x2="1652.1005" y1="492.7999" y2="492.7999"/><ellipse cx="1236.82" cy="506.6998" fill="#84BE84" rx="3" ry="3" style="stroke:#038048;stroke-width:1;"/><text fill="#000000" font-family="sans-serif" font-size="14" lengthAdjust="spacing" textLength="300.4949" x="1245.82" y="510.5618">less_than( other : DV_ORDINAL [1] ) : Boolean [1]</text><ellipse cx="1236.82" cy="523.4997" fill="#84BE84" rx="3" ry="3" style="stroke:#038048;stroke-width:1;"/><text fill="#000000" font-family="sans-serif" font-size="14" lengthAdjust="spacing" textLength="401.2805" x="1245.82" y="527.3617">is_strictly_comparable_to( other : DV_ORDINAL [1] ) : Boolean [1]</text></g><!--class DV_SCALE--><g class="entity" data-entity="DV_SCALE" data-source-line="109" data-uid="ent0013" id="entity_DV_SCALE"><rect fill="#F1F1F1" height="115.1997" rx="2.5" ry="2.5" style="stroke:#181818;stroke-width:0.5;" width="408.7166" x="1688.1" y="419.2"/><ellipse cx="1855.1124" cy="435.2" fill="#ADD1B2" rx="11" ry="11" style="stroke:#181818;stroke-width:1;"/><path d="M1855.1124,441.6219 C1856.2843,441.6219 1857.5187,441.3563 1858.8937,440.7469 L1858.4093,439.2313 C1857.3156,439.6531 1856.2999,439.8406 1855.4406,439.8406 C1852.7218,439.8406 1851.0031,437.9969 1851.0031,435.0906 C1851.0031,432.3406 1852.5656,430.7469 1855.2999,430.7469 C1856.2218,430.7469 1857.2374,430.9344 1858.3781,431.3563 L1858.9562,429.8406 C1857.8624,429.2625 1856.5656,428.9656 1855.3781,428.9656 C1851.6124,428.9656 1849.0343,431.6063 1849.0343,435.4188 C1849.0343,439.0906 1851.5187,441.6219 1855.1124,441.6219 Z " fill="#000000"/><text fill="#000000" font-family="sans-serif" font-size="14" lengthAdjust="spacing" textLength="66.1917" x="1875.6124" y="440.562">DV_SCALE</text><line style="stroke:#181818;stroke-width:0.5;" x1="1689.1" x2="2095.8166" y1="451.2" y2="451.2"/><ellipse cx="1699.1" cy="465.1" fill="none" rx="3" ry="3" style="stroke:#038048;stroke-width:1;"/><text fill="#000000" font-family="sans-serif" font-size="14" lengthAdjust="spacing" textLength="186.4932" x="1708.1" y="468.9619">symbol : DV_CODED_TEXT [1]</text><ellipse cx="1699.1" cy="481.8999" fill="none" rx="3" ry="3" style="stroke:#038048;stroke-width:1;"/><text fill="#000000" font-family="sans-serif" font-size="14" lengthAdjust="spacing" textLength="88.6616" x="1708.1" y="485.7619">value : Real [1]</text><line style="stroke:#181818;stroke-width:0.5;" x1="1689.1" x2="2095.8166" y1="492.7999" y2="492.7999"/><ellipse cx="1699.1" cy="506.6998" fill="#84BE84" rx="3" ry="3" style="stroke:#038048;stroke-width:1;"/><text fill="#000000" font-family="sans-serif" font-size="14" lengthAdjust="spacing" textLength="382.7166" x="1708.1" y="510.5618">is_strictly_comparable_to( other : DV_SCALE [1] ) : Boolean [1]</text><ellipse cx="1699.1" cy="523.4997" fill="#84BE84" rx="3" ry="3" style="stroke:#038048;stroke-width:1;"/><text fill="#000000" font-family="sans-serif" font-size="14" lengthAdjust="spacing" textLength="281.9309" x="1708.1" y="527.3617">less_than( other : DV_SCALE [1] ) : Boolean [1]</text></g><!--class DATA_VALUE--><g class="entity" data-entity="DATA_VALUE" data-source-line="116" data-uid="ent0014" id="entity_DATA_VALUE"><rect fill="#F1F1F1" height="48" rx="2.5" ry="2.5" style="stroke:#181818;stroke-width:0.5;" width="116.2657" x="1552.33" y="35.2"/><ellipse cx="1567.33" cy="51.2" fill="#ADD1B2" rx="11" ry="11" style="stroke:#181818;stroke-width:1;"/><path d="M1567.33,57.6219 C1568.5019,57.6219 1569.7363,57.3563 1571.1113,56.7469 L1570.6269,55.2313 C1569.5331,55.6531 1568.5175,55.8406 1567.6581,55.8406 C1564.9394,55.8406 1563.2206,53.9969 1563.2206,51.0906 C1563.2206,48.3406 1564.7831,46.7469 1567.5175,46.7469 C1568.4394,46.7469 1569.455,46.9344 1570.5956,47.3563 L1571.1738,45.8406 C1570.08,45.2625 1568.7831,44.9656 1567.5956,44.9656 C1563.83,44.9656 1561.2519,47.6063 1561.2519,51.4188 C1561.2519,55.0906 1563.7363,57.6219 1567.33,57.6219 Z " fill="#000000"/><text fill="#000000" font-family="sans-serif" font-size="14" lengthAdjust="spacing" textLength="84.2657" x="1581.33" y="56.562">DATA_VALUE</text><line style="stroke:#181818;stroke-width:0.5;" x1="1553.33" x2="1667.5957" y1="67.2" y2="67.2"/><line style="stroke:#181818;stroke-width:0.5;" x1="1553.33" x2="1667.5957" y1="75.2" y2="75.2"/></g><!--class Ordered--><g class="entity" data-entity="Ordered" data-source-line="117" data-uid="ent0016" id="entity_Ordered"><rect fill="#F1F1F1" height="48" rx="2.5" ry="2.5" style="stroke:#181818;stroke-width:0.5;" width="83.9398" x="1397.49" y="35.2"/><ellipse cx="1412.49" cy="51.2" fill="#ADD1B2" rx="11" ry="11" style="stroke:#181818;stroke-width:1;"/><path d="M1412.49,57.6219 C1413.6619,57.6219 1414.8963,57.3563 1416.2713,56.7469 L1415.7869,55.2313 C1414.6931,55.6531 1413.6775,55.8406 1412.8181,55.8406 C1410.0994,55.8406 1408.3806,53.9969 1408.3806,51.0906 C1408.3806,48.3406 1409.9431,46.7469 1412.6775,46.7469 C1413.5994,46.7469 1414.615,46.9344 1415.7556,47.3563 L1416.3338,45.8406 C1415.24,45.2625 1413.9431,44.9656 1412.7556,44.9656 C1408.99,44.9656 1406.4119,47.6063 1406.4119,51.4188 C1406.4119,55.0906 1408.8963,57.6219 1412.49,57.6219 Z " fill="#000000"/><text fill="#000000" font-family="sans-serif" font-size="14" lengthAdjust="spacing" textLength="51.9398" x="1426.49" y="56.562">Ordered</text><line style="stroke:#181818;stroke-width:0.5;" x1="1398.49" x2="1480.4298" y1="67.2" y2="67.2"/><line style="stroke:#181818;stroke-width:0.5;" x1="1398.49" x2="1480.4298" y1="75.2" y2="75.2"/></g><!--class Interval--><g class="entity" data-entity="Interval" data-source-line="119" data-uid="ent0019" id="entity_Interval"><rect fill="#F1F1F1" height="48" rx="2.5" ry="2.5" style="stroke:#181818;stroke-width:0.5;" width="79.1798" x="1739.87" y="35.2"/><ellipse cx="1754.87" cy="51.2" fill="#ADD1B2" rx="11" ry="11" style="stroke:#181818;stroke-width:1;"/><path d="M1754.87,57.6219 C1756.0419,57.6219 1757.2763,57.3563 1758.6513,56.7469 L1758.1669,55.2313 C1757.0731,55.6531 1756.0575,55.8406 1755.1981,55.8406 C1752.4794,55.8406 1750.7606,53.9969 1750.7606,51.0906 C1750.7606,48.3406 1752.3231,46.7469 1755.0575,46.7469 C1755.9794,46.7469 1756.995,46.9344 1758.1356,47.3563 L1758.7138,45.8406 C1757.62,45.2625 1756.3231,44.9656 1755.1356,44.9656 C1751.37,44.9656 1748.7919,47.6063 1748.7919,51.4188 C1748.7919,55.0906 1751.2763,57.6219 1754.87,57.6219 Z " fill="#000000"/><text fill="#000000" font-family="sans-serif" font-size="14" lengthAdjust="spacing" textLength="47.1798" x="1768.87" y="56.562">Interval</text><line style="stroke:#181818;stroke-width:0.5;" x1="1740.87" x2="1818.0498" y1="67.2" y2="67.2"/><line style="stroke:#181818;stroke-width:0.5;" x1="1740.87" x2="1818.0498" y1="75.2" y2="75.2"/></g><!--reverse link DATA_VALUE to DV_ORDERED--><g class="link" data-entity-1="DATA_VALUE" data-entity-2="DV_ORDERED" data-source-line="116" data-uid="lnk15" id="link_DATA_VALUE_DV_ORDERED"><path codeLine="116" d="M1577.4518,96.8821 C1558.3718,118.0921 1541.07,137.31 1513.38,168.07" fill="none" id="DATA_VALUE-backto-DV_ORDERED" style="stroke:#181818;stroke-width:1;"/><polygon fill="none" points="1589.49,83.5,1572.9911,92.8694,1581.9125,100.8949,1589.49,83.5" style="stroke:#181818;stroke-width:1;"/></g><!--reverse link Ordered to DV_ORDERED--><g class="link" data-entity-1="Ordered" data-entity-2="DV_ORDERED" data-source-line="117" data-uid="lnk17" id="link_Ordered_DV_ORDERED"><path codeLine="117" d="M1439.46,101.5 C1439.46,122.71 1439.46,137.31 1439.46,168.07" fill="none" id="Ordered-backto-DV_ORDERED" style="stroke:#181818;stroke-width:1;"/><polygon fill="none" points="1439.46,83.5,1433.46,101.5,1445.46,101.5,1439.46,83.5" style="stroke:#181818;stroke-width:1;"/></g><!--reverse link DATA_VALUE to DV_INTERVAL--><g class="link" data-entity-1="DATA_VALUE" data-entity-2="DV_INTERVAL" data-source-line="118" data-uid="lnk18" id="link_DATA_VALUE_DV_INTERVAL"><path codeLine="118" d="M1643.1431,96.9493 C1675.5831,133.4193 1726.03,190.13 1758.57,226.71" fill="none" id="DATA_VALUE-backto-DV_INTERVAL" style="stroke:#181818;stroke-width:1;"/><polygon fill="none" points="1631.18,83.5,1638.66,100.937,1647.6262,92.9616,1631.18,83.5" style="stroke:#181818;stroke-width:1;"/></g><!--reverse link Interval to DV_INTERVAL--><g class="link" data-entity-1="Interval" data-entity-2="DV_INTERVAL" data-source-line="119" data-uid="lnk20" id="link_Interval_DV_INTERVAL"><path codeLine="119" d="M1779.46,101.5 C1779.46,137.97 1779.46,190.13 1779.46,226.71" fill="none" id="Interval-backto-DV_INTERVAL" style="stroke:#181818;stroke-width:1;"/><polygon fill="none" points="1779.46,83.5,1773.46,101.5,1785.46,101.5,1779.46,83.5" style="stroke:#181818;stroke-width:1;"/></g><!--reverse link DV_ORDERED to DV_QUANTIFIED--><g class="link" data-entity-1="DV_ORDERED" data-entity-2="DV_QUANTIFIED" data-source-line="120" data-uid="lnk21" id="link_DV_ORDERED_DV_QUANTIFIED"><path codeLine="120" d="M1268.1365,342.762 C1231.6065,362.072 1208.59,374.24 1172.05,393.56" fill="none" id="DV_ORDERED-backto-DV_QUANTIFIED" style="stroke:#181818;stroke-width:1;"/><polygon fill="none" points="1284.05,334.35,1265.3325,337.4575,1270.9405,348.0665,1284.05,334.35" style="stroke:#181818;stroke-width:1;"/></g><!--reverse link PROPORTION_KIND to DV_PROPORTION--><g class="link" data-entity-1="PROPORTION_KIND" data-entity-2="DV_PROPORTION" data-source-line="121" data-uid="lnk22" id="link_PROPORTION_KIND_DV_PROPORTION"><path codeLine="121" d="M258.46,803.49 C258.46,830.92 258.46,845.96 258.46,878.45" fill="none" id="PROPORTION_KIND-backto-DV_PROPORTION" style="stroke:#181818;stroke-width:1;"/><polygon fill="none" points="258.46,785.49,252.46,803.49,264.46,803.49,258.46,785.49" style="stroke:#181818;stroke-width:1;"/></g><!--reverse link DV_AMOUNT to DV_PROPORTION--><g class="link" data-entity-1="DV_AMOUNT" data-entity-2="DV_PROPORTION" data-source-line="122" data-uid="lnk23" id="link_DV_AMOUNT_DV_PROPORTION"><path codeLine="122" d="M595.426,828.0956 C562.006,847.0656 542.07,858.38 506.85,878.38" fill="none" id="DV_AMOUNT-backto-DV_PROPORTION" style="stroke:#181818;stroke-width:1;"/><polygon fill="none" points="611.08,819.21,592.4642,822.8776,598.3879,833.3136,611.08,819.21" style="stroke:#181818;stroke-width:1;"/></g><!--reverse link DV_QUANTIFIED to DV_AMOUNT--><g class="link" data-entity-1="DV_QUANTIFIED" data-entity-2="DV_AMOUNT" data-source-line="123" data-uid="lnk24" id="link_DV_QUANTIFIED_DV_AMOUNT"><path codeLine="123" d="M925.1384,572.8392 C906.7084,592.0192 899.36,599.66 880.32,619.48" fill="none" id="DV_QUANTIFIED-backto-DV_AMOUNT" style="stroke:#181818;stroke-width:1;"/><polygon fill="none" points="937.61,559.86,920.812,568.6819,929.4648,576.9964,937.61,559.86" style="stroke:#181818;stroke-width:1;"/></g><!--reverse link DV_AMOUNT to DV_QUANTITY--><g class="link" data-entity-1="DV_AMOUNT" data-entity-2="DV_QUANTITY" data-source-line="124" data-uid="lnk25" id="link_DV_AMOUNT_DV_QUANTITY"><path codeLine="124" d="M785.46,837 C785.46,858.7 785.46,864.02 785.46,886.81" fill="none" id="DV_AMOUNT-backto-DV_QUANTITY" style="stroke:#181818;stroke-width:1;"/><polygon fill="none" points="785.46,819,779.46,837,791.46,837,785.46,819" style="stroke:#181818;stroke-width:1;"/></g><!--reverse link DV_AMOUNT to DV_COUNT--><g class="link" data-entity-1="DV_AMOUNT" data-entity-2="DV_COUNT" data-source-line="125" data-uid="lnk26" id="link_DV_AMOUNT_DV_COUNT"><path codeLine="125" d="M968.732,828.3582 C1028.702,863.7482 1080.44,894.28 1139.13,928.91" fill="none" id="DV_AMOUNT-backto-DV_COUNT" style="stroke:#181818;stroke-width:1;"/><polygon fill="none" points="953.23,819.21,965.6826,833.5255,971.7814,823.1908,953.23,819.21" style="stroke:#181818;stroke-width:1;"/></g><!--reverse link DV_QUANTIFIED to DV_ABSOLUTE_QUANTITY--><g class="link" data-entity-1="DV_QUANTIFIED" data-entity-2="DV_ABSOLUTE_QUANTITY" data-source-line="126" data-uid="lnk27" id="link_DV_QUANTIFIED_DV_ABSOLUTE_QUANTITY"><path codeLine="126" d="M1107.7803,572.8405 C1139.8003,606.1705 1163.55,630.87 1192.61,661.12" fill="none" id="DV_QUANTIFIED-backto-DV_ABSOLUTE_QUANTITY" style="stroke:#181818;stroke-width:1;"/><polygon fill="none" points="1095.31,559.86,1103.4535,576.9972,1112.1071,568.6837,1095.31,559.86" style="stroke:#181818;stroke-width:1;"/></g><!--reverse link DV_ORDERED to DV_ORDINAL--><g class="link" data-entity-1="DV_ORDERED" data-entity-2="DV_ORDINAL" data-source-line="127" data-uid="lnk28" id="link_DV_ORDERED_DV_ORDINAL"><path codeLine="127" d="M1439.46,352.19 C1439.46,380.36 1439.46,393.25 1439.46,418.98" fill="none" id="DV_ORDERED-backto-DV_ORDINAL" style="stroke:#181818;stroke-width:1;"/><polygon fill="none" points="1439.46,334.19,1433.46,352.19,1445.46,352.19,1439.46,334.19" style="stroke:#181818;stroke-width:1;"/></g><!--reverse link DV_ORDERED to DV_SCALE--><g class="link" data-entity-1="DV_ORDERED" data-entity-2="DV_SCALE" data-source-line="128" data-uid="lnk29" id="link_DV_ORDERED_DV_SCALE"><path codeLine="128" d="M1622.031,342.3167 C1678.821,370.3467 1724.9,393.09 1776.81,418.72" fill="none" id="DV_ORDERED-backto-DV_SCALE" style="stroke:#181818;stroke-width:1;"/><polygon fill="none" points="1605.89,334.35,1619.3754,347.6971,1624.6866,336.9364,1605.89,334.35" style="stroke:#181818;stroke-width:1;"/></g></g></svg>
