<svg xmlns="http://www.w3.org/2000/svg" xmlns:xlink="http://www.w3.org/1999/xlink" contentStyleType="text/css" data-diagram-type="CLASS" height="304px" preserveAspectRatio="none" style="width:659px;height:304px;background:#FFFFFF;" version="1.1" viewBox="0 0 659 304" width="659px" zoomAndPan="magnify"><defs/><g><!--class SERVICE_USE--><g class="entity" data-entity="SERVICE_USE" data-source-line="2" data-uid="ent0002" id="entity_SERVICE_USE"><rect fill="#F1F1F1" height="98.3998" rx="2.5" ry="2.5" style="stroke:#181818;stroke-width:0.5;" width="253.5131" x="7" y="199"/><ellipse cx="86.3587" cy="215" fill="#ADD1B2" rx="11" ry="11" style="stroke:#181818;stroke-width:1;"/><path d="M86.3587,221.4219 C87.5306,221.4219 88.765,221.1562 90.14,220.5469 L89.6556,219.0312 C88.5618,219.4531 87.5462,219.6406 86.6868,219.6406 C83.9681,219.6406 82.2493,217.7969 82.2493,214.8906 C82.2493,212.1406 83.8118,210.5469 86.5462,210.5469 C87.4681,210.5469 88.4837,210.7344 89.6243,211.1562 L90.2025,209.6406 C89.1087,209.0625 87.8118,208.7656 86.6243,208.7656 C82.8587,208.7656 80.2806,211.4062 80.2806,215.2187 C80.2806,218.8906 82.765,221.4219 86.3587,221.4219 Z " fill="#000000"/><text fill="#000000" font-family="sans-serif" font-size="14" lengthAdjust="spacing" textLength="86.2957" x="106.8587" y="220.362">SERVICE_USE</text><line style="stroke:#181818;stroke-width:0.5;" x1="8" x2="259.5131" y1="231" y2="231"/><ellipse cx="18" cy="244.9" fill="none" rx="3" ry="3" style="stroke:#038048;stroke-width:1;"/><text fill="#000000" font-family="sans-serif" font-size="14" lengthAdjust="spacing" textLength="179.4373" x="27" y="248.7619">identifier : GENERIC_ID [0..1]</text><ellipse cx="18" cy="261.6999" fill="none" rx="3" ry="3" style="stroke:#038048;stroke-width:1;"/><text fill="#000000" font-family="sans-serif" font-size="14" lengthAdjust="spacing" textLength="227.5131" x="27" y="265.5619">start_time : Iso8601_date_time [0..1]</text><ellipse cx="18" cy="278.4998" fill="none" rx="3" ry="3" style="stroke:#038048;stroke-width:1;"/><text fill="#000000" font-family="sans-serif" font-size="14" lengthAdjust="spacing" textLength="205.5052" x="27" y="282.3618">duration : Iso8601_duration [0..1]</text><line style="stroke:#181818;stroke-width:0.5;" x1="8" x2="259.5131" y1="289.3998" y2="289.3998"/></g><!--class RESOURCE_USE--><g class="entity" data-entity="RESOURCE_USE" data-source-line="8" data-uid="ent0003" id="entity_RESOURCE_USE"><rect fill="#F1F1F1" height="64.7999" rx="2.5" ry="2.5" style="stroke:#181818;stroke-width:0.5;" width="246.5131" x="141.5" y="40.6"/><ellipse cx="209.0918" cy="56.6" fill="#A9DCDF" rx="11" ry="11" style="stroke:#181818;stroke-width:1;"/><path d="M203.6074,62.1 L205.6386,62.1 L209.6855,50.7562 L208.7793,50.7562 L212.6074,62.1 L214.748,62.1 L210.4199,49.7719 L208.2011,49.7719 L203.6074,62.1 Z M205.9355,58.6 L212.373,58.6 L212.373,56.85 L205.9355,56.85 L205.9355,58.6 Z " fill="#000000"/><text fill="#000000" font-family="sans-serif" font-size="14" font-style="italic" lengthAdjust="spacing" textLength="102.8296" x="229.5918" y="61.962">RESOURCE_USE</text><line style="stroke:#181818;stroke-width:0.5;" x1="142.5" x2="387.0131" y1="72.6" y2="72.6"/><ellipse cx="152.5" cy="86.5" fill="none" rx="3" ry="3" style="stroke:#038048;stroke-width:1;"/><text fill="#000000" font-family="sans-serif" font-size="14" lengthAdjust="spacing" textLength="220.5131" x="161.5" y="90.3619">cost_data : ITEM_STRUCTURE [0..1]</text><line style="stroke:#181818;stroke-width:0.5;" x1="142.5" x2="387.0131" y1="97.3999" y2="97.3999"/></g><!--class CONSUMABLE_USE--><g class="entity" data-entity="CONSUMABLE_USE" data-source-line="12" data-uid="ent0004" id="entity_CONSUMABLE_USE"><rect fill="#F1F1F1" height="64.7999" rx="2.5" ry="2.5" style="stroke:#181818;stroke-width:0.5;" width="202.8893" x="295.31" y="215.8"/><ellipse cx="331.1908" cy="231.8" fill="#ADD1B2" rx="11" ry="11" style="stroke:#181818;stroke-width:1;"/><path d="M331.1908,238.2219 C332.3627,238.2219 333.5971,237.9562 334.9721,237.3469 L334.4877,235.8312 C333.3939,236.2531 332.3783,236.4406 331.5189,236.4406 C328.8002,236.4406 327.0814,234.5969 327.0814,231.6906 C327.0814,228.9406 328.6439,227.3469 331.3783,227.3469 C332.3002,227.3469 333.3158,227.5344 334.4564,227.9562 L335.0346,226.4406 C333.9408,225.8625 332.6439,225.5656 331.4564,225.5656 C327.6908,225.5656 325.1127,228.2062 325.1127,232.0187 C325.1127,235.6906 327.5971,238.2219 331.1908,238.2219 Z " fill="#000000"/><text fill="#000000" font-family="sans-serif" font-size="14" lengthAdjust="spacing" textLength="124.4875" x="349.831" y="237.162">CONSUMABLE_USE</text><line style="stroke:#181818;stroke-width:0.5;" x1="296.31" x2="497.1993" y1="247.8" y2="247.8"/><ellipse cx="306.31" cy="261.7" fill="none" rx="3" ry="3" style="stroke:#038048;stroke-width:1;"/><text fill="#000000" font-family="sans-serif" font-size="14" lengthAdjust="spacing" textLength="176.8893" x="315.31" y="265.5619">amount : DATA_VALUE [0..1]</text><line style="stroke:#181818;stroke-width:0.5;" x1="296.31" x2="497.1993" y1="272.5999" y2="272.5999"/></g><!--class RESOURCE_USAGE--><g class="entity" data-entity="RESOURCE_USAGE" data-source-line="16" data-uid="ent0005" id="entity_RESOURCE_USAGE"><rect fill="#F1F1F1" height="131.9996" rx="2.5" ry="2.5" style="stroke:#181818;stroke-width:0.5;" width="229.6152" x="422.95" y="7"/><ellipse cx="472.7058" cy="23" fill="#ADD1B2" rx="11" ry="11" style="stroke:#181818;stroke-width:1;"/><path d="M472.7058,29.4219 C473.8777,29.4219 475.1121,29.1563 476.4871,28.5469 L476.0027,27.0313 C474.909,27.4531 473.8933,27.6406 473.034,27.6406 C470.3152,27.6406 468.5965,25.7969 468.5965,22.8906 C468.5965,20.1406 470.159,18.5469 472.8933,18.5469 C473.8152,18.5469 474.8308,18.7344 475.9715,19.1563 L476.5496,17.6406 C475.4558,17.0625 474.159,16.7656 472.9715,16.7656 C469.2058,16.7656 466.6277,19.4063 466.6277,23.2188 C466.6277,26.8906 469.1121,29.4219 472.7058,29.4219 Z " fill="#000000"/><text fill="#000000" font-family="sans-serif" font-size="14" lengthAdjust="spacing" textLength="121.6035" x="493.2058" y="28.362">RESOURCE_USAGE</text><line style="stroke:#181818;stroke-width:0.5;" x1="423.95" x2="651.5652" y1="39" y2="39"/><ellipse cx="433.95" cy="52.9" fill="none" rx="3" ry="3" style="stroke:#038048;stroke-width:1;"/><text fill="#000000" font-family="sans-serif" font-size="14" lengthAdjust="spacing" textLength="203.6152" x="442.95" y="56.7619">prospective : RESOURCE_USE [1]</text><ellipse cx="433.95" cy="69.6999" fill="none" rx="3" ry="3" style="stroke:#038048;stroke-width:1;"/><text fill="#000000" font-family="sans-serif" font-size="14" lengthAdjust="spacing" textLength="169.0073" x="442.95" y="73.5619">actual : RESOURCE_USE [1]</text><ellipse cx="433.95" cy="86.4998" fill="none" rx="3" ry="3" style="stroke:#038048;stroke-width:1;"/><text fill="#000000" font-family="sans-serif" font-size="14" lengthAdjust="spacing" textLength="113.4695" x="442.95" y="90.3618">type : DV_TEXT [1]</text><ellipse cx="433.95" cy="103.2997" fill="none" rx="3" ry="3" style="stroke:#038048;stroke-width:1;"/><text fill="#000000" font-family="sans-serif" font-size="14" lengthAdjust="spacing" textLength="151.2414" x="442.95" y="107.1617">description : String [0..1]</text><ellipse cx="433.95" cy="120.0997" fill="none" rx="3" ry="3" style="stroke:#038048;stroke-width:1;"/><text fill="#000000" font-family="sans-serif" font-size="14" lengthAdjust="spacing" textLength="127.0915" x="442.95" y="123.9616">reference : Any [0..1]</text><line style="stroke:#181818;stroke-width:0.5;" x1="423.95" x2="651.5652" y1="130.9996" y2="130.9996"/></g><!--reverse link RESOURCE_USE to SERVICE_USE--><g class="link" data-entity-1="RESOURCE_USE" data-entity-2="SERVICE_USE" data-source-line="24" data-uid="lnk6" id="link_RESOURCE_USE_SERVICE_USE"><path codeLine="24" d="M229.8717,120.1261 C210.2217,146.1061 192.98,168.9 170.5,198.62" fill="none" id="RESOURCE_USE-backto-SERVICE_USE" style="stroke:#181818;stroke-width:1;"/><polygon fill="none" points="240.73,105.77,225.0864,116.5067,234.6571,123.7455,240.73,105.77" style="stroke:#181818;stroke-width:1;"/></g><!--reverse link RESOURCE_USE to CONSUMABLE_USE--><g class="link" data-entity-1="RESOURCE_USE" data-entity-2="CONSUMABLE_USE" data-source-line="25" data-uid="lnk7" id="link_RESOURCE_USE_CONSUMABLE_USE"><path codeLine="25" d="M299.8807,120.0863 C323.6207,151.2363 348.71,184.16 372.48,215.34" fill="none" id="RESOURCE_USE-backto-CONSUMABLE_USE" style="stroke:#181818;stroke-width:1;"/><polygon fill="none" points="288.97,105.77,295.1086,123.7232,304.6528,116.4494,288.97,105.77" style="stroke:#181818;stroke-width:1;"/></g></g></svg>
