<svg xmlns="http://www.w3.org/2000/svg" xmlns:xlink="http://www.w3.org/1999/xlink" contentStyleType="text/css" data-diagram-type="CLASS" height="405px" preserveAspectRatio="none" style="width:1726px;height:405px;background:#FFFFFF;" version="1.1" viewBox="0 0 1726 405" width="1726px" zoomAndPan="magnify"><defs/><g><!--class OPENEHR_TERMINOLOGY_GROUP_IDENTIFIERS--><g class="entity" data-entity="OPENEHR_TERMINOLOGY_GROUP_IDENTIFIERS" data-source-line="2" data-uid="ent0002" id="entity_OPENEHR_TERMINOLOGY_GROUP_IDENTIFIERS"><rect fill="#F1F1F1" height="64.7999" rx="2.5" ry="2.5" style="stroke:#181818;stroke-width:0.5;" width="407.9886" x="7" y="49"/><ellipse cx="51.597" cy="65" fill="#ADD1B2" rx="11" ry="11" style="stroke:#181818;stroke-width:1;"/><path d="M51.597,71.4219 C52.7688,71.4219 54.0032,71.1563 55.3782,70.5469 L54.8938,69.0313 C53.8001,69.4531 52.7845,69.6406 51.9251,69.6406 C49.2063,69.6406 47.4876,67.7969 47.4876,64.8906 C47.4876,62.1406 49.0501,60.5469 51.7845,60.5469 C52.7063,60.5469 53.722,60.7344 54.8626,61.1563 L55.4407,59.6406 C54.347,59.0625 53.0501,58.7656 51.8626,58.7656 C48.097,58.7656 45.5188,61.4063 45.5188,65.2188 C45.5188,68.8906 48.0032,71.4219 51.597,71.4219 Z " fill="#000000"/><text fill="#000000" font-family="sans-serif" font-size="14" lengthAdjust="spacing" textLength="310.2947" x="72.097" y="70.362">OPENEHR_TERMINOLOGY_GROUP_IDENTIFIERS</text><line style="stroke:#181818;stroke-width:0.5;" x1="8" x2="413.9886" y1="81" y2="81"/><line style="stroke:#181818;stroke-width:0.5;" x1="8" x2="413.9886" y1="89" y2="89"/><ellipse cx="18" cy="102.9" fill="#84BE84" rx="3" ry="3" style="stroke:#038048;stroke-width:1;"/><text fill="#000000" font-family="sans-serif" font-size="14" lengthAdjust="spacing" textLength="381.9886" x="27" y="106.7619">valid_terminology_group_id( an_id : Boolean [1] ) : Boolean [1]</text></g><!--class OPENEHR_CODE_SET_IDENTIFIERS--><g class="entity" data-entity="OPENEHR_CODE_SET_IDENTIFIERS" data-source-line="6" data-uid="ent0003" id="entity_OPENEHR_CODE_SET_IDENTIFIERS"><rect fill="#F1F1F1" height="64.7999" rx="2.5" ry="2.5" style="stroke:#181818;stroke-width:0.5;" width="330.1488" x="449.92" y="49"/><ellipse cx="497.0369" cy="65" fill="#ADD1B2" rx="11" ry="11" style="stroke:#181818;stroke-width:1;"/><path d="M497.0369,71.4219 C498.2087,71.4219 499.4431,71.1563 500.8181,70.5469 L500.3337,69.0313 C499.24,69.4531 498.2244,69.6406 497.365,69.6406 C494.6462,69.6406 492.9275,67.7969 492.9275,64.8906 C492.9275,62.1406 494.49,60.5469 497.2244,60.5469 C498.1462,60.5469 499.1619,60.7344 500.3025,61.1563 L500.8806,59.6406 C499.7869,59.0625 498.49,58.7656 497.3025,58.7656 C493.5369,58.7656 490.9587,61.4063 490.9587,65.2188 C490.9587,68.8906 493.4431,71.4219 497.0369,71.4219 Z " fill="#000000"/><text fill="#000000" font-family="sans-serif" font-size="14" lengthAdjust="spacing" textLength="227.4151" x="517.5369" y="70.362">OPENEHR_CODE_SET_IDENTIFIERS</text><line style="stroke:#181818;stroke-width:0.5;" x1="450.92" x2="779.0688" y1="81" y2="81"/><line style="stroke:#181818;stroke-width:0.5;" x1="450.92" x2="779.0688" y1="89" y2="89"/><ellipse cx="460.92" cy="102.9" fill="#84BE84" rx="3" ry="3" style="stroke:#038048;stroke-width:1;"/><text fill="#000000" font-family="sans-serif" font-size="14" lengthAdjust="spacing" textLength="304.1488" x="469.92" y="106.7619">valid_code_set_id( an_id : String [1] ) : Boolean [1]</text></g><!--class TERMINOLOGY_SERVICE--><g class="entity" data-entity="TERMINOLOGY_SERVICE" data-source-line="10" data-uid="ent0004" id="entity_TERMINOLOGY_SERVICE"><rect fill="#F1F1F1" height="182.3994" rx="2.5" ry="2.5" style="stroke:#181818;stroke-width:0.5;" width="401.0165" x="212.49" y="215.8"/><ellipse cx="329.4876" cy="231.8" fill="#ADD1B2" rx="11" ry="11" style="stroke:#181818;stroke-width:1;"/><path d="M329.4876,238.2219 C330.6595,238.2219 331.8938,237.9562 333.2688,237.3469 L332.7845,235.8312 C331.6907,236.2531 330.6751,236.4406 329.8157,236.4406 C327.097,236.4406 325.3782,234.5969 325.3782,231.6906 C325.3782,228.9406 326.9407,227.3469 329.6751,227.3469 C330.597,227.3469 331.6126,227.5344 332.7532,227.9562 L333.3313,226.4406 C332.2376,225.8625 330.9407,225.5656 329.7532,225.5656 C325.9876,225.5656 323.4095,228.2062 323.4095,232.0187 C323.4095,235.6906 325.8938,238.2219 329.4876,238.2219 Z " fill="#000000"/><text fill="#000000" font-family="sans-serif" font-size="14" lengthAdjust="spacing" textLength="158.5214" x="349.9876" y="237.162">TERMINOLOGY_SERVICE</text><line style="stroke:#181818;stroke-width:0.5;" x1="213.49" x2="612.5065" y1="247.8" y2="247.8"/><line style="stroke:#181818;stroke-width:0.5;" x1="213.49" x2="612.5065" y1="255.8" y2="255.8"/><ellipse cx="223.49" cy="269.7" fill="#84BE84" rx="3" ry="3" style="stroke:#038048;stroke-width:1;"/><text fill="#000000" font-family="sans-serif" font-size="14" lengthAdjust="spacing" textLength="375.0165" x="232.49" y="273.5619">terminology( name : String [1] ) : TERMINOLOGY_ACCESS [1]</text><ellipse cx="223.49" cy="286.4999" fill="#84BE84" rx="3" ry="3" style="stroke:#038048;stroke-width:1;"/><text fill="#000000" font-family="sans-serif" font-size="14" lengthAdjust="spacing" textLength="325.9327" x="232.49" y="290.3619">code_set( name : String [1] ) : CODE_SET_ACCESS [1]</text><ellipse cx="223.49" cy="303.2998" fill="#84BE84" rx="3" ry="3" style="stroke:#038048;stroke-width:1;"/><text fill="#000000" font-family="sans-serif" font-size="14" lengthAdjust="spacing" textLength="345.8546" x="232.49" y="307.1618">code_set_for_id( id : String [1] ) : CODE_SET_ACCESS [1]</text><ellipse cx="223.49" cy="320.0997" fill="#84BE84" rx="3" ry="3" style="stroke:#038048;stroke-width:1;"/><text fill="#000000" font-family="sans-serif" font-size="14" lengthAdjust="spacing" textLength="299.6829" x="232.49" y="323.9617">has_terminology( name : String [1] ) : Boolean [1]</text><ellipse cx="223.49" cy="336.8997" fill="#84BE84" rx="3" ry="3" style="stroke:#038048;stroke-width:1;"/><text fill="#000000" font-family="sans-serif" font-size="14" lengthAdjust="spacing" textLength="279.4949" x="232.49" y="340.7616">has_code_set( name : String [1] ) : Boolean [1]</text><ellipse cx="223.49" cy="353.6996" fill="#84BE84" rx="3" ry="3" style="stroke:#038048;stroke-width:1;"/><text fill="#000000" font-family="sans-serif" font-size="14" lengthAdjust="spacing" textLength="258.971" x="232.49" y="357.5616">terminology_identifiers() : List&lt;String&gt; [*]</text><ellipse cx="223.49" cy="370.4995" fill="#84BE84" rx="3" ry="3" style="stroke:#038048;stroke-width:1;"/><text fill="#000000" font-family="sans-serif" font-size="14" lengthAdjust="spacing" textLength="284.5209" x="232.49" y="374.3615">openehr_code_sets() : Hash&lt;String,String&gt; [1]</text><ellipse cx="223.49" cy="387.2995" fill="#84BE84" rx="3" ry="3" style="stroke:#038048;stroke-width:1;"/><text fill="#000000" font-family="sans-serif" font-size="14" lengthAdjust="spacing" textLength="238.7831" x="232.49" y="391.1614">code_set_identifiers() : List&lt;String&gt; [*]</text></g><!--class CODE_SET_ACCESS--><g class="entity" data-entity="CODE_SET_ACCESS" data-source-line="21" data-uid="ent0005" id="entity_CODE_SET_ACCESS"><rect fill="#F1F1F1" height="115.1997" rx="2.5" ry="2.5" style="stroke:#181818;stroke-width:0.5;" width="288.667" x="814.66" y="23.8"/><ellipse cx="891.6807" cy="39.8" fill="#B4A7E5" rx="11" ry="11" style="stroke:#181818;stroke-width:1;"/><path d="M890.2432,46.3 L892.1807,46.3 L892.1807,33.9719 L890.2432,33.9719 L890.2432,46.3 Z " fill="#000000"/><text fill="#000000" font-family="sans-serif" font-size="14" font-style="italic" lengthAdjust="spacing" textLength="126.1255" x="912.1807" y="45.162">CODE_SET_ACCESS</text><line style="stroke:#181818;stroke-width:0.5;" x1="815.66" x2="1102.327" y1="55.8" y2="55.8"/><line style="stroke:#181818;stroke-width:0.5;" x1="815.66" x2="1102.327" y1="63.8" y2="63.8"/><ellipse cx="825.66" cy="77.7" fill="#84BE84" rx="3" ry="3" style="stroke:#038048;stroke-width:1;"/><text fill="#000000" font-family="sans-serif" font-size="14" lengthAdjust="spacing" textLength="85.8337" x="834.66" y="81.5619">id() : String [1]</text><ellipse cx="825.66" cy="94.4999" fill="#84BE84" rx="3" ry="3" style="stroke:#038048;stroke-width:1;"/><text fill="#000000" font-family="sans-serif" font-size="14" lengthAdjust="spacing" textLength="230.7471" x="834.66" y="98.3619">all_codes() : List&lt;CODE_PHRASE&gt; [*]</text><ellipse cx="825.66" cy="111.2998" fill="#84BE84" rx="3" ry="3" style="stroke:#038048;stroke-width:1;"/><text fill="#000000" font-family="sans-serif" font-size="14" lengthAdjust="spacing" textLength="256.927" x="834.66" y="115.1618">has_lang( a_lang : String [1] ) : Boolean [1]</text><ellipse cx="825.66" cy="128.0997" fill="#84BE84" rx="3" ry="3" style="stroke:#038048;stroke-width:1;"/><text fill="#000000" font-family="sans-serif" font-size="14" lengthAdjust="spacing" textLength="262.667" x="834.66" y="131.9617">has_code( a_code : String [1] ) : Boolean [1]</text></g><!--class TERMINOLOGY_ACCESS--><g class="entity" data-entity="TERMINOLOGY_ACCESS" data-source-line="28" data-uid="ent0006" id="entity_TERMINOLOGY_ACCESS"><rect fill="#F1F1F1" height="148.7996" rx="2.5" ry="2.5" style="stroke:#181818;stroke-width:0.5;" width="580.6778" x="1138.66" y="7"/><ellipse cx="1347.2382" cy="23" fill="#B4A7E5" rx="11" ry="11" style="stroke:#181818;stroke-width:1;"/><path d="M1345.8007,29.5 L1347.7382,29.5 L1347.7382,17.1719 L1345.8007,17.1719 L1345.8007,29.5 Z " fill="#000000"/><text fill="#000000" font-family="sans-serif" font-size="14" font-style="italic" lengthAdjust="spacing" textLength="155.0214" x="1367.7382" y="28.362">TERMINOLOGY_ACCESS</text><line style="stroke:#181818;stroke-width:0.5;" x1="1139.66" x2="1718.3378" y1="39" y2="39"/><line style="stroke:#181818;stroke-width:0.5;" x1="1139.66" x2="1718.3378" y1="47" y2="47"/><ellipse cx="1149.66" cy="60.9" fill="#84BE84" rx="3" ry="3" style="stroke:#038048;stroke-width:1;"/><text fill="#000000" font-family="sans-serif" font-size="14" lengthAdjust="spacing" textLength="85.8337" x="1158.66" y="64.7619">id() : String [1]</text><ellipse cx="1149.66" cy="77.6999" fill="#84BE84" rx="3" ry="3" style="stroke:#038048;stroke-width:1;"/><text fill="#000000" font-family="sans-serif" font-size="14" lengthAdjust="spacing" textLength="191.7852" x="1158.66" y="81.5619">all_codes() : CODE_PHRASE [1]</text><ellipse cx="1149.66" cy="94.4998" fill="#84BE84" rx="3" ry="3" style="stroke:#038048;stroke-width:1;"/><text fill="#000000" font-family="sans-serif" font-size="14" lengthAdjust="spacing" textLength="437.9323" x="1158.66" y="98.3618">codes_for_group_id( a_group_id : String [1] ) : List&lt;CODE_PHRASE&gt; [*]</text><ellipse cx="1149.66" cy="111.2997" fill="#84BE84" rx="3" ry="3" style="stroke:#038048;stroke-width:1;"/><text fill="#000000" font-family="sans-serif" font-size="14" lengthAdjust="spacing" textLength="554.6778" x="1158.66" y="115.1617">codes_for_group_name( a_lang : String [1], a_name : String [1] ) : List&lt;CODE_PHRASE&gt; [*]</text><ellipse cx="1149.66" cy="128.0997" fill="#84BE84" rx="3" ry="3" style="stroke:#038048;stroke-width:1;"/><text fill="#000000" font-family="sans-serif" font-size="14" lengthAdjust="spacing" textLength="233.9111" x="1158.66" y="131.9616">has_code_for_group_id() : Boolean [1]</text><ellipse cx="1149.66" cy="144.8996" fill="#84BE84" rx="3" ry="3" style="stroke:#038048;stroke-width:1;"/><text fill="#000000" font-family="sans-serif" font-size="14" lengthAdjust="spacing" textLength="288.7209" x="1158.66" y="148.7616">rubric_for_code( a_code : String [1] ) : String [1]</text></g><!--reverse link OPENEHR_TERMINOLOGY_GROUP_IDENTIFIERS to TERMINOLOGY_SERVICE--><g class="link" data-entity-1="OPENEHR_TERMINOLOGY_GROUP_IDENTIFIERS" data-entity-2="TERMINOLOGY_SERVICE" data-source-line="37" data-uid="lnk7" id="link_OPENEHR_TERMINOLOGY_GROUP_IDENTIFIERS_TERMINOLOGY_SERVICE"><path codeLine="37" d="M251.5734,127.3195 C275.4934,153.8095 298.83,179.63 331.42,215.7" fill="none" id="OPENEHR_TERMINOLOGY_GROUP_IDENTIFIERS-backto-TERMINOLOGY_SERVICE" style="stroke:#181818;stroke-width:1;"/><polygon fill="none" points="239.51,113.96,247.1202,131.3406,256.0265,123.2983,239.51,113.96" style="stroke:#181818;stroke-width:1;"/></g><!--reverse link OPENEHR_CODE_SET_IDENTIFIERS to TERMINOLOGY_SERVICE--><g class="link" data-entity-1="OPENEHR_CODE_SET_IDENTIFIERS" data-entity-2="TERMINOLOGY_SERVICE" data-source-line="38" data-uid="lnk8" id="link_OPENEHR_CODE_SET_IDENTIFIERS_TERMINOLOGY_SERVICE"><path codeLine="38" d="M574.4166,127.3195 C550.4966,153.8095 527.16,179.63 494.57,215.7" fill="none" id="OPENEHR_CODE_SET_IDENTIFIERS-backto-TERMINOLOGY_SERVICE" style="stroke:#181818;stroke-width:1;"/><polygon fill="none" points="586.48,113.96,569.9635,123.2983,578.8698,131.3406,586.48,113.96" style="stroke:#181818;stroke-width:1;"/></g></g></svg>
