<svg xmlns="http://www.w3.org/2000/svg" xmlns:xlink="http://www.w3.org/1999/xlink" contentStyleType="text/css" data-diagram-type="CLASS" height="152px" preserveAspectRatio="none" style="width:215px;height:152px;background:#FFFFFF;" version="1.1" viewBox="0 0 215 152" width="215px" zoomAndPan="magnify"><defs/><g><!--class ITEM_TAG--><g class="entity" data-entity="ITEM_TAG" data-source-line="2" data-uid="ent0002" id="entity_ITEM_TAG"><rect fill="#F1F1F1" height="131.9996" rx="2.5" ry="2.5" style="stroke:#181818;stroke-width:0.5;" width="194.3773" x="7" y="7"/><ellipse cx="67.1578" cy="23" fill="#ADD1B2" rx="11" ry="11" style="stroke:#181818;stroke-width:1;"/><path d="M67.1578,29.4219 C68.3297,29.4219 69.564,29.1563 70.939,28.5469 L70.4547,27.0313 C69.3609,27.4531 68.3453,27.6406 67.4859,27.6406 C64.7672,27.6406 63.0484,25.7969 63.0484,22.8906 C63.0484,20.1406 64.6109,18.5469 67.3453,18.5469 C68.2672,18.5469 69.2828,18.7344 70.4234,19.1563 L71.0015,17.6406 C69.9078,17.0625 68.6109,16.7656 67.4234,16.7656 C63.6578,16.7656 61.0797,19.4063 61.0797,23.2188 C61.0797,26.8906 63.564,29.4219 67.1578,29.4219 Z " fill="#000000"/><text fill="#000000" font-family="sans-serif" font-size="14" lengthAdjust="spacing" textLength="65.5617" x="87.6578" y="28.362">ITEM_TAG</text><line style="stroke:#181818;stroke-width:0.5;" x1="8" x2="200.3773" y1="39" y2="39"/><ellipse cx="18" cy="52.9" fill="none" rx="3" ry="3" style="stroke:#038048;stroke-width:1;"/><text fill="#000000" font-family="sans-serif" font-size="14" lengthAdjust="spacing" textLength="160.7054" x="27" y="56.7619">target : UID_BASED_ID [1]</text><ellipse cx="18" cy="69.6999" fill="none" rx="3" ry="3" style="stroke:#038048;stroke-width:1;"/><text fill="#000000" font-family="sans-serif" font-size="14" lengthAdjust="spacing" textLength="154.8254" x="27" y="73.5619">target_path : String [0..1]</text><ellipse cx="18" cy="86.4998" fill="none" rx="3" ry="3" style="stroke:#038048;stroke-width:1;"/><text fill="#000000" font-family="sans-serif" font-size="14" lengthAdjust="spacing" textLength="87.0657" x="27" y="90.3618">key : String [1]</text><ellipse cx="18" cy="103.2997" fill="none" rx="3" ry="3" style="stroke:#038048;stroke-width:1;"/><text fill="#000000" font-family="sans-serif" font-size="14" lengthAdjust="spacing" textLength="114.7295" x="27" y="107.1617">value : String [0..1]</text><ellipse cx="18" cy="120.0997" fill="none" rx="3" ry="3" style="stroke:#038048;stroke-width:1;"/><text fill="#000000" font-family="sans-serif" font-size="14" lengthAdjust="spacing" textLength="168.3773" x="27" y="123.9616">owner_id : OBJECT_REF [1]</text><line style="stroke:#181818;stroke-width:0.5;" x1="8" x2="200.3773" y1="130.9996" y2="130.9996"/></g></g></svg>
