<svg xmlns="http://www.w3.org/2000/svg" xmlns:xlink="http://www.w3.org/1999/xlink" contentStyleType="text/css" data-diagram-type="CLASS" height="921px" preserveAspectRatio="none" style="width:342px;height:921px;background:#FFFFFF;" version="1.1" viewBox="0 0 342 921" width="342px" zoomAndPan="magnify"><defs/><g><!--class CITATION--><g class="entity" data-entity="CITATION" data-source-line="2" data-uid="ent0002" id="entity_CITATION"><rect fill="#F1F1F1" height="115.1997" rx="2.5" ry="2.5" style="stroke:#181818;stroke-width:0.5;" width="276.277" x="33.35" y="799"/><ellipse cx="131.0736" cy="815" fill="#ADD1B2" rx="11" ry="11" style="stroke:#181818;stroke-width:1;"/><path d="M131.0736,821.4219 C132.2455,821.4219 133.4799,821.1563 134.8549,820.5469 L134.3705,819.0313 C133.2767,819.4531 132.2611,819.6406 131.4017,819.6406 C128.683,819.6406 126.9642,817.7969 126.9642,814.8906 C126.9642,812.1406 128.5267,810.5469 131.2611,810.5469 C132.183,810.5469 133.1986,810.7344 134.3392,811.1563 L134.9174,809.6406 C133.8236,809.0625 132.5267,808.7656 131.3392,808.7656 C127.5736,808.7656 124.9955,811.4063 124.9955,815.2188 C124.9955,818.8906 127.4799,821.4219 131.0736,821.4219 Z " fill="#000000"/><text fill="#000000" font-family="sans-serif" font-size="14" lengthAdjust="spacing" textLength="62.2578" x="151.5736" y="820.362">CITATION</text><rect fill="#FFFFFF" height="16.4001" style="stroke:#181818;stroke-width:1;stroke-dasharray:2,2;" width="8.072" x="304.555" y="796"/><text fill="#000000" font-family="sans-serif" font-size="12" font-style="italic" lengthAdjust="spacing" textLength="6.072" x="305.555" y="808.7961">L</text><line style="stroke:#181818;stroke-width:0.5;" x1="34.35" x2="308.627" y1="831" y2="831"/><ellipse cx="44.35" cy="844.9" fill="none" rx="3" ry="3" style="stroke:#038048;stroke-width:1;"/><text fill="#000000" font-family="sans-serif" font-size="14" lengthAdjust="spacing" textLength="157.3594" x="53.35" y="848.7619">source_type : String [0..1]</text><ellipse cx="44.35" cy="861.6999" fill="none" rx="3" ry="3" style="stroke:#038048;stroke-width:1;"/><text fill="#000000" font-family="sans-serif" font-size="14" lengthAdjust="spacing" textLength="202.4532" x="53.35" y="865.5619">source_ref : LOCATABLE_REF [1]</text><ellipse cx="44.35" cy="878.4998" fill="none" rx="3" ry="3" style="stroke:#038048;stroke-width:1;"/><text fill="#000000" font-family="sans-serif" font-size="14" lengthAdjust="spacing" textLength="250.277" x="53.35" y="882.3618">source_parent_ref : LOCATABLE_REF [1]</text><ellipse cx="44.35" cy="895.2997" fill="none" rx="3" ry="3" style="stroke:#038048;stroke-width:1;"/><text fill="#000000" font-family="sans-serif" font-size="14" lengthAdjust="spacing" textLength="88.7176" x="53.35" y="899.1617">resolved : L [1]</text><line style="stroke:#181818;stroke-width:0.5;" x1="34.35" x2="308.627" y1="906.1997" y2="906.1997"/></g><!--class VIEW_ENTRY--><g class="entity" data-entity="VIEW_ENTRY" data-source-line="9" data-uid="ent0003" id="entity_VIEW_ENTRY"><rect fill="#F5F5F5" height="48" rx="2.5" ry="2.5" style="stroke:#808080;stroke-width:1;stroke-dasharray:1,3;" width="116.4756" x="113.26" y="691"/><ellipse cx="128.26" cy="707" fill="#A9DCDF" rx="11" ry="11" style="stroke:#181818;stroke-width:1;"/><path d="M122.7756,712.5 L124.8069,712.5 L128.8538,701.1563 L127.9475,701.1563 L131.7756,712.5 L133.9163,712.5 L129.5881,700.1719 L127.3694,700.1719 L122.7756,712.5 Z M125.1037,709 L131.5413,709 L131.5413,707.25 L125.1037,707.25 L125.1037,709 Z " fill="#000000"/><text fill="#808080" font-family="sans-serif" font-size="14" font-style="italic" lengthAdjust="spacing" textLength="84.4756" x="142.26" y="712.362">VIEW_ENTRY</text><line style="stroke:#808080;stroke-width:1;stroke-dasharray:1,3;" x1="114.26" x2="228.7356" y1="723" y2="723"/><line style="stroke:#808080;stroke-width:1;stroke-dasharray:1,3;" x1="114.26" x2="228.7356" y1="731" y2="731"/></g><!--class VIEW_ITEM--><g class="entity" data-entity="VIEW_ITEM" data-source-line="12" data-uid="ent0004" id="entity_VIEW_ITEM"><rect fill="#F5F5F5" height="64.7999" rx="2.5" ry="2.5" style="stroke:#808080;stroke-width:1;stroke-dasharray:1,3;" width="194.7273" x="74.13" y="566.2"/><ellipse cx="130.7738" cy="582.2" fill="#A9DCDF" rx="11" ry="11" style="stroke:#181818;stroke-width:1;"/><path d="M125.2894,587.7 L127.3207,587.7 L131.3675,576.3563 L130.4613,576.3563 L134.2894,587.7 L136.43,587.7 L132.1019,575.3719 L129.8832,575.3719 L125.2894,587.7 Z M127.6175,584.2 L134.055,584.2 L134.055,582.45 L127.6175,582.45 L127.6175,584.2 Z " fill="#000000"/><text fill="#808080" font-family="sans-serif" font-size="14" font-style="italic" lengthAdjust="spacing" textLength="72.9397" x="151.2738" y="587.562">VIEW_ITEM</text><line style="stroke:#808080;stroke-width:1;stroke-dasharray:1,3;" x1="75.13" x2="267.8573" y1="598.2" y2="598.2"/><ellipse cx="85.13" cy="612.1" fill="none" rx="3" ry="3" style="stroke:#038048;stroke-width:1;"/><text fill="#808080" font-family="sans-serif" font-size="14" lengthAdjust="spacing" textLength="168.7273" x="94.13" y="615.9619">meta_data : CLUSTER [0..1]</text><line style="stroke:#808080;stroke-width:1;stroke-dasharray:1,3;" x1="75.13" x2="267.8573" y1="622.9999" y2="622.9999"/></g><!--class CONTENT_ITEM--><g class="entity" data-entity="CONTENT_ITEM" data-source-line="16" data-uid="ent0005" id="entity_CONTENT_ITEM"><rect fill="#F5F5F5" height="48" rx="2.5" ry="2.5" style="stroke:#808080;stroke-width:1;stroke-dasharray:1,3;" width="135.5576" x="103.71" y="458.2"/><ellipse cx="118.71" cy="474.2" fill="#A9DCDF" rx="11" ry="11" style="stroke:#181818;stroke-width:1;"/><path d="M113.2256,479.7 L115.2569,479.7 L119.3038,468.3563 L118.3975,468.3563 L122.2256,479.7 L124.3663,479.7 L120.0381,467.3719 L117.8194,467.3719 L113.2256,479.7 Z M115.5538,476.2 L121.9913,476.2 L121.9913,474.45 L115.5538,474.45 L115.5538,476.2 Z " fill="#000000"/><text fill="#808080" font-family="sans-serif" font-size="14" font-style="italic" lengthAdjust="spacing" textLength="103.5576" x="132.71" y="479.562">CONTENT_ITEM</text><line style="stroke:#808080;stroke-width:1;stroke-dasharray:1,3;" x1="104.71" x2="238.2676" y1="490.2" y2="490.2"/><line style="stroke:#808080;stroke-width:1;stroke-dasharray:1,3;" x1="104.71" x2="238.2676" y1="498.2" y2="498.2"/></g><!--class LOCATABLE--><g class="entity" data-entity="LOCATABLE" data-source-line="19" data-uid="ent0006" id="entity_LOCATABLE"><rect fill="#F5F5F5" height="182.3994" rx="2.5" ry="2.5" style="stroke:#808080;stroke-width:1;stroke-dasharray:1,3;" width="267.387" x="37.8" y="215.8"/><ellipse cx="129.1007" cy="231.8" fill="#A9DCDF" rx="11" ry="11" style="stroke:#181818;stroke-width:1;"/><path d="M123.6163,237.3 L125.6475,237.3 L129.6944,225.9563 L128.7882,225.9563 L132.6163,237.3 L134.7569,237.3 L130.4288,224.9719 L128.21,224.9719 L123.6163,237.3 Z M125.9444,233.8 L132.3819,233.8 L132.3819,232.05 L125.9444,232.05 L125.9444,233.8 Z " fill="#000000"/><text fill="#808080" font-family="sans-serif" font-size="14" font-style="italic" lengthAdjust="spacing" textLength="76.2857" x="149.6007" y="237.162">LOCATABLE</text><line style="stroke:#808080;stroke-width:1;stroke-dasharray:1,3;" x1="38.8" x2="304.187" y1="247.8" y2="247.8"/><ellipse cx="48.8" cy="261.7" fill="none" rx="3" ry="3" style="stroke:#038048;stroke-width:1;"/><text fill="#808080" font-family="sans-serif" font-size="14" lengthAdjust="spacing" textLength="121.2115" x="57.8" y="265.5619">name : DV_TEXT [1]</text><ellipse cx="48.8" cy="278.4999" fill="none" rx="3" ry="3" style="stroke:#038048;stroke-width:1;"/><text fill="#808080" font-family="sans-serif" font-size="14" lengthAdjust="spacing" textLength="184.1273" x="57.8" y="282.3619">archetype_node_id : String [1]</text><ellipse cx="48.8" cy="295.2998" fill="none" rx="3" ry="3" style="stroke:#038048;stroke-width:1;"/><text fill="#808080" font-family="sans-serif" font-size="14" lengthAdjust="spacing" textLength="157.7794" x="57.8" y="299.1618">uid : UID_BASED_ID [0..1]</text><ellipse cx="48.8" cy="312.0997" fill="none" rx="3" ry="3" style="stroke:#038048;stroke-width:1;"/><text fill="#808080" font-family="sans-serif" font-size="14" lengthAdjust="spacing" textLength="126.0835" x="57.8" y="315.9617">links : List&lt;LINK&gt; [*]</text><ellipse cx="48.8" cy="328.8997" fill="none" rx="3" ry="3" style="stroke:#038048;stroke-width:1;"/><text fill="#808080" font-family="sans-serif" font-size="14" lengthAdjust="spacing" textLength="241.387" x="57.8" y="332.7616">archetype_details : ARCHETYPED [0..1]</text><ellipse cx="48.8" cy="345.6996" fill="none" rx="3" ry="3" style="stroke:#038048;stroke-width:1;"/><text fill="#808080" font-family="sans-serif" font-size="14" lengthAdjust="spacing" textLength="220.7791" x="57.8" y="349.5616">feeder_audit : FEEDER_AUDIT [0..1]</text><line style="stroke:#808080;stroke-width:1;stroke-dasharray:1,3;" x1="38.8" x2="304.187" y1="356.5996" y2="356.5996"/><ellipse cx="48.8" cy="370.4995" fill="#84BE84" rx="3" ry="3" style="stroke:#038048;stroke-width:1;"/><text fill="#808080" font-family="sans-serif" font-size="14" lengthAdjust="spacing" textLength="144.1295" x="57.8" y="374.3615">concept() : DV_TEXT [1]</text><ellipse cx="48.8" cy="387.2995" fill="#84BE84" rx="3" ry="3" style="stroke:#038048;stroke-width:1;"/><text fill="#808080" font-family="sans-serif" font-size="14" lengthAdjust="spacing" textLength="199.6812" x="57.8" y="391.1614">is_archetype_root() : Boolean [1]</text></g><!--class PATHABLE--><g class="entity" data-entity="PATHABLE" data-source-line="30" data-uid="ent0007" id="entity_PATHABLE"><rect fill="#F5F5F5" height="148.7996" rx="2.5" ry="2.5" style="stroke:#808080;stroke-width:1;stroke-dasharray:1,3;" width="328.9868" x="7" y="7"/><ellipse cx="133.3006" cy="23" fill="#A9DCDF" rx="11" ry="11" style="stroke:#181818;stroke-width:1;"/><path d="M127.8162,28.5 L129.8474,28.5 L133.8943,17.1563 L132.9881,17.1563 L136.8162,28.5 L138.9568,28.5 L134.6287,16.1719 L132.4099,16.1719 L127.8162,28.5 Z M130.1443,25 L136.5818,25 L136.5818,23.25 L130.1443,23.25 L130.1443,25 Z " fill="#000000"/><text fill="#808080" font-family="sans-serif" font-size="14" font-style="italic" lengthAdjust="spacing" textLength="67.8857" x="153.8006" y="28.362">PATHABLE</text><line style="stroke:#808080;stroke-width:1;stroke-dasharray:1,3;" x1="8" x2="334.9868" y1="39" y2="39"/><line style="stroke:#808080;stroke-width:1;stroke-dasharray:1,3;" x1="8" x2="334.9868" y1="47" y2="47"/><ellipse cx="18" cy="60.9" fill="#84BE84" rx="3" ry="3" style="stroke:#038048;stroke-width:1;"/><text fill="#808080" font-family="sans-serif" font-size="14" lengthAdjust="spacing" textLength="145.6834" x="27" y="64.7619">parent() : PATHABLE [1]</text><ellipse cx="18" cy="77.6999" fill="#84BE84" rx="3" ry="3" style="stroke:#038048;stroke-width:1;"/><text fill="#808080" font-family="sans-serif" font-size="14" lengthAdjust="spacing" textLength="257.529" x="27" y="81.5619">item_at_path( a_path : String [1] ) : Any [1]</text><ellipse cx="18" cy="94.4998" fill="#84BE84" rx="3" ry="3" style="stroke:#038048;stroke-width:1;"/><text fill="#808080" font-family="sans-serif" font-size="14" lengthAdjust="spacing" textLength="302.9868" x="27" y="98.3618">items_at_path( a_path : String [1] ) : List&lt;Any&gt; [*]</text><ellipse cx="18" cy="111.2997" fill="#84BE84" rx="3" ry="3" style="stroke:#038048;stroke-width:1;"/><text fill="#808080" font-family="sans-serif" font-size="14" lengthAdjust="spacing" textLength="273.1249" x="27" y="115.1617">path_exists( a_path : String [1] ) : Boolean [1]</text><ellipse cx="18" cy="128.0997" fill="#84BE84" rx="3" ry="3" style="stroke:#038048;stroke-width:1;"/><text fill="#808080" font-family="sans-serif" font-size="14" lengthAdjust="spacing" textLength="280.0549" x="27" y="131.9616">path_unique( a_path : String [1] ) : Boolean [1]</text><ellipse cx="18" cy="144.8996" fill="#84BE84" rx="3" ry="3" style="stroke:#038048;stroke-width:1;"/><text fill="#808080" font-family="sans-serif" font-size="14" lengthAdjust="spacing" textLength="292.6829" x="27" y="148.7616">path_of_item( a_loc : PATHABLE [1] ) : String [1]</text></g><!--reverse link PATHABLE to LOCATABLE--><g class="link" data-entity-1="PATHABLE" data-entity-2="LOCATABLE" data-source-line="39" data-uid="lnk8" id="link_PATHABLE_LOCATABLE"><path codeLine="39" d="M171.49,174.24 C171.49,193.19 171.49,195.8 171.49,215.49" fill="none" id="PATHABLE-backto-LOCATABLE" style="stroke:#181818;stroke-width:1;"/><polygon fill="none" points="171.49,156.24,165.49,174.24,177.49,174.24,171.49,156.24" style="stroke:#181818;stroke-width:1;"/></g><!--reverse link LOCATABLE to CONTENT_ITEM--><g class="link" data-entity-1="LOCATABLE" data-entity-2="CONTENT_ITEM" data-source-line="41" data-uid="lnk9" id="link_LOCATABLE_CONTENT_ITEM"><path codeLine="41" d="M171.49,416.66 C171.49,438.59 171.49,442.18 171.49,457.77" fill="none" id="LOCATABLE-backto-CONTENT_ITEM" style="stroke:#181818;stroke-width:1;"/><polygon fill="none" points="171.49,398.66,165.49,416.66,177.49,416.66,171.49,398.66" style="stroke:#181818;stroke-width:1;"/></g><!--reverse link CONTENT_ITEM to VIEW_ITEM--><g class="link" data-entity-1="CONTENT_ITEM" data-entity-2="VIEW_ITEM" data-source-line="43" data-uid="lnk10" id="link_CONTENT_ITEM_VIEW_ITEM"><path codeLine="43" d="M171.49,524.63 C171.49,541.75 171.49,547.17 171.49,565.96" fill="none" id="CONTENT_ITEM-backto-VIEW_ITEM" style="stroke:#181818;stroke-width:1;"/><polygon fill="none" points="171.49,506.63,165.49,524.63,177.49,524.63,171.49,506.63" style="stroke:#181818;stroke-width:1;"/></g><!--reverse link VIEW_ITEM to VIEW_ENTRY--><g class="link" data-entity-1="VIEW_ITEM" data-entity-2="VIEW_ENTRY" data-source-line="45" data-uid="lnk11" id="link_VIEW_ITEM_VIEW_ENTRY"><path codeLine="45" d="M171.49,649.47 C171.49,668.24 171.49,673.58 171.49,690.65" fill="none" id="VIEW_ITEM-backto-VIEW_ENTRY" style="stroke:#181818;stroke-width:1;"/><polygon fill="none" points="171.49,631.47,165.49,649.47,177.49,649.47,171.49,631.47" style="stroke:#181818;stroke-width:1;"/></g><!--reverse link VIEW_ENTRY to CITATION--><g class="link" data-entity-1="VIEW_ENTRY" data-entity-2="CITATION" data-source-line="47" data-uid="lnk12" id="link_VIEW_ENTRY_CITATION"><path codeLine="47" d="M171.49,757.37 C171.49,773.59 171.49,777.93 171.49,798.7" fill="none" id="VIEW_ENTRY-backto-CITATION" style="stroke:#181818;stroke-width:1;"/><polygon fill="none" points="171.49,739.37,165.49,757.37,177.49,757.37,171.49,739.37" style="stroke:#181818;stroke-width:1;"/></g></g></svg>
