<svg xmlns="http://www.w3.org/2000/svg" xmlns:xlink="http://www.w3.org/1999/xlink" contentStyleType="text/css" data-diagram-type="CLASS" height="1475px" preserveAspectRatio="none" style="width:1101px;height:1475px;background:#FFFFFF;" version="1.1" viewBox="0 0 1101 1475" width="1101px" zoomAndPan="magnify"><defs/><g><!--class DV_DATE--><g class="entity" data-entity="DV_DATE" data-source-line="2" data-uid="ent0002" id="entity_DV_DATE"><rect fill="#F1F1F1" height="182.3994" rx="2.5" ry="2.5" style="stroke:#181818;stroke-width:0.5;" width="402.7386" x="265.24" y="1286.2"/><ellipse cx="432.2524" cy="1302.2" fill="#ADD1B2" rx="11" ry="11" style="stroke:#181818;stroke-width:1;"/><path d="M432.2524,1308.6219 C433.4243,1308.6219 434.6587,1308.3562 436.0337,1307.7469 L435.5493,1306.2312 C434.4555,1306.6531 433.4399,1306.8406 432.5805,1306.8406 C429.8618,1306.8406 428.143,1304.9969 428.143,1302.0906 C428.143,1299.3406 429.7055,1297.7469 432.4399,1297.7469 C433.3618,1297.7469 434.3774,1297.9344 435.518,1298.3562 L436.0962,1296.8406 C435.0024,1296.2625 433.7055,1295.9656 432.518,1295.9656 C428.7524,1295.9656 426.1743,1298.6062 426.1743,1302.4187 C426.1743,1306.0906 428.6587,1308.6219 432.2524,1308.6219 Z " fill="#000000"/><text fill="#000000" font-family="sans-serif" font-size="14" lengthAdjust="spacing" textLength="60.2138" x="452.7524" y="1307.562">DV_DATE</text><line style="stroke:#181818;stroke-width:0.5;" x1="266.24" x2="666.9786" y1="1318.2" y2="1318.2"/><ellipse cx="276.24" cy="1332.1" fill="none" rx="3" ry="3" style="stroke:#038048;stroke-width:1;"/><text fill="#000000" font-family="sans-serif" font-size="14" lengthAdjust="spacing" textLength="98.9656" x="285.24" y="1335.9619">value : String [1]</text><line style="stroke:#181818;stroke-width:0.5;" x1="266.24" x2="666.9786" y1="1342.9999" y2="1342.9999"/><ellipse cx="276.24" cy="1356.8999" fill="#84BE84" rx="3" ry="3" style="stroke:#038048;stroke-width:1;"/><text fill="#000000" font-family="sans-serif" font-size="14" lengthAdjust="spacing" textLength="148.9174" x="285.24" y="1360.7619">magnitude() : Integer [1]</text><ellipse cx="276.24" cy="1373.6998" fill="#84BE84" rx="3" ry="3" style="stroke:#038048;stroke-width:1;"/><text fill="#000000" font-family="sans-serif" font-size="14" lengthAdjust="spacing" textLength="313.7248" x="285.24" y="1377.5618">is_equal( other : DV_QUANTIFIED [1] ) : Boolean [1]</text><ellipse cx="276.24" cy="1390.4997" fill="#84BE84" rx="3" ry="3" style="stroke:#038048;stroke-width:1;"/><text fill="#000000" font-family="sans-serif" font-size="14" lengthAdjust="spacing" textLength="285.1229" x="285.24" y="1394.3617">add( a_diff : DV_DURATION [1] ) : DV_DATE [1]</text><ellipse cx="276.24" cy="1407.2997" fill="#84BE84" rx="3" ry="3" style="stroke:#038048;stroke-width:1;"/><text fill="#000000" font-family="sans-serif" font-size="14" lengthAdjust="spacing" textLength="313.3748" x="285.24" y="1411.1616">subtract( a_diff : DV_DURATION [1] ) : DV_DATE [1]</text><ellipse cx="276.24" cy="1424.0996" fill="#84BE84" rx="3" ry="3" style="stroke:#038048;stroke-width:1;"/><text fill="#000000" font-family="sans-serif" font-size="14" lengthAdjust="spacing" textLength="281.4269" x="285.24" y="1427.9616">diff( other : DV_DATE [1] ) : DV_DURATION [1]</text><ellipse cx="276.24" cy="1440.8995" fill="#84BE84" rx="3" ry="3" style="stroke:#038048;stroke-width:1;"/><text fill="#000000" font-family="sans-serif" font-size="14" lengthAdjust="spacing" textLength="275.9529" x="285.24" y="1444.7615">less_than( other : DV_DATE [1] ) : Boolean [1]</text><ellipse cx="276.24" cy="1457.6995" fill="#84BE84" rx="3" ry="3" style="stroke:#038048;stroke-width:1;"/><text fill="#000000" font-family="sans-serif" font-size="14" lengthAdjust="spacing" textLength="376.7386" x="285.24" y="1461.5614">is_strictly_comparable_to( other : DV_DATE [1] ) : Boolean [1]</text></g><!--class DV_TEMPORAL--><g class="entity" data-entity="DV_TEMPORAL" data-source-line="13" data-uid="ent0003" id="entity_DV_TEMPORAL"><rect fill="#F5F5F5" height="115.1997" rx="2.5" ry="2.5" style="stroke:#808080;stroke-width:1;stroke-dasharray:1,3;" width="376.1106" x="58.55" y="1027"/><ellipse cx="193.8805" cy="1043" fill="#A9DCDF" rx="11" ry="11" style="stroke:#181818;stroke-width:1;"/><path d="M188.3961,1048.5 L190.4274,1048.5 L194.4742,1037.1563 L193.568,1037.1563 L197.3961,1048.5 L199.5367,1048.5 L195.2086,1036.1719 L192.9899,1036.1719 L188.3961,1048.5 Z M190.7242,1045 L197.1617,1045 L197.1617,1043.25 L190.7242,1043.25 L190.7242,1045 Z " fill="#000000"/><text fill="#808080" font-family="sans-serif" font-size="14" font-style="italic" lengthAdjust="spacing" textLength="96.9496" x="214.3805" y="1048.362">DV_TEMPORAL</text><line style="stroke:#808080;stroke-width:1;stroke-dasharray:1,3;" x1="59.55" x2="433.6606" y1="1059" y2="1059"/><ellipse cx="69.55" cy="1072.9" fill="none" rx="3" ry="3" style="stroke:#038048;stroke-width:1;"/><text fill="#808080" font-family="sans-serif" font-size="14" lengthAdjust="spacing" textLength="193.0592" x="78.55" y="1076.7619">accuracy : DV_DURATION [0..1]</text><line style="stroke:#808080;stroke-width:1;stroke-dasharray:1,3;" x1="59.55" x2="433.6606" y1="1083.7999" y2="1083.7999"/><ellipse cx="69.55" cy="1097.6999" fill="#84BE84" rx="3" ry="3" style="stroke:#038048;stroke-width:1;"/><text fill="#808080" font-family="sans-serif" font-size="14" font-style="italic" lengthAdjust="spacing" textLength="321.8587" x="78.55" y="1101.5619">add( a_diff : DV_DURATION [1] ) : DV_TEMPORAL [1]</text><ellipse cx="69.55" cy="1114.4998" fill="#84BE84" rx="3" ry="3" style="stroke:#038048;stroke-width:1;"/><text fill="#808080" font-family="sans-serif" font-size="14" font-style="italic" lengthAdjust="spacing" textLength="350.1106" x="78.55" y="1118.3618">subtract( a_diff : DV_DURATION [1] ) : DV_TEMPORAL [1]</text><ellipse cx="69.55" cy="1131.2997" fill="#84BE84" rx="3" ry="3" style="stroke:#038048;stroke-width:1;"/><text fill="#808080" font-family="sans-serif" font-size="14" font-style="italic" lengthAdjust="spacing" textLength="318.1627" x="78.55" y="1135.1617">diff( other : DV_TEMPORAL [1] ) : DV_DURATION [1]</text></g><!--class DV_ABSOLUTE_QUANTITY--><g class="entity" data-entity="DV_ABSOLUTE_QUANTITY" data-source-line="20" data-uid="ent0004" id="entity_DV_ABSOLUTE_QUANTITY"><rect fill="#F5F5F5" height="115.1997" rx="2.5" ry="2.5" style="stroke:#808080;stroke-width:1;stroke-dasharray:1,3;" width="436.8282" x="28.2" y="767.8"/><ellipse cx="158.3575" cy="783.8" fill="#A9DCDF" rx="11" ry="11" style="stroke:#181818;stroke-width:1;"/><path d="M152.8731,789.3 L154.9043,789.3 L158.9512,777.9563 L158.045,777.9563 L161.8731,789.3 L164.0137,789.3 L159.6856,776.9719 L157.4668,776.9719 L152.8731,789.3 Z M155.2012,785.8 L161.6387,785.8 L161.6387,784.05 L155.2012,784.05 L155.2012,785.8 Z " fill="#000000"/><text fill="#808080" font-family="sans-serif" font-size="14" font-style="italic" lengthAdjust="spacing" textLength="168.0133" x="178.8575" y="789.162">DV_ABSOLUTE_QUANTITY</text><line style="stroke:#808080;stroke-width:1;stroke-dasharray:1,3;" x1="29.2" x2="464.0282" y1="799.8" y2="799.8"/><ellipse cx="39.2" cy="813.7" fill="none" rx="3" ry="3" style="stroke:#038048;stroke-width:1;"/><text fill="#808080" font-family="sans-serif" font-size="14" lengthAdjust="spacing" textLength="182.7133" x="48.2" y="817.5619">accuracy : DV_AMOUNT [0..1]</text><line style="stroke:#808080;stroke-width:1;stroke-dasharray:1,3;" x1="29.2" x2="464.0282" y1="824.5999" y2="824.5999"/><ellipse cx="39.2" cy="838.4999" fill="#84BE84" rx="3" ry="3" style="stroke:#038048;stroke-width:1;"/><text fill="#808080" font-family="sans-serif" font-size="14" font-style="italic" lengthAdjust="spacing" textLength="382.5764" x="48.2" y="842.3619">add( a_diff : DV_AMOUNT [1] ) : DV_ABSOLUTE_QUANTITY [1]</text><ellipse cx="39.2" cy="855.2998" fill="#84BE84" rx="3" ry="3" style="stroke:#038048;stroke-width:1;"/><text fill="#808080" font-family="sans-serif" font-size="14" font-style="italic" lengthAdjust="spacing" textLength="410.8282" x="48.2" y="859.1618">subtract( a_diff : DV_AMOUNT [1] ) : DV_ABSOLUTE_QUANTITY [1]</text><ellipse cx="39.2" cy="872.0997" fill="#84BE84" rx="3" ry="3" style="stroke:#038048;stroke-width:1;"/><text fill="#808080" font-family="sans-serif" font-size="14" font-style="italic" lengthAdjust="spacing" textLength="378.8804" x="48.2" y="875.9617">diff( other : DV_ABSOLUTE_QUANTITY [1] ) : DV_AMOUNT [1]</text></g><!--class DV_QUANTIFIED--><g class="entity" data-entity="DV_QUANTIFIED" data-source-line="27" data-uid="ent0005" id="entity_DV_QUANTIFIED"><rect fill="#F5F5F5" height="165.5995" rx="2.5" ry="2.5" style="stroke:#808080;stroke-width:1;stroke-dasharray:1,3;" width="347.9148" x="72.65" y="542.2"/><ellipse cx="189.2696" cy="558.2" fill="#A9DCDF" rx="11" ry="11" style="stroke:#181818;stroke-width:1;"/><path d="M183.7852,563.7 L185.8165,563.7 L189.8633,552.3562 L188.9571,552.3562 L192.7852,563.7 L194.9258,563.7 L190.5977,551.3719 L188.379,551.3719 L183.7852,563.7 Z M186.1133,560.2 L192.5508,560.2 L192.5508,558.45 L186.1133,558.45 L186.1133,560.2 Z " fill="#000000"/><text fill="#808080" font-family="sans-serif" font-size="14" font-style="italic" lengthAdjust="spacing" textLength="106.1756" x="209.7696" y="563.562">DV_QUANTIFIED</text><line style="stroke:#808080;stroke-width:1;stroke-dasharray:1,3;" x1="73.65" x2="419.5648" y1="574.2" y2="574.2"/><ellipse cx="83.65" cy="588.1" fill="none" rx="3" ry="3" style="stroke:#038048;stroke-width:1;"/><text fill="#808080" font-family="sans-serif" font-size="14" lengthAdjust="spacing" textLength="193.9972" x="92.65" y="591.9619">magnitude_status : String [0..1]</text><ellipse cx="83.65" cy="604.8999" fill="none" rx="3" ry="3" style="stroke:#038048;stroke-width:1;"/><text fill="#808080" font-family="sans-serif" font-size="14" lengthAdjust="spacing" textLength="121.4915" x="92.65" y="608.7619">accuracy : Any [0..1]</text><line style="stroke:#808080;stroke-width:1;stroke-dasharray:1,3;" x1="73.65" x2="419.5648" y1="615.7999" y2="615.7999"/><ellipse cx="83.65" cy="629.6998" fill="#84BE84" rx="3" ry="3" style="stroke:#038048;stroke-width:1;"/><text fill="#808080" font-family="sans-serif" font-size="14" lengthAdjust="spacing" textLength="236.515" x="92.65" y="633.5618">valid_magnitude_status() : Boolean [1]</text><ellipse cx="83.65" cy="646.4997" fill="#84BE84" rx="3" ry="3" style="stroke:#038048;stroke-width:1;"/><text fill="#808080" font-family="sans-serif" font-size="14" font-style="italic" lengthAdjust="spacing" textLength="216.4531" x="92.65" y="650.3617">magnitude() : Ordered_Numeric [1]</text><ellipse cx="83.65" cy="663.2997" fill="#84BE84" rx="3" ry="3" style="stroke:#038048;stroke-width:1;"/><text fill="#808080" font-family="sans-serif" font-size="14" lengthAdjust="spacing" textLength="206.3172" x="92.65" y="667.1616">accuracy_unknown() : Boolean [1]</text><ellipse cx="83.65" cy="680.0996" fill="#84BE84" rx="3" ry="3" style="stroke:#038048;stroke-width:1;"/><text fill="#808080" font-family="sans-serif" font-size="14" font-style="italic" lengthAdjust="spacing" textLength="313.7248" x="92.65" y="683.9616">is_equal( other : DV_QUANTIFIED [1] ) : Boolean [1]</text><ellipse cx="83.65" cy="696.8995" fill="#84BE84" rx="3" ry="3" style="stroke:#038048;stroke-width:1;"/><text fill="#808080" font-family="sans-serif" font-size="14" lengthAdjust="spacing" textLength="321.9148" x="92.65" y="700.7615">less_than( other : DV_QUANTIFIED [1] ) : Boolean [1]</text></g><!--class DV_ORDERED--><g class="entity" data-entity="DV_ORDERED" data-source-line="37" data-uid="ent0006" id="entity_DV_ORDERED"><rect fill="#F5F5F5" height="165.5995" rx="2.5" ry="2.5" style="stroke:#808080;stroke-width:1;stroke-dasharray:1,3;" width="479.2201" x="7" y="283"/><ellipse cx="197.5322" cy="299" fill="#A9DCDF" rx="11" ry="11" style="stroke:#181818;stroke-width:1;"/><path d="M192.0479,304.5 L194.0791,304.5 L198.126,293.1563 L197.2197,293.1563 L201.0479,304.5 L203.1885,304.5 L198.8604,292.1719 L196.6416,292.1719 L192.0479,304.5 Z M194.376,301 L200.8135,301 L200.8135,299.25 L194.376,299.25 L194.376,301 Z " fill="#000000"/><text fill="#808080" font-family="sans-serif" font-size="14" font-style="italic" lengthAdjust="spacing" textLength="89.6556" x="218.0322" y="304.362">DV_ORDERED</text><line style="stroke:#808080;stroke-width:1;stroke-dasharray:1,3;" x1="8" x2="485.2201" y1="315" y2="315"/><ellipse cx="18" cy="328.9" fill="none" rx="3" ry="3" style="stroke:#038048;stroke-width:1;"/><text fill="#808080" font-family="sans-serif" font-size="14" lengthAdjust="spacing" textLength="230.5231" x="27" y="332.7619">normal_status : CODE_PHRASE [0..1]</text><ellipse cx="18" cy="345.6999" fill="none" rx="3" ry="3" style="stroke:#038048;stroke-width:1;"/><text fill="#808080" font-family="sans-serif" font-size="14" lengthAdjust="spacing" textLength="220.3871" x="27" y="349.5619">normal_range : DV_INTERVAL [0..1]</text><ellipse cx="18" cy="362.4998" fill="none" rx="3" ry="3" style="stroke:#038048;stroke-width:1;"/><text fill="#808080" font-family="sans-serif" font-size="14" lengthAdjust="spacing" textLength="453.2201" x="27" y="366.3618">other_reference_ranges : List&lt;REFERENCE_RANGE&lt;DV_ORDERED&gt;&gt; [*]</text><line style="stroke:#808080;stroke-width:1;stroke-dasharray:1,3;" x1="8" x2="485.2201" y1="373.3998" y2="373.3998"/><ellipse cx="18" cy="387.2997" fill="#84BE84" rx="3" ry="3" style="stroke:#038048;stroke-width:1;"/><text fill="#808080" font-family="sans-serif" font-size="14" font-style="italic" lengthAdjust="spacing" textLength="406.1805" x="27" y="391.1617">is_strictly_comparable_to( other : DV_ORDERED [1] ) : Boolean [1]</text><ellipse cx="18" cy="404.0997" fill="#84BE84" rx="3" ry="3" style="stroke:#038048;stroke-width:1;"/><text fill="#808080" font-family="sans-serif" font-size="14" lengthAdjust="spacing" textLength="146.6214" x="27" y="407.9616">is_simple() : Boolean [1]</text><ellipse cx="18" cy="420.8996" fill="#84BE84" rx="3" ry="3" style="stroke:#038048;stroke-width:1;"/><text fill="#808080" font-family="sans-serif" font-size="14" lengthAdjust="spacing" textLength="149.6174" x="27" y="424.7616">is_normal() : Boolean [1]</text><ellipse cx="18" cy="437.6995" fill="#84BE84" rx="3" ry="3" style="stroke:#038048;stroke-width:1;"/><text fill="#808080" font-family="sans-serif" font-size="14" font-style="italic" lengthAdjust="spacing" textLength="305.3948" x="27" y="441.5615">less_than( other : DV_ORDERED [1] ) : Boolean [1]</text></g><!--class DATA_VALUE--><g class="entity" data-entity="DATA_VALUE" data-source-line="47" data-uid="ent0007" id="entity_DATA_VALUE"><rect fill="#F5F5F5" height="48" rx="2.5" ry="2.5" style="stroke:#808080;stroke-width:1;stroke-dasharray:1,3;" width="116.2657" x="188.48" y="74.2"/><ellipse cx="203.48" cy="90.2" fill="#A9DCDF" rx="11" ry="11" style="stroke:#181818;stroke-width:1;"/><path d="M197.9956,95.7 L200.0269,95.7 L204.0738,84.3562 L203.1675,84.3562 L206.9956,95.7 L209.1363,95.7 L204.8081,83.3719 L202.5894,83.3719 L197.9956,95.7 Z M200.3238,92.2 L206.7613,92.2 L206.7613,90.45 L200.3238,90.45 L200.3238,92.2 Z " fill="#000000"/><text fill="#808080" font-family="sans-serif" font-size="14" font-style="italic" lengthAdjust="spacing" textLength="84.2657" x="217.48" y="95.562">DATA_VALUE</text><line style="stroke:#808080;stroke-width:1;stroke-dasharray:1,3;" x1="189.48" x2="303.7457" y1="106.2" y2="106.2"/><line style="stroke:#808080;stroke-width:1;stroke-dasharray:1,3;" x1="189.48" x2="303.7457" y1="114.2" y2="114.2"/></g><!--class Ordered--><g class="entity" data-entity="Ordered" data-source-line="52" data-uid="ent0009" id="entity_Ordered"><rect fill="#F5F5F5" height="182.3994" rx="2.5" ry="2.5" style="stroke:#808080;stroke-width:1;stroke-dasharray:1,3;" width="376.4047" x="359.41" y="7"/><ellipse cx="517.3924" cy="23" fill="#A9DCDF" rx="11" ry="11" style="stroke:#181818;stroke-width:1;"/><path d="M511.9081,28.5 L513.9393,28.5 L517.9862,17.1563 L517.0799,17.1563 L520.9081,28.5 L523.0487,28.5 L518.7206,16.1719 L516.5018,16.1719 L511.9081,28.5 Z M514.2362,25 L520.6737,25 L520.6737,23.25 L514.2362,23.25 L514.2362,25 Z " fill="#000000"/><text fill="#808080" font-family="sans-serif" font-size="14" font-style="italic" lengthAdjust="spacing" textLength="51.9398" x="537.8924" y="28.362">Ordered</text><line style="stroke:#808080;stroke-width:1;stroke-dasharray:1,3;" x1="360.41" x2="734.8147" y1="39" y2="39"/><line style="stroke:#808080;stroke-width:1;stroke-dasharray:1,3;" x1="360.41" x2="734.8147" y1="47" y2="47"/><ellipse cx="370.41" cy="60.9" fill="#84BE84" rx="3" ry="3" style="stroke:#038048;stroke-width:1;"/><text fill="#808080" font-family="sans-serif" font-size="14" font-style="italic" lengthAdjust="spacing" textLength="267.679" x="379.41" y="64.7619">less_than( other : Ordered [1] ) : Boolean [1]</text><ellipse cx="370.41" cy="77.6999" fill="#84BE84" rx="3" ry="3" style="stroke:#038048;stroke-width:1;"/><text fill="#808080" font-family="sans-serif" font-size="14" lengthAdjust="spacing" textLength="329.1387" x="379.41" y="81.5619">less_than_or_equal( other : Ordered [1] ) : Boolean [1]</text><ellipse cx="370.41" cy="94.4998" fill="#84BE84" rx="3" ry="3" style="stroke:#038048;stroke-width:1;"/><text fill="#808080" font-family="sans-serif" font-size="14" lengthAdjust="spacing" textLength="288.9449" x="379.41" y="98.3618">greater_than( other : Ordered [1] ) : Boolean [1]</text><ellipse cx="370.41" cy="111.2997" fill="#84BE84" rx="3" ry="3" style="stroke:#038048;stroke-width:1;"/><text fill="#808080" font-family="sans-serif" font-size="14" lengthAdjust="spacing" textLength="350.4047" x="379.41" y="115.1617">greater_than_or_equal( other : Ordered [1] ) : Boolean [1]</text><ellipse cx="370.41" cy="128.0997" fill="#84BE84" rx="3" ry="3" style="stroke:#038048;stroke-width:1;"/><text fill="#808080" font-family="sans-serif" font-size="14" font-style="italic" lengthAdjust="spacing" textLength="267.679" x="379.41" y="131.9616">less_than( other : Ordered [1] ) : Boolean [1]</text><ellipse cx="370.41" cy="144.8996" fill="#84BE84" rx="3" ry="3" style="stroke:#038048;stroke-width:1;"/><text fill="#808080" font-family="sans-serif" font-size="14" lengthAdjust="spacing" textLength="329.1387" x="379.41" y="148.7616">less_than_or_equal( other : Ordered [1] ) : Boolean [1]</text><ellipse cx="370.41" cy="161.6995" fill="#84BE84" rx="3" ry="3" style="stroke:#038048;stroke-width:1;"/><text fill="#808080" font-family="sans-serif" font-size="14" lengthAdjust="spacing" textLength="288.9449" x="379.41" y="165.5615">greater_than( other : Ordered [1] ) : Boolean [1]</text><ellipse cx="370.41" cy="178.4995" fill="#84BE84" rx="3" ry="3" style="stroke:#038048;stroke-width:1;"/><text fill="#808080" font-family="sans-serif" font-size="14" lengthAdjust="spacing" textLength="350.4047" x="379.41" y="182.3614">greater_than_or_equal( other : Ordered [1] ) : Boolean [1]</text></g><!--class Iso8601_date--><g class="entity" data-entity="Iso8601_date" data-source-line="69" data-uid="ent0015" id="entity_Iso8601_date"><rect fill="#F5F5F5" height="283.199" rx="2.5" ry="2.5" style="stroke:#808080;stroke-width:1;stroke-dasharray:1,3;" width="434.0424" x="469.59" y="943"/><ellipse cx="640.5784" cy="959" fill="#ADD1B2" rx="11" ry="11" style="stroke:#181818;stroke-width:1;"/><path d="M640.5784,965.4219 C641.7502,965.4219 642.9846,965.1562 644.3596,964.5469 L643.8752,963.0312 C642.7815,963.4531 641.7659,963.6406 640.9065,963.6406 C638.1877,963.6406 636.469,961.7969 636.469,958.8906 C636.469,956.1406 638.0315,954.5469 640.7659,954.5469 C641.6877,954.5469 642.7034,954.7344 643.844,955.1562 L644.4221,953.6406 C643.3284,953.0625 642.0315,952.7656 640.844,952.7656 C637.0784,952.7656 634.5002,955.4062 634.5002,959.2187 C634.5002,962.8906 636.9846,965.4219 640.5784,965.4219 Z " fill="#000000"/><text fill="#808080" font-family="sans-serif" font-size="14" lengthAdjust="spacing" textLength="83.5657" x="661.0784" y="964.362">Iso8601_date</text><line style="stroke:#808080;stroke-width:1;stroke-dasharray:1,3;" x1="470.59" x2="902.6324" y1="975" y2="975"/><line style="stroke:#808080;stroke-width:1;stroke-dasharray:1,3;" x1="470.59" x2="902.6324" y1="983" y2="983"/><ellipse cx="480.59" cy="996.9" fill="#84BE84" rx="3" ry="3" style="stroke:#038048;stroke-width:1;"/><text fill="#808080" font-family="sans-serif" font-size="14" lengthAdjust="spacing" textLength="108.3036" x="489.59" y="1000.7619">year() : Integer [1]</text><ellipse cx="480.59" cy="1013.6999" fill="#84BE84" rx="3" ry="3" style="stroke:#038048;stroke-width:1;"/><text fill="#808080" font-family="sans-serif" font-size="14" lengthAdjust="spacing" textLength="123.0175" x="489.59" y="1017.5619">month() : Integer [1]</text><ellipse cx="480.59" cy="1030.4998" fill="#84BE84" rx="3" ry="3" style="stroke:#038048;stroke-width:1;"/><text fill="#808080" font-family="sans-serif" font-size="14" lengthAdjust="spacing" textLength="103.6136" x="489.59" y="1034.3618">day() : Integer [1]</text><ellipse cx="480.59" cy="1047.2997" fill="#84BE84" rx="3" ry="3" style="stroke:#038048;stroke-width:1;"/><text fill="#808080" font-family="sans-serif" font-size="14" lengthAdjust="spacing" textLength="209.0612" x="489.59" y="1051.1617">timezone() : Iso8601_timezone [1]</text><ellipse cx="480.59" cy="1064.0997" fill="#84BE84" rx="3" ry="3" style="stroke:#038048;stroke-width:1;"/><text fill="#808080" font-family="sans-serif" font-size="14" lengthAdjust="spacing" textLength="193.8293" x="489.59" y="1067.9616">month_unknown() : Boolean [1]</text><ellipse cx="480.59" cy="1080.8996" fill="#84BE84" rx="3" ry="3" style="stroke:#038048;stroke-width:1;"/><text fill="#808080" font-family="sans-serif" font-size="14" lengthAdjust="spacing" textLength="174.4253" x="489.59" y="1084.7616">day_unknown() : Boolean [1]</text><ellipse cx="480.59" cy="1097.6995" fill="#84BE84" rx="3" ry="3" style="stroke:#038048;stroke-width:1;"/><text fill="#808080" font-family="sans-serif" font-size="14" lengthAdjust="spacing" textLength="144.9974" x="489.59" y="1101.5615">is_partial() : Boolean [1]</text><ellipse cx="480.59" cy="1114.4995" fill="#84BE84" rx="3" ry="3" style="stroke:#038048;stroke-width:1;"/><text fill="#808080" font-family="sans-serif" font-size="14" lengthAdjust="spacing" textLength="162.6934" x="489.59" y="1118.3614">is_extended() : Boolean [1]</text><ellipse cx="480.59" cy="1131.2994" fill="#84BE84" rx="3" ry="3" style="stroke:#038048;stroke-width:1;"/><text fill="#808080" font-family="sans-serif" font-size="14" lengthAdjust="spacing" textLength="131.2635" x="489.59" y="1135.1614">as_string() : String [1]</text><ellipse cx="480.59" cy="1148.0993" fill="#84BE84" rx="3" ry="3" style="stroke:#038048;stroke-width:1;"/><text fill="#808080" font-family="sans-serif" font-size="14" lengthAdjust="spacing" textLength="322.0687" x="489.59" y="1151.9613">add( a_diff : Iso8601_duration [1] ) : Iso8601_date [1]</text><ellipse cx="480.59" cy="1164.8992" fill="#84BE84" rx="3" ry="3" style="stroke:#038048;stroke-width:1;"/><text fill="#808080" font-family="sans-serif" font-size="14" lengthAdjust="spacing" textLength="350.3206" x="489.59" y="1168.7612">subtract( a_diff : Iso8601_duration [1] ) : Iso8601_date [1]</text><ellipse cx="480.59" cy="1181.6992" fill="#84BE84" rx="3" ry="3" style="stroke:#038048;stroke-width:1;"/><text fill="#808080" font-family="sans-serif" font-size="14" lengthAdjust="spacing" textLength="326.5347" x="489.59" y="1185.5611">diff( a_date : Iso8601_date [1] ) : Iso8601_duration [1]</text><ellipse cx="480.59" cy="1198.4991" fill="#84BE84" rx="3" ry="3" style="stroke:#038048;stroke-width:1;"/><text fill="#808080" font-family="sans-serif" font-size="14" lengthAdjust="spacing" textLength="379.7905" x="489.59" y="1202.3611">add_nominal( a_diff : Iso8601_duration [1] ) : Iso8601_date [1]</text><ellipse cx="480.59" cy="1215.299" fill="#84BE84" rx="3" ry="3" style="stroke:#038048;stroke-width:1;"/><text fill="#808080" font-family="sans-serif" font-size="14" lengthAdjust="spacing" textLength="408.0424" x="489.59" y="1219.161">subtract_nominal( a_diff : Iso8601_duration [1] ) : Iso8601_date [1]</text></g><!--class Iso8601_type--><g class="entity" data-entity="Iso8601_type" data-source-line="86" data-uid="ent0016" id="entity_Iso8601_type"><rect fill="#F5F5F5" height="98.3998" rx="2.5" ry="2.5" style="stroke:#808080;stroke-width:1;stroke-dasharray:1,3;" width="188.6934" x="592.26" y="575.8"/><ellipse cx="640.7908" cy="591.8" fill="#A9DCDF" rx="11" ry="11" style="stroke:#181818;stroke-width:1;"/><path d="M635.3065,597.3 L637.3377,597.3 L641.3846,585.9563 L640.4783,585.9563 L644.3065,597.3 L646.4471,597.3 L642.119,584.9719 L639.9002,584.9719 L635.3065,597.3 Z M637.6346,593.8 L644.0721,593.8 L644.0721,592.05 L637.6346,592.05 L637.6346,593.8 Z " fill="#000000"/><text fill="#808080" font-family="sans-serif" font-size="14" font-style="italic" lengthAdjust="spacing" textLength="83.1317" x="661.2908" y="597.162">Iso8601_type</text><line style="stroke:#808080;stroke-width:1;stroke-dasharray:1,3;" x1="593.26" x2="779.9534" y1="607.8" y2="607.8"/><ellipse cx="603.26" cy="621.7" fill="none" rx="3" ry="3" style="stroke:#038048;stroke-width:1;"/><text fill="#808080" font-family="sans-serif" font-size="14" lengthAdjust="spacing" textLength="98.9656" x="612.26" y="625.5619">value : String [1]</text><line style="stroke:#808080;stroke-width:1;stroke-dasharray:1,3;" x1="593.26" x2="779.9534" y1="632.5999" y2="632.5999"/><ellipse cx="603.26" cy="646.4999" fill="#84BE84" rx="3" ry="3" style="stroke:#038048;stroke-width:1;"/><text fill="#808080" font-family="sans-serif" font-size="14" font-style="italic" lengthAdjust="spacing" textLength="144.9974" x="612.26" y="650.3619">is_partial() : Boolean [1]</text><ellipse cx="603.26" cy="663.2998" fill="#84BE84" rx="3" ry="3" style="stroke:#038048;stroke-width:1;"/><text fill="#808080" font-family="sans-serif" font-size="14" font-style="italic" lengthAdjust="spacing" textLength="162.6934" x="612.26" y="667.1618">is_extended() : Boolean [1]</text></g><!--class Temporal--><g class="entity" data-entity="Temporal" data-source-line="92" data-uid="ent0017" id="entity_Temporal"><rect fill="#F5F5F5" height="48" rx="2.5" ry="2.5" style="stroke:#808080;stroke-width:1;stroke-dasharray:1,3;" width="91.9898" x="521.62" y="341.8"/><ellipse cx="536.62" cy="357.8" fill="#A9DCDF" rx="11" ry="11" style="stroke:#181818;stroke-width:1;"/><path d="M531.1356,363.3 L533.1669,363.3 L537.2138,351.9562 L536.3075,351.9562 L540.1356,363.3 L542.2763,363.3 L537.9481,350.9719 L535.7294,350.9719 L531.1356,363.3 Z M533.4638,359.8 L539.9013,359.8 L539.9013,358.05 L533.4638,358.05 L533.4638,359.8 Z " fill="#000000"/><text fill="#808080" font-family="sans-serif" font-size="14" font-style="italic" lengthAdjust="spacing" textLength="59.9898" x="550.62" y="363.162">Temporal</text><line style="stroke:#808080;stroke-width:1;stroke-dasharray:1,3;" x1="522.62" x2="612.6098" y1="373.8" y2="373.8"/><line style="stroke:#808080;stroke-width:1;stroke-dasharray:1,3;" x1="522.62" x2="612.6098" y1="381.8" y2="381.8"/></g><!--class Time_Definitions--><g class="entity" data-entity="Time_Definitions" data-source-line="106" data-uid="ent0020" id="entity_Time_Definitions"><rect fill="#F5F5F5" height="232.7992" rx="2.5" ry="2.5" style="stroke:#808080;stroke-width:1;stroke-dasharray:1,3;" width="445.5084" x="648.86" y="249.4"/><ellipse cx="814.3814" cy="265.4" fill="#ADD1B2" rx="11" ry="11" style="stroke:#181818;stroke-width:1;"/><path d="M814.3814,271.8219 C815.5533,271.8219 816.7877,271.5562 818.1627,270.9469 L817.6783,269.4312 C816.5845,269.8531 815.5689,270.0406 814.7095,270.0406 C811.9908,270.0406 810.272,268.1969 810.272,265.2906 C810.272,262.5406 811.8345,260.9469 814.5689,260.9469 C815.4908,260.9469 816.5064,261.1344 817.647,261.5562 L818.2252,260.0406 C817.1314,259.4625 815.8345,259.1656 814.647,259.1656 C810.8814,259.1656 808.3033,261.8062 808.3033,265.6187 C808.3033,269.2906 810.7877,271.8219 814.3814,271.8219 Z " fill="#000000"/><text fill="#808080" font-family="sans-serif" font-size="14" lengthAdjust="spacing" textLength="105.9656" x="834.8814" y="270.762">Time_Definitions</text><line style="stroke:#808080;stroke-width:1;stroke-dasharray:1,3;" x1="649.86" x2="1093.3684" y1="281.4" y2="281.4"/><line style="stroke:#808080;stroke-width:1;stroke-dasharray:1,3;" x1="649.86" x2="1093.3684" y1="289.4" y2="289.4"/><ellipse cx="659.86" cy="303.3" fill="#84BE84" rx="3" ry="3" style="stroke:#038048;stroke-width:1;"/><text fill="#808080" font-family="sans-serif" font-size="14" lengthAdjust="spacing" textLength="237.0191" x="668.86" y="307.1619">valid_year( y : Integer [1] ) : Boolean [1]</text><ellipse cx="659.86" cy="320.0999" fill="#84BE84" rx="3" ry="3" style="stroke:#038048;stroke-width:1;"/><text fill="#808080" font-family="sans-serif" font-size="14" lengthAdjust="spacing" textLength="257.417" x="668.86" y="323.9619">valid_month( m : Integer [1] ) : Boolean [1]</text><ellipse cx="659.86" cy="336.8998" fill="#84BE84" rx="3" ry="3" style="stroke:#038048;stroke-width:1;"/><text fill="#808080" font-family="sans-serif" font-size="14" lengthAdjust="spacing" textLength="412.6764" x="668.86" y="340.7618">valid_day( y : Integer [1], m : Integer [1], d : Integer [1] ) : Boolean [1]</text><ellipse cx="659.86" cy="353.6997" fill="#84BE84" rx="3" ry="3" style="stroke:#038048;stroke-width:1;"/><text fill="#808080" font-family="sans-serif" font-size="14" lengthAdjust="spacing" textLength="419.5084" x="668.86" y="357.5617">valid_hour( h : Integer [1], m : Integer [1], s : Integer [1] ) : Boolean [1]</text><ellipse cx="659.86" cy="370.4997" fill="#84BE84" rx="3" ry="3" style="stroke:#038048;stroke-width:1;"/><text fill="#808080" font-family="sans-serif" font-size="14" lengthAdjust="spacing" textLength="260.189" x="668.86" y="374.3616">valid_minute( m : Integer [1] ) : Boolean [1]</text><ellipse cx="659.86" cy="387.2996" fill="#84BE84" rx="3" ry="3" style="stroke:#038048;stroke-width:1;"/><text fill="#808080" font-family="sans-serif" font-size="14" lengthAdjust="spacing" textLength="254.519" x="668.86" y="391.1616">valid_second( s : Integer [1] ) : Boolean [1]</text><ellipse cx="659.86" cy="404.0995" fill="#84BE84" rx="3" ry="3" style="stroke:#038048;stroke-width:1;"/><text fill="#808080" font-family="sans-serif" font-size="14" lengthAdjust="spacing" textLength="325.6528" x="668.86" y="407.9615">valid_fractional_second( fs : Double [1] ) : Boolean [1]</text><ellipse cx="659.86" cy="420.8995" fill="#84BE84" rx="3" ry="3" style="stroke:#038048;stroke-width:1;"/><text fill="#808080" font-family="sans-serif" font-size="14" lengthAdjust="spacing" textLength="286.1729" x="668.86" y="424.7614">valid_iso8601_date( s : String [1] ) : Boolean [1]</text><ellipse cx="659.86" cy="437.6994" fill="#84BE84" rx="3" ry="3" style="stroke:#038048;stroke-width:1;"/><text fill="#808080" font-family="sans-serif" font-size="14" lengthAdjust="spacing" textLength="286.8729" x="668.86" y="441.5614">valid_iso8601_time( s : String [1] ) : Boolean [1]</text><ellipse cx="659.86" cy="454.4993" fill="#84BE84" rx="3" ry="3" style="stroke:#038048;stroke-width:1;"/><text fill="#808080" font-family="sans-serif" font-size="14" lengthAdjust="spacing" textLength="321.4667" x="668.86" y="458.3613">valid_iso8601_date_time( s : String [1] ) : Boolean [1]</text><ellipse cx="659.86" cy="471.2992" fill="#84BE84" rx="3" ry="3" style="stroke:#038048;stroke-width:1;"/><text fill="#808080" font-family="sans-serif" font-size="14" lengthAdjust="spacing" textLength="311.1908" x="668.86" y="475.1612">valid_iso8601_duration( s : String [1] ) : Boolean [1]</text></g><!--reverse link DATA_VALUE to DV_ORDERED--><g class="link" data-entity-1="DATA_VALUE" data-entity-2="DV_ORDERED" data-source-line="50" data-uid="lnk8" id="link_DATA_VALUE_DV_ORDERED"><path codeLine="50" d="M246.61,140.31 C246.61,175.71 246.61,227.1 246.61,282.62" fill="none" id="DATA_VALUE-backto-DV_ORDERED" style="stroke:#181818;stroke-width:1;"/><polygon fill="none" points="246.61,122.31,240.61,140.31,252.61,140.31,246.61,122.31" style="stroke:#181818;stroke-width:1;"/></g><!--reverse link Ordered to DV_ORDERED--><g class="link" data-entity-1="Ordered" data-entity-2="DV_ORDERED" data-source-line="59" data-uid="lnk10" id="link_Ordered_DV_ORDERED"><path codeLine="59" d="M431.3643,201.7708 C397.3043,231.8308 373.1,253.19 339.8,282.57" fill="none" id="Ordered-backto-DV_ORDERED" style="stroke:#181818;stroke-width:1;"/><polygon fill="none" points="444.86,189.86,427.3941,197.2722,435.3346,206.2693,444.86,189.86" style="stroke:#181818;stroke-width:1;"/></g><!--reverse link DV_ORDERED to DV_QUANTIFIED--><g class="link" data-entity-1="DV_ORDERED" data-entity-2="DV_QUANTIFIED" data-source-line="61" data-uid="lnk11" id="link_DV_ORDERED_DV_QUANTIFIED"><path codeLine="61" d="M246.61,466.89 C246.61,496.59 246.61,512.11 246.61,541.81" fill="none" id="DV_ORDERED-backto-DV_QUANTIFIED" style="stroke:#181818;stroke-width:1;"/><polygon fill="none" points="246.61,448.89,240.61,466.89,252.61,466.89,246.61,448.89" style="stroke:#181818;stroke-width:1;"/></g><!--reverse link DV_QUANTIFIED to DV_ABSOLUTE_QUANTITY--><g class="link" data-entity-1="DV_QUANTIFIED" data-entity-2="DV_ABSOLUTE_QUANTITY" data-source-line="63" data-uid="lnk12" id="link_DV_QUANTIFIED_DV_ABSOLUTE_QUANTITY"><path codeLine="63" d="M246.61,726.13 C246.61,746.07 246.61,748.95 246.61,767.43" fill="none" id="DV_QUANTIFIED-backto-DV_ABSOLUTE_QUANTITY" style="stroke:#181818;stroke-width:1;"/><polygon fill="none" points="246.61,708.13,240.61,726.13,252.61,726.13,246.61,708.13" style="stroke:#181818;stroke-width:1;"/></g><!--reverse link DV_ABSOLUTE_QUANTITY to DV_TEMPORAL--><g class="link" data-entity-1="DV_ABSOLUTE_QUANTITY" data-entity-2="DV_TEMPORAL" data-source-line="65" data-uid="lnk13" id="link_DV_ABSOLUTE_QUANTITY_DV_TEMPORAL"><path codeLine="65" d="M246.61,901.48 C246.61,944.1 246.61,984.1 246.61,1026.68" fill="none" id="DV_ABSOLUTE_QUANTITY-backto-DV_TEMPORAL" style="stroke:#181818;stroke-width:1;"/><polygon fill="none" points="246.61,883.48,240.61,901.48,252.61,901.48,246.61,883.48" style="stroke:#181818;stroke-width:1;"/></g><!--reverse link DV_TEMPORAL to DV_DATE--><g class="link" data-entity-1="DV_TEMPORAL" data-entity-2="DV_DATE" data-source-line="67" data-uid="lnk14" id="link_DV_TEMPORAL_DV_DATE"><path codeLine="67" d="M300.4097,1156.7151 C331.2297,1197.4551 362.56,1238.86 398.02,1285.74" fill="none" id="DV_TEMPORAL-backto-DV_DATE" style="stroke:#181818;stroke-width:1;"/><polygon fill="none" points="289.55,1142.36,295.6246,1160.3349,305.1947,1153.0952,289.55,1142.36" style="stroke:#181818;stroke-width:1;"/></g><!--reverse link Ordered to Temporal--><g class="link" data-entity-1="Ordered" data-entity-2="Temporal" data-source-line="102" data-uid="lnk18" id="link_Ordered_Temporal"><path codeLine="102" d="M555.7912,207.8092 C559.8412,261.6092 563.31,307.76 565.85,341.45" fill="none" id="Ordered-backto-Temporal" style="stroke:#181818;stroke-width:1;"/><polygon fill="none" points="554.44,189.86,549.8081,208.2596,561.7743,207.3588,554.44,189.86" style="stroke:#181818;stroke-width:1;"/></g><!--reverse link Temporal to Iso8601_type--><g class="link" data-entity-1="Temporal" data-entity-2="Iso8601_type" data-source-line="104" data-uid="lnk19" id="link_Temporal_Iso8601_type"><path codeLine="104" d="M585.9385,406.4161 C605.2185,448.0861 638.45,519.91 664.08,575.3" fill="none" id="Temporal-backto-Iso8601_type" style="stroke:#181818;stroke-width:1;"/><polygon fill="none" points="578.38,390.08,580.4931,408.9356,591.3838,403.8967,578.38,390.08" style="stroke:#181818;stroke-width:1;"/></g><!--reverse link Time_Definitions to Iso8601_type--><g class="link" data-entity-1="Time_Definitions" data-entity-2="Iso8601_type" data-source-line="120" data-uid="lnk21" id="link_Time_Definitions_Iso8601_type"><path codeLine="120" d="M777.7991,497.2224 C754.2991,529.8924 740.52,549.06 721.57,575.4" fill="none" id="Time_Definitions-backto-Iso8601_type" style="stroke:#181818;stroke-width:1;"/><polygon fill="none" points="788.31,482.61,772.9283,493.7187,782.6699,500.726,788.31,482.61" style="stroke:#181818;stroke-width:1;"/></g><!--reverse link Iso8601_type to Iso8601_date--><g class="link" data-entity-1="Iso8601_type" data-entity-2="Iso8601_date" data-source-line="122" data-uid="lnk22" id="link_Iso8601_type_Iso8601_date"><path codeLine="122" d="M686.61,692.54 C686.61,755.91 686.61,851.52 686.61,942.96" fill="none" id="Iso8601_type-backto-Iso8601_date" style="stroke:#181818;stroke-width:1;"/><polygon fill="none" points="686.61,674.54,680.61,692.54,692.61,692.54,686.61,674.54" style="stroke:#181818;stroke-width:1;"/></g><!--reverse link Iso8601_date to DV_DATE--><g class="link" data-entity-1="Iso8601_date" data-entity-2="DV_DATE" data-source-line="124" data-uid="lnk23" id="link_Iso8601_date_DV_DATE"><path codeLine="124" d="M569.2901,1240.6749 C553.9401,1260.9649 549.35,1267.03 535.01,1285.99" fill="none" id="Iso8601_date-backto-DV_DATE" style="stroke:#181818;stroke-width:1;"/><polygon fill="none" points="580.15,1226.32,564.5051,1237.0549,574.0751,1244.2948,580.15,1226.32" style="stroke:#181818;stroke-width:1;"/></g></g></svg>
