<svg xmlns="http://www.w3.org/2000/svg" xmlns:xlink="http://www.w3.org/1999/xlink" contentStyleType="text/css" data-diagram-type="CLASS" height="362px" preserveAspectRatio="none" style="width:190px;height:362px;background:#FFFFFF;" version="1.1" viewBox="0 0 190 362" width="190px" zoomAndPan="magnify"><defs/><g><!--class DV_EHR_URI--><g class="entity" data-entity="DV_EHR_URI" data-source-line="2" data-uid="ent0002" id="entity_DV_EHR_URI"><rect fill="#F1F1F1" height="48" rx="2.5" ry="2.5" style="stroke:#181818;stroke-width:0.5;" width="113.1577" x="38.82" y="307"/><ellipse cx="53.82" cy="323" fill="#ADD1B2" rx="11" ry="11" style="stroke:#181818;stroke-width:1;"/><path d="M53.82,329.4219 C54.9919,329.4219 56.2263,329.1563 57.6013,328.5469 L57.1169,327.0313 C56.0231,327.4531 55.0075,327.6406 54.1481,327.6406 C51.4294,327.6406 49.7106,325.7969 49.7106,322.8906 C49.7106,320.1406 51.2731,318.5469 54.0075,318.5469 C54.9294,318.5469 55.945,318.7344 57.0856,319.1563 L57.6638,317.6406 C56.57,317.0625 55.2731,316.7656 54.0856,316.7656 C50.32,316.7656 47.7419,319.4063 47.7419,323.2188 C47.7419,326.8906 50.2263,329.4219 53.82,329.4219 Z " fill="#000000"/><text fill="#000000" font-family="sans-serif" font-size="14" lengthAdjust="spacing" textLength="81.1577" x="67.82" y="328.362">DV_EHR_URI</text><line style="stroke:#181818;stroke-width:0.5;" x1="39.82" x2="150.9777" y1="339" y2="339"/><line style="stroke:#181818;stroke-width:0.5;" x1="39.82" x2="150.9777" y1="347" y2="347"/></g><!--class DV_URI--><g class="entity" data-entity="DV_URI" data-source-line="5" data-uid="ent0003" id="entity_DV_URI"><rect fill="#F5F5F5" height="131.9996" rx="2.5" ry="2.5" style="stroke:#808080;stroke-width:1;stroke-dasharray:1,3;" width="176.8074" x="7" y="115"/><ellipse cx="67.5498" cy="131" fill="#ADD1B2" rx="11" ry="11" style="stroke:#181818;stroke-width:1;"/><path d="M67.5498,137.4219 C68.7217,137.4219 69.956,137.1563 71.331,136.5469 L70.8467,135.0313 C69.7529,135.4531 68.7373,135.6406 67.8779,135.6406 C65.1592,135.6406 63.4404,133.7969 63.4404,130.8906 C63.4404,128.1406 65.0029,126.5469 67.7373,126.5469 C68.6592,126.5469 69.6748,126.7344 70.8154,127.1563 L71.3935,125.6406 C70.2998,125.0625 69.0029,124.7656 67.8154,124.7656 C64.0498,124.7656 61.4717,127.4063 61.4717,131.2188 C61.4717,134.8906 63.956,137.4219 67.5498,137.4219 Z " fill="#000000"/><text fill="#808080" font-family="sans-serif" font-size="14" lengthAdjust="spacing" textLength="47.2078" x="88.0498" y="136.362">DV_URI</text><line style="stroke:#808080;stroke-width:1;stroke-dasharray:1,3;" x1="8" x2="182.8074" y1="147" y2="147"/><ellipse cx="18" cy="160.9" fill="none" rx="3" ry="3" style="stroke:#038048;stroke-width:1;"/><text fill="#808080" font-family="sans-serif" font-size="14" lengthAdjust="spacing" textLength="98.9656" x="27" y="164.7619">value : String [1]</text><line style="stroke:#808080;stroke-width:1;stroke-dasharray:1,3;" x1="8" x2="182.8074" y1="171.7999" y2="171.7999"/><ellipse cx="18" cy="185.6999" fill="#84BE84" rx="3" ry="3" style="stroke:#038048;stroke-width:1;"/><text fill="#808080" font-family="sans-serif" font-size="14" lengthAdjust="spacing" textLength="122.5695" x="27" y="189.5619">scheme() : String [1]</text><ellipse cx="18" cy="202.4998" fill="#84BE84" rx="3" ry="3" style="stroke:#038048;stroke-width:1;"/><text fill="#808080" font-family="sans-serif" font-size="14" lengthAdjust="spacing" textLength="102.5636" x="27" y="206.3618">path() : String [1]</text><ellipse cx="18" cy="219.2997" fill="#84BE84" rx="3" ry="3" style="stroke:#038048;stroke-width:1;"/><text fill="#808080" font-family="sans-serif" font-size="14" lengthAdjust="spacing" textLength="150.8074" x="27" y="223.1617">fragment_id() : String [1]</text><ellipse cx="18" cy="236.0997" fill="#84BE84" rx="3" ry="3" style="stroke:#038048;stroke-width:1;"/><text fill="#808080" font-family="sans-serif" font-size="14" lengthAdjust="spacing" textLength="109.5916" x="27" y="239.9616">query() : String [1]</text></g><!--class DATA_VALUE--><g class="entity" data-entity="DATA_VALUE" data-source-line="13" data-uid="ent0004" id="entity_DATA_VALUE"><rect fill="#F5F5F5" height="48" rx="2.5" ry="2.5" style="stroke:#808080;stroke-width:1;stroke-dasharray:1,3;" width="116.2657" x="37.27" y="7"/><ellipse cx="52.27" cy="23" fill="#A9DCDF" rx="11" ry="11" style="stroke:#181818;stroke-width:1;"/><path d="M46.7856,28.5 L48.8169,28.5 L52.8637,17.1563 L51.9575,17.1563 L55.7856,28.5 L57.9262,28.5 L53.5981,16.1719 L51.3794,16.1719 L46.7856,28.5 Z M49.1137,25 L55.5512,25 L55.5512,23.25 L49.1137,23.25 L49.1137,25 Z " fill="#000000"/><text fill="#808080" font-family="sans-serif" font-size="14" font-style="italic" lengthAdjust="spacing" textLength="84.2657" x="66.27" y="28.362">DATA_VALUE</text><line style="stroke:#808080;stroke-width:1;stroke-dasharray:1,3;" x1="38.27" x2="152.5357" y1="39" y2="39"/><line style="stroke:#808080;stroke-width:1;stroke-dasharray:1,3;" x1="38.27" x2="152.5357" y1="47" y2="47"/></g><!--reverse link DATA_VALUE to DV_URI--><g class="link" data-entity-1="DATA_VALUE" data-entity-2="DV_URI" data-source-line="16" data-uid="lnk5" id="link_DATA_VALUE_DV_URI"><path codeLine="16" d="M95.4,73.45 C95.4,89.51 95.4,93.65 95.4,114.81" fill="none" id="DATA_VALUE-backto-DV_URI" style="stroke:#181818;stroke-width:1;"/><polygon fill="none" points="95.4,55.45,89.4,73.45,101.4,73.45,95.4,55.45" style="stroke:#181818;stroke-width:1;"/></g><!--reverse link DV_URI to DV_EHR_URI--><g class="link" data-entity-1="DV_URI" data-entity-2="DV_EHR_URI" data-source-line="18" data-uid="lnk6" id="link_DV_URI_DV_EHR_URI"><path codeLine="18" d="M95.4,265.35 C95.4,286.56 95.4,290.74 95.4,306.78" fill="none" id="DV_URI-backto-DV_EHR_URI" style="stroke:#181818;stroke-width:1;"/><polygon fill="none" points="95.4,247.35,89.4,265.35,101.4,265.35,95.4,247.35" style="stroke:#181818;stroke-width:1;"/></g></g></svg>
