<svg xmlns="http://www.w3.org/2000/svg" xmlns:xlink="http://www.w3.org/1999/xlink" contentStyleType="text/css" data-diagram-type="CLASS" height="395px" preserveAspectRatio="none" style="width:277px;height:395px;background:#FFFFFF;" version="1.1" viewBox="0 0 277 395" width="277px" zoomAndPan="magnify"><defs/><g><!--class DV_GENERAL_TIME_SPECIFICATION--><g class="entity" data-entity="DV_GENERAL_TIME_SPECIFICATION" data-source-line="2" data-uid="ent0002" id="entity_DV_GENERAL_TIME_SPECIFICATION"><rect fill="#F1F1F1" height="98.3998" rx="2.5" ry="2.5" style="stroke:#181818;stroke-width:0.5;" width="263.8111" x="7" y="290.2"/><ellipse cx="22" cy="306.2" fill="#ADD1B2" rx="11" ry="11" style="stroke:#181818;stroke-width:1;"/><path d="M22,312.6219 C23.1719,312.6219 24.4063,312.3563 25.7813,311.7469 L25.2969,310.2313 C24.2031,310.6531 23.1875,310.8406 22.3281,310.8406 C19.6094,310.8406 17.8906,308.9969 17.8906,306.0906 C17.8906,303.3406 19.4531,301.7469 22.1875,301.7469 C23.1094,301.7469 24.125,301.9344 25.2656,302.3563 L25.8438,300.8406 C24.75,300.2625 23.4531,299.9656 22.2656,299.9656 C18.5,299.9656 15.9219,302.6063 15.9219,306.4188 C15.9219,310.0906 18.4063,312.6219 22,312.6219 Z " fill="#000000"/><text fill="#000000" font-family="sans-serif" font-size="14" lengthAdjust="spacing" textLength="231.8111" x="36" y="311.562">DV_GENERAL_TIME_SPECIFICATION</text><line style="stroke:#181818;stroke-width:0.5;" x1="8" x2="269.8111" y1="322.2" y2="322.2"/><line style="stroke:#181818;stroke-width:0.5;" x1="8" x2="269.8111" y1="330.2" y2="330.2"/><ellipse cx="18" cy="344.1" fill="#84BE84" rx="3" ry="3" style="stroke:#038048;stroke-width:1;"/><text fill="#000000" font-family="sans-serif" font-size="14" lengthAdjust="spacing" textLength="197.9732" x="27" y="347.9619">calendar_alignment() : String [1]</text><ellipse cx="18" cy="360.8999" fill="#84BE84" rx="3" ry="3" style="stroke:#038048;stroke-width:1;"/><text fill="#000000" font-family="sans-serif" font-size="14" lengthAdjust="spacing" textLength="179.1153" x="27" y="364.7619">event_alignment() : String [1]</text><ellipse cx="18" cy="377.6998" fill="#84BE84" rx="3" ry="3" style="stroke:#038048;stroke-width:1;"/><text fill="#000000" font-family="sans-serif" font-size="14" lengthAdjust="spacing" textLength="214.1152" x="27" y="381.5618">institution_specified() : Boolean [1]</text></g><!--class DV_TIME_SPECIFICATION--><g class="entity" data-entity="DV_TIME_SPECIFICATION" data-source-line="8" data-uid="ent0003" id="entity_DV_TIME_SPECIFICATION"><rect fill="#F5F5F5" height="115.1997" rx="2.5" ry="2.5" style="stroke:#808080;stroke-width:1;stroke-dasharray:1,3;" width="240.1152" x="18.85" y="115"/><ellipse cx="53.9622" cy="131" fill="#A9DCDF" rx="11" ry="11" style="stroke:#181818;stroke-width:1;"/><path d="M48.4778,136.5 L50.5091,136.5 L54.556,125.1563 L53.6497,125.1563 L57.4778,136.5 L59.6185,136.5 L55.2903,124.1719 L53.0716,124.1719 L48.4778,136.5 Z M50.806,133 L57.2435,133 L57.2435,131.25 L50.806,131.25 L50.806,133 Z " fill="#000000"/><text fill="#808080" font-family="sans-serif" font-size="14" font-style="italic" lengthAdjust="spacing" textLength="163.4214" x="72.4316" y="136.362">DV_TIME_SPECIFICATION</text><line style="stroke:#808080;stroke-width:1;stroke-dasharray:1,3;" x1="19.85" x2="257.9652" y1="147" y2="147"/><ellipse cx="29.85" cy="160.9" fill="none" rx="3" ry="3" style="stroke:#038048;stroke-width:1;"/><text fill="#808080" font-family="sans-serif" font-size="14" lengthAdjust="spacing" textLength="153.2154" x="38.85" y="164.7619">value : DV_PARSABLE [1]</text><line style="stroke:#808080;stroke-width:1;stroke-dasharray:1,3;" x1="19.85" x2="257.9652" y1="171.7999" y2="171.7999"/><ellipse cx="29.85" cy="185.6999" fill="#84BE84" rx="3" ry="3" style="stroke:#038048;stroke-width:1;"/><text fill="#808080" font-family="sans-serif" font-size="14" font-style="italic" lengthAdjust="spacing" textLength="197.9732" x="38.85" y="189.5619">calendar_alignment() : String [1]</text><ellipse cx="29.85" cy="202.4998" fill="#84BE84" rx="3" ry="3" style="stroke:#038048;stroke-width:1;"/><text fill="#808080" font-family="sans-serif" font-size="14" font-style="italic" lengthAdjust="spacing" textLength="179.1153" x="38.85" y="206.3618">event_alignment() : String [1]</text><ellipse cx="29.85" cy="219.2997" fill="#84BE84" rx="3" ry="3" style="stroke:#038048;stroke-width:1;"/><text fill="#808080" font-family="sans-serif" font-size="14" font-style="italic" lengthAdjust="spacing" textLength="214.1152" x="38.85" y="223.1617">institution_specified() : Boolean [1]</text></g><!--class DATA_VALUE--><g class="entity" data-entity="DATA_VALUE" data-source-line="15" data-uid="ent0004" id="entity_DATA_VALUE"><rect fill="#F5F5F5" height="48" rx="2.5" ry="2.5" style="stroke:#808080;stroke-width:1;stroke-dasharray:1,3;" width="116.2657" x="80.77" y="7"/><ellipse cx="95.77" cy="23" fill="#A9DCDF" rx="11" ry="11" style="stroke:#181818;stroke-width:1;"/><path d="M90.2856,28.5 L92.3169,28.5 L96.3638,17.1563 L95.4575,17.1563 L99.2856,28.5 L101.4263,28.5 L97.0981,16.1719 L94.8794,16.1719 L90.2856,28.5 Z M92.6138,25 L99.0513,25 L99.0513,23.25 L92.6138,23.25 L92.6138,25 Z " fill="#000000"/><text fill="#808080" font-family="sans-serif" font-size="14" font-style="italic" lengthAdjust="spacing" textLength="84.2657" x="109.77" y="28.362">DATA_VALUE</text><line style="stroke:#808080;stroke-width:1;stroke-dasharray:1,3;" x1="81.77" x2="196.0357" y1="39" y2="39"/><line style="stroke:#808080;stroke-width:1;stroke-dasharray:1,3;" x1="81.77" x2="196.0357" y1="47" y2="47"/></g><!--reverse link DATA_VALUE to DV_TIME_SPECIFICATION--><g class="link" data-entity-1="DATA_VALUE" data-entity-2="DV_TIME_SPECIFICATION" data-source-line="18" data-uid="lnk5" id="link_DATA_VALUE_DV_TIME_SPECIFICATION"><path codeLine="18" d="M138.91,73.37 C138.91,89.59 138.91,93.93 138.91,114.7" fill="none" id="DATA_VALUE-backto-DV_TIME_SPECIFICATION" style="stroke:#181818;stroke-width:1;"/><polygon fill="none" points="138.91,55.37,132.91,73.37,144.91,73.37,138.91,55.37" style="stroke:#181818;stroke-width:1;"/></g><!--reverse link DV_TIME_SPECIFICATION to DV_GENERAL_TIME_SPECIFICATION--><g class="link" data-entity-1="DV_TIME_SPECIFICATION" data-entity-2="DV_GENERAL_TIME_SPECIFICATION" data-source-line="20" data-uid="lnk6" id="link_DV_TIME_SPECIFICATION_DV_GENERAL_TIME_SPECIFICATION"><path codeLine="20" d="M138.91,248.32 C138.91,267.68 138.91,271.15 138.91,289.82" fill="none" id="DV_TIME_SPECIFICATION-backto-DV_GENERAL_TIME_SPECIFICATION" style="stroke:#181818;stroke-width:1;"/><polygon fill="none" points="138.91,230.32,132.91,248.32,144.91,248.32,138.91,230.32" style="stroke:#181818;stroke-width:1;"/></g></g></svg>
