<svg xmlns="http://www.w3.org/2000/svg" xmlns:xlink="http://www.w3.org/1999/xlink" contentStyleType="text/css" data-diagram-type="CLASS" height="354px" preserveAspectRatio="none" style="width:582px;height:354px;background:#FFFFFF;" version="1.1" viewBox="0 0 582 354" width="582px" zoomAndPan="magnify"><defs/><g><!--class DV_ORDERED--><g class="entity" data-entity="DV_ORDERED" data-source-line="2" data-uid="ent0002" id="entity_DV_ORDERED"><rect fill="#F1F1F1" height="165.5995" rx="2.5" ry="2.5" style="stroke:#181818;stroke-width:0.5;" width="479.2201" x="7" y="182.2"/><ellipse cx="197.5322" cy="198.2" fill="#A9DCDF" rx="11" ry="11" style="stroke:#181818;stroke-width:1;"/><path d="M192.0479,203.7 L194.0791,203.7 L198.126,192.3563 L197.2197,192.3563 L201.0479,203.7 L203.1885,203.7 L198.8604,191.3719 L196.6416,191.3719 L192.0479,203.7 Z M194.376,200.2 L200.8135,200.2 L200.8135,198.45 L194.376,198.45 L194.376,200.2 Z " fill="#000000"/><text fill="#000000" font-family="sans-serif" font-size="14" font-style="italic" lengthAdjust="spacing" textLength="89.6556" x="218.0322" y="203.562">DV_ORDERED</text><line style="stroke:#181818;stroke-width:0.5;" x1="8" x2="485.2201" y1="214.2" y2="214.2"/><ellipse cx="18" cy="228.1" fill="none" rx="3" ry="3" style="stroke:#038048;stroke-width:1;"/><text fill="#000000" font-family="sans-serif" font-size="14" lengthAdjust="spacing" textLength="230.5231" x="27" y="231.9619">normal_status : CODE_PHRASE [0..1]</text><ellipse cx="18" cy="244.8999" fill="none" rx="3" ry="3" style="stroke:#038048;stroke-width:1;"/><text fill="#000000" font-family="sans-serif" font-size="14" lengthAdjust="spacing" textLength="220.3871" x="27" y="248.7619">normal_range : DV_INTERVAL [0..1]</text><ellipse cx="18" cy="261.6998" fill="none" rx="3" ry="3" style="stroke:#038048;stroke-width:1;"/><text fill="#000000" font-family="sans-serif" font-size="14" lengthAdjust="spacing" textLength="453.2201" x="27" y="265.5618">other_reference_ranges : List&lt;REFERENCE_RANGE&lt;DV_ORDERED&gt;&gt; [*]</text><line style="stroke:#181818;stroke-width:0.5;" x1="8" x2="485.2201" y1="272.5998" y2="272.5998"/><ellipse cx="18" cy="286.4997" fill="#84BE84" rx="3" ry="3" style="stroke:#038048;stroke-width:1;"/><text fill="#000000" font-family="sans-serif" font-size="14" font-style="italic" lengthAdjust="spacing" textLength="406.1805" x="27" y="290.3617">is_strictly_comparable_to( other : DV_ORDERED [1] ) : Boolean [1]</text><ellipse cx="18" cy="303.2997" fill="#84BE84" rx="3" ry="3" style="stroke:#038048;stroke-width:1;"/><text fill="#000000" font-family="sans-serif" font-size="14" lengthAdjust="spacing" textLength="146.6214" x="27" y="307.1616">is_simple() : Boolean [1]</text><ellipse cx="18" cy="320.0996" fill="#84BE84" rx="3" ry="3" style="stroke:#038048;stroke-width:1;"/><text fill="#000000" font-family="sans-serif" font-size="14" lengthAdjust="spacing" textLength="149.6174" x="27" y="323.9616">is_normal() : Boolean [1]</text><ellipse cx="18" cy="336.8995" fill="#84BE84" rx="3" ry="3" style="stroke:#038048;stroke-width:1;"/><text fill="#000000" font-family="sans-serif" font-size="14" font-style="italic" lengthAdjust="spacing" textLength="305.3948" x="27" y="340.7615">less_than( other : DV_ORDERED [1] ) : Boolean [1]</text></g><!--class DATA_VALUE--><g class="entity" data-entity="DATA_VALUE" data-source-line="12" data-uid="ent0003" id="entity_DATA_VALUE"><rect fill="#F5F5F5" height="48" rx="2.5" ry="2.5" style="stroke:#808080;stroke-width:1;stroke-dasharray:1,3;" width="116.2657" x="48.48" y="40.6"/><ellipse cx="63.48" cy="56.6" fill="#A9DCDF" rx="11" ry="11" style="stroke:#181818;stroke-width:1;"/><path d="M57.9956,62.1 L60.0269,62.1 L64.0737,50.7563 L63.1675,50.7563 L66.9956,62.1 L69.1362,62.1 L64.8081,49.7719 L62.5894,49.7719 L57.9956,62.1 Z M60.3238,58.6 L66.7612,58.6 L66.7612,56.85 L60.3238,56.85 L60.3238,58.6 Z " fill="#000000"/><text fill="#808080" font-family="sans-serif" font-size="14" font-style="italic" lengthAdjust="spacing" textLength="84.2657" x="77.48" y="61.962">DATA_VALUE</text><line style="stroke:#808080;stroke-width:1;stroke-dasharray:1,3;" x1="49.48" x2="163.7457" y1="72.6" y2="72.6"/><line style="stroke:#808080;stroke-width:1;stroke-dasharray:1,3;" x1="49.48" x2="163.7457" y1="80.6" y2="80.6"/></g><!--class Ordered--><g class="entity" data-entity="Ordered" data-source-line="17" data-uid="ent0005" id="entity_Ordered"><rect fill="#F5F5F5" height="115.1997" rx="2.5" ry="2.5" style="stroke:#808080;stroke-width:1;stroke-dasharray:1,3;" width="376.4047" x="199.41" y="7"/><ellipse cx="357.3924" cy="23" fill="#A9DCDF" rx="11" ry="11" style="stroke:#181818;stroke-width:1;"/><path d="M351.9081,28.5 L353.9393,28.5 L357.9862,17.1563 L357.0799,17.1563 L360.9081,28.5 L363.0487,28.5 L358.7206,16.1719 L356.5018,16.1719 L351.9081,28.5 Z M354.2362,25 L360.6737,25 L360.6737,23.25 L354.2362,23.25 L354.2362,25 Z " fill="#000000"/><text fill="#808080" font-family="sans-serif" font-size="14" font-style="italic" lengthAdjust="spacing" textLength="51.9398" x="377.8924" y="28.362">Ordered</text><line style="stroke:#808080;stroke-width:1;stroke-dasharray:1,3;" x1="200.41" x2="574.8147" y1="39" y2="39"/><line style="stroke:#808080;stroke-width:1;stroke-dasharray:1,3;" x1="200.41" x2="574.8147" y1="47" y2="47"/><ellipse cx="210.41" cy="60.9" fill="#84BE84" rx="3" ry="3" style="stroke:#038048;stroke-width:1;"/><text fill="#808080" font-family="sans-serif" font-size="14" font-style="italic" lengthAdjust="spacing" textLength="267.679" x="219.41" y="64.7619">less_than( other : Ordered [1] ) : Boolean [1]</text><ellipse cx="210.41" cy="77.6999" fill="#84BE84" rx="3" ry="3" style="stroke:#038048;stroke-width:1;"/><text fill="#808080" font-family="sans-serif" font-size="14" lengthAdjust="spacing" textLength="329.1387" x="219.41" y="81.5619">less_than_or_equal( other : Ordered [1] ) : Boolean [1]</text><ellipse cx="210.41" cy="94.4998" fill="#84BE84" rx="3" ry="3" style="stroke:#038048;stroke-width:1;"/><text fill="#808080" font-family="sans-serif" font-size="14" lengthAdjust="spacing" textLength="288.9449" x="219.41" y="98.3618">greater_than( other : Ordered [1] ) : Boolean [1]</text><ellipse cx="210.41" cy="111.2997" fill="#84BE84" rx="3" ry="3" style="stroke:#038048;stroke-width:1;"/><text fill="#808080" font-family="sans-serif" font-size="14" lengthAdjust="spacing" textLength="350.4047" x="219.41" y="115.1617">greater_than_or_equal( other : Ordered [1] ) : Boolean [1]</text></g><!--reverse link DATA_VALUE to DV_ORDERED--><g class="link" data-entity-1="DATA_VALUE" data-entity-2="DV_ORDERED" data-source-line="15" data-uid="lnk4" id="link_DATA_VALUE_DV_ORDERED"><path codeLine="15" d="M133.3213,103.4547 C149.4813,126.3447 164.79,148.05 188.58,181.76" fill="none" id="DATA_VALUE-backto-DV_ORDERED" style="stroke:#181818;stroke-width:1;"/><polygon fill="none" points="122.94,88.75,128.4197,106.9151,138.2229,99.9943,122.94,88.75" style="stroke:#181818;stroke-width:1;"/></g><!--reverse link Ordered to DV_ORDERED--><g class="link" data-entity-1="Ordered" data-entity-2="DV_ORDERED" data-source-line="24" data-uid="lnk6" id="link_Ordered_DV_ORDERED"><path codeLine="24" d="M336.7792,137.1196 C323.5892,155.6696 319.11,161.99 304.88,182" fill="none" id="Ordered-backto-DV_ORDERED" style="stroke:#181818;stroke-width:1;"/><polygon fill="none" points="347.21,122.45,331.8893,133.6427,341.669,140.5966,347.21,122.45" style="stroke:#181818;stroke-width:1;"/></g></g></svg>
