<svg xmlns="http://www.w3.org/2000/svg" xmlns:xlink="http://www.w3.org/1999/xlink" contentStyleType="text/css" data-diagram-type="CLASS" height="529px" preserveAspectRatio="none" style="width:582px;height:529px;background:#FFFFFF;" version="1.1" viewBox="0 0 582 529" width="582px" zoomAndPan="magnify"><defs/><g><!--class DV_SCALE--><g class="entity" data-entity="DV_SCALE" data-source-line="2" data-uid="ent0002" id="entity_DV_SCALE"><rect fill="#F1F1F1" height="115.1997" rx="2.5" ry="2.5" style="stroke:#181818;stroke-width:0.5;" width="408.7166" x="42.25" y="407.8"/><ellipse cx="209.2624" cy="423.8" fill="#ADD1B2" rx="11" ry="11" style="stroke:#181818;stroke-width:1;"/><path d="M209.2624,430.2219 C210.4343,430.2219 211.6687,429.9563 213.0437,429.3469 L212.5593,427.8313 C211.4656,428.2531 210.4499,428.4406 209.5906,428.4406 C206.8718,428.4406 205.1531,426.5969 205.1531,423.6906 C205.1531,420.9406 206.7156,419.3469 209.4499,419.3469 C210.3718,419.3469 211.3874,419.5344 212.5281,419.9563 L213.1062,418.4406 C212.0124,417.8625 210.7156,417.5656 209.5281,417.5656 C205.7624,417.5656 203.1843,420.2063 203.1843,424.0188 C203.1843,427.6906 205.6687,430.2219 209.2624,430.2219 Z " fill="#000000"/><text fill="#000000" font-family="sans-serif" font-size="14" lengthAdjust="spacing" textLength="66.1917" x="229.7624" y="429.162">DV_SCALE</text><line style="stroke:#181818;stroke-width:0.5;" x1="43.25" x2="449.9666" y1="439.8" y2="439.8"/><ellipse cx="53.25" cy="453.7" fill="none" rx="3" ry="3" style="stroke:#038048;stroke-width:1;"/><text fill="#000000" font-family="sans-serif" font-size="14" lengthAdjust="spacing" textLength="186.4932" x="62.25" y="457.5619">symbol : DV_CODED_TEXT [1]</text><ellipse cx="53.25" cy="470.4999" fill="none" rx="3" ry="3" style="stroke:#038048;stroke-width:1;"/><text fill="#000000" font-family="sans-serif" font-size="14" lengthAdjust="spacing" textLength="88.6616" x="62.25" y="474.3619">value : Real [1]</text><line style="stroke:#181818;stroke-width:0.5;" x1="43.25" x2="449.9666" y1="481.3999" y2="481.3999"/><ellipse cx="53.25" cy="495.2998" fill="#84BE84" rx="3" ry="3" style="stroke:#038048;stroke-width:1;"/><text fill="#000000" font-family="sans-serif" font-size="14" lengthAdjust="spacing" textLength="382.7166" x="62.25" y="499.1618">is_strictly_comparable_to( other : DV_SCALE [1] ) : Boolean [1]</text><ellipse cx="53.25" cy="512.0997" fill="#84BE84" rx="3" ry="3" style="stroke:#038048;stroke-width:1;"/><text fill="#000000" font-family="sans-serif" font-size="14" lengthAdjust="spacing" textLength="281.9309" x="62.25" y="515.9617">less_than( other : DV_SCALE [1] ) : Boolean [1]</text></g><!--class DV_ORDERED--><g class="entity" data-entity="DV_ORDERED" data-source-line="9" data-uid="ent0003" id="entity_DV_ORDERED"><rect fill="#F5F5F5" height="165.5995" rx="2.5" ry="2.5" style="stroke:#808080;stroke-width:1;stroke-dasharray:1,3;" width="479.2201" x="7" y="182.2"/><ellipse cx="197.5322" cy="198.2" fill="#A9DCDF" rx="11" ry="11" style="stroke:#181818;stroke-width:1;"/><path d="M192.0479,203.7 L194.0791,203.7 L198.126,192.3563 L197.2197,192.3563 L201.0479,203.7 L203.1885,203.7 L198.8604,191.3719 L196.6416,191.3719 L192.0479,203.7 Z M194.376,200.2 L200.8135,200.2 L200.8135,198.45 L194.376,198.45 L194.376,200.2 Z " fill="#000000"/><text fill="#808080" font-family="sans-serif" font-size="14" font-style="italic" lengthAdjust="spacing" textLength="89.6556" x="218.0322" y="203.562">DV_ORDERED</text><line style="stroke:#808080;stroke-width:1;stroke-dasharray:1,3;" x1="8" x2="485.2201" y1="214.2" y2="214.2"/><ellipse cx="18" cy="228.1" fill="none" rx="3" ry="3" style="stroke:#038048;stroke-width:1;"/><text fill="#808080" font-family="sans-serif" font-size="14" lengthAdjust="spacing" textLength="230.5231" x="27" y="231.9619">normal_status : CODE_PHRASE [0..1]</text><ellipse cx="18" cy="244.8999" fill="none" rx="3" ry="3" style="stroke:#038048;stroke-width:1;"/><text fill="#808080" font-family="sans-serif" font-size="14" lengthAdjust="spacing" textLength="220.3871" x="27" y="248.7619">normal_range : DV_INTERVAL [0..1]</text><ellipse cx="18" cy="261.6998" fill="none" rx="3" ry="3" style="stroke:#038048;stroke-width:1;"/><text fill="#808080" font-family="sans-serif" font-size="14" lengthAdjust="spacing" textLength="453.2201" x="27" y="265.5618">other_reference_ranges : List&lt;REFERENCE_RANGE&lt;DV_ORDERED&gt;&gt; [*]</text><line style="stroke:#808080;stroke-width:1;stroke-dasharray:1,3;" x1="8" x2="485.2201" y1="272.5998" y2="272.5998"/><ellipse cx="18" cy="286.4997" fill="#84BE84" rx="3" ry="3" style="stroke:#038048;stroke-width:1;"/><text fill="#808080" font-family="sans-serif" font-size="14" font-style="italic" lengthAdjust="spacing" textLength="406.1805" x="27" y="290.3617">is_strictly_comparable_to( other : DV_ORDERED [1] ) : Boolean [1]</text><ellipse cx="18" cy="303.2997" fill="#84BE84" rx="3" ry="3" style="stroke:#038048;stroke-width:1;"/><text fill="#808080" font-family="sans-serif" font-size="14" lengthAdjust="spacing" textLength="146.6214" x="27" y="307.1616">is_simple() : Boolean [1]</text><ellipse cx="18" cy="320.0996" fill="#84BE84" rx="3" ry="3" style="stroke:#038048;stroke-width:1;"/><text fill="#808080" font-family="sans-serif" font-size="14" lengthAdjust="spacing" textLength="149.6174" x="27" y="323.9616">is_normal() : Boolean [1]</text><ellipse cx="18" cy="336.8995" fill="#84BE84" rx="3" ry="3" style="stroke:#038048;stroke-width:1;"/><text fill="#808080" font-family="sans-serif" font-size="14" font-style="italic" lengthAdjust="spacing" textLength="305.3948" x="27" y="340.7615">less_than( other : DV_ORDERED [1] ) : Boolean [1]</text></g><!--class DATA_VALUE--><g class="entity" data-entity="DATA_VALUE" data-source-line="19" data-uid="ent0004" id="entity_DATA_VALUE"><rect fill="#F5F5F5" height="48" rx="2.5" ry="2.5" style="stroke:#808080;stroke-width:1;stroke-dasharray:1,3;" width="116.2657" x="48.48" y="40.6"/><ellipse cx="63.48" cy="56.6" fill="#A9DCDF" rx="11" ry="11" style="stroke:#181818;stroke-width:1;"/><path d="M57.9956,62.1 L60.0269,62.1 L64.0737,50.7563 L63.1675,50.7563 L66.9956,62.1 L69.1362,62.1 L64.8081,49.7719 L62.5894,49.7719 L57.9956,62.1 Z M60.3238,58.6 L66.7612,58.6 L66.7612,56.85 L60.3238,56.85 L60.3238,58.6 Z " fill="#000000"/><text fill="#808080" font-family="sans-serif" font-size="14" font-style="italic" lengthAdjust="spacing" textLength="84.2657" x="77.48" y="61.962">DATA_VALUE</text><line style="stroke:#808080;stroke-width:1;stroke-dasharray:1,3;" x1="49.48" x2="163.7457" y1="72.6" y2="72.6"/><line style="stroke:#808080;stroke-width:1;stroke-dasharray:1,3;" x1="49.48" x2="163.7457" y1="80.6" y2="80.6"/></g><!--class Ordered--><g class="entity" data-entity="Ordered" data-source-line="24" data-uid="ent0006" id="entity_Ordered"><rect fill="#F5F5F5" height="115.1997" rx="2.5" ry="2.5" style="stroke:#808080;stroke-width:1;stroke-dasharray:1,3;" width="376.4047" x="199.41" y="7"/><ellipse cx="357.3924" cy="23" fill="#A9DCDF" rx="11" ry="11" style="stroke:#181818;stroke-width:1;"/><path d="M351.9081,28.5 L353.9393,28.5 L357.9862,17.1563 L357.0799,17.1563 L360.9081,28.5 L363.0487,28.5 L358.7206,16.1719 L356.5018,16.1719 L351.9081,28.5 Z M354.2362,25 L360.6737,25 L360.6737,23.25 L354.2362,23.25 L354.2362,25 Z " fill="#000000"/><text fill="#808080" font-family="sans-serif" font-size="14" font-style="italic" lengthAdjust="spacing" textLength="51.9398" x="377.8924" y="28.362">Ordered</text><line style="stroke:#808080;stroke-width:1;stroke-dasharray:1,3;" x1="200.41" x2="574.8147" y1="39" y2="39"/><line style="stroke:#808080;stroke-width:1;stroke-dasharray:1,3;" x1="200.41" x2="574.8147" y1="47" y2="47"/><ellipse cx="210.41" cy="60.9" fill="#84BE84" rx="3" ry="3" style="stroke:#038048;stroke-width:1;"/><text fill="#808080" font-family="sans-serif" font-size="14" font-style="italic" lengthAdjust="spacing" textLength="267.679" x="219.41" y="64.7619">less_than( other : Ordered [1] ) : Boolean [1]</text><ellipse cx="210.41" cy="77.6999" fill="#84BE84" rx="3" ry="3" style="stroke:#038048;stroke-width:1;"/><text fill="#808080" font-family="sans-serif" font-size="14" lengthAdjust="spacing" textLength="329.1387" x="219.41" y="81.5619">less_than_or_equal( other : Ordered [1] ) : Boolean [1]</text><ellipse cx="210.41" cy="94.4998" fill="#84BE84" rx="3" ry="3" style="stroke:#038048;stroke-width:1;"/><text fill="#808080" font-family="sans-serif" font-size="14" lengthAdjust="spacing" textLength="288.9449" x="219.41" y="98.3618">greater_than( other : Ordered [1] ) : Boolean [1]</text><ellipse cx="210.41" cy="111.2997" fill="#84BE84" rx="3" ry="3" style="stroke:#038048;stroke-width:1;"/><text fill="#808080" font-family="sans-serif" font-size="14" lengthAdjust="spacing" textLength="350.4047" x="219.41" y="115.1617">greater_than_or_equal( other : Ordered [1] ) : Boolean [1]</text></g><!--reverse link DATA_VALUE to DV_ORDERED--><g class="link" data-entity-1="DATA_VALUE" data-entity-2="DV_ORDERED" data-source-line="22" data-uid="lnk5" id="link_DATA_VALUE_DV_ORDERED"><path codeLine="22" d="M133.3183,103.4568 C149.4783,126.3568 164.79,148.05 188.58,181.76" fill="none" id="DATA_VALUE-backto-DV_ORDERED" style="stroke:#181818;stroke-width:1;"/><polygon fill="none" points="122.94,88.75,128.416,106.9163,138.2206,99.9974,122.94,88.75" style="stroke:#181818;stroke-width:1;"/></g><!--reverse link Ordered to DV_ORDERED--><g class="link" data-entity-1="Ordered" data-entity-2="DV_ORDERED" data-source-line="31" data-uid="lnk7" id="link_Ordered_DV_ORDERED"><path codeLine="31" d="M336.7792,137.1196 C323.5892,155.6696 319.11,161.99 304.88,182" fill="none" id="Ordered-backto-DV_ORDERED" style="stroke:#181818;stroke-width:1;"/><polygon fill="none" points="347.21,122.45,331.8893,133.6427,341.669,140.5966,347.21,122.45" style="stroke:#181818;stroke-width:1;"/></g><!--reverse link DV_ORDERED to DV_SCALE--><g class="link" data-entity-1="DV_ORDERED" data-entity-2="DV_SCALE" data-source-line="33" data-uid="lnk8" id="link_DV_ORDERED_DV_SCALE"><path codeLine="33" d="M246.61,366.13 C246.61,386.06 246.61,388.95 246.61,407.43" fill="none" id="DV_ORDERED-backto-DV_SCALE" style="stroke:#181818;stroke-width:1;"/><polygon fill="none" points="246.61,348.13,240.61,366.13,252.61,366.13,246.61,348.13" style="stroke:#181818;stroke-width:1;"/></g></g></svg>
