<svg xmlns="http://www.w3.org/2000/svg" xmlns:xlink="http://www.w3.org/1999/xlink" contentStyleType="text/css" data-diagram-type="CLASS" height="930px" preserveAspectRatio="none" style="width:582px;height:930px;background:#FFFFFF;" version="1.1" viewBox="0 0 582 930" width="582px" zoomAndPan="magnify"><defs/><g><!--class DV_TEMPORAL--><g class="entity" data-entity="DV_TEMPORAL" data-source-line="2" data-uid="ent0002" id="entity_DV_TEMPORAL"><rect fill="#F1F1F1" height="115.1997" rx="2.5" ry="2.5" style="stroke:#181818;stroke-width:0.5;" width="376.1106" x="58.55" y="808.6"/><ellipse cx="193.8805" cy="824.6" fill="#A9DCDF" rx="11" ry="11" style="stroke:#181818;stroke-width:1;"/><path d="M188.3961,830.1 L190.4274,830.1 L194.4742,818.7562 L193.568,818.7562 L197.3961,830.1 L199.5367,830.1 L195.2086,817.7719 L192.9899,817.7719 L188.3961,830.1 Z M190.7242,826.6 L197.1617,826.6 L197.1617,824.85 L190.7242,824.85 L190.7242,826.6 Z " fill="#000000"/><text fill="#000000" font-family="sans-serif" font-size="14" font-style="italic" lengthAdjust="spacing" textLength="96.9496" x="214.3805" y="829.962">DV_TEMPORAL</text><line style="stroke:#181818;stroke-width:0.5;" x1="59.55" x2="433.6606" y1="840.6" y2="840.6"/><ellipse cx="69.55" cy="854.5" fill="none" rx="3" ry="3" style="stroke:#038048;stroke-width:1;"/><text fill="#000000" font-family="sans-serif" font-size="14" lengthAdjust="spacing" textLength="193.0592" x="78.55" y="858.3619">accuracy : DV_DURATION [0..1]</text><line style="stroke:#181818;stroke-width:0.5;" x1="59.55" x2="433.6606" y1="865.3999" y2="865.3999"/><ellipse cx="69.55" cy="879.2999" fill="#84BE84" rx="3" ry="3" style="stroke:#038048;stroke-width:1;"/><text fill="#000000" font-family="sans-serif" font-size="14" font-style="italic" lengthAdjust="spacing" textLength="321.8587" x="78.55" y="883.1619">add( a_diff : DV_DURATION [1] ) : DV_TEMPORAL [1]</text><ellipse cx="69.55" cy="896.0998" fill="#84BE84" rx="3" ry="3" style="stroke:#038048;stroke-width:1;"/><text fill="#000000" font-family="sans-serif" font-size="14" font-style="italic" lengthAdjust="spacing" textLength="350.1106" x="78.55" y="899.9618">subtract( a_diff : DV_DURATION [1] ) : DV_TEMPORAL [1]</text><ellipse cx="69.55" cy="912.8997" fill="#84BE84" rx="3" ry="3" style="stroke:#038048;stroke-width:1;"/><text fill="#000000" font-family="sans-serif" font-size="14" font-style="italic" lengthAdjust="spacing" textLength="318.1627" x="78.55" y="916.7617">diff( other : DV_TEMPORAL [1] ) : DV_DURATION [1]</text></g><!--class DV_ABSOLUTE_QUANTITY--><g class="entity" data-entity="DV_ABSOLUTE_QUANTITY" data-source-line="9" data-uid="ent0003" id="entity_DV_ABSOLUTE_QUANTITY"><rect fill="#F5F5F5" height="115.1997" rx="2.5" ry="2.5" style="stroke:#808080;stroke-width:1;stroke-dasharray:1,3;" width="436.8282" x="28.2" y="633.4"/><ellipse cx="158.3575" cy="649.4" fill="#A9DCDF" rx="11" ry="11" style="stroke:#181818;stroke-width:1;"/><path d="M152.8731,654.9 L154.9043,654.9 L158.9512,643.5563 L158.045,643.5563 L161.8731,654.9 L164.0137,654.9 L159.6856,642.5719 L157.4668,642.5719 L152.8731,654.9 Z M155.2012,651.4 L161.6387,651.4 L161.6387,649.65 L155.2012,649.65 L155.2012,651.4 Z " fill="#000000"/><text fill="#808080" font-family="sans-serif" font-size="14" font-style="italic" lengthAdjust="spacing" textLength="168.0133" x="178.8575" y="654.762">DV_ABSOLUTE_QUANTITY</text><line style="stroke:#808080;stroke-width:1;stroke-dasharray:1,3;" x1="29.2" x2="464.0282" y1="665.4" y2="665.4"/><ellipse cx="39.2" cy="679.3" fill="none" rx="3" ry="3" style="stroke:#038048;stroke-width:1;"/><text fill="#808080" font-family="sans-serif" font-size="14" lengthAdjust="spacing" textLength="182.7133" x="48.2" y="683.1619">accuracy : DV_AMOUNT [0..1]</text><line style="stroke:#808080;stroke-width:1;stroke-dasharray:1,3;" x1="29.2" x2="464.0282" y1="690.1999" y2="690.1999"/><ellipse cx="39.2" cy="704.0999" fill="#84BE84" rx="3" ry="3" style="stroke:#038048;stroke-width:1;"/><text fill="#808080" font-family="sans-serif" font-size="14" font-style="italic" lengthAdjust="spacing" textLength="382.5764" x="48.2" y="707.9619">add( a_diff : DV_AMOUNT [1] ) : DV_ABSOLUTE_QUANTITY [1]</text><ellipse cx="39.2" cy="720.8998" fill="#84BE84" rx="3" ry="3" style="stroke:#038048;stroke-width:1;"/><text fill="#808080" font-family="sans-serif" font-size="14" font-style="italic" lengthAdjust="spacing" textLength="410.8282" x="48.2" y="724.7618">subtract( a_diff : DV_AMOUNT [1] ) : DV_ABSOLUTE_QUANTITY [1]</text><ellipse cx="39.2" cy="737.6997" fill="#84BE84" rx="3" ry="3" style="stroke:#038048;stroke-width:1;"/><text fill="#808080" font-family="sans-serif" font-size="14" font-style="italic" lengthAdjust="spacing" textLength="378.8804" x="48.2" y="741.5617">diff( other : DV_ABSOLUTE_QUANTITY [1] ) : DV_AMOUNT [1]</text></g><!--class DV_QUANTIFIED--><g class="entity" data-entity="DV_QUANTIFIED" data-source-line="16" data-uid="ent0004" id="entity_DV_QUANTIFIED"><rect fill="#F5F5F5" height="165.5995" rx="2.5" ry="2.5" style="stroke:#808080;stroke-width:1;stroke-dasharray:1,3;" width="347.9148" x="72.65" y="407.8"/><ellipse cx="189.2696" cy="423.8" fill="#A9DCDF" rx="11" ry="11" style="stroke:#181818;stroke-width:1;"/><path d="M183.7852,429.3 L185.8165,429.3 L189.8633,417.9562 L188.9571,417.9562 L192.7852,429.3 L194.9258,429.3 L190.5977,416.9719 L188.379,416.9719 L183.7852,429.3 Z M186.1133,425.8 L192.5508,425.8 L192.5508,424.05 L186.1133,424.05 L186.1133,425.8 Z " fill="#000000"/><text fill="#808080" font-family="sans-serif" font-size="14" font-style="italic" lengthAdjust="spacing" textLength="106.1756" x="209.7696" y="429.162">DV_QUANTIFIED</text><line style="stroke:#808080;stroke-width:1;stroke-dasharray:1,3;" x1="73.65" x2="419.5648" y1="439.8" y2="439.8"/><ellipse cx="83.65" cy="453.7" fill="none" rx="3" ry="3" style="stroke:#038048;stroke-width:1;"/><text fill="#808080" font-family="sans-serif" font-size="14" lengthAdjust="spacing" textLength="193.9972" x="92.65" y="457.5619">magnitude_status : String [0..1]</text><ellipse cx="83.65" cy="470.4999" fill="none" rx="3" ry="3" style="stroke:#038048;stroke-width:1;"/><text fill="#808080" font-family="sans-serif" font-size="14" lengthAdjust="spacing" textLength="121.4915" x="92.65" y="474.3619">accuracy : Any [0..1]</text><line style="stroke:#808080;stroke-width:1;stroke-dasharray:1,3;" x1="73.65" x2="419.5648" y1="481.3999" y2="481.3999"/><ellipse cx="83.65" cy="495.2998" fill="#84BE84" rx="3" ry="3" style="stroke:#038048;stroke-width:1;"/><text fill="#808080" font-family="sans-serif" font-size="14" lengthAdjust="spacing" textLength="236.515" x="92.65" y="499.1618">valid_magnitude_status() : Boolean [1]</text><ellipse cx="83.65" cy="512.0997" fill="#84BE84" rx="3" ry="3" style="stroke:#038048;stroke-width:1;"/><text fill="#808080" font-family="sans-serif" font-size="14" font-style="italic" lengthAdjust="spacing" textLength="216.4531" x="92.65" y="515.9617">magnitude() : Ordered_Numeric [1]</text><ellipse cx="83.65" cy="528.8997" fill="#84BE84" rx="3" ry="3" style="stroke:#038048;stroke-width:1;"/><text fill="#808080" font-family="sans-serif" font-size="14" lengthAdjust="spacing" textLength="206.3172" x="92.65" y="532.7616">accuracy_unknown() : Boolean [1]</text><ellipse cx="83.65" cy="545.6996" fill="#84BE84" rx="3" ry="3" style="stroke:#038048;stroke-width:1;"/><text fill="#808080" font-family="sans-serif" font-size="14" font-style="italic" lengthAdjust="spacing" textLength="313.7248" x="92.65" y="549.5616">is_equal( other : DV_QUANTIFIED [1] ) : Boolean [1]</text><ellipse cx="83.65" cy="562.4995" fill="#84BE84" rx="3" ry="3" style="stroke:#038048;stroke-width:1;"/><text fill="#808080" font-family="sans-serif" font-size="14" lengthAdjust="spacing" textLength="321.9148" x="92.65" y="566.3615">less_than( other : DV_QUANTIFIED [1] ) : Boolean [1]</text></g><!--class DV_ORDERED--><g class="entity" data-entity="DV_ORDERED" data-source-line="26" data-uid="ent0005" id="entity_DV_ORDERED"><rect fill="#F5F5F5" height="165.5995" rx="2.5" ry="2.5" style="stroke:#808080;stroke-width:1;stroke-dasharray:1,3;" width="479.2201" x="7" y="182.2"/><ellipse cx="197.5322" cy="198.2" fill="#A9DCDF" rx="11" ry="11" style="stroke:#181818;stroke-width:1;"/><path d="M192.0479,203.7 L194.0791,203.7 L198.126,192.3562 L197.2197,192.3562 L201.0479,203.7 L203.1885,203.7 L198.8604,191.3719 L196.6416,191.3719 L192.0479,203.7 Z M194.376,200.2 L200.8135,200.2 L200.8135,198.45 L194.376,198.45 L194.376,200.2 Z " fill="#000000"/><text fill="#808080" font-family="sans-serif" font-size="14" font-style="italic" lengthAdjust="spacing" textLength="89.6556" x="218.0322" y="203.562">DV_ORDERED</text><line style="stroke:#808080;stroke-width:1;stroke-dasharray:1,3;" x1="8" x2="485.2201" y1="214.2" y2="214.2"/><ellipse cx="18" cy="228.1" fill="none" rx="3" ry="3" style="stroke:#038048;stroke-width:1;"/><text fill="#808080" font-family="sans-serif" font-size="14" lengthAdjust="spacing" textLength="230.5231" x="27" y="231.9619">normal_status : CODE_PHRASE [0..1]</text><ellipse cx="18" cy="244.8999" fill="none" rx="3" ry="3" style="stroke:#038048;stroke-width:1;"/><text fill="#808080" font-family="sans-serif" font-size="14" lengthAdjust="spacing" textLength="220.3871" x="27" y="248.7619">normal_range : DV_INTERVAL [0..1]</text><ellipse cx="18" cy="261.6998" fill="none" rx="3" ry="3" style="stroke:#038048;stroke-width:1;"/><text fill="#808080" font-family="sans-serif" font-size="14" lengthAdjust="spacing" textLength="453.2201" x="27" y="265.5618">other_reference_ranges : List&lt;REFERENCE_RANGE&lt;DV_ORDERED&gt;&gt; [*]</text><line style="stroke:#808080;stroke-width:1;stroke-dasharray:1,3;" x1="8" x2="485.2201" y1="272.5998" y2="272.5998"/><ellipse cx="18" cy="286.4997" fill="#84BE84" rx="3" ry="3" style="stroke:#038048;stroke-width:1;"/><text fill="#808080" font-family="sans-serif" font-size="14" font-style="italic" lengthAdjust="spacing" textLength="406.1805" x="27" y="290.3617">is_strictly_comparable_to( other : DV_ORDERED [1] ) : Boolean [1]</text><ellipse cx="18" cy="303.2997" fill="#84BE84" rx="3" ry="3" style="stroke:#038048;stroke-width:1;"/><text fill="#808080" font-family="sans-serif" font-size="14" lengthAdjust="spacing" textLength="146.6214" x="27" y="307.1616">is_simple() : Boolean [1]</text><ellipse cx="18" cy="320.0996" fill="#84BE84" rx="3" ry="3" style="stroke:#038048;stroke-width:1;"/><text fill="#808080" font-family="sans-serif" font-size="14" lengthAdjust="spacing" textLength="149.6174" x="27" y="323.9616">is_normal() : Boolean [1]</text><ellipse cx="18" cy="336.8995" fill="#84BE84" rx="3" ry="3" style="stroke:#038048;stroke-width:1;"/><text fill="#808080" font-family="sans-serif" font-size="14" font-style="italic" lengthAdjust="spacing" textLength="305.3948" x="27" y="340.7615">less_than( other : DV_ORDERED [1] ) : Boolean [1]</text></g><!--class DATA_VALUE--><g class="entity" data-entity="DATA_VALUE" data-source-line="36" data-uid="ent0006" id="entity_DATA_VALUE"><rect fill="#F5F5F5" height="48" rx="2.5" ry="2.5" style="stroke:#808080;stroke-width:1;stroke-dasharray:1,3;" width="116.2657" x="48.48" y="40.6"/><ellipse cx="63.48" cy="56.6" fill="#A9DCDF" rx="11" ry="11" style="stroke:#181818;stroke-width:1;"/><path d="M57.9956,62.1 L60.0269,62.1 L64.0737,50.7562 L63.1675,50.7562 L66.9956,62.1 L69.1362,62.1 L64.8081,49.7719 L62.5894,49.7719 L57.9956,62.1 Z M60.3238,58.6 L66.7612,58.6 L66.7612,56.85 L60.3238,56.85 L60.3238,58.6 Z " fill="#000000"/><text fill="#808080" font-family="sans-serif" font-size="14" font-style="italic" lengthAdjust="spacing" textLength="84.2657" x="77.48" y="61.962">DATA_VALUE</text><line style="stroke:#808080;stroke-width:1;stroke-dasharray:1,3;" x1="49.48" x2="163.7457" y1="72.6" y2="72.6"/><line style="stroke:#808080;stroke-width:1;stroke-dasharray:1,3;" x1="49.48" x2="163.7457" y1="80.6" y2="80.6"/></g><!--class Ordered--><g class="entity" data-entity="Ordered" data-source-line="41" data-uid="ent0008" id="entity_Ordered"><rect fill="#F5F5F5" height="115.1997" rx="2.5" ry="2.5" style="stroke:#808080;stroke-width:1;stroke-dasharray:1,3;" width="376.4047" x="199.41" y="7"/><ellipse cx="357.3924" cy="23" fill="#A9DCDF" rx="11" ry="11" style="stroke:#181818;stroke-width:1;"/><path d="M351.9081,28.5 L353.9393,28.5 L357.9862,17.1563 L357.0799,17.1563 L360.9081,28.5 L363.0487,28.5 L358.7206,16.1719 L356.5018,16.1719 L351.9081,28.5 Z M354.2362,25 L360.6737,25 L360.6737,23.25 L354.2362,23.25 L354.2362,25 Z " fill="#000000"/><text fill="#808080" font-family="sans-serif" font-size="14" font-style="italic" lengthAdjust="spacing" textLength="51.9398" x="377.8924" y="28.362">Ordered</text><line style="stroke:#808080;stroke-width:1;stroke-dasharray:1,3;" x1="200.41" x2="574.8147" y1="39" y2="39"/><line style="stroke:#808080;stroke-width:1;stroke-dasharray:1,3;" x1="200.41" x2="574.8147" y1="47" y2="47"/><ellipse cx="210.41" cy="60.9" fill="#84BE84" rx="3" ry="3" style="stroke:#038048;stroke-width:1;"/><text fill="#808080" font-family="sans-serif" font-size="14" font-style="italic" lengthAdjust="spacing" textLength="267.679" x="219.41" y="64.7619">less_than( other : Ordered [1] ) : Boolean [1]</text><ellipse cx="210.41" cy="77.6999" fill="#84BE84" rx="3" ry="3" style="stroke:#038048;stroke-width:1;"/><text fill="#808080" font-family="sans-serif" font-size="14" lengthAdjust="spacing" textLength="329.1387" x="219.41" y="81.5619">less_than_or_equal( other : Ordered [1] ) : Boolean [1]</text><ellipse cx="210.41" cy="94.4998" fill="#84BE84" rx="3" ry="3" style="stroke:#038048;stroke-width:1;"/><text fill="#808080" font-family="sans-serif" font-size="14" lengthAdjust="spacing" textLength="288.9449" x="219.41" y="98.3618">greater_than( other : Ordered [1] ) : Boolean [1]</text><ellipse cx="210.41" cy="111.2997" fill="#84BE84" rx="3" ry="3" style="stroke:#038048;stroke-width:1;"/><text fill="#808080" font-family="sans-serif" font-size="14" lengthAdjust="spacing" textLength="350.4047" x="219.41" y="115.1617">greater_than_or_equal( other : Ordered [1] ) : Boolean [1]</text></g><!--reverse link DATA_VALUE to DV_ORDERED--><g class="link" data-entity-1="DATA_VALUE" data-entity-2="DV_ORDERED" data-source-line="39" data-uid="lnk7" id="link_DATA_VALUE_DV_ORDERED"><path codeLine="39" d="M133.3183,103.4568 C149.4783,126.3568 164.79,148.05 188.58,181.76" fill="none" id="DATA_VALUE-backto-DV_ORDERED" style="stroke:#181818;stroke-width:1;"/><polygon fill="none" points="122.94,88.75,128.416,106.9163,138.2206,99.9974,122.94,88.75" style="stroke:#181818;stroke-width:1;"/></g><!--reverse link Ordered to DV_ORDERED--><g class="link" data-entity-1="Ordered" data-entity-2="DV_ORDERED" data-source-line="48" data-uid="lnk9" id="link_Ordered_DV_ORDERED"><path codeLine="48" d="M336.7754,137.127 C323.5854,155.667 319.11,161.99 304.88,182" fill="none" id="Ordered-backto-DV_ORDERED" style="stroke:#181818;stroke-width:1;"/><polygon fill="none" points="347.21,122.46,331.8864,133.6488,341.6644,140.6051,347.21,122.46" style="stroke:#181818;stroke-width:1;"/></g><!--reverse link DV_ORDERED to DV_QUANTIFIED--><g class="link" data-entity-1="DV_ORDERED" data-entity-2="DV_QUANTIFIED" data-source-line="50" data-uid="lnk10" id="link_DV_ORDERED_DV_QUANTIFIED"><path codeLine="50" d="M246.61,365.99 C246.61,385.44 246.61,388.18 246.61,407.62" fill="none" id="DV_ORDERED-backto-DV_QUANTIFIED" style="stroke:#181818;stroke-width:1;"/><polygon fill="none" points="246.61,347.99,240.61,365.99,252.61,365.99,246.61,347.99" style="stroke:#181818;stroke-width:1;"/></g><!--reverse link DV_QUANTIFIED to DV_ABSOLUTE_QUANTITY--><g class="link" data-entity-1="DV_QUANTIFIED" data-entity-2="DV_ABSOLUTE_QUANTITY" data-source-line="52" data-uid="lnk11" id="link_DV_QUANTIFIED_DV_ABSOLUTE_QUANTITY"><path codeLine="52" d="M246.61,591.73 C246.61,611.66 246.61,614.55 246.61,633.03" fill="none" id="DV_QUANTIFIED-backto-DV_ABSOLUTE_QUANTITY" style="stroke:#181818;stroke-width:1;"/><polygon fill="none" points="246.61,573.73,240.61,591.73,252.61,591.73,246.61,573.73" style="stroke:#181818;stroke-width:1;"/></g><!--reverse link DV_ABSOLUTE_QUANTITY to DV_TEMPORAL--><g class="link" data-entity-1="DV_ABSOLUTE_QUANTITY" data-entity-2="DV_TEMPORAL" data-source-line="54" data-uid="lnk12" id="link_DV_ABSOLUTE_QUANTITY_DV_TEMPORAL"><path codeLine="54" d="M246.61,766.71 C246.61,785.85 246.61,789.21 246.61,808.36" fill="none" id="DV_ABSOLUTE_QUANTITY-backto-DV_TEMPORAL" style="stroke:#181818;stroke-width:1;"/><polygon fill="none" points="246.61,748.71,240.61,766.71,252.61,766.71,246.61,748.71" style="stroke:#181818;stroke-width:1;"/></g></g></svg>
