<svg xmlns="http://www.w3.org/2000/svg" xmlns:xlink="http://www.w3.org/1999/xlink" contentStyleType="text/css" data-diagram-type="CLASS" height="186px" preserveAspectRatio="none" style="width:289px;height:186px;background:#FFFFFF;" version="1.1" viewBox="0 0 289 186" width="289px" zoomAndPan="magnify"><defs/><g><!--class FEEDER_AUDIT_DETAILS--><g class="entity" data-entity="FEEDER_AUDIT_DETAILS" data-source-line="2" data-uid="ent0002" id="entity_FEEDER_AUDIT_DETAILS"><rect fill="#F1F1F1" height="165.5995" rx="2.5" ry="2.5" style="stroke:#181818;stroke-width:0.5;" width="268.143" x="7" y="7"/><ellipse cx="57.7218" cy="23" fill="#ADD1B2" rx="11" ry="11" style="stroke:#181818;stroke-width:1;"/><path d="M57.7218,29.4219 C58.8937,29.4219 60.1281,29.1563 61.5031,28.5469 L61.0187,27.0313 C59.925,27.4531 58.9093,27.6406 58.05,27.6406 C55.3312,27.6406 53.6125,25.7969 53.6125,22.8906 C53.6125,20.1406 55.175,18.5469 57.9093,18.5469 C58.8312,18.5469 59.8468,18.7344 60.9875,19.1563 L61.5656,17.6406 C60.4718,17.0625 59.175,16.7656 57.9875,16.7656 C54.2218,16.7656 51.6437,19.4063 51.6437,23.2188 C51.6437,26.8906 54.1281,29.4219 57.7218,29.4219 Z " fill="#000000"/><text fill="#000000" font-family="sans-serif" font-size="14" lengthAdjust="spacing" textLength="158.1994" x="78.2218" y="28.362">FEEDER_AUDIT_DETAILS</text><line style="stroke:#181818;stroke-width:0.5;" x1="8" x2="274.143" y1="39" y2="39"/><ellipse cx="18" cy="52.9" fill="none" rx="3" ry="3" style="stroke:#038048;stroke-width:1;"/><text fill="#000000" font-family="sans-serif" font-size="14" lengthAdjust="spacing" textLength="128.9675" x="27" y="56.7619">system_id : String [1]</text><ellipse cx="18" cy="69.6999" fill="none" rx="3" ry="3" style="stroke:#038048;stroke-width:1;"/><text fill="#000000" font-family="sans-serif" font-size="14" lengthAdjust="spacing" textLength="216.7471" x="27" y="73.5619">location : PARTY_IDENTIFIED [0..1]</text><ellipse cx="18" cy="86.4998" fill="none" rx="3" ry="3" style="stroke:#038048;stroke-width:1;"/><text fill="#000000" font-family="sans-serif" font-size="14" lengthAdjust="spacing" textLength="181.8172" x="27" y="90.3618">subject : PARTY_PROXY [0..1]</text><ellipse cx="18" cy="103.2997" fill="none" rx="3" ry="3" style="stroke:#038048;stroke-width:1;"/><text fill="#000000" font-family="sans-serif" font-size="14" lengthAdjust="spacing" textLength="218.8611" x="27" y="107.1617">provider : PARTY_IDENTIFIED [0..1]</text><ellipse cx="18" cy="120.0997" fill="none" rx="3" ry="3" style="stroke:#038048;stroke-width:1;"/><text fill="#000000" font-family="sans-serif" font-size="14" lengthAdjust="spacing" textLength="171.6813" x="27" y="123.9616">time : DV_DATE_TIME [0..1]</text><ellipse cx="18" cy="136.8996" fill="none" rx="3" ry="3" style="stroke:#038048;stroke-width:1;"/><text fill="#000000" font-family="sans-serif" font-size="14" lengthAdjust="spacing" textLength="145.3754" x="27" y="140.7616">version_id : String [0..1]</text><ellipse cx="18" cy="153.6995" fill="none" rx="3" ry="3" style="stroke:#038048;stroke-width:1;"/><text fill="#000000" font-family="sans-serif" font-size="14" lengthAdjust="spacing" textLength="242.143" x="27" y="157.5615">other_details : ITEM_STRUCTURE [0..1]</text><line style="stroke:#181818;stroke-width:0.5;" x1="8" x2="274.143" y1="164.5995" y2="164.5995"/></g></g></svg>
