<svg xmlns="http://www.w3.org/2000/svg" xmlns:xlink="http://www.w3.org/1999/xlink" contentStyleType="text/css" data-diagram-type="CLASS" height="738px" preserveAspectRatio="none" style="width:342px;height:738px;background:#FFFFFF;" version="1.1" viewBox="0 0 342 738" width="342px" zoomAndPan="magnify"><defs/><g><!--class HISTORY--><g class="entity" data-entity="HISTORY" data-source-line="2" data-uid="ent0002" id="entity_HISTORY"><rect fill="#F1F1F1" height="148.7996" rx="2.5" ry="2.5" style="stroke:#181818;stroke-width:0.5;" width="244.3991" x="49.29" y="583"/><ellipse cx="133.3746" cy="599" fill="#ADD1B2" rx="11" ry="11" style="stroke:#181818;stroke-width:1;"/><path d="M133.3746,605.4219 C134.5465,605.4219 135.7809,605.1563 137.1559,604.5469 L136.6715,603.0313 C135.5778,603.4531 134.5621,603.6406 133.7028,603.6406 C130.984,603.6406 129.2653,601.7969 129.2653,598.8906 C129.2653,596.1406 130.8278,594.5469 133.5621,594.5469 C134.484,594.5469 135.4996,594.7344 136.6403,595.1563 L137.2184,593.6406 C136.1246,593.0625 134.8278,592.7656 133.6403,592.7656 C129.8746,592.7656 127.2965,595.4063 127.2965,599.2188 C127.2965,602.8906 129.7809,605.4219 133.3746,605.4219 Z " fill="#000000"/><text fill="#000000" font-family="sans-serif" font-size="14" lengthAdjust="spacing" textLength="56.9378" x="153.8746" y="604.362">HISTORY</text><rect fill="#FFFFFF" height="16.4001" style="stroke:#181818;stroke-width:1;stroke-dasharray:2,2;" width="8.7921" x="287.8971" y="580"/><text fill="#000000" font-family="sans-serif" font-size="12" font-style="italic" lengthAdjust="spacing" textLength="6.7921" x="288.8971" y="592.7961">T</text><line style="stroke:#181818;stroke-width:0.5;" x1="50.29" x2="292.6891" y1="615" y2="615"/><ellipse cx="60.29" cy="628.9" fill="none" rx="3" ry="3" style="stroke:#038048;stroke-width:1;"/><text fill="#000000" font-family="sans-serif" font-size="14" lengthAdjust="spacing" textLength="163.6454" x="69.29" y="632.7619">origin : DV_DATE_TIME [1]</text><ellipse cx="60.29" cy="645.6999" fill="none" rx="3" ry="3" style="stroke:#038048;stroke-width:1;"/><text fill="#000000" font-family="sans-serif" font-size="14" lengthAdjust="spacing" textLength="179.3253" x="69.29" y="649.5619">period : DV_DURATION [0..1]</text><ellipse cx="60.29" cy="662.4998" fill="none" rx="3" ry="3" style="stroke:#038048;stroke-width:1;"/><text fill="#000000" font-family="sans-serif" font-size="14" lengthAdjust="spacing" textLength="191.9112" x="69.29" y="666.3618">duration : DV_DURATION [0..1]</text><ellipse cx="60.29" cy="679.2997" fill="none" rx="3" ry="3" style="stroke:#038048;stroke-width:1;"/><text fill="#000000" font-family="sans-serif" font-size="14" lengthAdjust="spacing" textLength="218.3991" x="69.29" y="683.1617">summary : ITEM_STRUCTURE [0..1]</text><ellipse cx="60.29" cy="696.0997" fill="none" rx="3" ry="3" style="stroke:#038048;stroke-width:1;"/><text fill="#000000" font-family="sans-serif" font-size="14" lengthAdjust="spacing" textLength="175.8813" x="69.29" y="699.9616">events : List&lt;EVENT&lt;T&gt;&gt; [*]</text><line style="stroke:#181818;stroke-width:0.5;" x1="50.29" x2="292.6891" y1="706.9996" y2="706.9996"/><ellipse cx="60.29" cy="720.8996" fill="#84BE84" rx="3" ry="3" style="stroke:#038048;stroke-width:1;"/><text fill="#000000" font-family="sans-serif" font-size="14" lengthAdjust="spacing" textLength="155.0074" x="69.29" y="724.7616">is_periodic() : Boolean [1]</text></g><!--class DATA_STRUCTURE--><g class="entity" data-entity="DATA_STRUCTURE" data-source-line="11" data-uid="ent0003" id="entity_DATA_STRUCTURE"><rect fill="#F5F5F5" height="64.7999" rx="2.5" ry="2.5" style="stroke:#808080;stroke-width:1;stroke-dasharray:1,3;" width="173.1954" x="84.9" y="458.2"/><ellipse cx="109.7307" cy="474.2" fill="#A9DCDF" rx="11" ry="11" style="stroke:#181818;stroke-width:1;"/><path d="M104.2463,479.7 L106.2775,479.7 L110.3244,468.3562 L109.4182,468.3562 L113.2463,479.7 L115.3869,479.7 L111.0588,467.3719 L108.84,467.3719 L104.2463,479.7 Z M106.5744,476.2 L113.0119,476.2 L113.0119,474.45 L106.5744,474.45 L106.5744,476.2 Z " fill="#000000"/><text fill="#808080" font-family="sans-serif" font-size="14" font-style="italic" lengthAdjust="spacing" textLength="119.3495" x="125.9153" y="479.562">DATA_STRUCTURE</text><line style="stroke:#808080;stroke-width:1;stroke-dasharray:1,3;" x1="85.9" x2="257.0954" y1="490.2" y2="490.2"/><line style="stroke:#808080;stroke-width:1;stroke-dasharray:1,3;" x1="85.9" x2="257.0954" y1="498.2" y2="498.2"/><ellipse cx="95.9" cy="512.1" fill="#84BE84" rx="3" ry="3" style="stroke:#038048;stroke-width:1;"/><text fill="#808080" font-family="sans-serif" font-size="14" lengthAdjust="spacing" textLength="147.1954" x="104.9" y="515.9619">as_hierarchy() : ITEM [1]</text></g><!--class LOCATABLE--><g class="entity" data-entity="LOCATABLE" data-source-line="15" data-uid="ent0004" id="entity_LOCATABLE"><rect fill="#F5F5F5" height="182.3994" rx="2.5" ry="2.5" style="stroke:#808080;stroke-width:1;stroke-dasharray:1,3;" width="267.387" x="37.8" y="215.8"/><ellipse cx="129.1007" cy="231.8" fill="#A9DCDF" rx="11" ry="11" style="stroke:#181818;stroke-width:1;"/><path d="M123.6163,237.3 L125.6475,237.3 L129.6944,225.9562 L128.7882,225.9562 L132.6163,237.3 L134.7569,237.3 L130.4288,224.9719 L128.21,224.9719 L123.6163,237.3 Z M125.9444,233.8 L132.3819,233.8 L132.3819,232.05 L125.9444,232.05 L125.9444,233.8 Z " fill="#000000"/><text fill="#808080" font-family="sans-serif" font-size="14" font-style="italic" lengthAdjust="spacing" textLength="76.2857" x="149.6007" y="237.162">LOCATABLE</text><line style="stroke:#808080;stroke-width:1;stroke-dasharray:1,3;" x1="38.8" x2="304.187" y1="247.8" y2="247.8"/><ellipse cx="48.8" cy="261.7" fill="none" rx="3" ry="3" style="stroke:#038048;stroke-width:1;"/><text fill="#808080" font-family="sans-serif" font-size="14" lengthAdjust="spacing" textLength="121.2115" x="57.8" y="265.5619">name : DV_TEXT [1]</text><ellipse cx="48.8" cy="278.4999" fill="none" rx="3" ry="3" style="stroke:#038048;stroke-width:1;"/><text fill="#808080" font-family="sans-serif" font-size="14" lengthAdjust="spacing" textLength="184.1273" x="57.8" y="282.3619">archetype_node_id : String [1]</text><ellipse cx="48.8" cy="295.2998" fill="none" rx="3" ry="3" style="stroke:#038048;stroke-width:1;"/><text fill="#808080" font-family="sans-serif" font-size="14" lengthAdjust="spacing" textLength="157.7794" x="57.8" y="299.1618">uid : UID_BASED_ID [0..1]</text><ellipse cx="48.8" cy="312.0997" fill="none" rx="3" ry="3" style="stroke:#038048;stroke-width:1;"/><text fill="#808080" font-family="sans-serif" font-size="14" lengthAdjust="spacing" textLength="126.0835" x="57.8" y="315.9617">links : List&lt;LINK&gt; [*]</text><ellipse cx="48.8" cy="328.8997" fill="none" rx="3" ry="3" style="stroke:#038048;stroke-width:1;"/><text fill="#808080" font-family="sans-serif" font-size="14" lengthAdjust="spacing" textLength="241.387" x="57.8" y="332.7616">archetype_details : ARCHETYPED [0..1]</text><ellipse cx="48.8" cy="345.6996" fill="none" rx="3" ry="3" style="stroke:#038048;stroke-width:1;"/><text fill="#808080" font-family="sans-serif" font-size="14" lengthAdjust="spacing" textLength="220.7791" x="57.8" y="349.5616">feeder_audit : FEEDER_AUDIT [0..1]</text><line style="stroke:#808080;stroke-width:1;stroke-dasharray:1,3;" x1="38.8" x2="304.187" y1="356.5996" y2="356.5996"/><ellipse cx="48.8" cy="370.4995" fill="#84BE84" rx="3" ry="3" style="stroke:#038048;stroke-width:1;"/><text fill="#808080" font-family="sans-serif" font-size="14" lengthAdjust="spacing" textLength="144.1295" x="57.8" y="374.3615">concept() : DV_TEXT [1]</text><ellipse cx="48.8" cy="387.2995" fill="#84BE84" rx="3" ry="3" style="stroke:#038048;stroke-width:1;"/><text fill="#808080" font-family="sans-serif" font-size="14" lengthAdjust="spacing" textLength="199.6812" x="57.8" y="391.1614">is_archetype_root() : Boolean [1]</text></g><!--class PATHABLE--><g class="entity" data-entity="PATHABLE" data-source-line="26" data-uid="ent0005" id="entity_PATHABLE"><rect fill="#F5F5F5" height="148.7996" rx="2.5" ry="2.5" style="stroke:#808080;stroke-width:1;stroke-dasharray:1,3;" width="328.9868" x="7" y="7"/><ellipse cx="133.3006" cy="23" fill="#A9DCDF" rx="11" ry="11" style="stroke:#181818;stroke-width:1;"/><path d="M127.8162,28.5 L129.8474,28.5 L133.8943,17.1563 L132.9881,17.1563 L136.8162,28.5 L138.9568,28.5 L134.6287,16.1719 L132.4099,16.1719 L127.8162,28.5 Z M130.1443,25 L136.5818,25 L136.5818,23.25 L130.1443,23.25 L130.1443,25 Z " fill="#000000"/><text fill="#808080" font-family="sans-serif" font-size="14" font-style="italic" lengthAdjust="spacing" textLength="67.8857" x="153.8006" y="28.362">PATHABLE</text><line style="stroke:#808080;stroke-width:1;stroke-dasharray:1,3;" x1="8" x2="334.9868" y1="39" y2="39"/><line style="stroke:#808080;stroke-width:1;stroke-dasharray:1,3;" x1="8" x2="334.9868" y1="47" y2="47"/><ellipse cx="18" cy="60.9" fill="#84BE84" rx="3" ry="3" style="stroke:#038048;stroke-width:1;"/><text fill="#808080" font-family="sans-serif" font-size="14" lengthAdjust="spacing" textLength="145.6834" x="27" y="64.7619">parent() : PATHABLE [1]</text><ellipse cx="18" cy="77.6999" fill="#84BE84" rx="3" ry="3" style="stroke:#038048;stroke-width:1;"/><text fill="#808080" font-family="sans-serif" font-size="14" lengthAdjust="spacing" textLength="257.529" x="27" y="81.5619">item_at_path( a_path : String [1] ) : Any [1]</text><ellipse cx="18" cy="94.4998" fill="#84BE84" rx="3" ry="3" style="stroke:#038048;stroke-width:1;"/><text fill="#808080" font-family="sans-serif" font-size="14" lengthAdjust="spacing" textLength="302.9868" x="27" y="98.3618">items_at_path( a_path : String [1] ) : List&lt;Any&gt; [*]</text><ellipse cx="18" cy="111.2997" fill="#84BE84" rx="3" ry="3" style="stroke:#038048;stroke-width:1;"/><text fill="#808080" font-family="sans-serif" font-size="14" lengthAdjust="spacing" textLength="273.1249" x="27" y="115.1617">path_exists( a_path : String [1] ) : Boolean [1]</text><ellipse cx="18" cy="128.0997" fill="#84BE84" rx="3" ry="3" style="stroke:#038048;stroke-width:1;"/><text fill="#808080" font-family="sans-serif" font-size="14" lengthAdjust="spacing" textLength="280.0549" x="27" y="131.9616">path_unique( a_path : String [1] ) : Boolean [1]</text><ellipse cx="18" cy="144.8996" fill="#84BE84" rx="3" ry="3" style="stroke:#038048;stroke-width:1;"/><text fill="#808080" font-family="sans-serif" font-size="14" lengthAdjust="spacing" textLength="292.6829" x="27" y="148.7616">path_of_item( a_loc : PATHABLE [1] ) : String [1]</text></g><!--reverse link PATHABLE to LOCATABLE--><g class="link" data-entity-1="PATHABLE" data-entity-2="LOCATABLE" data-source-line="35" data-uid="lnk6" id="link_PATHABLE_LOCATABLE"><path codeLine="35" d="M171.49,174.24 C171.49,193.19 171.49,195.8 171.49,215.49" fill="none" id="PATHABLE-backto-LOCATABLE" style="stroke:#181818;stroke-width:1;"/><polygon fill="none" points="171.49,156.24,165.49,174.24,177.49,174.24,171.49,156.24" style="stroke:#181818;stroke-width:1;"/></g><!--reverse link LOCATABLE to DATA_STRUCTURE--><g class="link" data-entity-1="LOCATABLE" data-entity-2="DATA_STRUCTURE" data-source-line="37" data-uid="lnk7" id="link_LOCATABLE_DATA_STRUCTURE"><path codeLine="37" d="M171.49,416.53 C171.49,437.86 171.49,441.2 171.49,457.86" fill="none" id="LOCATABLE-backto-DATA_STRUCTURE" style="stroke:#181818;stroke-width:1;"/><polygon fill="none" points="171.49,398.53,165.49,416.53,177.49,416.53,171.49,398.53" style="stroke:#181818;stroke-width:1;"/></g><!--reverse link DATA_STRUCTURE to HISTORY--><g class="link" data-entity-1="DATA_STRUCTURE" data-entity-2="HISTORY" data-source-line="39" data-uid="lnk8" id="link_DATA_STRUCTURE_HISTORY"><path codeLine="39" d="M171.49,541.38 C171.49,558.3 171.49,561.89 171.49,582.72" fill="none" id="DATA_STRUCTURE-backto-HISTORY" style="stroke:#181818;stroke-width:1;"/><polygon fill="none" points="171.49,523.38,165.49,541.38,177.49,541.38,171.49,523.38" style="stroke:#181818;stroke-width:1;"/></g></g></svg>
