<svg xmlns="http://www.w3.org/2000/svg" xmlns:xlink="http://www.w3.org/1999/xlink" contentStyleType="text/css" data-diagram-type="CLASS" height="964px" preserveAspectRatio="none" style="width:418px;height:964px;background:#FFFFFF;" version="1.1" viewBox="0 0 418 964" width="418px" zoomAndPan="magnify"><defs/><g><!--class ITEM_TABLE--><g class="entity" data-entity="ITEM_TABLE" data-source-line="2" data-uid="ent0002" id="entity_ITEM_TABLE"><rect fill="#F1F1F1" height="266.399" rx="2.5" ry="2.5" style="stroke:#181818;stroke-width:0.5;" width="404.6704" x="7" y="691"/><ellipse cx="165.2694" cy="707" fill="#ADD1B2" rx="11" ry="11" style="stroke:#181818;stroke-width:1;"/><path d="M165.2694,713.4219 C166.4412,713.4219 167.6756,713.1563 169.0506,712.5469 L168.5662,711.0313 C167.4725,711.4531 166.4569,711.6406 165.5975,711.6406 C162.8787,711.6406 161.16,709.7969 161.16,706.8906 C161.16,704.1406 162.7225,702.5469 165.4569,702.5469 C166.3787,702.5469 167.3944,702.7344 168.535,703.1563 L169.1131,701.6406 C168.0194,701.0625 166.7225,700.7656 165.535,700.7656 C161.7694,700.7656 159.1912,703.4063 159.1912,707.2188 C159.1912,710.8906 161.6756,713.4219 165.2694,713.4219 Z " fill="#000000"/><text fill="#000000" font-family="sans-serif" font-size="14" lengthAdjust="spacing" textLength="79.6317" x="185.7694" y="712.362">ITEM_TABLE</text><line style="stroke:#181818;stroke-width:0.5;" x1="8" x2="410.6704" y1="723" y2="723"/><ellipse cx="18" cy="736.9" fill="none" rx="3" ry="3" style="stroke:#038048;stroke-width:1;"/><text fill="#000000" font-family="sans-serif" font-size="14" lengthAdjust="spacing" textLength="156.2114" x="27" y="740.7619">rows : List&lt;CLUSTER&gt; [*]</text><line style="stroke:#181818;stroke-width:0.5;" x1="8" x2="410.6704" y1="747.7999" y2="747.7999"/><ellipse cx="18" cy="761.6999" fill="#84BE84" rx="3" ry="3" style="stroke:#038048;stroke-width:1;"/><text fill="#000000" font-family="sans-serif" font-size="14" lengthAdjust="spacing" textLength="148.2035" x="27" y="765.5619">row_count() : Integer [1]</text><ellipse cx="18" cy="778.4998" fill="#84BE84" rx="3" ry="3" style="stroke:#038048;stroke-width:1;"/><text fill="#000000" font-family="sans-serif" font-size="14" lengthAdjust="spacing" textLength="170.5474" x="27" y="782.3618">column_count() : Integer [1]</text><ellipse cx="18" cy="795.2997" fill="#84BE84" rx="3" ry="3" style="stroke:#038048;stroke-width:1;"/><text fill="#000000" font-family="sans-serif" font-size="14" lengthAdjust="spacing" textLength="206.2752" x="27" y="799.1617">row_names() : List&lt;DV_TEXT&gt; [*]</text><ellipse cx="18" cy="812.0997" fill="#84BE84" rx="3" ry="3" style="stroke:#038048;stroke-width:1;"/><text fill="#000000" font-family="sans-serif" font-size="14" lengthAdjust="spacing" textLength="228.6191" x="27" y="815.9616">column_names() : List&lt;DV_TEXT&gt; [*]</text><ellipse cx="18" cy="828.8996" fill="#84BE84" rx="3" ry="3" style="stroke:#038048;stroke-width:1;"/><text fill="#000000" font-family="sans-serif" font-size="14" lengthAdjust="spacing" textLength="225.5391" x="27" y="832.7616">ith_row( i : Integer [1] ) : CLUSTER [1]</text><ellipse cx="18" cy="845.6995" fill="#84BE84" rx="3" ry="3" style="stroke:#038048;stroke-width:1;"/><text fill="#000000" font-family="sans-serif" font-size="14" lengthAdjust="spacing" textLength="324.5328" x="27" y="849.5615">has_row_with_name( a_key : String [1] ) : Boolean [1]</text><ellipse cx="18" cy="862.4995" fill="#84BE84" rx="3" ry="3" style="stroke:#038048;stroke-width:1;"/><text fill="#000000" font-family="sans-serif" font-size="14" lengthAdjust="spacing" textLength="346.8767" x="27" y="866.3614">has_column_with_name( a_key : String [1] ) : Boolean [1]</text><ellipse cx="18" cy="879.2994" fill="#84BE84" rx="3" ry="3" style="stroke:#038048;stroke-width:1;"/><text fill="#000000" font-family="sans-serif" font-size="14" lengthAdjust="spacing" textLength="276.4569" x="27" y="883.1614">named_row( a_key : String [1] ) : CLUSTER [1]</text><ellipse cx="18" cy="896.0993" fill="#84BE84" rx="3" ry="3" style="stroke:#038048;stroke-width:1;"/><text fill="#000000" font-family="sans-serif" font-size="14" lengthAdjust="spacing" textLength="357.1246" x="27" y="899.9613">has_row_with_key( keys : List&lt;String&gt; [0..1] ) : Boolean [1]</text><ellipse cx="18" cy="912.8992" fill="#84BE84" rx="3" ry="3" style="stroke:#038048;stroke-width:1;"/><text fill="#000000" font-family="sans-serif" font-size="14" lengthAdjust="spacing" textLength="335.4667" x="27" y="916.7612">row_with_key( keys : List&lt;String&gt; [0..1] ) : CLUSTER [1]</text><ellipse cx="18" cy="929.6992" fill="#84BE84" rx="3" ry="3" style="stroke:#038048;stroke-width:1;"/><text fill="#000000" font-family="sans-serif" font-size="14" lengthAdjust="spacing" textLength="378.6704" x="27" y="933.5611">element_at_cell_ij( i : Integer [1], j : Integer [1] ) : ELEMENT [1]</text><ellipse cx="18" cy="946.4991" fill="#84BE84" rx="3" ry="3" style="stroke:#038048;stroke-width:1;"/><text fill="#000000" font-family="sans-serif" font-size="14" lengthAdjust="spacing" textLength="173.3613" x="27" y="950.3611">as_hierarchy() : CLUSTER [1]</text></g><!--class ITEM_STRUCTURE--><g class="entity" data-entity="ITEM_STRUCTURE" data-source-line="18" data-uid="ent0003" id="entity_ITEM_STRUCTURE"><rect fill="#F5F5F5" height="48" rx="2.5" ry="2.5" style="stroke:#808080;stroke-width:1;stroke-dasharray:1,3;" width="147.8075" x="135.43" y="583"/><ellipse cx="150.43" cy="599" fill="#A9DCDF" rx="11" ry="11" style="stroke:#181818;stroke-width:1;"/><path d="M144.9456,604.5 L146.9769,604.5 L151.0238,593.1563 L150.1175,593.1563 L153.9456,604.5 L156.0863,604.5 L151.7581,592.1719 L149.5394,592.1719 L144.9456,604.5 Z M147.2738,601 L153.7113,601 L153.7113,599.25 L147.2738,599.25 L147.2738,601 Z " fill="#000000"/><text fill="#808080" font-family="sans-serif" font-size="14" font-style="italic" lengthAdjust="spacing" textLength="115.8075" x="164.43" y="604.362">ITEM_STRUCTURE</text><line style="stroke:#808080;stroke-width:1;stroke-dasharray:1,3;" x1="136.43" x2="282.2375" y1="615" y2="615"/><line style="stroke:#808080;stroke-width:1;stroke-dasharray:1,3;" x1="136.43" x2="282.2375" y1="623" y2="623"/></g><!--class DATA_STRUCTURE--><g class="entity" data-entity="DATA_STRUCTURE" data-source-line="21" data-uid="ent0004" id="entity_DATA_STRUCTURE"><rect fill="#F5F5F5" height="64.7999" rx="2.5" ry="2.5" style="stroke:#808080;stroke-width:1;stroke-dasharray:1,3;" width="173.1954" x="122.74" y="458.2"/><ellipse cx="147.5707" cy="474.2" fill="#A9DCDF" rx="11" ry="11" style="stroke:#181818;stroke-width:1;"/><path d="M142.0863,479.7 L144.1175,479.7 L148.1644,468.3563 L147.2582,468.3563 L151.0863,479.7 L153.2269,479.7 L148.8988,467.3719 L146.68,467.3719 L142.0863,479.7 Z M144.4144,476.2 L150.8519,476.2 L150.8519,474.45 L144.4144,474.45 L144.4144,476.2 Z " fill="#000000"/><text fill="#808080" font-family="sans-serif" font-size="14" font-style="italic" lengthAdjust="spacing" textLength="119.3495" x="163.7553" y="479.562">DATA_STRUCTURE</text><line style="stroke:#808080;stroke-width:1;stroke-dasharray:1,3;" x1="123.74" x2="294.9354" y1="490.2" y2="490.2"/><line style="stroke:#808080;stroke-width:1;stroke-dasharray:1,3;" x1="123.74" x2="294.9354" y1="498.2" y2="498.2"/><ellipse cx="133.74" cy="512.1" fill="#84BE84" rx="3" ry="3" style="stroke:#038048;stroke-width:1;"/><text fill="#808080" font-family="sans-serif" font-size="14" lengthAdjust="spacing" textLength="147.1954" x="142.74" y="515.9619">as_hierarchy() : ITEM [1]</text></g><!--class LOCATABLE--><g class="entity" data-entity="LOCATABLE" data-source-line="25" data-uid="ent0005" id="entity_LOCATABLE"><rect fill="#F5F5F5" height="182.3994" rx="2.5" ry="2.5" style="stroke:#808080;stroke-width:1;stroke-dasharray:1,3;" width="267.387" x="75.64" y="215.8"/><ellipse cx="166.9407" cy="231.8" fill="#A9DCDF" rx="11" ry="11" style="stroke:#181818;stroke-width:1;"/><path d="M161.4563,237.3 L163.4875,237.3 L167.5344,225.9562 L166.6282,225.9562 L170.4563,237.3 L172.5969,237.3 L168.2688,224.9719 L166.05,224.9719 L161.4563,237.3 Z M163.7844,233.8 L170.2219,233.8 L170.2219,232.05 L163.7844,232.05 L163.7844,233.8 Z " fill="#000000"/><text fill="#808080" font-family="sans-serif" font-size="14" font-style="italic" lengthAdjust="spacing" textLength="76.2857" x="187.4407" y="237.162">LOCATABLE</text><line style="stroke:#808080;stroke-width:1;stroke-dasharray:1,3;" x1="76.64" x2="342.027" y1="247.8" y2="247.8"/><ellipse cx="86.64" cy="261.7" fill="none" rx="3" ry="3" style="stroke:#038048;stroke-width:1;"/><text fill="#808080" font-family="sans-serif" font-size="14" lengthAdjust="spacing" textLength="121.2115" x="95.64" y="265.5619">name : DV_TEXT [1]</text><ellipse cx="86.64" cy="278.4999" fill="none" rx="3" ry="3" style="stroke:#038048;stroke-width:1;"/><text fill="#808080" font-family="sans-serif" font-size="14" lengthAdjust="spacing" textLength="184.1273" x="95.64" y="282.3619">archetype_node_id : String [1]</text><ellipse cx="86.64" cy="295.2998" fill="none" rx="3" ry="3" style="stroke:#038048;stroke-width:1;"/><text fill="#808080" font-family="sans-serif" font-size="14" lengthAdjust="spacing" textLength="157.7794" x="95.64" y="299.1618">uid : UID_BASED_ID [0..1]</text><ellipse cx="86.64" cy="312.0997" fill="none" rx="3" ry="3" style="stroke:#038048;stroke-width:1;"/><text fill="#808080" font-family="sans-serif" font-size="14" lengthAdjust="spacing" textLength="126.0835" x="95.64" y="315.9617">links : List&lt;LINK&gt; [*]</text><ellipse cx="86.64" cy="328.8997" fill="none" rx="3" ry="3" style="stroke:#038048;stroke-width:1;"/><text fill="#808080" font-family="sans-serif" font-size="14" lengthAdjust="spacing" textLength="241.387" x="95.64" y="332.7616">archetype_details : ARCHETYPED [0..1]</text><ellipse cx="86.64" cy="345.6996" fill="none" rx="3" ry="3" style="stroke:#038048;stroke-width:1;"/><text fill="#808080" font-family="sans-serif" font-size="14" lengthAdjust="spacing" textLength="220.7791" x="95.64" y="349.5616">feeder_audit : FEEDER_AUDIT [0..1]</text><line style="stroke:#808080;stroke-width:1;stroke-dasharray:1,3;" x1="76.64" x2="342.027" y1="356.5996" y2="356.5996"/><ellipse cx="86.64" cy="370.4995" fill="#84BE84" rx="3" ry="3" style="stroke:#038048;stroke-width:1;"/><text fill="#808080" font-family="sans-serif" font-size="14" lengthAdjust="spacing" textLength="144.1295" x="95.64" y="374.3615">concept() : DV_TEXT [1]</text><ellipse cx="86.64" cy="387.2995" fill="#84BE84" rx="3" ry="3" style="stroke:#038048;stroke-width:1;"/><text fill="#808080" font-family="sans-serif" font-size="14" lengthAdjust="spacing" textLength="199.6812" x="95.64" y="391.1614">is_archetype_root() : Boolean [1]</text></g><!--class PATHABLE--><g class="entity" data-entity="PATHABLE" data-source-line="36" data-uid="ent0006" id="entity_PATHABLE"><rect fill="#F5F5F5" height="148.7996" rx="2.5" ry="2.5" style="stroke:#808080;stroke-width:1;stroke-dasharray:1,3;" width="328.9868" x="44.84" y="7"/><ellipse cx="171.1406" cy="23" fill="#A9DCDF" rx="11" ry="11" style="stroke:#181818;stroke-width:1;"/><path d="M165.6562,28.5 L167.6874,28.5 L171.7343,17.1563 L170.8281,17.1563 L174.6562,28.5 L176.7968,28.5 L172.4687,16.1719 L170.2499,16.1719 L165.6562,28.5 Z M167.9843,25 L174.4218,25 L174.4218,23.25 L167.9843,23.25 L167.9843,25 Z " fill="#000000"/><text fill="#808080" font-family="sans-serif" font-size="14" font-style="italic" lengthAdjust="spacing" textLength="67.8857" x="191.6406" y="28.362">PATHABLE</text><line style="stroke:#808080;stroke-width:1;stroke-dasharray:1,3;" x1="45.84" x2="372.8268" y1="39" y2="39"/><line style="stroke:#808080;stroke-width:1;stroke-dasharray:1,3;" x1="45.84" x2="372.8268" y1="47" y2="47"/><ellipse cx="55.84" cy="60.9" fill="#84BE84" rx="3" ry="3" style="stroke:#038048;stroke-width:1;"/><text fill="#808080" font-family="sans-serif" font-size="14" lengthAdjust="spacing" textLength="145.6834" x="64.84" y="64.7619">parent() : PATHABLE [1]</text><ellipse cx="55.84" cy="77.6999" fill="#84BE84" rx="3" ry="3" style="stroke:#038048;stroke-width:1;"/><text fill="#808080" font-family="sans-serif" font-size="14" lengthAdjust="spacing" textLength="257.529" x="64.84" y="81.5619">item_at_path( a_path : String [1] ) : Any [1]</text><ellipse cx="55.84" cy="94.4998" fill="#84BE84" rx="3" ry="3" style="stroke:#038048;stroke-width:1;"/><text fill="#808080" font-family="sans-serif" font-size="14" lengthAdjust="spacing" textLength="302.9868" x="64.84" y="98.3618">items_at_path( a_path : String [1] ) : List&lt;Any&gt; [*]</text><ellipse cx="55.84" cy="111.2997" fill="#84BE84" rx="3" ry="3" style="stroke:#038048;stroke-width:1;"/><text fill="#808080" font-family="sans-serif" font-size="14" lengthAdjust="spacing" textLength="273.1249" x="64.84" y="115.1617">path_exists( a_path : String [1] ) : Boolean [1]</text><ellipse cx="55.84" cy="128.0997" fill="#84BE84" rx="3" ry="3" style="stroke:#038048;stroke-width:1;"/><text fill="#808080" font-family="sans-serif" font-size="14" lengthAdjust="spacing" textLength="280.0549" x="64.84" y="131.9616">path_unique( a_path : String [1] ) : Boolean [1]</text><ellipse cx="55.84" cy="144.8996" fill="#84BE84" rx="3" ry="3" style="stroke:#038048;stroke-width:1;"/><text fill="#808080" font-family="sans-serif" font-size="14" lengthAdjust="spacing" textLength="292.6829" x="64.84" y="148.7616">path_of_item( a_loc : PATHABLE [1] ) : String [1]</text></g><!--reverse link PATHABLE to LOCATABLE--><g class="link" data-entity-1="PATHABLE" data-entity-2="LOCATABLE" data-source-line="45" data-uid="lnk7" id="link_PATHABLE_LOCATABLE"><path codeLine="45" d="M209.34,174.24 C209.34,193.19 209.34,195.8 209.34,215.49" fill="none" id="PATHABLE-backto-LOCATABLE" style="stroke:#181818;stroke-width:1;"/><polygon fill="none" points="209.34,156.24,203.34,174.24,215.34,174.24,209.34,156.24" style="stroke:#181818;stroke-width:1;"/></g><!--reverse link LOCATABLE to DATA_STRUCTURE--><g class="link" data-entity-1="LOCATABLE" data-entity-2="DATA_STRUCTURE" data-source-line="47" data-uid="lnk8" id="link_LOCATABLE_DATA_STRUCTURE"><path codeLine="47" d="M209.34,416.54 C209.34,437.86 209.34,441.2 209.34,457.86" fill="none" id="LOCATABLE-backto-DATA_STRUCTURE" style="stroke:#181818;stroke-width:1;"/><polygon fill="none" points="209.34,398.54,203.34,416.54,215.34,416.54,209.34,398.54" style="stroke:#181818;stroke-width:1;"/></g><!--reverse link DATA_STRUCTURE to ITEM_STRUCTURE--><g class="link" data-entity-1="DATA_STRUCTURE" data-entity-2="ITEM_STRUCTURE" data-source-line="49" data-uid="lnk9" id="link_DATA_STRUCTURE_ITEM_STRUCTURE"><path codeLine="49" d="M209.34,541.47 C209.34,560.24 209.34,565.58 209.34,582.65" fill="none" id="DATA_STRUCTURE-backto-ITEM_STRUCTURE" style="stroke:#181818;stroke-width:1;"/><polygon fill="none" points="209.34,523.47,203.34,541.47,215.34,541.47,209.34,523.47" style="stroke:#181818;stroke-width:1;"/></g><!--reverse link ITEM_STRUCTURE to ITEM_TABLE--><g class="link" data-entity-1="ITEM_STRUCTURE" data-entity-2="ITEM_TABLE" data-source-line="51" data-uid="lnk10" id="link_ITEM_STRUCTURE_ITEM_TABLE"><path codeLine="51" d="M209.34,649.44 C209.34,664.69 209.34,667.94 209.34,690.77" fill="none" id="ITEM_STRUCTURE-backto-ITEM_TABLE" style="stroke:#181818;stroke-width:1;"/><polygon fill="none" points="209.34,631.44,203.34,649.44,215.34,649.44,209.34,631.44" style="stroke:#181818;stroke-width:1;"/></g></g></svg>
