<svg xmlns="http://www.w3.org/2000/svg" xmlns:xlink="http://www.w3.org/1999/xlink" contentStyleType="text/css" data-diagram-type="CLASS" height="1021px" preserveAspectRatio="none" style="width:342px;height:1021px;background:#FFFFFF;" version="1.1" viewBox="0 0 342 1021" width="342px" zoomAndPan="magnify"><defs/><g><!--class OBSERVATION--><g class="entity" data-entity="OBSERVATION" data-source-line="2" data-uid="ent0002" id="entity_OBSERVATION"><rect fill="#F1F1F1" height="81.5999" rx="2.5" ry="2.5" style="stroke:#181818;stroke-width:0.5;" width="290.4589" x="26.26" y="933.4"/><ellipse cx="120.2067" cy="949.4" fill="#ADD1B2" rx="11" ry="11" style="stroke:#181818;stroke-width:1;"/><path d="M120.2067,955.8219 C121.3785,955.8219 122.6129,955.5563 123.9879,954.9469 L123.5035,953.4313 C122.4098,953.8531 121.3942,954.0406 120.5348,954.0406 C117.816,954.0406 116.0973,952.1969 116.0973,949.2906 C116.0973,946.5406 117.6598,944.9469 120.3942,944.9469 C121.316,944.9469 122.3317,945.1344 123.4723,945.5563 L124.0504,944.0406 C122.9567,943.4625 121.6598,943.1656 120.4723,943.1656 C116.7067,943.1656 114.1285,945.8063 114.1285,949.6188 C114.1285,953.2906 116.6129,955.8219 120.2067,955.8219 Z " fill="#000000"/><text fill="#000000" font-family="sans-serif" font-size="14" lengthAdjust="spacing" textLength="94.0656" x="140.7067" y="954.762">OBSERVATION</text><line style="stroke:#181818;stroke-width:0.5;" x1="27.26" x2="315.7189" y1="965.4" y2="965.4"/><ellipse cx="37.26" cy="979.3" fill="none" rx="3" ry="3" style="stroke:#038048;stroke-width:1;"/><text fill="#000000" font-family="sans-serif" font-size="14" lengthAdjust="spacing" textLength="244.901" x="46.26" y="983.1619">data : HISTORY&lt;ITEM_STRUCTURE&gt; [1]</text><ellipse cx="37.26" cy="996.0999" fill="none" rx="3" ry="3" style="stroke:#038048;stroke-width:1;"/><text fill="#000000" font-family="sans-serif" font-size="14" lengthAdjust="spacing" textLength="264.4589" x="46.26" y="999.9619">state : HISTORY&lt;ITEM_STRUCTURE&gt; [0..1]</text><line style="stroke:#181818;stroke-width:0.5;" x1="27.26" x2="315.7189" y1="1006.9999" y2="1006.9999"/></g><!--class CARE_ENTRY--><g class="entity" data-entity="CARE_ENTRY" data-source-line="7" data-uid="ent0003" id="entity_CARE_ENTRY"><rect fill="#F5F5F5" height="81.5999" rx="2.5" ry="2.5" style="stroke:#808080;stroke-width:1;stroke-dasharray:1,3;" width="238.6872" x="52.15" y="791.8"/><ellipse cx="124.7188" cy="807.8" fill="#A9DCDF" rx="11" ry="11" style="stroke:#181818;stroke-width:1;"/><path d="M119.2344,813.3 L121.2656,813.3 L125.3125,801.9563 L124.4063,801.9563 L128.2344,813.3 L130.375,813.3 L126.0469,800.9719 L123.8281,800.9719 L119.2344,813.3 Z M121.5625,809.8 L128,809.8 L128,808.05 L121.5625,808.05 L121.5625,809.8 Z " fill="#000000"/><text fill="#808080" font-family="sans-serif" font-size="14" font-style="italic" lengthAdjust="spacing" textLength="85.0496" x="145.2188" y="813.162">CARE_ENTRY</text><line style="stroke:#808080;stroke-width:1;stroke-dasharray:1,3;" x1="53.15" x2="289.8372" y1="823.8" y2="823.8"/><ellipse cx="63.15" cy="837.7" fill="none" rx="3" ry="3" style="stroke:#038048;stroke-width:1;"/><text fill="#808080" font-family="sans-serif" font-size="14" lengthAdjust="spacing" textLength="212.6872" x="72.15" y="841.5619">protocol : ITEM_STRUCTURE [0..1]</text><ellipse cx="63.15" cy="854.4999" fill="none" rx="3" ry="3" style="stroke:#038048;stroke-width:1;"/><text fill="#808080" font-family="sans-serif" font-size="14" lengthAdjust="spacing" textLength="201.9072" x="72.15" y="858.3619">guideline_id : OBJECT_REF [0..1]</text><line style="stroke:#808080;stroke-width:1;stroke-dasharray:1,3;" x1="53.15" x2="289.8372" y1="865.3999" y2="865.3999"/></g><!--class ENTRY--><g class="entity" data-entity="ENTRY" data-source-line="12" data-uid="ent0004" id="entity_ENTRY"><rect fill="#F5F5F5" height="165.5995" rx="2.5" ry="2.5" style="stroke:#808080;stroke-width:1;stroke-dasharray:1,3;" width="319.0189" x="11.98" y="566.2"/><ellipse cx="145.5395" cy="582.2" fill="#A9DCDF" rx="11" ry="11" style="stroke:#181818;stroke-width:1;"/><path d="M140.0551,587.7 L142.0864,587.7 L146.1333,576.3563 L145.227,576.3563 L149.0551,587.7 L151.1958,587.7 L146.8676,575.3719 L144.6489,575.3719 L140.0551,587.7 Z M142.3833,584.2 L148.8208,584.2 L148.8208,582.45 L142.3833,582.45 L142.3833,584.2 Z " fill="#000000"/><text fill="#808080" font-family="sans-serif" font-size="14" font-style="italic" lengthAdjust="spacing" textLength="43.3998" x="166.0395" y="587.562">ENTRY</text><line style="stroke:#808080;stroke-width:1;stroke-dasharray:1,3;" x1="12.98" x2="329.9989" y1="598.2" y2="598.2"/><ellipse cx="22.98" cy="612.1" fill="none" rx="3" ry="3" style="stroke:#038048;stroke-width:1;"/><text fill="#808080" font-family="sans-serif" font-size="14" lengthAdjust="spacing" textLength="182.3913" x="31.98" y="615.9619">language : CODE_PHRASE [1]</text><ellipse cx="22.98" cy="628.8999" fill="none" rx="3" ry="3" style="stroke:#038048;stroke-width:1;"/><text fill="#808080" font-family="sans-serif" font-size="14" lengthAdjust="spacing" textLength="182.2093" x="31.98" y="632.7619">encoding : CODE_PHRASE [1]</text><ellipse cx="22.98" cy="645.6998" fill="none" rx="3" ry="3" style="stroke:#038048;stroke-width:1;"/><text fill="#808080" font-family="sans-serif" font-size="14" lengthAdjust="spacing" textLength="293.0189" x="31.98" y="649.5618">other_participations : List&lt;PARTICIPATION&gt; [*]</text><ellipse cx="22.98" cy="662.4997" fill="none" rx="3" ry="3" style="stroke:#038048;stroke-width:1;"/><text fill="#808080" font-family="sans-serif" font-size="14" lengthAdjust="spacing" textLength="203.3352" x="31.98" y="666.3617">workflow_id : OBJECT_REF [0..1]</text><ellipse cx="22.98" cy="679.2997" fill="none" rx="3" ry="3" style="stroke:#038048;stroke-width:1;"/><text fill="#808080" font-family="sans-serif" font-size="14" lengthAdjust="spacing" textLength="166.0533" x="31.98" y="683.1616">subject : PARTY_PROXY [1]</text><ellipse cx="22.98" cy="696.0996" fill="none" rx="3" ry="3" style="stroke:#038048;stroke-width:1;"/><text fill="#808080" font-family="sans-serif" font-size="14" lengthAdjust="spacing" textLength="189.1252" x="31.98" y="699.9616">provider : PARTY_PROXY [0..1]</text><line style="stroke:#808080;stroke-width:1;stroke-dasharray:1,3;" x1="12.98" x2="329.9989" y1="706.9996" y2="706.9996"/><ellipse cx="22.98" cy="720.8995" fill="#84BE84" rx="3" ry="3" style="stroke:#038048;stroke-width:1;"/><text fill="#808080" font-family="sans-serif" font-size="14" lengthAdjust="spacing" textLength="179.2553" x="31.98" y="724.7615">subject_is_self() : Boolean [1]</text></g><!--class CONTENT_ITEM--><g class="entity" data-entity="CONTENT_ITEM" data-source-line="22" data-uid="ent0005" id="entity_CONTENT_ITEM"><rect fill="#F5F5F5" height="48" rx="2.5" ry="2.5" style="stroke:#808080;stroke-width:1;stroke-dasharray:1,3;" width="135.5576" x="103.71" y="458.2"/><ellipse cx="118.71" cy="474.2" fill="#A9DCDF" rx="11" ry="11" style="stroke:#181818;stroke-width:1;"/><path d="M113.2256,479.7 L115.2569,479.7 L119.3038,468.3563 L118.3975,468.3563 L122.2256,479.7 L124.3663,479.7 L120.0381,467.3719 L117.8194,467.3719 L113.2256,479.7 Z M115.5538,476.2 L121.9913,476.2 L121.9913,474.45 L115.5538,474.45 L115.5538,476.2 Z " fill="#000000"/><text fill="#808080" font-family="sans-serif" font-size="14" font-style="italic" lengthAdjust="spacing" textLength="103.5576" x="132.71" y="479.562">CONTENT_ITEM</text><line style="stroke:#808080;stroke-width:1;stroke-dasharray:1,3;" x1="104.71" x2="238.2676" y1="490.2" y2="490.2"/><line style="stroke:#808080;stroke-width:1;stroke-dasharray:1,3;" x1="104.71" x2="238.2676" y1="498.2" y2="498.2"/></g><!--class LOCATABLE--><g class="entity" data-entity="LOCATABLE" data-source-line="25" data-uid="ent0006" id="entity_LOCATABLE"><rect fill="#F5F5F5" height="182.3994" rx="2.5" ry="2.5" style="stroke:#808080;stroke-width:1;stroke-dasharray:1,3;" width="267.387" x="37.8" y="215.8"/><ellipse cx="129.1007" cy="231.8" fill="#A9DCDF" rx="11" ry="11" style="stroke:#181818;stroke-width:1;"/><path d="M123.6163,237.3 L125.6475,237.3 L129.6944,225.9562 L128.7882,225.9562 L132.6163,237.3 L134.7569,237.3 L130.4288,224.9719 L128.21,224.9719 L123.6163,237.3 Z M125.9444,233.8 L132.3819,233.8 L132.3819,232.05 L125.9444,232.05 L125.9444,233.8 Z " fill="#000000"/><text fill="#808080" font-family="sans-serif" font-size="14" font-style="italic" lengthAdjust="spacing" textLength="76.2857" x="149.6007" y="237.162">LOCATABLE</text><line style="stroke:#808080;stroke-width:1;stroke-dasharray:1,3;" x1="38.8" x2="304.187" y1="247.8" y2="247.8"/><ellipse cx="48.8" cy="261.7" fill="none" rx="3" ry="3" style="stroke:#038048;stroke-width:1;"/><text fill="#808080" font-family="sans-serif" font-size="14" lengthAdjust="spacing" textLength="121.2115" x="57.8" y="265.5619">name : DV_TEXT [1]</text><ellipse cx="48.8" cy="278.4999" fill="none" rx="3" ry="3" style="stroke:#038048;stroke-width:1;"/><text fill="#808080" font-family="sans-serif" font-size="14" lengthAdjust="spacing" textLength="184.1273" x="57.8" y="282.3619">archetype_node_id : String [1]</text><ellipse cx="48.8" cy="295.2998" fill="none" rx="3" ry="3" style="stroke:#038048;stroke-width:1;"/><text fill="#808080" font-family="sans-serif" font-size="14" lengthAdjust="spacing" textLength="157.7794" x="57.8" y="299.1618">uid : UID_BASED_ID [0..1]</text><ellipse cx="48.8" cy="312.0997" fill="none" rx="3" ry="3" style="stroke:#038048;stroke-width:1;"/><text fill="#808080" font-family="sans-serif" font-size="14" lengthAdjust="spacing" textLength="126.0835" x="57.8" y="315.9617">links : List&lt;LINK&gt; [*]</text><ellipse cx="48.8" cy="328.8997" fill="none" rx="3" ry="3" style="stroke:#038048;stroke-width:1;"/><text fill="#808080" font-family="sans-serif" font-size="14" lengthAdjust="spacing" textLength="241.387" x="57.8" y="332.7616">archetype_details : ARCHETYPED [0..1]</text><ellipse cx="48.8" cy="345.6996" fill="none" rx="3" ry="3" style="stroke:#038048;stroke-width:1;"/><text fill="#808080" font-family="sans-serif" font-size="14" lengthAdjust="spacing" textLength="220.7791" x="57.8" y="349.5616">feeder_audit : FEEDER_AUDIT [0..1]</text><line style="stroke:#808080;stroke-width:1;stroke-dasharray:1,3;" x1="38.8" x2="304.187" y1="356.5996" y2="356.5996"/><ellipse cx="48.8" cy="370.4995" fill="#84BE84" rx="3" ry="3" style="stroke:#038048;stroke-width:1;"/><text fill="#808080" font-family="sans-serif" font-size="14" lengthAdjust="spacing" textLength="144.1295" x="57.8" y="374.3615">concept() : DV_TEXT [1]</text><ellipse cx="48.8" cy="387.2995" fill="#84BE84" rx="3" ry="3" style="stroke:#038048;stroke-width:1;"/><text fill="#808080" font-family="sans-serif" font-size="14" lengthAdjust="spacing" textLength="199.6812" x="57.8" y="391.1614">is_archetype_root() : Boolean [1]</text></g><!--class PATHABLE--><g class="entity" data-entity="PATHABLE" data-source-line="36" data-uid="ent0007" id="entity_PATHABLE"><rect fill="#F5F5F5" height="148.7996" rx="2.5" ry="2.5" style="stroke:#808080;stroke-width:1;stroke-dasharray:1,3;" width="328.9868" x="7" y="7"/><ellipse cx="133.3006" cy="23" fill="#A9DCDF" rx="11" ry="11" style="stroke:#181818;stroke-width:1;"/><path d="M127.8162,28.5 L129.8474,28.5 L133.8943,17.1563 L132.9881,17.1563 L136.8162,28.5 L138.9568,28.5 L134.6287,16.1719 L132.4099,16.1719 L127.8162,28.5 Z M130.1443,25 L136.5818,25 L136.5818,23.25 L130.1443,23.25 L130.1443,25 Z " fill="#000000"/><text fill="#808080" font-family="sans-serif" font-size="14" font-style="italic" lengthAdjust="spacing" textLength="67.8857" x="153.8006" y="28.362">PATHABLE</text><line style="stroke:#808080;stroke-width:1;stroke-dasharray:1,3;" x1="8" x2="334.9868" y1="39" y2="39"/><line style="stroke:#808080;stroke-width:1;stroke-dasharray:1,3;" x1="8" x2="334.9868" y1="47" y2="47"/><ellipse cx="18" cy="60.9" fill="#84BE84" rx="3" ry="3" style="stroke:#038048;stroke-width:1;"/><text fill="#808080" font-family="sans-serif" font-size="14" lengthAdjust="spacing" textLength="145.6834" x="27" y="64.7619">parent() : PATHABLE [1]</text><ellipse cx="18" cy="77.6999" fill="#84BE84" rx="3" ry="3" style="stroke:#038048;stroke-width:1;"/><text fill="#808080" font-family="sans-serif" font-size="14" lengthAdjust="spacing" textLength="257.529" x="27" y="81.5619">item_at_path( a_path : String [1] ) : Any [1]</text><ellipse cx="18" cy="94.4998" fill="#84BE84" rx="3" ry="3" style="stroke:#038048;stroke-width:1;"/><text fill="#808080" font-family="sans-serif" font-size="14" lengthAdjust="spacing" textLength="302.9868" x="27" y="98.3618">items_at_path( a_path : String [1] ) : List&lt;Any&gt; [*]</text><ellipse cx="18" cy="111.2997" fill="#84BE84" rx="3" ry="3" style="stroke:#038048;stroke-width:1;"/><text fill="#808080" font-family="sans-serif" font-size="14" lengthAdjust="spacing" textLength="273.1249" x="27" y="115.1617">path_exists( a_path : String [1] ) : Boolean [1]</text><ellipse cx="18" cy="128.0997" fill="#84BE84" rx="3" ry="3" style="stroke:#038048;stroke-width:1;"/><text fill="#808080" font-family="sans-serif" font-size="14" lengthAdjust="spacing" textLength="280.0549" x="27" y="131.9616">path_unique( a_path : String [1] ) : Boolean [1]</text><ellipse cx="18" cy="144.8996" fill="#84BE84" rx="3" ry="3" style="stroke:#038048;stroke-width:1;"/><text fill="#808080" font-family="sans-serif" font-size="14" lengthAdjust="spacing" textLength="292.6829" x="27" y="148.7616">path_of_item( a_loc : PATHABLE [1] ) : String [1]</text></g><!--reverse link PATHABLE to LOCATABLE--><g class="link" data-entity-1="PATHABLE" data-entity-2="LOCATABLE" data-source-line="45" data-uid="lnk8" id="link_PATHABLE_LOCATABLE"><path codeLine="45" d="M171.49,174.24 C171.49,193.19 171.49,195.8 171.49,215.49" fill="none" id="PATHABLE-backto-LOCATABLE" style="stroke:#181818;stroke-width:1;"/><polygon fill="none" points="171.49,156.24,165.49,174.24,177.49,174.24,171.49,156.24" style="stroke:#181818;stroke-width:1;"/></g><!--reverse link LOCATABLE to CONTENT_ITEM--><g class="link" data-entity-1="LOCATABLE" data-entity-2="CONTENT_ITEM" data-source-line="47" data-uid="lnk9" id="link_LOCATABLE_CONTENT_ITEM"><path codeLine="47" d="M171.49,416.66 C171.49,438.59 171.49,442.18 171.49,457.77" fill="none" id="LOCATABLE-backto-CONTENT_ITEM" style="stroke:#181818;stroke-width:1;"/><polygon fill="none" points="171.49,398.66,165.49,416.66,177.49,416.66,171.49,398.66" style="stroke:#181818;stroke-width:1;"/></g><!--reverse link CONTENT_ITEM to ENTRY--><g class="link" data-entity-1="CONTENT_ITEM" data-entity-2="ENTRY" data-source-line="49" data-uid="lnk10" id="link_CONTENT_ITEM_ENTRY"><path codeLine="49" d="M171.49,524.46 C171.49,540.26 171.49,544.17 171.49,566.05" fill="none" id="CONTENT_ITEM-backto-ENTRY" style="stroke:#181818;stroke-width:1;"/><polygon fill="none" points="171.49,506.46,165.49,524.46,177.49,524.46,171.49,506.46" style="stroke:#181818;stroke-width:1;"/></g><!--reverse link ENTRY to CARE_ENTRY--><g class="link" data-entity-1="ENTRY" data-entity-2="CARE_ENTRY" data-source-line="51" data-uid="lnk11" id="link_ENTRY_CARE_ENTRY"><path codeLine="51" d="M171.49,750.3 C171.49,770.95 171.49,774.18 171.49,791.69" fill="none" id="ENTRY-backto-CARE_ENTRY" style="stroke:#181818;stroke-width:1;"/><polygon fill="none" points="171.49,732.3,165.49,750.3,177.49,750.3,171.49,732.3" style="stroke:#181818;stroke-width:1;"/></g><!--reverse link CARE_ENTRY to OBSERVATION--><g class="link" data-entity-1="CARE_ENTRY" data-entity-2="OBSERVATION" data-source-line="53" data-uid="lnk12" id="link_CARE_ENTRY_OBSERVATION"><path codeLine="53" d="M171.49,891.6 C171.49,910.3 171.49,914.5 171.49,933.19" fill="none" id="CARE_ENTRY-backto-OBSERVATION" style="stroke:#181818;stroke-width:1;"/><polygon fill="none" points="171.49,873.6,165.49,891.6,177.49,891.6,171.49,873.6" style="stroke:#181818;stroke-width:1;"/></g></g></svg>
