<svg xmlns="http://www.w3.org/2000/svg" xmlns:xlink="http://www.w3.org/1999/xlink" contentStyleType="text/css" data-diagram-type="CLASS" height="597px" preserveAspectRatio="none" style="width:342px;height:597px;background:#FFFFFF;" version="1.1" viewBox="0 0 342 597" width="342px" zoomAndPan="magnify"><defs/><g><!--class PARTY_RELATIONSHIP--><g class="entity" data-entity="PARTY_RELATIONSHIP" data-source-line="2" data-uid="ent0002" id="entity_PARTY_RELATIONSHIP"><rect fill="#F1F1F1" height="131.9996" rx="2.5" ry="2.5" style="stroke:#181818;stroke-width:0.5;" width="315.1828" x="13.9" y="458.2"/><ellipse cx="95.1977" cy="474.2" fill="#ADD1B2" rx="11" ry="11" style="stroke:#181818;stroke-width:1;"/><path d="M95.1977,480.6219 C96.3696,480.6219 97.6039,480.3563 98.9789,479.7469 L98.4946,478.2313 C97.4008,478.6531 96.3852,478.8406 95.5258,478.8406 C92.8071,478.8406 91.0883,476.9969 91.0883,474.0906 C91.0883,471.3406 92.6508,469.7469 95.3852,469.7469 C96.3071,469.7469 97.3227,469.9344 98.4633,470.3563 L99.0414,468.8406 C97.9477,468.2625 96.6508,467.9656 95.4633,467.9656 C91.6977,467.9656 89.1196,470.6063 89.1196,474.4188 C89.1196,478.0906 91.6039,480.6219 95.1977,480.6219 Z " fill="#000000"/><text fill="#000000" font-family="sans-serif" font-size="14" lengthAdjust="spacing" textLength="144.0874" x="115.6977" y="479.562">PARTY_RELATIONSHIP</text><line style="stroke:#181818;stroke-width:0.5;" x1="14.9" x2="328.0828" y1="490.2" y2="490.2"/><ellipse cx="24.9" cy="504.1" fill="none" rx="3" ry="3" style="stroke:#038048;stroke-width:1;"/><text fill="#000000" font-family="sans-serif" font-size="14" lengthAdjust="spacing" textLength="201.5432" x="33.9" y="507.9619">details : ITEM_STRUCTURE [0..1]</text><ellipse cx="24.9" cy="520.8999" fill="none" rx="3" ry="3" style="stroke:#038048;stroke-width:1;"/><text fill="#000000" font-family="sans-serif" font-size="14" lengthAdjust="spacing" textLength="139.9574" x="33.9" y="524.7619">target : PARTY_REF [1]</text><ellipse cx="24.9" cy="537.6998" fill="none" rx="3" ry="3" style="stroke:#038048;stroke-width:1;"/><text fill="#000000" font-family="sans-serif" font-size="14" lengthAdjust="spacing" textLength="289.1828" x="33.9" y="541.5618">time_validity : DV_INTERVAL&lt;DV_DATE&gt; [0..1]</text><ellipse cx="24.9" cy="554.4997" fill="none" rx="3" ry="3" style="stroke:#038048;stroke-width:1;"/><text fill="#000000" font-family="sans-serif" font-size="14" lengthAdjust="spacing" textLength="143.4854" x="33.9" y="558.3617">source : PARTY_REF [1]</text><line style="stroke:#181818;stroke-width:0.5;" x1="14.9" x2="328.0828" y1="565.3997" y2="565.3997"/><ellipse cx="24.9" cy="579.2997" fill="#84BE84" rx="3" ry="3" style="stroke:#038048;stroke-width:1;"/><text fill="#000000" font-family="sans-serif" font-size="14" lengthAdjust="spacing" textLength="121.8975" x="33.9" y="583.1616">type() : DV_TEXT [1]</text></g><!--class LOCATABLE--><g class="entity" data-entity="LOCATABLE" data-source-line="10" data-uid="ent0003" id="entity_LOCATABLE"><rect fill="#F5F5F5" height="182.3994" rx="2.5" ry="2.5" style="stroke:#808080;stroke-width:1;stroke-dasharray:1,3;" width="267.387" x="37.8" y="215.8"/><ellipse cx="129.1007" cy="231.8" fill="#A9DCDF" rx="11" ry="11" style="stroke:#181818;stroke-width:1;"/><path d="M123.6163,237.3 L125.6475,237.3 L129.6944,225.9563 L128.7882,225.9563 L132.6163,237.3 L134.7569,237.3 L130.4288,224.9719 L128.21,224.9719 L123.6163,237.3 Z M125.9444,233.8 L132.3819,233.8 L132.3819,232.05 L125.9444,232.05 L125.9444,233.8 Z " fill="#000000"/><text fill="#808080" font-family="sans-serif" font-size="14" font-style="italic" lengthAdjust="spacing" textLength="76.2857" x="149.6007" y="237.162">LOCATABLE</text><line style="stroke:#808080;stroke-width:1;stroke-dasharray:1,3;" x1="38.8" x2="304.187" y1="247.8" y2="247.8"/><ellipse cx="48.8" cy="261.7" fill="none" rx="3" ry="3" style="stroke:#038048;stroke-width:1;"/><text fill="#808080" font-family="sans-serif" font-size="14" lengthAdjust="spacing" textLength="121.2115" x="57.8" y="265.5619">name : DV_TEXT [1]</text><ellipse cx="48.8" cy="278.4999" fill="none" rx="3" ry="3" style="stroke:#038048;stroke-width:1;"/><text fill="#808080" font-family="sans-serif" font-size="14" lengthAdjust="spacing" textLength="184.1273" x="57.8" y="282.3619">archetype_node_id : String [1]</text><ellipse cx="48.8" cy="295.2998" fill="none" rx="3" ry="3" style="stroke:#038048;stroke-width:1;"/><text fill="#808080" font-family="sans-serif" font-size="14" lengthAdjust="spacing" textLength="157.7794" x="57.8" y="299.1618">uid : UID_BASED_ID [0..1]</text><ellipse cx="48.8" cy="312.0997" fill="none" rx="3" ry="3" style="stroke:#038048;stroke-width:1;"/><text fill="#808080" font-family="sans-serif" font-size="14" lengthAdjust="spacing" textLength="126.0835" x="57.8" y="315.9617">links : List&lt;LINK&gt; [*]</text><ellipse cx="48.8" cy="328.8997" fill="none" rx="3" ry="3" style="stroke:#038048;stroke-width:1;"/><text fill="#808080" font-family="sans-serif" font-size="14" lengthAdjust="spacing" textLength="241.387" x="57.8" y="332.7616">archetype_details : ARCHETYPED [0..1]</text><ellipse cx="48.8" cy="345.6996" fill="none" rx="3" ry="3" style="stroke:#038048;stroke-width:1;"/><text fill="#808080" font-family="sans-serif" font-size="14" lengthAdjust="spacing" textLength="220.7791" x="57.8" y="349.5616">feeder_audit : FEEDER_AUDIT [0..1]</text><line style="stroke:#808080;stroke-width:1;stroke-dasharray:1,3;" x1="38.8" x2="304.187" y1="356.5996" y2="356.5996"/><ellipse cx="48.8" cy="370.4995" fill="#84BE84" rx="3" ry="3" style="stroke:#038048;stroke-width:1;"/><text fill="#808080" font-family="sans-serif" font-size="14" lengthAdjust="spacing" textLength="144.1295" x="57.8" y="374.3615">concept() : DV_TEXT [1]</text><ellipse cx="48.8" cy="387.2995" fill="#84BE84" rx="3" ry="3" style="stroke:#038048;stroke-width:1;"/><text fill="#808080" font-family="sans-serif" font-size="14" lengthAdjust="spacing" textLength="199.6812" x="57.8" y="391.1614">is_archetype_root() : Boolean [1]</text></g><!--class PATHABLE--><g class="entity" data-entity="PATHABLE" data-source-line="21" data-uid="ent0004" id="entity_PATHABLE"><rect fill="#F5F5F5" height="148.7996" rx="2.5" ry="2.5" style="stroke:#808080;stroke-width:1;stroke-dasharray:1,3;" width="328.9868" x="7" y="7"/><ellipse cx="133.3006" cy="23" fill="#A9DCDF" rx="11" ry="11" style="stroke:#181818;stroke-width:1;"/><path d="M127.8162,28.5 L129.8474,28.5 L133.8943,17.1563 L132.9881,17.1563 L136.8162,28.5 L138.9568,28.5 L134.6287,16.1719 L132.4099,16.1719 L127.8162,28.5 Z M130.1443,25 L136.5818,25 L136.5818,23.25 L130.1443,23.25 L130.1443,25 Z " fill="#000000"/><text fill="#808080" font-family="sans-serif" font-size="14" font-style="italic" lengthAdjust="spacing" textLength="67.8857" x="153.8006" y="28.362">PATHABLE</text><line style="stroke:#808080;stroke-width:1;stroke-dasharray:1,3;" x1="8" x2="334.9868" y1="39" y2="39"/><line style="stroke:#808080;stroke-width:1;stroke-dasharray:1,3;" x1="8" x2="334.9868" y1="47" y2="47"/><ellipse cx="18" cy="60.9" fill="#84BE84" rx="3" ry="3" style="stroke:#038048;stroke-width:1;"/><text fill="#808080" font-family="sans-serif" font-size="14" lengthAdjust="spacing" textLength="145.6834" x="27" y="64.7619">parent() : PATHABLE [1]</text><ellipse cx="18" cy="77.6999" fill="#84BE84" rx="3" ry="3" style="stroke:#038048;stroke-width:1;"/><text fill="#808080" font-family="sans-serif" font-size="14" lengthAdjust="spacing" textLength="257.529" x="27" y="81.5619">item_at_path( a_path : String [1] ) : Any [1]</text><ellipse cx="18" cy="94.4998" fill="#84BE84" rx="3" ry="3" style="stroke:#038048;stroke-width:1;"/><text fill="#808080" font-family="sans-serif" font-size="14" lengthAdjust="spacing" textLength="302.9868" x="27" y="98.3618">items_at_path( a_path : String [1] ) : List&lt;Any&gt; [*]</text><ellipse cx="18" cy="111.2997" fill="#84BE84" rx="3" ry="3" style="stroke:#038048;stroke-width:1;"/><text fill="#808080" font-family="sans-serif" font-size="14" lengthAdjust="spacing" textLength="273.1249" x="27" y="115.1617">path_exists( a_path : String [1] ) : Boolean [1]</text><ellipse cx="18" cy="128.0997" fill="#84BE84" rx="3" ry="3" style="stroke:#038048;stroke-width:1;"/><text fill="#808080" font-family="sans-serif" font-size="14" lengthAdjust="spacing" textLength="280.0549" x="27" y="131.9616">path_unique( a_path : String [1] ) : Boolean [1]</text><ellipse cx="18" cy="144.8996" fill="#84BE84" rx="3" ry="3" style="stroke:#038048;stroke-width:1;"/><text fill="#808080" font-family="sans-serif" font-size="14" lengthAdjust="spacing" textLength="292.6829" x="27" y="148.7616">path_of_item( a_loc : PATHABLE [1] ) : String [1]</text></g><!--reverse link PATHABLE to LOCATABLE--><g class="link" data-entity-1="PATHABLE" data-entity-2="LOCATABLE" data-source-line="30" data-uid="lnk5" id="link_PATHABLE_LOCATABLE"><path codeLine="30" d="M171.49,174.24 C171.49,193.19 171.49,195.8 171.49,215.49" fill="none" id="PATHABLE-backto-LOCATABLE" style="stroke:#181818;stroke-width:1;"/><polygon fill="none" points="171.49,156.24,165.49,174.24,177.49,174.24,171.49,156.24" style="stroke:#181818;stroke-width:1;"/></g><!--reverse link LOCATABLE to PARTY_RELATIONSHIP--><g class="link" data-entity-1="LOCATABLE" data-entity-2="PARTY_RELATIONSHIP" data-source-line="32" data-uid="lnk6" id="link_LOCATABLE_PARTY_RELATIONSHIP"><path codeLine="32" d="M171.49,416.64 C171.49,436.51 171.49,439.18 171.49,457.83" fill="none" id="LOCATABLE-backto-PARTY_RELATIONSHIP" style="stroke:#181818;stroke-width:1;"/><polygon fill="none" points="171.49,398.64,165.49,416.64,177.49,416.64,171.49,398.64" style="stroke:#181818;stroke-width:1;"/></g></g></svg>
