<svg xmlns="http://www.w3.org/2000/svg" xmlns:xlink="http://www.w3.org/1999/xlink" contentStyleType="text/css" data-diagram-type="CLASS" height="613px" preserveAspectRatio="none" style="width:348px;height:613px;background:#FFFFFF;" version="1.1" viewBox="0 0 348 613" width="348px" zoomAndPan="magnify"><defs/><g><!--class PARTY--><g class="entity" data-entity="PARTY" data-source-line="2" data-uid="ent0002" id="entity_PARTY"><rect fill="#F1F1F1" height="148.7996" rx="2.5" ry="2.5" style="stroke:#181818;stroke-width:0.5;" width="334.9507" x="7" y="458.2"/><ellipse cx="149.3515" cy="474.2" fill="#A9DCDF" rx="11" ry="11" style="stroke:#181818;stroke-width:1;"/><path d="M143.8671,479.7 L145.8983,479.7 L149.9452,468.3563 L149.039,468.3563 L152.8671,479.7 L155.0077,479.7 L150.6796,467.3719 L148.4608,467.3719 L143.8671,479.7 Z M146.1952,476.2 L152.6327,476.2 L152.6327,474.45 L146.1952,474.45 L146.1952,476.2 Z " fill="#000000"/><text fill="#000000" font-family="sans-serif" font-size="14" font-style="italic" lengthAdjust="spacing" textLength="41.7478" x="169.8515" y="479.562">PARTY</text><line style="stroke:#181818;stroke-width:0.5;" x1="8" x2="340.9507" y1="490.2" y2="490.2"/><ellipse cx="18" cy="504.1" fill="none" rx="3" ry="3" style="stroke:#038048;stroke-width:1;"/><text fill="#000000" font-family="sans-serif" font-size="14" lengthAdjust="spacing" textLength="247.057" x="27" y="507.9619">identities : List&lt;PARTY_IDENTITY&gt; [1..*]</text><ellipse cx="18" cy="520.8999" fill="none" rx="3" ry="3" style="stroke:#038048;stroke-width:1;"/><text fill="#000000" font-family="sans-serif" font-size="14" lengthAdjust="spacing" textLength="184.0433" x="27" y="524.7619">contacts : List&lt;CONTACT&gt; [*]</text><ellipse cx="18" cy="537.6998" fill="none" rx="3" ry="3" style="stroke:#038048;stroke-width:1;"/><text fill="#000000" font-family="sans-serif" font-size="14" lengthAdjust="spacing" textLength="201.5432" x="27" y="541.5618">details : ITEM_STRUCTURE [0..1]</text><ellipse cx="18" cy="554.4997" fill="none" rx="3" ry="3" style="stroke:#038048;stroke-width:1;"/><text fill="#000000" font-family="sans-serif" font-size="14" lengthAdjust="spacing" textLength="308.9507" x="27" y="558.3617">reverse_relationships : List&lt;LOCATABLE_REF&gt; [*]</text><ellipse cx="18" cy="571.2997" fill="none" rx="3" ry="3" style="stroke:#038048;stroke-width:1;"/><text fill="#000000" font-family="sans-serif" font-size="14" lengthAdjust="spacing" textLength="292.0668" x="27" y="575.1616">relationships : List&lt;PARTY_RELATIONSHIP&gt; [*]</text><line style="stroke:#181818;stroke-width:0.5;" x1="8" x2="340.9507" y1="582.1996" y2="582.1996"/><ellipse cx="18" cy="596.0996" fill="#84BE84" rx="3" ry="3" style="stroke:#038048;stroke-width:1;"/><text fill="#000000" font-family="sans-serif" font-size="14" lengthAdjust="spacing" textLength="121.8975" x="27" y="599.9616">type() : DV_TEXT [1]</text></g><!--class LOCATABLE--><g class="entity" data-entity="LOCATABLE" data-source-line="11" data-uid="ent0003" id="entity_LOCATABLE"><rect fill="#F5F5F5" height="182.3994" rx="2.5" ry="2.5" style="stroke:#808080;stroke-width:1;stroke-dasharray:1,3;" width="267.387" x="40.78" y="215.8"/><ellipse cx="132.0807" cy="231.8" fill="#A9DCDF" rx="11" ry="11" style="stroke:#181818;stroke-width:1;"/><path d="M126.5963,237.3 L128.6275,237.3 L132.6744,225.9563 L131.7682,225.9563 L135.5963,237.3 L137.7369,237.3 L133.4088,224.9719 L131.19,224.9719 L126.5963,237.3 Z M128.9244,233.8 L135.3619,233.8 L135.3619,232.05 L128.9244,232.05 L128.9244,233.8 Z " fill="#000000"/><text fill="#808080" font-family="sans-serif" font-size="14" font-style="italic" lengthAdjust="spacing" textLength="76.2857" x="152.5807" y="237.162">LOCATABLE</text><line style="stroke:#808080;stroke-width:1;stroke-dasharray:1,3;" x1="41.78" x2="307.167" y1="247.8" y2="247.8"/><ellipse cx="51.78" cy="261.7" fill="none" rx="3" ry="3" style="stroke:#038048;stroke-width:1;"/><text fill="#808080" font-family="sans-serif" font-size="14" lengthAdjust="spacing" textLength="121.2115" x="60.78" y="265.5619">name : DV_TEXT [1]</text><ellipse cx="51.78" cy="278.4999" fill="none" rx="3" ry="3" style="stroke:#038048;stroke-width:1;"/><text fill="#808080" font-family="sans-serif" font-size="14" lengthAdjust="spacing" textLength="184.1273" x="60.78" y="282.3619">archetype_node_id : String [1]</text><ellipse cx="51.78" cy="295.2998" fill="none" rx="3" ry="3" style="stroke:#038048;stroke-width:1;"/><text fill="#808080" font-family="sans-serif" font-size="14" lengthAdjust="spacing" textLength="157.7794" x="60.78" y="299.1618">uid : UID_BASED_ID [0..1]</text><ellipse cx="51.78" cy="312.0997" fill="none" rx="3" ry="3" style="stroke:#038048;stroke-width:1;"/><text fill="#808080" font-family="sans-serif" font-size="14" lengthAdjust="spacing" textLength="126.0835" x="60.78" y="315.9617">links : List&lt;LINK&gt; [*]</text><ellipse cx="51.78" cy="328.8997" fill="none" rx="3" ry="3" style="stroke:#038048;stroke-width:1;"/><text fill="#808080" font-family="sans-serif" font-size="14" lengthAdjust="spacing" textLength="241.387" x="60.78" y="332.7616">archetype_details : ARCHETYPED [0..1]</text><ellipse cx="51.78" cy="345.6996" fill="none" rx="3" ry="3" style="stroke:#038048;stroke-width:1;"/><text fill="#808080" font-family="sans-serif" font-size="14" lengthAdjust="spacing" textLength="220.7791" x="60.78" y="349.5616">feeder_audit : FEEDER_AUDIT [0..1]</text><line style="stroke:#808080;stroke-width:1;stroke-dasharray:1,3;" x1="41.78" x2="307.167" y1="356.5996" y2="356.5996"/><ellipse cx="51.78" cy="370.4995" fill="#84BE84" rx="3" ry="3" style="stroke:#038048;stroke-width:1;"/><text fill="#808080" font-family="sans-serif" font-size="14" lengthAdjust="spacing" textLength="144.1295" x="60.78" y="374.3615">concept() : DV_TEXT [1]</text><ellipse cx="51.78" cy="387.2995" fill="#84BE84" rx="3" ry="3" style="stroke:#038048;stroke-width:1;"/><text fill="#808080" font-family="sans-serif" font-size="14" lengthAdjust="spacing" textLength="199.6812" x="60.78" y="391.1614">is_archetype_root() : Boolean [1]</text></g><!--class PATHABLE--><g class="entity" data-entity="PATHABLE" data-source-line="22" data-uid="ent0004" id="entity_PATHABLE"><rect fill="#F5F5F5" height="148.7996" rx="2.5" ry="2.5" style="stroke:#808080;stroke-width:1;stroke-dasharray:1,3;" width="328.9868" x="9.98" y="7"/><ellipse cx="136.2806" cy="23" fill="#A9DCDF" rx="11" ry="11" style="stroke:#181818;stroke-width:1;"/><path d="M130.7962,28.5 L132.8274,28.5 L136.8743,17.1563 L135.9681,17.1563 L139.7962,28.5 L141.9368,28.5 L137.6087,16.1719 L135.3899,16.1719 L130.7962,28.5 Z M133.1243,25 L139.5618,25 L139.5618,23.25 L133.1243,23.25 L133.1243,25 Z " fill="#000000"/><text fill="#808080" font-family="sans-serif" font-size="14" font-style="italic" lengthAdjust="spacing" textLength="67.8857" x="156.7806" y="28.362">PATHABLE</text><line style="stroke:#808080;stroke-width:1;stroke-dasharray:1,3;" x1="10.98" x2="337.9668" y1="39" y2="39"/><line style="stroke:#808080;stroke-width:1;stroke-dasharray:1,3;" x1="10.98" x2="337.9668" y1="47" y2="47"/><ellipse cx="20.98" cy="60.9" fill="#84BE84" rx="3" ry="3" style="stroke:#038048;stroke-width:1;"/><text fill="#808080" font-family="sans-serif" font-size="14" lengthAdjust="spacing" textLength="145.6834" x="29.98" y="64.7619">parent() : PATHABLE [1]</text><ellipse cx="20.98" cy="77.6999" fill="#84BE84" rx="3" ry="3" style="stroke:#038048;stroke-width:1;"/><text fill="#808080" font-family="sans-serif" font-size="14" lengthAdjust="spacing" textLength="257.529" x="29.98" y="81.5619">item_at_path( a_path : String [1] ) : Any [1]</text><ellipse cx="20.98" cy="94.4998" fill="#84BE84" rx="3" ry="3" style="stroke:#038048;stroke-width:1;"/><text fill="#808080" font-family="sans-serif" font-size="14" lengthAdjust="spacing" textLength="302.9868" x="29.98" y="98.3618">items_at_path( a_path : String [1] ) : List&lt;Any&gt; [*]</text><ellipse cx="20.98" cy="111.2997" fill="#84BE84" rx="3" ry="3" style="stroke:#038048;stroke-width:1;"/><text fill="#808080" font-family="sans-serif" font-size="14" lengthAdjust="spacing" textLength="273.1249" x="29.98" y="115.1617">path_exists( a_path : String [1] ) : Boolean [1]</text><ellipse cx="20.98" cy="128.0997" fill="#84BE84" rx="3" ry="3" style="stroke:#038048;stroke-width:1;"/><text fill="#808080" font-family="sans-serif" font-size="14" lengthAdjust="spacing" textLength="280.0549" x="29.98" y="131.9616">path_unique( a_path : String [1] ) : Boolean [1]</text><ellipse cx="20.98" cy="144.8996" fill="#84BE84" rx="3" ry="3" style="stroke:#038048;stroke-width:1;"/><text fill="#808080" font-family="sans-serif" font-size="14" lengthAdjust="spacing" textLength="292.6829" x="29.98" y="148.7616">path_of_item( a_loc : PATHABLE [1] ) : String [1]</text></g><!--reverse link PATHABLE to LOCATABLE--><g class="link" data-entity-1="PATHABLE" data-entity-2="LOCATABLE" data-source-line="31" data-uid="lnk5" id="link_PATHABLE_LOCATABLE"><path codeLine="31" d="M174.48,174.24 C174.48,193.19 174.48,195.8 174.48,215.49" fill="none" id="PATHABLE-backto-LOCATABLE" style="stroke:#181818;stroke-width:1;"/><polygon fill="none" points="174.48,156.24,168.48,174.24,180.48,174.24,174.48,156.24" style="stroke:#181818;stroke-width:1;"/></g><!--reverse link LOCATABLE to PARTY--><g class="link" data-entity-1="LOCATABLE" data-entity-2="PARTY" data-source-line="33" data-uid="lnk6" id="link_LOCATABLE_PARTY"><path codeLine="33" d="M174.48,416.62 C174.48,436.36 174.48,439 174.48,457.98" fill="none" id="LOCATABLE-backto-PARTY" style="stroke:#181818;stroke-width:1;"/><polygon fill="none" points="174.48,398.62,168.48,416.62,180.48,416.62,174.48,398.62" style="stroke:#181818;stroke-width:1;"/></g></g></svg>
