<svg xmlns="http://www.w3.org/2000/svg" xmlns:xlink="http://www.w3.org/1999/xlink" contentStyleType="text/css" data-diagram-type="CLASS" height="119px" preserveAspectRatio="none" style="width:337px;height:119px;background:#FFFFFF;" version="1.1" viewBox="0 0 337 119" width="337px" zoomAndPan="magnify"><defs/><g><!--class REFERENCE_RANGE--><g class="entity" data-entity="REFERENCE_RANGE" data-source-line="2" data-uid="ent0002" id="entity_REFERENCE_RANGE"><rect fill="#F1F1F1" height="98.3998" rx="2.5" ry="2.5" style="stroke:#181818;stroke-width:0.5;" width="316.2189" x="7" y="7"/><ellipse cx="90.1607" cy="23" fill="#ADD1B2" rx="11" ry="11" style="stroke:#181818;stroke-width:1;"/><path d="M90.1607,29.4219 C91.3326,29.4219 92.5669,29.1563 93.9419,28.5469 L93.4576,27.0313 C92.3638,27.4531 91.3482,27.6406 90.4888,27.6406 C87.7701,27.6406 86.0513,25.7969 86.0513,22.8906 C86.0513,20.1406 87.6138,18.5469 90.3482,18.5469 C91.2701,18.5469 92.2857,18.7344 93.4263,19.1563 L94.0044,17.6406 C92.9107,17.0625 91.6138,16.7656 90.4263,16.7656 C86.6607,16.7656 84.0826,19.4063 84.0826,23.2188 C84.0826,26.8906 86.5669,29.4219 90.1607,29.4219 Z " fill="#000000"/><text fill="#000000" font-family="sans-serif" font-size="14" lengthAdjust="spacing" textLength="130.6055" x="110.6607" y="28.362">REFERENCE_RANGE</text><rect fill="#FFFFFF" height="16.4001" style="stroke:#181818;stroke-width:1;stroke-dasharray:2,2;" width="8.7921" x="317.4268" y="4"/><text fill="#000000" font-family="sans-serif" font-size="12" font-style="italic" lengthAdjust="spacing" textLength="6.7921" x="318.4268" y="16.7961">T</text><line style="stroke:#181818;stroke-width:0.5;" x1="8" x2="322.2189" y1="39" y2="39"/><ellipse cx="18" cy="52.9" fill="none" rx="3" ry="3" style="stroke:#038048;stroke-width:1;"/><text fill="#000000" font-family="sans-serif" font-size="14" lengthAdjust="spacing" textLength="140.5734" x="27" y="56.7619">meaning : DV_TEXT [1]</text><ellipse cx="18" cy="69.6999" fill="none" rx="3" ry="3" style="stroke:#038048;stroke-width:1;"/><text fill="#000000" font-family="sans-serif" font-size="14" lengthAdjust="spacing" textLength="153.0054" x="27" y="73.5619">range : DV_INTERVAL [1]</text><line style="stroke:#181818;stroke-width:0.5;" x1="8" x2="322.2189" y1="80.5999" y2="80.5999"/><ellipse cx="18" cy="94.4998" fill="#84BE84" rx="3" ry="3" style="stroke:#038048;stroke-width:1;"/><text fill="#000000" font-family="sans-serif" font-size="14" lengthAdjust="spacing" textLength="290.2189" x="27" y="98.3618">is_in_range( v : DV_ORDERED [1] ) : Boolean [1]</text></g></g></svg>
