<svg xmlns="http://www.w3.org/2000/svg" xmlns:xlink="http://www.w3.org/1999/xlink" contentStyleType="text/css" data-diagram-type="CLASS" height="152px" preserveAspectRatio="none" style="width:250px;height:152px;background:#FFFFFF;" version="1.1" viewBox="0 0 250 152" width="250px" zoomAndPan="magnify"><defs/><g><!--class RESOURCE_USAGE--><g class="entity" data-entity="RESOURCE_USAGE" data-source-line="2" data-uid="ent0002" id="entity_RESOURCE_USAGE"><rect fill="#F1F1F1" height="131.9996" rx="2.5" ry="2.5" style="stroke:#181818;stroke-width:0.5;" width="229.6152" x="7" y="7"/><ellipse cx="56.7558" cy="23" fill="#ADD1B2" rx="11" ry="11" style="stroke:#181818;stroke-width:1;"/><path d="M56.7558,29.4219 C57.9277,29.4219 59.1621,29.1563 60.5371,28.5469 L60.0527,27.0313 C58.959,27.4531 57.9433,27.6406 57.084,27.6406 C54.3652,27.6406 52.6465,25.7969 52.6465,22.8906 C52.6465,20.1406 54.209,18.5469 56.9433,18.5469 C57.8652,18.5469 58.8808,18.7344 60.0215,19.1563 L60.5996,17.6406 C59.5058,17.0625 58.209,16.7656 57.0215,16.7656 C53.2558,16.7656 50.6777,19.4063 50.6777,23.2188 C50.6777,26.8906 53.1621,29.4219 56.7558,29.4219 Z " fill="#000000"/><text fill="#000000" font-family="sans-serif" font-size="14" lengthAdjust="spacing" textLength="121.6035" x="77.2558" y="28.362">RESOURCE_USAGE</text><line style="stroke:#181818;stroke-width:0.5;" x1="8" x2="235.6152" y1="39" y2="39"/><ellipse cx="18" cy="52.9" fill="none" rx="3" ry="3" style="stroke:#038048;stroke-width:1;"/><text fill="#000000" font-family="sans-serif" font-size="14" lengthAdjust="spacing" textLength="203.6152" x="27" y="56.7619">prospective : RESOURCE_USE [1]</text><ellipse cx="18" cy="69.6999" fill="none" rx="3" ry="3" style="stroke:#038048;stroke-width:1;"/><text fill="#000000" font-family="sans-serif" font-size="14" lengthAdjust="spacing" textLength="169.0073" x="27" y="73.5619">actual : RESOURCE_USE [1]</text><ellipse cx="18" cy="86.4998" fill="none" rx="3" ry="3" style="stroke:#038048;stroke-width:1;"/><text fill="#000000" font-family="sans-serif" font-size="14" lengthAdjust="spacing" textLength="113.4695" x="27" y="90.3618">type : DV_TEXT [1]</text><ellipse cx="18" cy="103.2997" fill="none" rx="3" ry="3" style="stroke:#038048;stroke-width:1;"/><text fill="#000000" font-family="sans-serif" font-size="14" lengthAdjust="spacing" textLength="151.2414" x="27" y="107.1617">description : String [0..1]</text><ellipse cx="18" cy="120.0997" fill="none" rx="3" ry="3" style="stroke:#038048;stroke-width:1;"/><text fill="#000000" font-family="sans-serif" font-size="14" lengthAdjust="spacing" textLength="127.0915" x="27" y="123.9616">reference : Any [0..1]</text><line style="stroke:#181818;stroke-width:0.5;" x1="8" x2="235.6152" y1="130.9996" y2="130.9996"/></g></g></svg>
