<svg xmlns="http://www.w3.org/2000/svg" xmlns:xlink="http://www.w3.org/1999/xlink" contentStyleType="text/css" data-diagram-type="CLASS" height="119px" preserveAspectRatio="none" style="width:362px;height:119px;background:#FFFFFF;" version="1.1" viewBox="0 0 362 119" width="362px" zoomAndPan="magnify"><defs/><g><!--class REVISION_HISTORY--><g class="entity" data-entity="REVISION_HISTORY" data-source-line="2" data-uid="ent0002" id="entity_REVISION_HISTORY"><rect fill="#F1F1F1" height="98.3998" rx="2.5" ry="2.5" style="stroke:#181818;stroke-width:0.5;" width="341.6008" x="7" y="7"/><ellipse cx="110.7537" cy="23" fill="#ADD1B2" rx="11" ry="11" style="stroke:#181818;stroke-width:1;"/><path d="M110.7537,29.4219 C111.9255,29.4219 113.1599,29.1563 114.5349,28.5469 L114.0505,27.0313 C112.9568,27.4531 111.9412,27.6406 111.0818,27.6406 C108.363,27.6406 106.6443,25.7969 106.6443,22.8906 C106.6443,20.1406 108.2068,18.5469 110.9412,18.5469 C111.863,18.5469 112.8787,18.7344 114.0193,19.1563 L114.5974,17.6406 C113.5037,17.0625 112.2068,16.7656 111.0193,16.7656 C107.2537,16.7656 104.6755,19.4063 104.6755,23.2188 C104.6755,26.8906 107.1599,29.4219 110.7537,29.4219 Z " fill="#000000"/><text fill="#000000" font-family="sans-serif" font-size="14" lengthAdjust="spacing" textLength="125.5935" x="131.2537" y="28.362">REVISION_HISTORY</text><line style="stroke:#181818;stroke-width:0.5;" x1="8" x2="347.6008" y1="39" y2="39"/><ellipse cx="18" cy="52.9" fill="none" rx="3" ry="3" style="stroke:#038048;stroke-width:1;"/><text fill="#000000" font-family="sans-serif" font-size="14" lengthAdjust="spacing" textLength="279.8448" x="27" y="56.7619">items : List&lt;REVISION_HISTORY_ITEM&gt; [1..*]</text><line style="stroke:#181818;stroke-width:0.5;" x1="8" x2="347.6008" y1="63.7999" y2="63.7999"/><ellipse cx="18" cy="77.6999" fill="#84BE84" rx="3" ry="3" style="stroke:#038048;stroke-width:1;"/><text fill="#000000" font-family="sans-serif" font-size="14" lengthAdjust="spacing" textLength="205.0992" x="27" y="81.5619">most_recent_version() : String [1]</text><ellipse cx="18" cy="94.4998" fill="#84BE84" rx="3" ry="3" style="stroke:#038048;stroke-width:1;"/><text fill="#000000" font-family="sans-serif" font-size="14" lengthAdjust="spacing" textLength="315.6008" x="27" y="98.3618">most_recent_version_time_committed() : String [1]</text></g></g></svg>
