<svg xmlns="http://www.w3.org/2000/svg" xmlns:xlink="http://www.w3.org/1999/xlink" contentStyleType="text/css" data-diagram-type="CLASS" height="237px" preserveAspectRatio="none" style="width:267px;height:237px;background:#FFFFFF;" version="1.1" viewBox="0 0 267 237" width="267px" zoomAndPan="magnify"><defs/><g><!--class SERVICE_USE--><g class="entity" data-entity="SERVICE_USE" data-source-line="2" data-uid="ent0002" id="entity_SERVICE_USE"><rect fill="#F1F1F1" height="98.3998" rx="2.5" ry="2.5" style="stroke:#181818;stroke-width:0.5;" width="253.5131" x="7" y="131.8"/><ellipse cx="86.3587" cy="147.8" fill="#ADD1B2" rx="11" ry="11" style="stroke:#181818;stroke-width:1;"/><path d="M86.3587,154.2219 C87.5306,154.2219 88.765,153.9562 90.14,153.3469 L89.6556,151.8312 C88.5618,152.2531 87.5462,152.4406 86.6868,152.4406 C83.9681,152.4406 82.2493,150.5969 82.2493,147.6906 C82.2493,144.9406 83.8118,143.3469 86.5462,143.3469 C87.4681,143.3469 88.4837,143.5344 89.6243,143.9562 L90.2025,142.4406 C89.1087,141.8625 87.8118,141.5656 86.6243,141.5656 C82.8587,141.5656 80.2806,144.2062 80.2806,148.0187 C80.2806,151.6906 82.765,154.2219 86.3587,154.2219 Z " fill="#000000"/><text fill="#000000" font-family="sans-serif" font-size="14" lengthAdjust="spacing" textLength="86.2957" x="106.8587" y="153.162">SERVICE_USE</text><line style="stroke:#181818;stroke-width:0.5;" x1="8" x2="259.5131" y1="163.8" y2="163.8"/><ellipse cx="18" cy="177.7" fill="none" rx="3" ry="3" style="stroke:#038048;stroke-width:1;"/><text fill="#000000" font-family="sans-serif" font-size="14" lengthAdjust="spacing" textLength="179.4373" x="27" y="181.5619">identifier : GENERIC_ID [0..1]</text><ellipse cx="18" cy="194.4999" fill="none" rx="3" ry="3" style="stroke:#038048;stroke-width:1;"/><text fill="#000000" font-family="sans-serif" font-size="14" lengthAdjust="spacing" textLength="227.5131" x="27" y="198.3619">start_time : Iso8601_date_time [0..1]</text><ellipse cx="18" cy="211.2998" fill="none" rx="3" ry="3" style="stroke:#038048;stroke-width:1;"/><text fill="#000000" font-family="sans-serif" font-size="14" lengthAdjust="spacing" textLength="205.5052" x="27" y="215.1618">duration : Iso8601_duration [0..1]</text><line style="stroke:#181818;stroke-width:0.5;" x1="8" x2="259.5131" y1="222.1998" y2="222.1998"/></g><!--class RESOURCE_USE--><g class="entity" data-entity="RESOURCE_USE" data-source-line="8" data-uid="ent0003" id="entity_RESOURCE_USE"><rect fill="#F5F5F5" height="64.7999" rx="2.5" ry="2.5" style="stroke:#808080;stroke-width:1;stroke-dasharray:1,3;" width="246.5131" x="10.5" y="7"/><ellipse cx="78.0918" cy="23" fill="#A9DCDF" rx="11" ry="11" style="stroke:#181818;stroke-width:1;"/><path d="M72.6074,28.5 L74.6386,28.5 L78.6855,17.1563 L77.7793,17.1563 L81.6074,28.5 L83.748,28.5 L79.4199,16.1719 L77.2011,16.1719 L72.6074,28.5 Z M74.9355,25 L81.373,25 L81.373,23.25 L74.9355,23.25 L74.9355,25 Z " fill="#000000"/><text fill="#808080" font-family="sans-serif" font-size="14" font-style="italic" lengthAdjust="spacing" textLength="102.8296" x="98.5918" y="28.362">RESOURCE_USE</text><line style="stroke:#808080;stroke-width:1;stroke-dasharray:1,3;" x1="11.5" x2="256.0131" y1="39" y2="39"/><ellipse cx="21.5" cy="52.9" fill="none" rx="3" ry="3" style="stroke:#038048;stroke-width:1;"/><text fill="#808080" font-family="sans-serif" font-size="14" lengthAdjust="spacing" textLength="220.5131" x="30.5" y="56.7619">cost_data : ITEM_STRUCTURE [0..1]</text><line style="stroke:#808080;stroke-width:1;stroke-dasharray:1,3;" x1="11.5" x2="256.0131" y1="63.7999" y2="63.7999"/></g><!--reverse link RESOURCE_USE to SERVICE_USE--><g class="link" data-entity-1="RESOURCE_USE" data-entity-2="SERVICE_USE" data-source-line="12" data-uid="lnk4" id="link_RESOURCE_USE_SERVICE_USE"><path codeLine="12" d="M133.76,90.08 C133.76,107.61 133.76,111.78 133.76,131.46" fill="none" id="RESOURCE_USE-backto-SERVICE_USE" style="stroke:#181818;stroke-width:1;"/><polygon fill="none" points="133.76,72.08,127.76,90.08,139.76,90.08,133.76,72.08" style="stroke:#181818;stroke-width:1;"/></g></g></svg>
