<svg xmlns="http://www.w3.org/2000/svg" xmlns:xlink="http://www.w3.org/1999/xlink" contentStyleType="text/css" data-diagram-type="CLASS" height="236px" preserveAspectRatio="none" style="width:360px;height:236px;background:#FFFFFF;" version="1.1" viewBox="0 0 360 236" width="360px" zoomAndPan="magnify"><defs/><g><!--class VERSION--><g class="entity" data-entity="VERSION" data-source-line="2" data-uid="ent0002" id="entity_VERSION"><rect fill="#F1F1F1" height="215.9993" rx="2.5" ry="2.5" style="stroke:#181818;stroke-width:0.5;" width="339.1228" x="7" y="7"/><ellipse cx="137.9565" cy="23" fill="#A9DCDF" rx="11" ry="11" style="stroke:#181818;stroke-width:1;"/><path d="M132.4721,28.5 L134.5034,28.5 L138.5502,17.1563 L137.644,17.1563 L141.4721,28.5 L143.6127,28.5 L139.2846,16.1719 L137.0659,16.1719 L132.4721,28.5 Z M134.8002,25 L141.2377,25 L141.2377,23.25 L134.8002,23.25 L134.8002,25 Z " fill="#000000"/><text fill="#000000" font-family="sans-serif" font-size="14" font-style="italic" lengthAdjust="spacing" textLength="57.9178" x="158.4565" y="28.362">VERSION</text><rect fill="#FFFFFF" height="16.4001" style="stroke:#181818;stroke-width:1;stroke-dasharray:2,2;" width="8.7921" x="340.3307" y="4"/><text fill="#000000" font-family="sans-serif" font-size="12" font-style="italic" lengthAdjust="spacing" textLength="6.7921" x="341.3307" y="16.7961">T</text><line style="stroke:#181818;stroke-width:0.5;" x1="8" x2="345.1228" y1="39" y2="39"/><ellipse cx="18" cy="52.9" fill="none" rx="3" ry="3" style="stroke:#038048;stroke-width:1;"/><text fill="#000000" font-family="sans-serif" font-size="14" lengthAdjust="spacing" textLength="186.8013" x="27" y="56.7619">contribution : OBJECT_REF [1]</text><ellipse cx="18" cy="69.6999" fill="none" rx="3" ry="3" style="stroke:#038048;stroke-width:1;"/><text fill="#000000" font-family="sans-serif" font-size="14" lengthAdjust="spacing" textLength="140.3074" x="27" y="73.5619">signature : String [0..1]</text><ellipse cx="18" cy="86.4998" fill="none" rx="3" ry="3" style="stroke:#038048;stroke-width:1;"/><text fill="#000000" font-family="sans-serif" font-size="14" lengthAdjust="spacing" textLength="214.9411" x="27" y="90.3618">commit_audit : AUDIT_DETAILS [1]</text><line style="stroke:#181818;stroke-width:0.5;" x1="8" x2="345.1228" y1="97.3998" y2="97.3998"/><ellipse cx="18" cy="111.2997" fill="#84BE84" rx="3" ry="3" style="stroke:#038048;stroke-width:1;"/><text fill="#000000" font-family="sans-serif" font-size="14" font-style="italic" lengthAdjust="spacing" textLength="191.9812" x="27" y="115.1617">uid() : OBJECT_VERSION_ID [1]</text><ellipse cx="18" cy="128.0997" fill="#84BE84" rx="3" ry="3" style="stroke:#038048;stroke-width:1;"/><text fill="#000000" font-family="sans-serif" font-size="14" font-style="italic" lengthAdjust="spacing" textLength="313.1228" x="27" y="131.9616">preceding_version_uid() : OBJECT_VERSION_ID [1]</text><ellipse cx="18" cy="144.8996" fill="#84BE84" rx="3" ry="3" style="stroke:#038048;stroke-width:1;"/><text fill="#000000" font-family="sans-serif" font-size="14" font-style="italic" lengthAdjust="spacing" textLength="72.2677" x="27" y="148.7616">data() : T [1]</text><ellipse cx="18" cy="161.6995" fill="#84BE84" rx="3" ry="3" style="stroke:#038048;stroke-width:1;"/><text fill="#000000" font-family="sans-serif" font-size="14" font-style="italic" lengthAdjust="spacing" textLength="238.2231" x="27" y="165.5615">lifecycle_state() : DV_CODED_TEXT [1]</text><ellipse cx="18" cy="178.4995" fill="#84BE84" rx="3" ry="3" style="stroke:#038048;stroke-width:1;"/><text fill="#000000" font-family="sans-serif" font-size="14" lengthAdjust="spacing" textLength="170.3514" x="27" y="182.3614">canonical_form() : String [1]</text><ellipse cx="18" cy="195.2994" fill="#84BE84" rx="3" ry="3" style="stroke:#038048;stroke-width:1;"/><text fill="#000000" font-family="sans-serif" font-size="14" lengthAdjust="spacing" textLength="203.4472" x="27" y="199.1614">owner_id() : HIER_OBJECT_ID [1]</text><ellipse cx="18" cy="212.0993" fill="#84BE84" rx="3" ry="3" style="stroke:#038048;stroke-width:1;"/><text fill="#000000" font-family="sans-serif" font-size="14" lengthAdjust="spacing" textLength="147.8394" x="27" y="215.9613">is_branch() : Boolean [1]</text></g></g></svg>
