<svg xmlns="http://www.w3.org/2000/svg" xmlns:xlink="http://www.w3.org/1999/xlink" contentStyleType="text/css" data-diagram-type="CLASS" height="328px" preserveAspectRatio="none" style="width:543px;height:328px;background:#FFFFFF;" version="1.1" viewBox="0 0 543 328" width="543px" zoomAndPan="magnify"><defs/><g><!--class EXPR_ARCHETYPE_ID_CONSTRAINT--><g class="entity" data-entity="EXPR_ARCHETYPE_ID_CONSTRAINT" data-source-line="2" data-uid="ent0002" id="entity_EXPR_ARCHETYPE_ID_CONSTRAINT"><rect fill="#F1F1F1" height="64.7999" rx="2.5" ry="2.5" style="stroke:#181818;stroke-width:0.5;" width="262.817" x="7" y="256.6"/><ellipse cx="22" cy="272.6" fill="#ADD1B2" rx="11" ry="11" style="stroke:#181818;stroke-width:1;"/><path d="M22,279.0219 C23.1719,279.0219 24.4063,278.7562 25.7813,278.1469 L25.2969,276.6312 C24.2031,277.0531 23.1875,277.2406 22.3281,277.2406 C19.6094,277.2406 17.8906,275.3969 17.8906,272.4906 C17.8906,269.7406 19.4531,268.1469 22.1875,268.1469 C23.1094,268.1469 24.125,268.3344 25.2656,268.7562 L25.8438,267.2406 C24.75,266.6625 23.4531,266.3656 22.2656,266.3656 C18.5,266.3656 15.9219,269.0062 15.9219,272.8187 C15.9219,276.4906 18.4063,279.0219 22,279.0219 Z " fill="#000000"/><text fill="#000000" font-family="sans-serif" font-size="14" lengthAdjust="spacing" textLength="230.817" x="36" y="277.962">EXPR_ARCHETYPE_ID_CONSTRAINT</text><line style="stroke:#181818;stroke-width:0.5;" x1="8" x2="268.817" y1="288.6" y2="288.6"/><ellipse cx="18" cy="302.5" fill="none" rx="3" ry="3" style="stroke:#038048;stroke-width:1;"/><text fill="#000000" font-family="sans-serif" font-size="14" lengthAdjust="spacing" textLength="121.4635" x="27" y="306.3619">item : C_STRING [1]</text><line style="stroke:#181818;stroke-width:0.5;" x1="8" x2="268.817" y1="313.3999" y2="313.3999"/></g><!--class EXPR_ARCHETYPE_REF--><g class="entity" data-entity="EXPR_ARCHETYPE_REF" data-source-line="6" data-uid="ent0003" id="entity_EXPR_ARCHETYPE_REF"><rect fill="#F1F1F1" height="81.5999" rx="2.5" ry="2.5" style="stroke:#181818;stroke-width:0.5;" width="252.5051" x="284.16" y="115"/><ellipse cx="331.4518" cy="131" fill="#ADD1B2" rx="11" ry="11" style="stroke:#181818;stroke-width:1;"/><path d="M331.4518,137.4219 C332.6237,137.4219 333.8581,137.1562 335.2331,136.5469 L334.7487,135.0312 C333.655,135.4531 332.6393,135.6406 331.78,135.6406 C329.0612,135.6406 327.3425,133.7969 327.3425,130.8906 C327.3425,128.1406 328.905,126.5469 331.6393,126.5469 C332.5612,126.5469 333.5768,126.7344 334.7175,127.1562 L335.2956,125.6406 C334.2018,125.0625 332.905,124.7656 331.7175,124.7656 C327.9518,124.7656 325.3737,127.4062 325.3737,131.2187 C325.3737,134.8906 327.8581,137.4219 331.4518,137.4219 Z " fill="#000000"/><text fill="#000000" font-family="sans-serif" font-size="14" lengthAdjust="spacing" textLength="149.4214" x="351.9518" y="136.362">EXPR_ARCHETYPE_REF</text><line style="stroke:#181818;stroke-width:0.5;" x1="285.16" x2="535.6651" y1="147" y2="147"/><ellipse cx="295.16" cy="160.9" fill="none" rx="3" ry="3" style="stroke:#038048;stroke-width:1;"/><text fill="#000000" font-family="sans-serif" font-size="14" lengthAdjust="spacing" textLength="94.1357" x="304.16" y="164.7619">path : String [1]</text><ellipse cx="295.16" cy="177.6999" fill="none" rx="3" ry="3" style="stroke:#038048;stroke-width:1;"/><text fill="#000000" font-family="sans-serif" font-size="14" lengthAdjust="spacing" textLength="226.5051" x="304.16" y="181.5619">item : ARCHETYPE_CONSTRAINT [1]</text><line style="stroke:#181818;stroke-width:0.5;" x1="285.16" x2="535.6651" y1="188.5999" y2="188.5999"/></g><!--class EXPR_CONSTRAINT--><g class="entity" data-entity="EXPR_CONSTRAINT" data-source-line="11" data-uid="ent0004" id="entity_EXPR_CONSTRAINT"><rect fill="#F1F1F1" height="64.7999" rx="2.5" ry="2.5" style="stroke:#181818;stroke-width:0.5;" width="220.7532" x="28.03" y="123.4"/><ellipse cx="71.3133" cy="139.4" fill="#ADD1B2" rx="11" ry="11" style="stroke:#181818;stroke-width:1;"/><path d="M71.3133,145.8219 C72.4852,145.8219 73.7195,145.5562 75.0945,144.9469 L74.6102,143.4312 C73.5164,143.8531 72.5008,144.0406 71.6414,144.0406 C68.9227,144.0406 67.2039,142.1969 67.2039,139.2906 C67.2039,136.5406 68.7664,134.9469 71.5008,134.9469 C72.4227,134.9469 73.4383,135.1344 74.5789,135.5562 L75.157,134.0406 C74.0633,133.4625 72.7664,133.1656 71.5789,133.1656 C67.8133,133.1656 65.2352,135.8062 65.2352,139.6187 C65.2352,143.2906 67.7195,145.8219 71.3133,145.8219 Z " fill="#000000"/><text fill="#000000" font-family="sans-serif" font-size="14" lengthAdjust="spacing" textLength="125.9015" x="91.5985" y="144.762">EXPR_CONSTRAINT</text><line style="stroke:#181818;stroke-width:0.5;" x1="29.03" x2="247.7832" y1="155.4" y2="155.4"/><ellipse cx="39.03" cy="169.3" fill="none" rx="3" ry="3" style="stroke:#038048;stroke-width:1;"/><text fill="#000000" font-family="sans-serif" font-size="14" lengthAdjust="spacing" textLength="194.7532" x="48.03" y="173.1619">item : C_PRIMITIVE_OBJECT [1]</text><line style="stroke:#181818;stroke-width:0.5;" x1="29.03" x2="247.7832" y1="180.1999" y2="180.1999"/></g><!--class EXPR_VALUE_REF--><g class="entity" data-entity="EXPR_VALUE_REF" data-source-line="16" data-uid="ent0006" id="entity_EXPR_VALUE_REF"><rect fill="#F1F1F1" height="48" rx="2.5" ry="2.5" style="stroke:#181818;stroke-width:0.5;" width="146.0575" x="337.38" y="7"/><ellipse cx="352.38" cy="23" fill="#ADD1B2" rx="11" ry="11" style="stroke:#181818;stroke-width:1;"/><path d="M352.38,29.4219 C353.5519,29.4219 354.7863,29.1563 356.1613,28.5469 L355.6769,27.0313 C354.5831,27.4531 353.5675,27.6406 352.7081,27.6406 C349.9894,27.6406 348.2706,25.7969 348.2706,22.8906 C348.2706,20.1406 349.8331,18.5469 352.5675,18.5469 C353.4894,18.5469 354.505,18.7344 355.6456,19.1563 L356.2238,17.6406 C355.13,17.0625 353.8331,16.7656 352.6456,16.7656 C348.88,16.7656 346.3019,19.4063 346.3019,23.2188 C346.3019,26.8906 348.7863,29.4219 352.38,29.4219 Z " fill="#000000"/><text fill="#000000" font-family="sans-serif" font-size="14" lengthAdjust="spacing" textLength="114.0575" x="366.38" y="28.362">EXPR_VALUE_REF</text><line style="stroke:#181818;stroke-width:0.5;" x1="338.38" x2="482.4375" y1="39" y2="39"/><line style="stroke:#181818;stroke-width:0.5;" x1="338.38" x2="482.4375" y1="47" y2="47"/></g><!--class EXPR_LEAF--><g class="entity" data-entity="EXPR_LEAF" data-source-line="17" data-uid="ent0008" id="entity_EXPR_LEAF"><rect fill="#F1F1F1" height="48" rx="2.5" ry="2.5" style="stroke:#181818;stroke-width:0.5;" width="104.3657" x="86.23" y="7"/><ellipse cx="101.23" cy="23" fill="#ADD1B2" rx="11" ry="11" style="stroke:#181818;stroke-width:1;"/><path d="M101.23,29.4219 C102.4019,29.4219 103.6363,29.1563 105.0113,28.5469 L104.5269,27.0313 C103.4331,27.4531 102.4175,27.6406 101.5581,27.6406 C98.8394,27.6406 97.1206,25.7969 97.1206,22.8906 C97.1206,20.1406 98.6831,18.5469 101.4175,18.5469 C102.3394,18.5469 103.355,18.7344 104.4956,19.1563 L105.0738,17.6406 C103.98,17.0625 102.6831,16.7656 101.4956,16.7656 C97.73,16.7656 95.1519,19.4063 95.1519,23.2188 C95.1519,26.8906 97.6363,29.4219 101.23,29.4219 Z " fill="#000000"/><text fill="#000000" font-family="sans-serif" font-size="14" lengthAdjust="spacing" textLength="72.3657" x="115.23" y="28.362">EXPR_LEAF</text><line style="stroke:#181818;stroke-width:0.5;" x1="87.23" x2="189.5957" y1="39" y2="39"/><line style="stroke:#181818;stroke-width:0.5;" x1="87.23" x2="189.5957" y1="47" y2="47"/></g><!--reverse link EXPR_CONSTRAINT to EXPR_ARCHETYPE_ID_CONSTRAINT--><g class="link" data-entity-1="EXPR_CONSTRAINT" data-entity-2="EXPR_ARCHETYPE_ID_CONSTRAINT" data-source-line="15" data-uid="lnk5" id="link_EXPR_CONSTRAINT_EXPR_ARCHETYPE_ID_CONSTRAINT"><path codeLine="15" d="M138.41,206.56 C138.41,227.19 138.41,235.96 138.41,256.53" fill="none" id="EXPR_CONSTRAINT-backto-EXPR_ARCHETYPE_ID_CONSTRAINT" style="stroke:#181818;stroke-width:1;"/><polygon fill="none" points="138.41,188.56,132.41,206.56,144.41,206.56,138.41,188.56" style="stroke:#181818;stroke-width:1;"/></g><!--reverse link EXPR_VALUE_REF to EXPR_ARCHETYPE_REF--><g class="link" data-entity-1="EXPR_VALUE_REF" data-entity-2="EXPR_ARCHETYPE_REF" data-source-line="16" data-uid="lnk7" id="link_EXPR_VALUE_REF_EXPR_ARCHETYPE_REF"><path codeLine="16" d="M410.41,73.39 C410.41,90.09 410.41,94.98 410.41,114.58" fill="none" id="EXPR_VALUE_REF-backto-EXPR_ARCHETYPE_REF" style="stroke:#181818;stroke-width:1;"/><polygon fill="none" points="410.41,55.39,404.41,73.39,416.41,73.39,410.41,55.39" style="stroke:#181818;stroke-width:1;"/></g><!--reverse link EXPR_LEAF to EXPR_CONSTRAINT--><g class="link" data-entity-1="EXPR_LEAF" data-entity-2="EXPR_CONSTRAINT" data-source-line="17" data-uid="lnk9" id="link_EXPR_LEAF_EXPR_CONSTRAINT"><path codeLine="17" d="M138.41,73.39 C138.41,92.59 138.41,101.98 138.41,123.15" fill="none" id="EXPR_LEAF-backto-EXPR_CONSTRAINT" style="stroke:#181818;stroke-width:1;"/><polygon fill="none" points="138.41,55.39,132.41,73.39,144.41,73.39,138.41,55.39" style="stroke:#181818;stroke-width:1;"/></g></g></svg>
