<svg xmlns="http://www.w3.org/2000/svg" xmlns:xlink="http://www.w3.org/1999/xlink" contentStyleType="text/css" data-diagram-type="CLASS" height="529px" preserveAspectRatio="none" style="width:1247px;height:529px;background:#FFFFFF;" version="1.1" viewBox="0 0 1247 529" width="1247px" zoomAndPan="magnify"><defs/><g><!--class P_ARCHETYPE--><g class="entity" data-entity="P_ARCHETYPE" data-source-line="2" data-uid="ent0002" id="entity_P_ARCHETYPE"><rect fill="#F1F1F1" height="148.7996" rx="2.5" ry="2.5" style="stroke:#181818;stroke-width:0.5;" width="327.5447" x="7" y="23.8"/><ellipse cx="120.2806" cy="39.8" fill="#A9DCDF" rx="11" ry="11" style="stroke:#181818;stroke-width:1;"/><path d="M114.7962,45.3 L116.8274,45.3 L120.8743,33.9563 L119.9681,33.9563 L123.7962,45.3 L125.9368,45.3 L121.6087,32.9719 L119.3899,32.9719 L114.7962,45.3 Z M117.1243,41.8 L123.5618,41.8 L123.5618,40.05 L117.1243,40.05 L117.1243,41.8 Z " fill="#000000"/><text fill="#000000" font-family="sans-serif" font-size="14" font-style="italic" lengthAdjust="spacing" textLength="92.4836" x="140.7806" y="45.162">P_ARCHETYPE</text><line style="stroke:#181818;stroke-width:0.5;" x1="8" x2="333.5447" y1="55.8" y2="55.8"/><ellipse cx="18" cy="69.7" fill="none" rx="3" ry="3" style="stroke:#038048;stroke-width:1;"/><text fill="#000000" font-family="sans-serif" font-size="14" lengthAdjust="spacing" textLength="209.4672" x="27" y="73.5619">parent_archetype_id : String [0..1]</text><ellipse cx="18" cy="86.4999" fill="none" rx="3" ry="3" style="stroke:#038048;stroke-width:1;"/><text fill="#000000" font-family="sans-serif" font-size="14" lengthAdjust="spacing" textLength="240.393" x="27" y="90.3619">archetype_id : P_ARCHETYPE_HRID [1]</text><ellipse cx="18" cy="103.2998" fill="none" rx="3" ry="3" style="stroke:#038048;stroke-width:1;"/><text fill="#000000" font-family="sans-serif" font-size="14" lengthAdjust="spacing" textLength="165.0733" x="27" y="107.1618">is_differential : Boolean [1]</text><ellipse cx="18" cy="120.0997" fill="none" rx="3" ry="3" style="stroke:#038048;stroke-width:1;"/><text fill="#000000" font-family="sans-serif" font-size="14" lengthAdjust="spacing" textLength="239.889" x="27" y="123.9617">definition : P_C_COMPLEX_OBJECT [1]</text><ellipse cx="18" cy="136.8997" fill="none" rx="3" ry="3" style="stroke:#038048;stroke-width:1;"/><text fill="#000000" font-family="sans-serif" font-size="14" lengthAdjust="spacing" textLength="301.5447" x="27" y="140.7616">terminology : P_ARCHETYPE_TERMINOLOGY [1]</text><ellipse cx="18" cy="153.6996" fill="none" rx="3" ry="3" style="stroke:#038048;stroke-width:1;"/><text fill="#000000" font-family="sans-serif" font-size="14" lengthAdjust="spacing" textLength="274.2589" x="27" y="157.5616">rules : List&lt;EL_BOOLEAN_EXPRESSION&gt; [*]</text><line style="stroke:#181818;stroke-width:0.5;" x1="8" x2="333.5447" y1="164.5996" y2="164.5996"/></g><!--class P_AUTHORED_ARCHETYPE--><g class="entity" data-entity="P_AUTHORED_ARCHETYPE" data-source-line="11" data-uid="ent0003" id="entity_P_AUTHORED_ARCHETYPE"><rect fill="#F1F1F1" height="131.9996" rx="2.5" ry="2.5" style="stroke:#181818;stroke-width:0.5;" width="287.925" x="316.81" y="249.4"/><ellipse cx="369.9679" cy="265.4" fill="#ADD1B2" rx="11" ry="11" style="stroke:#181818;stroke-width:1;"/><path d="M369.9679,271.8219 C371.1397,271.8219 372.3741,271.5563 373.7491,270.9469 L373.2647,269.4313 C372.171,269.8531 371.1554,270.0406 370.296,270.0406 C367.5772,270.0406 365.8585,268.1969 365.8585,265.2906 C365.8585,262.5406 367.421,260.9469 370.1554,260.9469 C371.0772,260.9469 372.0929,261.1344 373.2335,261.5563 L373.8116,260.0406 C372.7179,259.4625 371.421,259.1656 370.2335,259.1656 C366.4679,259.1656 363.8897,261.8063 363.8897,265.6188 C363.8897,269.2906 366.3741,271.8219 369.9679,271.8219 Z " fill="#000000"/><text fill="#000000" font-family="sans-serif" font-size="14" lengthAdjust="spacing" textLength="173.1093" x="390.4679" y="270.762">P_AUTHORED_ARCHETYPE</text><line style="stroke:#181818;stroke-width:0.5;" x1="317.81" x2="603.735" y1="281.4" y2="281.4"/><ellipse cx="327.81" cy="295.3" fill="none" rx="3" ry="3" style="stroke:#038048;stroke-width:1;"/><text fill="#000000" font-family="sans-serif" font-size="14" lengthAdjust="spacing" textLength="152.9914" x="336.81" y="299.1619">adl_version : String [0..1]</text><ellipse cx="327.81" cy="312.0999" fill="none" rx="3" ry="3" style="stroke:#038048;stroke-width:1;"/><text fill="#000000" font-family="sans-serif" font-size="14" lengthAdjust="spacing" textLength="108.9756" x="336.81" y="315.9619">build_uid : UID [1]</text><ellipse cx="327.81" cy="328.8998" fill="none" rx="3" ry="3" style="stroke:#038048;stroke-width:1;"/><text fill="#000000" font-family="sans-serif" font-size="14" lengthAdjust="spacing" textLength="135.6735" x="336.81" y="332.7618">rm_release : String [1]</text><ellipse cx="327.81" cy="345.6997" fill="none" rx="3" ry="3" style="stroke:#038048;stroke-width:1;"/><text fill="#000000" font-family="sans-serif" font-size="14" lengthAdjust="spacing" textLength="160.1454" x="336.81" y="349.5617">is_generated : Boolean [1]</text><ellipse cx="327.81" cy="362.4997" fill="none" rx="3" ry="3" style="stroke:#038048;stroke-width:1;"/><text fill="#000000" font-family="sans-serif" font-size="14" lengthAdjust="spacing" textLength="261.925" x="336.81" y="366.3616">other_meta_data : Hash&lt;String,String&gt; [1]</text><line style="stroke:#181818;stroke-width:0.5;" x1="317.81" x2="603.735" y1="373.3996" y2="373.3996"/></g><!--class AUTHORED_RESOURCE--><g class="entity" data-entity="AUTHORED_RESOURCE" data-source-line="19" data-uid="ent0004" id="entity_AUTHORED_RESOURCE"><rect fill="#F5F5F5" height="48" rx="2.5" ry="2.5" style="stroke:#808080;stroke-width:1;stroke-dasharray:1,3;" width="183.1434" x="369.2" y="74.2"/><ellipse cx="384.2" cy="90.2" fill="#A9DCDF" rx="11" ry="11" style="stroke:#181818;stroke-width:1;"/><path d="M378.7156,95.7 L380.7469,95.7 L384.7938,84.3562 L383.8875,84.3562 L387.7156,95.7 L389.8563,95.7 L385.5281,83.3719 L383.3094,83.3719 L378.7156,95.7 Z M381.0438,92.2 L387.4813,92.2 L387.4813,90.45 L381.0438,90.45 L381.0438,92.2 Z " fill="#000000"/><text fill="#808080" font-family="sans-serif" font-size="14" font-style="italic" lengthAdjust="spacing" textLength="151.1434" x="398.2" y="95.562">AUTHORED_RESOURCE</text><line style="stroke:#808080;stroke-width:1;stroke-dasharray:1,3;" x1="370.2" x2="551.3434" y1="106.2" y2="106.2"/><line style="stroke:#808080;stroke-width:1;stroke-dasharray:1,3;" x1="370.2" x2="551.3434" y1="114.2" y2="114.2"/></g><!--class P_AUTHORED_RESOURCE--><g class="entity" data-entity="P_AUTHORED_RESOURCE" data-source-line="22" data-uid="ent0005" id="entity_P_AUTHORED_RESOURCE"><rect fill="#F1F1F1" height="148.7996" rx="2.5" ry="2.5" style="stroke:#181818;stroke-width:0.5;" width="359.7308" x="586.91" y="23.8"/><ellipse cx="679.3237" cy="39.8" fill="#A9DCDF" rx="11" ry="11" style="stroke:#181818;stroke-width:1;"/><path d="M673.8394,45.3 L675.8706,45.3 L679.9175,33.9563 L679.0112,33.9563 L682.8394,45.3 L684.98,45.3 L680.6519,32.9719 L678.4331,32.9719 L673.8394,45.3 Z M676.1675,41.8 L682.605,41.8 L682.605,40.05 L676.1675,40.05 L676.1675,41.8 Z " fill="#000000"/><text fill="#000000" font-family="sans-serif" font-size="14" font-style="italic" lengthAdjust="spacing" textLength="166.4033" x="699.8237" y="45.162">P_AUTHORED_RESOURCE</text><line style="stroke:#181818;stroke-width:0.5;" x1="587.91" x2="945.6408" y1="55.8" y2="55.8"/><ellipse cx="597.91" cy="69.7" fill="none" rx="3" ry="3" style="stroke:#038048;stroke-width:1;"/><text fill="#000000" font-family="sans-serif" font-size="14" lengthAdjust="spacing" textLength="177.3933" x="606.91" y="73.5619">original_language : String [1]</text><ellipse cx="597.91" cy="86.4999" fill="none" rx="3" ry="3" style="stroke:#038048;stroke-width:1;"/><text fill="#000000" font-family="sans-serif" font-size="14" lengthAdjust="spacing" textLength="176.1753" x="606.91" y="90.3619">is_controlled : Boolean [0..1]</text><ellipse cx="597.91" cy="103.2998" fill="none" rx="3" ry="3" style="stroke:#038048;stroke-width:1;"/><text fill="#000000" font-family="sans-serif" font-size="14" lengthAdjust="spacing" textLength="294.0128" x="606.91" y="107.1618">translations : List&lt;TRANSLATION_DETAILS&gt; [*]</text><ellipse cx="597.91" cy="120.0997" fill="none" rx="3" ry="3" style="stroke:#038048;stroke-width:1;"/><text fill="#000000" font-family="sans-serif" font-size="14" lengthAdjust="spacing" textLength="279.7049" x="606.91" y="123.9617">description : RESOURCE_DESCRIPTION [0..1]</text><ellipse cx="597.91" cy="136.8997" fill="none" rx="3" ry="3" style="stroke:#038048;stroke-width:1;"/><text fill="#000000" font-family="sans-serif" font-size="14" lengthAdjust="spacing" textLength="100.9816" x="606.91" y="140.7616">uid : String [0..1]</text><ellipse cx="597.91" cy="153.6996" fill="none" rx="3" ry="3" style="stroke:#038048;stroke-width:1;"/><text fill="#000000" font-family="sans-serif" font-size="14" lengthAdjust="spacing" textLength="333.7308" x="606.91" y="157.5616">annotations : Hash&lt;String,Hash&lt;String,String&gt;&gt; [0..1]</text><line style="stroke:#181818;stroke-width:0.5;" x1="587.91" x2="945.6408" y1="164.5996" y2="164.5996"/></g><!--class P_TEMPLATE--><g class="entity" data-entity="P_TEMPLATE" data-source-line="31" data-uid="ent0006" id="entity_P_TEMPLATE"><rect fill="#F1F1F1" height="48" rx="2.5" ry="2.5" style="stroke:#181818;stroke-width:0.5;" width="115.5936" x="226.98" y="458.2"/><ellipse cx="241.98" cy="474.2" fill="#ADD1B2" rx="11" ry="11" style="stroke:#181818;stroke-width:1;"/><path d="M241.98,480.6219 C243.1519,480.6219 244.3863,480.3563 245.7613,479.7469 L245.2769,478.2313 C244.1831,478.6531 243.1675,478.8406 242.3081,478.8406 C239.5894,478.8406 237.8706,476.9969 237.8706,474.0906 C237.8706,471.3406 239.4331,469.7469 242.1675,469.7469 C243.0894,469.7469 244.105,469.9344 245.2456,470.3563 L245.8238,468.8406 C244.73,468.2625 243.4331,467.9656 242.2456,467.9656 C238.48,467.9656 235.9019,470.6063 235.9019,474.4188 C235.9019,478.0906 238.3863,480.6219 241.98,480.6219 Z " fill="#000000"/><text fill="#000000" font-family="sans-serif" font-size="14" lengthAdjust="spacing" textLength="83.5936" x="255.98" y="479.562">P_TEMPLATE</text><line style="stroke:#181818;stroke-width:0.5;" x1="227.98" x2="341.5736" y1="490.2" y2="490.2"/><line style="stroke:#181818;stroke-width:0.5;" x1="227.98" x2="341.5736" y1="498.2" y2="498.2"/></g><!--class P_OPERATIONAL_TEMPLATE--><g class="entity" data-entity="P_OPERATIONAL_TEMPLATE" data-source-line="34" data-uid="ent0007" id="entity_P_OPERATIONAL_TEMPLATE"><rect fill="#F1F1F1" height="81.5999" rx="2.5" ry="2.5" style="stroke:#181818;stroke-width:0.5;" width="521.01" x="377.27" y="441.4"/><ellipse cx="541.6434" cy="457.4" fill="#ADD1B2" rx="11" ry="11" style="stroke:#181818;stroke-width:1;"/><path d="M541.6434,463.8219 C542.8153,463.8219 544.0496,463.5563 545.4246,462.9469 L544.9403,461.4313 C543.8465,461.8531 542.8309,462.0406 541.9715,462.0406 C539.2528,462.0406 537.534,460.1969 537.534,457.2906 C537.534,454.5406 539.0965,452.9469 541.8309,452.9469 C542.7528,452.9469 543.7684,453.1344 544.909,453.5563 L545.4871,452.0406 C544.3934,451.4625 543.0965,451.1656 541.909,451.1656 C538.1434,451.1656 535.5653,453.8063 535.5653,457.6188 C535.5653,461.2906 538.0496,463.8219 541.6434,463.8219 Z " fill="#000000"/><text fill="#000000" font-family="sans-serif" font-size="14" lengthAdjust="spacing" textLength="183.7632" x="562.1434" y="462.762">P_OPERATIONAL_TEMPLATE</text><line style="stroke:#181818;stroke-width:0.5;" x1="378.27" x2="897.28" y1="473.4" y2="473.4"/><ellipse cx="388.27" cy="487.3" fill="none" rx="3" ry="3" style="stroke:#038048;stroke-width:1;"/><text fill="#000000" font-family="sans-serif" font-size="14" lengthAdjust="spacing" textLength="495.01" x="397.27" y="491.1619">component_terminologies : Hash&lt;String,P_ARCHETYPE_TERMINOLOGY&gt; [0..1]</text><ellipse cx="388.27" cy="504.0999" fill="none" rx="3" ry="3" style="stroke:#038048;stroke-width:1;"/><text fill="#000000" font-family="sans-serif" font-size="14" lengthAdjust="spacing" textLength="475.7742" x="397.27" y="507.9619">terminology_extracts : Hash&lt;String,Hash&lt;String,ARCHETYPE_TERM&gt;&gt; [0..1]</text><line style="stroke:#181818;stroke-width:0.5;" x1="378.27" x2="897.28" y1="514.9999" y2="514.9999"/></g><!--class P_ARCHETYPE_HRID--><g class="entity" data-entity="P_ARCHETYPE_HRID" data-source-line="39" data-uid="ent0008" id="entity_P_ARCHETYPE_HRID"><rect fill="#F1F1F1" height="182.3994" rx="2.5" ry="2.5" style="stroke:#181818;stroke-width:0.5;" width="259.2391" x="981.15" y="7"/><ellipse cx="1040.5448" cy="23" fill="#ADD1B2" rx="11" ry="11" style="stroke:#181818;stroke-width:1;"/><path d="M1040.5448,29.4219 C1041.7167,29.4219 1042.9511,29.1563 1044.3261,28.5469 L1043.8417,27.0313 C1042.7479,27.4531 1041.7323,27.6406 1040.8729,27.6406 C1038.1542,27.6406 1036.4354,25.7969 1036.4354,22.8906 C1036.4354,20.1406 1037.9979,18.5469 1040.7323,18.5469 C1041.6542,18.5469 1042.6698,18.7344 1043.8104,19.1563 L1044.3886,17.6406 C1043.2948,17.0625 1041.9979,16.7656 1040.8104,16.7656 C1037.0448,16.7656 1034.4667,19.4063 1034.4667,23.2188 C1034.4667,26.8906 1036.9511,29.4219 1040.5448,29.4219 Z " fill="#000000"/><text fill="#000000" font-family="sans-serif" font-size="14" lengthAdjust="spacing" textLength="131.9495" x="1061.0448" y="28.362">P_ARCHETYPE_HRID</text><line style="stroke:#181818;stroke-width:0.5;" x1="982.15" x2="1239.3891" y1="39" y2="39"/><ellipse cx="992.15" cy="52.9" fill="none" rx="3" ry="3" style="stroke:#038048;stroke-width:1;"/><text fill="#000000" font-family="sans-serif" font-size="14" lengthAdjust="spacing" textLength="152.2354" x="1001.15" y="56.7619">namespace : String [0..1]</text><ellipse cx="992.15" cy="69.6999" fill="none" rx="3" ry="3" style="stroke:#038048;stroke-width:1;"/><text fill="#000000" font-family="sans-serif" font-size="14" lengthAdjust="spacing" textLength="148.8894" x="1001.15" y="73.5619">rm_publisher : String [1]</text><ellipse cx="992.15" cy="86.4998" fill="none" rx="3" ry="3" style="stroke:#038048;stroke-width:1;"/><text fill="#000000" font-family="sans-serif" font-size="14" lengthAdjust="spacing" textLength="141.8754" x="1001.15" y="90.3618">rm_package : String [1]</text><ellipse cx="992.15" cy="103.2997" fill="none" rx="3" ry="3" style="stroke:#038048;stroke-width:1;"/><text fill="#000000" font-family="sans-serif" font-size="14" lengthAdjust="spacing" textLength="121.2535" x="1001.15" y="107.1617">rm_class : String [1]</text><ellipse cx="992.15" cy="120.0997" fill="none" rx="3" ry="3" style="stroke:#038048;stroke-width:1;"/><text fill="#000000" font-family="sans-serif" font-size="14" lengthAdjust="spacing" textLength="133.7975" x="1001.15" y="123.9616">concept_id : String [1]</text><ellipse cx="992.15" cy="136.8996" fill="none" rx="3" ry="3" style="stroke:#038048;stroke-width:1;"/><text fill="#000000" font-family="sans-serif" font-size="14" lengthAdjust="spacing" textLength="163.1974" x="1001.15" y="140.7616">release_version : String [1]</text><ellipse cx="992.15" cy="153.6995" fill="none" rx="3" ry="3" style="stroke:#038048;stroke-width:1;"/><text fill="#000000" font-family="sans-serif" font-size="14" lengthAdjust="spacing" textLength="233.2391" x="1001.15" y="157.5615">version_status : VERSION_STATUS [1]</text><ellipse cx="992.15" cy="170.4995" fill="none" rx="3" ry="3" style="stroke:#038048;stroke-width:1;"/><text fill="#000000" font-family="sans-serif" font-size="14" lengthAdjust="spacing" textLength="139.3695" x="1001.15" y="174.3614">build_count : String [1]</text><line style="stroke:#181818;stroke-width:0.5;" x1="982.15" x2="1239.3891" y1="181.3994" y2="181.3994"/></g><!--reverse link P_ARCHETYPE to P_AUTHORED_ARCHETYPE--><g class="link" data-entity-1="P_ARCHETYPE" data-entity-2="P_AUTHORED_ARCHETYPE" data-source-line="50" data-uid="lnk9" id="link_P_ARCHETYPE_P_AUTHORED_ARCHETYPE"><path codeLine="50" d="M284.624,183.6876 C317.904,208.3876 340.31,225.01 372.67,249.02" fill="none" id="P_ARCHETYPE-backto-P_AUTHORED_ARCHETYPE" style="stroke:#181818;stroke-width:1;"/><polygon fill="none" points="270.17,172.96,281.0482,188.5056,288.1999,178.8696,270.17,172.96" style="stroke:#181818;stroke-width:1;"/></g><!--reverse link AUTHORED_RESOURCE to P_AUTHORED_ARCHETYPE--><g class="link" data-entity-1="AUTHORED_RESOURCE" data-entity-2="P_AUTHORED_ARCHETYPE" data-source-line="51" data-uid="lnk10" id="link_AUTHORED_RESOURCE_P_AUTHORED_ARCHETYPE"><path codeLine="51" d="M460.77,140.64 C460.77,170.82 460.77,206.47 460.77,249.36" fill="none" id="AUTHORED_RESOURCE-backto-P_AUTHORED_ARCHETYPE" style="stroke:#181818;stroke-width:1;"/><polygon fill="none" points="460.77,122.64,454.77,140.64,466.77,140.64,460.77,122.64" style="stroke:#181818;stroke-width:1;"/></g><!--reverse link P_AUTHORED_RESOURCE to P_AUTHORED_ARCHETYPE--><g class="link" data-entity-1="P_AUTHORED_RESOURCE" data-entity-2="P_AUTHORED_ARCHETYPE" data-source-line="52" data-uid="lnk11" id="link_P_AUTHORED_RESOURCE_P_AUTHORED_ARCHETYPE"><path codeLine="52" d="M647.1667,183.3149 C612.0467,208.0149 587.88,225.01 553.74,249.02" fill="none" id="P_AUTHORED_RESOURCE-backto-P_AUTHORED_ARCHETYPE" style="stroke:#181818;stroke-width:1;"/><polygon fill="none" points="661.89,172.96,643.7151,178.4072,650.6184,188.2227,661.89,172.96" style="stroke:#181818;stroke-width:1;"/></g><!--reverse link P_AUTHORED_ARCHETYPE to P_TEMPLATE--><g class="link" data-entity-1="P_AUTHORED_ARCHETYPE" data-entity-2="P_TEMPLATE" data-source-line="53" data-uid="lnk12" id="link_P_AUTHORED_ARCHETYPE_P_TEMPLATE"><path codeLine="53" d="M377.8214,394.0735 C349.0314,421.0335 330.66,438.23 309.5,458.04" fill="none" id="P_AUTHORED_ARCHETYPE-backto-P_TEMPLATE" style="stroke:#181818;stroke-width:1;"/><polygon fill="none" points="390.96,381.77,373.7202,389.694,381.9225,398.453,390.96,381.77" style="stroke:#181818;stroke-width:1;"/></g><!--reverse link P_AUTHORED_ARCHETYPE to P_OPERATIONAL_TEMPLATE--><g class="link" data-entity-1="P_AUTHORED_ARCHETYPE" data-entity-2="P_OPERATIONAL_TEMPLATE" data-source-line="54" data-uid="lnk13" id="link_P_AUTHORED_ARCHETYPE_P_OPERATIONAL_TEMPLATE"><path codeLine="54" d="M544.1557,394.0338 C565.6857,414.0738 575.54,423.26 594.68,441.08" fill="none" id="P_AUTHORED_ARCHETYPE-backto-P_OPERATIONAL_TEMPLATE" style="stroke:#181818;stroke-width:1;"/><polygon fill="none" points="530.98,381.77,540.0677,398.4257,548.2436,389.6419,530.98,381.77" style="stroke:#181818;stroke-width:1;"/></g></g></svg>
