<svg xmlns="http://www.w3.org/2000/svg" xmlns:xlink="http://www.w3.org/1999/xlink" contentStyleType="text/css" data-diagram-type="CLASS" height="328px" preserveAspectRatio="none" style="width:564px;height:328px;background:#FFFFFF;" version="1.1" viewBox="0 0 564 328" width="564px" zoomAndPan="magnify"><defs/><g><!--class EXPR_ARCHETYPE_ID_CONSTRAINT--><g class="entity" data-entity="EXPR_ARCHETYPE_ID_CONSTRAINT" data-source-line="2" data-uid="ent0002" id="entity_EXPR_ARCHETYPE_ID_CONSTRAINT"><rect fill="#F1F1F1" height="64.7999" rx="2.5" ry="2.5" style="stroke:#181818;stroke-width:0.5;" width="262.817" x="7" y="248.2"/><ellipse cx="22" cy="264.2" fill="#ADD1B2" rx="11" ry="11" style="stroke:#181818;stroke-width:1;"/><path d="M22,270.6219 C23.1719,270.6219 24.4063,270.3563 25.7813,269.7469 L25.2969,268.2313 C24.2031,268.6531 23.1875,268.8406 22.3281,268.8406 C19.6094,268.8406 17.8906,266.9969 17.8906,264.0906 C17.8906,261.3406 19.4531,259.7469 22.1875,259.7469 C23.1094,259.7469 24.125,259.9344 25.2656,260.3563 L25.8438,258.8406 C24.75,258.2625 23.4531,257.9656 22.2656,257.9656 C18.5,257.9656 15.9219,260.6063 15.9219,264.4188 C15.9219,268.0906 18.4063,270.6219 22,270.6219 Z " fill="#000000"/><text fill="#000000" font-family="sans-serif" font-size="14" lengthAdjust="spacing" textLength="230.817" x="36" y="269.562">EXPR_ARCHETYPE_ID_CONSTRAINT</text><line style="stroke:#181818;stroke-width:0.5;" x1="8" x2="268.817" y1="280.2" y2="280.2"/><ellipse cx="18" cy="294.1" fill="none" rx="3" ry="3" style="stroke:#038048;stroke-width:1;"/><text fill="#000000" font-family="sans-serif" font-size="14" lengthAdjust="spacing" textLength="121.4635" x="27" y="297.9619">item : C_STRING [1]</text><line style="stroke:#181818;stroke-width:0.5;" x1="8" x2="268.817" y1="304.9999" y2="304.9999"/></g><!--class EXPR_CONSTRAINT--><g class="entity" data-entity="EXPR_CONSTRAINT" data-source-line="6" data-uid="ent0003" id="entity_EXPR_CONSTRAINT"><rect fill="#F1F1F1" height="64.7999" rx="2.5" ry="2.5" style="stroke:#181818;stroke-width:0.5;" width="220.7532" x="65.03" y="115"/><ellipse cx="108.3133" cy="131" fill="#ADD1B2" rx="11" ry="11" style="stroke:#181818;stroke-width:1;"/><path d="M108.3133,137.4219 C109.4852,137.4219 110.7195,137.1562 112.0945,136.5469 L111.6102,135.0312 C110.5164,135.4531 109.5008,135.6406 108.6414,135.6406 C105.9227,135.6406 104.2039,133.7969 104.2039,130.8906 C104.2039,128.1406 105.7664,126.5469 108.5008,126.5469 C109.4227,126.5469 110.4383,126.7344 111.5789,127.1562 L112.157,125.6406 C111.0633,125.0625 109.7664,124.7656 108.5789,124.7656 C104.8133,124.7656 102.2352,127.4062 102.2352,131.2187 C102.2352,134.8906 104.7195,137.4219 108.3133,137.4219 Z " fill="#000000"/><text fill="#000000" font-family="sans-serif" font-size="14" lengthAdjust="spacing" textLength="125.9015" x="128.5985" y="136.362">EXPR_CONSTRAINT</text><line style="stroke:#181818;stroke-width:0.5;" x1="66.03" x2="284.7832" y1="147" y2="147"/><ellipse cx="76.03" cy="160.9" fill="none" rx="3" ry="3" style="stroke:#038048;stroke-width:1;"/><text fill="#000000" font-family="sans-serif" font-size="14" lengthAdjust="spacing" textLength="194.7532" x="85.03" y="164.7619">item : C_PRIMITIVE_OBJECT [1]</text><line style="stroke:#181818;stroke-width:0.5;" x1="66.03" x2="284.7832" y1="171.7999" y2="171.7999"/></g><!--class EXPR_ARCHETYPE_REF--><g class="entity" data-entity="EXPR_ARCHETYPE_REF" data-source-line="10" data-uid="ent0004" id="entity_EXPR_ARCHETYPE_REF"><rect fill="#F1F1F1" height="81.5999" rx="2.5" ry="2.5" style="stroke:#181818;stroke-width:0.5;" width="252.5051" x="305.16" y="239.8"/><ellipse cx="352.4518" cy="255.8" fill="#ADD1B2" rx="11" ry="11" style="stroke:#181818;stroke-width:1;"/><path d="M352.4518,262.2219 C353.6237,262.2219 354.8581,261.9562 356.2331,261.3469 L355.7487,259.8312 C354.655,260.2531 353.6393,260.4406 352.78,260.4406 C350.0612,260.4406 348.3425,258.5969 348.3425,255.6906 C348.3425,252.9406 349.905,251.3469 352.6393,251.3469 C353.5612,251.3469 354.5768,251.5344 355.7175,251.9562 L356.2956,250.4406 C355.2018,249.8625 353.905,249.5656 352.7175,249.5656 C348.9518,249.5656 346.3737,252.2062 346.3737,256.0187 C346.3737,259.6906 348.8581,262.2219 352.4518,262.2219 Z " fill="#000000"/><text fill="#000000" font-family="sans-serif" font-size="14" lengthAdjust="spacing" textLength="149.4214" x="372.9518" y="261.162">EXPR_ARCHETYPE_REF</text><line style="stroke:#181818;stroke-width:0.5;" x1="306.16" x2="556.6651" y1="271.8" y2="271.8"/><ellipse cx="316.16" cy="285.7" fill="none" rx="3" ry="3" style="stroke:#038048;stroke-width:1;"/><text fill="#000000" font-family="sans-serif" font-size="14" lengthAdjust="spacing" textLength="94.1357" x="325.16" y="289.5619">path : String [1]</text><ellipse cx="316.16" cy="302.4999" fill="none" rx="3" ry="3" style="stroke:#038048;stroke-width:1;"/><text fill="#000000" font-family="sans-serif" font-size="14" lengthAdjust="spacing" textLength="226.5051" x="325.16" y="306.3619">item : ARCHETYPE_CONSTRAINT [1]</text><line style="stroke:#181818;stroke-width:0.5;" x1="306.16" x2="556.6651" y1="313.3999" y2="313.3999"/></g><!--class EXPR_VALUE_REF--><g class="entity" data-entity="EXPR_VALUE_REF" data-source-line="15" data-uid="ent0005" id="entity_EXPR_VALUE_REF"><rect fill="#F5F5F5" height="48" rx="2.5" ry="2.5" style="stroke:#808080;stroke-width:1;stroke-dasharray:1,3;" width="146.0575" x="339.38" y="123.4"/><ellipse cx="354.38" cy="139.4" fill="#ADD1B2" rx="11" ry="11" style="stroke:#181818;stroke-width:1;"/><path d="M354.38,145.8219 C355.5519,145.8219 356.7863,145.5562 358.1613,144.9469 L357.6769,143.4312 C356.5831,143.8531 355.5675,144.0406 354.7081,144.0406 C351.9894,144.0406 350.2706,142.1969 350.2706,139.2906 C350.2706,136.5406 351.8331,134.9469 354.5675,134.9469 C355.4894,134.9469 356.505,135.1344 357.6456,135.5562 L358.2238,134.0406 C357.13,133.4625 355.8331,133.1656 354.6456,133.1656 C350.88,133.1656 348.3019,135.8062 348.3019,139.6187 C348.3019,143.2906 350.7863,145.8219 354.38,145.8219 Z " fill="#000000"/><text fill="#808080" font-family="sans-serif" font-size="14" lengthAdjust="spacing" textLength="114.0575" x="368.38" y="144.762">EXPR_VALUE_REF</text><line style="stroke:#808080;stroke-width:1;stroke-dasharray:1,3;" x1="340.38" x2="484.4375" y1="155.4" y2="155.4"/><line style="stroke:#808080;stroke-width:1;stroke-dasharray:1,3;" x1="340.38" x2="484.4375" y1="163.4" y2="163.4"/></g><!--class EXPR_LEAF--><g class="entity" data-entity="EXPR_LEAF" data-source-line="18" data-uid="ent0006" id="entity_EXPR_LEAF"><rect fill="#F5F5F5" height="48" rx="2.5" ry="2.5" style="stroke:#808080;stroke-width:1;stroke-dasharray:1,3;" width="104.3657" x="232.23" y="7"/><ellipse cx="247.23" cy="23" fill="#A9DCDF" rx="11" ry="11" style="stroke:#181818;stroke-width:1;"/><path d="M241.7456,28.5 L243.7769,28.5 L247.8238,17.1563 L246.9175,17.1563 L250.7456,28.5 L252.8863,28.5 L248.5581,16.1719 L246.3394,16.1719 L241.7456,28.5 Z M244.0738,25 L250.5113,25 L250.5113,23.25 L244.0738,23.25 L244.0738,25 Z " fill="#000000"/><text fill="#808080" font-family="sans-serif" font-size="14" font-style="italic" lengthAdjust="spacing" textLength="72.3657" x="261.23" y="28.362">EXPR_LEAF</text><line style="stroke:#808080;stroke-width:1;stroke-dasharray:1,3;" x1="233.23" x2="335.5957" y1="39" y2="39"/><line style="stroke:#808080;stroke-width:1;stroke-dasharray:1,3;" x1="233.23" x2="335.5957" y1="47" y2="47"/></g><!--reverse link EXPR_CONSTRAINT to EXPR_ARCHETYPE_ID_CONSTRAINT--><g class="link" data-entity-1="EXPR_CONSTRAINT" data-entity-2="EXPR_ARCHETYPE_ID_CONSTRAINT" data-source-line="21" data-uid="lnk7" id="link_EXPR_CONSTRAINT_EXPR_ARCHETYPE_ID_CONSTRAINT"><path codeLine="21" d="M161.5627,197.4838 C155.7427,218.1138 153.08,227.56 147.28,248.13" fill="none" id="EXPR_CONSTRAINT-backto-EXPR_ARCHETYPE_ID_CONSTRAINT" style="stroke:#181818;stroke-width:1;"/><polygon fill="none" points="166.45,180.16,155.7881,195.8547,167.3373,199.1129,166.45,180.16" style="stroke:#181818;stroke-width:1;"/></g><!--reverse link EXPR_LEAF to EXPR_CONSTRAINT--><g class="link" data-entity-1="EXPR_LEAF" data-entity-2="EXPR_CONSTRAINT" data-source-line="22" data-uid="lnk8" id="link_EXPR_LEAF_EXPR_CONSTRAINT"><path codeLine="22" d="M249.6701,68.4587 C233.3501,85.5787 223.45,95.97 205.55,114.76" fill="none" id="EXPR_LEAF-backto-EXPR_CONSTRAINT" style="stroke:#181818;stroke-width:1;"/><polygon fill="none" points="262.09,55.43,245.3272,64.3187,254.013,72.5986,262.09,55.43" style="stroke:#181818;stroke-width:1;"/></g><!--reverse link EXPR_VALUE_REF to EXPR_ARCHETYPE_REF--><g class="link" data-entity-1="EXPR_VALUE_REF" data-entity-2="EXPR_ARCHETYPE_REF" data-source-line="23" data-uid="lnk9" id="link_EXPR_VALUE_REF_EXPR_ARCHETYPE_REF"><path codeLine="23" d="M418.3889,189.6743 C421.0989,208.3943 422.38,217.24 425.58,239.36" fill="none" id="EXPR_VALUE_REF-backto-EXPR_ARCHETYPE_REF" style="stroke:#181818;stroke-width:1;"/><polygon fill="none" points="415.81,171.86,412.4508,190.5339,424.327,188.8147,415.81,171.86" style="stroke:#181818;stroke-width:1;"/></g><!--reverse link EXPR_LEAF to EXPR_VALUE_REF--><g class="link" data-entity-1="EXPR_LEAF" data-entity-2="EXPR_VALUE_REF" data-source-line="24" data-uid="lnk10" id="link_EXPR_LEAF_EXPR_VALUE_REF"><path codeLine="24" d="M324.0418,67.424 C346.1318,87.164 364.15,103.27 386.23,123" fill="none" id="EXPR_LEAF-backto-EXPR_VALUE_REF" style="stroke:#181818;stroke-width:1;"/><polygon fill="none" points="310.62,55.43,320.0438,71.8979,328.0398,62.95,310.62,55.43" style="stroke:#181818;stroke-width:1;"/></g></g></svg>
