<svg xmlns="http://www.w3.org/2000/svg" xmlns:xlink="http://www.w3.org/1999/xlink" contentStyleType="text/css" data-diagram-type="CLASS" height="152px" preserveAspectRatio="none" style="width:235px;height:152px;background:#FFFFFF;" version="1.1" viewBox="0 0 235 152" width="235px" zoomAndPan="magnify"><defs/><g><!--class ADDRESSED_MESSAGE--><g class="entity" data-entity="ADDRESSED_MESSAGE" data-source-line="2" data-uid="ent0002" id="entity_ADDRESSED_MESSAGE"><rect fill="#F1F1F1" height="131.9996" rx="2.5" ry="2.5" style="stroke:#181818;stroke-width:0.5;" width="214.1032" x="7" y="7"/><ellipse cx="36.9966" cy="23" fill="#ADD1B2" rx="11" ry="11" style="stroke:#181818;stroke-width:1;"/><path d="M36.9966,29.4219 C38.1685,29.4219 39.4029,29.1563 40.7779,28.5469 L40.2935,27.0313 C39.1997,27.4531 38.1841,27.6406 37.3247,27.6406 C34.606,27.6406 32.8872,25.7969 32.8872,22.8906 C32.8872,20.1406 34.4497,18.5469 37.1841,18.5469 C38.106,18.5469 39.1216,18.7344 40.2622,19.1563 L40.8404,17.6406 C39.7466,17.0625 38.4497,16.7656 37.2622,16.7656 C33.4966,16.7656 30.9185,19.4063 30.9185,23.2188 C30.9185,26.8906 33.4029,29.4219 36.9966,29.4219 Z " fill="#000000"/><text fill="#000000" font-family="sans-serif" font-size="14" lengthAdjust="spacing" textLength="148.7774" x="54.3292" y="28.362">ADDRESSED_MESSAGE</text><line style="stroke:#181818;stroke-width:0.5;" x1="8" x2="220.1032" y1="39" y2="39"/><ellipse cx="18" cy="52.9" fill="none" rx="3" ry="3" style="stroke:#038048;stroke-width:1;"/><text fill="#000000" font-family="sans-serif" font-size="14" lengthAdjust="spacing" textLength="108.4576" x="27" y="56.7619">sender : String [1]</text><ellipse cx="18" cy="69.6999" fill="none" rx="3" ry="3" style="stroke:#038048;stroke-width:1;"/><text fill="#000000" font-family="sans-serif" font-size="14" lengthAdjust="spacing" textLength="174.8173" x="27" y="73.5619">sender_reference : String [1]</text><ellipse cx="18" cy="86.4998" fill="none" rx="3" ry="3" style="stroke:#038048;stroke-width:1;"/><text fill="#000000" font-family="sans-serif" font-size="14" lengthAdjust="spacing" textLength="188.1032" x="27" y="90.3618">addressees : List&lt;String&gt; [1..*]</text><ellipse cx="18" cy="103.2997" fill="none" rx="3" ry="3" style="stroke:#038048;stroke-width:1;"/><text fill="#000000" font-family="sans-serif" font-size="14" lengthAdjust="spacing" textLength="138.7395" x="27" y="107.1617">urgency : Integer [0..1]</text><ellipse cx="18" cy="120.0997" fill="none" rx="3" ry="3" style="stroke:#038048;stroke-width:1;"/><text fill="#000000" font-family="sans-serif" font-size="14" lengthAdjust="spacing" textLength="146.5094" x="27" y="123.9616">message : MESSAGE [1]</text><line style="stroke:#181818;stroke-width:0.5;" x1="8" x2="220.1032" y1="130.9996" y2="130.9996"/></g></g></svg>
