<svg xmlns="http://www.w3.org/2000/svg" xmlns:xlink="http://www.w3.org/1999/xlink" contentStyleType="text/css" data-diagram-type="CLASS" height="395px" preserveAspectRatio="none" style="width:274px;height:395px;background:#FFFFFF;" version="1.1" viewBox="0 0 274 395" width="274px" zoomAndPan="magnify"><defs/><g><!--class DV_CODED_TEXT--><g class="entity" data-entity="DV_CODED_TEXT" data-source-line="2" data-uid="ent0002" id="entity_DV_CODED_TEXT"><rect fill="#F1F1F1" height="64.7999" rx="2.5" ry="2.5" style="stroke:#181818;stroke-width:0.5;" width="238.7851" x="17.75" y="323.8"/><ellipse cx="76.6338" cy="339.8" fill="#ADD1B2" rx="11" ry="11" style="stroke:#181818;stroke-width:1;"/><path d="M76.6338,346.2219 C77.8057,346.2219 79.04,345.9563 80.415,345.3469 L79.9307,343.8313 C78.8369,344.2531 77.8213,344.4406 76.9619,344.4406 C74.2432,344.4406 72.5244,342.5969 72.5244,339.6906 C72.5244,336.9406 74.0869,335.3469 76.8213,335.3469 C77.7432,335.3469 78.7588,335.5344 79.8994,335.9563 L80.4775,334.4406 C79.3838,333.8625 78.0869,333.5656 76.8994,333.5656 C73.1338,333.5656 70.5557,336.2063 70.5557,340.0188 C70.5557,343.6906 73.04,346.2219 76.6338,346.2219 Z " fill="#000000"/><text fill="#000000" font-family="sans-serif" font-size="14" lengthAdjust="spacing" textLength="112.5175" x="97.1338" y="345.162">DV_CODED_TEXT</text><line style="stroke:#181818;stroke-width:0.5;" x1="18.75" x2="255.5351" y1="355.8" y2="355.8"/><ellipse cx="28.75" cy="369.7" fill="none" rx="3" ry="3" style="stroke:#038048;stroke-width:1;"/><text fill="#000000" font-family="sans-serif" font-size="14" lengthAdjust="spacing" textLength="212.7851" x="37.75" y="373.5619">defining_code : CODE_PHRASE [1]</text><line style="stroke:#181818;stroke-width:0.5;" x1="18.75" x2="255.5351" y1="380.5999" y2="380.5999"/></g><!--class DV_TEXT--><g class="entity" data-entity="DV_TEXT" data-source-line="6" data-uid="ent0003" id="entity_DV_TEXT"><rect fill="#F5F5F5" height="148.7996" rx="2.5" ry="2.5" style="stroke:#808080;stroke-width:1;stroke-dasharray:1,3;" width="260.289" x="7" y="115"/><ellipse cx="104.0126" cy="131" fill="#ADD1B2" rx="11" ry="11" style="stroke:#181818;stroke-width:1;"/><path d="M104.0126,137.4219 C105.1845,137.4219 106.4189,137.1563 107.7939,136.5469 L107.3095,135.0313 C106.2158,135.4531 105.2001,135.6406 104.3408,135.6406 C101.622,135.6406 99.9033,133.7969 99.9033,130.8906 C99.9033,128.1406 101.4658,126.5469 104.2001,126.5469 C105.122,126.5469 106.1376,126.7344 107.2783,127.1563 L107.8564,125.6406 C106.7626,125.0625 105.4658,124.7656 104.2783,124.7656 C100.5126,124.7656 97.9345,127.4063 97.9345,131.2188 C97.9345,134.8906 100.4189,137.4219 104.0126,137.4219 Z " fill="#000000"/><text fill="#808080" font-family="sans-serif" font-size="14" lengthAdjust="spacing" textLength="57.7638" x="124.5126" y="136.362">DV_TEXT</text><line style="stroke:#808080;stroke-width:1;stroke-dasharray:1,3;" x1="8" x2="266.289" y1="147" y2="147"/><ellipse cx="18" cy="160.9" fill="none" rx="3" ry="3" style="stroke:#038048;stroke-width:1;"/><text fill="#808080" font-family="sans-serif" font-size="14" lengthAdjust="spacing" textLength="98.9656" x="27" y="164.7619">value : String [1]</text><ellipse cx="18" cy="177.6999" fill="none" rx="3" ry="3" style="stroke:#038048;stroke-width:1;"/><text fill="#808080" font-family="sans-serif" font-size="14" lengthAdjust="spacing" textLength="149.0854" x="27" y="181.5619">hyperlink : DV_URI [0..1]</text><ellipse cx="18" cy="194.4998" fill="none" rx="3" ry="3" style="stroke:#038048;stroke-width:1;"/><text fill="#808080" font-family="sans-serif" font-size="14" lengthAdjust="spacing" textLength="148.7634" x="27" y="198.3618">formatting : String [0..1]</text><ellipse cx="18" cy="211.2997" fill="none" rx="3" ry="3" style="stroke:#038048;stroke-width:1;"/><text fill="#808080" font-family="sans-serif" font-size="14" lengthAdjust="spacing" textLength="234.289" x="27" y="215.1617">mappings : List&lt;TERM_MAPPING&gt; [*]</text><ellipse cx="18" cy="228.0997" fill="none" rx="3" ry="3" style="stroke:#038048;stroke-width:1;"/><text fill="#808080" font-family="sans-serif" font-size="14" lengthAdjust="spacing" textLength="198.1552" x="27" y="231.9616">language : CODE_PHRASE [0..1]</text><ellipse cx="18" cy="244.8996" fill="none" rx="3" ry="3" style="stroke:#038048;stroke-width:1;"/><text fill="#808080" font-family="sans-serif" font-size="14" lengthAdjust="spacing" textLength="197.9732" x="27" y="248.7616">encoding : CODE_PHRASE [0..1]</text><line style="stroke:#808080;stroke-width:1;stroke-dasharray:1,3;" x1="8" x2="266.289" y1="255.7996" y2="255.7996"/></g><!--class DATA_VALUE--><g class="entity" data-entity="DATA_VALUE" data-source-line="15" data-uid="ent0004" id="entity_DATA_VALUE"><rect fill="#F5F5F5" height="48" rx="2.5" ry="2.5" style="stroke:#808080;stroke-width:1;stroke-dasharray:1,3;" width="116.2657" x="79.01" y="7"/><ellipse cx="94.01" cy="23" fill="#A9DCDF" rx="11" ry="11" style="stroke:#181818;stroke-width:1;"/><path d="M88.5256,28.5 L90.5569,28.5 L94.6038,17.1563 L93.6975,17.1563 L97.5256,28.5 L99.6663,28.5 L95.3381,16.1719 L93.1194,16.1719 L88.5256,28.5 Z M90.8538,25 L97.2913,25 L97.2913,23.25 L90.8538,23.25 L90.8538,25 Z " fill="#000000"/><text fill="#808080" font-family="sans-serif" font-size="14" font-style="italic" lengthAdjust="spacing" textLength="84.2657" x="108.01" y="28.362">DATA_VALUE</text><line style="stroke:#808080;stroke-width:1;stroke-dasharray:1,3;" x1="80.01" x2="194.2757" y1="39" y2="39"/><line style="stroke:#808080;stroke-width:1;stroke-dasharray:1,3;" x1="80.01" x2="194.2757" y1="47" y2="47"/></g><!--reverse link DATA_VALUE to DV_TEXT--><g class="link" data-entity-1="DATA_VALUE" data-entity-2="DV_TEXT" data-source-line="18" data-uid="lnk5" id="link_DATA_VALUE_DV_TEXT"><path codeLine="18" d="M137.14,73.42 C137.14,89.27 137.14,93.15 137.14,114.59" fill="none" id="DATA_VALUE-backto-DV_TEXT" style="stroke:#181818;stroke-width:1;"/><polygon fill="none" points="137.14,55.42,131.14,73.42,143.14,73.42,137.14,55.42" style="stroke:#181818;stroke-width:1;"/></g><!--reverse link DV_TEXT to DV_CODED_TEXT--><g class="link" data-entity-1="DV_TEXT" data-entity-2="DV_CODED_TEXT" data-source-line="20" data-uid="lnk6" id="link_DV_TEXT_DV_CODED_TEXT"><path codeLine="20" d="M137.14,282.12 C137.14,303.03 137.14,306.7 137.14,323.65" fill="none" id="DV_TEXT-backto-DV_CODED_TEXT" style="stroke:#181818;stroke-width:1;"/><polygon fill="none" points="137.14,264.12,131.14,282.12,143.14,282.12,137.14,264.12" style="stroke:#181818;stroke-width:1;"/></g></g></svg>
