<svg xmlns="http://www.w3.org/2000/svg" xmlns:xlink="http://www.w3.org/1999/xlink" contentStyleType="text/css" data-diagram-type="CLASS" height="341px" preserveAspectRatio="none" style="width:459px;height:341px;background:#FFFFFF;" version="1.1" viewBox="0 0 459 341" width="459px" zoomAndPan="magnify"><defs/><g><!--class DV_INTERVAL--><g class="entity" data-entity="DV_INTERVAL" data-source-line="2" data-uid="ent0002" id="entity_DV_INTERVAL"><rect fill="#F1F1F1" height="48" rx="2.5" ry="2.5" style="stroke:#181818;stroke-width:0.5;" width="131.4957" x="118.38" y="286"/><ellipse cx="133.38" cy="302" fill="#ADD1B2" rx="11" ry="11" style="stroke:#181818;stroke-width:1;"/><path d="M133.38,308.4219 C134.5519,308.4219 135.7863,308.1563 137.1613,307.5469 L136.6769,306.0313 C135.5831,306.4531 134.5675,306.6406 133.7081,306.6406 C130.9894,306.6406 129.2706,304.7969 129.2706,301.8906 C129.2706,299.1406 130.8331,297.5469 133.5675,297.5469 C134.4894,297.5469 135.505,297.7344 136.6456,298.1563 L137.2238,296.6406 C136.13,296.0625 134.8331,295.7656 133.6456,295.7656 C129.88,295.7656 127.3019,298.4063 127.3019,302.2188 C127.3019,305.8906 129.7863,308.4219 133.38,308.4219 Z " fill="#000000"/><text fill="#000000" font-family="sans-serif" font-size="14" lengthAdjust="spacing" textLength="88.7036" x="147.38" y="307.362">DV_INTERVAL</text><rect fill="#FFFFFF" height="16.4001" style="stroke:#181818;stroke-width:1;stroke-dasharray:2,2;" width="8.7921" x="244.0836" y="283"/><text fill="#000000" font-family="sans-serif" font-size="12" font-style="italic" lengthAdjust="spacing" textLength="6.7921" x="245.0836" y="295.7961">T</text><line style="stroke:#181818;stroke-width:0.5;" x1="119.38" x2="248.8757" y1="318" y2="318"/><line style="stroke:#181818;stroke-width:0.5;" x1="119.38" x2="248.8757" y1="326" y2="326"/></g><!--class DATA_VALUE--><g class="entity" data-entity="DATA_VALUE" data-source-line="5" data-uid="ent0003" id="entity_DATA_VALUE"><rect fill="#F5F5F5" height="48" rx="2.5" ry="2.5" style="stroke:#808080;stroke-width:1;stroke-dasharray:1,3;" width="116.2657" x="7" y="94"/><ellipse cx="22" cy="110" fill="#A9DCDF" rx="11" ry="11" style="stroke:#181818;stroke-width:1;"/><path d="M16.5156,115.5 L18.5469,115.5 L22.5938,104.1563 L21.6875,104.1563 L25.5156,115.5 L27.6563,115.5 L23.3281,103.1719 L21.1094,103.1719 L16.5156,115.5 Z M18.8438,112 L25.2813,112 L25.2813,110.25 L18.8438,110.25 L18.8438,112 Z " fill="#000000"/><text fill="#808080" font-family="sans-serif" font-size="14" font-style="italic" lengthAdjust="spacing" textLength="84.2657" x="36" y="115.362">DATA_VALUE</text><line style="stroke:#808080;stroke-width:1;stroke-dasharray:1,3;" x1="8" x2="122.2657" y1="126" y2="126"/><line style="stroke:#808080;stroke-width:1;stroke-dasharray:1,3;" x1="8" x2="122.2657" y1="134" y2="134"/></g><!--class Interval--><g class="entity" data-entity="Interval" data-source-line="10" data-uid="ent0005" id="entity_Interval"><rect fill="#F5F5F5" height="215.9993" rx="2.5" ry="2.5" style="stroke:#808080;stroke-width:1;stroke-dasharray:1,3;" width="290.627" x="157.82" y="10"/><ellipse cx="269.8976" cy="26" fill="#A9DCDF" rx="11" ry="11" style="stroke:#181818;stroke-width:1;"/><path d="M264.4132,31.5 L266.4444,31.5 L270.4913,20.1563 L269.5851,20.1563 L273.4132,31.5 L275.5538,31.5 L271.2257,19.1719 L269.0069,19.1719 L264.4132,31.5 Z M266.7413,28 L273.1788,28 L273.1788,26.25 L266.7413,26.25 L266.7413,28 Z " fill="#000000"/><text fill="#808080" font-family="sans-serif" font-size="14" font-style="italic" lengthAdjust="spacing" textLength="47.1798" x="290.3976" y="31.362">Interval</text><rect fill="#FFFFFF" height="16.4001" style="stroke:#181818;stroke-width:1;stroke-dasharray:2,2;" width="8.7921" x="442.655" y="7"/><text fill="#000000" font-family="sans-serif" font-size="12" font-style="italic" lengthAdjust="spacing" textLength="6.7921" x="443.655" y="19.7961">T</text><line style="stroke:#808080;stroke-width:1;stroke-dasharray:1,3;" x1="158.82" x2="447.447" y1="42" y2="42"/><ellipse cx="168.82" cy="55.9" fill="none" rx="3" ry="3" style="stroke:#038048;stroke-width:1;"/><text fill="#808080" font-family="sans-serif" font-size="14" lengthAdjust="spacing" textLength="87.6956" x="177.82" y="59.7619">lower : T [0..1]</text><ellipse cx="168.82" cy="72.6999" fill="none" rx="3" ry="3" style="stroke:#038048;stroke-width:1;"/><text fill="#808080" font-family="sans-serif" font-size="14" lengthAdjust="spacing" textLength="88.7036" x="177.82" y="76.5619">upper : T [0..1]</text><ellipse cx="168.82" cy="89.4998" fill="none" rx="3" ry="3" style="stroke:#038048;stroke-width:1;"/><text fill="#808080" font-family="sans-serif" font-size="14" lengthAdjust="spacing" textLength="192.8632" x="177.82" y="93.3618">lower_unbounded : Boolean [1]</text><ellipse cx="168.82" cy="106.2997" fill="none" rx="3" ry="3" style="stroke:#038048;stroke-width:1;"/><text fill="#808080" font-family="sans-serif" font-size="14" lengthAdjust="spacing" textLength="193.8712" x="177.82" y="110.1617">upper_unbounded : Boolean [1]</text><ellipse cx="168.82" cy="123.0997" fill="none" rx="3" ry="3" style="stroke:#038048;stroke-width:1;"/><text fill="#808080" font-family="sans-serif" font-size="14" lengthAdjust="spacing" textLength="175.0693" x="177.82" y="126.9616">lower_included : Boolean [1]</text><ellipse cx="168.82" cy="139.8996" fill="none" rx="3" ry="3" style="stroke:#038048;stroke-width:1;"/><text fill="#808080" font-family="sans-serif" font-size="14" lengthAdjust="spacing" textLength="176.0773" x="177.82" y="143.7616">upper_included : Boolean [1]</text><line style="stroke:#808080;stroke-width:1;stroke-dasharray:1,3;" x1="158.82" x2="447.447" y1="150.7996" y2="150.7996"/><ellipse cx="168.82" cy="164.6995" fill="#84BE84" rx="3" ry="3" style="stroke:#038048;stroke-width:1;"/><text fill="#808080" font-family="sans-serif" font-size="14" font-style="italic" lengthAdjust="spacing" textLength="159.6834" x="177.82" y="168.5615">has( e : T [1] ) : Boolean [1]</text><ellipse cx="168.82" cy="181.4995" fill="#84BE84" rx="3" ry="3" style="stroke:#038048;stroke-width:1;"/><text fill="#808080" font-family="sans-serif" font-size="14" font-style="italic" lengthAdjust="spacing" textLength="264.627" x="177.82" y="185.3614">intersects( other : Interval [1] ) : Boolean [1]</text><ellipse cx="168.82" cy="198.2994" fill="#84BE84" rx="3" ry="3" style="stroke:#038048;stroke-width:1;"/><text fill="#808080" font-family="sans-serif" font-size="14" font-style="italic" lengthAdjust="spacing" textLength="256.059" x="177.82" y="202.1614">contains( other : Interval [1] ) : Boolean [1]</text><ellipse cx="168.82" cy="215.0993" fill="#84BE84" rx="3" ry="3" style="stroke:#038048;stroke-width:1;"/><text fill="#808080" font-family="sans-serif" font-size="14" font-style="italic" lengthAdjust="spacing" textLength="230.9711" x="177.82" y="218.9613">is_equal( other : Any [1] ) : Boolean [1]</text></g><!--reverse link DATA_VALUE to DV_INTERVAL--><g class="link" data-entity-1="DATA_VALUE" data-entity-2="DV_INTERVAL" data-source-line="8" data-uid="lnk4" id="link_DATA_VALUE_DV_INTERVAL"><path codeLine="8" d="M89.2758,157.5541 C112.1158,194.0141 146.51,248.93 169.42,285.51" fill="none" id="DATA_VALUE-backto-DV_INTERVAL" style="stroke:#181818;stroke-width:1;"/><polygon fill="none" points="79.72,142.3,84.1911,160.7393,94.3605,154.3688,79.72,142.3" style="stroke:#181818;stroke-width:1;"/></g><!--reverse link Interval to DV_INTERVAL--><g class="link" data-entity-1="Interval" data-entity-2="DV_INTERVAL" data-source-line="23" data-uid="lnk6" id="link_Interval_DV_INTERVAL"><path codeLine="23" d="M226.2565,241.7455 C212.2665,264.0855 208.42,270.22 198.77,285.63" fill="none" id="Interval-backto-DV_INTERVAL" style="stroke:#181818;stroke-width:1;"/><polygon fill="none" points="235.81,226.49,221.1713,238.561,231.3417,244.93,235.81,226.49" style="stroke:#181818;stroke-width:1;"/></g></g></svg>
