<svg xmlns="http://www.w3.org/2000/svg" xmlns:xlink="http://www.w3.org/1999/xlink" contentStyleType="text/css" data-diagram-type="CLASS" height="529px" preserveAspectRatio="none" style="width:343px;height:529px;background:#FFFFFF;" version="1.1" viewBox="0 0 343 529" width="343px" zoomAndPan="magnify"><defs/><g><!--class DV_MULTIMEDIA--><g class="entity" data-entity="DV_MULTIMEDIA" data-source-line="2" data-uid="ent0002" id="entity_DV_MULTIMEDIA"><rect fill="#F1F1F1" height="266.399" rx="2.5" ry="2.5" style="stroke:#181818;stroke-width:0.5;" width="329.6028" x="7" y="256.6"/><ellipse cx="113.4416" cy="272.6" fill="#ADD1B2" rx="11" ry="11" style="stroke:#181818;stroke-width:1;"/><path d="M113.4416,279.0219 C114.6135,279.0219 115.8478,278.7563 117.2228,278.1469 L116.7385,276.6313 C115.6447,277.0531 114.6291,277.2406 113.7697,277.2406 C111.051,277.2406 109.3322,275.3969 109.3322,272.4906 C109.3322,269.7406 110.8947,268.1469 113.6291,268.1469 C114.551,268.1469 115.5666,268.3344 116.7072,268.7563 L117.2853,267.2406 C116.1916,266.6625 114.8947,266.3656 113.7072,266.3656 C109.9416,266.3656 107.3635,269.0063 107.3635,272.8188 C107.3635,276.4906 109.8478,279.0219 113.4416,279.0219 Z " fill="#000000"/><text fill="#000000" font-family="sans-serif" font-size="14" lengthAdjust="spacing" textLength="108.2196" x="133.9416" y="277.962">DV_MULTIMEDIA</text><line style="stroke:#181818;stroke-width:0.5;" x1="8" x2="335.6028" y1="288.6" y2="288.6"/><ellipse cx="18" cy="302.5" fill="none" rx="3" ry="3" style="stroke:#038048;stroke-width:1;"/><text fill="#000000" font-family="sans-serif" font-size="14" lengthAdjust="spacing" textLength="169.1474" x="27" y="306.3619">alternate_text : String [0..1]</text><ellipse cx="18" cy="319.2999" fill="none" rx="3" ry="3" style="stroke:#038048;stroke-width:1;"/><text fill="#000000" font-family="sans-serif" font-size="14" lengthAdjust="spacing" textLength="108.0516" x="27" y="323.1619">uri : DV_URI [0..1]</text><ellipse cx="18" cy="336.0998" fill="none" rx="3" ry="3" style="stroke:#038048;stroke-width:1;"/><text fill="#000000" font-family="sans-serif" font-size="14" lengthAdjust="spacing" textLength="140.6854" x="27" y="339.9618">data : Array&lt;Octet&gt; [*]</text><ellipse cx="18" cy="352.8997" fill="none" rx="3" ry="3" style="stroke:#038048;stroke-width:1;"/><text fill="#000000" font-family="sans-serif" font-size="14" lengthAdjust="spacing" textLength="197.6092" x="27" y="356.7617">media_type : CODE_PHRASE [1]</text><ellipse cx="18" cy="369.6997" fill="none" rx="3" ry="3" style="stroke:#038048;stroke-width:1;"/><text fill="#000000" font-family="sans-serif" font-size="14" lengthAdjust="spacing" textLength="288.7769" x="27" y="373.5616">compression_algorithm : CODE_PHRASE [0..1]</text><ellipse cx="18" cy="386.4996" fill="none" rx="3" ry="3" style="stroke:#038048;stroke-width:1;"/><text fill="#000000" font-family="sans-serif" font-size="14" lengthAdjust="spacing" textLength="207.9972" x="27" y="390.3616">integrity_check : Array&lt;Octet&gt; [*]</text><ellipse cx="18" cy="403.2995" fill="none" rx="3" ry="3" style="stroke:#038048;stroke-width:1;"/><text fill="#000000" font-family="sans-serif" font-size="14" lengthAdjust="spacing" textLength="303.6028" x="27" y="407.1615">integrity_check_algorithm : CODE_PHRASE [0..1]</text><ellipse cx="18" cy="420.0995" fill="none" rx="3" ry="3" style="stroke:#038048;stroke-width:1;"/><text fill="#000000" font-family="sans-serif" font-size="14" lengthAdjust="spacing" textLength="216.1591" x="27" y="423.9614">thumbnail : DV_MULTIMEDIA [0..1]</text><ellipse cx="18" cy="436.8994" fill="none" rx="3" ry="3" style="stroke:#038048;stroke-width:1;"/><text fill="#000000" font-family="sans-serif" font-size="14" lengthAdjust="spacing" textLength="97.1456" x="27" y="440.7614">size : Integer [1]</text><line style="stroke:#181818;stroke-width:0.5;" x1="8" x2="335.6028" y1="447.7993" y2="447.7993"/><ellipse cx="18" cy="461.6993" fill="#84BE84" rx="3" ry="3" style="stroke:#038048;stroke-width:1;"/><text fill="#000000" font-family="sans-serif" font-size="14" lengthAdjust="spacing" textLength="155.6794" x="27" y="465.5613">is_external() : Boolean [1]</text><ellipse cx="18" cy="478.4992" fill="#84BE84" rx="3" ry="3" style="stroke:#038048;stroke-width:1;"/><text fill="#000000" font-family="sans-serif" font-size="14" lengthAdjust="spacing" textLength="139.0475" x="27" y="482.3612">is_inline() : Boolean [1]</text><ellipse cx="18" cy="495.2992" fill="#84BE84" rx="3" ry="3" style="stroke:#038048;stroke-width:1;"/><text fill="#000000" font-family="sans-serif" font-size="14" lengthAdjust="spacing" textLength="180.9073" x="27" y="499.1611">is_compressed() : Boolean [1]</text><ellipse cx="18" cy="512.0991" fill="#84BE84" rx="3" ry="3" style="stroke:#038048;stroke-width:1;"/><text fill="#000000" font-family="sans-serif" font-size="14" lengthAdjust="spacing" textLength="211.3432" x="27" y="515.9611">has_integrity_check() : Boolean [1]</text></g><!--class DV_ENCAPSULATED--><g class="entity" data-entity="DV_ENCAPSULATED" data-source-line="18" data-uid="ent0003" id="entity_DV_ENCAPSULATED"><rect fill="#F5F5F5" height="81.5999" rx="2.5" ry="2.5" style="stroke:#808080;stroke-width:1;stroke-dasharray:1,3;" width="224.1552" x="59.72" y="115"/><ellipse cx="103.0663" cy="131" fill="#A9DCDF" rx="11" ry="11" style="stroke:#181818;stroke-width:1;"/><path d="M97.5819,136.5 L99.6131,136.5 L103.66,125.1563 L102.7538,125.1563 L106.5819,136.5 L108.7225,136.5 L104.3944,124.1719 L102.1756,124.1719 L97.5819,136.5 Z M99.91,133 L106.3475,133 L106.3475,131.25 L99.91,131.25 L99.91,133 Z " fill="#000000"/><text fill="#808080" font-family="sans-serif" font-size="14" font-style="italic" lengthAdjust="spacing" textLength="129.1635" x="123.3654" y="136.362">DV_ENCAPSULATED</text><line style="stroke:#808080;stroke-width:1;stroke-dasharray:1,3;" x1="60.72" x2="282.8752" y1="147" y2="147"/><ellipse cx="70.72" cy="160.9" fill="none" rx="3" ry="3" style="stroke:#038048;stroke-width:1;"/><text fill="#808080" font-family="sans-serif" font-size="14" lengthAdjust="spacing" textLength="186.6893" x="79.72" y="164.7619">charset : CODE_PHRASE [0..1]</text><ellipse cx="70.72" cy="177.6999" fill="none" rx="3" ry="3" style="stroke:#038048;stroke-width:1;"/><text fill="#808080" font-family="sans-serif" font-size="14" lengthAdjust="spacing" textLength="198.1552" x="79.72" y="181.5619">language : CODE_PHRASE [0..1]</text><line style="stroke:#808080;stroke-width:1;stroke-dasharray:1,3;" x1="60.72" x2="282.8752" y1="188.5999" y2="188.5999"/></g><!--class DATA_VALUE--><g class="entity" data-entity="DATA_VALUE" data-source-line="23" data-uid="ent0004" id="entity_DATA_VALUE"><rect fill="#F5F5F5" height="48" rx="2.5" ry="2.5" style="stroke:#808080;stroke-width:1;stroke-dasharray:1,3;" width="116.2657" x="113.67" y="7"/><ellipse cx="128.67" cy="23" fill="#A9DCDF" rx="11" ry="11" style="stroke:#181818;stroke-width:1;"/><path d="M123.1856,28.5 L125.2169,28.5 L129.2638,17.1563 L128.3575,17.1563 L132.1856,28.5 L134.3263,28.5 L129.9981,16.1719 L127.7794,16.1719 L123.1856,28.5 Z M125.5138,25 L131.9513,25 L131.9513,23.25 L125.5138,23.25 L125.5138,25 Z " fill="#000000"/><text fill="#808080" font-family="sans-serif" font-size="14" font-style="italic" lengthAdjust="spacing" textLength="84.2657" x="142.67" y="28.362">DATA_VALUE</text><line style="stroke:#808080;stroke-width:1;stroke-dasharray:1,3;" x1="114.67" x2="228.9357" y1="39" y2="39"/><line style="stroke:#808080;stroke-width:1;stroke-dasharray:1,3;" x1="114.67" x2="228.9357" y1="47" y2="47"/></g><!--reverse link DATA_VALUE to DV_ENCAPSULATED--><g class="link" data-entity-1="DATA_VALUE" data-entity-2="DV_ENCAPSULATED" data-source-line="26" data-uid="lnk5" id="link_DATA_VALUE_DV_ENCAPSULATED"><path codeLine="26" d="M171.8,73.39 C171.8,90.09 171.8,94.98 171.8,114.58" fill="none" id="DATA_VALUE-backto-DV_ENCAPSULATED" style="stroke:#181818;stroke-width:1;"/><polygon fill="none" points="171.8,55.39,165.8,73.39,177.8,73.39,171.8,55.39" style="stroke:#181818;stroke-width:1;"/></g><!--reverse link DV_ENCAPSULATED to DV_MULTIMEDIA--><g class="link" data-entity-1="DV_ENCAPSULATED" data-entity-2="DV_MULTIMEDIA" data-source-line="28" data-uid="lnk6" id="link_DV_ENCAPSULATED_DV_MULTIMEDIA"><path codeLine="28" d="M171.8,214.95 C171.8,231.94 171.8,234.79 171.8,256.42" fill="none" id="DV_ENCAPSULATED-backto-DV_MULTIMEDIA" style="stroke:#181818;stroke-width:1;"/><polygon fill="none" points="171.8,196.95,165.8,214.95,177.8,214.95,171.8,196.95" style="stroke:#181818;stroke-width:1;"/></g></g></svg>
