<svg xmlns="http://www.w3.org/2000/svg" xmlns:xlink="http://www.w3.org/1999/xlink" contentStyleType="text/css" data-diagram-type="CLASS" height="388px" preserveAspectRatio="none" style="width:342px;height:388px;background:#FFFFFF;" version="1.1" viewBox="0 0 342 388" width="342px" zoomAndPan="magnify"><defs/><g><!--class EVENT_CONTEXT--><g class="entity" data-entity="EVENT_CONTEXT" data-source-line="2" data-uid="ent0002" id="entity_EVENT_CONTEXT"><rect fill="#F1F1F1" height="165.5995" rx="2.5" ry="2.5" style="stroke:#181818;stroke-width:0.5;" width="313.6148" x="14.69" y="215.8"/><ellipse cx="110.8696" cy="231.8" fill="#ADD1B2" rx="11" ry="11" style="stroke:#181818;stroke-width:1;"/><path d="M110.8696,238.2219 C112.0415,238.2219 113.2759,237.9562 114.6509,237.3469 L114.1665,235.8312 C113.0728,236.2531 112.0571,236.4406 111.1978,236.4406 C108.479,236.4406 106.7603,234.5969 106.7603,231.6906 C106.7603,228.9406 108.3228,227.3469 111.0571,227.3469 C111.979,227.3469 112.9946,227.5344 114.1353,227.9562 L114.7134,226.4406 C113.6196,225.8625 112.3228,225.5656 111.1353,225.5656 C107.3696,225.5656 104.7915,228.2062 104.7915,232.0187 C104.7915,235.6906 107.2759,238.2219 110.8696,238.2219 Z " fill="#000000"/><text fill="#000000" font-family="sans-serif" font-size="14" lengthAdjust="spacing" textLength="112.7555" x="131.3696" y="237.162">EVENT_CONTEXT</text><line style="stroke:#181818;stroke-width:0.5;" x1="15.69" x2="327.3048" y1="247.8" y2="247.8"/><ellipse cx="25.69" cy="261.7" fill="none" rx="3" ry="3" style="stroke:#038048;stroke-width:1;"/><text fill="#000000" font-family="sans-serif" font-size="14" lengthAdjust="spacing" textLength="191.9672" x="34.69" y="265.5619">start_time : DV_DATE_TIME [1]</text><ellipse cx="25.69" cy="278.4999" fill="none" rx="3" ry="3" style="stroke:#038048;stroke-width:1;"/><text fill="#000000" font-family="sans-serif" font-size="14" lengthAdjust="spacing" textLength="201.9912" x="34.69" y="282.3619">end_time : DV_DATE_TIME [0..1]</text><ellipse cx="25.69" cy="295.2998" fill="none" rx="3" ry="3" style="stroke:#038048;stroke-width:1;"/><text fill="#000000" font-family="sans-serif" font-size="14" lengthAdjust="spacing" textLength="131.6555" x="34.69" y="299.1618">location : String [0..1]</text><ellipse cx="25.69" cy="312.0997" fill="none" rx="3" ry="3" style="stroke:#038048;stroke-width:1;"/><text fill="#000000" font-family="sans-serif" font-size="14" lengthAdjust="spacing" textLength="184.4213" x="34.69" y="315.9617">setting : DV_CODED_TEXT [1]</text><ellipse cx="25.69" cy="328.8997" fill="none" rx="3" ry="3" style="stroke:#038048;stroke-width:1;"/><text fill="#000000" font-family="sans-serif" font-size="14" lengthAdjust="spacing" textLength="247.1971" x="34.69" y="332.7616">other_context : ITEM_STRUCTURE [0..1]</text><ellipse cx="25.69" cy="345.6996" fill="none" rx="3" ry="3" style="stroke:#038048;stroke-width:1;"/><text fill="#000000" font-family="sans-serif" font-size="14" lengthAdjust="spacing" textLength="287.6148" x="34.69" y="349.5616">health_care_facility : PARTY_IDENTIFIED [0..1]</text><ellipse cx="25.69" cy="362.4995" fill="none" rx="3" ry="3" style="stroke:#038048;stroke-width:1;"/><text fill="#000000" font-family="sans-serif" font-size="14" lengthAdjust="spacing" textLength="252.419" x="34.69" y="366.3615">participations : List&lt;PARTICIPATION&gt; [*]</text><line style="stroke:#181818;stroke-width:0.5;" x1="15.69" x2="327.3048" y1="373.3995" y2="373.3995"/></g><!--class PATHABLE--><g class="entity" data-entity="PATHABLE" data-source-line="12" data-uid="ent0003" id="entity_PATHABLE"><rect fill="#F5F5F5" height="148.7996" rx="2.5" ry="2.5" style="stroke:#808080;stroke-width:1;stroke-dasharray:1,3;" width="328.9868" x="7" y="7"/><ellipse cx="133.3006" cy="23" fill="#A9DCDF" rx="11" ry="11" style="stroke:#181818;stroke-width:1;"/><path d="M127.8162,28.5 L129.8474,28.5 L133.8943,17.1563 L132.9881,17.1563 L136.8162,28.5 L138.9568,28.5 L134.6287,16.1719 L132.4099,16.1719 L127.8162,28.5 Z M130.1443,25 L136.5818,25 L136.5818,23.25 L130.1443,23.25 L130.1443,25 Z " fill="#000000"/><text fill="#808080" font-family="sans-serif" font-size="14" font-style="italic" lengthAdjust="spacing" textLength="67.8857" x="153.8006" y="28.362">PATHABLE</text><line style="stroke:#808080;stroke-width:1;stroke-dasharray:1,3;" x1="8" x2="334.9868" y1="39" y2="39"/><line style="stroke:#808080;stroke-width:1;stroke-dasharray:1,3;" x1="8" x2="334.9868" y1="47" y2="47"/><ellipse cx="18" cy="60.9" fill="#84BE84" rx="3" ry="3" style="stroke:#038048;stroke-width:1;"/><text fill="#808080" font-family="sans-serif" font-size="14" lengthAdjust="spacing" textLength="145.6834" x="27" y="64.7619">parent() : PATHABLE [1]</text><ellipse cx="18" cy="77.6999" fill="#84BE84" rx="3" ry="3" style="stroke:#038048;stroke-width:1;"/><text fill="#808080" font-family="sans-serif" font-size="14" lengthAdjust="spacing" textLength="257.529" x="27" y="81.5619">item_at_path( a_path : String [1] ) : Any [1]</text><ellipse cx="18" cy="94.4998" fill="#84BE84" rx="3" ry="3" style="stroke:#038048;stroke-width:1;"/><text fill="#808080" font-family="sans-serif" font-size="14" lengthAdjust="spacing" textLength="302.9868" x="27" y="98.3618">items_at_path( a_path : String [1] ) : List&lt;Any&gt; [*]</text><ellipse cx="18" cy="111.2997" fill="#84BE84" rx="3" ry="3" style="stroke:#038048;stroke-width:1;"/><text fill="#808080" font-family="sans-serif" font-size="14" lengthAdjust="spacing" textLength="273.1249" x="27" y="115.1617">path_exists( a_path : String [1] ) : Boolean [1]</text><ellipse cx="18" cy="128.0997" fill="#84BE84" rx="3" ry="3" style="stroke:#038048;stroke-width:1;"/><text fill="#808080" font-family="sans-serif" font-size="14" lengthAdjust="spacing" textLength="280.0549" x="27" y="131.9616">path_unique( a_path : String [1] ) : Boolean [1]</text><ellipse cx="18" cy="144.8996" fill="#84BE84" rx="3" ry="3" style="stroke:#038048;stroke-width:1;"/><text fill="#808080" font-family="sans-serif" font-size="14" lengthAdjust="spacing" textLength="292.6829" x="27" y="148.7616">path_of_item( a_loc : PATHABLE [1] ) : String [1]</text></g><!--reverse link PATHABLE to EVENT_CONTEXT--><g class="link" data-entity-1="PATHABLE" data-entity-2="EVENT_CONTEXT" data-source-line="21" data-uid="lnk4" id="link_PATHABLE_EVENT_CONTEXT"><path codeLine="21" d="M171.49,174.16 C171.49,193.26 171.49,195.95 171.49,215.45" fill="none" id="PATHABLE-backto-EVENT_CONTEXT" style="stroke:#181818;stroke-width:1;"/><polygon fill="none" points="171.49,156.16,165.49,174.16,177.49,174.16,171.49,156.16" style="stroke:#181818;stroke-width:1;"/></g></g></svg>
