<svg xmlns="http://www.w3.org/2000/svg" xmlns:xlink="http://www.w3.org/1999/xlink" contentStyleType="text/css" data-diagram-type="CLASS" height="102px" preserveAspectRatio="none" style="width:239px;height:102px;background:#FFFFFF;" version="1.1" viewBox="0 0 239 102" width="239px" zoomAndPan="magnify"><defs/><g><!--class EXTRACT_ERROR--><g class="entity" data-entity="EXTRACT_ERROR" data-source-line="2" data-uid="ent0002" id="entity_EXTRACT_ERROR"><rect fill="#F1F1F1" height="81.5999" rx="2.5" ry="2.5" style="stroke:#181818;stroke-width:0.5;" width="218.0372" x="7" y="7"/><ellipse cx="56.4198" cy="23" fill="#ADD1B2" rx="11" ry="11" style="stroke:#181818;stroke-width:1;"/><path d="M56.4198,29.4219 C57.5917,29.4219 58.8261,29.1563 60.2011,28.5469 L59.7167,27.0313 C58.623,27.4531 57.6073,27.6406 56.748,27.6406 C54.0292,27.6406 52.3105,25.7969 52.3105,22.8906 C52.3105,20.1406 53.873,18.5469 56.6073,18.5469 C57.5292,18.5469 58.5448,18.7344 59.6855,19.1563 L60.2636,17.6406 C59.1698,17.0625 57.873,16.7656 56.6855,16.7656 C52.9198,16.7656 50.3417,19.4063 50.3417,23.2188 C50.3417,26.8906 52.8261,29.4219 56.4198,29.4219 Z " fill="#000000"/><text fill="#000000" font-family="sans-serif" font-size="14" lengthAdjust="spacing" textLength="110.6975" x="76.9198" y="28.362">EXTRACT_ERROR</text><line style="stroke:#181818;stroke-width:0.5;" x1="8" x2="224.0372" y1="39" y2="39"/><ellipse cx="18" cy="52.9" fill="none" rx="3" ry="3" style="stroke:#038048;stroke-width:1;"/><text fill="#000000" font-family="sans-serif" font-size="14" lengthAdjust="spacing" textLength="192.0372" x="27" y="56.7619">request_id : OBJECT_REF [0..1]</text><ellipse cx="18" cy="69.6999" fill="none" rx="3" ry="3" style="stroke:#038048;stroke-width:1;"/><text fill="#000000" font-family="sans-serif" font-size="14" lengthAdjust="spacing" textLength="128.5195" x="27" y="73.5619">reason : DV_TEXT [1]</text><line style="stroke:#181818;stroke-width:0.5;" x1="8" x2="224.0372" y1="80.5999" y2="80.5999"/></g></g></svg>
