<svg xmlns="http://www.w3.org/2000/svg" xmlns:xlink="http://www.w3.org/1999/xlink" contentStyleType="text/css" data-diagram-type="CLASS" height="779px" preserveAspectRatio="none" style="width:342px;height:779px;background:#FFFFFF;" version="1.1" viewBox="0 0 342 779" width="342px" zoomAndPan="magnify"><defs/><g><!--class ITEM_SINGLE--><g class="entity" data-entity="ITEM_SINGLE" data-source-line="2" data-uid="ent0002" id="entity_ITEM_SINGLE"><rect fill="#F1F1F1" height="81.5999" rx="2.5" ry="2.5" style="stroke:#181818;stroke-width:0.5;" width="203.3933" x="69.8" y="691"/><ellipse cx="124.1898" cy="707" fill="#ADD1B2" rx="11" ry="11" style="stroke:#181818;stroke-width:1;"/><path d="M124.1898,713.4219 C125.3617,713.4219 126.5961,713.1563 127.9711,712.5469 L127.4867,711.0313 C126.3929,711.4531 125.3773,711.6406 124.5179,711.6406 C121.7992,711.6406 120.0804,709.7969 120.0804,706.8906 C120.0804,704.1406 121.6429,702.5469 124.3773,702.5469 C125.2992,702.5469 126.3148,702.7344 127.4554,703.1563 L128.0336,701.6406 C126.9398,701.0625 125.6429,700.7656 124.4554,700.7656 C120.6898,700.7656 118.1117,703.4063 118.1117,707.2188 C118.1117,710.8906 120.5961,713.4219 124.1898,713.4219 Z " fill="#000000"/><text fill="#000000" font-family="sans-serif" font-size="14" lengthAdjust="spacing" textLength="86.1137" x="144.6898" y="712.362">ITEM_SINGLE</text><line style="stroke:#181818;stroke-width:0.5;" x1="70.8" x2="272.1933" y1="723" y2="723"/><ellipse cx="80.8" cy="736.9" fill="none" rx="3" ry="3" style="stroke:#038048;stroke-width:1;"/><text fill="#000000" font-family="sans-serif" font-size="14" lengthAdjust="spacing" textLength="118.9015" x="89.8" y="740.7619">item : ELEMENT [1]</text><line style="stroke:#181818;stroke-width:0.5;" x1="70.8" x2="272.1933" y1="747.7999" y2="747.7999"/><ellipse cx="80.8" cy="761.6999" fill="#84BE84" rx="3" ry="3" style="stroke:#038048;stroke-width:1;"/><text fill="#000000" font-family="sans-serif" font-size="14" lengthAdjust="spacing" textLength="177.3933" x="89.8" y="765.5619">as_hierarchy() : ELEMENT [1]</text></g><!--class ITEM_STRUCTURE--><g class="entity" data-entity="ITEM_STRUCTURE" data-source-line="7" data-uid="ent0003" id="entity_ITEM_STRUCTURE"><rect fill="#F5F5F5" height="48" rx="2.5" ry="2.5" style="stroke:#808080;stroke-width:1;stroke-dasharray:1,3;" width="147.8075" x="97.59" y="583"/><ellipse cx="112.59" cy="599" fill="#A9DCDF" rx="11" ry="11" style="stroke:#181818;stroke-width:1;"/><path d="M107.1056,604.5 L109.1369,604.5 L113.1838,593.1563 L112.2775,593.1563 L116.1056,604.5 L118.2463,604.5 L113.9181,592.1719 L111.6994,592.1719 L107.1056,604.5 Z M109.4338,601 L115.8713,601 L115.8713,599.25 L109.4338,599.25 L109.4338,601 Z " fill="#000000"/><text fill="#808080" font-family="sans-serif" font-size="14" font-style="italic" lengthAdjust="spacing" textLength="115.8075" x="126.59" y="604.362">ITEM_STRUCTURE</text><line style="stroke:#808080;stroke-width:1;stroke-dasharray:1,3;" x1="98.59" x2="244.3975" y1="615" y2="615"/><line style="stroke:#808080;stroke-width:1;stroke-dasharray:1,3;" x1="98.59" x2="244.3975" y1="623" y2="623"/></g><!--class DATA_STRUCTURE--><g class="entity" data-entity="DATA_STRUCTURE" data-source-line="10" data-uid="ent0004" id="entity_DATA_STRUCTURE"><rect fill="#F5F5F5" height="64.7999" rx="2.5" ry="2.5" style="stroke:#808080;stroke-width:1;stroke-dasharray:1,3;" width="173.1954" x="84.9" y="458.2"/><ellipse cx="109.7307" cy="474.2" fill="#A9DCDF" rx="11" ry="11" style="stroke:#181818;stroke-width:1;"/><path d="M104.2463,479.7 L106.2775,479.7 L110.3244,468.3563 L109.4182,468.3563 L113.2463,479.7 L115.3869,479.7 L111.0588,467.3719 L108.84,467.3719 L104.2463,479.7 Z M106.5744,476.2 L113.0119,476.2 L113.0119,474.45 L106.5744,474.45 L106.5744,476.2 Z " fill="#000000"/><text fill="#808080" font-family="sans-serif" font-size="14" font-style="italic" lengthAdjust="spacing" textLength="119.3495" x="125.9153" y="479.562">DATA_STRUCTURE</text><line style="stroke:#808080;stroke-width:1;stroke-dasharray:1,3;" x1="85.9" x2="257.0954" y1="490.2" y2="490.2"/><line style="stroke:#808080;stroke-width:1;stroke-dasharray:1,3;" x1="85.9" x2="257.0954" y1="498.2" y2="498.2"/><ellipse cx="95.9" cy="512.1" fill="#84BE84" rx="3" ry="3" style="stroke:#038048;stroke-width:1;"/><text fill="#808080" font-family="sans-serif" font-size="14" lengthAdjust="spacing" textLength="147.1954" x="104.9" y="515.9619">as_hierarchy() : ITEM [1]</text></g><!--class LOCATABLE--><g class="entity" data-entity="LOCATABLE" data-source-line="14" data-uid="ent0005" id="entity_LOCATABLE"><rect fill="#F5F5F5" height="182.3994" rx="2.5" ry="2.5" style="stroke:#808080;stroke-width:1;stroke-dasharray:1,3;" width="267.387" x="37.8" y="215.8"/><ellipse cx="129.1007" cy="231.8" fill="#A9DCDF" rx="11" ry="11" style="stroke:#181818;stroke-width:1;"/><path d="M123.6163,237.3 L125.6475,237.3 L129.6944,225.9563 L128.7882,225.9563 L132.6163,237.3 L134.7569,237.3 L130.4288,224.9719 L128.21,224.9719 L123.6163,237.3 Z M125.9444,233.8 L132.3819,233.8 L132.3819,232.05 L125.9444,232.05 L125.9444,233.8 Z " fill="#000000"/><text fill="#808080" font-family="sans-serif" font-size="14" font-style="italic" lengthAdjust="spacing" textLength="76.2857" x="149.6007" y="237.162">LOCATABLE</text><line style="stroke:#808080;stroke-width:1;stroke-dasharray:1,3;" x1="38.8" x2="304.187" y1="247.8" y2="247.8"/><ellipse cx="48.8" cy="261.7" fill="none" rx="3" ry="3" style="stroke:#038048;stroke-width:1;"/><text fill="#808080" font-family="sans-serif" font-size="14" lengthAdjust="spacing" textLength="121.2115" x="57.8" y="265.5619">name : DV_TEXT [1]</text><ellipse cx="48.8" cy="278.4999" fill="none" rx="3" ry="3" style="stroke:#038048;stroke-width:1;"/><text fill="#808080" font-family="sans-serif" font-size="14" lengthAdjust="spacing" textLength="184.1273" x="57.8" y="282.3619">archetype_node_id : String [1]</text><ellipse cx="48.8" cy="295.2998" fill="none" rx="3" ry="3" style="stroke:#038048;stroke-width:1;"/><text fill="#808080" font-family="sans-serif" font-size="14" lengthAdjust="spacing" textLength="157.7794" x="57.8" y="299.1618">uid : UID_BASED_ID [0..1]</text><ellipse cx="48.8" cy="312.0997" fill="none" rx="3" ry="3" style="stroke:#038048;stroke-width:1;"/><text fill="#808080" font-family="sans-serif" font-size="14" lengthAdjust="spacing" textLength="126.0835" x="57.8" y="315.9617">links : List&lt;LINK&gt; [*]</text><ellipse cx="48.8" cy="328.8997" fill="none" rx="3" ry="3" style="stroke:#038048;stroke-width:1;"/><text fill="#808080" font-family="sans-serif" font-size="14" lengthAdjust="spacing" textLength="241.387" x="57.8" y="332.7616">archetype_details : ARCHETYPED [0..1]</text><ellipse cx="48.8" cy="345.6996" fill="none" rx="3" ry="3" style="stroke:#038048;stroke-width:1;"/><text fill="#808080" font-family="sans-serif" font-size="14" lengthAdjust="spacing" textLength="220.7791" x="57.8" y="349.5616">feeder_audit : FEEDER_AUDIT [0..1]</text><line style="stroke:#808080;stroke-width:1;stroke-dasharray:1,3;" x1="38.8" x2="304.187" y1="356.5996" y2="356.5996"/><ellipse cx="48.8" cy="370.4995" fill="#84BE84" rx="3" ry="3" style="stroke:#038048;stroke-width:1;"/><text fill="#808080" font-family="sans-serif" font-size="14" lengthAdjust="spacing" textLength="144.1295" x="57.8" y="374.3615">concept() : DV_TEXT [1]</text><ellipse cx="48.8" cy="387.2995" fill="#84BE84" rx="3" ry="3" style="stroke:#038048;stroke-width:1;"/><text fill="#808080" font-family="sans-serif" font-size="14" lengthAdjust="spacing" textLength="199.6812" x="57.8" y="391.1614">is_archetype_root() : Boolean [1]</text></g><!--class PATHABLE--><g class="entity" data-entity="PATHABLE" data-source-line="25" data-uid="ent0006" id="entity_PATHABLE"><rect fill="#F5F5F5" height="148.7996" rx="2.5" ry="2.5" style="stroke:#808080;stroke-width:1;stroke-dasharray:1,3;" width="328.9868" x="7" y="7"/><ellipse cx="133.3006" cy="23" fill="#A9DCDF" rx="11" ry="11" style="stroke:#181818;stroke-width:1;"/><path d="M127.8162,28.5 L129.8474,28.5 L133.8943,17.1563 L132.9881,17.1563 L136.8162,28.5 L138.9568,28.5 L134.6287,16.1719 L132.4099,16.1719 L127.8162,28.5 Z M130.1443,25 L136.5818,25 L136.5818,23.25 L130.1443,23.25 L130.1443,25 Z " fill="#000000"/><text fill="#808080" font-family="sans-serif" font-size="14" font-style="italic" lengthAdjust="spacing" textLength="67.8857" x="153.8006" y="28.362">PATHABLE</text><line style="stroke:#808080;stroke-width:1;stroke-dasharray:1,3;" x1="8" x2="334.9868" y1="39" y2="39"/><line style="stroke:#808080;stroke-width:1;stroke-dasharray:1,3;" x1="8" x2="334.9868" y1="47" y2="47"/><ellipse cx="18" cy="60.9" fill="#84BE84" rx="3" ry="3" style="stroke:#038048;stroke-width:1;"/><text fill="#808080" font-family="sans-serif" font-size="14" lengthAdjust="spacing" textLength="145.6834" x="27" y="64.7619">parent() : PATHABLE [1]</text><ellipse cx="18" cy="77.6999" fill="#84BE84" rx="3" ry="3" style="stroke:#038048;stroke-width:1;"/><text fill="#808080" font-family="sans-serif" font-size="14" lengthAdjust="spacing" textLength="257.529" x="27" y="81.5619">item_at_path( a_path : String [1] ) : Any [1]</text><ellipse cx="18" cy="94.4998" fill="#84BE84" rx="3" ry="3" style="stroke:#038048;stroke-width:1;"/><text fill="#808080" font-family="sans-serif" font-size="14" lengthAdjust="spacing" textLength="302.9868" x="27" y="98.3618">items_at_path( a_path : String [1] ) : List&lt;Any&gt; [*]</text><ellipse cx="18" cy="111.2997" fill="#84BE84" rx="3" ry="3" style="stroke:#038048;stroke-width:1;"/><text fill="#808080" font-family="sans-serif" font-size="14" lengthAdjust="spacing" textLength="273.1249" x="27" y="115.1617">path_exists( a_path : String [1] ) : Boolean [1]</text><ellipse cx="18" cy="128.0997" fill="#84BE84" rx="3" ry="3" style="stroke:#038048;stroke-width:1;"/><text fill="#808080" font-family="sans-serif" font-size="14" lengthAdjust="spacing" textLength="280.0549" x="27" y="131.9616">path_unique( a_path : String [1] ) : Boolean [1]</text><ellipse cx="18" cy="144.8996" fill="#84BE84" rx="3" ry="3" style="stroke:#038048;stroke-width:1;"/><text fill="#808080" font-family="sans-serif" font-size="14" lengthAdjust="spacing" textLength="292.6829" x="27" y="148.7616">path_of_item( a_loc : PATHABLE [1] ) : String [1]</text></g><!--reverse link PATHABLE to LOCATABLE--><g class="link" data-entity-1="PATHABLE" data-entity-2="LOCATABLE" data-source-line="34" data-uid="lnk7" id="link_PATHABLE_LOCATABLE"><path codeLine="34" d="M171.49,174.24 C171.49,193.19 171.49,195.79 171.49,215.49" fill="none" id="PATHABLE-backto-LOCATABLE" style="stroke:#181818;stroke-width:1;"/><polygon fill="none" points="171.49,156.24,165.49,174.24,177.49,174.24,171.49,156.24" style="stroke:#181818;stroke-width:1;"/></g><!--reverse link LOCATABLE to DATA_STRUCTURE--><g class="link" data-entity-1="LOCATABLE" data-entity-2="DATA_STRUCTURE" data-source-line="36" data-uid="lnk8" id="link_LOCATABLE_DATA_STRUCTURE"><path codeLine="36" d="M171.49,416.53 C171.49,437.86 171.49,441.2 171.49,457.86" fill="none" id="LOCATABLE-backto-DATA_STRUCTURE" style="stroke:#181818;stroke-width:1;"/><polygon fill="none" points="171.49,398.53,165.49,416.53,177.49,416.53,171.49,398.53" style="stroke:#181818;stroke-width:1;"/></g><!--reverse link DATA_STRUCTURE to ITEM_STRUCTURE--><g class="link" data-entity-1="DATA_STRUCTURE" data-entity-2="ITEM_STRUCTURE" data-source-line="38" data-uid="lnk9" id="link_DATA_STRUCTURE_ITEM_STRUCTURE"><path codeLine="38" d="M171.49,541.47 C171.49,560.24 171.49,565.58 171.49,582.65" fill="none" id="DATA_STRUCTURE-backto-ITEM_STRUCTURE" style="stroke:#181818;stroke-width:1;"/><polygon fill="none" points="171.49,523.47,165.49,541.47,177.49,541.47,171.49,523.47" style="stroke:#181818;stroke-width:1;"/></g><!--reverse link ITEM_STRUCTURE to ITEM_SINGLE--><g class="link" data-entity-1="ITEM_STRUCTURE" data-entity-2="ITEM_SINGLE" data-source-line="40" data-uid="lnk10" id="link_ITEM_STRUCTURE_ITEM_SINGLE"><path codeLine="40" d="M171.49,649.39 C171.49,666.09 171.49,670.98 171.49,690.58" fill="none" id="ITEM_STRUCTURE-backto-ITEM_SINGLE" style="stroke:#181818;stroke-width:1;"/><polygon fill="none" points="171.49,631.39,165.49,649.39,177.49,649.39,171.49,631.39" style="stroke:#181818;stroke-width:1;"/></g></g></svg>
