<svg xmlns="http://www.w3.org/2000/svg" xmlns:xlink="http://www.w3.org/1999/xlink" contentStyleType="text/css" data-diagram-type="CLASS" height="119px" preserveAspectRatio="none" style="width:194px;height:119px;background:#FFFFFF;" version="1.1" viewBox="0 0 194 119" width="194px" zoomAndPan="magnify"><defs/><g><!--class LINK--><g class="entity" data-entity="LINK" data-source-line="2" data-uid="ent0002" id="entity_LINK"><rect fill="#F1F1F1" height="98.3998" rx="2.5" ry="2.5" style="stroke:#181818;stroke-width:0.5;" width="173.6294" x="7" y="7"/><ellipse cx="74.6478" cy="23" fill="#ADD1B2" rx="11" ry="11" style="stroke:#181818;stroke-width:1;"/><path d="M74.6478,29.4219 C75.8196,29.4219 77.054,29.1563 78.429,28.5469 L77.9446,27.0313 C76.8509,27.4531 75.8353,27.6406 74.9759,27.6406 C72.2571,27.6406 70.5384,25.7969 70.5384,22.8906 C70.5384,20.1406 72.1009,18.5469 74.8353,18.5469 C75.7571,18.5469 76.7728,18.7344 77.9134,19.1563 L78.4915,17.6406 C77.3978,17.0625 76.1009,16.7656 74.9134,16.7656 C71.1478,16.7656 68.5696,19.4063 68.5696,23.2188 C68.5696,26.8906 71.054,29.4219 74.6478,29.4219 Z " fill="#000000"/><text fill="#000000" font-family="sans-serif" font-size="14" lengthAdjust="spacing" textLength="29.8339" x="95.1478" y="28.362">LINK</text><line style="stroke:#181818;stroke-width:0.5;" x1="8" x2="179.6294" y1="39" y2="39"/><ellipse cx="18" cy="52.9" fill="none" rx="3" ry="3" style="stroke:#038048;stroke-width:1;"/><text fill="#000000" font-family="sans-serif" font-size="14" lengthAdjust="spacing" textLength="140.5734" x="27" y="56.7619">meaning : DV_TEXT [1]</text><ellipse cx="18" cy="69.6999" fill="none" rx="3" ry="3" style="stroke:#038048;stroke-width:1;"/><text fill="#000000" font-family="sans-serif" font-size="14" lengthAdjust="spacing" textLength="113.4695" x="27" y="73.5619">type : DV_TEXT [1]</text><ellipse cx="18" cy="86.4998" fill="none" rx="3" ry="3" style="stroke:#038048;stroke-width:1;"/><text fill="#000000" font-family="sans-serif" font-size="14" lengthAdjust="spacing" textLength="147.6294" x="27" y="90.3618">target : DV_EHR_URI [1]</text><line style="stroke:#181818;stroke-width:0.5;" x1="8" x2="179.6294" y1="97.3998" y2="97.3998"/></g></g></svg>
