<svg xmlns="http://www.w3.org/2000/svg" xmlns:xlink="http://www.w3.org/1999/xlink" contentStyleType="text/css" data-diagram-type="CLASS" height="458px" preserveAspectRatio="none" style="width:405px;height:458px;background:#FFFFFF;" version="1.1" viewBox="0 0 405 458" width="405px" zoomAndPan="magnify"><defs/><g><!--class ORIGINAL_VERSION--><g class="entity" data-entity="ORIGINAL_VERSION" data-source-line="2" data-uid="ent0002" id="entity_ORIGINAL_VERSION"><rect fill="#F1F1F1" height="165.5995" rx="2.5" ry="2.5" style="stroke:#181818;stroke-width:0.5;" width="387.0585" x="7" y="286"/><ellipse cx="126.8475" cy="302" fill="#ADD1B2" rx="11" ry="11" style="stroke:#181818;stroke-width:1;"/><path d="M126.8475,308.4219 C128.0194,308.4219 129.2537,308.1563 130.6287,307.5469 L130.1444,306.0313 C129.0506,306.4531 128.035,306.6406 127.1756,306.6406 C124.4569,306.6406 122.7381,304.7969 122.7381,301.8906 C122.7381,299.1406 124.3006,297.5469 127.035,297.5469 C127.9569,297.5469 128.9725,297.7344 130.1131,298.1563 L130.6912,296.6406 C129.5975,296.0625 128.3006,295.7656 127.1131,295.7656 C123.3475,295.7656 120.7694,298.4063 120.7694,302.2188 C120.7694,305.8906 123.2537,308.4219 126.8475,308.4219 Z " fill="#000000"/><text fill="#000000" font-family="sans-serif" font-size="14" lengthAdjust="spacing" textLength="128.0715" x="147.3475" y="307.362">ORIGINAL_VERSION</text><rect fill="#FFFFFF" height="16.4001" style="stroke:#181818;stroke-width:1;stroke-dasharray:2,2;" width="8.7921" x="388.2665" y="283"/><text fill="#000000" font-family="sans-serif" font-size="12" font-style="italic" lengthAdjust="spacing" textLength="6.7921" x="389.2665" y="295.7961">T</text><line style="stroke:#181818;stroke-width:0.5;" x1="8" x2="393.0585" y1="318" y2="318"/><ellipse cx="18" cy="331.9" fill="none" rx="3" ry="3" style="stroke:#038048;stroke-width:1;"/><text fill="#000000" font-family="sans-serif" font-size="14" lengthAdjust="spacing" textLength="183.5533" x="27" y="335.7619">uid : OBJECT_VERSION_ID [1]</text><ellipse cx="18" cy="348.6999" fill="none" rx="3" ry="3" style="stroke:#038048;stroke-width:1;"/><text fill="#000000" font-family="sans-serif" font-size="14" lengthAdjust="spacing" textLength="320.4587" x="27" y="352.5619">preceding_version_uid : OBJECT_VERSION_ID [0..1]</text><ellipse cx="18" cy="365.4998" fill="none" rx="3" ry="3" style="stroke:#038048;stroke-width:1;"/><text fill="#000000" font-family="sans-serif" font-size="14" lengthAdjust="spacing" textLength="361.0585" x="27" y="369.3618">other_input_version_uids : List&lt;OBJECT_VERSION_ID&gt; [*]</text><ellipse cx="18" cy="382.2997" fill="none" rx="3" ry="3" style="stroke:#038048;stroke-width:1;"/><text fill="#000000" font-family="sans-serif" font-size="14" lengthAdjust="spacing" textLength="229.7951" x="27" y="386.1617">lifecycle_state : DV_CODED_TEXT [1]</text><ellipse cx="18" cy="399.0997" fill="none" rx="3" ry="3" style="stroke:#038048;stroke-width:1;"/><text fill="#000000" font-family="sans-serif" font-size="14" lengthAdjust="spacing" textLength="231.7831" x="27" y="402.9616">attestations : List&lt;ATTESTATION&gt; [*]</text><ellipse cx="18" cy="415.8996" fill="none" rx="3" ry="3" style="stroke:#038048;stroke-width:1;"/><text fill="#000000" font-family="sans-serif" font-size="14" lengthAdjust="spacing" textLength="79.6037" x="27" y="419.7616">data : T [0..1]</text><line style="stroke:#181818;stroke-width:0.5;" x1="8" x2="393.0585" y1="426.7996" y2="426.7996"/><ellipse cx="18" cy="440.6995" fill="#84BE84" rx="3" ry="3" style="stroke:#038048;stroke-width:1;"/><text fill="#000000" font-family="sans-serif" font-size="14" lengthAdjust="spacing" textLength="153.4254" x="27" y="444.5615">is_merged() : Boolean [1]</text></g><!--class VERSION--><g class="entity" data-entity="VERSION" data-source-line="12" data-uid="ent0003" id="entity_VERSION"><rect fill="#F5F5F5" height="215.9993" rx="2.5" ry="2.5" style="stroke:#808080;stroke-width:1;stroke-dasharray:1,3;" width="339.1228" x="30.97" y="10"/><ellipse cx="161.9265" cy="26" fill="#A9DCDF" rx="11" ry="11" style="stroke:#181818;stroke-width:1;"/><path d="M156.4421,31.5 L158.4734,31.5 L162.5202,20.1563 L161.614,20.1563 L165.4421,31.5 L167.5827,31.5 L163.2546,19.1719 L161.0359,19.1719 L156.4421,31.5 Z M158.7702,28 L165.2077,28 L165.2077,26.25 L158.7702,26.25 L158.7702,28 Z " fill="#000000"/><text fill="#808080" font-family="sans-serif" font-size="14" font-style="italic" lengthAdjust="spacing" textLength="57.9178" x="182.4265" y="31.362">VERSION</text><rect fill="#FFFFFF" height="16.4001" style="stroke:#181818;stroke-width:1;stroke-dasharray:2,2;" width="8.7921" x="364.3007" y="7"/><text fill="#000000" font-family="sans-serif" font-size="12" font-style="italic" lengthAdjust="spacing" textLength="6.7921" x="365.3007" y="19.7961">T</text><line style="stroke:#808080;stroke-width:1;stroke-dasharray:1,3;" x1="31.97" x2="369.0928" y1="42" y2="42"/><ellipse cx="41.97" cy="55.9" fill="none" rx="3" ry="3" style="stroke:#038048;stroke-width:1;"/><text fill="#808080" font-family="sans-serif" font-size="14" lengthAdjust="spacing" textLength="186.8013" x="50.97" y="59.7619">contribution : OBJECT_REF [1]</text><ellipse cx="41.97" cy="72.6999" fill="none" rx="3" ry="3" style="stroke:#038048;stroke-width:1;"/><text fill="#808080" font-family="sans-serif" font-size="14" lengthAdjust="spacing" textLength="140.3074" x="50.97" y="76.5619">signature : String [0..1]</text><ellipse cx="41.97" cy="89.4998" fill="none" rx="3" ry="3" style="stroke:#038048;stroke-width:1;"/><text fill="#808080" font-family="sans-serif" font-size="14" lengthAdjust="spacing" textLength="214.9411" x="50.97" y="93.3618">commit_audit : AUDIT_DETAILS [1]</text><line style="stroke:#808080;stroke-width:1;stroke-dasharray:1,3;" x1="31.97" x2="369.0928" y1="100.3998" y2="100.3998"/><ellipse cx="41.97" cy="114.2997" fill="#84BE84" rx="3" ry="3" style="stroke:#038048;stroke-width:1;"/><text fill="#808080" font-family="sans-serif" font-size="14" font-style="italic" lengthAdjust="spacing" textLength="191.9812" x="50.97" y="118.1617">uid() : OBJECT_VERSION_ID [1]</text><ellipse cx="41.97" cy="131.0997" fill="#84BE84" rx="3" ry="3" style="stroke:#038048;stroke-width:1;"/><text fill="#808080" font-family="sans-serif" font-size="14" font-style="italic" lengthAdjust="spacing" textLength="313.1228" x="50.97" y="134.9616">preceding_version_uid() : OBJECT_VERSION_ID [1]</text><ellipse cx="41.97" cy="147.8996" fill="#84BE84" rx="3" ry="3" style="stroke:#038048;stroke-width:1;"/><text fill="#808080" font-family="sans-serif" font-size="14" font-style="italic" lengthAdjust="spacing" textLength="72.2677" x="50.97" y="151.7616">data() : T [1]</text><ellipse cx="41.97" cy="164.6995" fill="#84BE84" rx="3" ry="3" style="stroke:#038048;stroke-width:1;"/><text fill="#808080" font-family="sans-serif" font-size="14" font-style="italic" lengthAdjust="spacing" textLength="238.2231" x="50.97" y="168.5615">lifecycle_state() : DV_CODED_TEXT [1]</text><ellipse cx="41.97" cy="181.4995" fill="#84BE84" rx="3" ry="3" style="stroke:#038048;stroke-width:1;"/><text fill="#808080" font-family="sans-serif" font-size="14" lengthAdjust="spacing" textLength="170.3514" x="50.97" y="185.3614">canonical_form() : String [1]</text><ellipse cx="41.97" cy="198.2994" fill="#84BE84" rx="3" ry="3" style="stroke:#038048;stroke-width:1;"/><text fill="#808080" font-family="sans-serif" font-size="14" lengthAdjust="spacing" textLength="203.4472" x="50.97" y="202.1614">owner_id() : HIER_OBJECT_ID [1]</text><ellipse cx="41.97" cy="215.0993" fill="#84BE84" rx="3" ry="3" style="stroke:#038048;stroke-width:1;"/><text fill="#808080" font-family="sans-serif" font-size="14" lengthAdjust="spacing" textLength="147.8394" x="50.97" y="218.9613">is_branch() : Boolean [1]</text></g><!--reverse link VERSION to ORIGINAL_VERSION--><g class="link" data-entity-1="VERSION" data-entity-2="ORIGINAL_VERSION" data-source-line="25" data-uid="lnk4" id="link_VERSION_ORIGINAL_VERSION"><path codeLine="25" d="M200.53,244.32 C200.53,264.18 200.53,266.63 200.53,285.6" fill="none" id="VERSION-backto-ORIGINAL_VERSION" style="stroke:#181818;stroke-width:1;"/><polygon fill="none" points="200.53,226.32,194.53,244.32,206.53,244.32,200.53,226.32" style="stroke:#181818;stroke-width:1;"/></g></g></svg>
