<svg xmlns="http://www.w3.org/2000/svg" xmlns:xlink="http://www.w3.org/1999/xlink" contentStyleType="text/css" data-diagram-type="CLASS" height="688px" preserveAspectRatio="none" style="width:342px;height:688px;background:#FFFFFF;" version="1.1" viewBox="0 0 342 688" width="342px" zoomAndPan="magnify"><defs/><g><!--class POINT_EVENT--><g class="entity" data-entity="POINT_EVENT" data-source-line="2" data-uid="ent0002" id="entity_POINT_EVENT"><rect fill="#F1F1F1" height="48" rx="2.5" ry="2.5" style="stroke:#181818;stroke-width:0.5;" width="134.0717" x="104.46" y="633.4"/><ellipse cx="119.46" cy="649.4" fill="#ADD1B2" rx="11" ry="11" style="stroke:#181818;stroke-width:1;"/><path d="M119.46,655.8219 C120.6319,655.8219 121.8663,655.5563 123.2413,654.9469 L122.7569,653.4313 C121.6631,653.8531 120.6475,654.0406 119.7881,654.0406 C117.0694,654.0406 115.3506,652.1969 115.3506,649.2906 C115.3506,646.5406 116.9131,644.9469 119.6475,644.9469 C120.5694,644.9469 121.585,645.1344 122.7256,645.5563 L123.3038,644.0406 C122.21,643.4625 120.9131,643.1656 119.7256,643.1656 C115.96,643.1656 113.3819,645.8063 113.3819,649.6188 C113.3819,653.2906 115.8663,655.8219 119.46,655.8219 Z " fill="#000000"/><text fill="#000000" font-family="sans-serif" font-size="14" lengthAdjust="spacing" textLength="91.2796" x="133.46" y="654.762">POINT_EVENT</text><rect fill="#FFFFFF" height="16.4001" style="stroke:#181818;stroke-width:1;stroke-dasharray:2,2;" width="8.7921" x="232.7396" y="630.4"/><text fill="#000000" font-family="sans-serif" font-size="12" font-style="italic" lengthAdjust="spacing" textLength="6.7921" x="233.7396" y="643.1961">T</text><line style="stroke:#181818;stroke-width:0.5;" x1="105.46" x2="237.5317" y1="665.4" y2="665.4"/><line style="stroke:#181818;stroke-width:0.5;" x1="105.46" x2="237.5317" y1="673.4" y2="673.4"/></g><!--class EVENT--><g class="entity" data-entity="EVENT" data-source-line="5" data-uid="ent0003" id="entity_EVENT"><rect fill="#F5F5F5" height="115.1997" rx="2.5" ry="2.5" style="stroke:#808080;stroke-width:1;stroke-dasharray:1,3;" width="217.2812" x="62.85" y="458.2"/><ellipse cx="140.2357" cy="474.2" fill="#A9DCDF" rx="11" ry="11" style="stroke:#181818;stroke-width:1;"/><path d="M134.7513,479.7 L136.7826,479.7 L140.8294,468.3563 L139.9232,468.3563 L143.7513,479.7 L145.8919,479.7 L141.5638,467.3719 L139.3451,467.3719 L134.7513,479.7 Z M137.0794,476.2 L143.5169,476.2 L143.5169,474.45 L137.0794,474.45 L137.0794,476.2 Z " fill="#000000"/><text fill="#808080" font-family="sans-serif" font-size="14" font-style="italic" lengthAdjust="spacing" textLength="43.2178" x="160.7357" y="479.562">EVENT</text><rect fill="#FFFFFF" height="16.4001" style="stroke:#181818;stroke-width:1;stroke-dasharray:2,2;" width="8.7921" x="274.3392" y="455.2"/><text fill="#000000" font-family="sans-serif" font-size="12" font-style="italic" lengthAdjust="spacing" textLength="6.7921" x="275.3392" y="467.9961">T</text><line style="stroke:#808080;stroke-width:1;stroke-dasharray:1,3;" x1="63.85" x2="279.1312" y1="490.2" y2="490.2"/><ellipse cx="73.85" cy="504.1" fill="none" rx="3" ry="3" style="stroke:#038048;stroke-width:1;"/><text fill="#808080" font-family="sans-serif" font-size="14" lengthAdjust="spacing" textLength="155.9174" x="82.85" y="507.9619">time : DV_DATE_TIME [1]</text><ellipse cx="73.85" cy="520.8999" fill="none" rx="3" ry="3" style="stroke:#038048;stroke-width:1;"/><text fill="#808080" font-family="sans-serif" font-size="14" lengthAdjust="spacing" textLength="191.2812" x="82.85" y="524.7619">state : ITEM_STRUCTURE [0..1]</text><ellipse cx="73.85" cy="537.6998" fill="none" rx="3" ry="3" style="stroke:#038048;stroke-width:1;"/><text fill="#808080" font-family="sans-serif" font-size="14" lengthAdjust="spacing" textLength="63.8397" x="82.85" y="541.5618">data : T [1]</text><line style="stroke:#808080;stroke-width:1;stroke-dasharray:1,3;" x1="63.85" x2="279.1312" y1="548.5998" y2="548.5998"/><ellipse cx="73.85" cy="562.4997" fill="#84BE84" rx="3" ry="3" style="stroke:#038048;stroke-width:1;"/><text fill="#808080" font-family="sans-serif" font-size="14" lengthAdjust="spacing" textLength="168.3633" x="82.85" y="566.3617">offset() : DV_DURATION [1]</text></g><!--class LOCATABLE--><g class="entity" data-entity="LOCATABLE" data-source-line="12" data-uid="ent0004" id="entity_LOCATABLE"><rect fill="#F5F5F5" height="182.3994" rx="2.5" ry="2.5" style="stroke:#808080;stroke-width:1;stroke-dasharray:1,3;" width="267.387" x="37.8" y="215.8"/><ellipse cx="129.1007" cy="231.8" fill="#A9DCDF" rx="11" ry="11" style="stroke:#181818;stroke-width:1;"/><path d="M123.6163,237.3 L125.6475,237.3 L129.6944,225.9562 L128.7882,225.9562 L132.6163,237.3 L134.7569,237.3 L130.4288,224.9719 L128.21,224.9719 L123.6163,237.3 Z M125.9444,233.8 L132.3819,233.8 L132.3819,232.05 L125.9444,232.05 L125.9444,233.8 Z " fill="#000000"/><text fill="#808080" font-family="sans-serif" font-size="14" font-style="italic" lengthAdjust="spacing" textLength="76.2857" x="149.6007" y="237.162">LOCATABLE</text><line style="stroke:#808080;stroke-width:1;stroke-dasharray:1,3;" x1="38.8" x2="304.187" y1="247.8" y2="247.8"/><ellipse cx="48.8" cy="261.7" fill="none" rx="3" ry="3" style="stroke:#038048;stroke-width:1;"/><text fill="#808080" font-family="sans-serif" font-size="14" lengthAdjust="spacing" textLength="121.2115" x="57.8" y="265.5619">name : DV_TEXT [1]</text><ellipse cx="48.8" cy="278.4999" fill="none" rx="3" ry="3" style="stroke:#038048;stroke-width:1;"/><text fill="#808080" font-family="sans-serif" font-size="14" lengthAdjust="spacing" textLength="184.1273" x="57.8" y="282.3619">archetype_node_id : String [1]</text><ellipse cx="48.8" cy="295.2998" fill="none" rx="3" ry="3" style="stroke:#038048;stroke-width:1;"/><text fill="#808080" font-family="sans-serif" font-size="14" lengthAdjust="spacing" textLength="157.7794" x="57.8" y="299.1618">uid : UID_BASED_ID [0..1]</text><ellipse cx="48.8" cy="312.0997" fill="none" rx="3" ry="3" style="stroke:#038048;stroke-width:1;"/><text fill="#808080" font-family="sans-serif" font-size="14" lengthAdjust="spacing" textLength="126.0835" x="57.8" y="315.9617">links : List&lt;LINK&gt; [*]</text><ellipse cx="48.8" cy="328.8997" fill="none" rx="3" ry="3" style="stroke:#038048;stroke-width:1;"/><text fill="#808080" font-family="sans-serif" font-size="14" lengthAdjust="spacing" textLength="241.387" x="57.8" y="332.7616">archetype_details : ARCHETYPED [0..1]</text><ellipse cx="48.8" cy="345.6996" fill="none" rx="3" ry="3" style="stroke:#038048;stroke-width:1;"/><text fill="#808080" font-family="sans-serif" font-size="14" lengthAdjust="spacing" textLength="220.7791" x="57.8" y="349.5616">feeder_audit : FEEDER_AUDIT [0..1]</text><line style="stroke:#808080;stroke-width:1;stroke-dasharray:1,3;" x1="38.8" x2="304.187" y1="356.5996" y2="356.5996"/><ellipse cx="48.8" cy="370.4995" fill="#84BE84" rx="3" ry="3" style="stroke:#038048;stroke-width:1;"/><text fill="#808080" font-family="sans-serif" font-size="14" lengthAdjust="spacing" textLength="144.1295" x="57.8" y="374.3615">concept() : DV_TEXT [1]</text><ellipse cx="48.8" cy="387.2995" fill="#84BE84" rx="3" ry="3" style="stroke:#038048;stroke-width:1;"/><text fill="#808080" font-family="sans-serif" font-size="14" lengthAdjust="spacing" textLength="199.6812" x="57.8" y="391.1614">is_archetype_root() : Boolean [1]</text></g><!--class PATHABLE--><g class="entity" data-entity="PATHABLE" data-source-line="23" data-uid="ent0005" id="entity_PATHABLE"><rect fill="#F5F5F5" height="148.7996" rx="2.5" ry="2.5" style="stroke:#808080;stroke-width:1;stroke-dasharray:1,3;" width="328.9868" x="7" y="7"/><ellipse cx="133.3006" cy="23" fill="#A9DCDF" rx="11" ry="11" style="stroke:#181818;stroke-width:1;"/><path d="M127.8162,28.5 L129.8474,28.5 L133.8943,17.1563 L132.9881,17.1563 L136.8162,28.5 L138.9568,28.5 L134.6287,16.1719 L132.4099,16.1719 L127.8162,28.5 Z M130.1443,25 L136.5818,25 L136.5818,23.25 L130.1443,23.25 L130.1443,25 Z " fill="#000000"/><text fill="#808080" font-family="sans-serif" font-size="14" font-style="italic" lengthAdjust="spacing" textLength="67.8857" x="153.8006" y="28.362">PATHABLE</text><line style="stroke:#808080;stroke-width:1;stroke-dasharray:1,3;" x1="8" x2="334.9868" y1="39" y2="39"/><line style="stroke:#808080;stroke-width:1;stroke-dasharray:1,3;" x1="8" x2="334.9868" y1="47" y2="47"/><ellipse cx="18" cy="60.9" fill="#84BE84" rx="3" ry="3" style="stroke:#038048;stroke-width:1;"/><text fill="#808080" font-family="sans-serif" font-size="14" lengthAdjust="spacing" textLength="145.6834" x="27" y="64.7619">parent() : PATHABLE [1]</text><ellipse cx="18" cy="77.6999" fill="#84BE84" rx="3" ry="3" style="stroke:#038048;stroke-width:1;"/><text fill="#808080" font-family="sans-serif" font-size="14" lengthAdjust="spacing" textLength="257.529" x="27" y="81.5619">item_at_path( a_path : String [1] ) : Any [1]</text><ellipse cx="18" cy="94.4998" fill="#84BE84" rx="3" ry="3" style="stroke:#038048;stroke-width:1;"/><text fill="#808080" font-family="sans-serif" font-size="14" lengthAdjust="spacing" textLength="302.9868" x="27" y="98.3618">items_at_path( a_path : String [1] ) : List&lt;Any&gt; [*]</text><ellipse cx="18" cy="111.2997" fill="#84BE84" rx="3" ry="3" style="stroke:#038048;stroke-width:1;"/><text fill="#808080" font-family="sans-serif" font-size="14" lengthAdjust="spacing" textLength="273.1249" x="27" y="115.1617">path_exists( a_path : String [1] ) : Boolean [1]</text><ellipse cx="18" cy="128.0997" fill="#84BE84" rx="3" ry="3" style="stroke:#038048;stroke-width:1;"/><text fill="#808080" font-family="sans-serif" font-size="14" lengthAdjust="spacing" textLength="280.0549" x="27" y="131.9616">path_unique( a_path : String [1] ) : Boolean [1]</text><ellipse cx="18" cy="144.8996" fill="#84BE84" rx="3" ry="3" style="stroke:#038048;stroke-width:1;"/><text fill="#808080" font-family="sans-serif" font-size="14" lengthAdjust="spacing" textLength="292.6829" x="27" y="148.7616">path_of_item( a_loc : PATHABLE [1] ) : String [1]</text></g><!--reverse link PATHABLE to LOCATABLE--><g class="link" data-entity-1="PATHABLE" data-entity-2="LOCATABLE" data-source-line="32" data-uid="lnk6" id="link_PATHABLE_LOCATABLE"><path codeLine="32" d="M171.49,174.24 C171.49,193.19 171.49,195.79 171.49,215.49" fill="none" id="PATHABLE-backto-LOCATABLE" style="stroke:#181818;stroke-width:1;"/><polygon fill="none" points="171.49,156.24,165.49,174.24,177.49,174.24,171.49,156.24" style="stroke:#181818;stroke-width:1;"/></g><!--reverse link LOCATABLE to EVENT--><g class="link" data-entity-1="LOCATABLE" data-entity-2="EVENT" data-source-line="34" data-uid="lnk7" id="link_LOCATABLE_EVENT"><path codeLine="34" d="M171.49,416.41 C171.49,436.62 171.49,439.51 171.49,457.91" fill="none" id="LOCATABLE-backto-EVENT" style="stroke:#181818;stroke-width:1;"/><polygon fill="none" points="171.49,398.41,165.49,416.41,177.49,416.41,171.49,398.41" style="stroke:#181818;stroke-width:1;"/></g><!--reverse link EVENT to POINT_EVENT--><g class="link" data-entity-1="EVENT" data-entity-2="POINT_EVENT" data-source-line="36" data-uid="lnk8" id="link_EVENT_POINT_EVENT"><path codeLine="36" d="M171.49,591.58 C171.49,612.41 171.49,616.85 171.49,633.11" fill="none" id="EVENT-backto-POINT_EVENT" style="stroke:#181818;stroke-width:1;"/><polygon fill="none" points="171.49,573.58,165.49,591.58,177.49,591.58,171.49,573.58" style="stroke:#181818;stroke-width:1;"/></g></g></svg>
