<svg xmlns="http://www.w3.org/2000/svg" xmlns:xlink="http://www.w3.org/1999/xlink" contentStyleType="text/css" data-diagram-type="CLASS" height="203px" preserveAspectRatio="none" style="width:366px;height:203px;background:#FFFFFF;" version="1.1" viewBox="0 0 366 203" width="366px" zoomAndPan="magnify"><defs/><g><!--class TERM_MAPPING--><g class="entity" data-entity="TERM_MAPPING" data-source-line="2" data-uid="ent0002" id="entity_TERM_MAPPING"><rect fill="#F1F1F1" height="182.3994" rx="2.5" ry="2.5" style="stroke:#181818;stroke-width:0.5;" width="345.2408" x="7" y="7"/><ellipse cx="122.6886" cy="23" fill="#ADD1B2" rx="11" ry="11" style="stroke:#181818;stroke-width:1;"/><path d="M122.6886,29.4219 C123.8605,29.4219 125.0949,29.1563 126.4699,28.5469 L125.9855,27.0313 C124.8917,27.4531 123.8761,27.6406 123.0167,27.6406 C120.298,27.6406 118.5792,25.7969 118.5792,22.8906 C118.5792,20.1406 120.1417,18.5469 122.8761,18.5469 C123.798,18.5469 124.8136,18.7344 125.9542,19.1563 L126.5324,17.6406 C125.4386,17.0625 124.1417,16.7656 122.9542,16.7656 C119.1886,16.7656 116.6105,19.4063 116.6105,23.2188 C116.6105,26.8906 119.0949,29.4219 122.6886,29.4219 Z " fill="#000000"/><text fill="#000000" font-family="sans-serif" font-size="14" lengthAdjust="spacing" textLength="105.3636" x="143.1886" y="28.362">TERM_MAPPING</text><line style="stroke:#181818;stroke-width:0.5;" x1="8" x2="351.2408" y1="39" y2="39"/><ellipse cx="18" cy="52.9" fill="none" rx="3" ry="3" style="stroke:#038048;stroke-width:1;"/><text fill="#000000" font-family="sans-serif" font-size="14" lengthAdjust="spacing" textLength="128.4915" x="27" y="56.7619">match : Character [1]</text><ellipse cx="18" cy="69.6999" fill="none" rx="3" ry="3" style="stroke:#038048;stroke-width:1;"/><text fill="#000000" font-family="sans-serif" font-size="14" lengthAdjust="spacing" textLength="207.7312" x="27" y="73.5619">purpose : DV_CODED_TEXT [0..1]</text><ellipse cx="18" cy="86.4998" fill="none" rx="3" ry="3" style="stroke:#038048;stroke-width:1;"/><text fill="#000000" font-family="sans-serif" font-size="14" lengthAdjust="spacing" textLength="162.9874" x="27" y="90.3618">target : CODE_PHRASE [1]</text><line style="stroke:#181818;stroke-width:0.5;" x1="8" x2="351.2408" y1="97.3998" y2="97.3998"/><ellipse cx="18" cy="111.2997" fill="#84BE84" rx="3" ry="3" style="stroke:#038048;stroke-width:1;"/><text fill="#000000" font-family="sans-serif" font-size="14" lengthAdjust="spacing" textLength="145.2915" x="27" y="115.1617">narrower() : Boolean [1]</text><ellipse cx="18" cy="128.0997" fill="#84BE84" rx="3" ry="3" style="stroke:#038048;stroke-width:1;"/><text fill="#000000" font-family="sans-serif" font-size="14" lengthAdjust="spacing" textLength="137.0735" x="27" y="131.9616">broader() : Boolean [1]</text><ellipse cx="18" cy="144.8996" fill="#84BE84" rx="3" ry="3" style="stroke:#038048;stroke-width:1;"/><text fill="#000000" font-family="sans-serif" font-size="14" lengthAdjust="spacing" textLength="152.8514" x="27" y="148.7616">equivalent() : Boolean [1]</text><ellipse cx="18" cy="161.6995" fill="#84BE84" rx="3" ry="3" style="stroke:#038048;stroke-width:1;"/><text fill="#000000" font-family="sans-serif" font-size="14" lengthAdjust="spacing" textLength="145.5574" x="27" y="165.5615">unknown() : Boolean [1]</text><ellipse cx="18" cy="178.4995" fill="#84BE84" rx="3" ry="3" style="stroke:#038048;stroke-width:1;"/><text fill="#000000" font-family="sans-serif" font-size="14" lengthAdjust="spacing" textLength="319.2408" x="27" y="182.3614">is_valid_match_code( c : Character [1] ) : Boolean [1]</text></g></g></svg>
