<svg xmlns="http://www.w3.org/2000/svg" xmlns:xlink="http://www.w3.org/1999/xlink" contentStyleType="text/css" data-diagram-type="CLASS" height="321px" preserveAspectRatio="none" style="width:787px;height:321px;background:#FFFFFF;" version="1.1" viewBox="0 0 787 321" width="787px" zoomAndPan="magnify"><defs/><g><!--class TERMINOLOGY_SERVICE--><g class="entity" data-entity="TERMINOLOGY_SERVICE" data-source-line="2" data-uid="ent0002" id="entity_TERMINOLOGY_SERVICE"><rect fill="#F1F1F1" height="182.3994" rx="2.5" ry="2.5" style="stroke:#181818;stroke-width:0.5;" width="401.0165" x="212.49" y="131.8"/><ellipse cx="329.4876" cy="147.8" fill="#ADD1B2" rx="11" ry="11" style="stroke:#181818;stroke-width:1;"/><path d="M329.4876,154.2219 C330.6595,154.2219 331.8938,153.9562 333.2688,153.3469 L332.7845,151.8312 C331.6907,152.2531 330.6751,152.4406 329.8157,152.4406 C327.097,152.4406 325.3782,150.5969 325.3782,147.6906 C325.3782,144.9406 326.9407,143.3469 329.6751,143.3469 C330.597,143.3469 331.6126,143.5344 332.7532,143.9562 L333.3313,142.4406 C332.2376,141.8625 330.9407,141.5656 329.7532,141.5656 C325.9876,141.5656 323.4095,144.2062 323.4095,148.0187 C323.4095,151.6906 325.8938,154.2219 329.4876,154.2219 Z " fill="#000000"/><text fill="#000000" font-family="sans-serif" font-size="14" lengthAdjust="spacing" textLength="158.5214" x="349.9876" y="153.162">TERMINOLOGY_SERVICE</text><line style="stroke:#181818;stroke-width:0.5;" x1="213.49" x2="612.5065" y1="163.8" y2="163.8"/><line style="stroke:#181818;stroke-width:0.5;" x1="213.49" x2="612.5065" y1="171.8" y2="171.8"/><ellipse cx="223.49" cy="185.7" fill="#84BE84" rx="3" ry="3" style="stroke:#038048;stroke-width:1;"/><text fill="#000000" font-family="sans-serif" font-size="14" lengthAdjust="spacing" textLength="375.0165" x="232.49" y="189.5619">terminology( name : String [1] ) : TERMINOLOGY_ACCESS [1]</text><ellipse cx="223.49" cy="202.4999" fill="#84BE84" rx="3" ry="3" style="stroke:#038048;stroke-width:1;"/><text fill="#000000" font-family="sans-serif" font-size="14" lengthAdjust="spacing" textLength="325.9327" x="232.49" y="206.3619">code_set( name : String [1] ) : CODE_SET_ACCESS [1]</text><ellipse cx="223.49" cy="219.2998" fill="#84BE84" rx="3" ry="3" style="stroke:#038048;stroke-width:1;"/><text fill="#000000" font-family="sans-serif" font-size="14" lengthAdjust="spacing" textLength="345.8546" x="232.49" y="223.1618">code_set_for_id( id : String [1] ) : CODE_SET_ACCESS [1]</text><ellipse cx="223.49" cy="236.0997" fill="#84BE84" rx="3" ry="3" style="stroke:#038048;stroke-width:1;"/><text fill="#000000" font-family="sans-serif" font-size="14" lengthAdjust="spacing" textLength="299.6829" x="232.49" y="239.9617">has_terminology( name : String [1] ) : Boolean [1]</text><ellipse cx="223.49" cy="252.8997" fill="#84BE84" rx="3" ry="3" style="stroke:#038048;stroke-width:1;"/><text fill="#000000" font-family="sans-serif" font-size="14" lengthAdjust="spacing" textLength="279.4949" x="232.49" y="256.7616">has_code_set( name : String [1] ) : Boolean [1]</text><ellipse cx="223.49" cy="269.6996" fill="#84BE84" rx="3" ry="3" style="stroke:#038048;stroke-width:1;"/><text fill="#000000" font-family="sans-serif" font-size="14" lengthAdjust="spacing" textLength="258.971" x="232.49" y="273.5616">terminology_identifiers() : List&lt;String&gt; [*]</text><ellipse cx="223.49" cy="286.4995" fill="#84BE84" rx="3" ry="3" style="stroke:#038048;stroke-width:1;"/><text fill="#000000" font-family="sans-serif" font-size="14" lengthAdjust="spacing" textLength="284.5209" x="232.49" y="290.3615">openehr_code_sets() : Hash&lt;String,String&gt; [1]</text><ellipse cx="223.49" cy="303.2995" fill="#84BE84" rx="3" ry="3" style="stroke:#038048;stroke-width:1;"/><text fill="#000000" font-family="sans-serif" font-size="14" lengthAdjust="spacing" textLength="238.7831" x="232.49" y="307.1614">code_set_identifiers() : List&lt;String&gt; [*]</text></g><!--class OPENEHR_TERMINOLOGY_GROUP_IDENTIFIERS--><g class="entity" data-entity="OPENEHR_TERMINOLOGY_GROUP_IDENTIFIERS" data-source-line="13" data-uid="ent0003" id="entity_OPENEHR_TERMINOLOGY_GROUP_IDENTIFIERS"><rect fill="#F5F5F5" height="64.7999" rx="2.5" ry="2.5" style="stroke:#808080;stroke-width:1;stroke-dasharray:1,3;" width="407.9886" x="7" y="7"/><ellipse cx="51.597" cy="23" fill="#ADD1B2" rx="11" ry="11" style="stroke:#181818;stroke-width:1;"/><path d="M51.597,29.4219 C52.7688,29.4219 54.0032,29.1563 55.3782,28.5469 L54.8938,27.0313 C53.8001,27.4531 52.7845,27.6406 51.9251,27.6406 C49.2063,27.6406 47.4876,25.7969 47.4876,22.8906 C47.4876,20.1406 49.0501,18.5469 51.7845,18.5469 C52.7063,18.5469 53.722,18.7344 54.8626,19.1563 L55.4407,17.6406 C54.347,17.0625 53.0501,16.7656 51.8626,16.7656 C48.097,16.7656 45.5188,19.4063 45.5188,23.2188 C45.5188,26.8906 48.0032,29.4219 51.597,29.4219 Z " fill="#000000"/><text fill="#808080" font-family="sans-serif" font-size="14" lengthAdjust="spacing" textLength="310.2947" x="72.097" y="28.362">OPENEHR_TERMINOLOGY_GROUP_IDENTIFIERS</text><line style="stroke:#808080;stroke-width:1;stroke-dasharray:1,3;" x1="8" x2="413.9886" y1="39" y2="39"/><line style="stroke:#808080;stroke-width:1;stroke-dasharray:1,3;" x1="8" x2="413.9886" y1="47" y2="47"/><ellipse cx="18" cy="60.9" fill="#84BE84" rx="3" ry="3" style="stroke:#038048;stroke-width:1;"/><text fill="#808080" font-family="sans-serif" font-size="14" lengthAdjust="spacing" textLength="381.9886" x="27" y="64.7619">valid_terminology_group_id( an_id : Boolean [1] ) : Boolean [1]</text></g><!--class OPENEHR_CODE_SET_IDENTIFIERS--><g class="entity" data-entity="OPENEHR_CODE_SET_IDENTIFIERS" data-source-line="19" data-uid="ent0005" id="entity_OPENEHR_CODE_SET_IDENTIFIERS"><rect fill="#F5F5F5" height="64.7999" rx="2.5" ry="2.5" style="stroke:#808080;stroke-width:1;stroke-dasharray:1,3;" width="330.1488" x="449.92" y="7"/><ellipse cx="497.0369" cy="23" fill="#ADD1B2" rx="11" ry="11" style="stroke:#181818;stroke-width:1;"/><path d="M497.0369,29.4219 C498.2087,29.4219 499.4431,29.1563 500.8181,28.5469 L500.3337,27.0313 C499.24,27.4531 498.2244,27.6406 497.365,27.6406 C494.6462,27.6406 492.9275,25.7969 492.9275,22.8906 C492.9275,20.1406 494.49,18.5469 497.2244,18.5469 C498.1462,18.5469 499.1619,18.7344 500.3025,19.1563 L500.8806,17.6406 C499.7869,17.0625 498.49,16.7656 497.3025,16.7656 C493.5369,16.7656 490.9587,19.4063 490.9587,23.2188 C490.9587,26.8906 493.4431,29.4219 497.0369,29.4219 Z " fill="#000000"/><text fill="#808080" font-family="sans-serif" font-size="14" lengthAdjust="spacing" textLength="227.4151" x="517.5369" y="28.362">OPENEHR_CODE_SET_IDENTIFIERS</text><line style="stroke:#808080;stroke-width:1;stroke-dasharray:1,3;" x1="450.92" x2="779.0688" y1="39" y2="39"/><line style="stroke:#808080;stroke-width:1;stroke-dasharray:1,3;" x1="450.92" x2="779.0688" y1="47" y2="47"/><ellipse cx="460.92" cy="60.9" fill="#84BE84" rx="3" ry="3" style="stroke:#038048;stroke-width:1;"/><text fill="#808080" font-family="sans-serif" font-size="14" lengthAdjust="spacing" textLength="304.1488" x="469.92" y="64.7619">valid_code_set_id( an_id : String [1] ) : Boolean [1]</text></g><!--reverse link OPENEHR_TERMINOLOGY_GROUP_IDENTIFIERS to TERMINOLOGY_SERVICE--><g class="link" data-entity-1="OPENEHR_TERMINOLOGY_GROUP_IDENTIFIERS" data-entity-2="TERMINOLOGY_SERVICE" data-source-line="17" data-uid="lnk4" id="link_OPENEHR_TERMINOLOGY_GROUP_IDENTIFIERS_TERMINOLOGY_SERVICE"><path codeLine="17" d="M259.565,84.065 C278.105,100.735 288.5,110.07 312.25,131.43" fill="none" id="OPENEHR_TERMINOLOGY_GROUP_IDENTIFIERS-backto-TERMINOLOGY_SERVICE" style="stroke:#181818;stroke-width:1;"/><polygon fill="none" points="246.18,72.03,255.5534,88.5267,263.5767,79.6033,246.18,72.03" style="stroke:#181818;stroke-width:1;"/></g><!--reverse link OPENEHR_CODE_SET_IDENTIFIERS to TERMINOLOGY_SERVICE--><g class="link" data-entity-1="OPENEHR_CODE_SET_IDENTIFIERS" data-entity-2="TERMINOLOGY_SERVICE" data-source-line="23" data-uid="lnk6" id="link_OPENEHR_CODE_SET_IDENTIFIERS_TERMINOLOGY_SERVICE"><path codeLine="23" d="M566.425,84.065 C547.885,100.735 537.49,110.07 513.74,131.43" fill="none" id="OPENEHR_CODE_SET_IDENTIFIERS-backto-TERMINOLOGY_SERVICE" style="stroke:#181818;stroke-width:1;"/><polygon fill="none" points="579.81,72.03,562.4133,79.6033,570.4366,88.5267,579.81,72.03" style="stroke:#181818;stroke-width:1;"/></g></g></svg>
