<svg xmlns="http://www.w3.org/2000/svg" xmlns:xlink="http://www.w3.org/1999/xlink" contentStyleType="text/css" data-diagram-type="CLASS" height="508px" preserveAspectRatio="none" style="width:2138px;height:508px;background:#FFFFFF;" version="1.1" viewBox="0 0 2138 508" width="2138px" zoomAndPan="magnify"><defs/><g><!--class VERSIONED_COMPOSITION--><g class="entity" data-entity="VERSIONED_COMPOSITION" data-source-line="2" data-uid="ent0002" id="entity_VERSIONED_COMPOSITION"><rect fill="#F1F1F1" height="64.7999" rx="2.5" ry="2.5" style="stroke:#181818;stroke-width:0.5;" width="209.9253" x="962.25" y="437.2"/><ellipse cx="977.25" cy="453.2" fill="#ADD1B2" rx="11" ry="11" style="stroke:#181818;stroke-width:1;"/><path d="M977.25,459.6219 C978.4219,459.6219 979.6563,459.3563 981.0313,458.7469 L980.5469,457.2313 C979.4531,457.6531 978.4375,457.8406 977.5781,457.8406 C974.8594,457.8406 973.1406,455.9969 973.1406,453.0906 C973.1406,450.3406 974.7031,448.7469 977.4375,448.7469 C978.3594,448.7469 979.375,448.9344 980.5156,449.3563 L981.0938,447.8406 C980,447.2625 978.7031,446.9656 977.5156,446.9656 C973.75,446.9656 971.1719,449.6063 971.1719,453.4188 C971.1719,457.0906 973.6563,459.6219 977.25,459.6219 Z " fill="#000000"/><text fill="#000000" font-family="sans-serif" font-size="14" lengthAdjust="spacing" textLength="177.9253" x="991.25" y="458.562">VERSIONED_COMPOSITION</text><line style="stroke:#181818;stroke-width:0.5;" x1="963.25" x2="1171.1753" y1="469.2" y2="469.2"/><line style="stroke:#181818;stroke-width:0.5;" x1="963.25" x2="1171.1753" y1="477.2" y2="477.2"/><ellipse cx="973.25" cy="491.1" fill="#84BE84" rx="3" ry="3" style="stroke:#038048;stroke-width:1;"/><text fill="#000000" font-family="sans-serif" font-size="14" lengthAdjust="spacing" textLength="167.5374" x="982.25" y="494.9619">is_persistent() : Boolean [1]</text></g><!--class VERSIONED_OBJECT--><g class="entity" data-entity="VERSIONED_OBJECT" data-source-line="6" data-uid="ent0003" id="entity_VERSIONED_OBJECT"><rect fill="#F5F5F5" height="367.1986" rx="2.5" ry="2.5" style="stroke:#808080;stroke-width:1;stroke-dasharray:1,3;" width="2120.4338" x="7" y="10"/><ellipse cx="990.9662" cy="26" fill="#ADD1B2" rx="11" ry="11" style="stroke:#181818;stroke-width:1;"/><path d="M990.9662,32.4219 C992.138,32.4219 993.3724,32.1563 994.7474,31.5469 L994.263,30.0313 C993.1693,30.4531 992.1537,30.6406 991.2943,30.6406 C988.5755,30.6406 986.8568,28.7969 986.8568,25.8906 C986.8568,23.1406 988.4193,21.5469 991.1537,21.5469 C992.0755,21.5469 993.0912,21.7344 994.2318,22.1563 L994.8099,20.6406 C993.7162,20.0625 992.4193,19.7656 991.2318,19.7656 C987.4662,19.7656 984.888,22.4063 984.888,26.2188 C984.888,29.8906 987.3724,32.4219 990.9662,32.4219 Z " fill="#000000"/><text fill="#808080" font-family="sans-serif" font-size="14" lengthAdjust="spacing" textLength="133.2095" x="1011.4662" y="31.362">VERSIONED_OBJECT</text><rect fill="#FFFFFF" height="16.4001" style="stroke:#181818;stroke-width:1;stroke-dasharray:2,2;" width="8.7921" x="2121.6418" y="7"/><text fill="#000000" font-family="sans-serif" font-size="12" font-style="italic" lengthAdjust="spacing" textLength="6.7921" x="2122.6418" y="19.7961">T</text><line style="stroke:#808080;stroke-width:1;stroke-dasharray:1,3;" x1="8" x2="2126.4338" y1="42" y2="42"/><ellipse cx="18" cy="55.9" fill="none" rx="3" ry="3" style="stroke:#038048;stroke-width:1;"/><text fill="#808080" font-family="sans-serif" font-size="14" lengthAdjust="spacing" textLength="156.3234" x="27" y="59.7619">uid : HIER_OBJECT_ID [1]</text><ellipse cx="18" cy="72.6999" fill="none" rx="3" ry="3" style="stroke:#038048;stroke-width:1;"/><text fill="#808080" font-family="sans-serif" font-size="14" lengthAdjust="spacing" textLength="168.3773" x="27" y="76.5619">owner_id : OBJECT_REF [1]</text><ellipse cx="18" cy="89.4998" fill="none" rx="3" ry="3" style="stroke:#038048;stroke-width:1;"/><text fill="#808080" font-family="sans-serif" font-size="14" lengthAdjust="spacing" textLength="209.7192" x="27" y="93.3618">time_created : DV_DATE_TIME [1]</text><line style="stroke:#808080;stroke-width:1;stroke-dasharray:1,3;" x1="8" x2="2126.4338" y1="100.3998" y2="100.3998"/><ellipse cx="18" cy="114.2997" fill="#84BE84" rx="3" ry="3" style="stroke:#038048;stroke-width:1;"/><text fill="#808080" font-family="sans-serif" font-size="14" lengthAdjust="spacing" textLength="169.2314" x="27" y="118.1617">version_count() : Integer [1]</text><ellipse cx="18" cy="131.0997" fill="#84BE84" rx="3" ry="3" style="stroke:#038048;stroke-width:1;"/><text fill="#808080" font-family="sans-serif" font-size="14" lengthAdjust="spacing" textLength="316.8747" x="27" y="134.9616">all_version_ids() : List&lt;OBJECT_VERSION_ID&gt; [1..*]</text><ellipse cx="18" cy="147.8996" fill="#84BE84" rx="3" ry="3" style="stroke:#038048;stroke-width:1;"/><text fill="#808080" font-family="sans-serif" font-size="14" lengthAdjust="spacing" textLength="244.761" x="27" y="151.7616">all_versions() : List&lt;VERSION&lt;T&gt;&gt; [1..*]</text><ellipse cx="18" cy="164.6995" fill="#84BE84" rx="3" ry="3" style="stroke:#038048;stroke-width:1;"/><text fill="#808080" font-family="sans-serif" font-size="14" lengthAdjust="spacing" textLength="392.6285" x="27" y="168.5615">has_version_at_time( a_time : DV_DATE_TIME [1] ) : Boolean [1]</text><ellipse cx="18" cy="181.4995" fill="#84BE84" rx="3" ry="3" style="stroke:#038048;stroke-width:1;"/><text fill="#808080" font-family="sans-serif" font-size="14" lengthAdjust="spacing" textLength="436.3784" x="27" y="185.3614">has_version_id( a_version_uid : OBJECT_VERSION_ID [1] ) : Boolean [1]</text><ellipse cx="18" cy="198.2994" fill="#84BE84" rx="3" ry="3" style="stroke:#038048;stroke-width:1;"/><text fill="#808080" font-family="sans-serif" font-size="14" lengthAdjust="spacing" textLength="449.0062" x="27" y="202.1614">version_with_id( a_version_uid : OBJECT_VERSION_ID [1] ) : VERSION [1]</text><ellipse cx="18" cy="215.0993" fill="#84BE84" rx="3" ry="3" style="stroke:#038048;stroke-width:1;"/><text fill="#808080" font-family="sans-serif" font-size="14" lengthAdjust="spacing" textLength="460.3743" x="27" y="218.9613">is_original_version( a_version_uid : OBJECT_VERSION_ID [1] ) : Boolean [1]</text><ellipse cx="18" cy="231.8992" fill="#84BE84" rx="3" ry="3" style="stroke:#038048;stroke-width:1;"/><text fill="#808080" font-family="sans-serif" font-size="14" lengthAdjust="spacing" textLength="370.8585" x="27" y="235.7612">version_at_time( a_time : DV_DATE_TIME [1] ) : VERSION [1]</text><ellipse cx="18" cy="248.6992" fill="#84BE84" rx="3" ry="3" style="stroke:#038048;stroke-width:1;"/><text fill="#808080" font-family="sans-serif" font-size="14" lengthAdjust="spacing" textLength="261.085" x="27" y="252.5611">revision_history() : REVISION_HISTORY [1]</text><ellipse cx="18" cy="265.4991" fill="#84BE84" rx="3" ry="3" style="stroke:#038048;stroke-width:1;"/><text fill="#808080" font-family="sans-serif" font-size="14" lengthAdjust="spacing" textLength="182.1533" x="27" y="269.3611">latest_version() : VERSION [1]</text><ellipse cx="18" cy="282.299" fill="#84BE84" rx="3" ry="3" style="stroke:#038048;stroke-width:1;"/><text fill="#808080" font-family="sans-serif" font-size="14" lengthAdjust="spacing" textLength="222.2071" x="27" y="286.161">latest_trunk_version() : VERSION [1]</text><ellipse cx="18" cy="299.0989" fill="#84BE84" rx="3" ry="3" style="stroke:#038048;stroke-width:1;"/><text fill="#808080" font-family="sans-serif" font-size="14" lengthAdjust="spacing" textLength="278.2769" x="27" y="302.9609">trunk_lifecycle_state() : DV_CODED_TEXT [1]</text><ellipse cx="18" cy="315.8989" fill="#84BE84" rx="3" ry="3" style="stroke:#038048;stroke-width:1;"/><text fill="#808080" font-family="sans-serif" font-size="14" lengthAdjust="spacing" textLength="1702.0289" x="27" y="319.7608">commit_original_version( a_contribution : OBJECT_REF [1], a_new_version_uid : OBJECT_VERSION_ID [1], a_preceding_version_id : OBJECT_VERSION_ID [1], an_audit : AUDIT_DETAILS [1], a_lifecycle_state : DV_CODED_TEXT [1], a_data : T [1], signing_key : String [1] ) : void [1]</text><ellipse cx="18" cy="332.6988" fill="#84BE84" rx="3" ry="3" style="stroke:#038048;stroke-width:1;"/><text fill="#808080" font-family="sans-serif" font-size="14" lengthAdjust="spacing" textLength="2094.4338" x="27" y="336.5608">commit_original_merged_version( a_contribution : OBJECT_REF [1], a_new_version_uid : OBJECT_VERSION_ID [1], a_preceding_version_id : OBJECT_VERSION_ID [1], an_audit : AUDIT_DETAILS [1], a_lifecycle_state : DV_CODED_TEXT [1], a_data : T [1], an_other_input_uids : List&lt;OBJECT_VERSION_ID&gt; [1], signing_key : String [1] ) : void [1]</text><ellipse cx="18" cy="349.4987" fill="#84BE84" rx="3" ry="3" style="stroke:#038048;stroke-width:1;"/><text fill="#808080" font-family="sans-serif" font-size="14" lengthAdjust="spacing" textLength="846.2402" x="27" y="353.3607">commit_imported_version( a_contribution : OBJECT_REF [1], an_audit : AUDIT_DETAILS [1], a_version : ORIGINAL_VERSION [1] ) : void [1]</text><ellipse cx="18" cy="366.2986" fill="#84BE84" rx="3" ry="3" style="stroke:#038048;stroke-width:1;"/><text fill="#808080" font-family="sans-serif" font-size="14" lengthAdjust="spacing" textLength="769.1007" x="27" y="370.1606">commit_attestation( an_attestation : ATTESTATION [1], a_ver_id : OBJECT_VERSION_ID [1], signing_key : String [1] ) : void [1]</text></g><!--reverse link VERSIONED_OBJECT to VERSIONED_COMPOSITION--><g class="link" data-entity-1="VERSIONED_OBJECT" data-entity-2="VERSIONED_COMPOSITION" data-source-line="28" data-uid="lnk4" id="link_VERSIONED_OBJECT_VERSIONED_COMPOSITION"><path codeLine="28" d="M1067.22,395.36 C1067.22,418.14 1067.22,421 1067.22,437.02" fill="none" id="VERSIONED_OBJECT-backto-VERSIONED_COMPOSITION" style="stroke:#181818;stroke-width:1;"/><polygon fill="none" points="1067.22,377.36,1061.22,395.36,1073.22,395.36,1067.22,377.36" style="stroke:#181818;stroke-width:1;"/></g></g></svg>
