<svg xmlns="http://www.w3.org/2000/svg" xmlns:xlink="http://www.w3.org/1999/xlink" contentStyleType="text/css" data-diagram-type="CLASS" height="1216px" preserveAspectRatio="none" style="width:808px;height:1216px;background:#FFFFFF;" version="1.1" viewBox="0 0 808 1216" width="808px" zoomAndPan="magnify"><defs/><g><!--class C_PRIMITIVE_OBJECT--><g class="entity" data-entity="C_PRIMITIVE_OBJECT" data-source-line="2" data-uid="ent0002" id="entity_C_PRIMITIVE_OBJECT"><rect fill="#F1F1F1" height="199.1993" rx="2.5" ry="2.5" style="stroke:#181818;stroke-width:0.5;" width="762.5088" x="22.88" y="1010.2"/><ellipse cx="330.9277" cy="1026.2" fill="#A9DCDF" rx="11" ry="11" style="stroke:#181818;stroke-width:1;"/><path d="M325.4433,1031.7 L327.4745,1031.7 L331.5214,1020.3563 L330.6152,1020.3563 L334.4433,1031.7 L336.5839,1031.7 L332.2558,1019.3719 L330.037,1019.3719 L325.4433,1031.7 Z M327.7714,1028.2 L334.2089,1028.2 L334.2089,1026.45 L327.7714,1026.45 L327.7714,1028.2 Z " fill="#000000"/><text fill="#000000" font-family="sans-serif" font-size="14" font-style="italic" lengthAdjust="spacing" textLength="137.9135" x="351.4277" y="1031.562">C_PRIMITIVE_OBJECT</text><line style="stroke:#181818;stroke-width:0.5;" x1="23.88" x2="784.3888" y1="1042.2" y2="1042.2"/><ellipse cx="33.88" cy="1056.1" fill="none" rx="3" ry="3" style="stroke:#038048;stroke-width:1;"/><text fill="#000000" font-family="sans-serif" font-size="14" lengthAdjust="spacing" textLength="163.4633" x="42.88" y="1059.9619">assumed_value : Any [0..1]</text><ellipse cx="33.88" cy="1072.8999" fill="none" rx="3" ry="3" style="stroke:#038048;stroke-width:1;"/><text fill="#000000" font-family="sans-serif" font-size="14" lengthAdjust="spacing" textLength="292.1508" x="42.88" y="1076.7619">is_enumerated_type_constraint : Boolean [0..1]</text><ellipse cx="33.88" cy="1089.6998" fill="none" rx="3" ry="3" style="stroke:#038048;stroke-width:1;"/><text fill="#000000" font-family="sans-serif" font-size="14" lengthAdjust="spacing" textLength="114.8136" x="42.88" y="1093.5618">constraint : Any [1]</text><line style="stroke:#181818;stroke-width:0.5;" x1="23.88" x2="784.3888" y1="1100.5998" y2="1100.5998"/><ellipse cx="33.88" cy="1114.4997" fill="#84BE84" rx="3" ry="3" style="stroke:#038048;stroke-width:1;"/><text fill="#000000" font-family="sans-serif" font-size="14" lengthAdjust="spacing" textLength="212.3931" x="42.88" y="1118.3617">has_assumed_value() : Boolean [1]</text><ellipse cx="33.88" cy="1131.2997" fill="#84BE84" rx="3" ry="3" style="stroke:#038048;stroke-width:1;"/><text fill="#000000" font-family="sans-serif" font-size="14" lengthAdjust="spacing" textLength="216.6352" x="42.88" y="1135.1616">constrained_typename() : String [1]</text><ellipse cx="33.88" cy="1148.0996" fill="#84BE84" rx="3" ry="3" style="stroke:#038048;stroke-width:1;"/><text fill="#000000" font-family="sans-serif" font-size="14" lengthAdjust="spacing" textLength="736.5088" x="42.88" y="1151.9616">c_conforms_to( other : C_PRIMITIVE_OBJECT [1], rmcc : FUNCTION&lt;Boolean,TUPLE2&lt;String,String&gt;&gt; [1] ) : Boolean [1]</text><ellipse cx="33.88" cy="1164.8995" fill="#84BE84" rx="3" ry="3" style="stroke:#038048;stroke-width:1;"/><text fill="#000000" font-family="sans-serif" font-size="14" font-style="italic" lengthAdjust="spacing" textLength="427.0824" x="42.88" y="1168.7615">c_value_conforms_to( other : C_PRIMITIVE_OBJECT [1] ) : Boolean [1]</text><ellipse cx="33.88" cy="1181.6995" fill="#84BE84" rx="3" ry="3" style="stroke:#038048;stroke-width:1;"/><text fill="#000000" font-family="sans-serif" font-size="14" lengthAdjust="spacing" textLength="391.6766" x="42.88" y="1185.5614">c_congruent_to( other : C_PRIMITIVE_OBJECT [1] ) : Boolean [1]</text><ellipse cx="33.88" cy="1198.4994" fill="#84BE84" rx="3" ry="3" style="stroke:#038048;stroke-width:1;"/><text fill="#000000" font-family="sans-serif" font-size="14" font-style="italic" lengthAdjust="spacing" textLength="431.6604" x="42.88" y="1202.3614">c_value_congruent_to( other : C_PRIMITIVE_OBJECT [1] ) : Boolean [1]</text></g><!--class C_DEFINED_OBJECT--><g class="entity" data-entity="C_DEFINED_OBJECT" data-source-line="14" data-uid="ent0003" id="entity_C_DEFINED_OBJECT"><rect fill="#F5F5F5" height="131.9996" rx="2.5" ry="2.5" style="stroke:#808080;stroke-width:1;stroke-dasharray:1,3;" width="288.5269" x="259.87" y="818.2"/><ellipse cx="334.0977" cy="834.2" fill="#A9DCDF" rx="11" ry="11" style="stroke:#181818;stroke-width:1;"/><path d="M328.6133,839.7 L330.6446,839.7 L334.6915,828.3563 L333.7852,828.3563 L337.6133,839.7 L339.754,839.7 L335.4258,827.3719 L333.2071,827.3719 L328.6133,839.7 Z M330.9415,836.2 L337.379,836.2 L337.379,834.45 L330.9415,834.45 L330.9415,836.2 Z " fill="#000000"/><text fill="#808080" font-family="sans-serif" font-size="14" font-style="italic" lengthAdjust="spacing" textLength="131.5715" x="354.5977" y="839.562">C_DEFINED_OBJECT</text><line style="stroke:#808080;stroke-width:1;stroke-dasharray:1,3;" x1="260.87" x2="547.3969" y1="850.2" y2="850.2"/><ellipse cx="270.87" cy="864.1" fill="none" rx="3" ry="3" style="stroke:#038048;stroke-width:1;"/><text fill="#808080" font-family="sans-serif" font-size="14" lengthAdjust="spacing" textLength="151.7734" x="279.87" y="867.9619">default_value : Any [0..1]</text><line style="stroke:#808080;stroke-width:1;stroke-dasharray:1,3;" x1="260.87" x2="547.3969" y1="874.9999" y2="874.9999"/><ellipse cx="270.87" cy="888.8999" fill="#84BE84" rx="3" ry="3" style="stroke:#038048;stroke-width:1;"/><text fill="#808080" font-family="sans-serif" font-size="14" font-style="italic" lengthAdjust="spacing" textLength="166.1093" x="279.87" y="892.7619">any_allowed() : Boolean [1]</text><ellipse cx="270.87" cy="905.6998" fill="#84BE84" rx="3" ry="3" style="stroke:#038048;stroke-width:1;"/><text fill="#808080" font-family="sans-serif" font-size="14" font-style="italic" lengthAdjust="spacing" textLength="262.5269" x="279.87" y="909.5618">valid_value( a_value : Any [1] ) : Boolean [1]</text><ellipse cx="270.87" cy="922.4997" fill="#84BE84" rx="3" ry="3" style="stroke:#038048;stroke-width:1;"/><text fill="#808080" font-family="sans-serif" font-size="14" font-style="italic" lengthAdjust="spacing" textLength="161.7414" x="279.87" y="926.3617">prototype_value() : Any [1]</text><ellipse cx="270.87" cy="939.2997" fill="#84BE84" rx="3" ry="3" style="stroke:#038048;stroke-width:1;"/><text fill="#808080" font-family="sans-serif" font-size="14" lengthAdjust="spacing" textLength="200.7032" x="279.87" y="943.1616">has_default_value() : Boolean [1]</text></g><!--class C_OBJECT--><g class="entity" data-entity="C_OBJECT" data-source-line="22" data-uid="ent0004" id="entity_C_OBJECT"><rect fill="#F5F5F5" height="249.5991" rx="2.5" ry="2.5" style="stroke:#808080;stroke-width:1;stroke-dasharray:1,3;" width="690.7872" x="58.74" y="508.6"/><ellipse cx="366.7878" cy="524.6" fill="#A9DCDF" rx="11" ry="11" style="stroke:#181818;stroke-width:1;"/><path d="M361.3034,530.1 L363.3346,530.1 L367.3815,518.7563 L366.4753,518.7563 L370.3034,530.1 L372.444,530.1 L368.1159,517.7719 L365.8971,517.7719 L361.3034,530.1 Z M363.6315,526.6 L370.069,526.6 L370.069,524.85 L363.6315,524.85 L363.6315,526.6 Z " fill="#000000"/><text fill="#808080" font-family="sans-serif" font-size="14" font-style="italic" lengthAdjust="spacing" textLength="66.1917" x="387.2878" y="529.962">C_OBJECT</text><line style="stroke:#808080;stroke-width:1;stroke-dasharray:1,3;" x1="59.74" x2="748.5272" y1="540.6" y2="540.6"/><ellipse cx="69.74" cy="554.5" fill="none" rx="3" ry="3" style="stroke:#038048;stroke-width:1;"/><text fill="#808080" font-family="sans-serif" font-size="14" lengthAdjust="spacing" textLength="159.7254" x="78.74" y="558.3619">rm_type_name : String [1]</text><ellipse cx="69.74" cy="571.2999" fill="none" rx="3" ry="3" style="stroke:#038048;stroke-width:1;"/><text fill="#808080" font-family="sans-serif" font-size="14" lengthAdjust="spacing" textLength="242.6471" x="78.74" y="575.1619">occurrences : Multiplicity_interval [0..1]</text><ellipse cx="69.74" cy="588.0998" fill="none" rx="3" ry="3" style="stroke:#038048;stroke-width:1;"/><text fill="#808080" font-family="sans-serif" font-size="14" lengthAdjust="spacing" textLength="115.6535" x="78.74" y="591.9618">node_id : String [1]</text><ellipse cx="69.74" cy="604.8997" fill="none" rx="3" ry="3" style="stroke:#038048;stroke-width:1;"/><text fill="#808080" font-family="sans-serif" font-size="14" lengthAdjust="spacing" textLength="182.5033" x="78.74" y="608.7617">is_deprecated : Boolean [0..1]</text><ellipse cx="69.74" cy="621.6997" fill="none" rx="3" ry="3" style="stroke:#038048;stroke-width:1;"/><text fill="#808080" font-family="sans-serif" font-size="14" lengthAdjust="spacing" textLength="231.1111" x="78.74" y="625.5616">sibling_order : SIBLING_ORDER [0..1]</text><line style="stroke:#808080;stroke-width:1;stroke-dasharray:1,3;" x1="59.74" x2="748.5272" y1="632.5996" y2="632.5996"/><ellipse cx="69.74" cy="646.4996" fill="#84BE84" rx="3" ry="3" style="stroke:#038048;stroke-width:1;"/><text fill="#808080" font-family="sans-serif" font-size="14" lengthAdjust="spacing" textLength="209.5092" x="78.74" y="650.3616">specialisation_depth() : Integer [1]</text><ellipse cx="69.74" cy="663.2995" fill="#84BE84" rx="3" ry="3" style="stroke:#038048;stroke-width:1;"/><text fill="#808080" font-family="sans-serif" font-size="14" lengthAdjust="spacing" textLength="295.7629" x="78.74" y="667.1615">effective_occurrences() : Multiplicity_interval [1]</text><ellipse cx="69.74" cy="680.0995" fill="#84BE84" rx="3" ry="3" style="stroke:#038048;stroke-width:1;"/><text fill="#808080" font-family="sans-serif" font-size="14" lengthAdjust="spacing" textLength="664.7872" x="78.74" y="683.9614">c_conforms_to( other : C_OBJECT [1], rmcc : FUNCTION&lt;Boolean,TUPLE2&lt;String,String&gt;&gt; [1] ) : Boolean [1]</text><ellipse cx="69.74" cy="696.8994" fill="#84BE84" rx="3" ry="3" style="stroke:#038048;stroke-width:1;"/><text fill="#808080" font-family="sans-serif" font-size="14" lengthAdjust="spacing" textLength="423.4283" x="78.74" y="700.7614">c_congruent_to( other : ARCHETYPE_CONSTRAINT [1] ) : Boolean [1]</text><ellipse cx="69.74" cy="713.6993" fill="#84BE84" rx="3" ry="3" style="stroke:#038048;stroke-width:1;"/><text fill="#808080" font-family="sans-serif" font-size="14" lengthAdjust="spacing" textLength="383.9766" x="78.74" y="717.5613">occurrences_conforms_to( other : C_OBJECT [1] ) : Boolean [1]</text><ellipse cx="69.74" cy="730.4992" fill="#84BE84" rx="3" ry="3" style="stroke:#038048;stroke-width:1;"/><text fill="#808080" font-family="sans-serif" font-size="14" lengthAdjust="spacing" textLength="358.5107" x="78.74" y="734.3612">node_id_conforms_to( other : C_OBJECT [1] ) : Boolean [1]</text><ellipse cx="69.74" cy="747.2992" fill="#84BE84" rx="3" ry="3" style="stroke:#038048;stroke-width:1;"/><text fill="#808080" font-family="sans-serif" font-size="14" lengthAdjust="spacing" textLength="169.4413" x="78.74" y="751.1611">is_prohibited() : Boolean [1]</text></g><!--class ARCHETYPE_CONSTRAINT--><g class="entity" data-entity="ARCHETYPE_CONSTRAINT" data-source-line="37" data-uid="ent0005" id="entity_ARCHETYPE_CONSTRAINT"><rect fill="#F5F5F5" height="215.9993" rx="2.5" ry="2.5" style="stroke:#808080;stroke-width:1;stroke-dasharray:1,3;" width="794.2606" x="7" y="232.6"/><ellipse cx="315.0477" cy="248.6" fill="#A9DCDF" rx="11" ry="11" style="stroke:#181818;stroke-width:1;"/><path d="M309.5633,254.1 L311.5945,254.1 L315.6414,242.7563 L314.7352,242.7563 L318.5633,254.1 L320.7039,254.1 L316.3758,241.7719 L314.157,241.7719 L309.5633,254.1 Z M311.8914,250.6 L318.3289,250.6 L318.3289,248.85 L311.8914,248.85 L311.8914,250.6 Z " fill="#000000"/><text fill="#808080" font-family="sans-serif" font-size="14" font-style="italic" lengthAdjust="spacing" textLength="169.6653" x="335.5477" y="253.962">ARCHETYPE_CONSTRAINT</text><line style="stroke:#808080;stroke-width:1;stroke-dasharray:1,3;" x1="8" x2="800.2606" y1="264.6" y2="264.6"/><ellipse cx="18" cy="278.5" fill="none" rx="3" ry="3" style="stroke:#038048;stroke-width:1;"/><text fill="#808080" font-family="sans-serif" font-size="14" lengthAdjust="spacing" textLength="254.799" x="27" y="282.3619">parent : ARCHETYPE_CONSTRAINT [0..1]</text><ellipse cx="18" cy="295.2999" fill="none" rx="3" ry="3" style="stroke:#038048;stroke-width:1;"/><text fill="#808080" font-family="sans-serif" font-size="14" lengthAdjust="spacing" textLength="238.3071" x="27" y="299.1619">soc_parent : C_SECOND_ORDER [0..1]</text><line style="stroke:#808080;stroke-width:1;stroke-dasharray:1,3;" x1="8" x2="800.2606" y1="306.1999" y2="306.1999"/><ellipse cx="18" cy="320.0998" fill="#84BE84" rx="3" ry="3" style="stroke:#038048;stroke-width:1;"/><text fill="#808080" font-family="sans-serif" font-size="14" font-style="italic" lengthAdjust="spacing" textLength="169.4413" x="27" y="323.9618">is_prohibited() : Boolean [1]</text><ellipse cx="18" cy="336.8997" fill="#84BE84" rx="3" ry="3" style="stroke:#038048;stroke-width:1;"/><text fill="#808080" font-family="sans-serif" font-size="14" lengthAdjust="spacing" textLength="259.279" x="27" y="340.7617">has_path( a_path : String [1] ) : Boolean [1]</text><ellipse cx="18" cy="353.6997" fill="#84BE84" rx="3" ry="3" style="stroke:#038048;stroke-width:1;"/><text fill="#808080" font-family="sans-serif" font-size="14" lengthAdjust="spacing" textLength="102.5636" x="27" y="357.5616">path() : String [1]</text><ellipse cx="18" cy="370.4996" fill="#84BE84" rx="3" ry="3" style="stroke:#038048;stroke-width:1;"/><text fill="#808080" font-family="sans-serif" font-size="14" font-style="italic" lengthAdjust="spacing" textLength="768.2606" x="27" y="374.3616">c_conforms_to( other : ARCHETYPE_CONSTRAINT [1], rmcc : FUNCTION&lt;Boolean,TUPLE2&lt;String,String&gt;&gt; [1] ) : Boolean [1]</text><ellipse cx="18" cy="387.2995" fill="#84BE84" rx="3" ry="3" style="stroke:#038048;stroke-width:1;"/><text fill="#808080" font-family="sans-serif" font-size="14" font-style="italic" lengthAdjust="spacing" textLength="423.4283" x="27" y="391.1615">c_congruent_to( other : ARCHETYPE_CONSTRAINT [1] ) : Boolean [1]</text><ellipse cx="18" cy="404.0995" fill="#84BE84" rx="3" ry="3" style="stroke:#038048;stroke-width:1;"/><text fill="#808080" font-family="sans-serif" font-size="14" lengthAdjust="spacing" textLength="270.311" x="27" y="407.9614">is_second_order_constrained() : Boolean [1]</text><ellipse cx="18" cy="420.8994" fill="#84BE84" rx="3" ry="3" style="stroke:#038048;stroke-width:1;"/><text fill="#808080" font-family="sans-serif" font-size="14" lengthAdjust="spacing" textLength="131.2075" x="27" y="424.7614">is_root() : Boolean [1]</text><ellipse cx="18" cy="437.6993" fill="#84BE84" rx="3" ry="3" style="stroke:#038048;stroke-width:1;"/><text fill="#808080" font-family="sans-serif" font-size="14" lengthAdjust="spacing" textLength="128.2115" x="27" y="441.5613">is_leaf() : Boolean [1]</text></g><!--class ADL_CODE_DEFINITIONS--><g class="entity" data-entity="ADL_CODE_DEFINITIONS" data-source-line="50" data-uid="ent0006" id="entity_ADL_CODE_DEFINITIONS"><rect fill="#F5F5F5" height="165.5995" rx="2.5" ry="2.5" style="stroke:#808080;stroke-width:1;stroke-dasharray:1,3;" width="547.7921" x="130.23" y="7"/><ellipse cx="318.8094" cy="23" fill="#ADD1B2" rx="11" ry="11" style="stroke:#181818;stroke-width:1;"/><path d="M318.8094,29.4219 C319.9813,29.4219 321.2156,29.1563 322.5906,28.5469 L322.1063,27.0313 C321.0125,27.4531 319.9969,27.6406 319.1375,27.6406 C316.4188,27.6406 314.7,25.7969 314.7,22.8906 C314.7,20.1406 316.2625,18.5469 318.9969,18.5469 C319.9188,18.5469 320.9344,18.7344 322.075,19.1563 L322.6531,17.6406 C321.5594,17.0625 320.2625,16.7656 319.075,16.7656 C315.3094,16.7656 312.7313,19.4063 312.7313,23.2188 C312.7313,26.8906 315.2156,29.4219 318.8094,29.4219 Z " fill="#000000"/><text fill="#808080" font-family="sans-serif" font-size="14" lengthAdjust="spacing" textLength="162.1334" x="339.3094" y="28.362">ADL_CODE_DEFINITIONS</text><line style="stroke:#808080;stroke-width:1;stroke-dasharray:1,3;" x1="131.23" x2="677.0221" y1="39" y2="39"/><line style="stroke:#808080;stroke-width:1;stroke-dasharray:1,3;" x1="131.23" x2="677.0221" y1="47" y2="47"/><ellipse cx="141.23" cy="60.9" fill="#84BE84" rx="3" ry="3" style="stroke:#038048;stroke-width:1;"/><text fill="#808080" font-family="sans-serif" font-size="14" lengthAdjust="spacing" textLength="521.7921" x="150.23" y="64.7619">codes_conformant( a_child_code : String [1], a_parent_code : String [1] ) : Boolean [1]</text><ellipse cx="141.23" cy="77.6999" fill="#84BE84" rx="3" ry="3" style="stroke:#038048;stroke-width:1;"/><text fill="#808080" font-family="sans-serif" font-size="14" lengthAdjust="spacing" textLength="277.0449" x="150.23" y="81.5619">is_adl_code( a_code : String [1] ) : Boolean [1]</text><ellipse cx="141.23" cy="94.4998" fill="#84BE84" rx="3" ry="3" style="stroke:#038048;stroke-width:1;"/><text fill="#808080" font-family="sans-serif" font-size="14" lengthAdjust="spacing" textLength="269.429" x="150.23" y="98.3618">is_id_code( a_code : String [1] ) : Boolean [1]</text><ellipse cx="141.23" cy="111.2997" fill="#84BE84" rx="3" ry="3" style="stroke:#038048;stroke-width:1;"/><text fill="#808080" font-family="sans-serif" font-size="14" lengthAdjust="spacing" textLength="290.9889" x="150.23" y="115.1617">is_value_code( a_code : String [1] ) : Boolean [1]</text><ellipse cx="141.23" cy="128.0997" fill="#84BE84" rx="3" ry="3" style="stroke:#038048;stroke-width:1;"/><text fill="#808080" font-family="sans-serif" font-size="14" lengthAdjust="spacing" textLength="316.9308" x="150.23" y="131.9616">is_value_set_code( a_code : String [1] ) : Boolean [1]</text><ellipse cx="141.23" cy="144.8996" fill="#84BE84" rx="3" ry="3" style="stroke:#038048;stroke-width:1;"/><text fill="#808080" font-family="sans-serif" font-size="14" lengthAdjust="spacing" textLength="317.5608" x="150.23" y="148.7616">is_redefined_code( a_code : String [1] ) : Boolean [1]</text><ellipse cx="141.23" cy="161.6995" fill="#84BE84" rx="3" ry="3" style="stroke:#038048;stroke-width:1;"/><text fill="#808080" font-family="sans-serif" font-size="14" lengthAdjust="spacing" textLength="454.3962" x="150.23" y="165.5615">code_exists_at_level( a-code : String [1], a_level : Integer [1] ) : Boolean [1]</text></g><!--reverse link ADL_CODE_DEFINITIONS to ARCHETYPE_CONSTRAINT--><g class="link" data-entity-1="ADL_CODE_DEFINITIONS" data-entity-2="ARCHETYPE_CONSTRAINT" data-source-line="60" data-uid="lnk7" id="link_ADL_CODE_DEFINITIONS_ARCHETYPE_CONSTRAINT"><path codeLine="60" d="M404.13,190.96 C404.13,209.93 404.13,212.38 404.13,232.24" fill="none" id="ADL_CODE_DEFINITIONS-backto-ARCHETYPE_CONSTRAINT" style="stroke:#181818;stroke-width:1;"/><polygon fill="none" points="404.13,172.96,398.13,190.96,410.13,190.96,404.13,172.96" style="stroke:#181818;stroke-width:1;"/></g><!--reverse link ARCHETYPE_CONSTRAINT to C_OBJECT--><g class="link" data-entity-1="ARCHETYPE_CONSTRAINT" data-entity-2="C_OBJECT" data-source-line="62" data-uid="lnk8" id="link_ARCHETYPE_CONSTRAINT_C_OBJECT"><path codeLine="62" d="M404.13,467.06 C404.13,486.31 404.13,488.52 404.13,508.2" fill="none" id="ARCHETYPE_CONSTRAINT-backto-C_OBJECT" style="stroke:#181818;stroke-width:1;"/><polygon fill="none" points="404.13,449.06,398.13,467.06,410.13,467.06,404.13,449.06" style="stroke:#181818;stroke-width:1;"/></g><!--reverse link C_OBJECT to C_DEFINED_OBJECT--><g class="link" data-entity-1="C_OBJECT" data-entity-2="C_DEFINED_OBJECT" data-source-line="64" data-uid="lnk9" id="link_C_OBJECT_C_DEFINED_OBJECT"><path codeLine="64" d="M404.13,776.44 C404.13,797.01 404.13,799.59 404.13,817.94" fill="none" id="C_OBJECT-backto-C_DEFINED_OBJECT" style="stroke:#181818;stroke-width:1;"/><polygon fill="none" points="404.13,758.44,398.13,776.44,410.13,776.44,404.13,758.44" style="stroke:#181818;stroke-width:1;"/></g><!--reverse link C_DEFINED_OBJECT to C_PRIMITIVE_OBJECT--><g class="link" data-entity-1="C_DEFINED_OBJECT" data-entity-2="C_PRIMITIVE_OBJECT" data-source-line="66" data-uid="lnk10" id="link_C_DEFINED_OBJECT_C_PRIMITIVE_OBJECT"><path codeLine="66" d="M404.13,968.48 C404.13,987.04 404.13,989.68 404.13,1009.77" fill="none" id="C_DEFINED_OBJECT-backto-C_PRIMITIVE_OBJECT" style="stroke:#181818;stroke-width:1;"/><polygon fill="none" points="404.13,950.48,398.13,968.48,410.13,968.48,404.13,950.48" style="stroke:#181818;stroke-width:1;"/></g></g></svg>
