<svg xmlns="http://www.w3.org/2000/svg" xmlns:xlink="http://www.w3.org/1999/xlink" contentStyleType="text/css" data-diagram-type="CLASS" height="537px" preserveAspectRatio="none" style="width:357px;height:537px;background:#FFFFFF;" version="1.1" viewBox="0 0 357 537" width="357px" zoomAndPan="magnify"><defs/><g><!--class P_C_COMPLEX_OBJECT--><g class="entity" data-entity="P_C_COMPLEX_OBJECT" data-source-line="2" data-uid="ent0002" id="entity_P_C_COMPLEX_OBJECT"><rect fill="#F1F1F1" height="81.5999" rx="2.5" ry="2.5" style="stroke:#181818;stroke-width:0.5;" width="343.8547" x="7" y="448.6"/><ellipse cx="98.6717" cy="464.6" fill="#ADD1B2" rx="11" ry="11" style="stroke:#181818;stroke-width:1;"/><path d="M98.6717,471.0219 C99.8435,471.0219 101.0779,470.7563 102.4529,470.1469 L101.9685,468.6313 C100.8748,469.0531 99.8592,469.2406 98.9998,469.2406 C96.281,469.2406 94.5623,467.3969 94.5623,464.4906 C94.5623,461.7406 96.1248,460.1469 98.8592,460.1469 C99.781,460.1469 100.7967,460.3344 101.9373,460.7563 L102.5154,459.2406 C101.4217,458.6625 100.1248,458.3656 98.9373,458.3656 C95.1717,458.3656 92.5935,461.0063 92.5935,464.8188 C92.5935,468.4906 95.0779,471.0219 98.6717,471.0219 Z " fill="#000000"/><text fill="#000000" font-family="sans-serif" font-size="14" lengthAdjust="spacing" textLength="152.0114" x="119.1717" y="469.962">P_C_COMPLEX_OBJECT</text><line style="stroke:#181818;stroke-width:0.5;" x1="8" x2="349.8547" y1="480.6" y2="480.6"/><ellipse cx="18" cy="494.5" fill="none" rx="3" ry="3" style="stroke:#038048;stroke-width:1;"/><text fill="#000000" font-family="sans-serif" font-size="14" lengthAdjust="spacing" textLength="230.8731" x="27" y="498.3619">attributes : List&lt;P_C_ATTRIBUTE&gt; [*]</text><ellipse cx="18" cy="511.2999" fill="none" rx="3" ry="3" style="stroke:#038048;stroke-width:1;"/><text fill="#000000" font-family="sans-serif" font-size="14" lengthAdjust="spacing" textLength="317.8547" x="27" y="515.1619">attribute_tuples : List&lt;P_C_ATTRIBUTE_TUPLE&gt; [*]</text><line style="stroke:#181818;stroke-width:0.5;" x1="8" x2="349.8547" y1="522.1999" y2="522.1999"/></g><!--class P_C_DEFINED_OBJECT--><g class="entity" data-entity="P_C_DEFINED_OBJECT" data-source-line="7" data-uid="ent0003" id="entity_P_C_DEFINED_OBJECT"><rect fill="#F5F5F5" height="81.5999" rx="2.5" ry="2.5" style="stroke:#808080;stroke-width:1;stroke-dasharray:1,3;" width="178.8314" x="89.51" y="307"/><ellipse cx="104.51" cy="323" fill="#A9DCDF" rx="11" ry="11" style="stroke:#181818;stroke-width:1;"/><path d="M99.0256,328.5 L101.0569,328.5 L105.1038,317.1563 L104.1975,317.1563 L108.0256,328.5 L110.1663,328.5 L105.8381,316.1719 L103.6194,316.1719 L99.0256,328.5 Z M101.3538,325 L107.7913,325 L107.7913,323.25 L101.3538,323.25 L101.3538,325 Z " fill="#000000"/><text fill="#808080" font-family="sans-serif" font-size="14" font-style="italic" lengthAdjust="spacing" textLength="146.8314" x="118.51" y="328.362">P_C_DEFINED_OBJECT</text><line style="stroke:#808080;stroke-width:1;stroke-dasharray:1,3;" x1="90.51" x2="267.3414" y1="339" y2="339"/><ellipse cx="100.51" cy="352.9" fill="none" rx="3" ry="3" style="stroke:#038048;stroke-width:1;"/><text fill="#808080" font-family="sans-serif" font-size="14" lengthAdjust="spacing" textLength="152.1374" x="109.51" y="356.7619">is_frozen : Boolean [0..1]</text><ellipse cx="100.51" cy="369.6999" fill="none" rx="3" ry="3" style="stroke:#038048;stroke-width:1;"/><text fill="#808080" font-family="sans-serif" font-size="14" lengthAdjust="spacing" textLength="136.0094" x="109.51" y="373.5619">default_value : Any [1]</text><line style="stroke:#808080;stroke-width:1;stroke-dasharray:1,3;" x1="90.51" x2="267.3414" y1="380.5999" y2="380.5999"/></g><!--class P_C_OBJECT--><g class="entity" data-entity="P_C_OBJECT" data-source-line="12" data-uid="ent0004" id="entity_P_C_OBJECT"><rect fill="#F5F5F5" height="131.9996" rx="2.5" ry="2.5" style="stroke:#808080;stroke-width:1;stroke-dasharray:1,3;" width="235.5092" x="61.17" y="115"/><ellipse cx="133.9488" cy="131" fill="#A9DCDF" rx="11" ry="11" style="stroke:#181818;stroke-width:1;"/><path d="M128.4644,136.5 L130.4956,136.5 L134.5425,125.1563 L133.6363,125.1563 L137.4644,136.5 L139.605,136.5 L135.2769,124.1719 L133.0581,124.1719 L128.4644,136.5 Z M130.7925,133 L137.23,133 L137.23,131.25 L130.7925,131.25 L130.7925,133 Z " fill="#000000"/><text fill="#808080" font-family="sans-serif" font-size="14" font-style="italic" lengthAdjust="spacing" textLength="81.4517" x="154.4488" y="136.362">P_C_OBJECT</text><line style="stroke:#808080;stroke-width:1;stroke-dasharray:1,3;" x1="62.17" x2="295.6792" y1="147" y2="147"/><ellipse cx="72.17" cy="160.9" fill="none" rx="3" ry="3" style="stroke:#038048;stroke-width:1;"/><text fill="#808080" font-family="sans-serif" font-size="14" lengthAdjust="spacing" textLength="159.7254" x="81.17" y="164.7619">rm_type_name : String [1]</text><ellipse cx="72.17" cy="177.6999" fill="none" rx="3" ry="3" style="stroke:#038048;stroke-width:1;"/><text fill="#808080" font-family="sans-serif" font-size="14" lengthAdjust="spacing" textLength="156.8834" x="81.17" y="181.5619">occurrences : String [0..1]</text><ellipse cx="72.17" cy="194.4998" fill="none" rx="3" ry="3" style="stroke:#038048;stroke-width:1;"/><text fill="#808080" font-family="sans-serif" font-size="14" lengthAdjust="spacing" textLength="115.6535" x="81.17" y="198.3618">node_id : String [1]</text><ellipse cx="72.17" cy="211.2997" fill="none" rx="3" ry="3" style="stroke:#038048;stroke-width:1;"/><text fill="#808080" font-family="sans-serif" font-size="14" lengthAdjust="spacing" textLength="182.5033" x="81.17" y="215.1617">is_deprecated : Boolean [0..1]</text><line style="stroke:#808080;stroke-width:1;stroke-dasharray:1,3;" x1="62.17" x2="295.6792" y1="222.1997" y2="222.1997"/><ellipse cx="72.17" cy="236.0997" fill="#84BE84" rx="3" ry="3" style="stroke:#038048;stroke-width:1;"/><text fill="#808080" font-family="sans-serif" font-size="14" lengthAdjust="spacing" textLength="209.5092" x="81.17" y="239.9616">specialisation_depth() : Integer [1]</text></g><!--class P_ARCHETYPE_CONSTRAINT--><g class="entity" data-entity="P_ARCHETYPE_CONSTRAINT" data-source-line="20" data-uid="ent0005" id="entity_P_ARCHETYPE_CONSTRAINT"><rect fill="#F5F5F5" height="48" rx="2.5" ry="2.5" style="stroke:#808080;stroke-width:1;stroke-dasharray:1,3;" width="216.9252" x="70.46" y="7"/><ellipse cx="85.46" cy="23" fill="#A9DCDF" rx="11" ry="11" style="stroke:#181818;stroke-width:1;"/><path d="M79.9756,28.5 L82.0069,28.5 L86.0538,17.1563 L85.1475,17.1563 L88.9756,28.5 L91.1163,28.5 L86.7881,16.1719 L84.5694,16.1719 L79.9756,28.5 Z M82.3038,25 L88.7413,25 L88.7413,23.25 L82.3038,23.25 L82.3038,25 Z " fill="#000000"/><text fill="#808080" font-family="sans-serif" font-size="14" font-style="italic" lengthAdjust="spacing" textLength="184.9252" x="99.46" y="28.362">P_ARCHETYPE_CONSTRAINT</text><line style="stroke:#808080;stroke-width:1;stroke-dasharray:1,3;" x1="71.46" x2="286.3852" y1="39" y2="39"/><line style="stroke:#808080;stroke-width:1;stroke-dasharray:1,3;" x1="71.46" x2="286.3852" y1="47" y2="47"/></g><!--reverse link P_ARCHETYPE_CONSTRAINT to P_C_OBJECT--><g class="link" data-entity-1="P_ARCHETYPE_CONSTRAINT" data-entity-2="P_C_OBJECT" data-source-line="23" data-uid="lnk6" id="link_P_ARCHETYPE_CONSTRAINT_P_C_OBJECT"><path codeLine="23" d="M178.93,73.45 C178.93,89.51 178.93,93.65 178.93,114.81" fill="none" id="P_ARCHETYPE_CONSTRAINT-backto-P_C_OBJECT" style="stroke:#181818;stroke-width:1;"/><polygon fill="none" points="178.93,55.45,172.93,73.45,184.93,73.45,178.93,55.45" style="stroke:#181818;stroke-width:1;"/></g><!--reverse link P_C_OBJECT to P_C_DEFINED_OBJECT--><g class="link" data-entity-1="P_C_OBJECT" data-entity-2="P_C_DEFINED_OBJECT" data-source-line="25" data-uid="lnk7" id="link_P_C_OBJECT_P_C_DEFINED_OBJECT"><path codeLine="25" d="M178.93,265.13 C178.93,285.29 178.93,288.88 178.93,306.8" fill="none" id="P_C_OBJECT-backto-P_C_DEFINED_OBJECT" style="stroke:#181818;stroke-width:1;"/><polygon fill="none" points="178.93,247.13,172.93,265.13,184.93,265.13,178.93,247.13" style="stroke:#181818;stroke-width:1;"/></g><!--reverse link P_C_DEFINED_OBJECT to P_C_COMPLEX_OBJECT--><g class="link" data-entity-1="P_C_DEFINED_OBJECT" data-entity-2="P_C_COMPLEX_OBJECT" data-source-line="27" data-uid="lnk8" id="link_P_C_DEFINED_OBJECT_P_C_COMPLEX_OBJECT"><path codeLine="27" d="M178.93,406.8 C178.93,425.5 178.93,429.7 178.93,448.39" fill="none" id="P_C_DEFINED_OBJECT-backto-P_C_COMPLEX_OBJECT" style="stroke:#181818;stroke-width:1;"/><polygon fill="none" points="178.93,388.8,172.93,406.8,184.93,406.8,178.93,388.8" style="stroke:#181818;stroke-width:1;"/></g></g></svg>
