<svg xmlns="http://www.w3.org/2000/svg" xmlns:xlink="http://www.w3.org/1999/xlink" contentStyleType="text/css" data-diagram-type="CLASS" height="119px" preserveAspectRatio="none" style="width:210px;height:119px;background:#FFFFFF;" version="1.1" viewBox="0 0 210 119" width="210px" zoomAndPan="magnify"><defs/><g><!--class SIBLING_ORDER--><g class="entity" data-entity="SIBLING_ORDER" data-source-line="2" data-uid="ent0002" id="entity_SIBLING_ORDER"><rect fill="#F1F1F1" height="98.3998" rx="2.5" ry="2.5" style="stroke:#181818;stroke-width:0.5;" width="189.8273" x="7" y="7"/><ellipse cx="45.8796" cy="23" fill="#ADD1B2" rx="11" ry="11" style="stroke:#181818;stroke-width:1;"/><path d="M45.8796,29.4219 C47.0515,29.4219 48.2858,29.1563 49.6608,28.5469 L49.1765,27.0313 C48.0827,27.4531 47.0671,27.6406 46.2077,27.6406 C43.489,27.6406 41.7702,25.7969 41.7702,22.8906 C41.7702,20.1406 43.3327,18.5469 46.0671,18.5469 C46.989,18.5469 48.0046,18.7344 49.1452,19.1563 L49.7233,17.6406 C48.6296,17.0625 47.3327,16.7656 46.1452,16.7656 C42.3796,16.7656 39.8015,19.4063 39.8015,23.2188 C39.8015,26.8906 42.2858,29.4219 45.8796,29.4219 Z " fill="#000000"/><text fill="#000000" font-family="sans-serif" font-size="14" lengthAdjust="spacing" textLength="104.7616" x="65.1862" y="28.362">SIBLING_ORDER</text><line style="stroke:#181818;stroke-width:0.5;" x1="8" x2="195.8273" y1="39" y2="39"/><ellipse cx="18" cy="52.9" fill="none" rx="3" ry="3" style="stroke:#038048;stroke-width:1;"/><text fill="#000000" font-family="sans-serif" font-size="14" lengthAdjust="spacing" textLength="137.3114" x="27" y="56.7619">is_before : Boolean [1]</text><ellipse cx="18" cy="69.6999" fill="none" rx="3" ry="3" style="stroke:#038048;stroke-width:1;"/><text fill="#000000" font-family="sans-serif" font-size="14" lengthAdjust="spacing" textLength="163.8273" x="27" y="73.5619">sibling_node_id : String [1]</text><line style="stroke:#181818;stroke-width:0.5;" x1="8" x2="195.8273" y1="80.5999" y2="80.5999"/><ellipse cx="18" cy="94.4998" fill="#84BE84" rx="3" ry="3" style="stroke:#038048;stroke-width:1;"/><text fill="#000000" font-family="sans-serif" font-size="14" lengthAdjust="spacing" textLength="134.6515" x="27" y="98.3618">is_after() : Boolean [1]</text></g></g></svg>
