<svg xmlns="http://www.w3.org/2000/svg" xmlns:xlink="http://www.w3.org/1999/xlink" contentStyleType="text/css" data-diagram-type="CLASS" height="203px" preserveAspectRatio="none" style="width:266px;height:203px;background:#FFFFFF;" version="1.1" viewBox="0 0 266 203" width="266px" zoomAndPan="magnify"><defs/><g><!--class EXPR_ARCHETYPE_REF--><g class="entity" data-entity="EXPR_ARCHETYPE_REF" data-source-line="2" data-uid="ent0002" id="entity_EXPR_ARCHETYPE_REF"><rect fill="#F1F1F1" height="81.5999" rx="2.5" ry="2.5" style="stroke:#181818;stroke-width:0.5;" width="252.5051" x="7" y="115"/><ellipse cx="54.2918" cy="131" fill="#ADD1B2" rx="11" ry="11" style="stroke:#181818;stroke-width:1;"/><path d="M54.2918,137.4219 C55.4637,137.4219 56.6981,137.1563 58.0731,136.5469 L57.5887,135.0313 C56.495,135.4531 55.4793,135.6406 54.62,135.6406 C51.9012,135.6406 50.1825,133.7969 50.1825,130.8906 C50.1825,128.1406 51.745,126.5469 54.4793,126.5469 C55.4012,126.5469 56.4168,126.7344 57.5575,127.1563 L58.1356,125.6406 C57.0418,125.0625 55.745,124.7656 54.5575,124.7656 C50.7918,124.7656 48.2137,127.4063 48.2137,131.2188 C48.2137,134.8906 50.6981,137.4219 54.2918,137.4219 Z " fill="#000000"/><text fill="#000000" font-family="sans-serif" font-size="14" lengthAdjust="spacing" textLength="149.4214" x="74.7918" y="136.362">EXPR_ARCHETYPE_REF</text><line style="stroke:#181818;stroke-width:0.5;" x1="8" x2="258.5051" y1="147" y2="147"/><ellipse cx="18" cy="160.9" fill="none" rx="3" ry="3" style="stroke:#038048;stroke-width:1;"/><text fill="#000000" font-family="sans-serif" font-size="14" lengthAdjust="spacing" textLength="94.1357" x="27" y="164.7619">path : String [1]</text><ellipse cx="18" cy="177.6999" fill="none" rx="3" ry="3" style="stroke:#038048;stroke-width:1;"/><text fill="#000000" font-family="sans-serif" font-size="14" lengthAdjust="spacing" textLength="226.5051" x="27" y="181.5619">item : ARCHETYPE_CONSTRAINT [1]</text><line style="stroke:#181818;stroke-width:0.5;" x1="8" x2="258.5051" y1="188.5999" y2="188.5999"/></g><!--class EXPR_VALUE_REF--><g class="entity" data-entity="EXPR_VALUE_REF" data-source-line="7" data-uid="ent0003" id="entity_EXPR_VALUE_REF"><rect fill="#F1F1F1" height="48" rx="2.5" ry="2.5" style="stroke:#181818;stroke-width:0.5;" width="146.0575" x="60.22" y="7"/><ellipse cx="75.22" cy="23" fill="#ADD1B2" rx="11" ry="11" style="stroke:#181818;stroke-width:1;"/><path d="M75.22,29.4219 C76.3919,29.4219 77.6263,29.1563 79.0013,28.5469 L78.5169,27.0313 C77.4231,27.4531 76.4075,27.6406 75.5481,27.6406 C72.8294,27.6406 71.1106,25.7969 71.1106,22.8906 C71.1106,20.1406 72.6731,18.5469 75.4075,18.5469 C76.3294,18.5469 77.345,18.7344 78.4856,19.1563 L79.0638,17.6406 C77.97,17.0625 76.6731,16.7656 75.4856,16.7656 C71.72,16.7656 69.1419,19.4063 69.1419,23.2188 C69.1419,26.8906 71.6263,29.4219 75.22,29.4219 Z " fill="#000000"/><text fill="#000000" font-family="sans-serif" font-size="14" lengthAdjust="spacing" textLength="114.0575" x="89.22" y="28.362">EXPR_VALUE_REF</text><line style="stroke:#181818;stroke-width:0.5;" x1="61.22" x2="205.2775" y1="39" y2="39"/><line style="stroke:#181818;stroke-width:0.5;" x1="61.22" x2="205.2775" y1="47" y2="47"/></g><!--reverse link EXPR_VALUE_REF to EXPR_ARCHETYPE_REF--><g class="link" data-entity-1="EXPR_VALUE_REF" data-entity-2="EXPR_ARCHETYPE_REF" data-source-line="7" data-uid="lnk4" id="link_EXPR_VALUE_REF_EXPR_ARCHETYPE_REF"><path codeLine="7" d="M133.25,73.39 C133.25,90.09 133.25,94.98 133.25,114.58" fill="none" id="EXPR_VALUE_REF-backto-EXPR_ARCHETYPE_REF" style="stroke:#181818;stroke-width:1;"/><polygon fill="none" points="133.25,55.39,127.25,73.39,139.25,73.39,133.25,55.39" style="stroke:#181818;stroke-width:1;"/></g></g></svg>
