<svg xmlns="http://www.w3.org/2000/svg" xmlns:xlink="http://www.w3.org/1999/xlink" contentStyleType="text/css" data-diagram-type="CLASS" height="287px" preserveAspectRatio="none" style="width:607px;height:287px;background:#FFFFFF;" version="1.1" viewBox="0 0 607 287" width="607px" zoomAndPan="magnify"><defs/><g><!--class COMPOSITION--><g class="entity" data-entity="COMPOSITION" data-source-line="2" data-uid="ent0002" id="entity_COMPOSITION"><rect fill="#F1F1F1" height="165.5995" rx="2.5" ry="2.5" style="stroke:#181818;stroke-width:0.5;" width="244.9171" x="7" y="115"/><ellipse cx="77.7698" cy="131" fill="#ADD1B2" rx="11" ry="11" style="stroke:#181818;stroke-width:1;"/><path d="M77.7698,137.4219 C78.9416,137.4219 80.176,137.1563 81.551,136.5469 L81.0666,135.0313 C79.9729,135.4531 78.9573,135.6406 78.0979,135.6406 C75.3791,135.6406 73.6604,133.7969 73.6604,130.8906 C73.6604,128.1406 75.2229,126.5469 77.9573,126.5469 C78.8791,126.5469 79.8948,126.7344 81.0354,127.1563 L81.6135,125.6406 C80.5198,125.0625 79.2229,124.7656 78.0354,124.7656 C74.2698,124.7656 71.6916,127.4063 71.6916,131.2188 C71.6916,134.8906 74.176,137.4219 77.7698,137.4219 Z " fill="#000000"/><text fill="#000000" font-family="sans-serif" font-size="14" lengthAdjust="spacing" textLength="94.8776" x="98.2698" y="136.362">COMPOSITION</text><line style="stroke:#181818;stroke-width:0.5;" x1="8" x2="250.9171" y1="147" y2="147"/><ellipse cx="18" cy="160.9" fill="none" rx="3" ry="3" style="stroke:#038048;stroke-width:1;"/><text fill="#000000" font-family="sans-serif" font-size="14" lengthAdjust="spacing" textLength="182.3913" x="27" y="164.7619">language : CODE_PHRASE [1]</text><ellipse cx="18" cy="177.6999" fill="none" rx="3" ry="3" style="stroke:#038048;stroke-width:1;"/><text fill="#000000" font-family="sans-serif" font-size="14" lengthAdjust="spacing" textLength="176.4973" x="27" y="181.5619">territory : CODE_PHRASE [1]</text><ellipse cx="18" cy="194.4998" fill="none" rx="3" ry="3" style="stroke:#038048;stroke-width:1;"/><text fill="#000000" font-family="sans-serif" font-size="14" lengthAdjust="spacing" textLength="195.1312" x="27" y="198.3618">category : DV_CODED_TEXT [1]</text><ellipse cx="18" cy="211.2997" fill="none" rx="3" ry="3" style="stroke:#038048;stroke-width:1;"/><text fill="#000000" font-family="sans-serif" font-size="14" lengthAdjust="spacing" textLength="203.5452" x="27" y="215.1617">context : EVENT_CONTEXT [0..1]</text><ellipse cx="18" cy="228.0997" fill="none" rx="3" ry="3" style="stroke:#038048;stroke-width:1;"/><text fill="#000000" font-family="sans-serif" font-size="14" lengthAdjust="spacing" textLength="183.3152" x="27" y="231.9616">composer : PARTY_PROXY [1]</text><ellipse cx="18" cy="244.8996" fill="none" rx="3" ry="3" style="stroke:#038048;stroke-width:1;"/><text fill="#000000" font-family="sans-serif" font-size="14" lengthAdjust="spacing" textLength="218.9171" x="27" y="248.7616">content : List&lt;CONTENT_ITEM&gt; [*]</text><line style="stroke:#181818;stroke-width:0.5;" x1="8" x2="250.9171" y1="255.7996" y2="255.7996"/><ellipse cx="18" cy="269.6995" fill="#84BE84" rx="3" ry="3" style="stroke:#038048;stroke-width:1;"/><text fill="#000000" font-family="sans-serif" font-size="14" lengthAdjust="spacing" textLength="167.5374" x="27" y="273.5615">is_persistent() : Boolean [1]</text></g><!--class EVENT_CONTEXT--><g class="entity" data-entity="EVENT_CONTEXT" data-source-line="12" data-uid="ent0003" id="entity_EVENT_CONTEXT"><rect fill="#F1F1F1" height="165.5995" rx="2.5" ry="2.5" style="stroke:#181818;stroke-width:0.5;" width="313.6148" x="286.65" y="115"/><ellipse cx="382.8296" cy="131" fill="#ADD1B2" rx="11" ry="11" style="stroke:#181818;stroke-width:1;"/><path d="M382.8296,137.4219 C384.0015,137.4219 385.2359,137.1563 386.6109,136.5469 L386.1265,135.0313 C385.0328,135.4531 384.0171,135.6406 383.1578,135.6406 C380.439,135.6406 378.7203,133.7969 378.7203,130.8906 C378.7203,128.1406 380.2828,126.5469 383.0171,126.5469 C383.939,126.5469 384.9546,126.7344 386.0953,127.1563 L386.6734,125.6406 C385.5796,125.0625 384.2828,124.7656 383.0953,124.7656 C379.3296,124.7656 376.7515,127.4063 376.7515,131.2188 C376.7515,134.8906 379.2359,137.4219 382.8296,137.4219 Z " fill="#000000"/><text fill="#000000" font-family="sans-serif" font-size="14" lengthAdjust="spacing" textLength="112.7555" x="403.3296" y="136.362">EVENT_CONTEXT</text><line style="stroke:#181818;stroke-width:0.5;" x1="287.65" x2="599.2648" y1="147" y2="147"/><ellipse cx="297.65" cy="160.9" fill="none" rx="3" ry="3" style="stroke:#038048;stroke-width:1;"/><text fill="#000000" font-family="sans-serif" font-size="14" lengthAdjust="spacing" textLength="191.9672" x="306.65" y="164.7619">start_time : DV_DATE_TIME [1]</text><ellipse cx="297.65" cy="177.6999" fill="none" rx="3" ry="3" style="stroke:#038048;stroke-width:1;"/><text fill="#000000" font-family="sans-serif" font-size="14" lengthAdjust="spacing" textLength="201.9912" x="306.65" y="181.5619">end_time : DV_DATE_TIME [0..1]</text><ellipse cx="297.65" cy="194.4998" fill="none" rx="3" ry="3" style="stroke:#038048;stroke-width:1;"/><text fill="#000000" font-family="sans-serif" font-size="14" lengthAdjust="spacing" textLength="131.6555" x="306.65" y="198.3618">location : String [0..1]</text><ellipse cx="297.65" cy="211.2997" fill="none" rx="3" ry="3" style="stroke:#038048;stroke-width:1;"/><text fill="#000000" font-family="sans-serif" font-size="14" lengthAdjust="spacing" textLength="184.4213" x="306.65" y="215.1617">setting : DV_CODED_TEXT [1]</text><ellipse cx="297.65" cy="228.0997" fill="none" rx="3" ry="3" style="stroke:#038048;stroke-width:1;"/><text fill="#000000" font-family="sans-serif" font-size="14" lengthAdjust="spacing" textLength="247.1971" x="306.65" y="231.9616">other_context : ITEM_STRUCTURE [0..1]</text><ellipse cx="297.65" cy="244.8996" fill="none" rx="3" ry="3" style="stroke:#038048;stroke-width:1;"/><text fill="#000000" font-family="sans-serif" font-size="14" lengthAdjust="spacing" textLength="287.6148" x="306.65" y="248.7616">health_care_facility : PARTY_IDENTIFIED [0..1]</text><ellipse cx="297.65" cy="261.6995" fill="none" rx="3" ry="3" style="stroke:#038048;stroke-width:1;"/><text fill="#000000" font-family="sans-serif" font-size="14" lengthAdjust="spacing" textLength="252.419" x="306.65" y="265.5615">participations : List&lt;PARTICIPATION&gt; [*]</text><line style="stroke:#181818;stroke-width:0.5;" x1="287.65" x2="599.2648" y1="272.5995" y2="272.5995"/></g><!--class LOCATABLE--><g class="entity" data-entity="LOCATABLE" data-source-line="22" data-uid="ent0004" id="entity_LOCATABLE"><rect fill="#F1F1F1" height="48" rx="2.5" ry="2.5" style="stroke:#181818;stroke-width:0.5;" width="108.2857" x="75.32" y="7"/><ellipse cx="90.32" cy="23" fill="#ADD1B2" rx="11" ry="11" style="stroke:#181818;stroke-width:1;"/><path d="M90.32,29.4219 C91.4919,29.4219 92.7263,29.1563 94.1013,28.5469 L93.6169,27.0313 C92.5231,27.4531 91.5075,27.6406 90.6481,27.6406 C87.9294,27.6406 86.2106,25.7969 86.2106,22.8906 C86.2106,20.1406 87.7731,18.5469 90.5075,18.5469 C91.4294,18.5469 92.445,18.7344 93.5856,19.1563 L94.1638,17.6406 C93.07,17.0625 91.7731,16.7656 90.5856,16.7656 C86.82,16.7656 84.2419,19.4063 84.2419,23.2188 C84.2419,26.8906 86.7263,29.4219 90.32,29.4219 Z " fill="#000000"/><text fill="#000000" font-family="sans-serif" font-size="14" lengthAdjust="spacing" textLength="76.2857" x="104.32" y="28.362">LOCATABLE</text><line style="stroke:#181818;stroke-width:0.5;" x1="76.32" x2="182.6057" y1="39" y2="39"/><line style="stroke:#181818;stroke-width:0.5;" x1="76.32" x2="182.6057" y1="47" y2="47"/></g><!--class PATHABLE--><g class="entity" data-entity="PATHABLE" data-source-line="23" data-uid="ent0006" id="entity_PATHABLE"><rect fill="#F1F1F1" height="48" rx="2.5" ry="2.5" style="stroke:#181818;stroke-width:0.5;" width="99.8857" x="393.52" y="7"/><ellipse cx="408.52" cy="23" fill="#ADD1B2" rx="11" ry="11" style="stroke:#181818;stroke-width:1;"/><path d="M408.52,29.4219 C409.6919,29.4219 410.9263,29.1563 412.3013,28.5469 L411.8169,27.0313 C410.7231,27.4531 409.7075,27.6406 408.8481,27.6406 C406.1294,27.6406 404.4106,25.7969 404.4106,22.8906 C404.4106,20.1406 405.9731,18.5469 408.7075,18.5469 C409.6294,18.5469 410.645,18.7344 411.7856,19.1563 L412.3638,17.6406 C411.27,17.0625 409.9731,16.7656 408.7856,16.7656 C405.02,16.7656 402.4419,19.4063 402.4419,23.2188 C402.4419,26.8906 404.9263,29.4219 408.52,29.4219 Z " fill="#000000"/><text fill="#000000" font-family="sans-serif" font-size="14" lengthAdjust="spacing" textLength="67.8857" x="422.52" y="28.362">PATHABLE</text><line style="stroke:#181818;stroke-width:0.5;" x1="394.52" x2="492.4057" y1="39" y2="39"/><line style="stroke:#181818;stroke-width:0.5;" x1="394.52" x2="492.4057" y1="47" y2="47"/></g><!--reverse link LOCATABLE to COMPOSITION--><g class="link" data-entity-1="LOCATABLE" data-entity-2="COMPOSITION" data-source-line="22" data-uid="lnk5" id="link_LOCATABLE_COMPOSITION"><path codeLine="22" d="M129.46,73.26 C129.46,89.06 129.46,92.97 129.46,114.85" fill="none" id="LOCATABLE-backto-COMPOSITION" style="stroke:#181818;stroke-width:1;"/><polygon fill="none" points="129.46,55.26,123.46,73.26,135.46,73.26,129.46,55.26" style="stroke:#181818;stroke-width:1;"/></g><!--reverse link PATHABLE to EVENT_CONTEXT--><g class="link" data-entity-1="PATHABLE" data-entity-2="EVENT_CONTEXT" data-source-line="23" data-uid="lnk7" id="link_PATHABLE_EVENT_CONTEXT"><path codeLine="23" d="M443.46,73.26 C443.46,89.06 443.46,92.97 443.46,114.85" fill="none" id="PATHABLE-backto-EVENT_CONTEXT" style="stroke:#181818;stroke-width:1;"/><polygon fill="none" points="443.46,55.26,437.46,73.26,449.46,73.26,443.46,55.26" style="stroke:#181818;stroke-width:1;"/></g></g></svg>
