<svg xmlns="http://www.w3.org/2000/svg" xmlns:xlink="http://www.w3.org/1999/xlink" contentStyleType="text/css" data-diagram-type="CLASS" height="223px" preserveAspectRatio="none" style="width:448px;height:223px;background:#FFFFFF;" version="1.1" viewBox="0 0 448 223" width="448px" zoomAndPan="magnify"><defs/><g><!--class VERSIONED_FOLDER--><g class="entity" data-entity="VERSIONED_FOLDER" data-source-line="2" data-uid="ent0002" id="entity_VERSIONED_FOLDER"><rect fill="#F1F1F1" height="48" rx="2.5" ry="2.5" style="stroke:#181818;stroke-width:0.5;" width="167.4635" x="11.27" y="143.2"/><ellipse cx="26.27" cy="159.2" fill="#ADD1B2" rx="11" ry="11" style="stroke:#181818;stroke-width:1;"/><path d="M26.27,165.6219 C27.4419,165.6219 28.6763,165.3563 30.0513,164.7469 L29.5669,163.2313 C28.4731,163.6531 27.4575,163.8406 26.5981,163.8406 C23.8794,163.8406 22.1606,161.9969 22.1606,159.0906 C22.1606,156.3406 23.7231,154.7469 26.4575,154.7469 C27.3794,154.7469 28.395,154.9344 29.5356,155.3563 L30.1138,153.8406 C29.02,153.2625 27.7231,152.9656 26.5356,152.9656 C22.77,152.9656 20.1919,155.6063 20.1919,159.4188 C20.1919,163.0906 22.6763,165.6219 26.27,165.6219 Z " fill="#000000"/><text fill="#000000" font-family="sans-serif" font-size="14" lengthAdjust="spacing" textLength="135.4635" x="40.27" y="164.562">VERSIONED_FOLDER</text><line style="stroke:#181818;stroke-width:0.5;" x1="12.27" x2="177.7335" y1="175.2" y2="175.2"/><line style="stroke:#181818;stroke-width:0.5;" x1="12.27" x2="177.7335" y1="183.2" y2="183.2"/></g><!--class VERSIONED_OBJECT--><g class="entity" data-entity="VERSIONED_OBJECT" data-source-line="5" data-uid="ent0003" id="entity_VERSIONED_OBJECT"><rect fill="#F5F5F5" height="48" rx="2.5" ry="2.5" style="stroke:#808080;stroke-width:1;stroke-dasharray:1,3;" width="176.0015" x="7" y="10"/><ellipse cx="22" cy="26" fill="#ADD1B2" rx="11" ry="11" style="stroke:#181818;stroke-width:1;"/><path d="M22,32.4219 C23.1719,32.4219 24.4063,32.1563 25.7813,31.5469 L25.2969,30.0313 C24.2031,30.4531 23.1875,30.6406 22.3281,30.6406 C19.6094,30.6406 17.8906,28.7969 17.8906,25.8906 C17.8906,23.1406 19.4531,21.5469 22.1875,21.5469 C23.1094,21.5469 24.125,21.7344 25.2656,22.1563 L25.8438,20.6406 C24.75,20.0625 23.4531,19.7656 22.2656,19.7656 C18.5,19.7656 15.9219,22.4063 15.9219,26.2188 C15.9219,29.8906 18.4063,32.4219 22,32.4219 Z " fill="#000000"/><text fill="#808080" font-family="sans-serif" font-size="14" lengthAdjust="spacing" textLength="133.2095" x="36" y="31.362">VERSIONED_OBJECT</text><rect fill="#FFFFFF" height="16.4001" style="stroke:#181818;stroke-width:1;stroke-dasharray:2,2;" width="8.7921" x="177.2095" y="7"/><text fill="#000000" font-family="sans-serif" font-size="12" font-style="italic" lengthAdjust="spacing" textLength="6.7921" x="178.2095" y="19.7961">T</text><line style="stroke:#808080;stroke-width:1;stroke-dasharray:1,3;" x1="8" x2="182.0015" y1="42" y2="42"/><line style="stroke:#808080;stroke-width:1;stroke-dasharray:1,3;" x1="8" x2="182.0015" y1="50" y2="50"/></g><!--class FOLDER--><g class="entity" data-entity="FOLDER" data-source-line="8" data-uid="ent0004" id="entity_FOLDER"><rect fill="#F1F1F1" height="98.3998" rx="2.5" ry="2.5" style="stroke:#181818;stroke-width:0.5;" width="227.5432" x="214.23" y="118"/><ellipse cx="297.5437" cy="134" fill="#ADD1B2" rx="11" ry="11" style="stroke:#181818;stroke-width:1;"/><path d="M297.5437,140.4219 C298.7156,140.4219 299.9499,140.1563 301.3249,139.5469 L300.8406,138.0313 C299.7468,138.4531 298.7312,138.6406 297.8718,138.6406 C295.1531,138.6406 293.4343,136.7969 293.4343,133.8906 C293.4343,131.1406 294.9968,129.5469 297.7312,129.5469 C298.6531,129.5469 299.6687,129.7344 300.8093,130.1563 L301.3874,128.6406 C300.2937,128.0625 298.9968,127.7656 297.8093,127.7656 C294.0437,127.7656 291.4656,130.4063 291.4656,134.2188 C291.4656,137.8906 293.9499,140.4219 297.5437,140.4219 Z " fill="#000000"/><text fill="#000000" font-family="sans-serif" font-size="14" lengthAdjust="spacing" textLength="52.4158" x="318.0437" y="139.362">FOLDER</text><line style="stroke:#181818;stroke-width:0.5;" x1="215.23" x2="440.7732" y1="150" y2="150"/><ellipse cx="225.23" cy="163.9" fill="none" rx="3" ry="3" style="stroke:#038048;stroke-width:1;"/><text fill="#000000" font-family="sans-serif" font-size="14" lengthAdjust="spacing" textLength="184.1972" x="234.23" y="167.7619">items : List&lt;OBJECT_REF&gt; [*]</text><ellipse cx="225.23" cy="180.6999" fill="none" rx="3" ry="3" style="stroke:#038048;stroke-width:1;"/><text fill="#000000" font-family="sans-serif" font-size="14" lengthAdjust="spacing" textLength="163.6593" x="234.23" y="184.5619">folders : List&lt;FOLDER&gt; [*]</text><ellipse cx="225.23" cy="197.4998" fill="none" rx="3" ry="3" style="stroke:#038048;stroke-width:1;"/><text fill="#000000" font-family="sans-serif" font-size="14" lengthAdjust="spacing" textLength="201.5432" x="234.23" y="201.3618">details : ITEM_STRUCTURE [0..1]</text><line style="stroke:#181818;stroke-width:0.5;" x1="215.23" x2="440.7732" y1="208.3998" y2="208.3998"/></g><!--class LOCATABLE--><g class="entity" data-entity="LOCATABLE" data-source-line="14" data-uid="ent0005" id="entity_LOCATABLE"><rect fill="#F5F5F5" height="48" rx="2.5" ry="2.5" style="stroke:#808080;stroke-width:1;stroke-dasharray:1,3;" width="108.2857" x="273.86" y="10"/><ellipse cx="288.86" cy="26" fill="#A9DCDF" rx="11" ry="11" style="stroke:#181818;stroke-width:1;"/><path d="M283.3756,31.5 L285.4069,31.5 L289.4538,20.1563 L288.5475,20.1563 L292.3756,31.5 L294.5163,31.5 L290.1881,19.1719 L287.9694,19.1719 L283.3756,31.5 Z M285.7038,28 L292.1413,28 L292.1413,26.25 L285.7038,26.25 L285.7038,28 Z " fill="#000000"/><text fill="#808080" font-family="sans-serif" font-size="14" font-style="italic" lengthAdjust="spacing" textLength="76.2857" x="302.86" y="31.362">LOCATABLE</text><line style="stroke:#808080;stroke-width:1;stroke-dasharray:1,3;" x1="274.86" x2="381.1457" y1="42" y2="42"/><line style="stroke:#808080;stroke-width:1;stroke-dasharray:1,3;" x1="274.86" x2="381.1457" y1="50" y2="50"/></g><!--reverse link VERSIONED_OBJECT to VERSIONED_FOLDER--><g class="link" data-entity-1="VERSIONED_OBJECT" data-entity-2="VERSIONED_FOLDER" data-source-line="17" data-uid="lnk6" id="link_VERSIONED_OBJECT_VERSIONED_FOLDER"><path codeLine="17" d="M95,76.46 C95,100.34 95,119.14 95,142.95" fill="none" id="VERSIONED_OBJECT-backto-VERSIONED_FOLDER" style="stroke:#181818;stroke-width:1;"/><polygon fill="none" points="95,58.46,89,76.46,101,76.46,95,58.46" style="stroke:#181818;stroke-width:1;"/></g><!--reverse link LOCATABLE to FOLDER--><g class="link" data-entity-1="LOCATABLE" data-entity-2="FOLDER" data-source-line="18" data-uid="lnk7" id="link_LOCATABLE_FOLDER"><path codeLine="18" d="M328,76.46 C328,92.89 328,97.45 328,117.68" fill="none" id="LOCATABLE-backto-FOLDER" style="stroke:#181818;stroke-width:1;"/><polygon fill="none" points="328,58.46,322,76.46,334,76.46,328,58.46" style="stroke:#181818;stroke-width:1;"/></g></g></svg>
