<svg xmlns="http://www.w3.org/2000/svg" xmlns:xlink="http://www.w3.org/1999/xlink" contentStyleType="text/css" data-diagram-type="CLASS" height="540px" preserveAspectRatio="none" style="width:2237px;height:540px;background:#FFFFFF;" version="1.1" viewBox="0 0 2237 540" width="2237px" zoomAndPan="magnify"><defs/><g><!--class PARTY--><g class="entity" data-entity="PARTY" data-source-line="2" data-uid="ent0002" id="entity_PARTY"><rect fill="#F1F1F1" height="148.7996" rx="2.5" ry="2.5" style="stroke:#181818;stroke-width:0.5;" width="334.9507" x="147.12" y="118"/><ellipse cx="289.4715" cy="134" fill="#A9DCDF" rx="11" ry="11" style="stroke:#181818;stroke-width:1;"/><path d="M283.9871,139.5 L286.0183,139.5 L290.0652,128.1563 L289.159,128.1563 L292.9871,139.5 L295.1277,139.5 L290.7996,127.1719 L288.5808,127.1719 L283.9871,139.5 Z M286.3152,136 L292.7527,136 L292.7527,134.25 L286.3152,134.25 L286.3152,136 Z " fill="#000000"/><text fill="#000000" font-family="sans-serif" font-size="14" font-style="italic" lengthAdjust="spacing" textLength="41.7478" x="309.9715" y="139.362">PARTY</text><line style="stroke:#181818;stroke-width:0.5;" x1="148.12" x2="481.0707" y1="150" y2="150"/><ellipse cx="158.12" cy="163.9" fill="none" rx="3" ry="3" style="stroke:#038048;stroke-width:1;"/><text fill="#000000" font-family="sans-serif" font-size="14" lengthAdjust="spacing" textLength="247.057" x="167.12" y="167.7619">identities : List&lt;PARTY_IDENTITY&gt; [1..*]</text><ellipse cx="158.12" cy="180.6999" fill="none" rx="3" ry="3" style="stroke:#038048;stroke-width:1;"/><text fill="#000000" font-family="sans-serif" font-size="14" lengthAdjust="spacing" textLength="184.0433" x="167.12" y="184.5619">contacts : List&lt;CONTACT&gt; [*]</text><ellipse cx="158.12" cy="197.4998" fill="none" rx="3" ry="3" style="stroke:#038048;stroke-width:1;"/><text fill="#000000" font-family="sans-serif" font-size="14" lengthAdjust="spacing" textLength="201.5432" x="167.12" y="201.3618">details : ITEM_STRUCTURE [0..1]</text><ellipse cx="158.12" cy="214.2997" fill="none" rx="3" ry="3" style="stroke:#038048;stroke-width:1;"/><text fill="#000000" font-family="sans-serif" font-size="14" lengthAdjust="spacing" textLength="308.9507" x="167.12" y="218.1617">reverse_relationships : List&lt;LOCATABLE_REF&gt; [*]</text><ellipse cx="158.12" cy="231.0997" fill="none" rx="3" ry="3" style="stroke:#038048;stroke-width:1;"/><text fill="#000000" font-family="sans-serif" font-size="14" lengthAdjust="spacing" textLength="292.0668" x="167.12" y="234.9616">relationships : List&lt;PARTY_RELATIONSHIP&gt; [*]</text><line style="stroke:#181818;stroke-width:0.5;" x1="148.12" x2="481.0707" y1="241.9996" y2="241.9996"/><ellipse cx="158.12" cy="255.8996" fill="#84BE84" rx="3" ry="3" style="stroke:#038048;stroke-width:1;"/><text fill="#000000" font-family="sans-serif" font-size="14" lengthAdjust="spacing" textLength="121.8975" x="167.12" y="259.7616">type() : DV_TEXT [1]</text></g><!--class LOCATABLE--><g class="entity" data-entity="LOCATABLE" data-source-line="11" data-uid="ent0003" id="entity_LOCATABLE"><rect fill="#F5F5F5" height="48" rx="2.5" ry="2.5" style="stroke:#808080;stroke-width:1;stroke-dasharray:1,3;" width="108.2857" x="1042.45" y="10"/><ellipse cx="1057.45" cy="26" fill="#A9DCDF" rx="11" ry="11" style="stroke:#181818;stroke-width:1;"/><path d="M1051.9656,31.5 L1053.9969,31.5 L1058.0438,20.1563 L1057.1375,20.1563 L1060.9656,31.5 L1063.1063,31.5 L1058.7781,19.1719 L1056.5594,19.1719 L1051.9656,31.5 Z M1054.2938,28 L1060.7313,28 L1060.7313,26.25 L1054.2938,26.25 L1054.2938,28 Z " fill="#000000"/><text fill="#808080" font-family="sans-serif" font-size="14" font-style="italic" lengthAdjust="spacing" textLength="76.2857" x="1071.45" y="31.362">LOCATABLE</text><line style="stroke:#808080;stroke-width:1;stroke-dasharray:1,3;" x1="1043.45" x2="1149.7357" y1="42" y2="42"/><line style="stroke:#808080;stroke-width:1;stroke-dasharray:1,3;" x1="1043.45" x2="1149.7357" y1="50" y2="50"/></g><!--class CONTACT--><g class="entity" data-entity="CONTACT" data-source-line="14" data-uid="ent0004" id="entity_CONTACT"><rect fill="#F1F1F1" height="98.3998" rx="2.5" ry="2.5" style="stroke:#181818;stroke-width:0.5;" width="315.1828" x="517" y="143.2"/><ellipse cx="638.4355" cy="159.2" fill="#ADD1B2" rx="11" ry="11" style="stroke:#181818;stroke-width:1;"/><path d="M638.4355,165.6219 C639.6074,165.6219 640.8418,165.3563 642.2168,164.7469 L641.7324,163.2313 C640.6387,163.6531 639.623,163.8406 638.7637,163.8406 C636.0449,163.8406 634.3262,161.9969 634.3262,159.0906 C634.3262,156.3406 635.8887,154.7469 638.623,154.7469 C639.5449,154.7469 640.5605,154.9344 641.7012,155.3563 L642.2793,153.8406 C641.1855,153.2625 639.8887,152.9656 638.7012,152.9656 C634.9355,152.9656 632.3574,155.6063 632.3574,159.4188 C632.3574,163.0906 634.8418,165.6219 638.4355,165.6219 Z " fill="#000000"/><text fill="#000000" font-family="sans-serif" font-size="14" lengthAdjust="spacing" textLength="63.8117" x="658.9355" y="164.562">CONTACT</text><line style="stroke:#181818;stroke-width:0.5;" x1="518" x2="831.1828" y1="175.2" y2="175.2"/><ellipse cx="528" cy="189.1" fill="none" rx="3" ry="3" style="stroke:#038048;stroke-width:1;"/><text fill="#000000" font-family="sans-serif" font-size="14" lengthAdjust="spacing" textLength="204.2872" x="537" y="192.9619">addresses : List&lt;ADDRESS&gt; [1..*]</text><ellipse cx="528" cy="205.8999" fill="none" rx="3" ry="3" style="stroke:#038048;stroke-width:1;"/><text fill="#000000" font-family="sans-serif" font-size="14" lengthAdjust="spacing" textLength="289.1828" x="537" y="209.7619">time_validity : DV_INTERVAL&lt;DV_DATE&gt; [0..1]</text><line style="stroke:#181818;stroke-width:0.5;" x1="518" x2="831.1828" y1="216.7999" y2="216.7999"/><ellipse cx="528" cy="230.6998" fill="#84BE84" rx="3" ry="3" style="stroke:#038048;stroke-width:1;"/><text fill="#000000" font-family="sans-serif" font-size="14" lengthAdjust="spacing" textLength="145.6414" x="537" y="234.5618">purpose() : DV_TEXT [1]</text></g><!--class ADDRESS--><g class="entity" data-entity="ADDRESS" data-source-line="20" data-uid="ent0005" id="entity_ADDRESS"><rect fill="#F1F1F1" height="81.5999" rx="2.5" ry="2.5" style="stroke:#181818;stroke-width:0.5;" width="211.7793" x="866.7" y="151.6"/><ellipse cx="937.8337" cy="167.6" fill="#ADD1B2" rx="11" ry="11" style="stroke:#181818;stroke-width:1;"/><path d="M937.8337,174.0219 C939.0056,174.0219 940.24,173.7563 941.615,173.1469 L941.1306,171.6313 C940.0369,172.0531 939.0212,172.2406 938.1619,172.2406 C935.4431,172.2406 933.7244,170.3969 933.7244,167.4906 C933.7244,164.7406 935.2869,163.1469 938.0212,163.1469 C938.9431,163.1469 939.9587,163.3344 941.0994,163.7563 L941.6775,162.2406 C940.5837,161.6625 939.2869,161.3656 938.0994,161.3656 C934.3337,161.3656 931.7556,164.0063 931.7556,167.8188 C931.7556,171.4906 934.24,174.0219 937.8337,174.0219 Z " fill="#000000"/><text fill="#000000" font-family="sans-serif" font-size="14" lengthAdjust="spacing" textLength="61.0118" x="958.3337" y="172.962">ADDRESS</text><line style="stroke:#181818;stroke-width:0.5;" x1="867.7" x2="1077.4793" y1="183.6" y2="183.6"/><ellipse cx="877.7" cy="197.5" fill="none" rx="3" ry="3" style="stroke:#038048;stroke-width:1;"/><text fill="#000000" font-family="sans-serif" font-size="14" lengthAdjust="spacing" textLength="185.7793" x="886.7" y="201.3619">details : ITEM_STRUCTURE [1]</text><line style="stroke:#181818;stroke-width:0.5;" x1="867.7" x2="1077.4793" y1="208.3999" y2="208.3999"/><ellipse cx="877.7" cy="222.2999" fill="#84BE84" rx="3" ry="3" style="stroke:#038048;stroke-width:1;"/><text fill="#000000" font-family="sans-serif" font-size="14" lengthAdjust="spacing" textLength="121.8975" x="886.7" y="226.1619">type() : DV_TEXT [1]</text></g><!--class PARTY_IDENTITY--><g class="entity" data-entity="PARTY_IDENTITY" data-source-line="25" data-uid="ent0006" id="entity_PARTY_IDENTITY"><rect fill="#F1F1F1" height="81.5999" rx="2.5" ry="2.5" style="stroke:#181818;stroke-width:0.5;" width="211.7793" x="1113.7" y="151.6"/><ellipse cx="1160.9289" cy="167.6" fill="#ADD1B2" rx="11" ry="11" style="stroke:#181818;stroke-width:1;"/><path d="M1160.9289,174.0219 C1162.1007,174.0219 1163.3351,173.7563 1164.7101,173.1469 L1164.2257,171.6313 C1163.132,172.0531 1162.1164,172.2406 1161.257,172.2406 C1158.5382,172.2406 1156.8195,170.3969 1156.8195,167.4906 C1156.8195,164.7406 1158.382,163.1469 1161.1164,163.1469 C1162.0382,163.1469 1163.0539,163.3344 1164.1945,163.7563 L1164.7726,162.2406 C1163.6789,161.6625 1162.382,161.3656 1161.1945,161.3656 C1157.4289,161.3656 1154.8507,164.0063 1154.8507,167.8188 C1154.8507,171.4906 1157.3351,174.0219 1160.9289,174.0219 Z " fill="#000000"/><text fill="#000000" font-family="sans-serif" font-size="14" lengthAdjust="spacing" textLength="108.8215" x="1181.4289" y="172.962">PARTY_IDENTITY</text><line style="stroke:#181818;stroke-width:0.5;" x1="1114.7" x2="1324.4793" y1="183.6" y2="183.6"/><ellipse cx="1124.7" cy="197.5" fill="none" rx="3" ry="3" style="stroke:#038048;stroke-width:1;"/><text fill="#000000" font-family="sans-serif" font-size="14" lengthAdjust="spacing" textLength="185.7793" x="1133.7" y="201.3619">details : ITEM_STRUCTURE [1]</text><line style="stroke:#181818;stroke-width:0.5;" x1="1114.7" x2="1324.4793" y1="208.3999" y2="208.3999"/><ellipse cx="1124.7" cy="222.2999" fill="#84BE84" rx="3" ry="3" style="stroke:#038048;stroke-width:1;"/><text fill="#000000" font-family="sans-serif" font-size="14" lengthAdjust="spacing" textLength="145.6414" x="1133.7" y="226.1619">purpose() : DV_TEXT [1]</text></g><!--class ROLE--><g class="entity" data-entity="ROLE" data-source-line="30" data-uid="ent0007" id="entity_ROLE"><rect fill="#F1F1F1" height="98.3998" rx="2.5" ry="2.5" style="stroke:#181818;stroke-width:0.5;" width="315.1828" x="7" y="326.8"/><ellipse cx="143.0515" cy="342.8" fill="#ADD1B2" rx="11" ry="11" style="stroke:#181818;stroke-width:1;"/><path d="M143.0515,349.2219 C144.2234,349.2219 145.4577,348.9563 146.8327,348.3469 L146.3484,346.8313 C145.2546,347.2531 144.239,347.4406 143.3796,347.4406 C140.6609,347.4406 138.9421,345.5969 138.9421,342.6906 C138.9421,339.9406 140.5046,338.3469 143.239,338.3469 C144.1609,338.3469 145.1765,338.5344 146.3171,338.9563 L146.8952,337.4406 C145.8015,336.8625 144.5046,336.5656 143.3171,336.5656 C139.5515,336.5656 136.9734,339.2063 136.9734,343.0188 C136.9734,346.6906 139.4577,349.2219 143.0515,349.2219 Z " fill="#000000"/><text fill="#000000" font-family="sans-serif" font-size="14" lengthAdjust="spacing" textLength="34.5798" x="163.5515" y="348.162">ROLE</text><line style="stroke:#181818;stroke-width:0.5;" x1="8" x2="321.1828" y1="358.8" y2="358.8"/><ellipse cx="18" cy="372.7" fill="none" rx="3" ry="3" style="stroke:#038048;stroke-width:1;"/><text fill="#000000" font-family="sans-serif" font-size="14" lengthAdjust="spacing" textLength="289.1828" x="27" y="376.5619">time_validity : DV_INTERVAL&lt;DV_DATE&gt; [0..1]</text><ellipse cx="18" cy="389.4999" fill="none" rx="3" ry="3" style="stroke:#038048;stroke-width:1;"/><text fill="#000000" font-family="sans-serif" font-size="14" lengthAdjust="spacing" textLength="165.7453" x="27" y="393.3619">performer : PARTY_REF [1]</text><ellipse cx="18" cy="406.2998" fill="none" rx="3" ry="3" style="stroke:#038048;stroke-width:1;"/><text fill="#000000" font-family="sans-serif" font-size="14" lengthAdjust="spacing" textLength="211.7631" x="27" y="410.1618">capabilities : List&lt;CAPABILITY&gt; [*]</text><line style="stroke:#181818;stroke-width:0.5;" x1="8" x2="321.1828" y1="417.1998" y2="417.1998"/></g><!--class ACTOR--><g class="entity" data-entity="ACTOR" data-source-line="36" data-uid="ent0008" id="entity_ACTOR"><rect fill="#F1F1F1" height="81.5999" rx="2.5" ry="2.5" style="stroke:#181818;stroke-width:0.5;" width="215.0972" x="357.04" y="335.2"/><ellipse cx="437.8197" cy="351.2" fill="#A9DCDF" rx="11" ry="11" style="stroke:#181818;stroke-width:1;"/><path d="M432.3353,356.7 L434.3666,356.7 L438.4135,345.3563 L437.5072,345.3563 L441.3353,356.7 L443.476,356.7 L439.1478,344.3719 L436.9291,344.3719 L432.3353,356.7 Z M434.6635,353.2 L441.101,353.2 L441.101,351.45 L434.6635,351.45 L434.6635,353.2 Z " fill="#000000"/><text fill="#000000" font-family="sans-serif" font-size="14" font-style="italic" lengthAdjust="spacing" textLength="45.0378" x="458.3197" y="356.562">ACTOR</text><line style="stroke:#181818;stroke-width:0.5;" x1="358.04" x2="571.1372" y1="367.2" y2="367.2"/><ellipse cx="368.04" cy="381.1" fill="none" rx="3" ry="3" style="stroke:#038048;stroke-width:1;"/><text fill="#000000" font-family="sans-serif" font-size="14" lengthAdjust="spacing" textLength="189.0972" x="377.04" y="384.9619">languages : List&lt;DV_TEXT&gt; [*]</text><ellipse cx="368.04" cy="397.8999" fill="none" rx="3" ry="3" style="stroke:#038048;stroke-width:1;"/><text fill="#000000" font-family="sans-serif" font-size="14" lengthAdjust="spacing" textLength="171.9893" x="377.04" y="401.7619">roles : List&lt;PARTY_REF&gt; [*]</text><line style="stroke:#181818;stroke-width:0.5;" x1="358.04" x2="571.1372" y1="408.7999" y2="408.7999"/></g><!--class CAPABILITY--><g class="entity" data-entity="CAPABILITY" data-source-line="41" data-uid="ent0009" id="entity_CAPABILITY"><rect fill="#F1F1F1" height="81.5999" rx="2.5" ry="2.5" style="stroke:#181818;stroke-width:0.5;" width="315.1828" x="1360" y="151.6"/><ellipse cx="1476.2206" cy="167.6" fill="#ADD1B2" rx="11" ry="11" style="stroke:#181818;stroke-width:1;"/><path d="M1476.2206,174.0219 C1477.3924,174.0219 1478.6268,173.7563 1480.0018,173.1469 L1479.5174,171.6313 C1478.4237,172.0531 1477.4081,172.2406 1476.5487,172.2406 C1473.8299,172.2406 1472.1112,170.3969 1472.1112,167.4906 C1472.1112,164.7406 1473.6737,163.1469 1476.4081,163.1469 C1477.3299,163.1469 1478.3456,163.3344 1479.4862,163.7563 L1480.0643,162.2406 C1478.9706,161.6625 1477.6737,161.3656 1476.4862,161.3656 C1472.7206,161.3656 1470.1424,164.0063 1470.1424,167.8188 C1470.1424,171.4906 1472.6268,174.0219 1476.2206,174.0219 Z " fill="#000000"/><text fill="#000000" font-family="sans-serif" font-size="14" lengthAdjust="spacing" textLength="74.2417" x="1496.7206" y="172.962">CAPABILITY</text><line style="stroke:#181818;stroke-width:0.5;" x1="1361" x2="1674.1828" y1="183.6" y2="183.6"/><ellipse cx="1371" cy="197.5" fill="none" rx="3" ry="3" style="stroke:#038048;stroke-width:1;"/><text fill="#000000" font-family="sans-serif" font-size="14" lengthAdjust="spacing" textLength="212.9252" x="1380" y="201.3619">credentials : ITEM_STRUCTURE [1]</text><ellipse cx="1371" cy="214.2999" fill="none" rx="3" ry="3" style="stroke:#038048;stroke-width:1;"/><text fill="#000000" font-family="sans-serif" font-size="14" lengthAdjust="spacing" textLength="289.1828" x="1380" y="218.1619">time_validity : DV_INTERVAL&lt;DV_DATE&gt; [0..1]</text><line style="stroke:#181818;stroke-width:0.5;" x1="1361" x2="1674.1828" y1="225.1999" y2="225.1999"/></g><!--class AGENT--><g class="entity" data-entity="AGENT" data-source-line="46" data-uid="ent0010" id="entity_AGENT"><rect fill="#F1F1F1" height="48" rx="2.5" ry="2.5" style="stroke:#181818;stroke-width:0.5;" width="77.3738" x="213.9" y="485.2"/><ellipse cx="228.9" cy="501.2" fill="#ADD1B2" rx="11" ry="11" style="stroke:#181818;stroke-width:1;"/><path d="M228.9,507.6219 C230.0719,507.6219 231.3063,507.3563 232.6813,506.7469 L232.1969,505.2313 C231.1031,505.6531 230.0875,505.8406 229.2281,505.8406 C226.5094,505.8406 224.7906,503.9969 224.7906,501.0906 C224.7906,498.3406 226.3531,496.7469 229.0875,496.7469 C230.0094,496.7469 231.025,496.9344 232.1656,497.3563 L232.7438,495.8406 C231.65,495.2625 230.3531,494.9656 229.1656,494.9656 C225.4,494.9656 222.8219,497.6063 222.8219,501.4188 C222.8219,505.0906 225.3063,507.6219 228.9,507.6219 Z " fill="#000000"/><text fill="#000000" font-family="sans-serif" font-size="14" lengthAdjust="spacing" textLength="45.3738" x="242.9" y="506.562">AGENT</text><line style="stroke:#181818;stroke-width:0.5;" x1="214.9" x2="290.2738" y1="517.2" y2="517.2"/><line style="stroke:#181818;stroke-width:0.5;" x1="214.9" x2="290.2738" y1="525.2" y2="525.2"/></g><!--class ORGANISATION--><g class="entity" data-entity="ORGANISATION" data-source-line="49" data-uid="ent0011" id="entity_ORGANISATION"><rect fill="#F1F1F1" height="48" rx="2.5" ry="2.5" style="stroke:#181818;stroke-width:0.5;" width="133.6396" x="326.77" y="485.2"/><ellipse cx="341.77" cy="501.2" fill="#ADD1B2" rx="11" ry="11" style="stroke:#181818;stroke-width:1;"/><path d="M341.77,507.6219 C342.9419,507.6219 344.1763,507.3563 345.5513,506.7469 L345.0669,505.2313 C343.9731,505.6531 342.9575,505.8406 342.0981,505.8406 C339.3794,505.8406 337.6606,503.9969 337.6606,501.0906 C337.6606,498.3406 339.2231,496.7469 341.9575,496.7469 C342.8794,496.7469 343.895,496.9344 345.0356,497.3563 L345.6138,495.8406 C344.52,495.2625 343.2231,494.9656 342.0356,494.9656 C338.27,494.9656 335.6919,497.6063 335.6919,501.4188 C335.6919,505.0906 338.1763,507.6219 341.77,507.6219 Z " fill="#000000"/><text fill="#000000" font-family="sans-serif" font-size="14" lengthAdjust="spacing" textLength="101.6396" x="355.77" y="506.562">ORGANISATION</text><line style="stroke:#181818;stroke-width:0.5;" x1="327.77" x2="459.4096" y1="517.2" y2="517.2"/><line style="stroke:#181818;stroke-width:0.5;" x1="327.77" x2="459.4096" y1="525.2" y2="525.2"/></g><!--class GROUP--><g class="entity" data-entity="GROUP" data-source-line="52" data-uid="ent0012" id="entity_GROUP"><rect fill="#F1F1F1" height="48" rx="2.5" ry="2.5" style="stroke:#181818;stroke-width:0.5;" width="78.9838" x="495.1" y="485.2"/><ellipse cx="510.1" cy="501.2" fill="#ADD1B2" rx="11" ry="11" style="stroke:#181818;stroke-width:1;"/><path d="M510.1,507.6219 C511.2719,507.6219 512.5063,507.3563 513.8813,506.7469 L513.3969,505.2313 C512.3031,505.6531 511.2875,505.8406 510.4281,505.8406 C507.7094,505.8406 505.9906,503.9969 505.9906,501.0906 C505.9906,498.3406 507.5531,496.7469 510.2875,496.7469 C511.2094,496.7469 512.225,496.9344 513.3656,497.3563 L513.9438,495.8406 C512.85,495.2625 511.5531,494.9656 510.3656,494.9656 C506.6,494.9656 504.0219,497.6063 504.0219,501.4188 C504.0219,505.0906 506.5063,507.6219 510.1,507.6219 Z " fill="#000000"/><text fill="#000000" font-family="sans-serif" font-size="14" lengthAdjust="spacing" textLength="46.9838" x="524.1" y="506.562">GROUP</text><line style="stroke:#181818;stroke-width:0.5;" x1="496.1" x2="573.0838" y1="517.2" y2="517.2"/><line style="stroke:#181818;stroke-width:0.5;" x1="496.1" x2="573.0838" y1="525.2" y2="525.2"/></g><!--class PERSON--><g class="entity" data-entity="PERSON" data-source-line="55" data-uid="ent0013" id="entity_PERSON"><rect fill="#F1F1F1" height="48" rx="2.5" ry="2.5" style="stroke:#181818;stroke-width:0.5;" width="85.9978" x="608.59" y="485.2"/><ellipse cx="623.59" cy="501.2" fill="#ADD1B2" rx="11" ry="11" style="stroke:#181818;stroke-width:1;"/><path d="M623.59,507.6219 C624.7619,507.6219 625.9963,507.3563 627.3713,506.7469 L626.8869,505.2313 C625.7931,505.6531 624.7775,505.8406 623.9181,505.8406 C621.1994,505.8406 619.4806,503.9969 619.4806,501.0906 C619.4806,498.3406 621.0431,496.7469 623.7775,496.7469 C624.6994,496.7469 625.715,496.9344 626.8556,497.3563 L627.4338,495.8406 C626.34,495.2625 625.0431,494.9656 623.8556,494.9656 C620.09,494.9656 617.5119,497.6063 617.5119,501.4188 C617.5119,505.0906 619.9963,507.6219 623.59,507.6219 Z " fill="#000000"/><text fill="#000000" font-family="sans-serif" font-size="14" lengthAdjust="spacing" textLength="53.9978" x="637.59" y="506.562">PERSON</text><line style="stroke:#181818;stroke-width:0.5;" x1="609.59" x2="693.5878" y1="517.2" y2="517.2"/><line style="stroke:#181818;stroke-width:0.5;" x1="609.59" x2="693.5878" y1="525.2" y2="525.2"/></g><!--class PARTY_RELATIONSHIP--><g class="entity" data-entity="PARTY_RELATIONSHIP" data-source-line="58" data-uid="ent0014" id="entity_PARTY_RELATIONSHIP"><rect fill="#F1F1F1" height="131.9996" rx="2.5" ry="2.5" style="stroke:#181818;stroke-width:0.5;" width="315.1828" x="1710" y="126.4"/><ellipse cx="1791.2977" cy="142.4" fill="#ADD1B2" rx="11" ry="11" style="stroke:#181818;stroke-width:1;"/><path d="M1791.2977,148.8219 C1792.4696,148.8219 1793.7039,148.5563 1795.0789,147.9469 L1794.5946,146.4313 C1793.5008,146.8531 1792.4852,147.0406 1791.6258,147.0406 C1788.9071,147.0406 1787.1883,145.1969 1787.1883,142.2906 C1787.1883,139.5406 1788.7508,137.9469 1791.4852,137.9469 C1792.4071,137.9469 1793.4227,138.1344 1794.5633,138.5563 L1795.1414,137.0406 C1794.0477,136.4625 1792.7508,136.1656 1791.5633,136.1656 C1787.7977,136.1656 1785.2196,138.8063 1785.2196,142.6188 C1785.2196,146.2906 1787.7039,148.8219 1791.2977,148.8219 Z " fill="#000000"/><text fill="#000000" font-family="sans-serif" font-size="14" lengthAdjust="spacing" textLength="144.0874" x="1811.7977" y="147.762">PARTY_RELATIONSHIP</text><line style="stroke:#181818;stroke-width:0.5;" x1="1711" x2="2024.1828" y1="158.4" y2="158.4"/><ellipse cx="1721" cy="172.3" fill="none" rx="3" ry="3" style="stroke:#038048;stroke-width:1;"/><text fill="#000000" font-family="sans-serif" font-size="14" lengthAdjust="spacing" textLength="201.5432" x="1730" y="176.1619">details : ITEM_STRUCTURE [0..1]</text><ellipse cx="1721" cy="189.0999" fill="none" rx="3" ry="3" style="stroke:#038048;stroke-width:1;"/><text fill="#000000" font-family="sans-serif" font-size="14" lengthAdjust="spacing" textLength="139.9574" x="1730" y="192.9619">target : PARTY_REF [1]</text><ellipse cx="1721" cy="205.8998" fill="none" rx="3" ry="3" style="stroke:#038048;stroke-width:1;"/><text fill="#000000" font-family="sans-serif" font-size="14" lengthAdjust="spacing" textLength="289.1828" x="1730" y="209.7618">time_validity : DV_INTERVAL&lt;DV_DATE&gt; [0..1]</text><ellipse cx="1721" cy="222.6997" fill="none" rx="3" ry="3" style="stroke:#038048;stroke-width:1;"/><text fill="#000000" font-family="sans-serif" font-size="14" lengthAdjust="spacing" textLength="143.4854" x="1730" y="226.5617">source : PARTY_REF [1]</text><line style="stroke:#181818;stroke-width:0.5;" x1="1711" x2="2024.1828" y1="233.5997" y2="233.5997"/><ellipse cx="1721" cy="247.4997" fill="#84BE84" rx="3" ry="3" style="stroke:#038048;stroke-width:1;"/><text fill="#000000" font-family="sans-serif" font-size="14" lengthAdjust="spacing" textLength="121.8975" x="1730" y="251.3616">type() : DV_TEXT [1]</text></g><!--class VERSIONED_PARTY--><g class="entity" data-entity="VERSIONED_PARTY" data-source-line="66" data-uid="ent0015" id="entity_VERSIONED_PARTY"><rect fill="#F1F1F1" height="48" rx="2.5" ry="2.5" style="stroke:#181818;stroke-width:0.5;" width="156.7955" x="2060.19" y="168.4"/><ellipse cx="2075.19" cy="184.4" fill="#ADD1B2" rx="11" ry="11" style="stroke:#181818;stroke-width:1;"/><path d="M2075.19,190.8219 C2076.3619,190.8219 2077.5963,190.5563 2078.9713,189.9469 L2078.4869,188.4313 C2077.3931,188.8531 2076.3775,189.0406 2075.5181,189.0406 C2072.7994,189.0406 2071.0806,187.1969 2071.0806,184.2906 C2071.0806,181.5406 2072.6431,179.9469 2075.3775,179.9469 C2076.2994,179.9469 2077.315,180.1344 2078.4556,180.5563 L2079.0338,179.0406 C2077.94,178.4625 2076.6431,178.1656 2075.4556,178.1656 C2071.69,178.1656 2069.1119,180.8063 2069.1119,184.6188 C2069.1119,188.2906 2071.5963,190.8219 2075.19,190.8219 Z " fill="#000000"/><text fill="#000000" font-family="sans-serif" font-size="14" lengthAdjust="spacing" textLength="124.7955" x="2089.19" y="189.762">VERSIONED_PARTY</text><line style="stroke:#181818;stroke-width:0.5;" x1="2061.19" x2="2215.9855" y1="200.4" y2="200.4"/><line style="stroke:#181818;stroke-width:0.5;" x1="2061.19" x2="2215.9855" y1="208.4" y2="208.4"/></g><!--class VERSIONED_OBJECT--><g class="entity" data-entity="VERSIONED_OBJECT" data-source-line="69" data-uid="ent0016" id="entity_VERSIONED_OBJECT"><rect fill="#F5F5F5" height="48" rx="2.5" ry="2.5" style="stroke:#808080;stroke-width:1;stroke-dasharray:1,3;" width="176.0015" x="2050.59" y="10"/><ellipse cx="2065.59" cy="26" fill="#ADD1B2" rx="11" ry="11" style="stroke:#181818;stroke-width:1;"/><path d="M2065.59,32.4219 C2066.7619,32.4219 2067.9963,32.1563 2069.3713,31.5469 L2068.8869,30.0313 C2067.7931,30.4531 2066.7775,30.6406 2065.9181,30.6406 C2063.1994,30.6406 2061.4806,28.7969 2061.4806,25.8906 C2061.4806,23.1406 2063.0431,21.5469 2065.7775,21.5469 C2066.6994,21.5469 2067.715,21.7344 2068.8556,22.1563 L2069.4338,20.6406 C2068.34,20.0625 2067.0431,19.7656 2065.8556,19.7656 C2062.09,19.7656 2059.5119,22.4063 2059.5119,26.2188 C2059.5119,29.8906 2061.9963,32.4219 2065.59,32.4219 Z " fill="#000000"/><text fill="#808080" font-family="sans-serif" font-size="14" lengthAdjust="spacing" textLength="133.2095" x="2079.59" y="31.362">VERSIONED_OBJECT</text><rect fill="#FFFFFF" height="16.4001" style="stroke:#181818;stroke-width:1;stroke-dasharray:2,2;" width="8.7921" x="2220.7995" y="7"/><text fill="#000000" font-family="sans-serif" font-size="12" font-style="italic" lengthAdjust="spacing" textLength="6.7921" x="2221.7995" y="19.7961">T</text><line style="stroke:#808080;stroke-width:1;stroke-dasharray:1,3;" x1="2051.59" x2="2225.5915" y1="42" y2="42"/><line style="stroke:#808080;stroke-width:1;stroke-dasharray:1,3;" x1="2051.59" x2="2225.5915" y1="50" y2="50"/></g><!--reverse link LOCATABLE to PARTY--><g class="link" data-entity-1="LOCATABLE" data-entity-2="PARTY" data-source-line="72" data-uid="lnk17" id="link_LOCATABLE_PARTY"><path codeLine="72" d="M1024.2611,39.4053 C918.3111,46.5753 695.38,66.35 499.59,118 C493.91,119.5 488.17,121.12 482.4,122.85" fill="none" id="LOCATABLE-backto-PARTY" style="stroke:#181818;stroke-width:1;"/><polygon fill="none" points="1042.22,38.19,1023.856,33.419,1024.6662,45.3916,1042.22,38.19" style="stroke:#181818;stroke-width:1;"/></g><!--reverse link LOCATABLE to CONTACT--><g class="link" data-entity-1="LOCATABLE" data-entity-2="CONTACT" data-source-line="73" data-uid="lnk18" id="link_LOCATABLE_CONTACT"><path codeLine="73" d="M1025.0705,57.4777 C974.7605,73.5177 915.2,93.26 849.59,118 C829.25,125.67 807.76,134.27 787.07,142.8" fill="none" id="LOCATABLE-backto-CONTACT" style="stroke:#181818;stroke-width:1;"/><polygon fill="none" points="1042.22,52.01,1023.248,51.7612,1026.8931,63.1941,1042.22,52.01" style="stroke:#181818;stroke-width:1;"/></g><!--reverse link LOCATABLE to ADDRESS--><g class="link" data-entity-1="LOCATABLE" data-entity-2="ADDRESS" data-source-line="74" data-uid="lnk19" id="link_LOCATABLE_ADDRESS"><path codeLine="74" d="M1066.8459,72.5237 C1047.3859,97.0637 1027.64,121.97 1004.3,151.4" fill="none" id="LOCATABLE-backto-ADDRESS" style="stroke:#181818;stroke-width:1;"/><polygon fill="none" points="1078.03,58.42,1062.1446,68.7957,1071.5471,76.2518,1078.03,58.42" style="stroke:#181818;stroke-width:1;"/></g><!--reverse link LOCATABLE to PARTY_IDENTITY--><g class="link" data-entity-1="LOCATABLE" data-entity-2="PARTY_IDENTITY" data-source-line="75" data-uid="lnk20" id="link_LOCATABLE_PARTY_IDENTITY"><path codeLine="75" d="M1126.1374,72.5685 C1145.4374,97.1085 1164.99,121.97 1188.14,151.4" fill="none" id="LOCATABLE-backto-PARTY_IDENTITY" style="stroke:#181818;stroke-width:1;"/><polygon fill="none" points="1115.01,58.42,1121.4212,76.2777,1130.8536,68.8594,1115.01,58.42" style="stroke:#181818;stroke-width:1;"/></g><!--reverse link PARTY to ROLE--><g class="link" data-entity-1="PARTY" data-entity-2="ROLE" data-source-line="76" data-uid="lnk21" id="link_PARTY_ROLE"><path codeLine="76" d="M242.1212,281.1415 C225.6612,301.0815 219.72,308.26 204.71,326.42" fill="none" id="PARTY-backto-ROLE" style="stroke:#181818;stroke-width:1;"/><polygon fill="none" points="253.58,267.26,237.494,277.3219,246.7483,284.9611,253.58,267.26" style="stroke:#181818;stroke-width:1;"/></g><!--reverse link PARTY to ACTOR--><g class="link" data-entity-1="PARTY" data-entity-2="ACTOR" data-source-line="77" data-uid="lnk22" id="link_PARTY_ACTOR"><path codeLine="77" d="M387.0617,281.1391 C406.1217,304.2191 414.97,314.93 431.37,334.78" fill="none" id="PARTY-backto-ACTOR" style="stroke:#181818;stroke-width:1;"/><polygon fill="none" points="375.6,267.26,382.4353,284.9597,391.6881,277.3185,375.6,267.26" style="stroke:#181818;stroke-width:1;"/></g><!--reverse link LOCATABLE to CAPABILITY--><g class="link" data-entity-1="LOCATABLE" data-entity-2="CAPABILITY" data-source-line="78" data-uid="lnk23" id="link_LOCATABLE_CAPABILITY"><path codeLine="78" d="M1168.3612,57.6837 C1218.4712,73.7437 1277.45,93.39 1342.59,118 C1369.56,128.19 1398.54,139.99 1425,151.11" fill="none" id="LOCATABLE-backto-CAPABILITY" style="stroke:#181818;stroke-width:1;"/><polygon fill="none" points="1151.22,52.19,1166.53,63.3974,1170.1924,51.9699,1151.22,52.19" style="stroke:#181818;stroke-width:1;"/></g><!--reverse link ACTOR to AGENT--><g class="link" data-entity-1="ACTOR" data-entity-2="AGENT" data-source-line="79" data-uid="lnk24" id="link_ACTOR_AGENT"><path codeLine="79" d="M384.2334,426.7314 C348.4534,448.8714 320.62,466.1 290.37,484.82" fill="none" id="ACTOR-backto-AGENT" style="stroke:#181818;stroke-width:1;"/><polygon fill="none" points="399.54,417.26,381.0763,421.6292,387.3906,431.8336,399.54,417.26" style="stroke:#181818;stroke-width:1;"/></g><!--reverse link ACTOR to ORGANISATION--><g class="link" data-entity-1="ACTOR" data-entity-2="ORGANISATION" data-source-line="80" data-uid="lnk25" id="link_ACTOR_ORGANISATION"><path codeLine="80" d="M434.3313,432.9096 C422.3413,455.0596 416.43,465.99 406.28,484.76" fill="none" id="ACTOR-backto-ORGANISATION" style="stroke:#181818;stroke-width:1;"/><polygon fill="none" points="442.9,417.08,429.0547,430.0534,439.6078,435.7659,442.9,417.08" style="stroke:#181818;stroke-width:1;"/></g><!--reverse link ACTOR to GROUP--><g class="link" data-entity-1="ACTOR" data-entity-2="GROUP" data-source-line="81" data-uid="lnk26" id="link_ACTOR_GROUP"><path codeLine="81" d="M494.4443,432.9604 C506.2643,455.1104 512.07,465.99 522.08,484.76" fill="none" id="ACTOR-backto-GROUP" style="stroke:#181818;stroke-width:1;"/><polygon fill="none" points="485.97,417.08,489.1509,435.7851,499.7378,430.1356,485.97,417.08" style="stroke:#181818;stroke-width:1;"/></g><!--reverse link ACTOR to PERSON--><g class="link" data-entity-1="ACTOR" data-entity-2="PERSON" data-source-line="82" data-uid="lnk27" id="link_ACTOR_PERSON"><path codeLine="82" d="M536.7056,427.5974 C568.2656,449.7374 591.59,466.1 618.27,484.82" fill="none" id="ACTOR-backto-PERSON" style="stroke:#181818;stroke-width:1;"/><polygon fill="none" points="521.97,417.26,533.2599,432.5092,540.1514,422.6855,521.97,417.26" style="stroke:#181818;stroke-width:1;"/></g><!--reverse link LOCATABLE to PARTY_RELATIONSHIP--><g class="link" data-entity-1="LOCATABLE" data-entity-2="PARTY_RELATIONSHIP" data-source-line="83" data-uid="lnk28" id="link_LOCATABLE_PARTY_RELATIONSHIP"><path codeLine="83" d="M1168.9251,38.981 C1274.8551,45.591 1497.64,64.52 1692.59,118 C1701.17,120.35 1709.89,123.03 1718.61,125.93" fill="none" id="LOCATABLE-backto-PARTY_RELATIONSHIP" style="stroke:#181818;stroke-width:1;"/><polygon fill="none" points="1150.96,37.86,1168.5514,44.9694,1169.2987,32.9927,1150.96,37.86" style="stroke:#181818;stroke-width:1;"/></g><!--reverse link VERSIONED_OBJECT to VERSIONED_PARTY--><g class="link" data-entity-1="VERSIONED_OBJECT" data-entity-2="VERSIONED_PARTY" data-source-line="84" data-uid="lnk29" id="link_VERSIONED_OBJECT_VERSIONED_PARTY"><path codeLine="84" d="M2138.59,76.42 C2138.59,105.98 2138.59,138.56 2138.59,168.08" fill="none" id="VERSIONED_OBJECT-backto-VERSIONED_PARTY" style="stroke:#181818;stroke-width:1;"/><polygon fill="none" points="2138.59,58.42,2132.59,76.42,2144.59,76.42,2138.59,58.42" style="stroke:#181818;stroke-width:1;"/></g></g></svg>
