<svg xmlns="http://www.w3.org/2000/svg" xmlns:xlink="http://www.w3.org/1999/xlink" contentStyleType="text/css" data-diagram-type="CLASS" height="445px" preserveAspectRatio="none" style="width:1698px;height:445px;background:#FFFFFF;" version="1.1" viewBox="0 0 1698 445" width="1698px" zoomAndPan="magnify"><defs/><g><!--class DV_DURATION--><g class="entity" data-entity="DV_DURATION" data-source-line="2" data-uid="ent0002" id="entity_DV_DURATION"><rect fill="#F1F1F1" height="81.5999" rx="2.5" ry="2.5" style="stroke:#181818;stroke-width:0.5;" width="432.1805" x="7" y="115"/><ellipse cx="171.3454" cy="131" fill="#ADD1B2" rx="11" ry="11" style="stroke:#181818;stroke-width:1;"/><path d="M171.3454,137.4219 C172.5173,137.4219 173.7517,137.1563 175.1267,136.5469 L174.6423,135.0313 C173.5486,135.4531 172.5329,135.6406 171.6736,135.6406 C168.9548,135.6406 167.2361,133.7969 167.2361,130.8906 C167.2361,128.1406 168.7986,126.5469 171.5329,126.5469 C172.4548,126.5469 173.4704,126.7344 174.6111,127.1563 L175.1892,125.6406 C174.0954,125.0625 172.7986,124.7656 171.6111,124.7656 C167.8454,124.7656 165.2673,127.4063 165.2673,131.2188 C165.2673,134.8906 167.7517,137.4219 171.3454,137.4219 Z " fill="#000000"/><text fill="#000000" font-family="sans-serif" font-size="14" lengthAdjust="spacing" textLength="94.9896" x="191.8454" y="136.362">DV_DURATION</text><line style="stroke:#181818;stroke-width:0.5;" x1="8" x2="438.1805" y1="147" y2="147"/><ellipse cx="18" cy="160.9" fill="none" rx="3" ry="3" style="stroke:#038048;stroke-width:1;"/><text fill="#000000" font-family="sans-serif" font-size="14" lengthAdjust="spacing" textLength="98.9656" x="27" y="164.7619">value : String [1]</text><line style="stroke:#181818;stroke-width:0.5;" x1="8" x2="438.1805" y1="171.7999" y2="171.7999"/><ellipse cx="18" cy="185.6999" fill="#84BE84" rx="3" ry="3" style="stroke:#038048;stroke-width:1;"/><text fill="#000000" font-family="sans-serif" font-size="14" lengthAdjust="spacing" textLength="406.1805" x="27" y="189.5619">is_strictly_comparable_to( other : DV_ORDERED [1] ) : Boolean [1]</text></g><!--class DV_TEMPORAL--><g class="entity" data-entity="DV_TEMPORAL" data-source-line="7" data-uid="ent0003" id="entity_DV_TEMPORAL"><rect fill="#F1F1F1" height="81.5999" rx="2.5" ry="2.5" style="stroke:#181818;stroke-width:0.5;" width="344.1627" x="728.01" y="115"/><ellipse cx="847.3666" cy="131" fill="#A9DCDF" rx="11" ry="11" style="stroke:#181818;stroke-width:1;"/><path d="M841.8822,136.5 L843.9134,136.5 L847.9603,125.1563 L847.0541,125.1563 L850.8822,136.5 L853.0228,136.5 L848.6947,124.1719 L846.4759,124.1719 L841.8822,136.5 Z M844.2103,133 L850.6478,133 L850.6478,131.25 L844.2103,131.25 L844.2103,133 Z " fill="#000000"/><text fill="#000000" font-family="sans-serif" font-size="14" font-style="italic" lengthAdjust="spacing" textLength="96.9496" x="867.8666" y="136.362">DV_TEMPORAL</text><line style="stroke:#181818;stroke-width:0.5;" x1="729.01" x2="1071.1727" y1="147" y2="147"/><ellipse cx="739.01" cy="160.9" fill="none" rx="3" ry="3" style="stroke:#038048;stroke-width:1;"/><text fill="#000000" font-family="sans-serif" font-size="14" lengthAdjust="spacing" textLength="193.0592" x="748.01" y="164.7619">accuracy : DV_DURATION [0..1]</text><line style="stroke:#181818;stroke-width:0.5;" x1="729.01" x2="1071.1727" y1="171.7999" y2="171.7999"/><ellipse cx="739.01" cy="185.6999" fill="#84BE84" rx="3" ry="3" style="stroke:#038048;stroke-width:1;"/><text fill="#000000" font-family="sans-serif" font-size="14" lengthAdjust="spacing" textLength="318.1627" x="748.01" y="189.5619">diff( other : DV_TEMPORAL [1] ) : DV_DURATION [1]</text></g><!--class DV_DATE--><g class="entity" data-entity="DV_DATE" data-source-line="12" data-uid="ent0004" id="entity_DV_DATE"><rect fill="#F1F1F1" height="165.5995" rx="2.5" ry="2.5" style="stroke:#181818;stroke-width:0.5;" width="435.5123" x="314.33" y="265"/><ellipse cx="497.7293" cy="281" fill="#ADD1B2" rx="11" ry="11" style="stroke:#181818;stroke-width:1;"/><path d="M497.7293,287.4219 C498.9011,287.4219 500.1355,287.1563 501.5105,286.5469 L501.0261,285.0313 C499.9324,285.4531 498.9168,285.6406 498.0574,285.6406 C495.3386,285.6406 493.6199,283.7969 493.6199,280.8906 C493.6199,278.1406 495.1824,276.5469 497.9168,276.5469 C498.8386,276.5469 499.8543,276.7344 500.9949,277.1563 L501.573,275.6406 C500.4793,275.0625 499.1824,274.7656 497.9949,274.7656 C494.2293,274.7656 491.6511,277.4063 491.6511,281.2188 C491.6511,284.8906 494.1355,287.4219 497.7293,287.4219 Z " fill="#000000"/><text fill="#000000" font-family="sans-serif" font-size="14" lengthAdjust="spacing" textLength="60.2138" x="518.2293" y="286.362">DV_DATE</text><line style="stroke:#181818;stroke-width:0.5;" x1="315.33" x2="748.8423" y1="297" y2="297"/><ellipse cx="325.33" cy="310.9" fill="none" rx="3" ry="3" style="stroke:#038048;stroke-width:1;"/><text fill="#000000" font-family="sans-serif" font-size="14" lengthAdjust="spacing" textLength="98.9656" x="334.33" y="314.7619">value : String [1]</text><line style="stroke:#181818;stroke-width:0.5;" x1="315.33" x2="748.8423" y1="321.7999" y2="321.7999"/><ellipse cx="325.33" cy="335.6999" fill="#84BE84" rx="3" ry="3" style="stroke:#038048;stroke-width:1;"/><text fill="#000000" font-family="sans-serif" font-size="14" lengthAdjust="spacing" textLength="148.9174" x="334.33" y="339.5619">magnitude() : Integer [1]</text><ellipse cx="325.33" cy="352.4998" fill="#84BE84" rx="3" ry="3" style="stroke:#038048;stroke-width:1;"/><text fill="#000000" font-family="sans-serif" font-size="14" lengthAdjust="spacing" textLength="406.1805" x="334.33" y="356.3618">is_strictly_comparable_to( other : DV_ORDERED [1] ) : Boolean [1]</text><ellipse cx="325.33" cy="369.2997" fill="#84BE84" rx="3" ry="3" style="stroke:#038048;stroke-width:1;"/><text fill="#000000" font-family="sans-serif" font-size="14" lengthAdjust="spacing" textLength="341.5427" x="334.33" y="373.1617">infix &lt;( other_quantity : DV_ORDERED [1] ) : Boolean [1]</text><ellipse cx="325.33" cy="386.0997" fill="#84BE84" rx="3" ry="3" style="stroke:#038048;stroke-width:1;"/><text fill="#000000" font-family="sans-serif" font-size="14" lengthAdjust="spacing" textLength="382.5764" x="334.33" y="389.9616">add( a_diff : DV_AMOUNT [1] ) : DV_ABSOLUTE_QUANTITY [1]</text><ellipse cx="325.33" cy="402.8996" fill="#84BE84" rx="3" ry="3" style="stroke:#038048;stroke-width:1;"/><text fill="#000000" font-family="sans-serif" font-size="14" lengthAdjust="spacing" textLength="409.5123" x="334.33" y="406.7616">subtract( a_diif : DV_AMOUNT [1] ) : DV_ABSOLUTE_QUANTITY [1]</text><ellipse cx="325.33" cy="419.6995" fill="#84BE84" rx="3" ry="3" style="stroke:#038048;stroke-width:1;"/><text fill="#000000" font-family="sans-serif" font-size="14" lengthAdjust="spacing" textLength="281.4269" x="334.33" y="423.5615">diff( other : DV_DATE [1] ) : DV_DURATION [1]</text></g><!--class DV_TIME--><g class="entity" data-entity="DV_TIME" data-source-line="22" data-uid="ent0005" id="entity_DV_TIME"><rect fill="#F1F1F1" height="165.5995" rx="2.5" ry="2.5" style="stroke:#181818;stroke-width:0.5;" width="435.5123" x="785.33" y="265"/><ellipse cx="970.2062" cy="281" fill="#ADD1B2" rx="11" ry="11" style="stroke:#181818;stroke-width:1;"/><path d="M970.2062,287.4219 C971.3781,287.4219 972.6125,287.1563 973.9875,286.5469 L973.5031,285.0313 C972.4094,285.4531 971.3937,285.6406 970.5344,285.6406 C967.8156,285.6406 966.0969,283.7969 966.0969,280.8906 C966.0969,278.1406 967.6594,276.5469 970.3937,276.5469 C971.3156,276.5469 972.3312,276.7344 973.4719,277.1563 L974.05,275.6406 C972.9562,275.0625 971.6594,274.7656 970.4719,274.7656 C966.7062,274.7656 964.1281,277.4063 964.1281,281.2188 C964.1281,284.8906 966.6125,287.4219 970.2062,287.4219 Z " fill="#000000"/><text fill="#000000" font-family="sans-serif" font-size="14" lengthAdjust="spacing" textLength="57.2598" x="990.7062" y="286.362">DV_TIME</text><line style="stroke:#181818;stroke-width:0.5;" x1="786.33" x2="1219.8423" y1="297" y2="297"/><ellipse cx="796.33" cy="310.9" fill="none" rx="3" ry="3" style="stroke:#038048;stroke-width:1;"/><text fill="#000000" font-family="sans-serif" font-size="14" lengthAdjust="spacing" textLength="98.9656" x="805.33" y="314.7619">value : String [1]</text><line style="stroke:#181818;stroke-width:0.5;" x1="786.33" x2="1219.8423" y1="321.7999" y2="321.7999"/><ellipse cx="796.33" cy="335.6999" fill="#84BE84" rx="3" ry="3" style="stroke:#038048;stroke-width:1;"/><text fill="#000000" font-family="sans-serif" font-size="14" lengthAdjust="spacing" textLength="131.2775" x="805.33" y="339.5619">magnitude() : Real [1]</text><ellipse cx="796.33" cy="352.4998" fill="#84BE84" rx="3" ry="3" style="stroke:#038048;stroke-width:1;"/><text fill="#000000" font-family="sans-serif" font-size="14" lengthAdjust="spacing" textLength="406.1805" x="805.33" y="356.3618">is_strictly_comparable_to( other : DV_ORDERED [1] ) : Boolean [1]</text><ellipse cx="796.33" cy="369.2997" fill="#84BE84" rx="3" ry="3" style="stroke:#038048;stroke-width:1;"/><text fill="#000000" font-family="sans-serif" font-size="14" lengthAdjust="spacing" textLength="382.5764" x="805.33" y="373.1617">add( a_diff : DV_AMOUNT [1] ) : DV_ABSOLUTE_QUANTITY [1]</text><ellipse cx="796.33" cy="386.0997" fill="#84BE84" rx="3" ry="3" style="stroke:#038048;stroke-width:1;"/><text fill="#000000" font-family="sans-serif" font-size="14" lengthAdjust="spacing" textLength="409.5123" x="805.33" y="389.9616">subtract( a_diif : DV_AMOUNT [1] ) : DV_ABSOLUTE_QUANTITY [1]</text><ellipse cx="796.33" cy="402.8996" fill="#84BE84" rx="3" ry="3" style="stroke:#038048;stroke-width:1;"/><text fill="#000000" font-family="sans-serif" font-size="14" lengthAdjust="spacing" textLength="289.8129" x="805.33" y="406.7616">operator=( source : DV_TIME [1] ) : DV_TIME [1]</text><ellipse cx="796.33" cy="419.6995" fill="#84BE84" rx="3" ry="3" style="stroke:#038048;stroke-width:1;"/><text fill="#000000" font-family="sans-serif" font-size="14" lengthAdjust="spacing" textLength="278.4729" x="805.33" y="423.5615">diff( other : DV_TIME [1] ) : DV_DURATION [1]</text></g><!--class DV_DATE_TIME--><g class="entity" data-entity="DV_DATE_TIME" data-source-line="32" data-uid="ent0006" id="entity_DV_DATE_TIME"><rect fill="#F1F1F1" height="182.3994" rx="2.5" ry="2.5" style="stroke:#181818;stroke-width:0.5;" width="435.5123" x="1256.33" y="256.6"/><ellipse cx="1420.2973" cy="272.6" fill="#ADD1B2" rx="11" ry="11" style="stroke:#181818;stroke-width:1;"/><path d="M1420.2973,279.0219 C1421.4692,279.0219 1422.7036,278.7563 1424.0786,278.1469 L1423.5942,276.6313 C1422.5005,277.0531 1421.4848,277.2406 1420.6255,277.2406 C1417.9067,277.2406 1416.188,275.3969 1416.188,272.4906 C1416.188,269.7406 1417.7505,268.1469 1420.4848,268.1469 C1421.4067,268.1469 1422.4223,268.3344 1423.563,268.7563 L1424.1411,267.2406 C1423.0473,266.6625 1421.7505,266.3656 1420.563,266.3656 C1416.7973,266.3656 1414.2192,269.0063 1414.2192,272.8188 C1414.2192,276.4906 1416.7036,279.0219 1420.2973,279.0219 Z " fill="#000000"/><text fill="#000000" font-family="sans-serif" font-size="14" lengthAdjust="spacing" textLength="99.0776" x="1440.7973" y="277.962">DV_DATE_TIME</text><line style="stroke:#181818;stroke-width:0.5;" x1="1257.33" x2="1690.8423" y1="288.6" y2="288.6"/><ellipse cx="1267.33" cy="302.5" fill="none" rx="3" ry="3" style="stroke:#038048;stroke-width:1;"/><text fill="#000000" font-family="sans-serif" font-size="14" lengthAdjust="spacing" textLength="98.9656" x="1276.33" y="306.3619">value : String [1]</text><line style="stroke:#181818;stroke-width:0.5;" x1="1257.33" x2="1690.8423" y1="313.3999" y2="313.3999"/><ellipse cx="1267.33" cy="327.2999" fill="#84BE84" rx="3" ry="3" style="stroke:#038048;stroke-width:1;"/><text fill="#000000" font-family="sans-serif" font-size="14" lengthAdjust="spacing" textLength="149.1134" x="1276.33" y="331.1619">magnitude() : Double [1]</text><ellipse cx="1267.33" cy="344.0998" fill="#84BE84" rx="3" ry="3" style="stroke:#038048;stroke-width:1;"/><text fill="#000000" font-family="sans-serif" font-size="14" lengthAdjust="spacing" textLength="406.1805" x="1276.33" y="347.9618">is_strictly_comparable_to( other : DV_ORDERED [1] ) : Boolean [1]</text><ellipse cx="1267.33" cy="360.8997" fill="#84BE84" rx="3" ry="3" style="stroke:#038048;stroke-width:1;"/><text fill="#000000" font-family="sans-serif" font-size="14" lengthAdjust="spacing" textLength="382.5764" x="1276.33" y="364.7617">add( a_diff : DV_AMOUNT [1] ) : DV_ABSOLUTE_QUANTITY [1]</text><ellipse cx="1267.33" cy="377.6997" fill="#84BE84" rx="3" ry="3" style="stroke:#038048;stroke-width:1;"/><text fill="#000000" font-family="sans-serif" font-size="14" lengthAdjust="spacing" textLength="409.5123" x="1276.33" y="381.5616">subtract( a_diif : DV_AMOUNT [1] ) : DV_ABSOLUTE_QUANTITY [1]</text><ellipse cx="1267.33" cy="394.4996" fill="#84BE84" rx="3" ry="3" style="stroke:#038048;stroke-width:1;"/><text fill="#000000" font-family="sans-serif" font-size="14" lengthAdjust="spacing" textLength="378.8804" x="1276.33" y="398.3616">diff( other : DV_ABSOLUTE_QUANTITY [1] ) : DV_AMOUNT [1]</text><ellipse cx="1267.33" cy="411.2995" fill="#84BE84" rx="3" ry="3" style="stroke:#038048;stroke-width:1;"/><text fill="#000000" font-family="sans-serif" font-size="14" lengthAdjust="spacing" textLength="373.4485" x="1276.33" y="415.1615">operator=( source : DV_DATE_TIME [1] ) : DV_DATE_TIME [1]</text><ellipse cx="1267.33" cy="428.0995" fill="#84BE84" rx="3" ry="3" style="stroke:#038048;stroke-width:1;"/><text fill="#000000" font-family="sans-serif" font-size="14" lengthAdjust="spacing" textLength="131.2635" x="1276.33" y="431.9614">as_string() : String [1]</text></g><!--class DV_AMOUNT--><g class="entity" data-entity="DV_AMOUNT" data-source-line="43" data-uid="ent0007" id="entity_DV_AMOUNT"><rect fill="#F1F1F1" height="48" rx="2.5" ry="2.5" style="stroke:#181818;stroke-width:0.5;" width="116.6437" x="82.77" y="7"/><ellipse cx="97.77" cy="23" fill="#ADD1B2" rx="11" ry="11" style="stroke:#181818;stroke-width:1;"/><path d="M97.77,29.4219 C98.9419,29.4219 100.1763,29.1563 101.5513,28.5469 L101.0669,27.0313 C99.9731,27.4531 98.9575,27.6406 98.0981,27.6406 C95.3794,27.6406 93.6606,25.7969 93.6606,22.8906 C93.6606,20.1406 95.2231,18.5469 97.9575,18.5469 C98.8794,18.5469 99.895,18.7344 101.0356,19.1563 L101.6138,17.6406 C100.52,17.0625 99.2231,16.7656 98.0356,16.7656 C94.27,16.7656 91.6919,19.4063 91.6919,23.2188 C91.6919,26.8906 94.1763,29.4219 97.77,29.4219 Z " fill="#000000"/><text fill="#000000" font-family="sans-serif" font-size="14" lengthAdjust="spacing" textLength="84.6437" x="111.77" y="28.362">DV_AMOUNT</text><line style="stroke:#181818;stroke-width:0.5;" x1="83.77" x2="198.4137" y1="39" y2="39"/><line style="stroke:#181818;stroke-width:0.5;" x1="83.77" x2="198.4137" y1="47" y2="47"/></g><!--class Iso8601_duration--><g class="entity" data-entity="Iso8601_duration" data-source-line="44" data-uid="ent0009" id="entity_Iso8601_duration"><rect fill="#F1F1F1" height="48" rx="2.5" ry="2.5" style="stroke:#181818;stroke-width:0.5;" width="140.5836" x="234.8" y="7"/><ellipse cx="249.8" cy="23" fill="#ADD1B2" rx="11" ry="11" style="stroke:#181818;stroke-width:1;"/><path d="M249.8,29.4219 C250.9719,29.4219 252.2063,29.1563 253.5813,28.5469 L253.0969,27.0313 C252.0031,27.4531 250.9875,27.6406 250.1281,27.6406 C247.4094,27.6406 245.6906,25.7969 245.6906,22.8906 C245.6906,20.1406 247.2531,18.5469 249.9875,18.5469 C250.9094,18.5469 251.925,18.7344 253.0656,19.1563 L253.6438,17.6406 C252.55,17.0625 251.2531,16.7656 250.0656,16.7656 C246.3,16.7656 243.7219,19.4063 243.7219,23.2188 C243.7219,26.8906 246.2063,29.4219 249.8,29.4219 Z " fill="#000000"/><text fill="#000000" font-family="sans-serif" font-size="14" lengthAdjust="spacing" textLength="108.5836" x="263.8" y="28.362">Iso8601_duration</text><line style="stroke:#181818;stroke-width:0.5;" x1="235.8" x2="374.3836" y1="39" y2="39"/><line style="stroke:#181818;stroke-width:0.5;" x1="235.8" x2="374.3836" y1="47" y2="47"/></g><!--class DV_ABSOLUTE_QUANTITY--><g class="entity" data-entity="DV_ABSOLUTE_QUANTITY" data-source-line="45" data-uid="ent0011" id="entity_DV_ABSOLUTE_QUANTITY"><rect fill="#F1F1F1" height="48" rx="2.5" ry="2.5" style="stroke:#181818;stroke-width:0.5;" width="200.0133" x="800.08" y="7"/><ellipse cx="815.08" cy="23" fill="#ADD1B2" rx="11" ry="11" style="stroke:#181818;stroke-width:1;"/><path d="M815.08,29.4219 C816.2519,29.4219 817.4863,29.1563 818.8613,28.5469 L818.3769,27.0313 C817.2831,27.4531 816.2675,27.6406 815.4081,27.6406 C812.6894,27.6406 810.9706,25.7969 810.9706,22.8906 C810.9706,20.1406 812.5331,18.5469 815.2675,18.5469 C816.1894,18.5469 817.205,18.7344 818.3456,19.1563 L818.9238,17.6406 C817.83,17.0625 816.5331,16.7656 815.3456,16.7656 C811.58,16.7656 809.0019,19.4063 809.0019,23.2188 C809.0019,26.8906 811.4863,29.4219 815.08,29.4219 Z " fill="#000000"/><text fill="#000000" font-family="sans-serif" font-size="14" lengthAdjust="spacing" textLength="168.0133" x="829.08" y="28.362">DV_ABSOLUTE_QUANTITY</text><line style="stroke:#181818;stroke-width:0.5;" x1="801.08" x2="999.0933" y1="39" y2="39"/><line style="stroke:#181818;stroke-width:0.5;" x1="801.08" x2="999.0933" y1="47" y2="47"/></g><!--class Iso8601_date--><g class="entity" data-entity="Iso8601_date" data-source-line="47" data-uid="ent0014" id="entity_Iso8601_date"><rect fill="#F1F1F1" height="48" rx="2.5" ry="2.5" style="stroke:#181818;stroke-width:0.5;" width="115.5657" x="474.31" y="131.8"/><ellipse cx="489.31" cy="147.8" fill="#ADD1B2" rx="11" ry="11" style="stroke:#181818;stroke-width:1;"/><path d="M489.31,154.2219 C490.4819,154.2219 491.7163,153.9563 493.0913,153.3469 L492.6069,151.8313 C491.5131,152.2531 490.4975,152.4406 489.6381,152.4406 C486.9194,152.4406 485.2006,150.5969 485.2006,147.6906 C485.2006,144.9406 486.7631,143.3469 489.4975,143.3469 C490.4194,143.3469 491.435,143.5344 492.5756,143.9563 L493.1538,142.4406 C492.06,141.8625 490.7631,141.5656 489.5756,141.5656 C485.81,141.5656 483.2319,144.2063 483.2319,148.0188 C483.2319,151.6906 485.7163,154.2219 489.31,154.2219 Z " fill="#000000"/><text fill="#000000" font-family="sans-serif" font-size="14" lengthAdjust="spacing" textLength="83.5657" x="503.31" y="153.162">Iso8601_date</text><line style="stroke:#181818;stroke-width:0.5;" x1="475.31" x2="588.8757" y1="163.8" y2="163.8"/><line style="stroke:#181818;stroke-width:0.5;" x1="475.31" x2="588.8757" y1="171.8" y2="171.8"/></g><!--class Iso8601_time--><g class="entity" data-entity="Iso8601_time" data-source-line="49" data-uid="ent0017" id="entity_Iso8601_time"><rect fill="#F1F1F1" height="48" rx="2.5" ry="2.5" style="stroke:#181818;stroke-width:0.5;" width="116.2657" x="1106.96" y="131.8"/><ellipse cx="1121.96" cy="147.8" fill="#ADD1B2" rx="11" ry="11" style="stroke:#181818;stroke-width:1;"/><path d="M1121.96,154.2219 C1123.1319,154.2219 1124.3663,153.9563 1125.7413,153.3469 L1125.2569,151.8313 C1124.1631,152.2531 1123.1475,152.4406 1122.2881,152.4406 C1119.5694,152.4406 1117.8506,150.5969 1117.8506,147.6906 C1117.8506,144.9406 1119.4131,143.3469 1122.1475,143.3469 C1123.0694,143.3469 1124.085,143.5344 1125.2256,143.9563 L1125.8038,142.4406 C1124.71,141.8625 1123.4131,141.5656 1122.2256,141.5656 C1118.46,141.5656 1115.8819,144.2063 1115.8819,148.0188 C1115.8819,151.6906 1118.3663,154.2219 1121.96,154.2219 Z " fill="#000000"/><text fill="#000000" font-family="sans-serif" font-size="14" lengthAdjust="spacing" textLength="84.2657" x="1135.96" y="153.162">Iso8601_time</text><line style="stroke:#181818;stroke-width:0.5;" x1="1107.96" x2="1222.2257" y1="163.8" y2="163.8"/><line style="stroke:#181818;stroke-width:0.5;" x1="1107.96" x2="1222.2257" y1="171.8" y2="171.8"/></g><!--class Iso8601_date_time--><g class="entity" data-entity="Iso8601_date_time" data-source-line="51" data-uid="ent0020" id="entity_Iso8601_date_time"><rect fill="#F1F1F1" height="48" rx="2.5" ry="2.5" style="stroke:#181818;stroke-width:0.5;" width="150.8595" x="1398.66" y="131.8"/><ellipse cx="1413.66" cy="147.8" fill="#ADD1B2" rx="11" ry="11" style="stroke:#181818;stroke-width:1;"/><path d="M1413.66,154.2219 C1414.8319,154.2219 1416.0663,153.9563 1417.4413,153.3469 L1416.9569,151.8313 C1415.8631,152.2531 1414.8475,152.4406 1413.9881,152.4406 C1411.2694,152.4406 1409.5506,150.5969 1409.5506,147.6906 C1409.5506,144.9406 1411.1131,143.3469 1413.8475,143.3469 C1414.7694,143.3469 1415.785,143.5344 1416.9256,143.9563 L1417.5038,142.4406 C1416.41,141.8625 1415.1131,141.5656 1413.9256,141.5656 C1410.16,141.5656 1407.5819,144.2063 1407.5819,148.0188 C1407.5819,151.6906 1410.0663,154.2219 1413.66,154.2219 Z " fill="#000000"/><text fill="#000000" font-family="sans-serif" font-size="14" lengthAdjust="spacing" textLength="118.8595" x="1427.66" y="153.162">Iso8601_date_time</text><line style="stroke:#181818;stroke-width:0.5;" x1="1399.66" x2="1548.5195" y1="163.8" y2="163.8"/><line style="stroke:#181818;stroke-width:0.5;" x1="1399.66" x2="1548.5195" y1="171.8" y2="171.8"/></g><!--reverse link DV_AMOUNT to DV_DURATION--><g class="link" data-entity-1="DV_AMOUNT" data-entity-2="DV_DURATION" data-source-line="43" data-uid="lnk8" id="link_DV_AMOUNT_DV_DURATION"><path codeLine="43" d="M166.7049,70.36 C177.8549,87.06 183.14,94.98 196.23,114.58" fill="none" id="DV_AMOUNT-backto-DV_DURATION" style="stroke:#181818;stroke-width:1;"/><polygon fill="none" points="156.71,55.39,161.7149,73.6917,171.6949,67.0284,156.71,55.39" style="stroke:#181818;stroke-width:1;"/></g><!--reverse link Iso8601_duration to DV_DURATION--><g class="link" data-entity-1="Iso8601_duration" data-entity-2="DV_DURATION" data-source-line="44" data-uid="lnk10" id="link_Iso8601_duration_DV_DURATION"><path codeLine="44" d="M279.4751,70.36 C268.3251,87.06 263.04,94.98 249.95,114.58" fill="none" id="Iso8601_duration-backto-DV_DURATION" style="stroke:#181818;stroke-width:1;"/><polygon fill="none" points="289.47,55.39,274.4851,67.0284,284.4651,73.6917,289.47,55.39" style="stroke:#181818;stroke-width:1;"/></g><!--reverse link DV_ABSOLUTE_QUANTITY to DV_TEMPORAL--><g class="link" data-entity-1="DV_ABSOLUTE_QUANTITY" data-entity-2="DV_TEMPORAL" data-source-line="45" data-uid="lnk12" id="link_DV_ABSOLUTE_QUANTITY_DV_TEMPORAL"><path codeLine="45" d="M900.09,73.39 C900.09,90.09 900.09,94.98 900.09,114.58" fill="none" id="DV_ABSOLUTE_QUANTITY-backto-DV_TEMPORAL" style="stroke:#181818;stroke-width:1;"/><polygon fill="none" points="900.09,55.39,894.09,73.39,906.09,73.39,900.09,55.39" style="stroke:#181818;stroke-width:1;"/></g><!--reverse link DV_TEMPORAL to DV_DATE--><g class="link" data-entity-1="DV_TEMPORAL" data-entity-2="DV_DATE" data-source-line="46" data-uid="lnk13" id="link_DV_TEMPORAL_DV_DATE"><path codeLine="46" d="M806.0567,205.3491 C767.9667,225.0191 736.7,241.16 691.45,264.52" fill="none" id="DV_TEMPORAL-backto-DV_DATE" style="stroke:#181818;stroke-width:1;"/><polygon fill="none" points="822.05,197.09,803.3036,200.018,808.8097,210.6802,822.05,197.09" style="stroke:#181818;stroke-width:1;"/></g><!--reverse link Iso8601_date to DV_DATE--><g class="link" data-entity-1="Iso8601_date" data-entity-2="DV_DATE" data-source-line="47" data-uid="lnk15" id="link_Iso8601_date_DV_DATE"><path codeLine="47" d="M532.09,198.1 C532.09,219.3 532.09,233.91 532.09,264.67" fill="none" id="Iso8601_date-backto-DV_DATE" style="stroke:#181818;stroke-width:1;"/><polygon fill="none" points="532.09,180.1,526.09,198.1,538.09,198.1,532.09,180.1" style="stroke:#181818;stroke-width:1;"/></g><!--reverse link DV_TEMPORAL to DV_TIME--><g class="link" data-entity-1="DV_TEMPORAL" data-entity-2="DV_TIME" data-source-line="48" data-uid="lnk16" id="link_DV_TEMPORAL_DV_TIME"><path codeLine="48" d="M930.5083,212.9145 C941.1983,232.6345 945.9,241.3 958.59,264.72" fill="none" id="DV_TEMPORAL-backto-DV_TIME" style="stroke:#181818;stroke-width:1;"/><polygon fill="none" points="921.93,197.09,925.2334,215.7739,935.7831,210.055,921.93,197.09" style="stroke:#181818;stroke-width:1;"/></g><!--reverse link Iso8601_time to DV_TIME--><g class="link" data-entity-1="Iso8601_time" data-entity-2="DV_TIME" data-source-line="49" data-uid="lnk18" id="link_Iso8601_time_DV_TIME"><path codeLine="49" d="M1133.5498,193.7958 C1115.4698,214.9958 1099.35,233.91 1073.12,264.67" fill="none" id="Iso8601_time-backto-DV_TIME" style="stroke:#181818;stroke-width:1;"/><polygon fill="none" points="1145.23,180.1,1128.9846,189.9024,1138.1151,197.6891,1145.23,180.1" style="stroke:#181818;stroke-width:1;"/></g><!--reverse link DV_TEMPORAL to DV_DATE_TIME--><g class="link" data-entity-1="DV_TEMPORAL" data-entity-2="DV_DATE_TIME" data-source-line="50" data-uid="lnk19" id="link_DV_TEMPORAL_DV_DATE_TIME"><path codeLine="50" d="M1062.9058,202.0654 C1122.8558,219.3454 1175.49,235.43 1238.09,256.6 C1244.01,258.6 1250,260.66 1256.04,262.76" fill="none" id="DV_TEMPORAL-backto-DV_DATE_TIME" style="stroke:#181818;stroke-width:1;"/><polygon fill="none" points="1045.61,197.08,1061.2441,207.8306,1064.5676,196.3001,1045.61,197.08" style="stroke:#181818;stroke-width:1;"/></g><!--reverse link Iso8601_date_time to DV_DATE_TIME--><g class="link" data-entity-1="Iso8601_date_time" data-entity-2="DV_DATE_TIME" data-source-line="51" data-uid="lnk21" id="link_Iso8601_date_time_DV_DATE_TIME"><path codeLine="51" d="M1474.09,198.1 C1474.09,217.42 1474.09,228.21 1474.09,256.44" fill="none" id="Iso8601_date_time-backto-DV_DATE_TIME" style="stroke:#181818;stroke-width:1;"/><polygon fill="none" points="1474.09,180.1,1468.09,198.1,1480.09,198.1,1474.09,180.1" style="stroke:#181818;stroke-width:1;"/></g></g></svg>
