<svg xmlns="http://www.w3.org/2000/svg" xmlns:xlink="http://www.w3.org/1999/xlink" contentStyleType="text/css" data-diagram-type="CLASS" height="371px" preserveAspectRatio="none" style="width:1385px;height:371px;background:#FFFFFF;" version="1.1" viewBox="0 0 1385 371" width="1385px" zoomAndPan="magnify"><defs/><g><!--class EHR--><g class="entity" data-entity="EHR" data-source-line="2" data-uid="ent0002" id="entity_EHR"><rect fill="#F1F1F1" height="182.3994" rx="2.5" ry="2.5" style="stroke:#181818;stroke-width:0.5;" width="259.0291" x="7" y="7"/><ellipse cx="118.7896" cy="23" fill="#ADD1B2" rx="11" ry="11" style="stroke:#181818;stroke-width:1;"/><path d="M118.7896,29.4219 C119.9615,29.4219 121.1958,29.1563 122.5708,28.5469 L122.0865,27.0313 C120.9927,27.4531 119.9771,27.6406 119.1177,27.6406 C116.399,27.6406 114.6802,25.7969 114.6802,22.8906 C114.6802,20.1406 116.2427,18.5469 118.9771,18.5469 C119.899,18.5469 120.9146,18.7344 122.0552,19.1563 L122.6333,17.6406 C121.5396,17.0625 120.2427,16.7656 119.0552,16.7656 C115.2896,16.7656 112.7115,19.4063 112.7115,23.2188 C112.7115,26.8906 115.1958,29.4219 118.7896,29.4219 Z " fill="#000000"/><text fill="#000000" font-family="sans-serif" font-size="14" lengthAdjust="spacing" textLength="26.9499" x="139.2896" y="28.362">EHR</text><line style="stroke:#181818;stroke-width:0.5;" x1="8" x2="265.0291" y1="39" y2="39"/><ellipse cx="18" cy="52.9" fill="none" rx="3" ry="3" style="stroke:#038048;stroke-width:1;"/><text fill="#000000" font-family="sans-serif" font-size="14" lengthAdjust="spacing" textLength="200.0732" x="27" y="56.7619">system_id : HIER_OBJECT_ID [1]</text><ellipse cx="18" cy="69.6999" fill="none" rx="3" ry="3" style="stroke:#038048;stroke-width:1;"/><text fill="#000000" font-family="sans-serif" font-size="14" lengthAdjust="spacing" textLength="176.1193" x="27" y="73.5619">ehr_id : HIER_OBJECT_ID [1]</text><ellipse cx="18" cy="86.4998" fill="none" rx="3" ry="3" style="stroke:#038048;stroke-width:1;"/><text fill="#000000" font-family="sans-serif" font-size="14" lengthAdjust="spacing" textLength="232.2591" x="27" y="90.3618">contributions : List&lt;OBJECT_REF&gt; [*]</text><ellipse cx="18" cy="103.2997" fill="none" rx="3" ry="3" style="stroke:#038048;stroke-width:1;"/><text fill="#000000" font-family="sans-serif" font-size="14" lengthAdjust="spacing" textLength="176.1333" x="27" y="107.1617">ehr_status : OBJECT_REF [1]</text><ellipse cx="18" cy="120.0997" fill="none" rx="3" ry="3" style="stroke:#038048;stroke-width:1;"/><text fill="#000000" font-family="sans-serif" font-size="14" lengthAdjust="spacing" textLength="178.6813" x="27" y="123.9616">ehr_access : OBJECT_REF [1]</text><ellipse cx="18" cy="136.8996" fill="none" rx="3" ry="3" style="stroke:#038048;stroke-width:1;"/><text fill="#000000" font-family="sans-serif" font-size="14" lengthAdjust="spacing" textLength="233.0291" x="27" y="140.7616">compositions : List&lt;OBJECT_REF&gt; [*]</text><ellipse cx="18" cy="153.6995" fill="none" rx="3" ry="3" style="stroke:#038048;stroke-width:1;"/><text fill="#000000" font-family="sans-serif" font-size="14" lengthAdjust="spacing" textLength="181.8313" x="27" y="157.5615">directory : OBJECT_REF [0..1]</text><ellipse cx="18" cy="170.4995" fill="none" rx="3" ry="3" style="stroke:#038048;stroke-width:1;"/><text fill="#000000" font-family="sans-serif" font-size="14" lengthAdjust="spacing" textLength="209.7192" x="27" y="174.3614">time_created : DV_DATE_TIME [1]</text><line style="stroke:#181818;stroke-width:0.5;" x1="8" x2="265.0291" y1="181.3994" y2="181.3994"/></g><!--class VERSIONED_EHR_ACCESS--><g class="entity" data-entity="VERSIONED_EHR_ACCESS" data-source-line="13" data-uid="ent0003" id="entity_VERSIONED_EHR_ACCESS"><rect fill="#F1F1F1" height="48" rx="2.5" ry="2.5" style="stroke:#181818;stroke-width:0.5;" width="199.4813" x="49.77" y="283"/><ellipse cx="64.77" cy="299" fill="#ADD1B2" rx="11" ry="11" style="stroke:#181818;stroke-width:1;"/><path d="M64.77,305.4219 C65.9419,305.4219 67.1763,305.1563 68.5513,304.5469 L68.0669,303.0313 C66.9731,303.4531 65.9575,303.6406 65.0981,303.6406 C62.3794,303.6406 60.6606,301.7969 60.6606,298.8906 C60.6606,296.1406 62.2231,294.5469 64.9575,294.5469 C65.8794,294.5469 66.895,294.7344 68.0356,295.1563 L68.6138,293.6406 C67.52,293.0625 66.2231,292.7656 65.0356,292.7656 C61.27,292.7656 58.6919,295.4063 58.6919,299.2188 C58.6919,302.8906 61.1763,305.4219 64.77,305.4219 Z " fill="#000000"/><text fill="#000000" font-family="sans-serif" font-size="14" lengthAdjust="spacing" textLength="167.4813" x="78.77" y="304.362">VERSIONED_EHR_ACCESS</text><line style="stroke:#181818;stroke-width:0.5;" x1="50.77" x2="248.2513" y1="315" y2="315"/><line style="stroke:#181818;stroke-width:0.5;" x1="50.77" x2="248.2513" y1="323" y2="323"/></g><!--class VERSIONED_EHR_STATUS--><g class="entity" data-entity="VERSIONED_EHR_STATUS" data-source-line="16" data-uid="ent0004" id="entity_VERSIONED_EHR_STATUS"><rect fill="#F1F1F1" height="48" rx="2.5" ry="2.5" style="stroke:#181818;stroke-width:0.5;" width="198.4873" x="284.27" y="283"/><ellipse cx="299.27" cy="299" fill="#ADD1B2" rx="11" ry="11" style="stroke:#181818;stroke-width:1;"/><path d="M299.27,305.4219 C300.4419,305.4219 301.6763,305.1563 303.0513,304.5469 L302.5669,303.0313 C301.4731,303.4531 300.4575,303.6406 299.5981,303.6406 C296.8794,303.6406 295.1606,301.7969 295.1606,298.8906 C295.1606,296.1406 296.7231,294.5469 299.4575,294.5469 C300.3794,294.5469 301.395,294.7344 302.5356,295.1563 L303.1138,293.6406 C302.02,293.0625 300.7231,292.7656 299.5356,292.7656 C295.77,292.7656 293.1919,295.4063 293.1919,299.2188 C293.1919,302.8906 295.6763,305.4219 299.27,305.4219 Z " fill="#000000"/><text fill="#000000" font-family="sans-serif" font-size="14" lengthAdjust="spacing" textLength="166.4873" x="313.27" y="304.362">VERSIONED_EHR_STATUS</text><line style="stroke:#181818;stroke-width:0.5;" x1="285.27" x2="481.7573" y1="315" y2="315"/><line style="stroke:#181818;stroke-width:0.5;" x1="285.27" x2="481.7573" y1="323" y2="323"/></g><!--class VERSIONED_COMPOSITION--><g class="entity" data-entity="VERSIONED_COMPOSITION" data-source-line="19" data-uid="ent0005" id="entity_VERSIONED_COMPOSITION"><rect fill="#F1F1F1" height="64.7999" rx="2.5" ry="2.5" style="stroke:#181818;stroke-width:0.5;" width="209.9253" x="517.55" y="274.6"/><ellipse cx="532.55" cy="290.6" fill="#ADD1B2" rx="11" ry="11" style="stroke:#181818;stroke-width:1;"/><path d="M532.55,297.0219 C533.7219,297.0219 534.9563,296.7563 536.3313,296.1469 L535.8469,294.6313 C534.7531,295.0531 533.7375,295.2406 532.8781,295.2406 C530.1594,295.2406 528.4406,293.3969 528.4406,290.4906 C528.4406,287.7406 530.0031,286.1469 532.7375,286.1469 C533.6594,286.1469 534.675,286.3344 535.8156,286.7563 L536.3938,285.2406 C535.3,284.6625 534.0031,284.3656 532.8156,284.3656 C529.05,284.3656 526.4719,287.0063 526.4719,290.8188 C526.4719,294.4906 528.9563,297.0219 532.55,297.0219 Z " fill="#000000"/><text fill="#000000" font-family="sans-serif" font-size="14" lengthAdjust="spacing" textLength="177.9253" x="546.55" y="295.962">VERSIONED_COMPOSITION</text><line style="stroke:#181818;stroke-width:0.5;" x1="518.55" x2="726.4753" y1="306.6" y2="306.6"/><line style="stroke:#181818;stroke-width:0.5;" x1="518.55" x2="726.4753" y1="314.6" y2="314.6"/><ellipse cx="528.55" cy="328.5" fill="#84BE84" rx="3" ry="3" style="stroke:#038048;stroke-width:1;"/><text fill="#000000" font-family="sans-serif" font-size="14" lengthAdjust="spacing" textLength="167.5374" x="537.55" y="332.3619">is_persistent() : Boolean [1]</text></g><!--class EHR_ACCESS--><g class="entity" data-entity="EHR_ACCESS" data-source-line="23" data-uid="ent0006" id="entity_EHR_ACCESS"><rect fill="#F1F1F1" height="81.5999" rx="2.5" ry="2.5" style="stroke:#181818;stroke-width:0.5;" width="312.9008" x="762.06" y="266.2"/><ellipse cx="872.0436" cy="282.2" fill="#ADD1B2" rx="11" ry="11" style="stroke:#181818;stroke-width:1;"/><path d="M872.0436,288.6219 C873.2154,288.6219 874.4498,288.3563 875.8248,287.7469 L875.3404,286.2313 C874.2467,286.6531 873.2311,286.8406 872.3717,286.8406 C869.6529,286.8406 867.9342,284.9969 867.9342,282.0906 C867.9342,279.3406 869.4967,277.7469 872.2311,277.7469 C873.1529,277.7469 874.1686,277.9344 875.3092,278.3563 L875.8873,276.8406 C874.7936,276.2625 873.4967,275.9656 872.3092,275.9656 C868.5436,275.9656 865.9654,278.6063 865.9654,282.4188 C865.9654,286.0906 868.4498,288.6219 872.0436,288.6219 Z " fill="#000000"/><text fill="#000000" font-family="sans-serif" font-size="14" lengthAdjust="spacing" textLength="84.4337" x="892.5436" y="287.562">EHR_ACCESS</text><line style="stroke:#181818;stroke-width:0.5;" x1="763.06" x2="1073.9608" y1="298.2" y2="298.2"/><ellipse cx="773.06" cy="312.1" fill="none" rx="3" ry="3" style="stroke:#038048;stroke-width:1;"/><text fill="#000000" font-family="sans-serif" font-size="14" lengthAdjust="spacing" textLength="286.9008" x="782.06" y="315.9619">settings : ACCESS_CONTROL_SETTINGS [0..1]</text><line style="stroke:#181818;stroke-width:0.5;" x1="763.06" x2="1073.9608" y1="322.9999" y2="322.9999"/><ellipse cx="773.06" cy="336.8999" fill="#84BE84" rx="3" ry="3" style="stroke:#038048;stroke-width:1;"/><text fill="#000000" font-family="sans-serif" font-size="14" lengthAdjust="spacing" textLength="122.5695" x="782.06" y="340.7619">scheme() : String [1]</text></g><!--class EHR_STATUS--><g class="entity" data-entity="EHR_STATUS" data-source-line="28" data-uid="ent0007" id="entity_EHR_STATUS"><rect fill="#F1F1F1" height="115.1997" rx="2.5" ry="2.5" style="stroke:#181818;stroke-width:0.5;" width="268.143" x="1110.44" y="249.4"/><ellipse cx="1198.5417" cy="265.4" fill="#ADD1B2" rx="11" ry="11" style="stroke:#181818;stroke-width:1;"/><path d="M1198.5417,271.8219 C1199.7136,271.8219 1200.9479,271.5563 1202.3229,270.9469 L1201.8386,269.4313 C1200.7448,269.8531 1199.7292,270.0406 1198.8698,270.0406 C1196.1511,270.0406 1194.4323,268.1969 1194.4323,265.2906 C1194.4323,262.5406 1195.9948,260.9469 1198.7292,260.9469 C1199.6511,260.9469 1200.6667,261.1344 1201.8073,261.5563 L1202.3854,260.0406 C1201.2917,259.4625 1199.9948,259.1656 1198.8073,259.1656 C1195.0417,259.1656 1192.4636,261.8063 1192.4636,265.6188 C1192.4636,269.2906 1194.9479,271.8219 1198.5417,271.8219 Z " fill="#000000"/><text fill="#000000" font-family="sans-serif" font-size="14" lengthAdjust="spacing" textLength="83.4397" x="1219.0417" y="270.762">EHR_STATUS</text><line style="stroke:#181818;stroke-width:0.5;" x1="1111.44" x2="1377.583" y1="281.4" y2="281.4"/><ellipse cx="1121.44" cy="295.3" fill="none" rx="3" ry="3" style="stroke:#038048;stroke-width:1;"/><text fill="#000000" font-family="sans-serif" font-size="14" lengthAdjust="spacing" textLength="152.8934" x="1130.44" y="299.1619">subject : PARTY_SELF [1]</text><ellipse cx="1121.44" cy="312.0999" fill="none" rx="3" ry="3" style="stroke:#038048;stroke-width:1;"/><text fill="#000000" font-family="sans-serif" font-size="14" lengthAdjust="spacing" textLength="158.1853" x="1130.44" y="315.9619">is_queryable : Boolean [1]</text><ellipse cx="1121.44" cy="328.8998" fill="none" rx="3" ry="3" style="stroke:#038048;stroke-width:1;"/><text fill="#000000" font-family="sans-serif" font-size="14" lengthAdjust="spacing" textLength="162.9733" x="1130.44" y="332.7618">is_modifiable : Boolean [1]</text><ellipse cx="1121.44" cy="345.6997" fill="none" rx="3" ry="3" style="stroke:#038048;stroke-width:1;"/><text fill="#000000" font-family="sans-serif" font-size="14" lengthAdjust="spacing" textLength="242.143" x="1130.44" y="349.5617">other_details : ITEM_STRUCTURE [0..1]</text><line style="stroke:#181818;stroke-width:0.5;" x1="1111.44" x2="1377.583" y1="356.5997" y2="356.5997"/></g><!--class VERSIONED_OBJECT--><g class="entity" data-entity="VERSIONED_OBJECT" data-source-line="35" data-uid="ent0008" id="entity_VERSIONED_OBJECT"><rect fill="#F1F1F1" height="48" rx="2.5" ry="2.5" style="stroke:#181818;stroke-width:0.5;" width="165.2095" x="300.91" y="74.2"/><ellipse cx="315.91" cy="90.2" fill="#ADD1B2" rx="11" ry="11" style="stroke:#181818;stroke-width:1;"/><path d="M315.91,96.6219 C317.0819,96.6219 318.3163,96.3563 319.6913,95.7469 L319.2069,94.2313 C318.1131,94.6531 317.0975,94.8406 316.2381,94.8406 C313.5194,94.8406 311.8006,92.9969 311.8006,90.0906 C311.8006,87.3406 313.3631,85.7469 316.0975,85.7469 C317.0194,85.7469 318.035,85.9344 319.1756,86.3563 L319.7538,84.8406 C318.66,84.2625 317.3631,83.9656 316.1756,83.9656 C312.41,83.9656 309.8319,86.6063 309.8319,90.4188 C309.8319,94.0906 312.3163,96.6219 315.91,96.6219 Z " fill="#000000"/><text fill="#000000" font-family="sans-serif" font-size="14" lengthAdjust="spacing" textLength="133.2095" x="329.91" y="95.562">VERSIONED_OBJECT</text><line style="stroke:#181818;stroke-width:0.5;" x1="301.91" x2="465.1195" y1="106.2" y2="106.2"/><line style="stroke:#181818;stroke-width:0.5;" x1="301.91" x2="465.1195" y1="114.2" y2="114.2"/></g><!--class LOCATABLE--><g class="entity" data-entity="LOCATABLE" data-source-line="38" data-uid="ent0012" id="entity_LOCATABLE"><rect fill="#F1F1F1" height="48" rx="2.5" ry="2.5" style="stroke:#181818;stroke-width:0.5;" width="108.2857" x="1027.37" y="74.2"/><ellipse cx="1042.37" cy="90.2" fill="#ADD1B2" rx="11" ry="11" style="stroke:#181818;stroke-width:1;"/><path d="M1042.37,96.6219 C1043.5419,96.6219 1044.7763,96.3563 1046.1513,95.7469 L1045.6669,94.2313 C1044.5731,94.6531 1043.5575,94.8406 1042.6981,94.8406 C1039.9794,94.8406 1038.2606,92.9969 1038.2606,90.0906 C1038.2606,87.3406 1039.8231,85.7469 1042.5575,85.7469 C1043.4794,85.7469 1044.495,85.9344 1045.6356,86.3563 L1046.2138,84.8406 C1045.12,84.2625 1043.8231,83.9656 1042.6356,83.9656 C1038.87,83.9656 1036.2919,86.6063 1036.2919,90.4188 C1036.2919,94.0906 1038.7763,96.6219 1042.37,96.6219 Z " fill="#000000"/><text fill="#000000" font-family="sans-serif" font-size="14" lengthAdjust="spacing" textLength="76.2857" x="1056.37" y="95.562">LOCATABLE</text><line style="stroke:#181818;stroke-width:0.5;" x1="1028.37" x2="1134.6557" y1="106.2" y2="106.2"/><line style="stroke:#181818;stroke-width:0.5;" x1="1028.37" x2="1134.6557" y1="114.2" y2="114.2"/></g><!--reverse link VERSIONED_OBJECT to VERSIONED_EHR_ACCESS--><g class="link" data-entity-1="VERSIONED_OBJECT" data-entity-2="VERSIONED_EHR_ACCESS" data-source-line="35" data-uid="lnk9" id="link_VERSIONED_OBJECT_VERSIONED_EHR_ACCESS"><path codeLine="35" d="M344.4045,134.7909 C324.2745,153.0709 308.89,166.92 283.51,189.4 C246.7,222.02 203.74,259.25 176.59,282.69" fill="none" id="VERSIONED_OBJECT-backto-VERSIONED_EHR_ACCESS" style="stroke:#181818;stroke-width:1;"/><polygon fill="none" points="357.73,122.69,340.3709,130.349,348.4381,139.2327,357.73,122.69" style="stroke:#181818;stroke-width:1;"/></g><!--reverse link VERSIONED_OBJECT to VERSIONED_EHR_STATUS--><g class="link" data-entity-1="VERSIONED_OBJECT" data-entity-2="VERSIONED_EHR_STATUS" data-source-line="36" data-uid="lnk10" id="link_VERSIONED_OBJECT_VERSIONED_EHR_STATUS"><path codeLine="36" d="M383.51,140.52 C383.51,180.34 383.51,243 383.51,282.76" fill="none" id="VERSIONED_OBJECT-backto-VERSIONED_EHR_STATUS" style="stroke:#181818;stroke-width:1;"/><polygon fill="none" points="383.51,122.52,377.51,140.52,389.51,140.52,383.51,122.52" style="stroke:#181818;stroke-width:1;"/></g><!--reverse link VERSIONED_OBJECT to VERSIONED_COMPOSITION--><g class="link" data-entity-1="VERSIONED_OBJECT" data-entity-2="VERSIONED_COMPOSITION" data-source-line="37" data-uid="lnk11" id="link_VERSIONED_OBJECT_VERSIONED_COMPOSITION"><path codeLine="37" d="M424.0819,134.2978 C467.0519,171.4778 537.55,232.48 585.92,274.34" fill="none" id="VERSIONED_OBJECT-backto-VERSIONED_COMPOSITION" style="stroke:#181818;stroke-width:1;"/><polygon fill="none" points="410.47,122.52,420.156,138.8351,428.0078,129.7605,410.47,122.52" style="stroke:#181818;stroke-width:1;"/></g><!--reverse link LOCATABLE to EHR_ACCESS--><g class="link" data-entity-1="LOCATABLE" data-entity-2="EHR_ACCESS" data-source-line="38" data-uid="lnk13" id="link_LOCATABLE_EHR_ACCESS"><path codeLine="38" d="M1051.9875,136.6566 C1024.5975,171.4066 983.84,223.12 950.23,265.76" fill="none" id="LOCATABLE-backto-EHR_ACCESS" style="stroke:#181818;stroke-width:1;"/><polygon fill="none" points="1063.13,122.52,1047.2753,132.9425,1056.6997,140.3708,1063.13,122.52" style="stroke:#181818;stroke-width:1;"/></g><!--reverse link LOCATABLE to EHR_STATUS--><g class="link" data-entity-1="LOCATABLE" data-entity-2="EHR_STATUS" data-source-line="39" data-uid="lnk14" id="link_LOCATABLE_EHR_STATUS"><path codeLine="39" d="M1111.0414,136.6575 C1135.1014,167.1875 1166.93,207.57 1199.8,249.27" fill="none" id="LOCATABLE-backto-EHR_STATUS" style="stroke:#181818;stroke-width:1;"/><polygon fill="none" points="1099.9,122.52,1106.3289,140.3713,1115.7539,132.9437,1099.9,122.52" style="stroke:#181818;stroke-width:1;"/></g></g></svg>
