<svg xmlns="http://www.w3.org/2000/svg" xmlns:xlink="http://www.w3.org/1999/xlink" contentStyleType="text/css" data-diagram-type="CLASS" height="604px" preserveAspectRatio="none" style="width:1486px;height:604px;background:#FFFFFF;" version="1.1" viewBox="0 0 1486 604" width="1486px" zoomAndPan="magnify"><defs/><g><!--class ADMIN_ENTRY--><g class="entity" data-entity="ADMIN_ENTRY" data-source-line="2" data-uid="ent0002" id="entity_ADMIN_ENTRY"><rect fill="#F1F1F1" height="64.7999" rx="2.5" ry="2.5" style="stroke:#181818;stroke-width:0.5;" width="197.7233" x="230.37" y="349"/><ellipse cx="277.2909" cy="365" fill="#ADD1B2" rx="11" ry="11" style="stroke:#181818;stroke-width:1;"/><path d="M277.2909,371.4219 C278.4627,371.4219 279.6971,371.1563 281.0721,370.5469 L280.5877,369.0313 C279.494,369.4531 278.4784,369.6406 277.619,369.6406 C274.9002,369.6406 273.1815,367.7969 273.1815,364.8906 C273.1815,362.1406 274.744,360.5469 277.4784,360.5469 C278.4002,360.5469 279.4159,360.7344 280.5565,361.1563 L281.1346,359.6406 C280.0409,359.0625 278.744,358.7656 277.5565,358.7656 C273.7909,358.7656 271.2127,361.4063 271.2127,365.2188 C271.2127,368.8906 273.6971,371.4219 277.2909,371.4219 Z " fill="#000000"/><text fill="#000000" font-family="sans-serif" font-size="14" lengthAdjust="spacing" textLength="95.3816" x="297.7909" y="370.362">ADMIN_ENTRY</text><line style="stroke:#181818;stroke-width:0.5;" x1="231.37" x2="427.0933" y1="381" y2="381"/><ellipse cx="241.37" cy="394.9" fill="none" rx="3" ry="3" style="stroke:#038048;stroke-width:1;"/><text fill="#000000" font-family="sans-serif" font-size="14" lengthAdjust="spacing" textLength="171.7233" x="250.37" y="398.7619">data : ITEM_STRUCTURE [1]</text><line style="stroke:#181818;stroke-width:0.5;" x1="231.37" x2="427.0933" y1="405.7999" y2="405.7999"/></g><!--class CARE_ENTRY--><g class="entity" data-entity="CARE_ENTRY" data-source-line="6" data-uid="ent0003" id="entity_CARE_ENTRY"><rect fill="#F1F1F1" height="81.5999" rx="2.5" ry="2.5" style="stroke:#181818;stroke-width:0.5;" width="238.6872" x="462.89" y="340.6"/><ellipse cx="535.4588" cy="356.6" fill="#A9DCDF" rx="11" ry="11" style="stroke:#181818;stroke-width:1;"/><path d="M529.9744,362.1 L532.0056,362.1 L536.0525,350.7562 L535.1463,350.7562 L538.9744,362.1 L541.115,362.1 L536.7869,349.7719 L534.5681,349.7719 L529.9744,362.1 Z M532.3025,358.6 L538.74,358.6 L538.74,356.85 L532.3025,356.85 L532.3025,358.6 Z " fill="#000000"/><text fill="#000000" font-family="sans-serif" font-size="14" font-style="italic" lengthAdjust="spacing" textLength="85.0496" x="555.9588" y="361.962">CARE_ENTRY</text><line style="stroke:#181818;stroke-width:0.5;" x1="463.89" x2="700.5772" y1="372.6" y2="372.6"/><ellipse cx="473.89" cy="386.5" fill="none" rx="3" ry="3" style="stroke:#038048;stroke-width:1;"/><text fill="#000000" font-family="sans-serif" font-size="14" lengthAdjust="spacing" textLength="212.6872" x="482.89" y="390.3619">protocol : ITEM_STRUCTURE [0..1]</text><ellipse cx="473.89" cy="403.2999" fill="none" rx="3" ry="3" style="stroke:#038048;stroke-width:1;"/><text fill="#000000" font-family="sans-serif" font-size="14" lengthAdjust="spacing" textLength="201.9072" x="482.89" y="407.1619">guideline_id : OBJECT_REF [0..1]</text><line style="stroke:#181818;stroke-width:0.5;" x1="463.89" x2="700.5772" y1="414.1999" y2="414.1999"/></g><!--class OBSERVATION--><g class="entity" data-entity="OBSERVATION" data-source-line="11" data-uid="ent0004" id="entity_OBSERVATION"><rect fill="#F1F1F1" height="81.5999" rx="2.5" ry="2.5" style="stroke:#181818;stroke-width:0.5;" width="290.4589" x="7" y="499"/><ellipse cx="100.9467" cy="515" fill="#ADD1B2" rx="11" ry="11" style="stroke:#181818;stroke-width:1;"/><path d="M100.9467,521.4219 C102.1185,521.4219 103.3529,521.1563 104.7279,520.5469 L104.2435,519.0313 C103.1498,519.4531 102.1342,519.6406 101.2748,519.6406 C98.556,519.6406 96.8373,517.7969 96.8373,514.8906 C96.8373,512.1406 98.3998,510.5469 101.1342,510.5469 C102.056,510.5469 103.0717,510.7344 104.2123,511.1563 L104.7904,509.6406 C103.6967,509.0625 102.3998,508.7656 101.2123,508.7656 C97.4467,508.7656 94.8685,511.4063 94.8685,515.2188 C94.8685,518.8906 97.3529,521.4219 100.9467,521.4219 Z " fill="#000000"/><text fill="#000000" font-family="sans-serif" font-size="14" lengthAdjust="spacing" textLength="94.0656" x="121.4467" y="520.362">OBSERVATION</text><line style="stroke:#181818;stroke-width:0.5;" x1="8" x2="296.4589" y1="531" y2="531"/><ellipse cx="18" cy="544.9" fill="none" rx="3" ry="3" style="stroke:#038048;stroke-width:1;"/><text fill="#000000" font-family="sans-serif" font-size="14" lengthAdjust="spacing" textLength="244.901" x="27" y="548.7619">data : HISTORY&lt;ITEM_STRUCTURE&gt; [1]</text><ellipse cx="18" cy="561.6999" fill="none" rx="3" ry="3" style="stroke:#038048;stroke-width:1;"/><text fill="#000000" font-family="sans-serif" font-size="14" lengthAdjust="spacing" textLength="264.4589" x="27" y="565.5619">state : HISTORY&lt;ITEM_STRUCTURE&gt; [0..1]</text><line style="stroke:#181818;stroke-width:0.5;" x1="8" x2="296.4589" y1="572.5999" y2="572.5999"/></g><!--class EVALUATION--><g class="entity" data-entity="EVALUATION" data-source-line="16" data-uid="ent0005" id="entity_EVALUATION"><rect fill="#F1F1F1" height="64.7999" rx="2.5" ry="2.5" style="stroke:#181818;stroke-width:0.5;" width="197.7233" x="332.37" y="507.4"/><ellipse cx="385.2688" cy="523.4" fill="#ADD1B2" rx="11" ry="11" style="stroke:#181818;stroke-width:1;"/><path d="M385.2688,529.8219 C386.4407,529.8219 387.6751,529.5563 389.0501,528.9469 L388.5657,527.4313 C387.472,527.8531 386.4563,528.0406 385.597,528.0406 C382.8782,528.0406 381.1595,526.1969 381.1595,523.2906 C381.1595,520.5406 382.722,518.9469 385.4563,518.9469 C386.3782,518.9469 387.3938,519.1344 388.5345,519.5563 L389.1126,518.0406 C388.0188,517.4625 386.722,517.1656 385.5345,517.1656 C381.7688,517.1656 379.1907,519.8063 379.1907,523.6188 C379.1907,527.2906 381.6751,529.8219 385.2688,529.8219 Z " fill="#000000"/><text fill="#000000" font-family="sans-serif" font-size="14" lengthAdjust="spacing" textLength="83.4257" x="405.7688" y="528.762">EVALUATION</text><line style="stroke:#181818;stroke-width:0.5;" x1="333.37" x2="529.0933" y1="539.4" y2="539.4"/><ellipse cx="343.37" cy="553.3" fill="none" rx="3" ry="3" style="stroke:#038048;stroke-width:1;"/><text fill="#000000" font-family="sans-serif" font-size="14" lengthAdjust="spacing" textLength="171.7233" x="352.37" y="557.1619">data : ITEM_STRUCTURE [1]</text><line style="stroke:#181818;stroke-width:0.5;" x1="333.37" x2="529.0933" y1="564.1999" y2="564.1999"/></g><!--class ACTION--><g class="entity" data-entity="ACTION" data-source-line="20" data-uid="ent0006" id="entity_ACTION"><rect fill="#F1F1F1" height="115.1997" rx="2.5" ry="2.5" style="stroke:#181818;stroke-width:0.5;" width="335.8608" x="565.3" y="482.2"/><ellipse cx="703.6825" cy="498.2" fill="#ADD1B2" rx="11" ry="11" style="stroke:#181818;stroke-width:1;"/><path d="M703.6825,504.6219 C704.8544,504.6219 706.0887,504.3563 707.4637,503.7469 L706.9794,502.2313 C705.8856,502.6531 704.87,502.8406 704.0106,502.8406 C701.2919,502.8406 699.5731,500.9969 699.5731,498.0906 C699.5731,495.3406 701.1356,493.7469 703.87,493.7469 C704.7919,493.7469 705.8075,493.9344 706.9481,494.3563 L707.5262,492.8406 C706.4325,492.2625 705.1356,491.9656 703.9481,491.9656 C700.1825,491.9656 697.6044,494.6063 697.6044,498.4188 C697.6044,502.0906 700.0887,504.6219 703.6825,504.6219 Z " fill="#000000"/><text fill="#000000" font-family="sans-serif" font-size="14" lengthAdjust="spacing" textLength="50.5958" x="724.1825" y="503.562">ACTION</text><line style="stroke:#181818;stroke-width:0.5;" x1="566.3" x2="900.1608" y1="514.2" y2="514.2"/><ellipse cx="576.3" cy="528.1" fill="none" rx="3" ry="3" style="stroke:#038048;stroke-width:1;"/><text fill="#000000" font-family="sans-serif" font-size="14" lengthAdjust="spacing" textLength="155.9174" x="585.3" y="531.9619">time : DV_DATE_TIME [1]</text><ellipse cx="576.3" cy="544.8999" fill="none" rx="3" ry="3" style="stroke:#038048;stroke-width:1;"/><text fill="#000000" font-family="sans-serif" font-size="14" lengthAdjust="spacing" textLength="228.2971" x="585.3" y="548.7619">ism_transition : ISM_TRANSITION [1]</text><ellipse cx="576.3" cy="561.6998" fill="none" rx="3" ry="3" style="stroke:#038048;stroke-width:1;"/><text fill="#000000" font-family="sans-serif" font-size="14" lengthAdjust="spacing" textLength="309.8608" x="585.3" y="565.5618">instruction_details : INSTRUCTION_DETAILS [0..1]</text><ellipse cx="576.3" cy="578.4997" fill="none" rx="3" ry="3" style="stroke:#038048;stroke-width:1;"/><text fill="#000000" font-family="sans-serif" font-size="14" lengthAdjust="spacing" textLength="213.8492" x="585.3" y="582.3617">description : ITEM_STRUCTURE [1]</text><line style="stroke:#181818;stroke-width:0.5;" x1="566.3" x2="900.1608" y1="589.3997" y2="589.3997"/></g><!--class ACTIVITY--><g class="entity" data-entity="ACTIVITY" data-source-line="27" data-uid="ent0007" id="entity_ACTIVITY"><rect fill="#F1F1F1" height="98.3998" rx="2.5" ry="2.5" style="stroke:#181818;stroke-width:0.5;" width="239.8492" x="649.3" y="148.6"/><ellipse cx="736.1347" cy="164.6" fill="#ADD1B2" rx="11" ry="11" style="stroke:#181818;stroke-width:1;"/><path d="M736.1347,171.0219 C737.3066,171.0219 738.5409,170.7562 739.9159,170.1469 L739.4316,168.6312 C738.3378,169.0531 737.3222,169.2406 736.4628,169.2406 C733.7441,169.2406 732.0253,167.3969 732.0253,164.4906 C732.0253,161.7406 733.5878,160.1469 736.3222,160.1469 C737.2441,160.1469 738.2597,160.3344 739.4003,160.7562 L739.9784,159.2406 C738.8847,158.6625 737.5878,158.3656 736.4003,158.3656 C732.6347,158.3656 730.0566,161.0062 730.0566,164.8187 C730.0566,168.4906 732.5409,171.0219 736.1347,171.0219 Z " fill="#000000"/><text fill="#000000" font-family="sans-serif" font-size="14" lengthAdjust="spacing" textLength="57.6798" x="756.6347" y="169.962">ACTIVITY</text><line style="stroke:#181818;stroke-width:0.5;" x1="650.3" x2="888.1492" y1="180.6" y2="180.6"/><ellipse cx="660.3" cy="194.5" fill="none" rx="3" ry="3" style="stroke:#038048;stroke-width:1;"/><text fill="#000000" font-family="sans-serif" font-size="14" lengthAdjust="spacing" textLength="176.2593" x="669.3" y="198.3619">timing : DV_PARSABLE [0..1]</text><ellipse cx="660.3" cy="211.2999" fill="none" rx="3" ry="3" style="stroke:#038048;stroke-width:1;"/><text fill="#000000" font-family="sans-serif" font-size="14" lengthAdjust="spacing" textLength="190.9593" x="669.3" y="215.1619">action_archetype_id : String [1]</text><ellipse cx="660.3" cy="228.0998" fill="none" rx="3" ry="3" style="stroke:#038048;stroke-width:1;"/><text fill="#000000" font-family="sans-serif" font-size="14" lengthAdjust="spacing" textLength="213.8492" x="669.3" y="231.9618">description : ITEM_STRUCTURE [1]</text><line style="stroke:#181818;stroke-width:0.5;" x1="650.3" x2="888.1492" y1="238.9998" y2="238.9998"/></g><!--class ISM_TRANSITION--><g class="entity" data-entity="ISM_TRANSITION" data-source-line="33" data-uid="ent0008" id="entity_ISM_TRANSITION"><rect fill="#F1F1F1" height="115.1997" rx="2.5" ry="2.5" style="stroke:#181818;stroke-width:0.5;" width="270.691" x="923.88" y="140.2"/><ellipse cx="999.6477" cy="156.2" fill="#ADD1B2" rx="11" ry="11" style="stroke:#181818;stroke-width:1;"/><path d="M999.6477,162.6219 C1000.8196,162.6219 1002.054,162.3563 1003.429,161.7469 L1002.9446,160.2313 C1001.8509,160.6531 1000.8352,160.8406 999.9759,160.8406 C997.2571,160.8406 995.5384,158.9969 995.5384,156.0906 C995.5384,153.3406 997.1009,151.7469 999.8352,151.7469 C1000.7571,151.7469 1001.7727,151.9344 1002.9134,152.3563 L1003.4915,150.8406 C1002.3977,150.2625 1001.1009,149.9656 999.9134,149.9656 C996.1477,149.9656 993.5696,152.6063 993.5696,156.4188 C993.5696,160.0906 996.054,162.6219 999.6477,162.6219 Z " fill="#000000"/><text fill="#000000" font-family="sans-serif" font-size="14" lengthAdjust="spacing" textLength="110.6556" x="1020.1477" y="161.562">ISM_TRANSITION</text><line style="stroke:#181818;stroke-width:0.5;" x1="924.88" x2="1193.571" y1="172.2" y2="172.2"/><ellipse cx="934.88" cy="186.1" fill="none" rx="3" ry="3" style="stroke:#038048;stroke-width:1;"/><text fill="#000000" font-family="sans-serif" font-size="14" lengthAdjust="spacing" textLength="224.5171" x="943.88" y="189.9619">current_state : DV_CODED_TEXT [1]</text><ellipse cx="934.88" cy="202.8999" fill="none" rx="3" ry="3" style="stroke:#038048;stroke-width:1;"/><text fill="#000000" font-family="sans-serif" font-size="14" lengthAdjust="spacing" textLength="216.5791" x="943.88" y="206.7619">transition : DV_CODED_TEXT [0..1]</text><ellipse cx="934.88" cy="219.6998" fill="none" rx="3" ry="3" style="stroke:#038048;stroke-width:1;"/><text fill="#000000" font-family="sans-serif" font-size="14" lengthAdjust="spacing" textLength="244.691" x="943.88" y="223.5618">careflow_step : DV_CODED_TEXT [0..1]</text><ellipse cx="934.88" cy="236.4997" fill="none" rx="3" ry="3" style="stroke:#038048;stroke-width:1;"/><text fill="#000000" font-family="sans-serif" font-size="14" lengthAdjust="spacing" textLength="167.4813" x="943.88" y="240.3617">reason : List&lt;DV_TEXT&gt; [*]</text><line style="stroke:#181818;stroke-width:0.5;" x1="924.88" x2="1193.571" y1="247.3997" y2="247.3997"/></g><!--class INSTRUCTION_DETAILS--><g class="entity" data-entity="INSTRUCTION_DETAILS" data-source-line="40" data-uid="ent0009" id="entity_INSTRUCTION_DETAILS"><rect fill="#F1F1F1" height="98.3998" rx="2.5" ry="2.5" style="stroke:#181818;stroke-width:0.5;" width="250.2651" x="1229.1" y="148.6"/><ellipse cx="1274.8868" cy="164.6" fill="#ADD1B2" rx="11" ry="11" style="stroke:#181818;stroke-width:1;"/><path d="M1274.8868,171.0219 C1276.0587,171.0219 1277.2931,170.7562 1278.6681,170.1469 L1278.1837,168.6312 C1277.09,169.0531 1276.0743,169.2406 1275.215,169.2406 C1272.4962,169.2406 1270.7775,167.3969 1270.7775,164.4906 C1270.7775,161.7406 1272.34,160.1469 1275.0743,160.1469 C1275.9962,160.1469 1277.0118,160.3344 1278.1525,160.7562 L1278.7306,159.2406 C1277.6368,158.6625 1276.34,158.3656 1275.1525,158.3656 C1271.3868,158.3656 1268.8087,161.0062 1268.8087,164.8187 C1268.8087,168.4906 1271.2931,171.0219 1274.8868,171.0219 Z " fill="#000000"/><text fill="#000000" font-family="sans-serif" font-size="14" lengthAdjust="spacing" textLength="150.1914" x="1295.3868" y="169.962">INSTRUCTION_DETAILS</text><line style="stroke:#181818;stroke-width:0.5;" x1="1230.1" x2="1478.3651" y1="180.6" y2="180.6"/><ellipse cx="1240.1" cy="194.5" fill="none" rx="3" ry="3" style="stroke:#038048;stroke-width:1;"/><text fill="#000000" font-family="sans-serif" font-size="14" lengthAdjust="spacing" textLength="221.9271" x="1249.1" y="198.3619">instruction_id : LOCATABLE_REF [1]</text><ellipse cx="1240.1" cy="211.2999" fill="none" rx="3" ry="3" style="stroke:#038048;stroke-width:1;"/><text fill="#000000" font-family="sans-serif" font-size="14" lengthAdjust="spacing" textLength="128.5475" x="1249.1" y="215.1619">activity_id : String [1]</text><ellipse cx="1240.1" cy="228.0998" fill="none" rx="3" ry="3" style="stroke:#038048;stroke-width:1;"/><text fill="#000000" font-family="sans-serif" font-size="14" lengthAdjust="spacing" textLength="224.2651" x="1249.1" y="231.9618">wf_details : ITEM_STRUCTURE [0..1]</text><line style="stroke:#181818;stroke-width:0.5;" x1="1230.1" x2="1478.3651" y1="238.9998" y2="238.9998"/></g><!--class ENTRY--><g class="entity" data-entity="ENTRY" data-source-line="46" data-uid="ent0010" id="entity_ENTRY"><rect fill="#F1F1F1" height="165.5995" rx="2.5" ry="2.5" style="stroke:#181818;stroke-width:0.5;" width="319.0189" x="295.72" y="115"/><ellipse cx="429.2795" cy="131" fill="#A9DCDF" rx="11" ry="11" style="stroke:#181818;stroke-width:1;"/><path d="M423.7951,136.5 L425.8264,136.5 L429.8733,125.1563 L428.967,125.1563 L432.7951,136.5 L434.9358,136.5 L430.6076,124.1719 L428.3889,124.1719 L423.7951,136.5 Z M426.1233,133 L432.5608,133 L432.5608,131.25 L426.1233,131.25 L426.1233,133 Z " fill="#000000"/><text fill="#000000" font-family="sans-serif" font-size="14" font-style="italic" lengthAdjust="spacing" textLength="43.3998" x="449.7795" y="136.362">ENTRY</text><line style="stroke:#181818;stroke-width:0.5;" x1="296.72" x2="613.7389" y1="147" y2="147"/><ellipse cx="306.72" cy="160.9" fill="none" rx="3" ry="3" style="stroke:#038048;stroke-width:1;"/><text fill="#000000" font-family="sans-serif" font-size="14" lengthAdjust="spacing" textLength="182.3913" x="315.72" y="164.7619">language : CODE_PHRASE [1]</text><ellipse cx="306.72" cy="177.6999" fill="none" rx="3" ry="3" style="stroke:#038048;stroke-width:1;"/><text fill="#000000" font-family="sans-serif" font-size="14" lengthAdjust="spacing" textLength="182.2093" x="315.72" y="181.5619">encoding : CODE_PHRASE [1]</text><ellipse cx="306.72" cy="194.4998" fill="none" rx="3" ry="3" style="stroke:#038048;stroke-width:1;"/><text fill="#000000" font-family="sans-serif" font-size="14" lengthAdjust="spacing" textLength="293.0189" x="315.72" y="198.3618">other_participations : List&lt;PARTICIPATION&gt; [*]</text><ellipse cx="306.72" cy="211.2997" fill="none" rx="3" ry="3" style="stroke:#038048;stroke-width:1;"/><text fill="#000000" font-family="sans-serif" font-size="14" lengthAdjust="spacing" textLength="203.3352" x="315.72" y="215.1617">workflow_id : OBJECT_REF [0..1]</text><ellipse cx="306.72" cy="228.0997" fill="none" rx="3" ry="3" style="stroke:#038048;stroke-width:1;"/><text fill="#000000" font-family="sans-serif" font-size="14" lengthAdjust="spacing" textLength="166.0533" x="315.72" y="231.9616">subject : PARTY_PROXY [1]</text><ellipse cx="306.72" cy="244.8996" fill="none" rx="3" ry="3" style="stroke:#038048;stroke-width:1;"/><text fill="#000000" font-family="sans-serif" font-size="14" lengthAdjust="spacing" textLength="189.1252" x="315.72" y="248.7616">provider : PARTY_PROXY [0..1]</text><line style="stroke:#181818;stroke-width:0.5;" x1="296.72" x2="613.7389" y1="255.7996" y2="255.7996"/><ellipse cx="306.72" cy="269.6995" fill="#84BE84" rx="3" ry="3" style="stroke:#038048;stroke-width:1;"/><text fill="#000000" font-family="sans-serif" font-size="14" lengthAdjust="spacing" textLength="179.2553" x="315.72" y="273.5615">subject_is_self() : Boolean [1]</text></g><!--class INSTRUCTION--><g class="entity" data-entity="INSTRUCTION" data-source-line="56" data-uid="ent0011" id="entity_INSTRUCTION"><rect fill="#F1F1F1" height="115.1997" rx="2.5" ry="2.5" style="stroke:#181818;stroke-width:0.5;" width="244.0491" x="936.2" y="482.2"/><ellipse cx="1009.0697" cy="498.2" fill="#ADD1B2" rx="11" ry="11" style="stroke:#181818;stroke-width:1;"/><path d="M1009.0697,504.6219 C1010.2416,504.6219 1011.476,504.3563 1012.851,503.7469 L1012.3666,502.2313 C1011.2729,502.6531 1010.2572,502.8406 1009.3979,502.8406 C1006.6791,502.8406 1004.9604,500.9969 1004.9604,498.0906 C1004.9604,495.3406 1006.5229,493.7469 1009.2572,493.7469 C1010.1791,493.7469 1011.1947,493.9344 1012.3354,494.3563 L1012.9135,492.8406 C1011.8197,492.2625 1010.5229,491.9656 1009.3354,491.9656 C1005.5697,491.9656 1002.9916,494.6063 1002.9916,498.4188 C1002.9916,502.0906 1005.476,504.6219 1009.0697,504.6219 Z " fill="#000000"/><text fill="#000000" font-family="sans-serif" font-size="14" lengthAdjust="spacing" textLength="89.8096" x="1029.5697" y="503.562">INSTRUCTION</text><line style="stroke:#181818;stroke-width:0.5;" x1="937.2" x2="1179.2491" y1="514.2" y2="514.2"/><ellipse cx="947.2" cy="528.1" fill="none" rx="3" ry="3" style="stroke:#038048;stroke-width:1;"/><text fill="#000000" font-family="sans-serif" font-size="14" lengthAdjust="spacing" textLength="141.7494" x="956.2" y="531.9619">narrative : DV_TEXT [1]</text><ellipse cx="947.2" cy="544.8999" fill="none" rx="3" ry="3" style="stroke:#038048;stroke-width:1;"/><text fill="#000000" font-family="sans-serif" font-size="14" lengthAdjust="spacing" textLength="216.0751" x="956.2" y="548.7619">expiry_time : DV_DATE_TIME [0..1]</text><ellipse cx="947.2" cy="561.6998" fill="none" rx="3" ry="3" style="stroke:#038048;stroke-width:1;"/><text fill="#000000" font-family="sans-serif" font-size="14" lengthAdjust="spacing" textLength="218.0491" x="956.2" y="565.5618">wf_definition : DV_PARSABLE [0..1]</text><ellipse cx="947.2" cy="578.4997" fill="none" rx="3" ry="3" style="stroke:#038048;stroke-width:1;"/><text fill="#000000" font-family="sans-serif" font-size="14" lengthAdjust="spacing" textLength="179.9413" x="956.2" y="582.3617">activities : List&lt;ACTIVITY&gt; [*]</text><line style="stroke:#181818;stroke-width:0.5;" x1="937.2" x2="1179.2491" y1="589.3997" y2="589.3997"/></g><!--class LOCATABLE--><g class="entity" data-entity="LOCATABLE" data-source-line="68" data-uid="ent0017" id="entity_LOCATABLE"><rect fill="#F1F1F1" height="48" rx="2.5" ry="2.5" style="stroke:#181818;stroke-width:0.5;" width="108.2857" x="715.09" y="7"/><ellipse cx="730.09" cy="23" fill="#ADD1B2" rx="11" ry="11" style="stroke:#181818;stroke-width:1;"/><path d="M730.09,29.4219 C731.2619,29.4219 732.4963,29.1563 733.8713,28.5469 L733.3869,27.0313 C732.2931,27.4531 731.2775,27.6406 730.4181,27.6406 C727.6994,27.6406 725.9806,25.7969 725.9806,22.8906 C725.9806,20.1406 727.5431,18.5469 730.2775,18.5469 C731.1994,18.5469 732.215,18.7344 733.3556,19.1563 L733.9338,17.6406 C732.84,17.0625 731.5431,16.7656 730.3556,16.7656 C726.59,16.7656 724.0119,19.4063 724.0119,23.2188 C724.0119,26.8906 726.4963,29.4219 730.09,29.4219 Z " fill="#000000"/><text fill="#000000" font-family="sans-serif" font-size="14" lengthAdjust="spacing" textLength="76.2857" x="744.09" y="28.362">LOCATABLE</text><line style="stroke:#181818;stroke-width:0.5;" x1="716.09" x2="822.3757" y1="39" y2="39"/><line style="stroke:#181818;stroke-width:0.5;" x1="716.09" x2="822.3757" y1="47" y2="47"/></g><!--class PATHABLE--><g class="entity" data-entity="PATHABLE" data-source-line="69" data-uid="ent0019" id="entity_PATHABLE"><rect fill="#F1F1F1" height="48" rx="2.5" ry="2.5" style="stroke:#181818;stroke-width:0.5;" width="99.8857" x="1156.29" y="7"/><ellipse cx="1171.29" cy="23" fill="#ADD1B2" rx="11" ry="11" style="stroke:#181818;stroke-width:1;"/><path d="M1171.29,29.4219 C1172.4619,29.4219 1173.6963,29.1563 1175.0713,28.5469 L1174.5869,27.0313 C1173.4931,27.4531 1172.4775,27.6406 1171.6181,27.6406 C1168.8994,27.6406 1167.1806,25.7969 1167.1806,22.8906 C1167.1806,20.1406 1168.7431,18.5469 1171.4775,18.5469 C1172.3994,18.5469 1173.415,18.7344 1174.5556,19.1563 L1175.1338,17.6406 C1174.04,17.0625 1172.7431,16.7656 1171.5556,16.7656 C1167.79,16.7656 1165.2119,19.4063 1165.2119,23.2188 C1165.2119,26.8906 1167.6963,29.4219 1171.29,29.4219 Z " fill="#000000"/><text fill="#000000" font-family="sans-serif" font-size="14" lengthAdjust="spacing" textLength="67.8857" x="1185.29" y="28.362">PATHABLE</text><line style="stroke:#181818;stroke-width:0.5;" x1="1157.29" x2="1255.1757" y1="39" y2="39"/><line style="stroke:#181818;stroke-width:0.5;" x1="1157.29" x2="1255.1757" y1="47" y2="47"/></g><!--class CONTENT_ITEM--><g class="entity" data-entity="CONTENT_ITEM" data-source-line="71" data-uid="ent0022" id="entity_CONTENT_ITEM"><rect fill="#F1F1F1" height="48" rx="2.5" ry="2.5" style="stroke:#181818;stroke-width:0.5;" width="135.5576" x="387.45" y="7"/><ellipse cx="402.45" cy="23" fill="#ADD1B2" rx="11" ry="11" style="stroke:#181818;stroke-width:1;"/><path d="M402.45,29.4219 C403.6219,29.4219 404.8563,29.1563 406.2313,28.5469 L405.7469,27.0313 C404.6531,27.4531 403.6375,27.6406 402.7781,27.6406 C400.0594,27.6406 398.3406,25.7969 398.3406,22.8906 C398.3406,20.1406 399.9031,18.5469 402.6375,18.5469 C403.5594,18.5469 404.575,18.7344 405.7156,19.1563 L406.2938,17.6406 C405.2,17.0625 403.9031,16.7656 402.7156,16.7656 C398.95,16.7656 396.3719,19.4063 396.3719,23.2188 C396.3719,26.8906 398.8563,29.4219 402.45,29.4219 Z " fill="#000000"/><text fill="#000000" font-family="sans-serif" font-size="14" lengthAdjust="spacing" textLength="103.5576" x="416.45" y="28.362">CONTENT_ITEM</text><line style="stroke:#181818;stroke-width:0.5;" x1="388.45" x2="522.0076" y1="39" y2="39"/><line style="stroke:#181818;stroke-width:0.5;" x1="388.45" x2="522.0076" y1="47" y2="47"/></g><!--reverse link ENTRY to ADMIN_ENTRY--><g class="link" data-entity-1="ENTRY" data-entity-2="ADMIN_ENTRY" data-source-line="63" data-uid="lnk12" id="link_ENTRY_ADMIN_ENTRY"><path codeLine="63" d="M387.8673,295.8877 C371.1973,319.9077 364.23,329.95 351.18,348.77" fill="none" id="ENTRY-backto-ADMIN_ENTRY" style="stroke:#181818;stroke-width:1;"/><polygon fill="none" points="398.13,281.1,382.938,292.4668,392.7965,299.3086,398.13,281.1" style="stroke:#181818;stroke-width:1;"/></g><!--reverse link ENTRY to CARE_ENTRY--><g class="link" data-entity-1="ENTRY" data-entity-2="CARE_ENTRY" data-source-line="64" data-uid="lnk13" id="link_ENTRY_CARE_ENTRY"><path codeLine="64" d="M523.0951,295.8512 C537.5351,316.5012 542.07,322.98 554.32,340.49" fill="none" id="ENTRY-backto-CARE_ENTRY" style="stroke:#181818;stroke-width:1;"/><polygon fill="none" points="512.78,281.1,518.1781,299.2896,528.0122,292.4128,512.78,281.1" style="stroke:#181818;stroke-width:1;"/></g><!--reverse link CARE_ENTRY to OBSERVATION--><g class="link" data-entity-1="CARE_ENTRY" data-entity-2="OBSERVATION" data-source-line="65" data-uid="lnk14" id="link_CARE_ENTRY_OBSERVATION"><path codeLine="65" d="M454.5739,428.8318 C390.5039,452.1318 327.04,475.22 262.96,498.52" fill="none" id="CARE_ENTRY-backto-OBSERVATION" style="stroke:#181818;stroke-width:1;"/><polygon fill="none" points="471.49,422.68,452.5233,423.1931,456.6245,434.4705,471.49,422.68" style="stroke:#181818;stroke-width:1;"/></g><!--reverse link CARE_ENTRY to EVALUATION--><g class="link" data-entity-1="CARE_ENTRY" data-entity-2="EVALUATION" data-source-line="66" data-uid="lnk15" id="link_CARE_ENTRY_EVALUATION"><path codeLine="66" d="M530.8361,435.628 C505.4961,461.868 485.4,482.69 461.89,507.04" fill="none" id="CARE_ENTRY-backto-EVALUATION" style="stroke:#181818;stroke-width:1;"/><polygon fill="none" points="543.34,422.68,526.5201,431.4601,535.1521,439.796,543.34,422.68" style="stroke:#181818;stroke-width:1;"/></g><!--reverse link CARE_ENTRY to ACTION--><g class="link" data-entity-1="CARE_ENTRY" data-entity-2="ACTION" data-source-line="67" data-uid="lnk16" id="link_CARE_ENTRY_ACTION"><path codeLine="67" d="M633.6194,435.6324 C650.9994,453.6424 659.31,462.24 678.26,481.86" fill="none" id="CARE_ENTRY-backto-ACTION" style="stroke:#181818;stroke-width:1;"/><polygon fill="none" points="621.12,422.68,629.3019,439.7989,637.9368,431.466,621.12,422.68" style="stroke:#181818;stroke-width:1;"/></g><!--reverse link LOCATABLE to ACTIVITY--><g class="link" data-entity-1="LOCATABLE" data-entity-2="ACTIVITY" data-source-line="68" data-uid="lnk18" id="link_LOCATABLE_ACTIVITY"><path codeLine="68" d="M769.23,73.26 C769.23,97.31 769.23,117.55 769.23,148.23" fill="none" id="LOCATABLE-backto-ACTIVITY" style="stroke:#181818;stroke-width:1;"/><polygon fill="none" points="769.23,55.26,763.23,73.26,775.23,73.26,769.23,55.26" style="stroke:#181818;stroke-width:1;"/></g><!--reverse link PATHABLE to ISM_TRANSITION--><g class="link" data-entity-1="PATHABLE" data-entity-2="ISM_TRANSITION" data-source-line="69" data-uid="lnk20" id="link_PATHABLE_ISM_TRANSITION"><path codeLine="69" d="M1173.499,68.6934 C1153.949,90.6134 1135.86,110.89 1109.97,139.91" fill="none" id="PATHABLE-backto-ISM_TRANSITION" style="stroke:#181818;stroke-width:1;"/><polygon fill="none" points="1185.48,55.26,1169.0212,64.6997,1177.9768,72.6871,1185.48,55.26" style="stroke:#181818;stroke-width:1;"/></g><!--reverse link PATHABLE to INSTRUCTION_DETAILS--><g class="link" data-entity-1="PATHABLE" data-entity-2="INSTRUCTION_DETAILS" data-source-line="70" data-uid="lnk21" id="link_PATHABLE_INSTRUCTION_DETAILS"><path codeLine="70" d="M1239.1444,68.6545 C1260.7344,92.7045 1283.06,117.55 1310.61,148.23" fill="none" id="PATHABLE-backto-INSTRUCTION_DETAILS" style="stroke:#181818;stroke-width:1;"/><polygon fill="none" points="1227.12,55.26,1234.6796,72.6627,1243.6093,64.6464,1227.12,55.26" style="stroke:#181818;stroke-width:1;"/></g><!--reverse link CONTENT_ITEM to ENTRY--><g class="link" data-entity-1="CONTENT_ITEM" data-entity-2="ENTRY" data-source-line="71" data-uid="lnk23" id="link_CONTENT_ITEM_ENTRY"><path codeLine="71" d="M455.23,73.26 C455.23,89.06 455.23,92.98 455.23,114.85" fill="none" id="CONTENT_ITEM-backto-ENTRY" style="stroke:#181818;stroke-width:1;"/><polygon fill="none" points="455.23,55.26,449.23,73.26,461.23,73.26,455.23,55.26" style="stroke:#181818;stroke-width:1;"/></g><!--reverse link CARE_ENTRY to INSTRUCTION--><g class="link" data-entity-1="CARE_ENTRY" data-entity-2="INSTRUCTION" data-source-line="72" data-uid="lnk24" id="link_CARE_ENTRY_INSTRUCTION"><path codeLine="72" d="M718.9976,419.7892 C783.5876,438.0992 847.15,457.34 918.23,482.2 C924.04,484.23 929.97,486.37 935.94,488.58" fill="none" id="CARE_ENTRY-backto-INSTRUCTION" style="stroke:#181818;stroke-width:1;"/><polygon fill="none" points="701.68,414.88,717.3612,425.5617,720.634,414.0167,701.68,414.88" style="stroke:#181818;stroke-width:1;"/></g></g></svg>
