<svg xmlns="http://www.w3.org/2000/svg" xmlns:xlink="http://www.w3.org/1999/xlink" contentStyleType="text/css" data-diagram-type="CLASS" height="371px" preserveAspectRatio="none" style="width:1391px;height:371px;background:#FFFFFF;" version="1.1" viewBox="0 0 1391 371" width="1391px" zoomAndPan="magnify"><defs/><g><!--class EHR--><g class="entity" data-entity="EHR" data-source-line="2" data-uid="ent0002" id="entity_EHR"><rect fill="#F1F1F1" height="182.3994" rx="2.5" ry="2.5" style="stroke:#181818;stroke-width:0.5;" width="259.0291" x="7" y="7"/><ellipse cx="118.7896" cy="23" fill="#ADD1B2" rx="11" ry="11" style="stroke:#181818;stroke-width:1;"/><path d="M118.7896,29.4219 C119.9615,29.4219 121.1958,29.1563 122.5708,28.5469 L122.0865,27.0313 C120.9927,27.4531 119.9771,27.6406 119.1177,27.6406 C116.399,27.6406 114.6802,25.7969 114.6802,22.8906 C114.6802,20.1406 116.2427,18.5469 118.9771,18.5469 C119.899,18.5469 120.9146,18.7344 122.0552,19.1563 L122.6333,17.6406 C121.5396,17.0625 120.2427,16.7656 119.0552,16.7656 C115.2896,16.7656 112.7115,19.4063 112.7115,23.2188 C112.7115,26.8906 115.1958,29.4219 118.7896,29.4219 Z " fill="#000000"/><text fill="#000000" font-family="sans-serif" font-size="14" lengthAdjust="spacing" textLength="26.9499" x="139.2896" y="28.362">EHR</text><line style="stroke:#181818;stroke-width:0.5;" x1="8" x2="265.0291" y1="39" y2="39"/><ellipse cx="18" cy="52.9" fill="none" rx="3" ry="3" style="stroke:#038048;stroke-width:1;"/><text fill="#000000" font-family="sans-serif" font-size="14" lengthAdjust="spacing" textLength="200.0732" x="27" y="56.7619">system_id : HIER_OBJECT_ID [1]</text><ellipse cx="18" cy="69.6999" fill="none" rx="3" ry="3" style="stroke:#038048;stroke-width:1;"/><text fill="#000000" font-family="sans-serif" font-size="14" lengthAdjust="spacing" textLength="176.1193" x="27" y="73.5619">ehr_id : HIER_OBJECT_ID [1]</text><ellipse cx="18" cy="86.4998" fill="none" rx="3" ry="3" style="stroke:#038048;stroke-width:1;"/><text fill="#000000" font-family="sans-serif" font-size="14" lengthAdjust="spacing" textLength="232.2591" x="27" y="90.3618">contributions : List&lt;OBJECT_REF&gt; [*]</text><ellipse cx="18" cy="103.2997" fill="none" rx="3" ry="3" style="stroke:#038048;stroke-width:1;"/><text fill="#000000" font-family="sans-serif" font-size="14" lengthAdjust="spacing" textLength="176.1333" x="27" y="107.1617">ehr_status : OBJECT_REF [1]</text><ellipse cx="18" cy="120.0997" fill="none" rx="3" ry="3" style="stroke:#038048;stroke-width:1;"/><text fill="#000000" font-family="sans-serif" font-size="14" lengthAdjust="spacing" textLength="178.6813" x="27" y="123.9616">ehr_access : OBJECT_REF [1]</text><ellipse cx="18" cy="136.8996" fill="none" rx="3" ry="3" style="stroke:#038048;stroke-width:1;"/><text fill="#000000" font-family="sans-serif" font-size="14" lengthAdjust="spacing" textLength="233.0291" x="27" y="140.7616">compositions : List&lt;OBJECT_REF&gt; [*]</text><ellipse cx="18" cy="153.6995" fill="none" rx="3" ry="3" style="stroke:#038048;stroke-width:1;"/><text fill="#000000" font-family="sans-serif" font-size="14" lengthAdjust="spacing" textLength="181.8313" x="27" y="157.5615">directory : OBJECT_REF [0..1]</text><ellipse cx="18" cy="170.4995" fill="none" rx="3" ry="3" style="stroke:#038048;stroke-width:1;"/><text fill="#000000" font-family="sans-serif" font-size="14" lengthAdjust="spacing" textLength="209.7192" x="27" y="174.3614">time_created : DV_DATE_TIME [1]</text><line style="stroke:#181818;stroke-width:0.5;" x1="8" x2="265.0291" y1="181.3994" y2="181.3994"/></g><!--class VERSIONED_EHR_ACCESS--><g class="entity" data-entity="VERSIONED_EHR_ACCESS" data-source-line="13" data-uid="ent0003" id="entity_VERSIONED_EHR_ACCESS"><rect fill="#F1F1F1" height="48" rx="2.5" ry="2.5" style="stroke:#181818;stroke-width:0.5;" width="199.4813" x="55.77" y="283"/><ellipse cx="70.77" cy="299" fill="#ADD1B2" rx="11" ry="11" style="stroke:#181818;stroke-width:1;"/><path d="M70.77,305.4219 C71.9419,305.4219 73.1763,305.1563 74.5513,304.5469 L74.0669,303.0313 C72.9731,303.4531 71.9575,303.6406 71.0981,303.6406 C68.3794,303.6406 66.6606,301.7969 66.6606,298.8906 C66.6606,296.1406 68.2231,294.5469 70.9575,294.5469 C71.8794,294.5469 72.895,294.7344 74.0356,295.1563 L74.6138,293.6406 C73.52,293.0625 72.2231,292.7656 71.0356,292.7656 C67.27,292.7656 64.6919,295.4063 64.6919,299.2188 C64.6919,302.8906 67.1763,305.4219 70.77,305.4219 Z " fill="#000000"/><text fill="#000000" font-family="sans-serif" font-size="14" lengthAdjust="spacing" textLength="167.4813" x="84.77" y="304.362">VERSIONED_EHR_ACCESS</text><line style="stroke:#181818;stroke-width:0.5;" x1="56.77" x2="254.2513" y1="315" y2="315"/><line style="stroke:#181818;stroke-width:0.5;" x1="56.77" x2="254.2513" y1="323" y2="323"/></g><!--class VERSIONED_OBJECT--><g class="entity" data-entity="VERSIONED_OBJECT" data-source-line="16" data-uid="ent0004" id="entity_VERSIONED_OBJECT"><rect fill="#F5F5F5" height="48" rx="2.5" ry="2.5" style="stroke:#808080;stroke-width:1;stroke-dasharray:1,3;" width="176.0015" x="301.51" y="74.2"/><ellipse cx="316.51" cy="90.2" fill="#ADD1B2" rx="11" ry="11" style="stroke:#181818;stroke-width:1;"/><path d="M316.51,96.6219 C317.6819,96.6219 318.9163,96.3563 320.2913,95.7469 L319.8069,94.2313 C318.7131,94.6531 317.6975,94.8406 316.8381,94.8406 C314.1194,94.8406 312.4006,92.9969 312.4006,90.0906 C312.4006,87.3406 313.9631,85.7469 316.6975,85.7469 C317.6194,85.7469 318.635,85.9344 319.7756,86.3563 L320.3538,84.8406 C319.26,84.2625 317.9631,83.9656 316.7756,83.9656 C313.01,83.9656 310.4319,86.6063 310.4319,90.4188 C310.4319,94.0906 312.9163,96.6219 316.51,96.6219 Z " fill="#000000"/><text fill="#808080" font-family="sans-serif" font-size="14" lengthAdjust="spacing" textLength="133.2095" x="330.51" y="95.562">VERSIONED_OBJECT</text><rect fill="#FFFFFF" height="16.4001" style="stroke:#181818;stroke-width:1;stroke-dasharray:2,2;" width="8.7921" x="471.7195" y="71.2"/><text fill="#000000" font-family="sans-serif" font-size="12" font-style="italic" lengthAdjust="spacing" textLength="6.7921" x="472.7195" y="83.9961">T</text><line style="stroke:#808080;stroke-width:1;stroke-dasharray:1,3;" x1="302.51" x2="476.5115" y1="106.2" y2="106.2"/><line style="stroke:#808080;stroke-width:1;stroke-dasharray:1,3;" x1="302.51" x2="476.5115" y1="114.2" y2="114.2"/></g><!--class VERSIONED_EHR_STATUS--><g class="entity" data-entity="VERSIONED_EHR_STATUS" data-source-line="19" data-uid="ent0005" id="entity_VERSIONED_EHR_STATUS"><rect fill="#F1F1F1" height="48" rx="2.5" ry="2.5" style="stroke:#181818;stroke-width:0.5;" width="198.4873" x="290.27" y="283"/><ellipse cx="305.27" cy="299" fill="#ADD1B2" rx="11" ry="11" style="stroke:#181818;stroke-width:1;"/><path d="M305.27,305.4219 C306.4419,305.4219 307.6763,305.1563 309.0513,304.5469 L308.5669,303.0313 C307.4731,303.4531 306.4575,303.6406 305.5981,303.6406 C302.8794,303.6406 301.1606,301.7969 301.1606,298.8906 C301.1606,296.1406 302.7231,294.5469 305.4575,294.5469 C306.3794,294.5469 307.395,294.7344 308.5356,295.1563 L309.1138,293.6406 C308.02,293.0625 306.7231,292.7656 305.5356,292.7656 C301.77,292.7656 299.1919,295.4063 299.1919,299.2188 C299.1919,302.8906 301.6763,305.4219 305.27,305.4219 Z " fill="#000000"/><text fill="#000000" font-family="sans-serif" font-size="14" lengthAdjust="spacing" textLength="166.4873" x="319.27" y="304.362">VERSIONED_EHR_STATUS</text><line style="stroke:#181818;stroke-width:0.5;" x1="291.27" x2="487.7573" y1="315" y2="315"/><line style="stroke:#181818;stroke-width:0.5;" x1="291.27" x2="487.7573" y1="323" y2="323"/></g><!--class VERSIONED_COMPOSITION--><g class="entity" data-entity="VERSIONED_COMPOSITION" data-source-line="22" data-uid="ent0006" id="entity_VERSIONED_COMPOSITION"><rect fill="#F1F1F1" height="64.7999" rx="2.5" ry="2.5" style="stroke:#181818;stroke-width:0.5;" width="209.9253" x="523.55" y="274.6"/><ellipse cx="538.55" cy="290.6" fill="#ADD1B2" rx="11" ry="11" style="stroke:#181818;stroke-width:1;"/><path d="M538.55,297.0219 C539.7219,297.0219 540.9563,296.7563 542.3313,296.1469 L541.8469,294.6313 C540.7531,295.0531 539.7375,295.2406 538.8781,295.2406 C536.1594,295.2406 534.4406,293.3969 534.4406,290.4906 C534.4406,287.7406 536.0031,286.1469 538.7375,286.1469 C539.6594,286.1469 540.675,286.3344 541.8156,286.7563 L542.3938,285.2406 C541.3,284.6625 540.0031,284.3656 538.8156,284.3656 C535.05,284.3656 532.4719,287.0063 532.4719,290.8188 C532.4719,294.4906 534.9563,297.0219 538.55,297.0219 Z " fill="#000000"/><text fill="#000000" font-family="sans-serif" font-size="14" lengthAdjust="spacing" textLength="177.9253" x="552.55" y="295.962">VERSIONED_COMPOSITION</text><line style="stroke:#181818;stroke-width:0.5;" x1="524.55" x2="732.4753" y1="306.6" y2="306.6"/><line style="stroke:#181818;stroke-width:0.5;" x1="524.55" x2="732.4753" y1="314.6" y2="314.6"/><ellipse cx="534.55" cy="328.5" fill="#84BE84" rx="3" ry="3" style="stroke:#038048;stroke-width:1;"/><text fill="#000000" font-family="sans-serif" font-size="14" lengthAdjust="spacing" textLength="167.5374" x="543.55" y="332.3619">is_persistent() : Boolean [1]</text></g><!--class EHR_ACCESS--><g class="entity" data-entity="EHR_ACCESS" data-source-line="26" data-uid="ent0007" id="entity_EHR_ACCESS"><rect fill="#F1F1F1" height="81.5999" rx="2.5" ry="2.5" style="stroke:#181818;stroke-width:0.5;" width="312.9008" x="768.06" y="266.2"/><ellipse cx="878.0436" cy="282.2" fill="#ADD1B2" rx="11" ry="11" style="stroke:#181818;stroke-width:1;"/><path d="M878.0436,288.6219 C879.2154,288.6219 880.4498,288.3563 881.8248,287.7469 L881.3404,286.2313 C880.2467,286.6531 879.2311,286.8406 878.3717,286.8406 C875.6529,286.8406 873.9342,284.9969 873.9342,282.0906 C873.9342,279.3406 875.4967,277.7469 878.2311,277.7469 C879.1529,277.7469 880.1686,277.9344 881.3092,278.3563 L881.8873,276.8406 C880.7936,276.2625 879.4967,275.9656 878.3092,275.9656 C874.5436,275.9656 871.9654,278.6063 871.9654,282.4188 C871.9654,286.0906 874.4498,288.6219 878.0436,288.6219 Z " fill="#000000"/><text fill="#000000" font-family="sans-serif" font-size="14" lengthAdjust="spacing" textLength="84.4337" x="898.5436" y="287.562">EHR_ACCESS</text><line style="stroke:#181818;stroke-width:0.5;" x1="769.06" x2="1079.9608" y1="298.2" y2="298.2"/><ellipse cx="779.06" cy="312.1" fill="none" rx="3" ry="3" style="stroke:#038048;stroke-width:1;"/><text fill="#000000" font-family="sans-serif" font-size="14" lengthAdjust="spacing" textLength="286.9008" x="788.06" y="315.9619">settings : ACCESS_CONTROL_SETTINGS [0..1]</text><line style="stroke:#181818;stroke-width:0.5;" x1="769.06" x2="1079.9608" y1="322.9999" y2="322.9999"/><ellipse cx="779.06" cy="336.8999" fill="#84BE84" rx="3" ry="3" style="stroke:#038048;stroke-width:1;"/><text fill="#000000" font-family="sans-serif" font-size="14" lengthAdjust="spacing" textLength="122.5695" x="788.06" y="340.7619">scheme() : String [1]</text></g><!--class LOCATABLE--><g class="entity" data-entity="LOCATABLE" data-source-line="31" data-uid="ent0008" id="entity_LOCATABLE"><rect fill="#F5F5F5" height="48" rx="2.5" ry="2.5" style="stroke:#808080;stroke-width:1;stroke-dasharray:1,3;" width="108.2857" x="1033.37" y="74.2"/><ellipse cx="1048.37" cy="90.2" fill="#A9DCDF" rx="11" ry="11" style="stroke:#181818;stroke-width:1;"/><path d="M1042.8856,95.7 L1044.9169,95.7 L1048.9638,84.3563 L1048.0575,84.3563 L1051.8856,95.7 L1054.0263,95.7 L1049.6981,83.3719 L1047.4794,83.3719 L1042.8856,95.7 Z M1045.2138,92.2 L1051.6513,92.2 L1051.6513,90.45 L1045.2138,90.45 L1045.2138,92.2 Z " fill="#000000"/><text fill="#808080" font-family="sans-serif" font-size="14" font-style="italic" lengthAdjust="spacing" textLength="76.2857" x="1062.37" y="95.562">LOCATABLE</text><line style="stroke:#808080;stroke-width:1;stroke-dasharray:1,3;" x1="1034.37" x2="1140.6557" y1="106.2" y2="106.2"/><line style="stroke:#808080;stroke-width:1;stroke-dasharray:1,3;" x1="1034.37" x2="1140.6557" y1="114.2" y2="114.2"/></g><!--class EHR_STATUS--><g class="entity" data-entity="EHR_STATUS" data-source-line="34" data-uid="ent0009" id="entity_EHR_STATUS"><rect fill="#F1F1F1" height="115.1997" rx="2.5" ry="2.5" style="stroke:#181818;stroke-width:0.5;" width="268.143" x="1116.44" y="249.4"/><ellipse cx="1204.5417" cy="265.4" fill="#ADD1B2" rx="11" ry="11" style="stroke:#181818;stroke-width:1;"/><path d="M1204.5417,271.8219 C1205.7136,271.8219 1206.9479,271.5563 1208.3229,270.9469 L1207.8386,269.4313 C1206.7448,269.8531 1205.7292,270.0406 1204.8698,270.0406 C1202.1511,270.0406 1200.4323,268.1969 1200.4323,265.2906 C1200.4323,262.5406 1201.9948,260.9469 1204.7292,260.9469 C1205.6511,260.9469 1206.6667,261.1344 1207.8073,261.5563 L1208.3854,260.0406 C1207.2917,259.4625 1205.9948,259.1656 1204.8073,259.1656 C1201.0417,259.1656 1198.4636,261.8063 1198.4636,265.6188 C1198.4636,269.2906 1200.9479,271.8219 1204.5417,271.8219 Z " fill="#000000"/><text fill="#000000" font-family="sans-serif" font-size="14" lengthAdjust="spacing" textLength="83.4397" x="1225.0417" y="270.762">EHR_STATUS</text><line style="stroke:#181818;stroke-width:0.5;" x1="1117.44" x2="1383.583" y1="281.4" y2="281.4"/><ellipse cx="1127.44" cy="295.3" fill="none" rx="3" ry="3" style="stroke:#038048;stroke-width:1;"/><text fill="#000000" font-family="sans-serif" font-size="14" lengthAdjust="spacing" textLength="152.8934" x="1136.44" y="299.1619">subject : PARTY_SELF [1]</text><ellipse cx="1127.44" cy="312.0999" fill="none" rx="3" ry="3" style="stroke:#038048;stroke-width:1;"/><text fill="#000000" font-family="sans-serif" font-size="14" lengthAdjust="spacing" textLength="158.1853" x="1136.44" y="315.9619">is_queryable : Boolean [1]</text><ellipse cx="1127.44" cy="328.8998" fill="none" rx="3" ry="3" style="stroke:#038048;stroke-width:1;"/><text fill="#000000" font-family="sans-serif" font-size="14" lengthAdjust="spacing" textLength="162.9733" x="1136.44" y="332.7618">is_modifiable : Boolean [1]</text><ellipse cx="1127.44" cy="345.6997" fill="none" rx="3" ry="3" style="stroke:#038048;stroke-width:1;"/><text fill="#000000" font-family="sans-serif" font-size="14" lengthAdjust="spacing" textLength="242.143" x="1136.44" y="349.5617">other_details : ITEM_STRUCTURE [0..1]</text><line style="stroke:#181818;stroke-width:0.5;" x1="1117.44" x2="1383.583" y1="356.5997" y2="356.5997"/></g><!--reverse link VERSIONED_OBJECT to VERSIONED_EHR_ACCESS--><g class="link" data-entity-1="VERSIONED_OBJECT" data-entity-2="VERSIONED_EHR_ACCESS" data-source-line="41" data-uid="lnk10" id="link_VERSIONED_OBJECT_VERSIONED_EHR_ACCESS"><path codeLine="41" d="M349.642,134.4395 C304.582,174.2595 226.8,243 181.81,282.76" fill="none" id="VERSIONED_OBJECT-backto-VERSIONED_EHR_ACCESS" style="stroke:#181818;stroke-width:1;"/><polygon fill="none" points="363.13,122.52,345.6688,129.9435,353.6152,138.9355,363.13,122.52" style="stroke:#181818;stroke-width:1;"/></g><!--reverse link VERSIONED_OBJECT to VERSIONED_EHR_STATUS--><g class="link" data-entity-1="VERSIONED_OBJECT" data-entity-2="VERSIONED_EHR_STATUS" data-source-line="42" data-uid="lnk11" id="link_VERSIONED_OBJECT_VERSIONED_EHR_STATUS"><path codeLine="42" d="M389.51,140.52 C389.51,180.34 389.51,243 389.51,282.76" fill="none" id="VERSIONED_OBJECT-backto-VERSIONED_EHR_STATUS" style="stroke:#181818;stroke-width:1;"/><polygon fill="none" points="389.51,122.52,383.51,140.52,395.51,140.52,389.51,122.52" style="stroke:#181818;stroke-width:1;"/></g><!--reverse link VERSIONED_OBJECT to VERSIONED_COMPOSITION--><g class="link" data-entity-1="VERSIONED_OBJECT" data-entity-2="VERSIONED_COMPOSITION" data-source-line="43" data-uid="lnk12" id="link_VERSIONED_OBJECT_VERSIONED_COMPOSITION"><path codeLine="43" d="M430.0819,134.2978 C473.0519,171.4778 543.55,232.48 591.92,274.34" fill="none" id="VERSIONED_OBJECT-backto-VERSIONED_COMPOSITION" style="stroke:#181818;stroke-width:1;"/><polygon fill="none" points="416.47,122.52,426.156,138.8351,434.0078,129.7605,416.47,122.52" style="stroke:#181818;stroke-width:1;"/></g><!--reverse link LOCATABLE to EHR_ACCESS--><g class="link" data-entity-1="LOCATABLE" data-entity-2="EHR_ACCESS" data-source-line="44" data-uid="lnk13" id="link_LOCATABLE_EHR_ACCESS"><path codeLine="44" d="M1057.9875,136.6566 C1030.5975,171.4066 989.84,223.12 956.23,265.76" fill="none" id="LOCATABLE-backto-EHR_ACCESS" style="stroke:#181818;stroke-width:1;"/><polygon fill="none" points="1069.13,122.52,1053.2753,132.9425,1062.6997,140.3708,1069.13,122.52" style="stroke:#181818;stroke-width:1;"/></g><!--reverse link LOCATABLE to EHR_STATUS--><g class="link" data-entity-1="LOCATABLE" data-entity-2="EHR_STATUS" data-source-line="45" data-uid="lnk14" id="link_LOCATABLE_EHR_STATUS"><path codeLine="45" d="M1117.0414,136.6575 C1141.1014,167.1875 1172.93,207.57 1205.8,249.27" fill="none" id="LOCATABLE-backto-EHR_STATUS" style="stroke:#181818;stroke-width:1;"/><polygon fill="none" points="1105.9,122.52,1112.3289,140.3713,1121.7539,132.9437,1105.9,122.52" style="stroke:#181818;stroke-width:1;"/></g></g></svg>
