<svg xmlns="http://www.w3.org/2000/svg" xmlns:xlink="http://www.w3.org/1999/xlink" contentStyleType="text/css" data-diagram-type="CLASS" height="496px" preserveAspectRatio="none" style="width:1374px;height:496px;background:#FFFFFF;" version="1.1" viewBox="0 0 1374 496" width="1374px" zoomAndPan="magnify"><defs/><g><!--class ITEM_STRUCTURE--><g class="entity" data-entity="ITEM_STRUCTURE" data-source-line="2" data-uid="ent0002" id="entity_ITEM_STRUCTURE"><rect fill="#F1F1F1" height="48" rx="2.5" ry="2.5" style="stroke:#181818;stroke-width:0.5;" width="147.8075" x="578.77" y="115"/><ellipse cx="593.77" cy="131" fill="#A9DCDF" rx="11" ry="11" style="stroke:#181818;stroke-width:1;"/><path d="M588.2856,136.5 L590.3169,136.5 L594.3638,125.1563 L593.4575,125.1563 L597.2856,136.5 L599.4263,136.5 L595.0981,124.1719 L592.8794,124.1719 L588.2856,136.5 Z M590.6138,133 L597.0513,133 L597.0513,131.25 L590.6138,131.25 L590.6138,133 Z " fill="#000000"/><text fill="#000000" font-family="sans-serif" font-size="14" font-style="italic" lengthAdjust="spacing" textLength="115.8075" x="607.77" y="136.362">ITEM_STRUCTURE</text><line style="stroke:#181818;stroke-width:0.5;" x1="579.77" x2="725.5775" y1="147" y2="147"/><line style="stroke:#181818;stroke-width:0.5;" x1="579.77" x2="725.5775" y1="155" y2="155"/></g><!--class ITEM_TREE--><g class="entity" data-entity="ITEM_TREE" data-source-line="5" data-uid="ent0003" id="entity_ITEM_TREE"><rect fill="#F1F1F1" height="115.1997" rx="2.5" ry="2.5" style="stroke:#181818;stroke-width:0.5;" width="345.3387" x="7" y="298.6"/><ellipse cx="139.5095" cy="314.6" fill="#ADD1B2" rx="11" ry="11" style="stroke:#181818;stroke-width:1;"/><path d="M139.5095,321.0219 C140.6814,321.0219 141.9158,320.7562 143.2908,320.1469 L142.8064,318.6312 C141.7126,319.0531 140.697,319.2406 139.8376,319.2406 C137.1189,319.2406 135.4001,317.3969 135.4001,314.4906 C135.4001,311.7406 136.9626,310.1469 139.697,310.1469 C140.6189,310.1469 141.6345,310.3344 142.7751,310.7562 L143.3533,309.2406 C142.2595,308.6625 140.9626,308.3656 139.7751,308.3656 C136.0095,308.3656 133.4314,311.0062 133.4314,314.8187 C133.4314,318.4906 135.9158,321.0219 139.5095,321.0219 Z " fill="#000000"/><text fill="#000000" font-family="sans-serif" font-size="14" lengthAdjust="spacing" textLength="71.8197" x="160.0095" y="319.962">ITEM_TREE</text><line style="stroke:#181818;stroke-width:0.5;" x1="8" x2="351.3387" y1="330.6" y2="330.6"/><ellipse cx="18" cy="344.5" fill="none" rx="3" ry="3" style="stroke:#038048;stroke-width:1;"/><text fill="#000000" font-family="sans-serif" font-size="14" lengthAdjust="spacing" textLength="134.1615" x="27" y="348.3619">items : List&lt;ITEM&gt; [*]</text><line style="stroke:#181818;stroke-width:0.5;" x1="8" x2="351.3387" y1="355.3999" y2="355.3999"/><ellipse cx="18" cy="369.2999" fill="#84BE84" rx="3" ry="3" style="stroke:#038048;stroke-width:1;"/><text fill="#000000" font-family="sans-serif" font-size="14" lengthAdjust="spacing" textLength="317.7428" x="27" y="373.1619">has_element_path( a_path : String [1] ) : Boolean [1]</text><ellipse cx="18" cy="386.0998" fill="#84BE84" rx="3" ry="3" style="stroke:#038048;stroke-width:1;"/><text fill="#000000" font-family="sans-serif" font-size="14" lengthAdjust="spacing" textLength="319.3387" x="27" y="389.9618">element_at_path( a_path : String [1] ) : ELEMENT [1]</text><ellipse cx="18" cy="402.8997" fill="#84BE84" rx="3" ry="3" style="stroke:#038048;stroke-width:1;"/><text fill="#000000" font-family="sans-serif" font-size="14" lengthAdjust="spacing" textLength="173.3613" x="27" y="406.7617">as_hierarchy() : CLUSTER [1]</text></g><!--class ITEM_SINGLE--><g class="entity" data-entity="ITEM_SINGLE" data-source-line="12" data-uid="ent0004" id="entity_ITEM_SINGLE"><rect fill="#F1F1F1" height="81.5999" rx="2.5" ry="2.5" style="stroke:#181818;stroke-width:0.5;" width="203.3933" x="386.97" y="315.4"/><ellipse cx="441.3598" cy="331.4" fill="#ADD1B2" rx="11" ry="11" style="stroke:#181818;stroke-width:1;"/><path d="M441.3598,337.8219 C442.5317,337.8219 443.7661,337.5563 445.1411,336.9469 L444.6567,335.4313 C443.5629,335.8531 442.5473,336.0406 441.6879,336.0406 C438.9692,336.0406 437.2504,334.1969 437.2504,331.2906 C437.2504,328.5406 438.8129,326.9469 441.5473,326.9469 C442.4692,326.9469 443.4848,327.1344 444.6254,327.5563 L445.2036,326.0406 C444.1098,325.4625 442.8129,325.1656 441.6254,325.1656 C437.8598,325.1656 435.2817,327.8063 435.2817,331.6188 C435.2817,335.2906 437.7661,337.8219 441.3598,337.8219 Z " fill="#000000"/><text fill="#000000" font-family="sans-serif" font-size="14" lengthAdjust="spacing" textLength="86.1137" x="461.8598" y="336.762">ITEM_SINGLE</text><line style="stroke:#181818;stroke-width:0.5;" x1="387.97" x2="589.3633" y1="347.4" y2="347.4"/><ellipse cx="397.97" cy="361.3" fill="none" rx="3" ry="3" style="stroke:#038048;stroke-width:1;"/><text fill="#000000" font-family="sans-serif" font-size="14" lengthAdjust="spacing" textLength="118.9015" x="406.97" y="365.1619">item : ELEMENT [1]</text><line style="stroke:#181818;stroke-width:0.5;" x1="387.97" x2="589.3633" y1="372.1999" y2="372.1999"/><ellipse cx="397.97" cy="386.0999" fill="#84BE84" rx="3" ry="3" style="stroke:#038048;stroke-width:1;"/><text fill="#000000" font-family="sans-serif" font-size="14" lengthAdjust="spacing" textLength="177.3933" x="406.97" y="389.9619">as_hierarchy() : ELEMENT [1]</text></g><!--class ITEM_TABLE--><g class="entity" data-entity="ITEM_TABLE" data-source-line="17" data-uid="ent0005" id="entity_ITEM_TABLE"><rect fill="#F1F1F1" height="266.399" rx="2.5" ry="2.5" style="stroke:#181818;stroke-width:0.5;" width="383.3205" x="625.01" y="223"/><ellipse cx="772.6044" cy="239" fill="#ADD1B2" rx="11" ry="11" style="stroke:#181818;stroke-width:1;"/><path d="M772.6044,245.4219 C773.7763,245.4219 775.0107,245.1563 776.3857,244.5469 L775.9013,243.0313 C774.8075,243.4531 773.7919,243.6406 772.9325,243.6406 C770.2138,243.6406 768.495,241.7969 768.495,238.8906 C768.495,236.1406 770.0575,234.5469 772.7919,234.5469 C773.7138,234.5469 774.7294,234.7344 775.87,235.1563 L776.4482,233.6406 C775.3544,233.0625 774.0575,232.7656 772.87,232.7656 C769.1044,232.7656 766.5263,235.4063 766.5263,239.2188 C766.5263,242.8906 769.0107,245.4219 772.6044,245.4219 Z " fill="#000000"/><text fill="#000000" font-family="sans-serif" font-size="14" lengthAdjust="spacing" textLength="79.6317" x="793.1044" y="244.362">ITEM_TABLE</text><line style="stroke:#181818;stroke-width:0.5;" x1="626.01" x2="1007.3305" y1="255" y2="255"/><ellipse cx="636.01" cy="268.9" fill="none" rx="3" ry="3" style="stroke:#038048;stroke-width:1;"/><text fill="#000000" font-family="sans-serif" font-size="14" lengthAdjust="spacing" textLength="156.2114" x="645.01" y="272.7619">rows : List&lt;CLUSTER&gt; [*]</text><line style="stroke:#181818;stroke-width:0.5;" x1="626.01" x2="1007.3305" y1="279.7999" y2="279.7999"/><ellipse cx="636.01" cy="293.6999" fill="#84BE84" rx="3" ry="3" style="stroke:#038048;stroke-width:1;"/><text fill="#000000" font-family="sans-serif" font-size="14" lengthAdjust="spacing" textLength="148.2035" x="645.01" y="297.5619">row_count() : Integer [1]</text><ellipse cx="636.01" cy="310.4998" fill="#84BE84" rx="3" ry="3" style="stroke:#038048;stroke-width:1;"/><text fill="#000000" font-family="sans-serif" font-size="14" lengthAdjust="spacing" textLength="170.5474" x="645.01" y="314.3618">column_count() : Integer [1]</text><ellipse cx="636.01" cy="327.2997" fill="#84BE84" rx="3" ry="3" style="stroke:#038048;stroke-width:1;"/><text fill="#000000" font-family="sans-serif" font-size="14" lengthAdjust="spacing" textLength="206.2752" x="645.01" y="331.1617">row_names() : List&lt;DV_TEXT&gt; [*]</text><ellipse cx="636.01" cy="344.0997" fill="#84BE84" rx="3" ry="3" style="stroke:#038048;stroke-width:1;"/><text fill="#000000" font-family="sans-serif" font-size="14" lengthAdjust="spacing" textLength="228.6191" x="645.01" y="347.9616">column_names() : List&lt;DV_TEXT&gt; [*]</text><ellipse cx="636.01" cy="360.8996" fill="#84BE84" rx="3" ry="3" style="stroke:#038048;stroke-width:1;"/><text fill="#000000" font-family="sans-serif" font-size="14" lengthAdjust="spacing" textLength="225.5391" x="645.01" y="364.7616">ith_row( i : Integer [1] ) : CLUSTER [1]</text><ellipse cx="636.01" cy="377.6995" fill="#84BE84" rx="3" ry="3" style="stroke:#038048;stroke-width:1;"/><text fill="#000000" font-family="sans-serif" font-size="14" lengthAdjust="spacing" textLength="324.5328" x="645.01" y="381.5615">has_row_with_name( a_key : String [1] ) : Boolean [1]</text><ellipse cx="636.01" cy="394.4995" fill="#84BE84" rx="3" ry="3" style="stroke:#038048;stroke-width:1;"/><text fill="#000000" font-family="sans-serif" font-size="14" lengthAdjust="spacing" textLength="346.8767" x="645.01" y="398.3614">has_column_with_name( a_key : String [1] ) : Boolean [1]</text><ellipse cx="636.01" cy="411.2994" fill="#84BE84" rx="3" ry="3" style="stroke:#038048;stroke-width:1;"/><text fill="#000000" font-family="sans-serif" font-size="14" lengthAdjust="spacing" textLength="276.4569" x="645.01" y="415.1614">named_row( a_key : String [1] ) : CLUSTER [1]</text><ellipse cx="636.01" cy="428.0993" fill="#84BE84" rx="3" ry="3" style="stroke:#038048;stroke-width:1;"/><text fill="#000000" font-family="sans-serif" font-size="14" lengthAdjust="spacing" textLength="357.1246" x="645.01" y="431.9613">has_row_with_key( keys : List&lt;String&gt; [0..1] ) : Boolean [1]</text><ellipse cx="636.01" cy="444.8992" fill="#84BE84" rx="3" ry="3" style="stroke:#038048;stroke-width:1;"/><text fill="#000000" font-family="sans-serif" font-size="14" lengthAdjust="spacing" textLength="335.4667" x="645.01" y="448.7612">row_with_key( keys : List&lt;String&gt; [0..1] ) : CLUSTER [1]</text><ellipse cx="636.01" cy="461.6992" fill="#84BE84" rx="3" ry="3" style="stroke:#038048;stroke-width:1;"/><text fill="#000000" font-family="sans-serif" font-size="14" lengthAdjust="spacing" textLength="357.3205" x="645.01" y="465.5611">element_at_cell_ij( i : Any [1], j : Integer [1] ) : ELEMENT [1]</text><ellipse cx="636.01" cy="478.4991" fill="#84BE84" rx="3" ry="3" style="stroke:#038048;stroke-width:1;"/><text fill="#000000" font-family="sans-serif" font-size="14" lengthAdjust="spacing" textLength="173.3613" x="645.01" y="482.3611">as_hierarchy() : CLUSTER [1]</text></g><!--class ITEM_LIST--><g class="entity" data-entity="ITEM_LIST" data-source-line="33" data-uid="ent0006" id="entity_ITEM_LIST"><rect fill="#F1F1F1" height="148.7996" rx="2.5" ry="2.5" style="stroke:#181818;stroke-width:0.5;" width="324.4228" x="1043.46" y="281.8"/><ellipse cx="1168.7455" cy="297.8" fill="#ADD1B2" rx="11" ry="11" style="stroke:#181818;stroke-width:1;"/><path d="M1168.7455,304.2219 C1169.9174,304.2219 1171.1518,303.9562 1172.5268,303.3469 L1172.0424,301.8312 C1170.9486,302.2531 1169.933,302.4406 1169.0736,302.4406 C1166.3549,302.4406 1164.6361,300.5969 1164.6361,297.6906 C1164.6361,294.9406 1166.1986,293.3469 1168.933,293.3469 C1169.8549,293.3469 1170.8705,293.5344 1172.0111,293.9562 L1172.5893,292.4406 C1171.4955,291.8625 1170.1986,291.5656 1169.0111,291.5656 C1165.2455,291.5656 1162.6674,294.2062 1162.6674,298.0187 C1162.6674,301.6906 1165.1518,304.2219 1168.7455,304.2219 Z " fill="#000000"/><text fill="#000000" font-family="sans-serif" font-size="14" lengthAdjust="spacing" textLength="65.3517" x="1189.2455" y="303.162">ITEM_LIST</text><line style="stroke:#181818;stroke-width:0.5;" x1="1044.46" x2="1366.8828" y1="313.8" y2="313.8"/><ellipse cx="1054.46" cy="327.7" fill="none" rx="3" ry="3" style="stroke:#038048;stroke-width:1;"/><text fill="#000000" font-family="sans-serif" font-size="14" lengthAdjust="spacing" textLength="164.3593" x="1063.46" y="331.5619">items : List&lt;ELEMENT&gt; [*]</text><line style="stroke:#181818;stroke-width:0.5;" x1="1044.46" x2="1366.8828" y1="338.5999" y2="338.5999"/><ellipse cx="1054.46" cy="352.4999" fill="#84BE84" rx="3" ry="3" style="stroke:#038048;stroke-width:1;"/><text fill="#000000" font-family="sans-serif" font-size="14" lengthAdjust="spacing" textLength="152.3194" x="1063.46" y="356.3619">item_count() : Integer [1]</text><ellipse cx="1054.46" cy="369.2998" fill="#84BE84" rx="3" ry="3" style="stroke:#038048;stroke-width:1;"/><text fill="#000000" font-family="sans-serif" font-size="14" lengthAdjust="spacing" textLength="175.0973" x="1063.46" y="373.1618">names() : List&lt;DV_TEXT&gt; [*]</text><ellipse cx="1054.46" cy="386.0997" fill="#84BE84" rx="3" ry="3" style="stroke:#038048;stroke-width:1;"/><text fill="#000000" font-family="sans-serif" font-size="14" lengthAdjust="spacing" textLength="298.4228" x="1063.46" y="389.9617">named_item( a_name : String [1] ) : ELEMENT [1]</text><ellipse cx="1054.46" cy="402.8997" fill="#84BE84" rx="3" ry="3" style="stroke:#038048;stroke-width:1;"/><text fill="#000000" font-family="sans-serif" font-size="14" lengthAdjust="spacing" textLength="233.6871" x="1063.46" y="406.7616">ith_item( i : Integer [1] ) : ELEMENT [1]</text><ellipse cx="1054.46" cy="419.6996" fill="#84BE84" rx="3" ry="3" style="stroke:#038048;stroke-width:1;"/><text fill="#000000" font-family="sans-serif" font-size="14" lengthAdjust="spacing" textLength="173.3613" x="1063.46" y="423.5616">as_hierarchy() : CLUSTER [1]</text></g><!--class DATA_STRUCTURE--><g class="entity" data-entity="DATA_STRUCTURE" data-source-line="42" data-uid="ent0007" id="entity_DATA_STRUCTURE"><rect fill="#F1F1F1" height="48" rx="2.5" ry="2.5" style="stroke:#181818;stroke-width:0.5;" width="151.3495" x="576.99" y="7"/><ellipse cx="591.99" cy="23" fill="#ADD1B2" rx="11" ry="11" style="stroke:#181818;stroke-width:1;"/><path d="M591.99,29.4219 C593.1619,29.4219 594.3963,29.1563 595.7713,28.5469 L595.2869,27.0313 C594.1931,27.4531 593.1775,27.6406 592.3181,27.6406 C589.5994,27.6406 587.8806,25.7969 587.8806,22.8906 C587.8806,20.1406 589.4431,18.5469 592.1775,18.5469 C593.0994,18.5469 594.115,18.7344 595.2556,19.1563 L595.8338,17.6406 C594.74,17.0625 593.4431,16.7656 592.2556,16.7656 C588.49,16.7656 585.9119,19.4063 585.9119,23.2188 C585.9119,26.8906 588.3963,29.4219 591.99,29.4219 Z " fill="#000000"/><text fill="#000000" font-family="sans-serif" font-size="14" lengthAdjust="spacing" textLength="119.3495" x="605.99" y="28.362">DATA_STRUCTURE</text><line style="stroke:#181818;stroke-width:0.5;" x1="577.99" x2="727.3395" y1="39" y2="39"/><line style="stroke:#181818;stroke-width:0.5;" x1="577.99" x2="727.3395" y1="47" y2="47"/></g><!--reverse link DATA_STRUCTURE to ITEM_STRUCTURE--><g class="link" data-entity-1="DATA_STRUCTURE" data-entity-2="ITEM_STRUCTURE" data-source-line="42" data-uid="lnk8" id="link_DATA_STRUCTURE_ITEM_STRUCTURE"><path codeLine="42" d="M652.67,73.26 C652.67,90.94 652.67,97.13 652.67,114.79" fill="none" id="DATA_STRUCTURE-backto-ITEM_STRUCTURE" style="stroke:#181818;stroke-width:1;"/><polygon fill="none" points="652.67,55.26,646.67,73.26,658.67,73.26,652.67,55.26" style="stroke:#181818;stroke-width:1;"/></g><!--reverse link ITEM_STRUCTURE to ITEM_TREE--><g class="link" data-entity-1="ITEM_STRUCTURE" data-entity-2="ITEM_TREE" data-source-line="43" data-uid="lnk9" id="link_ITEM_STRUCTURE_ITEM_TREE"><path codeLine="43" d="M560.9194,158.8471 C502.3894,172.1771 437.21,190.66 369.67,223 C327.45,243.22 284.3,272.41 249.82,298.23" fill="none" id="ITEM_STRUCTURE-backto-ITEM_TREE" style="stroke:#181818;stroke-width:1;"/><polygon fill="none" points="578.47,154.85,559.587,152.9969,562.2518,164.6973,578.47,154.85" style="stroke:#181818;stroke-width:1;"/></g><!--reverse link ITEM_STRUCTURE to ITEM_SINGLE--><g class="link" data-entity-1="ITEM_STRUCTURE" data-entity-2="ITEM_SINGLE" data-source-line="44" data-uid="lnk10" id="link_ITEM_STRUCTURE_ITEM_SINGLE"><path codeLine="44" d="M623.9002,177.757 C596.1702,214.147 553.34,270.34 519.32,314.98" fill="none" id="ITEM_STRUCTURE-backto-ITEM_SINGLE" style="stroke:#181818;stroke-width:1;"/><polygon fill="none" points="634.81,163.44,619.1278,174.1203,628.6725,181.3936,634.81,163.44" style="stroke:#181818;stroke-width:1;"/></g><!--reverse link ITEM_STRUCTURE to ITEM_TABLE--><g class="link" data-entity-1="ITEM_STRUCTURE" data-entity-2="ITEM_TABLE" data-source-line="45" data-uid="lnk11" id="link_ITEM_STRUCTURE_ITEM_TABLE"><path codeLine="45" d="M681.4393,177.7573 C693.0593,193.0073 698.35,199.94 715.74,222.77" fill="none" id="ITEM_STRUCTURE-backto-ITEM_TABLE" style="stroke:#181818;stroke-width:1;"/><polygon fill="none" points="670.53,163.44,676.6669,181.3938,686.2118,174.1209,670.53,163.44" style="stroke:#181818;stroke-width:1;"/></g><!--reverse link ITEM_STRUCTURE to ITEM_LIST--><g class="link" data-entity-1="ITEM_STRUCTURE" data-entity-2="ITEM_LIST" data-source-line="46" data-uid="lnk12" id="link_ITEM_STRUCTURE_ITEM_LIST"><path codeLine="46" d="M744.8889,149.6294 C822.2989,159.3794 927.81,178.57 1025.67,223 C1058.86,238.07 1091.94,259.9 1120.52,281.49" fill="none" id="ITEM_STRUCTURE-backto-ITEM_LIST" style="stroke:#181818;stroke-width:1;"/><polygon fill="none" points="727.03,147.38,744.1391,155.5823,745.6387,143.6764,727.03,147.38" style="stroke:#181818;stroke-width:1;"/></g></g></svg>
