<svg xmlns="http://www.w3.org/2000/svg" xmlns:xlink="http://www.w3.org/1999/xlink" contentStyleType="text/css" data-diagram-type="CLASS" height="186px" preserveAspectRatio="none" style="width:167px;height:186px;background:#FFFFFF;" version="1.1" viewBox="0 0 167 186" width="167px" zoomAndPan="magnify"><defs/><g><!--class GENERIC_ENTRY--><g class="entity" data-entity="GENERIC_ENTRY" data-source-line="2" data-uid="ent0002" id="entity_GENERIC_ENTRY"><rect fill="#F1F1F1" height="64.7999" rx="2.5" ry="2.5" style="stroke:#181818;stroke-width:0.5;" width="153.7355" x="7" y="115"/><ellipse cx="27.8617" cy="131" fill="#ADD1B2" rx="11" ry="11" style="stroke:#181818;stroke-width:1;"/><path d="M27.8617,137.4219 C29.0335,137.4219 30.2679,137.1563 31.6429,136.5469 L31.1585,135.0313 C30.0648,135.4531 29.0492,135.6406 28.1898,135.6406 C25.471,135.6406 23.7523,133.7969 23.7523,130.8906 C23.7523,128.1406 25.3148,126.5469 28.0492,126.5469 C28.971,126.5469 29.9867,126.7344 31.1273,127.1563 L31.7054,125.6406 C30.6117,125.0625 29.3148,124.7656 28.1273,124.7656 C24.3617,124.7656 21.7835,127.4063 21.7835,131.2188 C21.7835,134.8906 24.2679,137.4219 27.8617,137.4219 Z " fill="#000000"/><text fill="#000000" font-family="sans-serif" font-size="14" lengthAdjust="spacing" textLength="108.7095" x="43.1643" y="136.362">GENERIC_ENTRY</text><line style="stroke:#181818;stroke-width:0.5;" x1="8" x2="159.7355" y1="147" y2="147"/><ellipse cx="18" cy="160.9" fill="none" rx="3" ry="3" style="stroke:#038048;stroke-width:1;"/><text fill="#000000" font-family="sans-serif" font-size="14" lengthAdjust="spacing" textLength="127.7355" x="27" y="164.7619">data : ITEM_TREE [1]</text><line style="stroke:#181818;stroke-width:0.5;" x1="8" x2="159.7355" y1="171.7999" y2="171.7999"/></g><!--class CONTENT_ITEM--><g class="entity" data-entity="CONTENT_ITEM" data-source-line="6" data-uid="ent0003" id="entity_CONTENT_ITEM"><rect fill="#F5F5F5" height="48" rx="2.5" ry="2.5" style="stroke:#808080;stroke-width:1;stroke-dasharray:1,3;" width="135.5576" x="16.09" y="7"/><ellipse cx="31.09" cy="23" fill="#A9DCDF" rx="11" ry="11" style="stroke:#181818;stroke-width:1;"/><path d="M25.6056,28.5 L27.6369,28.5 L31.6838,17.1563 L30.7775,17.1563 L34.6056,28.5 L36.7463,28.5 L32.4181,16.1719 L30.1994,16.1719 L25.6056,28.5 Z M27.9338,25 L34.3713,25 L34.3713,23.25 L27.9338,23.25 L27.9338,25 Z " fill="#000000"/><text fill="#808080" font-family="sans-serif" font-size="14" font-style="italic" lengthAdjust="spacing" textLength="103.5576" x="45.09" y="28.362">CONTENT_ITEM</text><line style="stroke:#808080;stroke-width:1;stroke-dasharray:1,3;" x1="17.09" x2="150.6476" y1="39" y2="39"/><line style="stroke:#808080;stroke-width:1;stroke-dasharray:1,3;" x1="17.09" x2="150.6476" y1="47" y2="47"/></g><!--reverse link CONTENT_ITEM to GENERIC_ENTRY--><g class="link" data-entity-1="CONTENT_ITEM" data-entity-2="GENERIC_ENTRY" data-source-line="9" data-uid="lnk4" id="link_CONTENT_ITEM_GENERIC_ENTRY"><path codeLine="9" d="M83.87,73.43 C83.87,90.55 83.87,95.97 83.87,114.76" fill="none" id="CONTENT_ITEM-backto-GENERIC_ENTRY" style="stroke:#181818;stroke-width:1;"/><polygon fill="none" points="83.87,55.43,77.87,73.43,89.87,73.43,83.87,55.43" style="stroke:#181818;stroke-width:1;"/></g></g></svg>
