<svg xmlns="http://www.w3.org/2000/svg" xmlns:xlink="http://www.w3.org/1999/xlink" contentStyleType="text/css" data-diagram-type="CLASS" height="1017px" preserveAspectRatio="none" style="width:1948px;height:1017px;background:#FFFFFF;" version="1.1" viewBox="0 0 1948 1017" width="1948px" zoomAndPan="magnify"><defs/><g><!--class DV_ORDERED--><g class="entity" data-entity="DV_ORDERED" data-source-line="2" data-uid="ent0002" id="entity_DV_ORDERED"><rect fill="#F1F1F1" height="165.5995" rx="2.5" ry="2.5" style="stroke:#181818;stroke-width:0.5;" width="479.2201" x="966.85" y="168.4"/><ellipse cx="1157.3822" cy="184.4" fill="#A9DCDF" rx="11" ry="11" style="stroke:#181818;stroke-width:1;"/><path d="M1151.8979,189.9 L1153.9291,189.9 L1157.976,178.5562 L1157.0697,178.5562 L1160.8979,189.9 L1163.0385,189.9 L1158.7104,177.5719 L1156.4916,177.5719 L1151.8979,189.9 Z M1154.226,186.4 L1160.6635,186.4 L1160.6635,184.65 L1154.226,184.65 L1154.226,186.4 Z " fill="#000000"/><text fill="#000000" font-family="sans-serif" font-size="14" font-style="italic" lengthAdjust="spacing" textLength="89.6556" x="1177.8822" y="189.762">DV_ORDERED</text><line style="stroke:#181818;stroke-width:0.5;" x1="967.85" x2="1445.0701" y1="200.4" y2="200.4"/><ellipse cx="977.85" cy="214.3" fill="none" rx="3" ry="3" style="stroke:#038048;stroke-width:1;"/><text fill="#000000" font-family="sans-serif" font-size="14" lengthAdjust="spacing" textLength="230.5231" x="986.85" y="218.1619">normal_status : CODE_PHRASE [0..1]</text><ellipse cx="977.85" cy="231.0999" fill="none" rx="3" ry="3" style="stroke:#038048;stroke-width:1;"/><text fill="#000000" font-family="sans-serif" font-size="14" lengthAdjust="spacing" textLength="220.3871" x="986.85" y="234.9619">normal_range : DV_INTERVAL [0..1]</text><ellipse cx="977.85" cy="247.8998" fill="none" rx="3" ry="3" style="stroke:#038048;stroke-width:1;"/><text fill="#000000" font-family="sans-serif" font-size="14" lengthAdjust="spacing" textLength="453.2201" x="986.85" y="251.7618">other_reference_ranges : List&lt;REFERENCE_RANGE&lt;DV_ORDERED&gt;&gt; [*]</text><line style="stroke:#181818;stroke-width:0.5;" x1="967.85" x2="1445.0701" y1="258.7998" y2="258.7998"/><ellipse cx="977.85" cy="272.6997" fill="#84BE84" rx="3" ry="3" style="stroke:#038048;stroke-width:1;"/><text fill="#000000" font-family="sans-serif" font-size="14" font-style="italic" lengthAdjust="spacing" textLength="406.1805" x="986.85" y="276.5617">is_strictly_comparable_to( other : DV_ORDERED [1] ) : Boolean [1]</text><ellipse cx="977.85" cy="289.4997" fill="#84BE84" rx="3" ry="3" style="stroke:#038048;stroke-width:1;"/><text fill="#000000" font-family="sans-serif" font-size="14" lengthAdjust="spacing" textLength="146.6214" x="986.85" y="293.3616">is_simple() : Boolean [1]</text><ellipse cx="977.85" cy="306.2996" fill="#84BE84" rx="3" ry="3" style="stroke:#038048;stroke-width:1;"/><text fill="#000000" font-family="sans-serif" font-size="14" lengthAdjust="spacing" textLength="149.6174" x="986.85" y="310.1616">is_normal() : Boolean [1]</text><ellipse cx="977.85" cy="323.0995" fill="#84BE84" rx="3" ry="3" style="stroke:#038048;stroke-width:1;"/><text fill="#000000" font-family="sans-serif" font-size="14" font-style="italic" lengthAdjust="spacing" textLength="245.657" x="986.85" y="326.9615">infix &lt;( other : Ordered [1] ) : Boolean [1]</text></g><!--class DV_INTERVAL--><g class="entity" data-entity="DV_INTERVAL" data-source-line="12" data-uid="ent0003" id="entity_DV_INTERVAL"><rect fill="#F1F1F1" height="48" rx="2.5" ry="2.5" style="stroke:#181818;stroke-width:0.5;" width="131.4957" x="1480.71" y="227.2"/><ellipse cx="1495.71" cy="243.2" fill="#ADD1B2" rx="11" ry="11" style="stroke:#181818;stroke-width:1;"/><path d="M1495.71,249.6219 C1496.8819,249.6219 1498.1163,249.3562 1499.4913,248.7469 L1499.0069,247.2312 C1497.9131,247.6531 1496.8975,247.8406 1496.0381,247.8406 C1493.3194,247.8406 1491.6006,245.9969 1491.6006,243.0906 C1491.6006,240.3406 1493.1631,238.7469 1495.8975,238.7469 C1496.8194,238.7469 1497.835,238.9344 1498.9756,239.3562 L1499.5538,237.8406 C1498.46,237.2625 1497.1631,236.9656 1495.9756,236.9656 C1492.21,236.9656 1489.6319,239.6062 1489.6319,243.4187 C1489.6319,247.0906 1492.1163,249.6219 1495.71,249.6219 Z " fill="#000000"/><text fill="#000000" font-family="sans-serif" font-size="14" lengthAdjust="spacing" textLength="88.7036" x="1509.71" y="248.562">DV_INTERVAL</text><rect fill="#FFFFFF" height="16.4001" style="stroke:#181818;stroke-width:1;stroke-dasharray:2,2;" width="8.7921" x="1606.4136" y="224.2"/><text fill="#000000" font-family="sans-serif" font-size="12" font-style="italic" lengthAdjust="spacing" textLength="6.7921" x="1607.4136" y="236.9961">T</text><line style="stroke:#181818;stroke-width:0.5;" x1="1481.71" x2="1611.2057" y1="259.2" y2="259.2"/><line style="stroke:#181818;stroke-width:0.5;" x1="1481.71" x2="1611.2057" y1="267.2" y2="267.2"/></g><!--class REFERENCE_RANGE--><g class="entity" data-entity="REFERENCE_RANGE" data-source-line="15" data-uid="ent0004" id="entity_REFERENCE_RANGE"><rect fill="#F1F1F1" height="98.3998" rx="2.5" ry="2.5" style="stroke:#181818;stroke-width:0.5;" width="316.2189" x="1621.35" y="10"/><ellipse cx="1704.5107" cy="26" fill="#ADD1B2" rx="11" ry="11" style="stroke:#181818;stroke-width:1;"/><path d="M1704.5107,32.4219 C1705.6826,32.4219 1706.9169,32.1563 1708.2919,31.5469 L1707.8076,30.0313 C1706.7138,30.4531 1705.6982,30.6406 1704.8388,30.6406 C1702.1201,30.6406 1700.4013,28.7969 1700.4013,25.8906 C1700.4013,23.1406 1701.9638,21.5469 1704.6982,21.5469 C1705.6201,21.5469 1706.6357,21.7344 1707.7763,22.1563 L1708.3544,20.6406 C1707.2607,20.0625 1705.9638,19.7656 1704.7763,19.7656 C1701.0107,19.7656 1698.4326,22.4063 1698.4326,26.2188 C1698.4326,29.8906 1700.9169,32.4219 1704.5107,32.4219 Z " fill="#000000"/><text fill="#000000" font-family="sans-serif" font-size="14" lengthAdjust="spacing" textLength="130.6055" x="1725.0107" y="31.362">REFERENCE_RANGE</text><rect fill="#FFFFFF" height="16.4001" style="stroke:#181818;stroke-width:1;stroke-dasharray:2,2;" width="8.7921" x="1931.7768" y="7"/><text fill="#000000" font-family="sans-serif" font-size="12" font-style="italic" lengthAdjust="spacing" textLength="6.7921" x="1932.7768" y="19.7961">T</text><line style="stroke:#181818;stroke-width:0.5;" x1="1622.35" x2="1936.5689" y1="42" y2="42"/><ellipse cx="1632.35" cy="55.9" fill="none" rx="3" ry="3" style="stroke:#038048;stroke-width:1;"/><text fill="#000000" font-family="sans-serif" font-size="14" lengthAdjust="spacing" textLength="140.5734" x="1641.35" y="59.7619">meaning : DV_TEXT [1]</text><ellipse cx="1632.35" cy="72.6999" fill="none" rx="3" ry="3" style="stroke:#038048;stroke-width:1;"/><text fill="#000000" font-family="sans-serif" font-size="14" lengthAdjust="spacing" textLength="153.0054" x="1641.35" y="76.5619">range : DV_INTERVAL [1]</text><line style="stroke:#181818;stroke-width:0.5;" x1="1622.35" x2="1936.5689" y1="83.5999" y2="83.5999"/><ellipse cx="1632.35" cy="97.4998" fill="#84BE84" rx="3" ry="3" style="stroke:#038048;stroke-width:1;"/><text fill="#000000" font-family="sans-serif" font-size="14" lengthAdjust="spacing" textLength="290.2189" x="1641.35" y="101.3618">is_in_range( v : DV_ORDERED [1] ) : Boolean [1]</text></g><!--class DV_QUANTIFIED--><g class="entity" data-entity="DV_QUANTIFIED" data-source-line="21" data-uid="ent0005" id="entity_DV_QUANTIFIED"><rect fill="#F1F1F1" height="131.9996" rx="2.5" ry="2.5" style="stroke:#181818;stroke-width:0.5;" width="262.515" x="884.2" y="394"/><ellipse cx="958.1197" cy="410" fill="#A9DCDF" rx="11" ry="11" style="stroke:#181818;stroke-width:1;"/><path d="M952.6353,415.5 L954.6666,415.5 L958.7135,404.1563 L957.8072,404.1563 L961.6353,415.5 L963.776,415.5 L959.4478,403.1719 L957.2291,403.1719 L952.6353,415.5 Z M954.9635,412 L961.401,412 L961.401,410.25 L954.9635,410.25 L954.9635,412 Z " fill="#000000"/><text fill="#000000" font-family="sans-serif" font-size="14" font-style="italic" lengthAdjust="spacing" textLength="106.1756" x="978.6197" y="415.362">DV_QUANTIFIED</text><line style="stroke:#181818;stroke-width:0.5;" x1="885.2" x2="1145.715" y1="426" y2="426"/><ellipse cx="895.2" cy="439.9" fill="none" rx="3" ry="3" style="stroke:#038048;stroke-width:1;"/><text fill="#000000" font-family="sans-serif" font-size="14" lengthAdjust="spacing" textLength="193.9972" x="904.2" y="443.7619">magnitude_status : String [0..1]</text><ellipse cx="895.2" cy="456.6999" fill="none" rx="3" ry="3" style="stroke:#038048;stroke-width:1;"/><text fill="#000000" font-family="sans-serif" font-size="14" lengthAdjust="spacing" textLength="121.4915" x="904.2" y="460.5619">accuracy : Any [0..1]</text><line style="stroke:#181818;stroke-width:0.5;" x1="885.2" x2="1145.715" y1="467.5999" y2="467.5999"/><ellipse cx="895.2" cy="481.4998" fill="#84BE84" rx="3" ry="3" style="stroke:#038048;stroke-width:1;"/><text fill="#000000" font-family="sans-serif" font-size="14" lengthAdjust="spacing" textLength="236.515" x="904.2" y="485.3618">valid_magnitude_status() : Boolean [1]</text><ellipse cx="895.2" cy="498.2997" fill="#84BE84" rx="3" ry="3" style="stroke:#038048;stroke-width:1;"/><text fill="#000000" font-family="sans-serif" font-size="14" font-style="italic" lengthAdjust="spacing" textLength="216.4531" x="904.2" y="502.1617">magnitude() : Ordered_Numeric [1]</text><ellipse cx="895.2" cy="515.0997" fill="#84BE84" rx="3" ry="3" style="stroke:#038048;stroke-width:1;"/><text fill="#000000" font-family="sans-serif" font-size="14" lengthAdjust="spacing" textLength="206.3172" x="904.2" y="518.9616">accuracy_unknown() : Boolean [1]</text></g><!--class DV_PROPORTION--><g class="entity" data-entity="DV_PROPORTION" data-source-line="29" data-uid="ent0006" id="entity_DV_PROPORTION"><rect fill="#F1F1F1" height="199.1993" rx="2.5" ry="2.5" style="stroke:#181818;stroke-width:0.5;" width="502.922" x="7" y="811.6"/><ellipse cx="197.5322" cy="827.6" fill="#ADD1B2" rx="11" ry="11" style="stroke:#181818;stroke-width:1;"/><path d="M197.5322,834.0219 C198.7041,834.0219 199.9385,833.7562 201.3135,833.1469 L200.8291,831.6312 C199.7354,832.0531 198.7197,832.2406 197.8604,832.2406 C195.1416,832.2406 193.4229,830.3969 193.4229,827.4906 C193.4229,824.7406 194.9854,823.1469 197.7197,823.1469 C198.6416,823.1469 199.6572,823.3344 200.7979,823.7562 L201.376,822.2406 C200.2822,821.6625 198.9854,821.3656 197.7979,821.3656 C194.0322,821.3656 191.4541,824.0062 191.4541,827.8187 C191.4541,831.4906 193.9385,834.0219 197.5322,834.0219 Z " fill="#000000"/><text fill="#000000" font-family="sans-serif" font-size="14" lengthAdjust="spacing" textLength="113.3575" x="218.0322" y="832.962">DV_PROPORTION</text><line style="stroke:#181818;stroke-width:0.5;" x1="8" x2="508.922" y1="843.6" y2="843.6"/><ellipse cx="18" cy="857.5" fill="none" rx="3" ry="3" style="stroke:#038048;stroke-width:1;"/><text fill="#000000" font-family="sans-serif" font-size="14" lengthAdjust="spacing" textLength="121.9395" x="27" y="861.3619">numerator : Real [1]</text><ellipse cx="18" cy="874.2999" fill="none" rx="3" ry="3" style="stroke:#038048;stroke-width:1;"/><text fill="#000000" font-family="sans-serif" font-size="14" lengthAdjust="spacing" textLength="136.1495" x="27" y="878.1619">denominator : Real [1]</text><ellipse cx="18" cy="891.0998" fill="none" rx="3" ry="3" style="stroke:#038048;stroke-width:1;"/><text fill="#000000" font-family="sans-serif" font-size="14" lengthAdjust="spacing" textLength="100.4776" x="27" y="894.9618">type : Integer [1]</text><ellipse cx="18" cy="907.8997" fill="none" rx="3" ry="3" style="stroke:#038048;stroke-width:1;"/><text fill="#000000" font-family="sans-serif" font-size="14" lengthAdjust="spacing" textLength="145.5434" x="27" y="911.7617">precision : Integer [0..1]</text><ellipse cx="18" cy="924.6997" fill="none" rx="3" ry="3" style="stroke:#038048;stroke-width:1;"/><text fill="#000000" font-family="sans-serif" font-size="14" lengthAdjust="spacing" textLength="349.9845" x="27" y="928.5616">normal_range : DV_INTERVAL&lt;DV_PROPORTION&gt; [0..1]</text><ellipse cx="18" cy="941.4996" fill="none" rx="3" ry="3" style="stroke:#038048;stroke-width:1;"/><text fill="#000000" font-family="sans-serif" font-size="14" lengthAdjust="spacing" textLength="476.922" x="27" y="945.3616">other_reference_ranges : List&lt;REFERENCE_RANGE&lt;DV_PROPORTION&gt;&gt; [*]</text><line style="stroke:#181818;stroke-width:0.5;" x1="8" x2="508.922" y1="952.3996" y2="952.3996"/><ellipse cx="18" cy="966.2995" fill="#84BE84" rx="3" ry="3" style="stroke:#038048;stroke-width:1;"/><text fill="#000000" font-family="sans-serif" font-size="14" lengthAdjust="spacing" textLength="131.2775" x="27" y="970.1615">magnitude() : Real [1]</text><ellipse cx="18" cy="983.0995" fill="#84BE84" rx="3" ry="3" style="stroke:#038048;stroke-width:1;"/><text fill="#000000" font-family="sans-serif" font-size="14" lengthAdjust="spacing" textLength="153.1454" x="27" y="986.9614">is_integral() : Boolean [1]</text><ellipse cx="18" cy="999.8994" fill="#84BE84" rx="3" ry="3" style="stroke:#038048;stroke-width:1;"/><text fill="#000000" font-family="sans-serif" font-size="14" lengthAdjust="spacing" textLength="377.2005" x="27" y="1003.7614">infix =( source : DV_PROPORTION [1] ) : DV_PROPORTION [1]</text></g><!--class PROPORTION_KIND--><g class="entity" data-entity="PROPORTION_KIND" data-source-line="41" data-uid="ent0007" id="entity_PROPORTION_KIND"><rect fill="#F1F1F1" height="131.9996" rx="2.5" ry="2.5" style="stroke:#181818;stroke-width:0.5;" width="159.6655" x="178.63" y="602.8"/><ellipse cx="193.63" cy="618.8" fill="#EB937F" rx="11" ry="11" style="stroke:#181818;stroke-width:1;"/><path d="M189.1925,625.3 L197.13,625.3 L197.13,623.55 L191.13,623.55 L191.13,619.8156 L196.6769,619.8156 L196.6769,618.05 L191.13,618.05 L191.13,614.7219 L197.13,614.7219 L197.13,612.9719 L189.1925,612.9719 L189.1925,625.3 Z " fill="#000000"/><text fill="#000000" font-family="sans-serif" font-size="14" lengthAdjust="spacing" textLength="127.6655" x="207.63" y="624.162">PROPORTION_KIND</text><line style="stroke:#181818;stroke-width:0.5;" x1="179.63" x2="337.2955" y1="634.8" y2="634.8"/><text fill="#000000" font-family="sans-serif" font-size="14" lengthAdjust="spacing" textLength="73.7237" x="184.63" y="652.5619">pk_ratio = 0</text><text fill="#000000" font-family="sans-serif" font-size="14" lengthAdjust="spacing" textLength="85.5817" x="184.63" y="669.3619">pk_unitary = 1</text><text fill="#000000" font-family="sans-serif" font-size="14" lengthAdjust="spacing" textLength="91.2236" x="184.63" y="686.1618">pk_percent = 2</text><text fill="#000000" font-family="sans-serif" font-size="14" lengthAdjust="spacing" textLength="92.2316" x="184.63" y="702.9617">pk_fraction = 3</text><text fill="#000000" font-family="sans-serif" font-size="14" lengthAdjust="spacing" textLength="144.1994" x="184.63" y="719.7616">pk_integer_fraction = 4</text><line style="stroke:#181818;stroke-width:0.5;" x1="179.63" x2="337.2955" y1="726.7996" y2="726.7996"/></g><!--class DV_AMOUNT--><g class="entity" data-entity="DV_AMOUNT" data-source-line="49" data-uid="ent0008" id="entity_DV_AMOUNT"><rect fill="#F1F1F1" height="165.5995" rx="2.5" ry="2.5" style="stroke:#181818;stroke-width:0.5;" width="416.2065" x="577.36" y="586"/><ellipse cx="738.8914" cy="602" fill="#A9DCDF" rx="11" ry="11" style="stroke:#181818;stroke-width:1;"/><path d="M733.407,607.5 L735.4383,607.5 L739.4852,596.1563 L738.5789,596.1563 L742.407,607.5 L744.5477,607.5 L740.2195,595.1719 L738.0008,595.1719 L733.407,607.5 Z M735.7352,604 L742.1727,604 L742.1727,602.25 L735.7352,602.25 L735.7352,604 Z " fill="#000000"/><text fill="#000000" font-family="sans-serif" font-size="14" font-style="italic" lengthAdjust="spacing" textLength="84.6437" x="759.3914" y="607.362">DV_AMOUNT</text><line style="stroke:#181818;stroke-width:0.5;" x1="578.36" x2="992.5665" y1="618" y2="618"/><ellipse cx="588.36" cy="631.9" fill="none" rx="3" ry="3" style="stroke:#038048;stroke-width:1;"/><text fill="#000000" font-family="sans-serif" font-size="14" lengthAdjust="spacing" textLength="220.6811" x="597.36" y="635.7619">accuracy_is_percent : Boolean [0..1]</text><ellipse cx="588.36" cy="648.6999" fill="none" rx="3" ry="3" style="stroke:#038048;stroke-width:1;"/><text fill="#000000" font-family="sans-serif" font-size="14" lengthAdjust="spacing" textLength="125.2015" x="597.36" y="652.5619">accuracy : Real [0..1]</text><line style="stroke:#181818;stroke-width:0.5;" x1="578.36" x2="992.5665" y1="659.5999" y2="659.5999"/><ellipse cx="588.36" cy="673.4998" fill="#84BE84" rx="3" ry="3" style="stroke:#038048;stroke-width:1;"/><text fill="#000000" font-family="sans-serif" font-size="14" lengthAdjust="spacing" textLength="390.2065" x="597.36" y="677.3618">valid_percentage( number : Ordered_Numeric [1] ) : Boolean [1]</text><ellipse cx="588.36" cy="690.2997" fill="#84BE84" rx="3" ry="3" style="stroke:#038048;stroke-width:1;"/><text fill="#000000" font-family="sans-serif" font-size="14" lengthAdjust="spacing" textLength="319.7727" x="597.36" y="694.1617">infix =( source : DV_AMOUNT [1] ) : DV_AMOUNT [1]</text><ellipse cx="588.36" cy="707.0997" fill="#84BE84" rx="3" ry="3" style="stroke:#038048;stroke-width:1;"/><text fill="#000000" font-family="sans-serif" font-size="14" lengthAdjust="spacing" textLength="311.9188" x="597.36" y="710.9616">infix +( other : DV_AMOUNT [1] ) : DV_AMOUNT [1]</text><ellipse cx="588.36" cy="723.8996" fill="#84BE84" rx="3" ry="3" style="stroke:#038048;stroke-width:1;"/><text fill="#000000" font-family="sans-serif" font-size="14" lengthAdjust="spacing" textLength="309.7348" x="597.36" y="727.7616">infix -( other : DV_AMOUNT [1] ) : DV_AMOUNT [1]</text><ellipse cx="588.36" cy="740.6995" fill="#84BE84" rx="3" ry="3" style="stroke:#038048;stroke-width:1;"/><text fill="#000000" font-family="sans-serif" font-size="14" lengthAdjust="spacing" textLength="166.0674" x="597.36" y="744.5615">prefix -() : DV_AMOUNT [1]</text></g><!--class DV_QUANTITY--><g class="entity" data-entity="DV_QUANTITY" data-source-line="59" data-uid="ent0009" id="entity_DV_QUANTITY"><rect fill="#F1F1F1" height="148.7996" rx="2.5" ry="2.5" style="stroke:#181818;stroke-width:0.5;" width="482.034" x="544.44" y="836.8"/><ellipse cx="734.9722" cy="852.8" fill="#ADD1B2" rx="11" ry="11" style="stroke:#181818;stroke-width:1;"/><path d="M734.9722,859.2219 C736.1441,859.2219 737.3784,858.9563 738.7534,858.3469 L738.2691,856.8313 C737.1753,857.2531 736.1597,857.4406 735.3003,857.4406 C732.5816,857.4406 730.8628,855.5969 730.8628,852.6906 C730.8628,849.9406 732.4253,848.3469 735.1597,848.3469 C736.0816,848.3469 737.0972,848.5344 738.2378,848.9563 L738.8159,847.4406 C737.7222,846.8625 736.4253,846.5656 735.2378,846.5656 C731.4722,846.5656 728.8941,849.2063 728.8941,853.0188 C728.8941,856.6906 731.3784,859.2219 734.9722,859.2219 Z " fill="#000000"/><text fill="#000000" font-family="sans-serif" font-size="14" lengthAdjust="spacing" textLength="92.4696" x="755.4722" y="858.162">DV_QUANTITY</text><line style="stroke:#181818;stroke-width:0.5;" x1="545.44" x2="1025.474" y1="868.8" y2="868.8"/><ellipse cx="555.44" cy="882.7" fill="none" rx="3" ry="3" style="stroke:#038048;stroke-width:1;"/><text fill="#000000" font-family="sans-serif" font-size="14" lengthAdjust="spacing" textLength="122.8495" x="564.44" y="886.5619">magnitude : Real [1]</text><ellipse cx="555.44" cy="899.4999" fill="none" rx="3" ry="3" style="stroke:#038048;stroke-width:1;"/><text fill="#000000" font-family="sans-serif" font-size="14" lengthAdjust="spacing" textLength="145.5434" x="564.44" y="903.3619">precision : Integer [0..1]</text><ellipse cx="555.44" cy="916.2998" fill="none" rx="3" ry="3" style="stroke:#038048;stroke-width:1;"/><text fill="#000000" font-family="sans-serif" font-size="14" lengthAdjust="spacing" textLength="96.7256" x="564.44" y="920.1618">units : String [1]</text><ellipse cx="555.44" cy="933.0997" fill="none" rx="3" ry="3" style="stroke:#038048;stroke-width:1;"/><text fill="#000000" font-family="sans-serif" font-size="14" lengthAdjust="spacing" textLength="329.0966" x="564.44" y="936.9617">normal_range : DV_INTERVAL&lt;DV_QUANTITY&gt; [0..1]</text><ellipse cx="555.44" cy="949.8997" fill="none" rx="3" ry="3" style="stroke:#038048;stroke-width:1;"/><text fill="#000000" font-family="sans-serif" font-size="14" lengthAdjust="spacing" textLength="456.034" x="564.44" y="953.7616">other_reference_ranges : List&lt;REFERENCE_RANGE&lt;DV_QUANTITY&gt;&gt; [*]</text><line style="stroke:#181818;stroke-width:0.5;" x1="545.44" x2="1025.474" y1="960.7996" y2="960.7996"/><ellipse cx="555.44" cy="974.6996" fill="#84BE84" rx="3" ry="3" style="stroke:#038048;stroke-width:1;"/><text fill="#000000" font-family="sans-serif" font-size="14" lengthAdjust="spacing" textLength="153.1454" x="564.44" y="978.5616">is_integral() : Boolean [1]</text></g><!--class DV_COUNT--><g class="entity" data-entity="DV_COUNT" data-source-line="68" data-uid="ent0010" id="entity_DV_COUNT"><rect fill="#F1F1F1" height="98.3998" rx="2.5" ry="2.5" style="stroke:#181818;stroke-width:0.5;" width="462.4481" x="1061.24" y="862"/><ellipse cx="1251.7722" cy="878" fill="#ADD1B2" rx="11" ry="11" style="stroke:#181818;stroke-width:1;"/><path d="M1251.7722,884.4219 C1252.9441,884.4219 1254.1785,884.1563 1255.5535,883.5469 L1255.0691,882.0313 C1253.9753,882.4531 1252.9597,882.6406 1252.1003,882.6406 C1249.3816,882.6406 1247.6628,880.7969 1247.6628,877.8906 C1247.6628,875.1406 1249.2253,873.5469 1251.9597,873.5469 C1252.8816,873.5469 1253.8972,873.7344 1255.0378,874.1563 L1255.616,872.6406 C1254.5222,872.0625 1253.2253,871.7656 1252.0378,871.7656 C1248.2722,871.7656 1245.6941,874.4063 1245.6941,878.2188 C1245.6941,881.8906 1248.1785,884.4219 1251.7722,884.4219 Z " fill="#000000"/><text fill="#000000" font-family="sans-serif" font-size="14" lengthAdjust="spacing" textLength="72.8837" x="1272.2722" y="883.362">DV_COUNT</text><line style="stroke:#181818;stroke-width:0.5;" x1="1062.24" x2="1522.6881" y1="894" y2="894"/><ellipse cx="1072.24" cy="907.9" fill="none" rx="3" ry="3" style="stroke:#038048;stroke-width:1;"/><text fill="#000000" font-family="sans-serif" font-size="14" lengthAdjust="spacing" textLength="157.0094" x="1081.24" y="911.7619">magnitude : Integer64 [1]</text><ellipse cx="1072.24" cy="924.6999" fill="none" rx="3" ry="3" style="stroke:#038048;stroke-width:1;"/><text fill="#000000" font-family="sans-serif" font-size="14" lengthAdjust="spacing" textLength="309.5107" x="1081.24" y="928.5619">normal_range : DV_INTERVAL&lt;DV_COUNT&gt; [0..1]</text><ellipse cx="1072.24" cy="941.4998" fill="none" rx="3" ry="3" style="stroke:#038048;stroke-width:1;"/><text fill="#000000" font-family="sans-serif" font-size="14" lengthAdjust="spacing" textLength="436.4481" x="1081.24" y="945.3618">other_reference_ranges : List&lt;REFERENCE_RANGE&lt;DV_COUNT&gt;&gt; [*]</text><line style="stroke:#181818;stroke-width:0.5;" x1="1062.24" x2="1522.6881" y1="952.3998" y2="952.3998"/></g><!--class DV_ABSOLUTE_QUANTITY--><g class="entity" data-entity="DV_ABSOLUTE_QUANTITY" data-source-line="74" data-uid="ent0011" id="entity_DV_ABSOLUTE_QUANTITY"><rect fill="#F1F1F1" height="115.1997" rx="2.5" ry="2.5" style="stroke:#181818;stroke-width:0.5;" width="435.5123" x="1028.7" y="611.2"/><ellipse cx="1158.1995" cy="627.2" fill="#A9DCDF" rx="11" ry="11" style="stroke:#181818;stroke-width:1;"/><path d="M1152.7151,632.7 L1154.7463,632.7 L1158.7932,621.3562 L1157.887,621.3562 L1161.7151,632.7 L1163.8557,632.7 L1159.5276,620.3719 L1157.3088,620.3719 L1152.7151,632.7 Z M1155.0432,629.2 L1161.4807,629.2 L1161.4807,627.45 L1155.0432,627.45 L1155.0432,629.2 Z " fill="#000000"/><text fill="#000000" font-family="sans-serif" font-size="14" font-style="italic" lengthAdjust="spacing" textLength="168.0133" x="1178.6995" y="632.562">DV_ABSOLUTE_QUANTITY</text><line style="stroke:#181818;stroke-width:0.5;" x1="1029.7" x2="1463.2123" y1="643.2" y2="643.2"/><ellipse cx="1039.7" cy="657.1" fill="none" rx="3" ry="3" style="stroke:#038048;stroke-width:1;"/><text fill="#000000" font-family="sans-serif" font-size="14" lengthAdjust="spacing" textLength="182.7133" x="1048.7" y="660.9619">accuracy : DV_AMOUNT [0..1]</text><line style="stroke:#181818;stroke-width:0.5;" x1="1029.7" x2="1463.2123" y1="667.9999" y2="667.9999"/><ellipse cx="1039.7" cy="681.8999" fill="#84BE84" rx="3" ry="3" style="stroke:#038048;stroke-width:1;"/><text fill="#000000" font-family="sans-serif" font-size="14" font-style="italic" lengthAdjust="spacing" textLength="378.8804" x="1048.7" y="685.7619">diff( other : DV_ABSOLUTE_QUANTITY [1] ) : DV_AMOUNT [1]</text><ellipse cx="1039.7" cy="698.6998" fill="#84BE84" rx="3" ry="3" style="stroke:#038048;stroke-width:1;"/><text fill="#000000" font-family="sans-serif" font-size="14" font-style="italic" lengthAdjust="spacing" textLength="382.5764" x="1048.7" y="702.5618">add( a_diff : DV_AMOUNT [1] ) : DV_ABSOLUTE_QUANTITY [1]</text><ellipse cx="1039.7" cy="715.4997" fill="#84BE84" rx="3" ry="3" style="stroke:#038048;stroke-width:1;"/><text fill="#000000" font-family="sans-serif" font-size="14" font-style="italic" lengthAdjust="spacing" textLength="409.5123" x="1048.7" y="719.3617">subtract( a_diif : DV_AMOUNT [1] ) : DV_ABSOLUTE_QUANTITY [1]</text></g><!--class DV_ORDINAL--><g class="entity" data-entity="DV_ORDINAL" data-source-line="81" data-uid="ent0012" id="entity_DV_ORDINAL"><rect fill="#F1F1F1" height="131.9996" rx="2.5" ry="2.5" style="stroke:#181818;stroke-width:0.5;" width="432.1805" x="1181.37" y="394"/><ellipse cx="1350.8324" cy="410" fill="#ADD1B2" rx="11" ry="11" style="stroke:#181818;stroke-width:1;"/><path d="M1350.8324,416.4219 C1352.0043,416.4219 1353.2387,416.1563 1354.6137,415.5469 L1354.1293,414.0313 C1353.0355,414.4531 1352.0199,414.6406 1351.1605,414.6406 C1348.4418,414.6406 1346.723,412.7969 1346.723,409.8906 C1346.723,407.1406 1348.2855,405.5469 1351.0199,405.5469 C1351.9418,405.5469 1352.9574,405.7344 1354.098,406.1563 L1354.6762,404.6406 C1353.5824,404.0625 1352.2855,403.7656 1351.098,403.7656 C1347.3324,403.7656 1344.7543,406.4063 1344.7543,410.2188 C1344.7543,413.8906 1347.2387,416.4219 1350.8324,416.4219 Z " fill="#000000"/><text fill="#000000" font-family="sans-serif" font-size="14" lengthAdjust="spacing" textLength="84.7557" x="1371.3324" y="415.362">DV_ORDINAL</text><line style="stroke:#181818;stroke-width:0.5;" x1="1182.37" x2="1612.5505" y1="426" y2="426"/><ellipse cx="1192.37" cy="439.9" fill="none" rx="3" ry="3" style="stroke:#038048;stroke-width:1;"/><text fill="#000000" font-family="sans-serif" font-size="14" lengthAdjust="spacing" textLength="186.4932" x="1201.37" y="443.7619">symbol : DV_CODED_TEXT [1]</text><ellipse cx="1192.37" cy="456.6999" fill="none" rx="3" ry="3" style="stroke:#038048;stroke-width:1;"/><text fill="#000000" font-family="sans-serif" font-size="14" lengthAdjust="spacing" textLength="106.3016" x="1201.37" y="460.5619">value : Integer [1]</text><line style="stroke:#181818;stroke-width:0.5;" x1="1182.37" x2="1612.5505" y1="467.5999" y2="467.5999"/><ellipse cx="1192.37" cy="481.4998" fill="#84BE84" rx="3" ry="3" style="stroke:#038048;stroke-width:1;"/><text fill="#000000" font-family="sans-serif" font-size="14" lengthAdjust="spacing" textLength="156.4634" x="1201.37" y="485.3618">limits() : DV_ORDINAL [1]</text><ellipse cx="1192.37" cy="498.2997" fill="#84BE84" rx="3" ry="3" style="stroke:#038048;stroke-width:1;"/><text fill="#000000" font-family="sans-serif" font-size="14" lengthAdjust="spacing" textLength="406.1805" x="1201.37" y="502.1617">is_strictly_comparable_to( other : DV_ORDERED [1] ) : Boolean [1]</text><ellipse cx="1192.37" cy="515.0997" fill="#84BE84" rx="3" ry="3" style="stroke:#038048;stroke-width:1;"/><text fill="#000000" font-family="sans-serif" font-size="14" lengthAdjust="spacing" textLength="216.4252" x="1201.37" y="518.9616">&lt;( other : Ordered [1] ) : Boolean [1]</text></g><!--class DATA_VALUE--><g class="entity" data-entity="DATA_VALUE" data-source-line="89" data-uid="ent0013" id="entity_DATA_VALUE"><rect fill="#F1F1F1" height="48" rx="2.5" ry="2.5" style="stroke:#181818;stroke-width:0.5;" width="116.2657" x="1319.33" y="35.2"/><ellipse cx="1334.33" cy="51.2" fill="#ADD1B2" rx="11" ry="11" style="stroke:#181818;stroke-width:1;"/><path d="M1334.33,57.6219 C1335.5019,57.6219 1336.7363,57.3562 1338.1113,56.7469 L1337.6269,55.2312 C1336.5331,55.6531 1335.5175,55.8406 1334.6581,55.8406 C1331.9394,55.8406 1330.2206,53.9969 1330.2206,51.0906 C1330.2206,48.3406 1331.7831,46.7469 1334.5175,46.7469 C1335.4394,46.7469 1336.455,46.9344 1337.5956,47.3562 L1338.1738,45.8406 C1337.08,45.2625 1335.7831,44.9656 1334.5956,44.9656 C1330.83,44.9656 1328.2519,47.6062 1328.2519,51.4187 C1328.2519,55.0906 1330.7363,57.6219 1334.33,57.6219 Z " fill="#000000"/><text fill="#000000" font-family="sans-serif" font-size="14" lengthAdjust="spacing" textLength="84.2657" x="1348.33" y="56.562">DATA_VALUE</text><line style="stroke:#181818;stroke-width:0.5;" x1="1320.33" x2="1434.5957" y1="67.2" y2="67.2"/><line style="stroke:#181818;stroke-width:0.5;" x1="1320.33" x2="1434.5957" y1="75.2" y2="75.2"/></g><!--class Ordered--><g class="entity" data-entity="Ordered" data-source-line="90" data-uid="ent0015" id="entity_Ordered"><rect fill="#F1F1F1" height="48" rx="2.5" ry="2.5" style="stroke:#181818;stroke-width:0.5;" width="83.9398" x="1164.49" y="35.2"/><ellipse cx="1179.49" cy="51.2" fill="#ADD1B2" rx="11" ry="11" style="stroke:#181818;stroke-width:1;"/><path d="M1179.49,57.6219 C1180.6619,57.6219 1181.8963,57.3562 1183.2713,56.7469 L1182.7869,55.2312 C1181.6931,55.6531 1180.6775,55.8406 1179.8181,55.8406 C1177.0994,55.8406 1175.3806,53.9969 1175.3806,51.0906 C1175.3806,48.3406 1176.9431,46.7469 1179.6775,46.7469 C1180.5994,46.7469 1181.615,46.9344 1182.7556,47.3562 L1183.3338,45.8406 C1182.24,45.2625 1180.9431,44.9656 1179.7556,44.9656 C1175.99,44.9656 1173.4119,47.6062 1173.4119,51.4187 C1173.4119,55.0906 1175.8963,57.6219 1179.49,57.6219 Z " fill="#000000"/><text fill="#000000" font-family="sans-serif" font-size="14" lengthAdjust="spacing" textLength="51.9398" x="1193.49" y="56.562">Ordered</text><line style="stroke:#181818;stroke-width:0.5;" x1="1165.49" x2="1247.4298" y1="67.2" y2="67.2"/><line style="stroke:#181818;stroke-width:0.5;" x1="1165.49" x2="1247.4298" y1="75.2" y2="75.2"/></g><!--class Interval--><g class="entity" data-entity="Interval" data-source-line="92" data-uid="ent0018" id="entity_Interval"><rect fill="#F1F1F1" height="48" rx="2.5" ry="2.5" style="stroke:#181818;stroke-width:0.5;" width="79.1798" x="1506.87" y="35.2"/><ellipse cx="1521.87" cy="51.2" fill="#ADD1B2" rx="11" ry="11" style="stroke:#181818;stroke-width:1;"/><path d="M1521.87,57.6219 C1523.0419,57.6219 1524.2763,57.3562 1525.6513,56.7469 L1525.1669,55.2312 C1524.0731,55.6531 1523.0575,55.8406 1522.1981,55.8406 C1519.4794,55.8406 1517.7606,53.9969 1517.7606,51.0906 C1517.7606,48.3406 1519.3231,46.7469 1522.0575,46.7469 C1522.9794,46.7469 1523.995,46.9344 1525.1356,47.3562 L1525.7138,45.8406 C1524.62,45.2625 1523.3231,44.9656 1522.1356,44.9656 C1518.37,44.9656 1515.7919,47.6062 1515.7919,51.4187 C1515.7919,55.0906 1518.2763,57.6219 1521.87,57.6219 Z " fill="#000000"/><text fill="#000000" font-family="sans-serif" font-size="14" lengthAdjust="spacing" textLength="47.1798" x="1535.87" y="56.562">Interval</text><line style="stroke:#181818;stroke-width:0.5;" x1="1507.87" x2="1585.0498" y1="67.2" y2="67.2"/><line style="stroke:#181818;stroke-width:0.5;" x1="1507.87" x2="1585.0498" y1="75.2" y2="75.2"/></g><!--reverse link DATA_VALUE to DV_ORDERED--><g class="link" data-entity-1="DATA_VALUE" data-entity-2="DV_ORDERED" data-source-line="89" data-uid="lnk14" id="link_DATA_VALUE_DV_ORDERED"><path codeLine="89" d="M1344.4518,96.8821 C1325.3718,118.0921 1308.07,137.31 1280.38,168.07" fill="none" id="DATA_VALUE-backto-DV_ORDERED" style="stroke:#181818;stroke-width:1;"/><polygon fill="none" points="1356.49,83.5,1339.9911,92.8694,1348.9125,100.8949,1356.49,83.5" style="stroke:#181818;stroke-width:1;"/></g><!--reverse link Ordered to DV_ORDERED--><g class="link" data-entity-1="Ordered" data-entity-2="DV_ORDERED" data-source-line="90" data-uid="lnk16" id="link_Ordered_DV_ORDERED"><path codeLine="90" d="M1206.46,101.5 C1206.46,122.71 1206.46,137.31 1206.46,168.07" fill="none" id="Ordered-backto-DV_ORDERED" style="stroke:#181818;stroke-width:1;"/><polygon fill="none" points="1206.46,83.5,1200.46,101.5,1212.46,101.5,1206.46,83.5" style="stroke:#181818;stroke-width:1;"/></g><!--reverse link DATA_VALUE to DV_INTERVAL--><g class="link" data-entity-1="DATA_VALUE" data-entity-2="DV_INTERVAL" data-source-line="91" data-uid="lnk17" id="link_DATA_VALUE_DV_INTERVAL"><path codeLine="91" d="M1410.1431,96.9493 C1442.5831,133.4193 1493.03,190.13 1525.57,226.71" fill="none" id="DATA_VALUE-backto-DV_INTERVAL" style="stroke:#181818;stroke-width:1;"/><polygon fill="none" points="1398.18,83.5,1405.66,100.937,1414.6262,92.9616,1398.18,83.5" style="stroke:#181818;stroke-width:1;"/></g><!--reverse link Interval to DV_INTERVAL--><g class="link" data-entity-1="Interval" data-entity-2="DV_INTERVAL" data-source-line="92" data-uid="lnk19" id="link_Interval_DV_INTERVAL"><path codeLine="92" d="M1546.46,101.5 C1546.46,137.97 1546.46,190.13 1546.46,226.71" fill="none" id="Interval-backto-DV_INTERVAL" style="stroke:#181818;stroke-width:1;"/><polygon fill="none" points="1546.46,83.5,1540.46,101.5,1552.46,101.5,1546.46,83.5" style="stroke:#181818;stroke-width:1;"/></g><!--reverse link DV_ORDERED to DV_QUANTIFIED--><g class="link" data-entity-1="DV_ORDERED" data-entity-2="DV_QUANTIFIED" data-source-line="93" data-uid="lnk20" id="link_DV_ORDERED_DV_QUANTIFIED"><path codeLine="93" d="M1118.4879,347.4536 C1100.2579,367.1936 1093.24,374.79 1075.82,393.64" fill="none" id="DV_ORDERED-backto-DV_QUANTIFIED" style="stroke:#181818;stroke-width:1;"/><polygon fill="none" points="1130.7,334.23,1114.08,343.3829,1122.8958,351.5243,1130.7,334.23" style="stroke:#181818;stroke-width:1;"/></g><!--reverse link PROPORTION_KIND to DV_PROPORTION--><g class="link" data-entity-1="PROPORTION_KIND" data-entity-2="DV_PROPORTION" data-source-line="94" data-uid="lnk21" id="link_PROPORTION_KIND_DV_PROPORTION"><path codeLine="94" d="M258.46,753.17 C258.46,776.67 258.46,785.73 258.46,811.43" fill="none" id="PROPORTION_KIND-backto-DV_PROPORTION" style="stroke:#181818;stroke-width:1;"/><polygon fill="none" points="258.46,735.17,252.46,753.17,264.46,753.17,258.46,735.17" style="stroke:#181818;stroke-width:1;"/></g><!--reverse link DV_AMOUNT to DV_PROPORTION--><g class="link" data-entity-1="DV_AMOUNT" data-entity-2="DV_PROPORTION" data-source-line="95" data-uid="lnk22" id="link_DV_AMOUNT_DV_PROPORTION"><path codeLine="95" d="M588.8226,759.4986 C547.0926,778.5286 518.64,791.52 475.52,811.19" fill="none" id="DV_AMOUNT-backto-DV_PROPORTION" style="stroke:#181818;stroke-width:1;"/><polygon fill="none" points="605.2,752.03,586.333,754.0394,591.3121,764.9577,605.2,752.03" style="stroke:#181818;stroke-width:1;"/></g><!--reverse link DV_QUANTIFIED to DV_AMOUNT--><g class="link" data-entity-1="DV_QUANTIFIED" data-entity-2="DV_AMOUNT" data-source-line="96" data-uid="lnk23" id="link_DV_QUANTIFIED_DV_AMOUNT"><path codeLine="96" d="M929.3053,538.4654 C908.3753,557.2854 898.67,566.01 876.78,585.7" fill="none" id="DV_QUANTIFIED-backto-DV_AMOUNT" style="stroke:#181818;stroke-width:1;"/><polygon fill="none" points="942.69,526.43,925.2935,534.0038,933.3171,542.9269,942.69,526.43" style="stroke:#181818;stroke-width:1;"/></g><!--reverse link DV_AMOUNT to DV_QUANTITY--><g class="link" data-entity-1="DV_AMOUNT" data-entity-2="DV_QUANTITY" data-source-line="97" data-uid="lnk24" id="link_DV_AMOUNT_DV_QUANTITY"><path codeLine="97" d="M785.46,769.86 C785.46,797.34 785.46,809.78 785.46,836.57" fill="none" id="DV_AMOUNT-backto-DV_QUANTITY" style="stroke:#181818;stroke-width:1;"/><polygon fill="none" points="785.46,751.86,779.46,769.86,791.46,769.86,785.46,751.86" style="stroke:#181818;stroke-width:1;"/></g><!--reverse link DV_AMOUNT to DV_COUNT--><g class="link" data-entity-1="DV_AMOUNT" data-entity-2="DV_COUNT" data-source-line="98" data-uid="lnk25" id="link_DV_AMOUNT_DV_COUNT"><path codeLine="98" d="M975.1439,759.7426 C1052.1339,796.2526 1123.85,830.25 1190.12,861.67" fill="none" id="DV_AMOUNT-backto-DV_COUNT" style="stroke:#181818;stroke-width:1;"/><polygon fill="none" points="958.88,752.03,972.573,765.1639,977.7148,754.3213,958.88,752.03" style="stroke:#181818;stroke-width:1;"/></g><!--reverse link DV_QUANTIFIED to DV_ABSOLUTE_QUANTITY--><g class="link" data-entity-1="DV_QUANTIFIED" data-entity-2="DV_ABSOLUTE_QUANTITY" data-source-line="99" data-uid="lnk26" id="link_DV_QUANTIFIED_DV_ABSOLUTE_QUANTITY"><path codeLine="99" d="M1101.9608,538.4363 C1132.2308,565.5363 1153.6,584.67 1182.8,610.81" fill="none" id="DV_QUANTIFIED-backto-DV_ABSOLUTE_QUANTITY" style="stroke:#181818;stroke-width:1;"/><polygon fill="none" points="1088.55,526.43,1097.9586,542.9066,1105.9629,533.9661,1088.55,526.43" style="stroke:#181818;stroke-width:1;"/></g><!--reverse link DV_ORDERED to DV_ORDINAL--><g class="link" data-entity-1="DV_ORDERED" data-entity-2="DV_ORDINAL" data-source-line="100" data-uid="lnk27" id="link_DV_ORDERED_DV_ORDINAL"><path codeLine="100" d="M1294.4321,347.4536 C1312.6621,367.1936 1319.68,374.79 1337.1,393.64" fill="none" id="DV_ORDERED-backto-DV_ORDINAL" style="stroke:#181818;stroke-width:1;"/><polygon fill="none" points="1282.22,334.23,1290.0242,351.5243,1298.84,343.3829,1282.22,334.23" style="stroke:#181818;stroke-width:1;"/></g></g></svg>
