<svg xmlns="http://www.w3.org/2000/svg" xmlns:xlink="http://www.w3.org/1999/xlink" contentStyleType="text/css" data-diagram-type="CLASS" height="328px" preserveAspectRatio="none" style="width:479px;height:328px;background:#FFFFFF;" version="1.1" viewBox="0 0 479 328" width="479px" zoomAndPan="magnify"><defs/><g><!--class ITEM--><g class="entity" data-entity="ITEM" data-source-line="2" data-uid="ent0002" id="entity_ITEM"><rect fill="#F1F1F1" height="48" rx="2.5" ry="2.5" style="stroke:#181818;stroke-width:0.5;" width="63.8639" x="186.69" y="115"/><ellipse cx="201.69" cy="131" fill="#A9DCDF" rx="11" ry="11" style="stroke:#181818;stroke-width:1;"/><path d="M196.2056,136.5 L198.2369,136.5 L202.2838,125.1562 L201.3775,125.1562 L205.2056,136.5 L207.3463,136.5 L203.0181,124.1719 L200.7994,124.1719 L196.2056,136.5 Z M198.5338,133 L204.9713,133 L204.9713,131.25 L198.5338,131.25 L198.5338,133 Z " fill="#000000"/><text fill="#000000" font-family="sans-serif" font-size="14" font-style="italic" lengthAdjust="spacing" textLength="31.8639" x="215.69" y="136.362">ITEM</text><line style="stroke:#181818;stroke-width:0.5;" x1="187.69" x2="249.5539" y1="147" y2="147"/><line style="stroke:#181818;stroke-width:0.5;" x1="187.69" x2="249.5539" y1="155" y2="155"/></g><!--class CLUSTER--><g class="entity" data-entity="CLUSTER" data-source-line="5" data-uid="ent0003" id="entity_CLUSTER"><rect fill="#F1F1F1" height="64.7999" rx="2.5" ry="2.5" style="stroke:#181818;stroke-width:0.5;" width="173.2514" x="7" y="239.8"/><ellipse cx="60.3608" cy="255.8" fill="#ADD1B2" rx="11" ry="11" style="stroke:#181818;stroke-width:1;"/><path d="M60.3608,262.2219 C61.5327,262.2219 62.7671,261.9562 64.1421,261.3469 L63.6577,259.8312 C62.5639,260.2531 61.5483,260.4406 60.6889,260.4406 C57.9702,260.4406 56.2514,258.5969 56.2514,255.6906 C56.2514,252.9406 57.8139,251.3469 60.5483,251.3469 C61.4702,251.3469 62.4858,251.5344 63.6264,251.9562 L64.2046,250.4406 C63.1108,249.8625 61.8139,249.5656 60.6264,249.5656 C56.8608,249.5656 54.2827,252.2062 54.2827,256.0187 C54.2827,259.6906 56.7671,262.2219 60.3608,262.2219 Z " fill="#000000"/><text fill="#000000" font-family="sans-serif" font-size="14" lengthAdjust="spacing" textLength="58.0298" x="80.8608" y="261.162">CLUSTER</text><line style="stroke:#181818;stroke-width:0.5;" x1="8" x2="179.2514" y1="271.8" y2="271.8"/><ellipse cx="18" cy="285.7" fill="none" rx="3" ry="3" style="stroke:#038048;stroke-width:1;"/><text fill="#000000" font-family="sans-serif" font-size="14" lengthAdjust="spacing" textLength="147.2514" x="27" y="289.5619">items : List&lt;ITEM&gt; [1..*]</text><line style="stroke:#181818;stroke-width:0.5;" x1="8" x2="179.2514" y1="296.5999" y2="296.5999"/></g><!--class ELEMENT--><g class="entity" data-entity="ELEMENT" data-source-line="9" data-uid="ent0004" id="entity_ELEMENT"><rect fill="#F1F1F1" height="98.3998" rx="2.5" ry="2.5" style="stroke:#181818;stroke-width:0.5;" width="256.9291" x="215.16" y="223"/><ellipse cx="308.3437" cy="239" fill="#ADD1B2" rx="11" ry="11" style="stroke:#181818;stroke-width:1;"/><path d="M308.3437,245.4219 C309.5155,245.4219 310.7499,245.1562 312.1249,244.5469 L311.6405,243.0312 C310.5468,243.4531 309.5312,243.6406 308.6718,243.6406 C305.953,243.6406 304.2343,241.7969 304.2343,238.8906 C304.2343,236.1406 305.7968,234.5469 308.5312,234.5469 C309.453,234.5469 310.4687,234.7344 311.6093,235.1562 L312.1874,233.6406 C311.0937,233.0625 309.7968,232.7656 308.6093,232.7656 C304.8437,232.7656 302.2655,235.4062 302.2655,239.2187 C302.2655,242.8906 304.7499,245.4219 308.3437,245.4219 Z " fill="#000000"/><text fill="#000000" font-family="sans-serif" font-size="14" lengthAdjust="spacing" textLength="62.0617" x="328.8437" y="244.362">ELEMENT</text><line style="stroke:#181818;stroke-width:0.5;" x1="216.16" x2="471.0891" y1="255" y2="255"/><ellipse cx="226.16" cy="268.9" fill="none" rx="3" ry="3" style="stroke:#038048;stroke-width:1;"/><text fill="#000000" font-family="sans-serif" font-size="14" lengthAdjust="spacing" textLength="230.9291" x="235.16" y="272.7619">null_flavour : DV_CODED_TEXT [0..1]</text><ellipse cx="226.16" cy="285.6999" fill="none" rx="3" ry="3" style="stroke:#038048;stroke-width:1;"/><text fill="#000000" font-family="sans-serif" font-size="14" lengthAdjust="spacing" textLength="161.5593" x="235.16" y="289.5619">value : DATA_VALUE [0..1]</text><line style="stroke:#181818;stroke-width:0.5;" x1="216.16" x2="471.0891" y1="296.5999" y2="296.5999"/><ellipse cx="226.16" cy="310.4998" fill="#84BE84" rx="3" ry="3" style="stroke:#038048;stroke-width:1;"/><text fill="#000000" font-family="sans-serif" font-size="14" lengthAdjust="spacing" textLength="128.5335" x="235.16" y="314.3618">is_null() : Boolean [1]</text></g><!--class LOCATABLE--><g class="entity" data-entity="LOCATABLE" data-source-line="15" data-uid="ent0005" id="entity_LOCATABLE"><rect fill="#F1F1F1" height="48" rx="2.5" ry="2.5" style="stroke:#181818;stroke-width:0.5;" width="108.2857" x="164.48" y="7"/><ellipse cx="179.48" cy="23" fill="#ADD1B2" rx="11" ry="11" style="stroke:#181818;stroke-width:1;"/><path d="M179.48,29.4219 C180.6519,29.4219 181.8863,29.1563 183.2613,28.5469 L182.7769,27.0313 C181.6831,27.4531 180.6675,27.6406 179.8081,27.6406 C177.0894,27.6406 175.3706,25.7969 175.3706,22.8906 C175.3706,20.1406 176.9331,18.5469 179.6675,18.5469 C180.5894,18.5469 181.605,18.7344 182.7456,19.1563 L183.3238,17.6406 C182.23,17.0625 180.9331,16.7656 179.7456,16.7656 C175.98,16.7656 173.4019,19.4063 173.4019,23.2188 C173.4019,26.8906 175.8863,29.4219 179.48,29.4219 Z " fill="#000000"/><text fill="#000000" font-family="sans-serif" font-size="14" lengthAdjust="spacing" textLength="76.2857" x="193.48" y="28.362">LOCATABLE</text><line style="stroke:#181818;stroke-width:0.5;" x1="165.48" x2="271.7657" y1="39" y2="39"/><line style="stroke:#181818;stroke-width:0.5;" x1="165.48" x2="271.7657" y1="47" y2="47"/></g><!--reverse link LOCATABLE to ITEM--><g class="link" data-entity-1="LOCATABLE" data-entity-2="ITEM" data-source-line="15" data-uid="lnk6" id="link_LOCATABLE_ITEM"><path codeLine="15" d="M218.63,73.26 C218.63,90.94 218.63,97.13 218.63,114.79" fill="none" id="LOCATABLE-backto-ITEM" style="stroke:#181818;stroke-width:1;"/><polygon fill="none" points="218.63,55.26,212.63,73.26,224.63,73.26,218.63,55.26" style="stroke:#181818;stroke-width:1;"/></g><!--reverse link ITEM to CLUSTER--><g class="link" data-entity-1="ITEM" data-entity-2="CLUSTER" data-source-line="16" data-uid="lnk7" id="link_ITEM_CLUSTER"><path codeLine="16" d="M183.8596,176.4882 C163.6296,197.7082 146.1,216.12 123.77,239.57" fill="none" id="ITEM-backto-CLUSTER" style="stroke:#181818;stroke-width:1;"/><polygon fill="none" points="196.28,163.46,179.5169,172.3481,188.2024,180.6283,196.28,163.46" style="stroke:#181818;stroke-width:1;"/></g><!--reverse link ITEM to ELEMENT--><g class="link" data-entity-1="ITEM" data-entity-2="ELEMENT" data-source-line="17" data-uid="lnk8" id="link_ITEM_ELEMENT"><path codeLine="17" d="M253.3889,176.4896 C269.0489,192.9196 278.12,202.45 297.4,222.68" fill="none" id="ITEM-backto-ELEMENT" style="stroke:#181818;stroke-width:1;"/><polygon fill="none" points="240.97,163.46,249.0457,180.6292,257.7321,172.3499,240.97,163.46" style="stroke:#181818;stroke-width:1;"/></g></g></svg>
