<svg xmlns="http://www.w3.org/2000/svg" xmlns:xlink="http://www.w3.org/1999/xlink" contentStyleType="text/css" data-diagram-type="CLASS" height="220px" preserveAspectRatio="none" style="width:543px;height:220px;background:#FFFFFF;" version="1.1" viewBox="0 0 543 220" width="543px" zoomAndPan="magnify"><defs/><g><!--class EXPR_ARCHETYPE_ID_CONSTRAINT--><g class="entity" data-entity="EXPR_ARCHETYPE_ID_CONSTRAINT" data-source-line="2" data-uid="ent0002" id="entity_EXPR_ARCHETYPE_ID_CONSTRAINT"><rect fill="#F1F1F1" height="64.7999" rx="2.5" ry="2.5" style="stroke:#181818;stroke-width:0.5;" width="262.817" x="7" y="148.6"/><ellipse cx="22" cy="164.6" fill="#ADD1B2" rx="11" ry="11" style="stroke:#181818;stroke-width:1;"/><path d="M22,171.0219 C23.1719,171.0219 24.4063,170.7563 25.7813,170.1469 L25.2969,168.6313 C24.2031,169.0531 23.1875,169.2406 22.3281,169.2406 C19.6094,169.2406 17.8906,167.3969 17.8906,164.4906 C17.8906,161.7406 19.4531,160.1469 22.1875,160.1469 C23.1094,160.1469 24.125,160.3344 25.2656,160.7563 L25.8438,159.2406 C24.75,158.6625 23.4531,158.3656 22.2656,158.3656 C18.5,158.3656 15.9219,161.0063 15.9219,164.8188 C15.9219,168.4906 18.4063,171.0219 22,171.0219 Z " fill="#000000"/><text fill="#000000" font-family="sans-serif" font-size="14" lengthAdjust="spacing" textLength="230.817" x="36" y="169.962">EXPR_ARCHETYPE_ID_CONSTRAINT</text><line style="stroke:#181818;stroke-width:0.5;" x1="8" x2="268.817" y1="180.6" y2="180.6"/><ellipse cx="18" cy="194.5" fill="none" rx="3" ry="3" style="stroke:#038048;stroke-width:1;"/><text fill="#000000" font-family="sans-serif" font-size="14" lengthAdjust="spacing" textLength="121.4635" x="27" y="198.3619">item : C_STRING [1]</text><line style="stroke:#181818;stroke-width:0.5;" x1="8" x2="268.817" y1="205.3999" y2="205.3999"/></g><!--class EXPR_CONSTRAINT--><g class="entity" data-entity="EXPR_CONSTRAINT" data-source-line="6" data-uid="ent0003" id="entity_EXPR_CONSTRAINT"><rect fill="#F1F1F1" height="64.7999" rx="2.5" ry="2.5" style="stroke:#181818;stroke-width:0.5;" width="220.7532" x="28.03" y="15.4"/><ellipse cx="71.3133" cy="31.4" fill="#ADD1B2" rx="11" ry="11" style="stroke:#181818;stroke-width:1;"/><path d="M71.3133,37.8219 C72.4852,37.8219 73.7195,37.5563 75.0945,36.9469 L74.6102,35.4313 C73.5164,35.8531 72.5008,36.0406 71.6414,36.0406 C68.9227,36.0406 67.2039,34.1969 67.2039,31.2906 C67.2039,28.5406 68.7664,26.9469 71.5008,26.9469 C72.4227,26.9469 73.4383,27.1344 74.5789,27.5563 L75.157,26.0406 C74.0633,25.4625 72.7664,25.1656 71.5789,25.1656 C67.8133,25.1656 65.2352,27.8063 65.2352,31.6188 C65.2352,35.2906 67.7195,37.8219 71.3133,37.8219 Z " fill="#000000"/><text fill="#000000" font-family="sans-serif" font-size="14" lengthAdjust="spacing" textLength="125.9015" x="91.5985" y="36.762">EXPR_CONSTRAINT</text><line style="stroke:#181818;stroke-width:0.5;" x1="29.03" x2="247.7832" y1="47.4" y2="47.4"/><ellipse cx="39.03" cy="61.3" fill="none" rx="3" ry="3" style="stroke:#038048;stroke-width:1;"/><text fill="#000000" font-family="sans-serif" font-size="14" lengthAdjust="spacing" textLength="194.7532" x="48.03" y="65.1619">item : C_PRIMITIVE_OBJECT [1]</text><line style="stroke:#181818;stroke-width:0.5;" x1="29.03" x2="247.7832" y1="72.1999" y2="72.1999"/></g><!--class EXPR_ARCHETYPE_REF--><g class="entity" data-entity="EXPR_ARCHETYPE_REF" data-source-line="10" data-uid="ent0004" id="entity_EXPR_ARCHETYPE_REF"><rect fill="#F1F1F1" height="81.5999" rx="2.5" ry="2.5" style="stroke:#181818;stroke-width:0.5;" width="252.5051" x="284.16" y="7"/><ellipse cx="331.4518" cy="23" fill="#ADD1B2" rx="11" ry="11" style="stroke:#181818;stroke-width:1;"/><path d="M331.4518,29.4219 C332.6237,29.4219 333.8581,29.1563 335.2331,28.5469 L334.7487,27.0313 C333.655,27.4531 332.6393,27.6406 331.78,27.6406 C329.0612,27.6406 327.3425,25.7969 327.3425,22.8906 C327.3425,20.1406 328.905,18.5469 331.6393,18.5469 C332.5612,18.5469 333.5768,18.7344 334.7175,19.1563 L335.2956,17.6406 C334.2018,17.0625 332.905,16.7656 331.7175,16.7656 C327.9518,16.7656 325.3737,19.4063 325.3737,23.2188 C325.3737,26.8906 327.8581,29.4219 331.4518,29.4219 Z " fill="#000000"/><text fill="#000000" font-family="sans-serif" font-size="14" lengthAdjust="spacing" textLength="149.4214" x="351.9518" y="28.362">EXPR_ARCHETYPE_REF</text><line style="stroke:#181818;stroke-width:0.5;" x1="285.16" x2="535.6651" y1="39" y2="39"/><ellipse cx="295.16" cy="52.9" fill="none" rx="3" ry="3" style="stroke:#038048;stroke-width:1;"/><text fill="#000000" font-family="sans-serif" font-size="14" lengthAdjust="spacing" textLength="94.1357" x="304.16" y="56.7619">path : String [1]</text><ellipse cx="295.16" cy="69.6999" fill="none" rx="3" ry="3" style="stroke:#038048;stroke-width:1;"/><text fill="#000000" font-family="sans-serif" font-size="14" lengthAdjust="spacing" textLength="226.5051" x="304.16" y="73.5619">item : ARCHETYPE_CONSTRAINT [1]</text><line style="stroke:#181818;stroke-width:0.5;" x1="285.16" x2="535.6651" y1="80.5999" y2="80.5999"/></g><!--reverse link EXPR_CONSTRAINT to EXPR_ARCHETYPE_ID_CONSTRAINT--><g class="link" data-entity-1="EXPR_CONSTRAINT" data-entity-2="EXPR_ARCHETYPE_ID_CONSTRAINT" data-source-line="15" data-uid="lnk5" id="link_EXPR_CONSTRAINT_EXPR_ARCHETYPE_ID_CONSTRAINT"><path codeLine="15" d="M138.41,98.56 C138.41,119.19 138.41,127.96 138.41,148.53" fill="none" id="EXPR_CONSTRAINT-backto-EXPR_ARCHETYPE_ID_CONSTRAINT" style="stroke:#181818;stroke-width:1;"/><polygon fill="none" points="138.41,80.56,132.41,98.56,144.41,98.56,138.41,80.56" style="stroke:#181818;stroke-width:1;"/></g></g></svg>
