<svg xmlns="http://www.w3.org/2000/svg" xmlns:xlink="http://www.w3.org/1999/xlink" contentStyleType="text/css" data-diagram-type="CLASS" height="1290px" preserveAspectRatio="none" style="width:3545px;height:1290px;background:#FFFFFF;" version="1.1" viewBox="0 0 3545 1290" width="3545px" zoomAndPan="magnify"><defs/><g><!--class ARCHETYPE_CONSTRAINT--><g class="entity" data-entity="ARCHETYPE_CONSTRAINT" data-source-line="2" data-uid="ent0002" id="entity_ARCHETYPE_CONSTRAINT"><rect fill="#F1F1F1" height="215.9993" rx="2.5" ry="2.5" style="stroke:#181818;stroke-width:0.5;" width="794.2606" x="1162.12" y="165.4"/><ellipse cx="1470.1677" cy="181.4" fill="#A9DCDF" rx="11" ry="11" style="stroke:#181818;stroke-width:1;"/><path d="M1464.6833,186.9 L1466.7145,186.9 L1470.7614,175.5562 L1469.8552,175.5562 L1473.6833,186.9 L1475.8239,186.9 L1471.4958,174.5719 L1469.277,174.5719 L1464.6833,186.9 Z M1467.0114,183.4 L1473.4489,183.4 L1473.4489,181.65 L1467.0114,181.65 L1467.0114,183.4 Z " fill="#000000"/><text fill="#000000" font-family="sans-serif" font-size="14" font-style="italic" lengthAdjust="spacing" textLength="169.6653" x="1490.6677" y="186.762">ARCHETYPE_CONSTRAINT</text><line style="stroke:#181818;stroke-width:0.5;" x1="1163.12" x2="1955.3806" y1="197.4" y2="197.4"/><ellipse cx="1173.12" cy="211.3" fill="none" rx="3" ry="3" style="stroke:#038048;stroke-width:1;"/><text fill="#000000" font-family="sans-serif" font-size="14" lengthAdjust="spacing" textLength="254.799" x="1182.12" y="215.1619">parent : ARCHETYPE_CONSTRAINT [0..1]</text><ellipse cx="1173.12" cy="228.0999" fill="none" rx="3" ry="3" style="stroke:#038048;stroke-width:1;"/><text fill="#000000" font-family="sans-serif" font-size="14" lengthAdjust="spacing" textLength="238.3071" x="1182.12" y="231.9619">soc_parent : C_SECOND_ORDER [0..1]</text><line style="stroke:#181818;stroke-width:0.5;" x1="1163.12" x2="1955.3806" y1="238.9999" y2="238.9999"/><ellipse cx="1173.12" cy="252.8998" fill="#84BE84" rx="3" ry="3" style="stroke:#038048;stroke-width:1;"/><text fill="#000000" font-family="sans-serif" font-size="14" font-style="italic" lengthAdjust="spacing" textLength="169.4413" x="1182.12" y="256.7618">is_prohibited() : Boolean [1]</text><ellipse cx="1173.12" cy="269.6997" fill="#84BE84" rx="3" ry="3" style="stroke:#038048;stroke-width:1;"/><text fill="#000000" font-family="sans-serif" font-size="14" lengthAdjust="spacing" textLength="259.279" x="1182.12" y="273.5617">has_path( a_path : String [1] ) : Boolean [1]</text><ellipse cx="1173.12" cy="286.4997" fill="#84BE84" rx="3" ry="3" style="stroke:#038048;stroke-width:1;"/><text fill="#000000" font-family="sans-serif" font-size="14" lengthAdjust="spacing" textLength="102.5636" x="1182.12" y="290.3616">path() : String [1]</text><ellipse cx="1173.12" cy="303.2996" fill="#84BE84" rx="3" ry="3" style="stroke:#038048;stroke-width:1;"/><text fill="#000000" font-family="sans-serif" font-size="14" font-style="italic" lengthAdjust="spacing" textLength="768.2606" x="1182.12" y="307.1616">c_conforms_to( other : ARCHETYPE_CONSTRAINT [1], rmcc : FUNCTION&lt;Boolean,TUPLE2&lt;String,String&gt;&gt; [1] ) : Boolean [1]</text><ellipse cx="1173.12" cy="320.0995" fill="#84BE84" rx="3" ry="3" style="stroke:#038048;stroke-width:1;"/><text fill="#000000" font-family="sans-serif" font-size="14" font-style="italic" lengthAdjust="spacing" textLength="423.4283" x="1182.12" y="323.9615">c_congruent_to( other : ARCHETYPE_CONSTRAINT [1] ) : Boolean [1]</text><ellipse cx="1173.12" cy="336.8995" fill="#84BE84" rx="3" ry="3" style="stroke:#038048;stroke-width:1;"/><text fill="#000000" font-family="sans-serif" font-size="14" lengthAdjust="spacing" textLength="270.311" x="1182.12" y="340.7614">is_second_order_constrained() : Boolean [1]</text><ellipse cx="1173.12" cy="353.6994" fill="#84BE84" rx="3" ry="3" style="stroke:#038048;stroke-width:1;"/><text fill="#000000" font-family="sans-serif" font-size="14" lengthAdjust="spacing" textLength="131.2075" x="1182.12" y="357.5614">is_root() : Boolean [1]</text><ellipse cx="1173.12" cy="370.4993" fill="#84BE84" rx="3" ry="3" style="stroke:#038048;stroke-width:1;"/><text fill="#000000" font-family="sans-serif" font-size="14" lengthAdjust="spacing" textLength="128.2115" x="1182.12" y="374.3613">is_leaf() : Boolean [1]</text></g><!--class ADL_CODE_DEFINITIONS--><g class="entity" data-entity="ADL_CODE_DEFINITIONS" data-source-line="15" data-uid="ent0003" id="entity_ADL_CODE_DEFINITIONS"><rect fill="#F5F5F5" height="48" rx="2.5" ry="2.5" style="stroke:#808080;stroke-width:1;stroke-dasharray:1,3;" width="194.1334" x="1462.19" y="32.2"/><ellipse cx="1477.19" cy="48.2" fill="#ADD1B2" rx="11" ry="11" style="stroke:#181818;stroke-width:1;"/><path d="M1477.19,54.6219 C1478.3619,54.6219 1479.5963,54.3563 1480.9713,53.7469 L1480.4869,52.2313 C1479.3931,52.6531 1478.3775,52.8406 1477.5181,52.8406 C1474.7994,52.8406 1473.0806,50.9969 1473.0806,48.0906 C1473.0806,45.3406 1474.6431,43.7469 1477.3775,43.7469 C1478.2994,43.7469 1479.315,43.9344 1480.4556,44.3563 L1481.0338,42.8406 C1479.94,42.2625 1478.6431,41.9656 1477.4556,41.9656 C1473.69,41.9656 1471.1119,44.6063 1471.1119,48.4188 C1471.1119,52.0906 1473.5963,54.6219 1477.19,54.6219 Z " fill="#000000"/><text fill="#808080" font-family="sans-serif" font-size="14" lengthAdjust="spacing" textLength="162.1334" x="1491.19" y="53.562">ADL_CODE_DEFINITIONS</text><line style="stroke:#808080;stroke-width:1;stroke-dasharray:1,3;" x1="1463.19" x2="1655.3234" y1="64.2" y2="64.2"/><line style="stroke:#808080;stroke-width:1;stroke-dasharray:1,3;" x1="1463.19" x2="1655.3234" y1="72.2" y2="72.2"/></g><!--class C_OBJECT--><g class="entity" data-entity="C_OBJECT" data-source-line="18" data-uid="ent0004" id="entity_C_OBJECT"><rect fill="#F1F1F1" height="249.5991" rx="2.5" ry="2.5" style="stroke:#181818;stroke-width:0.5;" width="690.7872" x="824.86" y="449.8"/><ellipse cx="1132.9078" cy="465.8" fill="#A9DCDF" rx="11" ry="11" style="stroke:#181818;stroke-width:1;"/><path d="M1127.4234,471.3 L1129.4546,471.3 L1133.5015,459.9562 L1132.5953,459.9562 L1136.4234,471.3 L1138.564,471.3 L1134.2359,458.9719 L1132.0171,458.9719 L1127.4234,471.3 Z M1129.7515,467.8 L1136.189,467.8 L1136.189,466.05 L1129.7515,466.05 L1129.7515,467.8 Z " fill="#000000"/><text fill="#000000" font-family="sans-serif" font-size="14" font-style="italic" lengthAdjust="spacing" textLength="66.1917" x="1153.4078" y="471.162">C_OBJECT</text><line style="stroke:#181818;stroke-width:0.5;" x1="825.86" x2="1514.6472" y1="481.8" y2="481.8"/><ellipse cx="835.86" cy="495.7" fill="none" rx="3" ry="3" style="stroke:#038048;stroke-width:1;"/><text fill="#000000" font-family="sans-serif" font-size="14" lengthAdjust="spacing" textLength="159.7254" x="844.86" y="499.5619">rm_type_name : String [1]</text><ellipse cx="835.86" cy="512.4999" fill="none" rx="3" ry="3" style="stroke:#038048;stroke-width:1;"/><text fill="#000000" font-family="sans-serif" font-size="14" lengthAdjust="spacing" textLength="242.6471" x="844.86" y="516.3619">occurrences : Multiplicity_interval [0..1]</text><ellipse cx="835.86" cy="529.2998" fill="none" rx="3" ry="3" style="stroke:#038048;stroke-width:1;"/><text fill="#000000" font-family="sans-serif" font-size="14" lengthAdjust="spacing" textLength="115.6535" x="844.86" y="533.1618">node_id : String [1]</text><ellipse cx="835.86" cy="546.0997" fill="none" rx="3" ry="3" style="stroke:#038048;stroke-width:1;"/><text fill="#000000" font-family="sans-serif" font-size="14" lengthAdjust="spacing" textLength="182.5033" x="844.86" y="549.9617">is_deprecated : Boolean [0..1]</text><ellipse cx="835.86" cy="562.8997" fill="none" rx="3" ry="3" style="stroke:#038048;stroke-width:1;"/><text fill="#000000" font-family="sans-serif" font-size="14" lengthAdjust="spacing" textLength="231.1111" x="844.86" y="566.7616">sibling_order : SIBLING_ORDER [0..1]</text><line style="stroke:#181818;stroke-width:0.5;" x1="825.86" x2="1514.6472" y1="573.7996" y2="573.7996"/><ellipse cx="835.86" cy="587.6996" fill="#84BE84" rx="3" ry="3" style="stroke:#038048;stroke-width:1;"/><text fill="#000000" font-family="sans-serif" font-size="14" lengthAdjust="spacing" textLength="209.5092" x="844.86" y="591.5616">specialisation_depth() : Integer [1]</text><ellipse cx="835.86" cy="604.4995" fill="#84BE84" rx="3" ry="3" style="stroke:#038048;stroke-width:1;"/><text fill="#000000" font-family="sans-serif" font-size="14" lengthAdjust="spacing" textLength="295.7629" x="844.86" y="608.3615">effective_occurrences() : Multiplicity_interval [1]</text><ellipse cx="835.86" cy="621.2995" fill="#84BE84" rx="3" ry="3" style="stroke:#038048;stroke-width:1;"/><text fill="#000000" font-family="sans-serif" font-size="14" lengthAdjust="spacing" textLength="664.7872" x="844.86" y="625.1614">c_conforms_to( other : C_OBJECT [1], rmcc : FUNCTION&lt;Boolean,TUPLE2&lt;String,String&gt;&gt; [1] ) : Boolean [1]</text><ellipse cx="835.86" cy="638.0994" fill="#84BE84" rx="3" ry="3" style="stroke:#038048;stroke-width:1;"/><text fill="#000000" font-family="sans-serif" font-size="14" lengthAdjust="spacing" textLength="423.4283" x="844.86" y="641.9614">c_congruent_to( other : ARCHETYPE_CONSTRAINT [1] ) : Boolean [1]</text><ellipse cx="835.86" cy="654.8993" fill="#84BE84" rx="3" ry="3" style="stroke:#038048;stroke-width:1;"/><text fill="#000000" font-family="sans-serif" font-size="14" lengthAdjust="spacing" textLength="383.9766" x="844.86" y="658.7613">occurrences_conforms_to( other : C_OBJECT [1] ) : Boolean [1]</text><ellipse cx="835.86" cy="671.6992" fill="#84BE84" rx="3" ry="3" style="stroke:#038048;stroke-width:1;"/><text fill="#000000" font-family="sans-serif" font-size="14" lengthAdjust="spacing" textLength="358.5107" x="844.86" y="675.5612">node_id_conforms_to( other : C_OBJECT [1] ) : Boolean [1]</text><ellipse cx="835.86" cy="688.4992" fill="#84BE84" rx="3" ry="3" style="stroke:#038048;stroke-width:1;"/><text fill="#000000" font-family="sans-serif" font-size="14" lengthAdjust="spacing" textLength="169.4413" x="844.86" y="692.3611">is_prohibited() : Boolean [1]</text></g><!--class C_ATTRIBUTE--><g class="entity" data-entity="C_ATTRIBUTE" data-source-line="33" data-uid="ent0005" id="entity_C_ATTRIBUTE"><rect fill="#F1F1F1" height="266.399" rx="2.5" ry="2.5" style="stroke:#181818;stroke-width:0.5;" width="794.2606" x="1551.12" y="441.4"/><ellipse cx="1900.3135" cy="457.4" fill="#ADD1B2" rx="11" ry="11" style="stroke:#181818;stroke-width:1;"/><path d="M1900.3135,463.8219 C1901.4854,463.8219 1902.7197,463.5563 1904.0947,462.9469 L1903.6104,461.4313 C1902.5166,461.8531 1901.501,462.0406 1900.6416,462.0406 C1897.9229,462.0406 1896.2041,460.1969 1896.2041,457.2906 C1896.2041,454.5406 1897.7666,452.9469 1900.501,452.9469 C1901.4229,452.9469 1902.4385,453.1344 1903.5791,453.5563 L1904.1572,452.0406 C1903.0635,451.4625 1901.7666,451.1656 1900.5791,451.1656 C1896.8135,451.1656 1894.2354,453.8063 1894.2354,457.6188 C1894.2354,461.2906 1896.7197,463.8219 1900.3135,463.8219 Z " fill="#000000"/><text fill="#000000" font-family="sans-serif" font-size="14" lengthAdjust="spacing" textLength="87.3736" x="1920.8135" y="462.762">C_ATTRIBUTE</text><line style="stroke:#181818;stroke-width:0.5;" x1="1552.12" x2="2344.3806" y1="473.4" y2="473.4"/><ellipse cx="1562.12" cy="487.3" fill="none" rx="3" ry="3" style="stroke:#038048;stroke-width:1;"/><text fill="#000000" font-family="sans-serif" font-size="14" lengthAdjust="spacing" textLength="186.8013" x="1571.12" y="491.1619">rm_attribute_name : String [1]</text><ellipse cx="1562.12" cy="504.0999" fill="none" rx="3" ry="3" style="stroke:#038048;stroke-width:1;"/><text fill="#000000" font-family="sans-serif" font-size="14" lengthAdjust="spacing" textLength="225.7211" x="1571.12" y="507.9619">existence : Multiplicity_interval [0..1]</text><ellipse cx="1562.12" cy="520.8998" fill="none" rx="3" ry="3" style="stroke:#038048;stroke-width:1;"/><text fill="#000000" font-family="sans-serif" font-size="14" lengthAdjust="spacing" textLength="184.0993" x="1571.12" y="524.7618">children : List&lt;C_OBJECT&gt; [*]</text><ellipse cx="1562.12" cy="537.6997" fill="none" rx="3" ry="3" style="stroke:#038048;stroke-width:1;"/><text fill="#000000" font-family="sans-serif" font-size="14" lengthAdjust="spacing" textLength="185.4013" x="1571.12" y="541.5617">differential_path : String [0..1]</text><ellipse cx="1562.12" cy="554.4997" fill="none" rx="3" ry="3" style="stroke:#038048;stroke-width:1;"/><text fill="#000000" font-family="sans-serif" font-size="14" lengthAdjust="spacing" textLength="176.0493" x="1571.12" y="558.3616">cardinality : Cardinality [0..1]</text><ellipse cx="1562.12" cy="571.2996" fill="none" rx="3" ry="3" style="stroke:#038048;stroke-width:1;"/><text fill="#000000" font-family="sans-serif" font-size="14" lengthAdjust="spacing" textLength="148.4554" x="1571.12" y="575.1616">is_multiple : Boolean [1]</text><line style="stroke:#181818;stroke-width:0.5;" x1="1552.12" x2="2344.3806" y1="582.1996" y2="582.1996"/><ellipse cx="1562.12" cy="596.0995" fill="#84BE84" rx="3" ry="3" style="stroke:#038048;stroke-width:1;"/><text fill="#000000" font-family="sans-serif" font-size="14" lengthAdjust="spacing" textLength="166.1093" x="1571.12" y="599.9615">any_allowed() : Boolean [1]</text><ellipse cx="1562.12" cy="612.8995" fill="#84BE84" rx="3" ry="3" style="stroke:#038048;stroke-width:1;"/><text fill="#000000" font-family="sans-serif" font-size="14" lengthAdjust="spacing" textLength="172.6473" x="1571.12" y="616.7614">is_mandatory() : Boolean [1]</text><ellipse cx="1562.12" cy="629.6994" fill="#84BE84" rx="3" ry="3" style="stroke:#038048;stroke-width:1;"/><text fill="#000000" font-family="sans-serif" font-size="14" lengthAdjust="spacing" textLength="188.4813" x="1571.12" y="633.5614">rm_attribute_path() : String [1]</text><ellipse cx="1562.12" cy="646.4993" fill="#84BE84" rx="3" ry="3" style="stroke:#038048;stroke-width:1;"/><text fill="#000000" font-family="sans-serif" font-size="14" lengthAdjust="spacing" textLength="142.1414" x="1571.12" y="650.3613">is_single() : Boolean [1]</text><ellipse cx="1562.12" cy="663.2992" fill="#84BE84" rx="3" ry="3" style="stroke:#038048;stroke-width:1;"/><text fill="#000000" font-family="sans-serif" font-size="14" lengthAdjust="spacing" textLength="423.4283" x="1571.12" y="667.1612">c_congruent_to( other : ARCHETYPE_CONSTRAINT [1] ) : Boolean [1]</text><ellipse cx="1562.12" cy="680.0992" fill="#84BE84" rx="3" ry="3" style="stroke:#038048;stroke-width:1;"/><text fill="#000000" font-family="sans-serif" font-size="14" lengthAdjust="spacing" textLength="768.2606" x="1571.12" y="683.9611">c_conforms_to( other : ARCHETYPE_CONSTRAINT [1], rmcc : FUNCTION&lt;Boolean,TUPLE2&lt;String,String&gt;&gt; [1] ) : Boolean [1]</text><ellipse cx="1562.12" cy="696.8991" fill="#84BE84" rx="3" ry="3" style="stroke:#038048;stroke-width:1;"/><text fill="#000000" font-family="sans-serif" font-size="14" lengthAdjust="spacing" textLength="169.4413" x="1571.12" y="700.7611">is_prohibited() : Boolean [1]</text></g><!--class C_DEFINED_OBJECT--><g class="entity" data-entity="C_DEFINED_OBJECT" data-source-line="49" data-uid="ent0006" id="entity_C_DEFINED_OBJECT"><rect fill="#F1F1F1" height="131.9996" rx="2.5" ry="2.5" style="stroke:#181818;stroke-width:0.5;" width="288.5269" x="641.99" y="767.8"/><ellipse cx="716.2177" cy="783.8" fill="#A9DCDF" rx="11" ry="11" style="stroke:#181818;stroke-width:1;"/><path d="M710.7333,789.3 L712.7646,789.3 L716.8115,777.9563 L715.9052,777.9563 L719.7333,789.3 L721.874,789.3 L717.5458,776.9719 L715.3271,776.9719 L710.7333,789.3 Z M713.0615,785.8 L719.499,785.8 L719.499,784.05 L713.0615,784.05 L713.0615,785.8 Z " fill="#000000"/><text fill="#000000" font-family="sans-serif" font-size="14" font-style="italic" lengthAdjust="spacing" textLength="131.5715" x="736.7177" y="789.162">C_DEFINED_OBJECT</text><line style="stroke:#181818;stroke-width:0.5;" x1="642.99" x2="929.5169" y1="799.8" y2="799.8"/><ellipse cx="652.99" cy="813.7" fill="none" rx="3" ry="3" style="stroke:#038048;stroke-width:1;"/><text fill="#000000" font-family="sans-serif" font-size="14" lengthAdjust="spacing" textLength="151.7734" x="661.99" y="817.5619">default_value : Any [0..1]</text><line style="stroke:#181818;stroke-width:0.5;" x1="642.99" x2="929.5169" y1="824.5999" y2="824.5999"/><ellipse cx="652.99" cy="838.4999" fill="#84BE84" rx="3" ry="3" style="stroke:#038048;stroke-width:1;"/><text fill="#000000" font-family="sans-serif" font-size="14" font-style="italic" lengthAdjust="spacing" textLength="166.1093" x="661.99" y="842.3619">any_allowed() : Boolean [1]</text><ellipse cx="652.99" cy="855.2998" fill="#84BE84" rx="3" ry="3" style="stroke:#038048;stroke-width:1;"/><text fill="#000000" font-family="sans-serif" font-size="14" font-style="italic" lengthAdjust="spacing" textLength="262.5269" x="661.99" y="859.1618">valid_value( a_value : Any [1] ) : Boolean [1]</text><ellipse cx="652.99" cy="872.0997" fill="#84BE84" rx="3" ry="3" style="stroke:#038048;stroke-width:1;"/><text fill="#000000" font-family="sans-serif" font-size="14" font-style="italic" lengthAdjust="spacing" textLength="161.7414" x="661.99" y="875.9617">prototype_value() : Any [1]</text><ellipse cx="652.99" cy="888.8997" fill="#84BE84" rx="3" ry="3" style="stroke:#038048;stroke-width:1;"/><text fill="#000000" font-family="sans-serif" font-size="14" lengthAdjust="spacing" textLength="200.7032" x="661.99" y="892.7616">has_default_value() : Boolean [1]</text></g><!--class C_COMPLEX_OBJECT_PROXY--><g class="entity" data-entity="C_COMPLEX_OBJECT_PROXY" data-source-line="57" data-uid="ent0007" id="entity_C_COMPLEX_OBJECT_PROXY"><rect fill="#F1F1F1" height="98.3998" rx="2.5" ry="2.5" style="stroke:#181818;stroke-width:0.5;" width="409.9766" x="965.27" y="784.6"/><ellipse cx="1072.1107" cy="800.6" fill="#ADD1B2" rx="11" ry="11" style="stroke:#181818;stroke-width:1;"/><path d="M1072.1107,807.0219 C1073.2826,807.0219 1074.517,806.7562 1075.892,806.1469 L1075.4076,804.6312 C1074.3138,805.0531 1073.2982,805.2406 1072.4388,805.2406 C1069.7201,805.2406 1068.0013,803.3969 1068.0013,800.4906 C1068.0013,797.7406 1069.5638,796.1469 1072.2982,796.1469 C1073.2201,796.1469 1074.2357,796.3344 1075.3763,796.7562 L1075.9545,795.2406 C1074.8607,794.6625 1073.5638,794.3656 1072.3763,794.3656 C1068.6107,794.3656 1066.0326,797.0062 1066.0326,800.8187 C1066.0326,804.4906 1068.517,807.0219 1072.1107,807.0219 Z " fill="#000000"/><text fill="#000000" font-family="sans-serif" font-size="14" lengthAdjust="spacing" textLength="187.7952" x="1092.6107" y="805.962">C_COMPLEX_OBJECT_PROXY</text><line style="stroke:#181818;stroke-width:0.5;" x1="966.27" x2="1374.2466" y1="816.6" y2="816.6"/><ellipse cx="976.27" cy="830.5" fill="none" rx="3" ry="3" style="stroke:#038048;stroke-width:1;"/><text fill="#000000" font-family="sans-serif" font-size="14" lengthAdjust="spacing" textLength="139.0615" x="985.27" y="834.3619">target_path : String [1]</text><line style="stroke:#181818;stroke-width:0.5;" x1="966.27" x2="1374.2466" y1="841.3999" y2="841.3999"/><ellipse cx="976.27" cy="855.2999" fill="#84BE84" rx="3" ry="3" style="stroke:#038048;stroke-width:1;"/><text fill="#000000" font-family="sans-serif" font-size="14" lengthAdjust="spacing" textLength="236.8231" x="985.27" y="859.1619">use_target_occurrences() : Boolean [1]</text><ellipse cx="976.27" cy="872.0998" fill="#84BE84" rx="3" ry="3" style="stroke:#038048;stroke-width:1;"/><text fill="#000000" font-family="sans-serif" font-size="14" lengthAdjust="spacing" textLength="383.9766" x="985.27" y="875.9618">occurrences_conforms_to( other : C_OBJECT [1] ) : Boolean [1]</text></g><!--class ARCHETYPE_SLOT--><g class="entity" data-entity="ARCHETYPE_SLOT" data-source-line="63" data-uid="ent0008" id="entity_ARCHETYPE_SLOT"><rect fill="#F1F1F1" height="115.1997" rx="2.5" ry="2.5" style="stroke:#181818;stroke-width:0.5;" width="221.4812" x="1410.51" y="776.2"/><ellipse cx="1458.1938" cy="792.2" fill="#ADD1B2" rx="11" ry="11" style="stroke:#181818;stroke-width:1;"/><path d="M1458.1938,798.6219 C1459.3657,798.6219 1460.6001,798.3562 1461.9751,797.7469 L1461.4907,796.2312 C1460.397,796.6531 1459.3813,796.8406 1458.522,796.8406 C1455.8032,796.8406 1454.0845,794.9969 1454.0845,792.0906 C1454.0845,789.3406 1455.647,787.7469 1458.3813,787.7469 C1459.3032,787.7469 1460.3188,787.9344 1461.4595,788.3562 L1462.0376,786.8406 C1460.9438,786.2625 1459.647,785.9656 1458.4595,785.9656 C1454.6938,785.9656 1452.1157,788.6062 1452.1157,792.4187 C1452.1157,796.0906 1454.6001,798.6219 1458.1938,798.6219 Z " fill="#000000"/><text fill="#000000" font-family="sans-serif" font-size="14" lengthAdjust="spacing" textLength="117.6135" x="1478.6938" y="797.562">ARCHETYPE_SLOT</text><line style="stroke:#181818;stroke-width:0.5;" x1="1411.51" x2="1630.9912" y1="808.2" y2="808.2"/><ellipse cx="1421.51" cy="822.1" fill="none" rx="3" ry="3" style="stroke:#038048;stroke-width:1;"/><text fill="#000000" font-family="sans-serif" font-size="14" lengthAdjust="spacing" textLength="192.9052" x="1430.51" y="825.9619">includes : List&lt;ASSERTION&gt; [*]</text><ellipse cx="1421.51" cy="838.8999" fill="none" rx="3" ry="3" style="stroke:#038048;stroke-width:1;"/><text fill="#000000" font-family="sans-serif" font-size="14" lengthAdjust="spacing" textLength="195.4812" x="1430.51" y="842.7619">excludes : List&lt;ASSERTION&gt; [*]</text><ellipse cx="1421.51" cy="855.6998" fill="none" rx="3" ry="3" style="stroke:#038048;stroke-width:1;"/><text fill="#000000" font-family="sans-serif" font-size="14" lengthAdjust="spacing" textLength="136.8074" x="1430.51" y="859.5618">is_closed : Boolean [1]</text><line style="stroke:#181818;stroke-width:0.5;" x1="1411.51" x2="1630.9912" y1="866.5998" y2="866.5998"/><ellipse cx="1421.51" cy="880.4997" fill="#84BE84" rx="3" ry="3" style="stroke:#038048;stroke-width:1;"/><text fill="#000000" font-family="sans-serif" font-size="14" lengthAdjust="spacing" textLength="166.1093" x="1430.51" y="884.3617">any_allowed() : Boolean [1]</text></g><!--class C_PRIMITIVE_OBJECT--><g class="entity" data-entity="C_PRIMITIVE_OBJECT" data-source-line="70" data-uid="ent0009" id="entity_C_PRIMITIVE_OBJECT"><rect fill="#F1F1F1" height="199.1993" rx="2.5" ry="2.5" style="stroke:#181818;stroke-width:0.5;" width="762.5088" x="7" y="959.8"/><ellipse cx="315.0477" cy="975.8" fill="#A9DCDF" rx="11" ry="11" style="stroke:#181818;stroke-width:1;"/><path d="M309.5633,981.3 L311.5945,981.3 L315.6414,969.9563 L314.7352,969.9563 L318.5633,981.3 L320.7039,981.3 L316.3758,968.9719 L314.157,968.9719 L309.5633,981.3 Z M311.8914,977.8 L318.3289,977.8 L318.3289,976.05 L311.8914,976.05 L311.8914,977.8 Z " fill="#000000"/><text fill="#000000" font-family="sans-serif" font-size="14" font-style="italic" lengthAdjust="spacing" textLength="137.9135" x="335.5477" y="981.162">C_PRIMITIVE_OBJECT</text><line style="stroke:#181818;stroke-width:0.5;" x1="8" x2="768.5088" y1="991.8" y2="991.8"/><ellipse cx="18" cy="1005.7" fill="none" rx="3" ry="3" style="stroke:#038048;stroke-width:1;"/><text fill="#000000" font-family="sans-serif" font-size="14" lengthAdjust="spacing" textLength="163.4633" x="27" y="1009.5619">assumed_value : Any [0..1]</text><ellipse cx="18" cy="1022.4999" fill="none" rx="3" ry="3" style="stroke:#038048;stroke-width:1;"/><text fill="#000000" font-family="sans-serif" font-size="14" lengthAdjust="spacing" textLength="292.1508" x="27" y="1026.3619">is_enumerated_type_constraint : Boolean [0..1]</text><ellipse cx="18" cy="1039.2998" fill="none" rx="3" ry="3" style="stroke:#038048;stroke-width:1;"/><text fill="#000000" font-family="sans-serif" font-size="14" lengthAdjust="spacing" textLength="114.8136" x="27" y="1043.1618">constraint : Any [1]</text><line style="stroke:#181818;stroke-width:0.5;" x1="8" x2="768.5088" y1="1050.1998" y2="1050.1998"/><ellipse cx="18" cy="1064.0997" fill="#84BE84" rx="3" ry="3" style="stroke:#038048;stroke-width:1;"/><text fill="#000000" font-family="sans-serif" font-size="14" lengthAdjust="spacing" textLength="212.3931" x="27" y="1067.9617">has_assumed_value() : Boolean [1]</text><ellipse cx="18" cy="1080.8997" fill="#84BE84" rx="3" ry="3" style="stroke:#038048;stroke-width:1;"/><text fill="#000000" font-family="sans-serif" font-size="14" lengthAdjust="spacing" textLength="216.6352" x="27" y="1084.7616">constrained_typename() : String [1]</text><ellipse cx="18" cy="1097.6996" fill="#84BE84" rx="3" ry="3" style="stroke:#038048;stroke-width:1;"/><text fill="#000000" font-family="sans-serif" font-size="14" lengthAdjust="spacing" textLength="736.5088" x="27" y="1101.5616">c_conforms_to( other : C_PRIMITIVE_OBJECT [1], rmcc : FUNCTION&lt;Boolean,TUPLE2&lt;String,String&gt;&gt; [1] ) : Boolean [1]</text><ellipse cx="18" cy="1114.4995" fill="#84BE84" rx="3" ry="3" style="stroke:#038048;stroke-width:1;"/><text fill="#000000" font-family="sans-serif" font-size="14" font-style="italic" lengthAdjust="spacing" textLength="427.0824" x="27" y="1118.3615">c_value_conforms_to( other : C_PRIMITIVE_OBJECT [1] ) : Boolean [1]</text><ellipse cx="18" cy="1131.2995" fill="#84BE84" rx="3" ry="3" style="stroke:#038048;stroke-width:1;"/><text fill="#000000" font-family="sans-serif" font-size="14" lengthAdjust="spacing" textLength="391.6766" x="27" y="1135.1614">c_congruent_to( other : C_PRIMITIVE_OBJECT [1] ) : Boolean [1]</text><ellipse cx="18" cy="1148.0994" fill="#84BE84" rx="3" ry="3" style="stroke:#038048;stroke-width:1;"/><text fill="#000000" font-family="sans-serif" font-size="14" font-style="italic" lengthAdjust="spacing" textLength="431.6604" x="27" y="1151.9614">c_value_congruent_to( other : C_PRIMITIVE_OBJECT [1] ) : Boolean [1]</text></g><!--class SIBLING_ORDER--><g class="entity" data-entity="SIBLING_ORDER" data-source-line="82" data-uid="ent0010" id="entity_SIBLING_ORDER"><rect fill="#F1F1F1" height="98.3998" rx="2.5" ry="2.5" style="stroke:#181818;stroke-width:0.5;" width="189.8273" x="2126.34" y="7"/><ellipse cx="2165.2196" cy="23" fill="#ADD1B2" rx="11" ry="11" style="stroke:#181818;stroke-width:1;"/><path d="M2165.2196,29.4219 C2166.3915,29.4219 2167.6258,29.1563 2169.0008,28.5469 L2168.5165,27.0313 C2167.4227,27.4531 2166.4071,27.6406 2165.5477,27.6406 C2162.829,27.6406 2161.1102,25.7969 2161.1102,22.8906 C2161.1102,20.1406 2162.6727,18.5469 2165.4071,18.5469 C2166.329,18.5469 2167.3446,18.7344 2168.4852,19.1563 L2169.0633,17.6406 C2167.9696,17.0625 2166.6727,16.7656 2165.4852,16.7656 C2161.7196,16.7656 2159.1415,19.4063 2159.1415,23.2188 C2159.1415,26.8906 2161.6258,29.4219 2165.2196,29.4219 Z " fill="#000000"/><text fill="#000000" font-family="sans-serif" font-size="14" lengthAdjust="spacing" textLength="104.7616" x="2184.5262" y="28.362">SIBLING_ORDER</text><line style="stroke:#181818;stroke-width:0.5;" x1="2127.34" x2="2315.1673" y1="39" y2="39"/><ellipse cx="2137.34" cy="52.9" fill="none" rx="3" ry="3" style="stroke:#038048;stroke-width:1;"/><text fill="#000000" font-family="sans-serif" font-size="14" lengthAdjust="spacing" textLength="137.3114" x="2146.34" y="56.7619">is_before : Boolean [1]</text><ellipse cx="2137.34" cy="69.6999" fill="none" rx="3" ry="3" style="stroke:#038048;stroke-width:1;"/><text fill="#000000" font-family="sans-serif" font-size="14" lengthAdjust="spacing" textLength="163.8273" x="2146.34" y="73.5619">sibling_node_id : String [1]</text><line style="stroke:#181818;stroke-width:0.5;" x1="2127.34" x2="2315.1673" y1="80.5999" y2="80.5999"/><ellipse cx="2137.34" cy="94.4998" fill="#84BE84" rx="3" ry="3" style="stroke:#038048;stroke-width:1;"/><text fill="#000000" font-family="sans-serif" font-size="14" lengthAdjust="spacing" textLength="134.6515" x="2146.34" y="98.3618">is_after() : Boolean [1]</text></g><!--class C_ATTRIBUTE_TUPLE--><g class="entity" data-entity="C_ATTRIBUTE_TUPLE" data-source-line="88" data-uid="ent0011" id="entity_C_ATTRIBUTE_TUPLE"><rect fill="#F1F1F1" height="115.1997" rx="2.5" ry="2.5" style="stroke:#181818;stroke-width:0.5;" width="759.8069" x="1991.35" y="215.8"/><ellipse cx="2299.3977" cy="231.8" fill="#ADD1B2" rx="11" ry="11" style="stroke:#181818;stroke-width:1;"/><path d="M2299.3977,238.2219 C2300.5696,238.2219 2301.804,237.9562 2303.179,237.3469 L2302.6946,235.8312 C2301.6008,236.2531 2300.5852,236.4406 2299.7258,236.4406 C2297.0071,236.4406 2295.2883,234.5969 2295.2883,231.6906 C2295.2883,228.9406 2296.8508,227.3469 2299.5852,227.3469 C2300.5071,227.3469 2301.5227,227.5344 2302.6633,227.9562 L2303.2415,226.4406 C2302.1477,225.8625 2300.8508,225.5656 2299.6633,225.5656 C2295.8977,225.5656 2293.3196,228.2062 2293.3196,232.0187 C2293.3196,235.6906 2295.804,238.2219 2299.3977,238.2219 Z " fill="#000000"/><text fill="#000000" font-family="sans-serif" font-size="14" lengthAdjust="spacing" textLength="135.2114" x="2319.8977" y="237.162">C_ATTRIBUTE_TUPLE</text><line style="stroke:#181818;stroke-width:0.5;" x1="1992.35" x2="2750.1569" y1="247.8" y2="247.8"/><ellipse cx="2002.35" cy="261.7" fill="none" rx="3" ry="3" style="stroke:#038048;stroke-width:1;"/><text fill="#000000" font-family="sans-serif" font-size="14" lengthAdjust="spacing" textLength="234.7371" x="2011.35" y="265.5619">tuples : List&lt;C_PRIMITIVE_TUPLE&gt; [*]</text><ellipse cx="2002.35" cy="278.4999" fill="none" rx="3" ry="3" style="stroke:#038048;stroke-width:1;"/><text fill="#000000" font-family="sans-serif" font-size="14" lengthAdjust="spacing" textLength="214.2271" x="2011.35" y="282.3619">members : List&lt;C_ATTRIBUTE&gt; [*]</text><line style="stroke:#181818;stroke-width:0.5;" x1="1992.35" x2="2750.1569" y1="289.3999" y2="289.3999"/><ellipse cx="2002.35" cy="303.2998" fill="#84BE84" rx="3" ry="3" style="stroke:#038048;stroke-width:1;"/><text fill="#000000" font-family="sans-serif" font-size="14" lengthAdjust="spacing" textLength="733.8069" x="2011.35" y="307.1618">c_conforms_to( other : C_ATTRIBUTE_TUPLE [1], rmcc : FUNCTION&lt;Boolean,TUPLE2&lt;String,String&gt;&gt; [1] ) : Boolean [1]</text><ellipse cx="2002.35" cy="320.0997" fill="#84BE84" rx="3" ry="3" style="stroke:#038048;stroke-width:1;"/><text fill="#000000" font-family="sans-serif" font-size="14" lengthAdjust="spacing" textLength="378.9646" x="2011.35" y="323.9617">c_congruent_to( other : C_SECOND_ORDER [1] ) : Boolean [1]</text></g><!--class C_SECOND_ORDER--><g class="entity" data-entity="C_SECOND_ORDER" data-source-line="95" data-uid="ent0012" id="entity_C_SECOND_ORDER"><rect fill="#F1F1F1" height="98.3998" rx="2.5" ry="2.5" style="stroke:#181818;stroke-width:0.5;" width="749.7969" x="2391.36" y="7"/><ellipse cx="2699.4077" cy="23" fill="#A9DCDF" rx="11" ry="11" style="stroke:#181818;stroke-width:1;"/><path d="M2693.9233,28.5 L2695.9546,28.5 L2700.0014,17.1563 L2699.0952,17.1563 L2702.9233,28.5 L2705.0639,28.5 L2700.7358,16.1719 L2698.5171,16.1719 L2693.9233,28.5 Z M2696.2514,25 L2702.6889,25 L2702.6889,23.25 L2696.2514,23.25 L2696.2514,25 Z " fill="#000000"/><text fill="#000000" font-family="sans-serif" font-size="14" font-style="italic" lengthAdjust="spacing" textLength="125.2015" x="2719.9077" y="28.362">C_SECOND_ORDER</text><line style="stroke:#181818;stroke-width:0.5;" x1="2392.36" x2="3140.1569" y1="39" y2="39"/><ellipse cx="2402.36" cy="52.9" fill="none" rx="3" ry="3" style="stroke:#038048;stroke-width:1;"/><text fill="#000000" font-family="sans-serif" font-size="14" lengthAdjust="spacing" textLength="296.5187" x="2411.36" y="56.7619">members : List&lt;ARCHETYPE_CONSTRAINT&gt; [*]</text><line style="stroke:#181818;stroke-width:0.5;" x1="2392.36" x2="3140.1569" y1="63.7999" y2="63.7999"/><ellipse cx="2402.36" cy="77.6999" fill="#84BE84" rx="3" ry="3" style="stroke:#038048;stroke-width:1;"/><text fill="#000000" font-family="sans-serif" font-size="14" font-style="italic" lengthAdjust="spacing" textLength="723.7969" x="2411.36" y="81.5619">c_conforms_to( other : C_SECOND_ORDER [1], rmcc : FUNCTION&lt;Boolean,TUPLE2&lt;String,String&gt;&gt; [1] ) : Boolean [1]</text><ellipse cx="2402.36" cy="94.4998" fill="#84BE84" rx="3" ry="3" style="stroke:#038048;stroke-width:1;"/><text fill="#000000" font-family="sans-serif" font-size="14" font-style="italic" lengthAdjust="spacing" textLength="378.9646" x="2411.36" y="98.3618">c_congruent_to( other : C_SECOND_ORDER [1] ) : Boolean [1]</text></g><!--class C_PRIMITIVE_TUPLE--><g class="entity" data-entity="C_PRIMITIVE_TUPLE" data-source-line="101" data-uid="ent0013" id="entity_C_PRIMITIVE_TUPLE"><rect fill="#F1F1F1" height="98.3998" rx="2.5" ry="2.5" style="stroke:#181818;stroke-width:0.5;" width="753.1849" x="2785.66" y="224.2"/><ellipse cx="3093.7077" cy="240.2" fill="#ADD1B2" rx="11" ry="11" style="stroke:#181818;stroke-width:1;"/><path d="M3093.7077,246.6219 C3094.8796,246.6219 3096.114,246.3563 3097.489,245.7469 L3097.0046,244.2313 C3095.9108,244.6531 3094.8952,244.8406 3094.0358,244.8406 C3091.3171,244.8406 3089.5983,242.9969 3089.5983,240.0906 C3089.5983,237.3406 3091.1608,235.7469 3093.8952,235.7469 C3094.8171,235.7469 3095.8327,235.9344 3096.9733,236.3563 L3097.5515,234.8406 C3096.4577,234.2625 3095.1608,233.9656 3093.9733,233.9656 C3090.2077,233.9656 3087.6296,236.6063 3087.6296,240.4188 C3087.6296,244.0906 3090.114,246.6219 3093.7077,246.6219 Z " fill="#000000"/><text fill="#000000" font-family="sans-serif" font-size="14" lengthAdjust="spacing" textLength="128.5895" x="3114.2077" y="245.562">C_PRIMITIVE_TUPLE</text><line style="stroke:#181818;stroke-width:0.5;" x1="2786.66" x2="3537.8449" y1="256.2" y2="256.2"/><ellipse cx="2796.66" cy="270.1" fill="none" rx="3" ry="3" style="stroke:#038048;stroke-width:1;"/><text fill="#000000" font-family="sans-serif" font-size="14" lengthAdjust="spacing" textLength="277.8569" x="2805.66" y="273.9619">members : List&lt;C_PRIMITIVE_OBJECT&gt; [1..*]</text><line style="stroke:#181818;stroke-width:0.5;" x1="2786.66" x2="3537.8449" y1="280.9999" y2="280.9999"/><ellipse cx="2796.66" cy="294.8999" fill="#84BE84" rx="3" ry="3" style="stroke:#038048;stroke-width:1;"/><text fill="#000000" font-family="sans-serif" font-size="14" lengthAdjust="spacing" textLength="727.1849" x="2805.66" y="298.7619">c_conforms_to( other : C_PRIMITIVE_TUPLE [1], rmcc : FUNCTION&lt;Boolean,TUPLE2&lt;String,String&gt;&gt; [1] ) : Boolean [1]</text><ellipse cx="2796.66" cy="311.6998" fill="#84BE84" rx="3" ry="3" style="stroke:#038048;stroke-width:1;"/><text fill="#000000" font-family="sans-serif" font-size="14" lengthAdjust="spacing" textLength="378.9646" x="2805.66" y="315.5618">c_congruent_to( other : C_SECOND_ORDER [1] ) : Boolean [1]</text></g><!--class C_ARCHETYPE_ROOT--><g class="entity" data-entity="C_ARCHETYPE_ROOT" data-source-line="107" data-uid="ent0014" id="entity_C_ARCHETYPE_ROOT"><rect fill="#F1F1F1" height="64.7999" rx="2.5" ry="2.5" style="stroke:#181818;stroke-width:0.5;" width="177.8854" x="1096.31" y="1219"/><ellipse cx="1114.7966" cy="1235" fill="#ADD1B2" rx="11" ry="11" style="stroke:#181818;stroke-width:1;"/><path d="M1114.7966,1241.4219 C1115.9685,1241.4219 1117.2029,1241.1563 1118.5779,1240.5469 L1118.0935,1239.0313 C1116.9997,1239.4531 1115.9841,1239.6406 1115.1247,1239.6406 C1112.406,1239.6406 1110.6872,1237.7969 1110.6872,1234.8906 C1110.6872,1232.1406 1112.2497,1230.5469 1114.9841,1230.5469 C1115.906,1230.5469 1116.9216,1230.7344 1118.0622,1231.1563 L1118.6404,1229.6406 C1117.5466,1229.0625 1116.2497,1228.7656 1115.0622,1228.7656 C1111.2966,1228.7656 1108.7185,1231.4063 1108.7185,1235.2188 C1108.7185,1238.8906 1111.2029,1241.4219 1114.7966,1241.4219 Z " fill="#000000"/><text fill="#000000" font-family="sans-serif" font-size="14" lengthAdjust="spacing" textLength="138.1374" x="1129.5714" y="1240.362">C_ARCHETYPE_ROOT</text><line style="stroke:#181818;stroke-width:0.5;" x1="1097.31" x2="1273.1954" y1="1251" y2="1251"/><ellipse cx="1107.31" cy="1264.9" fill="none" rx="3" ry="3" style="stroke:#038048;stroke-width:1;"/><text fill="#000000" font-family="sans-serif" font-size="14" lengthAdjust="spacing" textLength="151.8854" x="1116.31" y="1268.7619">archetype_ref : String [1]</text><line style="stroke:#181818;stroke-width:0.5;" x1="1097.31" x2="1273.1954" y1="1275.7999" y2="1275.7999"/></g><!--class C_COMPLEX_OBJECT--><g class="entity" data-entity="C_COMPLEX_OBJECT" data-source-line="111" data-uid="ent0015" id="entity_C_COMPLEX_OBJECT"><rect fill="#F1F1F1" height="131.9996" rx="2.5" ry="2.5" style="stroke:#181818;stroke-width:0.5;" width="761.3468" x="804.58" y="993.4"/><ellipse cx="1112.6277" cy="1009.4" fill="#ADD1B2" rx="11" ry="11" style="stroke:#181818;stroke-width:1;"/><path d="M1112.6277,1015.8219 C1113.7996,1015.8219 1115.0339,1015.5563 1116.4089,1014.9469 L1115.9246,1013.4313 C1114.8308,1013.8531 1113.8152,1014.0406 1112.9558,1014.0406 C1110.2371,1014.0406 1108.5183,1012.1969 1108.5183,1009.2906 C1108.5183,1006.5406 1110.0808,1004.9469 1112.8152,1004.9469 C1113.7371,1004.9469 1114.7527,1005.1344 1115.8933,1005.5563 L1116.4714,1004.0406 C1115.3777,1003.4625 1114.0808,1003.1656 1112.8933,1003.1656 C1109.1277,1003.1656 1106.5496,1005.8063 1106.5496,1009.6188 C1106.5496,1013.2906 1109.0339,1015.8219 1112.6277,1015.8219 Z " fill="#000000"/><text fill="#000000" font-family="sans-serif" font-size="14" lengthAdjust="spacing" textLength="136.7514" x="1133.1277" y="1014.762">C_COMPLEX_OBJECT</text><line style="stroke:#181818;stroke-width:0.5;" x1="805.58" x2="1564.9268" y1="1025.4" y2="1025.4"/><ellipse cx="815.58" cy="1039.3" fill="none" rx="3" ry="3" style="stroke:#038048;stroke-width:1;"/><text fill="#000000" font-family="sans-serif" font-size="14" lengthAdjust="spacing" textLength="215.6131" x="824.58" y="1043.1619">attributes : List&lt;C_ATTRIBUTE&gt; [*]</text><ellipse cx="815.58" cy="1056.0999" fill="none" rx="3" ry="3" style="stroke:#038048;stroke-width:1;"/><text fill="#000000" font-family="sans-serif" font-size="14" lengthAdjust="spacing" textLength="302.5947" x="824.58" y="1059.9619">attribute_tuples : List&lt;C_ATTRIBUTE_TUPLE&gt; [*]</text><line style="stroke:#181818;stroke-width:0.5;" x1="805.58" x2="1564.9268" y1="1066.9999" y2="1066.9999"/><ellipse cx="815.58" cy="1080.8998" fill="#84BE84" rx="3" ry="3" style="stroke:#038048;stroke-width:1;"/><text fill="#000000" font-family="sans-serif" font-size="14" lengthAdjust="spacing" textLength="166.1093" x="824.58" y="1084.7618">any_allowed() : Boolean [1]</text><ellipse cx="815.58" cy="1097.6997" fill="#84BE84" rx="3" ry="3" style="stroke:#038048;stroke-width:1;"/><text fill="#000000" font-family="sans-serif" font-size="14" lengthAdjust="spacing" textLength="735.3468" x="824.58" y="1101.5617">c_conforms_to( other : C_COMPLEX_OBJECT [1], rmcc : FUNCTION&lt;Boolean,TUPLE2&lt;String,String&gt;&gt; [1] ) : Boolean [1]</text><ellipse cx="815.58" cy="1114.4997" fill="#84BE84" rx="3" ry="3" style="stroke:#038048;stroke-width:1;"/><text fill="#000000" font-family="sans-serif" font-size="14" lengthAdjust="spacing" textLength="390.5145" x="824.58" y="1118.3616">c_congruent_to( other : C_COMPLEX_OBJECT [1] ) : Boolean [1]</text></g><!--class ARCHETYPE_ID_CONSTRAINT--><g class="entity" data-entity="ARCHETYPE_ID_CONSTRAINT" data-source-line="119" data-uid="ent0016" id="entity_ARCHETYPE_ID_CONSTRAINT"><rect fill="#F1F1F1" height="64.7999" rx="2.5" ry="2.5" style="stroke:#181818;stroke-width:0.5;" width="222.3572" x="3176.08" y="23.8"/><ellipse cx="3191.08" cy="39.8" fill="#ADD1B2" rx="11" ry="11" style="stroke:#181818;stroke-width:1;"/><path d="M3191.08,46.2219 C3192.2519,46.2219 3193.4863,45.9562 3194.8613,45.3469 L3194.3769,43.8312 C3193.2831,44.2531 3192.2675,44.4406 3191.4081,44.4406 C3188.6894,44.4406 3186.9706,42.5969 3186.9706,39.6906 C3186.9706,36.9406 3188.5331,35.3469 3191.2675,35.3469 C3192.1894,35.3469 3193.205,35.5344 3194.3456,35.9562 L3194.9238,34.4406 C3193.83,33.8625 3192.5331,33.5656 3191.3456,33.5656 C3187.58,33.5656 3185.0019,36.2062 3185.0019,40.0187 C3185.0019,43.6906 3187.4863,46.2219 3191.08,46.2219 Z " fill="#000000"/><text fill="#000000" font-family="sans-serif" font-size="14" lengthAdjust="spacing" textLength="190.3572" x="3205.08" y="45.162">ARCHETYPE_ID_CONSTRAINT</text><line style="stroke:#181818;stroke-width:0.5;" x1="3177.08" x2="3397.4372" y1="55.8" y2="55.8"/><ellipse cx="3187.08" cy="69.7" fill="none" rx="3" ry="3" style="stroke:#038048;stroke-width:1;"/><text fill="#000000" font-family="sans-serif" font-size="14" lengthAdjust="spacing" textLength="156.0154" x="3196.08" y="73.5619">constraint : C_STRING [1]</text><line style="stroke:#181818;stroke-width:0.5;" x1="3177.08" x2="3397.4372" y1="80.5999" y2="80.5999"/></g><!--reverse link ADL_CODE_DEFINITIONS to ARCHETYPE_CONSTRAINT--><g class="link" data-entity-1="ADL_CODE_DEFINITIONS" data-entity-2="ARCHETYPE_CONSTRAINT" data-source-line="123" data-uid="lnk17" id="link_ADL_CODE_DEFINITIONS_ARCHETYPE_CONSTRAINT"><path codeLine="123" d="M1559.25,98.64 C1559.25,119.39 1559.25,133.25 1559.25,165.08" fill="none" id="ADL_CODE_DEFINITIONS-backto-ARCHETYPE_CONSTRAINT" style="stroke:#181818;stroke-width:1;"/><polygon fill="none" points="1559.25,80.64,1553.25,98.64,1565.25,98.64,1559.25,80.64" style="stroke:#181818;stroke-width:1;"/></g><!--reverse link ARCHETYPE_CONSTRAINT to C_OBJECT--><g class="link" data-entity-1="ARCHETYPE_CONSTRAINT" data-entity-2="C_OBJECT" data-source-line="124" data-uid="lnk18" id="link_ARCHETYPE_CONSTRAINT_C_OBJECT"><path codeLine="124" d="M1405.37,392.7612 C1376.82,414.7112 1360.83,427.02 1331.59,449.51" fill="none" id="ARCHETYPE_CONSTRAINT-backto-C_OBJECT" style="stroke:#181818;stroke-width:1;"/><polygon fill="none" points="1419.64,381.79,1401.7129,388.0045,1409.027,397.5178,1419.64,381.79" style="stroke:#181818;stroke-width:1;"/></g><!--reverse link ARCHETYPE_CONSTRAINT to C_ATTRIBUTE--><g class="link" data-entity-1="ARCHETYPE_CONSTRAINT" data-entity-2="C_ATTRIBUTE" data-source-line="125" data-uid="lnk19" id="link_ARCHETYPE_CONSTRAINT_C_ATTRIBUTE"><path codeLine="125" d="M1713.1379,392.764 C1738.0879,411.954 1750.08,421.18 1775.82,440.98" fill="none" id="ARCHETYPE_CONSTRAINT-backto-C_ATTRIBUTE" style="stroke:#181818;stroke-width:1;"/><polygon fill="none" points="1698.87,381.79,1709.4799,397.5199,1716.7959,388.008,1698.87,381.79" style="stroke:#181818;stroke-width:1;"/></g><!--reverse link C_OBJECT to C_DEFINED_OBJECT--><g class="link" data-entity-1="C_OBJECT" data-entity-2="C_DEFINED_OBJECT" data-source-line="126" data-uid="lnk20" id="link_C_OBJECT_C_DEFINED_OBJECT"><path codeLine="126" d="M969.7656,709.8882 C934.8956,733.2482 914.69,746.78 883.86,767.43" fill="none" id="C_OBJECT-backto-C_DEFINED_OBJECT" style="stroke:#181818;stroke-width:1;"/><polygon fill="none" points="984.72,699.87,966.4262,704.9034,973.105,714.873,984.72,699.87" style="stroke:#181818;stroke-width:1;"/></g><!--reverse link C_OBJECT to C_COMPLEX_OBJECT_PROXY--><g class="link" data-entity-1="C_OBJECT" data-entity-2="C_COMPLEX_OBJECT_PROXY" data-source-line="127" data-uid="lnk21" id="link_C_OBJECT_C_COMPLEX_OBJECT_PROXY"><path codeLine="127" d="M1170.25,717.68 C1170.25,747.74 1170.25,760.13 1170.25,784.27" fill="none" id="C_OBJECT-backto-C_COMPLEX_OBJECT_PROXY" style="stroke:#181818;stroke-width:1;"/><polygon fill="none" points="1170.25,699.68,1164.25,717.68,1176.25,717.68,1170.25,699.68" style="stroke:#181818;stroke-width:1;"/></g><!--reverse link C_OBJECT to ARCHETYPE_SLOT--><g class="link" data-entity-1="C_OBJECT" data-entity-2="ARCHETYPE_SLOT" data-source-line="128" data-uid="lnk22" id="link_C_OBJECT_ARCHETYPE_SLOT"><path codeLine="128" d="M1354.3592,710.5092 C1390.6192,737.0792 1412.69,753.25 1443.42,775.77" fill="none" id="C_OBJECT-backto-ARCHETYPE_SLOT" style="stroke:#181818;stroke-width:1;"/><polygon fill="none" points="1339.84,699.87,1350.8128,715.3489,1357.9056,705.6694,1339.84,699.87" style="stroke:#181818;stroke-width:1;"/></g><!--reverse link C_DEFINED_OBJECT to C_PRIMITIVE_OBJECT--><g class="link" data-entity-1="C_DEFINED_OBJECT" data-entity-2="C_PRIMITIVE_OBJECT" data-source-line="129" data-uid="lnk23" id="link_C_DEFINED_OBJECT_C_PRIMITIVE_OBJECT"><path codeLine="129" d="M654.1066,909.0457 C621.0666,927.6057 600.04,939.42 564.32,959.49" fill="none" id="C_DEFINED_OBJECT-backto-C_PRIMITIVE_OBJECT" style="stroke:#181818;stroke-width:1;"/><polygon fill="none" points="669.8,900.23,651.168,903.8145,657.0451,914.2768,669.8,900.23" style="stroke:#181818;stroke-width:1;"/></g><!--reverse link C_SECOND_ORDER to C_ATTRIBUTE_TUPLE--><g class="link" data-entity-1="C_SECOND_ORDER" data-entity-2="C_ATTRIBUTE_TUPLE" data-source-line="130" data-uid="lnk24" id="link_C_SECOND_ORDER_C_ATTRIBUTE_TUPLE"><path codeLine="130" d="M2661.3134,114.3812 C2601.5834,146.9212 2538.51,181.28 2475.81,215.44" fill="none" id="C_SECOND_ORDER-backto-C_ATTRIBUTE_TUPLE" style="stroke:#181818;stroke-width:1;"/><polygon fill="none" points="2677.12,105.77,2658.443,109.1123,2664.1838,119.65,2677.12,105.77" style="stroke:#181818;stroke-width:1;"/></g><!--reverse link C_SECOND_ORDER to C_PRIMITIVE_TUPLE--><g class="link" data-entity-1="C_SECOND_ORDER" data-entity-2="C_PRIMITIVE_TUPLE" data-source-line="131" data-uid="lnk25" id="link_C_SECOND_ORDER_C_PRIMITIVE_TUPLE"><path codeLine="131" d="M2871.4364,114.363 C2936.3364,149.623 3007.97,188.56 3072.87,223.83" fill="none" id="C_SECOND_ORDER-backto-C_PRIMITIVE_TUPLE" style="stroke:#181818;stroke-width:1;"/><polygon fill="none" points="2855.62,105.77,2868.5721,119.6352,2874.3008,109.0909,2855.62,105.77" style="stroke:#181818;stroke-width:1;"/></g><!--reverse link C_COMPLEX_OBJECT to C_ARCHETYPE_ROOT--><g class="link" data-entity-1="C_COMPLEX_OBJECT" data-entity-2="C_ARCHETYPE_ROOT" data-source-line="132" data-uid="lnk26" id="link_C_COMPLEX_OBJECT_C_ARCHETYPE_ROOT"><path codeLine="132" d="M1185.25,1143.79 C1185.25,1175.13 1185.25,1193.26 1185.25,1218.51" fill="none" id="C_COMPLEX_OBJECT-backto-C_ARCHETYPE_ROOT" style="stroke:#181818;stroke-width:1;"/><polygon fill="none" points="1185.25,1125.79,1179.25,1143.79,1191.25,1143.79,1185.25,1125.79" style="stroke:#181818;stroke-width:1;"/></g><!--reverse link C_DEFINED_OBJECT to C_COMPLEX_OBJECT--><g class="link" data-entity-1="C_DEFINED_OBJECT" data-entity-2="C_COMPLEX_OBJECT" data-source-line="133" data-uid="lnk27" id="link_C_DEFINED_OBJECT_C_COMPLEX_OBJECT"><path codeLine="133" d="M918.7026,909.0294 C970.7926,938.2194 1016.33,963.74 1068.43,992.93" fill="none" id="C_DEFINED_OBJECT-backto-C_COMPLEX_OBJECT" style="stroke:#181818;stroke-width:1;"/><polygon fill="none" points="903,900.23,915.7695,914.2636,921.6357,903.7952,903,900.23" style="stroke:#181818;stroke-width:1;"/></g></g></svg>
