<svg xmlns="http://www.w3.org/2000/svg" xmlns:xlink="http://www.w3.org/1999/xlink" contentStyleType="text/css" data-diagram-type="CLASS" height="765px" preserveAspectRatio="none" style="width:808px;height:765px;background:#FFFFFF;" version="1.1" viewBox="0 0 808 765" width="808px" zoomAndPan="magnify"><defs/><g><!--class C_OBJECT--><g class="entity" data-entity="C_OBJECT" data-source-line="2" data-uid="ent0002" id="entity_C_OBJECT"><rect fill="#F1F1F1" height="249.5991" rx="2.5" ry="2.5" style="stroke:#181818;stroke-width:0.5;" width="794.2606" x="7" y="508.6"/><ellipse cx="366.7844" cy="524.6" fill="#A9DCDF" rx="11" ry="11" style="stroke:#181818;stroke-width:1;"/><path d="M361.3001,530.1 L363.3313,530.1 L367.3782,518.7563 L366.4719,518.7563 L370.3001,530.1 L372.4407,530.1 L368.1126,517.7719 L365.8938,517.7719 L361.3001,530.1 Z M363.6282,526.6 L370.0657,526.6 L370.0657,524.85 L363.6282,524.85 L363.6282,526.6 Z " fill="#000000"/><text fill="#000000" font-family="sans-serif" font-size="14" font-style="italic" lengthAdjust="spacing" textLength="66.1917" x="387.2844" y="529.962">C_OBJECT</text><line style="stroke:#181818;stroke-width:0.5;" x1="8" x2="800.2606" y1="540.6" y2="540.6"/><ellipse cx="18" cy="554.5" fill="none" rx="3" ry="3" style="stroke:#038048;stroke-width:1;"/><text fill="#000000" font-family="sans-serif" font-size="14" lengthAdjust="spacing" textLength="159.7254" x="27" y="558.3619">rm_type_name : String [1]</text><ellipse cx="18" cy="571.2999" fill="none" rx="3" ry="3" style="stroke:#038048;stroke-width:1;"/><text fill="#000000" font-family="sans-serif" font-size="14" lengthAdjust="spacing" textLength="242.6471" x="27" y="575.1619">occurrences : Multiplicity_interval [0..1]</text><ellipse cx="18" cy="588.0998" fill="none" rx="3" ry="3" style="stroke:#038048;stroke-width:1;"/><text fill="#000000" font-family="sans-serif" font-size="14" lengthAdjust="spacing" textLength="115.6535" x="27" y="591.9618">node_id : String [1]</text><ellipse cx="18" cy="604.8997" fill="none" rx="3" ry="3" style="stroke:#038048;stroke-width:1;"/><text fill="#000000" font-family="sans-serif" font-size="14" lengthAdjust="spacing" textLength="182.5033" x="27" y="608.7617">is_deprecated : Boolean [0..1]</text><ellipse cx="18" cy="621.6997" fill="none" rx="3" ry="3" style="stroke:#038048;stroke-width:1;"/><text fill="#000000" font-family="sans-serif" font-size="14" lengthAdjust="spacing" textLength="231.1111" x="27" y="625.5616">sibling_order : SIBLING_ORDER [0..1]</text><line style="stroke:#181818;stroke-width:0.5;" x1="8" x2="800.2606" y1="632.5996" y2="632.5996"/><ellipse cx="18" cy="646.4996" fill="#84BE84" rx="3" ry="3" style="stroke:#038048;stroke-width:1;"/><text fill="#000000" font-family="sans-serif" font-size="14" lengthAdjust="spacing" textLength="209.5092" x="27" y="650.3616">specialisation_depth() : Integer [1]</text><ellipse cx="18" cy="663.2995" fill="#84BE84" rx="3" ry="3" style="stroke:#038048;stroke-width:1;"/><text fill="#000000" font-family="sans-serif" font-size="14" lengthAdjust="spacing" textLength="295.7629" x="27" y="667.1615">effective_occurrences() : Multiplicity_interval [1]</text><ellipse cx="18" cy="680.0995" fill="#84BE84" rx="3" ry="3" style="stroke:#038048;stroke-width:1;"/><text fill="#000000" font-family="sans-serif" font-size="14" lengthAdjust="spacing" textLength="768.2606" x="27" y="683.9614">c_conforms_to( other : ARCHETYPE_CONSTRAINT [1], rmcc : FUNCTION&lt;Boolean,TUPLE2&lt;String,String&gt;&gt; [1] ) : Boolean [1]</text><ellipse cx="18" cy="696.8994" fill="#84BE84" rx="3" ry="3" style="stroke:#038048;stroke-width:1;"/><text fill="#000000" font-family="sans-serif" font-size="14" lengthAdjust="spacing" textLength="423.4283" x="27" y="700.7614">c_congruent_to( other : ARCHETYPE_CONSTRAINT [1] ) : Boolean [1]</text><ellipse cx="18" cy="713.6993" fill="#84BE84" rx="3" ry="3" style="stroke:#038048;stroke-width:1;"/><text fill="#000000" font-family="sans-serif" font-size="14" lengthAdjust="spacing" textLength="383.9766" x="27" y="717.5613">occurrences_conforms_to( other : C_OBJECT [1] ) : Boolean [1]</text><ellipse cx="18" cy="730.4992" fill="#84BE84" rx="3" ry="3" style="stroke:#038048;stroke-width:1;"/><text fill="#000000" font-family="sans-serif" font-size="14" lengthAdjust="spacing" textLength="358.5107" x="27" y="734.3612">node_id_conforms_to( other : C_OBJECT [1] ) : Boolean [1]</text><ellipse cx="18" cy="747.2992" fill="#84BE84" rx="3" ry="3" style="stroke:#038048;stroke-width:1;"/><text fill="#000000" font-family="sans-serif" font-size="14" lengthAdjust="spacing" textLength="169.4413" x="27" y="751.1611">is_prohibited() : Boolean [1]</text></g><!--class ARCHETYPE_CONSTRAINT--><g class="entity" data-entity="ARCHETYPE_CONSTRAINT" data-source-line="17" data-uid="ent0003" id="entity_ARCHETYPE_CONSTRAINT"><rect fill="#F5F5F5" height="215.9993" rx="2.5" ry="2.5" style="stroke:#808080;stroke-width:1;stroke-dasharray:1,3;" width="794.2606" x="7" y="232.6"/><ellipse cx="315.0477" cy="248.6" fill="#A9DCDF" rx="11" ry="11" style="stroke:#181818;stroke-width:1;"/><path d="M309.5633,254.1 L311.5945,254.1 L315.6414,242.7563 L314.7352,242.7563 L318.5633,254.1 L320.7039,254.1 L316.3758,241.7719 L314.157,241.7719 L309.5633,254.1 Z M311.8914,250.6 L318.3289,250.6 L318.3289,248.85 L311.8914,248.85 L311.8914,250.6 Z " fill="#000000"/><text fill="#808080" font-family="sans-serif" font-size="14" font-style="italic" lengthAdjust="spacing" textLength="169.6653" x="335.5477" y="253.962">ARCHETYPE_CONSTRAINT</text><line style="stroke:#808080;stroke-width:1;stroke-dasharray:1,3;" x1="8" x2="800.2606" y1="264.6" y2="264.6"/><ellipse cx="18" cy="278.5" fill="none" rx="3" ry="3" style="stroke:#038048;stroke-width:1;"/><text fill="#808080" font-family="sans-serif" font-size="14" lengthAdjust="spacing" textLength="254.799" x="27" y="282.3619">parent : ARCHETYPE_CONSTRAINT [0..1]</text><ellipse cx="18" cy="295.2999" fill="none" rx="3" ry="3" style="stroke:#038048;stroke-width:1;"/><text fill="#808080" font-family="sans-serif" font-size="14" lengthAdjust="spacing" textLength="238.3071" x="27" y="299.1619">soc_parent : C_SECOND_ORDER [0..1]</text><line style="stroke:#808080;stroke-width:1;stroke-dasharray:1,3;" x1="8" x2="800.2606" y1="306.1999" y2="306.1999"/><ellipse cx="18" cy="320.0998" fill="#84BE84" rx="3" ry="3" style="stroke:#038048;stroke-width:1;"/><text fill="#808080" font-family="sans-serif" font-size="14" font-style="italic" lengthAdjust="spacing" textLength="169.4413" x="27" y="323.9618">is_prohibited() : Boolean [1]</text><ellipse cx="18" cy="336.8997" fill="#84BE84" rx="3" ry="3" style="stroke:#038048;stroke-width:1;"/><text fill="#808080" font-family="sans-serif" font-size="14" lengthAdjust="spacing" textLength="259.279" x="27" y="340.7617">has_path( a_path : String [1] ) : Boolean [1]</text><ellipse cx="18" cy="353.6997" fill="#84BE84" rx="3" ry="3" style="stroke:#038048;stroke-width:1;"/><text fill="#808080" font-family="sans-serif" font-size="14" lengthAdjust="spacing" textLength="102.5636" x="27" y="357.5616">path() : String [1]</text><ellipse cx="18" cy="370.4996" fill="#84BE84" rx="3" ry="3" style="stroke:#038048;stroke-width:1;"/><text fill="#808080" font-family="sans-serif" font-size="14" font-style="italic" lengthAdjust="spacing" textLength="768.2606" x="27" y="374.3616">c_conforms_to( other : ARCHETYPE_CONSTRAINT [1], rmcc : FUNCTION&lt;Boolean,TUPLE2&lt;String,String&gt;&gt; [1] ) : Boolean [1]</text><ellipse cx="18" cy="387.2995" fill="#84BE84" rx="3" ry="3" style="stroke:#038048;stroke-width:1;"/><text fill="#808080" font-family="sans-serif" font-size="14" font-style="italic" lengthAdjust="spacing" textLength="423.4283" x="27" y="391.1615">c_congruent_to( other : ARCHETYPE_CONSTRAINT [1] ) : Boolean [1]</text><ellipse cx="18" cy="404.0995" fill="#84BE84" rx="3" ry="3" style="stroke:#038048;stroke-width:1;"/><text fill="#808080" font-family="sans-serif" font-size="14" lengthAdjust="spacing" textLength="270.311" x="27" y="407.9614">is_second_order_constrained() : Boolean [1]</text><ellipse cx="18" cy="420.8994" fill="#84BE84" rx="3" ry="3" style="stroke:#038048;stroke-width:1;"/><text fill="#808080" font-family="sans-serif" font-size="14" lengthAdjust="spacing" textLength="131.2075" x="27" y="424.7614">is_root() : Boolean [1]</text><ellipse cx="18" cy="437.6993" fill="#84BE84" rx="3" ry="3" style="stroke:#038048;stroke-width:1;"/><text fill="#808080" font-family="sans-serif" font-size="14" lengthAdjust="spacing" textLength="128.2115" x="27" y="441.5613">is_leaf() : Boolean [1]</text></g><!--class ADL_CODE_DEFINITIONS--><g class="entity" data-entity="ADL_CODE_DEFINITIONS" data-source-line="30" data-uid="ent0004" id="entity_ADL_CODE_DEFINITIONS"><rect fill="#F5F5F5" height="165.5995" rx="2.5" ry="2.5" style="stroke:#808080;stroke-width:1;stroke-dasharray:1,3;" width="547.7921" x="130.23" y="7"/><ellipse cx="318.8094" cy="23" fill="#ADD1B2" rx="11" ry="11" style="stroke:#181818;stroke-width:1;"/><path d="M318.8094,29.4219 C319.9813,29.4219 321.2156,29.1563 322.5906,28.5469 L322.1063,27.0313 C321.0125,27.4531 319.9969,27.6406 319.1375,27.6406 C316.4188,27.6406 314.7,25.7969 314.7,22.8906 C314.7,20.1406 316.2625,18.5469 318.9969,18.5469 C319.9188,18.5469 320.9344,18.7344 322.075,19.1563 L322.6531,17.6406 C321.5594,17.0625 320.2625,16.7656 319.075,16.7656 C315.3094,16.7656 312.7313,19.4063 312.7313,23.2188 C312.7313,26.8906 315.2156,29.4219 318.8094,29.4219 Z " fill="#000000"/><text fill="#808080" font-family="sans-serif" font-size="14" lengthAdjust="spacing" textLength="162.1334" x="339.3094" y="28.362">ADL_CODE_DEFINITIONS</text><line style="stroke:#808080;stroke-width:1;stroke-dasharray:1,3;" x1="131.23" x2="677.0221" y1="39" y2="39"/><line style="stroke:#808080;stroke-width:1;stroke-dasharray:1,3;" x1="131.23" x2="677.0221" y1="47" y2="47"/><ellipse cx="141.23" cy="60.9" fill="#84BE84" rx="3" ry="3" style="stroke:#038048;stroke-width:1;"/><text fill="#808080" font-family="sans-serif" font-size="14" lengthAdjust="spacing" textLength="521.7921" x="150.23" y="64.7619">codes_conformant( a_child_code : String [1], a_parent_code : String [1] ) : Boolean [1]</text><ellipse cx="141.23" cy="77.6999" fill="#84BE84" rx="3" ry="3" style="stroke:#038048;stroke-width:1;"/><text fill="#808080" font-family="sans-serif" font-size="14" lengthAdjust="spacing" textLength="277.0449" x="150.23" y="81.5619">is_adl_code( a_code : String [1] ) : Boolean [1]</text><ellipse cx="141.23" cy="94.4998" fill="#84BE84" rx="3" ry="3" style="stroke:#038048;stroke-width:1;"/><text fill="#808080" font-family="sans-serif" font-size="14" lengthAdjust="spacing" textLength="269.429" x="150.23" y="98.3618">is_id_code( a_code : String [1] ) : Boolean [1]</text><ellipse cx="141.23" cy="111.2997" fill="#84BE84" rx="3" ry="3" style="stroke:#038048;stroke-width:1;"/><text fill="#808080" font-family="sans-serif" font-size="14" lengthAdjust="spacing" textLength="290.9889" x="150.23" y="115.1617">is_value_code( a_code : String [1] ) : Boolean [1]</text><ellipse cx="141.23" cy="128.0997" fill="#84BE84" rx="3" ry="3" style="stroke:#038048;stroke-width:1;"/><text fill="#808080" font-family="sans-serif" font-size="14" lengthAdjust="spacing" textLength="316.9308" x="150.23" y="131.9616">is_value_set_code( a_code : String [1] ) : Boolean [1]</text><ellipse cx="141.23" cy="144.8996" fill="#84BE84" rx="3" ry="3" style="stroke:#038048;stroke-width:1;"/><text fill="#808080" font-family="sans-serif" font-size="14" lengthAdjust="spacing" textLength="317.5608" x="150.23" y="148.7616">is_redefined_code( a_code : String [1] ) : Boolean [1]</text><ellipse cx="141.23" cy="161.6995" fill="#84BE84" rx="3" ry="3" style="stroke:#038048;stroke-width:1;"/><text fill="#808080" font-family="sans-serif" font-size="14" lengthAdjust="spacing" textLength="454.3962" x="150.23" y="165.5615">code_exists_at_level( a-code : String [1], a_level : Integer [1] ) : Boolean [1]</text></g><!--reverse link ADL_CODE_DEFINITIONS to ARCHETYPE_CONSTRAINT--><g class="link" data-entity-1="ADL_CODE_DEFINITIONS" data-entity-2="ARCHETYPE_CONSTRAINT" data-source-line="40" data-uid="lnk5" id="link_ADL_CODE_DEFINITIONS_ARCHETYPE_CONSTRAINT"><path codeLine="40" d="M404.13,190.96 C404.13,209.92 404.13,212.38 404.13,232.24" fill="none" id="ADL_CODE_DEFINITIONS-backto-ARCHETYPE_CONSTRAINT" style="stroke:#181818;stroke-width:1;"/><polygon fill="none" points="404.13,172.96,398.13,190.96,410.13,190.96,404.13,172.96" style="stroke:#181818;stroke-width:1;"/></g><!--reverse link ARCHETYPE_CONSTRAINT to C_OBJECT--><g class="link" data-entity-1="ARCHETYPE_CONSTRAINT" data-entity-2="C_OBJECT" data-source-line="42" data-uid="lnk6" id="link_ARCHETYPE_CONSTRAINT_C_OBJECT"><path codeLine="42" d="M404.13,467.06 C404.13,486.31 404.13,488.52 404.13,508.2" fill="none" id="ARCHETYPE_CONSTRAINT-backto-C_OBJECT" style="stroke:#181818;stroke-width:1;"/><polygon fill="none" points="404.13,449.06,398.13,467.06,410.13,467.06,404.13,449.06" style="stroke:#181818;stroke-width:1;"/></g></g></svg>
