<svg xmlns="http://www.w3.org/2000/svg" xmlns:xlink="http://www.w3.org/1999/xlink" contentStyleType="text/css" data-diagram-type="CLASS" height="119px" preserveAspectRatio="none" style="width:770px;height:119px;background:#FFFFFF;" version="1.1" viewBox="0 0 770 119" width="770px" zoomAndPan="magnify"><defs/><g><!--class C_SECOND_ORDER--><g class="entity" data-entity="C_SECOND_ORDER" data-source-line="2" data-uid="ent0002" id="entity_C_SECOND_ORDER"><rect fill="#F1F1F1" height="98.3998" rx="2.5" ry="2.5" style="stroke:#181818;stroke-width:0.5;" width="749.7969" x="7" y="7"/><ellipse cx="315.0477" cy="23" fill="#A9DCDF" rx="11" ry="11" style="stroke:#181818;stroke-width:1;"/><path d="M309.5633,28.5 L311.5946,28.5 L315.6414,17.1563 L314.7352,17.1563 L318.5633,28.5 L320.7039,28.5 L316.3758,16.1719 L314.1571,16.1719 L309.5633,28.5 Z M311.8914,25 L318.3289,25 L318.3289,23.25 L311.8914,23.25 L311.8914,25 Z " fill="#000000"/><text fill="#000000" font-family="sans-serif" font-size="14" font-style="italic" lengthAdjust="spacing" textLength="125.2015" x="335.5477" y="28.362">C_SECOND_ORDER</text><line style="stroke:#181818;stroke-width:0.5;" x1="8" x2="755.7969" y1="39" y2="39"/><ellipse cx="18" cy="52.9" fill="none" rx="3" ry="3" style="stroke:#038048;stroke-width:1;"/><text fill="#000000" font-family="sans-serif" font-size="14" lengthAdjust="spacing" textLength="296.5187" x="27" y="56.7619">members : List&lt;ARCHETYPE_CONSTRAINT&gt; [*]</text><line style="stroke:#181818;stroke-width:0.5;" x1="8" x2="755.7969" y1="63.7999" y2="63.7999"/><ellipse cx="18" cy="77.6999" fill="#84BE84" rx="3" ry="3" style="stroke:#038048;stroke-width:1;"/><text fill="#000000" font-family="sans-serif" font-size="14" font-style="italic" lengthAdjust="spacing" textLength="723.7969" x="27" y="81.5619">c_conforms_to( other : C_SECOND_ORDER [1], rmcc : FUNCTION&lt;Boolean,TUPLE2&lt;String,String&gt;&gt; [1] ) : Boolean [1]</text><ellipse cx="18" cy="94.4998" fill="#84BE84" rx="3" ry="3" style="stroke:#038048;stroke-width:1;"/><text fill="#000000" font-family="sans-serif" font-size="14" font-style="italic" lengthAdjust="spacing" textLength="378.9646" x="27" y="98.3618">c_congruent_to( other : C_SECOND_ORDER [1] ) : Boolean [1]</text></g></g></svg>
