<svg xmlns="http://www.w3.org/2000/svg" xmlns:xlink="http://www.w3.org/1999/xlink" contentStyleType="text/css" data-diagram-type="CLASS" height="152px" preserveAspectRatio="none" style="width:474px;height:152px;background:#FFFFFF;" version="1.1" viewBox="0 0 474 152" width="474px" zoomAndPan="magnify"><defs/><g><!--class AOM_PROFILE--><g class="entity" data-entity="AOM_PROFILE" data-source-line="2" data-uid="ent0002" id="entity_AOM_PROFILE"><rect fill="#F1F1F1" height="131.9996" rx="2.5" ry="2.5" style="stroke:#181818;stroke-width:0.5;" width="453.5022" x="7" y="7"/><ellipse cx="183.0563" cy="23" fill="#ADD1B2" rx="11" ry="11" style="stroke:#181818;stroke-width:1;"/><path d="M183.0563,29.4219 C184.2282,29.4219 185.4625,29.1563 186.8375,28.5469 L186.3532,27.0313 C185.2594,27.4531 184.2438,27.6406 183.3844,27.6406 C180.6657,27.6406 178.9469,25.7969 178.9469,22.8906 C178.9469,20.1406 180.5094,18.5469 183.2438,18.5469 C184.1657,18.5469 185.1813,18.7344 186.3219,19.1563 L186.9,17.6406 C185.8063,17.0625 184.5094,16.7656 183.3219,16.7656 C179.5563,16.7656 176.9782,19.4063 176.9782,23.2188 C176.9782,26.8906 179.4625,29.4219 183.0563,29.4219 Z " fill="#000000"/><text fill="#000000" font-family="sans-serif" font-size="14" lengthAdjust="spacing" textLength="92.8896" x="203.5563" y="28.362">AOM_PROFILE</text><line style="stroke:#181818;stroke-width:0.5;" x1="8" x2="459.5022" y1="39" y2="39"/><ellipse cx="18" cy="52.9" fill="none" rx="3" ry="3" style="stroke:#038048;stroke-width:1;"/><text fill="#000000" font-family="sans-serif" font-size="14" lengthAdjust="spacing" textLength="345.0707" x="27" y="56.7619">aom_rm_type_substitutions : Hash&lt;String,String&gt; [0..1]</text><ellipse cx="18" cy="69.6999" fill="none" rx="3" ry="3" style="stroke:#038048;stroke-width:1;"/><text fill="#000000" font-family="sans-serif" font-size="14" lengthAdjust="spacing" textLength="324.1967" x="27" y="73.5619">aom_lifecycle_mappings : Hash&lt;String,String&gt; [0..1]</text><ellipse cx="18" cy="86.4998" fill="none" rx="3" ry="3" style="stroke:#038048;stroke-width:1;"/><text fill="#000000" font-family="sans-serif" font-size="14" lengthAdjust="spacing" textLength="148.5814" x="27" y="90.3618">profile_name : String [1]</text><ellipse cx="18" cy="103.2997" fill="none" rx="3" ry="3" style="stroke:#038048;stroke-width:1;"/><text fill="#000000" font-family="sans-serif" font-size="14" lengthAdjust="spacing" textLength="427.5022" x="27" y="107.1617">aom_rm_type_mappings : Hash&lt;String,AOM_TYPE_MAPPING&gt; [0..1]</text><ellipse cx="18" cy="120.0997" fill="none" rx="3" ry="3" style="stroke:#038048;stroke-width:1;"/><text fill="#000000" font-family="sans-serif" font-size="14" lengthAdjust="spacing" textLength="371.8806" x="27" y="123.9616">rm_primitive_type_equivalences : Hash&lt;String,String&gt; [0..1]</text><line style="stroke:#181818;stroke-width:0.5;" x1="8" x2="459.5022" y1="130.9996" y2="130.9996"/></g></g></svg>
