<svg xmlns="http://www.w3.org/2000/svg" xmlns:xlink="http://www.w3.org/1999/xlink" contentStyleType="text/css" data-diagram-type="CLASS" height="1775px" preserveAspectRatio="none" style="width:808px;height:1775px;background:#FFFFFF;" version="1.1" viewBox="0 0 808 1775" width="808px" zoomAndPan="magnify"><defs/><g><!--class C_DATE--><g class="entity" data-entity="C_DATE" data-source-line="2" data-uid="ent0002" id="entity_C_DATE"><rect fill="#F1F1F1" height="115.1997" rx="2.5" ry="2.5" style="stroke:#181818;stroke-width:0.5;" width="303.3389" x="252.46" y="1653.4"/><ellipse cx="374.4556" cy="1669.4" fill="#ADD1B2" rx="11" ry="11" style="stroke:#181818;stroke-width:1;"/><path d="M374.4556,1675.8219 C375.6274,1675.8219 376.8618,1675.5562 378.2368,1674.9469 L377.7524,1673.4312 C376.6587,1673.8531 375.6431,1674.0406 374.7837,1674.0406 C372.0649,1674.0406 370.3462,1672.1969 370.3462,1669.2906 C370.3462,1666.5406 371.9087,1664.9469 374.6431,1664.9469 C375.5649,1664.9469 376.5806,1665.1344 377.7212,1665.5562 L378.2993,1664.0406 C377.2056,1663.4625 375.9087,1663.1656 374.7212,1663.1656 C370.9556,1663.1656 368.3774,1665.8062 368.3774,1669.6187 C368.3774,1673.2906 370.8618,1675.8219 374.4556,1675.8219 Z " fill="#000000"/><text fill="#000000" font-family="sans-serif" font-size="14" lengthAdjust="spacing" textLength="50.8478" x="394.9556" y="1674.762">C_DATE</text><line style="stroke:#181818;stroke-width:0.5;" x1="253.46" x2="554.7989" y1="1685.4" y2="1685.4"/><ellipse cx="263.46" cy="1699.3" fill="none" rx="3" ry="3" style="stroke:#038048;stroke-width:1;"/><text fill="#000000" font-family="sans-serif" font-size="14" lengthAdjust="spacing" textLength="277.3389" x="272.46" y="1703.1619">constraint : List&lt;Interval&lt;Iso8601_date&gt;&gt; [*]</text><line style="stroke:#181818;stroke-width:0.5;" x1="253.46" x2="554.7989" y1="1710.1999" y2="1710.1999"/><ellipse cx="263.46" cy="1724.0999" fill="#84BE84" rx="3" ry="3" style="stroke:#038048;stroke-width:1;"/><text fill="#000000" font-family="sans-serif" font-size="14" lengthAdjust="spacing" textLength="227.1351" x="272.46" y="1727.9619">month_validity() : VALIDITY_KIND [1]</text><ellipse cx="263.46" cy="1740.8998" fill="#84BE84" rx="3" ry="3" style="stroke:#038048;stroke-width:1;"/><text fill="#000000" font-family="sans-serif" font-size="14" lengthAdjust="spacing" textLength="207.7312" x="272.46" y="1744.7618">day_validity() : VALIDITY_KIND [1]</text><ellipse cx="263.46" cy="1757.6997" fill="#84BE84" rx="3" ry="3" style="stroke:#038048;stroke-width:1;"/><text fill="#000000" font-family="sans-serif" font-size="14" lengthAdjust="spacing" textLength="243.921" x="272.46" y="1761.5617">timezone_validity() : VALIDITY_KIND [1]</text></g><!--class C_TEMPORAL--><g class="entity" data-entity="C_TEMPORAL" data-source-line="9" data-uid="ent0003" id="entity_C_TEMPORAL"><rect fill="#F5F5F5" height="148.7996" rx="2.5" ry="2.5" style="stroke:#808080;stroke-width:1;stroke-dasharray:1,3;" width="664.8453" x="71.71" y="1444.6"/><ellipse cx="350.6948" cy="1460.6" fill="#A9DCDF" rx="11" ry="11" style="stroke:#181818;stroke-width:1;"/><path d="M345.2105,1466.1 L347.2417,1466.1 L351.2886,1454.7563 L350.3823,1454.7563 L354.2105,1466.1 L356.3511,1466.1 L352.023,1453.7719 L349.8042,1453.7719 L345.2105,1466.1 Z M347.5386,1462.6 L353.9761,1462.6 L353.9761,1460.85 L347.5386,1460.85 L347.5386,1462.6 Z " fill="#000000"/><text fill="#808080" font-family="sans-serif" font-size="14" font-style="italic" lengthAdjust="spacing" textLength="87.5836" x="371.1948" y="1465.962">C_TEMPORAL</text><rect fill="#FFFFFF" height="16.4001" style="stroke:#181818;stroke-width:1;stroke-dasharray:2,2;" width="8.7921" x="730.7633" y="1441.6"/><text fill="#000000" font-family="sans-serif" font-size="12" font-style="italic" lengthAdjust="spacing" textLength="6.7921" x="731.7633" y="1454.3961">T</text><line style="stroke:#808080;stroke-width:1;stroke-dasharray:1,3;" x1="72.71" x2="735.5553" y1="1476.6" y2="1476.6"/><ellipse cx="82.71" cy="1490.5" fill="none" rx="3" ry="3" style="stroke:#038048;stroke-width:1;"/><text fill="#808080" font-family="sans-serif" font-size="14" lengthAdjust="spacing" textLength="197.4693" x="91.71" y="1494.3619">pattern_constraint : String [0..1]</text><line style="stroke:#808080;stroke-width:1;stroke-dasharray:1,3;" x1="72.71" x2="735.5553" y1="1501.3999" y2="1501.3999"/><ellipse cx="82.71" cy="1515.2999" fill="#84BE84" rx="3" ry="3" style="stroke:#038048;stroke-width:1;"/><text fill="#808080" font-family="sans-serif" font-size="14" font-style="italic" lengthAdjust="spacing" textLength="372.1747" x="91.71" y="1519.1619">valid_pattern_constraint( a_pattern : String [1] ) : Boolean [1]</text><ellipse cx="82.71" cy="1532.0998" fill="#84BE84" rx="3" ry="3" style="stroke:#038048;stroke-width:1;"/><text fill="#808080" font-family="sans-serif" font-size="14" font-style="italic" lengthAdjust="spacing" textLength="638.8453" x="91.71" y="1535.9618">valid_pattern_constraint_replacement( a_pattern : String [1], an_other_pattern : String [1] ) : Boolean [1]</text><ellipse cx="82.71" cy="1548.8997" fill="#84BE84" rx="3" ry="3" style="stroke:#038048;stroke-width:1;"/><text fill="#808080" font-family="sans-serif" font-size="14" lengthAdjust="spacing" textLength="166.1093" x="91.71" y="1552.7617">any_allowed() : Boolean [1]</text><ellipse cx="82.71" cy="1565.6997" fill="#84BE84" rx="3" ry="3" style="stroke:#038048;stroke-width:1;"/><text fill="#808080" font-family="sans-serif" font-size="14" lengthAdjust="spacing" textLength="369.4586" x="91.71" y="1569.5616">c_value_conforms_to( other : C_ORDERED [1] ) : Boolean [1]</text><ellipse cx="82.71" cy="1582.4996" fill="#84BE84" rx="3" ry="3" style="stroke:#038048;stroke-width:1;"/><text fill="#808080" font-family="sans-serif" font-size="14" lengthAdjust="spacing" textLength="374.0366" x="91.71" y="1586.3616">c_value_congruent_to( other : C_ORDERED [1] ) : Boolean [1]</text></g><!--class C_ORDERED--><g class="entity" data-entity="C_ORDERED" data-source-line="18" data-uid="ent0004" id="entity_C_ORDERED"><rect fill="#F5F5F5" height="115.1997" rx="2.5" ry="2.5" style="stroke:#808080;stroke-width:1;stroke-dasharray:1,3;" width="400.0366" x="204.11" y="1269.4"/><ellipse cx="354.3374" cy="1285.4" fill="#A9DCDF" rx="11" ry="11" style="stroke:#181818;stroke-width:1;"/><path d="M348.8531,1290.9 L350.8843,1290.9 L354.9312,1279.5562 L354.0249,1279.5562 L357.8531,1290.9 L359.9937,1290.9 L355.6656,1278.5719 L353.4468,1278.5719 L348.8531,1290.9 Z M351.1812,1287.4 L357.6187,1287.4 L357.6187,1285.65 L351.1812,1285.65 L351.1812,1287.4 Z " fill="#000000"/><text fill="#808080" font-family="sans-serif" font-size="14" font-style="italic" lengthAdjust="spacing" textLength="80.2897" x="374.8374" y="1290.762">C_ORDERED</text><rect fill="#FFFFFF" height="16.4001" style="stroke:#181818;stroke-width:1;stroke-dasharray:2,2;" width="8.7921" x="598.3546" y="1266.4"/><text fill="#000000" font-family="sans-serif" font-size="12" font-style="italic" lengthAdjust="spacing" textLength="6.7921" x="599.3546" y="1279.1961">T</text><line style="stroke:#808080;stroke-width:1;stroke-dasharray:1,3;" x1="205.11" x2="603.1466" y1="1301.4" y2="1301.4"/><ellipse cx="215.11" cy="1315.3" fill="none" rx="3" ry="3" style="stroke:#038048;stroke-width:1;"/><text fill="#808080" font-family="sans-serif" font-size="14" lengthAdjust="spacing" textLength="201.6972" x="224.11" y="1319.1619">constraint : List&lt;Interval&lt;T&gt;&gt; [*]</text><line style="stroke:#808080;stroke-width:1;stroke-dasharray:1,3;" x1="205.11" x2="603.1466" y1="1326.1999" y2="1326.1999"/><ellipse cx="215.11" cy="1340.0999" fill="#84BE84" rx="3" ry="3" style="stroke:#038048;stroke-width:1;"/><text fill="#808080" font-family="sans-serif" font-size="14" lengthAdjust="spacing" textLength="166.1093" x="224.11" y="1343.9619">any_allowed() : Boolean [1]</text><ellipse cx="215.11" cy="1356.8998" fill="#84BE84" rx="3" ry="3" style="stroke:#038048;stroke-width:1;"/><text fill="#808080" font-family="sans-serif" font-size="14" lengthAdjust="spacing" textLength="369.4586" x="224.11" y="1360.7618">c_value_conforms_to( other : C_ORDERED [1] ) : Boolean [1]</text><ellipse cx="215.11" cy="1373.6997" fill="#84BE84" rx="3" ry="3" style="stroke:#038048;stroke-width:1;"/><text fill="#808080" font-family="sans-serif" font-size="14" lengthAdjust="spacing" textLength="374.0366" x="224.11" y="1377.5617">c_value_congruent_to( other : C_ORDERED [1] ) : Boolean [1]</text></g><!--class C_PRIMITIVE_OBJECT--><g class="entity" data-entity="C_PRIMITIVE_OBJECT" data-source-line="25" data-uid="ent0005" id="entity_C_PRIMITIVE_OBJECT"><rect fill="#F5F5F5" height="199.1993" rx="2.5" ry="2.5" style="stroke:#808080;stroke-width:1;stroke-dasharray:1,3;" width="762.5088" x="22.88" y="1010.2"/><ellipse cx="330.9277" cy="1026.2" fill="#A9DCDF" rx="11" ry="11" style="stroke:#181818;stroke-width:1;"/><path d="M325.4433,1031.7 L327.4745,1031.7 L331.5214,1020.3562 L330.6152,1020.3562 L334.4433,1031.7 L336.5839,1031.7 L332.2558,1019.3719 L330.037,1019.3719 L325.4433,1031.7 Z M327.7714,1028.2 L334.2089,1028.2 L334.2089,1026.45 L327.7714,1026.45 L327.7714,1028.2 Z " fill="#000000"/><text fill="#808080" font-family="sans-serif" font-size="14" font-style="italic" lengthAdjust="spacing" textLength="137.9135" x="351.4277" y="1031.562">C_PRIMITIVE_OBJECT</text><line style="stroke:#808080;stroke-width:1;stroke-dasharray:1,3;" x1="23.88" x2="784.3888" y1="1042.2" y2="1042.2"/><ellipse cx="33.88" cy="1056.1" fill="none" rx="3" ry="3" style="stroke:#038048;stroke-width:1;"/><text fill="#808080" font-family="sans-serif" font-size="14" lengthAdjust="spacing" textLength="163.4633" x="42.88" y="1059.9619">assumed_value : Any [0..1]</text><ellipse cx="33.88" cy="1072.8999" fill="none" rx="3" ry="3" style="stroke:#038048;stroke-width:1;"/><text fill="#808080" font-family="sans-serif" font-size="14" lengthAdjust="spacing" textLength="292.1508" x="42.88" y="1076.7619">is_enumerated_type_constraint : Boolean [0..1]</text><ellipse cx="33.88" cy="1089.6998" fill="none" rx="3" ry="3" style="stroke:#038048;stroke-width:1;"/><text fill="#808080" font-family="sans-serif" font-size="14" lengthAdjust="spacing" textLength="114.8136" x="42.88" y="1093.5618">constraint : Any [1]</text><line style="stroke:#808080;stroke-width:1;stroke-dasharray:1,3;" x1="23.88" x2="784.3888" y1="1100.5998" y2="1100.5998"/><ellipse cx="33.88" cy="1114.4997" fill="#84BE84" rx="3" ry="3" style="stroke:#038048;stroke-width:1;"/><text fill="#808080" font-family="sans-serif" font-size="14" lengthAdjust="spacing" textLength="212.3931" x="42.88" y="1118.3617">has_assumed_value() : Boolean [1]</text><ellipse cx="33.88" cy="1131.2997" fill="#84BE84" rx="3" ry="3" style="stroke:#038048;stroke-width:1;"/><text fill="#808080" font-family="sans-serif" font-size="14" lengthAdjust="spacing" textLength="216.6352" x="42.88" y="1135.1616">constrained_typename() : String [1]</text><ellipse cx="33.88" cy="1148.0996" fill="#84BE84" rx="3" ry="3" style="stroke:#038048;stroke-width:1;"/><text fill="#808080" font-family="sans-serif" font-size="14" lengthAdjust="spacing" textLength="736.5088" x="42.88" y="1151.9616">c_conforms_to( other : C_PRIMITIVE_OBJECT [1], rmcc : FUNCTION&lt;Boolean,TUPLE2&lt;String,String&gt;&gt; [1] ) : Boolean [1]</text><ellipse cx="33.88" cy="1164.8995" fill="#84BE84" rx="3" ry="3" style="stroke:#038048;stroke-width:1;"/><text fill="#808080" font-family="sans-serif" font-size="14" font-style="italic" lengthAdjust="spacing" textLength="427.0824" x="42.88" y="1168.7615">c_value_conforms_to( other : C_PRIMITIVE_OBJECT [1] ) : Boolean [1]</text><ellipse cx="33.88" cy="1181.6995" fill="#84BE84" rx="3" ry="3" style="stroke:#038048;stroke-width:1;"/><text fill="#808080" font-family="sans-serif" font-size="14" lengthAdjust="spacing" textLength="391.6766" x="42.88" y="1185.5614">c_congruent_to( other : C_PRIMITIVE_OBJECT [1] ) : Boolean [1]</text><ellipse cx="33.88" cy="1198.4994" fill="#84BE84" rx="3" ry="3" style="stroke:#038048;stroke-width:1;"/><text fill="#808080" font-family="sans-serif" font-size="14" font-style="italic" lengthAdjust="spacing" textLength="431.6604" x="42.88" y="1202.3614">c_value_congruent_to( other : C_PRIMITIVE_OBJECT [1] ) : Boolean [1]</text></g><!--class C_DEFINED_OBJECT--><g class="entity" data-entity="C_DEFINED_OBJECT" data-source-line="37" data-uid="ent0006" id="entity_C_DEFINED_OBJECT"><rect fill="#F5F5F5" height="131.9996" rx="2.5" ry="2.5" style="stroke:#808080;stroke-width:1;stroke-dasharray:1,3;" width="288.5269" x="259.87" y="818.2"/><ellipse cx="334.0977" cy="834.2" fill="#A9DCDF" rx="11" ry="11" style="stroke:#181818;stroke-width:1;"/><path d="M328.6133,839.7 L330.6446,839.7 L334.6915,828.3562 L333.7852,828.3562 L337.6133,839.7 L339.754,839.7 L335.4258,827.3719 L333.2071,827.3719 L328.6133,839.7 Z M330.9415,836.2 L337.379,836.2 L337.379,834.45 L330.9415,834.45 L330.9415,836.2 Z " fill="#000000"/><text fill="#808080" font-family="sans-serif" font-size="14" font-style="italic" lengthAdjust="spacing" textLength="131.5715" x="354.5977" y="839.562">C_DEFINED_OBJECT</text><line style="stroke:#808080;stroke-width:1;stroke-dasharray:1,3;" x1="260.87" x2="547.3969" y1="850.2" y2="850.2"/><ellipse cx="270.87" cy="864.1" fill="none" rx="3" ry="3" style="stroke:#038048;stroke-width:1;"/><text fill="#808080" font-family="sans-serif" font-size="14" lengthAdjust="spacing" textLength="151.7734" x="279.87" y="867.9619">default_value : Any [0..1]</text><line style="stroke:#808080;stroke-width:1;stroke-dasharray:1,3;" x1="260.87" x2="547.3969" y1="874.9999" y2="874.9999"/><ellipse cx="270.87" cy="888.8999" fill="#84BE84" rx="3" ry="3" style="stroke:#038048;stroke-width:1;"/><text fill="#808080" font-family="sans-serif" font-size="14" font-style="italic" lengthAdjust="spacing" textLength="166.1093" x="279.87" y="892.7619">any_allowed() : Boolean [1]</text><ellipse cx="270.87" cy="905.6998" fill="#84BE84" rx="3" ry="3" style="stroke:#038048;stroke-width:1;"/><text fill="#808080" font-family="sans-serif" font-size="14" font-style="italic" lengthAdjust="spacing" textLength="262.5269" x="279.87" y="909.5618">valid_value( a_value : Any [1] ) : Boolean [1]</text><ellipse cx="270.87" cy="922.4997" fill="#84BE84" rx="3" ry="3" style="stroke:#038048;stroke-width:1;"/><text fill="#808080" font-family="sans-serif" font-size="14" font-style="italic" lengthAdjust="spacing" textLength="161.7414" x="279.87" y="926.3617">prototype_value() : Any [1]</text><ellipse cx="270.87" cy="939.2997" fill="#84BE84" rx="3" ry="3" style="stroke:#038048;stroke-width:1;"/><text fill="#808080" font-family="sans-serif" font-size="14" lengthAdjust="spacing" textLength="200.7032" x="279.87" y="943.1616">has_default_value() : Boolean [1]</text></g><!--class C_OBJECT--><g class="entity" data-entity="C_OBJECT" data-source-line="45" data-uid="ent0007" id="entity_C_OBJECT"><rect fill="#F5F5F5" height="249.5991" rx="2.5" ry="2.5" style="stroke:#808080;stroke-width:1;stroke-dasharray:1,3;" width="794.2606" x="7" y="508.6"/><ellipse cx="366.7844" cy="524.6" fill="#A9DCDF" rx="11" ry="11" style="stroke:#181818;stroke-width:1;"/><path d="M361.3001,530.1 L363.3313,530.1 L367.3782,518.7562 L366.4719,518.7562 L370.3001,530.1 L372.4407,530.1 L368.1126,517.7719 L365.8938,517.7719 L361.3001,530.1 Z M363.6282,526.6 L370.0657,526.6 L370.0657,524.85 L363.6282,524.85 L363.6282,526.6 Z " fill="#000000"/><text fill="#808080" font-family="sans-serif" font-size="14" font-style="italic" lengthAdjust="spacing" textLength="66.1917" x="387.2844" y="529.962">C_OBJECT</text><line style="stroke:#808080;stroke-width:1;stroke-dasharray:1,3;" x1="8" x2="800.2606" y1="540.6" y2="540.6"/><ellipse cx="18" cy="554.5" fill="none" rx="3" ry="3" style="stroke:#038048;stroke-width:1;"/><text fill="#808080" font-family="sans-serif" font-size="14" lengthAdjust="spacing" textLength="159.7254" x="27" y="558.3619">rm_type_name : String [1]</text><ellipse cx="18" cy="571.2999" fill="none" rx="3" ry="3" style="stroke:#038048;stroke-width:1;"/><text fill="#808080" font-family="sans-serif" font-size="14" lengthAdjust="spacing" textLength="242.6471" x="27" y="575.1619">occurrences : Multiplicity_interval [0..1]</text><ellipse cx="18" cy="588.0998" fill="none" rx="3" ry="3" style="stroke:#038048;stroke-width:1;"/><text fill="#808080" font-family="sans-serif" font-size="14" lengthAdjust="spacing" textLength="115.6535" x="27" y="591.9618">node_id : String [1]</text><ellipse cx="18" cy="604.8997" fill="none" rx="3" ry="3" style="stroke:#038048;stroke-width:1;"/><text fill="#808080" font-family="sans-serif" font-size="14" lengthAdjust="spacing" textLength="182.5033" x="27" y="608.7617">is_deprecated : Boolean [0..1]</text><ellipse cx="18" cy="621.6997" fill="none" rx="3" ry="3" style="stroke:#038048;stroke-width:1;"/><text fill="#808080" font-family="sans-serif" font-size="14" lengthAdjust="spacing" textLength="231.1111" x="27" y="625.5616">sibling_order : SIBLING_ORDER [0..1]</text><line style="stroke:#808080;stroke-width:1;stroke-dasharray:1,3;" x1="8" x2="800.2606" y1="632.5996" y2="632.5996"/><ellipse cx="18" cy="646.4996" fill="#84BE84" rx="3" ry="3" style="stroke:#038048;stroke-width:1;"/><text fill="#808080" font-family="sans-serif" font-size="14" lengthAdjust="spacing" textLength="209.5092" x="27" y="650.3616">specialisation_depth() : Integer [1]</text><ellipse cx="18" cy="663.2995" fill="#84BE84" rx="3" ry="3" style="stroke:#038048;stroke-width:1;"/><text fill="#808080" font-family="sans-serif" font-size="14" lengthAdjust="spacing" textLength="295.7629" x="27" y="667.1615">effective_occurrences() : Multiplicity_interval [1]</text><ellipse cx="18" cy="680.0995" fill="#84BE84" rx="3" ry="3" style="stroke:#038048;stroke-width:1;"/><text fill="#808080" font-family="sans-serif" font-size="14" lengthAdjust="spacing" textLength="768.2606" x="27" y="683.9614">c_conforms_to( other : ARCHETYPE_CONSTRAINT [1], rmcc : FUNCTION&lt;Boolean,TUPLE2&lt;String,String&gt;&gt; [1] ) : Boolean [1]</text><ellipse cx="18" cy="696.8994" fill="#84BE84" rx="3" ry="3" style="stroke:#038048;stroke-width:1;"/><text fill="#808080" font-family="sans-serif" font-size="14" lengthAdjust="spacing" textLength="423.4283" x="27" y="700.7614">c_congruent_to( other : ARCHETYPE_CONSTRAINT [1] ) : Boolean [1]</text><ellipse cx="18" cy="713.6993" fill="#84BE84" rx="3" ry="3" style="stroke:#038048;stroke-width:1;"/><text fill="#808080" font-family="sans-serif" font-size="14" lengthAdjust="spacing" textLength="383.9766" x="27" y="717.5613">occurrences_conforms_to( other : C_OBJECT [1] ) : Boolean [1]</text><ellipse cx="18" cy="730.4992" fill="#84BE84" rx="3" ry="3" style="stroke:#038048;stroke-width:1;"/><text fill="#808080" font-family="sans-serif" font-size="14" lengthAdjust="spacing" textLength="358.5107" x="27" y="734.3612">node_id_conforms_to( other : C_OBJECT [1] ) : Boolean [1]</text><ellipse cx="18" cy="747.2992" fill="#84BE84" rx="3" ry="3" style="stroke:#038048;stroke-width:1;"/><text fill="#808080" font-family="sans-serif" font-size="14" lengthAdjust="spacing" textLength="169.4413" x="27" y="751.1611">is_prohibited() : Boolean [1]</text></g><!--class ARCHETYPE_CONSTRAINT--><g class="entity" data-entity="ARCHETYPE_CONSTRAINT" data-source-line="60" data-uid="ent0008" id="entity_ARCHETYPE_CONSTRAINT"><rect fill="#F5F5F5" height="215.9993" rx="2.5" ry="2.5" style="stroke:#808080;stroke-width:1;stroke-dasharray:1,3;" width="794.2606" x="7" y="232.6"/><ellipse cx="315.0477" cy="248.6" fill="#A9DCDF" rx="11" ry="11" style="stroke:#181818;stroke-width:1;"/><path d="M309.5633,254.1 L311.5945,254.1 L315.6414,242.7562 L314.7352,242.7562 L318.5633,254.1 L320.7039,254.1 L316.3758,241.7719 L314.157,241.7719 L309.5633,254.1 Z M311.8914,250.6 L318.3289,250.6 L318.3289,248.85 L311.8914,248.85 L311.8914,250.6 Z " fill="#000000"/><text fill="#808080" font-family="sans-serif" font-size="14" font-style="italic" lengthAdjust="spacing" textLength="169.6653" x="335.5477" y="253.962">ARCHETYPE_CONSTRAINT</text><line style="stroke:#808080;stroke-width:1;stroke-dasharray:1,3;" x1="8" x2="800.2606" y1="264.6" y2="264.6"/><ellipse cx="18" cy="278.5" fill="none" rx="3" ry="3" style="stroke:#038048;stroke-width:1;"/><text fill="#808080" font-family="sans-serif" font-size="14" lengthAdjust="spacing" textLength="254.799" x="27" y="282.3619">parent : ARCHETYPE_CONSTRAINT [0..1]</text><ellipse cx="18" cy="295.2999" fill="none" rx="3" ry="3" style="stroke:#038048;stroke-width:1;"/><text fill="#808080" font-family="sans-serif" font-size="14" lengthAdjust="spacing" textLength="238.3071" x="27" y="299.1619">soc_parent : C_SECOND_ORDER [0..1]</text><line style="stroke:#808080;stroke-width:1;stroke-dasharray:1,3;" x1="8" x2="800.2606" y1="306.1999" y2="306.1999"/><ellipse cx="18" cy="320.0998" fill="#84BE84" rx="3" ry="3" style="stroke:#038048;stroke-width:1;"/><text fill="#808080" font-family="sans-serif" font-size="14" font-style="italic" lengthAdjust="spacing" textLength="169.4413" x="27" y="323.9618">is_prohibited() : Boolean [1]</text><ellipse cx="18" cy="336.8997" fill="#84BE84" rx="3" ry="3" style="stroke:#038048;stroke-width:1;"/><text fill="#808080" font-family="sans-serif" font-size="14" lengthAdjust="spacing" textLength="259.279" x="27" y="340.7617">has_path( a_path : String [1] ) : Boolean [1]</text><ellipse cx="18" cy="353.6997" fill="#84BE84" rx="3" ry="3" style="stroke:#038048;stroke-width:1;"/><text fill="#808080" font-family="sans-serif" font-size="14" lengthAdjust="spacing" textLength="102.5636" x="27" y="357.5616">path() : String [1]</text><ellipse cx="18" cy="370.4996" fill="#84BE84" rx="3" ry="3" style="stroke:#038048;stroke-width:1;"/><text fill="#808080" font-family="sans-serif" font-size="14" font-style="italic" lengthAdjust="spacing" textLength="768.2606" x="27" y="374.3616">c_conforms_to( other : ARCHETYPE_CONSTRAINT [1], rmcc : FUNCTION&lt;Boolean,TUPLE2&lt;String,String&gt;&gt; [1] ) : Boolean [1]</text><ellipse cx="18" cy="387.2995" fill="#84BE84" rx="3" ry="3" style="stroke:#038048;stroke-width:1;"/><text fill="#808080" font-family="sans-serif" font-size="14" font-style="italic" lengthAdjust="spacing" textLength="423.4283" x="27" y="391.1615">c_congruent_to( other : ARCHETYPE_CONSTRAINT [1] ) : Boolean [1]</text><ellipse cx="18" cy="404.0995" fill="#84BE84" rx="3" ry="3" style="stroke:#038048;stroke-width:1;"/><text fill="#808080" font-family="sans-serif" font-size="14" lengthAdjust="spacing" textLength="270.311" x="27" y="407.9614">is_second_order_constrained() : Boolean [1]</text><ellipse cx="18" cy="420.8994" fill="#84BE84" rx="3" ry="3" style="stroke:#038048;stroke-width:1;"/><text fill="#808080" font-family="sans-serif" font-size="14" lengthAdjust="spacing" textLength="131.2075" x="27" y="424.7614">is_root() : Boolean [1]</text><ellipse cx="18" cy="437.6993" fill="#84BE84" rx="3" ry="3" style="stroke:#038048;stroke-width:1;"/><text fill="#808080" font-family="sans-serif" font-size="14" lengthAdjust="spacing" textLength="128.2115" x="27" y="441.5613">is_leaf() : Boolean [1]</text></g><!--class ADL_CODE_DEFINITIONS--><g class="entity" data-entity="ADL_CODE_DEFINITIONS" data-source-line="73" data-uid="ent0009" id="entity_ADL_CODE_DEFINITIONS"><rect fill="#F5F5F5" height="165.5995" rx="2.5" ry="2.5" style="stroke:#808080;stroke-width:1;stroke-dasharray:1,3;" width="547.7921" x="130.23" y="7"/><ellipse cx="318.8094" cy="23" fill="#ADD1B2" rx="11" ry="11" style="stroke:#181818;stroke-width:1;"/><path d="M318.8094,29.4219 C319.9813,29.4219 321.2156,29.1563 322.5906,28.5469 L322.1063,27.0313 C321.0125,27.4531 319.9969,27.6406 319.1375,27.6406 C316.4188,27.6406 314.7,25.7969 314.7,22.8906 C314.7,20.1406 316.2625,18.5469 318.9969,18.5469 C319.9188,18.5469 320.9344,18.7344 322.075,19.1563 L322.6531,17.6406 C321.5594,17.0625 320.2625,16.7656 319.075,16.7656 C315.3094,16.7656 312.7313,19.4063 312.7313,23.2188 C312.7313,26.8906 315.2156,29.4219 318.8094,29.4219 Z " fill="#000000"/><text fill="#808080" font-family="sans-serif" font-size="14" lengthAdjust="spacing" textLength="162.1334" x="339.3094" y="28.362">ADL_CODE_DEFINITIONS</text><line style="stroke:#808080;stroke-width:1;stroke-dasharray:1,3;" x1="131.23" x2="677.0221" y1="39" y2="39"/><line style="stroke:#808080;stroke-width:1;stroke-dasharray:1,3;" x1="131.23" x2="677.0221" y1="47" y2="47"/><ellipse cx="141.23" cy="60.9" fill="#84BE84" rx="3" ry="3" style="stroke:#038048;stroke-width:1;"/><text fill="#808080" font-family="sans-serif" font-size="14" lengthAdjust="spacing" textLength="521.7921" x="150.23" y="64.7619">codes_conformant( a_child_code : String [1], a_parent_code : String [1] ) : Boolean [1]</text><ellipse cx="141.23" cy="77.6999" fill="#84BE84" rx="3" ry="3" style="stroke:#038048;stroke-width:1;"/><text fill="#808080" font-family="sans-serif" font-size="14" lengthAdjust="spacing" textLength="277.0449" x="150.23" y="81.5619">is_adl_code( a_code : String [1] ) : Boolean [1]</text><ellipse cx="141.23" cy="94.4998" fill="#84BE84" rx="3" ry="3" style="stroke:#038048;stroke-width:1;"/><text fill="#808080" font-family="sans-serif" font-size="14" lengthAdjust="spacing" textLength="269.429" x="150.23" y="98.3618">is_id_code( a_code : String [1] ) : Boolean [1]</text><ellipse cx="141.23" cy="111.2997" fill="#84BE84" rx="3" ry="3" style="stroke:#038048;stroke-width:1;"/><text fill="#808080" font-family="sans-serif" font-size="14" lengthAdjust="spacing" textLength="290.9889" x="150.23" y="115.1617">is_value_code( a_code : String [1] ) : Boolean [1]</text><ellipse cx="141.23" cy="128.0997" fill="#84BE84" rx="3" ry="3" style="stroke:#038048;stroke-width:1;"/><text fill="#808080" font-family="sans-serif" font-size="14" lengthAdjust="spacing" textLength="316.9308" x="150.23" y="131.9616">is_value_set_code( a_code : String [1] ) : Boolean [1]</text><ellipse cx="141.23" cy="144.8996" fill="#84BE84" rx="3" ry="3" style="stroke:#038048;stroke-width:1;"/><text fill="#808080" font-family="sans-serif" font-size="14" lengthAdjust="spacing" textLength="317.5608" x="150.23" y="148.7616">is_redefined_code( a_code : String [1] ) : Boolean [1]</text><ellipse cx="141.23" cy="161.6995" fill="#84BE84" rx="3" ry="3" style="stroke:#038048;stroke-width:1;"/><text fill="#808080" font-family="sans-serif" font-size="14" lengthAdjust="spacing" textLength="454.3962" x="150.23" y="165.5615">code_exists_at_level( a-code : String [1], a_level : Integer [1] ) : Boolean [1]</text></g><!--reverse link ADL_CODE_DEFINITIONS to ARCHETYPE_CONSTRAINT--><g class="link" data-entity-1="ADL_CODE_DEFINITIONS" data-entity-2="ARCHETYPE_CONSTRAINT" data-source-line="83" data-uid="lnk10" id="link_ADL_CODE_DEFINITIONS_ARCHETYPE_CONSTRAINT"><path codeLine="83" d="M404.13,190.96 C404.13,209.93 404.13,212.38 404.13,232.24" fill="none" id="ADL_CODE_DEFINITIONS-backto-ARCHETYPE_CONSTRAINT" style="stroke:#181818;stroke-width:1;"/><polygon fill="none" points="404.13,172.96,398.13,190.96,410.13,190.96,404.13,172.96" style="stroke:#181818;stroke-width:1;"/></g><!--reverse link ARCHETYPE_CONSTRAINT to C_OBJECT--><g class="link" data-entity-1="ARCHETYPE_CONSTRAINT" data-entity-2="C_OBJECT" data-source-line="85" data-uid="lnk11" id="link_ARCHETYPE_CONSTRAINT_C_OBJECT"><path codeLine="85" d="M404.13,467.06 C404.13,486.31 404.13,488.52 404.13,508.2" fill="none" id="ARCHETYPE_CONSTRAINT-backto-C_OBJECT" style="stroke:#181818;stroke-width:1;"/><polygon fill="none" points="404.13,449.06,398.13,467.06,410.13,467.06,404.13,449.06" style="stroke:#181818;stroke-width:1;"/></g><!--reverse link C_OBJECT to C_DEFINED_OBJECT--><g class="link" data-entity-1="C_OBJECT" data-entity-2="C_DEFINED_OBJECT" data-source-line="87" data-uid="lnk12" id="link_C_OBJECT_C_DEFINED_OBJECT"><path codeLine="87" d="M404.13,776.44 C404.13,797.01 404.13,799.59 404.13,817.94" fill="none" id="C_OBJECT-backto-C_DEFINED_OBJECT" style="stroke:#181818;stroke-width:1;"/><polygon fill="none" points="404.13,758.44,398.13,776.44,410.13,776.44,404.13,758.44" style="stroke:#181818;stroke-width:1;"/></g><!--reverse link C_DEFINED_OBJECT to C_PRIMITIVE_OBJECT--><g class="link" data-entity-1="C_DEFINED_OBJECT" data-entity-2="C_PRIMITIVE_OBJECT" data-source-line="89" data-uid="lnk13" id="link_C_DEFINED_OBJECT_C_PRIMITIVE_OBJECT"><path codeLine="89" d="M404.13,968.48 C404.13,987.04 404.13,989.68 404.13,1009.77" fill="none" id="C_DEFINED_OBJECT-backto-C_PRIMITIVE_OBJECT" style="stroke:#181818;stroke-width:1;"/><polygon fill="none" points="404.13,950.48,398.13,968.48,410.13,968.48,404.13,950.48" style="stroke:#181818;stroke-width:1;"/></g><!--reverse link C_PRIMITIVE_OBJECT to C_ORDERED--><g class="link" data-entity-1="C_PRIMITIVE_OBJECT" data-entity-2="C_ORDERED" data-source-line="91" data-uid="lnk14" id="link_C_PRIMITIVE_OBJECT_C_ORDERED"><path codeLine="91" d="M404.13,1227.9 C404.13,1248.19 404.13,1250.9 404.13,1269.09" fill="none" id="C_PRIMITIVE_OBJECT-backto-C_ORDERED" style="stroke:#181818;stroke-width:1;"/><polygon fill="none" points="404.13,1209.9,398.13,1227.9,410.13,1227.9,404.13,1209.9" style="stroke:#181818;stroke-width:1;"/></g><!--reverse link C_ORDERED to C_TEMPORAL--><g class="link" data-entity-1="C_ORDERED" data-entity-2="C_TEMPORAL" data-source-line="93" data-uid="lnk15" id="link_C_ORDERED_C_TEMPORAL"><path codeLine="93" d="M404.13,1403.01 C404.13,1421.59 404.13,1424.49 404.13,1444.13" fill="none" id="C_ORDERED-backto-C_TEMPORAL" style="stroke:#181818;stroke-width:1;"/><polygon fill="none" points="404.13,1385.01,398.13,1403.01,410.13,1403.01,404.13,1385.01" style="stroke:#181818;stroke-width:1;"/></g><!--reverse link C_TEMPORAL to C_DATE--><g class="link" data-entity-1="C_TEMPORAL" data-entity-2="C_DATE" data-source-line="95" data-uid="lnk16" id="link_C_TEMPORAL_C_DATE"><path codeLine="95" d="M404.13,1611.73 C404.13,1631.45 404.13,1634.45 404.13,1653.1" fill="none" id="C_TEMPORAL-backto-C_DATE" style="stroke:#181818;stroke-width:1;"/><polygon fill="none" points="404.13,1593.73,398.13,1611.73,410.13,1611.73,404.13,1593.73" style="stroke:#181818;stroke-width:1;"/></g></g></svg>
