<svg xmlns="http://www.w3.org/2000/svg" xmlns:xlink="http://www.w3.org/1999/xlink" contentStyleType="text/css" data-diagram-type="CLASS" height="287px" preserveAspectRatio="none" style="width:763px;height:287px;background:#FFFFFF;" version="1.1" viewBox="0 0 763 287" width="763px" zoomAndPan="magnify"><defs/><g><!--class C_ATTRIBUTE_TUPLE--><g class="entity" data-entity="C_ATTRIBUTE_TUPLE" data-source-line="2" data-uid="ent0002" id="entity_C_ATTRIBUTE_TUPLE"><rect fill="#F1F1F1" height="115.1997" rx="2.5" ry="2.5" style="stroke:#181818;stroke-width:0.5;" width="404.9646" x="179.42" y="165.4"/><ellipse cx="310.0466" cy="181.4" fill="#ADD1B2" rx="11" ry="11" style="stroke:#181818;stroke-width:1;"/><path d="M310.0466,187.8219 C311.2185,187.8219 312.4528,187.5563 313.8278,186.9469 L313.3435,185.4313 C312.2497,185.8531 311.2341,186.0406 310.3747,186.0406 C307.656,186.0406 305.9372,184.1969 305.9372,181.2906 C305.9372,178.5406 307.4997,176.9469 310.2341,176.9469 C311.156,176.9469 312.1716,177.1344 313.3122,177.5563 L313.8903,176.0406 C312.7966,175.4625 311.4997,175.1656 310.3122,175.1656 C306.5466,175.1656 303.9685,177.8063 303.9685,181.6188 C303.9685,185.2906 306.4528,187.8219 310.0466,187.8219 Z " fill="#000000"/><text fill="#000000" font-family="sans-serif" font-size="14" lengthAdjust="spacing" textLength="135.2114" x="330.5466" y="186.762">C_ATTRIBUTE_TUPLE</text><line style="stroke:#181818;stroke-width:0.5;" x1="180.42" x2="583.3846" y1="197.4" y2="197.4"/><ellipse cx="190.42" cy="211.3" fill="none" rx="3" ry="3" style="stroke:#038048;stroke-width:1;"/><text fill="#000000" font-family="sans-serif" font-size="14" lengthAdjust="spacing" textLength="234.7371" x="199.42" y="215.1619">tuples : List&lt;C_PRIMITIVE_TUPLE&gt; [*]</text><ellipse cx="190.42" cy="228.0999" fill="none" rx="3" ry="3" style="stroke:#038048;stroke-width:1;"/><text fill="#000000" font-family="sans-serif" font-size="14" lengthAdjust="spacing" textLength="214.2271" x="199.42" y="231.9619">members : List&lt;C_ATTRIBUTE&gt; [*]</text><line style="stroke:#181818;stroke-width:0.5;" x1="180.42" x2="583.3846" y1="238.9999" y2="238.9999"/><ellipse cx="190.42" cy="252.8998" fill="#84BE84" rx="3" ry="3" style="stroke:#038048;stroke-width:1;"/><text fill="#000000" font-family="sans-serif" font-size="14" lengthAdjust="spacing" textLength="374.3866" x="199.42" y="256.7618">c_conforms_to( other : C_SECOND_ORDER [1] ) : Boolean [1]</text><ellipse cx="190.42" cy="269.6997" fill="#84BE84" rx="3" ry="3" style="stroke:#038048;stroke-width:1;"/><text fill="#000000" font-family="sans-serif" font-size="14" lengthAdjust="spacing" textLength="378.9646" x="199.42" y="273.5617">c_congruent_to( other : C_SECOND_ORDER [1] ) : Boolean [1]</text></g><!--class C_SECOND_ORDER--><g class="entity" data-entity="C_SECOND_ORDER" data-source-line="9" data-uid="ent0003" id="entity_C_SECOND_ORDER"><rect fill="#F5F5F5" height="98.3998" rx="2.5" ry="2.5" style="stroke:#808080;stroke-width:1;stroke-dasharray:1,3;" width="749.7969" x="7" y="7"/><ellipse cx="315.0477" cy="23" fill="#A9DCDF" rx="11" ry="11" style="stroke:#181818;stroke-width:1;"/><path d="M309.5633,28.5 L311.5946,28.5 L315.6414,17.1563 L314.7352,17.1563 L318.5633,28.5 L320.7039,28.5 L316.3758,16.1719 L314.1571,16.1719 L309.5633,28.5 Z M311.8914,25 L318.3289,25 L318.3289,23.25 L311.8914,23.25 L311.8914,25 Z " fill="#000000"/><text fill="#808080" font-family="sans-serif" font-size="14" font-style="italic" lengthAdjust="spacing" textLength="125.2015" x="335.5477" y="28.362">C_SECOND_ORDER</text><line style="stroke:#808080;stroke-width:1;stroke-dasharray:1,3;" x1="8" x2="755.7969" y1="39" y2="39"/><ellipse cx="18" cy="52.9" fill="none" rx="3" ry="3" style="stroke:#038048;stroke-width:1;"/><text fill="#808080" font-family="sans-serif" font-size="14" lengthAdjust="spacing" textLength="296.5187" x="27" y="56.7619">members : List&lt;ARCHETYPE_CONSTRAINT&gt; [*]</text><line style="stroke:#808080;stroke-width:1;stroke-dasharray:1,3;" x1="8" x2="755.7969" y1="63.7999" y2="63.7999"/><ellipse cx="18" cy="77.6999" fill="#84BE84" rx="3" ry="3" style="stroke:#038048;stroke-width:1;"/><text fill="#808080" font-family="sans-serif" font-size="14" font-style="italic" lengthAdjust="spacing" textLength="723.7969" x="27" y="81.5619">c_conforms_to( other : C_SECOND_ORDER [1], rmcc : FUNCTION&lt;Boolean,TUPLE2&lt;String,String&gt;&gt; [1] ) : Boolean [1]</text><ellipse cx="18" cy="94.4998" fill="#84BE84" rx="3" ry="3" style="stroke:#038048;stroke-width:1;"/><text fill="#808080" font-family="sans-serif" font-size="14" font-style="italic" lengthAdjust="spacing" textLength="378.9646" x="27" y="98.3618">c_congruent_to( other : C_SECOND_ORDER [1] ) : Boolean [1]</text></g><!--reverse link C_SECOND_ORDER to C_ATTRIBUTE_TUPLE--><g class="link" data-entity-1="C_SECOND_ORDER" data-entity-2="C_ATTRIBUTE_TUPLE" data-source-line="15" data-uid="lnk4" id="link_C_SECOND_ORDER_C_ATTRIBUTE_TUPLE"><path codeLine="15" d="M381.9,123.75 C381.9,142.36 381.9,145.76 381.9,165.08" fill="none" id="C_SECOND_ORDER-backto-C_ATTRIBUTE_TUPLE" style="stroke:#181818;stroke-width:1;"/><polygon fill="none" points="381.9,105.75,375.9,123.75,387.9,123.75,381.9,105.75" style="stroke:#181818;stroke-width:1;"/></g></g></svg>
