<svg xmlns="http://www.w3.org/2000/svg" xmlns:xlink="http://www.w3.org/1999/xlink" contentStyleType="text/css" data-diagram-type="CLASS" height="1240px" preserveAspectRatio="none" style="width:808px;height:1240px;background:#FFFFFF;" version="1.1" viewBox="0 0 808 1240" width="808px" zoomAndPan="magnify"><defs/><g><!--class C_ARCHETYPE_ROOT--><g class="entity" data-entity="C_ARCHETYPE_ROOT" data-source-line="2" data-uid="ent0002" id="entity_C_ARCHETYPE_ROOT"><rect fill="#F1F1F1" height="64.7999" rx="2.5" ry="2.5" style="stroke:#181818;stroke-width:0.5;" width="177.8854" x="315.19" y="1168.6"/><ellipse cx="333.6766" cy="1184.6" fill="#ADD1B2" rx="11" ry="11" style="stroke:#181818;stroke-width:1;"/><path d="M333.6766,1191.0219 C334.8485,1191.0219 336.0829,1190.7563 337.4579,1190.1469 L336.9735,1188.6313 C335.8797,1189.0531 334.8641,1189.2406 334.0047,1189.2406 C331.286,1189.2406 329.5672,1187.3969 329.5672,1184.4906 C329.5672,1181.7406 331.1297,1180.1469 333.8641,1180.1469 C334.786,1180.1469 335.8016,1180.3344 336.9422,1180.7563 L337.5204,1179.2406 C336.4266,1178.6625 335.1297,1178.3656 333.9422,1178.3656 C330.1766,1178.3656 327.5985,1181.0063 327.5985,1184.8188 C327.5985,1188.4906 330.0829,1191.0219 333.6766,1191.0219 Z " fill="#000000"/><text fill="#000000" font-family="sans-serif" font-size="14" lengthAdjust="spacing" textLength="138.1374" x="348.4514" y="1189.962">C_ARCHETYPE_ROOT</text><line style="stroke:#181818;stroke-width:0.5;" x1="316.19" x2="492.0754" y1="1200.6" y2="1200.6"/><ellipse cx="326.19" cy="1214.5" fill="none" rx="3" ry="3" style="stroke:#038048;stroke-width:1;"/><text fill="#000000" font-family="sans-serif" font-size="14" lengthAdjust="spacing" textLength="151.8854" x="335.19" y="1218.3619">archetype_ref : String [1]</text><line style="stroke:#181818;stroke-width:0.5;" x1="316.19" x2="492.0754" y1="1225.3999" y2="1225.3999"/></g><!--class C_COMPLEX_OBJECT--><g class="entity" data-entity="C_COMPLEX_OBJECT" data-source-line="6" data-uid="ent0003" id="entity_C_COMPLEX_OBJECT"><rect fill="#F5F5F5" height="98.3998" rx="2.5" ry="2.5" style="stroke:#808080;stroke-width:1;stroke-dasharray:1,3;" width="328.5947" x="239.83" y="1010.2"/><ellipse cx="331.5016" cy="1026.2" fill="#ADD1B2" rx="11" ry="11" style="stroke:#181818;stroke-width:1;"/><path d="M331.5016,1032.6219 C332.6735,1032.6219 333.9079,1032.3563 335.2829,1031.7469 L334.7985,1030.2313 C333.7048,1030.6531 332.6891,1030.8406 331.8298,1030.8406 C329.111,1030.8406 327.3923,1028.9969 327.3923,1026.0906 C327.3923,1023.3406 328.9548,1021.7469 331.6891,1021.7469 C332.611,1021.7469 333.6266,1021.9344 334.7673,1022.3563 L335.3454,1020.8406 C334.2516,1020.2625 332.9548,1019.9656 331.7673,1019.9656 C328.0016,1019.9656 325.4235,1022.6063 325.4235,1026.4188 C325.4235,1030.0906 327.9079,1032.6219 331.5016,1032.6219 Z " fill="#000000"/><text fill="#808080" font-family="sans-serif" font-size="14" lengthAdjust="spacing" textLength="136.7514" x="352.0016" y="1031.562">C_COMPLEX_OBJECT</text><line style="stroke:#808080;stroke-width:1;stroke-dasharray:1,3;" x1="240.83" x2="567.4247" y1="1042.2" y2="1042.2"/><ellipse cx="250.83" cy="1056.1" fill="none" rx="3" ry="3" style="stroke:#038048;stroke-width:1;"/><text fill="#808080" font-family="sans-serif" font-size="14" lengthAdjust="spacing" textLength="215.6131" x="259.83" y="1059.9619">attributes : List&lt;C_ATTRIBUTE&gt; [*]</text><ellipse cx="250.83" cy="1072.8999" fill="none" rx="3" ry="3" style="stroke:#038048;stroke-width:1;"/><text fill="#808080" font-family="sans-serif" font-size="14" lengthAdjust="spacing" textLength="302.5947" x="259.83" y="1076.7619">attribute_tuples : List&lt;C_ATTRIBUTE_TUPLE&gt; [*]</text><line style="stroke:#808080;stroke-width:1;stroke-dasharray:1,3;" x1="240.83" x2="567.4247" y1="1083.7999" y2="1083.7999"/><ellipse cx="250.83" cy="1097.6998" fill="#84BE84" rx="3" ry="3" style="stroke:#038048;stroke-width:1;"/><text fill="#808080" font-family="sans-serif" font-size="14" lengthAdjust="spacing" textLength="166.1093" x="259.83" y="1101.5618">any_allowed() : Boolean [1]</text></g><!--class C_DEFINED_OBJECT--><g class="entity" data-entity="C_DEFINED_OBJECT" data-source-line="12" data-uid="ent0004" id="entity_C_DEFINED_OBJECT"><rect fill="#F5F5F5" height="131.9996" rx="2.5" ry="2.5" style="stroke:#808080;stroke-width:1;stroke-dasharray:1,3;" width="288.5269" x="259.87" y="818.2"/><ellipse cx="334.0977" cy="834.2" fill="#A9DCDF" rx="11" ry="11" style="stroke:#181818;stroke-width:1;"/><path d="M328.6133,839.7 L330.6446,839.7 L334.6915,828.3563 L333.7852,828.3563 L337.6133,839.7 L339.754,839.7 L335.4258,827.3719 L333.2071,827.3719 L328.6133,839.7 Z M330.9415,836.2 L337.379,836.2 L337.379,834.45 L330.9415,834.45 L330.9415,836.2 Z " fill="#000000"/><text fill="#808080" font-family="sans-serif" font-size="14" font-style="italic" lengthAdjust="spacing" textLength="131.5715" x="354.5977" y="839.562">C_DEFINED_OBJECT</text><line style="stroke:#808080;stroke-width:1;stroke-dasharray:1,3;" x1="260.87" x2="547.3969" y1="850.2" y2="850.2"/><ellipse cx="270.87" cy="864.1" fill="none" rx="3" ry="3" style="stroke:#038048;stroke-width:1;"/><text fill="#808080" font-family="sans-serif" font-size="14" lengthAdjust="spacing" textLength="151.7734" x="279.87" y="867.9619">default_value : Any [0..1]</text><line style="stroke:#808080;stroke-width:1;stroke-dasharray:1,3;" x1="260.87" x2="547.3969" y1="874.9999" y2="874.9999"/><ellipse cx="270.87" cy="888.8999" fill="#84BE84" rx="3" ry="3" style="stroke:#038048;stroke-width:1;"/><text fill="#808080" font-family="sans-serif" font-size="14" font-style="italic" lengthAdjust="spacing" textLength="166.1093" x="279.87" y="892.7619">any_allowed() : Boolean [1]</text><ellipse cx="270.87" cy="905.6998" fill="#84BE84" rx="3" ry="3" style="stroke:#038048;stroke-width:1;"/><text fill="#808080" font-family="sans-serif" font-size="14" font-style="italic" lengthAdjust="spacing" textLength="262.5269" x="279.87" y="909.5618">valid_value( a_value : Any [1] ) : Boolean [1]</text><ellipse cx="270.87" cy="922.4997" fill="#84BE84" rx="3" ry="3" style="stroke:#038048;stroke-width:1;"/><text fill="#808080" font-family="sans-serif" font-size="14" font-style="italic" lengthAdjust="spacing" textLength="161.7414" x="279.87" y="926.3617">prototype_value() : Any [1]</text><ellipse cx="270.87" cy="939.2997" fill="#84BE84" rx="3" ry="3" style="stroke:#038048;stroke-width:1;"/><text fill="#808080" font-family="sans-serif" font-size="14" lengthAdjust="spacing" textLength="200.7032" x="279.87" y="943.1616">has_default_value() : Boolean [1]</text></g><!--class C_OBJECT--><g class="entity" data-entity="C_OBJECT" data-source-line="20" data-uid="ent0005" id="entity_C_OBJECT"><rect fill="#F5F5F5" height="249.5991" rx="2.5" ry="2.5" style="stroke:#808080;stroke-width:1;stroke-dasharray:1,3;" width="794.2606" x="7" y="508.6"/><ellipse cx="366.7844" cy="524.6" fill="#A9DCDF" rx="11" ry="11" style="stroke:#181818;stroke-width:1;"/><path d="M361.3001,530.1 L363.3313,530.1 L367.3782,518.7563 L366.4719,518.7563 L370.3001,530.1 L372.4407,530.1 L368.1126,517.7719 L365.8938,517.7719 L361.3001,530.1 Z M363.6282,526.6 L370.0657,526.6 L370.0657,524.85 L363.6282,524.85 L363.6282,526.6 Z " fill="#000000"/><text fill="#808080" font-family="sans-serif" font-size="14" font-style="italic" lengthAdjust="spacing" textLength="66.1917" x="387.2844" y="529.962">C_OBJECT</text><line style="stroke:#808080;stroke-width:1;stroke-dasharray:1,3;" x1="8" x2="800.2606" y1="540.6" y2="540.6"/><ellipse cx="18" cy="554.5" fill="none" rx="3" ry="3" style="stroke:#038048;stroke-width:1;"/><text fill="#808080" font-family="sans-serif" font-size="14" lengthAdjust="spacing" textLength="159.7254" x="27" y="558.3619">rm_type_name : String [1]</text><ellipse cx="18" cy="571.2999" fill="none" rx="3" ry="3" style="stroke:#038048;stroke-width:1;"/><text fill="#808080" font-family="sans-serif" font-size="14" lengthAdjust="spacing" textLength="242.6471" x="27" y="575.1619">occurrences : Multiplicity_interval [0..1]</text><ellipse cx="18" cy="588.0998" fill="none" rx="3" ry="3" style="stroke:#038048;stroke-width:1;"/><text fill="#808080" font-family="sans-serif" font-size="14" lengthAdjust="spacing" textLength="115.6535" x="27" y="591.9618">node_id : String [1]</text><ellipse cx="18" cy="604.8997" fill="none" rx="3" ry="3" style="stroke:#038048;stroke-width:1;"/><text fill="#808080" font-family="sans-serif" font-size="14" lengthAdjust="spacing" textLength="182.5033" x="27" y="608.7617">is_deprecated : Boolean [0..1]</text><ellipse cx="18" cy="621.6997" fill="none" rx="3" ry="3" style="stroke:#038048;stroke-width:1;"/><text fill="#808080" font-family="sans-serif" font-size="14" lengthAdjust="spacing" textLength="231.1111" x="27" y="625.5616">sibling_order : SIBLING_ORDER [0..1]</text><line style="stroke:#808080;stroke-width:1;stroke-dasharray:1,3;" x1="8" x2="800.2606" y1="632.5996" y2="632.5996"/><ellipse cx="18" cy="646.4996" fill="#84BE84" rx="3" ry="3" style="stroke:#038048;stroke-width:1;"/><text fill="#808080" font-family="sans-serif" font-size="14" lengthAdjust="spacing" textLength="209.5092" x="27" y="650.3616">specialisation_depth() : Integer [1]</text><ellipse cx="18" cy="663.2995" fill="#84BE84" rx="3" ry="3" style="stroke:#038048;stroke-width:1;"/><text fill="#808080" font-family="sans-serif" font-size="14" lengthAdjust="spacing" textLength="295.7629" x="27" y="667.1615">effective_occurrences() : Multiplicity_interval [1]</text><ellipse cx="18" cy="680.0995" fill="#84BE84" rx="3" ry="3" style="stroke:#038048;stroke-width:1;"/><text fill="#808080" font-family="sans-serif" font-size="14" lengthAdjust="spacing" textLength="768.2606" x="27" y="683.9614">c_conforms_to( other : ARCHETYPE_CONSTRAINT [1], rmcc : FUNCTION&lt;Boolean,TUPLE2&lt;String,String&gt;&gt; [1] ) : Boolean [1]</text><ellipse cx="18" cy="696.8994" fill="#84BE84" rx="3" ry="3" style="stroke:#038048;stroke-width:1;"/><text fill="#808080" font-family="sans-serif" font-size="14" lengthAdjust="spacing" textLength="423.4283" x="27" y="700.7614">c_congruent_to( other : ARCHETYPE_CONSTRAINT [1] ) : Boolean [1]</text><ellipse cx="18" cy="713.6993" fill="#84BE84" rx="3" ry="3" style="stroke:#038048;stroke-width:1;"/><text fill="#808080" font-family="sans-serif" font-size="14" lengthAdjust="spacing" textLength="383.9766" x="27" y="717.5613">occurrences_conforms_to( other : C_OBJECT [1] ) : Boolean [1]</text><ellipse cx="18" cy="730.4992" fill="#84BE84" rx="3" ry="3" style="stroke:#038048;stroke-width:1;"/><text fill="#808080" font-family="sans-serif" font-size="14" lengthAdjust="spacing" textLength="358.5107" x="27" y="734.3612">node_id_conforms_to( other : C_OBJECT [1] ) : Boolean [1]</text><ellipse cx="18" cy="747.2992" fill="#84BE84" rx="3" ry="3" style="stroke:#038048;stroke-width:1;"/><text fill="#808080" font-family="sans-serif" font-size="14" lengthAdjust="spacing" textLength="169.4413" x="27" y="751.1611">is_prohibited() : Boolean [1]</text></g><!--class ARCHETYPE_CONSTRAINT--><g class="entity" data-entity="ARCHETYPE_CONSTRAINT" data-source-line="35" data-uid="ent0006" id="entity_ARCHETYPE_CONSTRAINT"><rect fill="#F5F5F5" height="215.9993" rx="2.5" ry="2.5" style="stroke:#808080;stroke-width:1;stroke-dasharray:1,3;" width="794.2606" x="7" y="232.6"/><ellipse cx="315.0477" cy="248.6" fill="#A9DCDF" rx="11" ry="11" style="stroke:#181818;stroke-width:1;"/><path d="M309.5633,254.1 L311.5945,254.1 L315.6414,242.7563 L314.7352,242.7563 L318.5633,254.1 L320.7039,254.1 L316.3758,241.7719 L314.157,241.7719 L309.5633,254.1 Z M311.8914,250.6 L318.3289,250.6 L318.3289,248.85 L311.8914,248.85 L311.8914,250.6 Z " fill="#000000"/><text fill="#808080" font-family="sans-serif" font-size="14" font-style="italic" lengthAdjust="spacing" textLength="169.6653" x="335.5477" y="253.962">ARCHETYPE_CONSTRAINT</text><line style="stroke:#808080;stroke-width:1;stroke-dasharray:1,3;" x1="8" x2="800.2606" y1="264.6" y2="264.6"/><ellipse cx="18" cy="278.5" fill="none" rx="3" ry="3" style="stroke:#038048;stroke-width:1;"/><text fill="#808080" font-family="sans-serif" font-size="14" lengthAdjust="spacing" textLength="254.799" x="27" y="282.3619">parent : ARCHETYPE_CONSTRAINT [0..1]</text><ellipse cx="18" cy="295.2999" fill="none" rx="3" ry="3" style="stroke:#038048;stroke-width:1;"/><text fill="#808080" font-family="sans-serif" font-size="14" lengthAdjust="spacing" textLength="238.3071" x="27" y="299.1619">soc_parent : C_SECOND_ORDER [0..1]</text><line style="stroke:#808080;stroke-width:1;stroke-dasharray:1,3;" x1="8" x2="800.2606" y1="306.1999" y2="306.1999"/><ellipse cx="18" cy="320.0998" fill="#84BE84" rx="3" ry="3" style="stroke:#038048;stroke-width:1;"/><text fill="#808080" font-family="sans-serif" font-size="14" font-style="italic" lengthAdjust="spacing" textLength="169.4413" x="27" y="323.9618">is_prohibited() : Boolean [1]</text><ellipse cx="18" cy="336.8997" fill="#84BE84" rx="3" ry="3" style="stroke:#038048;stroke-width:1;"/><text fill="#808080" font-family="sans-serif" font-size="14" lengthAdjust="spacing" textLength="259.279" x="27" y="340.7617">has_path( a_path : String [1] ) : Boolean [1]</text><ellipse cx="18" cy="353.6997" fill="#84BE84" rx="3" ry="3" style="stroke:#038048;stroke-width:1;"/><text fill="#808080" font-family="sans-serif" font-size="14" lengthAdjust="spacing" textLength="102.5636" x="27" y="357.5616">path() : String [1]</text><ellipse cx="18" cy="370.4996" fill="#84BE84" rx="3" ry="3" style="stroke:#038048;stroke-width:1;"/><text fill="#808080" font-family="sans-serif" font-size="14" font-style="italic" lengthAdjust="spacing" textLength="768.2606" x="27" y="374.3616">c_conforms_to( other : ARCHETYPE_CONSTRAINT [1], rmcc : FUNCTION&lt;Boolean,TUPLE2&lt;String,String&gt;&gt; [1] ) : Boolean [1]</text><ellipse cx="18" cy="387.2995" fill="#84BE84" rx="3" ry="3" style="stroke:#038048;stroke-width:1;"/><text fill="#808080" font-family="sans-serif" font-size="14" font-style="italic" lengthAdjust="spacing" textLength="423.4283" x="27" y="391.1615">c_congruent_to( other : ARCHETYPE_CONSTRAINT [1] ) : Boolean [1]</text><ellipse cx="18" cy="404.0995" fill="#84BE84" rx="3" ry="3" style="stroke:#038048;stroke-width:1;"/><text fill="#808080" font-family="sans-serif" font-size="14" lengthAdjust="spacing" textLength="270.311" x="27" y="407.9614">is_second_order_constrained() : Boolean [1]</text><ellipse cx="18" cy="420.8994" fill="#84BE84" rx="3" ry="3" style="stroke:#038048;stroke-width:1;"/><text fill="#808080" font-family="sans-serif" font-size="14" lengthAdjust="spacing" textLength="131.2075" x="27" y="424.7614">is_root() : Boolean [1]</text><ellipse cx="18" cy="437.6993" fill="#84BE84" rx="3" ry="3" style="stroke:#038048;stroke-width:1;"/><text fill="#808080" font-family="sans-serif" font-size="14" lengthAdjust="spacing" textLength="128.2115" x="27" y="441.5613">is_leaf() : Boolean [1]</text></g><!--class ADL_CODE_DEFINITIONS--><g class="entity" data-entity="ADL_CODE_DEFINITIONS" data-source-line="48" data-uid="ent0007" id="entity_ADL_CODE_DEFINITIONS"><rect fill="#F5F5F5" height="165.5995" rx="2.5" ry="2.5" style="stroke:#808080;stroke-width:1;stroke-dasharray:1,3;" width="547.7921" x="130.23" y="7"/><ellipse cx="318.8094" cy="23" fill="#ADD1B2" rx="11" ry="11" style="stroke:#181818;stroke-width:1;"/><path d="M318.8094,29.4219 C319.9813,29.4219 321.2156,29.1563 322.5906,28.5469 L322.1063,27.0313 C321.0125,27.4531 319.9969,27.6406 319.1375,27.6406 C316.4188,27.6406 314.7,25.7969 314.7,22.8906 C314.7,20.1406 316.2625,18.5469 318.9969,18.5469 C319.9188,18.5469 320.9344,18.7344 322.075,19.1563 L322.6531,17.6406 C321.5594,17.0625 320.2625,16.7656 319.075,16.7656 C315.3094,16.7656 312.7313,19.4063 312.7313,23.2188 C312.7313,26.8906 315.2156,29.4219 318.8094,29.4219 Z " fill="#000000"/><text fill="#808080" font-family="sans-serif" font-size="14" lengthAdjust="spacing" textLength="162.1334" x="339.3094" y="28.362">ADL_CODE_DEFINITIONS</text><line style="stroke:#808080;stroke-width:1;stroke-dasharray:1,3;" x1="131.23" x2="677.0221" y1="39" y2="39"/><line style="stroke:#808080;stroke-width:1;stroke-dasharray:1,3;" x1="131.23" x2="677.0221" y1="47" y2="47"/><ellipse cx="141.23" cy="60.9" fill="#84BE84" rx="3" ry="3" style="stroke:#038048;stroke-width:1;"/><text fill="#808080" font-family="sans-serif" font-size="14" lengthAdjust="spacing" textLength="521.7921" x="150.23" y="64.7619">codes_conformant( a_child_code : String [1], a_parent_code : String [1] ) : Boolean [1]</text><ellipse cx="141.23" cy="77.6999" fill="#84BE84" rx="3" ry="3" style="stroke:#038048;stroke-width:1;"/><text fill="#808080" font-family="sans-serif" font-size="14" lengthAdjust="spacing" textLength="277.0449" x="150.23" y="81.5619">is_adl_code( a_code : String [1] ) : Boolean [1]</text><ellipse cx="141.23" cy="94.4998" fill="#84BE84" rx="3" ry="3" style="stroke:#038048;stroke-width:1;"/><text fill="#808080" font-family="sans-serif" font-size="14" lengthAdjust="spacing" textLength="269.429" x="150.23" y="98.3618">is_id_code( a_code : String [1] ) : Boolean [1]</text><ellipse cx="141.23" cy="111.2997" fill="#84BE84" rx="3" ry="3" style="stroke:#038048;stroke-width:1;"/><text fill="#808080" font-family="sans-serif" font-size="14" lengthAdjust="spacing" textLength="290.9889" x="150.23" y="115.1617">is_value_code( a_code : String [1] ) : Boolean [1]</text><ellipse cx="141.23" cy="128.0997" fill="#84BE84" rx="3" ry="3" style="stroke:#038048;stroke-width:1;"/><text fill="#808080" font-family="sans-serif" font-size="14" lengthAdjust="spacing" textLength="316.9308" x="150.23" y="131.9616">is_value_set_code( a_code : String [1] ) : Boolean [1]</text><ellipse cx="141.23" cy="144.8996" fill="#84BE84" rx="3" ry="3" style="stroke:#038048;stroke-width:1;"/><text fill="#808080" font-family="sans-serif" font-size="14" lengthAdjust="spacing" textLength="317.5608" x="150.23" y="148.7616">is_redefined_code( a_code : String [1] ) : Boolean [1]</text><ellipse cx="141.23" cy="161.6995" fill="#84BE84" rx="3" ry="3" style="stroke:#038048;stroke-width:1;"/><text fill="#808080" font-family="sans-serif" font-size="14" lengthAdjust="spacing" textLength="454.3962" x="150.23" y="165.5615">code_exists_at_level( a-code : String [1], a_level : Integer [1] ) : Boolean [1]</text></g><!--reverse link ADL_CODE_DEFINITIONS to ARCHETYPE_CONSTRAINT--><g class="link" data-entity-1="ADL_CODE_DEFINITIONS" data-entity-2="ARCHETYPE_CONSTRAINT" data-source-line="58" data-uid="lnk8" id="link_ADL_CODE_DEFINITIONS_ARCHETYPE_CONSTRAINT"><path codeLine="58" d="M404.13,190.96 C404.13,209.92 404.13,212.38 404.13,232.24" fill="none" id="ADL_CODE_DEFINITIONS-backto-ARCHETYPE_CONSTRAINT" style="stroke:#181818;stroke-width:1;"/><polygon fill="none" points="404.13,172.96,398.13,190.96,410.13,190.96,404.13,172.96" style="stroke:#181818;stroke-width:1;"/></g><!--reverse link ARCHETYPE_CONSTRAINT to C_OBJECT--><g class="link" data-entity-1="ARCHETYPE_CONSTRAINT" data-entity-2="C_OBJECT" data-source-line="60" data-uid="lnk9" id="link_ARCHETYPE_CONSTRAINT_C_OBJECT"><path codeLine="60" d="M404.13,467.06 C404.13,486.31 404.13,488.52 404.13,508.2" fill="none" id="ARCHETYPE_CONSTRAINT-backto-C_OBJECT" style="stroke:#181818;stroke-width:1;"/><polygon fill="none" points="404.13,449.06,398.13,467.06,410.13,467.06,404.13,449.06" style="stroke:#181818;stroke-width:1;"/></g><!--reverse link C_OBJECT to C_DEFINED_OBJECT--><g class="link" data-entity-1="C_OBJECT" data-entity-2="C_DEFINED_OBJECT" data-source-line="62" data-uid="lnk10" id="link_C_OBJECT_C_DEFINED_OBJECT"><path codeLine="62" d="M404.13,776.44 C404.13,797.01 404.13,799.59 404.13,817.94" fill="none" id="C_OBJECT-backto-C_DEFINED_OBJECT" style="stroke:#181818;stroke-width:1;"/><polygon fill="none" points="404.13,758.44,398.13,776.44,410.13,776.44,404.13,758.44" style="stroke:#181818;stroke-width:1;"/></g><!--reverse link C_DEFINED_OBJECT to C_COMPLEX_OBJECT--><g class="link" data-entity-1="C_DEFINED_OBJECT" data-entity-2="C_COMPLEX_OBJECT" data-source-line="64" data-uid="lnk11" id="link_C_DEFINED_OBJECT_C_COMPLEX_OBJECT"><path codeLine="64" d="M404.13,968.68 C404.13,988.32 404.13,991.5 404.13,1009.84" fill="none" id="C_DEFINED_OBJECT-backto-C_COMPLEX_OBJECT" style="stroke:#181818;stroke-width:1;"/><polygon fill="none" points="404.13,950.68,398.13,968.68,410.13,968.68,404.13,950.68" style="stroke:#181818;stroke-width:1;"/></g><!--reverse link C_COMPLEX_OBJECT to C_ARCHETYPE_ROOT--><g class="link" data-entity-1="C_COMPLEX_OBJECT" data-entity-2="C_ARCHETYPE_ROOT" data-source-line="66" data-uid="lnk12" id="link_C_COMPLEX_OBJECT_C_ARCHETYPE_ROOT"><path codeLine="66" d="M404.13,1126.83 C404.13,1146.52 404.13,1150.72 404.13,1168.28" fill="none" id="C_COMPLEX_OBJECT-backto-C_ARCHETYPE_ROOT" style="stroke:#181818;stroke-width:1;"/><polygon fill="none" points="404.13,1108.83,398.13,1126.83,410.13,1126.83,404.13,1108.83" style="stroke:#181818;stroke-width:1;"/></g></g></svg>
