<svg xmlns="http://www.w3.org/2000/svg" xmlns:xlink="http://www.w3.org/1999/xlink" contentStyleType="text/css" data-diagram-type="CLASS" height="678px" preserveAspectRatio="none" style="width:332px;height:678px;background:#FFFFFF;" version="1.1" viewBox="0 0 332 678" width="332px" zoomAndPan="magnify"><defs/><g><!--class P_C_ORDERED--><g class="entity" data-entity="P_C_ORDERED" data-source-line="2" data-uid="ent0002" id="entity_P_C_ORDERED"><rect fill="#F1F1F1" height="64.7999" rx="2.5" ry="2.5" style="stroke:#181818;stroke-width:0.5;" width="240.7872" x="45.68" y="607"/><ellipse cx="108.6528" cy="623" fill="#A9DCDF" rx="11" ry="11" style="stroke:#181818;stroke-width:1;"/><path d="M103.1684,628.5 L105.1996,628.5 L109.2465,617.1563 L108.3403,617.1563 L112.1684,628.5 L114.309,628.5 L109.9809,616.1719 L107.7621,616.1719 L103.1684,628.5 Z M105.4965,625 L111.934,625 L111.934,623.25 L105.4965,623.25 L105.4965,625 Z " fill="#000000"/><text fill="#000000" font-family="sans-serif" font-size="14" font-style="italic" lengthAdjust="spacing" textLength="95.5496" x="129.1528" y="628.362">P_C_ORDERED</text><rect fill="#FFFFFF" height="16.4001" style="stroke:#181818;stroke-width:1;stroke-dasharray:2,2;" width="8.7921" x="280.6751" y="604"/><text fill="#000000" font-family="sans-serif" font-size="12" font-style="italic" lengthAdjust="spacing" textLength="6.7921" x="281.6751" y="616.7961">T</text><line style="stroke:#181818;stroke-width:0.5;" x1="46.68" x2="285.4672" y1="639" y2="639"/><ellipse cx="56.68" cy="652.9" fill="none" rx="3" ry="3" style="stroke:#038048;stroke-width:1;"/><text fill="#000000" font-family="sans-serif" font-size="14" lengthAdjust="spacing" textLength="214.7872" x="65.68" y="656.7619">constraint : List&lt;Interval&lt;T&gt;&gt; [1..*]</text><line style="stroke:#181818;stroke-width:0.5;" x1="46.68" x2="285.4672" y1="663.7999" y2="663.7999"/></g><!--class P_C_PRIMITIVE_OBJECT--><g class="entity" data-entity="P_C_PRIMITIVE_OBJECT" data-source-line="6" data-uid="ent0003" id="entity_P_C_PRIMITIVE_OBJECT"><rect fill="#F5F5F5" height="98.3998" rx="2.5" ry="2.5" style="stroke:#808080;stroke-width:1;stroke-dasharray:1,3;" width="318.1508" x="7" y="448.6"/><ellipse cx="85.2387" cy="464.6" fill="#A9DCDF" rx="11" ry="11" style="stroke:#181818;stroke-width:1;"/><path d="M79.7543,470.1 L81.7856,470.1 L85.8325,458.7562 L84.9262,458.7562 L88.7543,470.1 L90.895,470.1 L86.5668,457.7719 L84.3481,457.7719 L79.7543,470.1 Z M82.0825,466.6 L88.52,466.6 L88.52,464.85 L82.0825,464.85 L82.0825,466.6 Z " fill="#000000"/><text fill="#808080" font-family="sans-serif" font-size="14" font-style="italic" lengthAdjust="spacing" textLength="153.1734" x="105.7387" y="469.962">P_C_PRIMITIVE_OBJECT</text><line style="stroke:#808080;stroke-width:1;stroke-dasharray:1,3;" x1="8" x2="324.1508" y1="480.6" y2="480.6"/><ellipse cx="18" cy="494.5" fill="none" rx="3" ry="3" style="stroke:#038048;stroke-width:1;"/><text fill="#808080" font-family="sans-serif" font-size="14" lengthAdjust="spacing" textLength="163.4633" x="27" y="498.3619">assumed_value : Any [0..1]</text><ellipse cx="18" cy="511.2999" fill="none" rx="3" ry="3" style="stroke:#038048;stroke-width:1;"/><text fill="#808080" font-family="sans-serif" font-size="14" lengthAdjust="spacing" textLength="292.1508" x="27" y="515.1619">is_enumerated_type_constraint : Boolean [0..1]</text><ellipse cx="18" cy="528.0998" fill="none" rx="3" ry="3" style="stroke:#038048;stroke-width:1;"/><text fill="#808080" font-family="sans-serif" font-size="14" lengthAdjust="spacing" textLength="114.8136" x="27" y="531.9618">constraint : Any [1]</text><line style="stroke:#808080;stroke-width:1;stroke-dasharray:1,3;" x1="8" x2="324.1508" y1="538.9998" y2="538.9998"/></g><!--class P_C_DEFINED_OBJECT--><g class="entity" data-entity="P_C_DEFINED_OBJECT" data-source-line="12" data-uid="ent0004" id="entity_P_C_DEFINED_OBJECT"><rect fill="#F5F5F5" height="81.5999" rx="2.5" ry="2.5" style="stroke:#808080;stroke-width:1;stroke-dasharray:1,3;" width="178.8314" x="76.66" y="307"/><ellipse cx="91.66" cy="323" fill="#A9DCDF" rx="11" ry="11" style="stroke:#181818;stroke-width:1;"/><path d="M86.1756,328.5 L88.2069,328.5 L92.2538,317.1562 L91.3475,317.1562 L95.1756,328.5 L97.3163,328.5 L92.9881,316.1719 L90.7694,316.1719 L86.1756,328.5 Z M88.5038,325 L94.9413,325 L94.9413,323.25 L88.5038,323.25 L88.5038,325 Z " fill="#000000"/><text fill="#808080" font-family="sans-serif" font-size="14" font-style="italic" lengthAdjust="spacing" textLength="146.8314" x="105.66" y="328.362">P_C_DEFINED_OBJECT</text><line style="stroke:#808080;stroke-width:1;stroke-dasharray:1,3;" x1="77.66" x2="254.4914" y1="339" y2="339"/><ellipse cx="87.66" cy="352.9" fill="none" rx="3" ry="3" style="stroke:#038048;stroke-width:1;"/><text fill="#808080" font-family="sans-serif" font-size="14" lengthAdjust="spacing" textLength="152.1374" x="96.66" y="356.7619">is_frozen : Boolean [0..1]</text><ellipse cx="87.66" cy="369.6999" fill="none" rx="3" ry="3" style="stroke:#038048;stroke-width:1;"/><text fill="#808080" font-family="sans-serif" font-size="14" lengthAdjust="spacing" textLength="136.0094" x="96.66" y="373.5619">default_value : Any [1]</text><line style="stroke:#808080;stroke-width:1;stroke-dasharray:1,3;" x1="77.66" x2="254.4914" y1="380.5999" y2="380.5999"/></g><!--class P_C_OBJECT--><g class="entity" data-entity="P_C_OBJECT" data-source-line="17" data-uid="ent0005" id="entity_P_C_OBJECT"><rect fill="#F5F5F5" height="131.9996" rx="2.5" ry="2.5" style="stroke:#808080;stroke-width:1;stroke-dasharray:1,3;" width="235.5092" x="48.32" y="115"/><ellipse cx="121.0988" cy="131" fill="#A9DCDF" rx="11" ry="11" style="stroke:#181818;stroke-width:1;"/><path d="M115.6144,136.5 L117.6456,136.5 L121.6925,125.1563 L120.7863,125.1563 L124.6144,136.5 L126.755,136.5 L122.4269,124.1719 L120.2081,124.1719 L115.6144,136.5 Z M117.9425,133 L124.38,133 L124.38,131.25 L117.9425,131.25 L117.9425,133 Z " fill="#000000"/><text fill="#808080" font-family="sans-serif" font-size="14" font-style="italic" lengthAdjust="spacing" textLength="81.4517" x="141.5988" y="136.362">P_C_OBJECT</text><line style="stroke:#808080;stroke-width:1;stroke-dasharray:1,3;" x1="49.32" x2="282.8292" y1="147" y2="147"/><ellipse cx="59.32" cy="160.9" fill="none" rx="3" ry="3" style="stroke:#038048;stroke-width:1;"/><text fill="#808080" font-family="sans-serif" font-size="14" lengthAdjust="spacing" textLength="159.7254" x="68.32" y="164.7619">rm_type_name : String [1]</text><ellipse cx="59.32" cy="177.6999" fill="none" rx="3" ry="3" style="stroke:#038048;stroke-width:1;"/><text fill="#808080" font-family="sans-serif" font-size="14" lengthAdjust="spacing" textLength="156.8834" x="68.32" y="181.5619">occurrences : String [0..1]</text><ellipse cx="59.32" cy="194.4998" fill="none" rx="3" ry="3" style="stroke:#038048;stroke-width:1;"/><text fill="#808080" font-family="sans-serif" font-size="14" lengthAdjust="spacing" textLength="115.6535" x="68.32" y="198.3618">node_id : String [1]</text><ellipse cx="59.32" cy="211.2997" fill="none" rx="3" ry="3" style="stroke:#038048;stroke-width:1;"/><text fill="#808080" font-family="sans-serif" font-size="14" lengthAdjust="spacing" textLength="182.5033" x="68.32" y="215.1617">is_deprecated : Boolean [0..1]</text><line style="stroke:#808080;stroke-width:1;stroke-dasharray:1,3;" x1="49.32" x2="282.8292" y1="222.1997" y2="222.1997"/><ellipse cx="59.32" cy="236.0997" fill="#84BE84" rx="3" ry="3" style="stroke:#038048;stroke-width:1;"/><text fill="#808080" font-family="sans-serif" font-size="14" lengthAdjust="spacing" textLength="209.5092" x="68.32" y="239.9616">specialisation_depth() : Integer [1]</text></g><!--class P_ARCHETYPE_CONSTRAINT--><g class="entity" data-entity="P_ARCHETYPE_CONSTRAINT" data-source-line="25" data-uid="ent0006" id="entity_P_ARCHETYPE_CONSTRAINT"><rect fill="#F5F5F5" height="48" rx="2.5" ry="2.5" style="stroke:#808080;stroke-width:1;stroke-dasharray:1,3;" width="216.9252" x="57.61" y="7"/><ellipse cx="72.61" cy="23" fill="#A9DCDF" rx="11" ry="11" style="stroke:#181818;stroke-width:1;"/><path d="M67.1256,28.5 L69.1569,28.5 L73.2038,17.1563 L72.2975,17.1563 L76.1256,28.5 L78.2663,28.5 L73.9381,16.1719 L71.7194,16.1719 L67.1256,28.5 Z M69.4538,25 L75.8913,25 L75.8913,23.25 L69.4538,23.25 L69.4538,25 Z " fill="#000000"/><text fill="#808080" font-family="sans-serif" font-size="14" font-style="italic" lengthAdjust="spacing" textLength="184.9252" x="86.61" y="28.362">P_ARCHETYPE_CONSTRAINT</text><line style="stroke:#808080;stroke-width:1;stroke-dasharray:1,3;" x1="58.61" x2="273.5352" y1="39" y2="39"/><line style="stroke:#808080;stroke-width:1;stroke-dasharray:1,3;" x1="58.61" x2="273.5352" y1="47" y2="47"/></g><!--reverse link P_ARCHETYPE_CONSTRAINT to P_C_OBJECT--><g class="link" data-entity-1="P_ARCHETYPE_CONSTRAINT" data-entity-2="P_C_OBJECT" data-source-line="28" data-uid="lnk7" id="link_P_ARCHETYPE_CONSTRAINT_P_C_OBJECT"><path codeLine="28" d="M166.08,73.45 C166.08,89.51 166.08,93.65 166.08,114.81" fill="none" id="P_ARCHETYPE_CONSTRAINT-backto-P_C_OBJECT" style="stroke:#181818;stroke-width:1;"/><polygon fill="none" points="166.08,55.45,160.08,73.45,172.08,73.45,166.08,55.45" style="stroke:#181818;stroke-width:1;"/></g><!--reverse link P_C_OBJECT to P_C_DEFINED_OBJECT--><g class="link" data-entity-1="P_C_OBJECT" data-entity-2="P_C_DEFINED_OBJECT" data-source-line="30" data-uid="lnk8" id="link_P_C_OBJECT_P_C_DEFINED_OBJECT"><path codeLine="30" d="M166.08,265.13 C166.08,285.29 166.08,288.88 166.08,306.8" fill="none" id="P_C_OBJECT-backto-P_C_DEFINED_OBJECT" style="stroke:#181818;stroke-width:1;"/><polygon fill="none" points="166.08,247.13,160.08,265.13,172.08,265.13,166.08,247.13" style="stroke:#181818;stroke-width:1;"/></g><!--reverse link P_C_DEFINED_OBJECT to P_C_PRIMITIVE_OBJECT--><g class="link" data-entity-1="P_C_DEFINED_OBJECT" data-entity-2="P_C_PRIMITIVE_OBJECT" data-source-line="32" data-uid="lnk9" id="link_P_C_DEFINED_OBJECT_P_C_PRIMITIVE_OBJECT"><path codeLine="32" d="M166.08,406.85 C166.08,425.17 166.08,429.04 166.08,448.28" fill="none" id="P_C_DEFINED_OBJECT-backto-P_C_PRIMITIVE_OBJECT" style="stroke:#181818;stroke-width:1;"/><polygon fill="none" points="166.08,388.85,160.08,406.85,172.08,406.85,166.08,388.85" style="stroke:#181818;stroke-width:1;"/></g><!--reverse link P_C_PRIMITIVE_OBJECT to P_C_ORDERED--><g class="link" data-entity-1="P_C_PRIMITIVE_OBJECT" data-entity-2="P_C_ORDERED" data-source-line="34" data-uid="lnk10" id="link_P_C_PRIMITIVE_OBJECT_P_C_ORDERED"><path codeLine="34" d="M166.08,565.23 C166.08,584.92 166.08,589.12 166.08,606.68" fill="none" id="P_C_PRIMITIVE_OBJECT-backto-P_C_ORDERED" style="stroke:#181818;stroke-width:1;"/><polygon fill="none" points="166.08,547.23,160.08,565.23,172.08,565.23,166.08,547.23" style="stroke:#181818;stroke-width:1;"/></g></g></svg>
