<svg xmlns="http://www.w3.org/2000/svg" xmlns:xlink="http://www.w3.org/1999/xlink" contentStyleType="text/css" data-diagram-type="CLASS" height="529px" preserveAspectRatio="none" style="width:1157px;height:529px;background:#FFFFFF;" version="1.1" viewBox="0 0 1157 529" width="1157px" zoomAndPan="magnify"><defs/><g><!--class P_OPERATIONAL_TEMPLATE--><g class="entity" data-entity="P_OPERATIONAL_TEMPLATE" data-source-line="2" data-uid="ent0002" id="entity_P_OPERATIONAL_TEMPLATE"><rect fill="#F1F1F1" height="81.5999" rx="2.5" ry="2.5" style="stroke:#181818;stroke-width:0.5;" width="521.01" x="302.27" y="441.4"/><ellipse cx="466.6434" cy="457.4" fill="#ADD1B2" rx="11" ry="11" style="stroke:#181818;stroke-width:1;"/><path d="M466.6434,463.8219 C467.8153,463.8219 469.0496,463.5563 470.4246,462.9469 L469.9403,461.4313 C468.8465,461.8531 467.8309,462.0406 466.9715,462.0406 C464.2528,462.0406 462.534,460.1969 462.534,457.2906 C462.534,454.5406 464.0965,452.9469 466.8309,452.9469 C467.7528,452.9469 468.7684,453.1344 469.909,453.5563 L470.4871,452.0406 C469.3934,451.4625 468.0965,451.1656 466.909,451.1656 C463.1434,451.1656 460.5653,453.8063 460.5653,457.6188 C460.5653,461.2906 463.0496,463.8219 466.6434,463.8219 Z " fill="#000000"/><text fill="#000000" font-family="sans-serif" font-size="14" lengthAdjust="spacing" textLength="183.7632" x="487.1434" y="462.762">P_OPERATIONAL_TEMPLATE</text><line style="stroke:#181818;stroke-width:0.5;" x1="303.27" x2="822.28" y1="473.4" y2="473.4"/><ellipse cx="313.27" cy="487.3" fill="none" rx="3" ry="3" style="stroke:#038048;stroke-width:1;"/><text fill="#000000" font-family="sans-serif" font-size="14" lengthAdjust="spacing" textLength="495.01" x="322.27" y="491.1619">component_terminologies : Hash&lt;String,P_ARCHETYPE_TERMINOLOGY&gt; [0..1]</text><ellipse cx="313.27" cy="504.0999" fill="none" rx="3" ry="3" style="stroke:#038048;stroke-width:1;"/><text fill="#000000" font-family="sans-serif" font-size="14" lengthAdjust="spacing" textLength="475.7742" x="322.27" y="507.9619">terminology_extracts : Hash&lt;String,Hash&lt;String,ARCHETYPE_TERM&gt;&gt; [0..1]</text><line style="stroke:#181818;stroke-width:0.5;" x1="303.27" x2="822.28" y1="514.9999" y2="514.9999"/></g><!--class P_AUTHORED_ARCHETYPE--><g class="entity" data-entity="P_AUTHORED_ARCHETYPE" data-source-line="7" data-uid="ent0003" id="entity_P_AUTHORED_ARCHETYPE"><rect fill="#F5F5F5" height="131.9996" rx="2.5" ry="2.5" style="stroke:#808080;stroke-width:1;stroke-dasharray:1,3;" width="287.925" x="418.81" y="249.4"/><ellipse cx="471.9679" cy="265.4" fill="#ADD1B2" rx="11" ry="11" style="stroke:#181818;stroke-width:1;"/><path d="M471.9679,271.8219 C473.1397,271.8219 474.3741,271.5563 475.7491,270.9469 L475.2647,269.4313 C474.171,269.8531 473.1554,270.0406 472.296,270.0406 C469.5772,270.0406 467.8585,268.1969 467.8585,265.2906 C467.8585,262.5406 469.421,260.9469 472.1554,260.9469 C473.0772,260.9469 474.0929,261.1344 475.2335,261.5563 L475.8116,260.0406 C474.7179,259.4625 473.421,259.1656 472.2335,259.1656 C468.4679,259.1656 465.8897,261.8063 465.8897,265.6188 C465.8897,269.2906 468.3741,271.8219 471.9679,271.8219 Z " fill="#000000"/><text fill="#808080" font-family="sans-serif" font-size="14" lengthAdjust="spacing" textLength="173.1093" x="492.4679" y="270.762">P_AUTHORED_ARCHETYPE</text><line style="stroke:#808080;stroke-width:1;stroke-dasharray:1,3;" x1="419.81" x2="705.735" y1="281.4" y2="281.4"/><ellipse cx="429.81" cy="295.3" fill="none" rx="3" ry="3" style="stroke:#038048;stroke-width:1;"/><text fill="#808080" font-family="sans-serif" font-size="14" lengthAdjust="spacing" textLength="152.9914" x="438.81" y="299.1619">adl_version : String [0..1]</text><ellipse cx="429.81" cy="312.0999" fill="none" rx="3" ry="3" style="stroke:#038048;stroke-width:1;"/><text fill="#808080" font-family="sans-serif" font-size="14" lengthAdjust="spacing" textLength="108.9756" x="438.81" y="315.9619">build_uid : UID [1]</text><ellipse cx="429.81" cy="328.8998" fill="none" rx="3" ry="3" style="stroke:#038048;stroke-width:1;"/><text fill="#808080" font-family="sans-serif" font-size="14" lengthAdjust="spacing" textLength="135.6735" x="438.81" y="332.7618">rm_release : String [1]</text><ellipse cx="429.81" cy="345.6997" fill="none" rx="3" ry="3" style="stroke:#038048;stroke-width:1;"/><text fill="#808080" font-family="sans-serif" font-size="14" lengthAdjust="spacing" textLength="160.1454" x="438.81" y="349.5617">is_generated : Boolean [1]</text><ellipse cx="429.81" cy="362.4997" fill="none" rx="3" ry="3" style="stroke:#038048;stroke-width:1;"/><text fill="#808080" font-family="sans-serif" font-size="14" lengthAdjust="spacing" textLength="261.925" x="438.81" y="366.3616">other_meta_data : Hash&lt;String,String&gt; [1]</text><line style="stroke:#808080;stroke-width:1;stroke-dasharray:1,3;" x1="419.81" x2="705.735" y1="373.3996" y2="373.3996"/></g><!--class P_ARCHETYPE--><g class="entity" data-entity="P_ARCHETYPE" data-source-line="15" data-uid="ent0004" id="entity_P_ARCHETYPE"><rect fill="#F5F5F5" height="148.7996" rx="2.5" ry="2.5" style="stroke:#808080;stroke-width:1;stroke-dasharray:1,3;" width="327.5447" x="7" y="23.8"/><ellipse cx="120.2806" cy="39.8" fill="#A9DCDF" rx="11" ry="11" style="stroke:#181818;stroke-width:1;"/><path d="M114.7962,45.3 L116.8274,45.3 L120.8743,33.9563 L119.9681,33.9563 L123.7962,45.3 L125.9368,45.3 L121.6087,32.9719 L119.3899,32.9719 L114.7962,45.3 Z M117.1243,41.8 L123.5618,41.8 L123.5618,40.05 L117.1243,40.05 L117.1243,41.8 Z " fill="#000000"/><text fill="#808080" font-family="sans-serif" font-size="14" font-style="italic" lengthAdjust="spacing" textLength="92.4836" x="140.7806" y="45.162">P_ARCHETYPE</text><line style="stroke:#808080;stroke-width:1;stroke-dasharray:1,3;" x1="8" x2="333.5447" y1="55.8" y2="55.8"/><ellipse cx="18" cy="69.7" fill="none" rx="3" ry="3" style="stroke:#038048;stroke-width:1;"/><text fill="#808080" font-family="sans-serif" font-size="14" lengthAdjust="spacing" textLength="209.4672" x="27" y="73.5619">parent_archetype_id : String [0..1]</text><ellipse cx="18" cy="86.4999" fill="none" rx="3" ry="3" style="stroke:#038048;stroke-width:1;"/><text fill="#808080" font-family="sans-serif" font-size="14" lengthAdjust="spacing" textLength="240.393" x="27" y="90.3619">archetype_id : P_ARCHETYPE_HRID [1]</text><ellipse cx="18" cy="103.2998" fill="none" rx="3" ry="3" style="stroke:#038048;stroke-width:1;"/><text fill="#808080" font-family="sans-serif" font-size="14" lengthAdjust="spacing" textLength="165.0733" x="27" y="107.1618">is_differential : Boolean [1]</text><ellipse cx="18" cy="120.0997" fill="none" rx="3" ry="3" style="stroke:#038048;stroke-width:1;"/><text fill="#808080" font-family="sans-serif" font-size="14" lengthAdjust="spacing" textLength="239.889" x="27" y="123.9617">definition : P_C_COMPLEX_OBJECT [1]</text><ellipse cx="18" cy="136.8997" fill="none" rx="3" ry="3" style="stroke:#038048;stroke-width:1;"/><text fill="#808080" font-family="sans-serif" font-size="14" lengthAdjust="spacing" textLength="301.5447" x="27" y="140.7616">terminology : P_ARCHETYPE_TERMINOLOGY [1]</text><ellipse cx="18" cy="153.6996" fill="none" rx="3" ry="3" style="stroke:#038048;stroke-width:1;"/><text fill="#808080" font-family="sans-serif" font-size="14" lengthAdjust="spacing" textLength="177.5333" x="27" y="157.5616">rules : List&lt;STATEMENT&gt; [*]</text><line style="stroke:#808080;stroke-width:1;stroke-dasharray:1,3;" x1="8" x2="333.5447" y1="164.5996" y2="164.5996"/></g><!--class AUTHORED_RESOURCE--><g class="entity" data-entity="AUTHORED_RESOURCE" data-source-line="26" data-uid="ent0006" id="entity_AUTHORED_RESOURCE"><rect fill="#F5F5F5" height="182.3994" rx="2.5" ry="2.5" style="stroke:#808080;stroke-width:1;stroke-dasharray:1,3;" width="385.7706" x="369.89" y="7"/><ellipse cx="482.9536" cy="23" fill="#A9DCDF" rx="11" ry="11" style="stroke:#181818;stroke-width:1;"/><path d="M477.4692,28.5 L479.5005,28.5 L483.5473,17.1563 L482.6411,17.1563 L486.4692,28.5 L488.6098,28.5 L484.2817,16.1719 L482.063,16.1719 L477.4692,28.5 Z M479.7973,25 L486.2348,25 L486.2348,23.25 L479.7973,23.25 L479.7973,25 Z " fill="#000000"/><text fill="#808080" font-family="sans-serif" font-size="14" font-style="italic" lengthAdjust="spacing" textLength="151.1434" x="503.4536" y="28.362">AUTHORED_RESOURCE</text><line style="stroke:#808080;stroke-width:1;stroke-dasharray:1,3;" x1="370.89" x2="754.6606" y1="39" y2="39"/><ellipse cx="380.89" cy="52.9" fill="none" rx="3" ry="3" style="stroke:#038048;stroke-width:1;"/><text fill="#808080" font-family="sans-serif" font-size="14" lengthAdjust="spacing" textLength="96.0256" x="389.89" y="56.7619">uid : UUID [0..1]</text><ellipse cx="380.89" cy="69.6999" fill="none" rx="3" ry="3" style="stroke:#038048;stroke-width:1;"/><text fill="#808080" font-family="sans-serif" font-size="14" lengthAdjust="spacing" textLength="255.653" x="389.89" y="73.5619">original_language : Terminology_code [1]</text><ellipse cx="380.89" cy="86.4998" fill="none" rx="3" ry="3" style="stroke:#038048;stroke-width:1;"/><text fill="#808080" font-family="sans-serif" font-size="14" lengthAdjust="spacing" textLength="279.7049" x="389.89" y="90.3618">description : RESOURCE_DESCRIPTION [0..1]</text><ellipse cx="380.89" cy="103.2997" fill="none" rx="3" ry="3" style="stroke:#038048;stroke-width:1;"/><text fill="#808080" font-family="sans-serif" font-size="14" lengthAdjust="spacing" textLength="176.1753" x="389.89" y="107.1617">is_controlled : Boolean [0..1]</text><ellipse cx="380.89" cy="120.0997" fill="none" rx="3" ry="3" style="stroke:#038048;stroke-width:1;"/><text fill="#808080" font-family="sans-serif" font-size="14" lengthAdjust="spacing" textLength="293.5368" x="389.89" y="123.9616">annotations : RESOURCE_ANNOTATIONS [0..1]</text><ellipse cx="380.89" cy="136.8996" fill="none" rx="3" ry="3" style="stroke:#038048;stroke-width:1;"/><text fill="#808080" font-family="sans-serif" font-size="14" lengthAdjust="spacing" textLength="359.7706" x="389.89" y="140.7616">translations : Hash&lt;String,TRANSLATION_DETAILS&gt; [0..1]</text><line style="stroke:#808080;stroke-width:1;stroke-dasharray:1,3;" x1="370.89" x2="754.6606" y1="147.7996" y2="147.7996"/><ellipse cx="380.89" cy="161.6995" fill="#84BE84" rx="3" ry="3" style="stroke:#038048;stroke-width:1;"/><text fill="#808080" font-family="sans-serif" font-size="14" lengthAdjust="spacing" textLength="175.3493" x="389.89" y="165.5615">current_revision() : String [1]</text><ellipse cx="380.89" cy="178.4995" fill="#84BE84" rx="3" ry="3" style="stroke:#038048;stroke-width:1;"/><text fill="#808080" font-family="sans-serif" font-size="14" lengthAdjust="spacing" textLength="252.111" x="389.89" y="182.3614">languages_available() : List&lt;String&gt; [1..*]</text></g><!--class P_AUTHORED_RESOURCE--><g class="entity" data-entity="P_AUTHORED_RESOURCE" data-source-line="39" data-uid="ent0008" id="entity_P_AUTHORED_RESOURCE"><rect fill="#F5F5F5" height="148.7996" rx="2.5" ry="2.5" style="stroke:#808080;stroke-width:1;stroke-dasharray:1,3;" width="359.7308" x="790.91" y="23.8"/><ellipse cx="883.3237" cy="39.8" fill="#A9DCDF" rx="11" ry="11" style="stroke:#181818;stroke-width:1;"/><path d="M877.8394,45.3 L879.8706,45.3 L883.9175,33.9563 L883.0112,33.9563 L886.8394,45.3 L888.98,45.3 L884.6519,32.9719 L882.4331,32.9719 L877.8394,45.3 Z M880.1675,41.8 L886.605,41.8 L886.605,40.05 L880.1675,40.05 L880.1675,41.8 Z " fill="#000000"/><text fill="#808080" font-family="sans-serif" font-size="14" font-style="italic" lengthAdjust="spacing" textLength="166.4033" x="903.8237" y="45.162">P_AUTHORED_RESOURCE</text><line style="stroke:#808080;stroke-width:1;stroke-dasharray:1,3;" x1="791.91" x2="1149.6408" y1="55.8" y2="55.8"/><ellipse cx="801.91" cy="69.7" fill="none" rx="3" ry="3" style="stroke:#038048;stroke-width:1;"/><text fill="#808080" font-family="sans-serif" font-size="14" lengthAdjust="spacing" textLength="177.3933" x="810.91" y="73.5619">original_language : String [1]</text><ellipse cx="801.91" cy="86.4999" fill="none" rx="3" ry="3" style="stroke:#038048;stroke-width:1;"/><text fill="#808080" font-family="sans-serif" font-size="14" lengthAdjust="spacing" textLength="176.1753" x="810.91" y="90.3619">is_controlled : Boolean [0..1]</text><ellipse cx="801.91" cy="103.2998" fill="none" rx="3" ry="3" style="stroke:#038048;stroke-width:1;"/><text fill="#808080" font-family="sans-serif" font-size="14" lengthAdjust="spacing" textLength="294.0128" x="810.91" y="107.1618">translations : List&lt;TRANSLATION_DETAILS&gt; [*]</text><ellipse cx="801.91" cy="120.0997" fill="none" rx="3" ry="3" style="stroke:#038048;stroke-width:1;"/><text fill="#808080" font-family="sans-serif" font-size="14" lengthAdjust="spacing" textLength="279.7049" x="810.91" y="123.9617">description : RESOURCE_DESCRIPTION [0..1]</text><ellipse cx="801.91" cy="136.8997" fill="none" rx="3" ry="3" style="stroke:#038048;stroke-width:1;"/><text fill="#808080" font-family="sans-serif" font-size="14" lengthAdjust="spacing" textLength="100.9816" x="810.91" y="140.7616">uid : String [0..1]</text><ellipse cx="801.91" cy="153.6996" fill="none" rx="3" ry="3" style="stroke:#038048;stroke-width:1;"/><text fill="#808080" font-family="sans-serif" font-size="14" lengthAdjust="spacing" textLength="333.7308" x="810.91" y="157.5616">annotations : Hash&lt;String,Hash&lt;String,String&gt;&gt; [0..1]</text><line style="stroke:#808080;stroke-width:1;stroke-dasharray:1,3;" x1="791.91" x2="1149.6408" y1="164.5996" y2="164.5996"/></g><!--reverse link P_ARCHETYPE to P_AUTHORED_ARCHETYPE--><g class="link" data-entity-1="P_ARCHETYPE" data-entity-2="P_AUTHORED_ARCHETYPE" data-source-line="24" data-uid="lnk5" id="link_P_ARCHETYPE_P_AUTHORED_ARCHETYPE"><path codeLine="24" d="M320.9085,181.6226 C365.8985,206.3226 399.94,225.01 443.68,249.02" fill="none" id="P_ARCHETYPE-backto-P_AUTHORED_ARCHETYPE" style="stroke:#181818;stroke-width:1;"/><polygon fill="none" points="305.13,172.96,318.021,186.882,323.796,176.3631,305.13,172.96" style="stroke:#181818;stroke-width:1;"/></g><!--reverse link AUTHORED_RESOURCE to P_AUTHORED_ARCHETYPE--><g class="link" data-entity-1="AUTHORED_RESOURCE" data-entity-2="P_AUTHORED_ARCHETYPE" data-source-line="37" data-uid="lnk7" id="link_AUTHORED_RESOURCE_P_AUTHORED_ARCHETYPE"><path codeLine="37" d="M562.77,207.84 C562.77,227.71 562.77,230.38 562.77,249.03" fill="none" id="AUTHORED_RESOURCE-backto-P_AUTHORED_ARCHETYPE" style="stroke:#181818;stroke-width:1;"/><polygon fill="none" points="562.77,189.84,556.77,207.84,568.77,207.84,562.77,189.84" style="stroke:#181818;stroke-width:1;"/></g><!--reverse link P_AUTHORED_RESOURCE to P_AUTHORED_ARCHETYPE--><g class="link" data-entity-1="P_AUTHORED_RESOURCE" data-entity-2="P_AUTHORED_ARCHETYPE" data-source-line="48" data-uid="lnk9" id="link_P_AUTHORED_RESOURCE_P_AUTHORED_ARCHETYPE"><path codeLine="48" d="M815.0089,181.3574 C768.1789,206.0574 732.26,225.01 686.73,249.02" fill="none" id="P_AUTHORED_RESOURCE-backto-P_AUTHORED_ARCHETYPE" style="stroke:#181818;stroke-width:1;"/><polygon fill="none" points="830.93,172.96,812.2097,176.0504,817.808,186.6645,830.93,172.96" style="stroke:#181818;stroke-width:1;"/></g><!--reverse link P_AUTHORED_ARCHETYPE to P_OPERATIONAL_TEMPLATE--><g class="link" data-entity-1="P_AUTHORED_ARCHETYPE" data-entity-2="P_OPERATIONAL_TEMPLATE" data-source-line="50" data-uid="lnk10" id="link_P_AUTHORED_ARCHETYPE_P_OPERATIONAL_TEMPLATE"><path codeLine="50" d="M562.77,399.53 C562.77,419.69 562.77,423.28 562.77,441.2" fill="none" id="P_AUTHORED_ARCHETYPE-backto-P_OPERATIONAL_TEMPLATE" style="stroke:#181818;stroke-width:1;"/><polygon fill="none" points="562.77,381.53,556.77,399.53,568.77,399.53,562.77,381.53" style="stroke:#181818;stroke-width:1;"/></g></g></svg>
