<svg xmlns="http://www.w3.org/2000/svg" xmlns:xlink="http://www.w3.org/1999/xlink" contentStyleType="text/css" data-diagram-type="CLASS" height="169px" preserveAspectRatio="none" style="width:348px;height:169px;background:#FFFFFF;" version="1.1" viewBox="0 0 348 169" width="348px" zoomAndPan="magnify"><defs/><g><!--class P_ARCHETYPE--><g class="entity" data-entity="P_ARCHETYPE" data-source-line="2" data-uid="ent0002" id="entity_P_ARCHETYPE"><rect fill="#F1F1F1" height="148.7996" rx="2.5" ry="2.5" style="stroke:#181818;stroke-width:0.5;" width="327.5447" x="7" y="7"/><ellipse cx="120.2806" cy="23" fill="#A9DCDF" rx="11" ry="11" style="stroke:#181818;stroke-width:1;"/><path d="M114.7962,28.5 L116.8274,28.5 L120.8743,17.1563 L119.9681,17.1563 L123.7962,28.5 L125.9368,28.5 L121.6087,16.1719 L119.3899,16.1719 L114.7962,28.5 Z M117.1243,25 L123.5618,25 L123.5618,23.25 L117.1243,23.25 L117.1243,25 Z " fill="#000000"/><text fill="#000000" font-family="sans-serif" font-size="14" font-style="italic" lengthAdjust="spacing" textLength="92.4836" x="140.7806" y="28.362">P_ARCHETYPE</text><line style="stroke:#181818;stroke-width:0.5;" x1="8" x2="333.5447" y1="39" y2="39"/><ellipse cx="18" cy="52.9" fill="none" rx="3" ry="3" style="stroke:#038048;stroke-width:1;"/><text fill="#000000" font-family="sans-serif" font-size="14" lengthAdjust="spacing" textLength="209.4672" x="27" y="56.7619">parent_archetype_id : String [0..1]</text><ellipse cx="18" cy="69.6999" fill="none" rx="3" ry="3" style="stroke:#038048;stroke-width:1;"/><text fill="#000000" font-family="sans-serif" font-size="14" lengthAdjust="spacing" textLength="240.393" x="27" y="73.5619">archetype_id : P_ARCHETYPE_HRID [1]</text><ellipse cx="18" cy="86.4998" fill="none" rx="3" ry="3" style="stroke:#038048;stroke-width:1;"/><text fill="#000000" font-family="sans-serif" font-size="14" lengthAdjust="spacing" textLength="165.0733" x="27" y="90.3618">is_differential : Boolean [1]</text><ellipse cx="18" cy="103.2997" fill="none" rx="3" ry="3" style="stroke:#038048;stroke-width:1;"/><text fill="#000000" font-family="sans-serif" font-size="14" lengthAdjust="spacing" textLength="239.889" x="27" y="107.1617">definition : P_C_COMPLEX_OBJECT [1]</text><ellipse cx="18" cy="120.0997" fill="none" rx="3" ry="3" style="stroke:#038048;stroke-width:1;"/><text fill="#000000" font-family="sans-serif" font-size="14" lengthAdjust="spacing" textLength="301.5447" x="27" y="123.9616">terminology : P_ARCHETYPE_TERMINOLOGY [1]</text><ellipse cx="18" cy="136.8996" fill="none" rx="3" ry="3" style="stroke:#038048;stroke-width:1;"/><text fill="#000000" font-family="sans-serif" font-size="14" lengthAdjust="spacing" textLength="177.5333" x="27" y="140.7616">rules : List&lt;STATEMENT&gt; [*]</text><line style="stroke:#181818;stroke-width:0.5;" x1="8" x2="333.5447" y1="147.7996" y2="147.7996"/></g></g></svg>
