<svg xmlns="http://www.w3.org/2000/svg" xmlns:xlink="http://www.w3.org/1999/xlink" contentStyleType="text/css" data-diagram-type="CLASS" height="253px" preserveAspectRatio="none" style="width:249px;height:253px;background:#FFFFFF;" version="1.1" viewBox="0 0 249 253" width="249px" zoomAndPan="magnify"><defs/><g><!--class P_C_OBJECT--><g class="entity" data-entity="P_C_OBJECT" data-source-line="2" data-uid="ent0002" id="entity_P_C_OBJECT"><rect fill="#F1F1F1" height="131.9996" rx="2.5" ry="2.5" style="stroke:#181818;stroke-width:0.5;" width="235.5092" x="7" y="115"/><ellipse cx="79.7788" cy="131" fill="#A9DCDF" rx="11" ry="11" style="stroke:#181818;stroke-width:1;"/><path d="M74.2944,136.5 L76.3256,136.5 L80.3725,125.1563 L79.4663,125.1563 L83.2944,136.5 L85.435,136.5 L81.1069,124.1719 L78.8881,124.1719 L74.2944,136.5 Z M76.6225,133 L83.06,133 L83.06,131.25 L76.6225,131.25 L76.6225,133 Z " fill="#000000"/><text fill="#000000" font-family="sans-serif" font-size="14" font-style="italic" lengthAdjust="spacing" textLength="81.4517" x="100.2788" y="136.362">P_C_OBJECT</text><line style="stroke:#181818;stroke-width:0.5;" x1="8" x2="241.5092" y1="147" y2="147"/><ellipse cx="18" cy="160.9" fill="none" rx="3" ry="3" style="stroke:#038048;stroke-width:1;"/><text fill="#000000" font-family="sans-serif" font-size="14" lengthAdjust="spacing" textLength="159.7254" x="27" y="164.7619">rm_type_name : String [1]</text><ellipse cx="18" cy="177.6999" fill="none" rx="3" ry="3" style="stroke:#038048;stroke-width:1;"/><text fill="#000000" font-family="sans-serif" font-size="14" lengthAdjust="spacing" textLength="156.8834" x="27" y="181.5619">occurrences : String [0..1]</text><ellipse cx="18" cy="194.4998" fill="none" rx="3" ry="3" style="stroke:#038048;stroke-width:1;"/><text fill="#000000" font-family="sans-serif" font-size="14" lengthAdjust="spacing" textLength="115.6535" x="27" y="198.3618">node_id : String [1]</text><ellipse cx="18" cy="211.2997" fill="none" rx="3" ry="3" style="stroke:#038048;stroke-width:1;"/><text fill="#000000" font-family="sans-serif" font-size="14" lengthAdjust="spacing" textLength="182.5033" x="27" y="215.1617">is_deprecated : Boolean [0..1]</text><line style="stroke:#181818;stroke-width:0.5;" x1="8" x2="241.5092" y1="222.1997" y2="222.1997"/><ellipse cx="18" cy="236.0997" fill="#84BE84" rx="3" ry="3" style="stroke:#038048;stroke-width:1;"/><text fill="#000000" font-family="sans-serif" font-size="14" lengthAdjust="spacing" textLength="209.5092" x="27" y="239.9616">specialisation_depth() : Integer [1]</text></g><!--class P_ARCHETYPE_CONSTRAINT--><g class="entity" data-entity="P_ARCHETYPE_CONSTRAINT" data-source-line="10" data-uid="ent0003" id="entity_P_ARCHETYPE_CONSTRAINT"><rect fill="#F5F5F5" height="48" rx="2.5" ry="2.5" style="stroke:#808080;stroke-width:1;stroke-dasharray:1,3;" width="216.9252" x="16.29" y="7"/><ellipse cx="31.29" cy="23" fill="#A9DCDF" rx="11" ry="11" style="stroke:#181818;stroke-width:1;"/><path d="M25.8056,28.5 L27.8369,28.5 L31.8838,17.1563 L30.9775,17.1563 L34.8056,28.5 L36.9463,28.5 L32.6181,16.1719 L30.3994,16.1719 L25.8056,28.5 Z M28.1338,25 L34.5713,25 L34.5713,23.25 L28.1338,23.25 L28.1338,25 Z " fill="#000000"/><text fill="#808080" font-family="sans-serif" font-size="14" font-style="italic" lengthAdjust="spacing" textLength="184.9252" x="45.29" y="28.362">P_ARCHETYPE_CONSTRAINT</text><line style="stroke:#808080;stroke-width:1;stroke-dasharray:1,3;" x1="17.29" x2="232.2152" y1="39" y2="39"/><line style="stroke:#808080;stroke-width:1;stroke-dasharray:1,3;" x1="17.29" x2="232.2152" y1="47" y2="47"/></g><!--reverse link P_ARCHETYPE_CONSTRAINT to P_C_OBJECT--><g class="link" data-entity-1="P_ARCHETYPE_CONSTRAINT" data-entity-2="P_C_OBJECT" data-source-line="13" data-uid="lnk4" id="link_P_ARCHETYPE_CONSTRAINT_P_C_OBJECT"><path codeLine="13" d="M124.75,73.45 C124.75,89.51 124.75,93.65 124.75,114.81" fill="none" id="P_ARCHETYPE_CONSTRAINT-backto-P_C_OBJECT" style="stroke:#181818;stroke-width:1;"/><polygon fill="none" points="124.75,55.45,118.75,73.45,130.75,73.45,124.75,55.45" style="stroke:#181818;stroke-width:1;"/></g></g></svg>
