<svg xmlns="http://www.w3.org/2000/svg" xmlns:xlink="http://www.w3.org/1999/xlink" contentStyleType="text/css" data-diagram-type="CLASS" height="973px" preserveAspectRatio="none" style="width:364px;height:973px;background:#FFFFFF;" version="1.1" viewBox="0 0 364 973" width="364px" zoomAndPan="magnify"><defs/><g><!--class BMM_SIMPLE_CLASS--><g class="entity" data-entity="BMM_SIMPLE_CLASS" data-source-line="2" data-uid="ent0002" id="entity_BMM_SIMPLE_CLASS"><rect fill="#F1F1F1" height="64.7999" rx="2.5" ry="2.5" style="stroke:#181818;stroke-width:0.5;" width="216.5112" x="73.86" y="902.2"/><ellipse cx="111.4733" cy="918.2" fill="#ADD1B2" rx="11" ry="11" style="stroke:#181818;stroke-width:1;"/><path d="M111.4733,924.6219 C112.6452,924.6219 113.8795,924.3563 115.2545,923.7469 L114.7702,922.2313 C113.6764,922.6531 112.6608,922.8406 111.8014,922.8406 C109.0827,922.8406 107.3639,920.9969 107.3639,918.0906 C107.3639,915.3406 108.9264,913.7469 111.6608,913.7469 C112.5827,913.7469 113.5983,913.9344 114.7389,914.3563 L115.317,912.8406 C114.2233,912.2625 112.9264,911.9656 111.7389,911.9656 C107.9733,911.9656 105.3952,914.6063 105.3952,918.4188 C105.3952,922.0906 107.8795,924.6219 111.4733,924.6219 Z " fill="#000000"/><text fill="#000000" font-family="sans-serif" font-size="14" lengthAdjust="spacing" textLength="134.2595" x="130.4985" y="923.562">BMM_SIMPLE_CLASS</text><line style="stroke:#181818;stroke-width:0.5;" x1="74.86" x2="289.3712" y1="934.2" y2="934.2"/><line style="stroke:#181818;stroke-width:0.5;" x1="74.86" x2="289.3712" y1="942.2" y2="942.2"/><ellipse cx="84.86" cy="956.1" fill="#84BE84" rx="3" ry="3" style="stroke:#038048;stroke-width:1;"/><text fill="#000000" font-family="sans-serif" font-size="14" lengthAdjust="spacing" textLength="190.5112" x="93.86" y="959.9619">type() : BMM_SIMPLE_TYPE [1]</text></g><!--class BMM_CLASS--><g class="entity" data-entity="BMM_CLASS" data-source-line="6" data-uid="ent0003" id="entity_BMM_CLASS"><rect fill="#F5F5F5" height="518.3979" rx="2.5" ry="2.5" style="stroke:#808080;stroke-width:1;stroke-dasharray:1,3;" width="350.2247" x="7" y="323.8"/><ellipse cx="137.7455" cy="339.8" fill="#A9DCDF" rx="11" ry="11" style="stroke:#181818;stroke-width:1;"/><path d="M132.2611,345.3 L134.2924,345.3 L138.3393,333.9562 L137.433,333.9562 L141.2611,345.3 L143.4018,345.3 L139.0736,332.9719 L136.8549,332.9719 L132.2611,345.3 Z M134.5893,341.8 L141.0268,341.8 L141.0268,340.05 L134.5893,340.05 L134.5893,341.8 Z " fill="#000000"/><text fill="#808080" font-family="sans-serif" font-size="14" font-style="italic" lengthAdjust="spacing" textLength="80.2337" x="158.2455" y="345.162">BMM_CLASS</text><line style="stroke:#808080;stroke-width:1;stroke-dasharray:1,3;" x1="8" x2="356.2247" y1="355.8" y2="355.8"/><ellipse cx="18" cy="369.7" fill="none" rx="3" ry="3" style="stroke:#038048;stroke-width:1;"/><text fill="#808080" font-family="sans-serif" font-size="14" lengthAdjust="spacing" textLength="165.2414" x="27" y="373.5619">ancestors : List&lt;String&gt; [*]</text><ellipse cx="18" cy="386.4999" fill="none" rx="3" ry="3" style="stroke:#038048;stroke-width:1;"/><text fill="#808080" font-family="sans-serif" font-size="14" lengthAdjust="spacing" textLength="181.1453" x="27" y="390.3619">package : BMM_PACKAGE [1]</text><ellipse cx="18" cy="403.2998" fill="none" rx="3" ry="3" style="stroke:#038048;stroke-width:1;"/><text fill="#808080" font-family="sans-serif" font-size="14" lengthAdjust="spacing" textLength="306.1368" x="27" y="407.1618">properties : Hash&lt;String,BMM_PROPERTY&gt; [0..1]</text><ellipse cx="18" cy="420.0997" fill="none" rx="3" ry="3" style="stroke:#038048;stroke-width:1;"/><text fill="#808080" font-family="sans-serif" font-size="14" lengthAdjust="spacing" textLength="180.7953" x="27" y="423.9617">source_schema_id : String [1]</text><ellipse cx="18" cy="436.8997" fill="none" rx="3" ry="3" style="stroke:#038048;stroke-width:1;"/><text fill="#808080" font-family="sans-serif" font-size="14" lengthAdjust="spacing" textLength="299.7947" x="27" y="440.7616">immediate_descendants : List&lt;BMM_CLASS&gt; [*]</text><ellipse cx="18" cy="453.6996" fill="none" rx="3" ry="3" style="stroke:#038048;stroke-width:1;"/><text fill="#808080" font-family="sans-serif" font-size="14" lengthAdjust="spacing" textLength="147.9934" x="27" y="457.5616">is_override : Boolean [1]</text><ellipse cx="18" cy="470.4995" fill="none" rx="3" ry="3" style="stroke:#038048;stroke-width:1;"/><text fill="#808080" font-family="sans-serif" font-size="14" lengthAdjust="spacing" textLength="306.7808" x="27" y="474.3615">constants : Hash&lt;String,BMM_CONSTANT&gt; [0..1]</text><ellipse cx="18" cy="487.2995" fill="none" rx="3" ry="3" style="stroke:#038048;stroke-width:1;"/><text fill="#808080" font-family="sans-serif" font-size="14" lengthAdjust="spacing" textLength="300.6628" x="27" y="491.1614">functions : Hash&lt;String,BMM_FUNCTION&gt; [0..1]</text><ellipse cx="18" cy="504.0994" fill="none" rx="3" ry="3" style="stroke:#038048;stroke-width:1;"/><text fill="#808080" font-family="sans-serif" font-size="14" lengthAdjust="spacing" textLength="324.2247" x="27" y="507.9614">procedures : Hash&lt;String,BMM_PROCEDURE&gt; [0..1]</text><ellipse cx="18" cy="520.8993" fill="none" rx="3" ry="3" style="stroke:#038048;stroke-width:1;"/><text fill="#808080" font-family="sans-serif" font-size="14" lengthAdjust="spacing" textLength="167.5093" x="27" y="524.7613">is_primitive : Boolean [0..1]</text><ellipse cx="18" cy="537.6992" fill="none" rx="3" ry="3" style="stroke:#038048;stroke-width:1;"/><text fill="#808080" font-family="sans-serif" font-size="14" lengthAdjust="spacing" textLength="163.0714" x="27" y="541.5612">is_abstract : Boolean [0..1]</text><ellipse cx="18" cy="554.4992" fill="none" rx="3" ry="3" style="stroke:#038048;stroke-width:1;"/><text fill="#808080" font-family="sans-serif" font-size="14" lengthAdjust="spacing" textLength="241.933" x="27" y="558.3611">invariants : List&lt;BMM_ASSERTION&gt; [*]</text><ellipse cx="18" cy="571.2991" fill="none" rx="3" ry="3" style="stroke:#038048;stroke-width:1;"/><text fill="#808080" font-family="sans-serif" font-size="14" lengthAdjust="spacing" textLength="156.0854" x="27" y="575.1611">creators : List&lt;String&gt; [*]</text><ellipse cx="18" cy="588.099" fill="none" rx="3" ry="3" style="stroke:#038048;stroke-width:1;"/><text fill="#808080" font-family="sans-serif" font-size="14" lengthAdjust="spacing" textLength="170.9673" x="27" y="591.961">converters : List&lt;String&gt; [*]</text><ellipse cx="18" cy="604.8989" fill="none" rx="3" ry="3" style="stroke:#038048;stroke-width:1;"/><text fill="#808080" font-family="sans-serif" font-size="14" lengthAdjust="spacing" textLength="315.7127" x="27" y="608.7609">feature_groups : List&lt;BMM_FEATURE_GROUP&gt; [*]</text><line style="stroke:#808080;stroke-width:1;stroke-dasharray:1,3;" x1="8" x2="356.2247" y1="615.7989" y2="615.7989"/><ellipse cx="18" cy="629.6989" fill="#84BE84" rx="3" ry="3" style="stroke:#038048;stroke-width:1;"/><text fill="#808080" font-family="sans-serif" font-size="14" font-style="italic" lengthAdjust="spacing" textLength="191.3652" x="27" y="633.5608">type() : BMM_MODEL_TYPE [1]</text><ellipse cx="18" cy="646.4988" fill="#84BE84" rx="3" ry="3" style="stroke:#038048;stroke-width:1;"/><text fill="#808080" font-family="sans-serif" font-size="14" lengthAdjust="spacing" textLength="195.6212" x="27" y="650.3608">all_ancestors() : List&lt;String&gt; [*]</text><ellipse cx="18" cy="663.2987" fill="#84BE84" rx="3" ry="3" style="stroke:#038048;stroke-width:1;"/><text fill="#808080" font-family="sans-serif" font-size="14" lengthAdjust="spacing" textLength="213.6952" x="27" y="667.1607">all_descendants() : List&lt;String&gt; [*]</text><ellipse cx="18" cy="680.0986" fill="#84BE84" rx="3" ry="3" style="stroke:#038048;stroke-width:1;"/><text fill="#808080" font-family="sans-serif" font-size="14" lengthAdjust="spacing" textLength="170.1693" x="27" y="683.9606">suppliers() : List&lt;String&gt; [*]</text><ellipse cx="18" cy="696.8986" fill="#84BE84" rx="3" ry="3" style="stroke:#038048;stroke-width:1;"/><text fill="#808080" font-family="sans-serif" font-size="14" lengthAdjust="spacing" textLength="263.157" x="27" y="700.7605">suppliers_non_primitive() : List&lt;String&gt; [*]</text><ellipse cx="18" cy="713.6985" fill="#84BE84" rx="3" ry="3" style="stroke:#038048;stroke-width:1;"/><text fill="#808080" font-family="sans-serif" font-size="14" lengthAdjust="spacing" textLength="216.0192" x="27" y="717.5605">supplier_closure() : List&lt;String&gt; [*]</text><ellipse cx="18" cy="730.4984" fill="#84BE84" rx="3" ry="3" style="stroke:#038048;stroke-width:1;"/><text fill="#808080" font-family="sans-serif" font-size="14" lengthAdjust="spacing" textLength="160.7754" x="27" y="734.3604">package_path() : String [1]</text><ellipse cx="18" cy="747.2984" fill="#84BE84" rx="3" ry="3" style="stroke:#038048;stroke-width:1;"/><text fill="#808080" font-family="sans-serif" font-size="14" lengthAdjust="spacing" textLength="140.1535" x="27" y="751.1603">class_path() : String [1]</text><ellipse cx="18" cy="764.0983" fill="#84BE84" rx="3" ry="3" style="stroke:#038048;stroke-width:1;"/><text fill="#808080" font-family="sans-serif" font-size="14" lengthAdjust="spacing" textLength="160.1734" x="27" y="767.9603">is_primitive() : Boolean [1]</text><ellipse cx="18" cy="780.8982" fill="#84BE84" rx="3" ry="3" style="stroke:#038048;stroke-width:1;"/><text fill="#808080" font-family="sans-serif" font-size="14" lengthAdjust="spacing" textLength="155.7354" x="27" y="784.7602">is_abstract() : Boolean [1]</text><ellipse cx="18" cy="797.6981" fill="#84BE84" rx="3" ry="3" style="stroke:#038048;stroke-width:1;"/><text fill="#808080" font-family="sans-serif" font-size="14" lengthAdjust="spacing" textLength="273.5169" x="27" y="801.5601">features() : List&lt;BMM_CLASS_FEATURE&gt; [*]</text><ellipse cx="18" cy="814.4981" fill="#84BE84" rx="3" ry="3" style="stroke:#038048;stroke-width:1;"/><text fill="#808080" font-family="sans-serif" font-size="14" lengthAdjust="spacing" textLength="301.3908" x="27" y="818.36">flat_features() : List&lt;BMM_CLASS_FEATURE&gt; [*]</text><ellipse cx="18" cy="831.298" fill="#84BE84" rx="3" ry="3" style="stroke:#038048;stroke-width:1;"/><text fill="#808080" font-family="sans-serif" font-size="14" lengthAdjust="spacing" textLength="276.6809" x="27" y="835.16">flat_properties() : List&lt;BMM_PROPERTY&gt; [*]</text></g><!--class BMM_MODULE--><g class="entity" data-entity="BMM_MODULE" data-source-line="37" data-uid="ent0004" id="entity_BMM_MODULE"><rect fill="#F5F5F5" height="64.7999" rx="2.5" ry="2.5" style="stroke:#808080;stroke-width:1;stroke-dasharray:1,3;" width="178.6554" x="92.78" y="199"/><ellipse cx="130.0594" cy="215" fill="#A9DCDF" rx="11" ry="11" style="stroke:#181818;stroke-width:1;"/><path d="M124.575,220.5 L126.6063,220.5 L130.6532,209.1563 L129.7469,209.1563 L133.575,220.5 L135.7157,220.5 L131.3875,208.1719 L129.1688,208.1719 L124.575,220.5 Z M126.9032,217 L133.3407,217 L133.3407,215.25 L126.9032,215.25 L126.9032,217 Z " fill="#000000"/><text fill="#808080" font-family="sans-serif" font-size="14" font-style="italic" lengthAdjust="spacing" textLength="97.1456" x="149.0104" y="220.362">BMM_MODULE</text><line style="stroke:#808080;stroke-width:1;stroke-dasharray:1,3;" x1="93.78" x2="270.4354" y1="231" y2="231"/><ellipse cx="103.78" cy="244.9" fill="none" rx="3" ry="3" style="stroke:#038048;stroke-width:1;"/><text fill="#808080" font-family="sans-serif" font-size="14" lengthAdjust="spacing" textLength="152.6554" x="112.78" y="248.7619">scope : BMM_MODEL [1]</text><line style="stroke:#808080;stroke-width:1;stroke-dasharray:1,3;" x1="93.78" x2="270.4354" y1="255.7999" y2="255.7999"/></g><!--class BMM_DECLARATION--><g class="entity" data-entity="BMM_DECLARATION" data-source-line="41" data-uid="ent0005" id="entity_BMM_DECLARATION"><rect fill="#F5F5F5" height="131.9996" rx="2.5" ry="2.5" style="stroke:#808080;stroke-width:1;stroke-dasharray:1,3;" width="277.285" x="43.47" y="7"/><ellipse cx="111.2998" cy="23" fill="#A9DCDF" rx="11" ry="11" style="stroke:#181818;stroke-width:1;"/><path d="M105.8154,28.5 L107.8467,28.5 L111.8935,17.1563 L110.9873,17.1563 L114.8154,28.5 L116.956,28.5 L112.6279,16.1719 L110.4092,16.1719 L105.8154,28.5 Z M108.1435,25 L114.581,25 L114.581,23.25 L108.1435,23.25 L108.1435,25 Z " fill="#000000"/><text fill="#808080" font-family="sans-serif" font-size="14" font-style="italic" lengthAdjust="spacing" textLength="133.1255" x="131.7998" y="28.362">BMM_DECLARATION</text><line style="stroke:#808080;stroke-width:1;stroke-dasharray:1,3;" x1="44.47" x2="319.755" y1="39" y2="39"/><ellipse cx="54.47" cy="52.9" fill="none" rx="3" ry="3" style="stroke:#038048;stroke-width:1;"/><text fill="#808080" font-family="sans-serif" font-size="14" lengthAdjust="spacing" textLength="100.8836" x="63.47" y="56.7619">name : String [1]</text><ellipse cx="54.47" cy="69.6999" fill="none" rx="3" ry="3" style="stroke:#038048;stroke-width:1;"/><text fill="#808080" font-family="sans-serif" font-size="14" lengthAdjust="spacing" textLength="251.285" x="63.47" y="73.5619">documentation : Hash&lt;String,Any&gt; [0..1]</text><ellipse cx="54.47" cy="86.4998" fill="none" rx="3" ry="3" style="stroke:#038048;stroke-width:1;"/><text fill="#808080" font-family="sans-serif" font-size="14" lengthAdjust="spacing" textLength="198.0292" x="63.47" y="90.3618">scope : BMM_DECLARATION [1]</text><ellipse cx="54.47" cy="103.2997" fill="none" rx="3" ry="3" style="stroke:#038048;stroke-width:1;"/><text fill="#808080" font-family="sans-serif" font-size="14" lengthAdjust="spacing" textLength="223.3411" x="63.47" y="107.1617">extensions : Hash&lt;String,Any&gt; [0..1]</text><line style="stroke:#808080;stroke-width:1;stroke-dasharray:1,3;" x1="44.47" x2="319.755" y1="114.1997" y2="114.1997"/><ellipse cx="54.47" cy="128.0997" fill="#84BE84" rx="3" ry="3" style="stroke:#038048;stroke-width:1;"/><text fill="#808080" font-family="sans-serif" font-size="14" lengthAdjust="spacing" textLength="174.5653" x="63.47" y="131.9616">is_root_scope() : Boolean [1]</text></g><!--reverse link BMM_DECLARATION to BMM_MODULE--><g class="link" data-entity-1="BMM_DECLARATION" data-entity-2="BMM_MODULE" data-source-line="49" data-uid="lnk6" id="link_BMM_DECLARATION_BMM_MODULE"><path codeLine="49" d="M182.11,157.42 C182.11,177.85 182.11,181.47 182.11,198.5" fill="none" id="BMM_DECLARATION-backto-BMM_MODULE" style="stroke:#181818;stroke-width:1;"/><polygon fill="none" points="182.11,139.42,176.11,157.42,188.11,157.42,182.11,139.42" style="stroke:#181818;stroke-width:1;"/></g><!--reverse link BMM_MODULE to BMM_CLASS--><g class="link" data-entity-1="BMM_MODULE" data-entity-2="BMM_CLASS" data-source-line="51" data-uid="lnk7" id="link_BMM_MODULE_BMM_CLASS"><path codeLine="51" d="M182.11,282.04 C182.11,297.76 182.11,300.34 182.11,323.48" fill="none" id="BMM_MODULE-backto-BMM_CLASS" style="stroke:#181818;stroke-width:1;"/><polygon fill="none" points="182.11,264.04,176.11,282.04,188.11,282.04,182.11,264.04" style="stroke:#181818;stroke-width:1;"/></g><!--reverse link BMM_CLASS to BMM_SIMPLE_CLASS--><g class="link" data-entity-1="BMM_CLASS" data-entity-2="BMM_SIMPLE_CLASS" data-source-line="53" data-uid="lnk8" id="link_BMM_CLASS_BMM_SIMPLE_CLASS"><path codeLine="53" d="M182.11,860.66 C182.11,883.79 182.11,886.35 182.11,902.05" fill="none" id="BMM_CLASS-backto-BMM_SIMPLE_CLASS" style="stroke:#181818;stroke-width:1;"/><polygon fill="none" points="182.11,842.66,176.11,860.66,188.11,860.66,182.11,842.66" style="stroke:#181818;stroke-width:1;"/></g></g></svg>
