<svg xmlns="http://www.w3.org/2000/svg" xmlns:xlink="http://www.w3.org/1999/xlink" contentStyleType="text/css" data-diagram-type="CLASS" height="294px" preserveAspectRatio="none" style="width:300px;height:294px;background:#FFFFFF;" version="1.1" viewBox="0 0 300 294" width="300px" zoomAndPan="magnify"><defs/><g><!--class BMM_STATEMENT_BLOCK--><g class="entity" data-entity="BMM_STATEMENT_BLOCK" data-source-line="2" data-uid="ent0002" id="entity_BMM_STATEMENT_BLOCK"><rect fill="#F1F1F1" height="64.7999" rx="2.5" ry="2.5" style="stroke:#181818;stroke-width:0.5;" width="286.1889" x="7" y="223"/><ellipse cx="60.7878" cy="239" fill="#ADD1B2" rx="11" ry="11" style="stroke:#181818;stroke-width:1;"/><path d="M60.7878,245.4219 C61.9597,245.4219 63.1941,245.1563 64.5691,244.5469 L64.0847,243.0313 C62.9909,243.4531 61.9753,243.6406 61.1159,243.6406 C58.3972,243.6406 56.6784,241.7969 56.6784,238.8906 C56.6784,236.1406 58.2409,234.5469 60.9753,234.5469 C61.8972,234.5469 62.9128,234.7344 64.0534,235.1563 L64.6316,233.6406 C63.5378,233.0625 62.2409,232.7656 61.0534,232.7656 C57.2878,232.7656 54.7097,235.4063 54.7097,239.2188 C54.7097,242.8906 57.1941,245.4219 60.7878,245.4219 Z " fill="#000000"/><text fill="#000000" font-family="sans-serif" font-size="14" lengthAdjust="spacing" textLength="170.1133" x="81.2878" y="244.362">BMM_STATEMENT_BLOCK</text><line style="stroke:#181818;stroke-width:0.5;" x1="8" x2="292.1889" y1="255" y2="255"/><ellipse cx="18" cy="268.9" fill="none" rx="3" ry="3" style="stroke:#038048;stroke-width:1;"/><text fill="#000000" font-family="sans-serif" font-size="14" lengthAdjust="spacing" textLength="260.1889" x="27" y="272.7619">items : List&lt;BMM_STATEMENT_ITEM&gt; [*]</text><line style="stroke:#181818;stroke-width:0.5;" x1="8" x2="292.1889" y1="279.7999" y2="279.7999"/></g><!--class BMM_STATEMENT_ITEM--><g class="entity" data-entity="BMM_STATEMENT_ITEM" data-source-line="6" data-uid="ent0003" id="entity_BMM_STATEMENT_ITEM"><rect fill="#F5F5F5" height="48" rx="2.5" ry="2.5" style="stroke:#808080;stroke-width:1;stroke-dasharray:1,3;" width="189.8914" x="55.15" y="115"/><ellipse cx="70.15" cy="131" fill="#A9DCDF" rx="11" ry="11" style="stroke:#181818;stroke-width:1;"/><path d="M64.6656,136.5 L66.6969,136.5 L70.7438,125.1563 L69.8375,125.1563 L73.6656,136.5 L75.8063,136.5 L71.4781,124.1719 L69.2594,124.1719 L64.6656,136.5 Z M66.9938,133 L73.4313,133 L73.4313,131.25 L66.9938,131.25 L66.9938,133 Z " fill="#000000"/><text fill="#808080" font-family="sans-serif" font-size="14" font-style="italic" lengthAdjust="spacing" textLength="157.8914" x="84.15" y="136.362">BMM_STATEMENT_ITEM</text><line style="stroke:#808080;stroke-width:1;stroke-dasharray:1,3;" x1="56.15" x2="244.0414" y1="147" y2="147"/><line style="stroke:#808080;stroke-width:1;stroke-dasharray:1,3;" x1="56.15" x2="244.0414" y1="155" y2="155"/></g><!--class BMM_ROUTINE_BODY--><g class="entity" data-entity="BMM_ROUTINE_BODY" data-source-line="9" data-uid="ent0004" id="entity_BMM_ROUTINE_BODY"><rect fill="#F5F5F5" height="48" rx="2.5" ry="2.5" style="stroke:#808080;stroke-width:1;stroke-dasharray:1,3;" width="175.4574" x="62.37" y="7"/><ellipse cx="77.37" cy="23" fill="#A9DCDF" rx="11" ry="11" style="stroke:#181818;stroke-width:1;"/><path d="M71.8856,28.5 L73.9169,28.5 L77.9638,17.1563 L77.0575,17.1563 L80.8856,28.5 L83.0263,28.5 L78.6981,16.1719 L76.4794,16.1719 L71.8856,28.5 Z M74.2138,25 L80.6513,25 L80.6513,23.25 L74.2138,23.25 L74.2138,25 Z " fill="#000000"/><text fill="#808080" font-family="sans-serif" font-size="14" font-style="italic" lengthAdjust="spacing" textLength="143.4574" x="91.37" y="28.362">BMM_ROUTINE_BODY</text><line style="stroke:#808080;stroke-width:1;stroke-dasharray:1,3;" x1="63.37" x2="236.8274" y1="39" y2="39"/><line style="stroke:#808080;stroke-width:1;stroke-dasharray:1,3;" x1="63.37" x2="236.8274" y1="47" y2="47"/></g><!--reverse link BMM_ROUTINE_BODY to BMM_STATEMENT_ITEM--><g class="link" data-entity-1="BMM_ROUTINE_BODY" data-entity-2="BMM_STATEMENT_ITEM" data-source-line="12" data-uid="lnk5" id="link_BMM_ROUTINE_BODY_BMM_STATEMENT_ITEM"><path codeLine="12" d="M150.09,73.26 C150.09,90.94 150.09,97.13 150.09,114.79" fill="none" id="BMM_ROUTINE_BODY-backto-BMM_STATEMENT_ITEM" style="stroke:#181818;stroke-width:1;"/><polygon fill="none" points="150.09,55.26,144.09,73.26,156.09,73.26,150.09,55.26" style="stroke:#181818;stroke-width:1;"/></g><!--reverse link BMM_STATEMENT_ITEM to BMM_STATEMENT_BLOCK--><g class="link" data-entity-1="BMM_STATEMENT_ITEM" data-entity-2="BMM_STATEMENT_BLOCK" data-source-line="14" data-uid="lnk6" id="link_BMM_STATEMENT_ITEM_BMM_STATEMENT_BLOCK"><path codeLine="14" d="M150.09,181.43 C150.09,198.55 150.09,203.97 150.09,222.76" fill="none" id="BMM_STATEMENT_ITEM-backto-BMM_STATEMENT_BLOCK" style="stroke:#181818;stroke-width:1;"/><polygon fill="none" points="150.09,163.43,144.09,181.43,156.09,181.43,150.09,163.43" style="stroke:#181818;stroke-width:1;"/></g></g></svg>
