<svg xmlns="http://www.w3.org/2000/svg" xmlns:xlink="http://www.w3.org/1999/xlink" contentStyleType="text/css" data-diagram-type="CLASS" height="688px" preserveAspectRatio="none" style="width:407px;height:688px;background:#FFFFFF;" version="1.1" viewBox="0 0 407 688" width="407px" zoomAndPan="magnify"><defs/><g><!--class BMM_ROUTINE--><g class="entity" data-entity="BMM_ROUTINE" data-source-line="2" data-uid="ent0002" id="entity_BMM_ROUTINE"><rect fill="#F1F1F1" height="165.5995" rx="2.5" ry="2.5" style="stroke:#181818;stroke-width:0.5;" width="306.4749" x="50.57" y="515.8"/><ellipse cx="150.0957" cy="531.8" fill="#A9DCDF" rx="11" ry="11" style="stroke:#181818;stroke-width:1;"/><path d="M144.6113,537.3 L146.6425,537.3 L150.6894,525.9563 L149.7832,525.9563 L153.6113,537.3 L155.7519,537.3 L151.4238,524.9719 L149.205,524.9719 L144.6113,537.3 Z M146.9394,533.8 L153.3769,533.8 L153.3769,532.05 L146.9394,532.05 L146.9394,533.8 Z " fill="#000000"/><text fill="#000000" font-family="sans-serif" font-size="14" font-style="italic" lengthAdjust="spacing" textLength="98.9236" x="170.5957" y="537.162">BMM_ROUTINE</text><line style="stroke:#181818;stroke-width:0.5;" x1="51.57" x2="356.0449" y1="547.8" y2="547.8"/><ellipse cx="61.57" cy="561.7" fill="none" rx="3" ry="3" style="stroke:#038048;stroke-width:1;"/><text fill="#000000" font-family="sans-serif" font-size="14" lengthAdjust="spacing" textLength="258.4529" x="70.57" y="565.5619">parameters : List&lt;BMM_PARAMETER&gt; [*]</text><ellipse cx="61.57" cy="578.4999" fill="none" rx="3" ry="3" style="stroke:#038048;stroke-width:1;"/><text fill="#000000" font-family="sans-serif" font-size="14" lengthAdjust="spacing" textLength="185.9052" x="70.57" y="582.3619">locals : List&lt;BMM_LOCAL&gt; [*]</text><ellipse cx="61.57" cy="595.2998" fill="none" rx="3" ry="3" style="stroke:#038048;stroke-width:1;"/><text fill="#000000" font-family="sans-serif" font-size="14" lengthAdjust="spacing" textLength="273.6569" x="70.57" y="599.1618">pre_conditions : List&lt;BMM_ASSERTION&gt; [*]</text><ellipse cx="61.57" cy="612.0997" fill="none" rx="3" ry="3" style="stroke:#038048;stroke-width:1;"/><text fill="#000000" font-family="sans-serif" font-size="14" lengthAdjust="spacing" textLength="280.4749" x="70.57" y="615.9617">post_conditions : List&lt;BMM_ASSERTION&gt; [*]</text><ellipse cx="61.57" cy="628.8997" fill="none" rx="3" ry="3" style="stroke:#038048;stroke-width:1;"/><text fill="#000000" font-family="sans-serif" font-size="14" lengthAdjust="spacing" textLength="218.3851" x="70.57" y="632.7616">body : BMM_ROUTINE_BODY [0..1]</text><line style="stroke:#181818;stroke-width:0.5;" x1="51.57" x2="356.0449" y1="639.7996" y2="639.7996"/><ellipse cx="61.57" cy="653.6996" fill="#84BE84" rx="3" ry="3" style="stroke:#038048;stroke-width:1;"/><text fill="#000000" font-family="sans-serif" font-size="14" lengthAdjust="spacing" textLength="109.4096" x="70.57" y="657.5616">arity() : Integer [1]</text><ellipse cx="61.57" cy="670.4995" fill="#84BE84" rx="3" ry="3" style="stroke:#038048;stroke-width:1;"/><text fill="#000000" font-family="sans-serif" font-size="14" lengthAdjust="spacing" textLength="95.5356" x="70.57" y="674.3615">signature() :  [1]</text></g><!--class BMM_CLASS_FEATURE--><g class="entity" data-entity="BMM_CLASS_FEATURE" data-source-line="12" data-uid="ent0003" id="entity_BMM_CLASS_FEATURE"><rect fill="#F5F5F5" height="115.1997" rx="2.5" ry="2.5" style="stroke:#808080;stroke-width:1;stroke-dasharray:1,3;" width="393.6245" x="7" y="340.6"/><ellipse cx="126.4475" cy="356.6" fill="#A9DCDF" rx="11" ry="11" style="stroke:#181818;stroke-width:1;"/><path d="M120.9631,362.1 L122.9944,362.1 L127.0413,350.7562 L126.135,350.7562 L129.9631,362.1 L132.1038,362.1 L127.7756,349.7719 L125.5569,349.7719 L120.9631,362.1 Z M123.2913,358.6 L129.7288,358.6 L129.7288,356.85 L123.2913,356.85 L123.2913,358.6 Z " fill="#000000"/><text fill="#808080" font-family="sans-serif" font-size="14" font-style="italic" lengthAdjust="spacing" textLength="146.2294" x="146.9475" y="361.962">BMM_CLASS_FEATURE</text><line style="stroke:#808080;stroke-width:1;stroke-dasharray:1,3;" x1="8" x2="399.6245" y1="372.6" y2="372.6"/><ellipse cx="18" cy="386.5" fill="none" rx="3" ry="3" style="stroke:#038048;stroke-width:1;"/><text fill="#808080" font-family="sans-serif" font-size="14" lengthAdjust="spacing" textLength="145.1374" x="27" y="390.3619">scope : BMM_CLASS [1]</text><ellipse cx="18" cy="403.2999" fill="none" rx="3" ry="3" style="stroke:#038048;stroke-width:1;"/><text fill="#808080" font-family="sans-serif" font-size="14" lengthAdjust="spacing" textLength="197.9032" x="27" y="407.1619">visibility : BMM_VISIBILITY [0..1]</text><ellipse cx="18" cy="420.0998" fill="none" rx="3" ry="3" style="stroke:#038048;stroke-width:1;"/><text fill="#808080" font-family="sans-serif" font-size="14" lengthAdjust="spacing" textLength="367.6245" x="27" y="423.9618">feature_extensions : List&lt;BMM_FEATURE_EXTENSION&gt; [*]</text><ellipse cx="18" cy="436.8997" fill="none" rx="3" ry="3" style="stroke:#038048;stroke-width:1;"/><text fill="#808080" font-family="sans-serif" font-size="14" lengthAdjust="spacing" textLength="218.3991" x="27" y="440.7617">group : BMM_FEATURE_GROUP [1]</text><line style="stroke:#808080;stroke-width:1;stroke-dasharray:1,3;" x1="8" x2="399.6245" y1="447.7997" y2="447.7997"/></g><!--class BMM_CLASS_ENTITY--><g class="entity" data-entity="BMM_CLASS_ENTITY" data-source-line="19" data-uid="ent0004" id="entity_BMM_CLASS_ENTITY"><rect fill="#F5F5F5" height="81.5999" rx="2.5" ry="2.5" style="stroke:#808080;stroke-width:1;stroke-dasharray:1,3;" width="264.643" x="71.49" y="199"/><ellipse cx="132.7538" cy="215" fill="#A9DCDF" rx="11" ry="11" style="stroke:#181818;stroke-width:1;"/><path d="M127.2694,220.5 L129.3007,220.5 L133.3475,209.1563 L132.4413,209.1563 L136.2694,220.5 L138.41,220.5 L134.0819,208.1719 L131.8632,208.1719 L127.2694,220.5 Z M129.5975,217 L136.035,217 L136.035,215.25 L129.5975,215.25 L129.5975,217 Z " fill="#000000"/><text fill="#808080" font-family="sans-serif" font-size="14" font-style="italic" lengthAdjust="spacing" textLength="133.6155" x="153.2538" y="220.362">BMM_CLASS_ENTITY</text><line style="stroke:#808080;stroke-width:1;stroke-dasharray:1,3;" x1="72.49" x2="335.133" y1="231" y2="231"/><ellipse cx="82.49" cy="244.9" fill="none" rx="3" ry="3" style="stroke:#038048;stroke-width:1;"/><text fill="#808080" font-family="sans-serif" font-size="14" lengthAdjust="spacing" textLength="238.643" x="91.49" y="248.7619">is_synthesised_generic : Boolean [0..1]</text><line style="stroke:#808080;stroke-width:1;stroke-dasharray:1,3;" x1="72.49" x2="335.133" y1="255.7999" y2="255.7999"/><ellipse cx="82.49" cy="269.6999" fill="#84BE84" rx="3" ry="3" style="stroke:#038048;stroke-width:1;"/><text fill="#808080" font-family="sans-serif" font-size="14" font-style="italic" lengthAdjust="spacing" textLength="210.3352" x="91.49" y="273.5619">signature() : BMM_SIGNATURE [1]</text></g><!--class BMM_DECLARATION--><g class="entity" data-entity="BMM_DECLARATION" data-source-line="24" data-uid="ent0005" id="entity_BMM_DECLARATION"><rect fill="#F5F5F5" height="131.9996" rx="2.5" ry="2.5" style="stroke:#808080;stroke-width:1;stroke-dasharray:1,3;" width="277.285" x="65.17" y="7"/><ellipse cx="132.9998" cy="23" fill="#A9DCDF" rx="11" ry="11" style="stroke:#181818;stroke-width:1;"/><path d="M127.5154,28.5 L129.5467,28.5 L133.5935,17.1563 L132.6873,17.1563 L136.5154,28.5 L138.656,28.5 L134.3279,16.1719 L132.1092,16.1719 L127.5154,28.5 Z M129.8435,25 L136.281,25 L136.281,23.25 L129.8435,23.25 L129.8435,25 Z " fill="#000000"/><text fill="#808080" font-family="sans-serif" font-size="14" font-style="italic" lengthAdjust="spacing" textLength="133.1255" x="153.4998" y="28.362">BMM_DECLARATION</text><line style="stroke:#808080;stroke-width:1;stroke-dasharray:1,3;" x1="66.17" x2="341.455" y1="39" y2="39"/><ellipse cx="76.17" cy="52.9" fill="none" rx="3" ry="3" style="stroke:#038048;stroke-width:1;"/><text fill="#808080" font-family="sans-serif" font-size="14" lengthAdjust="spacing" textLength="100.8836" x="85.17" y="56.7619">name : String [1]</text><ellipse cx="76.17" cy="69.6999" fill="none" rx="3" ry="3" style="stroke:#038048;stroke-width:1;"/><text fill="#808080" font-family="sans-serif" font-size="14" lengthAdjust="spacing" textLength="251.285" x="85.17" y="73.5619">documentation : Hash&lt;String,Any&gt; [0..1]</text><ellipse cx="76.17" cy="86.4998" fill="none" rx="3" ry="3" style="stroke:#038048;stroke-width:1;"/><text fill="#808080" font-family="sans-serif" font-size="14" lengthAdjust="spacing" textLength="198.0292" x="85.17" y="90.3618">scope : BMM_DECLARATION [1]</text><ellipse cx="76.17" cy="103.2997" fill="none" rx="3" ry="3" style="stroke:#038048;stroke-width:1;"/><text fill="#808080" font-family="sans-serif" font-size="14" lengthAdjust="spacing" textLength="223.3411" x="85.17" y="107.1617">extensions : Hash&lt;String,Any&gt; [0..1]</text><line style="stroke:#808080;stroke-width:1;stroke-dasharray:1,3;" x1="66.17" x2="341.455" y1="114.1997" y2="114.1997"/><ellipse cx="76.17" cy="128.0997" fill="#84BE84" rx="3" ry="3" style="stroke:#038048;stroke-width:1;"/><text fill="#808080" font-family="sans-serif" font-size="14" lengthAdjust="spacing" textLength="174.5653" x="85.17" y="131.9616">is_root_scope() : Boolean [1]</text></g><!--reverse link BMM_DECLARATION to BMM_CLASS_ENTITY--><g class="link" data-entity-1="BMM_DECLARATION" data-entity-2="BMM_CLASS_ENTITY" data-source-line="32" data-uid="lnk6" id="link_BMM_DECLARATION_BMM_CLASS_ENTITY"><path codeLine="32" d="M203.81,157.13 C203.81,177.29 203.81,180.88 203.81,198.8" fill="none" id="BMM_DECLARATION-backto-BMM_CLASS_ENTITY" style="stroke:#181818;stroke-width:1;"/><polygon fill="none" points="203.81,139.13,197.81,157.13,209.81,157.13,203.81,139.13" style="stroke:#181818;stroke-width:1;"/></g><!--reverse link BMM_CLASS_ENTITY to BMM_CLASS_FEATURE--><g class="link" data-entity-1="BMM_CLASS_ENTITY" data-entity-2="BMM_CLASS_FEATURE" data-source-line="34" data-uid="lnk7" id="link_BMM_CLASS_ENTITY_BMM_CLASS_FEATURE"><path codeLine="34" d="M203.81,299.08 C203.81,317.09 203.81,320.64 203.81,340.26" fill="none" id="BMM_CLASS_ENTITY-backto-BMM_CLASS_FEATURE" style="stroke:#181818;stroke-width:1;"/><polygon fill="none" points="203.81,281.08,197.81,299.08,209.81,299.08,203.81,281.08" style="stroke:#181818;stroke-width:1;"/></g><!--reverse link BMM_CLASS_FEATURE to BMM_ROUTINE--><g class="link" data-entity-1="BMM_CLASS_FEATURE" data-entity-2="BMM_ROUTINE" data-source-line="36" data-uid="lnk8" id="link_BMM_CLASS_FEATURE_BMM_ROUTINE"><path codeLine="36" d="M203.81,474.05 C203.81,492.6 203.81,495.59 203.81,515.6" fill="none" id="BMM_CLASS_FEATURE-backto-BMM_ROUTINE" style="stroke:#181818;stroke-width:1;"/><polygon fill="none" points="203.81,456.05,197.81,474.05,209.81,474.05,203.81,456.05" style="stroke:#181818;stroke-width:1;"/></g></g></svg>
