<svg xmlns="http://www.w3.org/2000/svg" xmlns:xlink="http://www.w3.org/1999/xlink" contentStyleType="text/css" data-diagram-type="CLASS" height="337px" preserveAspectRatio="none" style="width:475px;height:337px;background:#FFFFFF;" version="1.1" viewBox="0 0 475 337" width="475px" zoomAndPan="magnify"><defs/><g><!--class BMM_PACKAGE_CONTAINER--><g class="entity" data-entity="BMM_PACKAGE_CONTAINER" data-source-line="2" data-uid="ent0002" id="entity_BMM_PACKAGE_CONTAINER"><rect fill="#F1F1F1" height="131.9996" rx="2.5" ry="2.5" style="stroke:#181818;stroke-width:0.5;" width="461.4402" x="7" y="199"/><ellipse cx="140.3005" cy="215" fill="#A9DCDF" rx="11" ry="11" style="stroke:#181818;stroke-width:1;"/><path d="M134.8161,220.5 L136.8474,220.5 L140.8943,209.1563 L139.988,209.1563 L143.8161,220.5 L145.9568,220.5 L141.6286,208.1719 L139.4099,208.1719 L134.8161,220.5 Z M137.1443,217 L143.5818,217 L143.5818,215.25 L137.1443,215.25 L137.1443,217 Z " fill="#000000"/><text fill="#000000" font-family="sans-serif" font-size="14" font-style="italic" lengthAdjust="spacing" textLength="186.3392" x="160.8005" y="220.362">BMM_PACKAGE_CONTAINER</text><line style="stroke:#181818;stroke-width:0.5;" x1="8" x2="467.4402" y1="231" y2="231"/><ellipse cx="18" cy="244.9" fill="none" rx="3" ry="3" style="stroke:#038048;stroke-width:1;"/><text fill="#000000" font-family="sans-serif" font-size="14" lengthAdjust="spacing" textLength="292.3608" x="27" y="248.7619">packages : Hash&lt;String,BMM_PACKAGE&gt; [0..1]</text><ellipse cx="18" cy="261.6999" fill="none" rx="3" ry="3" style="stroke:#038048;stroke-width:1;"/><text fill="#000000" font-family="sans-serif" font-size="14" lengthAdjust="spacing" textLength="251.243" x="27" y="265.5619">scope : BMM_PACKAGE_CONTAINER [1]</text><line style="stroke:#181818;stroke-width:0.5;" x1="8" x2="467.4402" y1="272.5999" y2="272.5999"/><ellipse cx="18" cy="286.4998" fill="#84BE84" rx="3" ry="3" style="stroke:#038048;stroke-width:1;"/><text fill="#000000" font-family="sans-serif" font-size="14" lengthAdjust="spacing" textLength="374.1766" x="27" y="290.3618">package_at_path( a_path : String [1] ) : BMM_PACKAGE [0..1]</text><ellipse cx="18" cy="303.2997" fill="#84BE84" rx="3" ry="3" style="stroke:#038048;stroke-width:1;"/><text fill="#000000" font-family="sans-serif" font-size="14" lengthAdjust="spacing" textLength="435.4402" x="27" y="307.1617">do_recursive_packages( action : EL_PROCEDURE_AGENT [1] ) : void [1]</text><ellipse cx="18" cy="320.0997" fill="#84BE84" rx="3" ry="3" style="stroke:#038048;stroke-width:1;"/><text fill="#000000" font-family="sans-serif" font-size="14" lengthAdjust="spacing" textLength="317.4908" x="27" y="323.9616">has_package_path( a_path : String [1] ) : Boolean [1]</text></g><!--class BMM_DECLARATION--><g class="entity" data-entity="BMM_DECLARATION" data-source-line="10" data-uid="ent0003" id="entity_BMM_DECLARATION"><rect fill="#F5F5F5" height="131.9996" rx="2.5" ry="2.5" style="stroke:#808080;stroke-width:1;stroke-dasharray:1,3;" width="277.285" x="99.08" y="7"/><ellipse cx="166.9098" cy="23" fill="#A9DCDF" rx="11" ry="11" style="stroke:#181818;stroke-width:1;"/><path d="M161.4254,28.5 L163.4567,28.5 L167.5035,17.1563 L166.5973,17.1563 L170.4254,28.5 L172.566,28.5 L168.2379,16.1719 L166.0192,16.1719 L161.4254,28.5 Z M163.7535,25 L170.191,25 L170.191,23.25 L163.7535,23.25 L163.7535,25 Z " fill="#000000"/><text fill="#808080" font-family="sans-serif" font-size="14" font-style="italic" lengthAdjust="spacing" textLength="133.1255" x="187.4098" y="28.362">BMM_DECLARATION</text><line style="stroke:#808080;stroke-width:1;stroke-dasharray:1,3;" x1="100.08" x2="375.365" y1="39" y2="39"/><ellipse cx="110.08" cy="52.9" fill="none" rx="3" ry="3" style="stroke:#038048;stroke-width:1;"/><text fill="#808080" font-family="sans-serif" font-size="14" lengthAdjust="spacing" textLength="100.8836" x="119.08" y="56.7619">name : String [1]</text><ellipse cx="110.08" cy="69.6999" fill="none" rx="3" ry="3" style="stroke:#038048;stroke-width:1;"/><text fill="#808080" font-family="sans-serif" font-size="14" lengthAdjust="spacing" textLength="251.285" x="119.08" y="73.5619">documentation : Hash&lt;String,Any&gt; [0..1]</text><ellipse cx="110.08" cy="86.4998" fill="none" rx="3" ry="3" style="stroke:#038048;stroke-width:1;"/><text fill="#808080" font-family="sans-serif" font-size="14" lengthAdjust="spacing" textLength="198.0292" x="119.08" y="90.3618">scope : BMM_DECLARATION [1]</text><ellipse cx="110.08" cy="103.2997" fill="none" rx="3" ry="3" style="stroke:#038048;stroke-width:1;"/><text fill="#808080" font-family="sans-serif" font-size="14" lengthAdjust="spacing" textLength="223.3411" x="119.08" y="107.1617">extensions : Hash&lt;String,Any&gt; [0..1]</text><line style="stroke:#808080;stroke-width:1;stroke-dasharray:1,3;" x1="100.08" x2="375.365" y1="114.1997" y2="114.1997"/><ellipse cx="110.08" cy="128.0997" fill="#84BE84" rx="3" ry="3" style="stroke:#038048;stroke-width:1;"/><text fill="#808080" font-family="sans-serif" font-size="14" lengthAdjust="spacing" textLength="174.5653" x="119.08" y="131.9616">is_root_scope() : Boolean [1]</text></g><!--reverse link BMM_DECLARATION to BMM_PACKAGE_CONTAINER--><g class="link" data-entity-1="BMM_DECLARATION" data-entity-2="BMM_PACKAGE_CONTAINER" data-source-line="18" data-uid="lnk4" id="link_BMM_DECLARATION_BMM_PACKAGE_CONTAINER"><path codeLine="18" d="M237.72,157.39 C237.72,176.6 237.72,179.61 237.72,198.81" fill="none" id="BMM_DECLARATION-backto-BMM_PACKAGE_CONTAINER" style="stroke:#181818;stroke-width:1;"/><polygon fill="none" points="237.72,139.39,231.72,157.39,243.72,157.39,237.72,139.39" style="stroke:#181818;stroke-width:1;"/></g></g></svg>
