<svg xmlns="http://www.w3.org/2000/svg" xmlns:xlink="http://www.w3.org/1999/xlink" contentStyleType="text/css" data-diagram-type="CLASS" height="527px" preserveAspectRatio="none" style="width:411px;height:527px;background:#FFFFFF;" version="1.1" viewBox="0 0 411 527" width="411px" zoomAndPan="magnify"><defs/><g><!--class BMM_PROCEDURE_CALL--><g class="entity" data-entity="BMM_PROCEDURE_CALL" data-source-line="2" data-uid="ent0002" id="entity_BMM_PROCEDURE_CALL"><rect fill="#F1F1F1" height="64.7999" rx="2.5" ry="2.5" style="stroke:#181818;stroke-width:0.5;" width="245.7011" x="71.01" y="455.8"/><ellipse cx="110.255" cy="471.8" fill="#ADD1B2" rx="11" ry="11" style="stroke:#181818;stroke-width:1;"/><path d="M110.255,478.2219 C111.4269,478.2219 112.6612,477.9563 114.0362,477.3469 L113.5519,475.8313 C112.4581,476.2531 111.4425,476.4406 110.5831,476.4406 C107.8644,476.4406 106.1456,474.5969 106.1456,471.6906 C106.1456,468.9406 107.7081,467.3469 110.4425,467.3469 C111.3644,467.3469 112.38,467.5344 113.5206,467.9563 L114.0987,466.4406 C113.005,465.8625 111.7081,465.5656 110.5206,465.5656 C106.755,465.5656 104.1769,468.2063 104.1769,472.0188 C104.1769,475.6906 106.6612,478.2219 110.255,478.2219 Z " fill="#000000"/><text fill="#000000" font-family="sans-serif" font-size="14" lengthAdjust="spacing" textLength="159.8233" x="129.6428" y="477.162">BMM_PROCEDURE_CALL</text><line style="stroke:#181818;stroke-width:0.5;" x1="72.01" x2="315.7111" y1="487.8" y2="487.8"/><ellipse cx="82.01" cy="501.7" fill="none" rx="3" ry="3" style="stroke:#038048;stroke-width:1;"/><text fill="#000000" font-family="sans-serif" font-size="14" lengthAdjust="spacing" textLength="219.7011" x="91.01" y="505.5619">agent : EL_PROCEDURE_AGENT [1]</text><line style="stroke:#181818;stroke-width:0.5;" x1="72.01" x2="315.7111" y1="512.5999" y2="512.5999"/></g><!--class EL_AGENT_CALL--><g class="entity" data-entity="EL_AGENT_CALL" data-source-line="6" data-uid="ent0003" id="entity_EL_AGENT_CALL"><rect fill="#F5F5F5" height="64.7999" rx="2.5" ry="2.5" style="stroke:#808080;stroke-width:1;stroke-dasharray:1,3;" width="157.7115" x="7" y="331"/><ellipse cx="30.6022" cy="347" fill="#A9DCDF" rx="11" ry="11" style="stroke:#181818;stroke-width:1;"/><path d="M25.1178,352.5 L27.149,352.5 L31.1959,341.1563 L30.2897,341.1563 L34.1178,352.5 L36.2584,352.5 L31.9303,340.1719 L29.7115,340.1719 L25.1178,352.5 Z M27.4459,349 L33.8834,349 L33.8834,347.25 L27.4459,347.25 L27.4459,349 Z " fill="#000000"/><text fill="#808080" font-family="sans-serif" font-size="14" font-style="italic" lengthAdjust="spacing" textLength="106.5956" x="46.5137" y="352.362">EL_AGENT_CALL</text><line style="stroke:#808080;stroke-width:1;stroke-dasharray:1,3;" x1="8" x2="163.7115" y1="363" y2="363"/><ellipse cx="18" cy="376.9" fill="none" rx="3" ry="3" style="stroke:#038048;stroke-width:1;"/><text fill="#808080" font-family="sans-serif" font-size="14" lengthAdjust="spacing" textLength="131.7115" x="27" y="380.7619">agent : EL_AGENT [1]</text><line style="stroke:#808080;stroke-width:1;stroke-dasharray:1,3;" x1="8" x2="163.7115" y1="387.7999" y2="387.7999"/></g><!--class BMM_SIMPLE_STATEMENT--><g class="entity" data-entity="BMM_SIMPLE_STATEMENT" data-source-line="12" data-uid="ent0005" id="entity_BMM_SIMPLE_STATEMENT"><rect fill="#F5F5F5" height="48" rx="2.5" ry="2.5" style="stroke:#808080;stroke-width:1;stroke-dasharray:1,3;" width="205.0533" x="199.33" y="339.4"/><ellipse cx="214.33" cy="355.4" fill="#A9DCDF" rx="11" ry="11" style="stroke:#181818;stroke-width:1;"/><path d="M208.8456,360.9 L210.8769,360.9 L214.9238,349.5563 L214.0175,349.5563 L217.8456,360.9 L219.9863,360.9 L215.6581,348.5719 L213.4394,348.5719 L208.8456,360.9 Z M211.1738,357.4 L217.6113,357.4 L217.6113,355.65 L211.1738,355.65 L211.1738,357.4 Z " fill="#000000"/><text fill="#808080" font-family="sans-serif" font-size="14" font-style="italic" lengthAdjust="spacing" textLength="173.0533" x="228.33" y="360.762">BMM_SIMPLE_STATEMENT</text><line style="stroke:#808080;stroke-width:1;stroke-dasharray:1,3;" x1="200.33" x2="403.3833" y1="371.4" y2="371.4"/><line style="stroke:#808080;stroke-width:1;stroke-dasharray:1,3;" x1="200.33" x2="403.3833" y1="379.4" y2="379.4"/></g><!--class BMM_STATEMENT--><g class="entity" data-entity="BMM_STATEMENT" data-source-line="15" data-uid="ent0006" id="entity_BMM_STATEMENT"><rect fill="#F5F5F5" height="48" rx="2.5" ry="2.5" style="stroke:#808080;stroke-width:1;stroke-dasharray:1,3;" width="151.0275" x="226.34" y="223"/><ellipse cx="241.34" cy="239" fill="#A9DCDF" rx="11" ry="11" style="stroke:#181818;stroke-width:1;"/><path d="M235.8556,244.5 L237.8869,244.5 L241.9338,233.1563 L241.0275,233.1563 L244.8556,244.5 L246.9963,244.5 L242.6681,232.1719 L240.4494,232.1719 L235.8556,244.5 Z M238.1838,241 L244.6213,241 L244.6213,239.25 L238.1838,239.25 L238.1838,241 Z " fill="#000000"/><text fill="#808080" font-family="sans-serif" font-size="14" font-style="italic" lengthAdjust="spacing" textLength="119.0275" x="255.34" y="244.362">BMM_STATEMENT</text><line style="stroke:#808080;stroke-width:1;stroke-dasharray:1,3;" x1="227.34" x2="376.3675" y1="255" y2="255"/><line style="stroke:#808080;stroke-width:1;stroke-dasharray:1,3;" x1="227.34" x2="376.3675" y1="263" y2="263"/></g><!--class BMM_STATEMENT_ITEM--><g class="entity" data-entity="BMM_STATEMENT_ITEM" data-source-line="18" data-uid="ent0007" id="entity_BMM_STATEMENT_ITEM"><rect fill="#F5F5F5" height="48" rx="2.5" ry="2.5" style="stroke:#808080;stroke-width:1;stroke-dasharray:1,3;" width="189.8914" x="206.91" y="115"/><ellipse cx="221.91" cy="131" fill="#A9DCDF" rx="11" ry="11" style="stroke:#181818;stroke-width:1;"/><path d="M216.4256,136.5 L218.4569,136.5 L222.5038,125.1563 L221.5975,125.1563 L225.4256,136.5 L227.5663,136.5 L223.2381,124.1719 L221.0194,124.1719 L216.4256,136.5 Z M218.7538,133 L225.1913,133 L225.1913,131.25 L218.7538,131.25 L218.7538,133 Z " fill="#000000"/><text fill="#808080" font-family="sans-serif" font-size="14" font-style="italic" lengthAdjust="spacing" textLength="157.8914" x="235.91" y="136.362">BMM_STATEMENT_ITEM</text><line style="stroke:#808080;stroke-width:1;stroke-dasharray:1,3;" x1="207.91" x2="395.8014" y1="147" y2="147"/><line style="stroke:#808080;stroke-width:1;stroke-dasharray:1,3;" x1="207.91" x2="395.8014" y1="155" y2="155"/></g><!--class BMM_ROUTINE_BODY--><g class="entity" data-entity="BMM_ROUTINE_BODY" data-source-line="21" data-uid="ent0008" id="entity_BMM_ROUTINE_BODY"><rect fill="#F5F5F5" height="48" rx="2.5" ry="2.5" style="stroke:#808080;stroke-width:1;stroke-dasharray:1,3;" width="175.4574" x="214.13" y="7"/><ellipse cx="229.13" cy="23" fill="#A9DCDF" rx="11" ry="11" style="stroke:#181818;stroke-width:1;"/><path d="M223.6456,28.5 L225.6769,28.5 L229.7238,17.1563 L228.8175,17.1563 L232.6456,28.5 L234.7863,28.5 L230.4581,16.1719 L228.2394,16.1719 L223.6456,28.5 Z M225.9738,25 L232.4113,25 L232.4113,23.25 L225.9738,23.25 L225.9738,25 Z " fill="#000000"/><text fill="#808080" font-family="sans-serif" font-size="14" font-style="italic" lengthAdjust="spacing" textLength="143.4574" x="243.13" y="28.362">BMM_ROUTINE_BODY</text><line style="stroke:#808080;stroke-width:1;stroke-dasharray:1,3;" x1="215.13" x2="388.5874" y1="39" y2="39"/><line style="stroke:#808080;stroke-width:1;stroke-dasharray:1,3;" x1="215.13" x2="388.5874" y1="47" y2="47"/></g><!--reverse link EL_AGENT_CALL to BMM_PROCEDURE_CALL--><g class="link" data-entity-1="EL_AGENT_CALL" data-entity-2="BMM_PROCEDURE_CALL" data-source-line="10" data-uid="lnk4" id="link_EL_AGENT_CALL_BMM_PROCEDURE_CALL"><path codeLine="10" d="M125.5533,409.5399 C141.6733,427.8799 150.03,437.37 166.14,455.68" fill="none" id="EL_AGENT_CALL-backto-BMM_PROCEDURE_CALL" style="stroke:#181818;stroke-width:1;"/><polygon fill="none" points="113.67,396.02,121.0467,413.501,130.0599,405.5788,113.67,396.02" style="stroke:#181818;stroke-width:1;"/></g><!--reverse link BMM_ROUTINE_BODY to BMM_STATEMENT_ITEM--><g class="link" data-entity-1="BMM_ROUTINE_BODY" data-entity-2="BMM_STATEMENT_ITEM" data-source-line="24" data-uid="lnk9" id="link_BMM_ROUTINE_BODY_BMM_STATEMENT_ITEM"><path codeLine="24" d="M301.86,73.26 C301.86,90.94 301.86,97.13 301.86,114.79" fill="none" id="BMM_ROUTINE_BODY-backto-BMM_STATEMENT_ITEM" style="stroke:#181818;stroke-width:1;"/><polygon fill="none" points="301.86,55.26,295.86,73.26,307.86,73.26,301.86,55.26" style="stroke:#181818;stroke-width:1;"/></g><!--reverse link BMM_STATEMENT_ITEM to BMM_STATEMENT--><g class="link" data-entity-1="BMM_STATEMENT_ITEM" data-entity-2="BMM_STATEMENT" data-source-line="26" data-uid="lnk10" id="link_BMM_STATEMENT_ITEM_BMM_STATEMENT"><path codeLine="26" d="M301.86,181.26 C301.86,198.94 301.86,205.13 301.86,222.79" fill="none" id="BMM_STATEMENT_ITEM-backto-BMM_STATEMENT" style="stroke:#181818;stroke-width:1;"/><polygon fill="none" points="301.86,163.26,295.86,181.26,307.86,181.26,301.86,163.26" style="stroke:#181818;stroke-width:1;"/></g><!--reverse link BMM_STATEMENT to BMM_SIMPLE_STATEMENT--><g class="link" data-entity-1="BMM_STATEMENT" data-entity-2="BMM_SIMPLE_STATEMENT" data-source-line="28" data-uid="lnk11" id="link_BMM_STATEMENT_BMM_SIMPLE_STATEMENT"><path codeLine="28" d="M301.86,289.43 C301.86,309.17 301.86,319.27 301.86,339" fill="none" id="BMM_STATEMENT-backto-BMM_SIMPLE_STATEMENT" style="stroke:#181818;stroke-width:1;"/><polygon fill="none" points="301.86,271.43,295.86,289.43,307.86,289.43,301.86,271.43" style="stroke:#181818;stroke-width:1;"/></g><!--reverse link BMM_SIMPLE_STATEMENT to BMM_PROCEDURE_CALL--><g class="link" data-entity-1="BMM_SIMPLE_STATEMENT" data-entity-2="BMM_PROCEDURE_CALL" data-source-line="30" data-uid="lnk12" id="link_BMM_SIMPLE_STATEMENT_BMM_PROCEDURE_CALL"><path codeLine="30" d="M269.4011,401.3049 C252.5111,420.5049 240.31,434.38 221.69,455.55" fill="none" id="BMM_SIMPLE_STATEMENT-backto-BMM_PROCEDURE_CALL" style="stroke:#181818;stroke-width:1;"/><polygon fill="none" points="281.29,387.79,264.8961,397.342,273.9061,405.2679,281.29,387.79" style="stroke:#181818;stroke-width:1;"/></g></g></svg>
