<svg xmlns="http://www.w3.org/2000/svg" xmlns:xlink="http://www.w3.org/1999/xlink" contentStyleType="text/css" data-diagram-type="CLASS" height="402px" preserveAspectRatio="none" style="width:345px;height:402px;background:#FFFFFF;" version="1.1" viewBox="0 0 345 402" width="345px" zoomAndPan="magnify"><defs/><g><!--class BMM_ACTION_TABLE--><g class="entity" data-entity="BMM_ACTION_TABLE" data-source-line="2" data-uid="ent0002" id="entity_BMM_ACTION_TABLE"><rect fill="#F1F1F1" height="64.7999" rx="2.5" ry="2.5" style="stroke:#181818;stroke-width:0.5;" width="331.3668" x="7" y="331"/><ellipse cx="99.3157" cy="347" fill="#ADD1B2" rx="11" ry="11" style="stroke:#181818;stroke-width:1;"/><path d="M99.3157,353.4219 C100.4875,353.4219 101.7219,353.1563 103.0969,352.5469 L102.6125,351.0313 C101.5188,351.4531 100.5032,351.6406 99.6438,351.6406 C96.925,351.6406 95.2063,349.7969 95.2063,346.8906 C95.2063,344.1406 96.7688,342.5469 99.5032,342.5469 C100.425,342.5469 101.4407,342.7344 102.5813,343.1563 L103.1594,341.6406 C102.0657,341.0625 100.7688,340.7656 99.5813,340.7656 C95.8157,340.7656 93.2375,343.4063 93.2375,347.2188 C93.2375,350.8906 95.7219,353.4219 99.3157,353.4219 Z " fill="#000000"/><text fill="#000000" font-family="sans-serif" font-size="14" lengthAdjust="spacing" textLength="138.2354" x="119.8157" y="352.362">BMM_ACTION_TABLE</text><line style="stroke:#181818;stroke-width:0.5;" x1="8" x2="337.3668" y1="363" y2="363"/><ellipse cx="18" cy="376.9" fill="none" rx="3" ry="3" style="stroke:#038048;stroke-width:1;"/><text fill="#000000" font-family="sans-serif" font-size="14" lengthAdjust="spacing" textLength="305.3668" x="27" y="380.7619">items : List&lt;BMM_CONDITIONAL_ACTION&gt; [1..*]</text><line style="stroke:#181818;stroke-width:0.5;" x1="8" x2="337.3668" y1="387.7999" y2="387.7999"/></g><!--class BMM_STATEMENT--><g class="entity" data-entity="BMM_STATEMENT" data-source-line="6" data-uid="ent0003" id="entity_BMM_STATEMENT"><rect fill="#F5F5F5" height="48" rx="2.5" ry="2.5" style="stroke:#808080;stroke-width:1;stroke-dasharray:1,3;" width="151.0275" x="97.17" y="223"/><ellipse cx="112.17" cy="239" fill="#A9DCDF" rx="11" ry="11" style="stroke:#181818;stroke-width:1;"/><path d="M106.6856,244.5 L108.7169,244.5 L112.7638,233.1563 L111.8575,233.1563 L115.6856,244.5 L117.8263,244.5 L113.4981,232.1719 L111.2794,232.1719 L106.6856,244.5 Z M109.0138,241 L115.4513,241 L115.4513,239.25 L109.0138,239.25 L109.0138,241 Z " fill="#000000"/><text fill="#808080" font-family="sans-serif" font-size="14" font-style="italic" lengthAdjust="spacing" textLength="119.0275" x="126.17" y="244.362">BMM_STATEMENT</text><line style="stroke:#808080;stroke-width:1;stroke-dasharray:1,3;" x1="98.17" x2="247.1975" y1="255" y2="255"/><line style="stroke:#808080;stroke-width:1;stroke-dasharray:1,3;" x1="98.17" x2="247.1975" y1="263" y2="263"/></g><!--class BMM_STATEMENT_ITEM--><g class="entity" data-entity="BMM_STATEMENT_ITEM" data-source-line="9" data-uid="ent0004" id="entity_BMM_STATEMENT_ITEM"><rect fill="#F5F5F5" height="48" rx="2.5" ry="2.5" style="stroke:#808080;stroke-width:1;stroke-dasharray:1,3;" width="189.8914" x="77.74" y="115"/><ellipse cx="92.74" cy="131" fill="#A9DCDF" rx="11" ry="11" style="stroke:#181818;stroke-width:1;"/><path d="M87.2556,136.5 L89.2869,136.5 L93.3338,125.1563 L92.4275,125.1563 L96.2556,136.5 L98.3963,136.5 L94.0681,124.1719 L91.8494,124.1719 L87.2556,136.5 Z M89.5838,133 L96.0213,133 L96.0213,131.25 L89.5838,131.25 L89.5838,133 Z " fill="#000000"/><text fill="#808080" font-family="sans-serif" font-size="14" font-style="italic" lengthAdjust="spacing" textLength="157.8914" x="106.74" y="136.362">BMM_STATEMENT_ITEM</text><line style="stroke:#808080;stroke-width:1;stroke-dasharray:1,3;" x1="78.74" x2="266.6314" y1="147" y2="147"/><line style="stroke:#808080;stroke-width:1;stroke-dasharray:1,3;" x1="78.74" x2="266.6314" y1="155" y2="155"/></g><!--class BMM_ROUTINE_BODY--><g class="entity" data-entity="BMM_ROUTINE_BODY" data-source-line="12" data-uid="ent0005" id="entity_BMM_ROUTINE_BODY"><rect fill="#F5F5F5" height="48" rx="2.5" ry="2.5" style="stroke:#808080;stroke-width:1;stroke-dasharray:1,3;" width="175.4574" x="84.95" y="7"/><ellipse cx="99.95" cy="23" fill="#A9DCDF" rx="11" ry="11" style="stroke:#181818;stroke-width:1;"/><path d="M94.4656,28.5 L96.4969,28.5 L100.5438,17.1563 L99.6375,17.1563 L103.4656,28.5 L105.6063,28.5 L101.2781,16.1719 L99.0594,16.1719 L94.4656,28.5 Z M96.7938,25 L103.2313,25 L103.2313,23.25 L96.7938,23.25 L96.7938,25 Z " fill="#000000"/><text fill="#808080" font-family="sans-serif" font-size="14" font-style="italic" lengthAdjust="spacing" textLength="143.4574" x="113.95" y="28.362">BMM_ROUTINE_BODY</text><line style="stroke:#808080;stroke-width:1;stroke-dasharray:1,3;" x1="85.95" x2="259.4074" y1="39" y2="39"/><line style="stroke:#808080;stroke-width:1;stroke-dasharray:1,3;" x1="85.95" x2="259.4074" y1="47" y2="47"/></g><!--reverse link BMM_ROUTINE_BODY to BMM_STATEMENT_ITEM--><g class="link" data-entity-1="BMM_ROUTINE_BODY" data-entity-2="BMM_STATEMENT_ITEM" data-source-line="15" data-uid="lnk6" id="link_BMM_ROUTINE_BODY_BMM_STATEMENT_ITEM"><path codeLine="15" d="M172.68,73.26 C172.68,90.94 172.68,97.13 172.68,114.79" fill="none" id="BMM_ROUTINE_BODY-backto-BMM_STATEMENT_ITEM" style="stroke:#181818;stroke-width:1;"/><polygon fill="none" points="172.68,55.26,166.68,73.26,178.68,73.26,172.68,55.26" style="stroke:#181818;stroke-width:1;"/></g><!--reverse link BMM_STATEMENT_ITEM to BMM_STATEMENT--><g class="link" data-entity-1="BMM_STATEMENT_ITEM" data-entity-2="BMM_STATEMENT" data-source-line="17" data-uid="lnk7" id="link_BMM_STATEMENT_ITEM_BMM_STATEMENT"><path codeLine="17" d="M172.68,181.26 C172.68,198.94 172.68,205.13 172.68,222.79" fill="none" id="BMM_STATEMENT_ITEM-backto-BMM_STATEMENT" style="stroke:#181818;stroke-width:1;"/><polygon fill="none" points="172.68,163.26,166.68,181.26,178.68,181.26,172.68,163.26" style="stroke:#181818;stroke-width:1;"/></g><!--reverse link BMM_STATEMENT to BMM_ACTION_TABLE--><g class="link" data-entity-1="BMM_STATEMENT" data-entity-2="BMM_ACTION_TABLE" data-source-line="19" data-uid="lnk8" id="link_BMM_STATEMENT_BMM_ACTION_TABLE"><path codeLine="19" d="M172.68,289.43 C172.68,306.55 172.68,311.97 172.68,330.76" fill="none" id="BMM_STATEMENT-backto-BMM_ACTION_TABLE" style="stroke:#181818;stroke-width:1;"/><polygon fill="none" points="172.68,271.43,166.68,289.43,178.68,289.43,172.68,271.43" style="stroke:#181818;stroke-width:1;"/></g></g></svg>
