<svg xmlns="http://www.w3.org/2000/svg" xmlns:xlink="http://www.w3.org/1999/xlink" contentStyleType="text/css" data-diagram-type="CLASS" height="1024px" preserveAspectRatio="none" style="width:476px;height:1024px;background:#FFFFFF;" version="1.1" viewBox="0 0 476 1024" width="476px" zoomAndPan="magnify"><defs/><g><!--class BMM_GENERIC_CLASS--><g class="entity" data-entity="BMM_GENERIC_CLASS" data-source-line="2" data-uid="ent0002" id="entity_BMM_GENERIC_CLASS"><rect fill="#F1F1F1" height="115.1997" rx="2.5" ry="2.5" style="stroke:#181818;stroke-width:0.5;" width="462.7004" x="7" y="902.2"/><ellipse cx="161.3285" cy="918.2" fill="#ADD1B2" rx="11" ry="11" style="stroke:#181818;stroke-width:1;"/><path d="M161.3285,924.6219 C162.5004,924.6219 163.7347,924.3562 165.1097,923.7469 L164.6254,922.2312 C163.5316,922.6531 162.516,922.8406 161.6566,922.8406 C158.9379,922.8406 157.2191,920.9969 157.2191,918.0906 C157.2191,915.3406 158.7816,913.7469 161.516,913.7469 C162.4379,913.7469 163.4535,913.9344 164.5941,914.3562 L165.1722,912.8406 C164.0785,912.2625 162.7816,911.9656 161.5941,911.9656 C157.8285,911.9656 155.2504,914.6062 155.2504,918.4187 C155.2504,922.0906 157.7347,924.6219 161.3285,924.6219 Z " fill="#000000"/><text fill="#000000" font-family="sans-serif" font-size="14" lengthAdjust="spacing" textLength="145.5434" x="181.8285" y="923.562">BMM_GENERIC_CLASS</text><line style="stroke:#181818;stroke-width:0.5;" x1="8" x2="468.7004" y1="934.2" y2="934.2"/><ellipse cx="18" cy="948.1" fill="none" rx="3" ry="3" style="stroke:#038048;stroke-width:1;"/><text fill="#000000" font-family="sans-serif" font-size="14" lengthAdjust="spacing" textLength="400.8883" x="27" y="951.9619">generic_parameters : Hash&lt;String,BMM_PARAMETER_TYPE&gt; [1]</text><line style="stroke:#181818;stroke-width:0.5;" x1="8" x2="468.7004" y1="958.9999" y2="958.9999"/><ellipse cx="18" cy="972.8999" fill="#84BE84" rx="3" ry="3" style="stroke:#038048;stroke-width:1;"/><text fill="#000000" font-family="sans-serif" font-size="14" lengthAdjust="spacing" textLength="170.1693" x="27" y="976.7619">suppliers() : List&lt;String&gt; [*]</text><ellipse cx="18" cy="989.6998" fill="#84BE84" rx="3" ry="3" style="stroke:#038048;stroke-width:1;"/><text fill="#000000" font-family="sans-serif" font-size="14" lengthAdjust="spacing" textLength="201.7952" x="27" y="993.5618">type() : BMM_GENERIC_TYPE [1]</text><ellipse cx="18" cy="1006.4997" fill="#84BE84" rx="3" ry="3" style="stroke:#038048;stroke-width:1;"/><text fill="#000000" font-family="sans-serif" font-size="14" lengthAdjust="spacing" textLength="436.7004" x="27" y="1010.3617">generic_parameter_conformance_type( a_name : String [1] ) : String [1]</text></g><!--class BMM_CLASS--><g class="entity" data-entity="BMM_CLASS" data-source-line="9" data-uid="ent0003" id="entity_BMM_CLASS"><rect fill="#F5F5F5" height="518.3979" rx="2.5" ry="2.5" style="stroke:#808080;stroke-width:1;stroke-dasharray:1,3;" width="350.2247" x="63.24" y="323.8"/><ellipse cx="193.9855" cy="339.8" fill="#A9DCDF" rx="11" ry="11" style="stroke:#181818;stroke-width:1;"/><path d="M188.5011,345.3 L190.5324,345.3 L194.5793,333.9562 L193.673,333.9562 L197.5011,345.3 L199.6418,345.3 L195.3136,332.9719 L193.0949,332.9719 L188.5011,345.3 Z M190.8293,341.8 L197.2668,341.8 L197.2668,340.05 L190.8293,340.05 L190.8293,341.8 Z " fill="#000000"/><text fill="#808080" font-family="sans-serif" font-size="14" font-style="italic" lengthAdjust="spacing" textLength="80.2337" x="214.4855" y="345.162">BMM_CLASS</text><line style="stroke:#808080;stroke-width:1;stroke-dasharray:1,3;" x1="64.24" x2="412.4647" y1="355.8" y2="355.8"/><ellipse cx="74.24" cy="369.7" fill="none" rx="3" ry="3" style="stroke:#038048;stroke-width:1;"/><text fill="#808080" font-family="sans-serif" font-size="14" lengthAdjust="spacing" textLength="165.2414" x="83.24" y="373.5619">ancestors : List&lt;String&gt; [*]</text><ellipse cx="74.24" cy="386.4999" fill="none" rx="3" ry="3" style="stroke:#038048;stroke-width:1;"/><text fill="#808080" font-family="sans-serif" font-size="14" lengthAdjust="spacing" textLength="181.1453" x="83.24" y="390.3619">package : BMM_PACKAGE [1]</text><ellipse cx="74.24" cy="403.2998" fill="none" rx="3" ry="3" style="stroke:#038048;stroke-width:1;"/><text fill="#808080" font-family="sans-serif" font-size="14" lengthAdjust="spacing" textLength="306.1368" x="83.24" y="407.1618">properties : Hash&lt;String,BMM_PROPERTY&gt; [0..1]</text><ellipse cx="74.24" cy="420.0997" fill="none" rx="3" ry="3" style="stroke:#038048;stroke-width:1;"/><text fill="#808080" font-family="sans-serif" font-size="14" lengthAdjust="spacing" textLength="180.7953" x="83.24" y="423.9617">source_schema_id : String [1]</text><ellipse cx="74.24" cy="436.8997" fill="none" rx="3" ry="3" style="stroke:#038048;stroke-width:1;"/><text fill="#808080" font-family="sans-serif" font-size="14" lengthAdjust="spacing" textLength="299.7947" x="83.24" y="440.7616">immediate_descendants : List&lt;BMM_CLASS&gt; [*]</text><ellipse cx="74.24" cy="453.6996" fill="none" rx="3" ry="3" style="stroke:#038048;stroke-width:1;"/><text fill="#808080" font-family="sans-serif" font-size="14" lengthAdjust="spacing" textLength="147.9934" x="83.24" y="457.5616">is_override : Boolean [1]</text><ellipse cx="74.24" cy="470.4995" fill="none" rx="3" ry="3" style="stroke:#038048;stroke-width:1;"/><text fill="#808080" font-family="sans-serif" font-size="14" lengthAdjust="spacing" textLength="306.7808" x="83.24" y="474.3615">constants : Hash&lt;String,BMM_CONSTANT&gt; [0..1]</text><ellipse cx="74.24" cy="487.2995" fill="none" rx="3" ry="3" style="stroke:#038048;stroke-width:1;"/><text fill="#808080" font-family="sans-serif" font-size="14" lengthAdjust="spacing" textLength="300.6628" x="83.24" y="491.1614">functions : Hash&lt;String,BMM_FUNCTION&gt; [0..1]</text><ellipse cx="74.24" cy="504.0994" fill="none" rx="3" ry="3" style="stroke:#038048;stroke-width:1;"/><text fill="#808080" font-family="sans-serif" font-size="14" lengthAdjust="spacing" textLength="324.2247" x="83.24" y="507.9614">procedures : Hash&lt;String,BMM_PROCEDURE&gt; [0..1]</text><ellipse cx="74.24" cy="520.8993" fill="none" rx="3" ry="3" style="stroke:#038048;stroke-width:1;"/><text fill="#808080" font-family="sans-serif" font-size="14" lengthAdjust="spacing" textLength="167.5093" x="83.24" y="524.7613">is_primitive : Boolean [0..1]</text><ellipse cx="74.24" cy="537.6992" fill="none" rx="3" ry="3" style="stroke:#038048;stroke-width:1;"/><text fill="#808080" font-family="sans-serif" font-size="14" lengthAdjust="spacing" textLength="163.0714" x="83.24" y="541.5612">is_abstract : Boolean [0..1]</text><ellipse cx="74.24" cy="554.4992" fill="none" rx="3" ry="3" style="stroke:#038048;stroke-width:1;"/><text fill="#808080" font-family="sans-serif" font-size="14" lengthAdjust="spacing" textLength="241.933" x="83.24" y="558.3611">invariants : List&lt;BMM_ASSERTION&gt; [*]</text><ellipse cx="74.24" cy="571.2991" fill="none" rx="3" ry="3" style="stroke:#038048;stroke-width:1;"/><text fill="#808080" font-family="sans-serif" font-size="14" lengthAdjust="spacing" textLength="156.0854" x="83.24" y="575.1611">creators : List&lt;String&gt; [*]</text><ellipse cx="74.24" cy="588.099" fill="none" rx="3" ry="3" style="stroke:#038048;stroke-width:1;"/><text fill="#808080" font-family="sans-serif" font-size="14" lengthAdjust="spacing" textLength="170.9673" x="83.24" y="591.961">converters : List&lt;String&gt; [*]</text><ellipse cx="74.24" cy="604.8989" fill="none" rx="3" ry="3" style="stroke:#038048;stroke-width:1;"/><text fill="#808080" font-family="sans-serif" font-size="14" lengthAdjust="spacing" textLength="315.7127" x="83.24" y="608.7609">feature_groups : List&lt;BMM_FEATURE_GROUP&gt; [*]</text><line style="stroke:#808080;stroke-width:1;stroke-dasharray:1,3;" x1="64.24" x2="412.4647" y1="615.7989" y2="615.7989"/><ellipse cx="74.24" cy="629.6989" fill="#84BE84" rx="3" ry="3" style="stroke:#038048;stroke-width:1;"/><text fill="#808080" font-family="sans-serif" font-size="14" font-style="italic" lengthAdjust="spacing" textLength="191.3652" x="83.24" y="633.5608">type() : BMM_MODEL_TYPE [1]</text><ellipse cx="74.24" cy="646.4988" fill="#84BE84" rx="3" ry="3" style="stroke:#038048;stroke-width:1;"/><text fill="#808080" font-family="sans-serif" font-size="14" lengthAdjust="spacing" textLength="195.6212" x="83.24" y="650.3608">all_ancestors() : List&lt;String&gt; [*]</text><ellipse cx="74.24" cy="663.2987" fill="#84BE84" rx="3" ry="3" style="stroke:#038048;stroke-width:1;"/><text fill="#808080" font-family="sans-serif" font-size="14" lengthAdjust="spacing" textLength="213.6952" x="83.24" y="667.1607">all_descendants() : List&lt;String&gt; [*]</text><ellipse cx="74.24" cy="680.0986" fill="#84BE84" rx="3" ry="3" style="stroke:#038048;stroke-width:1;"/><text fill="#808080" font-family="sans-serif" font-size="14" lengthAdjust="spacing" textLength="170.1693" x="83.24" y="683.9606">suppliers() : List&lt;String&gt; [*]</text><ellipse cx="74.24" cy="696.8986" fill="#84BE84" rx="3" ry="3" style="stroke:#038048;stroke-width:1;"/><text fill="#808080" font-family="sans-serif" font-size="14" lengthAdjust="spacing" textLength="263.157" x="83.24" y="700.7605">suppliers_non_primitive() : List&lt;String&gt; [*]</text><ellipse cx="74.24" cy="713.6985" fill="#84BE84" rx="3" ry="3" style="stroke:#038048;stroke-width:1;"/><text fill="#808080" font-family="sans-serif" font-size="14" lengthAdjust="spacing" textLength="216.0192" x="83.24" y="717.5605">supplier_closure() : List&lt;String&gt; [*]</text><ellipse cx="74.24" cy="730.4984" fill="#84BE84" rx="3" ry="3" style="stroke:#038048;stroke-width:1;"/><text fill="#808080" font-family="sans-serif" font-size="14" lengthAdjust="spacing" textLength="160.7754" x="83.24" y="734.3604">package_path() : String [1]</text><ellipse cx="74.24" cy="747.2984" fill="#84BE84" rx="3" ry="3" style="stroke:#038048;stroke-width:1;"/><text fill="#808080" font-family="sans-serif" font-size="14" lengthAdjust="spacing" textLength="140.1535" x="83.24" y="751.1603">class_path() : String [1]</text><ellipse cx="74.24" cy="764.0983" fill="#84BE84" rx="3" ry="3" style="stroke:#038048;stroke-width:1;"/><text fill="#808080" font-family="sans-serif" font-size="14" lengthAdjust="spacing" textLength="160.1734" x="83.24" y="767.9603">is_primitive() : Boolean [1]</text><ellipse cx="74.24" cy="780.8982" fill="#84BE84" rx="3" ry="3" style="stroke:#038048;stroke-width:1;"/><text fill="#808080" font-family="sans-serif" font-size="14" lengthAdjust="spacing" textLength="155.7354" x="83.24" y="784.7602">is_abstract() : Boolean [1]</text><ellipse cx="74.24" cy="797.6981" fill="#84BE84" rx="3" ry="3" style="stroke:#038048;stroke-width:1;"/><text fill="#808080" font-family="sans-serif" font-size="14" lengthAdjust="spacing" textLength="273.5169" x="83.24" y="801.5601">features() : List&lt;BMM_CLASS_FEATURE&gt; [*]</text><ellipse cx="74.24" cy="814.4981" fill="#84BE84" rx="3" ry="3" style="stroke:#038048;stroke-width:1;"/><text fill="#808080" font-family="sans-serif" font-size="14" lengthAdjust="spacing" textLength="301.3908" x="83.24" y="818.36">flat_features() : List&lt;BMM_CLASS_FEATURE&gt; [*]</text><ellipse cx="74.24" cy="831.298" fill="#84BE84" rx="3" ry="3" style="stroke:#038048;stroke-width:1;"/><text fill="#808080" font-family="sans-serif" font-size="14" lengthAdjust="spacing" textLength="276.6809" x="83.24" y="835.16">flat_properties() : List&lt;BMM_PROPERTY&gt; [*]</text></g><!--class BMM_MODULE--><g class="entity" data-entity="BMM_MODULE" data-source-line="40" data-uid="ent0004" id="entity_BMM_MODULE"><rect fill="#F5F5F5" height="64.7999" rx="2.5" ry="2.5" style="stroke:#808080;stroke-width:1;stroke-dasharray:1,3;" width="178.6554" x="149.02" y="199"/><ellipse cx="186.2994" cy="215" fill="#A9DCDF" rx="11" ry="11" style="stroke:#181818;stroke-width:1;"/><path d="M180.815,220.5 L182.8463,220.5 L186.8932,209.1563 L185.9869,209.1563 L189.815,220.5 L191.9557,220.5 L187.6275,208.1719 L185.4088,208.1719 L180.815,220.5 Z M183.1432,217 L189.5807,217 L189.5807,215.25 L183.1432,215.25 L183.1432,217 Z " fill="#000000"/><text fill="#808080" font-family="sans-serif" font-size="14" font-style="italic" lengthAdjust="spacing" textLength="97.1456" x="205.2504" y="220.362">BMM_MODULE</text><line style="stroke:#808080;stroke-width:1;stroke-dasharray:1,3;" x1="150.02" x2="326.6754" y1="231" y2="231"/><ellipse cx="160.02" cy="244.9" fill="none" rx="3" ry="3" style="stroke:#038048;stroke-width:1;"/><text fill="#808080" font-family="sans-serif" font-size="14" lengthAdjust="spacing" textLength="152.6554" x="169.02" y="248.7619">scope : BMM_MODEL [1]</text><line style="stroke:#808080;stroke-width:1;stroke-dasharray:1,3;" x1="150.02" x2="326.6754" y1="255.7999" y2="255.7999"/></g><!--class BMM_DECLARATION--><g class="entity" data-entity="BMM_DECLARATION" data-source-line="44" data-uid="ent0005" id="entity_BMM_DECLARATION"><rect fill="#F5F5F5" height="131.9996" rx="2.5" ry="2.5" style="stroke:#808080;stroke-width:1;stroke-dasharray:1,3;" width="277.285" x="99.71" y="7"/><ellipse cx="167.5398" cy="23" fill="#A9DCDF" rx="11" ry="11" style="stroke:#181818;stroke-width:1;"/><path d="M162.0554,28.5 L164.0867,28.5 L168.1335,17.1563 L167.2273,17.1563 L171.0554,28.5 L173.196,28.5 L168.8679,16.1719 L166.6492,16.1719 L162.0554,28.5 Z M164.3835,25 L170.821,25 L170.821,23.25 L164.3835,23.25 L164.3835,25 Z " fill="#000000"/><text fill="#808080" font-family="sans-serif" font-size="14" font-style="italic" lengthAdjust="spacing" textLength="133.1255" x="188.0398" y="28.362">BMM_DECLARATION</text><line style="stroke:#808080;stroke-width:1;stroke-dasharray:1,3;" x1="100.71" x2="375.995" y1="39" y2="39"/><ellipse cx="110.71" cy="52.9" fill="none" rx="3" ry="3" style="stroke:#038048;stroke-width:1;"/><text fill="#808080" font-family="sans-serif" font-size="14" lengthAdjust="spacing" textLength="100.8836" x="119.71" y="56.7619">name : String [1]</text><ellipse cx="110.71" cy="69.6999" fill="none" rx="3" ry="3" style="stroke:#038048;stroke-width:1;"/><text fill="#808080" font-family="sans-serif" font-size="14" lengthAdjust="spacing" textLength="251.285" x="119.71" y="73.5619">documentation : Hash&lt;String,Any&gt; [0..1]</text><ellipse cx="110.71" cy="86.4998" fill="none" rx="3" ry="3" style="stroke:#038048;stroke-width:1;"/><text fill="#808080" font-family="sans-serif" font-size="14" lengthAdjust="spacing" textLength="198.0292" x="119.71" y="90.3618">scope : BMM_DECLARATION [1]</text><ellipse cx="110.71" cy="103.2997" fill="none" rx="3" ry="3" style="stroke:#038048;stroke-width:1;"/><text fill="#808080" font-family="sans-serif" font-size="14" lengthAdjust="spacing" textLength="223.3411" x="119.71" y="107.1617">extensions : Hash&lt;String,Any&gt; [0..1]</text><line style="stroke:#808080;stroke-width:1;stroke-dasharray:1,3;" x1="100.71" x2="375.995" y1="114.1997" y2="114.1997"/><ellipse cx="110.71" cy="128.0997" fill="#84BE84" rx="3" ry="3" style="stroke:#038048;stroke-width:1;"/><text fill="#808080" font-family="sans-serif" font-size="14" lengthAdjust="spacing" textLength="174.5653" x="119.71" y="131.9616">is_root_scope() : Boolean [1]</text></g><!--reverse link BMM_DECLARATION to BMM_MODULE--><g class="link" data-entity-1="BMM_DECLARATION" data-entity-2="BMM_MODULE" data-source-line="52" data-uid="lnk6" id="link_BMM_DECLARATION_BMM_MODULE"><path codeLine="52" d="M238.35,157.42 C238.35,177.85 238.35,181.47 238.35,198.51" fill="none" id="BMM_DECLARATION-backto-BMM_MODULE" style="stroke:#181818;stroke-width:1;"/><polygon fill="none" points="238.35,139.42,232.35,157.42,244.35,157.42,238.35,139.42" style="stroke:#181818;stroke-width:1;"/></g><!--reverse link BMM_MODULE to BMM_CLASS--><g class="link" data-entity-1="BMM_MODULE" data-entity-2="BMM_CLASS" data-source-line="54" data-uid="lnk7" id="link_BMM_MODULE_BMM_CLASS"><path codeLine="54" d="M238.35,282.04 C238.35,297.76 238.35,300.34 238.35,323.48" fill="none" id="BMM_MODULE-backto-BMM_CLASS" style="stroke:#181818;stroke-width:1;"/><polygon fill="none" points="238.35,264.04,232.35,282.04,244.35,282.04,238.35,264.04" style="stroke:#181818;stroke-width:1;"/></g><!--reverse link BMM_CLASS to BMM_GENERIC_CLASS--><g class="link" data-entity-1="BMM_CLASS" data-entity-2="BMM_GENERIC_CLASS" data-source-line="56" data-uid="lnk8" id="link_BMM_CLASS_BMM_GENERIC_CLASS"><path codeLine="56" d="M238.35,860.52 C238.35,882.29 238.35,884.56 238.35,901.87" fill="none" id="BMM_CLASS-backto-BMM_GENERIC_CLASS" style="stroke:#181818;stroke-width:1;"/><polygon fill="none" points="238.35,842.52,232.35,860.52,244.35,860.52,238.35,842.52" style="stroke:#181818;stroke-width:1;"/></g></g></svg>
