<svg xmlns="http://www.w3.org/2000/svg" xmlns:xlink="http://www.w3.org/1999/xlink" contentStyleType="text/css" data-diagram-type="CLASS" height="287px" preserveAspectRatio="none" style="width:291px;height:287px;background:#FFFFFF;" version="1.1" viewBox="0 0 291 287" width="291px" zoomAndPan="magnify"><defs/><g><!--class BMM_CLASS_ENTITY--><g class="entity" data-entity="BMM_CLASS_ENTITY" data-source-line="2" data-uid="ent0002" id="entity_BMM_CLASS_ENTITY"><rect fill="#F1F1F1" height="81.5999" rx="2.5" ry="2.5" style="stroke:#181818;stroke-width:0.5;" width="264.643" x="13.32" y="199"/><ellipse cx="74.5838" cy="215" fill="#A9DCDF" rx="11" ry="11" style="stroke:#181818;stroke-width:1;"/><path d="M69.0994,220.5 L71.1307,220.5 L75.1775,209.1563 L74.2713,209.1563 L78.0994,220.5 L80.24,220.5 L75.9119,208.1719 L73.6932,208.1719 L69.0994,220.5 Z M71.4275,217 L77.865,217 L77.865,215.25 L71.4275,215.25 L71.4275,217 Z " fill="#000000"/><text fill="#000000" font-family="sans-serif" font-size="14" font-style="italic" lengthAdjust="spacing" textLength="133.6155" x="95.0838" y="220.362">BMM_CLASS_ENTITY</text><line style="stroke:#181818;stroke-width:0.5;" x1="14.32" x2="276.963" y1="231" y2="231"/><ellipse cx="24.32" cy="244.9" fill="none" rx="3" ry="3" style="stroke:#038048;stroke-width:1;"/><text fill="#000000" font-family="sans-serif" font-size="14" lengthAdjust="spacing" textLength="238.643" x="33.32" y="248.7619">is_synthesised_generic : Boolean [0..1]</text><line style="stroke:#181818;stroke-width:0.5;" x1="14.32" x2="276.963" y1="255.7999" y2="255.7999"/><ellipse cx="24.32" cy="269.6999" fill="#84BE84" rx="3" ry="3" style="stroke:#038048;stroke-width:1;"/><text fill="#000000" font-family="sans-serif" font-size="14" font-style="italic" lengthAdjust="spacing" textLength="210.3352" x="33.32" y="273.5619">signature() : BMM_SIGNATURE [1]</text></g><!--class BMM_DECLARATION--><g class="entity" data-entity="BMM_DECLARATION" data-source-line="7" data-uid="ent0003" id="entity_BMM_DECLARATION"><rect fill="#F5F5F5" height="131.9996" rx="2.5" ry="2.5" style="stroke:#808080;stroke-width:1;stroke-dasharray:1,3;" width="277.285" x="7" y="7"/><ellipse cx="74.8298" cy="23" fill="#A9DCDF" rx="11" ry="11" style="stroke:#181818;stroke-width:1;"/><path d="M69.3454,28.5 L71.3767,28.5 L75.4235,17.1563 L74.5173,17.1563 L78.3454,28.5 L80.486,28.5 L76.1579,16.1719 L73.9392,16.1719 L69.3454,28.5 Z M71.6735,25 L78.111,25 L78.111,23.25 L71.6735,23.25 L71.6735,25 Z " fill="#000000"/><text fill="#808080" font-family="sans-serif" font-size="14" font-style="italic" lengthAdjust="spacing" textLength="133.1255" x="95.3298" y="28.362">BMM_DECLARATION</text><line style="stroke:#808080;stroke-width:1;stroke-dasharray:1,3;" x1="8" x2="283.285" y1="39" y2="39"/><ellipse cx="18" cy="52.9" fill="none" rx="3" ry="3" style="stroke:#038048;stroke-width:1;"/><text fill="#808080" font-family="sans-serif" font-size="14" lengthAdjust="spacing" textLength="100.8836" x="27" y="56.7619">name : String [1]</text><ellipse cx="18" cy="69.6999" fill="none" rx="3" ry="3" style="stroke:#038048;stroke-width:1;"/><text fill="#808080" font-family="sans-serif" font-size="14" lengthAdjust="spacing" textLength="251.285" x="27" y="73.5619">documentation : Hash&lt;String,Any&gt; [0..1]</text><ellipse cx="18" cy="86.4998" fill="none" rx="3" ry="3" style="stroke:#038048;stroke-width:1;"/><text fill="#808080" font-family="sans-serif" font-size="14" lengthAdjust="spacing" textLength="198.0292" x="27" y="90.3618">scope : BMM_DECLARATION [1]</text><ellipse cx="18" cy="103.2997" fill="none" rx="3" ry="3" style="stroke:#038048;stroke-width:1;"/><text fill="#808080" font-family="sans-serif" font-size="14" lengthAdjust="spacing" textLength="223.3411" x="27" y="107.1617">extensions : Hash&lt;String,Any&gt; [0..1]</text><line style="stroke:#808080;stroke-width:1;stroke-dasharray:1,3;" x1="8" x2="283.285" y1="114.1997" y2="114.1997"/><ellipse cx="18" cy="128.0997" fill="#84BE84" rx="3" ry="3" style="stroke:#038048;stroke-width:1;"/><text fill="#808080" font-family="sans-serif" font-size="14" lengthAdjust="spacing" textLength="174.5653" x="27" y="131.9616">is_root_scope() : Boolean [1]</text></g><!--reverse link BMM_DECLARATION to BMM_CLASS_ENTITY--><g class="link" data-entity-1="BMM_DECLARATION" data-entity-2="BMM_CLASS_ENTITY" data-source-line="15" data-uid="lnk4" id="link_BMM_DECLARATION_BMM_CLASS_ENTITY"><path codeLine="15" d="M145.64,157.13 C145.64,177.29 145.64,180.88 145.64,198.8" fill="none" id="BMM_DECLARATION-backto-BMM_CLASS_ENTITY" style="stroke:#181818;stroke-width:1;"/><polygon fill="none" points="145.64,139.13,139.64,157.13,151.64,157.13,145.64,139.13" style="stroke:#181818;stroke-width:1;"/></g></g></svg>
