<svg xmlns="http://www.w3.org/2000/svg" xmlns:xlink="http://www.w3.org/1999/xlink" contentStyleType="text/css" data-diagram-type="CLASS" height="362px" preserveAspectRatio="none" style="width:198px;height:362px;background:#FFFFFF;" version="1.1" viewBox="0 0 198 362" width="198px" zoomAndPan="magnify"><defs/><g><!--class BMM_INTERVAL_VALUE--><g class="entity" data-entity="BMM_INTERVAL_VALUE" data-source-line="2" data-uid="ent0002" id="entity_BMM_INTERVAL_VALUE"><rect fill="#F1F1F1" height="48" rx="2.5" ry="2.5" style="stroke:#181818;stroke-width:0.5;" width="184.0394" x="7" y="307"/><ellipse cx="22" cy="323" fill="#ADD1B2" rx="11" ry="11" style="stroke:#181818;stroke-width:1;"/><path d="M22,329.4219 C23.1719,329.4219 24.4063,329.1563 25.7813,328.5469 L25.2969,327.0313 C24.2031,327.4531 23.1875,327.6406 22.3281,327.6406 C19.6094,327.6406 17.8906,325.7969 17.8906,322.8906 C17.8906,320.1406 19.4531,318.5469 22.1875,318.5469 C23.1094,318.5469 24.125,318.7344 25.2656,319.1563 L25.8438,317.6406 C24.75,317.0625 23.4531,316.7656 22.2656,316.7656 C18.5,316.7656 15.9219,319.4063 15.9219,323.2188 C15.9219,326.8906 18.4063,329.4219 22,329.4219 Z " fill="#000000"/><text fill="#000000" font-family="sans-serif" font-size="14" lengthAdjust="spacing" textLength="152.0394" x="36" y="328.362">BMM_INTERVAL_VALUE</text><line style="stroke:#181818;stroke-width:0.5;" x1="8" x2="190.0394" y1="339" y2="339"/><line style="stroke:#181818;stroke-width:0.5;" x1="8" x2="190.0394" y1="347" y2="347"/></g><!--class BMM_LITERAL_VALUE--><g class="entity" data-entity="BMM_LITERAL_VALUE" data-source-line="5" data-uid="ent0003" id="entity_BMM_LITERAL_VALUE"><rect fill="#F5F5F5" height="98.3998" rx="2.5" ry="2.5" style="stroke:#808080;stroke-width:1;stroke-dasharray:1,3;" width="172.1814" x="12.93" y="148.6"/><ellipse cx="27.93" cy="164.6" fill="#A9DCDF" rx="11" ry="11" style="stroke:#181818;stroke-width:1;"/><path d="M22.4456,170.1 L24.4769,170.1 L28.5238,158.7563 L27.6175,158.7563 L31.4456,170.1 L33.5863,170.1 L29.2581,157.7719 L27.0394,157.7719 L22.4456,170.1 Z M24.7738,166.6 L31.2113,166.6 L31.2113,164.85 L24.7738,164.85 L24.7738,166.6 Z " fill="#000000"/><text fill="#808080" font-family="sans-serif" font-size="14" font-style="italic" lengthAdjust="spacing" textLength="140.1814" x="41.93" y="169.962">BMM_LITERAL_VALUE</text><line style="stroke:#808080;stroke-width:1;stroke-dasharray:1,3;" x1="13.93" x2="184.1114" y1="180.6" y2="180.6"/><ellipse cx="23.93" cy="194.5" fill="none" rx="3" ry="3" style="stroke:#038048;stroke-width:1;"/><text fill="#808080" font-family="sans-serif" font-size="14" lengthAdjust="spacing" textLength="142.0854" x="32.93" y="198.3619">value_literal : String [1]</text><ellipse cx="23.93" cy="211.2999" fill="none" rx="3" ry="3" style="stroke:#038048;stroke-width:1;"/><text fill="#808080" font-family="sans-serif" font-size="14" lengthAdjust="spacing" textLength="100.7156" x="32.93" y="215.1619">value : Any [0..1]</text><ellipse cx="23.93" cy="228.0998" fill="none" rx="3" ry="3" style="stroke:#038048;stroke-width:1;"/><text fill="#808080" font-family="sans-serif" font-size="14" lengthAdjust="spacing" textLength="121.6875" x="32.93" y="231.9618">syntax : String [0..1]</text><line style="stroke:#808080;stroke-width:1;stroke-dasharray:1,3;" x1="13.93" x2="184.1114" y1="238.9998" y2="238.9998"/></g><!--class BMM_TYPED--><g class="entity" data-entity="BMM_TYPED" data-source-line="11" data-uid="ent0004" id="entity_BMM_TYPED"><rect fill="#F5F5F5" height="81.5999" rx="2.5" ry="2.5" style="stroke:#808080;stroke-width:1;stroke-dasharray:1,3;" width="181.2454" x="8.4" y="7"/><ellipse cx="53.6199" cy="23" fill="#A9DCDF" rx="11" ry="11" style="stroke:#181818;stroke-width:1;"/><path d="M48.1355,28.5 L50.1667,28.5 L54.2136,17.1563 L53.3074,17.1563 L57.1355,28.5 L59.2761,28.5 L54.948,16.1719 L52.7292,16.1719 L48.1355,28.5 Z M50.4636,25 L56.9011,25 L56.9011,23.25 L50.4636,23.25 L50.4636,25 Z " fill="#000000"/><text fill="#808080" font-family="sans-serif" font-size="14" font-style="italic" lengthAdjust="spacing" textLength="82.3057" x="74.1199" y="28.362">BMM_TYPED</text><line style="stroke:#808080;stroke-width:1;stroke-dasharray:1,3;" x1="9.4" x2="188.6454" y1="39" y2="39"/><ellipse cx="19.4" cy="52.9" fill="none" rx="3" ry="3" style="stroke:#038048;stroke-width:1;"/><text fill="#808080" font-family="sans-serif" font-size="14" lengthAdjust="spacing" textLength="128.0575" x="28.4" y="56.7619">type : BMM_TYPE [1]</text><line style="stroke:#808080;stroke-width:1;stroke-dasharray:1,3;" x1="9.4" x2="188.6454" y1="63.7999" y2="63.7999"/><ellipse cx="19.4" cy="77.6999" fill="#84BE84" rx="3" ry="3" style="stroke:#038048;stroke-width:1;"/><text fill="#808080" font-family="sans-serif" font-size="14" lengthAdjust="spacing" textLength="155.2454" x="28.4" y="81.5619">is_boolean() : Boolean [1]</text></g><!--reverse link BMM_TYPED to BMM_LITERAL_VALUE--><g class="link" data-entity-1="BMM_TYPED" data-entity-2="BMM_LITERAL_VALUE" data-source-line="16" data-uid="lnk5" id="link_BMM_TYPED_BMM_LITERAL_VALUE"><path codeLine="16" d="M99.02,106.85 C99.02,125.17 99.02,129.04 99.02,148.28" fill="none" id="BMM_TYPED-backto-BMM_LITERAL_VALUE" style="stroke:#181818;stroke-width:1;"/><polygon fill="none" points="99.02,88.85,93.02,106.85,105.02,106.85,99.02,88.85" style="stroke:#181818;stroke-width:1;"/></g><!--reverse link BMM_LITERAL_VALUE to BMM_INTERVAL_VALUE--><g class="link" data-entity-1="BMM_LITERAL_VALUE" data-entity-2="BMM_INTERVAL_VALUE" data-source-line="18" data-uid="lnk6" id="link_BMM_LITERAL_VALUE_BMM_INTERVAL_VALUE"><path codeLine="18" d="M99.02,265.28 C99.02,285.57 99.02,290.22 99.02,306.68" fill="none" id="BMM_LITERAL_VALUE-backto-BMM_INTERVAL_VALUE" style="stroke:#181818;stroke-width:1;"/><polygon fill="none" points="99.02,247.28,93.02,265.28,105.02,265.28,99.02,247.28" style="stroke:#181818;stroke-width:1;"/></g></g></svg>
