<svg xmlns="http://www.w3.org/2000/svg" xmlns:xlink="http://www.w3.org/1999/xlink" contentStyleType="text/css" data-diagram-type="CLASS" height="829px" preserveAspectRatio="none" style="width:623px;height:829px;background:#FFFFFF;" version="1.1" viewBox="0 0 623 829" width="623px" zoomAndPan="magnify"><defs/><g><!--class BMM_FUNCTION--><g class="entity" data-entity="BMM_FUNCTION" data-source-line="2" data-uid="ent0002" id="entity_BMM_FUNCTION"><rect fill="#F1F1F1" height="81.5999" rx="2.5" ry="2.5" style="stroke:#181818;stroke-width:0.5;" width="302.3169" x="107.46" y="741.4"/><ellipse cx="199.6287" cy="757.4" fill="#ADD1B2" rx="11" ry="11" style="stroke:#181818;stroke-width:1;"/><path d="M199.6287,763.8219 C200.8005,763.8219 202.0349,763.5563 203.4099,762.9469 L202.9255,761.4313 C201.8318,761.8531 200.8162,762.0406 199.9568,762.0406 C197.238,762.0406 195.5193,760.1969 195.5193,757.2906 C195.5193,754.5406 197.0818,752.9469 199.8162,752.9469 C200.738,752.9469 201.7537,753.1344 202.8943,753.5563 L203.4724,752.0406 C202.3787,751.4625 201.0818,751.1656 199.8943,751.1656 C196.1287,751.1656 193.5505,753.8063 193.5505,757.6188 C193.5505,761.2906 196.0349,763.8219 199.6287,763.8219 Z " fill="#000000"/><text fill="#000000" font-family="sans-serif" font-size="14" lengthAdjust="spacing" textLength="109.4796" x="220.1287" y="762.762">BMM_FUNCTION</text><line style="stroke:#181818;stroke-width:0.5;" x1="108.46" x2="408.7769" y1="773.4" y2="773.4"/><ellipse cx="118.46" cy="787.3" fill="none" rx="3" ry="3" style="stroke:#038048;stroke-width:1;"/><text fill="#000000" font-family="sans-serif" font-size="14" lengthAdjust="spacing" textLength="276.3169" x="127.46" y="791.1619">operator_definition : BMM_OPERATOR [0..1]</text><ellipse cx="118.46" cy="804.0999" fill="none" rx="3" ry="3" style="stroke:#038048;stroke-width:1;"/><text fill="#000000" font-family="sans-serif" font-size="14" lengthAdjust="spacing" textLength="153.3414" x="127.46" y="807.9619">result : BMM_RESULT [1]</text><line style="stroke:#181818;stroke-width:0.5;" x1="108.46" x2="408.7769" y1="814.9999" y2="814.9999"/></g><!--class BMM_TYPED_FEATURE--><g class="entity" data-entity="BMM_TYPED_FEATURE" data-source-line="7" data-uid="ent0003" id="entity_BMM_TYPED_FEATURE"><rect fill="#F5F5F5" height="64.7999" rx="2.5" ry="2.5" style="stroke:#808080;stroke-width:1;stroke-dasharray:1,3;" width="188.3013" x="13.47" y="566.2"/><ellipse cx="32.07" cy="582.2" fill="#A9DCDF" rx="11" ry="11" style="stroke:#181818;stroke-width:1;"/><path d="M26.5856,587.7 L28.6168,587.7 L32.6637,576.3563 L31.7575,576.3563 L35.5856,587.7 L37.7262,587.7 L33.3981,575.3719 L31.1793,575.3719 L26.5856,587.7 Z M28.9137,584.2 L35.3512,584.2 L35.3512,582.45 L28.9137,582.45 L28.9137,584.2 Z " fill="#000000"/><text fill="#808080" font-family="sans-serif" font-size="14" font-style="italic" lengthAdjust="spacing" textLength="148.3014" x="46.87" y="587.562">BMM_TYPED_FEATURE</text><line style="stroke:#808080;stroke-width:1;stroke-dasharray:1,3;" x1="14.47" x2="200.7713" y1="598.2" y2="598.2"/><ellipse cx="24.47" cy="612.1" fill="none" rx="3" ry="3" style="stroke:#038048;stroke-width:1;"/><text fill="#808080" font-family="sans-serif" font-size="14" lengthAdjust="spacing" textLength="162.3013" x="33.47" y="615.9619">is_nullable : Boolean [0..1]</text><line style="stroke:#808080;stroke-width:1;stroke-dasharray:1,3;" x1="14.47" x2="200.7713" y1="622.9999" y2="622.9999"/></g><!--class BMM_TYPED--><g class="entity" data-entity="BMM_TYPED" data-source-line="11" data-uid="ent0004" id="entity_BMM_TYPED"><rect fill="#F5F5F5" height="81.5999" rx="2.5" ry="2.5" style="stroke:#808080;stroke-width:1;stroke-dasharray:1,3;" width="181.2454" x="7" y="357.4"/><ellipse cx="52.2199" cy="373.4" fill="#A9DCDF" rx="11" ry="11" style="stroke:#181818;stroke-width:1;"/><path d="M46.7355,378.9 L48.7667,378.9 L52.8136,367.5563 L51.9074,367.5563 L55.7355,378.9 L57.8761,378.9 L53.548,366.5719 L51.3292,366.5719 L46.7355,378.9 Z M49.0636,375.4 L55.5011,375.4 L55.5011,373.65 L49.0636,373.65 L49.0636,375.4 Z " fill="#000000"/><text fill="#808080" font-family="sans-serif" font-size="14" font-style="italic" lengthAdjust="spacing" textLength="82.3057" x="72.7199" y="378.762">BMM_TYPED</text><line style="stroke:#808080;stroke-width:1;stroke-dasharray:1,3;" x1="8" x2="187.2454" y1="389.4" y2="389.4"/><ellipse cx="18" cy="403.3" fill="none" rx="3" ry="3" style="stroke:#038048;stroke-width:1;"/><text fill="#808080" font-family="sans-serif" font-size="14" lengthAdjust="spacing" textLength="128.0575" x="27" y="407.1619">type : BMM_TYPE [1]</text><line style="stroke:#808080;stroke-width:1;stroke-dasharray:1,3;" x1="8" x2="187.2454" y1="414.1999" y2="414.1999"/><ellipse cx="18" cy="428.0999" fill="#84BE84" rx="3" ry="3" style="stroke:#038048;stroke-width:1;"/><text fill="#808080" font-family="sans-serif" font-size="14" lengthAdjust="spacing" textLength="155.2454" x="27" y="431.9619">is_boolean() : Boolean [1]</text></g><!--class BMM_ROUTINE--><g class="entity" data-entity="BMM_ROUTINE" data-source-line="20" data-uid="ent0007" id="entity_BMM_ROUTINE"><rect fill="#F5F5F5" height="165.5995" rx="2.5" ry="2.5" style="stroke:#808080;stroke-width:1;stroke-dasharray:1,3;" width="306.4749" x="256.39" y="515.8"/><ellipse cx="355.9157" cy="531.8" fill="#A9DCDF" rx="11" ry="11" style="stroke:#181818;stroke-width:1;"/><path d="M350.4313,537.3 L352.4625,537.3 L356.5094,525.9563 L355.6032,525.9563 L359.4313,537.3 L361.5719,537.3 L357.2438,524.9719 L355.025,524.9719 L350.4313,537.3 Z M352.7594,533.8 L359.1969,533.8 L359.1969,532.05 L352.7594,532.05 L352.7594,533.8 Z " fill="#000000"/><text fill="#808080" font-family="sans-serif" font-size="14" font-style="italic" lengthAdjust="spacing" textLength="98.9236" x="376.4157" y="537.162">BMM_ROUTINE</text><line style="stroke:#808080;stroke-width:1;stroke-dasharray:1,3;" x1="257.39" x2="561.8649" y1="547.8" y2="547.8"/><ellipse cx="267.39" cy="561.7" fill="none" rx="3" ry="3" style="stroke:#038048;stroke-width:1;"/><text fill="#808080" font-family="sans-serif" font-size="14" lengthAdjust="spacing" textLength="258.4529" x="276.39" y="565.5619">parameters : List&lt;BMM_PARAMETER&gt; [*]</text><ellipse cx="267.39" cy="578.4999" fill="none" rx="3" ry="3" style="stroke:#038048;stroke-width:1;"/><text fill="#808080" font-family="sans-serif" font-size="14" lengthAdjust="spacing" textLength="185.9052" x="276.39" y="582.3619">locals : List&lt;BMM_LOCAL&gt; [*]</text><ellipse cx="267.39" cy="595.2998" fill="none" rx="3" ry="3" style="stroke:#038048;stroke-width:1;"/><text fill="#808080" font-family="sans-serif" font-size="14" lengthAdjust="spacing" textLength="273.6569" x="276.39" y="599.1618">pre_conditions : List&lt;BMM_ASSERTION&gt; [*]</text><ellipse cx="267.39" cy="612.0997" fill="none" rx="3" ry="3" style="stroke:#038048;stroke-width:1;"/><text fill="#808080" font-family="sans-serif" font-size="14" lengthAdjust="spacing" textLength="280.4749" x="276.39" y="615.9617">post_conditions : List&lt;BMM_ASSERTION&gt; [*]</text><ellipse cx="267.39" cy="628.8997" fill="none" rx="3" ry="3" style="stroke:#038048;stroke-width:1;"/><text fill="#808080" font-family="sans-serif" font-size="14" lengthAdjust="spacing" textLength="218.3851" x="276.39" y="632.7616">body : BMM_ROUTINE_BODY [0..1]</text><line style="stroke:#808080;stroke-width:1;stroke-dasharray:1,3;" x1="257.39" x2="561.8649" y1="639.7996" y2="639.7996"/><ellipse cx="267.39" cy="653.6996" fill="#84BE84" rx="3" ry="3" style="stroke:#038048;stroke-width:1;"/><text fill="#808080" font-family="sans-serif" font-size="14" lengthAdjust="spacing" textLength="109.4096" x="276.39" y="657.5616">arity() : Integer [1]</text><ellipse cx="267.39" cy="670.4995" fill="#84BE84" rx="3" ry="3" style="stroke:#038048;stroke-width:1;"/><text fill="#808080" font-family="sans-serif" font-size="14" lengthAdjust="spacing" textLength="95.5356" x="276.39" y="674.3615">signature() :  [1]</text></g><!--class BMM_CLASS_FEATURE--><g class="entity" data-entity="BMM_CLASS_FEATURE" data-source-line="30" data-uid="ent0008" id="entity_BMM_CLASS_FEATURE"><rect fill="#F5F5F5" height="115.1997" rx="2.5" ry="2.5" style="stroke:#808080;stroke-width:1;stroke-dasharray:1,3;" width="393.6245" x="222.81" y="340.6"/><ellipse cx="342.2575" cy="356.6" fill="#A9DCDF" rx="11" ry="11" style="stroke:#181818;stroke-width:1;"/><path d="M336.7731,362.1 L338.8044,362.1 L342.8513,350.7563 L341.945,350.7563 L345.7731,362.1 L347.9138,362.1 L343.5856,349.7719 L341.3669,349.7719 L336.7731,362.1 Z M339.1013,358.6 L345.5388,358.6 L345.5388,356.85 L339.1013,356.85 L339.1013,358.6 Z " fill="#000000"/><text fill="#808080" font-family="sans-serif" font-size="14" font-style="italic" lengthAdjust="spacing" textLength="146.2294" x="362.7575" y="361.962">BMM_CLASS_FEATURE</text><line style="stroke:#808080;stroke-width:1;stroke-dasharray:1,3;" x1="223.81" x2="615.4345" y1="372.6" y2="372.6"/><ellipse cx="233.81" cy="386.5" fill="none" rx="3" ry="3" style="stroke:#038048;stroke-width:1;"/><text fill="#808080" font-family="sans-serif" font-size="14" lengthAdjust="spacing" textLength="145.1374" x="242.81" y="390.3619">scope : BMM_CLASS [1]</text><ellipse cx="233.81" cy="403.2999" fill="none" rx="3" ry="3" style="stroke:#038048;stroke-width:1;"/><text fill="#808080" font-family="sans-serif" font-size="14" lengthAdjust="spacing" textLength="197.9032" x="242.81" y="407.1619">visibility : BMM_VISIBILITY [0..1]</text><ellipse cx="233.81" cy="420.0998" fill="none" rx="3" ry="3" style="stroke:#038048;stroke-width:1;"/><text fill="#808080" font-family="sans-serif" font-size="14" lengthAdjust="spacing" textLength="367.6245" x="242.81" y="423.9618">feature_extensions : List&lt;BMM_FEATURE_EXTENSION&gt; [*]</text><ellipse cx="233.81" cy="436.8997" fill="none" rx="3" ry="3" style="stroke:#038048;stroke-width:1;"/><text fill="#808080" font-family="sans-serif" font-size="14" lengthAdjust="spacing" textLength="218.3991" x="242.81" y="440.7617">group : BMM_FEATURE_GROUP [1]</text><line style="stroke:#808080;stroke-width:1;stroke-dasharray:1,3;" x1="223.81" x2="615.4345" y1="447.7997" y2="447.7997"/></g><!--class BMM_CLASS_ENTITY--><g class="entity" data-entity="BMM_CLASS_ENTITY" data-source-line="37" data-uid="ent0009" id="entity_BMM_CLASS_ENTITY"><rect fill="#F5F5F5" height="81.5999" rx="2.5" ry="2.5" style="stroke:#808080;stroke-width:1;stroke-dasharray:1,3;" width="264.643" x="287.3" y="199"/><ellipse cx="348.5638" cy="215" fill="#A9DCDF" rx="11" ry="11" style="stroke:#181818;stroke-width:1;"/><path d="M343.0794,220.5 L345.1107,220.5 L349.1575,209.1563 L348.2513,209.1563 L352.0794,220.5 L354.22,220.5 L349.8919,208.1719 L347.6732,208.1719 L343.0794,220.5 Z M345.4075,217 L351.845,217 L351.845,215.25 L345.4075,215.25 L345.4075,217 Z " fill="#000000"/><text fill="#808080" font-family="sans-serif" font-size="14" font-style="italic" lengthAdjust="spacing" textLength="133.6155" x="369.0638" y="220.362">BMM_CLASS_ENTITY</text><line style="stroke:#808080;stroke-width:1;stroke-dasharray:1,3;" x1="288.3" x2="550.943" y1="231" y2="231"/><ellipse cx="298.3" cy="244.9" fill="none" rx="3" ry="3" style="stroke:#038048;stroke-width:1;"/><text fill="#808080" font-family="sans-serif" font-size="14" lengthAdjust="spacing" textLength="238.643" x="307.3" y="248.7619">is_synthesised_generic : Boolean [0..1]</text><line style="stroke:#808080;stroke-width:1;stroke-dasharray:1,3;" x1="288.3" x2="550.943" y1="255.7999" y2="255.7999"/><ellipse cx="298.3" cy="269.6999" fill="#84BE84" rx="3" ry="3" style="stroke:#038048;stroke-width:1;"/><text fill="#808080" font-family="sans-serif" font-size="14" font-style="italic" lengthAdjust="spacing" textLength="210.3352" x="307.3" y="273.5619">signature() : BMM_SIGNATURE [1]</text></g><!--class BMM_DECLARATION--><g class="entity" data-entity="BMM_DECLARATION" data-source-line="42" data-uid="ent0010" id="entity_BMM_DECLARATION"><rect fill="#F5F5F5" height="131.9996" rx="2.5" ry="2.5" style="stroke:#808080;stroke-width:1;stroke-dasharray:1,3;" width="277.285" x="280.98" y="7"/><ellipse cx="348.8098" cy="23" fill="#A9DCDF" rx="11" ry="11" style="stroke:#181818;stroke-width:1;"/><path d="M343.3254,28.5 L345.3567,28.5 L349.4035,17.1563 L348.4973,17.1563 L352.3254,28.5 L354.466,28.5 L350.1379,16.1719 L347.9192,16.1719 L343.3254,28.5 Z M345.6535,25 L352.091,25 L352.091,23.25 L345.6535,23.25 L345.6535,25 Z " fill="#000000"/><text fill="#808080" font-family="sans-serif" font-size="14" font-style="italic" lengthAdjust="spacing" textLength="133.1255" x="369.3098" y="28.362">BMM_DECLARATION</text><line style="stroke:#808080;stroke-width:1;stroke-dasharray:1,3;" x1="281.98" x2="557.265" y1="39" y2="39"/><ellipse cx="291.98" cy="52.9" fill="none" rx="3" ry="3" style="stroke:#038048;stroke-width:1;"/><text fill="#808080" font-family="sans-serif" font-size="14" lengthAdjust="spacing" textLength="100.8836" x="300.98" y="56.7619">name : String [1]</text><ellipse cx="291.98" cy="69.6999" fill="none" rx="3" ry="3" style="stroke:#038048;stroke-width:1;"/><text fill="#808080" font-family="sans-serif" font-size="14" lengthAdjust="spacing" textLength="251.285" x="300.98" y="73.5619">documentation : Hash&lt;String,Any&gt; [0..1]</text><ellipse cx="291.98" cy="86.4998" fill="none" rx="3" ry="3" style="stroke:#038048;stroke-width:1;"/><text fill="#808080" font-family="sans-serif" font-size="14" lengthAdjust="spacing" textLength="198.0292" x="300.98" y="90.3618">scope : BMM_DECLARATION [1]</text><ellipse cx="291.98" cy="103.2997" fill="none" rx="3" ry="3" style="stroke:#038048;stroke-width:1;"/><text fill="#808080" font-family="sans-serif" font-size="14" lengthAdjust="spacing" textLength="223.3411" x="300.98" y="107.1617">extensions : Hash&lt;String,Any&gt; [0..1]</text><line style="stroke:#808080;stroke-width:1;stroke-dasharray:1,3;" x1="281.98" x2="557.265" y1="114.1997" y2="114.1997"/><ellipse cx="291.98" cy="128.0997" fill="#84BE84" rx="3" ry="3" style="stroke:#038048;stroke-width:1;"/><text fill="#808080" font-family="sans-serif" font-size="14" lengthAdjust="spacing" textLength="174.5653" x="300.98" y="131.9616">is_root_scope() : Boolean [1]</text></g><!--reverse link BMM_TYPED to BMM_TYPED_FEATURE--><g class="link" data-entity-1="BMM_TYPED" data-entity-2="BMM_TYPED_FEATURE" data-source-line="16" data-uid="lnk5" id="link_BMM_TYPED_BMM_TYPED_FEATURE"><path codeLine="16" d="M100.5544,457.3273 C102.4344,494.6973 104.3,531.65 106.03,565.99" fill="none" id="BMM_TYPED-backto-BMM_TYPED_FEATURE" style="stroke:#181818;stroke-width:1;"/><polygon fill="none" points="99.65,439.35,94.562,457.6287,106.5468,457.0258,99.65,439.35" style="stroke:#181818;stroke-width:1;"/></g><!--reverse link BMM_TYPED_FEATURE to BMM_FUNCTION--><g class="link" data-entity-1="BMM_TYPED_FEATURE" data-entity-2="BMM_FUNCTION" data-source-line="18" data-uid="lnk6" id="link_BMM_TYPED_FEATURE_BMM_FUNCTION"><path codeLine="18" d="M145.4277,645.071 C170.7777,675.561 197.73,707.97 225.23,741.04" fill="none" id="BMM_TYPED_FEATURE-backto-BMM_FUNCTION" style="stroke:#181818;stroke-width:1;"/><polygon fill="none" points="133.92,631.23,140.814,648.9069,150.0413,641.2351,133.92,631.23" style="stroke:#181818;stroke-width:1;"/></g><!--reverse link BMM_DECLARATION to BMM_CLASS_ENTITY--><g class="link" data-entity-1="BMM_DECLARATION" data-entity-2="BMM_CLASS_ENTITY" data-source-line="50" data-uid="lnk11" id="link_BMM_DECLARATION_BMM_CLASS_ENTITY"><path codeLine="50" d="M419.62,157.13 C419.62,177.29 419.62,180.88 419.62,198.8" fill="none" id="BMM_DECLARATION-backto-BMM_CLASS_ENTITY" style="stroke:#181818;stroke-width:1;"/><polygon fill="none" points="419.62,139.13,413.62,157.13,425.62,157.13,419.62,139.13" style="stroke:#181818;stroke-width:1;"/></g><!--reverse link BMM_CLASS_ENTITY to BMM_CLASS_FEATURE--><g class="link" data-entity-1="BMM_CLASS_ENTITY" data-entity-2="BMM_CLASS_FEATURE" data-source-line="52" data-uid="lnk12" id="link_BMM_CLASS_ENTITY_BMM_CLASS_FEATURE"><path codeLine="52" d="M419.62,299.08 C419.62,317.09 419.62,320.64 419.62,340.26" fill="none" id="BMM_CLASS_ENTITY-backto-BMM_CLASS_FEATURE" style="stroke:#181818;stroke-width:1;"/><polygon fill="none" points="419.62,281.08,413.62,299.08,425.62,299.08,419.62,281.08" style="stroke:#181818;stroke-width:1;"/></g><!--reverse link BMM_CLASS_FEATURE to BMM_ROUTINE--><g class="link" data-entity-1="BMM_CLASS_FEATURE" data-entity-2="BMM_ROUTINE" data-source-line="54" data-uid="lnk13" id="link_BMM_CLASS_FEATURE_BMM_ROUTINE"><path codeLine="54" d="M415.849,474.0269 C414.909,492.5769 414.76,495.59 413.76,515.6" fill="none" id="BMM_CLASS_FEATURE-backto-BMM_ROUTINE" style="stroke:#181818;stroke-width:1;"/><polygon fill="none" points="416.76,456.05,409.8567,473.7233,421.8414,474.3306,416.76,456.05" style="stroke:#181818;stroke-width:1;"/></g><!--reverse link BMM_ROUTINE to BMM_FUNCTION--><g class="link" data-entity-1="BMM_ROUTINE" data-entity-2="BMM_FUNCTION" data-source-line="56" data-uid="lnk14" id="link_BMM_ROUTINE_BMM_FUNCTION"><path codeLine="56" d="M329.6786,695.7379 C312.5086,716.3779 306.37,723.78 291.81,741.29" fill="none" id="BMM_ROUTINE-backto-BMM_FUNCTION" style="stroke:#181818;stroke-width:1;"/><polygon fill="none" points="341.19,681.9,325.0659,691.9007,334.2912,699.575,341.19,681.9" style="stroke:#181818;stroke-width:1;"/></g></g></svg>
