<svg xmlns="http://www.w3.org/2000/svg" xmlns:xlink="http://www.w3.org/1999/xlink" contentStyleType="text/css" data-diagram-type="CLASS" height="654px" preserveAspectRatio="none" style="width:313px;height:654px;background:#FFFFFF;" version="1.1" viewBox="0 0 313 654" width="313px" zoomAndPan="magnify"><defs/><g><!--class BMM_TUPLE_TYPE--><g class="entity" data-entity="BMM_TUPLE_TYPE" data-source-line="2" data-uid="ent0002" id="entity_BMM_TUPLE_TYPE"><rect fill="#F1F1F1" height="148.7996" rx="2.5" ry="2.5" style="stroke:#181818;stroke-width:0.5;" width="284.803" x="14.28" y="499"/><ellipse cx="92.3367" cy="515" fill="#ADD1B2" rx="11" ry="11" style="stroke:#181818;stroke-width:1;"/><path d="M92.3367,521.4219 C93.5086,521.4219 94.743,521.1563 96.118,520.5469 L95.6336,519.0313 C94.5399,519.4531 93.5242,519.6406 92.6649,519.6406 C89.9461,519.6406 88.2274,517.7969 88.2274,514.8906 C88.2274,512.1406 89.7899,510.5469 92.5242,510.5469 C93.4461,510.5469 94.4617,510.7344 95.6024,511.1563 L96.1805,509.6406 C95.0867,509.0625 93.7899,508.7656 92.6024,508.7656 C88.8367,508.7656 86.2586,511.4063 86.2586,515.2188 C86.2586,518.8906 88.743,521.4219 92.3367,521.4219 Z " fill="#000000"/><text fill="#000000" font-family="sans-serif" font-size="14" lengthAdjust="spacing" textLength="120.1895" x="112.8367" y="520.362">BMM_TUPLE_TYPE</text><line style="stroke:#181818;stroke-width:0.5;" x1="15.28" x2="298.083" y1="531" y2="531"/><ellipse cx="25.28" cy="544.9" fill="none" rx="3" ry="3" style="stroke:#038048;stroke-width:1;"/><text fill="#000000" font-family="sans-serif" font-size="14" lengthAdjust="spacing" textLength="258.803" x="34.28" y="548.7619">item_types : Hash&lt;String,BMM_TYPE&gt; [1]</text><line style="stroke:#181818;stroke-width:0.5;" x1="15.28" x2="298.083" y1="555.7999" y2="555.7999"/><ellipse cx="25.28" cy="569.6999" fill="#84BE84" rx="3" ry="3" style="stroke:#038048;stroke-width:1;"/><text fill="#000000" font-family="sans-serif" font-size="14" lengthAdjust="spacing" textLength="179.5073" x="34.28" y="573.5619">type_base_name() : String [1]</text><ellipse cx="25.28" cy="586.4998" fill="#84BE84" rx="3" ry="3" style="stroke:#038048;stroke-width:1;"/><text fill="#000000" font-family="sans-serif" font-size="14" lengthAdjust="spacing" textLength="160.1734" x="34.28" y="590.3618">is_primitive() : Boolean [1]</text><ellipse cx="25.28" cy="603.2997" fill="#84BE84" rx="3" ry="3" style="stroke:#038048;stroke-width:1;"/><text fill="#000000" font-family="sans-serif" font-size="14" lengthAdjust="spacing" textLength="155.7354" x="34.28" y="607.1617">is_abstract() : Boolean [1]</text><ellipse cx="25.28" cy="620.0997" fill="#84BE84" rx="3" ry="3" style="stroke:#038048;stroke-width:1;"/><text fill="#000000" font-family="sans-serif" font-size="14" lengthAdjust="spacing" textLength="143.4715" x="34.28" y="623.9616">type_name() : String [1]</text><ellipse cx="25.28" cy="636.8996" fill="#84BE84" rx="3" ry="3" style="stroke:#038048;stroke-width:1;"/><text fill="#000000" font-family="sans-serif" font-size="14" lengthAdjust="spacing" textLength="243.1371" x="34.28" y="640.7616">flattened_type_list() : List&lt;String&gt; [1..*]</text></g><!--class BMM_EFFECTIVE_TYPE--><g class="entity" data-entity="BMM_EFFECTIVE_TYPE" data-source-line="11" data-uid="ent0003" id="entity_BMM_EFFECTIVE_TYPE"><rect fill="#F5F5F5" height="81.5999" rx="2.5" ry="2.5" style="stroke:#808080;stroke-width:1;stroke-dasharray:1,3;" width="299.3629" x="7" y="357.4"/><ellipse cx="78.0428" cy="373.4" fill="#A9DCDF" rx="11" ry="11" style="stroke:#181818;stroke-width:1;"/><path d="M72.5584,378.9 L74.5896,378.9 L78.6365,367.5563 L77.7303,367.5563 L81.5584,378.9 L83.699,378.9 L79.3709,366.5719 L77.1521,366.5719 L72.5584,378.9 Z M74.8865,375.4 L81.324,375.4 L81.324,373.65 L74.8865,373.65 L74.8865,375.4 Z " fill="#000000"/><text fill="#808080" font-family="sans-serif" font-size="14" font-style="italic" lengthAdjust="spacing" textLength="148.7774" x="98.5428" y="378.762">BMM_EFFECTIVE_TYPE</text><line style="stroke:#808080;stroke-width:1;stroke-dasharray:1,3;" x1="8" x2="305.3629" y1="389.4" y2="389.4"/><line style="stroke:#808080;stroke-width:1;stroke-dasharray:1,3;" x1="8" x2="305.3629" y1="397.4" y2="397.4"/><ellipse cx="18" cy="411.3" fill="#84BE84" rx="3" ry="3" style="stroke:#038048;stroke-width:1;"/><text fill="#808080" font-family="sans-serif" font-size="14" lengthAdjust="spacing" textLength="273.3629" x="27" y="415.1619">effective_type() : BMM_EFFECTIVE_TYPE [1]</text><ellipse cx="18" cy="428.0999" fill="#84BE84" rx="3" ry="3" style="stroke:#038048;stroke-width:1;"/><text fill="#808080" font-family="sans-serif" font-size="14" font-style="italic" lengthAdjust="spacing" textLength="179.5073" x="27" y="431.9619">type_base_name() : String [1]</text></g><!--class BMM_UNITARY_TYPE--><g class="entity" data-entity="BMM_UNITARY_TYPE" data-source-line="16" data-uid="ent0004" id="entity_BMM_UNITARY_TYPE"><rect fill="#F5F5F5" height="64.7999" rx="2.5" ry="2.5" style="stroke:#808080;stroke-width:1;stroke-dasharray:1,3;" width="277.019" x="18.17" y="232.6"/><ellipse cx="84.1938" cy="248.6" fill="#A9DCDF" rx="11" ry="11" style="stroke:#181818;stroke-width:1;"/><path d="M78.7094,254.1 L80.7407,254.1 L84.7875,242.7562 L83.8813,242.7562 L87.7094,254.1 L89.85,254.1 L85.5219,241.7719 L83.3032,241.7719 L78.7094,254.1 Z M81.0375,250.6 L87.475,250.6 L87.475,248.85 L81.0375,248.85 L81.0375,250.6 Z " fill="#000000"/><text fill="#808080" font-family="sans-serif" font-size="14" font-style="italic" lengthAdjust="spacing" textLength="136.4714" x="104.6938" y="253.962">BMM_UNITARY_TYPE</text><line style="stroke:#808080;stroke-width:1;stroke-dasharray:1,3;" x1="19.17" x2="294.189" y1="264.6" y2="264.6"/><line style="stroke:#808080;stroke-width:1;stroke-dasharray:1,3;" x1="19.17" x2="294.189" y1="272.6" y2="272.6"/><ellipse cx="29.17" cy="286.5" fill="#84BE84" rx="3" ry="3" style="stroke:#038048;stroke-width:1;"/><text fill="#808080" font-family="sans-serif" font-size="14" lengthAdjust="spacing" textLength="251.019" x="38.17" y="290.3619">unitary_type() : BMM_UNITARY_TYPE [1]</text></g><!--class BMM_TYPE--><g class="entity" data-entity="BMM_TYPE" data-source-line="20" data-uid="ent0005" id="entity_BMM_TYPE"><rect fill="#F5F5F5" height="165.5995" rx="2.5" ry="2.5" style="stroke:#808080;stroke-width:1;stroke-dasharray:1,3;" width="299.3629" x="7" y="7"/><ellipse cx="116.2556" cy="23" fill="#A9DCDF" rx="11" ry="11" style="stroke:#181818;stroke-width:1;"/><path d="M110.7712,28.5 L112.8025,28.5 L116.8494,17.1563 L115.9431,17.1563 L119.7712,28.5 L121.9119,28.5 L117.5837,16.1719 L115.365,16.1719 L110.7712,28.5 Z M113.0994,25 L119.5369,25 L119.5369,23.25 L113.0994,23.25 L113.0994,25 Z " fill="#000000"/><text fill="#808080" font-family="sans-serif" font-size="14" font-style="italic" lengthAdjust="spacing" textLength="72.3517" x="136.7556" y="28.362">BMM_TYPE</text><line style="stroke:#808080;stroke-width:1;stroke-dasharray:1,3;" x1="8" x2="305.3629" y1="39" y2="39"/><line style="stroke:#808080;stroke-width:1;stroke-dasharray:1,3;" x1="8" x2="305.3629" y1="47" y2="47"/><ellipse cx="18" cy="60.9" fill="#84BE84" rx="3" ry="3" style="stroke:#038048;stroke-width:1;"/><text fill="#808080" font-family="sans-serif" font-size="14" font-style="italic" lengthAdjust="spacing" textLength="143.4715" x="27" y="64.7619">type_name() : String [1]</text><ellipse cx="18" cy="77.6999" fill="#84BE84" rx="3" ry="3" style="stroke:#038048;stroke-width:1;"/><text fill="#808080" font-family="sans-serif" font-size="14" lengthAdjust="spacing" textLength="167.1314" x="27" y="81.5619">type_signature() : String [1]</text><ellipse cx="18" cy="94.4998" fill="#84BE84" rx="3" ry="3" style="stroke:#038048;stroke-width:1;"/><text fill="#808080" font-family="sans-serif" font-size="14" font-style="italic" lengthAdjust="spacing" textLength="155.7354" x="27" y="98.3618">is_abstract() : Boolean [1]</text><ellipse cx="18" cy="111.2997" fill="#84BE84" rx="3" ry="3" style="stroke:#038048;stroke-width:1;"/><text fill="#808080" font-family="sans-serif" font-size="14" font-style="italic" lengthAdjust="spacing" textLength="160.1734" x="27" y="115.1617">is_primitive() : Boolean [1]</text><ellipse cx="18" cy="128.0997" fill="#84BE84" rx="3" ry="3" style="stroke:#038048;stroke-width:1;"/><text fill="#808080" font-family="sans-serif" font-size="14" font-style="italic" lengthAdjust="spacing" textLength="251.019" x="27" y="131.9616">unitary_type() : BMM_UNITARY_TYPE [1]</text><ellipse cx="18" cy="144.8996" fill="#84BE84" rx="3" ry="3" style="stroke:#038048;stroke-width:1;"/><text fill="#808080" font-family="sans-serif" font-size="14" font-style="italic" lengthAdjust="spacing" textLength="273.3629" x="27" y="148.7616">effective_type() : BMM_EFFECTIVE_TYPE [1]</text><ellipse cx="18" cy="161.6995" fill="#84BE84" rx="3" ry="3" style="stroke:#038048;stroke-width:1;"/><text fill="#808080" font-family="sans-serif" font-size="14" font-style="italic" lengthAdjust="spacing" textLength="243.1371" x="27" y="165.5615">flattened_type_list() : List&lt;String&gt; [1..*]</text></g><!--reverse link BMM_TYPE to BMM_UNITARY_TYPE--><g class="link" data-entity-1="BMM_TYPE" data-entity-2="BMM_UNITARY_TYPE" data-source-line="30" data-uid="lnk6" id="link_BMM_TYPE_BMM_UNITARY_TYPE"><path codeLine="30" d="M156.68,191.09 C156.68,212.21 156.68,215.68 156.68,232.44" fill="none" id="BMM_TYPE-backto-BMM_UNITARY_TYPE" style="stroke:#181818;stroke-width:1;"/><polygon fill="none" points="156.68,173.09,150.68,191.09,162.68,191.09,156.68,173.09" style="stroke:#181818;stroke-width:1;"/></g><!--reverse link BMM_UNITARY_TYPE to BMM_EFFECTIVE_TYPE--><g class="link" data-entity-1="BMM_UNITARY_TYPE" data-entity-2="BMM_EFFECTIVE_TYPE" data-source-line="32" data-uid="lnk7" id="link_BMM_UNITARY_TYPE_BMM_EFFECTIVE_TYPE"><path codeLine="32" d="M156.68,315.76 C156.68,333.66 156.68,338.18 156.68,357.27" fill="none" id="BMM_UNITARY_TYPE-backto-BMM_EFFECTIVE_TYPE" style="stroke:#181818;stroke-width:1;"/><polygon fill="none" points="156.68,297.76,150.68,315.76,162.68,315.76,156.68,297.76" style="stroke:#181818;stroke-width:1;"/></g><!--reverse link BMM_EFFECTIVE_TYPE to BMM_TUPLE_TYPE--><g class="link" data-entity-1="BMM_EFFECTIVE_TYPE" data-entity-2="BMM_TUPLE_TYPE" data-source-line="34" data-uid="lnk8" id="link_BMM_EFFECTIVE_TYPE_BMM_TUPLE_TYPE"><path codeLine="34" d="M156.68,457.37 C156.68,475.06 156.68,478.42 156.68,498.79" fill="none" id="BMM_EFFECTIVE_TYPE-backto-BMM_TUPLE_TYPE" style="stroke:#181818;stroke-width:1;"/><polygon fill="none" points="156.68,439.37,150.68,457.37,162.68,457.37,156.68,439.37" style="stroke:#181818;stroke-width:1;"/></g></g></svg>
