<svg xmlns="http://www.w3.org/2000/svg" xmlns:xlink="http://www.w3.org/1999/xlink" contentStyleType="text/css" data-diagram-type="CLASS" height="136px" preserveAspectRatio="none" style="width:312px;height:136px;background:#FFFFFF;" version="1.1" viewBox="0 0 312 136" width="312px" zoomAndPan="magnify"><defs/><g><!--class BMM_FEATURE_GROUP--><g class="entity" data-entity="BMM_FEATURE_GROUP" data-source-line="2" data-uid="ent0002" id="entity_BMM_FEATURE_GROUP"><rect fill="#F1F1F1" height="115.1997" rx="2.5" ry="2.5" style="stroke:#181818;stroke-width:0.5;" width="291.0889" x="7" y="7"/><ellipse cx="71.8688" cy="23" fill="#ADD1B2" rx="11" ry="11" style="stroke:#181818;stroke-width:1;"/><path d="M71.8688,29.4219 C73.0406,29.4219 74.275,29.1563 75.65,28.5469 L75.1656,27.0313 C74.0719,27.4531 73.0563,27.6406 72.1969,27.6406 C69.4781,27.6406 67.7594,25.7969 67.7594,22.8906 C67.7594,20.1406 69.3219,18.5469 72.0563,18.5469 C72.9781,18.5469 73.9938,18.7344 75.1344,19.1563 L75.7125,17.6406 C74.6188,17.0625 73.3219,16.7656 72.1344,16.7656 C68.3688,16.7656 65.7906,19.4063 65.7906,23.2188 C65.7906,26.8906 68.275,29.4219 71.8688,29.4219 Z " fill="#000000"/><text fill="#000000" font-family="sans-serif" font-size="14" lengthAdjust="spacing" textLength="152.8514" x="92.3688" y="28.362">BMM_FEATURE_GROUP</text><line style="stroke:#181818;stroke-width:0.5;" x1="8" x2="297.0889" y1="39" y2="39"/><ellipse cx="18" cy="52.9" fill="none" rx="3" ry="3" style="stroke:#038048;stroke-width:1;"/><text fill="#000000" font-family="sans-serif" font-size="14" lengthAdjust="spacing" textLength="100.8836" x="27" y="56.7619">name : String [1]</text><ellipse cx="18" cy="69.6999" fill="none" rx="3" ry="3" style="stroke:#038048;stroke-width:1;"/><text fill="#000000" font-family="sans-serif" font-size="14" lengthAdjust="spacing" textLength="219.1972" x="27" y="73.5619">properties : Hash&lt;String,String&gt; [1]</text><ellipse cx="18" cy="86.4998" fill="none" rx="3" ry="3" style="stroke:#038048;stroke-width:1;"/><text fill="#000000" font-family="sans-serif" font-size="14" lengthAdjust="spacing" textLength="265.0889" x="27" y="90.3618">features : List&lt;BMM_CLASS_FEATURE&gt; [*]</text><ellipse cx="18" cy="103.2997" fill="none" rx="3" ry="3" style="stroke:#038048;stroke-width:1;"/><text fill="#000000" font-family="sans-serif" font-size="14" lengthAdjust="spacing" textLength="197.9032" x="27" y="107.1617">visibility : BMM_VISIBILITY [0..1]</text><line style="stroke:#181818;stroke-width:0.5;" x1="8" x2="297.0889" y1="114.1997" y2="114.1997"/></g></g></svg>
