<svg xmlns="http://www.w3.org/2000/svg" xmlns:xlink="http://www.w3.org/1999/xlink" contentStyleType="text/css" data-diagram-type="CLASS" height="386px" preserveAspectRatio="none" style="width:219px;height:386px;background:#FFFFFF;" version="1.1" viewBox="0 0 219 386" width="219px" zoomAndPan="magnify"><defs/><g><!--class BMM_SIMPLE_STATEMENT--><g class="entity" data-entity="BMM_SIMPLE_STATEMENT" data-source-line="2" data-uid="ent0002" id="entity_BMM_SIMPLE_STATEMENT"><rect fill="#F1F1F1" height="48" rx="2.5" ry="2.5" style="stroke:#181818;stroke-width:0.5;" width="205.0533" x="7" y="331"/><ellipse cx="22" cy="347" fill="#A9DCDF" rx="11" ry="11" style="stroke:#181818;stroke-width:1;"/><path d="M16.5156,352.5 L18.5469,352.5 L22.5938,341.1563 L21.6875,341.1563 L25.5156,352.5 L27.6563,352.5 L23.3281,340.1719 L21.1094,340.1719 L16.5156,352.5 Z M18.8438,349 L25.2813,349 L25.2813,347.25 L18.8438,347.25 L18.8438,349 Z " fill="#000000"/><text fill="#000000" font-family="sans-serif" font-size="14" font-style="italic" lengthAdjust="spacing" textLength="173.0533" x="36" y="352.362">BMM_SIMPLE_STATEMENT</text><line style="stroke:#181818;stroke-width:0.5;" x1="8" x2="211.0533" y1="363" y2="363"/><line style="stroke:#181818;stroke-width:0.5;" x1="8" x2="211.0533" y1="371" y2="371"/></g><!--class BMM_STATEMENT--><g class="entity" data-entity="BMM_STATEMENT" data-source-line="5" data-uid="ent0003" id="entity_BMM_STATEMENT"><rect fill="#F5F5F5" height="48" rx="2.5" ry="2.5" style="stroke:#808080;stroke-width:1;stroke-dasharray:1,3;" width="151.0275" x="34.01" y="223"/><ellipse cx="49.01" cy="239" fill="#A9DCDF" rx="11" ry="11" style="stroke:#181818;stroke-width:1;"/><path d="M43.5256,244.5 L45.5569,244.5 L49.6038,233.1563 L48.6975,233.1563 L52.5256,244.5 L54.6663,244.5 L50.3381,232.1719 L48.1194,232.1719 L43.5256,244.5 Z M45.8538,241 L52.2913,241 L52.2913,239.25 L45.8538,239.25 L45.8538,241 Z " fill="#000000"/><text fill="#808080" font-family="sans-serif" font-size="14" font-style="italic" lengthAdjust="spacing" textLength="119.0275" x="63.01" y="244.362">BMM_STATEMENT</text><line style="stroke:#808080;stroke-width:1;stroke-dasharray:1,3;" x1="35.01" x2="184.0375" y1="255" y2="255"/><line style="stroke:#808080;stroke-width:1;stroke-dasharray:1,3;" x1="35.01" x2="184.0375" y1="263" y2="263"/></g><!--class BMM_STATEMENT_ITEM--><g class="entity" data-entity="BMM_STATEMENT_ITEM" data-source-line="8" data-uid="ent0004" id="entity_BMM_STATEMENT_ITEM"><rect fill="#F5F5F5" height="48" rx="2.5" ry="2.5" style="stroke:#808080;stroke-width:1;stroke-dasharray:1,3;" width="189.8914" x="14.58" y="115"/><ellipse cx="29.58" cy="131" fill="#A9DCDF" rx="11" ry="11" style="stroke:#181818;stroke-width:1;"/><path d="M24.0956,136.5 L26.1269,136.5 L30.1738,125.1563 L29.2675,125.1563 L33.0956,136.5 L35.2363,136.5 L30.9081,124.1719 L28.6894,124.1719 L24.0956,136.5 Z M26.4238,133 L32.8613,133 L32.8613,131.25 L26.4238,131.25 L26.4238,133 Z " fill="#000000"/><text fill="#808080" font-family="sans-serif" font-size="14" font-style="italic" lengthAdjust="spacing" textLength="157.8914" x="43.58" y="136.362">BMM_STATEMENT_ITEM</text><line style="stroke:#808080;stroke-width:1;stroke-dasharray:1,3;" x1="15.58" x2="203.4714" y1="147" y2="147"/><line style="stroke:#808080;stroke-width:1;stroke-dasharray:1,3;" x1="15.58" x2="203.4714" y1="155" y2="155"/></g><!--class BMM_ROUTINE_BODY--><g class="entity" data-entity="BMM_ROUTINE_BODY" data-source-line="11" data-uid="ent0005" id="entity_BMM_ROUTINE_BODY"><rect fill="#F5F5F5" height="48" rx="2.5" ry="2.5" style="stroke:#808080;stroke-width:1;stroke-dasharray:1,3;" width="175.4574" x="21.8" y="7"/><ellipse cx="36.8" cy="23" fill="#A9DCDF" rx="11" ry="11" style="stroke:#181818;stroke-width:1;"/><path d="M31.3156,28.5 L33.3469,28.5 L37.3938,17.1563 L36.4875,17.1563 L40.3156,28.5 L42.4563,28.5 L38.1281,16.1719 L35.9094,16.1719 L31.3156,28.5 Z M33.6438,25 L40.0813,25 L40.0813,23.25 L33.6438,23.25 L33.6438,25 Z " fill="#000000"/><text fill="#808080" font-family="sans-serif" font-size="14" font-style="italic" lengthAdjust="spacing" textLength="143.4574" x="50.8" y="28.362">BMM_ROUTINE_BODY</text><line style="stroke:#808080;stroke-width:1;stroke-dasharray:1,3;" x1="22.8" x2="196.2574" y1="39" y2="39"/><line style="stroke:#808080;stroke-width:1;stroke-dasharray:1,3;" x1="22.8" x2="196.2574" y1="47" y2="47"/></g><!--reverse link BMM_ROUTINE_BODY to BMM_STATEMENT_ITEM--><g class="link" data-entity-1="BMM_ROUTINE_BODY" data-entity-2="BMM_STATEMENT_ITEM" data-source-line="14" data-uid="lnk6" id="link_BMM_ROUTINE_BODY_BMM_STATEMENT_ITEM"><path codeLine="14" d="M109.53,73.26 C109.53,90.94 109.53,97.13 109.53,114.79" fill="none" id="BMM_ROUTINE_BODY-backto-BMM_STATEMENT_ITEM" style="stroke:#181818;stroke-width:1;"/><polygon fill="none" points="109.53,55.26,103.53,73.26,115.53,73.26,109.53,55.26" style="stroke:#181818;stroke-width:1;"/></g><!--reverse link BMM_STATEMENT_ITEM to BMM_STATEMENT--><g class="link" data-entity-1="BMM_STATEMENT_ITEM" data-entity-2="BMM_STATEMENT" data-source-line="16" data-uid="lnk7" id="link_BMM_STATEMENT_ITEM_BMM_STATEMENT"><path codeLine="16" d="M109.53,181.26 C109.53,198.94 109.53,205.13 109.53,222.79" fill="none" id="BMM_STATEMENT_ITEM-backto-BMM_STATEMENT" style="stroke:#181818;stroke-width:1;"/><polygon fill="none" points="109.53,163.26,103.53,181.26,115.53,181.26,109.53,163.26" style="stroke:#181818;stroke-width:1;"/></g><!--reverse link BMM_STATEMENT to BMM_SIMPLE_STATEMENT--><g class="link" data-entity-1="BMM_STATEMENT" data-entity-2="BMM_SIMPLE_STATEMENT" data-source-line="18" data-uid="lnk8" id="link_BMM_STATEMENT_BMM_SIMPLE_STATEMENT"><path codeLine="18" d="M109.53,289.26 C109.53,306.94 109.53,313.13 109.53,330.79" fill="none" id="BMM_STATEMENT-backto-BMM_SIMPLE_STATEMENT" style="stroke:#181818;stroke-width:1;"/><polygon fill="none" points="109.53,271.26,103.53,289.26,115.53,289.26,109.53,271.26" style="stroke:#181818;stroke-width:1;"/></g></g></svg>
