<svg xmlns="http://www.w3.org/2000/svg" xmlns:xlink="http://www.w3.org/1999/xlink" contentStyleType="text/css" data-diagram-type="CLASS" height="378px" preserveAspectRatio="none" style="width:253px;height:378px;background:#FFFFFF;" version="1.1" viewBox="0 0 253 378" width="253px" zoomAndPan="magnify"><defs/><g><!--class BMM_CONTAINER_VALUE--><g class="entity" data-entity="BMM_CONTAINER_VALUE" data-source-line="2" data-uid="ent0002" id="entity_BMM_CONTAINER_VALUE"><rect fill="#F1F1F1" height="64.7999" rx="2.5" ry="2.5" style="stroke:#181818;stroke-width:0.5;" width="239.0091" x="7" y="307"/><ellipse cx="40.1466" cy="323" fill="#ADD1B2" rx="11" ry="11" style="stroke:#181818;stroke-width:1;"/><path d="M40.1466,329.4219 C41.3185,329.4219 42.5529,329.1563 43.9279,328.5469 L43.4435,327.0313 C42.3497,327.4531 41.3341,327.6406 40.4747,327.6406 C37.756,327.6406 36.0372,325.7969 36.0372,322.8906 C36.0372,320.1406 37.5997,318.5469 40.3341,318.5469 C41.256,318.5469 42.2716,318.7344 43.4122,319.1563 L43.9904,317.6406 C42.8966,317.0625 41.5997,316.7656 40.4122,316.7656 C36.6466,316.7656 34.0685,319.4063 34.0685,323.2188 C34.0685,326.8906 36.5529,329.4219 40.1466,329.4219 Z " fill="#000000"/><text fill="#000000" font-family="sans-serif" font-size="14" lengthAdjust="spacing" textLength="166.6833" x="58.1792" y="328.362">BMM_CONTAINER_VALUE</text><line style="stroke:#181818;stroke-width:0.5;" x1="8" x2="245.0091" y1="339" y2="339"/><ellipse cx="18" cy="352.9" fill="none" rx="3" ry="3" style="stroke:#038048;stroke-width:1;"/><text fill="#000000" font-family="sans-serif" font-size="14" lengthAdjust="spacing" textLength="213.0091" x="27" y="356.7619">type : BMM_CONTAINER_TYPE [1]</text><line style="stroke:#181818;stroke-width:0.5;" x1="8" x2="245.0091" y1="363.7999" y2="363.7999"/></g><!--class BMM_LITERAL_VALUE--><g class="entity" data-entity="BMM_LITERAL_VALUE" data-source-line="6" data-uid="ent0003" id="entity_BMM_LITERAL_VALUE"><rect fill="#F5F5F5" height="98.3998" rx="2.5" ry="2.5" style="stroke:#808080;stroke-width:1;stroke-dasharray:1,3;" width="172.1814" x="40.41" y="148.6"/><ellipse cx="55.41" cy="164.6" fill="#A9DCDF" rx="11" ry="11" style="stroke:#181818;stroke-width:1;"/><path d="M49.9256,170.1 L51.9569,170.1 L56.0038,158.7563 L55.0975,158.7563 L58.9256,170.1 L61.0663,170.1 L56.7381,157.7719 L54.5194,157.7719 L49.9256,170.1 Z M52.2538,166.6 L58.6913,166.6 L58.6913,164.85 L52.2538,164.85 L52.2538,166.6 Z " fill="#000000"/><text fill="#808080" font-family="sans-serif" font-size="14" font-style="italic" lengthAdjust="spacing" textLength="140.1814" x="69.41" y="169.962">BMM_LITERAL_VALUE</text><line style="stroke:#808080;stroke-width:1;stroke-dasharray:1,3;" x1="41.41" x2="211.5914" y1="180.6" y2="180.6"/><ellipse cx="51.41" cy="194.5" fill="none" rx="3" ry="3" style="stroke:#038048;stroke-width:1;"/><text fill="#808080" font-family="sans-serif" font-size="14" lengthAdjust="spacing" textLength="142.0854" x="60.41" y="198.3619">value_literal : String [1]</text><ellipse cx="51.41" cy="211.2999" fill="none" rx="3" ry="3" style="stroke:#038048;stroke-width:1;"/><text fill="#808080" font-family="sans-serif" font-size="14" lengthAdjust="spacing" textLength="100.7156" x="60.41" y="215.1619">value : Any [0..1]</text><ellipse cx="51.41" cy="228.0998" fill="none" rx="3" ry="3" style="stroke:#038048;stroke-width:1;"/><text fill="#808080" font-family="sans-serif" font-size="14" lengthAdjust="spacing" textLength="121.6875" x="60.41" y="231.9618">syntax : String [0..1]</text><line style="stroke:#808080;stroke-width:1;stroke-dasharray:1,3;" x1="41.41" x2="211.5914" y1="238.9998" y2="238.9998"/></g><!--class BMM_TYPED--><g class="entity" data-entity="BMM_TYPED" data-source-line="12" data-uid="ent0004" id="entity_BMM_TYPED"><rect fill="#F5F5F5" height="81.5999" rx="2.5" ry="2.5" style="stroke:#808080;stroke-width:1;stroke-dasharray:1,3;" width="181.2454" x="35.88" y="7"/><ellipse cx="81.0999" cy="23" fill="#A9DCDF" rx="11" ry="11" style="stroke:#181818;stroke-width:1;"/><path d="M75.6155,28.5 L77.6467,28.5 L81.6936,17.1563 L80.7874,17.1563 L84.6155,28.5 L86.7561,28.5 L82.428,16.1719 L80.2092,16.1719 L75.6155,28.5 Z M77.9436,25 L84.3811,25 L84.3811,23.25 L77.9436,23.25 L77.9436,25 Z " fill="#000000"/><text fill="#808080" font-family="sans-serif" font-size="14" font-style="italic" lengthAdjust="spacing" textLength="82.3057" x="101.5999" y="28.362">BMM_TYPED</text><line style="stroke:#808080;stroke-width:1;stroke-dasharray:1,3;" x1="36.88" x2="216.1254" y1="39" y2="39"/><ellipse cx="46.88" cy="52.9" fill="none" rx="3" ry="3" style="stroke:#038048;stroke-width:1;"/><text fill="#808080" font-family="sans-serif" font-size="14" lengthAdjust="spacing" textLength="128.0575" x="55.88" y="56.7619">type : BMM_TYPE [1]</text><line style="stroke:#808080;stroke-width:1;stroke-dasharray:1,3;" x1="36.88" x2="216.1254" y1="63.7999" y2="63.7999"/><ellipse cx="46.88" cy="77.6999" fill="#84BE84" rx="3" ry="3" style="stroke:#038048;stroke-width:1;"/><text fill="#808080" font-family="sans-serif" font-size="14" lengthAdjust="spacing" textLength="155.2454" x="55.88" y="81.5619">is_boolean() : Boolean [1]</text></g><!--reverse link BMM_TYPED to BMM_LITERAL_VALUE--><g class="link" data-entity-1="BMM_TYPED" data-entity-2="BMM_LITERAL_VALUE" data-source-line="17" data-uid="lnk5" id="link_BMM_TYPED_BMM_LITERAL_VALUE"><path codeLine="17" d="M126.5,106.85 C126.5,125.17 126.5,129.04 126.5,148.28" fill="none" id="BMM_TYPED-backto-BMM_LITERAL_VALUE" style="stroke:#181818;stroke-width:1;"/><polygon fill="none" points="126.5,88.85,120.5,106.85,132.5,106.85,126.5,88.85" style="stroke:#181818;stroke-width:1;"/></g><!--reverse link BMM_LITERAL_VALUE to BMM_CONTAINER_VALUE--><g class="link" data-entity-1="BMM_LITERAL_VALUE" data-entity-2="BMM_CONTAINER_VALUE" data-source-line="19" data-uid="lnk6" id="link_BMM_LITERAL_VALUE_BMM_CONTAINER_VALUE"><path codeLine="19" d="M126.5,265.23 C126.5,284.92 126.5,289.12 126.5,306.68" fill="none" id="BMM_LITERAL_VALUE-backto-BMM_CONTAINER_VALUE" style="stroke:#181818;stroke-width:1;"/><polygon fill="none" points="126.5,247.23,120.5,265.23,132.5,265.23,126.5,247.23" style="stroke:#181818;stroke-width:1;"/></g></g></svg>
