<svg xmlns="http://www.w3.org/2000/svg" xmlns:xlink="http://www.w3.org/1999/xlink" contentStyleType="text/css" data-diagram-type="CLASS" height="505px" preserveAspectRatio="none" style="width:362px;height:505px;background:#FFFFFF;" version="1.1" viewBox="0 0 362 505" width="362px" zoomAndPan="magnify"><defs/><g><!--class BMM_SCHEMA--><g class="entity" data-entity="BMM_SCHEMA" data-source-line="2" data-uid="ent0002" id="entity_BMM_SCHEMA"><rect fill="#F1F1F1" height="350.3987" rx="2.5" ry="2.5" style="stroke:#181818;stroke-width:0.5;" width="348.7127" x="7" y="148.6"/><ellipse cx="129.2545" cy="164.6" fill="#A9DCDF" rx="11" ry="11" style="stroke:#181818;stroke-width:1;"/><path d="M123.7702,170.1 L125.8014,170.1 L129.8483,158.7563 L128.942,158.7563 L132.7702,170.1 L134.9108,170.1 L130.5827,157.7719 L128.3639,157.7719 L123.7702,170.1 Z M126.0983,166.6 L132.5358,166.6 L132.5358,164.85 L126.0983,164.85 L126.0983,166.6 Z " fill="#000000"/><text fill="#000000" font-family="sans-serif" font-size="14" font-style="italic" lengthAdjust="spacing" textLength="95.7036" x="149.7545" y="169.962">BMM_SCHEMA</text><line style="stroke:#181818;stroke-width:0.5;" x1="8" x2="354.7127" y1="180.6" y2="180.6"/><ellipse cx="18" cy="194.5" fill="none" rx="3" ry="3" style="stroke:#038048;stroke-width:1;"/><text fill="#000000" font-family="sans-serif" font-size="14" lengthAdjust="spacing" textLength="150.9754" x="27" y="198.3619">bmm_version : String [1]</text><ellipse cx="18" cy="211.2999" fill="none" rx="3" ry="3" style="stroke:#038048;stroke-width:1;"/><text fill="#000000" font-family="sans-serif" font-size="14" lengthAdjust="spacing" textLength="322.7127" x="27" y="215.1619">includes : Hash&lt;String,BMM_INCLUDE_SPEC&gt; [0..1]</text><ellipse cx="18" cy="228.0998" fill="none" rx="3" ry="3" style="stroke:#038048;stroke-width:1;"/><text fill="#000000" font-family="sans-serif" font-size="14" lengthAdjust="spacing" textLength="211.4551" x="27" y="231.9618">bmm_model : BMM_MODEL [0..1]</text><ellipse cx="18" cy="244.8997" fill="none" rx="3" ry="3" style="stroke:#038048;stroke-width:1;"/><text fill="#000000" font-family="sans-serif" font-size="14" lengthAdjust="spacing" textLength="202.9432" x="27" y="248.7617">state : BMM_SCHEMA_STATE [1]</text><ellipse cx="18" cy="261.6997" fill="none" rx="3" ry="3" style="stroke:#038048;stroke-width:1;"/><text fill="#000000" font-family="sans-serif" font-size="14" lengthAdjust="spacing" textLength="163.2533" x="27" y="265.5616">model_name : String [0..1]</text><ellipse cx="18" cy="278.4996" fill="none" rx="3" ry="3" style="stroke:#038048;stroke-width:1;"/><text fill="#000000" font-family="sans-serif" font-size="14" lengthAdjust="spacing" textLength="155.8194" x="27" y="282.3616">schema_name : String [1]</text><ellipse cx="18" cy="295.2995" fill="none" rx="3" ry="3" style="stroke:#038048;stroke-width:1;"/><text fill="#000000" font-family="sans-serif" font-size="14" lengthAdjust="spacing" textLength="169.5673" x="27" y="299.1615">schema_revision : String [1]</text><ellipse cx="18" cy="312.0995" fill="none" rx="3" ry="3" style="stroke:#038048;stroke-width:1;"/><text fill="#000000" font-family="sans-serif" font-size="14" lengthAdjust="spacing" textLength="209.6492" x="27" y="315.9614">schema_lifecycle_state : String [1]</text><ellipse cx="18" cy="328.8994" fill="none" rx="3" ry="3" style="stroke:#038048;stroke-width:1;"/><text fill="#000000" font-family="sans-serif" font-size="14" lengthAdjust="spacing" textLength="162.1054" x="27" y="332.7614">schema_author : String [1]</text><ellipse cx="18" cy="345.6993" fill="none" rx="3" ry="3" style="stroke:#038048;stroke-width:1;"/><text fill="#000000" font-family="sans-serif" font-size="14" lengthAdjust="spacing" textLength="190.4133" x="27" y="349.5613">schema_description : String [1]</text><ellipse cx="18" cy="362.4992" fill="none" rx="3" ry="3" style="stroke:#038048;stroke-width:1;"/><text fill="#000000" font-family="sans-serif" font-size="14" lengthAdjust="spacing" textLength="236.6271" x="27" y="366.3612">schema_contributors : List&lt;String&gt; [*]</text><line style="stroke:#181818;stroke-width:0.5;" x1="8" x2="354.7127" y1="373.3992" y2="373.3992"/><ellipse cx="18" cy="387.2992" fill="#84BE84" rx="3" ry="3" style="stroke:#038048;stroke-width:1;"/><text fill="#000000" font-family="sans-serif" font-size="14" font-style="italic" lengthAdjust="spacing" textLength="165.6753" x="27" y="391.1611">validate_created() : void [1]</text><ellipse cx="18" cy="404.0991" fill="#84BE84" rx="3" ry="3" style="stroke:#038048;stroke-width:1;"/><text fill="#000000" font-family="sans-serif" font-size="14" font-style="italic" lengthAdjust="spacing" textLength="141.5674" x="27" y="407.9611">load_finalise() : void [1]</text><ellipse cx="18" cy="420.899" fill="#84BE84" rx="3" ry="3" style="stroke:#038048;stroke-width:1;"/><text fill="#000000" font-family="sans-serif" font-size="14" font-style="italic" lengthAdjust="spacing" textLength="267.5109" x="27" y="424.761">merge( other : BMM_SCHEMA [1] ) : void [1]</text><ellipse cx="18" cy="437.6989" fill="#84BE84" rx="3" ry="3" style="stroke:#038048;stroke-width:1;"/><text fill="#000000" font-family="sans-serif" font-size="14" font-style="italic" lengthAdjust="spacing" textLength="111.8736" x="27" y="441.5609">validate() : void [1]</text><ellipse cx="18" cy="454.4989" fill="#84BE84" rx="3" ry="3" style="stroke:#038048;stroke-width:1;"/><text fill="#000000" font-family="sans-serif" font-size="14" font-style="italic" lengthAdjust="spacing" textLength="188.2712" x="27" y="458.3608">create_bmm_model() : void [1]</text><ellipse cx="18" cy="471.2988" fill="#84BE84" rx="3" ry="3" style="stroke:#038048;stroke-width:1;"/><text fill="#000000" font-family="sans-serif" font-size="14" lengthAdjust="spacing" textLength="191.6872" x="27" y="475.1608">read_to_validate() : Boolean [1]</text><ellipse cx="18" cy="488.0987" fill="#84BE84" rx="3" ry="3" style="stroke:#038048;stroke-width:1;"/><text fill="#000000" font-family="sans-serif" font-size="14" lengthAdjust="spacing" textLength="140.7695" x="27" y="491.9607">schema_id() : String [1]</text></g><!--class BMM_MODEL_METADATA--><g class="entity" data-entity="BMM_MODEL_METADATA" data-source-line="23" data-uid="ent0003" id="entity_BMM_MODEL_METADATA"><rect fill="#F5F5F5" height="81.5999" rx="2.5" ry="2.5" style="stroke:#808080;stroke-width:1;stroke-dasharray:1,3;" width="199.0473" x="81.83" y="7"/><ellipse cx="96.83" cy="23" fill="#ADD1B2" rx="11" ry="11" style="stroke:#181818;stroke-width:1;"/><path d="M96.83,29.4219 C98.0019,29.4219 99.2363,29.1563 100.6113,28.5469 L100.1269,27.0313 C99.0331,27.4531 98.0175,27.6406 97.1581,27.6406 C94.4394,27.6406 92.7206,25.7969 92.7206,22.8906 C92.7206,20.1406 94.2831,18.5469 97.0175,18.5469 C97.9394,18.5469 98.955,18.7344 100.0956,19.1563 L100.6738,17.6406 C99.58,17.0625 98.2831,16.7656 97.0956,16.7656 C93.33,16.7656 90.7519,19.4063 90.7519,23.2188 C90.7519,26.8906 93.2363,29.4219 96.83,29.4219 Z " fill="#000000"/><text fill="#808080" font-family="sans-serif" font-size="14" lengthAdjust="spacing" textLength="167.0473" x="110.83" y="28.362">BMM_MODEL_METADATA</text><line style="stroke:#808080;stroke-width:1;stroke-dasharray:1,3;" x1="82.83" x2="279.8773" y1="39" y2="39"/><ellipse cx="92.83" cy="52.9" fill="none" rx="3" ry="3" style="stroke:#038048;stroke-width:1;"/><text fill="#808080" font-family="sans-serif" font-size="14" lengthAdjust="spacing" textLength="148.8894" x="101.83" y="56.7619">rm_publisher : String [1]</text><ellipse cx="92.83" cy="69.6999" fill="none" rx="3" ry="3" style="stroke:#038048;stroke-width:1;"/><text fill="#808080" font-family="sans-serif" font-size="14" lengthAdjust="spacing" textLength="135.6735" x="101.83" y="73.5619">rm_release : String [1]</text><line style="stroke:#808080;stroke-width:1;stroke-dasharray:1,3;" x1="82.83" x2="279.8773" y1="80.5999" y2="80.5999"/></g><!--reverse link BMM_MODEL_METADATA to BMM_SCHEMA--><g class="link" data-entity-1="BMM_MODEL_METADATA" data-entity-2="BMM_SCHEMA" data-source-line="28" data-uid="lnk4" id="link_BMM_MODEL_METADATA_BMM_SCHEMA"><path codeLine="28" d="M181.36,106.94 C181.36,123.66 181.36,126.32 181.36,148.39" fill="none" id="BMM_MODEL_METADATA-backto-BMM_SCHEMA" style="stroke:#181818;stroke-width:1;"/><polygon fill="none" points="181.36,88.94,175.36,106.94,187.36,106.94,181.36,88.94" style="stroke:#181818;stroke-width:1;"/></g></g></svg>
