<svg xmlns="http://www.w3.org/2000/svg" xmlns:xlink="http://www.w3.org/1999/xlink" contentStyleType="text/css" data-diagram-type="CLASS" height="496px" preserveAspectRatio="none" style="width:475px;height:496px;background:#FFFFFF;" version="1.1" viewBox="0 0 475 496" width="475px" zoomAndPan="magnify"><defs/><g><!--class BMM_PACKAGE--><g class="entity" data-entity="BMM_PACKAGE" data-source-line="2" data-uid="ent0002" id="entity_BMM_PACKAGE"><rect fill="#F1F1F1" height="98.3998" rx="2.5" ry="2.5" style="stroke:#181818;stroke-width:0.5;" width="259.8551" x="107.79" y="391"/><ellipse cx="182.7737" cy="407" fill="#ADD1B2" rx="11" ry="11" style="stroke:#181818;stroke-width:1;"/><path d="M182.7737,413.4219 C183.9456,413.4219 185.18,413.1563 186.555,412.5469 L186.0706,411.0313 C184.9769,411.4531 183.9612,411.6406 183.1019,411.6406 C180.3831,411.6406 178.6644,409.7969 178.6644,406.8906 C178.6644,404.1406 180.2269,402.5469 182.9612,402.5469 C183.8831,402.5469 184.8987,402.7344 186.0394,403.1563 L186.6175,401.6406 C185.5237,401.0625 184.2269,400.7656 183.0394,400.7656 C179.2737,400.7656 176.6956,403.4063 176.6956,407.2188 C176.6956,410.8906 179.18,413.4219 182.7737,413.4219 Z " fill="#000000"/><text fill="#000000" font-family="sans-serif" font-size="14" lengthAdjust="spacing" textLength="101.3876" x="203.2737" y="412.362">BMM_PACKAGE</text><line style="stroke:#181818;stroke-width:0.5;" x1="108.79" x2="366.6451" y1="423" y2="423"/><ellipse cx="118.79" cy="436.9" fill="none" rx="3" ry="3" style="stroke:#038048;stroke-width:1;"/><text fill="#000000" font-family="sans-serif" font-size="14" lengthAdjust="spacing" textLength="192.2192" x="127.79" y="440.7619">classes : List&lt;BMM_CLASS&gt; [*]</text><line style="stroke:#181818;stroke-width:0.5;" x1="108.79" x2="366.6451" y1="447.7999" y2="447.7999"/><ellipse cx="118.79" cy="461.6999" fill="#84BE84" rx="3" ry="3" style="stroke:#038048;stroke-width:1;"/><text fill="#000000" font-family="sans-serif" font-size="14" lengthAdjust="spacing" textLength="233.8551" x="127.79" y="465.5619">root_classes() : List&lt;BMM_CLASS&gt; [*]</text><ellipse cx="118.79" cy="478.4998" fill="#84BE84" rx="3" ry="3" style="stroke:#038048;stroke-width:1;"/><text fill="#000000" font-family="sans-serif" font-size="14" lengthAdjust="spacing" textLength="102.5636" x="127.79" y="482.3618">path() : String [1]</text></g><!--class BMM_PACKAGE_CONTAINER--><g class="entity" data-entity="BMM_PACKAGE_CONTAINER" data-source-line="8" data-uid="ent0003" id="entity_BMM_PACKAGE_CONTAINER"><rect fill="#F5F5F5" height="131.9996" rx="2.5" ry="2.5" style="stroke:#808080;stroke-width:1;stroke-dasharray:1,3;" width="461.4402" x="7" y="199"/><ellipse cx="140.3005" cy="215" fill="#A9DCDF" rx="11" ry="11" style="stroke:#181818;stroke-width:1;"/><path d="M134.8161,220.5 L136.8474,220.5 L140.8943,209.1563 L139.988,209.1563 L143.8161,220.5 L145.9568,220.5 L141.6286,208.1719 L139.4099,208.1719 L134.8161,220.5 Z M137.1443,217 L143.5818,217 L143.5818,215.25 L137.1443,215.25 L137.1443,217 Z " fill="#000000"/><text fill="#808080" font-family="sans-serif" font-size="14" font-style="italic" lengthAdjust="spacing" textLength="186.3392" x="160.8005" y="220.362">BMM_PACKAGE_CONTAINER</text><line style="stroke:#808080;stroke-width:1;stroke-dasharray:1,3;" x1="8" x2="467.4402" y1="231" y2="231"/><ellipse cx="18" cy="244.9" fill="none" rx="3" ry="3" style="stroke:#038048;stroke-width:1;"/><text fill="#808080" font-family="sans-serif" font-size="14" lengthAdjust="spacing" textLength="292.3608" x="27" y="248.7619">packages : Hash&lt;String,BMM_PACKAGE&gt; [0..1]</text><ellipse cx="18" cy="261.6999" fill="none" rx="3" ry="3" style="stroke:#038048;stroke-width:1;"/><text fill="#808080" font-family="sans-serif" font-size="14" lengthAdjust="spacing" textLength="251.243" x="27" y="265.5619">scope : BMM_PACKAGE_CONTAINER [1]</text><line style="stroke:#808080;stroke-width:1;stroke-dasharray:1,3;" x1="8" x2="467.4402" y1="272.5999" y2="272.5999"/><ellipse cx="18" cy="286.4998" fill="#84BE84" rx="3" ry="3" style="stroke:#038048;stroke-width:1;"/><text fill="#808080" font-family="sans-serif" font-size="14" lengthAdjust="spacing" textLength="374.1766" x="27" y="290.3618">package_at_path( a_path : String [1] ) : BMM_PACKAGE [0..1]</text><ellipse cx="18" cy="303.2997" fill="#84BE84" rx="3" ry="3" style="stroke:#038048;stroke-width:1;"/><text fill="#808080" font-family="sans-serif" font-size="14" lengthAdjust="spacing" textLength="435.4402" x="27" y="307.1617">do_recursive_packages( action : EL_PROCEDURE_AGENT [1] ) : void [1]</text><ellipse cx="18" cy="320.0997" fill="#84BE84" rx="3" ry="3" style="stroke:#038048;stroke-width:1;"/><text fill="#808080" font-family="sans-serif" font-size="14" lengthAdjust="spacing" textLength="317.4908" x="27" y="323.9616">has_package_path( a_path : String [1] ) : Boolean [1]</text></g><!--class BMM_DECLARATION--><g class="entity" data-entity="BMM_DECLARATION" data-source-line="16" data-uid="ent0004" id="entity_BMM_DECLARATION"><rect fill="#F5F5F5" height="131.9996" rx="2.5" ry="2.5" style="stroke:#808080;stroke-width:1;stroke-dasharray:1,3;" width="277.285" x="99.08" y="7"/><ellipse cx="166.9098" cy="23" fill="#A9DCDF" rx="11" ry="11" style="stroke:#181818;stroke-width:1;"/><path d="M161.4254,28.5 L163.4567,28.5 L167.5035,17.1563 L166.5973,17.1563 L170.4254,28.5 L172.566,28.5 L168.2379,16.1719 L166.0192,16.1719 L161.4254,28.5 Z M163.7535,25 L170.191,25 L170.191,23.25 L163.7535,23.25 L163.7535,25 Z " fill="#000000"/><text fill="#808080" font-family="sans-serif" font-size="14" font-style="italic" lengthAdjust="spacing" textLength="133.1255" x="187.4098" y="28.362">BMM_DECLARATION</text><line style="stroke:#808080;stroke-width:1;stroke-dasharray:1,3;" x1="100.08" x2="375.365" y1="39" y2="39"/><ellipse cx="110.08" cy="52.9" fill="none" rx="3" ry="3" style="stroke:#038048;stroke-width:1;"/><text fill="#808080" font-family="sans-serif" font-size="14" lengthAdjust="spacing" textLength="100.8836" x="119.08" y="56.7619">name : String [1]</text><ellipse cx="110.08" cy="69.6999" fill="none" rx="3" ry="3" style="stroke:#038048;stroke-width:1;"/><text fill="#808080" font-family="sans-serif" font-size="14" lengthAdjust="spacing" textLength="251.285" x="119.08" y="73.5619">documentation : Hash&lt;String,Any&gt; [0..1]</text><ellipse cx="110.08" cy="86.4998" fill="none" rx="3" ry="3" style="stroke:#038048;stroke-width:1;"/><text fill="#808080" font-family="sans-serif" font-size="14" lengthAdjust="spacing" textLength="198.0292" x="119.08" y="90.3618">scope : BMM_DECLARATION [1]</text><ellipse cx="110.08" cy="103.2997" fill="none" rx="3" ry="3" style="stroke:#038048;stroke-width:1;"/><text fill="#808080" font-family="sans-serif" font-size="14" lengthAdjust="spacing" textLength="223.3411" x="119.08" y="107.1617">extensions : Hash&lt;String,Any&gt; [0..1]</text><line style="stroke:#808080;stroke-width:1;stroke-dasharray:1,3;" x1="100.08" x2="375.365" y1="114.1997" y2="114.1997"/><ellipse cx="110.08" cy="128.0997" fill="#84BE84" rx="3" ry="3" style="stroke:#038048;stroke-width:1;"/><text fill="#808080" font-family="sans-serif" font-size="14" lengthAdjust="spacing" textLength="174.5653" x="119.08" y="131.9616">is_root_scope() : Boolean [1]</text></g><!--reverse link BMM_DECLARATION to BMM_PACKAGE_CONTAINER--><g class="link" data-entity-1="BMM_DECLARATION" data-entity-2="BMM_PACKAGE_CONTAINER" data-source-line="24" data-uid="lnk5" id="link_BMM_DECLARATION_BMM_PACKAGE_CONTAINER"><path codeLine="24" d="M237.72,157.39 C237.72,176.6 237.72,179.61 237.72,198.81" fill="none" id="BMM_DECLARATION-backto-BMM_PACKAGE_CONTAINER" style="stroke:#181818;stroke-width:1;"/><polygon fill="none" points="237.72,139.39,231.72,157.39,243.72,157.39,237.72,139.39" style="stroke:#181818;stroke-width:1;"/></g><!--reverse link BMM_PACKAGE_CONTAINER to BMM_PACKAGE--><g class="link" data-entity-1="BMM_PACKAGE_CONTAINER" data-entity-2="BMM_PACKAGE" data-source-line="26" data-uid="lnk6" id="link_BMM_PACKAGE_CONTAINER_BMM_PACKAGE"><path codeLine="26" d="M237.72,349.48 C237.72,369.12 237.72,372.3 237.72,390.64" fill="none" id="BMM_PACKAGE_CONTAINER-backto-BMM_PACKAGE" style="stroke:#181818;stroke-width:1;"/><polygon fill="none" points="237.72,331.48,231.72,349.48,243.72,349.48,237.72,331.48" style="stroke:#181818;stroke-width:1;"/></g></g></svg>
