<svg xmlns="http://www.w3.org/2000/svg" xmlns:xlink="http://www.w3.org/1999/xlink" contentStyleType="text/css" data-diagram-type="CLASS" height="537px" preserveAspectRatio="none" style="width:308px;height:537px;background:#FFFFFF;" version="1.1" viewBox="0 0 308 537" width="308px" zoomAndPan="magnify"><defs/><g><!--class EL_BINARY_OPERATOR--><g class="entity" data-entity="EL_BINARY_OPERATOR" data-source-line="2" data-uid="ent0002" id="entity_EL_BINARY_OPERATOR"><rect fill="#F1F1F1" height="81.5999" rx="2.5" ry="2.5" style="stroke:#181818;stroke-width:0.5;" width="232.0792" x="38.45" y="448.6"/><ellipse cx="76.1452" cy="464.6" fill="#ADD1B2" rx="11" ry="11" style="stroke:#181818;stroke-width:1;"/><path d="M76.1452,471.0219 C77.3171,471.0219 78.5515,470.7563 79.9265,470.1469 L79.4421,468.6313 C78.3483,469.0531 77.3327,469.2406 76.4733,469.2406 C73.7546,469.2406 72.0358,467.3969 72.0358,464.4906 C72.0358,461.7406 73.5983,460.1469 76.3327,460.1469 C77.2546,460.1469 78.2702,460.3344 79.4108,460.7563 L79.989,459.2406 C78.8952,458.6625 77.5983,458.3656 76.4108,458.3656 C72.6452,458.3656 70.0671,461.0063 70.0671,464.8188 C70.0671,468.4906 72.5515,471.0219 76.1452,471.0219 Z " fill="#000000"/><text fill="#000000" font-family="sans-serif" font-size="14" lengthAdjust="spacing" textLength="149.6454" x="95.1886" y="469.962">EL_BINARY_OPERATOR</text><line style="stroke:#181818;stroke-width:0.5;" x1="39.45" x2="269.5292" y1="480.6" y2="480.6"/><ellipse cx="49.45" cy="494.5" fill="none" rx="3" ry="3" style="stroke:#038048;stroke-width:1;"/><text fill="#000000" font-family="sans-serif" font-size="14" lengthAdjust="spacing" textLength="177.6173" x="58.45" y="498.3619">left_operand : EL_SIMPLE [1]</text><ellipse cx="49.45" cy="511.2999" fill="none" rx="3" ry="3" style="stroke:#038048;stroke-width:1;"/><text fill="#000000" font-family="sans-serif" font-size="14" lengthAdjust="spacing" textLength="206.0792" x="58.45" y="515.1619">right_operand : EL_TERMINAL [1]</text><line style="stroke:#181818;stroke-width:0.5;" x1="39.45" x2="269.5292" y1="522.1999" y2="522.1999"/></g><!--class EL_OPERATOR--><g class="entity" data-entity="EL_OPERATOR" data-source-line="7" data-uid="ent0003" id="entity_EL_OPERATOR"><rect fill="#F5F5F5" height="131.9996" rx="2.5" ry="2.5" style="stroke:#808080;stroke-width:1;stroke-dasharray:1,3;" width="294.981" x="7" y="256.6"/><ellipse cx="103.2287" cy="272.6" fill="#A9DCDF" rx="11" ry="11" style="stroke:#181818;stroke-width:1;"/><path d="M97.7443,278.1 L99.7756,278.1 L103.8224,266.7563 L102.9162,266.7563 L106.7443,278.1 L108.8849,278.1 L104.5568,265.7719 L102.3381,265.7719 L97.7443,278.1 Z M100.0724,274.6 L106.5099,274.6 L106.5099,272.85 L100.0724,272.85 L100.0724,274.6 Z " fill="#000000"/><text fill="#808080" font-family="sans-serif" font-size="14" font-style="italic" lengthAdjust="spacing" textLength="94.0236" x="123.7287" y="277.962">EL_OPERATOR</text><line style="stroke:#808080;stroke-width:1;stroke-dasharray:1,3;" x1="8" x2="300.981" y1="288.6" y2="288.6"/><ellipse cx="18" cy="302.5" fill="none" rx="3" ry="3" style="stroke:#038048;stroke-width:1;"/><text fill="#808080" font-family="sans-serif" font-size="14" lengthAdjust="spacing" textLength="241.569" x="27" y="306.3619">precedence_overridden : Boolean [0..1]</text><ellipse cx="18" cy="319.2999" fill="none" rx="3" ry="3" style="stroke:#038048;stroke-width:1;"/><text fill="#808080" font-family="sans-serif" font-size="14" lengthAdjust="spacing" textLength="127.1755" x="27" y="323.1619">symbol : String [0..1]</text><ellipse cx="18" cy="336.0998" fill="none" rx="3" ry="3" style="stroke:#038048;stroke-width:1;"/><text fill="#808080" font-family="sans-serif" font-size="14" lengthAdjust="spacing" textLength="197.3572" x="27" y="339.9618">definition : BMM_FUNCTION [1]</text><line style="stroke:#808080;stroke-width:1;stroke-dasharray:1,3;" x1="8" x2="300.981" y1="346.9998" y2="346.9998"/><ellipse cx="18" cy="360.8997" fill="#84BE84" rx="3" ry="3" style="stroke:#038048;stroke-width:1;"/><text fill="#808080" font-family="sans-serif" font-size="14" lengthAdjust="spacing" textLength="268.981" x="27" y="364.7617">operator_definition() : BMM_OPERATOR [1]</text><ellipse cx="18" cy="377.6997" fill="#84BE84" rx="3" ry="3" style="stroke:#038048;stroke-width:1;"/><text fill="#808080" font-family="sans-serif" font-size="14" lengthAdjust="spacing" textLength="261.085" x="27" y="381.5616">equivalent_call() : EL_FUNCTION_CALL [1]</text></g><!--class EL_SIMPLE--><g class="entity" data-entity="EL_SIMPLE" data-source-line="15" data-uid="ent0004" id="entity_EL_SIMPLE"><rect fill="#F5F5F5" height="48" rx="2.5" ry="2.5" style="stroke:#808080;stroke-width:1;stroke-dasharray:1,3;" width="101.2857" x="103.85" y="148.6"/><ellipse cx="118.85" cy="164.6" fill="#A9DCDF" rx="11" ry="11" style="stroke:#181818;stroke-width:1;"/><path d="M113.3656,170.1 L115.3969,170.1 L119.4438,158.7563 L118.5375,158.7563 L122.3656,170.1 L124.5063,170.1 L120.1781,157.7719 L117.9594,157.7719 L113.3656,170.1 Z M115.6938,166.6 L122.1313,166.6 L122.1313,164.85 L115.6938,164.85 L115.6938,166.6 Z " fill="#000000"/><text fill="#808080" font-family="sans-serif" font-size="14" font-style="italic" lengthAdjust="spacing" textLength="69.2857" x="132.85" y="169.962">EL_SIMPLE</text><line style="stroke:#808080;stroke-width:1;stroke-dasharray:1,3;" x1="104.85" x2="204.1357" y1="180.6" y2="180.6"/><line style="stroke:#808080;stroke-width:1;stroke-dasharray:1,3;" x1="104.85" x2="204.1357" y1="188.6" y2="188.6"/></g><!--class EL_EXPRESSION--><g class="entity" data-entity="EL_EXPRESSION" data-source-line="18" data-uid="ent0005" id="entity_EL_EXPRESSION"><rect fill="#F5F5F5" height="81.5999" rx="2.5" ry="2.5" style="stroke:#808080;stroke-width:1;stroke-dasharray:1,3;" width="194.6573" x="57.16" y="7"/><ellipse cx="98.4399" cy="23" fill="#A9DCDF" rx="11" ry="11" style="stroke:#181818;stroke-width:1;"/><path d="M92.9555,28.5 L94.9868,28.5 L99.0336,17.1563 L98.1274,17.1563 L101.9555,28.5 L104.0961,28.5 L99.768,16.1719 L97.5493,16.1719 L92.9555,28.5 Z M95.2836,25 L101.7211,25 L101.7211,23.25 L95.2836,23.25 L95.2836,25 Z " fill="#000000"/><text fill="#808080" font-family="sans-serif" font-size="14" font-style="italic" lengthAdjust="spacing" textLength="104.2576" x="118.2799" y="28.362">EL_EXPRESSION</text><line style="stroke:#808080;stroke-width:1;stroke-dasharray:1,3;" x1="58.16" x2="250.8173" y1="39" y2="39"/><line style="stroke:#808080;stroke-width:1;stroke-dasharray:1,3;" x1="58.16" x2="250.8173" y1="47" y2="47"/><ellipse cx="68.16" cy="60.9" fill="#84BE84" rx="3" ry="3" style="stroke:#038048;stroke-width:1;"/><text fill="#808080" font-family="sans-serif" font-size="14" font-style="italic" lengthAdjust="spacing" textLength="168.6573" x="77.16" y="64.7619">eval_type() : BMM_TYPE [1]</text><ellipse cx="68.16" cy="77.6999" fill="#84BE84" rx="3" ry="3" style="stroke:#038048;stroke-width:1;"/><text fill="#808080" font-family="sans-serif" font-size="14" lengthAdjust="spacing" textLength="155.2454" x="77.16" y="81.5619">is_boolean() : Boolean [1]</text></g><!--reverse link EL_EXPRESSION to EL_SIMPLE--><g class="link" data-entity-1="EL_EXPRESSION" data-entity-2="EL_SIMPLE" data-source-line="23" data-uid="lnk6" id="link_EL_EXPRESSION_EL_SIMPLE"><path codeLine="23" d="M154.49,107.01 C154.49,126.6 154.49,131.46 154.49,148.16" fill="none" id="EL_EXPRESSION-backto-EL_SIMPLE" style="stroke:#181818;stroke-width:1;"/><polygon fill="none" points="154.49,89.01,148.49,107.01,160.49,107.01,154.49,89.01" style="stroke:#181818;stroke-width:1;"/></g><!--reverse link EL_SIMPLE to EL_OPERATOR--><g class="link" data-entity-1="EL_SIMPLE" data-entity-2="EL_OPERATOR" data-source-line="25" data-uid="lnk7" id="link_EL_SIMPLE_EL_OPERATOR"><path codeLine="25" d="M154.49,215.05 C154.49,231.11 154.49,235.25 154.49,256.41" fill="none" id="EL_SIMPLE-backto-EL_OPERATOR" style="stroke:#181818;stroke-width:1;"/><polygon fill="none" points="154.49,197.05,148.49,215.05,160.49,215.05,154.49,197.05" style="stroke:#181818;stroke-width:1;"/></g><!--reverse link EL_OPERATOR to EL_BINARY_OPERATOR--><g class="link" data-entity-1="EL_OPERATOR" data-entity-2="EL_BINARY_OPERATOR" data-source-line="27" data-uid="lnk8" id="link_EL_OPERATOR_EL_BINARY_OPERATOR"><path codeLine="27" d="M154.49,406.73 C154.49,426.89 154.49,430.48 154.49,448.4" fill="none" id="EL_OPERATOR-backto-EL_BINARY_OPERATOR" style="stroke:#181818;stroke-width:1;"/><polygon fill="none" points="154.49,388.73,148.49,406.73,160.49,406.73,154.49,388.73" style="stroke:#181818;stroke-width:1;"/></g></g></svg>
