<svg xmlns="http://www.w3.org/2000/svg" xmlns:xlink="http://www.w3.org/1999/xlink" contentStyleType="text/css" data-diagram-type="CLASS" height="203px" preserveAspectRatio="none" style="width:237px;height:203px;background:#FFFFFF;" version="1.1" viewBox="0 0 237 203" width="237px" zoomAndPan="magnify"><defs/><g><!--class EL_CASE--><g class="entity" data-entity="EL_CASE" data-source-line="2" data-uid="ent0002" id="entity_EL_CASE"><rect fill="#F1F1F1" height="64.7999" rx="2.5" ry="2.5" style="stroke:#181818;stroke-width:0.5;" width="223.5672" x="7" y="131.8"/><ellipse cx="86.5477" cy="147.8" fill="#ADD1B2" rx="11" ry="11" style="stroke:#181818;stroke-width:1;"/><path d="M86.5477,154.2219 C87.7196,154.2219 88.954,153.9562 90.329,153.3469 L89.8446,151.8312 C88.7508,152.2531 87.7352,152.4406 86.8758,152.4406 C84.1571,152.4406 82.4383,150.5969 82.4383,147.6906 C82.4383,144.9406 84.0008,143.3469 86.7352,143.3469 C87.6571,143.3469 88.6727,143.5344 89.8133,143.9562 L90.3915,142.4406 C89.2977,141.8625 88.0008,141.5656 86.8133,141.5656 C83.0477,141.5656 80.4696,144.2062 80.4696,148.0187 C80.4696,151.6906 82.954,154.2219 86.5477,154.2219 Z " fill="#000000"/><text fill="#000000" font-family="sans-serif" font-size="14" lengthAdjust="spacing" textLength="55.9718" x="107.0477" y="153.162">EL_CASE</text><line style="stroke:#181818;stroke-width:0.5;" x1="8" x2="229.5672" y1="163.8" y2="163.8"/><ellipse cx="18" cy="177.7" fill="none" rx="3" ry="3" style="stroke:#038048;stroke-width:1;"/><text fill="#000000" font-family="sans-serif" font-size="14" lengthAdjust="spacing" textLength="197.5672" x="27" y="181.5619">value_constraint : C_OBJECT [1]</text><line style="stroke:#181818;stroke-width:0.5;" x1="8" x2="229.5672" y1="188.5999" y2="188.5999"/></g><!--class EL_DECISION_BRANCH--><g class="entity" data-entity="EL_DECISION_BRANCH" data-source-line="6" data-uid="ent0003" id="entity_EL_DECISION_BRANCH"><rect fill="#F5F5F5" height="64.7999" rx="2.5" ry="2.5" style="stroke:#808080;stroke-width:1;stroke-dasharray:1,3;" width="194.7273" x="21.42" y="7"/><ellipse cx="42.7479" cy="23" fill="#A9DCDF" rx="11" ry="11" style="stroke:#181818;stroke-width:1;"/><path d="M37.2635,28.5 L39.2947,28.5 L43.3416,17.1563 L42.4354,17.1563 L46.2635,28.5 L48.4041,28.5 L44.076,16.1719 L41.8572,16.1719 L37.2635,28.5 Z M39.5916,25 L46.0291,25 L46.0291,23.25 L39.5916,23.25 L39.5916,25 Z " fill="#000000"/><text fill="#808080" font-family="sans-serif" font-size="14" font-style="italic" lengthAdjust="spacing" textLength="148.6654" x="58.154" y="28.362">EL_DECISION_BRANCH</text><line style="stroke:#808080;stroke-width:1;stroke-dasharray:1,3;" x1="22.42" x2="215.1473" y1="39" y2="39"/><ellipse cx="32.42" cy="52.9" fill="none" rx="3" ry="3" style="stroke:#038048;stroke-width:1;"/><text fill="#808080" font-family="sans-serif" font-size="14" lengthAdjust="spacing" textLength="168.7273" x="41.42" y="56.7619">result : EL_EXPRESSION [1]</text><line style="stroke:#808080;stroke-width:1;stroke-dasharray:1,3;" x1="22.42" x2="215.1473" y1="63.7999" y2="63.7999"/></g><!--reverse link EL_DECISION_BRANCH to EL_CASE--><g class="link" data-entity-1="EL_DECISION_BRANCH" data-entity-2="EL_CASE" data-source-line="10" data-uid="lnk4" id="link_EL_DECISION_BRANCH_EL_CASE"><path codeLine="10" d="M118.78,90.02 C118.78,108.36 118.78,113.37 118.78,131.68" fill="none" id="EL_DECISION_BRANCH-backto-EL_CASE" style="stroke:#181818;stroke-width:1;"/><polygon fill="none" points="118.78,72.02,112.78,90.02,124.78,90.02,118.78,72.02" style="stroke:#181818;stroke-width:1;"/></g></g></svg>
