<svg xmlns="http://www.w3.org/2000/svg" xmlns:xlink="http://www.w3.org/1999/xlink" contentStyleType="text/css" data-diagram-type="CLASS" height="561px" preserveAspectRatio="none" style="width:241px;height:561px;background:#FFFFFF;" version="1.1" viewBox="0 0 241 561" width="241px" zoomAndPan="magnify"><defs/><g><!--class EL_LITERAL--><g class="entity" data-entity="EL_LITERAL" data-source-line="2" data-uid="ent0002" id="entity_EL_LITERAL"><rect fill="#F1F1F1" height="81.5999" rx="2.5" ry="2.5" style="stroke:#181818;stroke-width:0.5;" width="227.7112" x="7" y="472.6"/><ellipse cx="79.7507" cy="488.6" fill="#ADD1B2" rx="11" ry="11" style="stroke:#181818;stroke-width:1;"/><path d="M79.7507,495.0219 C80.9226,495.0219 82.157,494.7563 83.532,494.1469 L83.0476,492.6313 C81.9539,493.0531 80.9382,493.2406 80.0789,493.2406 C77.3601,493.2406 75.6414,491.3969 75.6414,488.4906 C75.6414,485.7406 77.2039,484.1469 79.9382,484.1469 C80.8601,484.1469 81.8757,484.3344 83.0164,484.7563 L83.5945,483.2406 C82.5007,482.6625 81.2039,482.3656 80.0164,482.3656 C76.2507,482.3656 73.6726,485.0063 73.6726,488.8188 C73.6726,492.4906 76.157,495.0219 79.7507,495.0219 Z " fill="#000000"/><text fill="#000000" font-family="sans-serif" font-size="14" lengthAdjust="spacing" textLength="73.7097" x="100.2507" y="493.962">EL_LITERAL</text><line style="stroke:#181818;stroke-width:0.5;" x1="8" x2="233.7112" y1="504.6" y2="504.6"/><ellipse cx="18" cy="518.5" fill="none" rx="3" ry="3" style="stroke:#038048;stroke-width:1;"/><text fill="#000000" font-family="sans-serif" font-size="14" lengthAdjust="spacing" textLength="201.7112" x="27" y="522.3619">value : BMM_LITERAL_VALUE [1]</text><line style="stroke:#181818;stroke-width:0.5;" x1="8" x2="233.7112" y1="529.3999" y2="529.3999"/><ellipse cx="18" cy="543.2999" fill="#84BE84" rx="3" ry="3" style="stroke:#038048;stroke-width:1;"/><text fill="#000000" font-family="sans-serif" font-size="14" lengthAdjust="spacing" textLength="168.6573" x="27" y="547.1619">eval_type() : BMM_TYPE [1]</text></g><!--class EL_INSTANCE_REF--><g class="entity" data-entity="EL_INSTANCE_REF" data-source-line="7" data-uid="ent0003" id="entity_EL_INSTANCE_REF"><rect fill="#F5F5F5" height="48" rx="2.5" ry="2.5" style="stroke:#808080;stroke-width:1;stroke-dasharray:1,3;" width="152.3715" x="44.67" y="364.6"/><ellipse cx="59.67" cy="380.6" fill="#A9DCDF" rx="11" ry="11" style="stroke:#181818;stroke-width:1;"/><path d="M54.1856,386.1 L56.2169,386.1 L60.2638,374.7563 L59.3575,374.7563 L63.1856,386.1 L65.3263,386.1 L60.9981,373.7719 L58.7794,373.7719 L54.1856,386.1 Z M56.5138,382.6 L62.9513,382.6 L62.9513,380.85 L56.5138,380.85 L56.5138,382.6 Z " fill="#000000"/><text fill="#808080" font-family="sans-serif" font-size="14" font-style="italic" lengthAdjust="spacing" textLength="120.3715" x="73.67" y="385.962">EL_INSTANCE_REF</text><line style="stroke:#808080;stroke-width:1;stroke-dasharray:1,3;" x1="45.67" x2="196.0415" y1="396.6" y2="396.6"/><line style="stroke:#808080;stroke-width:1;stroke-dasharray:1,3;" x1="45.67" x2="196.0415" y1="404.6" y2="404.6"/></g><!--class EL_TERMINAL--><g class="entity" data-entity="EL_TERMINAL" data-source-line="10" data-uid="ent0004" id="entity_EL_TERMINAL"><rect fill="#F5F5F5" height="48" rx="2.5" ry="2.5" style="stroke:#808080;stroke-width:1;stroke-dasharray:1,3;" width="121.1516" x="60.28" y="256.6"/><ellipse cx="75.28" cy="272.6" fill="#A9DCDF" rx="11" ry="11" style="stroke:#181818;stroke-width:1;"/><path d="M69.7956,278.1 L71.8269,278.1 L75.8738,266.7563 L74.9675,266.7563 L78.7956,278.1 L80.9363,278.1 L76.6081,265.7719 L74.3894,265.7719 L69.7956,278.1 Z M72.1238,274.6 L78.5613,274.6 L78.5613,272.85 L72.1238,272.85 L72.1238,274.6 Z " fill="#000000"/><text fill="#808080" font-family="sans-serif" font-size="14" font-style="italic" lengthAdjust="spacing" textLength="89.1516" x="89.28" y="277.962">EL_TERMINAL</text><line style="stroke:#808080;stroke-width:1;stroke-dasharray:1,3;" x1="61.28" x2="180.4316" y1="288.6" y2="288.6"/><line style="stroke:#808080;stroke-width:1;stroke-dasharray:1,3;" x1="61.28" x2="180.4316" y1="296.6" y2="296.6"/></g><!--class EL_SIMPLE--><g class="entity" data-entity="EL_SIMPLE" data-source-line="13" data-uid="ent0005" id="entity_EL_SIMPLE"><rect fill="#F5F5F5" height="48" rx="2.5" ry="2.5" style="stroke:#808080;stroke-width:1;stroke-dasharray:1,3;" width="101.2857" x="70.21" y="148.6"/><ellipse cx="85.21" cy="164.6" fill="#A9DCDF" rx="11" ry="11" style="stroke:#181818;stroke-width:1;"/><path d="M79.7256,170.1 L81.7569,170.1 L85.8038,158.7563 L84.8975,158.7563 L88.7256,170.1 L90.8663,170.1 L86.5381,157.7719 L84.3194,157.7719 L79.7256,170.1 Z M82.0538,166.6 L88.4913,166.6 L88.4913,164.85 L82.0538,164.85 L82.0538,166.6 Z " fill="#000000"/><text fill="#808080" font-family="sans-serif" font-size="14" font-style="italic" lengthAdjust="spacing" textLength="69.2857" x="99.21" y="169.962">EL_SIMPLE</text><line style="stroke:#808080;stroke-width:1;stroke-dasharray:1,3;" x1="71.21" x2="170.4957" y1="180.6" y2="180.6"/><line style="stroke:#808080;stroke-width:1;stroke-dasharray:1,3;" x1="71.21" x2="170.4957" y1="188.6" y2="188.6"/></g><!--class EL_EXPRESSION--><g class="entity" data-entity="EL_EXPRESSION" data-source-line="16" data-uid="ent0006" id="entity_EL_EXPRESSION"><rect fill="#F5F5F5" height="81.5999" rx="2.5" ry="2.5" style="stroke:#808080;stroke-width:1;stroke-dasharray:1,3;" width="194.6573" x="23.53" y="7"/><ellipse cx="64.8099" cy="23" fill="#A9DCDF" rx="11" ry="11" style="stroke:#181818;stroke-width:1;"/><path d="M59.3255,28.5 L61.3568,28.5 L65.4036,17.1563 L64.4974,17.1563 L68.3255,28.5 L70.4661,28.5 L66.138,16.1719 L63.9193,16.1719 L59.3255,28.5 Z M61.6536,25 L68.0911,25 L68.0911,23.25 L61.6536,23.25 L61.6536,25 Z " fill="#000000"/><text fill="#808080" font-family="sans-serif" font-size="14" font-style="italic" lengthAdjust="spacing" textLength="104.2576" x="84.6499" y="28.362">EL_EXPRESSION</text><line style="stroke:#808080;stroke-width:1;stroke-dasharray:1,3;" x1="24.53" x2="217.1873" y1="39" y2="39"/><line style="stroke:#808080;stroke-width:1;stroke-dasharray:1,3;" x1="24.53" x2="217.1873" y1="47" y2="47"/><ellipse cx="34.53" cy="60.9" fill="#84BE84" rx="3" ry="3" style="stroke:#038048;stroke-width:1;"/><text fill="#808080" font-family="sans-serif" font-size="14" font-style="italic" lengthAdjust="spacing" textLength="168.6573" x="43.53" y="64.7619">eval_type() : BMM_TYPE [1]</text><ellipse cx="34.53" cy="77.6999" fill="#84BE84" rx="3" ry="3" style="stroke:#038048;stroke-width:1;"/><text fill="#808080" font-family="sans-serif" font-size="14" lengthAdjust="spacing" textLength="155.2454" x="43.53" y="81.5619">is_boolean() : Boolean [1]</text></g><!--reverse link EL_EXPRESSION to EL_SIMPLE--><g class="link" data-entity-1="EL_EXPRESSION" data-entity-2="EL_SIMPLE" data-source-line="21" data-uid="lnk7" id="link_EL_EXPRESSION_EL_SIMPLE"><path codeLine="21" d="M120.86,107.01 C120.86,126.6 120.86,131.46 120.86,148.16" fill="none" id="EL_EXPRESSION-backto-EL_SIMPLE" style="stroke:#181818;stroke-width:1;"/><polygon fill="none" points="120.86,89.01,114.86,107.01,126.86,107.01,120.86,89.01" style="stroke:#181818;stroke-width:1;"/></g><!--reverse link EL_SIMPLE to EL_TERMINAL--><g class="link" data-entity-1="EL_SIMPLE" data-entity-2="EL_TERMINAL" data-source-line="23" data-uid="lnk8" id="link_EL_SIMPLE_EL_TERMINAL"><path codeLine="23" d="M120.86,214.86 C120.86,232.54 120.86,238.73 120.86,256.39" fill="none" id="EL_SIMPLE-backto-EL_TERMINAL" style="stroke:#181818;stroke-width:1;"/><polygon fill="none" points="120.86,196.86,114.86,214.86,126.86,214.86,120.86,196.86" style="stroke:#181818;stroke-width:1;"/></g><!--reverse link EL_TERMINAL to EL_INSTANCE_REF--><g class="link" data-entity-1="EL_TERMINAL" data-entity-2="EL_INSTANCE_REF" data-source-line="25" data-uid="lnk9" id="link_EL_TERMINAL_EL_INSTANCE_REF"><path codeLine="25" d="M120.86,322.86 C120.86,340.54 120.86,346.73 120.86,364.39" fill="none" id="EL_TERMINAL-backto-EL_INSTANCE_REF" style="stroke:#181818;stroke-width:1;"/><polygon fill="none" points="120.86,304.86,114.86,322.86,126.86,322.86,120.86,304.86" style="stroke:#181818;stroke-width:1;"/></g><!--reverse link EL_INSTANCE_REF to EL_LITERAL--><g class="link" data-entity-1="EL_INSTANCE_REF" data-entity-2="EL_LITERAL" data-source-line="27" data-uid="lnk10" id="link_EL_INSTANCE_REF_EL_LITERAL"><path codeLine="27" d="M120.86,430.99 C120.86,447.69 120.86,452.58 120.86,472.18" fill="none" id="EL_INSTANCE_REF-backto-EL_LITERAL" style="stroke:#181818;stroke-width:1;"/><polygon fill="none" points="120.86,412.99,114.86,430.99,126.86,430.99,120.86,412.99" style="stroke:#181818;stroke-width:1;"/></g></g></svg>
