<svg xmlns="http://www.w3.org/2000/svg" xmlns:xlink="http://www.w3.org/1999/xlink" contentStyleType="text/css" data-diagram-type="CLASS" height="453px" preserveAspectRatio="none" style="width:262px;height:453px;background:#FFFFFF;" version="1.1" viewBox="0 0 262 453" width="262px" zoomAndPan="magnify"><defs/><g><!--class EL_PREDICATE--><g class="entity" data-entity="EL_PREDICATE" data-source-line="2" data-uid="ent0002" id="entity_EL_PREDICATE"><rect fill="#F1F1F1" height="81.5999" rx="2.5" ry="2.5" style="stroke:#181818;stroke-width:0.5;" width="248.6831" x="7" y="364.6"/><ellipse cx="79.6107" cy="380.6" fill="#A9DCDF" rx="11" ry="11" style="stroke:#181818;stroke-width:1;"/><path d="M74.1264,386.1 L76.1576,386.1 L80.2045,374.7562 L79.2982,374.7562 L83.1264,386.1 L85.267,386.1 L80.9389,373.7719 L78.7201,373.7719 L74.1264,386.1 Z M76.4545,382.6 L82.892,382.6 L82.892,380.85 L76.4545,380.85 L76.4545,382.6 Z " fill="#000000"/><text fill="#000000" font-family="sans-serif" font-size="14" font-style="italic" lengthAdjust="spacing" textLength="94.9616" x="100.1107" y="385.962">EL_PREDICATE</text><line style="stroke:#181818;stroke-width:0.5;" x1="8" x2="254.6831" y1="396.6" y2="396.6"/><ellipse cx="18" cy="410.5" fill="none" rx="3" ry="3" style="stroke:#038048;stroke-width:1;"/><text fill="#000000" font-family="sans-serif" font-size="14" lengthAdjust="spacing" textLength="200.6052" x="27" y="414.3619">operand : EL_INSTANCE_REF [1]</text><line style="stroke:#181818;stroke-width:0.5;" x1="8" x2="254.6831" y1="421.3999" y2="421.3999"/><ellipse cx="18" cy="435.2999" fill="#84BE84" rx="3" ry="3" style="stroke:#038048;stroke-width:1;"/><text fill="#000000" font-family="sans-serif" font-size="14" lengthAdjust="spacing" textLength="222.6831" x="27" y="439.1619">eval_type() : BMM_SIMPLE_TYPE [1]</text></g><!--class EL_TERMINAL--><g class="entity" data-entity="EL_TERMINAL" data-source-line="7" data-uid="ent0003" id="entity_EL_TERMINAL"><rect fill="#F5F5F5" height="48" rx="2.5" ry="2.5" style="stroke:#808080;stroke-width:1;stroke-dasharray:1,3;" width="121.1516" x="70.77" y="256.6"/><ellipse cx="85.77" cy="272.6" fill="#A9DCDF" rx="11" ry="11" style="stroke:#181818;stroke-width:1;"/><path d="M80.2856,278.1 L82.3169,278.1 L86.3638,266.7562 L85.4575,266.7562 L89.2856,278.1 L91.4263,278.1 L87.0981,265.7719 L84.8794,265.7719 L80.2856,278.1 Z M82.6138,274.6 L89.0513,274.6 L89.0513,272.85 L82.6138,272.85 L82.6138,274.6 Z " fill="#000000"/><text fill="#808080" font-family="sans-serif" font-size="14" font-style="italic" lengthAdjust="spacing" textLength="89.1516" x="99.77" y="277.962">EL_TERMINAL</text><line style="stroke:#808080;stroke-width:1;stroke-dasharray:1,3;" x1="71.77" x2="190.9216" y1="288.6" y2="288.6"/><line style="stroke:#808080;stroke-width:1;stroke-dasharray:1,3;" x1="71.77" x2="190.9216" y1="296.6" y2="296.6"/></g><!--class EL_SIMPLE--><g class="entity" data-entity="EL_SIMPLE" data-source-line="10" data-uid="ent0004" id="entity_EL_SIMPLE"><rect fill="#F5F5F5" height="48" rx="2.5" ry="2.5" style="stroke:#808080;stroke-width:1;stroke-dasharray:1,3;" width="101.2857" x="80.7" y="148.6"/><ellipse cx="95.7" cy="164.6" fill="#A9DCDF" rx="11" ry="11" style="stroke:#181818;stroke-width:1;"/><path d="M90.2156,170.1 L92.2469,170.1 L96.2938,158.7562 L95.3875,158.7562 L99.2156,170.1 L101.3563,170.1 L97.0281,157.7719 L94.8094,157.7719 L90.2156,170.1 Z M92.5438,166.6 L98.9813,166.6 L98.9813,164.85 L92.5438,164.85 L92.5438,166.6 Z " fill="#000000"/><text fill="#808080" font-family="sans-serif" font-size="14" font-style="italic" lengthAdjust="spacing" textLength="69.2857" x="109.7" y="169.962">EL_SIMPLE</text><line style="stroke:#808080;stroke-width:1;stroke-dasharray:1,3;" x1="81.7" x2="180.9857" y1="180.6" y2="180.6"/><line style="stroke:#808080;stroke-width:1;stroke-dasharray:1,3;" x1="81.7" x2="180.9857" y1="188.6" y2="188.6"/></g><!--class EL_EXPRESSION--><g class="entity" data-entity="EL_EXPRESSION" data-source-line="13" data-uid="ent0005" id="entity_EL_EXPRESSION"><rect fill="#F5F5F5" height="81.5999" rx="2.5" ry="2.5" style="stroke:#808080;stroke-width:1;stroke-dasharray:1,3;" width="194.6573" x="34.01" y="7"/><ellipse cx="75.2899" cy="23" fill="#A9DCDF" rx="11" ry="11" style="stroke:#181818;stroke-width:1;"/><path d="M69.8055,28.5 L71.8368,28.5 L75.8836,17.1563 L74.9774,17.1563 L78.8055,28.5 L80.9461,28.5 L76.618,16.1719 L74.3993,16.1719 L69.8055,28.5 Z M72.1336,25 L78.5711,25 L78.5711,23.25 L72.1336,23.25 L72.1336,25 Z " fill="#000000"/><text fill="#808080" font-family="sans-serif" font-size="14" font-style="italic" lengthAdjust="spacing" textLength="104.2576" x="95.1299" y="28.362">EL_EXPRESSION</text><line style="stroke:#808080;stroke-width:1;stroke-dasharray:1,3;" x1="35.01" x2="227.6673" y1="39" y2="39"/><line style="stroke:#808080;stroke-width:1;stroke-dasharray:1,3;" x1="35.01" x2="227.6673" y1="47" y2="47"/><ellipse cx="45.01" cy="60.9" fill="#84BE84" rx="3" ry="3" style="stroke:#038048;stroke-width:1;"/><text fill="#808080" font-family="sans-serif" font-size="14" font-style="italic" lengthAdjust="spacing" textLength="168.6573" x="54.01" y="64.7619">eval_type() : BMM_TYPE [1]</text><ellipse cx="45.01" cy="77.6999" fill="#84BE84" rx="3" ry="3" style="stroke:#038048;stroke-width:1;"/><text fill="#808080" font-family="sans-serif" font-size="14" lengthAdjust="spacing" textLength="155.2454" x="54.01" y="81.5619">is_boolean() : Boolean [1]</text></g><!--reverse link EL_EXPRESSION to EL_SIMPLE--><g class="link" data-entity-1="EL_EXPRESSION" data-entity-2="EL_SIMPLE" data-source-line="18" data-uid="lnk6" id="link_EL_EXPRESSION_EL_SIMPLE"><path codeLine="18" d="M131.34,107.01 C131.34,126.6 131.34,131.46 131.34,148.16" fill="none" id="EL_EXPRESSION-backto-EL_SIMPLE" style="stroke:#181818;stroke-width:1;"/><polygon fill="none" points="131.34,89.01,125.34,107.01,137.34,107.01,131.34,89.01" style="stroke:#181818;stroke-width:1;"/></g><!--reverse link EL_SIMPLE to EL_TERMINAL--><g class="link" data-entity-1="EL_SIMPLE" data-entity-2="EL_TERMINAL" data-source-line="20" data-uid="lnk7" id="link_EL_SIMPLE_EL_TERMINAL"><path codeLine="20" d="M131.34,214.86 C131.34,232.54 131.34,238.73 131.34,256.39" fill="none" id="EL_SIMPLE-backto-EL_TERMINAL" style="stroke:#181818;stroke-width:1;"/><polygon fill="none" points="131.34,196.86,125.34,214.86,137.34,214.86,131.34,196.86" style="stroke:#181818;stroke-width:1;"/></g><!--reverse link EL_TERMINAL to EL_PREDICATE--><g class="link" data-entity-1="EL_TERMINAL" data-entity-2="EL_PREDICATE" data-source-line="22" data-uid="lnk8" id="link_EL_TERMINAL_EL_PREDICATE"><path codeLine="22" d="M131.34,322.99 C131.34,339.69 131.34,344.58 131.34,364.18" fill="none" id="EL_TERMINAL-backto-EL_PREDICATE" style="stroke:#181818;stroke-width:1;"/><polygon fill="none" points="131.34,304.99,125.34,322.99,137.34,322.99,131.34,304.99" style="stroke:#181818;stroke-width:1;"/></g></g></svg>
