<svg xmlns="http://www.w3.org/2000/svg" xmlns:xlink="http://www.w3.org/1999/xlink" contentStyleType="text/css" data-diagram-type="CLASS" height="544px" preserveAspectRatio="none" style="width:241px;height:544px;background:#FFFFFF;" version="1.1" viewBox="0 0 241 544" width="241px" zoomAndPan="magnify"><defs/><g><!--class EL_SCOPED_REF--><g class="entity" data-entity="EL_SCOPED_REF" data-source-line="2" data-uid="ent0002" id="entity_EL_SCOPED_REF"><rect fill="#F1F1F1" height="64.7999" rx="2.5" ry="2.5" style="stroke:#181818;stroke-width:0.5;" width="227.0392" x="7" y="472.6"/><ellipse cx="62.3698" cy="488.6" fill="#A9DCDF" rx="11" ry="11" style="stroke:#181818;stroke-width:1;"/><path d="M56.8854,494.1 L58.9167,494.1 L62.9636,482.7562 L62.0573,482.7562 L65.8854,494.1 L68.0261,494.1 L63.6979,481.7719 L61.4792,481.7719 L56.8854,494.1 Z M59.2136,490.6 L65.6511,490.6 L65.6511,488.85 L59.2136,488.85 L59.2136,490.6 Z " fill="#000000"/><text fill="#000000" font-family="sans-serif" font-size="14" font-style="italic" lengthAdjust="spacing" textLength="107.7996" x="82.8698" y="493.962">EL_SCOPED_REF</text><line style="stroke:#181818;stroke-width:0.5;" x1="8" x2="233.0392" y1="504.6" y2="504.6"/><ellipse cx="18" cy="518.5" fill="none" rx="3" ry="3" style="stroke:#038048;stroke-width:1;"/><text fill="#000000" font-family="sans-serif" font-size="14" lengthAdjust="spacing" textLength="201.0392" x="27" y="522.3619">scope : EL_INSTANCE_REF [0..1]</text><line style="stroke:#181818;stroke-width:0.5;" x1="8" x2="233.0392" y1="529.3999" y2="529.3999"/></g><!--class EL_INSTANCE_REF--><g class="entity" data-entity="EL_INSTANCE_REF" data-source-line="6" data-uid="ent0003" id="entity_EL_INSTANCE_REF"><rect fill="#F5F5F5" height="48" rx="2.5" ry="2.5" style="stroke:#808080;stroke-width:1;stroke-dasharray:1,3;" width="152.3715" x="44.33" y="364.6"/><ellipse cx="59.33" cy="380.6" fill="#A9DCDF" rx="11" ry="11" style="stroke:#181818;stroke-width:1;"/><path d="M53.8456,386.1 L55.8769,386.1 L59.9238,374.7562 L59.0175,374.7562 L62.8456,386.1 L64.9863,386.1 L60.6581,373.7719 L58.4394,373.7719 L53.8456,386.1 Z M56.1738,382.6 L62.6113,382.6 L62.6113,380.85 L56.1738,380.85 L56.1738,382.6 Z " fill="#000000"/><text fill="#808080" font-family="sans-serif" font-size="14" font-style="italic" lengthAdjust="spacing" textLength="120.3715" x="73.33" y="385.962">EL_INSTANCE_REF</text><line style="stroke:#808080;stroke-width:1;stroke-dasharray:1,3;" x1="45.33" x2="195.7015" y1="396.6" y2="396.6"/><line style="stroke:#808080;stroke-width:1;stroke-dasharray:1,3;" x1="45.33" x2="195.7015" y1="404.6" y2="404.6"/></g><!--class EL_TERMINAL--><g class="entity" data-entity="EL_TERMINAL" data-source-line="9" data-uid="ent0004" id="entity_EL_TERMINAL"><rect fill="#F5F5F5" height="48" rx="2.5" ry="2.5" style="stroke:#808080;stroke-width:1;stroke-dasharray:1,3;" width="121.1516" x="59.94" y="256.6"/><ellipse cx="74.94" cy="272.6" fill="#A9DCDF" rx="11" ry="11" style="stroke:#181818;stroke-width:1;"/><path d="M69.4556,278.1 L71.4869,278.1 L75.5338,266.7562 L74.6275,266.7562 L78.4556,278.1 L80.5963,278.1 L76.2681,265.7719 L74.0494,265.7719 L69.4556,278.1 Z M71.7838,274.6 L78.2213,274.6 L78.2213,272.85 L71.7838,272.85 L71.7838,274.6 Z " fill="#000000"/><text fill="#808080" font-family="sans-serif" font-size="14" font-style="italic" lengthAdjust="spacing" textLength="89.1516" x="88.94" y="277.962">EL_TERMINAL</text><line style="stroke:#808080;stroke-width:1;stroke-dasharray:1,3;" x1="60.94" x2="180.0916" y1="288.6" y2="288.6"/><line style="stroke:#808080;stroke-width:1;stroke-dasharray:1,3;" x1="60.94" x2="180.0916" y1="296.6" y2="296.6"/></g><!--class EL_SIMPLE--><g class="entity" data-entity="EL_SIMPLE" data-source-line="12" data-uid="ent0005" id="entity_EL_SIMPLE"><rect fill="#F5F5F5" height="48" rx="2.5" ry="2.5" style="stroke:#808080;stroke-width:1;stroke-dasharray:1,3;" width="101.2857" x="69.88" y="148.6"/><ellipse cx="84.88" cy="164.6" fill="#A9DCDF" rx="11" ry="11" style="stroke:#181818;stroke-width:1;"/><path d="M79.3956,170.1 L81.4269,170.1 L85.4738,158.7562 L84.5675,158.7562 L88.3956,170.1 L90.5363,170.1 L86.2081,157.7719 L83.9894,157.7719 L79.3956,170.1 Z M81.7238,166.6 L88.1613,166.6 L88.1613,164.85 L81.7238,164.85 L81.7238,166.6 Z " fill="#000000"/><text fill="#808080" font-family="sans-serif" font-size="14" font-style="italic" lengthAdjust="spacing" textLength="69.2857" x="98.88" y="169.962">EL_SIMPLE</text><line style="stroke:#808080;stroke-width:1;stroke-dasharray:1,3;" x1="70.88" x2="170.1657" y1="180.6" y2="180.6"/><line style="stroke:#808080;stroke-width:1;stroke-dasharray:1,3;" x1="70.88" x2="170.1657" y1="188.6" y2="188.6"/></g><!--class EL_EXPRESSION--><g class="entity" data-entity="EL_EXPRESSION" data-source-line="15" data-uid="ent0006" id="entity_EL_EXPRESSION"><rect fill="#F5F5F5" height="81.5999" rx="2.5" ry="2.5" style="stroke:#808080;stroke-width:1;stroke-dasharray:1,3;" width="194.6573" x="23.19" y="7"/><ellipse cx="64.4699" cy="23" fill="#A9DCDF" rx="11" ry="11" style="stroke:#181818;stroke-width:1;"/><path d="M58.9855,28.5 L61.0168,28.5 L65.0636,17.1563 L64.1574,17.1563 L67.9855,28.5 L70.1261,28.5 L65.798,16.1719 L63.5793,16.1719 L58.9855,28.5 Z M61.3136,25 L67.7511,25 L67.7511,23.25 L61.3136,23.25 L61.3136,25 Z " fill="#000000"/><text fill="#808080" font-family="sans-serif" font-size="14" font-style="italic" lengthAdjust="spacing" textLength="104.2576" x="84.3099" y="28.362">EL_EXPRESSION</text><line style="stroke:#808080;stroke-width:1;stroke-dasharray:1,3;" x1="24.19" x2="216.8473" y1="39" y2="39"/><line style="stroke:#808080;stroke-width:1;stroke-dasharray:1,3;" x1="24.19" x2="216.8473" y1="47" y2="47"/><ellipse cx="34.19" cy="60.9" fill="#84BE84" rx="3" ry="3" style="stroke:#038048;stroke-width:1;"/><text fill="#808080" font-family="sans-serif" font-size="14" font-style="italic" lengthAdjust="spacing" textLength="168.6573" x="43.19" y="64.7619">eval_type() : BMM_TYPE [1]</text><ellipse cx="34.19" cy="77.6999" fill="#84BE84" rx="3" ry="3" style="stroke:#038048;stroke-width:1;"/><text fill="#808080" font-family="sans-serif" font-size="14" lengthAdjust="spacing" textLength="155.2454" x="43.19" y="81.5619">is_boolean() : Boolean [1]</text></g><!--reverse link EL_EXPRESSION to EL_SIMPLE--><g class="link" data-entity-1="EL_EXPRESSION" data-entity-2="EL_SIMPLE" data-source-line="20" data-uid="lnk7" id="link_EL_EXPRESSION_EL_SIMPLE"><path codeLine="20" d="M120.52,107.01 C120.52,126.59 120.52,131.46 120.52,148.16" fill="none" id="EL_EXPRESSION-backto-EL_SIMPLE" style="stroke:#181818;stroke-width:1;"/><polygon fill="none" points="120.52,89.01,114.52,107.01,126.52,107.01,120.52,89.01" style="stroke:#181818;stroke-width:1;"/></g><!--reverse link EL_SIMPLE to EL_TERMINAL--><g class="link" data-entity-1="EL_SIMPLE" data-entity-2="EL_TERMINAL" data-source-line="22" data-uid="lnk8" id="link_EL_SIMPLE_EL_TERMINAL"><path codeLine="22" d="M120.52,214.86 C120.52,232.54 120.52,238.73 120.52,256.39" fill="none" id="EL_SIMPLE-backto-EL_TERMINAL" style="stroke:#181818;stroke-width:1;"/><polygon fill="none" points="120.52,196.86,114.52,214.86,126.52,214.86,120.52,196.86" style="stroke:#181818;stroke-width:1;"/></g><!--reverse link EL_TERMINAL to EL_INSTANCE_REF--><g class="link" data-entity-1="EL_TERMINAL" data-entity-2="EL_INSTANCE_REF" data-source-line="24" data-uid="lnk9" id="link_EL_TERMINAL_EL_INSTANCE_REF"><path codeLine="24" d="M120.52,322.86 C120.52,340.54 120.52,346.73 120.52,364.39" fill="none" id="EL_TERMINAL-backto-EL_INSTANCE_REF" style="stroke:#181818;stroke-width:1;"/><polygon fill="none" points="120.52,304.86,114.52,322.86,126.52,322.86,120.52,304.86" style="stroke:#181818;stroke-width:1;"/></g><!--reverse link EL_INSTANCE_REF to EL_SCOPED_REF--><g class="link" data-entity-1="EL_INSTANCE_REF" data-entity-2="EL_SCOPED_REF" data-source-line="26" data-uid="lnk10" id="link_EL_INSTANCE_REF_EL_SCOPED_REF"><path codeLine="26" d="M120.52,431.03 C120.52,448.15 120.52,453.57 120.52,472.36" fill="none" id="EL_INSTANCE_REF-backto-EL_SCOPED_REF" style="stroke:#181818;stroke-width:1;"/><polygon fill="none" points="120.52,413.03,114.52,431.03,126.52,431.03,120.52,413.03" style="stroke:#181818;stroke-width:1;"/></g></g></svg>
