<svg xmlns="http://www.w3.org/2000/svg" xmlns:xlink="http://www.w3.org/1999/xlink" contentStyleType="text/css" data-diagram-type="CLASS" height="102px" preserveAspectRatio="none" style="width:182px;height:102px;background:#FFFFFF;" version="1.1" viewBox="0 0 182 102" width="182px" zoomAndPan="magnify"><defs/><g><!--class EL_TYPE_DEF--><g class="entity" data-entity="EL_TYPE_DEF" data-source-line="2" data-uid="ent0002" id="entity_EL_TYPE_DEF"><rect fill="#F1F1F1" height="81.5999" rx="2.5" ry="2.5" style="stroke:#181818;stroke-width:0.5;" width="161.0435" x="7" y="7"/><ellipse cx="40.5813" cy="23" fill="#A9DCDF" rx="11" ry="11" style="stroke:#181818;stroke-width:1;"/><path d="M35.097,28.5 L37.1282,28.5 L41.1751,17.1563 L40.2688,17.1563 L44.097,28.5 L46.2376,28.5 L41.9095,16.1719 L39.6907,16.1719 L35.097,28.5 Z M37.4251,25 L43.8626,25 L43.8626,23.25 L37.4251,23.25 L37.4251,25 Z " fill="#000000"/><text fill="#000000" font-family="sans-serif" font-size="14" font-style="italic" lengthAdjust="spacing" textLength="87.7516" x="58.7105" y="28.362">EL_TYPE_DEF</text><line style="stroke:#181818;stroke-width:0.5;" x1="8" x2="167.0435" y1="39" y2="39"/><ellipse cx="18" cy="52.9" fill="none" rx="3" ry="3" style="stroke:#038048;stroke-width:1;"/><text fill="#000000" font-family="sans-serif" font-size="14" lengthAdjust="spacing" textLength="135.0435" x="27" y="56.7619">type_name : String [1]</text><ellipse cx="18" cy="69.6999" fill="none" rx="3" ry="3" style="stroke:#038048;stroke-width:1;"/><text fill="#000000" font-family="sans-serif" font-size="14" lengthAdjust="spacing" textLength="128.9255" x="27" y="73.5619">type_anchor : Any [1]</text><line style="stroke:#181818;stroke-width:0.5;" x1="8" x2="167.0435" y1="80.5999" y2="80.5999"/></g></g></svg>
