<svg xmlns="http://www.w3.org/2000/svg" xmlns:xlink="http://www.w3.org/1999/xlink" contentStyleType="text/css" data-diagram-type="CLASS" height="577px" preserveAspectRatio="none" style="width:244px;height:577px;background:#FFFFFF;" version="1.1" viewBox="0 0 244 577" width="244px" zoomAndPan="magnify"><defs/><g><!--class EL_TUPLE--><g class="entity" data-entity="EL_TUPLE" data-source-line="2" data-uid="ent0002" id="entity_EL_TUPLE"><rect fill="#F1F1F1" height="98.3998" rx="2.5" ry="2.5" style="stroke:#181818;stroke-width:0.5;" width="230.2592" x="7" y="472.6"/><ellipse cx="86.3307" cy="488.6" fill="#ADD1B2" rx="11" ry="11" style="stroke:#181818;stroke-width:1;"/><path d="M86.3307,495.0219 C87.5026,495.0219 88.737,494.7563 90.112,494.1469 L89.6276,492.6313 C88.5338,493.0531 87.5182,493.2406 86.6588,493.2406 C83.9401,493.2406 82.2213,491.3969 82.2213,488.4906 C82.2213,485.7406 83.7838,484.1469 86.5182,484.1469 C87.4401,484.1469 88.4557,484.3344 89.5963,484.7563 L90.1745,483.2406 C89.0807,482.6625 87.7838,482.3656 86.5963,482.3656 C82.8307,482.3656 80.2526,485.0063 80.2526,488.8188 C80.2526,492.4906 82.737,495.0219 86.3307,495.0219 Z " fill="#000000"/><text fill="#000000" font-family="sans-serif" font-size="14" lengthAdjust="spacing" textLength="63.0977" x="106.8307" y="493.962">EL_TUPLE</text><line style="stroke:#181818;stroke-width:0.5;" x1="8" x2="236.2592" y1="504.6" y2="504.6"/><ellipse cx="18" cy="518.5" fill="none" rx="3" ry="3" style="stroke:#038048;stroke-width:1;"/><text fill="#000000" font-family="sans-serif" font-size="14" lengthAdjust="spacing" textLength="204.2592" x="27" y="522.3619">items : List&lt;EL_TUPLE_ITEM&gt; [*]</text><ellipse cx="18" cy="535.2999" fill="none" rx="3" ry="3" style="stroke:#038048;stroke-width:1;"/><text fill="#000000" font-family="sans-serif" font-size="14" lengthAdjust="spacing" textLength="175.8953" x="27" y="539.1619">type : BMM_TUPLE_TYPE [1]</text><line style="stroke:#181818;stroke-width:0.5;" x1="8" x2="236.2592" y1="546.1999" y2="546.1999"/><ellipse cx="18" cy="560.0998" fill="#84BE84" rx="3" ry="3" style="stroke:#038048;stroke-width:1;"/><text fill="#000000" font-family="sans-serif" font-size="14" lengthAdjust="spacing" textLength="168.6573" x="27" y="563.9618">eval_type() : BMM_TYPE [1]</text></g><!--class EL_INSTANCE_REF--><g class="entity" data-entity="EL_INSTANCE_REF" data-source-line="8" data-uid="ent0003" id="entity_EL_INSTANCE_REF"><rect fill="#F5F5F5" height="48" rx="2.5" ry="2.5" style="stroke:#808080;stroke-width:1;stroke-dasharray:1,3;" width="152.3715" x="45.94" y="364.6"/><ellipse cx="60.94" cy="380.6" fill="#A9DCDF" rx="11" ry="11" style="stroke:#181818;stroke-width:1;"/><path d="M55.4556,386.1 L57.4869,386.1 L61.5338,374.7563 L60.6275,374.7563 L64.4556,386.1 L66.5963,386.1 L62.2681,373.7719 L60.0494,373.7719 L55.4556,386.1 Z M57.7838,382.6 L64.2213,382.6 L64.2213,380.85 L57.7838,380.85 L57.7838,382.6 Z " fill="#000000"/><text fill="#808080" font-family="sans-serif" font-size="14" font-style="italic" lengthAdjust="spacing" textLength="120.3715" x="74.94" y="385.962">EL_INSTANCE_REF</text><line style="stroke:#808080;stroke-width:1;stroke-dasharray:1,3;" x1="46.94" x2="197.3115" y1="396.6" y2="396.6"/><line style="stroke:#808080;stroke-width:1;stroke-dasharray:1,3;" x1="46.94" x2="197.3115" y1="404.6" y2="404.6"/></g><!--class EL_TERMINAL--><g class="entity" data-entity="EL_TERMINAL" data-source-line="11" data-uid="ent0004" id="entity_EL_TERMINAL"><rect fill="#F5F5F5" height="48" rx="2.5" ry="2.5" style="stroke:#808080;stroke-width:1;stroke-dasharray:1,3;" width="121.1516" x="61.55" y="256.6"/><ellipse cx="76.55" cy="272.6" fill="#A9DCDF" rx="11" ry="11" style="stroke:#181818;stroke-width:1;"/><path d="M71.0656,278.1 L73.0969,278.1 L77.1438,266.7563 L76.2375,266.7563 L80.0656,278.1 L82.2063,278.1 L77.8781,265.7719 L75.6594,265.7719 L71.0656,278.1 Z M73.3938,274.6 L79.8313,274.6 L79.8313,272.85 L73.3938,272.85 L73.3938,274.6 Z " fill="#000000"/><text fill="#808080" font-family="sans-serif" font-size="14" font-style="italic" lengthAdjust="spacing" textLength="89.1516" x="90.55" y="277.962">EL_TERMINAL</text><line style="stroke:#808080;stroke-width:1;stroke-dasharray:1,3;" x1="62.55" x2="181.7016" y1="288.6" y2="288.6"/><line style="stroke:#808080;stroke-width:1;stroke-dasharray:1,3;" x1="62.55" x2="181.7016" y1="296.6" y2="296.6"/></g><!--class EL_SIMPLE--><g class="entity" data-entity="EL_SIMPLE" data-source-line="14" data-uid="ent0005" id="entity_EL_SIMPLE"><rect fill="#F5F5F5" height="48" rx="2.5" ry="2.5" style="stroke:#808080;stroke-width:1;stroke-dasharray:1,3;" width="101.2857" x="71.49" y="148.6"/><ellipse cx="86.49" cy="164.6" fill="#A9DCDF" rx="11" ry="11" style="stroke:#181818;stroke-width:1;"/><path d="M81.0056,170.1 L83.0369,170.1 L87.0838,158.7563 L86.1775,158.7563 L90.0056,170.1 L92.1463,170.1 L87.8181,157.7719 L85.5994,157.7719 L81.0056,170.1 Z M83.3338,166.6 L89.7713,166.6 L89.7713,164.85 L83.3338,164.85 L83.3338,166.6 Z " fill="#000000"/><text fill="#808080" font-family="sans-serif" font-size="14" font-style="italic" lengthAdjust="spacing" textLength="69.2857" x="100.49" y="169.962">EL_SIMPLE</text><line style="stroke:#808080;stroke-width:1;stroke-dasharray:1,3;" x1="72.49" x2="171.7757" y1="180.6" y2="180.6"/><line style="stroke:#808080;stroke-width:1;stroke-dasharray:1,3;" x1="72.49" x2="171.7757" y1="188.6" y2="188.6"/></g><!--class EL_EXPRESSION--><g class="entity" data-entity="EL_EXPRESSION" data-source-line="17" data-uid="ent0006" id="entity_EL_EXPRESSION"><rect fill="#F5F5F5" height="81.5999" rx="2.5" ry="2.5" style="stroke:#808080;stroke-width:1;stroke-dasharray:1,3;" width="194.6573" x="24.8" y="7"/><ellipse cx="66.0799" cy="23" fill="#A9DCDF" rx="11" ry="11" style="stroke:#181818;stroke-width:1;"/><path d="M60.5955,28.5 L62.6268,28.5 L66.6736,17.1563 L65.7674,17.1563 L69.5955,28.5 L71.7361,28.5 L67.408,16.1719 L65.1893,16.1719 L60.5955,28.5 Z M62.9236,25 L69.3611,25 L69.3611,23.25 L62.9236,23.25 L62.9236,25 Z " fill="#000000"/><text fill="#808080" font-family="sans-serif" font-size="14" font-style="italic" lengthAdjust="spacing" textLength="104.2576" x="85.9199" y="28.362">EL_EXPRESSION</text><line style="stroke:#808080;stroke-width:1;stroke-dasharray:1,3;" x1="25.8" x2="218.4573" y1="39" y2="39"/><line style="stroke:#808080;stroke-width:1;stroke-dasharray:1,3;" x1="25.8" x2="218.4573" y1="47" y2="47"/><ellipse cx="35.8" cy="60.9" fill="#84BE84" rx="3" ry="3" style="stroke:#038048;stroke-width:1;"/><text fill="#808080" font-family="sans-serif" font-size="14" font-style="italic" lengthAdjust="spacing" textLength="168.6573" x="44.8" y="64.7619">eval_type() : BMM_TYPE [1]</text><ellipse cx="35.8" cy="77.6999" fill="#84BE84" rx="3" ry="3" style="stroke:#038048;stroke-width:1;"/><text fill="#808080" font-family="sans-serif" font-size="14" lengthAdjust="spacing" textLength="155.2454" x="44.8" y="81.5619">is_boolean() : Boolean [1]</text></g><!--reverse link EL_EXPRESSION to EL_SIMPLE--><g class="link" data-entity-1="EL_EXPRESSION" data-entity-2="EL_SIMPLE" data-source-line="22" data-uid="lnk7" id="link_EL_EXPRESSION_EL_SIMPLE"><path codeLine="22" d="M122.13,107.01 C122.13,126.6 122.13,131.46 122.13,148.16" fill="none" id="EL_EXPRESSION-backto-EL_SIMPLE" style="stroke:#181818;stroke-width:1;"/><polygon fill="none" points="122.13,89.01,116.13,107.01,128.13,107.01,122.13,89.01" style="stroke:#181818;stroke-width:1;"/></g><!--reverse link EL_SIMPLE to EL_TERMINAL--><g class="link" data-entity-1="EL_SIMPLE" data-entity-2="EL_TERMINAL" data-source-line="24" data-uid="lnk8" id="link_EL_SIMPLE_EL_TERMINAL"><path codeLine="24" d="M122.13,214.86 C122.13,232.54 122.13,238.73 122.13,256.39" fill="none" id="EL_SIMPLE-backto-EL_TERMINAL" style="stroke:#181818;stroke-width:1;"/><polygon fill="none" points="122.13,196.86,116.13,214.86,128.13,214.86,122.13,196.86" style="stroke:#181818;stroke-width:1;"/></g><!--reverse link EL_TERMINAL to EL_INSTANCE_REF--><g class="link" data-entity-1="EL_TERMINAL" data-entity-2="EL_INSTANCE_REF" data-source-line="26" data-uid="lnk9" id="link_EL_TERMINAL_EL_INSTANCE_REF"><path codeLine="26" d="M122.13,322.86 C122.13,340.54 122.13,346.73 122.13,364.39" fill="none" id="EL_TERMINAL-backto-EL_INSTANCE_REF" style="stroke:#181818;stroke-width:1;"/><polygon fill="none" points="122.13,304.86,116.13,322.86,128.13,322.86,122.13,304.86" style="stroke:#181818;stroke-width:1;"/></g><!--reverse link EL_INSTANCE_REF to EL_TUPLE--><g class="link" data-entity-1="EL_INSTANCE_REF" data-entity-2="EL_TUPLE" data-source-line="28" data-uid="lnk10" id="link_EL_INSTANCE_REF_EL_TUPLE"><path codeLine="28" d="M122.13,431.06 C122.13,447.49 122.13,452.05 122.13,472.28" fill="none" id="EL_INSTANCE_REF-backto-EL_TUPLE" style="stroke:#181818;stroke-width:1;"/><polygon fill="none" points="122.13,413.06,116.13,431.06,128.13,431.06,122.13,413.06" style="stroke:#181818;stroke-width:1;"/></g></g></svg>
