<svg xmlns="http://www.w3.org/2000/svg" xmlns:xlink="http://www.w3.org/1999/xlink" contentStyleType="text/css" data-diagram-type="CLASS" height="237px" preserveAspectRatio="none" style="width:329px;height:237px;background:#FFFFFF;" version="1.1" viewBox="0 0 329 237" width="329px" zoomAndPan="magnify"><defs/><g><!--class OP_DEF_EXAMPLE--><g class="entity" data-entity="OP_DEF_EXAMPLE" data-source-line="2" data-uid="ent0002" id="entity_OP_DEF_EXAMPLE"><rect fill="#F1F1F1" height="98.3998" rx="2.5" ry="2.5" style="stroke:#181818;stroke-width:0.5;" width="247.4511" x="40.92" y="131.8"/><ellipse cx="100.5248" cy="147.8" fill="#ADD1B2" rx="11" ry="11" style="stroke:#181818;stroke-width:1;"/><path d="M100.5248,154.2219 C101.6967,154.2219 102.9311,153.9562 104.3061,153.3469 L103.8217,151.8312 C102.7279,152.2531 101.7123,152.4406 100.8529,152.4406 C98.1342,152.4406 96.4154,150.5969 96.4154,147.6906 C96.4154,144.9406 97.9779,143.3469 100.7123,143.3469 C101.6342,143.3469 102.6498,143.5344 103.7904,143.9562 L104.3686,142.4406 C103.2748,141.8625 101.9779,141.5656 100.7904,141.5656 C97.0248,141.5656 94.4467,144.2062 94.4467,148.0187 C94.4467,151.6906 96.9311,154.2219 100.5248,154.2219 Z " fill="#000000"/><text fill="#000000" font-family="sans-serif" font-size="14" lengthAdjust="spacing" textLength="119.7415" x="121.0248" y="153.162">OP_DEF_EXAMPLE</text><line style="stroke:#181818;stroke-width:0.5;" x1="41.92" x2="287.3711" y1="163.8" y2="163.8"/><ellipse cx="51.92" cy="177.7" fill="none" rx="3" ry="3" style="stroke:#038048;stroke-width:1;"/><text fill="#000000" font-family="sans-serif" font-size="14" lengthAdjust="spacing" textLength="122.1075" x="60.92" y="181.5619">identifier : String [1]</text><ellipse cx="51.92" cy="194.4999" fill="none" rx="3" ry="3" style="stroke:#038048;stroke-width:1;"/><text fill="#000000" font-family="sans-serif" font-size="14" lengthAdjust="spacing" textLength="156.8694" x="60.92" y="198.3619">symbols : List&lt;String&gt; [*]</text><ellipse cx="51.92" cy="211.2998" fill="none" rx="3" ry="3" style="stroke:#038048;stroke-width:1;"/><text fill="#000000" font-family="sans-serif" font-size="14" lengthAdjust="spacing" textLength="221.4511" x="60.92" y="215.1618">evaluation_agent : FUNCTION&lt;&gt; [1]</text><line style="stroke:#181818;stroke-width:0.5;" x1="41.92" x2="287.3711" y1="222.1998" y2="222.1998"/></g><!--class OPERATOR_DEF_EXTERNAL--><g class="entity" data-entity="OPERATOR_DEF_EXTERNAL" data-source-line="8" data-uid="ent0003" id="entity_OPERATOR_DEF_EXTERNAL"><rect fill="#F5F5F5" height="64.7999" rx="2.5" ry="2.5" style="stroke:#808080;stroke-width:1;stroke-dasharray:1,3;" width="315.2948" x="7" y="7"/><ellipse cx="70.6858" cy="23" fill="#A9DCDF" rx="11" ry="11" style="stroke:#181818;stroke-width:1;"/><path d="M65.2014,28.5 L67.2327,28.5 L71.2795,17.1563 L70.3733,17.1563 L74.2014,28.5 L76.342,28.5 L72.0139,16.1719 L69.7952,16.1719 L65.2014,28.5 Z M67.5295,25 L73.967,25 L73.967,23.25 L67.5295,23.25 L67.5295,25 Z " fill="#000000"/><text fill="#808080" font-family="sans-serif" font-size="14" font-style="italic" lengthAdjust="spacing" textLength="179.4232" x="91.1858" y="28.362">OPERATOR_DEF_EXTERNAL</text><line style="stroke:#808080;stroke-width:1;stroke-dasharray:1,3;" x1="8" x2="321.2948" y1="39" y2="39"/><ellipse cx="18" cy="52.9" fill="none" rx="3" ry="3" style="stroke:#038048;stroke-width:1;"/><text fill="#808080" font-family="sans-serif" font-size="14" lengthAdjust="spacing" textLength="289.2948" x="27" y="56.7619">evaluation_agent : FUNCTION&lt;TUPLE,Any&gt; [1]</text><line style="stroke:#808080;stroke-width:1;stroke-dasharray:1,3;" x1="8" x2="321.2948" y1="63.7999" y2="63.7999"/></g><!--reverse link OPERATOR_DEF_EXTERNAL to OP_DEF_EXAMPLE--><g class="link" data-entity-1="OPERATOR_DEF_EXTERNAL" data-entity-2="OP_DEF_EXAMPLE" data-source-line="12" data-uid="lnk4" id="link_OPERATOR_DEF_EXTERNAL_OP_DEF_EXAMPLE"><path codeLine="12" d="M164.65,90.08 C164.65,107.61 164.65,111.78 164.65,131.46" fill="none" id="OPERATOR_DEF_EXTERNAL-backto-OP_DEF_EXAMPLE" style="stroke:#181818;stroke-width:1;"/><polygon fill="none" points="164.65,72.08,158.65,90.08,170.65,90.08,164.65,72.08" style="stroke:#181818;stroke-width:1;"/></g></g></svg>
