<svg xmlns="http://www.w3.org/2000/svg" xmlns:xlink="http://www.w3.org/1999/xlink" contentStyleType="text/css" data-diagram-type="CLASS" height="371px" preserveAspectRatio="none" style="width:438px;height:371px;background:#FFFFFF;" version="1.1" viewBox="0 0 438 371" width="438px" zoomAndPan="magnify"><defs/><g><!--class P_BMM_SCHEMA_DESCRIPTOR--><g class="entity" data-entity="P_BMM_SCHEMA_DESCRIPTOR" data-source-line="2" data-uid="ent0002" id="entity_P_BMM_SCHEMA_DESCRIPTOR"><rect fill="#F1F1F1" height="64.7999" rx="2.5" ry="2.5" style="stroke:#181818;stroke-width:0.5;" width="268.997" x="84.93" y="299.8"/><ellipse cx="116.2244" cy="315.8" fill="#ADD1B2" rx="11" ry="11" style="stroke:#181818;stroke-width:1;"/><path d="M116.2244,322.2219 C117.3963,322.2219 118.6307,321.9563 120.0057,321.3469 L119.5213,319.8313 C118.4275,320.2531 117.4119,320.4406 116.5525,320.4406 C113.8338,320.4406 112.115,318.5969 112.115,315.6906 C112.115,312.9406 113.6775,311.3469 116.4119,311.3469 C117.3338,311.3469 118.3494,311.5344 119.49,311.9563 L120.0682,310.4406 C118.9744,309.8625 117.6775,309.5656 116.49,309.5656 C112.7244,309.5656 110.1463,312.2063 110.1463,316.0188 C110.1463,319.6906 112.6307,322.2219 116.2244,322.2219 Z " fill="#000000"/><text fill="#000000" font-family="sans-serif" font-size="14" lengthAdjust="spacing" textLength="200.7872" x="133.8454" y="321.162">P_BMM_SCHEMA_DESCRIPTOR</text><line style="stroke:#181818;stroke-width:0.5;" x1="85.93" x2="352.927" y1="331.8" y2="331.8"/><ellipse cx="95.93" cy="345.7" fill="none" rx="3" ry="3" style="stroke:#038048;stroke-width:1;"/><text fill="#000000" font-family="sans-serif" font-size="14" lengthAdjust="spacing" textLength="242.997" x="104.93" y="349.5619">bmm_schema : P_BMM_SCHEMA [0..1]</text><line style="stroke:#181818;stroke-width:0.5;" x1="85.93" x2="352.927" y1="356.5999" y2="356.5999"/></g><!--class BMM_SCHEMA_DESCRIPTOR--><g class="entity" data-entity="BMM_SCHEMA_DESCRIPTOR" data-source-line="6" data-uid="ent0003" id="entity_BMM_SCHEMA_DESCRIPTOR"><rect fill="#F5F5F5" height="232.7992" rx="2.5" ry="2.5" style="stroke:#808080;stroke-width:1;stroke-dasharray:1,3;" width="424.8584" x="7" y="7"/><ellipse cx="122.4156" cy="23" fill="#A9DCDF" rx="11" ry="11" style="stroke:#181818;stroke-width:1;"/><path d="M116.9312,28.5 L118.9624,28.5 L123.0093,17.1563 L122.1031,17.1563 L125.9312,28.5 L128.0718,28.5 L123.7437,16.1719 L121.5249,16.1719 L116.9312,28.5 Z M119.2593,25 L125.6968,25 L125.6968,23.25 L119.2593,23.25 L119.2593,25 Z " fill="#000000"/><text fill="#808080" font-family="sans-serif" font-size="14" font-style="italic" lengthAdjust="spacing" textLength="185.5273" x="142.9156" y="28.362">BMM_SCHEMA_DESCRIPTOR</text><line style="stroke:#808080;stroke-width:1;stroke-dasharray:1,3;" x1="8" x2="430.8584" y1="39" y2="39"/><ellipse cx="18" cy="52.9" fill="none" rx="3" ry="3" style="stroke:#038048;stroke-width:1;"/><text fill="#808080" font-family="sans-serif" font-size="14" lengthAdjust="spacing" textLength="227.7371" x="27" y="56.7619">bmm_schema : BMM_SCHEMA [0..1]</text><ellipse cx="18" cy="69.6999" fill="none" rx="3" ry="3" style="stroke:#038048;stroke-width:1;"/><text fill="#808080" font-family="sans-serif" font-size="14" lengthAdjust="spacing" textLength="211.4551" x="27" y="73.5619">bmm_model : BMM_MODEL [0..1]</text><ellipse cx="18" cy="86.4998" fill="none" rx="3" ry="3" style="stroke:#038048;stroke-width:1;"/><text fill="#808080" font-family="sans-serif" font-size="14" lengthAdjust="spacing" textLength="132.3415" x="27" y="90.3618">schema_id : String [1]</text><ellipse cx="18" cy="103.2997" fill="none" rx="3" ry="3" style="stroke:#038048;stroke-width:1;"/><text fill="#808080" font-family="sans-serif" font-size="14" lengthAdjust="spacing" textLength="221.3251" x="27" y="107.1617">meta_data : Hash&lt;String,String&gt; [1]</text><ellipse cx="18" cy="120.0997" fill="none" rx="3" ry="3" style="stroke:#038048;stroke-width:1;"/><text fill="#808080" font-family="sans-serif" font-size="14" lengthAdjust="spacing" textLength="156.4354" x="27" y="123.9616">includes : List&lt;String&gt; [*]</text><line style="stroke:#808080;stroke-width:1;stroke-dasharray:1,3;" x1="8" x2="430.8584" y1="130.9996" y2="130.9996"/><ellipse cx="18" cy="144.8996" fill="#84BE84" rx="3" ry="3" style="stroke:#038048;stroke-width:1;"/><text fill="#808080" font-family="sans-serif" font-size="14" lengthAdjust="spacing" textLength="162.2734" x="27" y="148.7616">is_top_level() : Boolean [1]</text><ellipse cx="18" cy="161.6995" fill="#84BE84" rx="3" ry="3" style="stroke:#038048;stroke-width:1;"/><text fill="#808080" font-family="sans-serif" font-size="14" lengthAdjust="spacing" textLength="214.5911" x="27" y="165.5615">is_bmm_compatible() : Boolean [1]</text><ellipse cx="18" cy="178.4995" fill="#84BE84" rx="3" ry="3" style="stroke:#038048;stroke-width:1;"/><text fill="#808080" font-family="sans-serif" font-size="14" lengthAdjust="spacing" textLength="90.0336" x="27" y="182.3614">load() : void [1]</text><ellipse cx="18" cy="195.2994" fill="#84BE84" rx="3" ry="3" style="stroke:#038048;stroke-width:1;"/><text fill="#808080" font-family="sans-serif" font-size="14" lengthAdjust="spacing" textLength="167.2993" x="27" y="199.1614">validate_merged() : void [1]</text><ellipse cx="18" cy="212.0993" fill="#84BE84" rx="3" ry="3" style="stroke:#038048;stroke-width:1;"/><text fill="#808080" font-family="sans-serif" font-size="14" lengthAdjust="spacing" textLength="398.8584" x="27" y="215.9613">validate_includes( all_schemas_list : List&lt;String&gt; [0..1] ) : void [1]</text><ellipse cx="18" cy="228.8992" fill="#84BE84" rx="3" ry="3" style="stroke:#038048;stroke-width:1;"/><text fill="#808080" font-family="sans-serif" font-size="14" lengthAdjust="spacing" textLength="148.4834" x="27" y="232.7612">create_model() : void [1]</text></g><!--reverse link BMM_SCHEMA_DESCRIPTOR to P_BMM_SCHEMA_DESCRIPTOR--><g class="link" data-entity-1="BMM_SCHEMA_DESCRIPTOR" data-entity-2="P_BMM_SCHEMA_DESCRIPTOR" data-source-line="20" data-uid="lnk4" id="link_BMM_SCHEMA_DESCRIPTOR_P_BMM_SCHEMA_DESCRIPTOR"><path codeLine="20" d="M219.43,258.19 C219.43,279.98 219.43,283.01 219.43,299.36" fill="none" id="BMM_SCHEMA_DESCRIPTOR-backto-P_BMM_SCHEMA_DESCRIPTOR" style="stroke:#181818;stroke-width:1;"/><polygon fill="none" points="219.43,240.19,213.43,258.19,225.43,258.19,219.43,240.19" style="stroke:#181818;stroke-width:1;"/></g></g></svg>
