<svg xmlns="http://www.w3.org/2000/svg" xmlns:xlink="http://www.w3.org/1999/xlink" contentStyleType="text/css" data-diagram-type="CLASS" height="748px" preserveAspectRatio="none" style="width:715px;height:748px;background:#FFFFFF;" version="1.1" viewBox="0 0 715 748" width="715px" zoomAndPan="magnify"><defs/><g><!--class P_BMM_SCHEMA--><g class="entity" data-entity="P_BMM_SCHEMA" data-source-line="2" data-uid="ent0002" id="entity_P_BMM_SCHEMA"><rect fill="#F1F1F1" height="182.3994" rx="2.5" ry="2.5" style="stroke:#181818;stroke-width:0.5;" width="308.7709" x="195.54" y="559"/><ellipse cx="290.1937" cy="575" fill="#ADD1B2" rx="11" ry="11" style="stroke:#181818;stroke-width:1;"/><path d="M290.1937,581.4219 C291.3655,581.4219 292.5999,581.1563 293.9749,580.5469 L293.4905,579.0313 C292.3968,579.4531 291.3812,579.6406 290.5218,579.6406 C287.803,579.6406 286.0843,577.7969 286.0843,574.8906 C286.0843,572.1406 287.6468,570.5469 290.3812,570.5469 C291.303,570.5469 292.3187,570.7344 293.4593,571.1563 L294.0374,569.6406 C292.9437,569.0625 291.6468,568.7656 290.4593,568.7656 C286.6937,568.7656 284.1155,571.4063 284.1155,575.2188 C284.1155,578.8906 286.5999,581.4219 290.1937,581.4219 Z " fill="#000000"/><text fill="#000000" font-family="sans-serif" font-size="14" lengthAdjust="spacing" textLength="110.9636" x="310.6937" y="580.362">P_BMM_SCHEMA</text><line style="stroke:#181818;stroke-width:0.5;" x1="196.54" x2="503.3109" y1="591" y2="591"/><ellipse cx="206.54" cy="604.9" fill="none" rx="3" ry="3" style="stroke:#038048;stroke-width:1;"/><text fill="#000000" font-family="sans-serif" font-size="14" lengthAdjust="spacing" textLength="258.831" x="215.54" y="608.7619">primitive_types : List&lt;P_BMM_CLASS&gt; [*]</text><ellipse cx="206.54" cy="621.6999" fill="none" rx="3" ry="3" style="stroke:#038048;stroke-width:1;"/><text fill="#000000" font-family="sans-serif" font-size="14" lengthAdjust="spacing" textLength="266.4189" x="215.54" y="625.5619">class_definitions : List&lt;P_BMM_CLASS&gt; [*]</text><line style="stroke:#181818;stroke-width:0.5;" x1="196.54" x2="503.3109" y1="632.5999" y2="632.5999"/><ellipse cx="206.54" cy="646.4998" fill="#84BE84" rx="3" ry="3" style="stroke:#038048;stroke-width:1;"/><text fill="#000000" font-family="sans-serif" font-size="14" lengthAdjust="spacing" textLength="165.6753" x="215.54" y="650.3618">validate_created() : void [1]</text><ellipse cx="206.54" cy="663.2997" fill="#84BE84" rx="3" ry="3" style="stroke:#038048;stroke-width:1;"/><text fill="#000000" font-family="sans-serif" font-size="14" lengthAdjust="spacing" textLength="141.5674" x="215.54" y="667.1617">load_finalise() : void [1]</text><ellipse cx="206.54" cy="680.0997" fill="#84BE84" rx="3" ry="3" style="stroke:#038048;stroke-width:1;"/><text fill="#000000" font-family="sans-serif" font-size="14" lengthAdjust="spacing" textLength="282.7709" x="215.54" y="683.9616">merge( other : P_BMM_SCHEMA [1] ) : void [1]</text><ellipse cx="206.54" cy="696.8996" fill="#84BE84" rx="3" ry="3" style="stroke:#038048;stroke-width:1;"/><text fill="#000000" font-family="sans-serif" font-size="14" lengthAdjust="spacing" textLength="111.8736" x="215.54" y="700.7616">validate() : void [1]</text><ellipse cx="206.54" cy="713.6995" fill="#84BE84" rx="3" ry="3" style="stroke:#038048;stroke-width:1;"/><text fill="#000000" font-family="sans-serif" font-size="14" lengthAdjust="spacing" textLength="188.2712" x="215.54" y="717.5615">create_bmm_model() : void [1]</text><ellipse cx="206.54" cy="730.4995" fill="#84BE84" rx="3" ry="3" style="stroke:#038048;stroke-width:1;"/><text fill="#000000" font-family="sans-serif" font-size="14" lengthAdjust="spacing" textLength="276.8909" x="215.54" y="734.3614">canonical_packages() : P_BMM_PACKAGE [1]</text></g><!--class P_BMM_PACKAGE_CONTAINER--><g class="entity" data-entity="P_BMM_PACKAGE_CONTAINER" data-source-line="13" data-uid="ent0003" id="entity_P_BMM_PACKAGE_CONTAINER"><rect fill="#F5F5F5" height="64.7999" rx="2.5" ry="2.5" style="stroke:#808080;stroke-width:1;stroke-dasharray:1,3;" width="317.8568" x="7" y="291.4"/><ellipse cx="60.8788" cy="307.4" fill="#ADD1B2" rx="11" ry="11" style="stroke:#181818;stroke-width:1;"/><path d="M60.8788,313.8219 C62.0507,313.8219 63.2851,313.5563 64.6601,312.9469 L64.1757,311.4313 C63.0819,311.8531 62.0663,312.0406 61.2069,312.0406 C58.4882,312.0406 56.7694,310.1969 56.7694,307.2906 C56.7694,304.5406 58.3319,302.9469 61.0663,302.9469 C61.9882,302.9469 63.0038,303.1344 64.1444,303.5563 L64.7226,302.0406 C63.6288,301.4625 62.3319,301.1656 61.1444,301.1656 C57.3788,301.1656 54.8007,303.8063 54.8007,307.6188 C54.8007,311.2906 57.2851,313.8219 60.8788,313.8219 Z " fill="#000000"/><text fill="#808080" font-family="sans-serif" font-size="14" lengthAdjust="spacing" textLength="201.5992" x="81.3788" y="312.762">P_BMM_PACKAGE_CONTAINER</text><line style="stroke:#808080;stroke-width:1;stroke-dasharray:1,3;" x1="8" x2="323.8568" y1="323.4" y2="323.4"/><ellipse cx="18" cy="337.3" fill="none" rx="3" ry="3" style="stroke:#038048;stroke-width:1;"/><text fill="#808080" font-family="sans-serif" font-size="14" lengthAdjust="spacing" textLength="291.8568" x="27" y="341.1619">packages : Hash&lt;String,P_BMM_PACKAGE&gt; [1]</text><line style="stroke:#808080;stroke-width:1;stroke-dasharray:1,3;" x1="8" x2="323.8568" y1="348.1999" y2="348.1999"/></g><!--class BMM_SCHEMA--><g class="entity" data-entity="BMM_SCHEMA" data-source-line="19" data-uid="ent0005" id="entity_BMM_SCHEMA"><rect fill="#F5F5F5" height="350.3987" rx="2.5" ry="2.5" style="stroke:#808080;stroke-width:1;stroke-dasharray:1,3;" width="348.7127" x="359.57" y="148.6"/><ellipse cx="481.8245" cy="164.6" fill="#A9DCDF" rx="11" ry="11" style="stroke:#181818;stroke-width:1;"/><path d="M476.3402,170.1 L478.3714,170.1 L482.4183,158.7563 L481.512,158.7563 L485.3402,170.1 L487.4808,170.1 L483.1527,157.7719 L480.9339,157.7719 L476.3402,170.1 Z M478.6683,166.6 L485.1058,166.6 L485.1058,164.85 L478.6683,164.85 L478.6683,166.6 Z " fill="#000000"/><text fill="#808080" font-family="sans-serif" font-size="14" font-style="italic" lengthAdjust="spacing" textLength="95.7036" x="502.3245" y="169.962">BMM_SCHEMA</text><line style="stroke:#808080;stroke-width:1;stroke-dasharray:1,3;" x1="360.57" x2="707.2827" y1="180.6" y2="180.6"/><ellipse cx="370.57" cy="194.5" fill="none" rx="3" ry="3" style="stroke:#038048;stroke-width:1;"/><text fill="#808080" font-family="sans-serif" font-size="14" lengthAdjust="spacing" textLength="150.9754" x="379.57" y="198.3619">bmm_version : String [1]</text><ellipse cx="370.57" cy="211.2999" fill="none" rx="3" ry="3" style="stroke:#038048;stroke-width:1;"/><text fill="#808080" font-family="sans-serif" font-size="14" lengthAdjust="spacing" textLength="322.7127" x="379.57" y="215.1619">includes : Hash&lt;String,BMM_INCLUDE_SPEC&gt; [0..1]</text><ellipse cx="370.57" cy="228.0998" fill="none" rx="3" ry="3" style="stroke:#038048;stroke-width:1;"/><text fill="#808080" font-family="sans-serif" font-size="14" lengthAdjust="spacing" textLength="211.4551" x="379.57" y="231.9618">bmm_model : BMM_MODEL [0..1]</text><ellipse cx="370.57" cy="244.8997" fill="none" rx="3" ry="3" style="stroke:#038048;stroke-width:1;"/><text fill="#808080" font-family="sans-serif" font-size="14" lengthAdjust="spacing" textLength="202.9432" x="379.57" y="248.7617">state : BMM_SCHEMA_STATE [1]</text><ellipse cx="370.57" cy="261.6997" fill="none" rx="3" ry="3" style="stroke:#038048;stroke-width:1;"/><text fill="#808080" font-family="sans-serif" font-size="14" lengthAdjust="spacing" textLength="163.2533" x="379.57" y="265.5616">model_name : String [0..1]</text><ellipse cx="370.57" cy="278.4996" fill="none" rx="3" ry="3" style="stroke:#038048;stroke-width:1;"/><text fill="#808080" font-family="sans-serif" font-size="14" lengthAdjust="spacing" textLength="155.8194" x="379.57" y="282.3616">schema_name : String [1]</text><ellipse cx="370.57" cy="295.2995" fill="none" rx="3" ry="3" style="stroke:#038048;stroke-width:1;"/><text fill="#808080" font-family="sans-serif" font-size="14" lengthAdjust="spacing" textLength="169.5673" x="379.57" y="299.1615">schema_revision : String [1]</text><ellipse cx="370.57" cy="312.0995" fill="none" rx="3" ry="3" style="stroke:#038048;stroke-width:1;"/><text fill="#808080" font-family="sans-serif" font-size="14" lengthAdjust="spacing" textLength="209.6492" x="379.57" y="315.9614">schema_lifecycle_state : String [1]</text><ellipse cx="370.57" cy="328.8994" fill="none" rx="3" ry="3" style="stroke:#038048;stroke-width:1;"/><text fill="#808080" font-family="sans-serif" font-size="14" lengthAdjust="spacing" textLength="162.1054" x="379.57" y="332.7614">schema_author : String [1]</text><ellipse cx="370.57" cy="345.6993" fill="none" rx="3" ry="3" style="stroke:#038048;stroke-width:1;"/><text fill="#808080" font-family="sans-serif" font-size="14" lengthAdjust="spacing" textLength="190.4133" x="379.57" y="349.5613">schema_description : String [1]</text><ellipse cx="370.57" cy="362.4992" fill="none" rx="3" ry="3" style="stroke:#038048;stroke-width:1;"/><text fill="#808080" font-family="sans-serif" font-size="14" lengthAdjust="spacing" textLength="236.6271" x="379.57" y="366.3612">schema_contributors : List&lt;String&gt; [*]</text><line style="stroke:#808080;stroke-width:1;stroke-dasharray:1,3;" x1="360.57" x2="707.2827" y1="373.3992" y2="373.3992"/><ellipse cx="370.57" cy="387.2992" fill="#84BE84" rx="3" ry="3" style="stroke:#038048;stroke-width:1;"/><text fill="#808080" font-family="sans-serif" font-size="14" font-style="italic" lengthAdjust="spacing" textLength="165.6753" x="379.57" y="391.1611">validate_created() : void [1]</text><ellipse cx="370.57" cy="404.0991" fill="#84BE84" rx="3" ry="3" style="stroke:#038048;stroke-width:1;"/><text fill="#808080" font-family="sans-serif" font-size="14" font-style="italic" lengthAdjust="spacing" textLength="141.5674" x="379.57" y="407.9611">load_finalise() : void [1]</text><ellipse cx="370.57" cy="420.899" fill="#84BE84" rx="3" ry="3" style="stroke:#038048;stroke-width:1;"/><text fill="#808080" font-family="sans-serif" font-size="14" font-style="italic" lengthAdjust="spacing" textLength="267.5109" x="379.57" y="424.761">merge( other : BMM_SCHEMA [1] ) : void [1]</text><ellipse cx="370.57" cy="437.6989" fill="#84BE84" rx="3" ry="3" style="stroke:#038048;stroke-width:1;"/><text fill="#808080" font-family="sans-serif" font-size="14" font-style="italic" lengthAdjust="spacing" textLength="111.8736" x="379.57" y="441.5609">validate() : void [1]</text><ellipse cx="370.57" cy="454.4989" fill="#84BE84" rx="3" ry="3" style="stroke:#038048;stroke-width:1;"/><text fill="#808080" font-family="sans-serif" font-size="14" font-style="italic" lengthAdjust="spacing" textLength="188.2712" x="379.57" y="458.3608">create_bmm_model() : void [1]</text><ellipse cx="370.57" cy="471.2988" fill="#84BE84" rx="3" ry="3" style="stroke:#038048;stroke-width:1;"/><text fill="#808080" font-family="sans-serif" font-size="14" lengthAdjust="spacing" textLength="191.6872" x="379.57" y="475.1608">read_to_validate() : Boolean [1]</text><ellipse cx="370.57" cy="488.0987" fill="#84BE84" rx="3" ry="3" style="stroke:#038048;stroke-width:1;"/><text fill="#808080" font-family="sans-serif" font-size="14" lengthAdjust="spacing" textLength="140.7695" x="379.57" y="491.9607">schema_id() : String [1]</text></g><!--class BMM_MODEL_METADATA--><g class="entity" data-entity="BMM_MODEL_METADATA" data-source-line="40" data-uid="ent0006" id="entity_BMM_MODEL_METADATA"><rect fill="#F5F5F5" height="81.5999" rx="2.5" ry="2.5" style="stroke:#808080;stroke-width:1;stroke-dasharray:1,3;" width="199.0473" x="434.4" y="7"/><ellipse cx="449.4" cy="23" fill="#ADD1B2" rx="11" ry="11" style="stroke:#181818;stroke-width:1;"/><path d="M449.4,29.4219 C450.5719,29.4219 451.8063,29.1563 453.1813,28.5469 L452.6969,27.0313 C451.6031,27.4531 450.5875,27.6406 449.7281,27.6406 C447.0094,27.6406 445.2906,25.7969 445.2906,22.8906 C445.2906,20.1406 446.8531,18.5469 449.5875,18.5469 C450.5094,18.5469 451.525,18.7344 452.6656,19.1563 L453.2438,17.6406 C452.15,17.0625 450.8531,16.7656 449.6656,16.7656 C445.9,16.7656 443.3219,19.4063 443.3219,23.2188 C443.3219,26.8906 445.8063,29.4219 449.4,29.4219 Z " fill="#000000"/><text fill="#808080" font-family="sans-serif" font-size="14" lengthAdjust="spacing" textLength="167.0473" x="463.4" y="28.362">BMM_MODEL_METADATA</text><line style="stroke:#808080;stroke-width:1;stroke-dasharray:1,3;" x1="435.4" x2="632.4473" y1="39" y2="39"/><ellipse cx="445.4" cy="52.9" fill="none" rx="3" ry="3" style="stroke:#038048;stroke-width:1;"/><text fill="#808080" font-family="sans-serif" font-size="14" lengthAdjust="spacing" textLength="148.8894" x="454.4" y="56.7619">rm_publisher : String [1]</text><ellipse cx="445.4" cy="69.6999" fill="none" rx="3" ry="3" style="stroke:#038048;stroke-width:1;"/><text fill="#808080" font-family="sans-serif" font-size="14" lengthAdjust="spacing" textLength="135.6735" x="454.4" y="73.5619">rm_release : String [1]</text><line style="stroke:#808080;stroke-width:1;stroke-dasharray:1,3;" x1="435.4" x2="632.4473" y1="80.5999" y2="80.5999"/></g><!--reverse link P_BMM_PACKAGE_CONTAINER to P_BMM_SCHEMA--><g class="link" data-entity-1="P_BMM_PACKAGE_CONTAINER" data-entity-2="P_BMM_SCHEMA" data-source-line="17" data-uid="lnk4" id="link_P_BMM_PACKAGE_CONTAINER_P_BMM_SCHEMA"><path codeLine="17" d="M192.7899,372.1572 C219.0999,418.5472 260.25,491.1 298.54,558.61" fill="none" id="P_BMM_PACKAGE_CONTAINER-backto-P_BMM_SCHEMA" style="stroke:#181818;stroke-width:1;"/><polygon fill="none" points="183.91,356.5,187.5709,375.1171,198.009,369.1972,183.91,356.5" style="stroke:#181818;stroke-width:1;"/></g><!--reverse link BMM_MODEL_METADATA to BMM_SCHEMA--><g class="link" data-entity-1="BMM_MODEL_METADATA" data-entity-2="BMM_SCHEMA" data-source-line="45" data-uid="lnk7" id="link_BMM_MODEL_METADATA_BMM_SCHEMA"><path codeLine="45" d="M533.93,106.94 C533.93,123.66 533.93,126.32 533.93,148.39" fill="none" id="BMM_MODEL_METADATA-backto-BMM_SCHEMA" style="stroke:#181818;stroke-width:1;"/><polygon fill="none" points="533.93,88.94,527.93,106.94,539.93,106.94,533.93,88.94" style="stroke:#181818;stroke-width:1;"/></g><!--reverse link BMM_SCHEMA to P_BMM_SCHEMA--><g class="link" data-entity-1="BMM_SCHEMA" data-entity-2="P_BMM_SCHEMA" data-source-line="47" data-uid="lnk8" id="link_BMM_SCHEMA_P_BMM_SCHEMA"><path codeLine="47" d="M426.0439,515.0036 C414.3839,535.5436 411.77,540.17 401.17,558.86" fill="none" id="BMM_SCHEMA-backto-P_BMM_SCHEMA" style="stroke:#181818;stroke-width:1;"/><polygon fill="none" points="434.93,499.35,420.826,512.0416,431.2617,517.9657,434.93,499.35" style="stroke:#181818;stroke-width:1;"/></g></g></svg>
