<svg xmlns="http://www.w3.org/2000/svg" xmlns:xlink="http://www.w3.org/1999/xlink" contentStyleType="text/css" data-diagram-type="CLASS" height="637px" preserveAspectRatio="none" style="width:653px;height:637px;background:#FFFFFF;" version="1.1" viewBox="0 0 653 637" width="653px" zoomAndPan="magnify"><defs/><g><!--class P_BMM_INDEXED_CONTAINER_PROPERTY--><g class="entity" data-entity="P_BMM_INDEXED_CONTAINER_PROPERTY" data-source-line="2" data-uid="ent0002" id="entity_P_BMM_INDEXED_CONTAINER_PROPERTY"><rect fill="#F1F1F1" height="81.5999" rx="2.5" ry="2.5" style="stroke:#181818;stroke-width:0.5;" width="423.1503" x="115.42" y="549.4"/><ellipse cx="185.4128" cy="565.4" fill="#ADD1B2" rx="11" ry="11" style="stroke:#181818;stroke-width:1;"/><path d="M185.4128,571.8219 C186.5846,571.8219 187.819,571.5563 189.194,570.9469 L188.7096,569.4313 C187.6159,569.8531 186.6003,570.0406 185.7409,570.0406 C183.0221,570.0406 181.3034,568.1969 181.3034,565.2906 C181.3034,562.5406 182.8659,560.9469 185.6003,560.9469 C186.5221,560.9469 187.5378,561.1344 188.6784,561.5563 L189.2565,560.0406 C188.1628,559.4625 186.8659,559.1656 185.6784,559.1656 C181.9128,559.1656 179.3346,561.8063 179.3346,565.6188 C179.3346,569.2906 181.819,571.8219 185.4128,571.8219 Z " fill="#000000"/><text fill="#000000" font-family="sans-serif" font-size="14" lengthAdjust="spacing" textLength="274.6648" x="205.9128" y="570.762">P_BMM_INDEXED_CONTAINER_PROPERTY</text><line style="stroke:#181818;stroke-width:0.5;" x1="116.42" x2="537.5703" y1="581.4" y2="581.4"/><ellipse cx="126.42" cy="595.3" fill="none" rx="3" ry="3" style="stroke:#038048;stroke-width:1;"/><text fill="#000000" font-family="sans-serif" font-size="14" lengthAdjust="spacing" textLength="337.0067" x="135.42" y="599.1619">type_def : P_BMM_INDEXED_CONTAINER_TYPE [0..1]</text><ellipse cx="126.42" cy="612.0999" fill="none" rx="3" ry="3" style="stroke:#038048;stroke-width:1;"/><text fill="#000000" font-family="sans-serif" font-size="14" lengthAdjust="spacing" textLength="397.1503" x="135.42" y="615.9619">bmm_property : BMM_INDEXED_CONTAINER_PROPERTY [0..1]</text><line style="stroke:#181818;stroke-width:0.5;" x1="116.42" x2="537.5703" y1="622.9999" y2="622.9999"/></g><!--class P_BMM_CONTAINER_PROPERTY--><g class="entity" data-entity="P_BMM_CONTAINER_PROPERTY" data-source-line="7" data-uid="ent0003" id="entity_P_BMM_CONTAINER_PROPERTY"><rect fill="#F5F5F5" height="115.1997" rx="2.5" ry="2.5" style="stroke:#808080;stroke-width:1;stroke-dasharray:1,3;" width="639.9952" x="7" y="374.2"/><ellipse cx="218.3361" cy="390.2" fill="#ADD1B2" rx="11" ry="11" style="stroke:#181818;stroke-width:1;"/><path d="M218.3361,396.6219 C219.5079,396.6219 220.7423,396.3563 222.1173,395.7469 L221.6329,394.2313 C220.5392,394.6531 219.5236,394.8406 218.6642,394.8406 C215.9454,394.8406 214.2267,392.9969 214.2267,390.0906 C214.2267,387.3406 215.7892,385.7469 218.5236,385.7469 C219.4454,385.7469 220.4611,385.9344 221.6017,386.3563 L222.1798,384.8406 C221.0861,384.2625 219.7892,383.9656 218.6017,383.9656 C214.8361,383.9656 212.2579,386.6063 212.2579,390.4188 C212.2579,394.0906 214.7423,396.6219 218.3361,396.6219 Z " fill="#000000"/><text fill="#808080" font-family="sans-serif" font-size="14" lengthAdjust="spacing" textLength="208.8231" x="238.8361" y="395.562">P_BMM_CONTAINER_PROPERTY</text><line style="stroke:#808080;stroke-width:1;stroke-dasharray:1,3;" x1="8" x2="645.9952" y1="406.2" y2="406.2"/><ellipse cx="18" cy="420.1" fill="none" rx="3" ry="3" style="stroke:#038048;stroke-width:1;"/><text fill="#808080" font-family="sans-serif" font-size="14" lengthAdjust="spacing" textLength="217.1252" x="27" y="423.9619">cardinality : Interval&lt;Integer&gt; [0..1]</text><ellipse cx="18" cy="436.8999" fill="none" rx="3" ry="3" style="stroke:#038048;stroke-width:1;"/><text fill="#808080" font-family="sans-serif" font-size="14" lengthAdjust="spacing" textLength="271.1649" x="27" y="440.7619">type_def : P_BMM_CONTAINER_TYPE [0..1]</text><ellipse cx="18" cy="453.6998" fill="none" rx="3" ry="3" style="stroke:#038048;stroke-width:1;"/><text fill="#808080" font-family="sans-serif" font-size="14" lengthAdjust="spacing" textLength="331.3086" x="27" y="457.5618">bmm_property : BMM_CONTAINER_PROPERTY [0..1]</text><line style="stroke:#808080;stroke-width:1;stroke-dasharray:1,3;" x1="8" x2="645.9952" y1="464.5998" y2="464.5998"/><ellipse cx="18" cy="478.4997" fill="#84BE84" rx="3" ry="3" style="stroke:#038048;stroke-width:1;"/><text fill="#808080" font-family="sans-serif" font-size="14" lengthAdjust="spacing" textLength="613.9952" x="27" y="482.3617">create_bmm_property( a_bmm_schema : BMM_MODEL [1], a_class_def : BMM_CLASS [1] ) : void [1]</text></g><!--class P_BMM_PROPERTY--><g class="entity" data-entity="P_BMM_PROPERTY" data-source-line="14" data-uid="ent0004" id="entity_P_BMM_PROPERTY"><rect fill="#F5F5F5" height="182.3994" rx="2.5" ry="2.5" style="stroke:#808080;stroke-width:1;stroke-dasharray:1,3;" width="639.9952" x="7" y="131.8"/><ellipse cx="260.8119" cy="147.8" fill="#A9DCDF" rx="11" ry="11" style="stroke:#181818;stroke-width:1;"/><path d="M255.3275,153.3 L257.3588,153.3 L261.4056,141.9563 L260.4994,141.9563 L264.3275,153.3 L266.4681,153.3 L262.14,140.9719 L259.9213,140.9719 L255.3275,153.3 Z M257.6556,149.8 L264.0931,149.8 L264.0931,148.05 L257.6556,148.05 L257.6556,149.8 Z " fill="#000000"/><text fill="#808080" font-family="sans-serif" font-size="14" font-style="italic" lengthAdjust="spacing" textLength="123.8715" x="281.3119" y="153.162">P_BMM_PROPERTY</text><line style="stroke:#808080;stroke-width:1;stroke-dasharray:1,3;" x1="8" x2="645.9952" y1="163.8" y2="163.8"/><ellipse cx="18" cy="177.7" fill="none" rx="3" ry="3" style="stroke:#038048;stroke-width:1;"/><text fill="#808080" font-family="sans-serif" font-size="14" lengthAdjust="spacing" textLength="100.8836" x="27" y="181.5619">name : String [1]</text><ellipse cx="18" cy="194.4999" fill="none" rx="3" ry="3" style="stroke:#038048;stroke-width:1;"/><text fill="#808080" font-family="sans-serif" font-size="14" lengthAdjust="spacing" textLength="179.9833" x="27" y="198.3619">is_mandatory : Boolean [0..1]</text><ellipse cx="18" cy="211.2998" fill="none" rx="3" ry="3" style="stroke:#038048;stroke-width:1;"/><text fill="#808080" font-family="sans-serif" font-size="14" lengthAdjust="spacing" textLength="175.4473" x="27" y="215.1618">is_computed : Boolean [0..1]</text><ellipse cx="18" cy="228.0997" fill="none" rx="3" ry="3" style="stroke:#038048;stroke-width:1;"/><text fill="#808080" font-family="sans-serif" font-size="14" lengthAdjust="spacing" textLength="220.4851" x="27" y="231.9617">is_im_infrastructure : Boolean [0..1]</text><ellipse cx="18" cy="244.8997" fill="none" rx="3" ry="3" style="stroke:#038048;stroke-width:1;"/><text fill="#808080" font-family="sans-serif" font-size="14" lengthAdjust="spacing" textLength="184.5052" x="27" y="248.7616">is_im_runtime : Boolean [0..1]</text><ellipse cx="18" cy="261.6996" fill="none" rx="3" ry="3" style="stroke:#038048;stroke-width:1;"/><text fill="#808080" font-family="sans-serif" font-size="14" lengthAdjust="spacing" textLength="186.2132" x="27" y="265.5616">type_def : P_BMM_TYPE [0..1]</text><ellipse cx="18" cy="278.4995" fill="none" rx="3" ry="3" style="stroke:#038048;stroke-width:1;"/><text fill="#808080" font-family="sans-serif" font-size="14" lengthAdjust="spacing" textLength="246.357" x="27" y="282.3615">bmm_property : BMM_PROPERTY [0..1]</text><line style="stroke:#808080;stroke-width:1;stroke-dasharray:1,3;" x1="8" x2="645.9952" y1="289.3995" y2="289.3995"/><ellipse cx="18" cy="303.2995" fill="#84BE84" rx="3" ry="3" style="stroke:#038048;stroke-width:1;"/><text fill="#808080" font-family="sans-serif" font-size="14" lengthAdjust="spacing" textLength="613.9952" x="27" y="307.1614">create_bmm_property( a_bmm_schema : BMM_MODEL [1], a_class_def : BMM_CLASS [1] ) : void [1]</text></g><!--class P_BMM_MODEL_ELEMENT--><g class="entity" data-entity="P_BMM_MODEL_ELEMENT" data-source-line="25" data-uid="ent0005" id="entity_P_BMM_MODEL_ELEMENT"><rect fill="#F5F5F5" height="64.7999" rx="2.5" ry="2.5" style="stroke:#808080;stroke-width:1;stroke-dasharray:1,3;" width="204.0733" x="224.96" y="7"/><ellipse cx="239.96" cy="23" fill="#A9DCDF" rx="11" ry="11" style="stroke:#181818;stroke-width:1;"/><path d="M234.4756,28.5 L236.5069,28.5 L240.5538,17.1563 L239.6475,17.1563 L243.4756,28.5 L245.6163,28.5 L241.2881,16.1719 L239.0694,16.1719 L234.4756,28.5 Z M236.8038,25 L243.2413,25 L243.2413,23.25 L236.8038,23.25 L236.8038,25 Z " fill="#000000"/><text fill="#808080" font-family="sans-serif" font-size="14" font-style="italic" lengthAdjust="spacing" textLength="172.0733" x="253.96" y="28.362">P_BMM_MODEL_ELEMENT</text><line style="stroke:#808080;stroke-width:1;stroke-dasharray:1,3;" x1="225.96" x2="428.0333" y1="39" y2="39"/><ellipse cx="235.96" cy="52.9" fill="none" rx="3" ry="3" style="stroke:#038048;stroke-width:1;"/><text fill="#808080" font-family="sans-serif" font-size="14" lengthAdjust="spacing" textLength="176.3433" x="244.96" y="56.7619">documentation : String [0..1]</text><line style="stroke:#808080;stroke-width:1;stroke-dasharray:1,3;" x1="225.96" x2="428.0333" y1="63.7999" y2="63.7999"/></g><!--reverse link P_BMM_MODEL_ELEMENT to P_BMM_PROPERTY--><g class="link" data-entity-1="P_BMM_MODEL_ELEMENT" data-entity-2="P_BMM_PROPERTY" data-source-line="29" data-uid="lnk6" id="link_P_BMM_MODEL_ELEMENT_P_BMM_PROPERTY"><path codeLine="29" d="M327,90.03 C327,106.7 327,110.07 327,131.43" fill="none" id="P_BMM_MODEL_ELEMENT-backto-P_BMM_PROPERTY" style="stroke:#181818;stroke-width:1;"/><polygon fill="none" points="327,72.03,321,90.03,333,90.03,327,72.03" style="stroke:#181818;stroke-width:1;"/></g><!--reverse link P_BMM_PROPERTY to P_BMM_CONTAINER_PROPERTY--><g class="link" data-entity-1="P_BMM_PROPERTY" data-entity-2="P_BMM_CONTAINER_PROPERTY" data-source-line="31" data-uid="lnk7" id="link_P_BMM_PROPERTY_P_BMM_CONTAINER_PROPERTY"><path codeLine="31" d="M327,332.41 C327,352.62 327,355.51 327,373.91" fill="none" id="P_BMM_PROPERTY-backto-P_BMM_CONTAINER_PROPERTY" style="stroke:#181818;stroke-width:1;"/><polygon fill="none" points="327,314.41,321,332.41,333,332.41,327,314.41" style="stroke:#181818;stroke-width:1;"/></g><!--reverse link P_BMM_CONTAINER_PROPERTY to P_BMM_INDEXED_CONTAINER_PROPERTY--><g class="link" data-entity-1="P_BMM_CONTAINER_PROPERTY" data-entity-2="P_BMM_INDEXED_CONTAINER_PROPERTY" data-source-line="33" data-uid="lnk8" id="link_P_BMM_CONTAINER_PROPERTY_P_BMM_INDEXED_CONTAINER_PROPERTY"><path codeLine="33" d="M327,507.71 C327,527.45 327,531.14 327,549.23" fill="none" id="P_BMM_CONTAINER_PROPERTY-backto-P_BMM_INDEXED_CONTAINER_PROPERTY" style="stroke:#181818;stroke-width:1;"/><polygon fill="none" points="327,489.71,321,507.71,333,507.71,327,489.71" style="stroke:#181818;stroke-width:1;"/></g></g></svg>
