<svg xmlns="http://www.w3.org/2000/svg" xmlns:xlink="http://www.w3.org/1999/xlink" contentStyleType="text/css" data-diagram-type="CLASS" height="237px" preserveAspectRatio="none" style="width:261px;height:237px;background:#FFFFFF;" version="1.1" viewBox="0 0 261 237" width="261px" zoomAndPan="magnify"><defs/><g><!--class TYPE_DEF_TERMINOLOGY_CODE--><g class="entity" data-entity="TYPE_DEF_TERMINOLOGY_CODE" data-source-line="2" data-uid="ent0002" id="entity_TYPE_DEF_TERMINOLOGY_CODE"><rect fill="#F1F1F1" height="81.5999" rx="2.5" ry="2.5" style="stroke:#181818;stroke-width:0.5;" width="247.1991" x="7" y="148.6"/><ellipse cx="22.1665" cy="164.6" fill="#ADD1B2" rx="11" ry="11" style="stroke:#181818;stroke-width:1;"/><path d="M22.1665,171.0219 C23.3384,171.0219 24.5728,170.7563 25.9478,170.1469 L25.4634,168.6313 C24.3696,169.0531 23.354,169.2406 22.4946,169.2406 C19.7759,169.2406 18.0571,167.3969 18.0571,164.4906 C18.0571,161.7406 19.6196,160.1469 22.354,160.1469 C23.2759,160.1469 24.2915,160.3344 25.4321,160.7563 L26.0103,159.2406 C24.9165,158.6625 23.6196,158.3656 22.4321,158.3656 C18.6665,158.3656 16.0884,161.0063 16.0884,164.8188 C16.0884,168.4906 18.5728,171.0219 22.1665,171.0219 Z " fill="#000000"/><text fill="#000000" font-family="sans-serif" font-size="14" lengthAdjust="spacing" textLength="214.8291" x="36.2035" y="169.962">TYPE_DEF_TERMINOLOGY_CODE</text><line style="stroke:#181818;stroke-width:0.5;" x1="8" x2="253.1991" y1="180.6" y2="180.6"/><ellipse cx="18" cy="194.5" fill="none" rx="3" ry="3" style="stroke:#038048;stroke-width:1;"/><text fill="#000000" font-family="sans-serif" font-size="14" lengthAdjust="spacing" textLength="135.0435" x="27" y="198.3619">type_name : String [1]</text><ellipse cx="18" cy="211.2999" fill="none" rx="3" ry="3" style="stroke:#038048;stroke-width:1;"/><text fill="#000000" font-family="sans-serif" font-size="14" lengthAdjust="spacing" textLength="221.1991" x="27" y="215.1619">type_anchor : Terminology_code [1]</text><line style="stroke:#181818;stroke-width:0.5;" x1="8" x2="253.1991" y1="222.1999" y2="222.1999"/></g><!--class EL_TYPE_DEF--><g class="entity" data-entity="EL_TYPE_DEF" data-source-line="7" data-uid="ent0003" id="entity_EL_TYPE_DEF"><rect fill="#F5F5F5" height="81.5999" rx="2.5" ry="2.5" style="stroke:#808080;stroke-width:1;stroke-dasharray:1,3;" width="161.0435" x="50.08" y="7"/><ellipse cx="83.6613" cy="23" fill="#A9DCDF" rx="11" ry="11" style="stroke:#181818;stroke-width:1;"/><path d="M78.177,28.5 L80.2082,28.5 L84.2551,17.1563 L83.3488,17.1563 L87.177,28.5 L89.3176,28.5 L84.9895,16.1719 L82.7707,16.1719 L78.177,28.5 Z M80.5051,25 L86.9426,25 L86.9426,23.25 L80.5051,23.25 L80.5051,25 Z " fill="#000000"/><text fill="#808080" font-family="sans-serif" font-size="14" font-style="italic" lengthAdjust="spacing" textLength="87.7516" x="101.7905" y="28.362">EL_TYPE_DEF</text><line style="stroke:#808080;stroke-width:1;stroke-dasharray:1,3;" x1="51.08" x2="210.1235" y1="39" y2="39"/><ellipse cx="61.08" cy="52.9" fill="none" rx="3" ry="3" style="stroke:#038048;stroke-width:1;"/><text fill="#808080" font-family="sans-serif" font-size="14" lengthAdjust="spacing" textLength="135.0435" x="70.08" y="56.7619">type_name : String [1]</text><ellipse cx="61.08" cy="69.6999" fill="none" rx="3" ry="3" style="stroke:#038048;stroke-width:1;"/><text fill="#808080" font-family="sans-serif" font-size="14" lengthAdjust="spacing" textLength="128.9255" x="70.08" y="73.5619">type_anchor : Any [1]</text><line style="stroke:#808080;stroke-width:1;stroke-dasharray:1,3;" x1="51.08" x2="210.1235" y1="80.5999" y2="80.5999"/></g><!--reverse link EL_TYPE_DEF to TYPE_DEF_TERMINOLOGY_CODE--><g class="link" data-entity-1="EL_TYPE_DEF" data-entity-2="TYPE_DEF_TERMINOLOGY_CODE" data-source-line="12" data-uid="lnk4" id="link_EL_TYPE_DEF_TYPE_DEF_TERMINOLOGY_CODE"><path codeLine="12" d="M130.6,106.8 C130.6,125.5 130.6,129.7 130.6,148.39" fill="none" id="EL_TYPE_DEF-backto-TYPE_DEF_TERMINOLOGY_CODE" style="stroke:#181818;stroke-width:1;"/><polygon fill="none" points="130.6,88.8,124.6,106.8,136.6,106.8,130.6,88.8" style="stroke:#181818;stroke-width:1;"/></g></g></svg>
