<svg xmlns="http://www.w3.org/2000/svg" xmlns:xlink="http://www.w3.org/1999/xlink" contentStyleType="text/css" data-diagram-type="CLASS" height="237px" preserveAspectRatio="none" style="width:188px;height:237px;background:#FFFFFF;" version="1.1" viewBox="0 0 188 237" width="188px" zoomAndPan="magnify"><defs/><g><!--class TYPE_DEF_DURATION--><g class="entity" data-entity="TYPE_DEF_DURATION" data-source-line="2" data-uid="ent0002" id="entity_TYPE_DEF_DURATION"><rect fill="#F1F1F1" height="81.5999" rx="2.5" ry="2.5" style="stroke:#181818;stroke-width:0.5;" width="174.0854" x="7" y="148.6"/><ellipse cx="22" cy="164.6" fill="#ADD1B2" rx="11" ry="11" style="stroke:#181818;stroke-width:1;"/><path d="M22,171.0219 C23.1719,171.0219 24.4063,170.7563 25.7813,170.1469 L25.2969,168.6313 C24.2031,169.0531 23.1875,169.2406 22.3281,169.2406 C19.6094,169.2406 17.8906,167.3969 17.8906,164.4906 C17.8906,161.7406 19.4531,160.1469 22.1875,160.1469 C23.1094,160.1469 24.125,160.3344 25.2656,160.7563 L25.8438,159.2406 C24.75,158.6625 23.4531,158.3656 22.2656,158.3656 C18.5,158.3656 15.9219,161.0063 15.9219,164.8188 C15.9219,168.4906 18.4063,171.0219 22,171.0219 Z " fill="#000000"/><text fill="#000000" font-family="sans-serif" font-size="14" lengthAdjust="spacing" textLength="142.0854" x="36" y="169.962">TYPE_DEF_DURATION</text><line style="stroke:#181818;stroke-width:0.5;" x1="8" x2="180.0854" y1="180.6" y2="180.6"/><ellipse cx="18" cy="194.5" fill="none" rx="3" ry="3" style="stroke:#038048;stroke-width:1;"/><text fill="#000000" font-family="sans-serif" font-size="14" lengthAdjust="spacing" textLength="135.0435" x="27" y="198.3619">type_name : String [1]</text><ellipse cx="18" cy="211.2999" fill="none" rx="3" ry="3" style="stroke:#038048;stroke-width:1;"/><text fill="#000000" font-family="sans-serif" font-size="14" lengthAdjust="spacing" textLength="128.9255" x="27" y="215.1619">type_anchor : Any [1]</text><line style="stroke:#181818;stroke-width:0.5;" x1="8" x2="180.0854" y1="222.1999" y2="222.1999"/></g><!--class EL_TYPE_DEF--><g class="entity" data-entity="EL_TYPE_DEF" data-source-line="7" data-uid="ent0003" id="entity_EL_TYPE_DEF"><rect fill="#F5F5F5" height="81.5999" rx="2.5" ry="2.5" style="stroke:#808080;stroke-width:1;stroke-dasharray:1,3;" width="161.0435" x="13.52" y="7"/><ellipse cx="47.1013" cy="23" fill="#A9DCDF" rx="11" ry="11" style="stroke:#181818;stroke-width:1;"/><path d="M41.617,28.5 L43.6482,28.5 L47.6951,17.1563 L46.7888,17.1563 L50.617,28.5 L52.7576,28.5 L48.4295,16.1719 L46.2107,16.1719 L41.617,28.5 Z M43.9451,25 L50.3826,25 L50.3826,23.25 L43.9451,23.25 L43.9451,25 Z " fill="#000000"/><text fill="#808080" font-family="sans-serif" font-size="14" font-style="italic" lengthAdjust="spacing" textLength="87.7516" x="65.2305" y="28.362">EL_TYPE_DEF</text><line style="stroke:#808080;stroke-width:1;stroke-dasharray:1,3;" x1="14.52" x2="173.5635" y1="39" y2="39"/><ellipse cx="24.52" cy="52.9" fill="none" rx="3" ry="3" style="stroke:#038048;stroke-width:1;"/><text fill="#808080" font-family="sans-serif" font-size="14" lengthAdjust="spacing" textLength="135.0435" x="33.52" y="56.7619">type_name : String [1]</text><ellipse cx="24.52" cy="69.6999" fill="none" rx="3" ry="3" style="stroke:#038048;stroke-width:1;"/><text fill="#808080" font-family="sans-serif" font-size="14" lengthAdjust="spacing" textLength="128.9255" x="33.52" y="73.5619">type_anchor : Any [1]</text><line style="stroke:#808080;stroke-width:1;stroke-dasharray:1,3;" x1="14.52" x2="173.5635" y1="80.5999" y2="80.5999"/></g><!--reverse link EL_TYPE_DEF to TYPE_DEF_DURATION--><g class="link" data-entity-1="EL_TYPE_DEF" data-entity-2="TYPE_DEF_DURATION" data-source-line="12" data-uid="lnk4" id="link_EL_TYPE_DEF_TYPE_DEF_DURATION"><path codeLine="12" d="M94.04,106.8 C94.04,125.5 94.04,129.7 94.04,148.39" fill="none" id="EL_TYPE_DEF-backto-TYPE_DEF_DURATION" style="stroke:#181818;stroke-width:1;"/><polygon fill="none" points="94.04,88.8,88.04,106.8,100.04,106.8,94.04,88.8" style="stroke:#181818;stroke-width:1;"/></g></g></svg>
