<svg xmlns="http://www.w3.org/2000/svg" xmlns:xlink="http://www.w3.org/1999/xlink" contentStyleType="text/css" data-diagram-type="CLASS" height="119px" preserveAspectRatio="none" style="width:283px;height:119px;background:#FFFFFF;" version="1.1" viewBox="0 0 283 119" width="283px" zoomAndPan="magnify"><defs/><g><!--class CODE--><g class="entity" data-entity="CODE" data-source-line="2" data-uid="ent0002" id="entity_CODE"><rect fill="#F1F1F1" height="98.3998" rx="2.5" ry="2.5" style="stroke:#181818;stroke-width:0.5;" width="262.417" x="7" y="7"/><ellipse cx="115.0586" cy="23" fill="#ADD1B2" rx="11" ry="11" style="stroke:#181818;stroke-width:1;"/><path d="M115.0586,29.4219 C116.2305,29.4219 117.4648,29.1563 118.8398,28.5469 L118.3555,27.0313 C117.2617,27.4531 116.2461,27.6406 115.3867,27.6406 C112.668,27.6406 110.9492,25.7969 110.9492,22.8906 C110.9492,20.1406 112.5117,18.5469 115.2461,18.5469 C116.168,18.5469 117.1836,18.7344 118.3242,19.1563 L118.9023,17.6406 C117.8086,17.0625 116.5117,16.7656 115.3242,16.7656 C111.5586,16.7656 108.9805,19.4063 108.9805,23.2188 C108.9805,26.8906 111.4648,29.4219 115.0586,29.4219 Z " fill="#000000"/><text fill="#000000" font-family="sans-serif" font-size="14" lengthAdjust="spacing" textLength="37.7999" x="135.5586" y="28.362">CODE</text><line style="stroke:#181818;stroke-width:0.5;" x1="8" x2="268.417" y1="39" y2="39"/><ellipse cx="18" cy="52.9" fill="none" rx="3" ry="3" style="stroke:#038048;stroke-width:1;"/><text fill="#000000" font-family="sans-serif" font-size="14" lengthAdjust="spacing" textLength="98.9656" x="27" y="56.7619">value : String [1]</text><ellipse cx="18" cy="69.6999" fill="none" rx="3" ry="3" style="stroke:#038048;stroke-width:1;"/><text fill="#000000" font-family="sans-serif" font-size="14" lengthAdjust="spacing" textLength="151.2414" x="27" y="73.5619">description : String [0..1]</text><ellipse cx="18" cy="86.4998" fill="none" rx="3" ry="3" style="stroke:#038048;stroke-width:1;"/><text fill="#000000" font-family="sans-serif" font-size="14" lengthAdjust="spacing" textLength="236.417" x="27" y="90.3618">status : TERMINOLOGY_STATUS [0..1]</text><line style="stroke:#181818;stroke-width:0.5;" x1="8" x2="268.417" y1="97.3998" y2="97.3998"/></g></g></svg>
