<svg xmlns="http://www.w3.org/2000/svg" xmlns:xlink="http://www.w3.org/1999/xlink" contentStyleType="text/css" data-diagram-type="CLASS" height="169px" preserveAspectRatio="none" style="width:283px;height:169px;background:#FFFFFF;" version="1.1" viewBox="0 0 283 169" width="283px" zoomAndPan="magnify"><defs/><g><!--class CODE_SET--><g class="entity" data-entity="CODE_SET" data-source-line="2" data-uid="ent0002" id="entity_CODE_SET"><rect fill="#F1F1F1" height="148.7996" rx="2.5" ry="2.5" style="stroke:#181818;stroke-width:0.5;" width="262.417" x="7" y="7"/><ellipse cx="99.6377" cy="23" fill="#ADD1B2" rx="11" ry="11" style="stroke:#181818;stroke-width:1;"/><path d="M99.6377,29.4219 C100.8095,29.4219 102.0439,29.1563 103.4189,28.5469 L102.9345,27.0313 C101.8408,27.4531 100.8252,27.6406 99.9658,27.6406 C97.247,27.6406 95.5283,25.7969 95.5283,22.8906 C95.5283,20.1406 97.0908,18.5469 99.8252,18.5469 C100.747,18.5469 101.7627,18.7344 102.9033,19.1563 L103.4814,17.6406 C102.3877,17.0625 101.0908,16.7656 99.9033,16.7656 C96.1377,16.7656 93.5595,19.4063 93.5595,23.2188 C93.5595,26.8906 96.0439,29.4219 99.6377,29.4219 Z " fill="#000000"/><text fill="#000000" font-family="sans-serif" font-size="14" lengthAdjust="spacing" textLength="68.6417" x="120.1377" y="28.362">CODE_SET</text><line style="stroke:#181818;stroke-width:0.5;" x1="8" x2="268.417" y1="39" y2="39"/><ellipse cx="18" cy="52.9" fill="none" rx="3" ry="3" style="stroke:#038048;stroke-width:1;"/><text fill="#000000" font-family="sans-serif" font-size="14" lengthAdjust="spacing" textLength="100.8836" x="27" y="56.7619">name : String [1]</text><ellipse cx="18" cy="69.6999" fill="none" rx="3" ry="3" style="stroke:#038048;stroke-width:1;"/><text fill="#000000" font-family="sans-serif" font-size="14" lengthAdjust="spacing" textLength="136.2755" x="27" y="73.5619">openehr_id : String [1]</text><ellipse cx="18" cy="86.4998" fill="none" rx="3" ry="3" style="stroke:#038048;stroke-width:1;"/><text fill="#000000" font-family="sans-serif" font-size="14" lengthAdjust="spacing" textLength="102.8996" x="27" y="90.3618">issuer : String [1]</text><ellipse cx="18" cy="103.2997" fill="none" rx="3" ry="3" style="stroke:#038048;stroke-width:1;"/><text fill="#000000" font-family="sans-serif" font-size="14" lengthAdjust="spacing" textLength="141.6514" x="27" y="107.1617">codes : List&lt;CODE&gt; [*]</text><ellipse cx="18" cy="120.0997" fill="none" rx="3" ry="3" style="stroke:#038048;stroke-width:1;"/><text fill="#000000" font-family="sans-serif" font-size="14" lengthAdjust="spacing" textLength="150.8494" x="27" y="123.9616">external_id : String [0..1]</text><ellipse cx="18" cy="136.8996" fill="none" rx="3" ry="3" style="stroke:#038048;stroke-width:1;"/><text fill="#000000" font-family="sans-serif" font-size="14" lengthAdjust="spacing" textLength="236.417" x="27" y="140.7616">status : TERMINOLOGY_STATUS [0..1]</text><line style="stroke:#181818;stroke-width:0.5;" x1="8" x2="268.417" y1="147.7996" y2="147.7996"/></g></g></svg>
