<svg xmlns="http://www.w3.org/2000/svg" xmlns:xlink="http://www.w3.org/1999/xlink" contentStyleType="text/css" data-diagram-type="CLASS" height="522px" preserveAspectRatio="none" style="width:1204px;height:522px;background:#FFFFFF;" version="1.1" viewBox="0 0 1204 522" width="1204px" zoomAndPan="magnify"><defs/><g><!--class ARCHETYPE_TERM--><g class="entity" data-entity="ARCHETYPE_TERM" data-source-line="2" data-uid="ent0002" id="entity_ARCHETYPE_TERM"><rect fill="#F1F1F1" height="115.1997" rx="2.5" ry="2.5" style="stroke:#181818;stroke-width:0.5;" width="272.091" x="7" y="149.8"/><ellipse cx="78.2808" cy="165.8" fill="#ADD1B2" rx="11" ry="11" style="stroke:#181818;stroke-width:1;"/><path d="M78.2808,172.2219 C79.4527,172.2219 80.687,171.9563 82.062,171.3469 L81.5777,169.8313 C80.4839,170.2531 79.4683,170.4406 78.6089,170.4406 C75.8902,170.4406 74.1714,168.5969 74.1714,165.6906 C74.1714,162.9406 75.7339,161.3469 78.4683,161.3469 C79.3902,161.3469 80.4058,161.5344 81.5464,161.9563 L82.1245,160.4406 C81.0308,159.8625 79.7339,159.5656 78.5464,159.5656 C74.7808,159.5656 72.2027,162.2063 72.2027,166.0188 C72.2027,169.6906 74.687,172.2219 78.2808,172.2219 Z " fill="#000000"/><text fill="#000000" font-family="sans-serif" font-size="14" lengthAdjust="spacing" textLength="121.0295" x="98.7808" y="171.162">ARCHETYPE_TERM</text><line style="stroke:#181818;stroke-width:0.5;" x1="8" x2="278.091" y1="181.8" y2="181.8"/><ellipse cx="18" cy="195.7" fill="none" rx="3" ry="3" style="stroke:#038048;stroke-width:1;"/><text fill="#000000" font-family="sans-serif" font-size="14" lengthAdjust="spacing" textLength="95.8296" x="27" y="199.5619">code : String [1]</text><ellipse cx="18" cy="212.4999" fill="none" rx="3" ry="3" style="stroke:#038048;stroke-width:1;"/><text fill="#000000" font-family="sans-serif" font-size="14" lengthAdjust="spacing" textLength="90.0477" x="27" y="216.3619">text : String [1]</text><ellipse cx="18" cy="229.2998" fill="none" rx="3" ry="3" style="stroke:#038048;stroke-width:1;"/><text fill="#000000" font-family="sans-serif" font-size="14" lengthAdjust="spacing" textLength="135.4775" x="27" y="233.1618">description : String [1]</text><ellipse cx="18" cy="246.0997" fill="none" rx="3" ry="3" style="stroke:#038048;stroke-width:1;"/><text fill="#000000" font-family="sans-serif" font-size="14" lengthAdjust="spacing" textLength="246.091" x="27" y="249.9617">other_items : Hash&lt;String,String&gt; [0..1]</text><line style="stroke:#181818;stroke-width:0.5;" x1="8" x2="278.091" y1="256.9997" y2="256.9997"/></g><!--class TERMINOLOGY_RELATION--><g class="entity" data-entity="TERMINOLOGY_RELATION" data-source-line="9" data-uid="ent0003" id="entity_TERMINOLOGY_RELATION"><rect fill="#F1F1F1" height="81.5999" rx="2.5" ry="2.5" style="stroke:#181818;stroke-width:0.5;" width="203.3793" x="314.36" y="166.6"/><ellipse cx="329.9612" cy="182.6" fill="#A9DCDF" rx="11" ry="11" style="stroke:#181818;stroke-width:1;"/><path d="M324.4768,188.1 L326.5081,188.1 L330.5549,176.7563 L329.6487,176.7563 L333.4768,188.1 L335.6174,188.1 L331.2893,175.7719 L329.0706,175.7719 L324.4768,188.1 Z M326.8049,184.6 L333.2424,184.6 L333.2424,182.85 L326.8049,182.85 L326.8049,184.6 Z " fill="#000000"/><text fill="#000000" font-family="sans-serif" font-size="14" font-style="italic" lengthAdjust="spacing" textLength="170.0433" x="344.0948" y="187.962">TERMINOLOGY_RELATION</text><line style="stroke:#181818;stroke-width:0.5;" x1="315.36" x2="516.7393" y1="198.6" y2="198.6"/><ellipse cx="325.36" cy="212.5" fill="none" rx="3" ry="3" style="stroke:#038048;stroke-width:1;"/><text fill="#000000" font-family="sans-serif" font-size="14" lengthAdjust="spacing" textLength="77.4057" x="334.36" y="216.3619">id : String [1]</text><ellipse cx="325.36" cy="229.2999" fill="none" rx="3" ry="3" style="stroke:#038048;stroke-width:1;"/><text fill="#000000" font-family="sans-serif" font-size="14" lengthAdjust="spacing" textLength="177.3793" x="334.36" y="233.1619">members : List&lt;String&gt; [1..*]</text><line style="stroke:#181818;stroke-width:0.5;" x1="315.36" x2="516.7393" y1="240.1999" y2="240.1999"/></g><!--class VALUE_SET--><g class="entity" data-entity="VALUE_SET" data-source-line="14" data-uid="ent0004" id="entity_VALUE_SET"><rect fill="#F1F1F1" height="48" rx="2.5" ry="2.5" style="stroke:#181818;stroke-width:0.5;" width="104.7017" x="363.69" y="467.8"/><ellipse cx="378.69" cy="483.8" fill="#ADD1B2" rx="11" ry="11" style="stroke:#181818;stroke-width:1;"/><path d="M378.69,490.2219 C379.8619,490.2219 381.0963,489.9563 382.4713,489.3469 L381.9869,487.8313 C380.8931,488.2531 379.8775,488.4406 379.0181,488.4406 C376.2994,488.4406 374.5806,486.5969 374.5806,483.6906 C374.5806,480.9406 376.1431,479.3469 378.8775,479.3469 C379.7994,479.3469 380.815,479.5344 381.9556,479.9563 L382.5338,478.4406 C381.44,477.8625 380.1431,477.5656 378.9556,477.5656 C375.19,477.5656 372.6119,480.2063 372.6119,484.0188 C372.6119,487.6906 375.0963,490.2219 378.69,490.2219 Z " fill="#000000"/><text fill="#000000" font-family="sans-serif" font-size="14" lengthAdjust="spacing" textLength="72.7017" x="392.69" y="489.162">VALUE_SET</text><line style="stroke:#181818;stroke-width:0.5;" x1="364.69" x2="467.3917" y1="499.8" y2="499.8"/><line style="stroke:#181818;stroke-width:0.5;" x1="364.69" x2="467.3917" y1="507.8" y2="507.8"/></g><!--class ARCHETYPE_TERMINOLOGY--><g class="entity" data-entity="ARCHETYPE_TERMINOLOGY" data-source-line="17" data-uid="ent0005" id="entity_ARCHETYPE_TERMINOLOGY"><rect fill="#F1F1F1" height="400.7985" rx="2.5" ry="2.5" style="stroke:#181818;stroke-width:0.5;" width="644.5317" x="552.78" y="7"/><ellipse cx="779.9152" cy="23" fill="#ADD1B2" rx="11" ry="11" style="stroke:#181818;stroke-width:1;"/><path d="M779.9152,29.4219 C781.0871,29.4219 782.3215,29.1563 783.6965,28.5469 L783.2121,27.0313 C782.1184,27.4531 781.1027,27.6406 780.2434,27.6406 C777.5246,27.6406 775.8059,25.7969 775.8059,22.8906 C775.8059,20.1406 777.3684,18.5469 780.1027,18.5469 C781.0246,18.5469 782.0402,18.7344 783.1809,19.1563 L783.759,17.6406 C782.6652,17.0625 781.3684,16.7656 780.1809,16.7656 C776.4152,16.7656 773.8371,19.4063 773.8371,23.2188 C773.8371,26.8906 776.3215,29.4219 779.9152,29.4219 Z " fill="#000000"/><text fill="#000000" font-family="sans-serif" font-size="14" lengthAdjust="spacing" textLength="181.7612" x="800.4152" y="28.362">ARCHETYPE_TERMINOLOGY</text><line style="stroke:#181818;stroke-width:0.5;" x1="553.78" x2="1196.3117" y1="39" y2="39"/><ellipse cx="563.78" cy="52.9" fill="none" rx="3" ry="3" style="stroke:#038048;stroke-width:1;"/><text fill="#000000" font-family="sans-serif" font-size="14" lengthAdjust="spacing" textLength="165.0733" x="572.78" y="56.7619">is_differential : Boolean [1]</text><ellipse cx="563.78" cy="69.6999" fill="none" rx="3" ry="3" style="stroke:#038048;stroke-width:1;"/><text fill="#000000" font-family="sans-serif" font-size="14" lengthAdjust="spacing" textLength="177.3933" x="572.78" y="73.5619">original_language : String [1]</text><ellipse cx="563.78" cy="86.4998" fill="none" rx="3" ry="3" style="stroke:#038048;stroke-width:1;"/><text fill="#000000" font-family="sans-serif" font-size="14" lengthAdjust="spacing" textLength="152.2214" x="572.78" y="90.3618">concept_code : String [1]</text><ellipse cx="563.78" cy="103.2997" fill="none" rx="3" ry="3" style="stroke:#038048;stroke-width:1;"/><text fill="#000000" font-family="sans-serif" font-size="14" lengthAdjust="spacing" textLength="430.4424" x="572.78" y="107.1617">term_definitions : Hash&lt;String,Hash&lt;String,ARCHETYPE_TERM&gt;&gt; [1]</text><ellipse cx="563.78" cy="120.0997" fill="none" rx="3" ry="3" style="stroke:#038048;stroke-width:1;"/><text fill="#000000" font-family="sans-serif" font-size="14" lengthAdjust="spacing" textLength="330.6647" x="572.78" y="123.9616">term_bindings : Hash&lt;String,Hash&lt;String,Uri&gt;&gt; [0..1]</text><ellipse cx="563.78" cy="136.8996" fill="none" rx="3" ry="3" style="stroke:#038048;stroke-width:1;"/><text fill="#000000" font-family="sans-serif" font-size="14" lengthAdjust="spacing" textLength="213.7512" x="572.78" y="140.7616">owner_archetype : ARCHETYPE [1]</text><ellipse cx="563.78" cy="153.6995" fill="none" rx="3" ry="3" style="stroke:#038048;stroke-width:1;"/><text fill="#000000" font-family="sans-serif" font-size="14" lengthAdjust="spacing" textLength="271.3889" x="572.78" y="157.5615">value_sets : Hash&lt;String,VALUE_SET&gt; [0..1]</text><ellipse cx="563.78" cy="170.4995" fill="none" rx="3" ry="3" style="stroke:#038048;stroke-width:1;"/><text fill="#000000" font-family="sans-serif" font-size="14" lengthAdjust="spacing" textLength="475.7742" x="572.78" y="174.3614">terminology_extracts : Hash&lt;String,Hash&lt;String,ARCHETYPE_TERM&gt;&gt; [0..1]</text><line style="stroke:#181818;stroke-width:0.5;" x1="553.78" x2="1196.3117" y1="181.3994" y2="181.3994"/><ellipse cx="563.78" cy="195.2994" fill="#84BE84" rx="3" ry="3" style="stroke:#038048;stroke-width:1;"/><text fill="#000000" font-family="sans-serif" font-size="14" lengthAdjust="spacing" textLength="209.5092" x="572.78" y="199.1614">specialisation_depth() : Integer [1]</text><ellipse cx="563.78" cy="212.0993" fill="#84BE84" rx="3" ry="3" style="stroke:#038048;stroke-width:1;"/><text fill="#000000" font-family="sans-serif" font-size="14" lengthAdjust="spacing" textLength="181.2293" x="572.78" y="215.9613">id_codes() : List&lt;String&gt; [1..*]</text><ellipse cx="563.78" cy="228.8992" fill="#84BE84" rx="3" ry="3" style="stroke:#038048;stroke-width:1;"/><text fill="#000000" font-family="sans-serif" font-size="14" lengthAdjust="spacing" textLength="189.6992" x="572.78" y="232.7612">value_codes() : List&lt;String&gt; [*]</text><ellipse cx="563.78" cy="245.6992" fill="#84BE84" rx="3" ry="3" style="stroke:#038048;stroke-width:1;"/><text fill="#000000" font-family="sans-serif" font-size="14" lengthAdjust="spacing" textLength="215.6411" x="572.78" y="249.5611">value_set_codes() : List&lt;String&gt; [*]</text><ellipse cx="563.78" cy="262.4991" fill="#84BE84" rx="3" ry="3" style="stroke:#038048;stroke-width:1;"/><text fill="#000000" font-family="sans-serif" font-size="14" lengthAdjust="spacing" textLength="287.2789" x="572.78" y="266.3611">has_language( a_lang : String [1] ) : Boolean [1]</text><ellipse cx="563.78" cy="279.299" fill="#84BE84" rx="3" ry="3" style="stroke:#038048;stroke-width:1;"/><text fill="#000000" font-family="sans-serif" font-size="14" lengthAdjust="spacing" textLength="373.3506" x="572.78" y="283.161">has_terminology( a_terminology_id : String [1] ) : Boolean [1]</text><ellipse cx="563.78" cy="296.0989" fill="#84BE84" rx="3" ry="3" style="stroke:#038048;stroke-width:1;"/><text fill="#000000" font-family="sans-serif" font-size="14" lengthAdjust="spacing" textLength="299.7949" x="572.78" y="299.9609">has_term_code( a_code : String [1] ) : Boolean [1]</text><ellipse cx="563.78" cy="312.8989" fill="#84BE84" rx="3" ry="3" style="stroke:#038048;stroke-width:1;"/><text fill="#000000" font-family="sans-serif" font-size="14" lengthAdjust="spacing" textLength="484.4122" x="572.78" y="316.7608">term_definition( a_lang : String [1], a_code : String [1] ) : ARCHETYPE_TERM [1]</text><ellipse cx="563.78" cy="329.6988" fill="#84BE84" rx="3" ry="3" style="stroke:#038048;stroke-width:1;"/><text fill="#000000" font-family="sans-serif" font-size="14" lengthAdjust="spacing" textLength="417.8705" x="572.78" y="333.5608">term_binding( a_terminology : String [1], a_code : String [1] ) : Uri [1]</text><ellipse cx="563.78" cy="346.4987" fill="#84BE84" rx="3" ry="3" style="stroke:#038048;stroke-width:1;"/><text fill="#000000" font-family="sans-serif" font-size="14" lengthAdjust="spacing" textLength="274.8749" x="572.78" y="350.3607">terminologies_available() : List&lt;String&gt; [1..*]</text><ellipse cx="563.78" cy="363.2986" fill="#84BE84" rx="3" ry="3" style="stroke:#038048;stroke-width:1;"/><text fill="#000000" font-family="sans-serif" font-size="14" lengthAdjust="spacing" textLength="618.5317" x="572.78" y="367.1606">terminology_extract_term( a_terminology_id : String [1], a_code : String [1] ) : ARCHETYPE_TERM [1]</text><ellipse cx="563.78" cy="380.0986" fill="#84BE84" rx="3" ry="3" style="stroke:#038048;stroke-width:1;"/><text fill="#000000" font-family="sans-serif" font-size="14" lengthAdjust="spacing" textLength="423.4005" x="572.78" y="383.9605">has_terminology_extract( a_terminology_id : String [1] ) : Boolean [1]</text><ellipse cx="563.78" cy="396.8985" fill="#84BE84" rx="3" ry="3" style="stroke:#038048;stroke-width:1;"/><text fill="#000000" font-family="sans-serif" font-size="14" lengthAdjust="spacing" textLength="252.111" x="572.78" y="400.7605">languages_available() : List&lt;String&gt; [1..*]</text></g><!--reverse link TERMINOLOGY_RELATION to VALUE_SET--><g class="link" data-entity-1="TERMINOLOGY_RELATION" data-entity-2="VALUE_SET" data-source-line="41" data-uid="lnk6" id="link_TERMINOLOGY_RELATION_VALUE_SET"><path codeLine="41" d="M416.05,266.56 C416.05,326.41 416.05,419.1 416.05,467.32" fill="none" id="TERMINOLOGY_RELATION-backto-VALUE_SET" style="stroke:#181818;stroke-width:1;"/><polygon fill="none" points="416.05,248.56,410.05,266.56,422.05,266.56,416.05,248.56" style="stroke:#181818;stroke-width:1;"/></g></g></svg>
